<?xml version="1.0" encoding="UTF-8" standalone="no"?>
<!-- Generator: IcoMoon.io -->

<svg
   xmlns:dc="http://purl.org/dc/elements/1.1/"
   xmlns:cc="http://creativecommons.org/ns#"
   xmlns:rdf="http://www.w3.org/1999/02/22-rdf-syntax-ns#"
   xmlns:svg="http://www.w3.org/2000/svg"
   xmlns="http://www.w3.org/2000/svg"
   xmlns:sodipodi="http://sodipodi.sourceforge.net/DTD/sodipodi-0.dtd"
   xmlns:inkscape="http://www.inkscape.org/namespaces/inkscape"
   width="512"
   height="512"
   viewBox="0 0 512 512"
   fill="#000000"
   id="svg2"
   version="1.1"
   inkscape:version="0.48.2 r9819"
   sodipodi:docname="alarm.svg">
  <metadata
     id="metadata73">
    <rdf:RDF>
      <cc:Work
         rdf:about="">
        <dc:format>image/svg+xml</dc:format>
        <dc:type
           rdf:resource="http://purl.org/dc/dcmitype/StillImage" />
      </cc:Work>
    </rdf:RDF>
  </metadata>
  <defs
     id="defs71" />
  <sodipodi:namedview
     pagecolor="#ffffff"
     bordercolor="#666666"
     borderopacity="1"
     objecttolerance="10"
     gridtolerance="10"
     guidetolerance="10"
     inkscape:pageopacity="0"
     inkscape:pageshadow="2"
     inkscape:window-width="640"
     inkscape:window-height="480"
     id="namedview69"
     showgrid="false"
     inkscape:zoom="0.4609375"
     inkscape:cx="256"
     inkscape:cy="256"
     inkscape:window-x="0"
     inkscape:window-y="0"
     inkscape:window-maximized="0"
     inkscape:current-layer="svg2" />
  <path
     d="M 288.00,274.745 L 342.627,329.373 L 297.373,374.627 L 224.00,301.255 L 224.00,192.00 L 288.00,192.00 ZM 416.00,32.00 C 469.02,32.00 512.00,74.98 512.00,128.00 C 512.00,160.492 495.855,189.209 471.154,206.579 C 447.859,145.057 398.943,96.141 337.421,72.846 C 354.791,48.145 383.509,32.00 416.00,32.00 ZM 174.579,72.846 C 113.057,96.141 64.141,145.057 40.846,206.579 C 16.145,189.209 0.00,160.492 0.00,128.00 C 0.00,74.98 42.98,32.00 96.00,32.00 C 128.492,32.00 157.209,48.145 174.579,72.846 ZM 256.00,96.00C 149.961,96.00, 64.00,181.961, 64.00,288.00c0.00,46.337, 16.416,88.839, 43.747,122.01L 96.00,512.00l 32.00,0.00 l 32.00-57.69l-0.004-0.004 C 188.238,470.645, 221.025,480.00, 256.00,480.00c 34.974,0.00, 67.76-9.355, 96.002-25.693L 352.00,454.309L 384.00,512.00l 32.00,0.00 l-11.751-101.984 C 431.583,376.843, 448.00,334.34, 448.00,288.00C 448.00,181.961, 362.039,96.00, 256.00,96.00z M 256.00,416.00c-70.692,0.00-128.00-57.308-128.00-128.00s 57.308-128.00, 128.00-128.00 s 128.00,57.308, 128.00,128.00S 326.692,416.00, 256.00,416.00z"
     id="path67" />
</svg>
