<?xml version="1.0" encoding="UTF-8" standalone="no"?>
<!-- Generator: IcoMoon.io -->

<svg
   xmlns:dc="http://purl.org/dc/elements/1.1/"
   xmlns:cc="http://creativecommons.org/ns#"
   xmlns:rdf="http://www.w3.org/1999/02/22-rdf-syntax-ns#"
   xmlns:svg="http://www.w3.org/2000/svg"
   xmlns="http://www.w3.org/2000/svg"
   xmlns:sodipodi="http://sodipodi.sourceforge.net/DTD/sodipodi-0.dtd"
   xmlns:inkscape="http://www.inkscape.org/namespaces/inkscape"
   width="512"
   height="512"
   viewBox="0 0 512 512"
   fill="#000000"
   id="svg2"
   version="1.1"
   inkscape:version="0.48.2 r9819"
   sodipodi:docname="angry.svg">
  <metadata
     id="metadata73">
    <rdf:RDF>
      <cc:Work
         rdf:about="">
        <dc:format>image/svg+xml</dc:format>
        <dc:type
           rdf:resource="http://purl.org/dc/dcmitype/StillImage" />
      </cc:Work>
    </rdf:RDF>
  </metadata>
  <defs
     id="defs71" />
  <sodipodi:namedview
     pagecolor="#ffffff"
     bordercolor="#666666"
     borderopacity="1"
     objecttolerance="10"
     gridtolerance="10"
     guidetolerance="10"
     inkscape:pageopacity="0"
     inkscape:pageshadow="2"
     inkscape:window-width="640"
     inkscape:window-height="480"
     id="namedview69"
     showgrid="false"
     inkscape:zoom="0.4609375"
     inkscape:cx="256"
     inkscape:cy="256"
     inkscape:window-x="0"
     inkscape:window-y="0"
     inkscape:window-maximized="0"
     inkscape:current-layer="svg2" />
  <path
     d="M 256.00,512.00c 141.385,0.00, 256.00-114.615, 256.00-256.00S 397.385,0.00, 256.00,0.00S0.00,114.615,0.00,256.00S 114.615,512.00, 256.00,512.00z M 256.00,48.00 c 114.875,0.00, 208.00,93.125, 208.00,208.00s-93.125,208.00-208.00,208.00S 48.00,370.875, 48.00,256.00S 141.125,48.00, 256.00,48.00z M 352.049,390.37 C 332.462,357.796, 296.777,336.00, 256.00,336.00c-40.778,0.00-76.462,21.796-96.049,54.37l-41.164-24.698C 146.767,319.137, 197.745,288.00, 256.00,288.00 c 58.254,0.00, 109.232,31.137, 137.213,77.672L 352.049,390.37zM 383.521,140.12 C 385.663,148.692 380.451,157.379 371.88,159.522 C 363.067,161.747 352.619,165.582 343.412,170.197 C 348.736,175.912 351.999,183.573 351.999,192.00 C 351.999,209.673 337.672,224.00 319.999,224.00 C 302.326,224.00 287.999,209.673 287.999,192.00 C 287.999,191.415 288.017,190.835 288.048,190.258 C 289.064,166.531 310.654,150.785 328.844,141.689 C 346.215,133.004 363.395,128.659 364.118,128.478 C 372.691,126.334 381.377,131.547 383.521,140.12 ZM 128.479,140.12c 2.144-8.573, 10.83-13.786, 19.403-11.642c 0.723,0.181, 17.903,4.526, 35.274,13.211 c 18.19,9.096, 39.78,24.842, 40.796,48.569c 0.031,0.577, 0.049,1.157, 0.049,1.742c0.00,17.673-14.327,32.00-32.00,32.00s-32.00-14.327-32.00-32.00 c0.00-8.427, 3.263-16.088, 8.587-21.803c-9.207-4.615-19.655-8.45-28.468-10.675C 131.549,157.379, 126.337,148.692, 128.479,140.12z"
     id="path67" />
</svg>
