<?xml version="1.0" encoding="UTF-8" standalone="no"?>
<!-- Generator: IcoMoon.io -->

<svg
   xmlns:dc="http://purl.org/dc/elements/1.1/"
   xmlns:cc="http://creativecommons.org/ns#"
   xmlns:rdf="http://www.w3.org/1999/02/22-rdf-syntax-ns#"
   xmlns:svg="http://www.w3.org/2000/svg"
   xmlns="http://www.w3.org/2000/svg"
   xmlns:sodipodi="http://sodipodi.sourceforge.net/DTD/sodipodi-0.dtd"
   xmlns:inkscape="http://www.inkscape.org/namespaces/inkscape"
   width="512"
   height="512"
   viewBox="0 0 512 512"
   fill="#000000"
   id="svg2"
   version="1.1"
   inkscape:version="0.48.2 r9819"
   sodipodi:docname="arrow-up3.svg">
  <metadata
     id="metadata73">
    <rdf:RDF>
      <cc:Work
         rdf:about="">
        <dc:format>image/svg+xml</dc:format>
        <dc:type
           rdf:resource="http://purl.org/dc/dcmitype/StillImage" />
      </cc:Work>
    </rdf:RDF>
  </metadata>
  <defs
     id="defs71" />
  <sodipodi:namedview
     pagecolor="#ffffff"
     bordercolor="#666666"
     borderopacity="1"
     objecttolerance="10"
     gridtolerance="10"
     guidetolerance="10"
     inkscape:pageopacity="0"
     inkscape:pageshadow="2"
     inkscape:window-width="640"
     inkscape:window-height="480"
     id="namedview69"
     showgrid="false"
     inkscape:zoom="0.4609375"
     inkscape:cx="256"
     inkscape:cy="256"
     inkscape:window-x="0"
     inkscape:window-y="0"
     inkscape:window-maximized="0"
     inkscape:current-layer="svg2" />
  <path
     d="M 512.00,256.00C 512.00,397.385, 397.385,512.00, 256.00,512.00s -256.00-114.615, -256.00-256.00s 114.615-256.00, 256.00-256.00S 512.00,114.615, 512.00,256.00z M 48.00,256.00 c 0.00,114.875 93.125,208.00 208.00,208.00S 464.00,370.875, 464.00,256.00s -93.125-208.00, -208.00-208.00S 48.00,141.125, 48.00,256.00zM 278.627,105.372l 128.00,128.001c 12.497,12.496 12.497,32.757 0.00,45.254c -12.497,12.497 -32.758,12.497,-45.255,0.00L 288.00,205.255 L 288.00,384.00 c 0.00,17.673 -14.327,32.00 -32.00,32.00c-17.673,0.00, -32.00-14.327, -32.00-32.00l0.00-178.745 l -73.372,73.373c -12.497,12.497 -32.759,12.497,-45.256,0.00 C 99.124,272.379, 96.00,264.189, 96.00,256.00s 3.124-16.379, 9.372-22.627l 128.00-128.001C 245.869,92.876, 266.131,92.876, 278.627,105.372z"
     id="path67" />
</svg>
