<?xml version="1.0" encoding="UTF-8" standalone="no"?>
<!-- Generator: IcoMoon.io -->

<svg
   xmlns:dc="http://purl.org/dc/elements/1.1/"
   xmlns:cc="http://creativecommons.org/ns#"
   xmlns:rdf="http://www.w3.org/1999/02/22-rdf-syntax-ns#"
   xmlns:svg="http://www.w3.org/2000/svg"
   xmlns="http://www.w3.org/2000/svg"
   xmlns:sodipodi="http://sodipodi.sourceforge.net/DTD/sodipodi-0.dtd"
   xmlns:inkscape="http://www.inkscape.org/namespaces/inkscape"
   width="512"
   height="512"
   viewBox="0 0 512 512"
   fill="#000000"
   id="svg2"
   version="1.1"
   inkscape:version="0.48.2 r9819"
   sodipodi:docname="apple.svg">
  <metadata
     id="metadata73">
    <rdf:RDF>
      <cc:Work
         rdf:about="">
        <dc:format>image/svg+xml</dc:format>
        <dc:type
           rdf:resource="http://purl.org/dc/dcmitype/StillImage" />
      </cc:Work>
    </rdf:RDF>
  </metadata>
  <defs
     id="defs71" />
  <sodipodi:namedview
     pagecolor="#ffffff"
     bordercolor="#666666"
     borderopacity="1"
     objecttolerance="10"
     gridtolerance="10"
     guidetolerance="10"
     inkscape:pageopacity="0"
     inkscape:pageshadow="2"
     inkscape:window-width="640"
     inkscape:window-height="480"
     id="namedview69"
     showgrid="false"
     inkscape:zoom="0.4609375"
     inkscape:cx="256"
     inkscape:cy="256"
     inkscape:window-x="0"
     inkscape:window-y="0"
     inkscape:window-maximized="0"
     inkscape:current-layer="svg2" />
  <path
     d="M 395.749,272.046c-0.647-64.841, 52.879-95.938, 55.271-97.483c-30.076-44.01-76.925-50.039-93.621-50.736 c-39.871-4.037-77.798,23.474-98.033,23.474c-20.184,0.00-51.409-22.877-84.476-22.276c-43.458,0.646-83.529,25.269-105.906,64.19 c-45.152,78.349-11.563,194.42, 32.445,257.963c 21.504,31.102, 47.146,66.038, 80.813,64.79c 32.421-1.294, 44.681-20.979, 83.878-20.979 c 39.197,0.00, 50.214,20.979, 84.525,20.335c 34.887-0.648, 56.991-31.699, 78.346-62.898c 24.695-36.084, 34.863-71.019, 35.462-72.813 C 463.679,375.26, 396.423,349.495, 395.749,272.046zM 331.281,81.761C 349.15,60.082, 361.211,30.005, 357.921,0.00c-25.739,1.048-56.939,17.145-75.405,38.775 c-16.571,19.188-31.074,49.813-27.187,79.218C 284.062,120.235, 313.393,103.391, 331.281,81.761z"
     id="path67" />
</svg>
