<?xml version="1.0" encoding="UTF-8" standalone="no"?>
<!-- Generator: IcoMoon.io -->

<svg
   xmlns:dc="http://purl.org/dc/elements/1.1/"
   xmlns:cc="http://creativecommons.org/ns#"
   xmlns:rdf="http://www.w3.org/1999/02/22-rdf-syntax-ns#"
   xmlns:svg="http://www.w3.org/2000/svg"
   xmlns="http://www.w3.org/2000/svg"
   xmlns:sodipodi="http://sodipodi.sourceforge.net/DTD/sodipodi-0.dtd"
   xmlns:inkscape="http://www.inkscape.org/namespaces/inkscape"
   width="512"
   height="512"
   viewBox="0 0 512 512"
   fill="#000000"
   id="svg2"
   version="1.1"
   inkscape:version="0.48.2 r9819"
   sodipodi:docname="android.svg">
  <metadata
     id="metadata73">
    <rdf:RDF>
      <cc:Work
         rdf:about="">
        <dc:format>image/svg+xml</dc:format>
        <dc:type
           rdf:resource="http://purl.org/dc/dcmitype/StillImage" />
      </cc:Work>
    </rdf:RDF>
  </metadata>
  <defs
     id="defs71" />
  <sodipodi:namedview
     pagecolor="#ffffff"
     bordercolor="#666666"
     borderopacity="1"
     objecttolerance="10"
     gridtolerance="10"
     guidetolerance="10"
     inkscape:pageopacity="0"
     inkscape:pageshadow="2"
     inkscape:window-width="640"
     inkscape:window-height="480"
     id="namedview69"
     showgrid="false"
     inkscape:zoom="0.4609375"
     inkscape:cx="256"
     inkscape:cy="256"
     inkscape:window-x="0"
     inkscape:window-y="0"
     inkscape:window-maximized="0"
     inkscape:current-layer="svg2" />
  <path
     d="M 432.00,160.00c-17.60,0.00-32.00,14.40-32.00,32.00l0.00,128.00 c0.00,17.60, 14.40,32.00, 32.00,32.00s 32.00-14.40, 32.00-32.00L 464.00,192.00 C 464.00,174.40, 449.60,160.00, 432.00,160.00zM 48.00,160.00c-17.60,0.00-32.00,14.40-32.00,32.00l0.00,128.00 c0.00,17.60, 14.40,32.00, 32.00,32.00s 32.00-14.40, 32.00-32.00L 80.00,192.00 C 80.00,174.40, 65.599,160.00, 48.00,160.00zM 96.00,368.00c0.00,26.51, 21.49,48.00, 48.00,48.00l 16.00,0.00 l0.00,64.00 c0.00,17.60, 14.40,32.00, 32.00,32.00s 32.00-14.40, 32.00-32.00l0.00-64.00 l 32.00,0.00 l0.00,64.00 c0.00,17.60, 14.401,32.00, 32.00,32.00s 32.00-14.40, 32.00-32.00 l0.00-64.00 l 16.00,0.00 c 26.51,0.00, 48.00-21.49, 48.00-48.00L 384.00,192.00 L 96.00,192.00 L 96.00,368.00 zM 299.299,44.747l 20.252-38.903c 1.016-1.951, 0.25-4.379-1.701-5.395s-4.379-0.25-5.395,1.701l-20.559,39.493 C 275.797,35.419, 258.299,32.00, 240.00,32.00c-18.298,0.00-35.796,3.419-51.898,9.643L 167.544,2.151c-1.016-1.951-3.443-2.717-5.395-1.701 s-2.717,3.443-1.701,5.395l 20.25,38.904c-45.315,20.509-78.12,63.792-83.81,115.252l 286.22,0.00 C 377.42,108.539, 344.615,65.257, 299.299,44.747z M 176.00,135.20c-12.813,0.00-23.20-10.387-23.20-23.20c0.00-12.813, 10.387-23.20, 23.20-23.20 s 23.20,10.387, 23.20,23.20C 199.199,124.813, 188.813,135.20, 176.00,135.20z M 304.00,135.20c-12.813,0.00-23.201-10.387-23.201-23.20 c0.00-12.813, 10.389-23.20, 23.201-23.20s 23.199,10.387, 23.199,23.20C 327.199,124.813, 316.813,135.20, 304.00,135.20z"
     id="path67" />
</svg>
