<?xml version="1.0" encoding="UTF-8" standalone="no"?>
<!-- Generator: IcoMoon.io -->

<svg
   xmlns:dc="http://purl.org/dc/elements/1.1/"
   xmlns:cc="http://creativecommons.org/ns#"
   xmlns:rdf="http://www.w3.org/1999/02/22-rdf-syntax-ns#"
   xmlns:svg="http://www.w3.org/2000/svg"
   xmlns="http://www.w3.org/2000/svg"
   xmlns:sodipodi="http://sodipodi.sourceforge.net/DTD/sodipodi-0.dtd"
   xmlns:inkscape="http://www.inkscape.org/namespaces/inkscape"
   width="512"
   height="512"
   viewBox="0 0 512 512"
   fill="#000000"
   id="svg2"
   version="1.1"
   inkscape:version="0.48.2 r9819"
   sodipodi:docname="angry2.svg">
  <metadata
     id="metadata73">
    <rdf:RDF>
      <cc:Work
         rdf:about="">
        <dc:format>image/svg+xml</dc:format>
        <dc:type
           rdf:resource="http://purl.org/dc/dcmitype/StillImage" />
      </cc:Work>
    </rdf:RDF>
  </metadata>
  <defs
     id="defs71" />
  <sodipodi:namedview
     pagecolor="#ffffff"
     bordercolor="#666666"
     borderopacity="1"
     objecttolerance="10"
     gridtolerance="10"
     guidetolerance="10"
     inkscape:pageopacity="0"
     inkscape:pageshadow="2"
     inkscape:window-width="640"
     inkscape:window-height="480"
     id="namedview69"
     showgrid="false"
     inkscape:zoom="0.4609375"
     inkscape:cx="256"
     inkscape:cy="256"
     inkscape:window-x="0"
     inkscape:window-y="0"
     inkscape:window-maximized="0"
     inkscape:current-layer="svg2" />
  <path
     d="M 256.00,0.00C 114.615,0.00,0.00,114.615,0.00,256.00s 114.615,256.00, 256.00,256.00s 256.00-114.615, 256.00-256.00S 397.385,0.00, 256.00,0.00z M 288.047,190.258 c 1.016-23.727, 22.605-39.474, 40.796-48.569c 17.371-8.686, 34.552-13.03, 35.274-13.211c 8.573-2.144, 17.26,3.069, 19.403,11.642 c 2.143,8.573-3.069,17.259-11.642,19.403c-8.812,2.225-19.261,6.06-28.468,10.675c 5.324,5.715, 8.587,13.376, 8.587,21.803 c0.00,17.673-14.327,32.00-32.00,32.00s-32.00-14.327-32.00-32.00C 287.998,191.416, 288.016,190.835, 288.047,190.258z M 128.479,140.12 c 2.144-8.573, 10.83-13.786, 19.403-11.642c 0.723,0.181, 17.903,4.526, 35.274,13.211c 18.19,9.096, 39.78,24.842, 40.796,48.569 c 0.031,0.577, 0.049,1.157, 0.049,1.742c0.00,17.673-14.327,32.00-32.00,32.00s-32.00-14.327-32.00-32.00c0.00-8.427, 3.263-16.088, 8.587-21.803 c-9.207-4.615-19.655-8.45-28.468-10.675C 131.549,157.379, 126.337,148.692, 128.479,140.12z M 352.049,390.37 C 332.462,357.796, 296.777,336.00, 256.00,336.00c-40.778,0.00-76.462,21.796-96.049,54.37l-41.164-24.698C 146.767,319.137, 197.745,288.00, 256.00,288.00 c 58.254,0.00, 109.232,31.137, 137.213,77.672L 352.049,390.37z"
     id="path67" />
</svg>
