<?xml version="1.0" encoding="UTF-8" standalone="no"?>
<!-- Generator: IcoMoon.io -->

<svg
   xmlns:dc="http://purl.org/dc/elements/1.1/"
   xmlns:cc="http://creativecommons.org/ns#"
   xmlns:rdf="http://www.w3.org/1999/02/22-rdf-syntax-ns#"
   xmlns:svg="http://www.w3.org/2000/svg"
   xmlns="http://www.w3.org/2000/svg"
   xmlns:sodipodi="http://sodipodi.sourceforge.net/DTD/sodipodi-0.dtd"
   xmlns:inkscape="http://www.inkscape.org/namespaces/inkscape"
   width="512"
   height="512"
   viewBox="0 0 512 512"
   fill="#000000"
   id="svg2"
   version="1.1"
   inkscape:version="0.48.2 r9819"
   sodipodi:docname="bold.svg">
  <metadata
     id="metadata73">
    <rdf:RDF>
      <cc:Work
         rdf:about="">
        <dc:format>image/svg+xml</dc:format>
        <dc:type
           rdf:resource="http://purl.org/dc/dcmitype/StillImage" />
      </cc:Work>
    </rdf:RDF>
  </metadata>
  <defs
     id="defs71" />
  <sodipodi:namedview
     pagecolor="#ffffff"
     bordercolor="#666666"
     borderopacity="1"
     objecttolerance="10"
     gridtolerance="10"
     guidetolerance="10"
     inkscape:pageopacity="0"
     inkscape:pageshadow="2"
     inkscape:window-width="640"
     inkscape:window-height="480"
     id="namedview69"
     showgrid="false"
     inkscape:zoom="0.4609375"
     inkscape:cx="256"
     inkscape:cy="256"
     inkscape:window-x="0"
     inkscape:window-y="0"
     inkscape:window-maximized="0"
     inkscape:current-layer="svg2" />
  <path
     d="M 353.94,242.326C 372.689,220.055, 384.00,191.322, 384.00,160.00c0.00-70.58-57.421-128.00-128.00-128.00l-64.00,0.00 l-64.00,0.00 L 96.00,32.00 l0.00,448.00 l 32.00,0.00 l 64.00,0.00 l 96.00,0.00 c 70.579,0.00, 128.00-57.421, 128.00-128.00C 416.00,305.522, 391.101,264.752, 353.94,242.326z M 192.00,96.00l 50.75,0.00 c 27.984,0.00, 50.75,28.71, 50.75,64.00 s-22.766,64.00-50.75,64.00L 192.00,224.00 L 192.00,96.00 z M 271.50,416.00L 192.00,416.00 L 192.00,288.00 l 79.50,0.00 c 29.225,0.00, 53.00,28.71, 53.00,64.00S 300.725,416.00, 271.50,416.00z"
     id="path67" />
</svg>
