<?xml version="1.0" encoding="UTF-8" standalone="no"?>
<!-- Generator: IcoMoon.io -->

<svg
   xmlns:dc="http://purl.org/dc/elements/1.1/"
   xmlns:cc="http://creativecommons.org/ns#"
   xmlns:rdf="http://www.w3.org/1999/02/22-rdf-syntax-ns#"
   xmlns:svg="http://www.w3.org/2000/svg"
   xmlns="http://www.w3.org/2000/svg"
   xmlns:sodipodi="http://sodipodi.sourceforge.net/DTD/sodipodi-0.dtd"
   xmlns:inkscape="http://www.inkscape.org/namespaces/inkscape"
   width="512"
   height="512"
   viewBox="0 0 512 512"
   fill="#000000"
   id="svg2"
   version="1.1"
   inkscape:version="0.48.2 r9819"
   sodipodi:docname="busy.svg">
  <metadata
     id="metadata73">
    <rdf:RDF>
      <cc:Work
         rdf:about="">
        <dc:format>image/svg+xml</dc:format>
        <dc:type
           rdf:resource="http://purl.org/dc/dcmitype/StillImage" />
      </cc:Work>
    </rdf:RDF>
  </metadata>
  <defs
     id="defs71" />
  <sodipodi:namedview
     pagecolor="#ffffff"
     bordercolor="#666666"
     borderopacity="1"
     objecttolerance="10"
     gridtolerance="10"
     guidetolerance="10"
     inkscape:pageopacity="0"
     inkscape:pageshadow="2"
     inkscape:window-width="640"
     inkscape:window-height="480"
     id="namedview69"
     showgrid="false"
     inkscape:zoom="0.4609375"
     inkscape:cx="256"
     inkscape:cy="256"
     inkscape:window-x="0"
     inkscape:window-y="0"
     inkscape:window-maximized="0"
     inkscape:current-layer="svg2" />
  <path
     d="M 364.496,256.00C 433.373,212.333, 480.00,128.396, 480.00,32.00c0.00-10.838-0.596-21.517-1.739-32.00L 33.74,0.00 C 32.595,10.484, 32.00,21.163, 32.00,32.00 c0.00,96.396, 46.627,180.333, 115.503,224.00C 78.627,299.667, 32.00,383.604, 32.00,480.00c0.00,10.838, 0.595,21.517, 1.739,32.00l 444.521,0.00 c 1.144-10.483, 1.739-21.162, 1.739-32.00C 480.00,383.604, 433.373,299.667, 364.496,256.00z M 80.00,480.00c0.00-93.456, 40.081-172.707, 112.00-198.854 l0.00-50.293 l0.00,0.00 C 120.081,204.708, 80.00,125.457, 80.00,32.00l0.00,0.00 l 352.00,0.00 l0.00,0.00 c0.00,93.457-40.081,172.708-112.00,198.853l0.00,50.293 C 391.919,307.293, 432.00,386.544, 432.00,480.00L 80.00,480.00 zM 309.813,334.797c-35.827-20.322-37.804-46.684-37.813-62.683L 272.00,240.00 c0.00-15.997, 1.902-42.457, 37.872-62.832 c 19.252-11.182, 35.904-28.174, 48.524-49.168L 153.605,128.00 c 12.633,21.016, 29.306,38.021, 48.583,49.203 c 35.827,20.322, 37.803,46.683, 37.813,62.683L 240.001,272.00 c0.00,15.996-1.902,42.457-37.872,62.832c-36.311,21.09-63.369,62.842-71.545,113.168 l 250.835,0.00 C 373.237,397.646, 346.154,355.876, 309.813,334.797z"
     id="path67" />
</svg>
