<?xml version="1.0" encoding="UTF-8" standalone="no"?>
<!-- Generator: IcoMoon.io -->

<svg
   xmlns:dc="http://purl.org/dc/elements/1.1/"
   xmlns:cc="http://creativecommons.org/ns#"
   xmlns:rdf="http://www.w3.org/1999/02/22-rdf-syntax-ns#"
   xmlns:svg="http://www.w3.org/2000/svg"
   xmlns="http://www.w3.org/2000/svg"
   xmlns:sodipodi="http://sodipodi.sourceforge.net/DTD/sodipodi-0.dtd"
   xmlns:inkscape="http://www.inkscape.org/namespaces/inkscape"
   width="512"
   height="512"
   viewBox="0 0 512 512"
   fill="#000000"
   id="svg2"
   version="1.1"
   inkscape:version="0.48.2 r9819"
   sodipodi:docname="bars2.svg">
  <metadata
     id="metadata73">
    <rdf:RDF>
      <cc:Work
         rdf:about="">
        <dc:format>image/svg+xml</dc:format>
        <dc:type
           rdf:resource="http://purl.org/dc/dcmitype/StillImage" />
      </cc:Work>
    </rdf:RDF>
  </metadata>
  <defs
     id="defs71" />
  <sodipodi:namedview
     pagecolor="#ffffff"
     bordercolor="#666666"
     borderopacity="1"
     objecttolerance="10"
     gridtolerance="10"
     guidetolerance="10"
     inkscape:pageopacity="0"
     inkscape:pageshadow="2"
     inkscape:window-width="640"
     inkscape:window-height="480"
     id="namedview69"
     showgrid="false"
     inkscape:zoom="0.4609375"
     inkscape:cx="256"
     inkscape:cy="256"
     inkscape:window-x="0"
     inkscape:window-y="0"
     inkscape:window-maximized="0"
     inkscape:current-layer="svg2" />
  <path
     d="M 144.00,192.00L 48.00,192.00 c-8.80,0.00-16.00,7.20-16.00,16.00l0.00,288.00 c0.00,8.80, 7.20,16.00, 16.00,16.00l 96.00,0.00 c 8.80,0.00, 16.00-7.20, 16.00-16.00L 160.00,208.00 C 160.00,199.20, 152.80,192.00, 144.00,192.00z M 144.00,480.00 L 48.00,480.00 L 48.00,352.00 l 96.00,0.00 L 144.00,480.00 zM 304.00,128.00l-96.00,0.00 c-8.80,0.00-16.00,7.20-16.00,16.00l0.00,352.00 c0.00,8.80, 7.20,16.00, 16.00,16.00l 96.00,0.00 c 8.80,0.00, 16.00-7.20, 16.00-16.00L 320.00,144.00 C 320.00,135.20, 312.80,128.00, 304.00,128.00z M 304.00,480.00l-96.00,0.00 L 208.00,320.00 l 96.00,0.00 L 304.00,480.00 zM 464.00,64.00l-96.00,0.00 c-8.80,0.00-16.00,7.20-16.00,16.00l0.00,416.00 c0.00,8.80, 7.20,16.00, 16.00,16.00l 96.00,0.00 c 8.80,0.00, 16.00-7.20, 16.00-16.00L 480.00,80.00 C 480.00,71.20, 472.80,64.00, 464.00,64.00z M 464.00,480.00l-96.00,0.00 L 368.00,288.00 l 96.00,0.00 L 464.00,480.00 z"
     id="path67" />
</svg>
