<?xml version="1.0" encoding="UTF-8" standalone="no"?>
<!-- Generator: IcoMoon.io -->

<svg
   xmlns:dc="http://purl.org/dc/elements/1.1/"
   xmlns:cc="http://creativecommons.org/ns#"
   xmlns:rdf="http://www.w3.org/1999/02/22-rdf-syntax-ns#"
   xmlns:svg="http://www.w3.org/2000/svg"
   xmlns="http://www.w3.org/2000/svg"
   xmlns:sodipodi="http://sodipodi.sourceforge.net/DTD/sodipodi-0.dtd"
   xmlns:inkscape="http://www.inkscape.org/namespaces/inkscape"
   width="512"
   height="512"
   viewBox="0 0 512 512"
   fill="#000000"
   id="svg2"
   version="1.1"
   inkscape:version="0.48.2 r9819"
   sodipodi:docname="blogger.svg">
  <metadata
     id="metadata73">
    <rdf:RDF>
      <cc:Work
         rdf:about="">
        <dc:format>image/svg+xml</dc:format>
        <dc:type
           rdf:resource="http://purl.org/dc/dcmitype/StillImage" />
      </cc:Work>
    </rdf:RDF>
  </metadata>
  <defs
     id="defs71" />
  <sodipodi:namedview
     pagecolor="#ffffff"
     bordercolor="#666666"
     borderopacity="1"
     objecttolerance="10"
     gridtolerance="10"
     guidetolerance="10"
     inkscape:pageopacity="0"
     inkscape:pageshadow="2"
     inkscape:window-width="640"
     inkscape:window-height="480"
     id="namedview69"
     showgrid="false"
     inkscape:zoom="0.4609375"
     inkscape:cx="256"
     inkscape:cy="256"
     inkscape:window-x="0"
     inkscape:window-y="0"
     inkscape:window-maximized="0"
     inkscape:current-layer="svg2" />
  <path
     d="M 478.898,192.00l-28.103,0.00 l-0.60,0.00 c-17.583,0.00-32.994-14.871-34.195-32.00l0.00,0.00C 416.002,68.666, 342.371,0.00, 250.405,0.00l-83.912,0.00 C 74.587,0.00, 0.065,74.00,0.00,165.333l0.00,181.399 C0.00,438.059, 74.587,512.00, 166.492,512.00l 179.21,0.00 C 437.676,512.00, 512.00,438.059, 512.00,346.732L 512.00,229.541 C 512.00,211.29, 497.28,192.00, 478.898,192.00z M 160.00,128.00l 96.00,0.00 c 17.60,0.00, 32.00,14.40, 32.00,32.00s-14.40,32.00-32.00,32.00l-96.00,0.00 c-17.60,0.00-32.00-14.40-32.00-32.00S 142.40,128.00, 160.00,128.00 z M 352.00,384.00L 160.00,384.00 c-17.60,0.00-32.00-14.40-32.00-32.00s 14.40-32.00, 32.00-32.00l 192.00,0.00 c 17.60,0.00, 32.00,14.40, 32.00,32.00S 369.60,384.00, 352.00,384.00z"
     id="path67" />
</svg>
