<?xml version="1.0" encoding="UTF-8" standalone="no"?>
<!-- Generator: IcoMoon.io -->

<svg
   xmlns:dc="http://purl.org/dc/elements/1.1/"
   xmlns:cc="http://creativecommons.org/ns#"
   xmlns:rdf="http://www.w3.org/1999/02/22-rdf-syntax-ns#"
   xmlns:svg="http://www.w3.org/2000/svg"
   xmlns="http://www.w3.org/2000/svg"
   xmlns:sodipodi="http://sodipodi.sourceforge.net/DTD/sodipodi-0.dtd"
   xmlns:inkscape="http://www.inkscape.org/namespaces/inkscape"
   width="512"
   height="512"
   viewBox="0 0 512 512"
   fill="#000000"
   id="svg2"
   version="1.1"
   inkscape:version="0.48.2 r9819"
   sodipodi:docname="blog.svg">
  <metadata
     id="metadata73">
    <rdf:RDF>
      <cc:Work
         rdf:about="">
        <dc:format>image/svg+xml</dc:format>
        <dc:type
           rdf:resource="http://purl.org/dc/dcmitype/StillImage" />
      </cc:Work>
    </rdf:RDF>
  </metadata>
  <defs
     id="defs71" />
  <sodipodi:namedview
     pagecolor="#ffffff"
     bordercolor="#666666"
     borderopacity="1"
     objecttolerance="10"
     gridtolerance="10"
     guidetolerance="10"
     inkscape:pageopacity="0"
     inkscape:pageshadow="2"
     inkscape:window-width="640"
     inkscape:window-height="480"
     id="namedview69"
     showgrid="false"
     inkscape:zoom="0.4609375"
     inkscape:cx="256"
     inkscape:cy="256"
     inkscape:window-x="0"
     inkscape:window-y="0"
     inkscape:window-maximized="0"
     inkscape:current-layer="svg2" />
  <path
     d="M 192.00,96.00 C 315.712,96.00 416.00,196.289 416.00,320.00 L 368.00,320.00 C 368.00,272.988 349.693,228.791 316.451,195.549 C 283.209,162.307 239.011,144.00 192.00,144.00 L 192.00,96.00 ZM 192.00,0.00 C 368.73,0.00 512.00,143.27 512.00,320.00 L 464.00,320.00 C 464.00,283.26 456.815,247.643 442.645,214.141 C 428.947,181.757 409.328,152.663 384.333,127.667 C 359.337,102.671 330.243,83.052 297.859,69.355 C 264.357,55.185 228.741,48.00 192.00,48.00 L 192.00,0.00 ZM 287.195,224.804 C 309.074,246.682 319.993,275.357 319.98,304.029 C 288.00,352.027 288.00,416.00 288.00,416.00 C 160.00,416.00 64.00,512.00 64.00,512.00 L 57.00,505.00 L 45.435,493.435 L 187.226,351.644 C 188.784,351.877 190.377,352.00 192.00,352.00 C 209.673,352.00 224.00,337.673 224.00,320.00 C 224.00,302.327 209.673,288.00 192.00,288.00 C 174.327,288.00 160.00,302.327 160.00,320.00 C 160.00,321.623 160.123,323.217 160.356,324.774 L 18.565,466.565 L 0.00,448.00 C 0.00,448.00 96.00,352.00 96.00,224.00 C 96.00,224.00 159.999,224.00 207.999,192.00 C 236.663,192.00 265.326,202.935 287.195,224.804 Z"
     id="path67" />
</svg>
