<?xml version="1.0" encoding="UTF-8" standalone="no"?>
<!-- Generator: IcoMoon.io -->

<svg
   xmlns:dc="http://purl.org/dc/elements/1.1/"
   xmlns:cc="http://creativecommons.org/ns#"
   xmlns:rdf="http://www.w3.org/1999/02/22-rdf-syntax-ns#"
   xmlns:svg="http://www.w3.org/2000/svg"
   xmlns="http://www.w3.org/2000/svg"
   xmlns:sodipodi="http://sodipodi.sourceforge.net/DTD/sodipodi-0.dtd"
   xmlns:inkscape="http://www.inkscape.org/namespaces/inkscape"
   width="576"
   height="512"
   viewBox="0 0 576 512"
   fill="#000000"
   id="svg2"
   version="1.1"
   inkscape:version="0.48.2 r9819"
   sodipodi:docname="bubbles2.svg">
  <metadata
     id="metadata73">
    <rdf:RDF>
      <cc:Work
         rdf:about="">
        <dc:format>image/svg+xml</dc:format>
        <dc:type
           rdf:resource="http://purl.org/dc/dcmitype/StillImage" />
      </cc:Work>
    </rdf:RDF>
  </metadata>
  <defs
     id="defs71" />
  <sodipodi:namedview
     pagecolor="#ffffff"
     bordercolor="#666666"
     borderopacity="1"
     objecttolerance="10"
     gridtolerance="10"
     guidetolerance="10"
     inkscape:pageopacity="0"
     inkscape:pageshadow="2"
     inkscape:window-width="640"
     inkscape:window-height="480"
     id="namedview69"
     showgrid="false"
     inkscape:zoom="0.4609375"
     inkscape:cx="288"
     inkscape:cy="256"
     inkscape:window-x="0"
     inkscape:window-y="0"
     inkscape:window-maximized="0"
     inkscape:current-layer="svg2" />
  <path
     d="M 240.00,0.00 L 240.00,0.00 C 372.548,0.00 480.00,86.957 480.00,194.224 C 480.00,301.491 372.548,388.448 240.00,388.448 C 227.271,388.448 214.777,387.638 202.583,386.093 C 151.03,437.44 91.497,446.647 32.00,448.00 L 32.00,435.433 C 64.126,419.756 90.00,391.20 90.00,358.566 C 90.00,354.013 89.644,349.542 88.985,345.169 C 34.706,309.562 0.00,255.175 0.00,194.224 C 0.00,86.957 107.452,0.00 240.00,0.00 ZM 498.00,435.343 C 498.00,463.314 516.157,487.792 544.00,501.229 L 544.00,512.00 C 492.437,510.841 445.107,502.949 400.429,458.937 C 389.859,460.262 379.032,460.957 368.00,460.957 C 320.265,460.957 276.296,448.078 241.193,426.437 C 313.53,426.184 381.823,403.01 433.61,361.101 C 459.714,339.975 480.307,315.188 494.817,287.427 C 510.20,257.994 518.00,226.636 518.00,194.224 C 518.00,189.00 517.775,183.806 517.371,178.64 C 553.656,208.607 576.00,249.451 576.00,294.478 C 576.00,346.722 545.921,393.339 498.88,423.86 C 498.309,427.608 498.00,431.44 498.00,435.343 Z"
     id="path67" />
</svg>
