<?xml version="1.0" encoding="UTF-8" standalone="no"?>
<!-- Generator: IcoMoon.io -->

<svg
   xmlns:dc="http://purl.org/dc/elements/1.1/"
   xmlns:cc="http://creativecommons.org/ns#"
   xmlns:rdf="http://www.w3.org/1999/02/22-rdf-syntax-ns#"
   xmlns:svg="http://www.w3.org/2000/svg"
   xmlns="http://www.w3.org/2000/svg"
   xmlns:sodipodi="http://sodipodi.sourceforge.net/DTD/sodipodi-0.dtd"
   xmlns:inkscape="http://www.inkscape.org/namespaces/inkscape"
   width="512"
   height="512"
   viewBox="0 0 512 512"
   fill="#000000"
   id="svg2"
   version="1.1"
   inkscape:version="0.48.2 r9819"
   sodipodi:docname="cloud-upload.svg">
  <metadata
     id="metadata73">
    <rdf:RDF>
      <cc:Work
         rdf:about="">
        <dc:format>image/svg+xml</dc:format>
        <dc:type
           rdf:resource="http://purl.org/dc/dcmitype/StillImage" />
      </cc:Work>
    </rdf:RDF>
  </metadata>
  <defs
     id="defs71" />
  <sodipodi:namedview
     pagecolor="#ffffff"
     bordercolor="#666666"
     borderopacity="1"
     objecttolerance="10"
     gridtolerance="10"
     guidetolerance="10"
     inkscape:pageopacity="0"
     inkscape:pageshadow="2"
     inkscape:window-width="640"
     inkscape:window-height="480"
     id="namedview69"
     showgrid="false"
     inkscape:zoom="0.4609375"
     inkscape:cx="256"
     inkscape:cy="256"
     inkscape:window-x="0"
     inkscape:window-y="0"
     inkscape:window-maximized="0"
     inkscape:current-layer="svg2" />
  <path
     d="M 446.134,193.245C 447.356,187.69, 448.00,181.921, 448.00,176.00c0.00-44.183-35.817-80.00-80.00-80.00c-7.111,0.00-14.007,0.934-20.566,2.676 C 335.035,60.00, 298.789,32.00, 256.00,32.00c-43.674,0.00-80.527,29.168-92.163,69.085C 152.466,97.774, 140.441,96.00, 128.00,96.00C 57.308,96.00,0.00,153.308,0.00,224.00 c0.00,70.694, 57.308,128.00, 128.00,128.00l 64.00,0.00 l0.00,96.00 l 128.00,0.00 l0.00-96.00 l 112.00,0.00 c 44.183,0.00, 80.00-35.816, 80.00-80.00C 512.00,232.64, 483.573,199.919, 446.134,193.245z M 288.00,320.00l0.00,96.00 l-64.00,0.00 l0.00-96.00 l-80.00,0.00 l 112.00-112.00l 112.00,112.00L 288.00,320.00 z"
     id="path67" />
</svg>
