<?xml version="1.0" encoding="UTF-8" standalone="no"?>
<!-- Generator: IcoMoon.io -->

<svg
   xmlns:dc="http://purl.org/dc/elements/1.1/"
   xmlns:cc="http://creativecommons.org/ns#"
   xmlns:rdf="http://www.w3.org/1999/02/22-rdf-syntax-ns#"
   xmlns:svg="http://www.w3.org/2000/svg"
   xmlns="http://www.w3.org/2000/svg"
   xmlns:sodipodi="http://sodipodi.sourceforge.net/DTD/sodipodi-0.dtd"
   xmlns:inkscape="http://www.inkscape.org/namespaces/inkscape"
   width="512"
   height="512"
   viewBox="0 0 512 512"
   fill="#000000"
   id="svg2"
   version="1.1"
   inkscape:version="0.48.2 r9819"
   sodipodi:docname="cart2.svg">
  <metadata
     id="metadata73">
    <rdf:RDF>
      <cc:Work
         rdf:about="">
        <dc:format>image/svg+xml</dc:format>
        <dc:type
           rdf:resource="http://purl.org/dc/dcmitype/StillImage" />
      </cc:Work>
    </rdf:RDF>
  </metadata>
  <defs
     id="defs71" />
  <sodipodi:namedview
     pagecolor="#ffffff"
     bordercolor="#666666"
     borderopacity="1"
     objecttolerance="10"
     gridtolerance="10"
     guidetolerance="10"
     inkscape:pageopacity="0"
     inkscape:pageshadow="2"
     inkscape:window-width="640"
     inkscape:window-height="480"
     id="namedview69"
     showgrid="false"
     inkscape:zoom="0.4609375"
     inkscape:cx="256"
     inkscape:cy="256"
     inkscape:window-x="0"
     inkscape:window-y="0"
     inkscape:window-maximized="0"
     inkscape:current-layer="svg2" />
  <path
     d="M 423.609,288.00c 17.60,0.00, 35.956-13.846, 40.791-30.769l 46.418-162.463C 515.653,77.846, 505.209,64.00, 487.609,64.00L 160.00,64.00 c0.00-35.346-28.654-64.00-64.00-64.00L0.00,0.00 l0.00,64.00 l 96.00,0.00 l0.00,272.00 c0.00,26.51, 21.49,48.00, 48.00,48.00l 304.00,0.00 c 17.673,0.00, 32.00-14.327, 32.00-32.00s-14.327-32.00-32.00-32.00L 160.00,320.00 l0.00-32.00 L 423.609,288.00 z M 160.00,128.00l 289.403,0.00 l-27.429,96.00L 160.00,224.00 L 160.00,128.00 zM 192.00,472.00c0.00,22.00-18.00,40.00-40.00,40.00l-16.00,0.00 c-22.00,0.00-40.00-18.00-40.00-40.00l0.00-16.00 c0.00-22.00, 18.00-40.00, 40.00-40.00l 16.00,0.00 c 22.00,0.00, 40.00,18.00, 40.00,40.00L 192.00,472.00 zM 480.00,472.00c0.00,22.00-18.00,40.00-40.00,40.00l-16.00,0.00 c-22.00,0.00-40.00-18.00-40.00-40.00l0.00-16.00 c0.00-22.00, 18.00-40.00, 40.00-40.00l 16.00,0.00 c 22.00,0.00, 40.00,18.00, 40.00,40.00L 480.00,472.00 z"
     id="path67" />
</svg>
