<?xml version="1.0" encoding="UTF-8" standalone="no"?>
<!-- Generator: IcoMoon.io -->

<svg
   xmlns:dc="http://purl.org/dc/elements/1.1/"
   xmlns:cc="http://creativecommons.org/ns#"
   xmlns:rdf="http://www.w3.org/1999/02/22-rdf-syntax-ns#"
   xmlns:svg="http://www.w3.org/2000/svg"
   xmlns="http://www.w3.org/2000/svg"
   xmlns:sodipodi="http://sodipodi.sourceforge.net/DTD/sodipodi-0.dtd"
   xmlns:inkscape="http://www.inkscape.org/namespaces/inkscape"
   width="512"
   height="512"
   viewBox="0 0 512 512"
   fill="#000000"
   id="svg2"
   version="1.1"
   inkscape:version="0.48.2 r9819"
   sodipodi:docname="chrome.svg">
  <metadata
     id="metadata73">
    <rdf:RDF>
      <cc:Work
         rdf:about="">
        <dc:format>image/svg+xml</dc:format>
        <dc:type
           rdf:resource="http://purl.org/dc/dcmitype/StillImage" />
      </cc:Work>
    </rdf:RDF>
  </metadata>
  <defs
     id="defs71" />
  <sodipodi:namedview
     pagecolor="#ffffff"
     bordercolor="#666666"
     borderopacity="1"
     objecttolerance="10"
     gridtolerance="10"
     guidetolerance="10"
     inkscape:pageopacity="0"
     inkscape:pageshadow="2"
     inkscape:window-width="640"
     inkscape:window-height="480"
     id="namedview69"
     showgrid="false"
     inkscape:zoom="0.4609375"
     inkscape:cx="256"
     inkscape:cy="256"
     inkscape:window-x="0"
     inkscape:window-y="0"
     inkscape:window-maximized="0"
     inkscape:current-layer="svg2" />
  <path
     d="M 129.139,223.271 L 55.873,96.37 C 102.782,37.638 174.99,0.00 256.00,0.00 C 349.716,0.00 431.655,50.368 476.266,125.50 L 267.381,125.50 C 263.629,125.175 259.835,125.00 256.00,125.00 C 195.063,125.00 143.711,166.822 129.139,223.271 ZM 347.653,162.50 L 494.383,162.50 C 505.753,191.465 512.00,223.002 512.00,256.00 C 512.00,396.413 398.95,510.402 258.907,511.963 L 363.604,330.624 C 378.344,309.435 387.00,283.711 387.00,256.00 C 387.00,219.415 371.918,186.29 347.653,162.50 ZM 163.00,256.00 C 163.00,204.72 204.72,163.00 256.00,163.00 C 307.28,163.00 349.00,204.72 349.00,256.00 C 349.00,307.28 307.28,349.00 256.00,349.00 C 204.72,349.00 163.00,307.28 163.00,256.00 ZM 291.091,382.221 L 217.802,509.16 C 94.536,490.718 0.00,384.402 0.00,256.00 C 0.00,210.391 11.942,167.577 32.848,130.488 L 137.363,311.515 C 158.297,356.071 203.601,387.00 256.00,387.00 C 268.15,387.00 279.918,385.33 291.091,382.221 Z"
     id="path67" />
</svg>
