<?xml version="1.0" encoding="UTF-8" standalone="no"?>
<!-- Generator: IcoMoon.io -->

<svg
   xmlns:dc="http://purl.org/dc/elements/1.1/"
   xmlns:cc="http://creativecommons.org/ns#"
   xmlns:rdf="http://www.w3.org/1999/02/22-rdf-syntax-ns#"
   xmlns:svg="http://www.w3.org/2000/svg"
   xmlns="http://www.w3.org/2000/svg"
   xmlns:sodipodi="http://sodipodi.sourceforge.net/DTD/sodipodi-0.dtd"
   xmlns:inkscape="http://www.inkscape.org/namespaces/inkscape"
   width="512"
   height="512"
   viewBox="0 0 512 512"
   fill="#000000"
   id="svg2"
   version="1.1"
   inkscape:version="0.48.2 r9819"
   sodipodi:docname="confused.svg">
  <metadata
     id="metadata73">
    <rdf:RDF>
      <cc:Work
         rdf:about="">
        <dc:format>image/svg+xml</dc:format>
        <dc:type
           rdf:resource="http://purl.org/dc/dcmitype/StillImage" />
      </cc:Work>
    </rdf:RDF>
  </metadata>
  <defs
     id="defs71" />
  <sodipodi:namedview
     pagecolor="#ffffff"
     bordercolor="#666666"
     borderopacity="1"
     objecttolerance="10"
     gridtolerance="10"
     guidetolerance="10"
     inkscape:pageopacity="0"
     inkscape:pageshadow="2"
     inkscape:window-width="640"
     inkscape:window-height="480"
     id="namedview69"
     showgrid="false"
     inkscape:zoom="0.4609375"
     inkscape:cx="256"
     inkscape:cy="256"
     inkscape:window-x="0"
     inkscape:window-y="0"
     inkscape:window-maximized="0"
     inkscape:current-layer="svg2" />
  <path
     d="M 256.00,512.00c 141.385,0.00, 256.00-114.615, 256.00-256.00S 397.385,0.00, 256.00,0.00S0.00,114.615,0.00,256.00S 114.615,512.00, 256.00,512.00z M 256.00,48.00 c 114.875,0.00, 208.00,93.125, 208.00,208.00s-93.125,208.00-208.00,208.00S 48.00,370.875, 48.00,256.00S 141.125,48.00, 256.00,48.00zM 128.00,160.00A32.00,32.00 2520.00 1,0 192.00,160A32.00,32.00 2520.00 1,0 128.00,160zM 320.00,160.00A32.00,32.00 2520.00 1,0 384.00,160A32.00,32.00 2520.00 1,0 320.00,160zM 363.053,320.00 L 395.485,320.00 C 400.108,356.253 379.259,392.265 343.506,405.28 C 302.054,420.368 256.056,398.922 240.966,357.472 C 231.912,332.60 204.313,319.731 179.442,328.786 C 156.661,337.08 143.964,360.935 148.948,383.998 L 116.518,383.998 C 111.897,347.744 132.743,311.734 168.496,298.718 C 209.948,283.629 255.947,305.076 271.037,346.525 C 280.089,371.399 307.69,384.266 332.559,375.211 C 355.34,366.919 368.037,343.062 363.053,320.00 Z"
     id="path67" />
</svg>
