<?xml version="1.0" encoding="UTF-8" standalone="no"?>
<!-- Generator: IcoMoon.io -->

<svg
   xmlns:dc="http://purl.org/dc/elements/1.1/"
   xmlns:cc="http://creativecommons.org/ns#"
   xmlns:rdf="http://www.w3.org/1999/02/22-rdf-syntax-ns#"
   xmlns:svg="http://www.w3.org/2000/svg"
   xmlns="http://www.w3.org/2000/svg"
   xmlns:sodipodi="http://sodipodi.sourceforge.net/DTD/sodipodi-0.dtd"
   xmlns:inkscape="http://www.inkscape.org/namespaces/inkscape"
   width="512"
   height="512"
   viewBox="0 0 512 512"
   fill="#000000"
   id="svg2"
   version="1.1"
   inkscape:version="0.48.2 r9819"
   sodipodi:docname="cool.svg">
  <metadata
     id="metadata73">
    <rdf:RDF>
      <cc:Work
         rdf:about="">
        <dc:format>image/svg+xml</dc:format>
        <dc:type
           rdf:resource="http://purl.org/dc/dcmitype/StillImage" />
      </cc:Work>
    </rdf:RDF>
  </metadata>
  <defs
     id="defs71" />
  <sodipodi:namedview
     pagecolor="#ffffff"
     bordercolor="#666666"
     borderopacity="1"
     objecttolerance="10"
     gridtolerance="10"
     guidetolerance="10"
     inkscape:pageopacity="0"
     inkscape:pageshadow="2"
     inkscape:window-width="640"
     inkscape:window-height="480"
     id="namedview69"
     showgrid="false"
     inkscape:zoom="0.4609375"
     inkscape:cx="256"
     inkscape:cy="256"
     inkscape:window-x="0"
     inkscape:window-y="0"
     inkscape:window-maximized="0"
     inkscape:current-layer="svg2" />
  <path
     d="M 256.00,512.00c 141.385,0.00, 256.00-114.615, 256.00-256.00S 397.385,0.00, 256.00,0.00S0.00,114.615,0.00,256.00S 114.615,512.00, 256.00,512.00z M 256.00,48.00 c 114.875,0.00, 208.00,93.125, 208.00,208.00s-93.125,208.00-208.00,208.00S 48.00,370.875, 48.00,256.00S 141.125,48.00, 256.00,48.00zM 400.00,128.00 C 408.80,128.00 416.00,135.20 416.00,144.00 L 416.00,192.00 C 416.00,209.60 401.60,224.00 384.00,224.00 L 320.00,224.00 C 302.40,224.00 288.00,209.60 288.00,192.00 L 224.00,192.00 C 224.00,209.60 209.60,224.00 192.00,224.00 L 128.00,224.00 C 110.40,224.00 96.00,209.60 96.00,192.00 L 96.00,144.00 C 96.00,135.20 103.20,128.00 112.00,128.00 L 208.00,128.00 C 216.80,128.00 224.00,135.20 224.00,144.00 L 224.00,160.00 L 288.00,160.00 L 288.00,144.00 C 288.00,135.20 295.20,128.00 304.00,128.00 L 400.00,128.00 ZM 256.00,384.00 C 302.604,384.00 343.386,359.091 365.773,321.861 L 393.213,338.328 C 365.23,384.863 314.255,416.00 256.00,416.00 C 231.771,416.00 208.808,410.602 188.23,400.959 L 204.811,373.32 C 220.488,380.177 237.793,384.00 256.00,384.00 Z"
     id="path67" />
</svg>
