<?xml version="1.0" encoding="UTF-8" standalone="no"?>
<!-- Generator: IcoMoon.io -->

<svg
   xmlns:dc="http://purl.org/dc/elements/1.1/"
   xmlns:cc="http://creativecommons.org/ns#"
   xmlns:rdf="http://www.w3.org/1999/02/22-rdf-syntax-ns#"
   xmlns:svg="http://www.w3.org/2000/svg"
   xmlns="http://www.w3.org/2000/svg"
   xmlns:sodipodi="http://sodipodi.sourceforge.net/DTD/sodipodi-0.dtd"
   xmlns:inkscape="http://www.inkscape.org/namespaces/inkscape"
   width="512"
   height="512"
   viewBox="0 0 512 512"
   fill="#000000"
   id="svg2"
   version="1.1"
   inkscape:version="0.48.2 r9819"
   sodipodi:docname="cloud-download.svg">
  <metadata
     id="metadata73">
    <rdf:RDF>
      <cc:Work
         rdf:about="">
        <dc:format>image/svg+xml</dc:format>
        <dc:type
           rdf:resource="http://purl.org/dc/dcmitype/StillImage" />
      </cc:Work>
    </rdf:RDF>
  </metadata>
  <defs
     id="defs71" />
  <sodipodi:namedview
     pagecolor="#ffffff"
     bordercolor="#666666"
     borderopacity="1"
     objecttolerance="10"
     gridtolerance="10"
     guidetolerance="10"
     inkscape:pageopacity="0"
     inkscape:pageshadow="2"
     inkscape:window-width="640"
     inkscape:window-height="480"
     id="namedview69"
     showgrid="false"
     inkscape:zoom="0.4609375"
     inkscape:cx="256"
     inkscape:cy="256"
     inkscape:window-x="0"
     inkscape:window-y="0"
     inkscape:window-maximized="0"
     inkscape:current-layer="svg2" />
  <path
     d="M 445.502,180.03C 443.881,115.681, 391.273,64.00, 326.571,64.00c-37.896,0.00-71.633,17.747-93.427,45.366 c-12.221-15.799-31.345-25.98-52.854-25.98c-36.905,0.00-66.821,29.937-66.821,66.861c0.00,3.218, 0.24,6.38, 0.682,9.477 c-5.611-1.012-11.383-1.569-17.285-1.569C 43.367,158.154,0.00,201.548,0.00,255.076C0.00,308.607, 43.367,352.00, 96.865,352.00l 49.88,0.00 L 256.00,461.255 L 365.255,352.00l 59.741,0.00 l0.00-0.006 C 473.065,351.902, 512.00,312.888, 512.00,264.771C 512.00,223.726, 483.661,189.321, 445.502,180.03z M 256.00,416.00l-96.00-96.00 l 64.00,0.00 l0.00-96.00 l 64.00,0.00 l0.00,96.00 l 64.00,0.00 L 256.00,416.00z"
     id="path67" />
</svg>
