<?xml version="1.0" encoding="UTF-8" standalone="no"?>
<!-- Generator: IcoMoon.io -->

<svg
   xmlns:dc="http://purl.org/dc/elements/1.1/"
   xmlns:cc="http://creativecommons.org/ns#"
   xmlns:rdf="http://www.w3.org/1999/02/22-rdf-syntax-ns#"
   xmlns:svg="http://www.w3.org/2000/svg"
   xmlns="http://www.w3.org/2000/svg"
   xmlns:sodipodi="http://sodipodi.sourceforge.net/DTD/sodipodi-0.dtd"
   xmlns:inkscape="http://www.inkscape.org/namespaces/inkscape"
   width="512"
   height="512"
   viewBox="0 0 512 512"
   fill="#000000"
   id="svg2"
   version="1.1"
   inkscape:version="0.48.2 r9819"
   sodipodi:docname="console.svg">
  <metadata
     id="metadata73">
    <rdf:RDF>
      <cc:Work
         rdf:about="">
        <dc:format>image/svg+xml</dc:format>
        <dc:type
           rdf:resource="http://purl.org/dc/dcmitype/StillImage" />
      </cc:Work>
    </rdf:RDF>
  </metadata>
  <defs
     id="defs71" />
  <sodipodi:namedview
     pagecolor="#ffffff"
     bordercolor="#666666"
     borderopacity="1"
     objecttolerance="10"
     gridtolerance="10"
     guidetolerance="10"
     inkscape:pageopacity="0"
     inkscape:pageshadow="2"
     inkscape:window-width="640"
     inkscape:window-height="480"
     id="namedview69"
     showgrid="false"
     inkscape:zoom="0.4609375"
     inkscape:cx="256"
     inkscape:cy="256"
     inkscape:window-x="0"
     inkscape:window-y="0"
     inkscape:window-maximized="0"
     inkscape:current-layer="svg2" />
  <path
     d="M0.00,32.00l0.00,448.00 l 512.00,0.00 L 512.00,32.00 L0.00,32.00 z M 480.00,448.00L 32.00,448.00 L 32.00,64.00 l 448.00,0.00 L 480.00,448.00 zM 448.00,96.00L 64.00,96.00 l0.00,320.00 l 384.00,0.00 L 448.00,96.00 z M 224.00,256.00l-32.00,0.00 l0.00,32.00 l-32.00,0.00 l0.00,32.00 l-32.00,0.00 l0.00-32.00 l 32.00,0.00 l0.00-32.00 l 32.00,0.00 l0.00-32.00 l-32.00,0.00 l0.00-32.00 l-32.00,0.00 l0.00-32.00 l 32.00,0.00 l0.00,32.00 l 32.00,0.00 l0.00,32.00 l 32.00,0.00 L 224.00,256.00 z M 352.00,320.00l-96.00,0.00 l0.00-32.00 l 96.00,0.00 L 352.00,320.00 z"
     id="path67" />
</svg>
