<?xml version="1.0" encoding="UTF-8" standalone="no"?>
<!-- Generator: IcoMoon.io -->

<svg
   xmlns:dc="http://purl.org/dc/elements/1.1/"
   xmlns:cc="http://creativecommons.org/ns#"
   xmlns:rdf="http://www.w3.org/1999/02/22-rdf-syntax-ns#"
   xmlns:svg="http://www.w3.org/2000/svg"
   xmlns="http://www.w3.org/2000/svg"
   xmlns:sodipodi="http://sodipodi.sourceforge.net/DTD/sodipodi-0.dtd"
   xmlns:inkscape="http://www.inkscape.org/namespaces/inkscape"
   width="512"
   height="512"
   viewBox="0 0 512 512"
   fill="#000000"
   id="svg2"
   version="1.1"
   inkscape:version="0.48.2 r9819"
   sodipodi:docname="cool2.svg">
  <metadata
     id="metadata73">
    <rdf:RDF>
      <cc:Work
         rdf:about="">
        <dc:format>image/svg+xml</dc:format>
        <dc:type
           rdf:resource="http://purl.org/dc/dcmitype/StillImage" />
      </cc:Work>
    </rdf:RDF>
  </metadata>
  <defs
     id="defs71" />
  <sodipodi:namedview
     pagecolor="#ffffff"
     bordercolor="#666666"
     borderopacity="1"
     objecttolerance="10"
     gridtolerance="10"
     guidetolerance="10"
     inkscape:pageopacity="0"
     inkscape:pageshadow="2"
     inkscape:window-width="640"
     inkscape:window-height="480"
     id="namedview69"
     showgrid="false"
     inkscape:zoom="0.4609375"
     inkscape:cx="256"
     inkscape:cy="256"
     inkscape:window-x="0"
     inkscape:window-y="0"
     inkscape:window-maximized="0"
     inkscape:current-layer="svg2" />
  <path
     d="M 256.00,0.00C 114.615,0.00,0.00,114.615,0.00,256.00s 114.613,256.00, 256.00,256.00c 141.385,0.00, 256.00-114.615, 256.00-256.00S 397.385,0.00, 256.00,0.00z M 256.00,416.00 c-24.229,0.00-47.192-5.398-67.771-15.041l 16.581-27.638C 220.488,380.177, 237.793,384.00, 256.00,384.00c 46.604,0.00, 87.386-24.909, 109.771-62.139 l 27.441,16.467C 365.23,384.863, 314.255,416.00, 256.00,416.00z M 416.00,192.00c0.00,17.60-14.40,32.00-32.00,32.00l-64.00,0.00 c-17.60,0.00-32.00-14.40-32.00-32.00l-64.00,0.00 c0.00,17.60-14.40,32.00-32.00,32.00l-64.00,0.00 c-17.60,0.00-32.00-14.40-32.00-32.00l0.00-48.00 c0.00-8.80, 7.20-16.00, 16.00-16.00l 96.00,0.00 c 8.80,0.00, 16.00,7.20, 16.00,16.00l0.00,16.00 l 64.00,0.00 l0.00-16.00 c0.00-8.80, 7.20-16.00, 16.00-16.00l 96.00,0.00 c 8.80,0.00, 16.00,7.20, 16.00,16.00L 416.00,192.00 z"
     id="path67" />
</svg>
