<?xml version="1.0" encoding="UTF-8" standalone="no"?>
<!-- Generator: IcoMoon.io -->

<svg
   xmlns:dc="http://purl.org/dc/elements/1.1/"
   xmlns:cc="http://creativecommons.org/ns#"
   xmlns:rdf="http://www.w3.org/1999/02/22-rdf-syntax-ns#"
   xmlns:svg="http://www.w3.org/2000/svg"
   xmlns="http://www.w3.org/2000/svg"
   xmlns:sodipodi="http://sodipodi.sourceforge.net/DTD/sodipodi-0.dtd"
   xmlns:inkscape="http://www.inkscape.org/namespaces/inkscape"
   width="512"
   height="512"
   viewBox="0 0 512 512"
   fill="#000000"
   id="svg2"
   version="1.1"
   inkscape:version="0.48.2 r9819"
   sodipodi:docname="cart3.svg">
  <metadata
     id="metadata73">
    <rdf:RDF>
      <cc:Work
         rdf:about="">
        <dc:format>image/svg+xml</dc:format>
        <dc:type
           rdf:resource="http://purl.org/dc/dcmitype/StillImage" />
      </cc:Work>
    </rdf:RDF>
  </metadata>
  <defs
     id="defs71" />
  <sodipodi:namedview
     pagecolor="#ffffff"
     bordercolor="#666666"
     borderopacity="1"
     objecttolerance="10"
     gridtolerance="10"
     guidetolerance="10"
     inkscape:pageopacity="0"
     inkscape:pageshadow="2"
     inkscape:window-width="640"
     inkscape:window-height="480"
     id="namedview69"
     showgrid="false"
     inkscape:zoom="0.4609375"
     inkscape:cx="256"
     inkscape:cy="256"
     inkscape:window-x="0"
     inkscape:window-y="0"
     inkscape:window-maximized="0"
     inkscape:current-layer="svg2" />
  <path
     d="M 488.791,97.231c-16.992-4.854-34.705,4.985-39.56,21.978L 446.72,128.00L 148.249,128.00 l-4.496-35.969 C 141.751,76.017, 128.138,64.00, 112.00,64.00L 32.00,64.00 C 14.327,64.00,0.00,78.327,0.00,96.00s 14.327,32.00, 32.00,32.00l 51.751,0.00 l 28.496,227.969 C 114.249,371.982, 127.862,384.00, 144.00,384.00l 272.00,0.00 c 14.287,0.00, 26.844-9.472, 30.769-23.209l 64.00-224.00 C 515.624,119.798, 505.784,102.086, 488.791,97.231z M 256.00,256.00l0.00-32.00 l 63.998,0.00 l0.00,32.00 L 256.00,256.00 z M 319.998,288.00l0.00,32.00 L 256.00,320.00 l0.00-32.00 L 319.998,288.00 z M 256.00,192.00l0.00-32.00 l 63.998,0.00 l0.00,32.00 L 256.00,192.00 z M 152.249,160.00L 224.00,160.00 l0.00,32.00 l-67.751,0.00 L 152.249,160.00z M 160.249,224.00L 224.00,224.00 l0.00,32.00 l-59.751,0.00 L 160.249,224.00z M 168.249,288.00L 224.00,288.00 l0.00,32.00 l-51.751,0.00 L 168.249,288.00z M 391.862,320.00l-39.864,0.00 l0.00-32.00 l 49.007,0.00 L 391.862,320.00z M 410.148,256.00l-58.15,0.00 l0.00-32.00 l 67.293,0.00 L 410.148,256.00z M 428.434,192.00l-76.436,0.00 l0.00-32.00 l 85.579,0.00 L 428.434,192.00zM 128.00,464.00A48.00,48.00 2520.00 1,0 224.00,464A48.00,48.00 2520.00 1,0 128.00,464zM 320.00,464.00A48.00,48.00 2520.00 1,0 416.00,464A48.00,48.00 2520.00 1,0 320.00,464z"
     id="path67" />
</svg>
