<?xml version="1.0" encoding="UTF-8" standalone="no"?>
<!-- Generator: IcoMoon.io -->

<svg
   xmlns:dc="http://purl.org/dc/elements/1.1/"
   xmlns:cc="http://creativecommons.org/ns#"
   xmlns:rdf="http://www.w3.org/1999/02/22-rdf-syntax-ns#"
   xmlns:svg="http://www.w3.org/2000/svg"
   xmlns="http://www.w3.org/2000/svg"
   xmlns:sodipodi="http://sodipodi.sourceforge.net/DTD/sodipodi-0.dtd"
   xmlns:inkscape="http://www.inkscape.org/namespaces/inkscape"
   width="512"
   height="512"
   viewBox="0 0 512 512"
   fill="#000000"
   id="svg2"
   version="1.1"
   inkscape:version="0.48.2 r9819"
   sodipodi:docname="cart.svg">
  <metadata
     id="metadata73">
    <rdf:RDF>
      <cc:Work
         rdf:about="">
        <dc:format>image/svg+xml</dc:format>
        <dc:type
           rdf:resource="http://purl.org/dc/dcmitype/StillImage" />
      </cc:Work>
    </rdf:RDF>
  </metadata>
  <defs
     id="defs71" />
  <sodipodi:namedview
     pagecolor="#ffffff"
     bordercolor="#666666"
     borderopacity="1"
     objecttolerance="10"
     gridtolerance="10"
     guidetolerance="10"
     inkscape:pageopacity="0"
     inkscape:pageshadow="2"
     inkscape:window-width="640"
     inkscape:window-height="480"
     id="namedview69"
     showgrid="false"
     inkscape:zoom="0.4609375"
     inkscape:cx="256"
     inkscape:cy="256"
     inkscape:window-x="0"
     inkscape:window-y="0"
     inkscape:window-maximized="0"
     inkscape:current-layer="svg2" />
  <path
     d="M 64.00,464.00A48.00,48.00 10800.00 1,0 160.00,464A48.00,48.00 10800.00 1,0 64.00,464zM 384.00,464.00A48.00,48.00 10800.00 1,0 480.00,464A48.00,48.00 10800.00 1,0 384.00,464zM 480.00,256.00L 480.00,64.00 L 64.00,64.00 C 64.00,28.654, 35.347,0.00,0.00,0.00l0.00,32.00 c 17.645,0.00, 32.00,14.355, 32.00,32.00l 24.037,206.027C 41.39,281.756, 32.00,299.777, 32.00,320.00 c0.00,35.347, 28.654,64.00, 64.00,64.00l 384.00,0.00 l0.00-32.00 L 96.00,352.00 c-17.673,0.00-32.00-14.327-32.00-32.00c0.00-0.11, 0.007-0.218, 0.008-0.328L 480.00,256.00z"
     id="path67" />
</svg>
