<?xml version="1.0" encoding="UTF-8" standalone="no"?>
<!-- Generator: IcoMoon.io -->

<svg
   xmlns:dc="http://purl.org/dc/elements/1.1/"
   xmlns:cc="http://creativecommons.org/ns#"
   xmlns:rdf="http://www.w3.org/1999/02/22-rdf-syntax-ns#"
   xmlns:svg="http://www.w3.org/2000/svg"
   xmlns="http://www.w3.org/2000/svg"
   xmlns:sodipodi="http://sodipodi.sourceforge.net/DTD/sodipodi-0.dtd"
   xmlns:inkscape="http://www.inkscape.org/namespaces/inkscape"
   width="512"
   height="512"
   viewBox="0 0 512 512"
   fill="#000000"
   id="svg2"
   version="1.1"
   inkscape:version="0.48.2 r9819"
   sodipodi:docname="calendar2.svg">
  <metadata
     id="metadata73">
    <rdf:RDF>
      <cc:Work
         rdf:about="">
        <dc:format>image/svg+xml</dc:format>
        <dc:type
           rdf:resource="http://purl.org/dc/dcmitype/StillImage" />
      </cc:Work>
    </rdf:RDF>
  </metadata>
  <defs
     id="defs71" />
  <sodipodi:namedview
     pagecolor="#ffffff"
     bordercolor="#666666"
     borderopacity="1"
     objecttolerance="10"
     gridtolerance="10"
     guidetolerance="10"
     inkscape:pageopacity="0"
     inkscape:pageshadow="2"
     inkscape:window-width="640"
     inkscape:window-height="480"
     id="namedview69"
     showgrid="false"
     inkscape:zoom="0.4609375"
     inkscape:cx="256"
     inkscape:cy="256"
     inkscape:window-x="0"
     inkscape:window-y="0"
     inkscape:window-maximized="0"
     inkscape:current-layer="svg2" />
  <path
     d="M 448.00,64.00l-48.00,0.00 l0.00,16.00 c0.00,17.645-14.355,32.00-32.00,32.00s-32.00-14.355-32.00-32.00L 336.00,64.00 L 176.00,64.00 l0.00,16.00 c0.00,17.645-14.355,32.00-32.00,32.00s-32.00-14.355-32.00-32.00L 112.00,64.00 L 64.00,64.00 c-17.60,0.00-32.00,14.40-32.00,32.00l0.00,352.00 c0.00,17.60, 14.40,32.00, 32.00,32.00l 384.00,0.00 c 17.60,0.00, 32.00-14.40, 32.00-32.00L 480.00,96.00 C 480.00,78.40, 465.60,64.00, 448.00,64.00z M 448.00,447.942 c-0.017,0.02-0.038,0.041-0.058,0.058L 64.057,448.00 c-0.02-0.017-0.041-0.038-0.057-0.058L 64.00,160.00 l 384.00,0.00 L 448.00,447.942 zM 144.00,96.00c 8.836,0.00, 16.00-7.164, 16.00-16.00L 160.00,16.00 c0.00-8.836-7.164-16.00-16.00-16.00s-16.00,7.164-16.00,16.00l0.00,64.00 C 128.00,88.836, 135.164,96.00, 144.00,96.00zM 368.00,96.00c 8.836,0.00, 16.00-7.164, 16.00-16.00L 384.00,16.00 c0.00-8.836-7.164-16.00-16.00-16.00s-16.00,7.164-16.00,16.00l0.00,64.00 C 352.00,88.836, 359.164,96.00, 368.00,96.00zM 288.00,192.00L 128.00,192.00L 128.00,224.00L 256.00,224.00L 256.00,288.00L 128.00,288.00L 128.00,320.00L 256.00,320.00L 256.00,384.00L 128.00,384.00L 128.00,416.00L 288.00,416.00 zM 352.00,416.00L 384.00,416.00L 384.00,192.00L 320.00,192.00L 320.00,224.00L 352.00,224.00 zM 436.00,492.00L 76.00,492.00 c-17.60,0.00-32.00-10.40-32.00-28.00l0.00,16.00 c0.00,17.60, 14.40,32.00, 32.00,32.00l 360.00,0.00 c 17.60,0.00, 32.00-14.40, 32.00-32.00l0.00-16.00 C 468.00,481.60, 453.60,492.00, 436.00,492.00z"
     id="path67" />
</svg>
