<?xml version="1.0" encoding="UTF-8" standalone="no"?>
<!-- Generator: IcoMoon.io -->

<svg
   xmlns:dc="http://purl.org/dc/elements/1.1/"
   xmlns:cc="http://creativecommons.org/ns#"
   xmlns:rdf="http://www.w3.org/1999/02/22-rdf-syntax-ns#"
   xmlns:svg="http://www.w3.org/2000/svg"
   xmlns="http://www.w3.org/2000/svg"
   xmlns:sodipodi="http://sodipodi.sourceforge.net/DTD/sodipodi-0.dtd"
   xmlns:inkscape="http://www.inkscape.org/namespaces/inkscape"
   width="512"
   height="512"
   viewBox="0 0 512 512"
   fill="#000000"
   id="svg2"
   version="1.1"
   inkscape:version="0.48.2 r9819"
   sodipodi:docname="coin.svg">
  <metadata
     id="metadata73">
    <rdf:RDF>
      <cc:Work
         rdf:about="">
        <dc:format>image/svg+xml</dc:format>
        <dc:type
           rdf:resource="http://purl.org/dc/dcmitype/StillImage" />
      </cc:Work>
    </rdf:RDF>
  </metadata>
  <defs
     id="defs71" />
  <sodipodi:namedview
     pagecolor="#ffffff"
     bordercolor="#666666"
     borderopacity="1"
     objecttolerance="10"
     gridtolerance="10"
     guidetolerance="10"
     inkscape:pageopacity="0"
     inkscape:pageshadow="2"
     inkscape:window-width="640"
     inkscape:window-height="480"
     id="namedview69"
     showgrid="false"
     inkscape:zoom="0.4609375"
     inkscape:cx="256"
     inkscape:cy="256"
     inkscape:window-x="0"
     inkscape:window-y="0"
     inkscape:window-maximized="0"
     inkscape:current-layer="svg2" />
  <path
     d="M 240.00,32.00C 107.452,32.00,0.00,139.452,0.00,272.00c0.00,132.549, 107.452,240.00, 240.00,240.00c 132.549,0.00, 240.00-107.451, 240.00-240.00 C 480.00,139.452, 372.549,32.00, 240.00,32.00z M 240.00,464.00c-106.039,0.00-192.00-85.961-192.00-192.00c0.00-106.039, 85.961-192.00, 192.00-192.00 c 106.039,0.00, 192.00,85.961, 192.00,192.00C 432.00,378.039, 346.039,464.00, 240.00,464.00zM 256.00,256.00l0.00-64.00 l 64.00,0.00 l0.00-32.00 l-64.00,0.00 l0.00-32.00 l-32.00,0.00 l0.00,32.00 l-64.00,0.00 l0.00,128.00 l 64.00,0.00 l0.00,64.00 l-64.00,0.00 l0.00,32.00 l 64.00,0.00 l0.00,32.00 l 32.00,0.00 l0.00-32.00 l 64.00,0.00 l 0.001,0.00 L 320.00,256.00L 256.00,256.00 z M 224.00,256.00l-32.00,0.00 l0.00-64.00 l 32.00,0.00 L 224.00,256.00 z M 288.001,352.00L 256.00,352.00 l0.00-64.00 l 32.001,0.00 L 288.001,352.00 z"
     id="path67" />
</svg>
