<?xml version="1.0" encoding="UTF-8" standalone="no"?>
<!-- Generator: IcoMoon.io -->

<svg
   xmlns:dc="http://purl.org/dc/elements/1.1/"
   xmlns:cc="http://creativecommons.org/ns#"
   xmlns:rdf="http://www.w3.org/1999/02/22-rdf-syntax-ns#"
   xmlns:svg="http://www.w3.org/2000/svg"
   xmlns="http://www.w3.org/2000/svg"
   xmlns:sodipodi="http://sodipodi.sourceforge.net/DTD/sodipodi-0.dtd"
   xmlns:inkscape="http://www.inkscape.org/namespaces/inkscape"
   width="512"
   height="512"
   viewBox="0 0 512 512"
   fill="#000000"
   id="svg2"
   version="1.1"
   inkscape:version="0.48.2 r9819"
   sodipodi:docname="dribbble.svg">
  <metadata
     id="metadata73">
    <rdf:RDF>
      <cc:Work
         rdf:about="">
        <dc:format>image/svg+xml</dc:format>
        <dc:type
           rdf:resource="http://purl.org/dc/dcmitype/StillImage" />
      </cc:Work>
    </rdf:RDF>
  </metadata>
  <defs
     id="defs71" />
  <sodipodi:namedview
     pagecolor="#ffffff"
     bordercolor="#666666"
     borderopacity="1"
     objecttolerance="10"
     gridtolerance="10"
     guidetolerance="10"
     inkscape:pageopacity="0"
     inkscape:pageshadow="2"
     inkscape:window-width="640"
     inkscape:window-height="480"
     id="namedview69"
     showgrid="false"
     inkscape:zoom="0.4609375"
     inkscape:cx="256"
     inkscape:cy="256"
     inkscape:window-x="0"
     inkscape:window-y="0"
     inkscape:window-maximized="0"
     inkscape:current-layer="svg2" />
  <path
     d="M 256.001,512.00C 114.841,512.00,0.00,397.159,0.00,256.00S 114.841,0.00, 256.001,0.00 C 397.162,0.00, 512.00,114.841, 512.00,256.00S 397.162,512.00, 256.001,512.00z M 471.899,291.043c-7.481-2.36-67.682-20.316-136.205-9.349 c 28.602,78.593, 40.239,142.604, 42.479,155.904C 427.23,404.43, 462.152,351.885, 471.899,291.043z M 341.416,457.619 c-3.253-19.185-15.949-86.045-46.649-165.82c-0.48,0.164-0.961,0.32-1.44,0.486c-123.335,42.979-167.608,128.508-171.543,136.552 c 37.075,28.912, 83.668,46.16, 134.218,46.16C 286.292,474.997, 315.161,468.802, 341.416,457.619z M 93.549,402.539 c 4.954-8.48, 64.965-107.842, 177.738-144.297c 2.852-0.92, 5.724-1.785, 8.618-2.60c-5.49-12.422-11.47-24.857-17.728-37.108 c-109.199,32.68-215.162,31.315-224.73,31.118c-0.066,2.221-0.111,4.445-0.111,6.683C 37.336,312.495, 58.626,363.772, 93.549,402.539z M 41.956,211.548c 9.779,0.13, 99.868,0.521, 202.151-26.641c-36.23-64.406-75.306-118.555-81.071-126.46 C 101.862,87.301, 56.135,143.695, 41.956,211.548z M 204.759,43.75c 6.044,8.092, 45.759,62.174, 81.59,128.007 c 77.754-29.142, 110.67-73.385, 114.604-78.987c-38.615-34.259-89.391-55.10-144.951-55.10C 238.357,37.67, 221.202,39.786, 204.759,43.75z M 425.261,118.056c-4.608,6.237-41.252,53.209-122.101,86.217c 5.089,10.416, 9.967,21.009, 14.508,31.672 c 1.608,3.78, 3.177,7.542, 4.709,11.285c 72.759-9.149, 145.052,5.514, 152.263,7.039C 474.156,202.657, 455.715,155.264, 425.261,118.056z"
     id="path67" />
</svg>
