<?xml version="1.0" encoding="UTF-8" standalone="no"?>
<!-- Generator: IcoMoon.io -->

<svg
   xmlns:dc="http://purl.org/dc/elements/1.1/"
   xmlns:cc="http://creativecommons.org/ns#"
   xmlns:rdf="http://www.w3.org/1999/02/22-rdf-syntax-ns#"
   xmlns:svg="http://www.w3.org/2000/svg"
   xmlns="http://www.w3.org/2000/svg"
   xmlns:sodipodi="http://sodipodi.sourceforge.net/DTD/sodipodi-0.dtd"
   xmlns:inkscape="http://www.inkscape.org/namespaces/inkscape"
   width="512"
   height="512"
   viewBox="0 0 512 512"
   fill="#000000"
   id="svg2"
   version="1.1"
   inkscape:version="0.48.2 r9819"
   sodipodi:docname="dice.svg">
  <metadata
     id="metadata73">
    <rdf:RDF>
      <cc:Work
         rdf:about="">
        <dc:format>image/svg+xml</dc:format>
        <dc:type
           rdf:resource="http://purl.org/dc/dcmitype/StillImage" />
      </cc:Work>
    </rdf:RDF>
  </metadata>
  <defs
     id="defs71" />
  <sodipodi:namedview
     pagecolor="#ffffff"
     bordercolor="#666666"
     borderopacity="1"
     objecttolerance="10"
     gridtolerance="10"
     guidetolerance="10"
     inkscape:pageopacity="0"
     inkscape:pageshadow="2"
     inkscape:window-width="640"
     inkscape:window-height="480"
     id="namedview69"
     showgrid="false"
     inkscape:zoom="0.4609375"
     inkscape:cx="256"
     inkscape:cy="256"
     inkscape:window-x="0"
     inkscape:window-y="0"
     inkscape:window-maximized="0"
     inkscape:current-layer="svg2" />
  <path
     d="M 432.00,96.00L 176.00,96.00 c-44.00,0.00-80.00,36.00-80.00,80.00l0.00,256.00 c0.00,44.00, 36.00,80.00, 80.00,80.00l 256.00,0.00 c 44.00,0.00, 80.00-36.00, 80.00-80.00L 512.00,176.00 C 512.00,132.00, 476.00,96.00, 432.00,96.00z M 208.00,448.00 c-26.51,0.00-48.00-21.49-48.00-48.00s 21.49-48.00, 48.00-48.00s 48.00,21.49, 48.00,48.00S 234.51,448.00, 208.00,448.00z M 208.00,256.00c-26.51,0.00-48.00-21.49-48.00-48.00s 21.49-48.00, 48.00-48.00 s 48.00,21.49, 48.00,48.00S 234.51,256.00, 208.00,256.00z M 304.00,352.00c-26.51,0.00-48.00-21.49-48.00-48.00s 21.49-48.00, 48.00-48.00s 48.00,21.49, 48.00,48.00S 330.51,352.00, 304.00,352.00z M 400.00,448.00 c-26.51,0.00-48.00-21.49-48.00-48.00s 21.49-48.00, 48.00-48.00s 48.00,21.49, 48.00,48.00S 426.51,448.00, 400.00,448.00z M 400.00,256.00c-26.51,0.00-48.00-21.49-48.00-48.00s 21.49-48.00, 48.00-48.00 s 48.00,21.49, 48.00,48.00S 426.51,256.00, 400.00,256.00z M 414.38,64.00C 406.915,27.598, 374.525,0.00, 336.00,0.00L 80.00,0.00 C 36.00,0.00,0.00,36.00,0.00,80.00l0.00,256.00 c0.00,38.523, 27.598,70.915, 64.00,78.38L 64.00,96.00 c0.00-17.60, 14.40-32.00, 32.00-32.00L 414.38,64.00 z"
     id="path67" />
</svg>
