<?xml version="1.0" encoding="UTF-8" standalone="no"?>
<!-- Generator: IcoMoon.io -->

<svg
   xmlns:dc="http://purl.org/dc/elements/1.1/"
   xmlns:cc="http://creativecommons.org/ns#"
   xmlns:rdf="http://www.w3.org/1999/02/22-rdf-syntax-ns#"
   xmlns:svg="http://www.w3.org/2000/svg"
   xmlns="http://www.w3.org/2000/svg"
   xmlns:sodipodi="http://sodipodi.sourceforge.net/DTD/sodipodi-0.dtd"
   xmlns:inkscape="http://www.inkscape.org/namespaces/inkscape"
   width="512"
   height="512"
   viewBox="0 0 512 512"
   fill="#000000"
   id="svg2"
   version="1.1"
   inkscape:version="0.48.2 r9819"
   sodipodi:docname="drawer3.svg">
  <metadata
     id="metadata73">
    <rdf:RDF>
      <cc:Work
         rdf:about="">
        <dc:format>image/svg+xml</dc:format>
        <dc:type
           rdf:resource="http://purl.org/dc/dcmitype/StillImage" />
      </cc:Work>
    </rdf:RDF>
  </metadata>
  <defs
     id="defs71" />
  <sodipodi:namedview
     pagecolor="#ffffff"
     bordercolor="#666666"
     borderopacity="1"
     objecttolerance="10"
     gridtolerance="10"
     guidetolerance="10"
     inkscape:pageopacity="0"
     inkscape:pageshadow="2"
     inkscape:window-width="640"
     inkscape:window-height="480"
     id="namedview69"
     showgrid="false"
     inkscape:zoom="0.4609375"
     inkscape:cx="256"
     inkscape:cy="256"
     inkscape:window-x="0"
     inkscape:window-y="0"
     inkscape:window-maximized="0"
     inkscape:current-layer="svg2" />
  <path
     d="M 449.248,0.00 L 482.87,285.78 L 445.13,290.22 L 415.104,35.00 L 96.896,35.00 L 66.87,290.22 L 29.13,285.78 L 62.751,0.00 ZM 128.00,64.00L 384.00,64.00L 384.00,96.00L 128.00,96.00zM 128.00,128.00L 384.00,128.00L 384.00,160.00L 128.00,160.00zM 128.00,192.00L 384.00,192.00L 384.00,224.00L 128.00,224.00zM 128.00,256.00L 384.00,256.00L 384.00,288.00L 128.00,288.00zM 496.00,320.00L 16.00,320.00 c-8.80,0.00-13.723,6.83-10.94,15.179L 58.94,496.821C 61.723,505.17, 71.20,512.00, 80.00,512.00l 352.00,0.00 c 8.80,0.00, 18.276-6.83, 21.06-15.179l 53.881-161.643C 509.724,326.83, 504.80,320.00, 496.00,320.00z M 320.00,384.00L 192.00,384.00 l0.00-32.00 l 128.00,0.00 L 320.00,384.00 z"
     id="path67" />
</svg>
