<?xml version="1.0" encoding="UTF-8" standalone="no"?>
<!-- Generator: IcoMoon.io -->

<svg
   xmlns:dc="http://purl.org/dc/elements/1.1/"
   xmlns:cc="http://creativecommons.org/ns#"
   xmlns:rdf="http://www.w3.org/1999/02/22-rdf-syntax-ns#"
   xmlns:svg="http://www.w3.org/2000/svg"
   xmlns="http://www.w3.org/2000/svg"
   xmlns:sodipodi="http://sodipodi.sourceforge.net/DTD/sodipodi-0.dtd"
   xmlns:inkscape="http://www.inkscape.org/namespaces/inkscape"
   width="512"
   height="512"
   viewBox="0 0 512 512"
   fill="#000000"
   id="svg2"
   version="1.1"
   inkscape:version="0.48.2 r9819"
   sodipodi:docname="deviantart2.svg">
  <metadata
     id="metadata73">
    <rdf:RDF>
      <cc:Work
         rdf:about="">
        <dc:format>image/svg+xml</dc:format>
        <dc:type
           rdf:resource="http://purl.org/dc/dcmitype/StillImage" />
      </cc:Work>
    </rdf:RDF>
  </metadata>
  <defs
     id="defs71" />
  <sodipodi:namedview
     pagecolor="#ffffff"
     bordercolor="#666666"
     borderopacity="1"
     objecttolerance="10"
     gridtolerance="10"
     guidetolerance="10"
     inkscape:pageopacity="0"
     inkscape:pageshadow="2"
     inkscape:window-width="640"
     inkscape:window-height="480"
     id="namedview69"
     showgrid="false"
     inkscape:zoom="0.4609375"
     inkscape:cx="256"
     inkscape:cy="256"
     inkscape:window-x="0"
     inkscape:window-y="0"
     inkscape:window-maximized="0"
     inkscape:current-layer="svg2" />
  <path
     d="M 426.00,0.00L 86.00,0.00 C 38.70,0.00,0.00,38.70,0.00,86.00l0.00,340.00 c0.00,47.30, 38.70,86.00, 86.00,86.00l 340.00,0.00 c 47.30,0.00, 86.00-38.70, 86.00-86.00L 512.00,86.00 C 512.00,38.70, 473.30,0.00, 426.00,0.00z M 480.00,384.00L 288.00,384.00 L 288.00,266.00 c0.00,0.00, 35.167,0.50, 54.00,20.00l0.00,34.00 l 77.205,0.00 c-5.91-18.941-18.534-37.556-36.564-53.332C 351.651,239.553, 301.044,226.00, 256.00,226.00l0.00,158.00 L 32.00,384.00 l0.00-48.00 c0.00-21.698, 7.325-43.269, 21.182-62.38c 12.297-16.959, 29.432-31.916, 50.93-44.457c 25.216-14.709, 55.281-25.354, 87.888-31.389L 192.00,128.00 l 64.00,0.00 l0.00,64.00 c 73.50,0.00, 110.806,13.198, 151.889,37.163c 21.498,12.541, 38.633,27.498, 50.93,44.457C 472.676,292.731, 480.00,314.302, 480.00,336.00L 480.00,384.00 zM 99.795,320.00 C 105.705,301.059 118.33,282.444 136.359,266.668 C 152.129,252.87 171.169,242.074 192.00,234.79 L 192.00,320.00 L 99.795,320.00 Z"
     id="path67" />
</svg>
