<?xml version="1.0" encoding="UTF-8" standalone="no"?>
<!-- Generator: IcoMoon.io -->

<svg
   xmlns:dc="http://purl.org/dc/elements/1.1/"
   xmlns:cc="http://creativecommons.org/ns#"
   xmlns:rdf="http://www.w3.org/1999/02/22-rdf-syntax-ns#"
   xmlns:svg="http://www.w3.org/2000/svg"
   xmlns="http://www.w3.org/2000/svg"
   xmlns:sodipodi="http://sodipodi.sourceforge.net/DTD/sodipodi-0.dtd"
   xmlns:inkscape="http://www.inkscape.org/namespaces/inkscape"
   width="512"
   height="512"
   viewBox="0 0 512 512"
   fill="#000000"
   id="svg2"
   version="1.1"
   inkscape:version="0.48.2 r9819"
   sodipodi:docname="droplet.svg">
  <metadata
     id="metadata73">
    <rdf:RDF>
      <cc:Work
         rdf:about="">
        <dc:format>image/svg+xml</dc:format>
        <dc:type
           rdf:resource="http://purl.org/dc/dcmitype/StillImage" />
      </cc:Work>
    </rdf:RDF>
  </metadata>
  <defs
     id="defs71" />
  <sodipodi:namedview
     pagecolor="#ffffff"
     bordercolor="#666666"
     borderopacity="1"
     objecttolerance="10"
     gridtolerance="10"
     guidetolerance="10"
     inkscape:pageopacity="0"
     inkscape:pageshadow="2"
     inkscape:window-width="640"
     inkscape:window-height="480"
     id="namedview69"
     showgrid="false"
     inkscape:zoom="0.4609375"
     inkscape:cx="256"
     inkscape:cy="256"
     inkscape:window-x="0"
     inkscape:window-y="0"
     inkscape:window-maximized="0"
     inkscape:current-layer="svg2" />
  <path
     d="M 447.97,316.751c-0.006-0.353-0.015-0.701-0.021-1.053c-0.016-0.714-0.035-1.427-0.059-2.14C 442.875,155.734, 256.00,0.00, 256.00,0.00 S 69.123,155.734, 64.11,313.561c-0.022,0.715-0.044,1.426-0.06,2.141c-0.007,0.352-0.015,0.701-0.021,1.053 c-0.018,1.08-0.028,2.162-0.028,3.248c0.00,1.184, 0.014,2.361, 0.035,3.539c 0.002,0.098, 0.003,0.195, 0.007,0.293 C 66.082,428.101, 151.241,512.00, 256.00,512.00c 104.758,0.00, 189.916-83.899, 191.959-188.168c 0.002-0.098, 0.004-0.196, 0.005-0.293 c 0.021-1.178, 0.036-2.357, 0.036-3.539C 448.00,318.914, 447.988,317.832, 447.97,316.751z M 383.975,322.37l-0.004,0.203 c-0.659,33.643-14.266,65.167-38.313,88.774C 321.587,434.983, 289.743,448.00, 256.00,448.00c-6.231,0.00-12.397-0.447-18.462-1.319 c 69.528-41.423, 116.108-117.352, 116.108-204.161c0.00-9.728-0.59-19.317-1.726-28.74c 20.136,36.97, 31.032,71.40, 32.001,101.813 l 0.002,0.072c 0.016,0.474, 0.026,0.946, 0.039,1.422l 0.014,0.724C 383.99,318.539, 384.00,319.27, 384.00,320.00 C 384.00,320.792, 383.99,321.581, 383.975,322.37z"
     id="path67" />
</svg>
