<?xml version="1.0" encoding="UTF-8" standalone="no"?>
<!-- Generator: IcoMoon.io -->

<svg
   xmlns:dc="http://purl.org/dc/elements/1.1/"
   xmlns:cc="http://creativecommons.org/ns#"
   xmlns:rdf="http://www.w3.org/1999/02/22-rdf-syntax-ns#"
   xmlns:svg="http://www.w3.org/2000/svg"
   xmlns="http://www.w3.org/2000/svg"
   xmlns:sodipodi="http://sodipodi.sourceforge.net/DTD/sodipodi-0.dtd"
   xmlns:inkscape="http://www.inkscape.org/namespaces/inkscape"
   width="512"
   height="512"
   viewBox="0 0 512 512"
   fill="#000000"
   id="svg2"
   version="1.1"
   inkscape:version="0.48.2 r9819"
   sodipodi:docname="delicious.svg">
  <metadata
     id="metadata73">
    <rdf:RDF>
      <cc:Work
         rdf:about="">
        <dc:format>image/svg+xml</dc:format>
        <dc:type
           rdf:resource="http://purl.org/dc/dcmitype/StillImage" />
      </cc:Work>
    </rdf:RDF>
  </metadata>
  <defs
     id="defs71" />
  <sodipodi:namedview
     pagecolor="#ffffff"
     bordercolor="#666666"
     borderopacity="1"
     objecttolerance="10"
     gridtolerance="10"
     guidetolerance="10"
     inkscape:pageopacity="0"
     inkscape:pageshadow="2"
     inkscape:window-width="640"
     inkscape:window-height="480"
     id="namedview69"
     showgrid="false"
     inkscape:zoom="0.4609375"
     inkscape:cx="256"
     inkscape:cy="256"
     inkscape:window-x="0"
     inkscape:window-y="0"
     inkscape:window-maximized="0"
     inkscape:current-layer="svg2" />
  <path
     d="M 426.688,0.00L 85.343,0.00 C 38.405,0.00,0.00,38.408,0.00,85.346l0.00,341.312 C0.00,473.623, 38.405,512.00, 85.343,512.00l 341.345,0.00 C 473.625,512.00, 512.00,473.624, 512.00,426.658L 512.00,85.346 C 512.00,38.408, 473.625,0.00, 426.688,0.00z M 480.00,426.658c0.00,14.167-5.57,27.541-15.685,37.658 C 454.204,474.43, 440.841,480.00, 426.688,480.00L 256.00,480.00 L 256.00,256.00 L 32.00,256.00 L 32.00,85.346 c0.00-14.154, 5.575-27.525, 15.698-37.648C 57.82,37.575, 71.19,32.00, 85.343,32.00 L 256.00,32.00 l0.00,224.00 l 224.00,0.00 L 480.00,426.658 z"
     id="path67" />
</svg>
