<?xml version="1.0" encoding="UTF-8" standalone="no"?>
<!-- Generator: IcoMoon.io -->

<svg
   xmlns:dc="http://purl.org/dc/elements/1.1/"
   xmlns:cc="http://creativecommons.org/ns#"
   xmlns:rdf="http://www.w3.org/1999/02/22-rdf-syntax-ns#"
   xmlns:svg="http://www.w3.org/2000/svg"
   xmlns="http://www.w3.org/2000/svg"
   xmlns:sodipodi="http://sodipodi.sourceforge.net/DTD/sodipodi-0.dtd"
   xmlns:inkscape="http://www.inkscape.org/namespaces/inkscape"
   width="512"
   height="512"
   viewBox="0 0 512 512"
   fill="#000000"
   id="svg2"
   version="1.1"
   inkscape:version="0.48.2 r9819"
   sodipodi:docname="deviantart.svg">
  <metadata
     id="metadata73">
    <rdf:RDF>
      <cc:Work
         rdf:about="">
        <dc:format>image/svg+xml</dc:format>
        <dc:type
           rdf:resource="http://purl.org/dc/dcmitype/StillImage" />
      </cc:Work>
    </rdf:RDF>
  </metadata>
  <defs
     id="defs71" />
  <sodipodi:namedview
     pagecolor="#ffffff"
     bordercolor="#666666"
     borderopacity="1"
     objecttolerance="10"
     gridtolerance="10"
     guidetolerance="10"
     inkscape:pageopacity="0"
     inkscape:pageshadow="2"
     inkscape:window-width="640"
     inkscape:window-height="480"
     id="namedview69"
     showgrid="false"
     inkscape:zoom="0.4609375"
     inkscape:cx="256"
     inkscape:cy="256"
     inkscape:window-x="0"
     inkscape:window-y="0"
     inkscape:window-maximized="0"
     inkscape:current-layer="svg2" />
  <path
     d="M 280.928,203.50c-19.521-1.141-42.041,0.024-68.125,4.475l 60.167,108.444L 512.00,250.786 c-2.577-6.13-6.343-12.113-11.331-17.899c-24.737-28.639-78.37-54.187-136.802-65.709l 0.001-0.013 c-57.322-13.437-119.401-12.872-182.98-3.274c-2.292,0.344-4.572,0.711-6.84,1.092l-21.136-39.146 c-20.571,2.746-39.904,7.025-57.803,12.737l 20.13,42.099c-32.88,12.738-59.861,30.88-79.329,52.716 C 3.804,269.921-8.885,315.843, 6.537,360.565c 3.102,9.021, 7.294,17.58, 12.468,25.598l 239.034-65.649l-66.375-122.924 c 2.279-0.44, 4.598-0.884, 6.964-1.312c 107.341-19.149, 166.051,10.432, 198.208,41.915l-81.779,19.824L 280.928,203.50z M 87.361,313.195 c-7.379-33.676-1.506-71.263, 45.202-96.297l 36.569,76.474L 87.361,313.195z"
     id="path67" />
</svg>
