<?xml version="1.0" encoding="UTF-8" standalone="no"?>
<!-- Generator: IcoMoon.io -->

<svg
   xmlns:dc="http://purl.org/dc/elements/1.1/"
   xmlns:cc="http://creativecommons.org/ns#"
   xmlns:rdf="http://www.w3.org/1999/02/22-rdf-syntax-ns#"
   xmlns:svg="http://www.w3.org/2000/svg"
   xmlns="http://www.w3.org/2000/svg"
   xmlns:sodipodi="http://sodipodi.sourceforge.net/DTD/sodipodi-0.dtd"
   xmlns:inkscape="http://www.inkscape.org/namespaces/inkscape"
   width="512"
   height="512"
   viewBox="0 0 512 512"
   fill="#000000"
   id="svg2"
   version="1.1"
   inkscape:version="0.48.2 r9819"
   sodipodi:docname="evil2.svg">
  <metadata
     id="metadata73">
    <rdf:RDF>
      <cc:Work
         rdf:about="">
        <dc:format>image/svg+xml</dc:format>
        <dc:type
           rdf:resource="http://purl.org/dc/dcmitype/StillImage" />
      </cc:Work>
    </rdf:RDF>
  </metadata>
  <defs
     id="defs71" />
  <sodipodi:namedview
     pagecolor="#ffffff"
     bordercolor="#666666"
     borderopacity="1"
     objecttolerance="10"
     gridtolerance="10"
     guidetolerance="10"
     inkscape:pageopacity="0"
     inkscape:pageshadow="2"
     inkscape:window-width="640"
     inkscape:window-height="480"
     id="namedview69"
     showgrid="false"
     inkscape:zoom="0.4609375"
     inkscape:cx="256"
     inkscape:cy="256"
     inkscape:window-x="0"
     inkscape:window-y="0"
     inkscape:window-maximized="0"
     inkscape:current-layer="svg2" />
  <path
     d="M 512.00,32.00c0.00-22.758-4.762-44.40-13.326-64.00c-16.788,38.418-48.224,68.966-87.247,84.589C 368.33,19.609, 314.459,0.00, 256.00,0.00 S 143.67,19.609, 100.573,52.589C 61.549,36.966, 30.114,6.418, 13.326-32.00C 4.762-12.40,0.00,9.242,0.00,32.00c0.00,36.787, 12.425,70.664, 33.294,97.689 C 12.109,166.96,0.00,210.064,0.00,256.00c0.00,141.385, 114.615,256.00, 256.00,256.00s 256.00-114.615, 256.00-256.00c0.00-45.936-12.109-89.04-33.294-126.311 C 499.575,102.664, 512.00,68.787, 512.00,32.00z M 288.047,190.258c 1.016-23.727, 22.605-39.474, 40.796-48.569 c 17.371-8.686, 34.552-13.03, 35.274-13.211c 8.573-2.144, 17.26,3.069, 19.403,11.642c 2.143,8.573-3.069,17.259-11.642,19.403 c-8.812,2.225-19.261,6.06-28.468,10.675c 5.324,5.715, 8.587,13.376, 8.587,21.803c0.00,17.673-14.327,32.00-32.00,32.00s-32.00-14.327-32.00-32.00 C 287.998,191.416, 288.016,190.835, 288.047,190.258z M 128.479,140.12c 2.144-8.573, 10.83-13.786, 19.403-11.642 c 0.723,0.181, 17.903,4.526, 35.274,13.211c 18.19,9.096, 39.78,24.842, 40.796,48.569c 0.031,0.577, 0.049,1.157, 0.049,1.742 c0.00,17.673-14.327,32.00-32.00,32.00s-32.00-14.327-32.00-32.00c0.00-8.427, 3.263-16.088, 8.587-21.803c-9.207-4.615-19.655-8.45-28.468-10.675 C 131.549,157.379, 126.337,148.692, 128.479,140.12z M 256.00,416.00c-58.255,0.00-109.232-31.137-137.213-77.672l 41.164-24.698 C 179.538,346.204, 215.222,368.00, 256.00,368.00c 40.777,0.00, 76.462-21.796, 96.049-54.37l 41.164,24.698C 365.232,384.863, 314.255,416.00, 256.00,416.00z"
     id="path67" />
</svg>
