<?xml version="1.0" encoding="UTF-8" standalone="no"?>
<!-- Generator: IcoMoon.io -->

<svg
   xmlns:dc="http://purl.org/dc/elements/1.1/"
   xmlns:cc="http://creativecommons.org/ns#"
   xmlns:rdf="http://www.w3.org/1999/02/22-rdf-syntax-ns#"
   xmlns:svg="http://www.w3.org/2000/svg"
   xmlns="http://www.w3.org/2000/svg"
   xmlns:sodipodi="http://sodipodi.sourceforge.net/DTD/sodipodi-0.dtd"
   xmlns:inkscape="http://www.inkscape.org/namespaces/inkscape"
   width="512"
   height="512"
   viewBox="0 0 512 512"
   fill="#000000"
   id="svg2"
   version="1.1"
   inkscape:version="0.48.2 r9819"
   sodipodi:docname="eye-blocked.svg">
  <metadata
     id="metadata73">
    <rdf:RDF>
      <cc:Work
         rdf:about="">
        <dc:format>image/svg+xml</dc:format>
        <dc:type
           rdf:resource="http://purl.org/dc/dcmitype/StillImage" />
      </cc:Work>
    </rdf:RDF>
  </metadata>
  <defs
     id="defs71" />
  <sodipodi:namedview
     pagecolor="#ffffff"
     bordercolor="#666666"
     borderopacity="1"
     objecttolerance="10"
     gridtolerance="10"
     guidetolerance="10"
     inkscape:pageopacity="0"
     inkscape:pageshadow="2"
     inkscape:window-width="640"
     inkscape:window-height="480"
     id="namedview69"
     showgrid="false"
     inkscape:zoom="0.4609375"
     inkscape:cx="256"
     inkscape:cy="256"
     inkscape:window-x="0"
     inkscape:window-y="0"
     inkscape:window-maximized="0"
     inkscape:current-layer="svg2" />
  <path
     d="M 419.661,148.208 C 458.483,175.723 490.346,212.754 512.00,256.00 C 464.439,350.979 367.657,416.00 256.00,416.00 C 224.717,416.00 194.604,410.894 166.411,401.458 L 205.389,362.48 C 221.918,366.13 238.875,368.00 256.00,368.00 C 300.779,368.00 344.427,355.257 382.223,331.148 C 412.304,311.96 437.795,286.26 456.941,255.999 C 438.415,226.716 413.934,201.724 385.116,182.752 L 419.661,148.208 ZM 256.00,349.00 C 244.638,349.00 233.624,347.512 223.136,344.733 L 379.729,188.141 C 382.51,198.627 384.00,209.638 384.00,221.00 C 384.00,291.692 326.692,349.00 256.00,349.00 ZM 480.00,0.00l-26.869,0.00 L 343.325,109.806C 315.787,100.844, 286.448,96.00, 256.00,96.00C 144.341,96.00, 47.559,161.021,0.00,256.00 c 21.329,42.596, 52.564,79.154, 90.597,106.534L0.00,453.131L0.00,480.00 l 26.869,0.00 L 480.00,26.869L 480.00,0.00 z M 208.00,157.00c 24.022,0.00, 43.923,17.647, 47.446,40.685 l-54.762,54.762C 177.647,248.923, 160.00,229.022, 160.00,205.00C 160.00,178.49, 181.49,157.00, 208.00,157.00z M 55.058,256.00 c 19.146-30.262, 44.637-55.962, 74.717-75.148c 1.959-1.25, 3.938-2.461, 5.929-3.65C 130.725,190.866, 128.00,205.613, 128.00,221.00 c0.00,29.262, 9.825,56.224, 26.349,77.781l-29.275,29.275C 97.038,309.235, 73.197,284.67, 55.058,256.00z"
     id="path67" />
</svg>
