<?xml version="1.0" encoding="UTF-8" standalone="no"?>
<!-- Generator: IcoMoon.io -->

<svg
   xmlns:dc="http://purl.org/dc/elements/1.1/"
   xmlns:cc="http://creativecommons.org/ns#"
   xmlns:rdf="http://www.w3.org/1999/02/22-rdf-syntax-ns#"
   xmlns:svg="http://www.w3.org/2000/svg"
   xmlns="http://www.w3.org/2000/svg"
   xmlns:sodipodi="http://sodipodi.sourceforge.net/DTD/sodipodi-0.dtd"
   xmlns:inkscape="http://www.inkscape.org/namespaces/inkscape"
   width="512"
   height="512"
   viewBox="0 0 512 512"
   fill="#000000"
   id="svg2"
   version="1.1"
   inkscape:version="0.48.2 r9819"
   sodipodi:docname="eye2.svg">
  <metadata
     id="metadata73">
    <rdf:RDF>
      <cc:Work
         rdf:about="">
        <dc:format>image/svg+xml</dc:format>
        <dc:type
           rdf:resource="http://purl.org/dc/dcmitype/StillImage" />
      </cc:Work>
    </rdf:RDF>
  </metadata>
  <defs
     id="defs71" />
  <sodipodi:namedview
     pagecolor="#ffffff"
     bordercolor="#666666"
     borderopacity="1"
     objecttolerance="10"
     gridtolerance="10"
     guidetolerance="10"
     inkscape:pageopacity="0"
     inkscape:pageshadow="2"
     inkscape:window-width="640"
     inkscape:window-height="480"
     id="namedview69"
     showgrid="false"
     inkscape:zoom="0.4609375"
     inkscape:cx="256"
     inkscape:cy="256"
     inkscape:window-x="0"
     inkscape:window-y="0"
     inkscape:window-maximized="0"
     inkscape:current-layer="svg2" />
  <path
     d="M 256.00,160.00C 151.316,160.00, 58.378,210.278,0.00,288.00c 58.378,77.723, 151.316,128.00, 256.00,128.00c 104.684,0.00, 197.622-50.277, 256.00-128.00 C 453.622,210.278, 360.684,160.00, 256.00,160.00z M 224.00,224.00c 17.673,0.00, 32.00,14.327, 32.00,32.00s-14.327,32.00-32.00,32.00s-32.00-14.327-32.00-32.00S 206.327,224.00, 224.00,224.00z M 386.808,352.648c-19.824,10.129-40.826,17.931-62.423,23.188C 302.141,381.254, 279.134,384.00, 256.00,384.00 c-23.133,0.00-46.141-2.746-68.384-8.162c-21.597-5.259-42.599-13.061-62.423-23.188c-31.51-16.101-60.111-38.205-83.82-64.649 c 23.709-26.444, 52.31-48.55, 83.82-64.649c 16.168-8.261, 33.121-14.973, 50.541-20.02C 165.79,218.453, 160.00,236.549, 160.00,256.00 c0.00,53.02, 42.981,96.00, 96.00,96.00c 53.019,0.00, 96.00-42.98, 96.00-96.00c0.00-19.451-5.791-37.547-15.733-52.67c 17.419,5.048, 34.372,11.76, 50.541,20.021 c 31.511,16.099, 60.109,38.204, 83.819,64.649C 446.917,314.443, 418.318,336.55, 386.808,352.648z M 430.459,121.861 C 376.099,94.084, 317.403,80.00, 256.00,80.00c-61.403,0.00-120.099,14.084-174.459,41.861C 52.155,136.877, 24.675,155.813,0.00,177.899l0.00,54.603 c 27.669-29.283, 60.347-53.877, 96.097-72.145C 145.907,134.905, 199.706,122.00, 256.00,122.00s 110.093,12.905, 159.902,38.358 c 35.751,18.268, 68.429,42.862, 96.098,72.145L 512.00,177.90 C 487.325,155.813, 459.846,136.877, 430.459,121.861z"
     id="path67" />
</svg>
