<?xml version="1.0" encoding="UTF-8" standalone="no"?>
<!-- Generator: IcoMoon.io -->

<svg
   xmlns:dc="http://purl.org/dc/elements/1.1/"
   xmlns:cc="http://creativecommons.org/ns#"
   xmlns:rdf="http://www.w3.org/1999/02/22-rdf-syntax-ns#"
   xmlns:svg="http://www.w3.org/2000/svg"
   xmlns="http://www.w3.org/2000/svg"
   xmlns:sodipodi="http://sodipodi.sourceforge.net/DTD/sodipodi-0.dtd"
   xmlns:inkscape="http://www.inkscape.org/namespaces/inkscape"
   width="512"
   height="512"
   viewBox="0 0 512 512"
   fill="#000000"
   id="svg2"
   version="1.1"
   inkscape:version="0.48.2 r9819"
   sodipodi:docname="eye.svg">
  <metadata
     id="metadata73">
    <rdf:RDF>
      <cc:Work
         rdf:about="">
        <dc:format>image/svg+xml</dc:format>
        <dc:type
           rdf:resource="http://purl.org/dc/dcmitype/StillImage" />
      </cc:Work>
    </rdf:RDF>
  </metadata>
  <defs
     id="defs71" />
  <sodipodi:namedview
     pagecolor="#ffffff"
     bordercolor="#666666"
     borderopacity="1"
     objecttolerance="10"
     gridtolerance="10"
     guidetolerance="10"
     inkscape:pageopacity="0"
     inkscape:pageshadow="2"
     inkscape:window-width="640"
     inkscape:window-height="480"
     id="namedview69"
     showgrid="false"
     inkscape:zoom="0.4609375"
     inkscape:cx="256"
     inkscape:cy="256"
     inkscape:window-x="0"
     inkscape:window-y="0"
     inkscape:window-maximized="0"
     inkscape:current-layer="svg2" />
  <path
     d="M 256.00,96.00C 144.341,96.00, 47.559,161.021,0.00,256.00c 47.559,94.979, 144.341,160.00, 256.00,160.00c 111.657,0.00, 208.439-65.021, 256.00-160.00 C 464.442,161.021, 367.657,96.00, 256.00,96.00z M 382.225,180.852c 30.081,19.187, 55.571,44.887, 74.717,75.148 c-19.146,30.261-44.637,55.961-74.718,75.149C 344.427,355.257, 300.779,368.00, 256.00,368.00c-44.78,0.00-88.428-12.743-126.225-36.852 C 99.695,311.962, 74.205,286.262, 55.058,256.00c 19.146-30.262, 44.637-55.962, 74.717-75.148c 1.959-1.25, 3.938-2.461, 5.929-3.65 C 130.725,190.866, 128.00,205.613, 128.00,221.00c0.00,70.692, 57.308,128.00, 128.00,128.00s 128.00-57.308, 128.00-128.00c0.00-15.387-2.725-30.134-7.704-43.799 C 378.286,178.39, 380.265,179.602, 382.225,180.852z M 256.00,205.00c0.00,26.51-21.49,48.00-48.00,48.00s-48.00-21.49-48.00-48.00s 21.49-48.00, 48.00-48.00 S 256.00,178.49, 256.00,205.00z"
     id="path67" />
</svg>
