<?xml version="1.0" encoding="UTF-8" standalone="no"?>
<!-- Generator: IcoMoon.io -->

<svg
   xmlns:dc="http://purl.org/dc/elements/1.1/"
   xmlns:cc="http://creativecommons.org/ns#"
   xmlns:rdf="http://www.w3.org/1999/02/22-rdf-syntax-ns#"
   xmlns:svg="http://www.w3.org/2000/svg"
   xmlns="http://www.w3.org/2000/svg"
   xmlns:sodipodi="http://sodipodi.sourceforge.net/DTD/sodipodi-0.dtd"
   xmlns:inkscape="http://www.inkscape.org/namespaces/inkscape"
   width="512"
   height="512"
   viewBox="0 0 512 512"
   fill="#000000"
   id="svg2"
   version="1.1"
   inkscape:version="0.48.2 r9819"
   sodipodi:docname="envelop.svg">
  <metadata
     id="metadata73">
    <rdf:RDF>
      <cc:Work
         rdf:about="">
        <dc:format>image/svg+xml</dc:format>
        <dc:type
           rdf:resource="http://purl.org/dc/dcmitype/StillImage" />
      </cc:Work>
    </rdf:RDF>
  </metadata>
  <defs
     id="defs71" />
  <sodipodi:namedview
     pagecolor="#ffffff"
     bordercolor="#666666"
     borderopacity="1"
     objecttolerance="10"
     gridtolerance="10"
     guidetolerance="10"
     inkscape:pageopacity="0"
     inkscape:pageshadow="2"
     inkscape:window-width="640"
     inkscape:window-height="480"
     id="namedview69"
     showgrid="false"
     inkscape:zoom="0.4609375"
     inkscape:cx="256"
     inkscape:cy="256"
     inkscape:window-x="0"
     inkscape:window-y="0"
     inkscape:window-maximized="0"
     inkscape:current-layer="svg2" />
  <path
     d="M 464.00,64.00L 48.00,64.00 C 21.60,64.00,0.00,85.60,0.00,112.00l0.00,320.00 c0.00,26.40, 21.60,48.00, 48.00,48.00l 416.00,0.00 c 26.40,0.00, 48.00-21.60, 48.00-48.00L 512.00,112.00 C 512.00,85.60, 490.40,64.00, 464.00,64.00z M 199.37,275.186L 64.00,380.632L 64.00,129.811 L 199.37,275.186z M 88.19,128.00L 423.81,128.00 L 256.00,254.00L 88.19,128.00z M 204.644,280.849L 256.00,336.00l 51.355-55.151 L 412.632,416.00L 99.368,416.00 L 204.644,280.849z M 312.63,275.186L 448.00,129.811l0.00,250.821 L 312.63,275.186z"
     id="path67" />
</svg>
