<?xml version="1.0" encoding="UTF-8" standalone="no"?>
<!-- Generator: IcoMoon.io -->

<svg
   xmlns:dc="http://purl.org/dc/elements/1.1/"
   xmlns:cc="http://creativecommons.org/ns#"
   xmlns:rdf="http://www.w3.org/1999/02/22-rdf-syntax-ns#"
   xmlns:svg="http://www.w3.org/2000/svg"
   xmlns="http://www.w3.org/2000/svg"
   xmlns:sodipodi="http://sodipodi.sourceforge.net/DTD/sodipodi-0.dtd"
   xmlns:inkscape="http://www.inkscape.org/namespaces/inkscape"
   width="512"
   height="512"
   viewBox="0 0 512 512"
   fill="#000000"
   id="svg2"
   version="1.1"
   inkscape:version="0.48.2 r9819"
   sodipodi:docname="finder.svg">
  <metadata
     id="metadata73">
    <rdf:RDF>
      <cc:Work
         rdf:about="">
        <dc:format>image/svg+xml</dc:format>
        <dc:type
           rdf:resource="http://purl.org/dc/dcmitype/StillImage" />
      </cc:Work>
    </rdf:RDF>
  </metadata>
  <defs
     id="defs71" />
  <sodipodi:namedview
     pagecolor="#ffffff"
     bordercolor="#666666"
     borderopacity="1"
     objecttolerance="10"
     gridtolerance="10"
     guidetolerance="10"
     inkscape:pageopacity="0"
     inkscape:pageshadow="2"
     inkscape:window-width="640"
     inkscape:window-height="480"
     id="namedview69"
     showgrid="false"
     inkscape:zoom="0.4609375"
     inkscape:cx="256"
     inkscape:cy="256"
     inkscape:window-x="0"
     inkscape:window-y="0"
     inkscape:window-maximized="0"
     inkscape:current-layer="svg2" />
  <path
     d="M 256.50,384.00c-66.156,0.00-130.837-9.686-193.05-28.849l 10.124-30.371C 132.526,342.859, 193.812,352.00, 256.50,352.00 c 8.172,0.00, 16.319-0.164, 24.441-0.474C 283.054,312.746, 288.00,288.00, 288.00,288.00s-32.00,0.00-96.00,0.00c0.00-87.505, 29.909-165.027, 62.465-223.50L0.00,64.50 l0.00,383.00 l 283.088,0.00 c-2.336-22.842-3.152-44.43-3.077-63.92C 272.195,383.854, 264.358,384.00, 256.50,384.00z M 96.00,128.00l 32.00,0.00 l0.00,64.00 L 96.00,192.00 L 96.00,128.00 zM 512.00,64.50L 298.435,64.50 c-0.974,1.598-1.947,3.207-2.92,4.843c-19.208,32.286-34.468,65.379-45.358,98.36 c-9.103,27.566-15.151,55.116-18.086,82.297l 102.429,0.00 l-9.229,45.417c-0.157,0.808-4.085,21.422-6.10,53.471 c 40.932-4.063, 81.111-12.103, 120.257-24.107l 10.124,30.371c-42.783,13.178-86.732,21.874-131.526,26.021 c-0.018,2.188-0.028,4.395-0.021,6.64c 0.062,20.315, 1.173,40.285, 3.301,59.688L 512.00,447.501 L 512.00,64.50 z M 416.00,192.00l-32.00,0.00 l0.00-64.00 l 32.00,0.00 L 416.00,192.00 zM 293.632,512.00l 39.084,0.00 c-2.73-10.907-5.094-22.096-7.069-33.543c-1.747-10.126-3.191-20.46-4.343-30.957l-38.216,0.00 C 285.204,468.189, 288.563,489.901, 293.632,512.00zM 344.224,0.00l-48.198,0.00 c-12.875,17.435-27.466,39.185-41.56,64.50l 43.969,0.00 C 315.272,36.844, 332.017,14.799, 344.224,0.00z"
     id="path67" />
</svg>
