<?xml version="1.0" encoding="UTF-8" standalone="no"?>
<!-- Generator: IcoMoon.io -->

<svg
   xmlns:dc="http://purl.org/dc/elements/1.1/"
   xmlns:cc="http://creativecommons.org/ns#"
   xmlns:rdf="http://www.w3.org/1999/02/22-rdf-syntax-ns#"
   xmlns:svg="http://www.w3.org/2000/svg"
   xmlns="http://www.w3.org/2000/svg"
   xmlns:sodipodi="http://sodipodi.sourceforge.net/DTD/sodipodi-0.dtd"
   xmlns:inkscape="http://www.inkscape.org/namespaces/inkscape"
   width="512"
   height="512"
   viewBox="0 0 512 512"
   fill="#000000"
   id="svg2"
   version="1.1"
   inkscape:version="0.48.2 r9819"
   sodipodi:docname="facebook2.svg">
  <metadata
     id="metadata73">
    <rdf:RDF>
      <cc:Work
         rdf:about="">
        <dc:format>image/svg+xml</dc:format>
        <dc:type
           rdf:resource="http://purl.org/dc/dcmitype/StillImage" />
      </cc:Work>
    </rdf:RDF>
  </metadata>
  <defs
     id="defs71" />
  <sodipodi:namedview
     pagecolor="#ffffff"
     bordercolor="#666666"
     borderopacity="1"
     objecttolerance="10"
     gridtolerance="10"
     guidetolerance="10"
     inkscape:pageopacity="0"
     inkscape:pageshadow="2"
     inkscape:window-width="640"
     inkscape:window-height="480"
     id="namedview69"
     showgrid="false"
     inkscape:zoom="0.4609375"
     inkscape:cx="256"
     inkscape:cy="256"
     inkscape:window-x="0"
     inkscape:window-y="0"
     inkscape:window-maximized="0"
     inkscape:current-layer="svg2" />
  <path
     d="M 426.672,0.00L 85.342,0.00 C 38.406,0.00,0.00,38.407,0.00,85.344l0.00,341.313 C0.00,473.626, 38.406,512.00, 85.342,512.00l 341.33-0.001 c 46.938,0.00, 85.328-38.373, 85.328-85.344L 512.00,85.344 C 512.00,38.407, 473.609,0.00, 426.672,0.00z M 435.296,256.00L 352.00,256.00 l0.00,224.00 l-96.00,0.00 L 256.00,256.00 l-46.263,0.00 l0.00-73.282 L 256.00,182.718 l0.00-47.593 C 256.00,70.454, 283.896,32.00, 359.935,32.00l 87.622,0.00 l0.00,79.285 l-71.565,0.00 c-21.241-0.035-23.876,11.076-23.876,31.756L 352.00,182.718l 96.00,0.00 L 435.296,256.00z"
     id="path67" />
</svg>
