<?xml version="1.0" encoding="UTF-8" standalone="no"?>
<!-- Generator: IcoMoon.io -->

<svg
   xmlns:dc="http://purl.org/dc/elements/1.1/"
   xmlns:cc="http://creativecommons.org/ns#"
   xmlns:rdf="http://www.w3.org/1999/02/22-rdf-syntax-ns#"
   xmlns:svg="http://www.w3.org/2000/svg"
   xmlns="http://www.w3.org/2000/svg"
   xmlns:sodipodi="http://sodipodi.sourceforge.net/DTD/sodipodi-0.dtd"
   xmlns:inkscape="http://www.inkscape.org/namespaces/inkscape"
   width="512"
   height="512"
   viewBox="0 0 512 512"
   fill="#000000"
   id="svg2"
   version="1.1"
   inkscape:version="0.48.2 r9819"
   sodipodi:docname="flattr.svg">
  <metadata
     id="metadata73">
    <rdf:RDF>
      <cc:Work
         rdf:about="">
        <dc:format>image/svg+xml</dc:format>
        <dc:type
           rdf:resource="http://purl.org/dc/dcmitype/StillImage" />
      </cc:Work>
    </rdf:RDF>
  </metadata>
  <defs
     id="defs71" />
  <sodipodi:namedview
     pagecolor="#ffffff"
     bordercolor="#666666"
     borderopacity="1"
     objecttolerance="10"
     gridtolerance="10"
     guidetolerance="10"
     inkscape:pageopacity="0"
     inkscape:pageshadow="2"
     inkscape:window-width="640"
     inkscape:window-height="480"
     id="namedview69"
     showgrid="false"
     inkscape:zoom="0.4609375"
     inkscape:cx="256"
     inkscape:cy="256"
     inkscape:window-x="0"
     inkscape:window-y="0"
     inkscape:window-maximized="0"
     inkscape:current-layer="svg2" />
  <path
     d="M 183.781,0.00C 62.102,0.00,0.00,70.081,0.00,200.928l0.00,0.00l0.00,91.402 l0.00,183.115 l 119.195-119.314L 119.195,216.683 c0.00-54.208, 14.365-88.703, 62.559-96.447 l0.00,0.00c 16.836-3.292, 51.875-2.139, 74.153-2.139l0.00,0.00l0.00,82.798 c0.00,0.755, 0.104,2.103, 0.297,2.793l0.00,0.00c 0.935,3.352, 3.965,5.808, 7.558,5.815 l0.00,0.00c 2.031,0.004, 3.934-1.052, 5.895-2.985l0.00,0.00L 476.218,0.031L 337.562,0.00L 183.781,0.00 z M 392.805,155.873l0.00,139.445 c0.00,54.207-14.368,88.707-62.558,96.447l0.00,0.00c-16.836,3.291-51.878,2.139-74.156,2.139l0.00,0.00l0.00-82.797 c0.00-0.75-0.103-2.102-0.297-2.791 l0.00,0.00c-0.932-3.356-3.961-5.811-7.556-5.815l0.00,0.00c-2.032-0.004-3.933,1.056-5.895,2.983l0.00,0.00L 35.781,511.967L 174.434,512.00l 153.784,0.00 C 449.895,512.00, 512.00,441.916, 512.00,311.074l0.00,0.00l0.00-91.407 L 512.00,36.56 L 392.805,155.873z"
     id="path67" />
</svg>
