<?xml version="1.0" encoding="UTF-8" standalone="no"?>
<!-- Generator: IcoMoon.io -->

<svg
   xmlns:dc="http://purl.org/dc/elements/1.1/"
   xmlns:cc="http://creativecommons.org/ns#"
   xmlns:rdf="http://www.w3.org/1999/02/22-rdf-syntax-ns#"
   xmlns:svg="http://www.w3.org/2000/svg"
   xmlns="http://www.w3.org/2000/svg"
   xmlns:sodipodi="http://sodipodi.sourceforge.net/DTD/sodipodi-0.dtd"
   xmlns:inkscape="http://www.inkscape.org/namespaces/inkscape"
   width="512"
   height="512"
   viewBox="0 0 512 512"
   fill="#000000"
   id="svg2"
   version="1.1"
   inkscape:version="0.48.2 r9819"
   sodipodi:docname="feed.svg">
  <metadata
     id="metadata73">
    <rdf:RDF>
      <cc:Work
         rdf:about="">
        <dc:format>image/svg+xml</dc:format>
        <dc:type
           rdf:resource="http://purl.org/dc/dcmitype/StillImage" />
      </cc:Work>
    </rdf:RDF>
  </metadata>
  <defs
     id="defs71" />
  <sodipodi:namedview
     pagecolor="#ffffff"
     bordercolor="#666666"
     borderopacity="1"
     objecttolerance="10"
     gridtolerance="10"
     guidetolerance="10"
     inkscape:pageopacity="0"
     inkscape:pageshadow="2"
     inkscape:window-width="640"
     inkscape:window-height="480"
     id="namedview69"
     showgrid="false"
     inkscape:zoom="0.4609375"
     inkscape:cx="256"
     inkscape:cy="256"
     inkscape:window-x="0"
     inkscape:window-y="0"
     inkscape:window-maximized="0"
     inkscape:current-layer="svg2" />
  <path
     d="M 192.00,256.00A64.00,64.00 2520.00 1,0 320.00,256A64.00,64.00 2520.00 1,0 192.00,256zM 332.174,115.263 C 382.10,142.342 416.00,195.212 416.00,256.00 C 416.00,316.788 382.10,369.658 332.174,396.737 C 354.207,361.674 368.00,311.602 368.00,256.00 C 368.00,200.398 354.207,150.326 332.174,115.263 ZM 144.00,256.00 C 144.00,311.602 157.792,361.674 179.826,396.737 C 129.90,369.657 96.00,316.788 96.00,256.00 C 96.00,195.212 129.90,142.343 179.826,115.263 C 157.792,150.326 144.00,200.398 144.00,256.00 ZM 48.00,256.00 C 48.00,341.95 75.202,419.092 118.326,471.861 C 47.175,426.387 0.00,346.704 0.00,256.00 C 0.00,165.296 47.175,85.613 118.326,40.139 C 75.202,92.908 48.00,170.05 48.00,256.00 ZM 393.676,40.14 C 464.825,85.613 512.00,165.296 512.00,256.00 C 512.00,346.704 464.825,426.387 393.676,471.86 C 436.798,419.092 464.00,341.95 464.00,256.00 C 464.00,170.05 436.798,92.908 393.676,40.14 Z"
     id="path67" />
</svg>
