<?xml version="1.0" encoding="UTF-8" standalone="no"?>
<!-- Generator: IcoMoon.io -->

<svg
   xmlns:dc="http://purl.org/dc/elements/1.1/"
   xmlns:cc="http://creativecommons.org/ns#"
   xmlns:rdf="http://www.w3.org/1999/02/22-rdf-syntax-ns#"
   xmlns:svg="http://www.w3.org/2000/svg"
   xmlns="http://www.w3.org/2000/svg"
   xmlns:sodipodi="http://sodipodi.sourceforge.net/DTD/sodipodi-0.dtd"
   xmlns:inkscape="http://www.inkscape.org/namespaces/inkscape"
   width="512"
   height="512"
   viewBox="0 0 512 512"
   fill="#000000"
   id="svg2"
   version="1.1"
   inkscape:version="0.48.2 r9819"
   sodipodi:docname="fire.svg">
  <metadata
     id="metadata73">
    <rdf:RDF>
      <cc:Work
         rdf:about="">
        <dc:format>image/svg+xml</dc:format>
        <dc:type
           rdf:resource="http://purl.org/dc/dcmitype/StillImage" />
      </cc:Work>
    </rdf:RDF>
  </metadata>
  <defs
     id="defs71" />
  <sodipodi:namedview
     pagecolor="#ffffff"
     bordercolor="#666666"
     borderopacity="1"
     objecttolerance="10"
     gridtolerance="10"
     guidetolerance="10"
     inkscape:pageopacity="0"
     inkscape:pageshadow="2"
     inkscape:window-width="640"
     inkscape:window-height="480"
     id="namedview69"
     showgrid="false"
     inkscape:zoom="0.4609375"
     inkscape:cx="256"
     inkscape:cy="256"
     inkscape:window-x="0"
     inkscape:window-y="0"
     inkscape:window-maximized="0"
     inkscape:current-layer="svg2" />
  <path
     d="M 160.504,512.00 C 126.381,440.996 144.553,400.311 170.779,361.978 C 199.499,320.00 206.901,278.445 206.901,278.445 C 206.901,278.445 229.478,307.795 220.447,353.699 C 260.333,309.299 267.859,238.559 261.838,211.467 C 351.995,274.473 390.526,410.895 338.599,512.00 C 614.785,355.734 407.298,121.914 371.176,95.575 C 383.217,121.913 385.50,166.50 361.176,188.138 C 320.00,32.00 218.19,0.00 218.19,0.00 C 230.231,80.522 174.542,168.572 120.842,234.365 C 118.955,202.257 116.951,180.101 100.067,149.375 C 96.277,207.703 51.701,255.249 39.63,313.689 C 23.279,392.832 51.878,450.779 160.504,512.00 Z"
     id="path67" />
</svg>
