<?xml version="1.0" encoding="UTF-8" standalone="no"?>
<!-- Generator: IcoMoon.io -->

<svg
   xmlns:dc="http://purl.org/dc/elements/1.1/"
   xmlns:cc="http://creativecommons.org/ns#"
   xmlns:rdf="http://www.w3.org/1999/02/22-rdf-syntax-ns#"
   xmlns:svg="http://www.w3.org/2000/svg"
   xmlns="http://www.w3.org/2000/svg"
   xmlns:sodipodi="http://sodipodi.sourceforge.net/DTD/sodipodi-0.dtd"
   xmlns:inkscape="http://www.inkscape.org/namespaces/inkscape"
   width="512"
   height="512"
   viewBox="0 0 512 512"
   fill="#000000"
   id="svg2"
   version="1.1"
   inkscape:version="0.48.2 r9819"
   sodipodi:docname="feed4.svg">
  <metadata
     id="metadata73">
    <rdf:RDF>
      <cc:Work
         rdf:about="">
        <dc:format>image/svg+xml</dc:format>
        <dc:type
           rdf:resource="http://purl.org/dc/dcmitype/StillImage" />
      </cc:Work>
    </rdf:RDF>
  </metadata>
  <defs
     id="defs71" />
  <sodipodi:namedview
     pagecolor="#ffffff"
     bordercolor="#666666"
     borderopacity="1"
     objecttolerance="10"
     gridtolerance="10"
     guidetolerance="10"
     inkscape:pageopacity="0"
     inkscape:pageshadow="2"
     inkscape:window-width="640"
     inkscape:window-height="480"
     id="namedview69"
     showgrid="false"
     inkscape:zoom="0.4609375"
     inkscape:cx="256"
     inkscape:cy="256"
     inkscape:window-x="0"
     inkscape:window-y="0"
     inkscape:window-maximized="0"
     inkscape:current-layer="svg2" />
  <path
     d="M 256.00,0.00C 114.615,0.00,0.00,114.615,0.00,256.00s 114.615,256.00, 256.00,256.00s 256.00-114.615, 256.00-256.00S 397.385,0.00, 256.00,0.00z M 160.00,384.00 c-17.673,0.00-32.00-14.327-32.00-32.00s 14.327-32.00, 32.00-32.00s 32.00,14.327, 32.00,32.00S 177.673,384.00, 160.00,384.00z M 248.00,384.00c0.00-66.168-53.832-120.00-120.00-120.00l0.00-48.00 c 92.636,0.00, 168.00,75.364, 168.00,168.00L 248.00,384.00 z M 344.00,384.00c0.00-57.695-22.468-111.938-63.265-152.735C 239.938,190.468, 185.696,168.00, 128.00,168.00l0.00-48.00 c 70.517,0.00, 136.813,27.461, 186.677,77.324C 364.539,247.187, 392.00,313.483, 392.00,384.00L 344.00,384.00 z"
     id="path67" />
</svg>
