<?xml version="1.0" encoding="UTF-8" standalone="no"?>
<!-- Generator: IcoMoon.io -->

<svg
   xmlns:dc="http://purl.org/dc/elements/1.1/"
   xmlns:cc="http://creativecommons.org/ns#"
   xmlns:rdf="http://www.w3.org/1999/02/22-rdf-syntax-ns#"
   xmlns:svg="http://www.w3.org/2000/svg"
   xmlns="http://www.w3.org/2000/svg"
   xmlns:sodipodi="http://sodipodi.sourceforge.net/DTD/sodipodi-0.dtd"
   xmlns:inkscape="http://www.inkscape.org/namespaces/inkscape"
   width="512"
   height="512"
   viewBox="0 0 512 512"
   fill="#000000"
   id="svg2"
   version="1.1"
   inkscape:version="0.48.2 r9819"
   sodipodi:docname="file-css.svg">
  <metadata
     id="metadata73">
    <rdf:RDF>
      <cc:Work
         rdf:about="">
        <dc:format>image/svg+xml</dc:format>
        <dc:type
           rdf:resource="http://purl.org/dc/dcmitype/StillImage" />
      </cc:Work>
    </rdf:RDF>
  </metadata>
  <defs
     id="defs71" />
  <sodipodi:namedview
     pagecolor="#ffffff"
     bordercolor="#666666"
     borderopacity="1"
     objecttolerance="10"
     gridtolerance="10"
     guidetolerance="10"
     inkscape:pageopacity="0"
     inkscape:pageshadow="2"
     inkscape:window-width="640"
     inkscape:window-height="480"
     id="namedview69"
     showgrid="false"
     inkscape:zoom="0.4609375"
     inkscape:cx="256"
     inkscape:cy="256"
     inkscape:window-x="0"
     inkscape:window-y="0"
     inkscape:window-maximized="0"
     inkscape:current-layer="svg2" />
  <path
     d="M 192.00,305.723L 192.00,248.61 c0.00-7.564, 3.348-14.718, 9.427-20.143c 6.08-5.424, 14.096-8.413, 22.573-8.413l0.00-28.555 c-35.20,0.00-64.00,25.70-64.00,57.111l0.00,42.833 c0.00,7.886-7.164,14.279-16.00,14.279l-16.00,0.00 l0.00,28.555 l 16.00,0.00 c 8.837,0.00, 16.00,6.395, 16.00,14.279l0.00,42.838 c0.00,31.407, 28.80,57.107, 64.00,57.107l0.00-28.556 c-8.477,0.00-16.494-2.988-22.573-8.413c-6.079-5.426-9.427-12.577-9.427-20.139l0.00-57.117 c0.00-7.885-7.164-14.277-16.00-14.277C 184.837,320.00, 192.00,313.605, 192.00,305.723zM 320.00,334.277l0.00,57.117 c0.00,7.562-3.348,14.713-9.427,20.139c-6.079,5.425-14.095,8.413-22.573,8.413l0.00,28.556 c 35.201,0.00, 64.00-25.70, 64.00-57.107l0.00-42.838 c0.00-7.886, 7.164-14.279, 16.00-14.279l 16.00,0.00 l0.00-28.555 l-16.00,0.00 c-8.836,0.00-16.00-6.395-16.00-14.279L 352.00,248.61 c0.00-31.412-28.799-57.111-64.00-57.111l0.00,28.555 c 8.479,0.00, 16.494,2.989, 22.573,8.415c 6.08,5.424, 9.427,12.578, 9.427,20.142l0.00,57.114 c0.00,7.883, 7.164,14.276, 16.00,14.276C 327.164,320.00, 320.00,326.395, 320.00,334.277zM 451.716,99.715l-71.432-71.431C 364.728,12.728, 334.00,0.00, 312.00,0.00L 72.00,0.00 C 50.00,0.00, 32.00,18.00, 32.00,40.00l0.00,432.00 c0.00,22.00, 18.00,40.00, 40.00,40.00l 368.00,0.00 c 22.00,0.00, 40.00-18.00, 40.00-40.00L 480.00,168.00 C 480.00,146.00, 467.272,115.271, 451.716,99.715z M 429.089,122.343c 1.565,1.565, 3.125,3.487, 4.64,5.657L 352.00,128.00 L 352.00,46.272 c 2.17,1.515, 4.092,3.075, 5.657,4.64L 429.089,122.343z M 448.00,472.00c0.00,4.336-3.664,8.00-8.00,8.00L 72.00,480.00 c-4.336,0.00-8.00-3.664-8.00-8.00L 64.00,40.00 c0.00-4.336, 3.664-8.00, 8.00-8.00l 240.00,0.00 c 2.416,0.00, 5.127,0.305, 8.00,0.852L 320.00,160.00 l 127.148,0.00 c 0.547,2.873, 0.852,5.583, 0.852,8.00L 448.00,472.00 z"
     id="path67" />
</svg>
