<?xml version="1.0" encoding="UTF-8" standalone="no"?>
<!-- Generator: IcoMoon.io -->

<svg
   xmlns:dc="http://purl.org/dc/elements/1.1/"
   xmlns:cc="http://creativecommons.org/ns#"
   xmlns:rdf="http://www.w3.org/1999/02/22-rdf-syntax-ns#"
   xmlns:svg="http://www.w3.org/2000/svg"
   xmlns="http://www.w3.org/2000/svg"
   xmlns:sodipodi="http://sodipodi.sourceforge.net/DTD/sodipodi-0.dtd"
   xmlns:inkscape="http://www.inkscape.org/namespaces/inkscape"
   width="512"
   height="512"
   viewBox="0 0 512 512"
   fill="#000000"
   id="svg2"
   version="1.1"
   inkscape:version="0.48.2 r9819"
   sodipodi:docname="file-pdf.svg">
  <metadata
     id="metadata73">
    <rdf:RDF>
      <cc:Work
         rdf:about="">
        <dc:format>image/svg+xml</dc:format>
        <dc:type
           rdf:resource="http://purl.org/dc/dcmitype/StillImage" />
      </cc:Work>
    </rdf:RDF>
  </metadata>
  <defs
     id="defs71" />
  <sodipodi:namedview
     pagecolor="#ffffff"
     bordercolor="#666666"
     borderopacity="1"
     objecttolerance="10"
     gridtolerance="10"
     guidetolerance="10"
     inkscape:pageopacity="0"
     inkscape:pageshadow="2"
     inkscape:window-width="640"
     inkscape:window-height="480"
     id="namedview69"
     showgrid="false"
     inkscape:zoom="0.4609375"
     inkscape:cx="256"
     inkscape:cy="256"
     inkscape:window-x="0"
     inkscape:window-y="0"
     inkscape:window-maximized="0"
     inkscape:current-layer="svg2" />
  <path
     d="M 421.006,294.74c-6.824-6.723-21.957-10.283-44.986-10.586c-15.589-0.172-34.351,1.201-54.085,3.964 c-8.837-5.099-17.946-10.647-25.094-17.329c-19.231-17.958-35.284-42.886-45.288-70.297c 0.652-2.56, 1.207-4.81, 1.724-7.106 c0.00,0.00, 10.833-61.53, 7.965-82.333c-0.395-2.853-0.637-3.681-1.404-5.898l-0.941-2.417c-2.948-6.796-8.724-13.997-17.783-13.604 l-5.312-0.169l-0.146-0.003c-10.10,0.00-18.332,5.166-20.493,12.887c-6.569,24.217, 0.209,60.446, 12.491,107.369l-3.144,7.643 c-8.794,21.438-19.815,43.03-29.539,62.079l-1.264,2.476c-10.23,20.019-19.512,37.013-27.927,51.411l-8.688,4.594 c-0.632,0.334-15.522,8.209-19.014,10.322c-29.628,17.691-49.261,37.77-52.518,53.708c-1.036,5.085-0.265,11.593, 5.007,14.607 l 8.403,4.229c 3.645,1.826, 7.489,2.751, 11.427,2.751c 21.102,0.00, 45.60-26.286, 79.348-85.183 c 38.965-12.684, 83.327-23.228, 122.207-29.045c 29.629,16.684, 66.071,28.273, 89.071,28.273c 4.084,0.00, 7.606-0.389, 10.466-1.148 c 4.411-1.168, 8.129-3.683, 10.396-7.096c 4.463-6.716, 5.367-15.966, 4.156-25.438C 425.68,300.589, 423.435,297.113, 421.006,294.74z M 105.823,407.024c 3.848-10.521, 19.08-31.322, 41.602-49.778c 1.416-1.148, 4.904-4.416, 8.097-7.451 C 131.971,387.357, 116.199,402.328, 105.823,407.024z M 239.217,99.843c 6.783,0.00, 10.642,17.097, 10.962,33.127 c 0.32,16.03-3.429,27.28-8.079,35.604c-3.851-12.324-5.713-31.75-5.713-44.452C 236.387,124.122, 236.104,99.843, 239.217,99.843z M 199.426,318.747c 4.725-8.458, 9.641-17.378, 14.665-26.839c 12.246-23.158, 19.979-41.278, 25.739-56.173 c 11.455,20.842, 25.722,38.56, 42.493,52.756c 2.092,1.771, 4.309,3.551, 6.637,5.325C 254.855,300.564, 225.378,308.771, 199.426,318.747z M 414.452,316.826c-2.077,1.299-8.027,2.05-11.854,2.05c-12.353,0.00-27.636-5.647-49.063-14.833 c 8.234-0.609, 15.781-0.919, 22.55-0.919c 12.391,0.00, 16.06-0.054, 28.175,3.036S 416.529,315.527, 414.452,316.826zM 451.716,99.715l-71.432-71.431C 364.728,12.728, 334.00,0.00, 312.00,0.00L 72.00,0.00 C 50.00,0.00, 32.00,18.00, 32.00,40.00l0.00,432.00 c0.00,22.00, 18.00,40.00, 40.00,40.00l 368.00,0.00 c 22.00,0.00, 40.00-18.00, 40.00-40.00L 480.00,168.00 C 480.00,146.00, 467.272,115.271, 451.716,99.715z M 429.089,122.343c 1.565,1.565, 3.125,3.487, 4.64,5.657L 352.00,128.00 L 352.00,46.272 c 2.17,1.515, 4.092,3.075, 5.657,4.64L 429.089,122.343z M 448.00,472.00c0.00,4.336-3.664,8.00-8.00,8.00L 72.00,480.00 c-4.336,0.00-8.00-3.664-8.00-8.00L 64.00,40.00 c0.00-4.336, 3.664-8.00, 8.00-8.00l 240.00,0.00 c 2.416,0.00, 5.127,0.305, 8.00,0.852L 320.00,160.00 l 127.148,0.00 c 0.547,2.873, 0.852,5.583, 0.852,8.00L 448.00,472.00 z"
     id="path67" />
</svg>
