<?xml version="1.0" encoding="UTF-8" standalone="no"?>
<!-- Generator: IcoMoon.io -->

<svg
   xmlns:dc="http://purl.org/dc/elements/1.1/"
   xmlns:cc="http://creativecommons.org/ns#"
   xmlns:rdf="http://www.w3.org/1999/02/22-rdf-syntax-ns#"
   xmlns:svg="http://www.w3.org/2000/svg"
   xmlns="http://www.w3.org/2000/svg"
   xmlns:sodipodi="http://sodipodi.sourceforge.net/DTD/sodipodi-0.dtd"
   xmlns:inkscape="http://www.inkscape.org/namespaces/inkscape"
   width="512"
   height="512"
   viewBox="0 0 512 512"
   fill="#000000"
   id="svg2"
   version="1.1"
   inkscape:version="0.48.2 r9819"
   sodipodi:docname="facebook3.svg">
  <metadata
     id="metadata73">
    <rdf:RDF>
      <cc:Work
         rdf:about="">
        <dc:format>image/svg+xml</dc:format>
        <dc:type
           rdf:resource="http://purl.org/dc/dcmitype/StillImage" />
      </cc:Work>
    </rdf:RDF>
  </metadata>
  <defs
     id="defs71" />
  <sodipodi:namedview
     pagecolor="#ffffff"
     bordercolor="#666666"
     borderopacity="1"
     objecttolerance="10"
     gridtolerance="10"
     guidetolerance="10"
     inkscape:pageopacity="0"
     inkscape:pageshadow="2"
     inkscape:window-width="640"
     inkscape:window-height="480"
     id="namedview69"
     showgrid="false"
     inkscape:zoom="0.4609375"
     inkscape:cx="256"
     inkscape:cy="256"
     inkscape:window-x="0"
     inkscape:window-y="0"
     inkscape:window-maximized="0"
     inkscape:current-layer="svg2" />
  <path
     d="M 256.00,0.00 C 397.385,0.00 512.00,114.615 512.00,256.00 C 512.00,386.547 414.281,494.265 288.00,510.013 L 288.00,320.00 L 376.00,320.00 L 384.00,256.00 L 288.00,256.00 L 288.00,224.00 C 288.00,206.327 302.327,192.00 320.00,192.00 L 384.00,192.00 L 384.00,128.00 L 320.00,128.00 C 266.98,128.00 224.00,170.98 224.00,224.00 L 224.00,256.00 L 176.00,256.00 L 176.00,320.00 L 224.00,320.00 L 224.00,446.50 L 224.00,503.935 L 224.00,510.013 C 97.719,494.265 0.00,386.547 0.00,256.00 C 0.00,114.615 114.615,0.00 256.00,0.00 Z"
     id="path67" />
</svg>
