<?xml version="1.0" encoding="UTF-8" standalone="no"?>
<!-- Generator: IcoMoon.io -->

<svg
   xmlns:dc="http://purl.org/dc/elements/1.1/"
   xmlns:cc="http://creativecommons.org/ns#"
   xmlns:rdf="http://www.w3.org/1999/02/22-rdf-syntax-ns#"
   xmlns:svg="http://www.w3.org/2000/svg"
   xmlns="http://www.w3.org/2000/svg"
   xmlns:sodipodi="http://sodipodi.sourceforge.net/DTD/sodipodi-0.dtd"
   xmlns:inkscape="http://www.inkscape.org/namespaces/inkscape"
   width="512"
   height="512"
   viewBox="0 0 512 512"
   fill="#000000"
   id="svg2"
   version="1.1"
   inkscape:version="0.48.2 r9819"
   sodipodi:docname="im_font.svg">
  <metadata
     id="metadata73">
    <rdf:RDF>
      <cc:Work
         rdf:about="">
        <dc:format>image/svg+xml</dc:format>
        <dc:type
           rdf:resource="http://purl.org/dc/dcmitype/StillImage" />
      </cc:Work>
    </rdf:RDF>
  </metadata>
  <defs
     id="defs71" />
  <sodipodi:namedview
     pagecolor="#ffffff"
     bordercolor="#666666"
     borderopacity="1"
     objecttolerance="10"
     gridtolerance="10"
     guidetolerance="10"
     inkscape:pageopacity="0"
     inkscape:pageshadow="2"
     inkscape:window-width="640"
     inkscape:window-height="480"
     id="namedview69"
     showgrid="false"
     inkscape:zoom="0.4609375"
     inkscape:cx="256"
     inkscape:cy="256"
     inkscape:window-x="0"
     inkscape:window-y="0"
     inkscape:window-maximized="0"
     inkscape:current-layer="svg2" />
  <path
     d="M 399.798,8.104C 354.535,8.104, 325.488,0.00, 278.874,0.00C 128.232,0.00, 57.978,85.792, 57.978,172.936 c0.00,51.339, 24.32,68.229, 72.282,68.229c-3.379-7.432-9.457-15.54-9.457-52.017c0.00-102.005, 38.503-131.729, 87.818-133.755 c0.00,0.00-40.459,396.687-157.889,444.271L 50.732,512.00 l 84.359,0.00 l 73.938,0.00 l 54.013-256.00l 98.922,0.00 L 384.00,192.00L 276.546,192.00 l 25.972-123.095 c 29.723,6.078, 58.771,12.158, 83.766,12.158c 31.074,0.00, 59.447-9.457, 74.984-81.063C 442.355,6.08, 422.087,8.104, 399.798,8.104z"
     id="path67" />
</svg>
