<?xml version="1.0" encoding="UTF-8" standalone="no"?>
<!-- Generator: IcoMoon.io -->

<svg
   xmlns:dc="http://purl.org/dc/elements/1.1/"
   xmlns:cc="http://creativecommons.org/ns#"
   xmlns:rdf="http://www.w3.org/1999/02/22-rdf-syntax-ns#"
   xmlns:svg="http://www.w3.org/2000/svg"
   xmlns="http://www.w3.org/2000/svg"
   xmlns:sodipodi="http://sodipodi.sourceforge.net/DTD/sodipodi-0.dtd"
   xmlns:inkscape="http://www.inkscape.org/namespaces/inkscape"
   width="512"
   height="512"
   viewBox="0 0 512 512"
   fill="#000000"
   id="svg2"
   version="1.1"
   inkscape:version="0.48.2 r9819"
   sodipodi:docname="im_github2.svg">
  <metadata
     id="metadata73">
    <rdf:RDF>
      <cc:Work
         rdf:about="">
        <dc:format>image/svg+xml</dc:format>
        <dc:type
           rdf:resource="http://purl.org/dc/dcmitype/StillImage" />
      </cc:Work>
    </rdf:RDF>
  </metadata>
  <defs
     id="defs71" />
  <sodipodi:namedview
     pagecolor="#ffffff"
     bordercolor="#666666"
     borderopacity="1"
     objecttolerance="10"
     gridtolerance="10"
     guidetolerance="10"
     inkscape:pageopacity="0"
     inkscape:pageshadow="2"
     inkscape:window-width="640"
     inkscape:window-height="480"
     id="namedview69"
     showgrid="false"
     inkscape:zoom="0.4609375"
     inkscape:cx="256"
     inkscape:cy="256"
     inkscape:window-x="0"
     inkscape:window-y="0"
     inkscape:window-maximized="0"
     inkscape:current-layer="svg2" />
  <path
     d="M 256.00,415.946c-9.577,0.00-19.154-4.958-29.071-14.875c-3.905-3.905-3.905-10.237,0.00-14.143c 3.905-3.904, 10.237-3.904, 14.143,0.00 C 247.175,393.033, 252.058,396.00, 256.00,396.00c 3.941,0.00, 8.825-2.967, 14.929-9.071c 3.906-3.904, 10.236-3.904, 14.143,0.00 c 3.905,3.905, 3.905,10.237,0.00,14.143C 275.154,410.988, 265.577,415.946, 256.00,415.946zM 0.00,262.746 C 0.00,287.692 2.133,310.307 6.40,330.587 C 10.667,350.867 16.667,368.457 24.40,383.353 C 32.133,398.249 41.911,411.305 53.733,422.523 C 65.555,433.741 78.399,442.983 92.266,450.252 C 106.133,457.52 121.999,463.40 139.866,467.885 C 157.732,472.372 175.91,475.513 194.399,477.308 C 212.888,479.103 233.244,480.00 255.466,480.00 C 277.688,480.00 298.087,479.105 316.665,477.31 C 335.243,475.515 353.466,472.374 371.331,467.887 C 389.198,463.40 405.11,457.522 419.065,450.254 C 433.02,442.985 445.954,433.741 457.864,422.525 C 469.776,411.307 479.599,398.251 487.331,383.355 C 495.066,368.458 501.111,350.868 505.466,330.589 C 509.821,310.309 511.999,287.695 511.999,262.749 C 511.999,218.059 498.131,179.563 470.399,147.258 C 471.999,142.95 473.376,138.015 474.532,132.451 C 475.686,126.887 476.798,119.035 477.864,108.895 C 478.933,98.754 478.532,87.043 476.665,73.763 C 474.798,60.481 471.288,46.931 466.132,33.112 L 462.132,32.303 C 459.466,31.765 455.111,31.944 449.066,32.843 C 443.023,33.74 435.955,35.354 427.867,37.688 C 419.779,40.02 409.334,44.642 396.533,51.552 C 383.734,58.461 370.223,67.211 356.00,77.80 C 331.822,70.441 298.49,62.742 256.00,62.742 C 213.512,62.742 180.089,70.44 155.735,77.799 C 141.512,67.209 127.957,58.505 115.068,51.685 C 102.178,44.864 91.867,40.198 84.134,37.686 C 76.40,35.174 69.245,33.558 62.667,32.841 C 56.089,32.123 51.866,31.898 50.00,32.168 C 48.134,32.437 46.756,32.751 45.867,33.11 C 40.71,46.93 37.155,60.48 35.199,73.762 C 33.244,87.042 32.799,98.708 33.866,108.758 C 34.933,118.809 36.088,126.707 37.333,132.449 C 38.578,138.192 40.00,143.128 41.60,147.256 C 13.867,179.381 0.00,217.877 0.00,262.746 Z M 68.268,319.702 C 68.268,290.691 78.934,264.383 100.268,240.774 C 106.668,233.571 114.091,228.118 122.535,224.418 C 130.98,220.717 140.579,218.615 151.335,218.115 C 162.091,217.615 172.357,217.715 182.135,218.415 C 191.913,219.116 204.002,220.066 218.402,221.266 C 232.801,222.468 245.246,223.067 255.735,223.067 C 266.223,223.067 278.669,222.467 293.067,221.266 C 307.47,220.066 319.558,219.116 329.335,218.415 C 339.115,217.715 349.38,217.615 360.136,218.115 C 370.892,218.616 380.537,220.717 389.07,224.418 C 397.603,228.118 405.07,233.571 411.47,240.774 C 432.802,264.383 443.47,290.691 443.47,319.702 C 443.47,336.708 441.693,351.864 438.136,365.169 C 434.581,378.475 430.091,389.627 424.669,398.63 C 419.247,407.634 411.645,415.239 401.87,421.44 C 392.091,427.643 382.624,432.445 373.47,435.845 C 364.314,439.245 352.491,441.897 338.003,443.798 C 323.512,445.696 310.536,446.849 299.067,447.248 C 287.60,447.648 273.157,447.848 255.735,447.848 C 238.313,447.848 223.913,447.647 212.535,447.248 C 201.157,446.849 188.224,445.696 173.735,443.798 C 159.246,441.897 147.424,439.246 138.268,435.845 C 129.113,432.444 119.646,427.643 109.868,421.44 C 100.09,415.238 92.49,407.634 87.068,398.63 C 81.645,389.627 77.156,378.475 73.601,365.169 C 70.046,351.864 68.268,336.708 68.268,319.702 ZM 128.00,304.002A32.00,48.00 2520.00 1,0 192.00,304.002A32.00,48.00 2520.00 1,0 128.00,304.002zM 320.00,304.002A32.00,48.00 2520.00 1,0 384.00,304.002A32.00,48.00 2520.00 1,0 320.00,304.002z"
     id="path67" />
</svg>
