<?xml version="1.0" encoding="UTF-8" standalone="no"?>
<!-- Generator: IcoMoon.io -->

<svg
   xmlns:dc="http://purl.org/dc/elements/1.1/"
   xmlns:cc="http://creativecommons.org/ns#"
   xmlns:rdf="http://www.w3.org/1999/02/22-rdf-syntax-ns#"
   xmlns:svg="http://www.w3.org/2000/svg"
   xmlns="http://www.w3.org/2000/svg"
   xmlns:sodipodi="http://sodipodi.sourceforge.net/DTD/sodipodi-0.dtd"
   xmlns:inkscape="http://www.inkscape.org/namespaces/inkscape"
   width="512"
   height="512"
   viewBox="0 0 512 512"
   fill="#000000"
   id="svg2"
   version="1.1"
   inkscape:version="0.48.2 r9819"
   sodipodi:docname="im_google-plus2.svg">
  <metadata
     id="metadata73">
    <rdf:RDF>
      <cc:Work
         rdf:about="">
        <dc:format>image/svg+xml</dc:format>
        <dc:type
           rdf:resource="http://purl.org/dc/dcmitype/StillImage" />
      </cc:Work>
    </rdf:RDF>
  </metadata>
  <defs
     id="defs71" />
  <sodipodi:namedview
     pagecolor="#ffffff"
     bordercolor="#666666"
     borderopacity="1"
     objecttolerance="10"
     gridtolerance="10"
     guidetolerance="10"
     inkscape:pageopacity="0"
     inkscape:pageshadow="2"
     inkscape:window-width="640"
     inkscape:window-height="480"
     id="namedview69"
     showgrid="false"
     inkscape:zoom="0.4609375"
     inkscape:cx="256"
     inkscape:cy="256"
     inkscape:window-x="0"
     inkscape:window-y="0"
     inkscape:window-maximized="0"
     inkscape:current-layer="svg2" />
  <path
     d="M 426.756,0.00L 84.621,0.00 C 37.571,0.00,0.00,38.893,0.00,85.939l0.00,340.176 C0.00,474.326, 37.571,512.00, 84.621,512.00l 342.134,0.00 C 473.803,512.00, 512.00,474.326, 512.00,426.115L 512.00,85.939 C 512.00,38.893, 473.803,0.00, 426.756,0.00z M 352.00,16.00l0.00,80.00 l-80.00,0.00 L 272.00,16.00 L 352.00,16.00 z M 240.00,16.00l0.00,80.00 l-80.00,0.00 L 160.00,16.00 L 240.00,16.00 z M 16.00,96.00L 16.00,85.939 C 16.00,47.375, 46.783,16.00, 84.621,16.00L 128.00,16.00 l0.00,80.00 L 16.00,96.00 z M 384.00,320.00l-96.00,0.00 l0.00,96.00 l-64.00,0.00 l0.00-96.00 l-96.00,0.00 l0.00-64.00 l 96.00,0.00 l0.00-96.00 l 64.00,0.00 l0.00,96.00 l 96.00,0.00 L 384.00,320.00 z M 496.00,96.00L 384.00,96.00 L 384.00,16.00 l 42.756,0.00 C 464.938,16.00, 496.00,47.375, 496.00,85.939L 496.00,96.00 z"
     id="path67" />
</svg>
