<?xml version="1.0" encoding="UTF-8" standalone="no"?>
<!-- Generator: IcoMoon.io -->

<svg
   xmlns:dc="http://purl.org/dc/elements/1.1/"
   xmlns:cc="http://creativecommons.org/ns#"
   xmlns:rdf="http://www.w3.org/1999/02/22-rdf-syntax-ns#"
   xmlns:svg="http://www.w3.org/2000/svg"
   xmlns="http://www.w3.org/2000/svg"
   xmlns:sodipodi="http://sodipodi.sourceforge.net/DTD/sodipodi-0.dtd"
   xmlns:inkscape="http://www.inkscape.org/namespaces/inkscape"
   width="512"
   height="512"
   viewBox="0 0 512 512"
   fill="#000000"
   id="svg2"
   version="1.1"
   inkscape:version="0.48.2 r9819"
   sodipodi:docname="im_grin2.svg">
  <metadata
     id="metadata73">
    <rdf:RDF>
      <cc:Work
         rdf:about="">
        <dc:format>image/svg+xml</dc:format>
        <dc:type
           rdf:resource="http://purl.org/dc/dcmitype/StillImage" />
      </cc:Work>
    </rdf:RDF>
  </metadata>
  <defs
     id="defs71" />
  <sodipodi:namedview
     pagecolor="#ffffff"
     bordercolor="#666666"
     borderopacity="1"
     objecttolerance="10"
     gridtolerance="10"
     guidetolerance="10"
     inkscape:pageopacity="0"
     inkscape:pageshadow="2"
     inkscape:window-width="640"
     inkscape:window-height="480"
     id="namedview69"
     showgrid="false"
     inkscape:zoom="0.4609375"
     inkscape:cx="256"
     inkscape:cy="256"
     inkscape:window-x="0"
     inkscape:window-y="0"
     inkscape:window-maximized="0"
     inkscape:current-layer="svg2" />
  <path
     d="M 256.00,0.00C 114.615,0.00,0.00,114.615,0.00,256.00s 114.613,256.00, 256.00,256.00c 141.385,0.00, 256.00-114.615, 256.00-256.00S 397.385,0.00, 256.00,0.00z M 352.00,118.00 c 31.981,0.00, 58.00,26.019, 58.00,58.00c0.00,3.189-0.273,6.438-0.814,9.656c-0.809,4.816-4.979,8.344-9.862,8.344s-9.054-3.528-9.861-8.345 C 386.383,167.313, 370.628,159.00, 352.00,159.00s-34.383,8.313-37.462,26.655c-0.808,4.816-4.978,8.345-9.861,8.345c-0.001,0.00,0.00,0.00-0.001,0.00 c-4.883,0.00-9.053-3.528-9.861-8.344C 294.273,182.438, 294.00,179.189, 294.00,176.00C 294.00,144.019, 320.019,118.00, 352.00,118.00z M 160.00,118.00 c 31.981,0.00, 58.00,26.019, 58.00,58.00c0.00,3.189-0.274,6.438-0.814,9.656c-0.809,4.816-4.978,8.344-9.862,8.344c-4.884,0.00-9.053-3.528-9.861-8.345 C 194.383,167.313, 178.628,159.00, 160.00,159.00s-34.383,8.313-37.462,26.655c-0.808,4.816-4.978,8.345-9.861,8.345c0.00,0.00,0.00,0.00,0.00,0.00 c-4.883,0.00-9.053-3.528-9.862-8.344C 102.274,182.438, 102.00,179.189, 102.00,176.00C 102.00,144.019, 128.019,118.00, 160.00,118.00z M 96.00,288.00l 96.00,0.00 l0.00,123.923 C 136.953,397.62, 96.00,347.361, 96.00,288.00z M 224.00,416.00L 224.00,288.00 l 64.00,0.00 l0.00,128.00 L 224.00,416.00 z M 320.00,411.923L 320.00,288.00 l 96.00,0.00 C 416.00,347.361, 375.048,397.62, 320.00,411.923z"
     id="path67" />
</svg>
