<?xml version="1.0" encoding="UTF-8" standalone="no"?>
<!-- Generator: IcoMoon.io -->

<svg
   xmlns:dc="http://purl.org/dc/elements/1.1/"
   xmlns:cc="http://creativecommons.org/ns#"
   xmlns:rdf="http://www.w3.org/1999/02/22-rdf-syntax-ns#"
   xmlns:svg="http://www.w3.org/2000/svg"
   xmlns="http://www.w3.org/2000/svg"
   xmlns:sodipodi="http://sodipodi.sourceforge.net/DTD/sodipodi-0.dtd"
   xmlns:inkscape="http://www.inkscape.org/namespaces/inkscape"
   width="512"
   height="512"
   viewBox="0 0 512 512"
   fill="#000000"
   id="svg2"
   version="1.1"
   inkscape:version="0.48.2 r9819"
   sodipodi:docname="im_github.svg">
  <metadata
     id="metadata73">
    <rdf:RDF>
      <cc:Work
         rdf:about="">
        <dc:format>image/svg+xml</dc:format>
        <dc:type
           rdf:resource="http://purl.org/dc/dcmitype/StillImage" />
      </cc:Work>
    </rdf:RDF>
  </metadata>
  <defs
     id="defs71" />
  <sodipodi:namedview
     pagecolor="#ffffff"
     bordercolor="#666666"
     borderopacity="1"
     objecttolerance="10"
     gridtolerance="10"
     guidetolerance="10"
     inkscape:pageopacity="0"
     inkscape:pageshadow="2"
     inkscape:window-width="640"
     inkscape:window-height="480"
     id="namedview69"
     showgrid="false"
     inkscape:zoom="0.4609375"
     inkscape:cx="256"
     inkscape:cy="256"
     inkscape:window-x="0"
     inkscape:window-y="0"
     inkscape:window-maximized="0"
     inkscape:current-layer="svg2" />
  <path
     d="M 0.00,278.205 C 0.00,301.404 2.17,322.395 6.511,341.172 C 10.85,359.949 16.859,376.264 24.537,390.118 C 32.215,403.972 41.979,416.157 53.83,426.672 C 65.68,437.188 78.533,445.784 92.386,452.46 C 106.239,459.135 122.054,464.559 139.83,468.733 C 157.606,472.906 175.758,475.827 194.285,477.497 C 212.812,479.166 233.175,480.00 255.374,480.00 C 277.74,480.00 298.188,479.166 316.714,477.497 C 335.241,475.827 353.435,472.905 371.294,468.733 C 389.153,464.561 405.05,459.137 418.988,452.46 C 432.926,445.783 445.861,437.188 457.796,426.672 C 469.731,416.157 479.579,403.97 487.339,390.118 C 495.099,376.266 501.15,359.95 505.49,341.172 C 509.83,322.394 512.00,301.404 512.00,278.205 C 512.00,236.811 498.146,201.008 470.441,170.797 C 471.943,166.791 473.32,162.243 474.572,157.152 C 475.824,152.061 476.992,144.801 478.077,135.37 C 479.162,125.939 478.745,115.049 476.825,102.697 C 474.906,90.345 471.359,77.744 466.183,64.891 L 462.428,64.14 C 459.757,63.64 455.375,63.765 449.283,64.516 C 443.191,65.267 436.097,66.769 428.002,69.023 C 419.907,71.276 409.475,75.616 396.706,82.042 C 383.937,88.468 370.459,96.521 356.271,106.202 C 331.903,99.526 298.437,96.187 255.875,96.187 C 213.479,96.187 180.097,99.526 155.728,106.202 C 141.54,96.521 127.978,88.468 115.043,82.042 C 102.108,75.616 91.801,71.276 84.123,69.023 C 76.446,66.769 69.268,65.309 62.592,64.641 C 55.915,63.973 51.70,63.765 49.948,64.015 C 48.196,64.265 46.818,64.558 45.817,64.891 C 40.643,77.744 37.096,90.344 35.177,102.697 C 33.258,115.049 32.84,125.94 33.925,135.37 C 35.01,144.80 36.179,152.061 37.43,157.152 C 38.682,162.243 40.059,166.791 41.561,170.797 C 13.854,201.008 0.00,236.81 0.00,278.205 Z M 62.842,341.047 C 62.842,317.012 73.775,294.979 95.64,274.95 C 102.149,268.94 109.744,264.393 118.423,261.304 C 127.102,258.216 136.908,256.464 147.841,256.046 C 158.774,255.629 169.247,255.712 179.262,256.297 C 189.276,256.881 201.628,257.674 216.316,258.675 C 231.004,259.677 243.69,260.177 254.372,260.177 C 265.055,260.177 277.74,259.677 292.428,258.675 C 307.117,257.674 319.467,256.881 329.483,256.297 C 339.498,255.712 349.97,255.629 360.904,256.046 C 371.837,256.464 381.642,258.216 390.323,261.304 C 399.001,264.392 406.595,268.939 413.105,274.95 C 434.97,294.647 445.904,316.678 445.904,341.047 C 445.904,355.403 444.109,368.128 440.52,379.229 C 436.931,390.329 432.341,399.634 426.749,407.144 C 421.157,414.654 413.397,421.039 403.465,426.297 C 393.534,431.555 383.854,435.602 374.423,438.441 C 364.992,441.278 352.89,443.49 338.119,445.076 C 323.346,446.662 310.161,447.622 298.56,447.955 C 286.96,448.289 272.23,448.456 254.371,448.456 C 236.512,448.456 221.782,448.289 210.182,447.955 C 198.582,447.622 185.395,446.662 170.624,445.076 C 155.853,443.49 143.752,441.278 134.321,438.441 C 124.891,435.602 115.21,431.554 105.279,426.297 C 95.348,421.04 87.586,414.656 81.995,407.144 C 76.404,399.633 71.813,390.329 68.225,379.229 C 64.636,368.128 62.842,355.401 62.842,341.047 ZM 320.00,336.00A32.00,48.00 2520.00 1,0 384.00,336A32.00,48.00 2520.00 1,0 320.00,336zM 128.00,336.00A32.00,48.00 2520.00 1,0 192.00,336A32.00,48.00 2520.00 1,0 128.00,336z"
     id="path67" />
</svg>
