<?xml version="1.0" encoding="UTF-8" standalone="no"?>
<!-- Generator: IcoMoon.io -->

<svg
   xmlns:dc="http://purl.org/dc/elements/1.1/"
   xmlns:cc="http://creativecommons.org/ns#"
   xmlns:rdf="http://www.w3.org/1999/02/22-rdf-syntax-ns#"
   xmlns:svg="http://www.w3.org/2000/svg"
   xmlns="http://www.w3.org/2000/svg"
   xmlns:sodipodi="http://sodipodi.sourceforge.net/DTD/sodipodi-0.dtd"
   xmlns:inkscape="http://www.inkscape.org/namespaces/inkscape"
   width="512"
   height="512"
   viewBox="0 0 512 512"
   fill="#000000"
   id="svg2"
   version="1.1"
   inkscape:version="0.48.2 r9819"
   sodipodi:docname="im_github4.svg">
  <metadata
     id="metadata73">
    <rdf:RDF>
      <cc:Work
         rdf:about="">
        <dc:format>image/svg+xml</dc:format>
        <dc:type
           rdf:resource="http://purl.org/dc/dcmitype/StillImage" />
      </cc:Work>
    </rdf:RDF>
  </metadata>
  <defs
     id="defs71" />
  <sodipodi:namedview
     pagecolor="#ffffff"
     bordercolor="#666666"
     borderopacity="1"
     objecttolerance="10"
     gridtolerance="10"
     guidetolerance="10"
     inkscape:pageopacity="0"
     inkscape:pageshadow="2"
     inkscape:window-width="640"
     inkscape:window-height="480"
     id="namedview69"
     showgrid="false"
     inkscape:zoom="0.4609375"
     inkscape:cx="256"
     inkscape:cy="256"
     inkscape:window-x="0"
     inkscape:window-y="0"
     inkscape:window-maximized="0"
     inkscape:current-layer="svg2" />
  <path
     d="M 117.639,124.36c-25.396,0.00-47.242,8.403-65.542,25.208c-19.043,17.926-28.57,40.33-28.57,67.218 c0.00,17.926, 5.188,34.731, 15.647,50.416c 9.337,14.563, 19.09,23.903, 31.889,28.012l0.00,1.121 c-12.799,5.224-18.483,18.295-18.483,39.209 c0.00,16.062, 5.686,28.011, 18.483,35.854l0.00,1.121 c-35.327,11.573-51.496,33.047-51.496,64.415c0.00,27.267, 11.874,47.244, 35.033,59.939 C 72.895,506.959, 96.389,512.00, 124.773,512.00c 69.085,0.00, 103.703-28.941, 103.703-86.832c0.00-36.223-26.661-58.441-80.064-66.658 c-12.323-1.863-21.643-6.348-27.991-13.445c-4.854-4.854-7.271-9.709-7.271-14.563c0.00-13.816, 7.479-21.848, 22.41-24.088 c 22.779-3.357, 41.364-13.912, 55.743-31.648c 14.375-17.74, 21.565-38.559, 21.565-62.458c0.00-7.469-2.259-15.498-5.244-24.086 c 9.709-2.244, 16.525-4.297, 21.646-6.166L 229.27,124.36 c-22.527,8.964-43.495,13.442-61.421,13.442 C 152.162,128.841, 135.937,124.36, 117.639,124.36z M 123.801,403.885c 31.372,0.00, 47.052,9.521, 47.052,28.57 c0.00,20.168-14.377,30.246-43.132,30.246c-32.862,0.00-49.293-9.711-49.293-29.127C 78.427,413.779, 93.55,403.885, 123.801,403.885z M 119.88,256.00c-23.527,0.00-35.293-12.882-35.293-38.654c0.00-27.631, 11.766-41.453, 35.293-41.453c 11.201,0.00, 19.979,4.298, 26.326,12.884 c 5.229,7.845, 7.845,17.18, 7.845,28.011C 154.051,242.927, 142.658,256.00, 119.88,256.00zM 290.192,0.00c-10.828,0.00-20.07,4.107-27.727,12.324c-7.657,8.218-11.485,18.108-11.485,29.688 c0.00,11.205, 3.829,20.91, 11.485,29.129c 7.654,8.217, 16.896,12.32, 27.727,12.32c 10.455,0.00, 19.514-4.104, 27.17-12.32 c 7.656-8.219, 11.48-17.924, 11.48-29.129c0.00-11.58-3.824-21.472-11.48-29.688C 309.703,4.107, 300.647,0.00, 290.192,0.00zM 321.565,127.999l-63.303,0.00 c 0.748,7.168-0.32,18.021-0.32,35.57l0.00,174.216 c0.00,17.928, 1.068,32.387, 0.32,38.018l 63.303,0.00 c-0.75-8.188-2.697-22.334-2.697-41.379L 318.868,162.451 C 318.865,146.019, 320.815,135.167, 321.565,127.999zM 461.168,322.10c-16.436,0.00-24.541-12.514-24.541-37.533l0.00-103.32 l 24.932,0.00 c 4.48,0.00, 8.516-0.246, 13.559,0.123 c 5.043,0.374, 7.076,0.125, 9.639,0.125l0.00-53.495 l-48.129,0.00 l0.00-23.808 c0.00-8.961, 1.408-17.151, 2.527-22.271l-64.979,0.00 c 1.121,5.12, 1.014,12.938, 1.014,23.395L 375.19,128.00 l-28.16,0.00 l0.00,53.494 c 7.682-1.12, 14.545-1.678, 19.398-1.678l 8.762,0.559l0.00,0.292 l0.00,0.00l0.00,101.101 c0.00,31.371, 3.979,54.336, 11.818,68.90c 10.461,19.42, 28.811,29.129, 56.068,29.129c 19.424,0.00, 36.559-3.732, 49.357-11.205l0.00-56.016 C 482.196,318.926, 472.742,322.10, 461.168,322.10z"
     id="path67" />
</svg>
