<?xml version="1.0" encoding="UTF-8" standalone="no"?>
<!-- Generator: IcoMoon.io -->

<svg
   xmlns:dc="http://purl.org/dc/elements/1.1/"
   xmlns:cc="http://creativecommons.org/ns#"
   xmlns:rdf="http://www.w3.org/1999/02/22-rdf-syntax-ns#"
   xmlns:svg="http://www.w3.org/2000/svg"
   xmlns="http://www.w3.org/2000/svg"
   xmlns:sodipodi="http://sodipodi.sourceforge.net/DTD/sodipodi-0.dtd"
   xmlns:inkscape="http://www.inkscape.org/namespaces/inkscape"
   width="512"
   height="512"
   viewBox="0 0 512 512"
   fill="#000000"
   id="svg2"
   version="1.1"
   inkscape:version="0.48.2 r9819"
   sodipodi:docname="im_github3.svg">
  <metadata
     id="metadata73">
    <rdf:RDF>
      <cc:Work
         rdf:about="">
        <dc:format>image/svg+xml</dc:format>
        <dc:type
           rdf:resource="http://purl.org/dc/dcmitype/StillImage" />
      </cc:Work>
    </rdf:RDF>
  </metadata>
  <defs
     id="defs71" />
  <sodipodi:namedview
     pagecolor="#ffffff"
     bordercolor="#666666"
     borderopacity="1"
     objecttolerance="10"
     gridtolerance="10"
     guidetolerance="10"
     inkscape:pageopacity="0"
     inkscape:pageshadow="2"
     inkscape:window-width="640"
     inkscape:window-height="480"
     id="namedview69"
     showgrid="false"
     inkscape:zoom="0.4609375"
     inkscape:cx="256"
     inkscape:cy="256"
     inkscape:window-x="0"
     inkscape:window-y="0"
     inkscape:window-maximized="0"
     inkscape:current-layer="svg2" />
  <path
     d="M 256.00,0.00C 114.615,0.00,0.00,114.615,0.00,256.00s 114.615,256.00, 256.00,256.00s 256.00-114.615, 256.00-256.00S 397.385,0.00, 256.00,0.00z M 408.028,408.028 c-19.759,19.758-42.756,35.266-68.354,46.093c-6.503,2.75-13.107,5.164-19.80,7.246L 319.874,423.00 c0.00-20.167-6.917-35.00-20.75-44.50 c 8.667-0.833, 16.625-2.00, 23.875-3.50s 14.917-3.667, 23.00-6.50s 15.333-6.208, 21.75-10.125s 12.583-9.00, 18.50-15.25s 10.875-13.333, 14.875-21.25 s 7.167-17.417, 9.50-28.50s 3.50-23.292, 3.50-36.625c0.00-25.833-8.417-47.833-25.25-66.00c 7.667-20.00, 6.833-41.75-2.50-65.25l-6.25-0.75 c-4.333-0.50-12.125,1.333-23.375,5.50s-23.875,11.00-37.875,20.50c-19.833-5.50-40.417-8.25-61.75-8.25c-21.50,0.00-42.00,2.75-61.50,8.25 c-8.833-6.00-17.208-10.958-25.125-14.875c-7.917-3.917-14.25-6.583-19.00-8.00s-9.167-2.292-13.25-2.625s-6.708-0.417-7.875-0.25 s-2.00,0.333-2.50,0.50c-9.333,23.667-10.167,45.417-2.50,65.25c-16.833,18.167-25.25,40.167-25.25,66.00c0.00,13.333, 1.167,25.542, 3.50,36.625 s 5.50,20.583, 9.50,28.50s 8.958,15.00, 14.875,21.25s 12.083,11.333, 18.50,15.25s 13.667,7.292, 21.75,10.125s 15.75,5.00, 23.00,6.50 s 15.208,2.667, 23.875,3.50c-13.667,9.333-20.50,24.167-20.50,44.50l0.00,39.115 c-7.549-2.247-14.99-4.902-22.30-7.994 c-25.597-10.827-48.594-26.335-68.353-46.093c-19.758-19.759-35.267-42.756-46.093-68.354C 46.679,313.195, 41.00,285.043, 41.00,256.00 s 5.679-57.195, 16.879-83.675c 10.827-25.597, 26.335-48.594, 46.093-68.353s 42.756-35.267, 68.353-46.093 C 198.805,46.679, 226.957,41.00, 256.00,41.00s 57.195,5.679, 83.675,16.879c 25.598,10.827, 48.595,26.335, 68.354,46.093 c 19.758,19.758, 35.266,42.756, 46.093,68.353C 465.321,198.805, 471.00,226.957, 471.00,256.00s-5.679,57.195-16.879,83.675 C 443.294,365.272, 427.786,388.27, 408.028,408.028z"
     id="path67" />
</svg>
