<?xml version="1.0" encoding="UTF-8" standalone="no"?>
<!-- Generator: IcoMoon.io -->

<svg
   xmlns:dc="http://purl.org/dc/elements/1.1/"
   xmlns:cc="http://creativecommons.org/ns#"
   xmlns:rdf="http://www.w3.org/1999/02/22-rdf-syntax-ns#"
   xmlns:svg="http://www.w3.org/2000/svg"
   xmlns="http://www.w3.org/2000/svg"
   xmlns:sodipodi="http://sodipodi.sourceforge.net/DTD/sodipodi-0.dtd"
   xmlns:inkscape="http://www.inkscape.org/namespaces/inkscape"
   width="512"
   height="512"
   viewBox="0 0 512 512"
   fill="#000000"
   id="svg2"
   version="1.1"
   inkscape:version="0.48.2 r9819"
   sodipodi:docname="im_grin.svg">
  <metadata
     id="metadata73">
    <rdf:RDF>
      <cc:Work
         rdf:about="">
        <dc:format>image/svg+xml</dc:format>
        <dc:type
           rdf:resource="http://purl.org/dc/dcmitype/StillImage" />
      </cc:Work>
    </rdf:RDF>
  </metadata>
  <defs
     id="defs71" />
  <sodipodi:namedview
     pagecolor="#ffffff"
     bordercolor="#666666"
     borderopacity="1"
     objecttolerance="10"
     gridtolerance="10"
     guidetolerance="10"
     inkscape:pageopacity="0"
     inkscape:pageshadow="2"
     inkscape:window-width="640"
     inkscape:window-height="480"
     id="namedview69"
     showgrid="false"
     inkscape:zoom="0.4609375"
     inkscape:cx="256"
     inkscape:cy="256"
     inkscape:window-x="0"
     inkscape:window-y="0"
     inkscape:window-maximized="0"
     inkscape:current-layer="svg2" />
  <path
     d="M 256.00,512.00c 141.385,0.00, 256.00-114.615, 256.00-256.00S 397.385,0.00, 256.00,0.00S0.00,114.615,0.00,256.00S 114.615,512.00, 256.00,512.00z M 256.00,48.00 c 114.875,0.00, 208.00,93.125, 208.00,208.00s-93.125,208.00-208.00,208.00S 48.00,370.875, 48.00,256.00S 141.125,48.00, 256.00,48.00zM 96.00,256.00l0.00,32.00 c0.00,70.40, 57.60,128.00, 128.00,128.00l 64.00,0.00 c 70.40,0.00, 128.00-57.60, 128.00-128.00l0.00-32.00 L 96.00,256.00 z M 192.00,378.494 c-13.269-4.729-25.462-12.411-35.772-22.723C 138.025,337.57, 128.00,313.501, 128.00,288.00l 64.00,0.00 L 192.00,378.494 z M 288.00,384.00l-64.00,0.00 l0.00-96.00 l 64.00,0.00 L 288.00,384.00 z M 355.772,355.771c-10.312,10.312-22.505,17.994-35.772,22.723L 320.00,288.00 l 64.00,0.00 C 384.00,313.501, 373.976,337.57, 355.772,355.771z M 112.676,192.00 C 112.677,192.00, 112.676,192.00, 112.676,192.00c 4.884,0.00, 9.054-3.528, 9.862-8.345C 125.617,165.313, 141.372,152.00, 160.00,152.00 s 34.383,13.313, 37.462,31.655c 0.808,4.816, 4.978,8.345, 9.861,8.345c 4.884,0.00, 9.054-3.528, 9.862-8.344 c 0.541-3.218, 0.814-6.467, 0.814-9.656c0.00-31.981-26.019-58.00-58.00-58.00s-58.00,26.019-58.00,58.00c0.00,3.189, 0.274,6.438, 0.814,9.656 C 103.623,188.472, 107.793,192.00, 112.676,192.00z M 304.676,192.00C 304.677,192.00, 304.676,192.00, 304.676,192.00c 4.885,0.00, 9.056-3.528, 9.862-8.345 C 317.617,165.313, 333.372,152.00, 352.00,152.00s 34.383,13.313, 37.462,31.655c 0.808,4.816, 4.979,8.345, 9.861,8.345s 9.054-3.528, 9.861-8.344 c 0.541-3.218, 0.814-6.467, 0.814-9.656c0.00-31.981-26.019-58.00-58.00-58.00s-58.00,26.019-58.00,58.00c0.00,3.189, 0.272,6.438, 0.813,9.656 C 295.623,188.472, 299.793,192.00, 304.676,192.00z"
     id="path67" />
</svg>
