<?xml version="1.0" encoding="UTF-8" standalone="no"?>
<!-- Generator: IcoMoon.io -->

<svg
   xmlns:dc="http://purl.org/dc/elements/1.1/"
   xmlns:cc="http://creativecommons.org/ns#"
   xmlns:rdf="http://www.w3.org/1999/02/22-rdf-syntax-ns#"
   xmlns:svg="http://www.w3.org/2000/svg"
   xmlns="http://www.w3.org/2000/svg"
   xmlns:sodipodi="http://sodipodi.sourceforge.net/DTD/sodipodi-0.dtd"
   xmlns:inkscape="http://www.inkscape.org/namespaces/inkscape"
   width="512"
   height="512"
   viewBox="0 0 512 512"
   fill="#000000"
   id="svg2"
   version="1.1"
   inkscape:version="0.48.2 r9819"
   sodipodi:docname="im_html52.svg">
  <metadata
     id="metadata73">
    <rdf:RDF>
      <cc:Work
         rdf:about="">
        <dc:format>image/svg+xml</dc:format>
        <dc:type
           rdf:resource="http://purl.org/dc/dcmitype/StillImage" />
      </cc:Work>
    </rdf:RDF>
  </metadata>
  <defs
     id="defs71" />
  <sodipodi:namedview
     pagecolor="#ffffff"
     bordercolor="#666666"
     borderopacity="1"
     objecttolerance="10"
     gridtolerance="10"
     guidetolerance="10"
     inkscape:pageopacity="0"
     inkscape:pageshadow="2"
     inkscape:window-width="640"
     inkscape:window-height="480"
     id="namedview69"
     showgrid="false"
     inkscape:zoom="0.4609375"
     inkscape:cx="256"
     inkscape:cy="256"
     inkscape:window-x="0"
     inkscape:window-y="0"
     inkscape:window-maximized="0"
     inkscape:current-layer="svg2" />
  <path
     d="M 30.269,0.00l 41.072,460.815L 255.719,512.00l 184.862-51.262L 481.731,0.00L 30.269,0.00 z M 405.381,431.412L 256.768,472.60l0.00,0.233 l-0.388-0.117l-0.391,0.117L 255.989,472.60 l-148.611-41.188L 72.257,37.669l 368.248,0.00 L 405.381,431.412zM 325.377,265.102L 318.842,338.378L 255.874,355.374L 255.737,355.413L 192.806,338.455L 188.781,293.338L 132.036,293.338L 139.951,382.094L 255.737,414.221L 255.797,414.221L 255.874,414.221L 255.989,414.182L 371.66,382.094L 387.18,208.588L 181.197,208.588L 176.046,150.714L 392.117,150.714L 392.313,150.714L 397.369,94.201L 114.26,94.201L 129.509,265.102 z"
     id="path67" />
</svg>
