<?xml version="1.0" encoding="UTF-8" standalone="no"?>
<!-- Generator: IcoMoon.io -->

<svg
   xmlns:dc="http://purl.org/dc/elements/1.1/"
   xmlns:cc="http://creativecommons.org/ns#"
   xmlns:rdf="http://www.w3.org/1999/02/22-rdf-syntax-ns#"
   xmlns:svg="http://www.w3.org/2000/svg"
   xmlns="http://www.w3.org/2000/svg"
   xmlns:sodipodi="http://sodipodi.sourceforge.net/DTD/sodipodi-0.dtd"
   xmlns:inkscape="http://www.inkscape.org/namespaces/inkscape"
   width="512"
   height="512"
   viewBox="0 0 512 512"
   fill="#000000"
   id="svg2"
   version="1.1"
   inkscape:version="0.48.2 r9819"
   sodipodi:docname="im_history.svg">
  <metadata
     id="metadata73">
    <rdf:RDF>
      <cc:Work
         rdf:about="">
        <dc:format>image/svg+xml</dc:format>
        <dc:type
           rdf:resource="http://purl.org/dc/dcmitype/StillImage" />
      </cc:Work>
    </rdf:RDF>
  </metadata>
  <defs
     id="defs71" />
  <sodipodi:namedview
     pagecolor="#ffffff"
     bordercolor="#666666"
     borderopacity="1"
     objecttolerance="10"
     gridtolerance="10"
     guidetolerance="10"
     inkscape:pageopacity="0"
     inkscape:pageshadow="2"
     inkscape:window-width="640"
     inkscape:window-height="480"
     id="namedview69"
     showgrid="false"
     inkscape:zoom="0.4609375"
     inkscape:cx="256"
     inkscape:cy="256"
     inkscape:window-x="0"
     inkscape:window-y="0"
     inkscape:window-maximized="0"
     inkscape:current-layer="svg2" />
  <path
     d="M 288.00,32.00 C 411.712,32.00 512.00,132.288 512.00,256.00 C 512.00,379.712 411.712,480.00 288.00,480.00 L 288.00,432.00 C 335.012,432.00 379.209,413.693 412.451,380.451 C 445.693,347.209 464.00,303.012 464.00,256.00 C 464.00,208.989 445.693,164.791 412.451,131.549 C 379.209,98.307 335.012,80.00 288.00,80.00 C 240.989,80.00 196.791,98.307 163.549,131.549 C 137.979,157.118 121.258,189.172 114.896,224.00 L 208.00,224.00 L 96.00,352.00 L -16.00,224.00 L 66.285,224.00 C 81.815,115.449 175.154,32.00 288.00,32.00 ZM 384.00,224.00 L 384.00,288.00 L 256.00,288.00 L 256.00,128.00 L 320.00,128.00 L 320.00,224.00 Z"
     id="path67" />
</svg>
