<?xml version="1.0" encoding="UTF-8" standalone="no"?>
<!-- Generator: IcoMoon.io -->

<svg
   xmlns:dc="http://purl.org/dc/elements/1.1/"
   xmlns:cc="http://creativecommons.org/ns#"
   xmlns:rdf="http://www.w3.org/1999/02/22-rdf-syntax-ns#"
   xmlns:svg="http://www.w3.org/2000/svg"
   xmlns="http://www.w3.org/2000/svg"
   xmlns:sodipodi="http://sodipodi.sourceforge.net/DTD/sodipodi-0.dtd"
   xmlns:inkscape="http://www.inkscape.org/namespaces/inkscape"
   width="512"
   height="512"
   viewBox="0 0 512 512"
   fill="#000000"
   id="svg2"
   version="1.1"
   inkscape:version="0.48.2 r9819"
   sodipodi:docname="im_hammer2.svg">
  <metadata
     id="metadata73">
    <rdf:RDF>
      <cc:Work
         rdf:about="">
        <dc:format>image/svg+xml</dc:format>
        <dc:type
           rdf:resource="http://purl.org/dc/dcmitype/StillImage" />
      </cc:Work>
    </rdf:RDF>
  </metadata>
  <defs
     id="defs71" />
  <sodipodi:namedview
     pagecolor="#ffffff"
     bordercolor="#666666"
     borderopacity="1"
     objecttolerance="10"
     gridtolerance="10"
     guidetolerance="10"
     inkscape:pageopacity="0"
     inkscape:pageshadow="2"
     inkscape:window-width="640"
     inkscape:window-height="480"
     id="namedview69"
     showgrid="false"
     inkscape:zoom="0.4609375"
     inkscape:cx="256"
     inkscape:cy="256"
     inkscape:window-x="0"
     inkscape:window-y="0"
     inkscape:window-maximized="0"
     inkscape:current-layer="svg2" />
  <path
     d="M 505.087,457.875L 230.77,208.146l 12.767-12.799c 10.447-10.477, 16.094-24.015, 16.959-37.805 c 0.501-0.225, 1.001-0.456, 1.479-0.721l 51.495-32.201c 6.967-8.196, 6.458-21.134-1.142-28.751L 222.768,6.065 c-7.595-7.617-20.499-8.131-28.672-1.142l-32.118,51.634c-0.263,0.483-0.495,0.983-0.72,1.487 c-13.751,0.868-27.25,6.528-37.699,17.003l-48.714,48.851c-10.449,10.478-16.092,24.013-16.959,37.802 c-0.502,0.225-1.002,0.458-1.482,0.723L 4.911,194.626c-6.971,8.195-6.458,21.132, 1.138,28.748l 89.56,89.802 c 7.597,7.619, 20.498,8.131, 28.675,1.143l 32.114-51.635c 0.264-0.479, 0.494-0.98, 0.721-1.483c 13.751-0.869, 27.252-6.525, 37.699-17.002 l 14.146-14.186l 249.061,275.057c 7.218,7.972, 18.35,9.259, 24.737,2.856l 25.178-25.244 C 514.322,476.278, 513.038,465.116, 505.087,457.875z"
     id="path67" />
</svg>
