<?xml version="1.0" encoding="UTF-8" standalone="no"?>
<!-- Generator: IcoMoon.io -->

<svg
   xmlns:dc="http://purl.org/dc/elements/1.1/"
   xmlns:cc="http://creativecommons.org/ns#"
   xmlns:rdf="http://www.w3.org/1999/02/22-rdf-syntax-ns#"
   xmlns:svg="http://www.w3.org/2000/svg"
   xmlns="http://www.w3.org/2000/svg"
   xmlns:sodipodi="http://sodipodi.sourceforge.net/DTD/sodipodi-0.dtd"
   xmlns:inkscape="http://www.inkscape.org/namespaces/inkscape"
   width="512"
   height="512"
   viewBox="0 0 512 512"
   fill="#000000"
   id="svg2"
   version="1.1"
   inkscape:version="0.48.2 r9819"
   sodipodi:docname="im_headphones.svg">
  <metadata
     id="metadata73">
    <rdf:RDF>
      <cc:Work
         rdf:about="">
        <dc:format>image/svg+xml</dc:format>
        <dc:type
           rdf:resource="http://purl.org/dc/dcmitype/StillImage" />
      </cc:Work>
    </rdf:RDF>
  </metadata>
  <defs
     id="defs71" />
  <sodipodi:namedview
     pagecolor="#ffffff"
     bordercolor="#666666"
     borderopacity="1"
     objecttolerance="10"
     gridtolerance="10"
     guidetolerance="10"
     inkscape:pageopacity="0"
     inkscape:pageshadow="2"
     inkscape:window-width="640"
     inkscape:window-height="480"
     id="namedview69"
     showgrid="false"
     inkscape:zoom="0.4609375"
     inkscape:cx="256"
     inkscape:cy="256"
     inkscape:window-x="225"
     inkscape:window-y="225"
     inkscape:window-maximized="0"
     inkscape:current-layer="svg2" />
  <path
     d="M 96.00,289.143l0.00,221.715 c 5.227,0.748, 10.567,1.143, 16.00,1.143l 16.00,0.00 L 128.00,288.00 l-16.00,0.00 C 106.567,288.00, 101.227,288.395, 96.00,289.143zM 384.00,288.00l0.00,224.00 l 16.00,0.00 c 5.434,0.00, 10.773-0.395, 16.00-1.143L 416.00,289.143 c-5.227-0.748-10.566-1.143-16.00-1.143L 384.00,288.00 zM 512.00,256.00C 512.00,114.615, 397.385,0.00, 256.00,0.00S0.00,114.615,0.00,256.00c0.00,30.709, 5.414,60.153, 15.328,87.437C 5.592,360.038,0.00,379.363,0.00,400.00 c0.00,44.677, 26.163,83.239, 64.00,101.216L 64.00,298.784 c-10.063,4.781-19.29,11.03-27.429,18.452C 33.575,302.626, 32.00,287.497, 32.00,272.00 C 32.00,148.288, 132.288,48.00, 256.00,48.00s 224.00,100.288, 224.00,224.00c0.00,15.497-1.574,30.626-4.571,45.236c-8.14-7.422-17.365-13.671-27.429-18.452 l0.00,202.432 c 37.838-17.977, 64.00-56.539, 64.00-101.216c0.00-20.637-5.592-39.962-15.328-56.563C 506.586,316.153, 512.00,286.709, 512.00,256.00z"
     id="path67" />
</svg>
