<?xml version="1.0" encoding="UTF-8" standalone="no"?>
<!-- Generator: IcoMoon.io -->

<svg
   xmlns:dc="http://purl.org/dc/elements/1.1/"
   xmlns:cc="http://creativecommons.org/ns#"
   xmlns:rdf="http://www.w3.org/1999/02/22-rdf-syntax-ns#"
   xmlns:svg="http://www.w3.org/2000/svg"
   xmlns="http://www.w3.org/2000/svg"
   xmlns:sodipodi="http://sodipodi.sourceforge.net/DTD/sodipodi-0.dtd"
   xmlns:inkscape="http://www.inkscape.org/namespaces/inkscape"
   width="512"
   height="512"
   viewBox="0 0 512 512"
   fill="#000000"
   id="svg2"
   version="1.1"
   inkscape:version="0.48.2 r9819"
   sodipodi:docname="im_heart2.svg">
  <metadata
     id="metadata73">
    <rdf:RDF>
      <cc:Work
         rdf:about="">
        <dc:format>image/svg+xml</dc:format>
        <dc:type
           rdf:resource="http://purl.org/dc/dcmitype/StillImage" />
      </cc:Work>
    </rdf:RDF>
  </metadata>
  <defs
     id="defs71" />
  <sodipodi:namedview
     pagecolor="#ffffff"
     bordercolor="#666666"
     borderopacity="1"
     objecttolerance="10"
     gridtolerance="10"
     guidetolerance="10"
     inkscape:pageopacity="0"
     inkscape:pageshadow="2"
     inkscape:window-width="640"
     inkscape:window-height="480"
     id="namedview69"
     showgrid="false"
     inkscape:zoom="0.4609375"
     inkscape:cx="256"
     inkscape:cy="256"
     inkscape:window-x="0"
     inkscape:window-y="0"
     inkscape:window-maximized="0"
     inkscape:current-layer="svg2" />
  <path
     d="M 512.00,179.078C 512.00,97.849, 446.15,32.00, 364.922,32.00C 321.741,32.00, 282.907,50.609, 256.00,80.245C 229.093,50.609, 190.259,32.00, 147.078,32.00 C 65.849,32.00,0.00,97.849,0.00,179.078C0.00,222.259, 18.609,261.093, 48.245,288.00L 48.00,288.00 l 160.00,160.00c 16.00,16.00, 32.00,32.00, 48.00,32.00s 32.00-16.00, 48.00-32.00l 160.00-160.00l-0.245,0.00 C 493.391,261.093, 512.00,222.259, 512.00,179.078z M 420.734,240.616L 258.745,402.745c-0.839,0.839-1.766,1.766-2.745,2.74 c-0.98-0.975-1.907-1.901-2.745-2.74L 91.266,240.617C 73.683,224.653, 64.00,202.798, 64.00,179.078C 64.00,133.269, 101.269,96.00, 147.078,96.00 c 23.72,0.00, 45.575,9.683, 61.538,27.266L 256.00,175.456l 47.384-52.189C 319.348,105.683, 341.202,96.00, 364.922,96.00 C 410.731,96.00, 448.00,133.269, 448.00,179.078C 448.00,202.798, 438.316,224.653, 420.734,240.616z"
     id="path67" />
</svg>
