<?xml version="1.0" encoding="UTF-8" standalone="no"?>
<!-- Generator: IcoMoon.io -->

<svg
   xmlns:dc="http://purl.org/dc/elements/1.1/"
   xmlns:cc="http://creativecommons.org/ns#"
   xmlns:rdf="http://www.w3.org/1999/02/22-rdf-syntax-ns#"
   xmlns:svg="http://www.w3.org/2000/svg"
   xmlns="http://www.w3.org/2000/svg"
   xmlns:sodipodi="http://sodipodi.sourceforge.net/DTD/sodipodi-0.dtd"
   xmlns:inkscape="http://www.inkscape.org/namespaces/inkscape"
   width="512"
   height="512"
   viewBox="0 0 512 512"
   fill="#000000"
   id="svg2"
   version="1.1"
   inkscape:version="0.48.2 r9819"
   sodipodi:docname="im_ie.svg">
  <metadata
     id="metadata73">
    <rdf:RDF>
      <cc:Work
         rdf:about="">
        <dc:format>image/svg+xml</dc:format>
        <dc:type
           rdf:resource="http://purl.org/dc/dcmitype/StillImage" />
      </cc:Work>
    </rdf:RDF>
  </metadata>
  <defs
     id="defs71" />
  <sodipodi:namedview
     pagecolor="#ffffff"
     bordercolor="#666666"
     borderopacity="1"
     objecttolerance="10"
     gridtolerance="10"
     guidetolerance="10"
     inkscape:pageopacity="0"
     inkscape:pageshadow="2"
     inkscape:window-width="640"
     inkscape:window-height="478"
     id="namedview69"
     showgrid="false"
     inkscape:zoom="0.4609375"
     inkscape:cx="256"
     inkscape:cy="256"
     inkscape:window-x="125"
     inkscape:window-y="127"
     inkscape:window-maximized="0"
     inkscape:current-layer="svg2" />
  <path
     d="M 367.101,314.415l 118.025,0.00 c 0.91-8.185, 1.274-16.549, 1.274-25.098c0.00-40.112-10.767-77.734-29.562-110.133 c 19.44-51.654, 18.746-95.494-7.278-121.695c-24.748-24.64-91.145-20.64-166.206,12.599c-5.552-0.42-11.159-0.636-16.819-0.636 c-103.024,0.00-189.463,70.897-213.354,166.425C 85.50,194.50, 119.50,164.50, 164.92,142.653c-4.13,3.87-28.227,27.826-32.28,31.882 C 12.866,294.274-24.905,450.688, 15.737,491.337c 30.893,30.887, 86.879,25.671, 151.188-5.824 c 29.903,15.229, 63.75,23.815, 99.609,23.815c 96.567,0.00, 178.402-62.158, 208.045-148.724L 355.645,360.604 c-16.367,30.191-48.374,50.74-85.109,50.74c-36.734,0.00-68.742-20.549-85.108-50.74c-7.275-13.637-11.457-29.277-11.457-45.828l0.00-0.361 L 367.101,314.415 z M 174.151,256.402c 2.728-48.555, 43.10-87.292, 92.383-87.292c 49.283,0.00, 89.656,38.736, 92.383,87.292L 174.151,256.402 z M 448.483,81.904 c 16.763,16.94, 16.344,48.107, 2.006,87.011c-24.568-37.454-60.259-66.968-102.396-83.82 C 393.146,65.776, 429.796,63.217, 448.483,81.904z M 46.741,483.628c-21.391-21.398-14.942-66.309, 12.615-120.416 c 17.154,48.135, 50.578,88.545, 93.668,114.577C 105.309,499.448, 66.256,503.126, 46.741,483.628z"
     id="path67" />
</svg>
