<?xml version="1.0" encoding="UTF-8" standalone="no"?>
<!-- Generator: IcoMoon.io -->

<svg
   xmlns:dc="http://purl.org/dc/elements/1.1/"
   xmlns:cc="http://creativecommons.org/ns#"
   xmlns:rdf="http://www.w3.org/1999/02/22-rdf-syntax-ns#"
   xmlns:svg="http://www.w3.org/2000/svg"
   xmlns="http://www.w3.org/2000/svg"
   xmlns:sodipodi="http://sodipodi.sourceforge.net/DTD/sodipodi-0.dtd"
   xmlns:inkscape="http://www.inkscape.org/namespaces/inkscape"
   width="512"
   height="512"
   viewBox="0 0 512 512"
   fill="#000000"
   id="svg2"
   version="1.1"
   inkscape:version="0.48.2 r9819"
   sodipodi:docname="im_instagram.svg">
  <metadata
     id="metadata73">
    <rdf:RDF>
      <cc:Work
         rdf:about="">
        <dc:format>image/svg+xml</dc:format>
        <dc:type
           rdf:resource="http://purl.org/dc/dcmitype/StillImage" />
      </cc:Work>
    </rdf:RDF>
  </metadata>
  <defs
     id="defs71" />
  <sodipodi:namedview
     pagecolor="#ffffff"
     bordercolor="#666666"
     borderopacity="1"
     objecttolerance="10"
     gridtolerance="10"
     guidetolerance="10"
     inkscape:pageopacity="0"
     inkscape:pageshadow="2"
     inkscape:window-width="640"
     inkscape:window-height="480"
     id="namedview69"
     showgrid="false"
     inkscape:zoom="0.4609375"
     inkscape:cx="256"
     inkscape:cy="256"
     inkscape:window-x="0"
     inkscape:window-y="0"
     inkscape:window-maximized="0"
     inkscape:current-layer="svg2" />
  <path
     d="M 427.00,0.00L 85.00,0.00 C 38.25,0.00,0.00,38.25,0.00,85.00l0.00,342.00 c0.00,46.75, 38.25,85.00, 85.00,85.00l 342.00,0.00 c 46.75,0.00, 85.00-38.25, 85.00-85.00L 512.00,85.00 C 512.00,38.25, 473.75,0.00, 427.00,0.00z M 163.90,224.00l 184.20,0.00 c 3.494,10.029, 5.40,20.795, 5.40,32.00c0.00,53.762-43.738,97.50-97.50,97.50c-53.762,0.00-97.50-43.738-97.50-97.50 C 158.50,244.795, 160.406,234.029, 163.90,224.00z M 448.00,224.025L 448.00,352.00 l0.00,64.00 c0.00,17.60-14.40,32.00-32.00,32.00L 96.00,448.00 c-17.60,0.00-32.00-14.40-32.00-32.00l0.00-64.00 L 64.00,224.025 L 64.00,224.00 l 50.054,0.00 c-2.321,10.301-3.554,21.008-3.554,32.00c0.00,80.229, 65.271,145.50, 145.50,145.50c 80.229,0.00, 145.50-65.271, 145.50-145.50 c0.00-10.992-1.232-21.699-3.554-32.00L 448.00,224.00 L 448.00,224.025 z M 448.00,112.00c0.00,8.80-7.20,16.00-16.00,16.00l-32.00,0.00 c-8.80,0.00-16.00-7.20-16.00-16.00L 384.00,80.00 c0.00-8.80, 7.20-16.00, 16.00-16.00l 32.00,0.00 c 8.80,0.00, 16.00,7.20, 16.00,16.00L 448.00,112.00 z"
     id="path67" />
</svg>
