<?xml version="1.0" encoding="UTF-8" standalone="no"?>
<!-- Generator: IcoMoon.io -->

<svg
   xmlns:dc="http://purl.org/dc/elements/1.1/"
   xmlns:cc="http://creativecommons.org/ns#"
   xmlns:rdf="http://www.w3.org/1999/02/22-rdf-syntax-ns#"
   xmlns:svg="http://www.w3.org/2000/svg"
   xmlns="http://www.w3.org/2000/svg"
   xmlns:sodipodi="http://sodipodi.sourceforge.net/DTD/sodipodi-0.dtd"
   xmlns:inkscape="http://www.inkscape.org/namespaces/inkscape"
   width="512"
   height="512"
   viewBox="0 0 512 512"
   fill="#000000"
   id="svg2"
   version="1.1"
   inkscape:version="0.48.2 r9819"
   sodipodi:docname="im_icomoon.svg">
  <metadata
     id="metadata73">
    <rdf:RDF>
      <cc:Work
         rdf:about="">
        <dc:format>image/svg+xml</dc:format>
        <dc:type
           rdf:resource="http://purl.org/dc/dcmitype/StillImage" />
      </cc:Work>
    </rdf:RDF>
  </metadata>
  <defs
     id="defs71" />
  <sodipodi:namedview
     pagecolor="#ffffff"
     bordercolor="#666666"
     borderopacity="1"
     objecttolerance="10"
     gridtolerance="10"
     guidetolerance="10"
     inkscape:pageopacity="0"
     inkscape:pageshadow="2"
     inkscape:window-width="640"
     inkscape:window-height="480"
     id="namedview69"
     showgrid="false"
     inkscape:zoom="0.4609375"
     inkscape:cx="256"
     inkscape:cy="256"
     inkscape:window-x="175"
     inkscape:window-y="175"
     inkscape:window-maximized="0"
     inkscape:current-layer="svg2" />
  <path
     d="M 129.772,255.999A59.223,59.223 12600.00 1,0 248.218,255.999A59.223,59.223 12600.00 1,0 129.772,255.999zM 256.002,0.00C 114.615,0.00,0.00,114.616,0.00,256.00s 114.613,256.00, 256.002,256.00C 397.384,512.00, 512.00,397.385, 512.00,256.00 C 512.00,114.616, 397.385,0.00, 256.002,0.00z M 189.698,479.641C 112.72,434.854, 60.964,351.479, 60.964,256.00 c0.00-95.479, 51.756-178.854, 128.731-223.641C 266.70,77.14, 318.49,160.503, 318.49,256.00C 318.49,351.494, 266.70,434.859, 189.698,479.641z"
     id="path67" />
</svg>
