<?xml version="1.0" encoding="UTF-8" standalone="no"?>
<!-- Generator: IcoMoon.io -->

<svg
   xmlns:dc="http://purl.org/dc/elements/1.1/"
   xmlns:cc="http://creativecommons.org/ns#"
   xmlns:rdf="http://www.w3.org/1999/02/22-rdf-syntax-ns#"
   xmlns:svg="http://www.w3.org/2000/svg"
   xmlns="http://www.w3.org/2000/svg"
   xmlns:sodipodi="http://sodipodi.sourceforge.net/DTD/sodipodi-0.dtd"
   xmlns:inkscape="http://www.inkscape.org/namespaces/inkscape"
   width="512"
   height="512"
   viewBox="0 0 512 512"
   fill="#000000"
   id="svg2"
   version="1.1"
   inkscape:version="0.48.2 r9819"
   sodipodi:docname="im_joomla.svg">
  <metadata
     id="metadata73">
    <rdf:RDF>
      <cc:Work
         rdf:about="">
        <dc:format>image/svg+xml</dc:format>
        <dc:type
           rdf:resource="http://purl.org/dc/dcmitype/StillImage" />
      </cc:Work>
    </rdf:RDF>
  </metadata>
  <defs
     id="defs71" />
  <sodipodi:namedview
     pagecolor="#ffffff"
     bordercolor="#666666"
     borderopacity="1"
     objecttolerance="10"
     gridtolerance="10"
     guidetolerance="10"
     inkscape:pageopacity="0"
     inkscape:pageshadow="2"
     inkscape:window-width="640"
     inkscape:window-height="480"
     id="namedview69"
     showgrid="false"
     inkscape:zoom="0.4609375"
     inkscape:cx="256"
     inkscape:cy="256"
     inkscape:window-x="0"
     inkscape:window-y="0"
     inkscape:window-maximized="0"
     inkscape:current-layer="svg2" />
  <path
     d="M 133.002,138.339c 16.416-16.422, 43.001-16.422, 59.402-0.016l 3.913,3.934l 50.552-50.578l-3.937-3.94 c-28.812-28.85-69.257-38.939-106.21-30.261C 131.425,24.887, 103.178,0.016, 69.135,0.00C 31.31,0.00, 0.658,30.721, 0.65,68.579 c0.00,32.668, 22.795,60.00, 53.331,66.915c-11.569,38.725-2.121,82.417, 28.423,112.992l 113.913,113.95l 50.498-50.607L 132.91,197.886 C 116.569,181.525, 116.539,154.823, 133.002,138.339zM 511.356,68.579C 511.364,30.698, 480.697,0.00, 442.864,0.00c-34.617,0.00-63.239,25.722-67.841,59.119 c-38.537-11.332-81.892-1.748-112.32,28.704l-113.92,113.95l 50.551,50.586l 113.883-113.928c 16.47-16.483, 42.994-16.453, 59.342-0.092 c 16.40,16.415, 16.40,43.057-0.016,59.478l-3.897,3.918l 50.505,50.624l 3.929-3.964c 30.229-30.283, 39.839-73.378, 28.806-111.819 C 485.461,132.159, 511.356,103.394, 511.356,68.579zM 453.133,375.532c 9.051-37.229-0.988-78.162-30.054-107.25L 309.334,154.286l-50.551,50.561l 113.76,114.006 c 16.47,16.498, 16.432,43.048, 0.092,59.424c-16.401,16.407-43.002,16.407-59.418-0.015l-3.883-3.895l-50.497,50.623l 3.866,3.864 c 30.758,30.797, 74.809,40.219, 113.684,28.244C 382.703,488.439, 410.354,512.00, 443.516,512.00C 481.318,512.00, 512.00,481.325, 512.00,443.437 C 512.00,408.837, 486.41,380.209, 453.133,375.532zM 306.172,264.342L 192.404,378.338c-16.355,16.384-43.017,16.414-59.472-0.062c-16.409-16.452-16.416-43.049-0.022-59.485 l 3.904-3.887l-50.543-50.562l-3.867,3.856c-29.38,29.401-39.28,70.917-29.725,108.491C 22.48,383.819,0.00,411.006,0.00,443.437 C-0.008,481.31, 30.666,512.00, 68.491,512.00c 32.55-0.016, 59.794-22.709, 66.77-53.191c 37.351,9.276, 78.499-0.652, 107.672-29.878 l 113.745-113.98L 306.172,264.342z"
     id="path67" />
</svg>
