<?xml version="1.0" encoding="UTF-8" standalone="no"?>
<!-- Generator: IcoMoon.io -->

<svg
   xmlns:dc="http://purl.org/dc/elements/1.1/"
   xmlns:cc="http://creativecommons.org/ns#"
   xmlns:rdf="http://www.w3.org/1999/02/22-rdf-syntax-ns#"
   xmlns:svg="http://www.w3.org/2000/svg"
   xmlns="http://www.w3.org/2000/svg"
   xmlns:sodipodi="http://sodipodi.sourceforge.net/DTD/sodipodi-0.dtd"
   xmlns:inkscape="http://www.inkscape.org/namespaces/inkscape"
   width="576"
   height="512"
   viewBox="0 0 576 512"
   fill="#000000"
   id="svg2"
   version="1.1"
   inkscape:version="0.48.2 r9819"
   sodipodi:docname="im_keyboard.svg">
  <metadata
     id="metadata73">
    <rdf:RDF>
      <cc:Work
         rdf:about="">
        <dc:format>image/svg+xml</dc:format>
        <dc:type
           rdf:resource="http://purl.org/dc/dcmitype/StillImage" />
      </cc:Work>
    </rdf:RDF>
  </metadata>
  <defs
     id="defs71" />
  <sodipodi:namedview
     pagecolor="#ffffff"
     bordercolor="#666666"
     borderopacity="1"
     objecttolerance="10"
     gridtolerance="10"
     guidetolerance="10"
     inkscape:pageopacity="0"
     inkscape:pageshadow="2"
     inkscape:window-width="640"
     inkscape:window-height="480"
     id="namedview69"
     showgrid="false"
     inkscape:zoom="0.4609375"
     inkscape:cx="288"
     inkscape:cy="256"
     inkscape:window-x="250"
     inkscape:window-y="250"
     inkscape:window-maximized="0"
     inkscape:current-layer="svg2" />
  <path
     d="M 544.00,64.00L 32.00,64.00 C 14.40,64.00,0.00,78.40,0.00,96.00l0.00,320.00 c0.00,17.60, 14.40,32.00, 32.00,32.00l 512.00,0.00 c 17.60,0.00, 32.00-14.40, 32.00-32.00L 576.00,96.00 C 576.00,78.40, 561.60,64.00, 544.00,64.00z M 320.00,128.00 l 64.00,0.00 l0.00,64.00 l-64.00,0.00 L 320.00,128.00 z M 416.00,224.00l0.00,64.00 l-64.00,0.00 l0.00-64.00 L 416.00,224.00 z M 224.00,128.00l 64.00,0.00 l0.00,64.00 l-64.00,0.00 L 224.00,128.00 z M 320.00,224.00l0.00,64.00 l-64.00,0.00 l0.00-64.00 L 320.00,224.00 z M 128.00,128.00l 64.00,0.00 l0.00,64.00 l-64.00,0.00 L 128.00,128.00 z M 224.00,224.00l0.00,64.00 l-64.00,0.00 l0.00-64.00 L 224.00,224.00 z M 64.00,128.00l 32.00,0.00 l0.00,64.00 L 64.00,192.00 L 64.00,128.00 z M 64.00,224.00l 64.00,0.00 l0.00,64.00 L 64.00,288.00 L 64.00,224.00 z M 96.00,384.00L 64.00,384.00 l0.00-64.00 l 32.00,0.00 L 96.00,384.00 z M 384.00,384.00L 128.00,384.00 l0.00-64.00 l 256.00,0.00 L 384.00,384.00 z M 512.00,384.00l-96.00,0.00 l0.00-64.00 l 96.00,0.00 L 512.00,384.00 z M 512.00,288.00l-64.00,0.00 l0.00-64.00 l 64.00,0.00 L 512.00,288.00 z M 512.00,192.00l-96.00,0.00 l0.00-64.00 l 96.00,0.00 L 512.00,192.00 z"
     id="path67" />
</svg>
