<?xml version="1.0" encoding="UTF-8" standalone="no"?>
<!-- Generator: IcoMoon.io -->

<svg
   xmlns:dc="http://purl.org/dc/elements/1.1/"
   xmlns:cc="http://creativecommons.org/ns#"
   xmlns:rdf="http://www.w3.org/1999/02/22-rdf-syntax-ns#"
   xmlns:svg="http://www.w3.org/2000/svg"
   xmlns="http://www.w3.org/2000/svg"
   xmlns:sodipodi="http://sodipodi.sourceforge.net/DTD/sodipodi-0.dtd"
   xmlns:inkscape="http://www.inkscape.org/namespaces/inkscape"
   width="512"
   height="512"
   viewBox="0 0 512 512"
   fill="#000000"
   id="svg2"
   version="1.1"
   inkscape:version="0.48.2 r9819"
   sodipodi:docname="im_key2.svg">
  <metadata
     id="metadata73">
    <rdf:RDF>
      <cc:Work
         rdf:about="">
        <dc:format>image/svg+xml</dc:format>
        <dc:type
           rdf:resource="http://purl.org/dc/dcmitype/StillImage" />
      </cc:Work>
    </rdf:RDF>
  </metadata>
  <defs
     id="defs71" />
  <sodipodi:namedview
     pagecolor="#ffffff"
     bordercolor="#666666"
     borderopacity="1"
     objecttolerance="10"
     gridtolerance="10"
     guidetolerance="10"
     inkscape:pageopacity="0"
     inkscape:pageshadow="2"
     inkscape:window-width="640"
     inkscape:window-height="480"
     id="namedview69"
     showgrid="false"
     inkscape:zoom="0.4609375"
     inkscape:cx="256"
     inkscape:cy="256"
     inkscape:window-x="0"
     inkscape:window-y="0"
     inkscape:window-maximized="0"
     inkscape:current-layer="svg2" />
  <path
     d="M 352.00,0.00c-88.365,0.00-160.00,71.634-160.00,160.00c0.00,10.013, 0.929,19.808, 2.688,29.312L0.00,384.00l0.00,96.00 c0.00,17.673, 14.327,32.00, 32.00,32.00 l 32.00,0.00 l0.00-32.00 l 64.00,0.00 l0.00-64.00 l 64.00,0.00 l0.00-64.00 l 64.00,0.00 l 41.521-41.521C 314.526,316.637, 332.869,320.00, 352.00,320.00c 88.365,0.00, 160.00-71.634, 160.00-160.00S 440.365,0.00, 352.00,0.00z M 399.937,160.063c-26.51,0.00-48.00-21.49-48.00-48.00s 21.49-48.00, 48.00-48.00s 48.00,21.49, 48.00,48.00S 426.447,160.063, 399.937,160.063z"
     id="path67" />
</svg>
