<?xml version="1.0" encoding="UTF-8" standalone="no"?>
<!-- Generator: IcoMoon.io -->

<svg
   xmlns:dc="http://purl.org/dc/elements/1.1/"
   xmlns:cc="http://creativecommons.org/ns#"
   xmlns:rdf="http://www.w3.org/1999/02/22-rdf-syntax-ns#"
   xmlns:svg="http://www.w3.org/2000/svg"
   xmlns="http://www.w3.org/2000/svg"
   xmlns:sodipodi="http://sodipodi.sourceforge.net/DTD/sodipodi-0.dtd"
   xmlns:inkscape="http://www.inkscape.org/namespaces/inkscape"
   width="512"
   height="512"
   viewBox="0 0 512 512"
   fill="#000000"
   id="svg2"
   version="1.1"
   inkscape:version="0.48.2 r9819"
   sodipodi:docname="im_loop2.svg">
  <metadata
     id="metadata73">
    <rdf:RDF>
      <cc:Work
         rdf:about="">
        <dc:format>image/svg+xml</dc:format>
        <dc:type
           rdf:resource="http://purl.org/dc/dcmitype/StillImage" />
      </cc:Work>
    </rdf:RDF>
  </metadata>
  <defs
     id="defs71" />
  <sodipodi:namedview
     pagecolor="#ffffff"
     bordercolor="#666666"
     borderopacity="1"
     objecttolerance="10"
     gridtolerance="10"
     guidetolerance="10"
     inkscape:pageopacity="0"
     inkscape:pageshadow="2"
     inkscape:window-width="640"
     inkscape:window-height="480"
     id="namedview69"
     showgrid="false"
     inkscape:zoom="0.4609375"
     inkscape:cx="256"
     inkscape:cy="256"
     inkscape:window-x="0"
     inkscape:window-y="0"
     inkscape:window-maximized="0"
     inkscape:current-layer="svg2" />
  <path
     d="M 437.011,74.99C 390.685,28.662, 326.693,0.00, 256.00,0.00C 146.256,0.00, 52.655,69.064, 16.251,166.094l 59.938,22.477 C 103.491,115.798, 173.692,64.00, 256.00,64.00c 53.02,0.00, 101.01,21.50, 135.753,56.247L 320.00,192.00l 192.00,0.00 L 512.00,0.00 L 437.011,74.99zM 256.00,448.00c-53.02,0.00-101.013-21.496-135.756-56.244L 192.00,320.00L0.00,320.00 l0.00,192.00 l 74.997-74.997C 121.32,483.334, 185.306,512.00, 256.00,512.00 c 109.745,0.00, 203.346-69.064, 239.75-166.094l-59.938-22.477C 408.51,396.202, 338.309,448.00, 256.00,448.00z"
     id="path67" />
</svg>
