<?xml version="1.0" encoding="UTF-8" standalone="no"?>
<!-- Generator: IcoMoon.io -->

<svg
   xmlns:dc="http://purl.org/dc/elements/1.1/"
   xmlns:cc="http://creativecommons.org/ns#"
   xmlns:rdf="http://www.w3.org/1999/02/22-rdf-syntax-ns#"
   xmlns:svg="http://www.w3.org/2000/svg"
   xmlns="http://www.w3.org/2000/svg"
   xmlns:sodipodi="http://sodipodi.sourceforge.net/DTD/sodipodi-0.dtd"
   xmlns:inkscape="http://www.inkscape.org/namespaces/inkscape"
   width="512"
   height="512"
   viewBox="0 0 512 512"
   fill="#000000"
   id="svg2"
   version="1.1"
   inkscape:version="0.48.2 r9819"
   sodipodi:docname="im_libreoffice.svg">
  <metadata
     id="metadata73">
    <rdf:RDF>
      <cc:Work
         rdf:about="">
        <dc:format>image/svg+xml</dc:format>
        <dc:type
           rdf:resource="http://purl.org/dc/dcmitype/StillImage" />
      </cc:Work>
    </rdf:RDF>
  </metadata>
  <defs
     id="defs71" />
  <sodipodi:namedview
     pagecolor="#ffffff"
     bordercolor="#666666"
     borderopacity="1"
     objecttolerance="10"
     gridtolerance="10"
     guidetolerance="10"
     inkscape:pageopacity="0"
     inkscape:pageshadow="2"
     inkscape:window-width="640"
     inkscape:window-height="480"
     id="namedview69"
     showgrid="false"
     inkscape:zoom="0.4609375"
     inkscape:cx="256"
     inkscape:cy="256"
     inkscape:window-x="0"
     inkscape:window-y="0"
     inkscape:window-maximized="0"
     inkscape:current-layer="svg2" />
  <path
     d="M 267.313,11.314C 261.091,5.092, 248.80,0.00, 240.00,0.00L 48.00,0.00 c-8.80,0.00-16.00,7.20-16.00,16.00l0.00,480.00 c0.00,8.80, 7.20,16.00, 16.00,16.00l 384.00,0.00 c 8.80,0.00, 16.00-7.20, 16.00-16.00L 448.00,208.00 c0.00-8.80-5.091-21.091-11.313-27.313L 267.313,11.314z M 416.00,480.00L 64.00,480.00 L 64.00,32.00 l 175.579,0.00 c 1.458,0.24, 4.204,1.377, 5.405,2.239l 168.778,168.777 c 0.861,1.201, 1.998,3.947, 2.238,5.405L 416.00,480.00 zM 432.00,0.00l-96.00,0.00 c-8.80,0.00-10.909,5.091-4.687,11.313l 105.373,105.373C 442.909,122.909, 448.00,120.80, 448.00,112.00L 448.00,16.00 C 448.00,7.20, 440.80,0.00, 432.00,0.00 z"
     id="path67" />
</svg>
