<?xml version="1.0" encoding="UTF-8" standalone="no"?>
<!-- Generator: IcoMoon.io -->

<svg
   xmlns:dc="http://purl.org/dc/elements/1.1/"
   xmlns:cc="http://creativecommons.org/ns#"
   xmlns:rdf="http://www.w3.org/1999/02/22-rdf-syntax-ns#"
   xmlns:svg="http://www.w3.org/2000/svg"
   xmlns="http://www.w3.org/2000/svg"
   xmlns:sodipodi="http://sodipodi.sourceforge.net/DTD/sodipodi-0.dtd"
   xmlns:inkscape="http://www.inkscape.org/namespaces/inkscape"
   width="512"
   height="512"
   viewBox="0 0 512 512"
   fill="#000000"
   id="svg2"
   version="1.1"
   inkscape:version="0.48.2 r9819"
   sodipodi:docname="im_lock.svg">
  <metadata
     id="metadata73">
    <rdf:RDF>
      <cc:Work
         rdf:about="">
        <dc:format>image/svg+xml</dc:format>
        <dc:type
           rdf:resource="http://purl.org/dc/dcmitype/StillImage" />
      </cc:Work>
    </rdf:RDF>
  </metadata>
  <defs
     id="defs71" />
  <sodipodi:namedview
     pagecolor="#ffffff"
     bordercolor="#666666"
     borderopacity="1"
     objecttolerance="10"
     gridtolerance="10"
     guidetolerance="10"
     inkscape:pageopacity="0"
     inkscape:pageshadow="2"
     inkscape:window-width="640"
     inkscape:window-height="480"
     id="namedview69"
     showgrid="false"
     inkscape:zoom="0.4609375"
     inkscape:cx="256"
     inkscape:cy="256"
     inkscape:window-x="0"
     inkscape:window-y="0"
     inkscape:window-maximized="0"
     inkscape:current-layer="svg2" />
  <path
     d="M 416.00,224.00l-32.00,0.00 l0.00-96.00 C 384.00,57.308, 326.692,0.00, 256.00,0.00c-70.692,0.00-128.00,57.308-128.00,128.00l0.00,96.00 L 96.00,224.00 c-17.60,0.00-32.00,14.40-32.00,32.00l0.00,224.00 c0.00,17.60, 14.40,32.00, 32.00,32.00l 320.00,0.00 c 17.60,0.00, 32.00-14.40, 32.00-32.00L 448.00,256.00 C 448.00,238.40, 433.60,224.00, 416.00,224.00z M 256.00,416.00c-17.673,0.00-32.00-14.327-32.00-32.00 s 14.327-32.00, 32.00-32.00s 32.00,14.327, 32.00,32.00S 273.673,416.00, 256.00,416.00z M 320.00,224.00L 192.00,224.00 l0.00-96.00 c0.00-35.29, 28.71-64.00, 64.00-64.00s 64.00,28.71, 64.00,64.00L 320.00,224.00 z"
     id="path67" />
</svg>
