<?xml version="1.0" encoding="UTF-8" standalone="no"?>
<!-- Generator: IcoMoon.io -->

<svg
   xmlns:dc="http://purl.org/dc/elements/1.1/"
   xmlns:cc="http://creativecommons.org/ns#"
   xmlns:rdf="http://www.w3.org/1999/02/22-rdf-syntax-ns#"
   xmlns:svg="http://www.w3.org/2000/svg"
   xmlns="http://www.w3.org/2000/svg"
   xmlns:sodipodi="http://sodipodi.sourceforge.net/DTD/sodipodi-0.dtd"
   xmlns:inkscape="http://www.inkscape.org/namespaces/inkscape"
   width="512"
   height="512"
   viewBox="0 0 512 512"
   fill="#000000"
   id="svg2"
   version="1.1"
   inkscape:version="0.48.2 r9819"
   sodipodi:docname="im_link.svg">
  <metadata
     id="metadata73">
    <rdf:RDF>
      <cc:Work
         rdf:about="">
        <dc:format>image/svg+xml</dc:format>
        <dc:type
           rdf:resource="http://purl.org/dc/dcmitype/StillImage" />
      </cc:Work>
    </rdf:RDF>
  </metadata>
  <defs
     id="defs71" />
  <sodipodi:namedview
     pagecolor="#ffffff"
     bordercolor="#666666"
     borderopacity="1"
     objecttolerance="10"
     gridtolerance="10"
     guidetolerance="10"
     inkscape:pageopacity="0"
     inkscape:pageshadow="2"
     inkscape:window-width="640"
     inkscape:window-height="480"
     id="namedview69"
     showgrid="false"
     inkscape:zoom="0.4609375"
     inkscape:cx="256"
     inkscape:cy="256"
     inkscape:window-x="0"
     inkscape:window-y="0"
     inkscape:window-maximized="0"
     inkscape:current-layer="svg2" />
  <path
     d="M 476.698,37.321l-2.014-2.021c-47.074-47.067-124.097-47.067-171.163,0.00L 194.468,144.368 c-47.067,47.066-47.067,124.088,0.00,171.155l 2.013,2.013c 3.916,3.924, 8.073,7.462, 12.368,10.729l 39.924-39.925 c-4.651-2.747-9.063-6.036-13.058-10.03l-2.021-2.021c-25.557-25.549-25.557-67.136,0.00-92.695L 342.758,74.538 c 25.558-25.559, 67.137-25.559, 92.693,0.00l 2.021,2.012c 25.55,25.558, 25.55,67.146,0.00,92.695l-49.343,49.343 c 8.566,21.154, 12.624,43.70, 12.269,66.193l 76.302-76.302C 523.767,161.411, 523.767,84.39, 476.698,37.321zM 315.521,194.467c-3.916-3.916-8.073-7.461-12.368-10.72l-39.924,39.916c 4.652,2.748, 9.063,6.037, 13.058,10.031l 2.021,2.02 c 25.558,25.558, 25.558,67.136,0.00,92.694L 169.243,437.475c-25.559,25.551-67.138,25.551-92.694,0.00l-2.021-2.021 c-25.549-25.56-25.549-67.138,0.00-92.694l 49.344-49.343c-8.567-21.153-12.623-43.701-12.269-66.193l-76.301,76.299 c-47.068,47.066-47.068,124.089,0.00,171.162l 2.013,2.016c 47.076,47.064, 124.096,47.064, 171.164,0.00l 109.055-109.059 c 47.067-47.066, 47.067-124.097,0.00-171.163L 315.521,194.467z"
     id="path67" />
</svg>
