<?xml version="1.0" encoding="UTF-8" standalone="no"?>
<!-- Generator: IcoMoon.io -->

<svg
   xmlns:dc="http://purl.org/dc/elements/1.1/"
   xmlns:cc="http://creativecommons.org/ns#"
   xmlns:rdf="http://www.w3.org/1999/02/22-rdf-syntax-ns#"
   xmlns:svg="http://www.w3.org/2000/svg"
   xmlns="http://www.w3.org/2000/svg"
   xmlns:sodipodi="http://sodipodi.sourceforge.net/DTD/sodipodi-0.dtd"
   xmlns:inkscape="http://www.inkscape.org/namespaces/inkscape"
   width="512"
   height="512"
   viewBox="0 0 512 512"
   fill="#000000"
   id="svg2"
   version="1.1"
   inkscape:version="0.48.2 r9819"
   sodipodi:docname="im_lanyrd.svg">
  <metadata
     id="metadata73">
    <rdf:RDF>
      <cc:Work
         rdf:about="">
        <dc:format>image/svg+xml</dc:format>
        <dc:type
           rdf:resource="http://purl.org/dc/dcmitype/StillImage" />
      </cc:Work>
    </rdf:RDF>
  </metadata>
  <defs
     id="defs71" />
  <sodipodi:namedview
     pagecolor="#ffffff"
     bordercolor="#666666"
     borderopacity="1"
     objecttolerance="10"
     gridtolerance="10"
     guidetolerance="10"
     inkscape:pageopacity="0"
     inkscape:pageshadow="2"
     inkscape:window-width="640"
     inkscape:window-height="480"
     id="namedview69"
     showgrid="false"
     inkscape:zoom="0.4609375"
     inkscape:cx="256"
     inkscape:cy="256"
     inkscape:window-x="0"
     inkscape:window-y="0"
     inkscape:window-maximized="0"
     inkscape:current-layer="svg2" />
  <path
     d="M 426.00,0.00L 86.00,0.00 C 38.70,0.00,0.00,38.70,0.00,86.00l0.00,340.00 c0.00,47.30, 38.70,86.00, 86.00,86.00l 340.00,0.00 c 47.30,0.00, 86.00-38.70, 86.00-86.00L 512.00,86.00 C 512.00,38.70, 473.30,0.00, 426.00,0.00z M 421.834,403.833c-56.666,18.667-167.333,55.00-188.00,60.167s-42.00,13.834-54.00-20.833c0.00,0.00-102.00-301.333-111.333-328.00S 50.077,72.424, 71.167,64.00 c 48.688-19.447, 99.333-44.25, 108.667-16.00c 8.351,25.273, 97.333,304.00, 97.333,304.00s 104.666-36.834, 133.333-44.834s 38.501-13.334, 46.00,26.00 S 478.50,385.166, 421.834,403.833z"
     id="path67" />
</svg>
