<?xml version="1.0" encoding="UTF-8" standalone="no"?>
<!-- Generator: IcoMoon.io -->

<svg
   xmlns:dc="http://purl.org/dc/elements/1.1/"
   xmlns:cc="http://creativecommons.org/ns#"
   xmlns:rdf="http://www.w3.org/1999/02/22-rdf-syntax-ns#"
   xmlns:svg="http://www.w3.org/2000/svg"
   xmlns="http://www.w3.org/2000/svg"
   xmlns:sodipodi="http://sodipodi.sourceforge.net/DTD/sodipodi-0.dtd"
   xmlns:inkscape="http://www.inkscape.org/namespaces/inkscape"
   width="512"
   height="512"
   viewBox="0 0 512 512"
   fill="#000000"
   id="svg2"
   version="1.1"
   inkscape:version="0.48.2 r9819"
   sodipodi:docname="im_lastfm2.svg">
  <metadata
     id="metadata73">
    <rdf:RDF>
      <cc:Work
         rdf:about="">
        <dc:format>image/svg+xml</dc:format>
        <dc:type
           rdf:resource="http://purl.org/dc/dcmitype/StillImage" />
      </cc:Work>
    </rdf:RDF>
  </metadata>
  <defs
     id="defs71" />
  <sodipodi:namedview
     pagecolor="#ffffff"
     bordercolor="#666666"
     borderopacity="1"
     objecttolerance="10"
     gridtolerance="10"
     guidetolerance="10"
     inkscape:pageopacity="0"
     inkscape:pageshadow="2"
     inkscape:window-width="640"
     inkscape:window-height="480"
     id="namedview69"
     showgrid="false"
     inkscape:zoom="0.4609375"
     inkscape:cx="256"
     inkscape:cy="256"
     inkscape:window-x="0"
     inkscape:window-y="0"
     inkscape:window-maximized="0"
     inkscape:current-layer="svg2" />
  <path
     d="M 426.00,0.00L 86.00,0.00 C 38.70,0.00,0.00,38.70,0.00,86.00l0.00,340.00 c0.00,47.30, 38.70,86.00, 86.00,86.00l 340.00,0.00 c 47.30,0.00, 86.00-38.70, 86.00-86.00L 512.00,86.00 C 512.00,38.70, 473.30,0.00, 426.00,0.00z M 373.258,380.444c-88.779,0.00-119.569-40.028-135.986-89.802l-16.425-51.318c-12.319-37.463-26.687-66.712-71.842-66.712 c-31.31,0.00-63.123,22.579-63.123,85.699c0.00,49.264, 25.144,80.056, 60.557,80.056c 40.021,0.00, 66.71-29.765, 66.71-29.765l 16.425,44.644 c0.00,0.00-27.718,27.197-85.699,27.197c-71.846,0.00-111.875-42.076-111.875-120.082c0.00-81.081, 40.029-128.805, 115.464-128.805 c 68.253,0.00, 102.64,24.632, 124.188,91.346l 16.936,51.313c 12.318,37.465, 33.867,64.662, 85.698,64.662 c 34.896,0.00, 53.367-7.699, 53.367-26.684c0.00-14.885-8.72-25.66-34.892-31.82l-34.90-8.207c-42.587-10.262-59.522-32.329-59.522-67.226 c0.00-55.936, 45.16-73.384, 91.343-73.384c 52.345,0.00, 84.161,18.988, 88.266,65.172l-51.317,6.16 c-2.054-22.066-15.396-31.305-40.027-31.305c-22.582,0.00-36.436,10.265-36.436,27.713c0.00,15.395, 6.671,24.633, 29.247,29.765 l 32.842,7.182c 44.135,10.266, 67.746,31.82, 67.746,73.386C 480.001,360.946, 436.895,380.444, 373.258,380.444z"
     id="path67" />
</svg>
