<?xml version="1.0" encoding="UTF-8" standalone="no"?>
<!-- Generator: IcoMoon.io -->

<svg
   xmlns:dc="http://purl.org/dc/elements/1.1/"
   xmlns:cc="http://creativecommons.org/ns#"
   xmlns:rdf="http://www.w3.org/1999/02/22-rdf-syntax-ns#"
   xmlns:svg="http://www.w3.org/2000/svg"
   xmlns="http://www.w3.org/2000/svg"
   xmlns:sodipodi="http://sodipodi.sourceforge.net/DTD/sodipodi-0.dtd"
   xmlns:inkscape="http://www.inkscape.org/namespaces/inkscape"
   width="512"
   height="512"
   viewBox="0 0 512 512"
   fill="#000000"
   id="svg2"
   version="1.1"
   inkscape:version="0.48.2 r9819"
   sodipodi:docname="meter.svg">
  <metadata
     id="metadata73">
    <rdf:RDF>
      <cc:Work
         rdf:about="">
        <dc:format>image/svg+xml</dc:format>
        <dc:type
           rdf:resource="http://purl.org/dc/dcmitype/StillImage" />
      </cc:Work>
    </rdf:RDF>
  </metadata>
  <defs
     id="defs71" />
  <sodipodi:namedview
     pagecolor="#ffffff"
     bordercolor="#666666"
     borderopacity="1"
     objecttolerance="10"
     gridtolerance="10"
     guidetolerance="10"
     inkscape:pageopacity="0"
     inkscape:pageshadow="2"
     inkscape:window-width="640"
     inkscape:window-height="480"
     id="namedview69"
     showgrid="false"
     inkscape:zoom="0.4609375"
     inkscape:cx="256"
     inkscape:cy="256"
     inkscape:window-x="0"
     inkscape:window-y="0"
     inkscape:window-maximized="0"
     inkscape:current-layer="svg2" />
  <path
     d="M 256.00,32.00 C 397.385,32.00 512.00,146.615 512.00,288.00 C 512.00,384.396 458.712,468.333 379.996,512.00 L 132.004,512.00 C 53.288,468.333 0.00,384.396 0.00,288.00 C 0.00,146.615 114.615,32.00 256.00,32.00 Z M 400.957,432.957 C 439.676,394.237 461.00,342.758 461.00,288.00 L 416.00,288.00 L 416.00,256.00 L 458.519,256.00 C 455.012,233.501 447.824,211.927 437.237,192.00 L 384.00,192.00 L 384.00,160.00 L 416.142,160.00 C 411.423,154.119 406.366,148.452 400.957,143.043 C 377.846,119.933 350.187,103.024 320.00,93.144 L 320.00,128.00 L 288.00,128.00 L 288.00,85.48 C 277.509,83.846 266.82,83.00 256.00,83.00 C 245.18,83.00 234.491,83.845 224.00,85.48 L 224.00,128.00 L 192.00,128.00 L 192.00,93.144 C 161.814,103.024 134.154,119.932 111.043,143.043 C 105.634,148.452 100.577,154.119 95.858,160.00 L 128.00,160.00 L 128.00,192.00 L 74.762,192.00 C 64.175,211.927 56.986,233.501 53.48,256.00 L 96.00,256.00 L 96.00,288.00 L 51.00,288.00 C 51.00,342.758 72.324,394.237 111.043,432.957 C 116.398,438.312 122.005,443.321 127.823,448.00 L 224.00,448.00 L 242.286,192.00 L 269.714,192.00 L 288.00,448.00 L 384.177,448.00 C 389.995,443.321 395.603,438.311 400.957,432.957 Z"
     id="path67" />
</svg>
