<?xml version="1.0" encoding="UTF-8" standalone="no"?>
<!-- Generator: IcoMoon.io -->

<svg
   xmlns:dc="http://purl.org/dc/elements/1.1/"
   xmlns:cc="http://creativecommons.org/ns#"
   xmlns:rdf="http://www.w3.org/1999/02/22-rdf-syntax-ns#"
   xmlns:svg="http://www.w3.org/2000/svg"
   xmlns="http://www.w3.org/2000/svg"
   xmlns:sodipodi="http://sodipodi.sourceforge.net/DTD/sodipodi-0.dtd"
   xmlns:inkscape="http://www.inkscape.org/namespaces/inkscape"
   width="512"
   height="512"
   viewBox="0 0 512 512"
   fill="#000000"
   id="svg2"
   version="1.1"
   inkscape:version="0.48.2 r9819"
   sodipodi:docname="im_meter2.svg">
  <metadata
     id="metadata73">
    <rdf:RDF>
      <cc:Work
         rdf:about="">
        <dc:format>image/svg+xml</dc:format>
        <dc:type
           rdf:resource="http://purl.org/dc/dcmitype/StillImage" />
      </cc:Work>
    </rdf:RDF>
  </metadata>
  <defs
     id="defs71" />
  <sodipodi:namedview
     pagecolor="#ffffff"
     bordercolor="#666666"
     borderopacity="1"
     objecttolerance="10"
     gridtolerance="10"
     guidetolerance="10"
     inkscape:pageopacity="0"
     inkscape:pageshadow="2"
     inkscape:window-width="640"
     inkscape:window-height="480"
     id="namedview69"
     showgrid="false"
     inkscape:zoom="0.4609375"
     inkscape:cx="256"
     inkscape:cy="256"
     inkscape:window-x="0"
     inkscape:window-y="0"
     inkscape:window-maximized="0"
     inkscape:current-layer="svg2" />
  <path
     d="M 256.00,0.00C 114.615,0.00,0.00,114.615,0.00,256.00s 114.615,256.00, 256.00,256.00s 256.00-114.615, 256.00-256.00S 397.385,0.00, 256.00,0.00z M 151.418,417.076 C 156.971,401.76, 160.00,385.232, 160.00,368.00c0.00-62.175-39.405-115.146-94.604-135.303c 5.105-42.462, 24.127-81.749, 54.839-112.462 C 156.50,83.972, 204.715,64.00, 256.00,64.00s 99.50,19.972, 135.765,56.235c 30.714,30.713, 49.734,70.00, 54.841,112.462 C 391.405,252.854, 352.00,305.825, 352.00,368.00c0.00,17.234, 3.03,33.76, 8.583,49.075C 329.73,437.196, 293.698,448.00, 256.00,448.00 C 218.303,448.00, 182.271,437.196, 151.418,417.076zM 275.877,320.498 C 282.816,322.245 288.00,328.538 288.00,336.00 L 288.00,368.00 C 288.00,376.80 280.80,384.00 272.00,384.00 L 240.00,384.00 C 231.20,384.00 224.00,376.80 224.00,368.00 L 224.00,336.00 C 224.00,328.538 229.184,322.245 236.123,320.498 L 248.00,96.00 L 264.00,96.00 L 275.877,320.498 Z"
     id="path67" />
</svg>
