<?xml version="1.0" encoding="UTF-8" standalone="no"?>
<!-- Generator: IcoMoon.io -->

<svg
   xmlns:dc="http://purl.org/dc/elements/1.1/"
   xmlns:cc="http://creativecommons.org/ns#"
   xmlns:rdf="http://www.w3.org/1999/02/22-rdf-syntax-ns#"
   xmlns:svg="http://www.w3.org/2000/svg"
   xmlns="http://www.w3.org/2000/svg"
   xmlns:sodipodi="http://sodipodi.sourceforge.net/DTD/sodipodi-0.dtd"
   xmlns:inkscape="http://www.inkscape.org/namespaces/inkscape"
   width="512"
   height="512"
   viewBox="0 0 512 512"
   fill="#000000"
   id="svg2"
   version="1.1"
   inkscape:version="0.48.2 r9819"
   sodipodi:docname="im_mail2.svg">
  <metadata
     id="metadata73">
    <rdf:RDF>
      <cc:Work
         rdf:about="">
        <dc:format>image/svg+xml</dc:format>
        <dc:type
           rdf:resource="http://purl.org/dc/dcmitype/StillImage" />
      </cc:Work>
    </rdf:RDF>
  </metadata>
  <defs
     id="defs71" />
  <sodipodi:namedview
     pagecolor="#ffffff"
     bordercolor="#666666"
     borderopacity="1"
     objecttolerance="10"
     gridtolerance="10"
     guidetolerance="10"
     inkscape:pageopacity="0"
     inkscape:pageshadow="2"
     inkscape:window-width="640"
     inkscape:window-height="480"
     id="namedview69"
     showgrid="false"
     inkscape:zoom="0.4609375"
     inkscape:cx="256"
     inkscape:cy="256"
     inkscape:window-x="0"
     inkscape:window-y="0"
     inkscape:window-maximized="0"
     inkscape:current-layer="svg2" />
  <path
     d="M 426.671,0.00L 85.343,0.00 C 38.406,0.00,0.00,38.405,0.00,85.345l0.00,341.311 C0.00,473.625, 38.406,512.00, 85.343,512.00l 341.328,0.00 C 473.609,512.00, 512.00,473.625, 512.00,426.655L 512.00,85.345 C 512.00,38.405, 473.609,0.00, 426.671,0.00z M 426.671,64.00c 3.994,0.00, 7.773,1.167, 11.01,3.171 L 256.00,217.373L 74.323,67.173C 77.562,65.168, 81.345,64.00, 85.343,64.00L 426.671,64.00 z M 85.343,448.00c-0.962,0.00-1.91-0.073-2.842-0.204 l 112.813-156.483l-14.628-14.627L 64.00,393.371L 64.00,87.802 L 256.00,320.00L 448.00,87.803l0.00,305.568 L 331.314,276.686l-14.627,14.627l 112.814,156.484 c-0.929,0.13-1.873,0.203-2.831,0.203L 85.343,448.00 z"
     id="path67" />
</svg>
