<?xml version="1.0" encoding="UTF-8" standalone="no"?>
<!-- Generator: IcoMoon.io -->

<svg
   xmlns:dc="http://purl.org/dc/elements/1.1/"
   xmlns:cc="http://creativecommons.org/ns#"
   xmlns:rdf="http://www.w3.org/1999/02/22-rdf-syntax-ns#"
   xmlns:svg="http://www.w3.org/2000/svg"
   xmlns="http://www.w3.org/2000/svg"
   xmlns:sodipodi="http://sodipodi.sourceforge.net/DTD/sodipodi-0.dtd"
   xmlns:inkscape="http://www.inkscape.org/namespaces/inkscape"
   width="512"
   height="512"
   viewBox="0 0 512 512"
   fill="#000000"
   id="svg2"
   version="1.1"
   inkscape:version="0.48.2 r9819"
   sodipodi:docname="im_mail4.svg">
  <metadata
     id="metadata73">
    <rdf:RDF>
      <cc:Work
         rdf:about="">
        <dc:format>image/svg+xml</dc:format>
        <dc:type
           rdf:resource="http://purl.org/dc/dcmitype/StillImage" />
      </cc:Work>
    </rdf:RDF>
  </metadata>
  <defs
     id="defs71" />
  <sodipodi:namedview
     pagecolor="#ffffff"
     bordercolor="#666666"
     borderopacity="1"
     objecttolerance="10"
     gridtolerance="10"
     guidetolerance="10"
     inkscape:pageopacity="0"
     inkscape:pageshadow="2"
     inkscape:window-width="640"
     inkscape:window-height="480"
     id="namedview69"
     showgrid="false"
     inkscape:zoom="0.4609375"
     inkscape:cx="256"
     inkscape:cy="256"
     inkscape:window-x="0"
     inkscape:window-y="0"
     inkscape:window-maximized="0"
     inkscape:current-layer="svg2" />
  <path
     d="M 256.00,0.00C 114.615,0.00,0.00,114.615,0.00,256.00s 114.615,256.00, 256.00,256.00s 256.00-114.615, 256.00-256.00S 397.385,0.00, 256.00,0.00z M 128.00,128.00l 256.00,0.00 c 4.569,0.00, 9.002,0.981, 13.072,2.831L 256.00,295.415L 114.928,130.83C 118.998,128.982, 123.431,128.00, 128.00,128.00z M 96.00,352.00L 96.00,160.00 c0.00-0.67, 0.028-1.336, 0.07-2.00l 93.832,109.471L 97.103,360.27C 96.381,357.602, 96.00,354.827, 96.00,352.00z M 384.00,384.00L 128.00,384.00 c-2.827,0.00-5.601-0.381-8.27-1.104l 91.059-91.059L 256.00,344.586l 45.212-52.747l 91.058,91.06C 389.60,383.619, 386.827,384.00, 384.00,384.00z M 416.00,352.00c0.00,2.827-0.381,5.60-1.103,8.27l-92.80-92.799L 415.93,158.00c 0.042,0.664, 0.07,1.33, 0.07,2.00L 416.00,352.00 z"
     id="path67" />
</svg>
