<?xml version="1.0" encoding="UTF-8" standalone="no"?>
<!-- Generator: IcoMoon.io -->

<svg
   xmlns:dc="http://purl.org/dc/elements/1.1/"
   xmlns:cc="http://creativecommons.org/ns#"
   xmlns:rdf="http://www.w3.org/1999/02/22-rdf-syntax-ns#"
   xmlns:svg="http://www.w3.org/2000/svg"
   xmlns="http://www.w3.org/2000/svg"
   xmlns:sodipodi="http://sodipodi.sourceforge.net/DTD/sodipodi-0.dtd"
   xmlns:inkscape="http://www.inkscape.org/namespaces/inkscape"
   width="512"
   height="512"
   viewBox="0 0 512 512"
   fill="#000000"
   id="svg2"
   version="1.1"
   inkscape:version="0.48.2 r9819"
   sodipodi:docname="music.svg">
  <metadata
     id="metadata73">
    <rdf:RDF>
      <cc:Work
         rdf:about="">
        <dc:format>image/svg+xml</dc:format>
        <dc:type
           rdf:resource="http://purl.org/dc/dcmitype/StillImage" />
      </cc:Work>
    </rdf:RDF>
  </metadata>
  <defs
     id="defs71" />
  <sodipodi:namedview
     pagecolor="#ffffff"
     bordercolor="#666666"
     borderopacity="1"
     objecttolerance="10"
     gridtolerance="10"
     guidetolerance="10"
     inkscape:pageopacity="0"
     inkscape:pageshadow="2"
     inkscape:window-width="640"
     inkscape:window-height="480"
     id="namedview69"
     showgrid="false"
     inkscape:zoom="0.4609375"
     inkscape:cx="256"
     inkscape:cy="256"
     inkscape:window-x="0"
     inkscape:window-y="0"
     inkscape:window-maximized="0"
     inkscape:current-layer="svg2" />
  <path
     d="M 160.00,96.00 L 512.00,0.00 L 512.00,32.00 L 512.00,96.00 L 512.00,368.00 C 512.00,412.183 461.855,448.00 400.00,448.00 C 338.145,448.00 288.00,412.183 288.00,368.00 C 288.00,323.817 338.145,288.00 400.00,288.00 C 417.179,288.00 433.451,290.766 448.00,295.703 L 448.00,130.909 L 224.00,192.00 L 224.00,432.00 C 224.00,476.183 173.856,512.00 112.00,512.00 C 50.144,512.00 0.00,476.183 0.00,432.00 C 0.00,387.817 50.144,352.00 112.00,352.00 C 129.179,352.00 145.451,354.766 160.00,359.703 L 160.00,192.00 L 160.00,96.00 Z"
     id="path67" />
</svg>
