<?xml version="1.0" encoding="UTF-8" standalone="no"?>
<!-- Generator: IcoMoon.io -->

<svg
   xmlns:dc="http://purl.org/dc/elements/1.1/"
   xmlns:cc="http://creativecommons.org/ns#"
   xmlns:rdf="http://www.w3.org/1999/02/22-rdf-syntax-ns#"
   xmlns:svg="http://www.w3.org/2000/svg"
   xmlns="http://www.w3.org/2000/svg"
   xmlns:sodipodi="http://sodipodi.sourceforge.net/DTD/sodipodi-0.dtd"
   xmlns:inkscape="http://www.inkscape.org/namespaces/inkscape"
   width="512"
   height="512"
   viewBox="0 0 512 512"
   fill="#000000"
   id="svg2"
   version="1.1"
   inkscape:version="0.48.2 r9819"
   sodipodi:docname="im_mobile.svg">
  <metadata
     id="metadata73">
    <rdf:RDF>
      <cc:Work
         rdf:about="">
        <dc:format>image/svg+xml</dc:format>
        <dc:type
           rdf:resource="http://purl.org/dc/dcmitype/StillImage" />
      </cc:Work>
    </rdf:RDF>
  </metadata>
  <defs
     id="defs71" />
  <sodipodi:namedview
     pagecolor="#ffffff"
     bordercolor="#666666"
     borderopacity="1"
     objecttolerance="10"
     gridtolerance="10"
     guidetolerance="10"
     inkscape:pageopacity="0"
     inkscape:pageshadow="2"
     inkscape:window-width="640"
     inkscape:window-height="480"
     id="namedview69"
     showgrid="false"
     inkscape:zoom="0.4609375"
     inkscape:cx="256"
     inkscape:cy="256"
     inkscape:window-x="0"
     inkscape:window-y="0"
     inkscape:window-maximized="0"
     inkscape:current-layer="svg2" />
  <path
     d="M 368.00,0.00L 144.00,0.00 c-26.40,0.00-48.00,21.60-48.00,48.00l0.00,416.00 c0.00,26.40, 21.60,48.00, 48.00,48.00l 224.00,0.00 c 26.40,0.00, 48.00-21.60, 48.00-48.00L 416.00,48.00 C 416.00,21.60, 394.40,0.00, 368.00,0.00z M 192.00,24.00 l 128.00,0.00 l0.00,16.00 L 192.00,40.00 L 192.00,24.00 z M 256.00,480.00c-17.673,0.00-32.00-14.327-32.00-32.00s 14.327-32.00, 32.00-32.00s 32.00,14.327, 32.00,32.00S 273.673,480.00, 256.00,480.00z M 384.00,384.00L 128.00,384.00 L 128.00,64.00 l 256.00,0.00 L 384.00,384.00 z"
     id="path67" />
</svg>
