<?xml version="1.0" encoding="UTF-8" standalone="no"?>
<!-- Generator: IcoMoon.io -->

<svg
   xmlns:dc="http://purl.org/dc/elements/1.1/"
   xmlns:cc="http://creativecommons.org/ns#"
   xmlns:rdf="http://www.w3.org/1999/02/22-rdf-syntax-ns#"
   xmlns:svg="http://www.w3.org/2000/svg"
   xmlns="http://www.w3.org/2000/svg"
   xmlns:sodipodi="http://sodipodi.sourceforge.net/DTD/sodipodi-0.dtd"
   xmlns:inkscape="http://www.inkscape.org/namespaces/inkscape"
   width="512"
   height="512"
   viewBox="0 0 512 512"
   fill="#000000"
   id="svg2"
   version="1.1"
   inkscape:version="0.48.2 r9819"
   sodipodi:docname="im_numbered-list.svg">
  <metadata
     id="metadata73">
    <rdf:RDF>
      <cc:Work
         rdf:about="">
        <dc:format>image/svg+xml</dc:format>
        <dc:type
           rdf:resource="http://purl.org/dc/dcmitype/StillImage" />
      </cc:Work>
    </rdf:RDF>
  </metadata>
  <defs
     id="defs71" />
  <sodipodi:namedview
     pagecolor="#ffffff"
     bordercolor="#666666"
     borderopacity="1"
     objecttolerance="10"
     gridtolerance="10"
     guidetolerance="10"
     inkscape:pageopacity="0"
     inkscape:pageshadow="2"
     inkscape:window-width="640"
     inkscape:window-height="480"
     id="namedview69"
     showgrid="false"
     inkscape:zoom="0.4609375"
     inkscape:cx="256"
     inkscape:cy="256"
     inkscape:window-x="250"
     inkscape:window-y="250"
     inkscape:window-maximized="0"
     inkscape:current-layer="svg2" />
  <path
     d="M 192.00,416.00L 512.00,416.00L 512.00,480.00L 192.00,480.00zM 192.00,224.00L 512.00,224.00L 512.00,288.00L 192.00,288.00zM 192.00,32.00L 512.00,32.00L 512.00,96.00L 192.00,96.00zM 96.00,0.00 L 96.00,128.00 L 64.00,128.00 L 64.00,32.00 L 32.00,32.00 L 32.00,0.00 ZM 64.00,263.00 L 64.00,288.00 L 128.00,288.00 L 128.00,320.00 L 32.00,320.00 L 32.00,247.00 L 96.00,217.00 L 96.00,192.00 L 32.00,192.00 L 32.00,160.00 L 128.00,160.00 L 128.00,233.00 ZM 128.00,352.00 L 128.00,512.00 L 32.00,512.00 L 32.00,480.00 L 96.00,480.00 L 96.00,448.00 L 32.00,448.00 L 32.00,416.00 L 96.00,416.00 L 96.00,384.00 L 32.00,384.00 L 32.00,352.00 Z"
     id="path67" />
</svg>
