<?xml version="1.0" encoding="UTF-8" standalone="no"?>
<!-- Generator: IcoMoon.io -->

<svg
   xmlns:dc="http://purl.org/dc/elements/1.1/"
   xmlns:cc="http://creativecommons.org/ns#"
   xmlns:rdf="http://www.w3.org/1999/02/22-rdf-syntax-ns#"
   xmlns:svg="http://www.w3.org/2000/svg"
   xmlns="http://www.w3.org/2000/svg"
   xmlns:sodipodi="http://sodipodi.sourceforge.net/DTD/sodipodi-0.dtd"
   xmlns:inkscape="http://www.inkscape.org/namespaces/inkscape"
   width="512"
   height="512"
   viewBox="0 0 512 512"
   fill="#000000"
   id="svg2"
   version="1.1"
   inkscape:version="0.48.2 r9819"
   sodipodi:docname="im_omega.svg">
  <metadata
     id="metadata73">
    <rdf:RDF>
      <cc:Work
         rdf:about="">
        <dc:format>image/svg+xml</dc:format>
        <dc:type
           rdf:resource="http://purl.org/dc/dcmitype/StillImage" />
      </cc:Work>
    </rdf:RDF>
  </metadata>
  <defs
     id="defs71" />
  <sodipodi:namedview
     pagecolor="#ffffff"
     bordercolor="#666666"
     borderopacity="1"
     objecttolerance="10"
     gridtolerance="10"
     guidetolerance="10"
     inkscape:pageopacity="0"
     inkscape:pageshadow="2"
     inkscape:window-width="640"
     inkscape:window-height="480"
     id="namedview69"
     showgrid="false"
     inkscape:zoom="0.4609375"
     inkscape:cx="256"
     inkscape:cy="256"
     inkscape:window-x="0"
     inkscape:window-y="0"
     inkscape:window-maximized="0"
     inkscape:current-layer="svg2" />
  <path
     d="M 352.00,448.00 L 480.00,448.00 L 512.00,384.00 L 512.00,512.00 L 320.00,512.00 L 320.00,404.893 C 385.556,376.651 432.00,306.312 432.00,224.00 C 432.00,116.784 353.201,32.867 256.00,32.867 C 158.797,32.867 80.00,116.783 80.00,224.00 C 80.00,306.312 126.443,376.651 192.00,404.893 L 192.00,512.00 L 0.00,512.00 L 0.00,384.00 L 32.00,448.00 L 160.00,448.00 L 160.00,431.705 C 66.185,398.475 0.00,318.004 0.00,224.00 C 0.00,100.288 114.615,0.00 256.00,0.00 C 397.385,0.00 512.00,100.288 512.00,224.00 C 512.00,318.004 445.815,398.475 352.00,431.705 L 352.00,448.00 Z"
     id="path67" />
</svg>
