<?xml version="1.0" encoding="UTF-8" standalone="no"?>
<!-- Generator: IcoMoon.io -->

<svg
   xmlns:dc="http://purl.org/dc/elements/1.1/"
   xmlns:cc="http://creativecommons.org/ns#"
   xmlns:rdf="http://www.w3.org/1999/02/22-rdf-syntax-ns#"
   xmlns:svg="http://www.w3.org/2000/svg"
   xmlns="http://www.w3.org/2000/svg"
   xmlns:sodipodi="http://sodipodi.sourceforge.net/DTD/sodipodi-0.dtd"
   xmlns:inkscape="http://www.inkscape.org/namespaces/inkscape"
   width="512"
   height="512"
   viewBox="0 0 512 512"
   fill="#000000"
   id="svg2"
   version="1.1"
   inkscape:version="0.48.2 r9819"
   sodipodi:docname="im_play.svg">
  <metadata
     id="metadata73">
    <rdf:RDF>
      <cc:Work
         rdf:about="">
        <dc:format>image/svg+xml</dc:format>
        <dc:type
           rdf:resource="http://purl.org/dc/dcmitype/StillImage" />
      </cc:Work>
    </rdf:RDF>
  </metadata>
  <defs
     id="defs71" />
  <sodipodi:namedview
     pagecolor="#ffffff"
     bordercolor="#666666"
     borderopacity="1"
     objecttolerance="10"
     gridtolerance="10"
     guidetolerance="10"
     inkscape:pageopacity="0"
     inkscape:pageshadow="2"
     inkscape:window-width="640"
     inkscape:window-height="480"
     id="namedview69"
     showgrid="false"
     inkscape:zoom="0.4609375"
     inkscape:cx="256"
     inkscape:cy="256"
     inkscape:window-x="175"
     inkscape:window-y="175"
     inkscape:window-maximized="0"
     inkscape:current-layer="svg2" />
  <path
     d="M 490.594,80.054C 418.778,69.729, 339.428,64.00, 256.001,64.00c-83.43,0.00-162.778,5.729-234.597,16.054 C 7.639,133.917,0.00,193.429,0.00,256.00c0.00,62.57, 7.639,122.083, 21.404,175.945C 93.223,442.271, 172.572,448.00, 256.001,448.00 c 83.427,0.00, 162.776-5.729, 234.593-16.055C 504.36,378.083, 512.00,318.57, 512.00,256.00C 512.00,193.429, 504.36,133.917, 490.594,80.054z M 192.001,352.00L 192.001,160.00 l 160.00,96.00L 192.001,352.00z"
     id="path67" />
</svg>
