<?xml version="1.0" encoding="UTF-8" standalone="no"?>
<!-- Generator: IcoMoon.io -->

<svg
   xmlns:dc="http://purl.org/dc/elements/1.1/"
   xmlns:cc="http://creativecommons.org/ns#"
   xmlns:rdf="http://www.w3.org/1999/02/22-rdf-syntax-ns#"
   xmlns:svg="http://www.w3.org/2000/svg"
   xmlns="http://www.w3.org/2000/svg"
   xmlns:sodipodi="http://sodipodi.sourceforge.net/DTD/sodipodi-0.dtd"
   xmlns:inkscape="http://www.inkscape.org/namespaces/inkscape"
   width="512"
   height="512"
   viewBox="0 0 512 512"
   fill="#000000"
   id="svg2"
   version="1.1"
   inkscape:version="0.48.2 r9819"
   sodipodi:docname="im_podcast.svg">
  <metadata
     id="metadata73">
    <rdf:RDF>
      <cc:Work
         rdf:about="">
        <dc:format>image/svg+xml</dc:format>
        <dc:type
           rdf:resource="http://purl.org/dc/dcmitype/StillImage" />
      </cc:Work>
    </rdf:RDF>
  </metadata>
  <defs
     id="defs71" />
  <sodipodi:namedview
     pagecolor="#ffffff"
     bordercolor="#666666"
     borderopacity="1"
     objecttolerance="10"
     gridtolerance="10"
     guidetolerance="10"
     inkscape:pageopacity="0"
     inkscape:pageshadow="2"
     inkscape:window-width="640"
     inkscape:window-height="480"
     id="namedview69"
     showgrid="false"
     inkscape:zoom="0.4609375"
     inkscape:cx="256"
     inkscape:cy="256"
     inkscape:window-x="0"
     inkscape:window-y="0"
     inkscape:window-maximized="0"
     inkscape:current-layer="svg2" />
  <path
     d="M 512.00,256.00C 512.00,114.615, 397.385,0.00, 256.00,0.00S0.00,114.615,0.00,256.00c0.00,110.027, 69.418,203.832, 166.843,240.034L 160.00,512.00l 192.00,0.00 l-6.843-15.966 C 442.582,459.832, 512.00,366.027, 512.00,256.00z M 243.395,317.413C 231.991,312.519, 224.00,301.195, 224.00,288.00c0.00-17.673, 14.327-32.00, 32.00-32.00 c 17.673,0.00, 32.00,14.327, 32.00,32.00c0.00,13.195-7.989,24.522-19.393,29.417L 256.00,288.00L 243.395,317.413z M 269.134,318.646 C 298.18,312.587, 320.00,286.845, 320.00,256.00c0.00-35.347-28.653-64.00-64.00-64.00c-35.346,0.00-64.00,28.653-64.00,64.00c0.00,30.846, 21.831,56.561, 50.88,62.614 l-37.312,87.061C 159.953,386.10, 128.00,340.783, 128.00,288.00c0.00-70.692, 57.308-134.00, 128.00-134.00s 128.00,63.308, 128.00,134.00 c0.00,52.783-31.953,98.10-77.568,117.675L 269.134,318.646z M 344.224,493.854l-36.962-86.243C 370.485,386.242, 416.00,326.438, 416.00,256.00 c0.00-88.365-71.634-160.00-160.00-160.00c-88.365,0.00-160.00,71.635-160.00,160.00c0.00,70.438, 45.515,130.242, 108.738,151.611l-36.962,86.243 C 87.979,459.61, 32.083,380.337, 32.083,288.00C 32.083,164.334, 132.334,58.083, 256.00,58.083c 123.666,0.00, 223.917,106.251, 223.917,229.917 C 479.917,380.337, 424.021,459.61, 344.224,493.854z"
     id="path67" />
</svg>
