<?xml version="1.0" encoding="UTF-8" standalone="no"?>
<!-- Generator: IcoMoon.io -->

<svg
   xmlns:dc="http://purl.org/dc/elements/1.1/"
   xmlns:cc="http://creativecommons.org/ns#"
   xmlns:rdf="http://www.w3.org/1999/02/22-rdf-syntax-ns#"
   xmlns:svg="http://www.w3.org/2000/svg"
   xmlns="http://www.w3.org/2000/svg"
   xmlns:sodipodi="http://sodipodi.sourceforge.net/DTD/sodipodi-0.dtd"
   xmlns:inkscape="http://www.inkscape.org/namespaces/inkscape"
   width="512"
   height="512"
   viewBox="0 0 512 512"
   fill="#000000"
   id="svg2"
   version="1.1"
   inkscape:version="0.48.2 r9819"
   sodipodi:docname="im_paypal2.svg">
  <metadata
     id="metadata73">
    <rdf:RDF>
      <cc:Work
         rdf:about="">
        <dc:format>image/svg+xml</dc:format>
        <dc:type
           rdf:resource="http://purl.org/dc/dcmitype/StillImage" />
      </cc:Work>
    </rdf:RDF>
  </metadata>
  <defs
     id="defs71" />
  <sodipodi:namedview
     pagecolor="#ffffff"
     bordercolor="#666666"
     borderopacity="1"
     objecttolerance="10"
     gridtolerance="10"
     guidetolerance="10"
     inkscape:pageopacity="0"
     inkscape:pageshadow="2"
     inkscape:window-width="640"
     inkscape:window-height="480"
     id="namedview69"
     showgrid="false"
     inkscape:zoom="0.4609375"
     inkscape:cx="256"
     inkscape:cy="256"
     inkscape:window-x="0"
     inkscape:window-y="0"
     inkscape:window-maximized="0"
     inkscape:current-layer="svg2" />
  <path
     d="M 440.317,65.387c 12.849,6.288, 24.047,15.243, 32.251,26.241c 17.268,23.15, 22.118,54.686, 14.418,93.733 c-7.78,39.513-25.208,72.867-50.583,97.022c-4.641,4.851-9.611,9.373-14.902,13.54c-27.178,21.401-61.499,32.714-99.254,32.714 l-6.056,0.00 L 202.217,328.637 L 169.935,480.00l-66.212,0.00 l 5.043-23.15l 23.064,0.00 l 32.282-151.363l 94.135,0.00 c 90.125,0.00, 165.469-55.539, 185.629-149.968 C 466.737,48.602, 390.077,0.00, 324.171,0.00L 99.532,0.00 L0.00,456.85l 76.016,0.00 L 64.00,512.00l 131.83,0.00 l 32.282-151.363l 94.135,0.00 c 90.125,0.00, 165.469-55.539, 185.629-149.968C 524.734,131.829, 487.474,84.703, 440.317,65.387z M 320.131,155.519 c-6.862,29.53-32.214,54.02-60.328,60.684l 15.369-68.011l 46.493,0.00 C 321.301,150.595, 320.804,153.037, 320.131,155.519z M 211.172,93.041 l 64.566,0.00 c 18.38,0.00, 33.254,9.002, 40.935,23.15l-67.077,0.00 l-23.008,101.815l-43.656,0.00 L 211.172,93.041z"
     id="path67" />
</svg>
