<?xml version="1.0" encoding="UTF-8" standalone="no"?>
<!-- Generator: IcoMoon.io -->

<svg
   xmlns:dc="http://purl.org/dc/elements/1.1/"
   xmlns:cc="http://creativecommons.org/ns#"
   xmlns:rdf="http://www.w3.org/1999/02/22-rdf-syntax-ns#"
   xmlns:svg="http://www.w3.org/2000/svg"
   xmlns="http://www.w3.org/2000/svg"
   xmlns:sodipodi="http://sodipodi.sourceforge.net/DTD/sodipodi-0.dtd"
   xmlns:inkscape="http://www.inkscape.org/namespaces/inkscape"
   width="512"
   height="512"
   viewBox="0 0 512 512"
   fill="#000000"
   id="svg2"
   version="1.1"
   inkscape:version="0.48.2 r9819"
   sodipodi:docname="im_picassa.svg">
  <metadata
     id="metadata73">
    <rdf:RDF>
      <cc:Work
         rdf:about="">
        <dc:format>image/svg+xml</dc:format>
        <dc:type
           rdf:resource="http://purl.org/dc/dcmitype/StillImage" />
      </cc:Work>
    </rdf:RDF>
  </metadata>
  <defs
     id="defs71" />
  <sodipodi:namedview
     pagecolor="#ffffff"
     bordercolor="#666666"
     borderopacity="1"
     objecttolerance="10"
     gridtolerance="10"
     guidetolerance="10"
     inkscape:pageopacity="0"
     inkscape:pageshadow="2"
     inkscape:window-width="640"
     inkscape:window-height="480"
     id="namedview69"
     showgrid="false"
     inkscape:zoom="0.4609375"
     inkscape:cx="256"
     inkscape:cy="256"
     inkscape:window-x="0"
     inkscape:window-y="0"
     inkscape:window-maximized="0"
     inkscape:current-layer="svg2" />
  <path
     d="M 352.00,197.13 L 169.772,14.902 C 196.717,5.264 225.742,0.00 256.00,0.00 C 289.952,0.00 322.352,6.625 352.00,18.628 L 352.00,197.13 ZM 384.00,352.00 L 384.00,34.257 C 460.517,78.521 512.00,161.246 512.00,256.00 C 512.00,289.952 505.375,322.352 493.372,352.00 L 384.00,352.00 ZM 160.00,384.00 L 477.743,384.00 C 433.479,460.517 350.754,512.00 256.00,512.00 C 222.048,512.00 189.648,505.375 160.00,493.372 L 160.00,384.00 ZM 213.13,112.00 L 7.489,317.641 C 2.607,297.896 0.00,277.254 0.00,256.00 C 0.00,159.309 53.613,75.149 132.726,31.596 L 213.13,112.00 ZM 128.00,250.87 L 128.00,477.743 C 80.702,450.382 42.982,408.319 21.063,357.807 L 128.00,250.87 Z"
     id="path67" />
</svg>
