<?xml version="1.0" encoding="UTF-8" standalone="no"?>
<!-- Generator: IcoMoon.io -->

<svg
   xmlns:dc="http://purl.org/dc/elements/1.1/"
   xmlns:cc="http://creativecommons.org/ns#"
   xmlns:rdf="http://www.w3.org/1999/02/22-rdf-syntax-ns#"
   xmlns:svg="http://www.w3.org/2000/svg"
   xmlns="http://www.w3.org/2000/svg"
   xmlns:sodipodi="http://sodipodi.sourceforge.net/DTD/sodipodi-0.dtd"
   xmlns:inkscape="http://www.inkscape.org/namespaces/inkscape"
   width="512"
   height="512"
   viewBox="0 0 512 512"
   fill="#000000"
   id="svg2"
   version="1.1"
   inkscape:version="0.48.2 r9819"
   sodipodi:docname="im_paste3.svg">
  <metadata
     id="metadata73">
    <rdf:RDF>
      <cc:Work
         rdf:about="">
        <dc:format>image/svg+xml</dc:format>
        <dc:type
           rdf:resource="http://purl.org/dc/dcmitype/StillImage" />
      </cc:Work>
    </rdf:RDF>
  </metadata>
  <defs
     id="defs71" />
  <sodipodi:namedview
     pagecolor="#ffffff"
     bordercolor="#666666"
     borderopacity="1"
     objecttolerance="10"
     gridtolerance="10"
     guidetolerance="10"
     inkscape:pageopacity="0"
     inkscape:pageshadow="2"
     inkscape:window-width="640"
     inkscape:window-height="480"
     id="namedview69"
     showgrid="false"
     inkscape:zoom="0.4609375"
     inkscape:cx="256"
     inkscape:cy="256"
     inkscape:window-x="0"
     inkscape:window-y="0"
     inkscape:window-maximized="0"
     inkscape:current-layer="svg2" />
  <path
     d="M 352.00,64.00l-64.00,0.00 L 288.00,32.00 c0.00-17.60-14.40-32.00-32.00-32.00l-64.00,0.00 c-17.602,0.00-32.00,14.40-32.00,32.00l0.00,32.00 L 96.00,64.00 l0.00,64.00 l 256.00,0.00 L 352.00,64.00 z M 256.00,64.00l-64.00,0.00 L 192.00,32.057 c 0.017-0.019, 0.036-0.039, 0.057-0.057l 63.884,0.00 c 0.021,0.018, 0.041,0.038, 0.059,0.057L 256.00,64.00 zM 416.00,160.00L 416.00,80.00 c0.00-8.80-7.20-16.00-16.00-16.00l-32.00,0.00 l0.00,32.00 l 16.00,0.00 l0.00,64.00 l-96.00,0.00 l-96.00,96.00l0.00,128.00 L 64.00,384.00 L 64.00,96.00 l 16.00,0.00 L 80.00,64.00 L 48.00,64.00 c-8.801,0.00-16.00,7.20-16.00,16.00l0.00,320.00 c0.00,8.80, 7.199,16.00, 16.00,16.00l 144.00,0.00 l0.00,96.00 l 320.00,0.00 L 512.00,160.00 L 416.00,160.00 z M 288.00,205.255L 288.00,256.00 l-50.745,0.00 L 288.00,205.255z M 480.00,480.00L 224.00,480.00 L 224.00,288.00 l 96.00,0.00 l0.00-96.00 l 160.00,0.00 L 480.00,480.00 z"
     id="path67" />
</svg>
