<?xml version="1.0" encoding="UTF-8" standalone="no"?>
<!-- Generator: IcoMoon.io -->

<svg
   xmlns:dc="http://purl.org/dc/elements/1.1/"
   xmlns:cc="http://creativecommons.org/ns#"
   xmlns:rdf="http://www.w3.org/1999/02/22-rdf-syntax-ns#"
   xmlns:svg="http://www.w3.org/2000/svg"
   xmlns="http://www.w3.org/2000/svg"
   xmlns:sodipodi="http://sodipodi.sourceforge.net/DTD/sodipodi-0.dtd"
   xmlns:inkscape="http://www.inkscape.org/namespaces/inkscape"
   width="512"
   height="512"
   viewBox="0 0 512 512"
   fill="#000000"
   id="svg2"
   version="1.1"
   inkscape:version="0.48.2 r9819"
   sodipodi:docname="im_pinterest.svg">
  <metadata
     id="metadata73">
    <rdf:RDF>
      <cc:Work
         rdf:about="">
        <dc:format>image/svg+xml</dc:format>
        <dc:type
           rdf:resource="http://purl.org/dc/dcmitype/StillImage" />
      </cc:Work>
    </rdf:RDF>
  </metadata>
  <defs
     id="defs71" />
  <sodipodi:namedview
     pagecolor="#ffffff"
     bordercolor="#666666"
     borderopacity="1"
     objecttolerance="10"
     gridtolerance="10"
     guidetolerance="10"
     inkscape:pageopacity="0"
     inkscape:pageshadow="2"
     inkscape:window-width="640"
     inkscape:window-height="480"
     id="namedview69"
     showgrid="false"
     inkscape:zoom="0.4609375"
     inkscape:cx="256"
     inkscape:cy="256"
     inkscape:window-x="0"
     inkscape:window-y="0"
     inkscape:window-maximized="0"
     inkscape:current-layer="svg2" />
  <path
     d="M 256.00,0.00C 114.615,0.00,0.00,114.615,0.00,256.00s 114.613,256.00, 256.00,256.00c 141.385,0.00, 256.00-114.615, 256.00-256.00S 397.385,0.00, 256.00,0.00z M 280.822,342.059 c-23.26-1.807-33.021-13.328-51.252-24.404C 219.54,370.243, 207.288,420.663, 171.00,446.998 c-11.202-79.484, 16.447-139.182, 29.285-202.557c-21.892-36.853, 2.635-111.017, 48.81-92.737 c 56.813,22.474-49.20,137.004, 21.966,151.308c 74.31,14.934, 104.644-128.929, 58.571-175.712 c-66.579-67.553-193.799-1.54-178.155,95.178c 3.807,23.646, 28.236,30.819, 9.762,63.451c-42.61-9.446-55.325-43.051-53.688-87.856 c 2.634-73.337, 65.892-124.682, 129.343-131.783c 80.242-8.982, 155.553,29.454, 165.953,104.938 C 414.553,256.423, 366.623,348.693, 280.822,342.059z"
     id="path67" />
</svg>
