<?xml version="1.0" encoding="UTF-8" standalone="no"?>
<!-- Generator: IcoMoon.io -->

<svg
   xmlns:dc="http://purl.org/dc/elements/1.1/"
   xmlns:cc="http://creativecommons.org/ns#"
   xmlns:rdf="http://www.w3.org/1999/02/22-rdf-syntax-ns#"
   xmlns:svg="http://www.w3.org/2000/svg"
   xmlns="http://www.w3.org/2000/svg"
   xmlns:sodipodi="http://sodipodi.sourceforge.net/DTD/sodipodi-0.dtd"
   xmlns:inkscape="http://www.inkscape.org/namespaces/inkscape"
   width="512"
   height="512"
   viewBox="0 0 512 512"
   fill="#000000"
   id="svg2"
   version="1.1"
   inkscape:version="0.48.2 r9819"
   sodipodi:docname="im_paypal3.svg">
  <metadata
     id="metadata73">
    <rdf:RDF>
      <cc:Work
         rdf:about="">
        <dc:format>image/svg+xml</dc:format>
        <dc:type
           rdf:resource="http://purl.org/dc/dcmitype/StillImage" />
      </cc:Work>
    </rdf:RDF>
  </metadata>
  <defs
     id="defs71" />
  <sodipodi:namedview
     pagecolor="#ffffff"
     bordercolor="#666666"
     borderopacity="1"
     objecttolerance="10"
     gridtolerance="10"
     guidetolerance="10"
     inkscape:pageopacity="0"
     inkscape:pageshadow="2"
     inkscape:window-width="640"
     inkscape:window-height="480"
     id="namedview69"
     showgrid="false"
     inkscape:zoom="0.4609375"
     inkscape:cx="256"
     inkscape:cy="256"
     inkscape:window-x="225"
     inkscape:window-y="225"
     inkscape:window-maximized="0"
     inkscape:current-layer="svg2" />
  <path
     d="M 324.171,32.00c 14.166,0.00, 28.459,2.902, 41.333,8.392c 13.542,5.774, 24.662,13.962, 33.052,24.336 c 16.799,20.771, 21.519,49.066, 14.025,84.109c-8.153,38.189-27.199,69.98-55.08,91.935c-27.178,21.401-61.499,32.714-99.254,32.714 l-94.135,0.00 l-25.895,0.00 l-5.401,25.325L 105.935,424.85L 82.986,424.85 l-6.971,0.00 L 39.723,424.85 L 125.311,32.00L 324.171,32.00 M 142.893,250.007l 40.039,0.00 l 61.879,0.00 c 23.718,0.00, 47.747-9.085, 67.659-25.582c 19.41-16.081, 33.137-37.761, 38.698-61.10c 6.951-26.262, 2.315-52.576-12.757-72.277 c-14.588-19.07-37.432-30.007-62.673-30.007l-64.566,0.00 l-25.575,0.00 l-5.638,24.946l-28.241,124.966L 142.893,250.007 M 324.171,0.00L 99.532,0.00 L0.00,456.85l 76.016,0.00 L 64.00,512.00l 131.83,0.00 l 32.282-151.363l 94.135,0.00 c 90.125,0.00, 165.469-55.539, 185.629-149.968 c 16.858-78.84-20.402-125.966-67.559-145.282c 12.849,6.288, 24.047,15.243, 32.251,26.241c 17.268,23.15, 22.118,54.686, 14.418,93.733 c-7.78,39.513-25.208,72.867-50.583,97.022c-4.641,4.851-9.611,9.373-14.902,13.54c-27.178,21.401-61.499,32.714-99.254,32.714 l-6.056,0.00 L 202.217,328.637 L 169.935,480.00l-66.212,0.00 l 5.043-23.15l 23.064,0.00 l 32.282-151.363l 94.135,0.00 c 90.125,0.00, 165.469-55.539, 185.629-149.968 C 466.737,48.602, 390.077,0.00, 324.171,0.00L 324.171,0.00z M 182.932,218.007l 28.241-124.966l 64.566,0.00 c 32.296,0.00, 53.801,27.769, 44.393,62.478 c-8.068,34.72-41.693,62.488-75.32,62.488L 182.932,218.007 L 182.932,218.007z"
     id="path67" />
</svg>
