<?xml version="1.0" encoding="UTF-8" standalone="no"?>
<!-- Generator: IcoMoon.io -->

<svg
   xmlns:dc="http://purl.org/dc/elements/1.1/"
   xmlns:cc="http://creativecommons.org/ns#"
   xmlns:rdf="http://www.w3.org/1999/02/22-rdf-syntax-ns#"
   xmlns:svg="http://www.w3.org/2000/svg"
   xmlns="http://www.w3.org/2000/svg"
   xmlns:sodipodi="http://sodipodi.sourceforge.net/DTD/sodipodi-0.dtd"
   xmlns:inkscape="http://www.inkscape.org/namespaces/inkscape"
   width="512"
   height="512"
   viewBox="0 0 512 512"
   fill="#000000"
   id="svg2"
   version="1.1"
   inkscape:version="0.48.2 r9819"
   sodipodi:docname="im_phone-hang-up.svg">
  <metadata
     id="metadata73">
    <rdf:RDF>
      <cc:Work
         rdf:about="">
        <dc:format>image/svg+xml</dc:format>
        <dc:type
           rdf:resource="http://purl.org/dc/dcmitype/StillImage" />
      </cc:Work>
    </rdf:RDF>
  </metadata>
  <defs
     id="defs71" />
  <sodipodi:namedview
     pagecolor="#ffffff"
     bordercolor="#666666"
     borderopacity="1"
     objecttolerance="10"
     gridtolerance="10"
     guidetolerance="10"
     inkscape:pageopacity="0"
     inkscape:pageshadow="2"
     inkscape:window-width="640"
     inkscape:window-height="480"
     id="namedview69"
     showgrid="false"
     inkscape:zoom="0.4609375"
     inkscape:cx="256"
     inkscape:cy="256"
     inkscape:window-x="225"
     inkscape:window-y="225"
     inkscape:window-maximized="0"
     inkscape:current-layer="svg2" />
  <path
     d="M 508.689,287.997 C 512.691,315.738 515.297,353.693 502.857,368.22 C 482.286,392.242 352.001,392.242 352.001,344.199 C 352.001,320.00 373.429,304.132 352.857,280.11 C 332.621,256.479 296.344,256.095 256.00,256.089 C 215.657,256.095 179.379,256.479 159.143,280.11 C 138.572,304.133 160.00,320.00 160.00,344.199 C 160.00,392.242 29.715,392.242 9.143,368.221 C -3.296,353.694 -0.691,315.739 3.312,287.998 C 6.392,269.479 14.174,249.50 39.086,224.001 C 39.086,224.00 39.087,224.00 39.087,223.999 C 76.456,189.128 133.01,160.63 254.00,160.015 L 254.00,160.00 C 254.672,160.00 255.332,160.005 256.00,160.007 C 256.669,160.005 257.328,160.00 258.00,160.00 L 258.00,160.014 C 378.99,160.629 435.544,189.127 472.913,223.998 C 472.914,223.999 472.914,224.00 472.914,224.00 C 497.826,249.498 505.609,269.477 508.689,287.997 Z"
     id="path67" />
</svg>
