<?xml version="1.0" encoding="UTF-8" standalone="no"?>
<!-- Generator: IcoMoon.io -->

<svg
   xmlns:dc="http://purl.org/dc/elements/1.1/"
   xmlns:cc="http://creativecommons.org/ns#"
   xmlns:rdf="http://www.w3.org/1999/02/22-rdf-syntax-ns#"
   xmlns:svg="http://www.w3.org/2000/svg"
   xmlns="http://www.w3.org/2000/svg"
   xmlns:sodipodi="http://sodipodi.sourceforge.net/DTD/sodipodi-0.dtd"
   xmlns:inkscape="http://www.inkscape.org/namespaces/inkscape"
   width="512"
   height="512"
   viewBox="0 0 512 512"
   fill="#000000"
   id="svg2"
   version="1.1"
   inkscape:version="0.48.2 r9819"
   sodipodi:docname="im_point-up.svg">
  <metadata
     id="metadata73">
    <rdf:RDF>
      <cc:Work
         rdf:about="">
        <dc:format>image/svg+xml</dc:format>
        <dc:type
           rdf:resource="http://purl.org/dc/dcmitype/StillImage" />
      </cc:Work>
    </rdf:RDF>
  </metadata>
  <defs
     id="defs71" />
  <sodipodi:namedview
     pagecolor="#ffffff"
     bordercolor="#666666"
     borderopacity="1"
     objecttolerance="10"
     gridtolerance="10"
     guidetolerance="10"
     inkscape:pageopacity="0"
     inkscape:pageshadow="2"
     inkscape:window-width="640"
     inkscape:window-height="480"
     id="namedview69"
     showgrid="false"
     inkscape:zoom="0.4609375"
     inkscape:cx="256"
     inkscape:cy="256"
     inkscape:window-x="0"
     inkscape:window-y="0"
     inkscape:window-maximized="0"
     inkscape:current-layer="svg2" />
  <path
     d="M 160.00,64.00L 160.00,237.904 C 119.545,226.676, 109.704,221.00, 67.00,221.00c-36.944,0.00-67.00,30.056-67.00,67.00c0.00,36.943 30.056,67.00 67.00,67.00 c 51.986,0.00 75.975,19.361 102.855,57.545c 0.798,1.134 1.581,2.289 2.355,3.455L 128.00,416.00 L 128.00,512.00 l 320.00,0.00 l 0.00-96.00 l-28.502,0.00 c 2.151-31.831, 11.096-40.56, 22.042-51.223c 8.445-8.226, 18.956-18.464, 26.638-37.015C 476.243,308.285, 480.00,282.939, 480.00,248.00l 0.00-24.00 l 0.00-8.49 c 0.00-30.969, -25.634-56.163, -57.143-56.163c-5.235,0.00-10.438,0.712-15.45,2.095c -10.498-9.855, -24.501-15.482, -39.407-15.482 c-5.234,0.00-10.438,0.712-15.449,2.095c -10.499-9.855, -24.503-15.482, -39.408-15.482c-9.018,0.00-17.55,2.071-25.143,5.744L 288.00,64.00 c 0.00-35.347, -28.653-64.00, -64.00-64.00C 188.654,0.00, 160.00,28.653, 160.00,64.00z M 416.00,464.00c0.00,8.836-7.163,16.00-16.00,16.00s -16.00-7.164, -16.00-16.00s 7.163-16.00, 16.00-16.00 S 416.00,455.164, 416.00,464.00z M 256.00,67.00L 256.00,191.734 L 256.00,195.00 l 32.00,0.00 l 0.00-3.266 c 0.00-13.323, 11.279-24.163, 25.143-24.163c 8.685,0.00 16.645,4.234 21.293,11.327 l 8.122,12.394l 12.979-7.149c 3.781-2.083, 8.091-3.184, 12.463-3.184c 8.685,0.00 16.644,4.234 21.291,11.326l 8.122,12.395l 12.98-7.149 c 3.781-2.083, 8.091-3.184, 12.464-3.184c 13.863,0.00 25.143,10.84 25.143,24.163L 448.00,227.00 l0.00,24.00 c0.00,63.281-19.103,76.044-32.975,89.556 c-14.16,13.794-29.992,29.245-33.364,75.444L 214.474,416.00 c -4.132-7.878, -8.632-15.35, -13.545-22.329C 167.00,345.475, 131.156,320.00, 67.00,320.00 c-15.991,0.00, -29.00-15.01, -29.00-31.00s 13.009-30.00, 29.00-30.00c 42.83,0.00 52.706,6.207 93.00,18.48c 11.371,3.062 22.635,5.961 31.667,7.938L 192.00,67.00 c 0.00-17.645, 14.355-32.00, 32.00-32.00C 241.645,35.00, 256.00,49.355, 256.00,67.00z"
     id="path67" />
</svg>
