<?xml version="1.0" encoding="UTF-8" standalone="no"?>
<!-- Generator: IcoMoon.io -->

<svg
   xmlns:dc="http://purl.org/dc/elements/1.1/"
   xmlns:cc="http://creativecommons.org/ns#"
   xmlns:rdf="http://www.w3.org/1999/02/22-rdf-syntax-ns#"
   xmlns:svg="http://www.w3.org/2000/svg"
   xmlns="http://www.w3.org/2000/svg"
   xmlns:sodipodi="http://sodipodi.sourceforge.net/DTD/sodipodi-0.dtd"
   xmlns:inkscape="http://www.inkscape.org/namespaces/inkscape"
   width="512"
   height="512"
   viewBox="0 0 512 512"
   fill="#000000"
   id="svg2"
   version="1.1"
   inkscape:version="0.48.2 r9819"
   sodipodi:docname="im_question.svg">
  <metadata
     id="metadata73">
    <rdf:RDF>
      <cc:Work
         rdf:about="">
        <dc:format>image/svg+xml</dc:format>
        <dc:type
           rdf:resource="http://purl.org/dc/dcmitype/StillImage" />
      </cc:Work>
    </rdf:RDF>
  </metadata>
  <defs
     id="defs71" />
  <sodipodi:namedview
     pagecolor="#ffffff"
     bordercolor="#666666"
     borderopacity="1"
     objecttolerance="10"
     gridtolerance="10"
     guidetolerance="10"
     inkscape:pageopacity="0"
     inkscape:pageshadow="2"
     inkscape:window-width="640"
     inkscape:window-height="480"
     id="namedview69"
     showgrid="false"
     inkscape:zoom="0.4609375"
     inkscape:cx="256"
     inkscape:cy="256"
     inkscape:window-x="0"
     inkscape:window-y="0"
     inkscape:window-maximized="0"
     inkscape:current-layer="svg2" />
  <path
     d="M 224.00,352.00L 288.00,352.00L 288.00,416.00L 224.00,416.00zM 352.00,128.00 C 369.673,128.00 384.00,142.327 384.00,160.00 L 384.00,256.00 L 288.00,320.00 L 224.00,320.00 L 224.00,288.00 L 320.00,224.00 L 320.00,192.00 L 160.00,192.00 L 160.00,128.00 L 352.00,128.00 ZM 256.00,48.00 C 200.441,48.00 148.208,69.636 108.922,108.922 C 69.636,148.208 48.00,200.441 48.00,256.00 C 48.00,311.559 69.636,363.792 108.922,403.078 C 148.208,442.364 200.441,464.00 256.00,464.00 C 311.559,464.00 363.792,442.364 403.078,403.078 C 442.364,363.792 464.00,311.559 464.00,256.00 C 464.00,200.441 442.364,148.208 403.078,108.922 C 363.792,69.636 311.559,48.00 256.00,48.00 Z M 256.00,0.00 L 256.00,0.00 C 397.385,0.00 512.00,114.615 512.00,256.00 C 512.00,397.385 397.385,512.00 256.00,512.00 C 114.615,512.00 0.00,397.385 0.00,256.00 C 0.00,114.615 114.615,0.00 256.00,0.00 Z"
     id="path67" />
</svg>
