<?xml version="1.0" encoding="UTF-8" standalone="no"?>
<!-- Generator: IcoMoon.io -->

<svg
   xmlns:dc="http://purl.org/dc/elements/1.1/"
   xmlns:cc="http://creativecommons.org/ns#"
   xmlns:rdf="http://www.w3.org/1999/02/22-rdf-syntax-ns#"
   xmlns:svg="http://www.w3.org/2000/svg"
   xmlns="http://www.w3.org/2000/svg"
   xmlns:sodipodi="http://sodipodi.sourceforge.net/DTD/sodipodi-0.dtd"
   xmlns:inkscape="http://www.inkscape.org/namespaces/inkscape"
   width="512"
   height="512"
   viewBox="0 0 512 512"
   fill="#000000"
   id="svg2"
   version="1.1"
   inkscape:version="0.48.2 r9819"
   sodipodi:docname="im_quill.svg">
  <metadata
     id="metadata73">
    <rdf:RDF>
      <cc:Work
         rdf:about="">
        <dc:format>image/svg+xml</dc:format>
        <dc:type
           rdf:resource="http://purl.org/dc/dcmitype/StillImage" />
      </cc:Work>
    </rdf:RDF>
  </metadata>
  <defs
     id="defs71" />
  <sodipodi:namedview
     pagecolor="#ffffff"
     bordercolor="#666666"
     borderopacity="1"
     objecttolerance="10"
     gridtolerance="10"
     guidetolerance="10"
     inkscape:pageopacity="0"
     inkscape:pageshadow="2"
     inkscape:window-width="640"
     inkscape:window-height="480"
     id="namedview69"
     showgrid="false"
     inkscape:zoom="0.4609375"
     inkscape:cx="256"
     inkscape:cy="256"
     inkscape:window-x="0"
     inkscape:window-y="0"
     inkscape:window-maximized="0"
     inkscape:current-layer="svg2" />
  <path
     d="M 192.00,293.333c0.00,0.00, 101.972-61.18, 159.383-37.013c 11.901-18.134, 23.624-37.668, 35.101-57.611 C 330.321,184.949, 256.00,197.333, 256.00,197.333s 95.106-57.061, 153.333-39.20c 11.675-21.054, 23.027-41.821, 33.978-61.152 C 396.923,93.847, 352.00,101.333, 352.00,101.333s 59.574-35.744, 113.289-41.799C 482.188,32.104, 497.874,10.594, 512.00,0.00C 231.50,0.00, 64.00,320.00,0.00,512.00 l 32.00,0.00 l 96.00-160.00c0.00,0.00, 32.00,32.00, 128.00,0.00c 22.737-7.579, 45.474-28.626, 67.786-56.967C 267.478,280.756, 192.00,293.333, 192.00,293.333z"
     id="path67" />
</svg>
