<?xml version="1.0" encoding="UTF-8" standalone="no"?>
<!-- Generator: IcoMoon.io -->

<svg
   xmlns:dc="http://purl.org/dc/elements/1.1/"
   xmlns:cc="http://creativecommons.org/ns#"
   xmlns:rdf="http://www.w3.org/1999/02/22-rdf-syntax-ns#"
   xmlns:svg="http://www.w3.org/2000/svg"
   xmlns="http://www.w3.org/2000/svg"
   xmlns:sodipodi="http://sodipodi.sourceforge.net/DTD/sodipodi-0.dtd"
   xmlns:inkscape="http://www.inkscape.org/namespaces/inkscape"
   width="512"
   height="512"
   viewBox="0 0 512 512"
   fill="#000000"
   id="svg2"
   version="1.1"
   inkscape:version="0.48.2 r9819"
   sodipodi:docname="im_remove2.svg">
  <metadata
     id="metadata73">
    <rdf:RDF>
      <cc:Work
         rdf:about="">
        <dc:format>image/svg+xml</dc:format>
        <dc:type
           rdf:resource="http://purl.org/dc/dcmitype/StillImage" />
      </cc:Work>
    </rdf:RDF>
  </metadata>
  <defs
     id="defs71" />
  <sodipodi:namedview
     pagecolor="#ffffff"
     bordercolor="#666666"
     borderopacity="1"
     objecttolerance="10"
     gridtolerance="10"
     guidetolerance="10"
     inkscape:pageopacity="0"
     inkscape:pageshadow="2"
     inkscape:window-width="640"
     inkscape:window-height="480"
     id="namedview69"
     showgrid="false"
     inkscape:zoom="0.4609375"
     inkscape:cx="256"
     inkscape:cy="256"
     inkscape:window-x="0"
     inkscape:window-y="0"
     inkscape:window-maximized="0"
     inkscape:current-layer="svg2" />
  <path
     d="M 400.00,64.00L 112.00,64.00 c-26.51,0.00-48.00,21.49-48.00,48.00l0.00,16.00 l 384.00,0.00 l0.00-16.00 C 448.00,85.49, 426.51,64.00, 400.00,64.00zM 316.16,32.00l 7.058,50.50L 188.782,82.50 l 7.057-50.50L 316.16,32.00 M 320.00,0.00L 192.00,0.00 c-13.20,0.00-25.495,10.696-27.321,23.769l-9.357,66.962 C 153.495,103.804, 162.80,114.50, 176.00,114.50l 160.00,0.00 c 13.20,0.00, 22.505-10.696, 20.679-23.769l-9.357-66.962C 345.495,10.696, 333.20,0.00, 320.00,0.00L 320.00,0.00z M 408.00,160.00L 104.00,160.00 c-17.60,0.00-30.696,14.341-29.103,31.869l 26.206,288.263C 102.696,497.659, 118.40,512.00, 136.00,512.00l 240.00,0.00 c 17.60,0.00, 33.304-14.341, 34.897-31.868l 26.205-288.263C 438.696,174.341, 425.60,160.00, 408.00,160.00z M 192.00,448.00l-48.00,0.00 l-16.00-224.00l 64.00,0.00 L 192.00,448.00 z M 288.00,448.00l-64.00,0.00 L 224.00,224.00 l 64.00,0.00 L 288.00,448.00 z M 368.00,448.00l-48.00,0.00 L 320.00,224.00 l 64.00,0.00 L 368.00,448.00z"
     id="path67" />
</svg>
