<?xml version="1.0" encoding="UTF-8" standalone="no"?>
<!-- Generator: IcoMoon.io -->

<svg
   xmlns:dc="http://purl.org/dc/elements/1.1/"
   xmlns:cc="http://creativecommons.org/ns#"
   xmlns:rdf="http://www.w3.org/1999/02/22-rdf-syntax-ns#"
   xmlns:svg="http://www.w3.org/2000/svg"
   xmlns="http://www.w3.org/2000/svg"
   xmlns:sodipodi="http://sodipodi.sourceforge.net/DTD/sodipodi-0.dtd"
   xmlns:inkscape="http://www.inkscape.org/namespaces/inkscape"
   width="512"
   height="512"
   viewBox="0 0 512 512"
   fill="#000000"
   id="svg2"
   version="1.1"
   inkscape:version="0.48.2 r9819"
   sodipodi:docname="im_spinner.svg">
  <metadata
     id="metadata73">
    <rdf:RDF>
      <cc:Work
         rdf:about="">
        <dc:format>image/svg+xml</dc:format>
        <dc:type
           rdf:resource="http://purl.org/dc/dcmitype/StillImage" />
      </cc:Work>
    </rdf:RDF>
  </metadata>
  <defs
     id="defs71" />
  <sodipodi:namedview
     pagecolor="#ffffff"
     bordercolor="#666666"
     borderopacity="1"
     objecttolerance="10"
     gridtolerance="10"
     guidetolerance="10"
     inkscape:pageopacity="0"
     inkscape:pageshadow="2"
     inkscape:window-width="640"
     inkscape:window-height="480"
     id="namedview69"
     showgrid="false"
     inkscape:zoom="0.4609375"
     inkscape:cx="256"
     inkscape:cy="256"
     inkscape:window-x="0"
     inkscape:window-y="0"
     inkscape:window-maximized="0"
     inkscape:current-layer="svg2" />
  <path
     d="M 192.00,64.00A64.00,64.00 12600.00 1,0 320.00,64A64.00,64.00 12600.00 1,0 192.00,64zM 327.765,120.235A64.00,64.00 12600.00 1,0 455.765,120.23500000000001A64.00,64.00 12600.00 1,0 327.765,120.23500000000001zM 416.00,256.00A32.00,32.00 12600.00 1,0 480.00,256A32.00,32.00 12600.00 1,0 416.00,256zM 359.765,391.765A32.00,32.00 12600.00 1,0 423.765,391.765A32.00,32.00 12600.00 1,0 359.765,391.765zM 224.001,448.00A32.00,32.00 12600.00 1,0 288.001,448A32.00,32.00 12600.00 1,0 224.001,448zM 88.236,391.765A32.00,32.00 12600.00 1,0 152.236,391.765A32.00,32.00 12600.00 1,0 88.236,391.765zM 72.236,120.235A48.00,48.00 12600.00 1,0 168.236,120.23500000000001A48.00,48.00 12600.00 1,0 72.236,120.23500000000001zM 28.00,256.00A36.00,36.00 12600.00 1,0 100.00,256A36.00,36.00 12600.00 1,0 28.00,256z"
     id="path67" />
</svg>
