<?xml version="1.0" encoding="UTF-8" standalone="no"?>
<!-- Generator: IcoMoon.io -->

<svg
   xmlns:dc="http://purl.org/dc/elements/1.1/"
   xmlns:cc="http://creativecommons.org/ns#"
   xmlns:rdf="http://www.w3.org/1999/02/22-rdf-syntax-ns#"
   xmlns:svg="http://www.w3.org/2000/svg"
   xmlns="http://www.w3.org/2000/svg"
   xmlns:sodipodi="http://sodipodi.sourceforge.net/DTD/sodipodi-0.dtd"
   xmlns:inkscape="http://www.inkscape.org/namespaces/inkscape"
   width="512"
   height="512"
   viewBox="0 0 512 512"
   fill="#000000"
   id="svg2"
   version="1.1"
   inkscape:version="0.48.2 r9819"
   sodipodi:docname="im_spinner5.svg">
  <metadata
     id="metadata73">
    <rdf:RDF>
      <cc:Work
         rdf:about="">
        <dc:format>image/svg+xml</dc:format>
        <dc:type
           rdf:resource="http://purl.org/dc/dcmitype/StillImage" />
      </cc:Work>
    </rdf:RDF>
  </metadata>
  <defs
     id="defs71" />
  <sodipodi:namedview
     pagecolor="#ffffff"
     bordercolor="#666666"
     borderopacity="1"
     objecttolerance="10"
     gridtolerance="10"
     guidetolerance="10"
     inkscape:pageopacity="0"
     inkscape:pageshadow="2"
     inkscape:window-width="640"
     inkscape:window-height="480"
     id="namedview69"
     showgrid="false"
     inkscape:zoom="0.4609375"
     inkscape:cx="256"
     inkscape:cy="256"
     inkscape:window-x="0"
     inkscape:window-y="0"
     inkscape:window-maximized="0"
     inkscape:current-layer="svg2" />
  <path
     d="M 256.00,0.00 C 116.626,0.00 3.271,111.381 0.076,249.987 C 3.036,129.055 94.992,32.00 208.00,32.00 C 322.875,32.00 416.00,132.288 416.00,256.00 C 416.00,282.51 437.49,304.00 464.00,304.00 C 490.51,304.00 512.00,282.51 512.00,256.00 C 512.00,114.615 397.385,0.00 256.00,0.00 ZM 256.00,512.00 C 395.374,512.00 508.729,400.619 511.924,262.013 C 508.964,382.945 417.008,480.00 304.00,480.00 C 189.125,480.00 96.00,379.712 96.00,256.00 C 96.00,229.49 74.51,208.00 48.00,208.00 C 21.49,208.00 0.00,229.49 0.00,256.00 C 0.00,397.385 114.615,512.00 256.00,512.00 Z"
     id="path67" />
</svg>
