<?xml version="1.0" encoding="UTF-8" standalone="no"?>
<!-- Generator: IcoMoon.io -->

<svg
   xmlns:dc="http://purl.org/dc/elements/1.1/"
   xmlns:cc="http://creativecommons.org/ns#"
   xmlns:rdf="http://www.w3.org/1999/02/22-rdf-syntax-ns#"
   xmlns:svg="http://www.w3.org/2000/svg"
   xmlns="http://www.w3.org/2000/svg"
   xmlns:sodipodi="http://sodipodi.sourceforge.net/DTD/sodipodi-0.dtd"
   xmlns:inkscape="http://www.inkscape.org/namespaces/inkscape"
   width="512"
   height="512"
   viewBox="0 0 512 512"
   fill="#000000"
   id="svg2"
   version="1.1"
   inkscape:version="0.48.2 r9819"
   sodipodi:docname="im_support.svg">
  <metadata
     id="metadata73">
    <rdf:RDF>
      <cc:Work
         rdf:about="">
        <dc:format>image/svg+xml</dc:format>
        <dc:type
           rdf:resource="http://purl.org/dc/dcmitype/StillImage" />
      </cc:Work>
    </rdf:RDF>
  </metadata>
  <defs
     id="defs71" />
  <sodipodi:namedview
     pagecolor="#ffffff"
     bordercolor="#666666"
     borderopacity="1"
     objecttolerance="10"
     gridtolerance="10"
     guidetolerance="10"
     inkscape:pageopacity="0"
     inkscape:pageshadow="2"
     inkscape:window-width="640"
     inkscape:window-height="480"
     id="namedview69"
     showgrid="false"
     inkscape:zoom="0.4609375"
     inkscape:cx="256"
     inkscape:cy="256"
     inkscape:window-x="150"
     inkscape:window-y="150"
     inkscape:window-maximized="0"
     inkscape:current-layer="svg2" />
  <path
     d="M 256.00,0.00C 114.615,0.00,0.00,114.615,0.00,256.00s 114.615,256.00, 256.00,256.00s 256.00-114.615, 256.00-256.00S 397.385,0.00, 256.00,0.00z M 160.00,256.00 c0.00-53.02, 42.98-96.00, 96.00-96.00s 96.00,42.98, 96.00,96.00s-42.98,96.00-96.00,96.00S 160.00,309.02, 160.00,256.00z M 462.99,341.738L 462.99,341.738l-88.71-36.745 C 380.539,289.901, 384.00,273.355, 384.00,256.00s-3.461-33.901-9.72-48.993l 61.063-25.293l 27.647-11.452C 473.944,196.673, 480.00,225.627, 480.00,256.00 C 480.00,286.373, 473.943,315.327, 462.99,341.738L 462.99,341.738z M 341.739,49.01L 341.739,49.01L 341.739,49.01l-36.745,88.71 C 289.902,131.461, 273.356,128.00, 256.00,128.00s-33.901,3.461-48.993,9.72l-17.23-41.599l-19.515-47.112C 196.673,38.057, 225.628,32.00, 256.00,32.00 C 286.373,32.00, 315.327,38.057, 341.739,49.01z M 49.01,170.262l 47.112,19.515l 41.599,17.23C 131.462,222.099, 128.00,238.645, 128.00,256.00 s 3.461,33.901, 9.72,48.993l-88.71,36.745C 38.057,315.327, 32.00,286.373, 32.00,256.00C 32.00,225.627, 38.057,196.673, 49.01,170.262z M 170.262,462.99l 11.452-27.647l 25.293-61.063C 222.099,380.539, 238.645,384.00, 256.00,384.00s 33.901-3.461, 48.993-9.72l 36.745,88.71l0.00,0.00l0.00,0.00 C 315.327,473.942, 286.373,480.00, 256.00,480.00C 225.628,480.00, 196.673,473.943, 170.262,462.99z"
     id="path67" />
</svg>
