<?xml version="1.0" encoding="UTF-8" standalone="no"?>
<!-- Generator: IcoMoon.io -->

<svg
   xmlns:dc="http://purl.org/dc/elements/1.1/"
   xmlns:cc="http://creativecommons.org/ns#"
   xmlns:rdf="http://www.w3.org/1999/02/22-rdf-syntax-ns#"
   xmlns:svg="http://www.w3.org/2000/svg"
   xmlns="http://www.w3.org/2000/svg"
   xmlns:sodipodi="http://sodipodi.sourceforge.net/DTD/sodipodi-0.dtd"
   xmlns:inkscape="http://www.inkscape.org/namespaces/inkscape"
   width="512"
   height="512"
   viewBox="0 0 512 512"
   fill="#000000"
   id="svg2"
   version="1.1"
   inkscape:version="0.48.2 r9819"
   sodipodi:docname="im_scissors.svg">
  <metadata
     id="metadata73">
    <rdf:RDF>
      <cc:Work
         rdf:about="">
        <dc:format>image/svg+xml</dc:format>
        <dc:type
           rdf:resource="http://purl.org/dc/dcmitype/StillImage" />
      </cc:Work>
    </rdf:RDF>
  </metadata>
  <defs
     id="defs71" />
  <sodipodi:namedview
     pagecolor="#ffffff"
     bordercolor="#666666"
     borderopacity="1"
     objecttolerance="10"
     gridtolerance="10"
     guidetolerance="10"
     inkscape:pageopacity="0"
     inkscape:pageshadow="2"
     inkscape:window-width="640"
     inkscape:window-height="480"
     id="namedview69"
     showgrid="false"
     inkscape:zoom="0.4609375"
     inkscape:cx="256"
     inkscape:cy="256"
     inkscape:window-x="0"
     inkscape:window-y="0"
     inkscape:window-maximized="0"
     inkscape:current-layer="svg2" />
  <path
     d="M 445.387,354.577c-22.827-22.778-51.864-34.536-78.973-34.536l-14.556,0.00 l-31.952-32.004l 127.81-128.019 c 31.952-32.005, 31.952-96.014,0.00-128.019L 256.001,224.027L 64.285,32.00c-31.952,32.004-31.952,96.014,0.00,128.019l 127.811,128.017 l-31.953,32.004l-14.557,0.00 c-27.11,0.00-56.146,11.759-78.974,34.538c-40.811,40.721-46.325,101.242-12.315,135.175 C 69.282,504.704, 89.441,512.00, 110.795,512.00c 27.108,0.00, 56.145-11.757, 78.973-34.536c 26.792-26.732, 38.371-62.00, 33.542-92.674l 32.692-32.744 l 32.688,32.744c-4.828,30.674, 6.753,65.941, 33.542,92.674C 345.063,500.243, 374.098,512.00, 401.206,512.00 c 21.354,0.00, 41.512-7.296, 56.497-22.248C 491.713,455.819, 486.197,395.298, 445.387,354.577z M 176.512,422.769 c-3.849,8.941-9.505,17.173-16.813,24.463c-7.318,7.302-15.586,12.959-24.574,16.812c-8.066,3.458-16.48,5.284-24.331,5.284 c-7.573,0.00-18.306-1.701-26.431-9.806c-8.068-8.052-9.76-18.659-9.76-26.144c0.00-7.771, 1.821-16.105, 5.263-24.106 c 3.85-8.942, 9.507-17.173, 16.813-24.463c 7.317-7.303, 15.586-12.957, 24.575-16.812c 8.067-3.457, 16.48-5.284, 24.332-5.284 c 7.573,0.00, 18.306,1.70, 26.429,9.807c 8.067,8.049, 9.761,18.658, 9.761,26.142C 181.777,406.433, 179.957,414.77, 176.512,422.769z M 256.002,333.298c-24.957,0.00-45.188-20.266-45.188-45.263c0.00-24.996, 20.231-45.26, 45.188-45.26s 45.186,20.264, 45.186,45.26 C 301.188,313.034, 280.958,333.298, 256.002,333.298z M 427.636,459.521c-8.124,8.104-18.856,9.806-26.43,9.806 c-7.852,0.00-16.265-1.826-24.333-5.284c-8.986-3.853-17.254-9.51-24.571-16.812c-7.307-7.29-12.963-15.521-16.813-24.463 c-3.443-7.999-5.263-16.336-5.263-24.106c0.00-7.483, 1.692-18.094, 9.76-26.143c 8.123-8.104, 18.856-9.807, 26.43-9.807 c 7.85,0.00, 16.265,1.827, 24.33,5.284c 8.989,3.854, 17.258,9.509, 24.575,16.812c 7.305,7.29, 12.962,15.521, 16.813,24.463 c 3.442,7.999, 5.263,16.335, 5.263,24.106C 437.396,440.862, 435.702,451.47, 427.636,459.521z"
     id="path67" />
</svg>
