<?xml version="1.0" encoding="UTF-8" standalone="no"?>
<!-- Generator: IcoMoon.io -->

<svg
   xmlns:dc="http://purl.org/dc/elements/1.1/"
   xmlns:cc="http://creativecommons.org/ns#"
   xmlns:rdf="http://www.w3.org/1999/02/22-rdf-syntax-ns#"
   xmlns:svg="http://www.w3.org/2000/svg"
   xmlns="http://www.w3.org/2000/svg"
   xmlns:sodipodi="http://sodipodi.sourceforge.net/DTD/sodipodi-0.dtd"
   xmlns:inkscape="http://www.inkscape.org/namespaces/inkscape"
   width="512"
   height="512"
   viewBox="0 0 512 512"
   fill="#000000"
   id="svg2"
   version="1.1"
   inkscape:version="0.48.2 r9819"
   sodipodi:docname="im_share.svg">
  <metadata
     id="metadata73">
    <rdf:RDF>
      <cc:Work
         rdf:about="">
        <dc:format>image/svg+xml</dc:format>
        <dc:type
           rdf:resource="http://purl.org/dc/dcmitype/StillImage" />
      </cc:Work>
    </rdf:RDF>
  </metadata>
  <defs
     id="defs71" />
  <sodipodi:namedview
     pagecolor="#ffffff"
     bordercolor="#666666"
     borderopacity="1"
     objecttolerance="10"
     gridtolerance="10"
     guidetolerance="10"
     inkscape:pageopacity="0"
     inkscape:pageshadow="2"
     inkscape:window-width="640"
     inkscape:window-height="480"
     id="namedview69"
     showgrid="false"
     inkscape:zoom="0.4609375"
     inkscape:cx="256"
     inkscape:cy="256"
     inkscape:window-x="0"
     inkscape:window-y="0"
     inkscape:window-maximized="0"
     inkscape:current-layer="svg2" />
  <path
     d="M 432.00,352.00c-22.58,0.00-42.96,9.369-57.506,24.415L 158.992,268.664C 159.649,264.538, 160.00,260.311, 160.00,256.00 s-0.351-8.538-1.008-12.663l 215.502-107.751C 389.04,150.631, 409.42,160.00, 432.00,160.00c 44.183,0.00, 80.00-35.817, 80.00-80.00S 476.183,0.00, 432.00,0.00 s-80.00,35.817-80.00,80.00c0.00,4.311, 0.352,8.538, 1.008,12.663L 137.506,200.415C 122.96,185.37, 102.58,176.00, 80.00,176.00c-44.183,0.00-80.00,35.818-80.00,80.00 c0.00,44.184, 35.817,80.00, 80.00,80.00c 22.58,0.00, 42.96-9.369, 57.506-24.414l 215.502,107.751C 352.352,423.462, 352.00,427.689, 352.00,432.00 c0.00,44.184, 35.817,80.00, 80.00,80.00s 80.00-35.816, 80.00-80.00C 512.00,387.818, 476.183,352.00, 432.00,352.00z"
     id="path67" />
</svg>
