<?xml version="1.0" encoding="UTF-8" standalone="no"?>
<!-- Generator: IcoMoon.io -->

<svg
   xmlns:dc="http://purl.org/dc/elements/1.1/"
   xmlns:cc="http://creativecommons.org/ns#"
   xmlns:rdf="http://www.w3.org/1999/02/22-rdf-syntax-ns#"
   xmlns:svg="http://www.w3.org/2000/svg"
   xmlns="http://www.w3.org/2000/svg"
   xmlns:sodipodi="http://sodipodi.sourceforge.net/DTD/sodipodi-0.dtd"
   xmlns:inkscape="http://www.inkscape.org/namespaces/inkscape"
   width="512"
   height="512"
   viewBox="0 0 512 512"
   fill="#000000"
   id="svg2"
   version="1.1"
   inkscape:version="0.48.2 r9819"
   sodipodi:docname="im_stumbleupon.svg">
  <metadata
     id="metadata73">
    <rdf:RDF>
      <cc:Work
         rdf:about="">
        <dc:format>image/svg+xml</dc:format>
        <dc:type
           rdf:resource="http://purl.org/dc/dcmitype/StillImage" />
      </cc:Work>
    </rdf:RDF>
  </metadata>
  <defs
     id="defs71" />
  <sodipodi:namedview
     pagecolor="#ffffff"
     bordercolor="#666666"
     borderopacity="1"
     objecttolerance="10"
     gridtolerance="10"
     guidetolerance="10"
     inkscape:pageopacity="0"
     inkscape:pageshadow="2"
     inkscape:window-width="640"
     inkscape:window-height="480"
     id="namedview69"
     showgrid="false"
     inkscape:zoom="0.4609375"
     inkscape:cx="256"
     inkscape:cy="256"
     inkscape:window-x="125"
     inkscape:window-y="125"
     inkscape:window-maximized="0"
     inkscape:current-layer="svg2" />
  <path
     d="M 426.00,0.00L 86.00,0.00 C 38.70,0.00,0.00,38.70,0.00,86.00l0.00,340.00 c0.00,47.30, 38.70,86.00, 86.00,86.00l 340.00,0.00 c 47.30,0.00, 86.00-38.70, 86.00-86.00L 512.00,86.00 C 512.00,38.70, 473.30,0.00, 426.00,0.00z M 256.00,160.00 c-17.645,0.00-32.00,14.355-32.00,32.00l0.00,128.00 c0.00,52.936-43.065,96.00-96.00,96.00s-96.00-43.064-96.00-96.00l0.00-64.00 l 64.00,0.00 l0.00,64.00 c0.00,17.645, 14.355,32.00, 32.00,32.00s 32.00-14.355, 32.00-32.00L 160.00,192.00 c0.00-52.935, 43.065-96.00, 96.00-96.00c 52.935,0.00, 96.00,43.065, 96.00,89.00l0.00,31.00 l-41.00,12.00l-23.00-12.00l0.00-31.00 C 288.00,174.355, 273.645,160.00, 256.00,160.00z M 480.00,320.00 c0.00,52.936-43.065,96.00-96.00,96.00s-96.00-43.064-96.00-103.00l0.00-62.00 l 23.00,12.00l 41.00-12.00l0.00,62.00 c0.00,24.645, 14.355,39.00, 32.00,39.00s 32.00-14.355, 32.00-32.00l0.00-64.00 l 64.00,0.00 L 480.00,320.00 z"
     id="path67" />
</svg>
