<?xml version="1.0" encoding="UTF-8" standalone="no"?>
<!-- Generator: IcoMoon.io -->

<svg
   xmlns:dc="http://purl.org/dc/elements/1.1/"
   xmlns:cc="http://creativecommons.org/ns#"
   xmlns:rdf="http://www.w3.org/1999/02/22-rdf-syntax-ns#"
   xmlns:svg="http://www.w3.org/2000/svg"
   xmlns="http://www.w3.org/2000/svg"
   xmlns:sodipodi="http://sodipodi.sourceforge.net/DTD/sodipodi-0.dtd"
   xmlns:inkscape="http://www.inkscape.org/namespaces/inkscape"
   width="512"
   height="512"
   viewBox="0 0 512 512"
   fill="#000000"
   id="svg2"
   version="1.1"
   inkscape:version="0.48.2 r9819"
   sodipodi:docname="im_shuffle.svg">
  <metadata
     id="metadata73">
    <rdf:RDF>
      <cc:Work
         rdf:about="">
        <dc:format>image/svg+xml</dc:format>
        <dc:type
           rdf:resource="http://purl.org/dc/dcmitype/StillImage" />
      </cc:Work>
    </rdf:RDF>
  </metadata>
  <defs
     id="defs71" />
  <sodipodi:namedview
     pagecolor="#ffffff"
     bordercolor="#666666"
     borderopacity="1"
     objecttolerance="10"
     gridtolerance="10"
     guidetolerance="10"
     inkscape:pageopacity="0"
     inkscape:pageshadow="2"
     inkscape:window-width="640"
     inkscape:window-height="480"
     id="namedview69"
     showgrid="false"
     inkscape:zoom="0.4609375"
     inkscape:cx="256"
     inkscape:cy="256"
     inkscape:window-x="0"
     inkscape:window-y="0"
     inkscape:window-maximized="0"
     inkscape:current-layer="svg2" />
  <path
     d="M 512.00,128.00L 384.00,0.00l0.00,96.00 c-65.386,0.00-115.376,15.604-152.825,47.704c-2.625,2.25-5.142,4.55-7.581,6.887 c 13.76,19.082, 24.358,38.758, 33.886,57.545C 281.641,178.935, 316.507,160.00, 384.00,160.00l0.00,96.00 l0.00,0.00 l0.00,96.00 c-108.223,0.00-132.563-48.68-163.378-110.311 c-17.153-34.306-34.89-69.78-67.796-97.985C 115.376,111.604, 65.386,96.00,0.00,96.00l0.00,64.00 c 108.223,0.00, 132.563,48.68, 163.378,110.311 c 17.153,34.306, 34.89,69.78, 67.796,97.985C 268.624,400.396, 318.615,416.00, 384.00,416.00l0.00,96.00 l 128.00-128.00L 384.00,256.00L 512.00,128.00zM0.00,352.00l0.00,64.00 c 65.386,0.00, 115.375-15.604, 152.825-47.704c 2.625-2.249, 5.142-4.55, 7.581-6.888 c-13.76-19.081-24.359-38.758-33.886-57.545C 102.36,333.064, 67.494,352.00,0.00,352.00z"
     id="path67" />
</svg>
