<?xml version="1.0" encoding="UTF-8" standalone="no"?>
<!-- Generator: IcoMoon.io -->

<svg
   xmlns:dc="http://purl.org/dc/elements/1.1/"
   xmlns:cc="http://creativecommons.org/ns#"
   xmlns:rdf="http://www.w3.org/1999/02/22-rdf-syntax-ns#"
   xmlns:svg="http://www.w3.org/2000/svg"
   xmlns="http://www.w3.org/2000/svg"
   xmlns:sodipodi="http://sodipodi.sourceforge.net/DTD/sodipodi-0.dtd"
   xmlns:inkscape="http://www.inkscape.org/namespaces/inkscape"
   width="512"
   height="512"
   viewBox="0 0 512 512"
   fill="#000000"
   id="svg2"
   version="1.1"
   inkscape:version="0.48.2 r9819"
   sodipodi:docname="im_stopwatch.svg">
  <metadata
     id="metadata73">
    <rdf:RDF>
      <cc:Work
         rdf:about="">
        <dc:format>image/svg+xml</dc:format>
        <dc:type
           rdf:resource="http://purl.org/dc/dcmitype/StillImage" />
      </cc:Work>
    </rdf:RDF>
  </metadata>
  <defs
     id="defs71" />
  <sodipodi:namedview
     pagecolor="#ffffff"
     bordercolor="#666666"
     borderopacity="1"
     objecttolerance="10"
     gridtolerance="10"
     guidetolerance="10"
     inkscape:pageopacity="0"
     inkscape:pageshadow="2"
     inkscape:window-width="640"
     inkscape:window-height="480"
     id="namedview69"
     showgrid="false"
     inkscape:zoom="0.4609375"
     inkscape:cx="256"
     inkscape:cy="256"
     inkscape:window-x="0"
     inkscape:window-y="0"
     inkscape:window-maximized="0"
     inkscape:current-layer="svg2" />
  <path
     d="M 256.001,96.606L 256.001,64.00 l 64.00,0.00 L 320.001,32.00 c0.00-17.673-14.327-32.00-32.001-32.00l-95.999,0.00 c-17.673,0.00-32.00,14.327-32.00,32.00l0.00,32.00 l 64.00,0.00 l0.00,32.606 c-107.399,8.169-192.00,97.901-192.00,207.394c0.00,114.875, 93.125,208.00, 208.00,208.00c 114.875,0.00, 208.00-93.125, 208.00-208.00 C 448.001,194.508, 363.40,104.776, 256.001,96.606z M 353.138,417.137C 322.917,447.357, 282.739,464.00, 240.001,464.00 s-82.917-16.643-113.137-46.863C 96.644,386.917, 80.001,346.737, 80.001,304.00s 16.643-82.917, 46.863-113.137 c 29.02-29.019, 67.224-45.509, 108.057-46.774l-10.839,157.01C 223.152,314.244, 230.314,320.00, 240.00,320.00 c 9.686,0.00, 16.849-5.756, 15.918-18.901L 245.08,144.088c 40.833,1.266, 79.038,17.756, 108.058,46.775 c 30.22,30.22, 46.863,70.40, 46.863,113.137S 383.358,386.917, 353.138,417.137z"
     id="path67" />
</svg>
