<?xml version="1.0" encoding="UTF-8" standalone="no"?>
<!-- Generator: IcoMoon.io -->

<svg
   xmlns:dc="http://purl.org/dc/elements/1.1/"
   xmlns:cc="http://creativecommons.org/ns#"
   xmlns:rdf="http://www.w3.org/1999/02/22-rdf-syntax-ns#"
   xmlns:svg="http://www.w3.org/2000/svg"
   xmlns="http://www.w3.org/2000/svg"
   xmlns:sodipodi="http://sodipodi.sourceforge.net/DTD/sodipodi-0.dtd"
   xmlns:inkscape="http://www.inkscape.org/namespaces/inkscape"
   width="512"
   height="512"
   viewBox="0 0 512 512"
   fill="#000000"
   id="svg2"
   version="1.1"
   inkscape:version="0.48.2 r9819"
   sodipodi:docname="im_strikethrough.svg">
  <metadata
     id="metadata73">
    <rdf:RDF>
      <cc:Work
         rdf:about="">
        <dc:format>image/svg+xml</dc:format>
        <dc:type
           rdf:resource="http://purl.org/dc/dcmitype/StillImage" />
      </cc:Work>
    </rdf:RDF>
  </metadata>
  <defs
     id="defs71" />
  <sodipodi:namedview
     pagecolor="#ffffff"
     bordercolor="#666666"
     borderopacity="1"
     objecttolerance="10"
     gridtolerance="10"
     guidetolerance="10"
     inkscape:pageopacity="0"
     inkscape:pageshadow="2"
     inkscape:window-width="640"
     inkscape:window-height="480"
     id="namedview69"
     showgrid="false"
     inkscape:zoom="0.4609375"
     inkscape:cx="256"
     inkscape:cy="256"
     inkscape:window-x="100"
     inkscape:window-y="100"
     inkscape:window-maximized="0"
     inkscape:current-layer="svg2" />
  <path
     d="M 512.00,256.00 L 512.00,288.00 L 394.747,288.00 C 408.499,307.255 416.00,329.346 416.00,352.00 C 416.00,387.439 397.67,421.513 365.71,445.482 C 336.031,467.741 297.068,480.00 256.00,480.00 C 214.931,480.00 175.969,467.741 146.29,445.482 C 114.33,421.513 96.00,387.439 96.00,352.00 L 160.00,352.00 C 160.00,386.691 203.963,416.00 256.00,416.00 C 308.037,416.00 352.00,386.691 352.00,352.00 C 352.00,317.309 308.037,288.00 256.00,288.00 L 0.00,288.00 L 0.00,256.00 L 149.759,256.00 C 148.59,255.173 147.431,254.338 146.29,253.482 C 114.33,229.512 96.00,195.439 96.00,160.00 C 96.00,124.561 114.33,90.488 146.29,66.518 C 175.969,44.259 214.931,32.00 256.00,32.00 C 297.068,32.00 336.031,44.259 365.71,66.518 C 397.67,90.488 416.00,124.561 416.00,160.00 L 352.00,160.00 C 352.00,125.309 308.037,96.00 256.00,96.00 C 203.963,96.00 160.00,125.309 160.00,160.00 C 160.00,194.691 203.963,224.00 256.00,224.00 C 295.489,224.00 333.027,235.339 362.241,256.00 L 512.00,256.00 Z"
     id="path67" />
</svg>
