<?xml version="1.0" encoding="UTF-8" standalone="no"?>
<!-- Generator: IcoMoon.io -->

<svg
   xmlns:dc="http://purl.org/dc/elements/1.1/"
   xmlns:cc="http://creativecommons.org/ns#"
   xmlns:rdf="http://www.w3.org/1999/02/22-rdf-syntax-ns#"
   xmlns:svg="http://www.w3.org/2000/svg"
   xmlns="http://www.w3.org/2000/svg"
   xmlns:sodipodi="http://sodipodi.sourceforge.net/DTD/sodipodi-0.dtd"
   xmlns:inkscape="http://www.inkscape.org/namespaces/inkscape"
   width="512"
   height="512"
   viewBox="0 0 512 512"
   fill="#000000"
   id="svg2"
   version="1.1"
   inkscape:version="0.48.2 r9819"
   sodipodi:docname="im_spinner4.svg">
  <metadata
     id="metadata73">
    <rdf:RDF>
      <cc:Work
         rdf:about="">
        <dc:format>image/svg+xml</dc:format>
        <dc:type
           rdf:resource="http://purl.org/dc/dcmitype/StillImage" />
      </cc:Work>
    </rdf:RDF>
  </metadata>
  <defs
     id="defs71" />
  <sodipodi:namedview
     pagecolor="#ffffff"
     bordercolor="#666666"
     borderopacity="1"
     objecttolerance="10"
     gridtolerance="10"
     guidetolerance="10"
     inkscape:pageopacity="0"
     inkscape:pageshadow="2"
     inkscape:window-width="640"
     inkscape:window-height="480"
     id="namedview69"
     showgrid="false"
     inkscape:zoom="0.4609375"
     inkscape:cx="256"
     inkscape:cy="256"
     inkscape:window-x="0"
     inkscape:window-y="0"
     inkscape:window-maximized="0"
     inkscape:current-layer="svg2" />
  <path
     d="M 256.00,0.00C 114.615,0.00,0.00,114.615,0.00,256.00s 114.615,256.00, 256.00,256.00s 256.00-114.615, 256.00-256.00S 397.385,0.00, 256.00,0.00z M 256.00,128.00 c 70.692,0.00, 128.00,57.308, 128.00,128.00s-57.308,128.00-128.00,128.00s-128.00-57.308-128.00-128.00S 185.308,128.00, 256.00,128.00z M 408.735,408.735 C 367.938,449.532, 313.695,472.00, 256.00,472.00c-57.696,0.00-111.938-22.468-152.735-63.265C 62.468,367.938, 40.00,313.696, 40.00,256.00 c0.00-57.695, 22.468-111.938, 63.265-152.735l 33.941,33.941c0.00,0.00,0.00,0.00,0.00,0.00c-65.503,65.503-65.503,172.085,0.00,237.588 C 168.937,406.525, 211.125,424.00, 256.00,424.00c 44.874,0.00, 87.062-17.475, 118.794-49.206c 65.503-65.503, 65.503-172.084,0.00-237.588l 33.941-33.941 C 449.532,144.062, 472.00,198.305, 472.00,256.00C 472.00,313.696, 449.532,367.938, 408.735,408.735z"
     id="path67" />
</svg>
