<?xml version="1.0" encoding="UTF-8" standalone="no"?>
<!-- Generator: IcoMoon.io -->

<svg
   xmlns:dc="http://purl.org/dc/elements/1.1/"
   xmlns:cc="http://creativecommons.org/ns#"
   xmlns:rdf="http://www.w3.org/1999/02/22-rdf-syntax-ns#"
   xmlns:svg="http://www.w3.org/2000/svg"
   xmlns="http://www.w3.org/2000/svg"
   xmlns:sodipodi="http://sodipodi.sourceforge.net/DTD/sodipodi-0.dtd"
   xmlns:inkscape="http://www.inkscape.org/namespaces/inkscape"
   width="512"
   height="512"
   viewBox="0 0 512 512"
   fill="#000000"
   id="svg2"
   version="1.1"
   inkscape:version="0.48.2 r9819"
   sodipodi:docname="im_skype.svg">
  <metadata
     id="metadata73">
    <rdf:RDF>
      <cc:Work
         rdf:about="">
        <dc:format>image/svg+xml</dc:format>
        <dc:type
           rdf:resource="http://purl.org/dc/dcmitype/StillImage" />
      </cc:Work>
    </rdf:RDF>
  </metadata>
  <defs
     id="defs71" />
  <sodipodi:namedview
     pagecolor="#ffffff"
     bordercolor="#666666"
     borderopacity="1"
     objecttolerance="10"
     gridtolerance="10"
     guidetolerance="10"
     inkscape:pageopacity="0"
     inkscape:pageshadow="2"
     inkscape:window-width="640"
     inkscape:window-height="480"
     id="namedview69"
     showgrid="false"
     inkscape:zoom="0.4609375"
     inkscape:cx="256"
     inkscape:cy="256"
     inkscape:window-x="50"
     inkscape:window-y="50"
     inkscape:window-maximized="0"
     inkscape:current-layer="svg2" />
  <path
     d="M 487.655,288.969c 1.406-10.40, 2.215-20.973, 2.215-31.736c0.00-129.155-105.271-233.872-235.103-233.872 c-12.904,0.00-25.555,1.06-37.866,3.08c-22.072-14.384-48.342-22.767-76.612-22.767C 62.766,3.674,0.00,66.482,0.00,143.98 c0.00,28.198, 8.299,54.394, 22.59,76.389c-1.925,12.017-2.909,24.323-2.909,36.859c0.00,129.176, 105.217,233.882, 235.085,233.882 c 14.657,0.00, 28.927-1.427, 42.796-3.933c 21.55,13.369, 46.934,21.148, 74.146,21.148C 449.21,508.326, 512.00,445.502, 512.00,368.012 C 511.997,338.719, 503.04,311.484, 487.655,288.969z M 276.74,429.596c-74.705,3.892-109.664-12.637-141.689-42.691 c-35.765-33.567-21.398-71.854, 7.74-73.801c 29.122-1.944, 46.607,33.013, 62.15,42.736c 15.524,9.688, 74.594,31.76, 105.794-3.908 c 33.976-38.828-22.594-58.92-64.059-65.002c-59.203-8.766-133.95-40.792-128.135-103.907c 5.816-63.074, 53.582-95.414, 103.85-99.976 c 64.077-5.817, 105.791,9.707, 138.785,37.86c 38.15,32.529, 17.508,68.894-6.799,71.82c-24.212,2.909-51.404-53.504-104.791-54.352 c-55.027-0.864-92.217,57.261-24.286,73.784c 67.966,16.505, 140.75,23.286, 166.961,85.417 C 418.49,359.713, 351.507,425.701, 276.74,429.596z"
     id="path67" />
</svg>
