<?xml version="1.0" encoding="UTF-8" standalone="no"?>
<!-- Generator: IcoMoon.io -->

<svg
   xmlns:dc="http://purl.org/dc/elements/1.1/"
   xmlns:cc="http://creativecommons.org/ns#"
   xmlns:rdf="http://www.w3.org/1999/02/22-rdf-syntax-ns#"
   xmlns:svg="http://www.w3.org/2000/svg"
   xmlns="http://www.w3.org/2000/svg"
   xmlns:sodipodi="http://sodipodi.sourceforge.net/DTD/sodipodi-0.dtd"
   xmlns:inkscape="http://www.inkscape.org/namespaces/inkscape"
   width="512"
   height="512"
   viewBox="0 0 512 512"
   fill="#000000"
   id="svg2"
   version="1.1"
   inkscape:version="0.48.2 r9819"
   sodipodi:docname="im_spinner3.svg">
  <metadata
     id="metadata73">
    <rdf:RDF>
      <cc:Work
         rdf:about="">
        <dc:format>image/svg+xml</dc:format>
        <dc:type
           rdf:resource="http://purl.org/dc/dcmitype/StillImage" />
      </cc:Work>
    </rdf:RDF>
  </metadata>
  <defs
     id="defs71" />
  <sodipodi:namedview
     pagecolor="#ffffff"
     bordercolor="#666666"
     borderopacity="1"
     objecttolerance="10"
     gridtolerance="10"
     guidetolerance="10"
     inkscape:pageopacity="0"
     inkscape:pageshadow="2"
     inkscape:window-width="640"
     inkscape:window-height="480"
     id="namedview69"
     showgrid="false"
     inkscape:zoom="0.4609375"
     inkscape:cx="256"
     inkscape:cy="256"
     inkscape:window-x="0"
     inkscape:window-y="0"
     inkscape:window-maximized="0"
     inkscape:current-layer="svg2" />
  <path
     d="M 96.00,256.00c0.00-6.09, 0.352-12.098, 1.015-18.011l-92.49-30.052C 1.567,223.507,0.00,239.569,0.00,256.00 c0.00,73.615, 31.083,139.961, 80.827,186.662l 57.142-78.648C 111.907,335.551, 96.00,297.635, 96.00,256.00zM 416.00,256.00c0.00,41.634-15.906,79.551-41.969,108.014l 57.142,78.648C 480.917,395.961, 512.00,329.615, 512.00,256.00 c0.00-16.431-1.566-32.493-4.524-48.063l-92.49,30.052C 415.648,243.903, 416.00,249.91, 416.00,256.00zM 288.00,99.204c 45.967,9.331, 84.772,38.371, 107.225,77.913l 92.489-30.051C 451.116,69.356, 376.594,13.036, 288.00,1.988L 288.00,99.204 zM 116.775,177.116c 22.453-39.542, 61.258-68.582, 107.225-77.913L 224.00,1.988 C 135.406,13.036, 60.885,69.356, 24.287,147.065 L 116.775,177.116zM 322.278,401.664C 302.083,410.868, 279.642,416.00, 256.00,416.00s-46.083-5.132-66.277-14.335l-57.146,78.655 C 169.18,500.503, 211.245,512.00, 256.00,512.00s 86.82-11.497, 123.424-31.68L 322.278,401.664z"
     id="path67" />
</svg>
