<?xml version="1.0" encoding="UTF-8" standalone="no"?>
<!-- Generator: IcoMoon.io -->

<svg
   xmlns:dc="http://purl.org/dc/elements/1.1/"
   xmlns:cc="http://creativecommons.org/ns#"
   xmlns:rdf="http://www.w3.org/1999/02/22-rdf-syntax-ns#"
   xmlns:svg="http://www.w3.org/2000/svg"
   xmlns="http://www.w3.org/2000/svg"
   xmlns:sodipodi="http://sodipodi.sourceforge.net/DTD/sodipodi-0.dtd"
   xmlns:inkscape="http://www.inkscape.org/namespaces/inkscape"
   width="512"
   height="512"
   viewBox="0 0 512 512"
   fill="#000000"
   id="svg2"
   version="1.1"
   inkscape:version="0.48.2 r9819"
   sodipodi:docname="im_steam2.svg">
  <metadata
     id="metadata73">
    <rdf:RDF>
      <cc:Work
         rdf:about="">
        <dc:format>image/svg+xml</dc:format>
        <dc:type
           rdf:resource="http://purl.org/dc/dcmitype/StillImage" />
      </cc:Work>
    </rdf:RDF>
  </metadata>
  <defs
     id="defs71" />
  <sodipodi:namedview
     pagecolor="#ffffff"
     bordercolor="#666666"
     borderopacity="1"
     objecttolerance="10"
     gridtolerance="10"
     guidetolerance="10"
     inkscape:pageopacity="0"
     inkscape:pageshadow="2"
     inkscape:window-width="640"
     inkscape:window-height="480"
     id="namedview69"
     showgrid="false"
     inkscape:zoom="0.4609375"
     inkscape:cx="256"
     inkscape:cy="256"
     inkscape:window-x="0"
     inkscape:window-y="0"
     inkscape:window-maximized="0"
     inkscape:current-layer="svg2" />
  <path
     d="M 151.961,418.005 C 165.533,418.005 178.854,411.437 186.947,399.297 C 199.814,379.996 194.598,353.92 175.298,341.053 L 142.261,319.029 C 147.915,317.489 153.858,316.651 160.00,316.651 C 197.196,316.651 227.348,346.803 227.348,384.00 C 227.348,421.197 197.195,451.349 159.999,451.349 C 123.797,451.349 94.277,422.783 92.725,386.962 L 128.702,410.946 C 135.863,415.72 143.955,418.005 151.961,418.005 ZM 426.67,0.00 C 473.608,0.00 512.00,38.406 512.00,85.344 L 512.00,426.658 C 512.00,473.626 473.608,512.00 426.67,512.00 L 85.344,512.00 C 38.406,512.00 0.00,473.625 0.00,426.659 L 0.00,325.145 L 60.667,365.589 C 54.841,397.176 64.136,431.004 88.566,455.434 C 128.018,494.886 191.981,494.886 231.434,455.434 C 255.668,431.201 265.009,397.719 259.472,366.351 L 384.001,254.858 L 384.00,254.857 C 407.124,251.538 429.408,240.985 447.197,223.196 C 490.935,179.458 490.935,108.543 447.197,64.804 C 403.457,21.065 332.543,21.065 288.804,64.804 C 271.015,82.593 260.462,104.877 257.143,128.00 L 257.143,128.00 L 154.796,283.115 C 138.872,283.931 123.107,288.497 108.933,296.811 L 0.00,224.189 L 0.00,85.344 C 0.00,38.406 38.405,0.00 85.343,0.00 L 426.67,0.00 ZM 448.00,144.00c0.00-44.183-35.817-80.00-80.00-80.00s-80.00,35.817-80.00,80.00s 35.817,80.00, 80.00,80.00S 448.00,188.183, 448.00,144.00z M 320.00,144.00 c0.00-26.51, 21.49-48.00, 48.00-48.00s 48.00,21.49, 48.00,48.00s-21.49,48.00-48.00,48.00S 320.00,170.51, 320.00,144.00z"
     id="path67" />
</svg>
