<?xml version="1.0" encoding="UTF-8" standalone="no"?>
<!-- Generator: IcoMoon.io -->

<svg
   xmlns:dc="http://purl.org/dc/elements/1.1/"
   xmlns:cc="http://creativecommons.org/ns#"
   xmlns:rdf="http://www.w3.org/1999/02/22-rdf-syntax-ns#"
   xmlns:svg="http://www.w3.org/2000/svg"
   xmlns="http://www.w3.org/2000/svg"
   xmlns:sodipodi="http://sodipodi.sourceforge.net/DTD/sodipodi-0.dtd"
   xmlns:inkscape="http://www.inkscape.org/namespaces/inkscape"
   width="512"
   height="512"
   viewBox="0 0 512 512"
   fill="#000000"
   id="svg2"
   version="1.1"
   inkscape:version="0.48.2 r9819"
   sodipodi:docname="im_steam.svg">
  <metadata
     id="metadata73">
    <rdf:RDF>
      <cc:Work
         rdf:about="">
        <dc:format>image/svg+xml</dc:format>
        <dc:type
           rdf:resource="http://purl.org/dc/dcmitype/StillImage" />
      </cc:Work>
    </rdf:RDF>
  </metadata>
  <defs
     id="defs71" />
  <sodipodi:namedview
     pagecolor="#ffffff"
     bordercolor="#666666"
     borderopacity="1"
     objecttolerance="10"
     gridtolerance="10"
     guidetolerance="10"
     inkscape:pageopacity="0"
     inkscape:pageshadow="2"
     inkscape:window-width="640"
     inkscape:window-height="480"
     id="namedview69"
     showgrid="false"
     inkscape:zoom="0.4609375"
     inkscape:cx="256"
     inkscape:cy="256"
     inkscape:window-x="0"
     inkscape:window-y="0"
     inkscape:window-maximized="0"
     inkscape:current-layer="svg2" />
  <path
     d="M 352.00,144.00A48.00,48.00 1080.00 1,0 448.00,144A48.00,48.00 1080.00 1,0 352.00,144zM 479.196,64.804c-43.739-43.738-114.653-43.738-158.393,0.00c-17.789,17.789-28.342,40.073-31.661,63.196l0.00,0.00 L 186.795,283.114 c-13.753,0.705-27.388,4.208-39.983,10.508L 67.866,231.91c-18.275-14.287-44.671-11.051-58.956,7.224 c-14.286,18.275-11.051,44.671, 7.224,58.956l 77.967,60.946c-8.48,33.391, 0.336,70.269, 26.465,96.397 c 39.453,39.452, 103.416,39.452, 142.868,0.00c 24.233-24.233, 33.575-57.714, 28.038-89.083L 416.00,254.858l-0.001-0.001 c 23.124-3.319, 45.408-13.872, 63.197-31.661C 522.935,179.458, 522.935,108.543, 479.196,64.804z M 192.00,451.349 c-37.195,0.00-67.349-30.152-67.349-67.349c0.00-0.356, 0.021-0.707, 0.027-1.062l 33.456,26.152c 7.68,6.003, 16.791,8.912, 25.837,8.912 c 12.481,0.00, 24.836-5.54, 33.119-16.136c 14.286-18.275, 11.051-44.671-7.224-58.956l-31.75-24.818c 4.481-0.939, 9.124-1.44, 13.884-1.44 c 37.196,0.00, 67.349,30.152, 67.349,67.349S 229.196,451.349, 192.00,451.349z M 400.00,224.00c-44.183,0.00-80.00-35.817-80.00-80.00s 35.817-80.00, 80.00-80.00 s 80.00,35.817, 80.00,80.00S 444.183,224.00, 400.00,224.00z"
     id="path67" />
</svg>
