<?xml version="1.0" encoding="UTF-8" standalone="no"?>
<!-- Generator: IcoMoon.io -->

<svg
   xmlns:dc="http://purl.org/dc/elements/1.1/"
   xmlns:cc="http://creativecommons.org/ns#"
   xmlns:rdf="http://www.w3.org/1999/02/22-rdf-syntax-ns#"
   xmlns:svg="http://www.w3.org/2000/svg"
   xmlns="http://www.w3.org/2000/svg"
   xmlns:sodipodi="http://sodipodi.sourceforge.net/DTD/sodipodi-0.dtd"
   xmlns:inkscape="http://www.inkscape.org/namespaces/inkscape"
   width="512"
   height="512"
   viewBox="0 0 512 512"
   fill="#000000"
   id="svg2"
   version="1.1"
   inkscape:version="0.48.2 r9819"
   sodipodi:docname="im_target.svg">
  <metadata
     id="metadata73">
    <rdf:RDF>
      <cc:Work
         rdf:about="">
        <dc:format>image/svg+xml</dc:format>
        <dc:type
           rdf:resource="http://purl.org/dc/dcmitype/StillImage" />
      </cc:Work>
    </rdf:RDF>
  </metadata>
  <defs
     id="defs71" />
  <sodipodi:namedview
     pagecolor="#ffffff"
     bordercolor="#666666"
     borderopacity="1"
     objecttolerance="10"
     gridtolerance="10"
     guidetolerance="10"
     inkscape:pageopacity="0"
     inkscape:pageshadow="2"
     inkscape:window-width="640"
     inkscape:window-height="480"
     id="namedview69"
     showgrid="false"
     inkscape:zoom="0.4609375"
     inkscape:cx="256"
     inkscape:cy="256"
     inkscape:window-x="0"
     inkscape:window-y="0"
     inkscape:window-maximized="0"
     inkscape:current-layer="svg2" />
  <path
     d="M 512.00,224.00l-50.462,0.00 C 447.718,134.88, 377.12,64.282, 288.00,50.462L 288.00,0.00 l-64.00,0.00 l0.00,50.462 C 134.88,64.282, 64.282,134.88, 50.462,224.00L0.00,224.00 l0.00,64.00 l 50.462,0.00 C 64.282,377.12, 134.88,447.718, 224.00,461.538L 224.00,512.00 l 64.00,0.00 l0.00-50.462 C 377.12,447.718, 447.718,377.12, 461.538,288.00L 512.00,288.00 L 512.00,224.00 z M 396.411,224.00 L 346.53,224.00 c-9.642-27.275-31.255-48.889-58.53-58.53l0.00-49.881 C 341.757,127.834, 384.166,170.244, 396.411,224.00z M 256.00,288.00 c-17.673,0.00-32.00-14.327-32.00-32.00c0.00-17.673, 14.327-32.00, 32.00-32.00c 17.673,0.00, 32.00,14.327, 32.00,32.00C 288.00,273.673, 273.673,288.00, 256.00,288.00z M 224.00,115.589 l0.00,49.881 c-27.275,9.641-48.889,31.255-58.53,58.53l-49.881,0.00 C 127.834,170.244, 170.244,127.834, 224.00,115.589z M 115.589,288.00l 49.881,0.00 c 9.641,27.275, 31.255,48.889, 58.53,58.53l0.00,49.881 C 170.244,384.166, 127.834,341.757, 115.589,288.00z M 288.00,396.411L 288.00,346.53 c 27.275-9.642, 48.889-31.255, 58.53-58.53l 49.881,0.00 C 384.166,341.757, 341.757,384.166, 288.00,396.411z"
     id="path67" />
</svg>
