<?xml version="1.0" encoding="UTF-8" standalone="no"?>
<!-- Generator: IcoMoon.io -->

<svg
   xmlns:dc="http://purl.org/dc/elements/1.1/"
   xmlns:cc="http://creativecommons.org/ns#"
   xmlns:rdf="http://www.w3.org/1999/02/22-rdf-syntax-ns#"
   xmlns:svg="http://www.w3.org/2000/svg"
   xmlns="http://www.w3.org/2000/svg"
   xmlns:sodipodi="http://sodipodi.sourceforge.net/DTD/sodipodi-0.dtd"
   xmlns:inkscape="http://www.inkscape.org/namespaces/inkscape"
   width="512"
   height="512"
   viewBox="0 0 512 512"
   fill="#000000"
   id="svg2"
   version="1.1"
   inkscape:version="0.48.2 r9819"
   sodipodi:docname="im_thumbs-up.svg">
  <metadata
     id="metadata73">
    <rdf:RDF>
      <cc:Work
         rdf:about="">
        <dc:format>image/svg+xml</dc:format>
        <dc:type
           rdf:resource="http://purl.org/dc/dcmitype/StillImage" />
      </cc:Work>
    </rdf:RDF>
  </metadata>
  <defs
     id="defs71" />
  <sodipodi:namedview
     pagecolor="#ffffff"
     bordercolor="#666666"
     borderopacity="1"
     objecttolerance="10"
     gridtolerance="10"
     guidetolerance="10"
     inkscape:pageopacity="0"
     inkscape:pageshadow="2"
     inkscape:window-width="640"
     inkscape:window-height="480"
     id="namedview69"
     showgrid="false"
     inkscape:zoom="0.4609375"
     inkscape:cx="256"
     inkscape:cy="256"
     inkscape:window-x="50"
     inkscape:window-y="50"
     inkscape:window-maximized="0"
     inkscape:current-layer="svg2" />
  <path
     d="M 464.00,288.00 C 500.50,288.00 480.00,384.00 448.00,384.00 C 464.00,384.00 448.00,464.00 416.00,464.00 C 416.00,496.00 384.00,512.00 352.00,512.00 C 216.824,512.00 264.368,478.175 128.00,464.00 L 128.00,208.00 C 248.461,171.866 368.00,81.288 368.00,0.00 C 394.50,0.00 464.00,32.00 368.00,192.00 C 368.00,192.00 448.00,192.00 464.00,192.00 C 512.00,192.00 496.00,288.00 464.00,288.00 ZM 96.00,208.00 L 96.00,464.00 L 128.00,464.00 L 128.00,480.00 L 64.00,480.00 C 46.40,480.00 32.00,458.40 32.00,432.00 L 32.00,240.00 C 32.00,213.60 46.40,192.00 64.00,192.00 L 128.00,192.00 L 128.00,208.00 L 96.00,208.00 Z"
     id="path67" />
</svg>
