<?xml version="1.0" encoding="UTF-8" standalone="no"?>
<!-- Generator: IcoMoon.io -->

<svg
   xmlns:dc="http://purl.org/dc/elements/1.1/"
   xmlns:cc="http://creativecommons.org/ns#"
   xmlns:rdf="http://www.w3.org/1999/02/22-rdf-syntax-ns#"
   xmlns:svg="http://www.w3.org/2000/svg"
   xmlns="http://www.w3.org/2000/svg"
   xmlns:sodipodi="http://sodipodi.sourceforge.net/DTD/sodipodi-0.dtd"
   xmlns:inkscape="http://www.inkscape.org/namespaces/inkscape"
   width="544"
   height="512"
   viewBox="0 0 544 512"
   fill="#000000"
   id="svg2"
   version="1.1"
   inkscape:version="0.48.2 r9819"
   sodipodi:docname="im_tags.svg">
  <metadata
     id="metadata73">
    <rdf:RDF>
      <cc:Work
         rdf:about="">
        <dc:format>image/svg+xml</dc:format>
        <dc:type
           rdf:resource="http://purl.org/dc/dcmitype/StillImage" />
      </cc:Work>
    </rdf:RDF>
  </metadata>
  <defs
     id="defs71" />
  <sodipodi:namedview
     pagecolor="#ffffff"
     bordercolor="#666666"
     borderopacity="1"
     objecttolerance="10"
     gridtolerance="10"
     guidetolerance="10"
     inkscape:pageopacity="0"
     inkscape:pageshadow="2"
     inkscape:window-width="640"
     inkscape:window-height="480"
     id="namedview69"
     showgrid="false"
     inkscape:zoom="0.4609375"
     inkscape:cx="272"
     inkscape:cy="256"
     inkscape:window-x="0"
     inkscape:window-y="0"
     inkscape:window-maximized="0"
     inkscape:current-layer="svg2" />
  <path
     d="M 496.00,32.00L 384.00,32.00 c-26.40,0.00-63.273,15.273-81.941,33.941L 113.941,254.059c-18.667,18.667-18.667,49.214,0.00,67.882l 140.118,140.117 c 18.667,18.668, 49.214,18.668, 67.882,0.00l 188.117-188.117C 528.727,255.273, 544.00,218.40, 544.00,192.00L 544.00,80.00 C 544.00,53.60, 522.40,32.00, 496.00,32.00z M 432.00,192.00 c-26.51,0.00-48.00-21.49-48.00-48.00s 21.49-48.00, 48.00-48.00s 48.00,21.49, 48.00,48.00S 458.51,192.00, 432.00,192.00zM 43.313,299.313 L 214.502,470.502 C 196.37,480.082 173.271,477.271 158.059,462.058 L 17.941,321.941 C -0.726,303.273 -0.726,272.726 17.941,254.059 L 206.059,65.941 C 224.727,47.273 261.60,32.00 288.00,32.00 L 43.313,276.686 C 37.091,282.909 37.091,293.09 43.313,299.313 Z"
     id="path67" />
</svg>
