<?xml version="1.0" encoding="UTF-8" standalone="no"?>
<!-- Generator: IcoMoon.io -->

<svg
   xmlns:dc="http://purl.org/dc/elements/1.1/"
   xmlns:cc="http://creativecommons.org/ns#"
   xmlns:rdf="http://www.w3.org/1999/02/22-rdf-syntax-ns#"
   xmlns:svg="http://www.w3.org/2000/svg"
   xmlns="http://www.w3.org/2000/svg"
   xmlns:sodipodi="http://sodipodi.sourceforge.net/DTD/sodipodi-0.dtd"
   xmlns:inkscape="http://www.inkscape.org/namespaces/inkscape"
   width="512"
   height="512"
   viewBox="0 0 512 512"
   fill="#000000"
   id="svg2"
   version="1.1"
   inkscape:version="0.48.2 r9819"
   sodipodi:docname="im_ticket.svg">
  <metadata
     id="metadata73">
    <rdf:RDF>
      <cc:Work
         rdf:about="">
        <dc:format>image/svg+xml</dc:format>
        <dc:type
           rdf:resource="http://purl.org/dc/dcmitype/StillImage" />
      </cc:Work>
    </rdf:RDF>
  </metadata>
  <defs
     id="defs71" />
  <sodipodi:namedview
     pagecolor="#ffffff"
     bordercolor="#666666"
     borderopacity="1"
     objecttolerance="10"
     gridtolerance="10"
     guidetolerance="10"
     inkscape:pageopacity="0"
     inkscape:pageshadow="2"
     inkscape:window-width="640"
     inkscape:window-height="480"
     id="namedview69"
     showgrid="false"
     inkscape:zoom="0.4609375"
     inkscape:cx="256"
     inkscape:cy="256"
     inkscape:window-x="25"
     inkscape:window-y="25"
     inkscape:window-maximized="0"
     inkscape:current-layer="svg2" />
  <path
     d="M 287.998,160.00L 351.997,223.999L 224.00,351.996L 160.001,287.997zM 500.763,148.752l-36.758-36.758l-16.004,16.004c-8.189,8.19-19.505,13.255-32.00,13.255 c-24.994,0.00-45.257-20.261-45.257-45.255c0.00-12.501, 5.07-23.819, 13.267-32.009l 15.994-15.993l-36.759-36.758 c-14.984-14.984-39.504-14.984-54.488,0.00L 11.238,308.757c-14.983,14.984-14.983,39.505,0.00,54.488l 36.76,36.759l 15.981-15.982 c 8.191-8.203, 19.515-13.276, 32.022-13.276c 24.994,0.00, 45.255,20.262, 45.255,45.255c0.00,12.503-5.07,23.82-13.267,32.011l-15.992,15.993 l 36.758,36.759c 14.983,14.983, 39.504,14.983, 54.488,0.00l 297.52-297.52C 515.745,188.256, 515.745,163.736, 500.763,148.752z M 224.001,415.998l-128.00-128.00l 192.00-192.00l 128.00,128.00L 224.001,415.998z"
     id="path67" />
</svg>
