<?xml version="1.0" encoding="UTF-8" standalone="no"?>
<!-- Generator: IcoMoon.io -->

<svg
   xmlns:dc="http://purl.org/dc/elements/1.1/"
   xmlns:cc="http://creativecommons.org/ns#"
   xmlns:rdf="http://www.w3.org/1999/02/22-rdf-syntax-ns#"
   xmlns:svg="http://www.w3.org/2000/svg"
   xmlns="http://www.w3.org/2000/svg"
   xmlns:sodipodi="http://sodipodi.sourceforge.net/DTD/sodipodi-0.dtd"
   xmlns:inkscape="http://www.inkscape.org/namespaces/inkscape"
   width="512"
   height="512"
   viewBox="0 0 512 512"
   fill="#000000"
   id="svg2"
   version="1.1"
   inkscape:version="0.48.2 r9819"
   sodipodi:docname="twitter3.svg">
  <metadata
     id="metadata73">
    <rdf:RDF>
      <cc:Work
         rdf:about="">
        <dc:format>image/svg+xml</dc:format>
        <dc:type
           rdf:resource="http://purl.org/dc/dcmitype/StillImage" />
      </cc:Work>
    </rdf:RDF>
  </metadata>
  <defs
     id="defs71" />
  <sodipodi:namedview
     pagecolor="#ffffff"
     bordercolor="#666666"
     borderopacity="1"
     objecttolerance="10"
     gridtolerance="10"
     guidetolerance="10"
     inkscape:pageopacity="0"
     inkscape:pageshadow="2"
     inkscape:window-width="640"
     inkscape:window-height="480"
     id="namedview69"
     showgrid="false"
     inkscape:zoom="0.4609375"
     inkscape:cx="256"
     inkscape:cy="256"
     inkscape:window-x="0"
     inkscape:window-y="0"
     inkscape:window-maximized="0"
     inkscape:current-layer="svg2" />
  <path
     d="M 256.00,0.00C 114.615,0.00,0.00,114.615,0.00,256.00s 114.615,256.00, 256.00,256.00s 256.00-114.615, 256.00-256.00S 397.385,0.00, 256.00,0.00z M 403.121,180.544 c 0.146,3.254, 0.221,6.528, 0.221,9.819c0.00,100.311-76.354,215.982-215.979,215.982c-42.868,0.00-82.768-12.568-116.363-34.107 c 5.938,0.704, 11.981,1.063, 18.108,1.063c 35.565,0.00, 68.295-12.138, 94.275-32.497c-33.217-0.61-61.25-22.561-70.912-52.716 c 4.637,0.884, 9.392,1.361, 14.283,1.361c 6.923,0.00, 13.629-0.928, 19.999-2.662c-34.726-6.976-60.893-37.656-60.893-74.434 c0.00-0.32,0.00-0.639, 0.008-0.955c 10.235,5.685, 21.939,9.10, 34.382,9.494c-20.37-13.611-33.77-36.846-33.77-63.184 c0.00-13.911, 3.744-26.952, 10.278-38.162c 37.439,45.927, 93.374,76.146, 156.462,79.314c-1.294-5.559-1.965-11.351-1.965-17.302 c0.00-41.92, 33.99-75.906, 75.909-75.906c 21.833,0.00, 41.562,9.218, 55.409,23.97c 17.29-3.404, 33.537-9.721, 48.206-18.42 c-5.668,17.727-17.705,32.603-33.376,41.997c 15.355-1.834, 29.984-5.916, 43.597-11.952 C 430.825,156.471, 417.955,169.84, 403.121,180.544z"
     id="path67" />
</svg>
