<?xml version="1.0" encoding="UTF-8" standalone="no"?>
<!-- Generator: IcoMoon.io -->

<svg
   xmlns:dc="http://purl.org/dc/elements/1.1/"
   xmlns:cc="http://creativecommons.org/ns#"
   xmlns:rdf="http://www.w3.org/1999/02/22-rdf-syntax-ns#"
   xmlns:svg="http://www.w3.org/2000/svg"
   xmlns="http://www.w3.org/2000/svg"
   xmlns:sodipodi="http://sodipodi.sourceforge.net/DTD/sodipodi-0.dtd"
   xmlns:inkscape="http://www.inkscape.org/namespaces/inkscape"
   width="512"
   height="512"
   viewBox="0 0 512 512"
   fill="#000000"
   id="svg2"
   version="1.1"
   inkscape:version="0.48.2 r9819"
   sodipodi:docname="im_tree.svg">
  <metadata
     id="metadata73">
    <rdf:RDF>
      <cc:Work
         rdf:about="">
        <dc:format>image/svg+xml</dc:format>
        <dc:type
           rdf:resource="http://purl.org/dc/dcmitype/StillImage" />
      </cc:Work>
    </rdf:RDF>
  </metadata>
  <defs
     id="defs71" />
  <sodipodi:namedview
     pagecolor="#ffffff"
     bordercolor="#666666"
     borderopacity="1"
     objecttolerance="10"
     gridtolerance="10"
     guidetolerance="10"
     inkscape:pageopacity="0"
     inkscape:pageshadow="2"
     inkscape:window-width="640"
     inkscape:window-height="480"
     id="namedview69"
     showgrid="false"
     inkscape:zoom="0.4609375"
     inkscape:cx="256"
     inkscape:cy="256"
     inkscape:window-x="0"
     inkscape:window-y="0"
     inkscape:window-maximized="0"
     inkscape:current-layer="svg2" />
  <path
     d="M 488.00,384.00l-8.00,0.00 L 480.00,280.00 c0.00-30.878-25.121-56.00-56.00-56.00L 288.00,224.00 l0.00-64.00 l 8.00,0.00 c 13.20,0.00, 24.00-10.80, 24.00-24.00L 320.00,56.00 c0.00-13.20-10.80-24.00-24.00-24.00l-80.00,0.00 c-13.20,0.00-24.00,10.80-24.00,24.00l0.00,80.00 c0.00,13.20, 10.80,24.00, 24.00,24.00l 8.00,0.00 l0.00,64.00 L 88.00,224.00 c-30.878,0.00-56.00,25.122-56.00,56.00l0.00,104.00 l-8.00,0.00 c-13.20,0.00-24.00,10.80-24.00,24.00l0.00,80.00 c0.00,13.20, 10.80,24.00, 24.00,24.00l 80.00,0.00 c 13.20,0.00, 24.00-10.80, 24.00-24.00l0.00-80.00 c0.00-13.20-10.80-24.00-24.00-24.00l-8.00,0.00 l0.00-96.00 l 128.00,0.00 l0.00,96.00 l-8.00,0.00 c-13.20,0.00-24.00,10.80-24.00,24.00l0.00,80.00 c0.00,13.20, 10.80,24.00, 24.00,24.00l 80.00,0.00 c 13.20,0.00, 24.00-10.80, 24.00-24.00l0.00-80.00 c0.00-13.20-10.80-24.00-24.00-24.00l-8.00,0.00 l0.00-96.00 l 128.00,0.00 l0.00,96.00 l-8.00,0.00 c-13.20,0.00-24.00,10.80-24.00,24.00l0.00,80.00 c0.00,13.20, 10.80,24.00, 24.00,24.00l 80.00,0.00 c 13.20,0.00, 24.00-10.80, 24.00-24.00l0.00-80.00 C 512.00,394.80, 501.20,384.00, 488.00,384.00z M 96.00,480.00L 32.00,480.00 l0.00-64.00 l 64.00,0.00 L 96.00,480.00 z M 288.00,480.00l-64.00,0.00 l0.00-64.00 l 64.00,0.00 L 288.00,480.00 z M 224.00,128.00L 224.00,64.00 l 64.00,0.00 l0.00,64.00 L 224.00,128.00 z M 480.00,480.00l-64.00,0.00 l0.00-64.00 l 64.00,0.00 L 480.00,480.00 z"
     id="path67" />
</svg>
