<?xml version="1.0" encoding="UTF-8" standalone="no"?>
<!-- Generator: IcoMoon.io -->

<svg
   xmlns:dc="http://purl.org/dc/elements/1.1/"
   xmlns:cc="http://creativecommons.org/ns#"
   xmlns:rdf="http://www.w3.org/1999/02/22-rdf-syntax-ns#"
   xmlns:svg="http://www.w3.org/2000/svg"
   xmlns="http://www.w3.org/2000/svg"
   xmlns:sodipodi="http://sodipodi.sourceforge.net/DTD/sodipodi-0.dtd"
   xmlns:inkscape="http://www.inkscape.org/namespaces/inkscape"
   width="512"
   height="512"
   viewBox="0 0 512 512"
   fill="#000000"
   id="svg2"
   version="1.1"
   inkscape:version="0.48.2 r9819"
   sodipodi:docname="twitter.svg">
  <metadata
     id="metadata73">
    <rdf:RDF>
      <cc:Work
         rdf:about="">
        <dc:format>image/svg+xml</dc:format>
        <dc:type
           rdf:resource="http://purl.org/dc/dcmitype/StillImage" />
      </cc:Work>
    </rdf:RDF>
  </metadata>
  <defs
     id="defs71" />
  <sodipodi:namedview
     pagecolor="#ffffff"
     bordercolor="#666666"
     borderopacity="1"
     objecttolerance="10"
     gridtolerance="10"
     guidetolerance="10"
     inkscape:pageopacity="0"
     inkscape:pageshadow="2"
     inkscape:window-width="640"
     inkscape:window-height="480"
     id="namedview69"
     showgrid="false"
     inkscape:zoom="0.4609375"
     inkscape:cx="256"
     inkscape:cy="256"
     inkscape:window-x="0"
     inkscape:window-y="0"
     inkscape:window-maximized="0"
     inkscape:current-layer="svg2" />
  <path
     d="M 512.00,97.209c-18.838,8.354-39.082,14.001-60.33,16.54c 21.686-13.00, 38.343-33.585, 46.186-58.115 c-20.298,12.039-42.778,20.78-66.705,25.49c-19.16-20.415-46.461-33.17-76.673-33.17c-58.011,0.00-105.044,47.029-105.044,105.039 c0.00,8.233, 0.929,16.25, 2.72,23.939c-87.30-4.382-164.701-46.20-216.509-109.753c-9.042,15.514-14.223,33.558-14.223,52.809 c0.00,36.444, 18.544,68.596, 46.73,87.433c-17.219-0.546-33.416-5.271-47.577-13.139c-0.01,0.438-0.01,0.878-0.01,1.321 c0.00,50.894, 36.209,93.348, 84.261,103.00c-8.813,2.40-18.094,3.686-27.674,3.686c-6.769,0.00-13.349-0.66-19.764-1.886 c 13.368,41.73, 52.16,72.103, 98.126,72.948c-35.95,28.175-81.243,44.967-130.458,44.967c-8.479,0.00-16.84-0.497-25.058-1.47 c 46.486,29.805, 101.701,47.197, 161.021,47.197c 193.211,0.00, 298.868-160.062, 298.868-298.872c0.00-4.554-0.103-9.084-0.305-13.59 C 480.11,136.773, 497.918,118.273, 512.00,97.209z"
     id="path67" />
</svg>
