<?xml version="1.0" encoding="UTF-8" standalone="no"?>
<!-- Generator: IcoMoon.io -->

<svg
   xmlns:dc="http://purl.org/dc/elements/1.1/"
   xmlns:cc="http://creativecommons.org/ns#"
   xmlns:rdf="http://www.w3.org/1999/02/22-rdf-syntax-ns#"
   xmlns:svg="http://www.w3.org/2000/svg"
   xmlns="http://www.w3.org/2000/svg"
   xmlns:sodipodi="http://sodipodi.sourceforge.net/DTD/sodipodi-0.dtd"
   xmlns:inkscape="http://www.inkscape.org/namespaces/inkscape"
   width="512"
   height="512"
   viewBox="0 0 512 512"
   fill="#000000"
   id="svg2"
   version="1.1"
   inkscape:version="0.48.2 r9819"
   sodipodi:docname="volume-low.svg">
  <metadata
     id="metadata73">
    <rdf:RDF>
      <cc:Work
         rdf:about="">
        <dc:format>image/svg+xml</dc:format>
        <dc:type
           rdf:resource="http://purl.org/dc/dcmitype/StillImage" />
      </cc:Work>
    </rdf:RDF>
  </metadata>
  <defs
     id="defs71" />
  <sodipodi:namedview
     pagecolor="#ffffff"
     bordercolor="#666666"
     borderopacity="1"
     objecttolerance="10"
     gridtolerance="10"
     guidetolerance="10"
     inkscape:pageopacity="0"
     inkscape:pageshadow="2"
     inkscape:window-width="640"
     inkscape:window-height="480"
     id="namedview69"
     showgrid="false"
     inkscape:zoom="0.4609375"
     inkscape:cx="256"
     inkscape:cy="256"
     inkscape:window-x="0"
     inkscape:window-y="0"
     inkscape:window-maximized="0"
     inkscape:current-layer="svg2" />
  <path
     d="M 274.51,370.51c-6.143,0.00-12.284-2.343-16.971-7.029c-9.373-9.373-9.373-24.568,0.00-33.941 c 40.55-40.55, 40.55-106.529,0.00-147.078c-9.373-9.373-9.373-24.569,0.00-33.941c 9.373-9.372, 24.568-9.372, 33.941,0.00 c 59.265,59.265, 59.265,155.696,0.00,214.961C 286.794,368.167, 280.652,370.51, 274.51,370.51zM 200.666,39.334 C 213.50,26.50 224.00,30.85 224.00,49.00 L 224.00,463.00 C 224.00,481.15 213.50,485.499 200.666,472.665 L 80.00,352.00 L 0.00,352.00 L 0.00,160.00 L 80.00,160.00 L 200.666,39.334 Z"
     id="path67" />
</svg>
