<?xml version="1.0" encoding="UTF-8" standalone="no"?>
<!-- Generator: IcoMoon.io -->

<svg
   xmlns:dc="http://purl.org/dc/elements/1.1/"
   xmlns:cc="http://creativecommons.org/ns#"
   xmlns:rdf="http://www.w3.org/1999/02/22-rdf-syntax-ns#"
   xmlns:svg="http://www.w3.org/2000/svg"
   xmlns="http://www.w3.org/2000/svg"
   xmlns:sodipodi="http://sodipodi.sourceforge.net/DTD/sodipodi-0.dtd"
   xmlns:inkscape="http://www.inkscape.org/namespaces/inkscape"
   width="512"
   height="512"
   viewBox="0 0 512 512"
   fill="#000000"
   id="svg2"
   version="1.1"
   inkscape:version="0.48.2 r9819"
   sodipodi:docname="vimeo2.svg">
  <metadata
     id="metadata73">
    <rdf:RDF>
      <cc:Work
         rdf:about="">
        <dc:format>image/svg+xml</dc:format>
        <dc:type
           rdf:resource="http://purl.org/dc/dcmitype/StillImage" />
      </cc:Work>
    </rdf:RDF>
  </metadata>
  <defs
     id="defs71" />
  <sodipodi:namedview
     pagecolor="#ffffff"
     bordercolor="#666666"
     borderopacity="1"
     objecttolerance="10"
     gridtolerance="10"
     guidetolerance="10"
     inkscape:pageopacity="0"
     inkscape:pageshadow="2"
     inkscape:window-width="640"
     inkscape:window-height="480"
     id="namedview69"
     showgrid="false"
     inkscape:zoom="0.4609375"
     inkscape:cx="256"
     inkscape:cy="256"
     inkscape:window-x="0"
     inkscape:window-y="0"
     inkscape:window-maximized="0"
     inkscape:current-layer="svg2" />
  <path
     d="M 426.655,0.00L 85.345,0.00 C 38.406,0.00,0.00,38.408,0.00,85.346l0.00,341.31 C0.00,473.625, 38.406,512.00, 85.345,512.00l 341.31,0.00 C 473.594,512.00, 512.00,473.625, 512.00,426.655L 512.00,85.346 C 512.00,38.408, 473.594,0.00, 426.655,0.00z M 406.434,219.063 c-16.979,95.648-111.854,176.648-140.39,195.155c-28.544,18.503-54.577-7.411-64.019-26.997 c-10.808-22.354-43.205-143.47-51.684-153.51c-8.482-10.019-33.938,10.04-33.938,10.04l-12.346-16.188 c0.00,0.00, 51.691-61.724, 91.02-69.439c 41.702-8.183, 41.64,64.033, 51.67,104.121c 9.70,38.782, 16.22,60.976, 24.688,60.976 c 8.485,0.00, 24.691-21.631, 42.426-54.785c 17.768-33.188-0.769-62.505-35.486-41.646C 292.268,143.464, 423.406,123.43, 406.434,219.063z"
     id="path67" />
</svg>
