<?xml version="1.0" encoding="UTF-8" standalone="no"?>
<!-- Generator: IcoMoon.io -->

<svg
   xmlns:dc="http://purl.org/dc/elements/1.1/"
   xmlns:cc="http://creativecommons.org/ns#"
   xmlns:rdf="http://www.w3.org/1999/02/22-rdf-syntax-ns#"
   xmlns:svg="http://www.w3.org/2000/svg"
   xmlns="http://www.w3.org/2000/svg"
   xmlns:sodipodi="http://sodipodi.sourceforge.net/DTD/sodipodi-0.dtd"
   xmlns:inkscape="http://www.inkscape.org/namespaces/inkscape"
   width="512"
   height="512"
   viewBox="0 0 512 512"
   fill="#000000"
   id="svg2"
   version="1.1"
   inkscape:version="0.48.2 r9819"
   sodipodi:docname="wordpress.svg">
  <metadata
     id="metadata73">
    <rdf:RDF>
      <cc:Work
         rdf:about="">
        <dc:format>image/svg+xml</dc:format>
        <dc:type
           rdf:resource="http://purl.org/dc/dcmitype/StillImage" />
      </cc:Work>
    </rdf:RDF>
  </metadata>
  <defs
     id="defs71" />
  <sodipodi:namedview
     pagecolor="#ffffff"
     bordercolor="#666666"
     borderopacity="1"
     objecttolerance="10"
     gridtolerance="10"
     guidetolerance="10"
     inkscape:pageopacity="0"
     inkscape:pageshadow="2"
     inkscape:window-width="640"
     inkscape:window-height="480"
     id="namedview69"
     showgrid="false"
     inkscape:zoom="0.4609375"
     inkscape:cx="256"
     inkscape:cy="256"
     inkscape:window-x="0"
     inkscape:window-y="0"
     inkscape:window-maximized="0"
     inkscape:current-layer="svg2" />
  <path
     d="M 64.00,255.996c0.00,74.013, 44.161,137.984, 108.215,168.289L 80.626,179.893C 69.972,203.147, 64.00,228.884, 64.00,255.996zM 385.614,246.564c0.00-23.117-8.527-39.118-15.827-51.571c-9.729-15.41-18.86-28.447-18.86-43.858 c0.00-17.187, 13.383-33.188, 32.243-33.188c 0.852,0.00, 1.66,0.102, 2.488,0.151C 351.50,87.613, 305.988,69.00, 256.004,69.00 c-67.08,0.00-126.093,33.523-160.422,84.284c 4.505,0.141, 8.753,0.227, 12.356,0.227c 20.077,0.00, 51.17-2.376, 51.17-2.376 c 10.345-0.591, 11.566,14.217, 1.229,15.411c0.00,0.00-10.405,1.184-21.976,1.775l 69.917,202.553l 42.022-122.728l-29.911-79.825 c-10.344-0.592-20.139-1.775-20.139-1.775c-10.351-0.596-9.136-16.001, 1.219-15.411c0.00,0.00, 31.70,2.376, 50.567,2.376 c 20.073,0.00, 51.175-2.376, 51.175-2.376c 10.351-0.591, 11.57,14.217, 1.223,15.411c0.00,0.00-10.417,1.186-21.974,1.775L 351.85,369.33 l 19.156-62.316C 379.296,281.139, 385.614,262.564, 385.614,246.564zM 259.371,272.352l-57.613,163.029c 17.208,4.929, 35.397,7.619, 54.244,7.619c 22.358,0.00, 43.802-3.759, 63.759-10.60 c-0.509-0.801-0.987-1.652-1.375-2.577L 259.371,272.352zM 424.481,166.286c 0.826,5.955, 1.294,12.343, 1.294,19.229c0.00,18.965-3.646,40.298-14.601,66.975l-58.643,165.136 C 409.612,385.212, 448.00,324.982, 448.00,255.997C 448.00,223.482, 439.47,192.917, 424.481,166.286zM 256.00,0.00C 114.615,0.00,0.00,114.615,0.00,256.00s 114.615,256.00, 256.00,256.00s 256.00-114.615, 256.00-256.00S 397.385,0.00, 256.00,0.00z M 256.00,480.00 C 132.288,480.00, 32.00,379.712, 32.00,256.00S 132.288,32.00, 256.00,32.00s 224.00,100.288, 224.00,224.00S 379.712,480.00, 256.00,480.00z"
     id="path67" />
</svg>
