<?xml version="1.0" encoding="UTF-8" standalone="no"?>
<!-- Generator: IcoMoon.io -->

<svg
   xmlns:dc="http://purl.org/dc/elements/1.1/"
   xmlns:cc="http://creativecommons.org/ns#"
   xmlns:rdf="http://www.w3.org/1999/02/22-rdf-syntax-ns#"
   xmlns:svg="http://www.w3.org/2000/svg"
   xmlns="http://www.w3.org/2000/svg"
   xmlns:sodipodi="http://sodipodi.sourceforge.net/DTD/sodipodi-0.dtd"
   xmlns:inkscape="http://www.inkscape.org/namespaces/inkscape"
   width="512"
   height="512"
   viewBox="0 0 512 512"
   fill="#000000"
   id="svg2"
   version="1.1"
   inkscape:version="0.48.2 r9819"
   sodipodi:docname="windows.svg">
  <metadata
     id="metadata73">
    <rdf:RDF>
      <cc:Work
         rdf:about="">
        <dc:format>image/svg+xml</dc:format>
        <dc:type
           rdf:resource="http://purl.org/dc/dcmitype/StillImage" />
      </cc:Work>
    </rdf:RDF>
  </metadata>
  <defs
     id="defs71" />
  <sodipodi:namedview
     pagecolor="#ffffff"
     bordercolor="#666666"
     borderopacity="1"
     objecttolerance="10"
     gridtolerance="10"
     guidetolerance="10"
     inkscape:pageopacity="0"
     inkscape:pageshadow="2"
     inkscape:window-width="640"
     inkscape:window-height="480"
     id="namedview69"
     showgrid="false"
     inkscape:zoom="0.4609375"
     inkscape:cx="256"
     inkscape:cy="256"
     inkscape:window-x="0"
     inkscape:window-y="0"
     inkscape:window-maximized="0"
     inkscape:current-layer="svg2" />
  <path
     d="M 206.115,255.957c-23.854-12.259-47.043-18.479-68.94-18.479c-2.978,0.00-5.976,0.09-8.974,0.354 c-27.94,2.312-53.461,9.684-69.875,15.414c-4.354,1.599-8.817,3.288-13.415,5.153L0.00,414.096 c 30.851-11.416, 58.146-16.969, 83.135-16.969c 40.423,0.00, 69.764,15.104, 93.996,30.652c 11.481-38.959, 39.022-133.045, 47.241-161.162 C 218.397,262.975, 212.334,259.332, 206.115,255.957zM 264.174,295.535l-45.223,157.074c 13.416,7.686, 58.549,32.025, 93.106,32.025c 27.896,0.00, 59.126-7.148, 95.417-21.896 l 43.178-150.988c-29.316,9.461-57.438,14.26-83.732,14.26C 318.945,326.01, 285.363,310.461, 264.174,295.535zM 146.411,184.395c 38.559,0.399, 67.076,15.104, 90.708,30.251l 46.376-158.672c-9.773-5.598-35.403-19.547-53.929-24.30 c-12.193-2.842-25.01-4.308-38.602-4.308c-25.898,0.488-54.194,6.973-86.444,19.90l-44.22,155.298 c 32.404-12.218, 60.322-18.17, 86.043-18.17C 146.366,184.395, 146.411,184.395, 146.411,184.395zM 512.00,99.062c-29.407,11.416-58.104,17.233-85.514,17.233c-45.843,0.00-79.646-15.901-101.547-31.183L 278.964,244.23 c 30.873,19.854, 64.145,29.939, 99.061,29.939c 28.474,0.00, 57.97-6.84, 87.731-20.344l-0.091-1.111l 1.867-0.443L 512.00,99.062z"
     id="path67" />
</svg>
