<?xml version="1.0" encoding="UTF-8" standalone="no"?>
<!-- Generator: IcoMoon.io -->

<svg
   xmlns:dc="http://purl.org/dc/elements/1.1/"
   xmlns:cc="http://creativecommons.org/ns#"
   xmlns:rdf="http://www.w3.org/1999/02/22-rdf-syntax-ns#"
   xmlns:svg="http://www.w3.org/2000/svg"
   xmlns="http://www.w3.org/2000/svg"
   xmlns:sodipodi="http://sodipodi.sourceforge.net/DTD/sodipodi-0.dtd"
   xmlns:inkscape="http://www.inkscape.org/namespaces/inkscape"
   width="512"
   height="512"
   viewBox="0 0 512 512"
   fill="#000000"
   id="svg2"
   version="1.1"
   inkscape:version="0.48.2 r9819"
   sodipodi:docname="wrench.svg">
  <metadata
     id="metadata73">
    <rdf:RDF>
      <cc:Work
         rdf:about="">
        <dc:format>image/svg+xml</dc:format>
        <dc:type
           rdf:resource="http://purl.org/dc/dcmitype/StillImage" />
      </cc:Work>
    </rdf:RDF>
  </metadata>
  <defs
     id="defs71" />
  <sodipodi:namedview
     pagecolor="#ffffff"
     bordercolor="#666666"
     borderopacity="1"
     objecttolerance="10"
     gridtolerance="10"
     guidetolerance="10"
     inkscape:pageopacity="0"
     inkscape:pageshadow="2"
     inkscape:window-width="640"
     inkscape:window-height="480"
     id="namedview69"
     showgrid="false"
     inkscape:zoom="0.4609375"
     inkscape:cx="256"
     inkscape:cy="256"
     inkscape:window-x="0"
     inkscape:window-y="0"
     inkscape:window-maximized="0"
     inkscape:current-layer="svg2" />
  <path
     d="M 501.467,408.938l-230.276-197.38C 281.915,191.409, 288.00,168.417, 288.00,144.00C 288.00,64.471, 223.529,0.00, 144.00,0.00 c-14.547,0.00-28.586,2.166-41.823,6.177l 83.195,83.195c 12.445,12.445, 12.445,32.81,0.00,45.255l-50.745,50.745 c-12.445,12.445-32.81,12.445-45.255,0.00L 6.177,102.177C 2.166,115.414,0.00,129.453,0.00,144.00c0.00,79.529, 64.471,144.00, 144.00,144.00 c 24.417,0.00, 47.409-6.085, 67.558-16.81l 197.38,230.276c 11.454,13.362, 31.008,14.113, 43.452,1.669l 50.746-50.746 C 515.58,439.945, 514.829,420.392, 501.467,408.938z"
     id="path67" />
</svg>
