<?xml version="1.0" encoding="UTF-8" standalone="no"?>
<!-- Generator: IcoMoon.io -->

<svg
   xmlns:dc="http://purl.org/dc/elements/1.1/"
   xmlns:cc="http://creativecommons.org/ns#"
   xmlns:rdf="http://www.w3.org/1999/02/22-rdf-syntax-ns#"
   xmlns:svg="http://www.w3.org/2000/svg"
   xmlns="http://www.w3.org/2000/svg"
   xmlns:sodipodi="http://sodipodi.sourceforge.net/DTD/sodipodi-0.dtd"
   xmlns:inkscape="http://www.inkscape.org/namespaces/inkscape"
   width="512"
   height="512"
   viewBox="0 0 512 512"
   fill="#000000"
   id="svg2"
   version="1.1"
   inkscape:version="0.48.2 r9819"
   sodipodi:docname="wink2.svg">
  <metadata
     id="metadata73">
    <rdf:RDF>
      <cc:Work
         rdf:about="">
        <dc:format>image/svg+xml</dc:format>
        <dc:type
           rdf:resource="http://purl.org/dc/dcmitype/StillImage" />
      </cc:Work>
    </rdf:RDF>
  </metadata>
  <defs
     id="defs71" />
  <sodipodi:namedview
     pagecolor="#ffffff"
     bordercolor="#666666"
     borderopacity="1"
     objecttolerance="10"
     gridtolerance="10"
     guidetolerance="10"
     inkscape:pageopacity="0"
     inkscape:pageshadow="2"
     inkscape:window-width="640"
     inkscape:window-height="480"
     id="namedview69"
     showgrid="false"
     inkscape:zoom="0.4609375"
     inkscape:cx="256"
     inkscape:cy="256"
     inkscape:window-x="0"
     inkscape:window-y="0"
     inkscape:window-maximized="0"
     inkscape:current-layer="svg2" />
  <path
     d="M 256.00,0.00C 114.615,0.00,0.00,114.614,0.00,256.00c0.00,141.385, 114.614,256.00, 256.00,256.00c 141.385,0.00, 256.00-114.615, 256.00-256.00 C 512.00,114.614, 397.385,0.00, 256.00,0.00z M 352.00,128.00c 17.673,0.00, 32.00,21.49, 32.00,48.00s-14.327,48.00-32.00,48.00s-32.00-21.49-32.00-48.00S 334.327,128.00, 352.00,128.00z M 176.00,156.031c 29.823,0.00, 51.00,11.166, 51.00,28.641c0.00,3.699, 1.906,21.497-0.085,24.797c-7.414-12.288-27.405-21.094-50.915-21.094 s-43.501,8.806-50.915,21.094c-1.991-3.30-0.085-21.098-0.085-24.797C 125.00,167.197, 146.177,156.031, 176.00,156.031z M 250.172,416.00 c-59.621,0.00-111.929-32.14-141.446-80.476c 35.205,27.53, 97.267,32.905, 162.644,19.989c 70.124-13.853, 124.555-45.771, 144.227-88.297 C 404.77,351.196, 334.838,416.00, 250.172,416.00z"
     id="path67" />
</svg>
