<?xml version="1.0" encoding="UTF-8" standalone="no"?>
<!-- Generator: IcoMoon.io -->

<svg
   xmlns:dc="http://purl.org/dc/elements/1.1/"
   xmlns:cc="http://creativecommons.org/ns#"
   xmlns:rdf="http://www.w3.org/1999/02/22-rdf-syntax-ns#"
   xmlns:svg="http://www.w3.org/2000/svg"
   xmlns="http://www.w3.org/2000/svg"
   xmlns:sodipodi="http://sodipodi.sourceforge.net/DTD/sodipodi-0.dtd"
   xmlns:inkscape="http://www.inkscape.org/namespaces/inkscape"
   width="512"
   height="512"
   viewBox="0 0 512 512"
   fill="#000000"
   id="svg2"
   version="1.1"
   inkscape:version="0.48.2 r9819"
   sodipodi:docname="xing.svg">
  <metadata
     id="metadata73">
    <rdf:RDF>
      <cc:Work
         rdf:about="">
        <dc:format>image/svg+xml</dc:format>
        <dc:type
           rdf:resource="http://purl.org/dc/dcmitype/StillImage" />
      </cc:Work>
    </rdf:RDF>
  </metadata>
  <defs
     id="defs71" />
  <sodipodi:namedview
     pagecolor="#ffffff"
     bordercolor="#666666"
     borderopacity="1"
     objecttolerance="10"
     gridtolerance="10"
     guidetolerance="10"
     inkscape:pageopacity="0"
     inkscape:pageshadow="2"
     inkscape:window-width="640"
     inkscape:window-height="480"
     id="namedview69"
     showgrid="false"
     inkscape:zoom="0.4609375"
     inkscape:cx="256"
     inkscape:cy="256"
     inkscape:window-x="0"
     inkscape:window-y="0"
     inkscape:window-maximized="0"
     inkscape:current-layer="svg2" />
  <path
     d="M 426.671,0.00L 85.343,0.00 C 38.406,0.00,0.00,38.405,0.00,85.345l0.00,341.311 C0.00,473.625, 38.406,512.00, 85.343,512.00l 341.328,0.00 C 473.609,512.00, 512.00,473.625, 512.00,426.655L 512.00,85.345 C 512.00,38.405, 473.609,0.00, 426.671,0.00z M 155.889,333.394l-55.632,0.00 c-3.351,0.00-5.854-1.504-7.271-3.792c-1.467-2.379-1.542-5.464,0.00-8.534l 59.11-104.313c 0.063-0.114, 0.063-0.19,0.00-0.316l-37.615-65.116 c-1.556-3.098-1.783-6.157-0.316-8.534c 1.417-2.301, 4.235-3.477, 7.586-3.477l 55.632,0.00 c 8.535,0.00, 12.72,5.499, 15.489,10.431 c0.00,0.00, 38.02,66.33, 38.249,66.696c-2.252,3.97-60.059,106.21-60.059,106.21C 168.218,327.78, 164.21,333.394, 155.889,333.394z M 418.956,75.269L 295.78,293.059c-0.075,0.115-0.075,0.255,0.00,0.367l 78.431,143.295c 1.556,3.084, 1.593,6.221, 0.113,8.597 c-1.415,2.288-4.033,3.552-7.383,3.552l-55.57,0.00 c-8.522,0.00-12.783-5.663-15.54-10.596c0.00,0.00-78.848-144.646-79.05-145.023 c 3.944-6.98, 123.797-219.523, 123.797-219.523c 2.984-5.362, 6.587-10.596, 14.894-10.596l 56.203,0.00 c 3.351,0.00, 5.981,1.265, 7.396,3.553 C 420.537,69.061, 420.499,72.196, 418.956,75.269z"
     id="path67" />
</svg>
