<?xml version="1.0" encoding="UTF-8" standalone="no"?>
<!-- Generator: IcoMoon.io -->

<svg
   xmlns:dc="http://purl.org/dc/elements/1.1/"
   xmlns:cc="http://creativecommons.org/ns#"
   xmlns:rdf="http://www.w3.org/1999/02/22-rdf-syntax-ns#"
   xmlns:svg="http://www.w3.org/2000/svg"
   xmlns="http://www.w3.org/2000/svg"
   xmlns:sodipodi="http://sodipodi.sourceforge.net/DTD/sodipodi-0.dtd"
   xmlns:inkscape="http://www.inkscape.org/namespaces/inkscape"
   width="512"
   height="512"
   viewBox="0 0 512 512"
   fill="#000000"
   id="svg2"
   version="1.1"
   inkscape:version="0.48.2 r9819"
   sodipodi:docname="yelp.svg">
  <metadata
     id="metadata73">
    <rdf:RDF>
      <cc:Work
         rdf:about="">
        <dc:format>image/svg+xml</dc:format>
        <dc:type
           rdf:resource="http://purl.org/dc/dcmitype/StillImage" />
      </cc:Work>
    </rdf:RDF>
  </metadata>
  <defs
     id="defs71" />
  <sodipodi:namedview
     pagecolor="#ffffff"
     bordercolor="#666666"
     borderopacity="1"
     objecttolerance="10"
     gridtolerance="10"
     guidetolerance="10"
     inkscape:pageopacity="0"
     inkscape:pageshadow="2"
     inkscape:window-width="640"
     inkscape:window-height="480"
     id="namedview69"
     showgrid="false"
     inkscape:zoom="0.4609375"
     inkscape:cx="256"
     inkscape:cy="256"
     inkscape:window-x="0"
     inkscape:window-y="0"
     inkscape:window-maximized="0"
     inkscape:current-layer="svg2" />
  <path
     d="M 304.438,326.734c-8.641,8.713-1.334,24.564-1.334,24.564l 65.045,108.609c0.00,0.00, 10.68,14.32, 19.932,14.32 c 9.295,0.00, 18.477-7.635, 18.477-7.635l 51.422-73.504c0.00,0.00, 5.18-9.273, 5.299-17.396c 0.186-11.553-17.227-14.717-17.227-14.717 l-121.744-39.096C 324.307,321.881, 312.379,318.715, 304.438,326.734zM 298.266,271.992c 6.23,10.564, 23.414,7.486, 23.414,7.486l 121.469-35.503c0.00,0.00, 16.553-6.733, 18.916-15.709 c 2.32-8.977-2.73-19.811-2.73-19.811l-58.049-68.376c0.00,0.00-5.031-8.646-15.469-9.516c-11.508-0.979-18.59,12.949-18.59,12.949 l-68.635,108.005C 298.592,251.519, 292.525,262.275, 298.266,271.992zM 240.877,229.884c 14.304-3.522, 16.574-24.302, 16.574-24.302l-0.972-172.935c0.00,0.00-2.157-21.333-11.743-27.116 c-15.035-9.121-19.491-4.359-23.798-3.722L 120.09,39.281c0.00,0.00-9.877,3.268-15.021,11.509c-7.345,11.676, 7.464,28.772, 7.464,28.772 L 217.355,222.44C 217.355,222.44, 227.70,233.138, 240.877,229.884zM 215.972,299.869c 0.361-13.338-16.015-21.35-16.015-21.35L 91.559,223.757c0.00,0.00-16.063-6.623-23.861-2.008 c-5.975,3.53-11.268,9.92-11.786,15.567l-7.06,86.906c0.00,0.00-1.058,15.057, 2.845,21.91c 5.527,9.721, 23.714,2.951, 23.714,2.951 l 126.548-27.971C 206.875,317.807, 215.496,317.51, 215.972,299.869zM 247.44,346.771c-10.863-5.578-23.862,5.975-23.862,5.975l-84.734,93.283c0.00,0.00-10.572,14.264-7.884,23.025 c 2.533,8.209, 6.727,12.289, 12.659,15.164l 85.096,26.863c0.00,0.00, 10.317,2.143, 18.129-0.121c 11.09-3.215, 9.047-20.576, 9.047-20.576 l 1.924-126.301C 257.814,364.084, 257.381,351.916, 247.44,346.771z"
     id="path67" />
</svg>
