<?xml version="1.0" encoding="UTF-8" standalone="no"?>
<!-- Generator: IcoMoon.io -->

<svg
   xmlns:dc="http://purl.org/dc/elements/1.1/"
   xmlns:cc="http://creativecommons.org/ns#"
   xmlns:rdf="http://www.w3.org/1999/02/22-rdf-syntax-ns#"
   xmlns:svg="http://www.w3.org/2000/svg"
   xmlns="http://www.w3.org/2000/svg"
   xmlns:sodipodi="http://sodipodi.sourceforge.net/DTD/sodipodi-0.dtd"
   xmlns:inkscape="http://www.inkscape.org/namespaces/inkscape"
   width="512"
   height="512"
   viewBox="0 0 512 512"
   fill="#000000"
   id="svg2"
   version="1.1"
   inkscape:version="0.48.2 r9819"
   sodipodi:docname="youtube2.svg">
  <metadata
     id="metadata73">
    <rdf:RDF>
      <cc:Work
         rdf:about="">
        <dc:format>image/svg+xml</dc:format>
        <dc:type
           rdf:resource="http://purl.org/dc/dcmitype/StillImage" />
      </cc:Work>
    </rdf:RDF>
  </metadata>
  <defs
     id="defs71" />
  <sodipodi:namedview
     pagecolor="#ffffff"
     bordercolor="#666666"
     borderopacity="1"
     objecttolerance="10"
     gridtolerance="10"
     guidetolerance="10"
     inkscape:pageopacity="0"
     inkscape:pageshadow="2"
     inkscape:window-width="640"
     inkscape:window-height="480"
     id="namedview69"
     showgrid="false"
     inkscape:zoom="0.4609375"
     inkscape:cx="256"
     inkscape:cy="256"
     inkscape:window-x="0"
     inkscape:window-y="0"
     inkscape:window-maximized="0"
     inkscape:current-layer="svg2" />
  <path
     d="M 416.00,64.00L 96.00,64.00 c-52.80,0.00-96.00,43.20-96.00,96.00l0.00,192.00 c0.00,52.80, 43.20,96.00, 96.00,96.00l 320.00,0.00 c 52.80,0.00, 96.00-43.20, 96.00-96.00L 512.00,160.00 C 512.00,107.20, 468.80,64.00, 416.00,64.00z M 480.00,352.00c0.00,16.989-6.687,33.031-18.827,45.173C 449.031,409.313, 432.99,416.00, 416.00,416.00L 96.00,416.00 c-16.989,0.00-33.031-6.687-45.172-18.827 C 38.687,385.031, 32.00,368.989, 32.00,352.00L 32.00,160.00 c0.00-16.989, 6.687-33.031, 18.828-45.172S 79.011,96.00, 96.00,96.00l 320.00,0.00 c 16.989,0.00, 33.031,6.687, 45.173,18.828C 473.314,126.969, 480.00,143.011, 480.00,160.00L 480.00,352.00 zM 192.00,384.00L 352.00,256.00L 192.00,128.00 z"
     id="path67" />
</svg>
