<?xml version="1.0" encoding="UTF-8" standalone="no"?>
<!-- Generator: IcoMoon.io -->

<svg
   xmlns:dc="http://purl.org/dc/elements/1.1/"
   xmlns:cc="http://creativecommons.org/ns#"
   xmlns:rdf="http://www.w3.org/1999/02/22-rdf-syntax-ns#"
   xmlns:svg="http://www.w3.org/2000/svg"
   xmlns="http://www.w3.org/2000/svg"
   xmlns:sodipodi="http://sodipodi.sourceforge.net/DTD/sodipodi-0.dtd"
   xmlns:inkscape="http://www.inkscape.org/namespaces/inkscape"
   width="512"
   height="512"
   viewBox="0 0 512 512"
   fill="#000000"
   id="svg2"
   version="1.1"
   inkscape:version="0.48.2 r9819"
   sodipodi:docname="yahoo.svg">
  <metadata
     id="metadata73">
    <rdf:RDF>
      <cc:Work
         rdf:about="">
        <dc:format>image/svg+xml</dc:format>
        <dc:type
           rdf:resource="http://purl.org/dc/dcmitype/StillImage" />
      </cc:Work>
    </rdf:RDF>
  </metadata>
  <defs
     id="defs71" />
  <sodipodi:namedview
     pagecolor="#ffffff"
     bordercolor="#666666"
     borderopacity="1"
     objecttolerance="10"
     gridtolerance="10"
     guidetolerance="10"
     inkscape:pageopacity="0"
     inkscape:pageshadow="2"
     inkscape:window-width="640"
     inkscape:window-height="480"
     id="namedview69"
     showgrid="false"
     inkscape:zoom="0.4609375"
     inkscape:cx="256"
     inkscape:cy="256"
     inkscape:window-x="0"
     inkscape:window-y="0"
     inkscape:window-maximized="0"
     inkscape:current-layer="svg2" />
  <path
     d="M 424.00,320.00l-7.429-208.01C 416.257,103.195, 423.20,96.00, 432.00,96.00l 64.00,0.00 c 8.80,0.00, 14.734,7.088, 13.188,15.751L 472.00,320.00M 480.00,388.00c0.00,15.40-12.60,28.00-28.00,28.00l-8.00,0.00 c-15.40,0.00-28.00-12.60-28.00-28.00l0.00-8.00 c0.00-15.40, 12.60-28.00, 28.00-28.00l 8.00,0.00 c 15.40,0.00, 28.00,12.60, 28.00,28.00L 480.00,388.00 zM 192.00,96.00C 85.961,96.00,0.00,167.634,0.00,256.00c0.00,88.365, 85.961,160.00, 192.00,160.00c 106.039,0.00, 192.00-71.635, 192.00-160.00 C 384.00,167.634, 298.039,96.00, 192.00,96.00z M 320.00,224.00l-37.131,0.00 L 224.00,282.87L 224.00,320.00 l 48.00,0.00 l0.00,32.00 L 144.00,352.00 l0.00-32.00 l 48.00,0.00 l0.00-37.13 L 101.13,192.00L 80.099,192.00 l0.00-32.00 l 95.803,0.00 l0.00,32.00 L 154.87,192.00 L 208.00,245.13l 16.00-16.00L 224.00,192.00 l 96.00,0.00 L 320.00,224.00 z"
     id="path67" />
</svg>
