<?xml version="1.0" encoding="UTF-8" standalone="no"?>
<svg
   xmlns:dc="http://purl.org/dc/elements/1.1/"
   xmlns:cc="http://creativecommons.org/ns#"
   xmlns:rdf="http://www.w3.org/1999/02/22-rdf-syntax-ns#"
   xmlns:svg="http://www.w3.org/2000/svg"
   xmlns="http://www.w3.org/2000/svg"
   xmlns:sodipodi="http://sodipodi.sourceforge.net/DTD/sodipodi-0.dtd"
   xmlns:inkscape="http://www.inkscape.org/namespaces/inkscape"
   version="1.0"
   width="468pt"
   height="463pt"
   viewBox="0 0 468 463"
   id="svg2"
   sodipodi:docname="weather_night_thunderstorm.svg"
   inkscape:version="0.92.3 (2405546, 2018-03-11)">
  <metadata
     id="metadata28">
    <rdf:RDF>
      <cc:Work
         rdf:about="">
        <dc:format>image/svg+xml</dc:format>
        <dc:type
           rdf:resource="http://purl.org/dc/dcmitype/StillImage" />
        <dc:title></dc:title>
      </cc:Work>
    </rdf:RDF>
  </metadata>
  <sodipodi:namedview
     pagecolor="#ffffff"
     bordercolor="#666666"
     borderopacity="1"
     objecttolerance="10"
     gridtolerance="10"
     guidetolerance="10"
     inkscape:pageopacity="0"
     inkscape:pageshadow="2"
     inkscape:window-width="1920"
     inkscape:window-height="1024"
     id="namedview26"
     showgrid="false"
     inkscape:zoom="0.38228942"
     inkscape:cx="312"
     inkscape:cy="308.66667"
     inkscape:window-x="-4"
     inkscape:window-y="-4"
     inkscape:window-maximized="1"
     inkscape:current-layer="svg2" />
  <defs
     id="defs34" />
  <g
     transform="matrix(0.11936031,0,0,-0.11936031,149.52335,314.68102)"
     id="g6"
     fill="#000000"
     stroke="none">
    <path
       d="M -423.25699,1519.4947 C -688.4798,1362 -905.02508,1125.418 -1030.5109,853.14228 c -61.374,-131.55637 -81.9901,-196.44489 -100.9511,-317.31578 -96.5591,-606.120277 220.17465,-1186.757 808.57222,-1481.7087 496.9463,-248.265 1080.71967,-251.0874 1584.98508,-7.30169 148.8701,71.63422 165.562,90.5793 127.7388,148.57053 -24.3748,37.37213 -46.4294,41.4951 -162.1632,27.42995 -283.87865,-35.36242 -705.84407,74.18691 -1043.88627,271.8118 -212.841357,124.4305 -421.0931,317.53767 -515.24595,478.225405 -121.81753,207.557645 -178.06928,470.469195 -166.61014,779.507435 6.93114,174.94553 76.57149,440.80087 153.49244,591.57307 63.51893,122.3292 67.16982,134.5465 42.11426,165.5393 -29.56239,36.4183 -70.30945,39.5095 -120.79223,10.0211 z M -652.74701,849.96293 c -75.0311,-780.16248 271.10034,-1303.43648 1086.37579,-1638.93457 107.85426,-45.11372 415.1123,-124.27982 483.17362,-126.19703 35.32757,-0.72014 35.32757,-0.72014 8.70938,-11.86883 -51.48309,-20.53171 -256.31701,-53.86731 -364.73352,-59.85192 -302.81869,-16.71518 -633.652486,61.48326 -888.02462,210.99062 -319.26205,186.64575 -545.92228,482.20624 -627.11599,817.504706 -46.26375,189.699184 -44.28806,360.365934 5.57662,560.044134 52.2986,207.82304 152.69228,387.92763 304.75969,548.18806 l 64.33344,67.6355 -31.53804,-134.2485 c -17.02209,-73.3682 -36.30287,-178.90331 -41.51637,-233.26217 z"
       id="path19"
       style="stroke-width:1" />
    <g
       style="fill:#000000;stroke:none;stroke-width:1.37218714"
       transform="matrix(0.90180034,-0.0013923,0.00119868,1.0474689,-3.8546574,-546.21427)"
       id="g378" />
  </g>
  <g
     style="fill:#000000;stroke:none"
     transform="matrix(0.09890621,0,0,-0.11239228,160.27161,366.23552)"
     id="g18">
    <path
       inkscape:connector-curvature="0"
       d="m 573,2499 c -23,-11 -52,-35 -64,-54 -19,-27 -31,-34 -67,-38 -85,-9 -134,-67 -140,-162 -4,-61 -6,-65 -29,-65 -56,0 -124,-61 -143,-128 -5,-20 -10,-77 -10,-127 v -90 L 81,1813 C 18,1777 0,1727 0,1586 c 0,-133 14,-176 72,-218 28,-19 48,-24 129,-26 l 95,-4 12,-42 c 24,-89 91,-135 200,-136 h 63 l -17,-31 c -21,-41 -11,-75 28,-95 43,-22 69,-8 110,63 32,55 37,58 76,61 23,2 42,0 42,-3 0,-4 -50,-94 -112,-201 C 599,781 588,756 596,732 c 5,-15 23,-33 39,-41 25,-12 32,-12 53,0 25,14 272,428 272,455 0,10 15,14 55,14 31,0 72,7 92,15 19,8 49,15 66,15 31,0 31,0 9,-16 -42,-29 -44,-46 -22,-167 12,-61 24,-123 27,-137 l 6,-25 -30,28 c -30,28 -61,34 -93,17 -46,-25 -45,-38 30,-288 39,-130 78,-243 85,-251 33,-34 115,-3 115,43 0,12 -13,64 -29,116 -29,96 -31,114 -9,92 19,-19 62,-14 87,9 27,25 29,4 -33,314 -37,189 -49,233 -67,248 -20,16 -16,17 130,19 83,0 156,1 162,2 7,1 30,-66 54,-151 23,-84 40,-153 38,-153 -2,0 -26,11 -53,25 -27,14 -60,25 -74,25 -26,0 -66,-41 -66,-67 0,-8 27,-78 61,-156 34,-78 63,-148 66,-156 5,-10 0,-12 -14,-7 -29,9 -71,-10 -84,-37 -8,-18 2,-65 51,-242 34,-121 68,-230 76,-242 29,-45 102,-35 119,16 3,10 -15,91 -40,179 -25,88 -45,163 -45,167 0,4 13,4 28,0 20,-4 36,0 54,14 45,36 43,61 -12,188 -27,64 -48,118 -45,121 2,2 19,-5 38,-17 44,-27 81,-27 108,0 27,27 26,32 -50,294 -33,116 -61,211 -61,213 0,1 28,2 61,2 47,0 71,-6 98,-22 29,-18 56,-24 132,-28 l 97,-5 -55,-94 c -60,-105 -64,-132 -21,-164 50,-37 73,-19 159,128 l 76,130 41,3 c 46,3 48,0 27,-38 -21,-36 -18,-64 8,-88 36,-34 72,-29 104,16 16,21 37,55 48,75 14,27 26,37 45,37 32,1 100,32 122,56 31,35 48,92 48,157 v 64 l 65,6 c 78,7 115,25 152,74 l 28,36 3,194 c 3,186 2,195 -20,234 -32,57 -89,89 -161,89 -55,0 -57,1 -57,28 -1,41 -34,106 -66,129 -16,12 -47,26 -69,32 -43,12 -195,13 -234,2 -16,-4 -39,1 -69,16 -33,17 -63,23 -109,23 h -63 v 39 c 0,76 -35,130 -105,162 -31,14 -64,19 -145,19 -121,0 -168,-16 -214,-70 l -28,-34 -103,3 c -62,1 -120,-3 -146,-10 -80,-24 -129,-99 -129,-198 0,-39 -2,-41 -30,-41 h -30 v 69 c 0,54 -5,75 -23,102 -26,40 -79,69 -123,69 -25,0 -38,8 -59,36 -44,58 -92,74 -220,74 -91,0 -117,-4 -152,-21 z"
       id="path4" />
    <path
       inkscape:connector-curvature="0"
       d="m 2571,1137 c -21,-12 -247,-391 -257,-434 -12,-47 68,-92 108,-60 22,17 248,410 248,431 0,48 -58,85 -99,63 z"
       id="path6" />
    <path
       inkscape:connector-curvature="0"
       d="M 413,902 C 403,893 344,796 282,688 159,474 153,453 202,417 c 53,-39 68,-23 199,203 70,121 119,216 119,232 0,17 -9,34 -26,47 -33,26 -58,27 -81,3 z"
       id="path8" />
    <path
       inkscape:connector-curvature="0"
       d="m 2132,842 c -18,-12 -242,-402 -248,-432 -8,-36 27,-70 71,-70 40,0 32,-12 183,251 56,97 102,184 102,193 0,42 -72,80 -108,58 z"
       id="path10" />
    <path
       inkscape:connector-curvature="0"
       d="M 752,691 C 737,675 676,575 616,470 519,301 508,276 516,252 c 5,-15 23,-33 39,-41 25,-12 32,-12 54,0 27,16 261,411 261,442 0,25 -44,67 -71,67 -11,0 -33,-13 -47,-29 z"
       id="path12" />
    <path
       inkscape:connector-curvature="0"
       d="M 468,598 C 446,580 220,187 220,166 c 0,-48 58,-85 99,-63 21,12 247,391 257,434 12,47 -68,92 -108,61 z"
       id="path14" />
    <path
       inkscape:connector-curvature="0"
       d="M 2222,543 C 2212,533 2159,449 2106,357 1965,112 1967,117 1981,87 c 14,-30 59,-52 88,-42 25,8 261,413 261,449 0,27 -41,66 -70,66 -10,0 -27,-8 -38,-17 z"
       id="path16" />
  </g>
</svg>
