<?xml version="1.0" encoding="UTF-8" standalone="no"?>
<svg
   xmlns:dc="http://purl.org/dc/elements/1.1/"
   xmlns:cc="http://creativecommons.org/ns#"
   xmlns:rdf="http://www.w3.org/1999/02/22-rdf-syntax-ns#"
   xmlns:svg="http://www.w3.org/2000/svg"
   xmlns="http://www.w3.org/2000/svg"
   version="1.0"
   width="468pt"
   height="463pt"
   viewBox="0 0 468 463"
   id="svg2">
  
  <defs
     id="defs34" />
  
  <g
     transform="matrix(0.11936031,0,0,-0.11936031,149.52335,314.68102)"
     id="g6"
     fill="#000000"
     stroke="none">
    <path
       d="M -423.25699,1519.4947 C -688.4798,1362 -905.02508,1125.418 -1030.5109,853.14228 c -61.374,-131.55637 -81.9901,-196.44489 -100.9511,-317.31578 -96.5591,-606.120277 220.17465,-1186.757 808.57222,-1481.7087 496.9463,-248.265 1080.71967,-251.0874 1584.98508,-7.30169 148.8701,71.63422 165.562,90.5793 127.7388,148.57053 -24.3748,37.37213 -46.4294,41.4951 -162.1632,27.42995 -283.87865,-35.36242 -705.84407,74.18691 -1043.88627,271.8118 -212.841357,124.4305 -421.0931,317.53767 -515.24595,478.225405 -121.81753,207.557645 -178.06928,470.469195 -166.61014,779.507435 6.93114,174.94553 76.57149,440.80087 153.49244,591.57307 63.51893,122.3292 67.16982,134.5465 42.11426,165.5393 -29.56239,36.4183 -70.30945,39.5095 -120.79223,10.0211 z M -652.74701,849.96293 c -75.0311,-780.16248 271.10034,-1303.43648 1086.37579,-1638.93457 107.85426,-45.11372 415.1123,-124.27982 483.17362,-126.19703 35.32757,-0.72014 35.32757,-0.72014 8.70938,-11.86883 -51.48309,-20.53171 -256.31701,-53.86731 -364.73352,-59.85192 -302.81869,-16.71518 -633.652486,61.48326 -888.02462,210.99062 -319.26205,186.64575 -545.92228,482.20624 -627.11599,817.504706 -46.26375,189.699184 -44.28806,360.365934 5.57662,560.044134 52.2986,207.82304 152.69228,387.92763 304.75969,548.18806 l 64.33344,67.6355 -31.53804,-134.2485 c -17.02209,-73.3682 -36.30287,-178.90331 -41.51637,-233.26217 z"
       id="path19"
       style="stroke-width:1" />
    <path
       style="stroke-width:1.32911861"
       d="m 605.1225,2479.0186 c -17.33771,-8.8122 -39.23803,-25.3351 -48.36314,-35.2489 -25.55037,-27.5382 -52.01321,-95.8328 -52.01321,-134.3863 v -33.0458 H 361.48163 c -170.6399,0 -206.2279,-13.2183 -250.02851,-96.9344 -23.725342,-44.0611 -26.462874,-60.584 -26.462874,-135.4879 v -84.8176 L 37.53955,1946.9808 c -57.488258,-15.4213 -102.201446,-53.9749 -125.926722,-111.2543 -25.550408,-60.584 -26.462908,-302.9202 -0.9125,-369.0119 32.850414,-87.0207 83.0386016,-115.6605 201.665302,-115.6605 h 82.12615 v -64.9902 c 0,-73.8023 19.16277,-148.7062 48.36318,-187.2597 23.72533,-30.8428 83.95119,-66.0917 114.06409,-67.1932 25.55036,0 25.55036,-7.7107 -2.73752,-35.2489 -36.50052,-34.14732 -25.55036,-96.9344 16.42521,-96.9344 10.03764,0 36.50049,12.11681 60.22583,28.63972 l 42.8881,27.53816 61.13837,-41.85802 c 33.76298,-23.13206 61.13839,-44.06108 61.13839,-47.36568 0,-4.4061 -93.98884,-71.59929 -120.45174,-85.91909 -2.73751,-2.20305 -22.8128,8.8122 -42.8881,24.23356 -40.15053,30.84277 -73.00099,36.35042 -90.33872,15.42141 -18.25027,-22.03057 -12.7752,-61.68553 11.86266,-81.51305 20.98778,-16.52291 21.90028,-19.82746 9.12512,-37.45191 -31.02543,-41.85803 0.91249,-105.74661 47.45067,-92.5283 18.25023,5.50765 20.98779,2.20304 20.98779,-25.33512 0,-38.55342 14.60018,-58.38093 41.97556,-58.38093 29.20041,0 39.23805,20.92901 41.97561,93.6298 l 2.73755,66.09164 59.31331,40.75651 c 32.85043,23.13207 62.05084,41.85803 65.70098,41.85803 4.5625,0 7.30007,-39.65498 7.30007,-87.02065 v -87.02064 l -50.18826,-34.14737 c -55.66324,-38.55343 -64.78835,-69.39619 -31.93791,-105.74661 17.33777,-18.72596 20.98777,-19.82746 50.18819,-2.20305 l 31.02541,17.62446 2.73757,-29.74127 c 4.56257,-52.87327 80.30117,-42.95952 80.30117,9.91376 0,19.82751 1.825,20.92901 27.37534,4.4061 33.76299,-20.92901 41.06306,-20.92901 58.40083,1.10155 29.20042,34.14732 18.25028,67.19314 -35.58798,105.74661 l -50.18819,36.35042 v 84.81759 c 0,47.36568 2.7375,85.9191 5.47507,85.9191 2.7375,0 33.76298,-19.82746 68.4384,-44.06107 l 62.96339,-45.16263 V 615.2337 c 0,-68.29469 10.03771,-90.32525 41.06316,-90.32525 26.46277,0 41.06296,20.92901 41.06296,57.27943 0,27.53816 2.7375,30.84276 22.81289,24.23356 44.71307,-13.2183 76.65097,49.56873 44.71307,89.22375 -13.6877,15.42136 -12.7752,18.72596 9.125,39.65497 37.4131,35.24887 27.3755,98.0359 -15.5127,98.0359 -9.1251,0 -36.50038,-13.2183 -61.13826,-29.74121 l -42.88806,-29.74127 -60.22583,42.95958 c -32.85049,23.13206 -58.40083,46.26417 -55.66326,50.67027 2.7375,5.50761 29.20041,26.43662 60.22582,47.36568 l 55.66327,37.45192 50.18816,-31.94432 c 44.71306,-28.63972 52.92566,-30.84276 69.35086,-16.52291 22.8129,17.62447 29.2005,56.17789 14.6003,79.31 -10.0377,13.2183 15.5127,15.42136 190.7151,15.42136 158.7772,0 208.053,3.30464 228.1283,15.42144 27.3753,17.6244 83.0386,88.1222 83.0386,105.7466 0,6.6092 87.6012,11.0153 228.1282,11.0153 209.8779,0 231.7783,2.2031 264.6287,22.0306 19.1628,12.1168 41.0631,30.8427 47.4507,42.9596 11.8627,19.8274 26.4628,22.0305 180.6775,25.3352 191.6277,3.3045 218.0906,12.1168 268.2787,89.2237 l 28.288,42.9596 2.7375,225.8133 c 2.7375,212.5948 1.825,228.0163 -17.3378,274.2805 -11.8626,30.8427 -33.7629,61.6855 -56.5757,79.31 -36.5006,28.6397 -41.0631,29.7412 -199.8403,33.0458 l -162.4273,3.3046 v 121.1681 c 0,128.8787 -10.9502,179.5489 -48.3632,228.0161 -46.5381,60.584 -53.8382,62.7871 -341.2798,66.0917 l -267.3662,3.3046 -19.1628,34.1473 c -10.9501,18.726 -36.5005,42.9596 -57.4883,53.9748 -34.6755,18.726 -65.7009,20.929 -397.85559,19.8275 -300.2166,0 -365.9175,-2.2031 -392.38041,-16.5229 z M 648.92319,996.3621 c 3.65,-38.55347 -0.91257,-38.55347 -57.48833,2.20306 l -45.62564,33.04584 50.18821,-2.2031 c 47.45069,-3.3046 50.18819,-5.5076 52.92576,-33.0458 z m 124.10165,-14.31985 c -22.81277,-20.92902 -40.15048,-20.92902 -40.15048,0 0,11.01525 9.12507,16.52291 29.20034,16.52291 27.37542,0 28.28792,-1.10151 10.95014,-16.52291 z"
       id="path987" />
    <path
       style="stroke-width:1.32911861"
       d="m 1902.5263,733.77926 c -28.4163,-23.0869 -29.4311,-45.21187 0,-77.91838 58.8621,-65.41296 56.8325,-58.67932 36.5351,-131.78793 -10.1486,-37.51629 -21.3122,-67.33692 -24.3568,-67.33692 -3.0445,0 -30.4459,24.04892 -60.8918,52.90761 l -54.8028,51.94559 16.2379,54.83141 c 19.2825,63.48915 15.2229,78.8804 -18.2676,86.57606 -35.5202,8.6576 -54.8027,-1.92388 -66.9811,-34.6304 -10.1486,-27.89674 -11.1634,-28.85868 -28.4161,-14.4293 -36.5352,30.78256 -94.3822,-11.54349 -71.0404,-51.94567 14.208,-25.97279 14.208,-26.93473 -20.2973,-38.47822 -36.535,-11.54349 -46.6836,-32.70652 -32.4756,-64.45102 13.1933,-25.9728 42.6242,-29.82063 107.5754,-12.50543 l 39.5797,10.58148 59.877,-56.75536 59.8771,-56.75536 -82.2041,-18.2772 -82.204,-17.3152 -42.6242,39.44016 c -47.6985,44.25 -66.9809,49.05977 -91.3375,23.08698 -22.327,-24.04892 -21.3121,-43.28799 3.0445,-64.45102 l 21.3121,-18.27713 -28.4161,-21.1631 c -24.3567,-18.27713 -26.3864,-24.04884 -18.2675,-48.09776 8.1189,-20.20109 18.2675,-28.85869 37.5498,-30.78256 25.3716,-2.8859 27.4013,-6.73373 25.3716,-37.5163 -2.0297,-28.85867 3.0446,-37.51626 25.3716,-50.02169 24.3566,-13.46735 28.4161,-13.46735 45.6687,1.92388 11.1635,8.65759 25.3716,37.51626 32.4757,64.45107 12.1783,45.21188 15.2229,48.0977 54.8026,57.71738 23.3419,5.77171 57.8473,14.42931 77.1298,19.23894 19.2824,4.80991 37.5499,7.6958 39.5797,5.77185 2.0297,-1.92388 -7.1041,-35.59234 -18.2675,-75.03258 l -22.3272,-71.18465 -62.9216,-19.23913 c -57.8472,-17.31518 -61.9067,-20.20107 -64.9513,-49.059663 -4.0594,-35.592384 23.3419,-54.831448 63.9365,-45.211916 22.327,4.80977 25.3716,2.88589 25.3716,-17.315184 0,-30.782543 18.2676,-46.173855 52.773,-46.173855 17.2527,0 31.4608,6.73372 39.5798,20.201072 l 11.1634,20.2010034 22.3271,-20.2010034 c 27.4013,-24.048904 49.7283,-25.972784 71.0405,-4.80976 25.3717,24.0488234 19.2824,49.059667 -24.3568,94.271583 l -40.5946,41.364083 23.342,73.10857 23.3418,74.07064 57.8473,-55.79342 58.8622,-56.75542 -17.2527,-58.679269 c -20.2973,-68.298812 -11.1635,-88.4998836 37.55,-88.4998836 23.3419,0 32.4757,6.7337196 41.6095,26.9347236 7.104,14.429372 13.1932,26.934784 14.2081,28.858664 1.0149,0.96194 13.1932,-2.88588 28.4162,-8.65759 22.327,-9.619532 29.4311,-8.657592 46.6838,5.77171 22.327,19.239124 27.4013,57.717325 8.1189,68.298865 -7.1041,4.80977 0,11.54341 22.327,18.27712 43.6392,13.46736 55.8176,44.24991 31.4608,74.07061 -18.2675,21.16304 -21.3121,21.16304 -83.2189,8.6576 l -63.9365,-12.5055 -52.773,56.75544 -52.7729,55.79342 36.5351,11.54349 c 20.2973,5.77178 56.8324,13.46736 80.1744,17.31519 40.5945,6.73372 44.654,4.80977 82.204,-32.70651 45.6689,-45.21187 75.1,-50.02164 99.4567,-14.4293 16.2379,23.0869 16.2379,25.01085 -5.0743,51.94558 -20.2973,26.93473 -20.2973,28.85868 -2.0297,37.51628 10.1487,5.77171 22.327,17.31519 25.3716,25.97279 10.1487,24.04892 -20.2973,61.5652 -49.7284,61.5652 -22.327,0 -23.3419,2.88582 -15.223,29.82063 7.1041,23.0869 5.0744,32.70651 -11.1635,48.09776 -37.5499,35.59241 -74.0851,16.35326 -90.3229,-49.0597 -7.1041,-25.97287 -17.2527,-50.98366 -22.327,-53.86955 -11.1635,-6.73372 -153.2447,-42.32605 -156.2892,-39.44016 -1.015,0.96194 9.1337,34.63039 22.327,75.99444 l 24.3567,73.10869 52.773,11.54349 c 29.4311,6.73365 59.877,16.35318 66.9811,22.12496 35.5203,26.93474 -8.1189,86.57599 -57.8473,77.91839 -26.3864,-4.80977 -29.4311,-3.84783 -25.3717,12.50543 7.1041,24.04892 -28.4162,53.86954 -57.8472,49.05978 -13.1932,-1.92396 -29.4311,-12.50543 -35.5203,-24.04892 l -11.1635,-22.12497 -23.3419,24.04892 c -26.3865,26.93473 -39.5797,29.82055 -62.9216,12.50535 z"
       id="path1369" />
    <path
       style="stroke-width:1.32911861"
       d="m 936.75806,274.31396 c -28.41628,-23.0869 -29.43108,-45.2119 0,-77.9184 58.86205,-65.4129 56.83245,-58.6793 36.53507,-131.787903 -10.1486,-37.516306 -21.31219,-67.3369113 -24.35678,-67.3369113 -3.0445,0 -30.44588,24.0489033 -60.89176,52.9076073 l -54.80275,51.945607 16.23788,54.8314 c 19.28249,63.4891 15.22289,78.8804 -18.26758,86.576 -35.52017,8.6576 -54.80266,-1.9238 -66.98105,-34.6304 -10.14859,-27.8967 -11.16339,-28.8586 -28.41607,-14.4293 -36.53518,30.7826 -94.38213,-11.5434 -71.04035,-51.9456 14.20799,-25.9728 14.20799,-26.9348 -20.29728,-38.4782 C 607.94242,92.504358 597.79383,71.341257 612.00181,39.596753 625.1951,13.623949 654.62598,9.7761473 719.57713,27.091351 l 39.57967,10.5815 59.87695,-56.755407 59.87705,-56.75531 -82.20403,-18.277202 -82.20394,-17.315202 -42.62416,39.440106 c -47.69847,44.250006 -66.98085,49.059808 -91.33743,23.087004 -22.32704,-24.048904 -21.31214,-43.288008 3.0445,-64.45101 l 21.31208,-18.2771 -28.41608,-21.1631 c -24.35674,-18.2772 -26.38644,-24.0489 -18.26754,-48.0978 8.1189,-20.2011 18.26754,-28.8587 37.54983,-30.7826 25.37158,-2.8859 27.40127,-6.7337 25.37158,-37.5163 -2.0297,-28.8586 3.04459,-37.5162 25.37158,-50.0217 24.35658,-13.4673 28.41607,-13.4673 45.66866,1.9239 11.16349,8.6576 25.37158,37.5163 32.47567,64.4511 12.17829,45.2119 15.22289,48.0977 54.80256,57.7174 23.34188,5.7717 57.84725,14.4293 77.12974,19.2389 19.28238,4.8099 37.54987,7.6958 39.57967,5.7719 2.0297,-1.9239 -7.1041,-35.5924 -18.26749,-75.0326 l -22.32718,-71.1847 -62.92155,-19.2391 c -57.84715,-17.3152 -61.90665,-20.201 -64.95125,-49.0597 -4.0594,-35.5924 23.34188,-54.8314 63.93645,-45.2119 22.32698,4.8098 25.37158,2.8859 25.37158,-17.3152 0,-30.7825 18.26759,-46.1739 52.77296,-46.1739 17.25268,0 31.46077,6.7338 39.57977,20.2012 l 11.16339,20.201 22.32708,-20.201 c 27.40128,-24.049 49.72826,-25.9729 71.04045,-4.8098 25.3717,24.0488 19.2824,49.0597 -24.35679,94.2715 l -40.59456,41.3642 23.34198,73.1085 23.34178,74.0707 57.84729,-55.7934 58.8622,-56.7555 -17.2527,-58.6792 c -20.2973,-68.2988 -11.1635,-88.4999 37.55,-88.4999 23.3419,0 32.4757,6.7337 41.6095,26.9347 7.104,14.4294 13.1931,26.9348 14.2081,28.8587 1.0149,0.9619 13.1932,-2.8859 28.4162,-8.6576 22.3269,-9.6196 29.4311,-8.6576 46.6838,5.7717 22.3269,19.2391 27.4012,57.7173 8.1189,68.2989 -7.1041,4.8097 0,11.5434 22.3269,18.2771 43.6393,13.4673 55.8177,44.2499 31.4609,74.0706 -18.2675,21.163 -21.3121,21.163 -83.219,8.6576 l -63.9364,-12.5055 -52.773,56.7554 -52.7729,55.7934 36.5351,11.5435 c 20.2973,5.7718 56.8324,13.4674 80.1744,17.3152 40.5945,6.733702 44.6539,4.809802 82.204,-32.7065 45.6689,-45.2119 75.1,-50.0216 99.4567,-14.4293 16.2378,23.0869 16.2378,25.0109 -5.0743,51.945602 -20.2974,26.934704 -20.2974,28.858704 -2.0297,37.516306 10.1487,5.7717 22.327,17.315202 25.3716,25.972804 10.1487,24.048904 -20.2973,61.565209 -49.7284,61.565209 -22.327,0 -23.3419,2.8858 -15.223,29.820604 7.1041,23.086904 5.0744,32.706503 -11.1635,48.097805 -37.55,35.5924 -74.0852,16.3532 -90.3229,-49.059705 -7.1041,-25.972904 -17.2527,-50.9837077 -22.327,-53.8696077 -11.1635,-6.7337016 -153.2447,-42.3260073 -156.2892,-39.4402073 -1.015,0.962 9.1337,34.6304057 22.327,75.994511 l 24.3567,73.108709 52.773,11.5435 c 29.4311,6.7336 59.877,16.3531 66.9811,22.1249 35.5203,26.9348 -8.1189,86.576 -57.8473,77.9184 -26.3864,-4.8098 -29.4311,-3.8478 -25.3717,12.5054 7.1041,24.049 -28.4162,53.8696 -57.8472,49.0598 -13.1932,-1.9239 -29.4311,-12.5054 -35.5203,-24.0489 l -11.1635,-22.125 -23.34189,24.049 c -26.38648,26.9347 -39.57967,29.8205 -62.92155,12.5053 z"
       id="path1369-3" />
  </g>
</svg>
