<?xml version="1.0" encoding="UTF-8" standalone="no"?>
<svg
   xmlns:dc="http://purl.org/dc/elements/1.1/"
   xmlns:cc="http://creativecommons.org/ns#"
   xmlns:rdf="http://www.w3.org/1999/02/22-rdf-syntax-ns#"
   xmlns:svg="http://www.w3.org/2000/svg"
   version="1.0"
   width="468pt"
   height="463pt"
   viewBox="0 0 468 463"
   id="svg2">
  
  <defs
     id="defs34" />
  
  <g
     transform="matrix(0.11936031,0,0,-0.11936031,149.52335,314.68102)"
     id="g6"
     fill="#000000"
     stroke="none">
    <path
       d="M -423.25699,1519.4947 C -688.4798,1362 -905.02508,1125.418 -1030.5109,853.14228 c -61.374,-131.55637 -81.9901,-196.44489 -100.9511,-317.31578 -96.5591,-606.120277 220.17465,-1186.757 808.57222,-1481.7087 496.9463,-248.265 1080.71967,-251.0874 1584.98508,-7.30169 148.8701,71.63422 165.562,90.5793 127.7388,148.57053 -24.3748,37.37213 -46.4294,41.4951 -162.1632,27.42995 -283.87865,-35.36242 -705.84407,74.18691 -1043.88627,271.8118 -212.841357,124.4305 -421.0931,317.53767 -515.24595,478.225405 -121.81753,207.557645 -178.06928,470.469195 -166.61014,779.507435 6.93114,174.94553 76.57149,440.80087 153.49244,591.57307 63.51893,122.3292 67.16982,134.5465 42.11426,165.5393 -29.56239,36.4183 -70.30945,39.5095 -120.79223,10.0211 z M -652.74701,849.96293 c -75.0311,-780.16248 271.10034,-1303.43648 1086.37579,-1638.93457 107.85426,-45.11372 415.1123,-124.27982 483.17362,-126.19703 35.32757,-0.72014 35.32757,-0.72014 8.70938,-11.86883 -51.48309,-20.53171 -256.31701,-53.86731 -364.73352,-59.85192 -302.81869,-16.71518 -633.652486,61.48326 -888.02462,210.99062 -319.26205,186.64575 -545.92228,482.20624 -627.11599,817.504706 -46.26375,189.699184 -44.28806,360.365934 5.57662,560.044134 52.2986,207.82304 152.69228,387.92763 304.75969,548.18806 l 64.33344,67.6355 -31.53804,-134.2485 c -17.02209,-73.3682 -36.30287,-178.90331 -41.51637,-233.26217 z"
       id="path19"
       style="stroke-width:1" />
    <g
       style="fill:#000000;stroke:none;stroke-width:1.37218714"
       transform="matrix(0.90180034,-0.0013923,0.00119868,1.0474689,-3.8546574,-546.21427)"
       id="g378">
      <path
         d="m 773,2931 c -50,-23 -89,-78 -99,-138 l -7,-43 H 513 c -171,0 -199,-7 -249,-61 -40,-43 -54,-86 -54,-164 v -62 l -56,-12 C 87,2436 27,2382 11,2323 5,2302 0,2235 0,2175 0,2046 18,1998 83,1946 l 39,-31 249,-3 c 137,-2 249,-5 249,-7 0,-2 -38,-70 -85,-151 -47,-82 -88,-158 -91,-169 -3,-13 3,-32 17,-48 17,-23 28,-28 58,-25 35,3 38,6 127,161 l 92,157 7,-75 c 6,-72 8,-76 48,-110 22,-19 55,-40 72,-46 l 32,-12 -47,-81 c -63,-108 -66,-118 -37,-151 25,-30 66,-36 92,-15 8,7 45,66 83,131 64,113 68,119 100,119 37,0 36,3 16,-45 -14,-34 -14,-39 1,-61 9,-14 28,-29 42,-35 37,-14 65,8 105,81 30,55 36,60 67,60 42,0 46,10 -79,-206 -55,-95 -100,-182 -100,-193 0,-35 36,-63 78,-59 36,3 37,4 154,207 65,113 121,215 124,228 6,21 12,23 61,23 h 55 l -32,-52 c -17,-29 -43,-77 -57,-105 l -27,-53 20,-27 c 15,-20 31,-29 57,-31 42,-4 33,-16 167,218 95,164 96,165 134,168 l 37,3 -31,-53 c -17,-29 -43,-77 -58,-105 l -26,-53 20,-27 c 15,-20 31,-29 57,-31 41,-4 39,-7 132,157 l 61,106 134,5 c 120,4 139,7 167,28 18,13 39,33 48,44 8,12 17,19 20,16 4,-3 -44,-93 -105,-199 -111,-194 -118,-213 -86,-246 18,-20 69,-26 88,-11 25,20 248,412 248,437 0,20 5,21 105,21 122,0 156,11 202,63 45,52 53,91 53,272 0,181 -8,220 -53,272 -50,57 -75,63 -266,63 h -169 l -4,128 c -3,120 -5,131 -30,169 -49,74 -64,78 -391,81 l -288,3 -32,36 c -56,63 -55,63 -494,63 -369,0 -401,-2 -440,-19 z"
         id="path340"
         style="stroke-width:1.37218714" />
      <path
         d="m 2088,1613 c -32,-39 -238,-410 -238,-430 0,-51 79,-83 113,-45 23,25 247,414 247,428 0,6 -9,23 -21,38 -25,31 -78,36 -101,9 z"
         id="path342"
         style="stroke-width:1.37218714" />
      <path
         d="M 643,1538 C 632,1525 572,1426 510,1318 403,1130 398,1119 410,1091 c 15,-37 57,-54 90,-38 26,13 260,410 260,440 0,26 -45,67 -73,67 -13,0 -33,-10 -44,-22 z"
         id="path344"
         style="stroke-width:1.37218714" />
      <path
         d="m 364,1430 c -21,-8 -248,-389 -260,-435 -12,-49 67,-95 108,-62 23,18 248,413 248,435 0,43 -55,79 -96,62 z"
         id="path346"
         style="stroke-width:1.37218714" />
      <path
         d="M 997,1348 C 970,1327 750,937 750,909 c 0,-14 8,-33 18,-42 22,-20 75,-22 94,-4 31,31 241,410 241,435 0,48 -66,79 -106,50 z"
         id="path348"
         style="stroke-width:1.37218714" />
      <path
         d="m 1698,1333 c -36,-42 -238,-405 -238,-428 0,-54 78,-87 112,-47 8,9 65,104 127,209 115,199 127,235 93,266 -24,22 -75,22 -94,0 z"
         id="path350"
         style="stroke-width:1.37218714" />
      <path
         d="m 2142,1258 c -32,-39 -242,-417 -242,-435 0,-46 67,-80 107,-55 15,9 253,422 253,438 0,6 -9,23 -21,38 -22,29 -78,36 -97,14 z"
         id="path352"
         style="stroke-width:1.37218714" />
      <path
         d="M 687,1218 C 628,1137 460,830 460,801 c 0,-53 78,-83 112,-43 34,39 238,407 238,428 0,33 -34,64 -69,64 -22,0 -36,-9 -54,-32 z"
         id="path354"
         style="stroke-width:1.37218714" />
      <path
         d="m 1422,1237 c -33,-18 -264,-424 -256,-451 13,-47 71,-71 106,-43 27,21 248,412 248,439 0,45 -57,77 -98,55 z"
         id="path356"
         style="stroke-width:1.37218714" />
      <path
         d="M 1062,1053 C 1052,1043 999,959 946,867 805,622 807,627 821,597 c 14,-30 59,-52 88,-42 25,8 261,413 261,449 0,27 -41,66 -70,66 -10,0 -27,-8 -38,-17 z"
         id="path358"
         style="stroke-width:1.37218714" />
      <path
         d="m 1757,1028 c -13,-18 -73,-118 -132,-222 -105,-182 -108,-190 -94,-215 8,-14 27,-32 42,-39 24,-12 32,-11 51,2 28,18 256,413 256,443 0,26 -44,63 -76,63 -14,0 -32,-12 -47,-32 z"
         id="path360"
         style="stroke-width:1.37218714" />
      <path
         d="M 327,998 C 300,973 70,618 63,590 c -12,-46 52,-89 98,-67 26,14 279,401 279,428 0,24 -31,57 -61,64 -19,5 -33,0 -52,-17 z"
         id="path362"
         style="stroke-width:1.37218714" />
      <path
         d="M 663,768 C 638,740 420,359 420,344 c 0,-6 9,-23 21,-38 23,-29 78,-36 98,-12 31,37 241,413 241,431 0,29 -40,65 -71,65 -14,0 -35,-10 -46,-22 z"
         id="path364"
         style="stroke-width:1.37218714" />
      <path
         d="m 1352,738 c -24,-31 -242,-418 -242,-431 0,-8 9,-26 21,-41 22,-28 64,-35 91,-14 19,16 236,391 244,422 8,34 -30,76 -71,76 -18,0 -37,-6 -43,-12 z"
         id="path366"
         style="stroke-width:1.37218714" />
      <path
         d="M 398,703 C 382,699 160,355 129,288 c -10,-23 -9,-31 5,-52 19,-29 58,-43 87,-30 28,13 269,402 269,435 0,40 -49,73 -92,62 z"
         id="path368"
         style="stroke-width:1.37218714" />
      <path
         d="m 1806,658 c -22,-20 -181,-284 -199,-331 -17,-45 38,-95 89,-83 28,7 214,326 214,366 0,29 -22,54 -57,64 -14,5 -29,0 -47,-16 z"
         id="path370"
         style="stroke-width:1.37218714" />
      <path
         d="M 1063,645 C 1051,637 989,540 925,429 799,213 793,193 842,157 c 54,-40 70,-24 199,199 64,111 120,211 124,223 5,16 -1,29 -24,51 -33,34 -47,37 -78,15 z"
         id="path372"
         style="stroke-width:1.37218714" />
      <path
         d="M 732,503 C 699,474 490,101 490,70 c 0,-29 22,-54 57,-64 14,-5 29,0 47,16 35,32 246,401 246,432 0,27 -41,66 -70,66 -10,0 -27,-8 -38,-17 z"
         id="path374"
         style="stroke-width:1.37218714" />
      <path
         d="M 1427,458 C 1414,440 1362,352 1311,263 1210,87 1204,63 1252,27 c 52,-39 69,-22 189,186 60,104 109,199 109,212 0,28 -43,65 -76,65 -14,0 -32,-12 -47,-32 z"
         id="path376"
         style="stroke-width:1.37218714" />
    </g>
  </g>
</svg>
