<?xml version="1.0" encoding="UTF-8" standalone="no"?>
<svg
   xmlns:dc="http://purl.org/dc/elements/1.1/"
   xmlns:cc="http://creativecommons.org/ns#"
   xmlns:rdf="http://www.w3.org/1999/02/22-rdf-syntax-ns#"
   xmlns:svg="http://www.w3.org/2000/svg"
   xmlns="http://www.w3.org/2000/svg"
   xmlns:sodipodi="http://sodipodi.sourceforge.net/DTD/sodipodi-0.dtd"
   xmlns:inkscape="http://www.inkscape.org/namespaces/inkscape"
   version="1.0"
   width="468pt"
   height="340pt"
   viewBox="0 0 468 340"
   preserveAspectRatio="xMidYMid meet"
   id="svg4247"
   sodipodi:docname="weather_fog.svg"
   inkscape:version="0.92.3 (2405546, 2018-03-11)">
  <defs
     id="defs4251" />
  <sodipodi:namedview
     pagecolor="#ffffff"
     bordercolor="#666666"
     borderopacity="1"
     objecttolerance="10"
     gridtolerance="10"
     guidetolerance="10"
     inkscape:pageopacity="0"
     inkscape:pageshadow="2"
     inkscape:window-width="1920"
     inkscape:window-height="1024"
     id="namedview4249"
     showgrid="false"
     inkscape:zoom="1.8441176"
     inkscape:cx="312"
     inkscape:cy="226.66667"
     inkscape:window-x="-4"
     inkscape:window-y="-4"
     inkscape:window-maximized="1"
     inkscape:current-layer="svg4247" />
  <metadata
     id="metadata4193">
Created by potrace 1.8, written by Peter Selinger 2001-2007
<rdf:RDF>
  <cc:Work
     rdf:about="">
    <dc:format>image/svg+xml</dc:format>
    <dc:type
       rdf:resource="http://purl.org/dc/dcmitype/StillImage" />
    <dc:title></dc:title>
  </cc:Work>
</rdf:RDF>
</metadata>
  <g
     transform="translate(0,340) scale(0.158108,-0.158108)"
     fill="#000000"
     stroke="none"
     id="g4245">
    <path
       d="M367 2143 c-4 -3 -7 -12 -7 -20 0 -11 123 -13 698 -13 384 0 701 3 705 6 3 3 3 12 0 20 -4 12 -113 14 -697 14 -381 0 -696 -3 -699 -7z"
       id="path4195" />
    <path
       d="M151 2071 c-8 -5 -11 -16 -8 -25 6 -15 97 -16 981 -16 818 0 975 2 979 14 3 7 0 19 -6 25 -14 14 -1924 16 -1946 2z"
       id="path4197" />
    <path
       d="M43 1794 c-3 -9 0 -20 8 -25 18 -11 900 -11 918 0 8 5 11 16 8 25 -6 14 -54 16 -467 16 -413 0 -461 -2 -467 -16z"
       id="path4201" />
    <path
       d="M364 1715 c-3 -8 -3 -19 1 -25 10 -16 689 -14 704 3 27 34 -6 37 -356 37 -291 0 -344 -2 -349 -15z"
       id="path4203" />
    <path
       d="M92 1103 c3 -17 35 -18 472 -21 468 -2 498 0 480 30 -3 4 -219 8 -480 8 -447 0 -475 -1 -472 -17z"
       id="path4219" />
    <path
       d="M5 1040 c-3 -5 -3 -14 0 -20 4 -6 154 -10 416 -10 386 0 410 1 407 18 -3 16 -32 17 -410 20 -266 1 -409 -1 -413 -8z"
       id="path4221" />
    <path
       d="M2185 960 c-16 -27 16 -30 296 -30 282 0 289 0 289 20 0 20 -7 20 -289 20 -183 0 -292 -4 -296 -10z"
       id="path4223" />
    <path
       d="M2237 896 c-13 -33 14 -36 323 -36 168 0 311 4 319 9 8 5 11 16 8 25 -6 14 -42 16 -326 16 -262 0 -320 -2 -324 -14z"
       id="path4225" />
    <path
       d="M685 689 c-4 -6 -3 -15 2 -20 5 -5 257 -8 619 -7 533 3 609 5 609 18 0 13 -76 15 -612 18 -435 1 -614 -1 -618 -9z"
       id="path4233" />
    <path
       d="M1568 643 c-110 -3 -118 -5 -118 -24 0 -19 6 -19 168 -17 159 3 167 4 167 23 0 23 -11 24 -217 18z"
       id="path4235" />
    <path
       d="M445 629 c-4 -6 -3 -15 2 -20 5 -5 156 -8 364 -7 307 3 354 5 354 18 0 13 -47 15 -357 18 -251 1 -359 -1 -363 -9z"
       id="path4237" />
  </g>
  <path
     style="stroke-width:0.15810801"
     inkscape:connector-curvature="0"
     d="m 269.25885,94.23795 c 0.47432,2.68784 5.53378,2.84594 74.62697,3.32027 73.99454,0.31621 78.73778,0 75.89184,-4.74324 -0.47432,-0.63243 -34.62566,-1.26487 -75.89184,-1.26487 -70.67427,0 -75.1013,0.15811 -74.62697,2.68784 z"
     id="path4219-8" />
  <path
     style="stroke-width:0.15810801"
     inkscape:connector-curvature="0"
     d="m 244.1949,104.8199 c -0.63244,0.94865 -0.47433,2.37162 0.31621,3.16216 0.79054,0.79054 24.66485,1.26486 57.55131,1.10675 48.53916,-0.47432 55.97024,-0.79054 55.97024,-2.84594 0,-2.0554 -7.43108,-2.37162 -56.44456,-2.84594 -39.68511,-0.15811 -56.76077,0.1581 -57.3932,1.42297 z"
     id="path4237-2" />
  <path
     style="stroke-width:0.15810801"
     inkscape:connector-curvature="0"
     d="m 211.87497,307.64794 c -0.63243,0.47433 -1.10676,1.8973 -1.10676,3.16216 0,1.73919 19.44729,2.05541 110.35939,2.05541 60.71346,0 110.83371,-0.47433 111.46614,-0.94865 0.47432,-0.47432 0.47432,-1.8973 0,-3.16216 -0.63243,-1.8973 -17.86621,-2.21351 -110.20128,-2.21351 -60.23915,0 -110.04317,0.47432 -110.51749,1.10675 z"
     id="path4195-2" />
  <path
     style="stroke-width:0.15810801"
     inkscape:connector-curvature="0"
     d="m 152.52911,320.63842 c -1.26486,0.79054 -1.73919,2.52973 -1.26486,3.9527 0.94864,2.37162 15.33647,2.52973 155.10394,2.52973 129.33235,0 154.1553,-0.31622 154.78774,-2.21351 0.47432,-1.10676 0,-3.00406 -0.94866,-3.9527 -2.21351,-2.21352 -304.19978,-2.52973 -307.67816,-0.31622 z"
     id="path4197-2" />
</svg>
