<?xml version="1.0" encoding="UTF-8" standalone="no"?>
<svg
   xmlns:dc="http://purl.org/dc/elements/1.1/"
   xmlns:cc="http://creativecommons.org/ns#"
   xmlns:rdf="http://www.w3.org/1999/02/22-rdf-syntax-ns#"
   xmlns:svg="http://www.w3.org/2000/svg"
   xmlns="http://www.w3.org/2000/svg"
   xmlns:inkscape="http://www.inkscape.org/namespaces/inkscape"
   version="1.0"
   width="468pt"
   height="463pt"
   viewBox="0 0 468 463"
   id="svg2">
 <defs
     id="defs34" />
 <g
     transform="matrix(0.11936031,0,0,-0.11936031,149.52335,314.68102)"
     id="g6"
     fill="#000000"
     stroke="none">
    <path
       d="M -423.25699,1519.4947 C -688.4798,1362 -905.02508,1125.418 -1030.5109,853.14228 c -61.374,-131.55637 -81.9901,-196.44489 -100.9511,-317.31578 -96.5591,-606.120277 220.17465,-1186.757 808.57222,-1481.7087 496.9463,-248.265 1080.71967,-251.0874 1584.98508,-7.30169 148.8701,71.63422 165.562,90.5793 127.7388,148.57053 -24.3748,37.37213 -46.4294,41.4951 -162.1632,27.42995 -283.87865,-35.36242 -705.84407,74.18691 -1043.88627,271.8118 -212.841357,124.4305 -421.0931,317.53767 -515.24595,478.225405 -121.81753,207.557645 -178.06928,470.469195 -166.61014,779.507435 6.93114,174.94553 76.57149,440.80087 153.49244,591.57307 63.51893,122.3292 67.16982,134.5465 42.11426,165.5393 -29.56239,36.4183 -70.30945,39.5095 -120.79223,10.0211 z M -652.74701,849.96293 c -75.0311,-780.16248 271.10034,-1303.43648 1086.37579,-1638.93457 107.85426,-45.11372 415.1123,-124.27982 483.17362,-126.19703 35.32757,-0.72014 35.32757,-0.72014 8.70938,-11.86883 -51.48309,-20.53171 -256.31701,-53.86731 -364.73352,-59.85192 -302.81869,-16.71518 -633.652486,61.48326 -888.02462,210.99062 -319.26205,186.64575 -545.92228,482.20624 -627.11599,817.504706 -46.26375,189.699184 -44.28806,360.365934 5.57662,560.044134 52.2986,207.82304 152.69228,387.92763 304.75969,548.18806 l 64.33344,67.6355 -31.53804,-134.2485 c -17.02209,-73.3682 -36.30287,-178.90331 -41.51637,-233.26217 z"
       id="path19"
       style="stroke-width:1" />
    <g
       style="fill:#000000;stroke:none;stroke-width:1.46196711"
       transform="matrix(0.94958568,0,0,0.87633362,-140.19846,217.5777)"
       id="g91">
      <path
         d="m 773,2391 c -50,-23 -89,-78 -99,-138 l -7,-43 H 513 c -171,0 -199,-7 -249,-61 -40,-43 -54,-86 -54,-164 v -62 l -56,-12 C 87,1896 27,1842 11,1783 5,1762 0,1695 0,1635 0,1506 18,1458 83,1406 l 39,-31 285,-3 285,-3 23,-26 c 18,-22 24,-43 29,-112 6,-85 6,-86 47,-123 22,-21 56,-43 74,-49 l 32,-12 -47,-81 C 787,858 784,848 813,815 c 25,-30 66,-36 92,-15 8,7 45,66 83,131 64,113 68,119 100,119 37,0 36,3 16,-45 -14,-34 -14,-39 1,-61 9,-14 28,-29 42,-35 37,-14 65,8 105,81 30,55 36,60 67,60 42,0 46,10 -79,-206 -55,-95 -100,-182 -100,-193 0,-35 36,-63 78,-59 36,3 37,4 154,207 65,113 121,215 124,228 6,21 11,23 75,23 38,0 69,-4 69,-10 0,-5 -22,-47 -50,-94 -27,-47 -50,-96 -50,-110 0,-27 41,-66 70,-66 33,0 58,34 161,213 56,99 108,181 115,184 7,2 24,3 37,1 25,-3 25,-3 -29,-93 -61,-103 -66,-136 -22,-168 50,-37 73,-19 158,128 l 76,130 115,5 c 108,5 118,7 153,34 21,15 40,34 43,42 4,11 41,14 189,14 207,0 230,5 281,63 45,52 53,91 53,272 0,181 -8,220 -53,272 -50,57 -75,63 -266,63 h -169 l -4,128 c -3,120 -5,131 -30,169 -49,74 -64,78 -391,81 l -288,3 -32,36 c -56,63 -55,63 -494,63 -369,0 -401,-2 -440,-19 z"
         id="path73"
         style="stroke-width:1.46196711" />
      <path
        d="m 2132,1073 c -17,-15 -174,-280 -234,-394 -22,-43 -12,-80 29,-98 53,-24 65,-11 193,210 66,114 120,219 120,233 0,27 -41,66 -70,66 -10,0 -27,-8 -38,-17 z"
         id="path75"
         style="stroke-width:1.46196711" />
      <path
         d="M 643,998 C 632,985 572,886 510,778 403,590 398,579 410,551 c 15,-37 57,-54 90,-38 26,13 260,410 260,440 0,26 -45,67 -73,67 -13,0 -33,-10 -44,-22 z"
         id="path77"
         style="stroke-width:1.46196711" />
      <path
         d="M 997,808 C 970,787 750,397 750,369 c 0,-14 8,-33 18,-42 22,-20 75,-22 94,-4 31,31 241,410 241,435 0,48 -66,79 -106,50 z"
         id="path79"
         style="stroke-width:1.46196711" />
      <path
         d="m 1738,788 c -29,-29 -248,-410 -248,-430 0,-24 32,-56 61,-63 19,-5 33,0 52,17 30,27 247,404 247,429 0,25 -31,57 -62,65 -21,4 -33,0 -50,-18 z"
         id="path81"
         style="stroke-width:1.46196711" />
      <path
         d="M 687,678 C 628,597 460,290 460,261 c 0,-53 78,-83 112,-43 34,39 238,407 238,428 0,33 -34,64 -69,64 -22,0 -36,-9 -54,-32 z"
         id="path83"
         style="stroke-width:1.46196711" />
      <path
         d="m 1448,688 c -20,-17 -248,-413 -248,-432 0,-28 13,-47 41,-61 53,-28 67,-12 193,205 64,111 119,212 122,225 12,49 -67,95 -108,63 z"
         id="path85"
         style="stroke-width:1.46196711" />
      <path
         d="M 1062,513 C 1052,503 999,419 946,327 805,82 807,87 821,57 835,27 880,5 909,15 c 25,8 261,413 261,449 0,27 -41,66 -70,66 -10,0 -27,-8 -38,-17 z"
         id="path87"
         style="stroke-width:1.46196711" />
      <path
         d="M 1798,493 C 1767,456 1560,84 1560,64 c 0,-28 40,-64 72,-64 14,0 32,8 41,18 23,25 247,414 247,428 0,6 -9,23 -21,38 -25,31 -78,36 -101,9 z"
         id="path89"
         style="stroke-width:1.46196711" />
    </g>
  </g>
</svg>
