<?xml version="1.0" encoding="UTF-8" standalone="no"?>
<!-- Created with Inkscape (http://www.inkscape.org/) -->

<svg
   xmlns:dc="http://purl.org/dc/elements/1.1/"
   xmlns:cc="http://creativecommons.org/ns#"
   xmlns:rdf="http://www.w3.org/1999/02/22-rdf-syntax-ns#"
   xmlns:svg="http://www.w3.org/2000/svg"
   xmlns="http://www.w3.org/2000/svg"
   xmlns:sodipodi="http://sodipodi.sourceforge.net/DTD/sodipodi-0.dtd"
   xmlns:inkscape="http://www.inkscape.org/namespaces/inkscape"
   version="1.0"
   width="425.22217"
   height="527.41693"
   viewBox="0 0 340.17773 421.93354"
   id="svg2996"
   inkscape:version="0.91 r13725"
   sodipodi:docname="mfh_Abfalltonne.svg">
  <sodipodi:namedview
     pagecolor="#ffffff"
     bordercolor="#666666"
     borderopacity="1"
     objecttolerance="10"
     gridtolerance="10"
     guidetolerance="10"
     inkscape:pageopacity="0"
     inkscape:pageshadow="2"
     inkscape:window-width="1440"
     inkscape:window-height="848"
     id="namedview10"
     showgrid="false"
     inkscape:zoom="0.80683761"
     inkscape:cx="271.9357"
     inkscape:cy="275.72844"
     inkscape:window-x="-8"
     inkscape:window-y="-8"
     inkscape:window-maximized="1"
     inkscape:current-layer="svg2996"
     showguides="false"
     fit-margin-top="0"
     fit-margin-left="0"
     fit-margin-right="0"
     fit-margin-bottom="0" />
  <defs
     id="defs3012" />
  <metadata
     id="metadata2998">
Created by potrace 1.8, written by Peter Selinger 2001-2007
<rdf:RDF>
  <cc:Work
     rdf:about="">
    <dc:format>image/svg+xml</dc:format>
    <dc:type
       rdf:resource="http://purl.org/dc/dcmitype/StillImage" />
    <dc:title></dc:title>
  </cc:Work>
</rdf:RDF>
</metadata>
  <path
     style="color:#000000;font-style:normal;font-variant:normal;font-weight:normal;font-stretch:normal;font-size:medium;line-height:normal;font-family:sans-serif;text-indent:0;text-align:start;text-decoration:none;text-decoration-line:none;text-decoration-style:solid;text-decoration-color:#000000;letter-spacing:normal;word-spacing:normal;text-transform:none;direction:ltr;block-progression:tb;writing-mode:lr-tb;baseline-shift:baseline;text-anchor:start;white-space:normal;clip-rule:nonzero;display:inline;overflow:visible;visibility:visible;opacity:1;isolation:auto;mix-blend-mode:normal;color-interpolation:sRGB;color-interpolation-filters:linearRGB;solid-color:#000000;solid-opacity:1;fill:#000000;fill-opacity:1;fill-rule:evenodd;stroke:none;stroke-width:12;stroke-linecap:butt;stroke-linejoin:round;stroke-miterlimit:4;stroke-dasharray:none;stroke-dashoffset:0;stroke-opacity:1;color-rendering:auto;image-rendering:auto;shape-rendering:auto;text-rendering:auto;enable-background:accumulate"
     d="M 290.54116,41.999945 62.490377,42.992132 a 6.0006,6.0006 0 0 0 -2.8125,0.712891 c -9.48198,5.092167 -19.13316,8.092172 -27.97852,8.210937 a 6.0006,6.0006 0 0 0 -5.89844,6.515625 l 29.7461,345.050785 a 6.0006,6.0006 0 0 0 5.97851,5.48438 l 193.347663,0 a 6.0006,6.0006 0 0 0 5.96875,-5.40039 L 296.53725,48.601507 a 6.0006,6.0006 0 0 0 -5.99609,-6.601562 z m -6.60938,12.029297 -34.48633,342.937508 -182.416013,0 -28.75977,-333.623055 c 8.71682,-1.105189 17.34321,-4.085751 25.60938,-8.357422 L 283.93178,54.029242 Z"
     id="path4150"
     inkscape:connector-curvature="0" />
  <path
     style="color:#000000;font-style:normal;font-variant:normal;font-weight:normal;font-stretch:normal;font-size:medium;line-height:normal;font-family:sans-serif;text-indent:0;text-align:start;text-decoration:none;text-decoration-line:none;text-decoration-style:solid;text-decoration-color:#000000;letter-spacing:normal;word-spacing:normal;text-transform:none;direction:ltr;block-progression:tb;writing-mode:lr-tb;baseline-shift:baseline;text-anchor:start;white-space:normal;clip-rule:nonzero;display:inline;overflow:visible;visibility:visible;opacity:1;isolation:auto;mix-blend-mode:normal;color-interpolation:sRGB;color-interpolation-filters:linearRGB;solid-color:#000000;solid-opacity:1;fill:#000000;fill-opacity:1;fill-rule:evenodd;stroke:none;stroke-width:12;stroke-linecap:round;stroke-linejoin:round;stroke-miterlimit:4;stroke-dasharray:none;stroke-dashoffset:0;stroke-opacity:1;color-rendering:auto;image-rendering:auto;shape-rendering:auto;text-rendering:auto;enable-background:accumulate"
     d="M 6.0001369,19.195257 A 6.0006,6.0006 0 0 0 0.04896686,25.960882 L 4.2559969,58.681585 a 6.0006,6.0006 0 0 0 5.9511701,5.234375 l 21.57227,0 a 6.0006,6.0006 0 1 0 0,-12 l -16.29492,0 -2.66407,-20.720703 279.414073,0 -0.47071,10.804688 -4.16992,0 a 6.0006,6.0006 0 1 0 0,12 l 9.91406,0 a 6.0006,6.0006 0 0 0 5.99414,-5.738281 l 0.99219,-22.806641 a 6.0006,6.0006 0 0 0 -5.99414,-6.259766 l -292.5000031,0 z"
     id="path4164"
     inkscape:connector-curvature="0" />
  <path
     style="opacity:1;fill:#000000;fill-opacity:1;fill-rule:nonzero;stroke-width:15;stroke-linecap:butt;stroke-linejoin:round;stroke-miterlimit:4;stroke-dasharray:none"
     d="m 328.27944,38.00041 a 10,10 0 0 1 -10,10 10,10 0 0 1 -10,-10 10,10 0 0 1 10,-10 10,10 0 0 1 10,10 z"
     id="path4166"
     inkscape:connector-curvature="0" />
  <path
     style="color:#000000;font-style:normal;font-variant:normal;font-weight:normal;font-stretch:normal;font-size:medium;line-height:normal;font-family:sans-serif;text-indent:0;text-align:start;text-decoration:none;text-decoration-line:none;text-decoration-style:solid;text-decoration-color:#000000;letter-spacing:normal;word-spacing:normal;text-transform:none;direction:ltr;block-progression:tb;writing-mode:lr-tb;baseline-shift:baseline;text-anchor:start;white-space:normal;clip-rule:nonzero;display:inline;overflow:visible;visibility:visible;opacity:1;isolation:auto;mix-blend-mode:normal;color-interpolation:sRGB;color-interpolation-filters:linearRGB;solid-color:#000000;solid-opacity:1;fill:#000000;fill-opacity:1;fill-rule:evenodd;stroke:none;stroke-width:7.99999952;stroke-linecap:round;stroke-linejoin:round;stroke-miterlimit:4;stroke-dasharray:none;stroke-dashoffset:0;stroke-opacity:1;color-rendering:auto;image-rendering:auto;shape-rendering:auto;text-rendering:auto;enable-background:accumulate"
     d="M 237.47475,0.17963183 C 178.01096,-0.59475817 121.59742,1.2090668 62.318497,4.1581478 a 4.0003998,4.0003998 0 0 0 -0.50391,0.05859 c -7.27116,1.29522 -11.94948,5.676319 -15.33398,9.7519532 -3.38451,4.075634 -5.87993,7.780499 -8.87695,9.638672 a 4.0003998,4.0003998 0 1 0 4.21679,6.798828 c 5.05198,-3.132254 7.85847,-7.768516 10.81446,-11.328125 2.92425,-3.521393 5.61334,-6.041464 10.4414,-6.945313 C 141.80348,8.2216258 215.31892,6.3461338 297.67006,9.8554098 c 6.47635,0.6594592 15.21148,3.0746332 22.34961,5.9824212 3.57994,1.458324 6.77724,3.044012 9.0625,4.490235 1.80677,1.143405 2.71218,2.138962 3.05664,2.484375 l -0.89843,29.294922 c -3.65887,3.583833 -9.4787,4.533163 -17.31055,5.791015 -8.40831,1.350434 -18.63692,3.416279 -27.19922,12.080078 a 4.0003998,4.0003998 0 1 0 5.69141,5.62305 c 6.80604,-6.886724 14.60793,-8.492938 22.77539,-9.80469 8.16746,-1.311753 17.08667,-2.099944 23.0664,-9.304688 a 4.0003998,4.0003998 0 0 0 0.91992,-2.43164 l 0.99219,-32.31836 A 4.0003998,4.0003998 0 0 0 339.881,20.109316 c -1.26925,-3.110874 -3.64147,-4.719645 -6.51953,-6.541016 -2.87806,-1.821371 -6.422,-3.549065 -10.32422,-5.1386722 -7.80443,-3.179214 -16.95417,-5.776089 -24.63281,-6.546875 a 4.0003998,4.0003998 0 0 0 -0.23047,-0.01563 C 277.45617,0.98255083 257.29601,0.43775283 237.47475,0.17962283 Z"
     id="path4168"
     inkscape:connector-curvature="0" />
  <g
     id="g8976"
     transform="matrix(1,0,0,0.77048168,-84.107133,46.068308)">
    <path
       inkscape:connector-curvature="0"
       id="path8934"
       d="m 147.57807,457.59129 a 7.4371839,7.3172241 0 0 0 -7.4375,7.31753 l 0,5.29291 c 0,3.30472 0.0335,5.75819 0.81406,8.50433 0.78059,2.74613 3.17515,5.77933 5.41875,7.12538 1.41042,0.84616 4.10343,1.65728 6.325,1.8263 2.22158,0.16902 4.93248,0.17292 9.76407,0.17372 4.47197,7.7e-4 7.2215,-0.0189 9.35937,-0.1568 2.13787,-0.13786 4.35445,-0.31956 6.68594,-1.92624 1.97842,-1.36339 4.2245,-4.23881 4.98125,-6.93474 0.75675,-2.69596 0.775,-5.06551 0.775,-8.27221 l 0,-5.63265 a 7.4371839,7.3172241 0 0 0 -7.43594,-7.31753 l -14.625,0 -14.625,0 z m 7.55312,14.63353 7.07188,0 7.09687,0 c -0.0217,0.35662 -0.0257,0.62476 -0.0484,0.87164 -1.48996,0.0553 -3.22496,0.10208 -6.78593,0.10146 -4.04207,-6.6e-4 -5.90404,-0.0474 -7.28438,-0.10914 -0.023,-0.22079 -0.0266,-0.54223 -0.05,-0.86396 z"
       style="color:#000000;font-style:normal;font-variant:normal;font-weight:normal;font-stretch:normal;font-size:medium;line-height:normal;font-family:sans-serif;text-indent:0;text-align:start;text-decoration:none;text-decoration-line:none;text-decoration-style:solid;text-decoration-color:#000000;letter-spacing:normal;word-spacing:normal;text-transform:none;direction:ltr;block-progression:tb;writing-mode:lr-tb;baseline-shift:baseline;text-anchor:start;white-space:normal;clip-rule:nonzero;display:inline;overflow:visible;visibility:visible;opacity:1;isolation:auto;mix-blend-mode:normal;color-interpolation:sRGB;color-interpolation-filters:linearRGB;solid-color:#000000;solid-opacity:1;fill:#000000;fill-opacity:1;fill-rule:nonzero;stroke:none;stroke-width:18.59110069;stroke-linecap:round;stroke-linejoin:round;stroke-miterlimit:4;stroke-dasharray:none;stroke-dashoffset:0;stroke-opacity:1;color-rendering:auto;image-rendering:auto;shape-rendering:auto;text-rendering:auto;enable-background:accumulate" />
    <path
       inkscape:connector-curvature="0"
       id="path8938"
       d="m 164.575,465.69844 c -1.80981,-0.18883 -3.22101,-0.2211 -5.16094,0.0203 -0.24263,0.0302 -0.47795,0.055 -0.95781,0.1625 -0.23993,0.0538 -0.52681,0.11128 -1.11094,0.33593 -0.58413,0.22467 -1.70673,-0.0612 -3.63281,2.96251 -0.96304,1.51183 -1.47528,4.64845 -0.63906,6.75156 0.83621,2.10312 2.03283,2.93498 2.75,3.42031 1.43433,0.97066 1.92164,0.94462 2.32343,1.05 0.8036,0.21078 1.03712,0.20504 1.30313,0.23282 1.06403,0.11109 1.69249,0.0966 2.7625,0.0953 1.06838,-10e-4 1.53736,0.0411 2.80937,-0.11719 0.31819,-0.0396 0.41423,0.14766 2.06719,-0.53437 0.41324,-0.17051 0.97002,-0.38438 1.85469,-1.1 0.44234,-0.35782 0.98097,-0.85881 1.51875,-1.66719 0.26889,-0.4042 0.53199,-0.88761 0.74844,-1.45 0.21644,-0.5624 0.45461,-1.87587 0.45468,-1.87656 8e-5,-7e-4 0.0503,-1.37088 -0.0578,-2.02032 -0.10812,-0.64944 -0.29806,-1.24759 -0.52344,-1.7625 -0.45076,-1.02982 -1.01141,-1.71969 -1.48282,-2.20469 -0.94281,-0.96999 -1.58061,-1.25797 -2.03594,-1.48437 -1.8213,-0.9056 -1.88343,-0.65486 -2.21406,-0.71094 -0.33062,-0.0561 -0.55034,-0.0795 -0.77656,-0.10312 z m -2.3125,0.40469 c 0.3482,0.0732 0.81444,0.19873 1.89688,0.93125 0.70891,0.47974 1.90044,1.30419 2.73437,3.40156 0.83393,2.09736 0.32335,5.22844 -0.63593,6.73437 -1.91857,3.01187 -3.02151,2.71584 -3.57344,2.92813 -0.35148,0.13518 -0.45718,0.14784 -0.62188,0.18906 -0.26428,-0.0858 -0.48176,-0.14108 -1.11875,-0.45781 -0.44349,-0.22052 -1.07058,-0.50294 -2.00781,-1.46719 -0.46862,-0.48212 -1.02704,-1.16988 -1.47656,-2.19688 -0.22476,-0.51349 -0.41556,-1.11134 -0.52344,-1.75937 -0.10788,-0.64803 -0.0577,-2.01476 -0.0578,-2.01407 -8e-5,7.1e-4 0.23721,-1.31243 0.45312,-1.87343 0.21591,-0.56101 0.4789,-1.0425 0.74688,-1.44531 0.53594,-0.80563 1.07196,-1.30428 1.51093,-1.65938 0.87796,-0.71019 1.42608,-0.91913 1.82656,-1.08437 0.76617,-0.31614 0.62048,-0.18749 0.84688,-0.22656 z"
       style="color:#000000;font-style:normal;font-variant:normal;font-weight:normal;font-stretch:normal;font-size:medium;line-height:normal;font-family:sans-serif;text-indent:0;text-align:start;text-decoration:none;text-decoration-line:none;text-decoration-style:solid;text-decoration-color:#000000;letter-spacing:normal;word-spacing:normal;text-transform:none;direction:ltr;block-progression:tb;writing-mode:lr-tb;baseline-shift:baseline;text-anchor:start;white-space:normal;clip-rule:nonzero;display:inline;overflow:visible;visibility:visible;opacity:1;isolation:auto;mix-blend-mode:normal;color-interpolation:sRGB;color-interpolation-filters:linearRGB;solid-color:#000000;solid-opacity:1;fill:#000000;fill-opacity:1;fill-rule:nonzero;stroke:none;stroke-width:18.59110069;stroke-linecap:round;stroke-linejoin:round;stroke-miterlimit:4;stroke-dasharray:none;stroke-dashoffset:0;stroke-opacity:1;color-rendering:auto;image-rendering:auto;shape-rendering:auto;text-rendering:auto;enable-background:accumulate" />
    <path
       inkscape:connector-curvature="0"
       id="path8942"
       d="m 157.05938,469.65625 a 2.6294418,2.6294418 0 0 0 -2.3922,3.71875 l 0.1672,0.36562 0.0297,0.0656 0.19688,0.43125 a 2.6294418,2.6294418 0 0 0 2.41875,1.53906 l 3.54375,-0.0375 3.54374,-0.0359 a 2.6294418,2.6294418 0 0 0 2.3672,-3.71251 l -0.17813,-0.39375 0,-0.002 c -0.059,-0.13053 -0.41705,-0.87917 -1.10781,-1.33593 -0.69125,-0.45709 -1.22085,-0.4963 -1.62657,-0.53907 -0.81142,-0.0855 -1.63724,-0.0641 -3.4,-0.0641 l -3.56249,0 z"
       style="color:#000000;font-style:normal;font-variant:normal;font-weight:normal;font-stretch:normal;font-size:medium;line-height:normal;font-family:sans-serif;text-indent:0;text-align:start;text-decoration:none;text-decoration-line:none;text-decoration-style:solid;text-decoration-color:#000000;letter-spacing:normal;word-spacing:normal;text-transform:none;direction:ltr;block-progression:tb;writing-mode:lr-tb;baseline-shift:baseline;text-anchor:start;white-space:normal;clip-rule:nonzero;display:inline;overflow:visible;visibility:visible;opacity:1;isolation:auto;mix-blend-mode:normal;color-interpolation:sRGB;color-interpolation-filters:linearRGB;solid-color:#000000;solid-opacity:1;fill:#000000;fill-opacity:1;fill-rule:nonzero;stroke:none;stroke-width:6.57294703;stroke-linecap:round;stroke-linejoin:round;stroke-miterlimit:4;stroke-dasharray:none;stroke-dashoffset:0;stroke-opacity:1;color-rendering:auto;image-rendering:auto;shape-rendering:auto;text-rendering:auto;enable-background:accumulate" />
  </g>
  <g
     id="g8971"
     transform="translate(-232.50062,-142.671)">
    <path
       inkscape:connector-curvature="0"
       id="path8876"
       d="m 486.08321,499.92093 c -17.71952,0 -32.3418,14.62157 -32.3418,32.3418 0,17.72023 14.62156,32.3418 32.3418,32.3418 17.72023,0 32.34179,-14.62229 32.34179,-32.3418 0,-17.71951 -14.62228,-32.3418 -32.34179,-32.3418 z m 0,24.01563 c 4.7407,0 8.32617,3.58545 8.32617,8.32617 0,4.74071 -3.58619,8.32617 -8.32617,8.32617 -4.74001,0 -8.32618,-3.58546 -8.32617,-8.32617 0,-4.74072 3.58544,-8.32617 8.32617,-8.32617 z"
       style="color:#000000;font-style:normal;font-variant:normal;font-weight:normal;font-stretch:normal;font-size:medium;line-height:normal;font-family:sans-serif;text-indent:0;text-align:start;text-decoration:none;text-decoration-line:none;text-decoration-style:solid;text-decoration-color:#000000;letter-spacing:normal;word-spacing:normal;text-transform:none;direction:ltr;block-progression:tb;writing-mode:lr-tb;baseline-shift:baseline;text-anchor:start;white-space:normal;clip-rule:nonzero;display:inline;overflow:visible;visibility:visible;opacity:1;isolation:auto;mix-blend-mode:normal;color-interpolation:sRGB;color-interpolation-filters:linearRGB;solid-color:#000000;solid-opacity:1;fill:#000000;fill-opacity:1;fill-rule:nonzero;stroke:none;stroke-width:24;stroke-linecap:round;stroke-linejoin:round;stroke-miterlimit:4;stroke-dasharray:none;stroke-dashoffset:0;stroke-opacity:1;color-rendering:auto;image-rendering:auto;shape-rendering:auto;text-rendering:auto;enable-background:accumulate" />
    <path
       inkscape:connector-curvature="0"
       id="path8948"
       d="m 474.60525,516.85954 c -2.77996,-5.3e-4 -5.62489,0.55029 -8.40469,2.44219 -1.9237,1.30926 -3.91757,3.03356 -5.25938,5.49688 -1.3418,2.46332 -1.70625,5.1566 -1.70625,7.46719 0,2.31057 0.36445,5.00387 1.70625,7.46718 1.34181,2.46331 3.33568,4.18762 5.25938,5.49687 0.006,0.004 0.0125,0.007 0.0188,0.0109 a 7.4371839,7.4371839 0 0 0 0.97187,0.54687 c 2.4629,1.39803 4.96303,1.88485 7.41407,1.88438 2.78002,-5.4e-4 5.61797,-0.55652 8.39062,-2.425 8.97632,-6.04914 8.97632,-19.91493 0,-25.96407 -2.77264,-1.86837 -5.61066,-2.4229 -8.39062,-2.42344 z m -0.0375,14.73751 c -0.51883,0.35311 -0.27766,0.13431 0.0344,0.13437 0.0998,2e-5 0.1525,0.0247 0.21874,0.0438 0.43038,0.34718 0.43126,0.63422 0.002,0.98125 -0.0663,0.0192 -0.11946,0.0422 -0.22031,0.0422 -0.31196,6e-5 -0.55322,-0.2172 -0.0344,0.13593 a 7.4371839,7.4371839 0 0 0 -0.45,-0.275 c -0.005,-0.0988 -0.0109,-0.11264 -0.0109,-0.39374 0,-0.29898 0.007,-0.32398 0.0125,-0.41875 -0.0993,0.13721 -0.25813,0.23088 0.44844,-0.25 z"
       style="color:#000000;font-style:normal;font-variant:normal;font-weight:normal;font-stretch:normal;font-size:medium;line-height:normal;font-family:sans-serif;text-indent:0;text-align:start;text-decoration:none;text-decoration-line:none;text-decoration-style:solid;text-decoration-color:#000000;letter-spacing:normal;word-spacing:normal;text-transform:none;direction:ltr;block-progression:tb;writing-mode:lr-tb;baseline-shift:baseline;text-anchor:start;white-space:normal;clip-rule:nonzero;display:inline;overflow:visible;visibility:visible;opacity:1;isolation:auto;mix-blend-mode:normal;color-interpolation:sRGB;color-interpolation-filters:linearRGB;solid-color:#000000;solid-opacity:1;fill:#000000;fill-opacity:1;fill-rule:nonzero;stroke:none;stroke-width:18.59110069;stroke-linecap:round;stroke-linejoin:round;stroke-miterlimit:4;stroke-dasharray:none;stroke-dashoffset:0;stroke-opacity:1;color-rendering:auto;image-rendering:auto;shape-rendering:auto;text-rendering:auto;enable-background:accumulate" />
    <path
       inkscape:connector-curvature="0"
       id="path8948-3"
       d="m 497.56434,517.44687 c -2.77996,-5.3e-4 -5.62489,0.55029 -8.40469,2.44219 -1.9237,1.30926 -3.91757,3.03356 -5.25938,5.49688 -1.3418,2.46332 -1.70625,5.1566 -1.70625,7.46719 0,2.31057 0.36445,5.00387 1.70625,7.46718 1.34181,2.46331 3.33568,4.18762 5.25938,5.49687 0.006,0.004 0.0125,0.007 0.0188,0.0109 a 7.4371839,7.4371839 0 0 0 0.97187,0.54687 c 2.4629,1.39803 4.96303,1.88485 7.41407,1.88438 2.78002,-5.4e-4 5.61797,-0.55652 8.39062,-2.425 8.97632,-6.04914 8.97632,-19.91493 0,-25.96407 -2.77264,-1.86837 -5.61066,-2.4229 -8.39062,-2.42344 z m -0.0375,14.73751 c -0.51883,0.35311 -0.27766,0.13431 0.0344,0.13437 0.0998,2e-5 0.1525,0.0247 0.21874,0.0438 0.43038,0.34718 0.43126,0.63422 0.002,0.98125 -0.0663,0.0192 -0.11946,0.0422 -0.22031,0.0422 -0.31196,6e-5 -0.55322,-0.2172 -0.0344,0.13593 a 7.4371839,7.4371839 0 0 0 -0.45,-0.275 c -0.005,-0.0988 -0.0109,-0.11264 -0.0109,-0.39374 0,-0.29898 0.007,-0.32398 0.0125,-0.41875 -0.0993,0.13721 -0.25813,0.23088 0.44844,-0.25 z"
       style="color:#000000;font-style:normal;font-variant:normal;font-weight:normal;font-stretch:normal;font-size:medium;line-height:normal;font-family:sans-serif;text-indent:0;text-align:start;text-decoration:none;text-decoration-line:none;text-decoration-style:solid;text-decoration-color:#000000;letter-spacing:normal;word-spacing:normal;text-transform:none;direction:ltr;block-progression:tb;writing-mode:lr-tb;baseline-shift:baseline;text-anchor:start;white-space:normal;clip-rule:nonzero;display:inline;overflow:visible;visibility:visible;opacity:1;isolation:auto;mix-blend-mode:normal;color-interpolation:sRGB;color-interpolation-filters:linearRGB;solid-color:#000000;solid-opacity:1;fill:#000000;fill-opacity:1;fill-rule:nonzero;stroke:none;stroke-width:18.59110069;stroke-linecap:round;stroke-linejoin:round;stroke-miterlimit:4;stroke-dasharray:none;stroke-dashoffset:0;stroke-opacity:1;color-rendering:auto;image-rendering:auto;shape-rendering:auto;text-rendering:auto;enable-background:accumulate" />
  </g>
</svg>
