<?xml version="1.0" encoding="utf-8"?>
<!-- Generator: Adobe Illustrator 21.1.0, SVG Export Plug-In . SVG Version: 6.00 Build 0)  -->
<svg version="1.1"
	 id="svg2" xmlns:cc="http://creativecommons.org/ns#" xmlns:dc="http://purl.org/dc/elements/1.1/" xmlns:rdf="http://www.w3.org/1999/02/22-rdf-syntax-ns#" xmlns:svg="http://www.w3.org/2000/svg"
	 xmlns="http://www.w3.org/2000/svg" xmlns:xlink="http://www.w3.org/1999/xlink" x="0px" y="0px" viewBox="0 0 468 468"
	 style="enable-background:new 0 0 468 468;" xml:space="preserve">
<style type="text/css">
	.st0{enable-background:new    ;}
</style>
<g id="g6" transform="matrix(0.258564,0,0,-0.258564,0,468.54645)">
	<path id="path8" d="M79.9,1798.8c-42-15.7-61.8-34.6-71.7-70c-4.9-19-8.2-268.6-8.2-670.7c0-693.8-1.6-671.5,45.3-714.4l22.2-20.6
		l668.2-2.5c624.5-1.6,670.7-0.8,697.9,12.4c60.1,30.5,57.7-4.9,57.7,731.7c0,638.6-0.8,660-16.5,685.5
		c-36.3,60.1,13.2,56-712.7,57.7C226.6,1809.5,105.5,1807.9,79.9,1798.8z M1376,1060.6V426.1H745.7H115.4v634.4V1695h630.3H1376
		V1060.6z"/>
</g>
<g class="st0">
	<path d="M122,196.4l13.3,4.2c-2,7.4-5.4,12.9-10.2,16.5c-4.7,3.6-10.8,5.4-18.1,5.4c-9,0-16.4-3.1-22.2-9.2
		c-5.8-6.2-8.7-14.6-8.7-25.3c0-11.3,2.9-20.1,8.8-26.3c5.8-6.3,13.5-9.4,23-9.4c8.3,0,15.1,2.5,20.3,7.4c3.1,2.9,5.4,7.1,7,12.5
		l-13.6,3.2c-0.8-3.5-2.5-6.3-5-8.3c-2.5-2-5.6-3.1-9.3-3.1c-5,0-9.1,1.8-12.3,5.4c-3.1,3.6-4.7,9.5-4.7,17.6
		c0,8.6,1.5,14.7,4.6,18.4c3.1,3.6,7.1,5.5,12.1,5.5c3.6,0,6.8-1.2,9.4-3.5C119,205,120.8,201.4,122,196.4z"/>
	<path d="M143.9,196.1c0-4.3,1.1-8.5,3.2-12.6c2.1-4,5.2-7.1,9.1-9.3c3.9-2.1,8.3-3.2,13.1-3.2c7.4,0,13.5,2.4,18.3,7.3
		c4.8,4.8,7.1,10.9,7.1,18.3c0,7.4-2.4,13.6-7.2,18.5c-4.8,4.9-10.9,7.3-18.1,7.3c-4.5,0-8.8-1-12.9-3.1c-4.1-2-7.2-5-9.3-9
		C145,206.5,143.9,201.7,143.9,196.1z M157.3,196.8c0,4.9,1.2,8.6,3.5,11.2c2.3,2.6,5.2,3.9,8.6,3.9c3.4,0,6.2-1.3,8.6-3.9
		c2.3-2.6,3.5-6.4,3.5-11.3c0-4.8-1.2-8.5-3.5-11.1c-2.3-2.6-5.2-3.9-8.6-3.9c-3.4,0-6.3,1.3-8.6,3.9
		C158.5,188.2,157.3,191.9,157.3,196.8z"/>
	<path d="M250.1,221.4H238v-7.2c-2,2.8-4.4,4.9-7.1,6.3s-5.5,2.1-8.3,2.1c-5.7,0-10.5-2.3-14.5-6.8s-6-10.9-6-19.1
		c0-8.3,2-14.7,5.9-19c3.9-4.3,8.9-6.5,14.9-6.5c5.5,0,10.3,2.3,14.3,6.9v-24.5h13V221.4z M215.3,195.7c0,5.3,0.7,9.1,2.2,11.4
		c2.1,3.4,5,5.1,8.8,5.1c3,0,5.5-1.3,7.6-3.8c2.1-2.5,3.2-6.4,3.2-11.4c0-5.7-1-9.7-3.1-12.2c-2-2.5-4.7-3.7-7.8-3.7
		c-3.1,0-5.7,1.2-7.8,3.7C216.4,187.2,215.3,190.8,215.3,195.7z"/>
	<path d="M291.4,205.7l13,2.2c-1.7,4.8-4.3,8.4-7.9,10.9c-3.6,2.5-8.1,3.7-13.5,3.7c-8.6,0-14.9-2.8-19-8.4
		c-3.2-4.5-4.9-10.1-4.9-17c0-8.2,2.1-14.5,6.4-19.2c4.3-4.6,9.7-6.9,16.2-6.9c7.3,0,13.1,2.4,17.3,7.3c4.2,4.8,6.3,12.2,6.1,22.2
		h-32.6c0.1,3.9,1.1,6.9,3.2,9c2,2.1,4.5,3.2,7.5,3.2c2,0,3.8-0.6,5.1-1.7C289.7,210,290.7,208.2,291.4,205.7z M292.2,192.6
		c-0.1-3.8-1.1-6.6-2.9-8.6c-1.9-2-4.1-2.9-6.8-2.9c-2.8,0-5.2,1-7,3.1c-1.9,2.1-2.8,4.9-2.7,8.4H292.2z"/>
</g>
</svg>
