<?xml version="1.0" encoding="UTF-8" standalone="no"?>
<!-- Created with Inkscape (http://www.inkscape.org/) -->

<svg
   xmlns:dc="http://purl.org/dc/elements/1.1/"
   xmlns:cc="http://creativecommons.org/ns#"
   xmlns:rdf="http://www.w3.org/1999/02/22-rdf-syntax-ns#"
   xmlns:svg="http://www.w3.org/2000/svg"
   xmlns="http://www.w3.org/2000/svg"
   version="1.1"
   width="586"
   height="586"
   viewBox="0 0 568 568"
   id="svg2">
  <defs
     id="defs4" />
  <metadata
     id="metadata7">
    <rdf:RDF>
      <cc:Work
         rdf:about="">
        <dc:format>image/svg+xml</dc:format>
        <dc:type
           rdf:resource="http://purl.org/dc/dcmitype/StillImage" />
        <dc:title></dc:title>
      </cc:Work>
    </rdf:RDF>
  </metadata>
  <g fill="#000000"
     transform="translate(109.47721,-567.27496)"
     id="layer1">
    <path
       d="m -64.28125,564.6875 c -24.41077,0 -44.3125,19.90173 -44.3125,44.3125 l 0,500.125 c 0,24.4108 19.90173,44.3125 44.3125,44.3125 l 495.59375,0 c 24.41077,0 44.34375,-19.9017 44.34375,-44.3125 l 0,-500.125 c 0,-24.41077 -19.93298,-44.3125 -44.34375,-44.3125 l -495.59375,0 z m 0,17.09375 495.59375,0 c 15.23791,0 27.25,11.98084 27.25,27.21875 l 0,500.125 c 0,15.2379 -12.01209,27.2188 -27.25,27.2188 l -495.59375,0 c -15.237907,0 -27.21875,-11.9809 -27.21875,-27.2188 L -91.5,609 c 0,-15.23791 11.980843,-27.21875 27.21875,-27.21875 z"
       id="rect2985"
       style="font-size:medium;font-style:normal;font-variant:normal;font-weight:normal;font-stretch:normal;text-indent:0;text-align:start;text-decoration:none;line-height:normal;letter-spacing:normal;word-spacing:normal;text-transform:none;direction:ltr;block-progression:tb;writing-mode:lr-tb;text-anchor:start;baseline-shift:baseline;color:#000000;fill-opacity:1;marker:none;visibility:visible;display:inline;overflow:visible;enable-background:accumulate;font-family:Sans;-inkscape-font-specification:Sans" />
    <path
       d="m -12.5,603.625 c -17.344637,0 -31.40625,14.06161 -31.40625,31.40625 l 0,41.59375 c 0,17.34464 14.061613,31.40625 31.40625,31.40625 l 57.78125,0 c 17.344637,0 31.40625,-14.06161 31.40625,-31.40625 l 0,-41.59375 c 0,-17.34464 -14.061613,-31.40625 -31.40625,-31.40625 l -57.78125,0 z m 0,6.21875 57.78125,0 c 14.015126,0 25.21875,11.17237 25.21875,25.1875 l 0,41.59375 c 0,14.01513 -11.203624,25.1875 -25.21875,25.1875 l -57.78125,0 c -14.015126,0 -25.1875,-11.17237 -25.1875,-25.1875 l 0,-41.59375 c 0,-14.01513 11.172374,-25.1875 25.1875,-25.1875 z"
       id="rect3755"
       style="font-size:medium;font-style:normal;font-variant:normal;font-weight:normal;font-stretch:normal;text-indent:0;text-align:start;text-decoration:none;line-height:normal;letter-spacing:normal;word-spacing:normal;text-transform:none;direction:ltr;block-progression:tb;writing-mode:lr-tb;text-anchor:start;baseline-shift:baseline;color:#000000;fill-opacity:1;marker:none;visibility:visible;display:inline;overflow:visible;enable-background:accumulate;font-family:Sans;-inkscape-font-specification:Sans" />
    <path
       d="m 330.125,603.625 c -17.34464,0 -31.40625,14.06161 -31.40625,31.40625 l 0,41.59375 c 0,17.34464 14.06161,31.40625 31.40625,31.40625 l 57.78125,0 c 17.34464,0 31.40625,-14.06161 31.40625,-31.40625 l 0,-41.59375 c 0,-17.34464 -14.06161,-31.40625 -31.40625,-31.40625 l -57.78125,0 z m 0,6.21875 57.78125,0 c 14.01513,0 25.21875,11.17237 25.21875,25.1875 l 0,41.59375 c 0,14.01513 -11.20362,25.1875 -25.21875,25.1875 l -57.78125,0 c -14.01513,0 -25.1875,-11.17237 -25.1875,-25.1875 l 0,-41.59375 c 0,-14.01513 11.17237,-25.1875 25.1875,-25.1875 z"
       id="rect3755-1"
       style="font-size:medium;font-style:normal;font-variant:normal;font-weight:normal;font-stretch:normal;text-indent:0;text-align:start;text-decoration:none;line-height:normal;letter-spacing:normal;word-spacing:normal;text-transform:none;direction:ltr;block-progression:tb;writing-mode:lr-tb;text-anchor:start;baseline-shift:baseline;color:#000000;fill-opacity:1;marker:none;visibility:visible;display:inline;overflow:visible;enable-background:accumulate;font-family:Sans;-inkscape-font-specification:Sans" />
    <path
       d="m 157.25,603.625 c -17.34464,0 -31.40625,14.06161 -31.40625,31.40625 l 0,41.59375 c 0,17.34464 14.06161,31.40625 31.40625,31.40625 l 57.78125,0 c 17.34464,0 31.40625,-14.06161 31.40625,-31.40625 l 0,-41.59375 c 0,-17.34464 -14.06161,-31.40625 -31.40625,-31.40625 l -57.78125,0 z m 0,6.21875 57.78125,0 c 14.01513,0 25.21875,11.17237 25.21875,25.1875 l 0,41.59375 c 0,14.01513 -11.20362,25.1875 -25.21875,25.1875 l -57.78125,0 c -14.01513,0 -25.1875,-11.17237 -25.1875,-25.1875 l 0,-41.59375 c 0,-14.01513 11.17237,-25.1875 25.1875,-25.1875 z"
       id="rect3755-7"
       style="font-size:medium;font-style:normal;font-variant:normal;font-weight:normal;font-stretch:normal;text-indent:0;text-align:start;text-decoration:none;line-height:normal;letter-spacing:normal;word-spacing:normal;text-transform:none;direction:ltr;block-progression:tb;writing-mode:lr-tb;text-anchor:start;baseline-shift:baseline;color:#000000;fill-opacity:1;marker:none;visibility:visible;display:inline;overflow:visible;enable-background:accumulate;font-family:Sans;-inkscape-font-specification:Sans" />
    <path
       d="m -12.5,735.4375 c -17.344637,0 -31.40625,14.06161 -31.40625,31.40625 l 0,41.59375 c 0,17.34464 14.061613,31.40625 31.40625,31.40625 l 57.78125,0 c 17.344637,0 31.40625,-14.06161 31.40625,-31.40625 l 0,-41.59375 c 0,-17.34464 -14.061613,-31.40625 -31.40625,-31.40625 l -57.78125,0 z m 0,6.1875 57.78125,0 c 14.015126,0 25.21875,11.20362 25.21875,25.21875 l 0,41.59375 c 0,14.01513 -11.203624,25.1875 -25.21875,25.1875 l -57.78125,0 c -14.015126,0 -25.1875,-11.17237 -25.1875,-25.1875 l 0,-41.59375 c 0,-14.01513 11.172374,-25.21875 25.1875,-25.21875 z"
       id="rect3755-4"
       style="font-size:medium;font-style:normal;font-variant:normal;font-weight:normal;font-stretch:normal;text-indent:0;text-align:start;text-decoration:none;line-height:normal;letter-spacing:normal;word-spacing:normal;text-transform:none;direction:ltr;block-progression:tb;writing-mode:lr-tb;text-anchor:start;baseline-shift:baseline;color:#000000;fill-opacity:1;marker:none;visibility:visible;display:inline;overflow:visible;enable-background:accumulate;font-family:Sans;-inkscape-font-specification:Sans" />
    <path
       d="m 330.125,735.4375 c -17.34464,0 -31.40625,14.06161 -31.40625,31.40625 l 0,41.59375 c 0,17.34464 14.06161,31.40625 31.40625,31.40625 l 57.78125,0 c 17.34464,0 31.40625,-14.06161 31.40625,-31.40625 l 0,-41.59375 c 0,-17.34464 -14.06161,-31.40625 -31.40625,-31.40625 l -57.78125,0 z m 0,6.1875 57.78125,0 c 14.01513,0 25.21875,11.20362 25.21875,25.21875 l 0,41.59375 c 0,14.01513 -11.20362,25.1875 -25.21875,25.1875 l -57.78125,0 c -14.01513,0 -25.1875,-11.17237 -25.1875,-25.1875 l 0,-41.59375 c 0,-14.01513 11.17237,-25.21875 25.1875,-25.21875 z"
       id="rect3755-1-0"
       style="font-size:medium;font-style:normal;font-variant:normal;font-weight:normal;font-stretch:normal;text-indent:0;text-align:start;text-decoration:none;line-height:normal;letter-spacing:normal;word-spacing:normal;text-transform:none;direction:ltr;block-progression:tb;writing-mode:lr-tb;text-anchor:start;baseline-shift:baseline;color:#000000;fill-opacity:1;marker:none;visibility:visible;display:inline;overflow:visible;enable-background:accumulate;font-family:Sans;-inkscape-font-specification:Sans" />
    <path
       d="m 157.25,735.4375 c -17.34464,0 -31.40625,14.06161 -31.40625,31.40625 l 0,41.59375 c 0,17.34464 14.06161,31.40625 31.40625,31.40625 l 57.78125,0 c 17.34464,0 31.40625,-14.06161 31.40625,-31.40625 l 0,-41.59375 c 0,-17.34464 -14.06161,-31.40625 -31.40625,-31.40625 l -57.78125,0 z m 0,6.1875 57.78125,0 c 14.01513,0 25.21875,11.20362 25.21875,25.21875 l 0,41.59375 c 0,14.01513 -11.20362,25.1875 -25.21875,25.1875 l -57.78125,0 c -14.01513,0 -25.1875,-11.17237 -25.1875,-25.1875 l 0,-41.59375 c 0,-14.01513 11.17237,-25.21875 25.1875,-25.21875 z"
       id="rect3755-7-9"
       style="font-size:medium;font-style:normal;font-variant:normal;font-weight:normal;font-stretch:normal;text-indent:0;text-align:start;text-decoration:none;line-height:normal;letter-spacing:normal;word-spacing:normal;text-transform:none;direction:ltr;block-progression:tb;writing-mode:lr-tb;text-anchor:start;baseline-shift:baseline;color:#000000;fill-opacity:1;marker:none;visibility:visible;display:inline;overflow:visible;enable-background:accumulate;font-family:Sans;-inkscape-font-specification:Sans" />
    <path
       d="m -12.5,872.90625 c -17.344637,0 -31.40625,14.06161 -31.40625,31.40625 l 0,41.59375 c 0,17.34464 14.061613,31.40625 31.40625,31.40625 l 57.78125,0 c 17.344637,0 31.40625,-14.06161 31.40625,-31.40625 l 0,-41.59375 c 0,-17.34464 -14.061613,-31.40625 -31.40625,-31.40625 l -57.78125,0 z m 0,6.1875 57.78125,0 c 14.015126,0 25.21875,11.20362 25.21875,25.21875 l 0,41.59375 c 0,14.01513 -11.203624,25.1875 -25.21875,25.1875 l -57.78125,0 c -14.015126,0 -25.1875,-11.17237 -25.1875,-25.1875 l 0,-41.59375 c 0,-14.01513 11.172374,-25.21875 25.1875,-25.21875 z"
       id="rect3755-4-4"
       style="font-size:medium;font-style:normal;font-variant:normal;font-weight:normal;font-stretch:normal;text-indent:0;text-align:start;text-decoration:none;line-height:normal;letter-spacing:normal;word-spacing:normal;text-transform:none;direction:ltr;block-progression:tb;writing-mode:lr-tb;text-anchor:start;baseline-shift:baseline;color:#000000;fill-opacity:1;marker:none;visibility:visible;display:inline;overflow:visible;enable-background:accumulate;font-family:Sans;-inkscape-font-specification:Sans" />
    <path
       d="m 330.125,872.90625 c -17.34464,0 -31.40625,14.06161 -31.40625,31.40625 l 0,41.59375 c 0,17.34464 14.06161,31.40625 31.40625,31.40625 l 57.78125,0 c 17.34464,0 31.40625,-14.06161 31.40625,-31.40625 l 0,-41.59375 c 0,-17.34464 -14.06161,-31.40625 -31.40625,-31.40625 l -57.78125,0 z m 0,6.1875 57.78125,0 c 14.01513,0 25.21875,11.20362 25.21875,25.21875 l 0,41.59375 c 0,14.01513 -11.20362,25.1875 -25.21875,25.1875 l -57.78125,0 c -14.01513,0 -25.1875,-11.17237 -25.1875,-25.1875 l 0,-41.59375 c 0,-14.01513 11.17237,-25.21875 25.1875,-25.21875 z"
       id="rect3755-1-0-8"
       style="font-size:medium;font-style:normal;font-variant:normal;font-weight:normal;font-stretch:normal;text-indent:0;text-align:start;text-decoration:none;line-height:normal;letter-spacing:normal;word-spacing:normal;text-transform:none;direction:ltr;block-progression:tb;writing-mode:lr-tb;text-anchor:start;baseline-shift:baseline;color:#000000;fill-opacity:1;marker:none;visibility:visible;display:inline;overflow:visible;enable-background:accumulate;font-family:Sans;-inkscape-font-specification:Sans" />
    <path
       d="m 157.25,872.90625 c -17.34464,0 -31.40625,14.06161 -31.40625,31.40625 l 0,41.59375 c 0,17.34464 14.06161,31.40625 31.40625,31.40625 l 57.78125,0 c 17.34464,0 31.40625,-14.06161 31.40625,-31.40625 l 0,-41.59375 c 0,-17.34464 -14.06161,-31.40625 -31.40625,-31.40625 l -57.78125,0 z m 0,6.1875 57.78125,0 c 14.01513,0 25.21875,11.20362 25.21875,25.21875 l 0,41.59375 c 0,14.01513 -11.20362,25.1875 -25.21875,25.1875 l -57.78125,0 c -14.01513,0 -25.1875,-11.17237 -25.1875,-25.1875 l 0,-41.59375 c 0,-14.01513 11.17237,-25.21875 25.1875,-25.21875 z"
       id="rect3755-7-9-8"
       style="font-size:medium;font-style:normal;font-variant:normal;font-weight:normal;font-stretch:normal;text-indent:0;text-align:start;text-decoration:none;line-height:normal;letter-spacing:normal;word-spacing:normal;text-transform:none;direction:ltr;block-progression:tb;writing-mode:lr-tb;text-anchor:start;baseline-shift:baseline;color:#000000;fill-opacity:1;marker:none;visibility:visible;display:inline;overflow:visible;enable-background:accumulate;font-family:Sans;-inkscape-font-specification:Sans" />
    <text
       x="-11.191743"
       y="799.46014"
       transform="scale(1.1733196,0.85228273)"
       id="text3876"
       xml:space="preserve"
       style="font-size:89.33243561px;font-style:normal;font-variant:normal;font-weight:bold;font-stretch:normal;line-height:125%;letter-spacing:0px;word-spacing:0px;fill-opacity:1;font-family:Arial;-inkscape-font-specification:Arial Bold"><tspan
         x="-11.191743"
         y="799.46014"
         id="tspan3878">1</tspan></text>
    <text
       x="137.17744"
       y="798.14026"
       transform="scale(1.1733196,0.85228273)"
       id="text3880"
       xml:space="preserve"
       style="font-size:89.33243561px;font-style:normal;font-variant:normal;font-weight:normal;font-stretch:normal;line-height:125%;letter-spacing:0px;word-spacing:0px;fill-opacity:1;font-family:Arial;-inkscape-font-specification:Arial"><tspan
         x="137.17744"
         y="798.14026"
         id="tspan3882"
         style="font-size:89.33243561px;font-weight:bold;-inkscape-font-specification:Arial Bold">2</tspan></text>
    <text
       x="283.51917"
       y="799.42859"
       transform="scale(1.1733196,0.85228273)"
       id="text3880-5"
       xml:space="preserve"
       style="font-size:89.33243561px;font-style:normal;font-variant:normal;font-weight:normal;font-stretch:normal;line-height:125%;letter-spacing:0px;word-spacing:0px;fill-opacity:1;font-family:Arial;-inkscape-font-specification:Arial"><tspan
         x="283.51917"
         y="799.42859"
         id="tspan3882-5"
         style="font-size:89.33243561px;font-weight:bold;-inkscape-font-specification:Arial Bold">3</tspan></text>
    <text
       x="137.51385"
       y="951.77826"
       transform="scale(1.1733196,0.85228273)"
       id="text3880-5-1"
       xml:space="preserve"
       style="font-size:89.33243561px;font-style:normal;font-variant:normal;font-weight:normal;font-stretch:normal;line-height:125%;letter-spacing:0px;word-spacing:0px;fill-opacity:1;font-family:Arial;-inkscape-font-specification:Arial"><tspan
         x="137.51385"
         y="951.77826"
         id="tspan3882-5-7"
         style="font-size:89.33243561px;font-weight:bold;-inkscape-font-specification:Arial Bold">5</tspan></text>
    <text
       x="-12.859681"
       y="950.28723"
       transform="scale(1.1733196,0.85228273)"
       id="text3880-5-11"
       xml:space="preserve"
       style="font-size:89.33243561px;font-style:normal;font-variant:normal;font-weight:normal;font-stretch:normal;line-height:125%;letter-spacing:0px;word-spacing:0px;fill-opacity:1;font-family:Arial;-inkscape-font-specification:Arial"><tspan
         x="-12.859681"
         y="950.28723"
         id="tspan3882-5-5"
         style="font-size:89.33243561px;font-weight:bold;-inkscape-font-specification:Arial Bold">4</tspan></text>
    <text
       x="281.75214"
       y="950.80048"
       transform="scale(1.1733196,0.85228273)"
       id="text3880-5-1-2"
       xml:space="preserve"
       style="font-size:89.33243561px;font-style:normal;font-variant:normal;font-weight:normal;font-stretch:normal;line-height:125%;letter-spacing:0px;word-spacing:0px;fill-opacity:1;font-family:Arial;-inkscape-font-specification:Arial"><tspan
         x="281.75214"
         y="950.80048"
         id="tspan3882-5-7-7"
         style="font-size:89.33243561px;font-weight:bold;-inkscape-font-specification:Arial Bold">6</tspan></text>
    <text
       x="-7.0666885"
       y="1112.4423"
       transform="scale(1.1733196,0.85228273)"
       id="text3880-5-1-2-6"
       xml:space="preserve"
       style="font-size:89.33243561px;font-style:normal;font-variant:normal;font-weight:normal;font-stretch:normal;line-height:125%;letter-spacing:0px;word-spacing:0px;fill-opacity:1;font-family:Arial;-inkscape-font-specification:Arial"><tspan
         x="-7.0666885"
         y="1112.4423"
         id="tspan3882-5-7-7-1"
         style="font-size:89.33243561px;font-weight:bold;-inkscape-font-specification:Arial Bold">7</tspan></text>
    <text
       x="134.70291"
       y="1113.1266"
       transform="scale(1.1733196,0.85228273)"
       id="text3880-5-1-2-6-4"
       xml:space="preserve"
       style="font-size:89.33243561px;font-style:normal;font-variant:normal;font-weight:normal;font-stretch:normal;line-height:125%;letter-spacing:0px;word-spacing:0px;fill-opacity:1;font-family:Arial;-inkscape-font-specification:Arial"><tspan
         x="134.70291"
         y="1113.1266"
         id="tspan3882-5-7-7-1-2"
         style="font-size:89.33243561px;font-weight:bold;-inkscape-font-specification:Arial Bold">8</tspan></text>
    <text
       x="279.45453"
       y="1111.8068"
       transform="scale(1.1733196,0.85228273)"
       id="text3880-5-1-2-6-4-3"
       xml:space="preserve"
       style="font-size:89.33243561px;font-style:normal;font-variant:normal;font-weight:normal;font-stretch:normal;line-height:125%;letter-spacing:0px;word-spacing:0px;fill-opacity:1;font-family:Arial;-inkscape-font-specification:Arial"><tspan
         x="279.45453"
         y="1111.8068"
         id="tspan3882-5-7-7-1-2-2"
         style="font-size:89.33243561px;font-weight:bold;-inkscape-font-specification:Arial Bold">9</tspan></text>
    <path
       d="m -11.6875,1005.0312 c -17.344637,0 -31.40625,14.0617 -31.40625,31.4063 l 0,41.5937 c 0,17.3447 14.061613,31.4063 31.40625,31.4063 l 57.78125,0 c 17.344637,0 31.40625,-14.0616 31.40625,-31.4063 l 0,-41.5937 c 0,-17.3446 -14.061613,-31.4063 -31.40625,-31.4063 l -57.78125,0 z m 0,6.2188 57.78125,0 c 14.015126,0 25.1875,11.1724 25.1875,25.1875 l 0,41.5937 c 0,14.0152 -11.172374,25.2188 -25.1875,25.2188 l -57.78125,0 c -14.015126,0 -25.1875,-11.2036 -25.1875,-25.2188 l 0,-41.5937 c 0,-14.0151 11.172374,-25.1875 25.1875,-25.1875 z"
       id="rect3755-4-4-2"
       style="font-size:medium;font-style:normal;font-variant:normal;font-weight:normal;font-stretch:normal;text-indent:0;text-align:start;text-decoration:none;line-height:normal;letter-spacing:normal;word-spacing:normal;text-transform:none;direction:ltr;block-progression:tb;writing-mode:lr-tb;text-anchor:start;baseline-shift:baseline;color:#000000;fill-opacity:1;marker:none;visibility:visible;display:inline;overflow:visible;enable-background:accumulate;font-family:Sans;-inkscape-font-specification:Sans" />
    <path
       d="m 330.9375,1005.0312 c -17.34464,0 -31.40625,14.0617 -31.40625,31.4063 l 0,41.5937 c 0,17.3447 14.06161,31.4063 31.40625,31.4063 l 57.78125,0 c 17.34464,0 31.40625,-14.0616 31.40625,-31.4063 l 0,-41.5937 c 0,-17.3446 -14.06161,-31.4063 -31.40625,-31.4063 l -57.78125,0 z m 0,6.2188 57.78125,0 c 14.01513,0 25.1875,11.1724 25.1875,25.1875 l 0,41.5937 c 0,14.0152 -11.17237,25.2188 -25.1875,25.2188 l -57.78125,0 c -14.01513,0 -25.1875,-11.2036 -25.1875,-25.2188 l 0,-41.5937 c 0,-14.0151 11.17237,-25.1875 25.1875,-25.1875 z"
       id="rect3755-1-0-8-1"
       style="font-size:medium;font-style:normal;font-variant:normal;font-weight:normal;font-stretch:normal;text-indent:0;text-align:start;text-decoration:none;line-height:normal;letter-spacing:normal;word-spacing:normal;text-transform:none;direction:ltr;block-progression:tb;writing-mode:lr-tb;text-anchor:start;baseline-shift:baseline;color:#000000;fill-opacity:1;marker:none;visibility:visible;display:inline;overflow:visible;enable-background:accumulate;font-family:Sans;-inkscape-font-specification:Sans" />
    <path
       d="m 158.0625,1005.0312 c -17.34464,0 -31.40625,14.0617 -31.40625,31.4063 l 0,41.5937 c 0,17.3447 14.06161,31.4063 31.40625,31.4063 l 57.78125,0 c 17.34464,0 31.40625,-14.0616 31.40625,-31.4063 l 0,-41.5937 c 0,-17.3446 -14.06161,-31.4063 -31.40625,-31.4063 l -57.78125,0 z m 0,6.2188 57.78125,0 c 14.01513,0 25.1875,11.1724 25.1875,25.1875 l 0,41.5937 c 0,14.0152 -11.17237,25.2188 -25.1875,25.2188 l -57.78125,0 c -14.01513,0 -25.1875,-11.2036 -25.1875,-25.2188 l 0,-41.5937 c 0,-14.0151 11.17237,-25.1875 25.1875,-25.1875 z"
       id="rect3755-7-9-8-6"
       style="font-size:medium;font-style:normal;font-variant:normal;font-weight:normal;font-stretch:normal;text-indent:0;text-align:start;text-decoration:none;line-height:normal;letter-spacing:normal;word-spacing:normal;text-transform:none;direction:ltr;block-progression:tb;writing-mode:lr-tb;text-anchor:start;baseline-shift:baseline;color:#000000;fill-opacity:1;marker:none;visibility:visible;display:inline;overflow:visible;enable-background:accumulate;font-family:Sans;-inkscape-font-specification:Sans" />
    <text
       x="-2.6585364"
       y="1289.3722"
       transform="scale(1.1733196,0.85228273)"
       id="text3880-5-1-2-6-8"
       xml:space="preserve"
       style="font-size:89.33243561px;font-style:normal;font-variant:normal;font-weight:normal;font-stretch:normal;line-height:125%;letter-spacing:0px;word-spacing:0px;fill-opacity:1;font-family:Arial;-inkscape-font-specification:Arial"><tspan
         x="-2.6585364"
         y="1289.3722"
         id="tspan3882-5-7-7-1-5"
         style="font-size:89.33243561px;font-weight:bold;-inkscape-font-specification:Arial Bold">*</tspan></text>
    <text
       x="140.66853"
       y="1268.1721"
       transform="scale(1.1733196,0.85228273)"
       id="text3880-5-1-2-6-4-7"
       xml:space="preserve"
       style="font-size:89.33243561px;font-style:normal;font-variant:normal;font-weight:normal;font-stretch:normal;line-height:125%;letter-spacing:0px;word-spacing:0px;fill-opacity:1;font-family:Arial;-inkscape-font-specification:Arial"><tspan
         x="140.66853"
         y="1268.1721"
         id="tspan3882-5-7-7-1-2-6"
         style="font-size:89.33243561px;font-weight:bold;-inkscape-font-specification:Arial Bold">0</tspan></text>
    <text
       x="282.78033"
       y="1269.4922"
       transform="scale(1.1733196,0.85228273)"
       id="text3880-5-1-2-6-4-3-1"
       xml:space="preserve"
       style="font-size:89.33243561px;font-style:normal;font-variant:normal;font-weight:normal;font-stretch:normal;line-height:125%;letter-spacing:0px;word-spacing:0px;fill-opacity:1;font-family:Arial;-inkscape-font-specification:Arial"><tspan
         x="282.78033"
         y="1269.4922"
         id="tspan3882-5-7-7-1-2-2-8"
         style="font-size:89.33243561px;font-weight:bold;-inkscape-font-specification:Arial Bold">#</tspan></text>
  </g>
</svg>
