<?xml version="1.0" encoding="UTF-8" standalone="no"?>
<svg
   xmlns:dc="http://purl.org/dc/elements/1.1/"
   xmlns:cc="http://creativecommons.org/ns#"
   xmlns:rdf="http://www.w3.org/1999/02/22-rdf-syntax-ns#"
   xmlns:svg="http://www.w3.org/2000/svg"
   xmlns="http://www.w3.org/2000/svg"
   id="svg8"
   version="1.1"
   viewBox="0 0 147.6375 147.6375"
   height="558"
   width="558">
  <defs
     id="defs2" />
  <metadata
     id="metadata5">
    <rdf:RDF>
      <cc:Work
         rdf:about="">
        <dc:format>image/svg+xml</dc:format>
        <dc:type
           rdf:resource="http://purl.org/dc/dcmitype/StillImage" />
        <dc:title></dc:title>
      </cc:Work>
    </rdf:RDF>
  </metadata>
  <g
     transform="translate(0,-149.36248)"
     id="layer1">
    <g
       transform="matrix(3.0610222,0,0,3.1040359,0.80082457,169.3991)"
       id="90d480a3-3912-4cfe-96c8-49ff76c93332">
      <path
         style="fill:none;stroke:#000000;stroke-width:0.28;stroke-linecap:round;stroke-linejoin:round;stroke-opacity:1"
         d="m 32.079305,11.348531 c 0.08527,0.222214 0.365559,0.308391 0.850907,0.261617 0.665709,-0.06416 0.72375,-0.132123 0.72375,-0.847527 0,-0.740741 -0.03704,-0.777778 -0.777778,-0.777778 -0.644662,0 -0.790294,0.08834 -0.850907,0.516162 -0.04022,0.283888 -0.01591,0.665275 0.05403,0.847526"
         id="path843" />
      <path
         style="fill:none;stroke:#000000;stroke-width:0.28;stroke-linecap:round;stroke-linejoin:round;stroke-opacity:1"
         d="M 42.876184,29.65151 V 15.922357 l -0.753486,-0.08797 c -0.414417,-0.04838 -0.864417,-0.05099 -1,-0.0058 l -0.246514,0.08217 V 29.65151 h 2"
         id="path845" />
      <path
         style="fill:none;stroke:#000000;stroke-width:0.28;stroke-linecap:round;stroke-linejoin:round;stroke-opacity:1"
         d="m 5.876184,29.744084 c 0.244444,-0.02493 0.569444,-0.05596 0.722222,-0.06895 L 6.876184,29.65151 V 15.873732 L 6.598406,15.84669 C 6.445628,15.83182 6.020628,15.8106 5.653962,15.79955 l -0.666667,-0.0201 v 13.946137 l 0.222222,0.03191 c 0.122222,0.01755 0.422222,0.01152 0.666667,-0.01341"
         id="path847" />
      <path
         style="fill:none;stroke:#000000;stroke-width:0.28;stroke-linecap:round;stroke-linejoin:round;stroke-opacity:1"
         d="m 14.876184,10.227978 v 2.560198 l 1.888889,-0.136666 0.136602,-2.398641 1.758543,1.717171 1.423385,-1.423385 -1.742063,-1.784034 h 2.560198 L 20.765073,6.873732 18.366432,6.73713 20.083603,4.978587 18.660218,3.555202 16.876184,5.297264 V 2.762621 h -2 V 5.297264 L 13.09215,3.555202 11.668765,4.978587 13.385936,6.73713 10.987295,6.873732 10.850629,8.762621 h 2.560198 l -1.742062,1.784034 1.423385,1.423385 1.784034,-1.742062"
         id="path849" />
      <path
         style="fill:none;stroke:#000000;stroke-width:0.28;stroke-linecap:round;stroke-linejoin:round;stroke-opacity:1"
         d="m 21.653962,13.788921 6.999164,-0.0263 4.18e-4,-0.139528 c 2.3e-4,-0.07674 -0.155391,-0.512431 -0.345824,-0.968201 -0.78974,-1.890113 -0.181318,-4.386184 1.371063,-5.62483 0.414119,-0.330426 0.752946,-0.663907 0.75295,-0.74107 l 6e-6,-0.140296 -1.833333,-0.783463 C 27.590073,4.934328 25.825254,4.220614 24.676586,3.779201 l -2.088487,-0.802569 -0.06771,0.06771 c -0.03724,0.037241 0.202578,0.614088 0.532931,1.281884 0.532174,1.075768 0.600475,1.467485 0.599181,3.436395 -0.0016,2.487873 -0.359909,3.590509 -1.640588,5.049121 -0.388411,0.442376 -0.627845,0.843213 -0.532076,0.890749 l 0.174125,0.08643"
         id="path851" />
      <path
         style="fill:none;stroke:#000000;stroke-width:0.28;stroke-linecap:round;stroke-linejoin:round;stroke-opacity:1"
         d="m 12.542851,33.668438 c 0.244444,-0.102681 0.639444,-0.40347 0.877777,-0.668419 0.63172,-0.702267 0.568358,-1.892273 -0.138384,-2.599014 -1.258285,-1.258285 -3.410115,-0.371593 -3.360332,1.384673 0.037803,1.333643 1.473299,2.364837 2.620939,1.88276"
         id="path853" />
      <path
         style="fill:none;stroke:#000000;stroke-width:0.28;stroke-linecap:round;stroke-linejoin:round;stroke-opacity:1"
         d="m 36.542851,33.668438 c 0.244444,-0.102681 0.629444,-0.39242 0.855555,-0.643864 0.584208,-0.649661 0.537635,-1.940209 -0.09429,-2.612865 -0.377282,-0.401599 -0.739266,-0.537977 -1.42793,-0.537977 -1.185516,0 -1.977778,0.761516 -1.977778,1.901025 0,1.301311 1.499082,2.374801 2.644445,1.893681"
         id="path855" />
      <path
         style="fill:none;stroke:#000000;stroke-width:0.28;stroke-linecap:round;stroke-linejoin:round;stroke-opacity:1"
         d="m 34.484501,13.303646 c 0.334575,-0.181538 0.762658,-0.62853 0.951295,-0.993314 1.370321,-2.649908 -1.119766,-5.414831 -3.806325,-4.226439 -1.104556,0.488598 -1.699232,1.451957 -1.681673,2.724264 0.01421,1.029559 0.703329,2.225026 1.48894,2.582974 0.781467,0.35606 2.311239,0.312149 3.047763,-0.08748"
         id="path857" />
      <path
         style="fill:none;stroke:#000000;stroke-width:0.28;stroke-linecap:round;stroke-linejoin:round;stroke-opacity:1"
         d="m 18.175347,13.311214 c 0.408984,-0.177595 1.128688,-0.627889 1.599343,-1.000654 1.246381,-0.987152 2.073716,-2.80926 2.073716,-4.567116 0,-3.667286 -3.440256,-6.594839 -6.926938,-5.894613 -4.740289,0.951986 -6.624368,6.279342 -3.519661,9.952067 0.993637,1.175427 2.632949,1.852066 4.462453,1.841914 0.862114,-0.0048 1.902103,-0.154003 2.311087,-0.331598"
         id="path859" />
      <path
         style="fill:none;stroke:#000000;stroke-width:0.28;stroke-linecap:round;stroke-linejoin:round;stroke-opacity:1"
         d="m 9.949625,35.201111 c 0.465,0.245634 1.27289,0.434977 1.879856,0.440578 1.93705,0.01787 3.58579,-1.254031 3.866301,-2.982619 l 0.125675,-0.774441 15.764518,-0.122008 0.165716,0.111111 c 0.09114,0.06111 0.232271,0.45276 0.313615,0.870331 0.331197,1.700156 1.913629,2.907447 3.810878,2.907447 1.92741,0 3.537968,-1.256958 3.817473,-2.979343 0.141975,-0.874889 0.182004,-0.889576 2.201728,-0.807836 3.660441,0.148142 5.858001,-3.236458 5.866403,-9.035216 0.0018,-1.246762 -0.109742,-2.796762 -0.247886,-3.444445 -0.518952,-2.433085 -1.761261,-4.485887 -3.164188,-5.228535 l -0.695752,-0.3683 -6.444445,-0.135593 -0.159172,-3.66e-4 c -0.08754,-2.01e-4 0.04862,-0.352543 0.302582,-0.78298 0.377407,-0.639658 0.446067,-1.060215 0.375881,-2.302337 C 37.621849,8.673637 36.926426,7.516567 35.256438,6.452937 L 34.098406,5.715376 31.100059,4.316162 C 27.683072,2.721585 23.712875,1.217488 21.038817,0.504491 19.644523,0.132724 18.548964,0.012944 16.431739,7.9e-4 13.063322,-0.018548 12.194401,0.297737 10.236185,2.255954 8.443372,4.048766 7.912494,5.484355 8.035476,8.207065 c 0.098436,2.17929 0.36396,2.898635 1.661036,4.5 0.420741,0.519445 0.683288,0.953448 0.583438,0.964452 l -0.181544,0.02001 -6,0.09676 -0.695752,0.368074 c -1.402726,0.742086 -2.645205,2.795082 -3.164188,5.228309 -0.354522,1.662163 -0.306035,5.450658 0.091337,7.136477 0.633981,2.689615 2.086361,4.636098 3.818084,5.117001 0.461675,0.128208 1.501324,0.233663 2.310332,0.234345 l 1.470924,0.0012 0.126558,0.779889 c 0.168903,1.040828 0.897845,2.021316 1.893924,2.54749"
         id="path861" />
    </g>
    <path
       transform="matrix(0.26458333,0,0,0.26458333,0,149.36248)"
       id="path882"
       d="m 414.52267,492.32582 c -12.13392,-1.48003 -20.5539,-5.30105 -27.93625,-12.67761 -6.02067,-6.01595 -8.83316,-11.17398 -11.32756,-20.7744 -1.98242,-7.62992 -2.45644,-8.7308 -4.59112,-10.66267 -1.44929,-1.31158 -3.83289,-1.32768 -93.35308,-0.63092 -72.76084,0.56633 -91.98214,0.90323 -92.42511,1.61997 -0.3076,0.49772 -0.7762,2.82227 -1.04133,5.16568 -1.19857,10.59389 -5.4265,19.18404 -12.8685,26.14566 -8.21056,7.68057 -18.42242,11.56155 -30.42143,11.56155 -23.107,0 -39.68667,-13.87851 -43.305301,-36.25 l -1.18425,-7.32143 -7.201607,-0.003 C 78.081153,448.49522 59.60096,447.1826 54.057303,446.02671 40.118005,443.12061 26.672298,430.74505 17.521818,412.39942 7.9907179,393.29069 4.8001483,375.49672 4.8183205,341.55138 4.8302314,319.30184 5.59259,310.44494 8.5141329,298.61427 15.33879,270.97811 28.627653,250.68108 45.807622,241.65326 l 5.038752,-2.64779 30.409579,-0.56733 c 16.725272,-0.31204 32.910737,-0.58611 35.967707,-0.60905 8.76784,-0.0658 8.59964,-1.36438 -1.99466,-15.39887 -14.65726,-19.41678 -17.56324,-28.73496 -17.709282,-56.78571 -0.07586,-14.57335 0.652164,-20.30891 3.860182,-30.41108 3.64582,-11.48083 10.9443,-21.97801 24.34764,-35.01845 17.60429,-17.127671 26.40668,-21.017919 51.12598,-22.59534 15.76989,-1.006328 42.47063,0.10706 54.81201,2.285592 22.52009,3.975306 68.83653,20.218408 111.02948,38.937868 54.06423,23.9863 74.96866,36.16302 85.01049,49.51815 6.59718,8.77392 9.58879,18.53555 10.44195,34.07215 0.60582,11.03224 -0.21883,15.30401 -4.69834,24.338 -3.71882,7.49989 -4.15818,9.13913 -2.69238,10.04505 0.48231,0.29808 18.08052,0.91891 39.10715,1.37962 l 38.23022,0.83765 6.07143,3.42812 c 13.66429,7.71527 25.082,23.35445 32.35611,44.31917 5.06974,14.61148 6.64666,24.94203 7.40431,48.50635 1.88086,58.49761 -15.08832,98.95078 -46.10488,109.91034 -6.05112,2.13814 -6.45239,2.18169 -23.65554,2.56747 -21.9144,0.49143 -21.04985,0.0707 -23.53411,11.45315 -1.87116,8.57334 -4.93463,14.21488 -11.08703,20.41732 -7.49032,7.55123 -17.06556,11.78232 -28.59314,12.63467 -2.35715,0.17428 -5.25,0.19926 -6.42858,0.0555 z M 149.02308,471.72509 c 5.16805,-2.40597 11.75489,-8.82796 13.70567,-13.36266 5.21165,-12.1148 0.0324,-25.78547 -12.13465,-32.02935 -4.76346,-2.44452 -13.27473,-2.77169 -18.71545,-0.71942 -5.34229,2.01515 -10.68618,6.88163 -13.20903,12.02898 -1.70812,3.48508 -1.99697,4.95006 -2.00025,10.14472 -0.004,5.08683 0.30433,6.72882 1.89645,10.12511 5.94948,12.69135 19.58388,18.87467 30.45726,13.81262 z m 278.44097,-0.22566 c 4.79697,-2.44952 10.61002,-8.25582 12.46219,-12.4477 2.24096,-5.07178 2.38379,-14.16224 0.31072,-19.77509 -1.70119,-4.60598 -6.55603,-10.25405 -10.63388,-12.37135 -4.11901,-2.13866 -14.64687,-2.63175 -19.85049,-0.92973 -7.49041,2.44998 -13.07252,8.046 -14.97779,15.0151 -1.11015,4.06068 -0.90952,11.60463 0.406,15.26602 2.48627,6.91996 9.74613,13.87991 16.91022,16.21168 4.30461,1.40105 11.63683,0.93893 15.37303,-0.96893 z m -346.155661,-46.44716 2.5,-0.53776 v -81.70504 -81.70504 l -1.861572,-0.49786 c -1.023857,-0.27382 -6.488142,-0.61838 -12.142854,-0.76568 l -10.281288,-0.26781 -0.181542,82.98277 c -0.171901,78.57657 -0.115011,83.00281 1.071429,83.36036 1.636065,0.49305 17.66897,-0.16982 20.895827,-0.86394 z m 419.110161,-82.07197 0.1816,-81.59277 -1.61017,-0.36661 c -0.88558,-0.20163 -4.82445,-0.62931 -8.75302,-0.95037 -7.44599,-0.60854 -13.34856,-0.0823 -15.06611,1.34311 -0.8534,0.70826 -1.00532,13.05418 -1.00532,81.69926 0,44.47571 0.22146,81.08637 0.49212,81.35704 0.27068,0.27067 6.13675,0.4046 13.03572,0.29763 l 12.54359,-0.19451 z M 322.06324,238.50165 c 11.67475,0 13.43457,-0.14737 13.82219,-1.15749 0.2443,-0.63662 -0.72511,-4.41341 -2.15425,-8.39286 -4.63746,-12.91309 -5.41064,-16.51962 -5.456,-25.44965 -0.0528,-10.386 1.79907,-18.47318 6.3788,-27.85714 3.04607,-6.24145 4.0473,-7.50539 12.48305,-15.75831 12.8748,-12.59578 13.20336,-11.45839 -5.65007,-19.55883 -26.01949,-11.17937 -75.57719,-31.11143 -77.35329,-31.11143 -0.39218,0 -1.05152,0.74287 -1.46522,1.65082 -0.78425,1.72125 -0.90398,1.39744 7.52399,20.34806 4.32394,9.72255 4.89946,14.56563 4.47235,37.63552 -0.3932,21.23852 -0.86179,24.88882 -4.40257,34.29579 -2.61235,6.94036 -5.4742,11.63587 -12.30842,20.19471 -8.55403,10.71265 -9.40658,12.66858 -6.46684,14.83633 1.45661,1.0741 4.21052,1.14479 29.4027,0.75479 15.28755,-0.23667 33.81566,-0.43031 41.17358,-0.43031 z m -115.83169,-3.15586 c 6.92194,-1.51148 10.17418,-3.00801 18.75478,-8.6301 11.7167,-7.67688 18.0156,-14.52637 23.64707,-25.71404 9.88893,-19.64574 11.11662,-41.01032 3.48922,-60.72051 C 245.20468,122.40429 228.94074,106.05872 211.3034,99.257042 198.3573,94.2645 182.54899,93.552704 169.52267,97.375795 126.3617,110.0431 104.7502,154.63681 121.90813,195.62484 c 3.1632,7.55647 9.80073,17.563 15.29306,23.05532 9.25606,9.25607 22.45227,15.47848 38.03577,17.935 4.62969,0.72981 25.81207,-0.1377 30.99459,-1.26937 z m 187.38162,0.68425 c 6.72816,-1.42585 10.38441,-3.2145 14.23565,-6.96416 7.15652,-6.96774 10.8259,-16.12314 10.81845,-26.9928 -0.011,-16.01406 -8.62132,-28.61814 -23.43031,-34.29802 -5.69414,-2.18395 -15.99811,-2.37844 -21.78571,-0.41121 -9.17966,3.12021 -16.65283,8.68099 -20.50868,15.26051 -4.80402,8.19745 -6.12712,20.82375 -3.16075,30.163 2.75677,8.67934 9.441,17.77229 15.28378,20.79143 6.48065,3.34874 19.1708,4.43839 28.54757,2.45125 z"
       style="fill:#000000;stroke-width:0.71428573" />
    <path
       transform="matrix(0.26458333,0,0,0.26458333,0,149.36248)"
       id="path884"
       d="m 176.81705,223.77221 c -0.27977,-0.27976 -0.50866,-7.04437 -0.50866,-15.03247 0,-11.228 -0.20486,-14.5238 -0.90278,-14.5238 -0.49653,0 -5.23314,4.33928 -10.52579,9.64285 -5.29266,5.30357 -9.95525,9.64286 -10.36133,9.64286 -0.86236,0 -13.92439,-12.96344 -13.92439,-13.81929 0,-0.31799 4.25893,-5.06452 9.46429,-10.54786 5.20536,-5.48334 9.46428,-10.35998 9.46428,-10.83699 0,-0.64622 -3.78898,-0.91653 -14.86492,-1.06048 -13.695,-0.17799 -14.83769,-0.29043 -14.51898,-1.42858 0.19026,-0.67945 0.56054,-4.97321 0.82283,-9.54167 l 0.4769,-8.3063 5.47066,-0.42448 c 3.00886,-0.23346 9.11335,-0.63692 13.56552,-0.89657 5.78034,-0.33711 8.20039,-0.74709 8.46393,-1.43385 0.21619,-0.56339 -3.43267,-4.98591 -8.80915,-10.67693 -5.04802,-5.34335 -9.17821,-9.98878 -9.17821,-10.32318 0,-0.70078 13.17415,-14.27525 13.85428,-14.27525 0.2482,0 4.78163,4.33929 10.07429,9.64286 5.29265,5.30357 10.02926,9.64286 10.52579,9.64286 0.69816,0 0.90278,-3.31892 0.90278,-14.64286 v -14.64286 h 10.35714 10.35714 v 14.64286 c 0,10.10563 0.24163,14.64286 0.77979,14.64286 0.42887,0 5.27624,-4.25893 10.77191,-9.46429 5.49568,-5.20536 10.2492,-9.55862 10.56339,-9.67391 0.52081,-0.19112 12.987,12.85517 13.43419,14.05934 0.10567,0.28456 -4.02518,4.92328 -9.17967,10.30827 -5.58549,5.83527 -9.22109,10.18363 -8.99877,10.76299 0.2707,0.70543 2.69088,1.0997 8.82252,1.43727 4.64723,0.25585 10.7525,0.65261 13.56728,0.88169 l 5.11777,0.41651 0.45154,6.88606 c 0.24834,3.78734 0.62538,8.09142 0.83786,9.56464 l 0.38634,2.67857 h -14.70565 c -13.0839,0 -14.70564,0.1277 -14.70564,1.15796 0,0.63688 4.17857,5.58008 9.28572,10.9849 5.10714,5.40481 9.28571,10.11329 9.28571,10.46328 0,0.87523 -13.06885,13.82243 -13.9523,13.82243 -0.39114,0 -4.88046,-4.17857 -9.97627,-9.28571 -5.09581,-5.10715 -9.79089,-9.28572 -10.43351,-9.28572 -0.98517,0 -1.24062,1.26024 -1.6288,8.03572 -0.25321,4.41964 -0.65201,10.66345 -0.88621,13.87512 l -0.42583,5.83942 -5.45568,0.43118 c -3.00063,0.23716 -7.075,0.59725 -9.05417,0.8002 -1.97917,0.20295 -3.82738,0.14011 -4.10714,-0.13965 z"
       style="fill:#000000;stroke-width:0.71428573" />
    <path
       transform="matrix(0.26458333,0,0,0.26458333,0,149.36248)"
       id="path886"
       d="m 377.51783,210.1864 c -1.77582,-0.51814 -2.63801,-3.15918 -2.63801,-8.08069 0,-6.09679 1.28686,-7.3972 7.67744,-7.7583 7.59084,-0.42893 8.03684,-1.9e-4 8.03684,7.72567 0,5.81904 -0.13627,6.45124 -1.55413,7.21006 -1.68875,0.90378 -9.43824,1.5113 -11.52214,0.90326 z"
       style="fill:#000000;stroke-width:0.71428573" />
    <rect
       y="190.78867"
       x="91.848213"
       height="1.984375"
       width="0.23623511"
       id="rect888"
       style="fill:#000000;stroke-width:0.26458332" />
    <rect
       y="185.82773"
       x="102.00632"
       height="1.9371279"
       width="1.5119048"
       id="rect890"
       style="fill:#000000;stroke-width:0.26458332" />
    <rect
       y="187.76486"
       x="103.51822"
       height="0.661457"
       width="1.2756801"
       id="rect892"
       style="fill:#000000;stroke-width:0.26458332" />
    <rect
       y="187.10339"
       x="102.80952"
       height="2.5513394"
       width="2.8820686"
       id="rect894"
       style="fill:#000000;stroke-width:0.26458332" />
    <rect
       y="187.10339"
       x="102.80952"
       height="1.3229218"
       width="0.70870209"
       id="rect896"
       style="fill:#000000;stroke-width:0.26458332" />
    <rect
       y="192.20609"
       x="90.289062"
       height="2.4095981"
       width="2.5513394"
       id="rect898"
       style="fill:#000000;stroke-width:0.26458332" />
    <rect
       y="200.5688"
       x="99.077011"
       height="4.5357141"
       width="4.6774554"
       id="rect900"
       style="fill:#000000;stroke-width:0.26458332" />
    <rect
       y="200.37982"
       x="86.651039"
       height="5.953125"
       width="2.5513394"
       id="rect902"
       style="fill:#000000;stroke-width:0.26458332" />
    <rect
       y="186.81992"
       x="70.492554"
       height="12.378719"
       width="2.5040922"
       id="rect904"
       style="fill:#000000;stroke-width:0.26458332" />
    <rect
       y="200.80504"
       x="58.822544"
       height="1.7008928"
       width="2.3151042"
       id="rect906"
       style="fill:#000000;stroke-width:0.26458332" />
    <rect
       y="201.27751"
       x="37.088913"
       height="1.4174107"
       width="2.4095981"
       id="rect908"
       style="fill:#000000;stroke-width:0.26458332" />
    <rect
       y="204.72655"
       x="40.301712"
       height="1.8279916"
       width="0.57447493"
       id="rect910"
       style="fill:#000000;stroke-width:0.26458332" />
    <rect
       y="194.99365"
       x="34.11235"
       height="1.2284226"
       width="1.3701636"
       id="rect915"
       style="fill:#000000;stroke-width:0.26458332" />
    <rect
       y="177.97438"
       x="46.337154"
       height="7.8676229"
       width="6.1220441"
       id="rect917"
       style="fill:#000000;stroke-width:0.26458332" />
    <rect
       y="184.85281"
       x="36.519173"
       height="0.26621458"
       width="2.6486094"
       id="rect919"
       style="fill:#000000;stroke-width:0.26458332" />
    <rect
       y="180.43457"
       x="40.585194"
       height="3.0308068"
       width="0.29099283"
       id="rect921"
       style="fill:#000000;stroke-width:0.26458332" />
    <rect
       y="184.03235"
       x="59.814732"
       height="1.6063988"
       width="1.842634"
       id="rect923"
       style="fill:#000000;stroke-width:0.26458332" />
    <rect
       y="181.15027"
       x="56.979912"
       height="2.4095981"
       width="1.7008928"
       id="rect925"
       style="fill:#000000;stroke-width:0.26458332" />
    <rect
       y="181.15027"
       x="56.649181"
       height="4.4412289"
       width="0.33073014"
       id="rect927"
       style="fill:#000000;stroke-width:0.26458332" />
    <rect
       y="201.51375"
       x="60.476189"
       height="0.62255108"
       width="1.8009887"
       id="rect929"
       style="fill:#000000;stroke-width:0.26458332" />
    <rect
       y="205.15176"
       x="57.546875"
       height="1.4027684"
       width="0.37329099"
       id="rect931"
       style="fill:#000000;stroke-width:0.26458332" />
    <rect
       y="208.56888"
       x="46.782845"
       height="0.59888607"
       width="1.2673794"
       id="rect933"
       style="fill:#000000;stroke-width:0.26458332" />
    <rect
       y="190.78867"
       x="91.848213"
       height="3.7325191"
       width="0.047248304"
       id="rect935"
       style="fill:#000000;stroke-width:0.26458332" />
    <rect
       y="192.11159"
       x="90.289062"
       height="0.094498284"
       width="3.779762"
       id="rect937"
       style="fill:#000000;stroke-width:0.26458332" />
    <ellipse
       ry="2.763953"
       rx="1.6300217"
       cy="195.53699"
       cx="90.218193"
       id="path942"
       style="fill:#000000;stroke-width:0.26458332" />
    <ellipse
       ry="0.3125149"
       rx="1.5852425"
       cy="187.45235"
       cx="103.59156"
       id="path944"
       style="fill:#000000;stroke-width:0.26458332" />
    <ellipse
       ry="0.70138502"
       rx="0.18664557"
       cy="205.85315"
       cx="57.733521"
       id="path946"
       style="fill:#000000;stroke-width:0.26458332" />
    <ellipse
       ry="0.31127927"
       rx="0.90049362"
       cy="201.82503"
       cx="61.376682"
       id="path948"
       style="fill:#000000;stroke-width:0.26458332" />
    <ellipse
       ry="0.9139933"
       rx="0.28723717"
       cy="205.64053"
       cx="40.588951"
       id="path950"
       style="fill:#000000;stroke-width:0.26458332" />
    <ellipse
       ry="0.70870209"
       rx="1.2047997"
       cy="201.98621"
       cx="38.293713"
       id="path952"
       style="fill:#000000;stroke-width:0.26458332" />
    <ellipse
       ry="0.047248837"
       rx="1.2756691"
       cy="192.15884"
       cx="91.564735"
       id="path954"
       style="fill:#000000;stroke-width:0.26458332" />
    <ellipse
       ry="0.33073425"
       rx="0.75595093"
       cy="187.43413"
       cx="102.76227"
       id="path956"
       style="fill:#000000;stroke-width:0.26458332" />
    <ellipse
       ry="1.6300223"
       rx="0.75595242"
       cy="207.34875"
       cx="114.90475"
       id="path958"
       style="fill:#000000;stroke-width:0.26458332" />
    <rect
       y="222.20795"
       x="122.88951"
       height="30.33259"
       width="2.7875743"
       id="rect963"
       style="fill:#000000;stroke-width:0.26458332" />
    <path
       transform="matrix(0.26458333,0,0,0.26458333,0,149.36248)"
       id="path965"
       d="m 410.01637,491.67375 c -4.62034,-0.80729 -8.6487,-2.11506 -12.65848,-4.10945 -3.296,-1.63939 -6.26301,-3.61367 -8.9805,-5.97575 -1.30267,-1.13229 -2.77446,-2.59994 -3.91306,-3.90202 -3.30248,-3.77666 -5.81374,-8.08503 -7.4513,-12.78362 -0.26686,-0.76567 -0.62564,-1.92692 -0.60992,-1.97409 0.006,-0.0177 0.0796,0.17793 0.1638,0.4347 1.5349,4.68102 3.21464,8.03375 5.68164,11.3405 1.77472,2.37881 4.41671,5.17548 6.94221,7.34863 5.1371,4.42042 10.95654,7.31138 18.11951,9.00136 1.00355,0.23677 1.81002,0.40328 3.43215,0.70864 0.13021,0.0245 0.19413,0.0449 0.14205,0.0454 -0.0521,4.6e-4 -0.44273,-0.06 -0.8681,-0.1343 z"
       style="fill:#000000;stroke-width:0.03156727" />
    <path
       transform="matrix(0.26458333,0,0,0.26458333,0,149.36248)"
       id="path967"
       d="m 424.5003,491.89075 c 3.35215,-0.50844 5.74664,-1.06795 8.49159,-1.98419 4.80781,-1.60481 9.0261,-3.89427 12.9268,-7.01597 1.15718,-0.92608 2.0952,-1.76381 3.26238,-2.91357 3.09503,-3.04886 5.4033,-5.96929 7.1857,-9.09138 0.39963,-0.69999 1.20818,-2.30215 1.52936,-3.03045 0.80703,-1.83 1.50977,-3.85501 2.11428,-6.09249 0.17652,-0.65333 0.18845,-0.58064 0.0171,0.10402 -1.69973,6.79041 -5.28292,12.9977 -10.39177,18.00208 -2.75923,2.70282 -5.66153,4.86081 -9.17815,6.8244 -0.78084,0.43599 -2.625,1.35038 -3.50397,1.73736 -3.80776,1.67642 -7.80945,2.81842 -12.02217,3.43086 -0.3011,0.0438 -0.58521,0.078 -0.63134,0.076 -0.0461,-0.002 0.044,-0.023 0.20023,-0.0467 z"
       style="fill:#000000;stroke-width:0.03156727" />
    <path
       transform="matrix(0.26458333,0,0,0.26458333,0,149.36248)"
       id="path969"
       d="m 488.77863,447.95242 c -0.62594,-0.0165 -4.49835,-0.16905 -4.56147,-0.17968 -0.0347,-0.006 0.0434,-0.0126 0.17362,-0.0151 0.13021,-0.002 0.79786,-0.0183 1.48366,-0.0354 0.6858,-0.017 1.86484,-0.0459 2.62008,-0.0641 6.01772,-0.14528 8.96976,-0.26885 10.98072,-0.45963 0.2839,-0.0269 0.52153,-0.0436 0.52807,-0.0371 0.007,0.007 -0.27545,0.0576 -0.62666,0.11338 -3.37259,0.53604 -7.04983,0.77112 -10.59802,0.67753 z"
       style="fill:#000000;stroke-width:0.03156727" />
    <path
       transform="matrix(0.26458333,0,0,0.26458333,0,149.36248)"
       id="path971"
       d="m 433.0312,464.83929 3.6e-4,-1.2548 0.55133,-0.56182 c 1.1994,-1.22222 1.91851,-2.14669 2.62148,-3.37009 1.49389,-2.59987 2.36836,-5.77337 2.57426,-9.34213 0.047,-0.81391 0.0204,-2.73889 -0.0486,-3.51975 -0.47269,-5.35046 -2.37402,-10.01602 -5.3941,-13.23631 l -0.30509,-0.32531 v -5.77507 -5.77507 h 22.27071 22.27071 v 0.12627 0.12627 h 9.9279 9.92791 v -0.12627 -0.12627 h 19.35092 19.35092 l -0.17768,0.27622 c -1.6782,2.60882 -3.86397,5.50902 -5.92927,7.86727 -1.65464,1.88935 -3.68119,3.92555 -5.4638,5.48981 -3.43196,3.01159 -7.04267,5.45283 -11.1107,7.51205 -0.1389,0.0703 -0.24175,0.12854 -0.22855,0.12941 0.0376,0.002 1.17085,-0.57011 1.87543,-0.94756 3.79481,-2.03292 7.24213,-4.49815 10.63278,-7.60368 0.73634,-0.67442 2.56718,-2.50627 3.25233,-3.25413 2.53447,-2.76643 4.73889,-5.61573 6.84455,-8.84681 l 0.40572,-0.62258 h 1.03848 1.03848 v 1.39936 1.39936 l -0.50649,0.75078 c -4.1587,6.16453 -9.00839,11.3396 -14.40904,15.37576 -8.08882,6.04516 -17.39418,9.54542 -27.73185,10.43148 -2.764,0.23691 -5.5291,0.27641 -9.04402,0.12921 -6.40644,-0.2683 -8.84153,-0.33093 -11.98073,-0.30814 -2.16209,0.0157 -2.67051,0.0319 -3.69242,0.11738 -1.42833,0.11953 -2.54407,0.31977 -3.37746,0.60614 -1.42562,0.48986 -2.13922,1.23121 -2.66711,2.77079 -0.34267,0.99942 -0.56583,2.0483 -1.01078,4.75088 -0.40199,2.4416 -0.80248,4.1176 -1.51807,6.35291 l -0.20464,0.63924 h -14.56711 -14.56712 z m 79.77012,-21.67882 c 0.0434,-0.0248 0.0647,-0.0451 0.0473,-0.0451 -0.0174,0 -0.0671,0.0203 -0.11049,0.0451 -0.0434,0.0248 -0.0647,0.0451 -0.0474,0.0451 0.0174,0 0.0671,-0.0203 0.11049,-0.0451 z"
       style="fill:#000000;stroke-width:0.03156727" />
    <path
       transform="matrix(0.26458333,0,0,0.26458333,0,149.36248)"
       id="path973"
       d="m 433.03083,464.82686 v -1.26729 l 0.60767,-0.61901 c 1.39161,-1.41758 2.20624,-2.53893 3.00654,-4.13851 1.09949,-2.19757 1.76931,-4.6603 2.05201,-7.54458 0.11412,-1.16433 0.11496,-3.53919 0.002,-4.68774 -0.51978,-5.26925 -2.34249,-9.70916 -5.31694,-12.95152 l -0.35094,-0.38255 v -5.77836 -5.77836 h 22.27071 22.27071 v 0.12627 0.12627 h 9.9279 9.92791 v -0.12627 -0.12627 h 19.35331 19.35331 l -0.0717,0.11838 c -0.20306,0.33506 -1.32113,1.98375 -1.81233,2.67243 -1.63126,2.2871 -3.26665,4.32203 -5.05082,6.28478 -0.73009,0.80316 -2.81927,2.91156 -3.58216,3.61511 -3.12975,2.88628 -6.52235,5.36149 -10.03839,7.32392 -0.3212,0.17927 -0.5982,0.33925 -0.61556,0.3555 -0.047,0.044 0.12723,-0.0471 0.75761,-0.39616 3.41629,-1.89157 6.55691,-4.15427 9.7385,-7.01621 0.73788,-0.66375 3.1602,-3.09552 3.86181,-3.87688 2.34583,-2.61248 4.21448,-5.02903 6.19815,-8.01547 l 0.70766,-1.0654 h 1.04013 1.04013 v 1.40778 1.40777 l -0.48685,0.71938 c -1.56416,2.31125 -3.2014,4.46371 -4.88911,6.42767 -6.86968,7.99415 -15.02414,13.61342 -24.28149,16.73247 -5.7389,1.9336 -11.75641,2.8828 -18.27745,2.88309 -1.42971,6e-5 -2.01548,-0.0159 -5.17703,-0.14156 -4.26424,-0.16942 -5.27417,-0.20057 -7.59192,-0.23418 -2.25626,-0.0327 -5.43559,0.005 -6.31346,0.0744 -2.44472,0.19393 -3.89881,0.54527 -4.84612,1.17097 -0.48608,0.32105 -0.96656,0.90645 -1.2576,1.53223 -0.466,1.00195 -0.73842,2.14721 -1.28341,5.39566 -0.41838,2.49377 -0.8177,4.17074 -1.52217,6.39237 l -0.20019,0.63134 -14.57502,0.008 -14.57502,0.008 z m 81.75923,-22.67761 c 0,-0.009 -0.071,0.0202 -0.15784,0.0642 -0.0868,0.044 -0.15784,0.0871 -0.15784,0.0958 0,0.009 0.071,-0.0202 0.15784,-0.0642 0.0868,-0.044 0.15784,-0.0871 0.15784,-0.0958 z"
       style="fill:#000000;stroke-width:0.03156727" />
    <path
       transform="matrix(0.26458333,0,0,0.26458333,0,149.36248)"
       id="path977"
       d="m 140.645,133.80076 c 0.17651,-0.18399 3.11334,-3.16475 6.52629,-6.62391 l 6.20535,-6.28938 0.007,0.0984 0.007,0.0984 -0.26364,0.24743 c -1.38273,1.29769 -4.04489,3.962 -6.30308,6.30815 -3.07443,3.1942 -5.26316,5.60806 -5.75308,6.34482 l -0.10019,0.15067 h -0.32323 -0.32324 z"
       style="fill:#000000;stroke-width:0.02232143" />
    <path
       transform="matrix(0.26458333,0,0,0.26458333,0,149.36248)"
       id="path979"
       d="m 143.30854,137.2801 c -1.01835,-1.05639 -1.89513,-1.97013 -1.94842,-2.03053 l -0.0969,-0.10982 h 0.17965 0.17964 l 0.28532,0.3404 c 0.59862,0.71419 1.51898,1.76195 2.65861,3.02663 0.33568,0.37252 0.60657,0.68107 0.60197,0.68567 -0.005,0.005 -0.84156,-0.85596 -1.8599,-1.91235 z"
       style="fill:#000000;stroke-width:0.02232143" />
    <path
       transform="matrix(0.26458333,0,0,0.26458333,0,149.36248)"
       id="path981"
       d="m 154.48155,119.94017 c 0,-0.0989 0.009,-0.17989 0.0202,-0.17989 0.0111,0 0.0682,0.0435 0.12683,0.0966 l 0.10667,0.0966 -0.0989,0.067 c -0.0544,0.0369 -0.11149,0.0744 -0.12683,0.0833 -0.0214,0.0125 -0.0279,-0.0259 -0.0279,-0.16361 z"
       style="fill:#000000;stroke-width:0.02232143" />
    <path
       transform="matrix(0.26458333,0,0,0.26458333,0,149.36248)"
       id="path983"
       d="m 149.1698,82.832581 c 0.0311,-0.01812 0.33245,-0.147856 0.66965,-0.288299 6.32484,-2.634292 13.52056,-4.085549 23.48139,-4.735805 1.11153,-0.07256 2.3715,-0.141874 2.82366,-0.15533 0.33894,-0.01009 0.34463,-0.0096 0.11161,0.0098 -0.13505,0.01126 -0.54185,0.041 -0.90402,0.06608 -11.68704,0.809389 -19.17495,2.23646 -25.55804,4.87094 -0.58989,0.243468 -0.73708,0.298302 -0.62425,0.232569 z"
       style="fill:#000000;stroke-width:0.02232143" />
    <path
       transform="matrix(0.26458333,0,0,0.26458333,0,149.36248)"
       id="path985"
       d="m 100.04758,139.67187 c -0.003,-0.0608 0.36444,-1.41384 0.60385,-2.22185 0.31347,-1.05799 0.9719,-3.08395 0.99482,-3.06103 0.006,0.006 -0.0445,0.18023 -0.11277,0.38663 -0.32588,0.98532 -0.94039,3.00917 -1.25259,4.12529 -0.21121,0.7551 -0.23069,0.81948 -0.23331,0.77096 z"
       style="fill:#000000;stroke-width:0.02232143" />
    <path
       transform="matrix(0.26458333,0,0,0.26458333,0,149.36248)"
       id="path987"
       d="m 97.560288,170.9156 c -0.109038,-3.14304 -0.12507,-3.85621 -0.140877,-6.26692 -0.02007,-3.06039 0.03734,-5.61341 0.187477,-8.33706 0.02165,-0.39285 0.04258,-0.68084 0.0465,-0.63996 0.0039,0.0409 -0.0085,0.518 -0.02764,1.06027 -0.07878,2.23385 -0.09023,3.13778 -0.09066,7.15782 -2.79e-4,2.60693 0.01045,4.63004 0.0304,5.73182 0.01695,0.93654 0.02608,1.70755 0.02027,1.71335 -0.0058,0.006 -0.01727,-0.18288 -0.02547,-0.41932 z"
       style="fill:#000000;stroke-width:0.02232143" />
    <path
       transform="matrix(0.26458333,0,0,0.26458333,0,149.36248)"
       id="path989"
       d="m 110.10802,215.39202 c -4.28255,-6.08931 -6.87451,-10.98347 -8.65721,-16.34665 -0.33986,-1.02245 -0.83877,-2.69149 -0.82069,-2.7455 0.004,-0.0119 0.0604,0.15671 0.12544,0.37457 1.81854,6.09297 4.75166,11.92941 9.42932,18.76285 0.18345,0.26801 0.32881,0.49202 0.32302,0.49781 -0.006,0.006 -0.18574,-0.23859 -0.39988,-0.54308 z"
       style="fill:#000000;stroke-width:0.02232143" />
    <path
       transform="matrix(0.26458333,0,0,0.26458333,0,149.36248)"
       id="path991"
       d="m 154.49738,213.66945 c 0,-0.16362 0.004,-0.18114 0.0428,-0.18114 0.0862,0 0.57629,-0.3656 1.11158,-0.82928 0.12541,-0.10863 0.23579,-0.1975 0.24529,-0.1975 0.0222,0 -0.64421,0.66963 -1.0704,1.07551 l -0.32924,0.31356 z"
       style="fill:#000000;stroke-width:0.02232143" />
    <path
       transform="matrix(0.26458333,0,0,0.26458333,0,149.36248)"
       id="path993"
       d="m 143.62077,195.99602 c 0.25749,-0.27785 0.56411,-0.58129 0.56411,-0.55826 0,0.0385 -0.67917,0.76311 -0.72197,0.77032 -0.0314,0.005 0.0183,-0.0614 0.15786,-0.21206 z"
       style="fill:#000000;stroke-width:0.02232143" />
    <path
       transform="matrix(0.26458333,0,0,0.26458333,0,149.36248)"
       id="path995"
       d="m 144.10546,195.4978 c 0.002,-0.006 0.55956,-0.58361 0.56131,-0.58185 8.3e-4,8.2e-4 -0.08,0.0908 -0.1795,0.20005 -0.0996,0.10921 -0.20995,0.23056 -0.24532,0.26966 -0.0354,0.0391 -0.0651,0.0703 -0.066,0.0694 -9.2e-4,-9.2e-4 5.9e-4,-0.004 0.003,-0.008 0.0119,-0.0144 -10e-4,-0.009 -0.0234,0.0105 -0.0455,0.0387 -0.0521,0.0439 -0.0505,0.0399 z"
       style="fill:#000000;stroke-width:0.00390625" />
    <path
       transform="matrix(0.26458333,0,0,0.26458333,0,149.36248)"
       id="path997"
       d="m 143.46895,196.15657 c 0.056,-0.0585 0.076,-0.0751 0.0394,-0.0326 -0.0272,0.0316 -0.0516,0.0675 -0.0516,0.076 0,0.0197 0.0179,0.005 0.13617,-0.11166 0.0459,-0.0453 0.0828,-0.0805 0.082,-0.0782 -7.8e-4,0.002 -0.0418,0.0492 -0.0913,0.10437 l -0.0898,0.10023 -0.0403,1.3e-4 -0.0403,1.2e-4 z"
       style="fill:#000000;stroke-width:0.00390625" />
    <path
       transform="matrix(0.26458333,0,0,0.26458333,0,149.36248)"
       id="path999"
       d="m 218.90968,213.64994 c 9.6e-4,-0.10191 0.003,-0.18742 0.005,-0.19003 0.002,-0.003 0.0136,-0.0101 0.0266,-0.0167 0.22708,-0.11464 0.81739,-0.57934 1.52199,-1.19814 0.0523,-0.0459 0.0956,-0.0829 0.0963,-0.0821 0.002,0.002 -1.642,1.66882 -1.64731,1.67077 -0.003,9.9e-4 -0.003,-0.0584 -0.002,-0.18383 z"
       style="fill:#000000;stroke-width:0.00390625" />
    <rect
       y="205.43968"
       x="57.760815"
       height="0.58497721"
       width="0.7658447"
       id="rect1001"
       style="fill:#000000;stroke-width:0.26458332" />
    <rect
       y="201.83266"
       x="61.226234"
       height="0.57050782"
       width="0.57050782"
       id="rect1003"
       style="fill:#000000;stroke-width:0.26458332" />
    <rect
       y="208.15625"
       x="46.514919"
       height="0.7951268"
       width="0.88867116"
       id="rect1005"
       style="fill:#000000;stroke-width:0.26458332" />
    <rect
       y="206.82324"
       x="51.262295"
       height="1.8465995"
       width="0.85678995"
       id="rect1007"
       style="fill:#000000;stroke-width:0.26458332" />
    <rect
       y="200.6727"
       x="37.721752"
       height="1.2862346"
       width="1.4967093"
       id="rect1009"
       style="fill:#000000;stroke-width:0.26458332" />
    <rect
       y="204.20399"
       x="40.481312"
       height="1.7773423"
       width="1.0056016"
       id="rect1011"
       style="fill:#000000;stroke-width:0.26458332" />
    <rect
       y="184.03235"
       x="59.814732"
       height="2.094209"
       width="1.339877"
       id="rect1013"
       style="fill:#000000;stroke-width:0.26458332" />
    <rect
       y="182.0106"
       x="56.126598"
       height="1.1225319"
       width="1.2862346"
       id="rect1015"
       style="fill:#000000;stroke-width:0.26458332" />
    <rect
       y="180.6776"
       x="57.459606"
       height="1.099146"
       width="0.7951268"
       id="rect1017"
       style="fill:#000000;stroke-width:0.26458332" />
    <rect
       y="184.03235"
       x="61.15461"
       height="1.1353797"
       width="0.70158142"
       id="rect1019"
       style="fill:#000000;stroke-width:0.26458332" />
    <rect
       y="190.73541"
       x="34.433178"
       height="1.5183007"
       width="1.791865"
       id="rect1021"
       style="fill:#000000;stroke-width:0.26458332" />
    <rect
       y="181.72997"
       x="39.452324"
       height="2.6660137"
       width="1.660412"
       id="rect1023"
       style="fill:#000000;stroke-width:0.26458332" />
    <rect
       y="184.11536"
       x="37.160484"
       height="1.8708867"
       width="1.8942728"
       id="rect1025"
       style="fill:#000000;stroke-width:0.26458332" />
    <rect
       y="180.95824"
       x="40.224064"
       height="1.5200955"
       width="1.2394624"
       id="rect1027"
       style="fill:#000000;stroke-width:0.26458332" />
    <rect
       y="182.38478"
       x="38.657196"
       height="1.9410449"
       width="1.5668676"
       id="rect1029"
       style="fill:#000000;stroke-width:0.26458332" />
    <rect
       y="184.57138"
       x="36.99094"
       height="0.40340993"
       width="0.32155865"
       id="rect1031"
       style="fill:#000000;stroke-width:0.26458332" />
    <rect
       y="185.48344"
       x="37.838684"
       height="0.92959678"
       width="1.0699134"
       id="rect1033"
       style="fill:#000000;stroke-width:0.26458332" />
    <rect
       y="183.22084"
       x="37.832836"
       height="1.1693041"
       width="1.145918"
       id="rect1035"
       style="fill:#000000;stroke-width:0.26458332" />
    <rect
       y="189.424"
       x="25.327127"
       height="6.3844004"
       width="1.8007284"
       id="rect1037"
       style="fill:#000000;stroke-width:0.26458332" />
    <rect
       y="200.64932"
       x="26.215799"
       height="1.3563927"
       width="1.2862346"
       id="rect1039"
       style="fill:#000000;stroke-width:0.26458332" />
    <rect
       y="202.98793"
       x="26.964157"
       height="1.4499372"
       width="1.403165"
       id="rect1041"
       style="fill:#000000;stroke-width:0.26458332" />
    <rect
       y="205.11606"
       x="27.899599"
       height="0.65481037"
       width="1.4733232"
       id="rect1043"
       style="fill:#000000;stroke-width:0.26458332" />
    <rect
       y="201.72507"
       x="26.613361"
       height="1.3563927"
       width="1.2160764"
       id="rect1045"
       style="fill:#000000;stroke-width:0.26458332" />
    <rect
       y="204.20399"
       x="27.689123"
       height="0.95882946"
       width="1.1693041"
       id="rect1047"
       style="fill:#000000;stroke-width:0.26458332" />
    <rect
       y="205.49023"
       x="28.507635"
       height="1.403165"
       width="1.7773423"
       id="rect1049"
       style="fill:#000000;stroke-width:0.26458332" />
    <rect
       y="169.35873"
       x="54.138783"
       height="2.4555385"
       width="5.285255"
       id="rect1051"
       style="fill:#000000;stroke-width:0.26458332" />
    <rect
       y="169.87323"
       x="42.492512"
       height="1.9410449"
       width="4.8409195"
       id="rect1053"
       style="fill:#000000;stroke-width:0.26458332" />
    <rect
       y="171.74411"
       x="37.721752"
       height="2.2216778"
       width="1.0056016"
       id="rect1055"
       style="fill:#000000;stroke-width:0.26458332" />
    <rect
       y="170.57481"
       x="39.499096"
       height="1.6136397"
       width="2.1047475"
       id="rect1057"
       style="fill:#000000;stroke-width:0.26458332" />
    <rect
       y="170.06032"
       x="41.229664"
       height="1.5902536"
       width="2.1281335"
       id="rect1059"
       style="fill:#000000;stroke-width:0.26458332" />
    <rect
       y="173.10051"
       x="35.4533"
       height="0.86528063"
       width="2.2684495"
       id="rect1061"
       style="fill:#000000;stroke-width:0.26458332" />
    <rect
       y="174.55045"
       x="33.839664"
       height="1.2862346"
       width="1.3330069"
       id="rect1063"
       style="fill:#000000;stroke-width:0.26458332" />
    <rect
       y="172.23523"
       x="36.552448"
       height="1.3563927"
       width="1.8007284"
       id="rect1065"
       style="fill:#000000;stroke-width:0.26458332" />
    <rect
       y="171.08931"
       x="38.306404"
       height="1.099146"
       width="1.9410449"
       id="rect1067"
       style="fill:#000000;stroke-width:0.26458332" />
    <rect
       y="172.7731"
       x="36.108112"
       height="0.77174073"
       width="1.2160764"
       id="rect1069"
       style="fill:#000000;stroke-width:0.26458332" />
    <rect
       y="173.84886"
       x="34.611404"
       height="0.98221546"
       width="1.8007284"
       id="rect1071"
       style="fill:#000000;stroke-width:0.26458332" />
    <rect
       y="175.32219"
       x="33.091309"
       height="0.8652851"
       width="1.1693041"
       id="rect1073"
       style="fill:#000000;stroke-width:0.26458332" />
    <rect
       y="176.49149"
       x="32.179253"
       height="0.70158249"
       width="1.2628485"
       id="rect1075"
       style="fill:#000000;stroke-width:0.26458332" />
    <rect
       y="191.34854"
       x="91.016663"
       height="1.8355469"
       width="2.166276"
       id="rect1077"
       style="fill:#000000;stroke-width:0.26458332" />
    <rect
       y="195.49919"
       x="87.973961"
       height="3.2907553"
       width="1.6701822"
       id="rect1079"
       style="fill:#000000;stroke-width:0.26458332" />
    <rect
       y="196.82211"
       x="87.444794"
       height="2.0835936"
       width="1.372526"
       id="rect1081"
       style="fill:#000000;stroke-width:0.26458332" />
    <rect
       y="199.36873"
       x="86.617966"
       height="1.6205729"
       width="1.405599"
       id="rect1083"
       style="fill:#000000;stroke-width:0.26458332" />
    <rect
       y="186.58604"
       x="102.97253"
       height="1.1244792"
       width="1.2567708"
       id="rect1085"
       style="fill:#000000;stroke-width:0.26458332" />
    <rect
       y="187.76486"
       x="104.7939"
       height="1.351264"
       width="1.7670377"
       id="rect1087"
       style="fill:#000000;stroke-width:0.26458332" />
    <rect
       y="188.37198"
       x="106.13099"
       height="1.1740885"
       width="1.2733073"
       id="rect1089"
       style="fill:#000000;stroke-width:0.26458332" />
    <rect
       y="196.73943"
       x="113.7543"
       height="4.5805988"
       width="1.7694011"
       id="rect1091"
       style="fill:#000000;stroke-width:0.26458332" />
    <rect
       y="205.22264"
       x="115.17643"
       height="2.1001301"
       width="0.82682288"
       id="rect1093"
       style="fill:#000000;stroke-width:0.26458332" />
    <rect
       y="198.88918"
       x="114.79609"
       height="2.8938801"
       width="1.2567708"
       id="rect1095"
       style="fill:#000000;stroke-width:0.26458332" />
    <rect
       y="217.58084"
       x="131.57011"
       height="1.4733232"
       width="1.5668676"
       id="rect1097"
       style="fill:#000000;stroke-width:0.26458332" />
    <rect
       y="213.72214"
       x="136.2941"
       height="2.7595577"
       width="1.403165"
       id="rect1099"
       style="fill:#000000;stroke-width:0.26458332" />
    <rect
       y="215.99059"
       x="138.32869"
       height="2.6893997"
       width="1.8241144"
       id="rect1101"
       style="fill:#000000;stroke-width:0.26458332" />
    <rect
       y="214.55234"
       x="137.13599"
       height="1.2160764"
       width="1.2745415"
       id="rect1103"
       style="fill:#000000;stroke-width:0.26458332" />
    <rect
       y="216.91434"
       x="139.70847"
       height="1.403165"
       width="1.1576111"
       id="rect1105"
       style="fill:#000000;stroke-width:0.26458332" />
    <rect
       y="215.06683"
       x="137.94281"
       height="1.6253328"
       width="1.3446997"
       id="rect1107"
       style="fill:#000000;stroke-width:0.26458332" />
    <rect
       y="217.72116"
       x="140.16449"
       height="1.4499372"
       width="1.1693041"
       id="rect1109"
       style="fill:#000000;stroke-width:0.26458332" />
    <rect
       y="218.3175"
       x="140.86607"
       height="1.7071809"
       width="1.2277703"
       id="rect1111"
       style="fill:#000000;stroke-width:0.26458332" />
    <rect
       y="266.07681"
       x="14.915885"
       height="2.2158854"
       width="11.410156"
       id="rect1113"
       style="fill:#000000;stroke-width:0.26458332" />
    <rect
       y="270.37628"
       x="25.63151"
       height="2.2489583"
       width="2.1828125"
       id="rect1115"
       style="fill:#000000;stroke-width:0.26458332" />
    <rect
       y="271.83148"
       x="44.780727"
       height="4.8617187"
       width="0.9921875"
       id="rect1117"
       style="fill:#000000;stroke-width:0.26458332" />
    <rect
       y="275.93253"
       x="32.08073"
       height="3.4395833"
       width="6.2507811"
       id="rect1119"
       style="fill:#000000;stroke-width:0.26458332" />
    <rect
       y="271.86456"
       x="26.259895"
       height="1.8851563"
       width="1.4882812"
       id="rect1121"
       style="fill:#000000;stroke-width:0.26458332" />
    <rect
       y="277.98306"
       x="34.627342"
       height="1.7859374"
       width="4.9278646"
       id="rect1123"
       style="fill:#000000;stroke-width:0.26458332" />
    <rect
       y="276.42862"
       x="30.228645"
       height="2.1166666"
       width="2.4473958"
       id="rect1125"
       style="fill:#000000;stroke-width:0.26458332" />
    <rect
       y="273.05518"
       x="26.491405"
       height="1.6536458"
       width="1.554427"
       id="rect1127"
       style="fill:#000000;stroke-width:0.26458332" />
    <rect
       y="278.01611"
       x="31.716927"
       height="0.52916217"
       width="0.9591136"
       id="rect1129"
       style="fill:#000000;stroke-width:0.26458332" />
    <rect
       y="278.43143"
       x="38.71566"
       height="1.099146"
       width="1.976124"
       id="rect1131"
       style="fill:#000000;stroke-width:0.26458332" />
    <rect
       y="276.38513"
       x="43.205788"
       height="1.0056016"
       width="2.0345893"
       id="rect1133"
       style="fill:#000000;stroke-width:0.26458332" />
    <rect
       y="271.9184"
       x="45.825027"
       height="1.3096207"
       width="2.5023108"
       id="rect1135"
       style="fill:#000000;stroke-width:0.26458332" />
    <rect
       y="273.89453"
       x="45.731487"
       height="2.280143"
       width="0.61973119"
       id="rect1137"
       style="fill:#000000;stroke-width:0.26458332" />
    <rect
       y="273.4151"
       x="46.561691"
       height="1.099146"
       width="0.97052246"
       id="rect1139"
       style="fill:#000000;stroke-width:0.26458332" />
    <rect
       y="276.89963"
       x="43.334415"
       height="1.1225319"
       width="0.97052246"
       id="rect1141"
       style="fill:#000000;stroke-width:0.26458332" />
    <rect
       y="273.953"
       x="45.252071"
       height="1.5902536"
       width="1.8007284"
       id="rect1143"
       style="fill:#000000;stroke-width:0.26458332" />
    <rect
       y="272.53815"
       x="47.041107"
       height="1.1926903"
       width="0.74835467"
       id="rect1145"
       style="fill:#000000;stroke-width:0.26458332" />
    <rect
       y="278.01611"
       x="31.716927"
       height="0.76068968"
       width="0.57877648"
       id="rect1147"
       style="fill:#000000;stroke-width:0.26458332" />
    <rect
       y="262.6926"
       x="7.6004772"
       height="1.6370258"
       width="1.5902536"
       id="rect1149"
       style="fill:#000000;stroke-width:0.26458332" />
    <rect
       y="264.72717"
       x="9.798769"
       height="1.5434815"
       width="1.7071841"
       id="rect1151"
       style="fill:#000000;stroke-width:0.26458332" />
    <rect
       y="263.74496"
       x="8.7230091"
       height="1.6136397"
       width="1.403165"
       id="rect1153"
       style="fill:#000000;stroke-width:0.26458332" />
    <rect
       y="259.60562"
       x="5.7997489"
       height="2.3853805"
       width="1.2862346"
       id="rect1155"
       style="fill:#000000;stroke-width:0.26458332" />
    <rect
       y="265.31183"
       x="11.34225"
       height="1.7773423"
       width="2.1281335"
       id="rect1157"
       style="fill:#000000;stroke-width:0.26458332" />
    <rect
       y="261.61682"
       x="6.7585783"
       height="1.4967093"
       width="1.099146"
       id="rect1159"
       style="fill:#000000;stroke-width:0.26458332" />
    <rect
       y="257.85168"
       x="4.9578495"
       height="2.9934187"
       width="1.3096207"
       id="rect1161"
       style="fill:#000000;stroke-width:0.26458332" />
    <rect
       y="257.22025"
       x="3.9288619"
       height="1.4967093"
       width="1.2628485"
       id="rect1163"
       style="fill:#000000;stroke-width:0.26458332" />
    <rect
       y="258.45972"
       x="4.4901276"
       height="0.7951268"
       width="0.70158249"
       id="rect1165"
       style="fill:#000000;stroke-width:0.26458332" />
    <rect
       y="234.06223"
       x="0.85989583"
       height="12.071614"
       width="2.811198"
       id="rect1167"
       style="fill:#000000;stroke-width:0.26458332" />
    <rect
       y="227.64607"
       x="1.8520833"
       height="6.3499999"
       width="2.811198"
       id="rect1169"
       style="fill:#000000;stroke-width:0.26458332" />
    <rect
       y="229.82889"
       x="1.4221354"
       height="5.4901042"
       width="2.1828125"
       id="rect1171"
       style="fill:#000000;stroke-width:0.26458332" />
    <rect
       y="225.26482"
       x="2.4473958"
       height="4.2664061"
       width="2.0835936"
       id="rect1173"
       style="fill:#000000;stroke-width:0.26458332" />
    <rect
       y="214.84685"
       x="8.7312498"
       height="3.2411458"
       width="2.3151042"
       id="rect1175"
       style="fill:#000000;stroke-width:0.26458332" />
    <rect
       y="216.03748"
       x="7.6067705"
       height="1.2567708"
       width="1.5213542"
       id="rect1177"
       style="fill:#000000;stroke-width:0.26458332" />
    <rect
       y="217.09581"
       x="6.8460937"
       height="1.2898437"
       width="0.92604166"
       id="rect1179"
       style="fill:#000000;stroke-width:0.26458332" />
    <rect
       y="213.85466"
       x="9.8888016"
       height="1.8520833"
       width="1.3559896"
       id="rect1181"
       style="fill:#000000;stroke-width:0.26458332" />
    <rect
       y="215.40909"
       x="8.301302"
       height="0.62838078"
       width="0.82682216"
       id="rect1183"
       style="fill:#000000;stroke-width:0.26458332" />
    <rect
       y="217.09581"
       x="6.8460937"
       height="0.9921875"
       width="1.8851562"
       id="rect1185"
       style="fill:#000000;stroke-width:0.26458332" />
    <rect
       y="214.62361"
       x="9.5249996"
       height="0.71933591"
       width="0.83509111"
       id="rect1187"
       style="fill:#000000;stroke-width:0.26458332" />
    <rect
       y="217.51749"
       x="15.321029"
       height="0.86158609"
       width="0.74601668"
       id="rect1189"
       style="fill:#000000;stroke-width:0.26458332" />
    <rect
       y="216.80643"
       x="7.2347002"
       height="0.62838542"
       width="0.77721351"
       id="rect1191"
       style="fill:#000000;stroke-width:0.26458332" />
    <rect
       y="212.20041"
       x="67.084084"
       height="3.4393892"
       width="26.577181"
       id="rect1193"
       style="fill:#000000;stroke-width:0.26458332" />
    <rect
       y="244.41405"
       x="122.03906"
       height="17.024408"
       width="3.8846691"
       id="rect1195"
       style="fill:#000000;stroke-width:0.26458332" />
    <rect
       y="257.66458"
       x="141.39226"
       height="3.2671106"
       width="1.0350751"
       id="rect1197"
       style="fill:#000000;stroke-width:0.26458332" />
    <rect
       y="255.9574"
       x="142.88896"
       height="3.0869629"
       width="0.67819637"
       id="rect1199"
       style="fill:#000000;stroke-width:0.26458332" />
    <rect
       y="255.11551"
       x="143.87119"
       height="1.6837981"
       width="0.67819637"
       id="rect1201"
       style="fill:#000000;stroke-width:0.26458332" />
    <rect
       y="260.63461"
       x="139.75523"
       height="2.5023108"
       width="1.1225319"
       id="rect1203"
       style="fill:#000000;stroke-width:0.26458332" />
    <rect
       y="259.04437"
       x="141.93015"
       height="0.46771541"
       width="1.6370126"
       id="rect1205"
       style="fill:#000000;stroke-width:0.26458332" />
    <rect
       y="256.3082"
       x="142.56157"
       height="1.5902536"
       width="1.4967093"
       id="rect1207"
       style="fill:#000000;stroke-width:0.26458332" />
    <rect
       y="259.04437"
       x="141.93015"
       height="1.2394562"
       width="0.91205329"
       id="rect1209"
       style="fill:#000000;stroke-width:0.26458332" />
    <rect
       y="260.63461"
       x="140.87775"
       height="1.9878241"
       width="0.39756915"
       id="rect1211"
       style="fill:#000000;stroke-width:0.26458332" />
    <rect
       y="262.8797"
       x="138.25851"
       height="1.4967093"
       width="1.6837981"
       id="rect1213"
       style="fill:#000000;stroke-width:0.26458332" />
    <rect
       y="264.14252"
       x="137.76741"
       height="0.8652851"
       width="1.1926903"
       id="rect1215"
       style="fill:#000000;stroke-width:0.26458332" />
    <rect
       y="264.91428"
       x="136.94891"
       height="1.0056016"
       width="1.1225319"
       id="rect1217"
       style="fill:#000000;stroke-width:0.26458332" />
    <rect
       y="262.22488"
       x="139.94232"
       height="1.5200955"
       width="0.21047476"
       id="rect1219"
       style="fill:#000000;stroke-width:0.26458332" />
    <rect
       y="260.63461"
       x="140.87775"
       height="1.2394694"
       width="1.0289934"
       id="rect1221"
       style="fill:#000000;stroke-width:0.26458332" />
    <rect
       y="262.8797"
       x="139.94231"
       height="0.25723267"
       width="0.93545532"
       id="rect1223"
       style="fill:#000000;stroke-width:0.26458332" />
    <rect
       y="263.72159"
       x="138.72626"
       height="1.2862294"
       width="0.23385039"
       id="rect1225"
       style="fill:#000000;stroke-width:0.26458332" />
    <rect
       y="262.8797"
       x="139.94231"
       height="0.46770599"
       width="0.40927425"
       id="rect1227"
       style="fill:#000000;stroke-width:0.26458332" />
    <rect
       y="264.91428"
       x="138.07144"
       height="0.32740232"
       width="0.30401504"
       id="rect1229"
       style="fill:#000000;stroke-width:0.26458332" />
    <rect
       y="263.72159"
       x="138.72626"
       height="0.85358691"
       width="0.35078189"
       id="rect1231"
       style="fill:#000000;stroke-width:0.26458332" />
    <rect
       y="265.33524"
       x="135.31187"
       height="1.134225"
       width="1.7422632"
       id="rect1233"
       style="fill:#000000;stroke-width:0.26458332" />
    <rect
       y="227.96426"
       x="144.12843"
       height="3.0401909"
       width="2.0813613"
       id="rect1235"
       style="fill:#000000;stroke-width:0.26458332" />
    <rect
       y="223.96524"
       x="143.09946"
       height="3.0635769"
       width="1.8241144"
       id="rect1237"
       style="fill:#000000;stroke-width:0.26458332" />
    <rect
       y="219.63882"
       x="141.41563"
       height="1.8007284"
       width="1.0523738"
       id="rect1239"
       style="fill:#000000;stroke-width:0.26458332" />
    <rect
       y="277.85077"
       x="110.77773"
       height="1.8851563"
       width="2.9434896"
       id="rect1241"
       style="fill:#000000;stroke-width:0.26458332" />
    <rect
       y="277.90036"
       x="105.84987"
       height="1.6867187"
       width="3.1915364"
       id="rect1243"
       style="fill:#000000;stroke-width:0.26458332" />
    <rect
       y="271.25272"
       x="99.384117"
       height="2.3812499"
       width="2.3151042"
       id="rect1245"
       style="fill:#000000;stroke-width:0.26458332" />
    <rect
       y="274.67575"
       x="101.6496"
       height="2.0835936"
       width="1.2733073"
       id="rect1247"
       style="fill:#000000;stroke-width:0.26458332" />
    <rect
       y="277.04047"
       x="103.96471"
       height="1.4882812"
       width="1.2898437"
       id="rect1249"
       style="fill:#000000;stroke-width:0.26458332" />
    <rect
       y="277.85077"
       x="113.72122"
       height="1.4386642"
       width="1.5378923"
       id="rect1251"
       style="fill:#000000;stroke-width:0.26458332" />
    <rect
       y="276.51129"
       x="116.64818"
       height="1.190625"
       width="1.5048177"
       id="rect1253"
       style="fill:#000000;stroke-width:0.26458332" />
    <rect
       y="275.25455"
       x="118.46719"
       height="0.97565103"
       width="1.3229166"
       id="rect1255"
       style="fill:#000000;stroke-width:0.26458332" />
    <rect
       y="277.85077"
       x="115.25911"
       height="0.76066929"
       width="1.3890597"
       id="rect1257"
       style="fill:#000000;stroke-width:0.26458332" />
    <rect
       y="273.81586"
       x="100.65742"
       height="1.9347656"
       width="1.3063802"
       id="rect1259"
       style="fill:#000000;stroke-width:0.26458332" />
    <rect
       y="273.13788"
       x="100.0125"
       height="1.1740885"
       width="0.95911455"
       id="rect1261"
       style="fill:#000000;stroke-width:0.26458332" />
    <rect
       y="276.24673"
       x="102.50951"
       height="1.4552083"
       width="1.8851563"
       id="rect1263"
       style="fill:#000000;stroke-width:0.26458332" />
    <rect
       y="277.98306"
       x="104.90729"
       height="0.82682288"
       width="1.2071614"
       id="rect1265"
       style="fill:#000000;stroke-width:0.26458332" />
    <rect
       y="278.01611"
       x="114.89531"
       height="1.0252604"
       width="1.008724"
       id="rect1267"
       style="fill:#000000;stroke-width:0.26458332" />
    <rect
       y="277.22238"
       x="116.21823"
       height="1.008724"
       width="1.0748698"
       id="rect1269"
       style="fill:#000000;stroke-width:0.26458332" />
    <rect
       y="276.16403"
       x="117.72305"
       height="1.008724"
       width="1.3559896"
       id="rect1271"
       style="fill:#000000;stroke-width:0.26458332" />
    <rect
       y="273.35284"
       x="119.88932"
       height="1.5213542"
       width="1.0914062"
       id="rect1273"
       style="fill:#000000;stroke-width:0.26458332" />
    <rect
       y="272.02994"
       x="120.53424"
       height="1.6205729"
       width="0.92604166"
       id="rect1275"
       style="fill:#000000;stroke-width:0.26458332" />
    <rect
       y="273.81586"
       x="119.55859"
       height="1.7859374"
       width="0.74414062"
       id="rect1277"
       style="fill:#000000;stroke-width:0.26458332" />
    <rect
       y="274.05823"
       x="27.151243"
       height="0.65059978"
       width="0.89458859"
       id="rect1279"
       style="fill:#000000;stroke-width:0.26458332" />
    <rect
       y="245.57399"
       x="1.099146"
       height="4.8643055"
       width="2.5023108"
       id="rect1281"
       style="fill:#000000;stroke-width:0.26458332" />
    <rect
       y="236.54695"
       x="0.98221546"
       height="5.1449385"
       width="2.0579753"
       id="rect1283"
       style="fill:#000000;stroke-width:0.26458332" />
    <rect
       y="249.87703"
       x="1.660412"
       height="1.6837981"
       width="1.0757599"
       id="rect1285"
       style="fill:#000000;stroke-width:0.26458332" />
    <rect
       y="226.98204"
       x="2.198292"
       height="1.6370258"
       width="0.84189904"
       id="rect1287"
       style="fill:#000000;stroke-width:0.26458332" />
    <rect
       y="183.80792"
       x="60.291927"
       height="0.69453126"
       width="0.82682288"
       id="rect1289"
       style="fill:#000000;stroke-width:0.26458332" />
    <rect
       y="184.23787"
       x="26.408724"
       height="3.4891927"
       width="2.1828125"
       id="rect1291"
       style="fill:#000000;stroke-width:0.26458332" />
    <rect
       y="177.14372"
       x="31.220833"
       height="1.4221354"
       width="2.1497395"
       id="rect1293"
       style="fill:#000000;stroke-width:0.26458332" />
    <rect
       y="177.9044"
       x="30.675129"
       height="2.8277342"
       width="1.0748698"
       id="rect1295"
       style="fill:#000000;stroke-width:0.26458332" />
    <rect
       y="178.66508"
       x="29.88138"
       height="1.1244792"
       width="1.0914062"
       id="rect1297"
       style="fill:#000000;stroke-width:0.26458332" />
  </g>
</svg>
