<?xml version="1.0" encoding="UTF-8" standalone="no"?>
<!-- Created with Inkscape (http://www.inkscape.org/) -->

<svg
   xmlns:dc="http://purl.org/dc/elements/1.1/"
   xmlns:cc="http://creativecommons.org/ns#"
   xmlns:rdf="http://www.w3.org/1999/02/22-rdf-syntax-ns#"
   xmlns:svg="http://www.w3.org/2000/svg"
   xmlns="http://www.w3.org/2000/svg"
   version="1.1"
   width="585"
   height="585"
   viewBox="0 0 468 468"
   id="svg2">
  <metadata
     id="metadata8">
    <rdf:RDF>
      <cc:Work
         rdf:about="">
        <dc:format>image/svg+xml</dc:format>
        <dc:type
           rdf:resource="http://purl.org/dc/dcmitype/StillImage" />
        <dc:title></dc:title>
      </cc:Work>
    </rdf:RDF>
  </metadata>
  <defs
     id="defs6" />
  <g
     transform="matrix(6.4243553,0,0,6.685087,-78.692543,-101.2328)"
     id="g3">
    <rect
       width="4.1479998"
       height="4.1479998"
       x="39.563999"
       y="56.884998"
       id="rect5" />
    <rect
       width="4.1479998"
       height="4.1479998"
       x="54.558998"
       y="56.884998"
       id="rect7" />
    <rect
       width="4.1479998"
       height="4.1479998"
       x="46.952999"
       y="49.352001"
       id="rect9" />
    <rect
       width="4.1500001"
       height="4.1479998"
       x="39.490002"
       y="49.352001"
       id="rect11" />
    <rect
       width="4.1479998"
       height="4.1479998"
       x="47.025002"
       y="56.884998"
       id="rect13" />
    <path
       d="m 49.137,23.823 c -14.701,0 -26.621,11.918 -26.621,26.62 0,14.702 11.92,26.62 26.621,26.62 14.701,0 26.619,-11.918 26.619,-26.62 0,-14.702 -11.918,-26.62 -26.619,-26.62 z m 17.25,38.848 c 0,1.204 -0.98,2.184 -2.184,2.184 H 34.07 c -1.205,0 -2.184,-0.979 -2.184,-2.184 V 38.216 c 0,-1.205 0.979,-2.184 2.184,-2.184 h 30.133 c 1.203,0 2.184,0.979 2.184,2.184 v 24.455 z"
       id="path15" />
    <rect
       width="22.709"
       height="6.1139998"
       x="37.672001"
       y="40.290001"
       id="rect17" />
    <rect
       width="4.1479998"
       height="4.1479998"
       x="54.486"
       y="49.352001"
       id="rect19" />
  </g>
</svg>
