<?xml version="1.0" encoding="UTF-8" standalone="no"?>
<!-- Created with Inkscape (http://www.inkscape.org/) -->

<svg
   xmlns:dc="http://purl.org/dc/elements/1.1/"
   xmlns:cc="http://creativecommons.org/ns#"
   xmlns:rdf="http://www.w3.org/1999/02/22-rdf-syntax-ns#"
   xmlns:svg="http://www.w3.org/2000/svg"
   xmlns="http://www.w3.org/2000/svg"
   xmlns:sodipodi="http://sodipodi.sourceforge.net/DTD/sodipodi-0.dtd"
   xmlns:inkscape="http://www.inkscape.org/namespaces/inkscape"
   width="64.999832mm"
   height="64.999863mm"
   viewBox="0 0 230.31437 230.31447"
   id="svg4305"
   version="1.1"
   inkscape:version="0.91 r13725"
   sodipodi:docname="alexa.svg">
  <defs
     id="defs4307" />
  <sodipodi:namedview
     id="base"
     pagecolor="#ffffff"
     bordercolor="#666666"
     borderopacity="1.0"
     inkscape:pageopacity="0.0"
     inkscape:pageshadow="2"
     inkscape:zoom="1.4"
     inkscape:cx="155.86531"
     inkscape:cy="-3.9068377"
     inkscape:document-units="px"
     inkscape:current-layer="layer1"
     showgrid="false"
     fit-margin-top="0"
     fit-margin-left="0"
     fit-margin-right="0"
     fit-margin-bottom="0"
     inkscape:window-width="1680"
     inkscape:window-height="1001"
     inkscape:window-x="0"
     inkscape:window-y="25"
     inkscape:window-maximized="1" />
  <metadata
     id="metadata4310">
    <rdf:RDF>
      <cc:Work
         rdf:about="">
        <dc:format>image/svg+xml</dc:format>
        <dc:type
           rdf:resource="http://purl.org/dc/dcmitype/StillImage" />
        <dc:title></dc:title>
      </cc:Work>
    </rdf:RDF>
  </metadata>
  <g
     inkscape:label="Ebene 1"
     inkscape:groupmode="layer"
     id="layer1"
     transform="translate(52.300037,222.79503)">
    <path
       inkscape:connector-curvature="0"
       style="opacity:1;fill:#000000;fill-opacity:1;stroke:none;stroke-width:1.722;stroke-miterlimit:4;stroke-dasharray:none;stroke-opacity:1"
       d="M 62.856236,-219.93789 A 112.30024,112.30024 0 0 0 -49.442894,-107.63876 112.30024,112.30024 0 0 0 62.856236,4.6622902 112.30024,112.30024 0 0 0 141.80275,-27.892275 l -0.004,-0.0039 a 112.30024,112.30024 0 0 0 33.35833,-79.742675 112.30024,112.30024 0 0 0 -32.37552,-78.75224 l -0.004,0.004 a 112.30024,112.30024 0 0 0 -79.921524,-33.5507 z m 0.316176,2.02467 c 12.322607,0.10235 24.652958,2.08885 36.240085,6.29683 15.974733,5.34601 30.280093,14.69251 41.952183,26.64247 l -13.91359,13.91359 c -16.85974,-17.00319 -40.37564,-27.39675 -64.66342,-27.18531 -37.576633,-0.36812 -73.688493,25.14269 -85.430005,60.91123 -13.34956,36.31286 0.30656,80.222503 31.8612639,102.598667 30.7519571,23.474744 76.7313181,23.433543 107.4346111,-0.116184 3.51168,-2.499234 6.78605,-5.27786 9.8376,-8.270053 l 13.90406,13.904062 c -8.54776,8.544052 -18.49999,15.67644 -29.54137,20.840856 C 72.090156,10.985378 22.318363,4.1960912 -9.8791663,-24.774332 -43.803209,-53.782407 -56.693143,-104.4133 -40.450967,-146.03302 c 14.169294,-39.93778 53.332746,-68.96819 95.534263,-71.68022 1.871661,-0.1078 3.747398,-0.1737 5.624481,-0.19617 0.821207,-0.01 1.643126,-0.0105 2.464635,-0.004 z m -0.316176,21.61606 a 88.658084,88.658084 0 0 1 63.257784,26.5739 88.658084,88.658084 0 0 1 25.40062,62.0845 88.658084,88.658084 0 0 1 -26.39296,63.065416 88.658084,88.658084 0 0 1 -0.008,0.0059 88.658084,88.658084 0 0 1 -62.257829,25.587287 88.658084,88.658084 0 0 1 -88.658409,-88.658414 88.658084,88.658084 0 0 1 88.658409,-88.65841 z m -4.154082,26.51485 c -10.957976,0.61555 -20.530999,3.57002 -28.718551,8.86433 -8.187727,5.2943 -13.327169,13.42003 -15.420179,24.37782 -0.123147,0.49254 -0.184759,0.92391 -0.184759,1.29326 0,1.72365 1.045695,2.8311 3.13889,3.32365 l 21.238938,2.58653 c 1.969824,-0.36936 3.2006,-1.78693 3.693149,-4.2493 0.861726,-3.93985 2.770493,-7.01763 5.725423,-9.23383 2.954921,-2.21619 6.464061,-3.50853 10.527089,-3.8779 l 1.478026,0 c 5.540489,0 9.602406,1.84702 12.187964,5.54068 1.723647,2.70874 2.586533,8.00314 2.586533,15.88301 l 0,3.13889 c -7.510498,0.61555 -12.928229,1.10865 -16.252523,1.47802 -9.726693,1.23127 -17.913991,3.26319 -24.562577,6.09493 -7.264321,3.07811 -12.990252,7.63295 -17.176281,13.66598 -4.186204,6.033043 -6.279682,13.297783 -6.279682,21.793202 0,10.711605 3.047866,18.990405 9.142399,24.838751 6.094533,5.848356 13.88212,8.7729 23.362637,8.7729 6.156028,0 11.3273,-0.616242 15.513504,-1.847525 6.648577,-1.846833 13.420232,-6.524991 20.315181,-14.035489 0.492363,0.615549 1.353348,1.816397 2.584631,3.601725 1.231099,1.785337 2.123914,2.986176 2.677958,3.601725 0.554053,0.615549 1.478513,1.599846 2.771292,2.954131 1.292779,1.354274 2.799749,2.769937 4.523581,4.247407 2.09301,0.861911 3.878464,0.738598 5.355924,-0.369499 0.861736,-0.738726 6.402779,-5.540216 16.622019,-14.404998 0.98492,-0.738735 1.47802,-1.599729 1.47802,-2.584631 0,-0.861921 -0.36979,-1.847945 -1.10852,-2.956043 -1.97002,-2.585558 -3.38566,-4.462495 -4.2474,-5.632097 -0.86192,-1.169594 -1.75456,-3.078361 -2.67797,-5.725424 -0.92341,-2.647063 -1.38659,-5.571792 -1.38659,-8.772899 l 0,-44.692996 c 0,-0.49255 -0.0599,-2.06127 -0.18285,-4.70834 -0.12317,-2.64706 -0.30807,-4.37093 -0.55425,-5.17116 -0.24638,-0.80023 -0.61616,-2.24774 -1.10852,-4.34075 -0.49255,-2.09301 -1.04723,-3.69355 -1.66278,-4.80165 -0.61573,-1.1081 -1.44679,-2.37053 -2.493204,-3.78649 -1.038632,-1.40662 -2.181018,-2.73439 -3.416973,-3.97122 -7.87986,-7.26413 -18.836734,-10.8947 -32.872632,-10.8947 l -4.616917,0 z m 16.252523,65.00817 0,4.61692 c 0,3.939846 -0.03179,6.771161 -0.09333,8.494808 -0.06163,1.723647 -0.431462,3.970376 -1.108517,6.740615 -0.67723,2.77024 -1.693191,5.324992 -3.047466,7.664383 -2.83193,5.294302 -6.832097,8.618546 -12.003214,9.97283 -0.246371,0 -0.707646,0.06153 -1.38469,0.18475 -0.67724,0.123147 -1.201979,0.184759 -1.571352,0.184759 -4.063018,0 -7.293869,-1.445406 -9.694746,-4.338831 -2.400876,-2.893425 -3.601724,-6.742429 -3.601724,-11.544182 0,-10.588429 5.417722,-17.421822 16.252512,-20.499932 3.693656,-0.98491 9.111398,-1.47612 16.252523,-1.47612 z"
       id="circle4253" />
  </g>
</svg>
