<?xml version="1.0" encoding="UTF-8"?>
<svg xmlns="http://www.w3.org/2000/svg" xmlns:xlink="http://www.w3.org/1999/xlink" width="512px" height="444px" viewBox="0 0 512 444" version="1.1">
  <defs/>
  <g fill="#000000" id="layer1">
    <path d="M384.021484,0.2768898 L127.978508,0.2768898 L0,221.999908 L127.978508,443.723114 L384.021477,443.723114 L512,221.999908 L384.021484,0.2768898 Z M147.162064,261.4021 L186.003647,222.519226 L186.003647,276.459442 C172.375,276.166657 159.320801,269.916931 147.162064,261.4021 Z M299.767334,271.975586 C276.020538,247.494324 245.44014,216.833878 212.232651,183.797851 L123.295197,271.772583 C109.276169,281.64386 85.875,274.75 67.474205,261.364166 L212.593811,117.88475 C258.508026,166.17955 306.163269,214.077835 355.629639,261.563629 C331.772492,278.664978 310.25,279.875 299.767334,271.975586 Z M384.58194,271.975586 L313.26355,200.897644 L306.148773,208.012436 L272.850281,175.077621 L313.280701,134.637329 C356.386932,178.069 398.742127,220.814178 440.444214,261.563629 C419.875,276.3125 397.0625,281.375 384.58194,271.975586 Z" id="Shape"/>
  </g>
</svg>
