<?xml version="1.0" encoding="UTF-8" standalone="no"?>
<!-- Created with Inkscape (http://www.inkscape.org/) -->

<svg
   xmlns:dc="http://purl.org/dc/elements/1.1/"
   xmlns:cc="http://creativecommons.org/ns#"
   xmlns:rdf="http://www.w3.org/1999/02/22-rdf-syntax-ns#"
   xmlns:svg="http://www.w3.org/2000/svg"
   xmlns="http://www.w3.org/2000/svg"
   version="1.1"
   width="14.053"
   height="23.669001"
   viewBox="0 0 14.053 23.669"
   id="Capa_1"
   xml:space="preserve"><metadata
   id="metadata9"><rdf:RDF><cc:Work
       rdf:about=""><dc:format>image/svg+xml</dc:format><dc:type
         rdf:resource="http://purl.org/dc/dcmitype/StillImage" /><dc:title></dc:title></cc:Work></rdf:RDF></metadata><defs
   id="defs7" />
<path
   d="M 11.658,13.133 V 11.864 C 12.771,11.022 13.62,9.886 14.053,8.576 H 11.657 V 7.309 C 12.771,6.464 13.62,5.329 14.053,4.02 H 11.657 V 3.142 C 11.657,1.407 10.251,0 8.517,0 H 5.537 C 3.803,0 2.396,1.406 2.396,3.142 V 4.02 H 0 C 0.434,5.329 1.28,6.464 2.396,7.309 V 8.576 H 0 c 0.434,1.31 1.28,2.445 2.396,3.29 v 1.267 H 0 c 0.434,1.308 1.28,2.445 2.396,3.29 v 2.605 c 0,1.734 1.406,3.142 3.141,3.142 h 0.499 v 1.499 H 8.018 V 22.17 h 0.499 c 1.733,0 3.141,-1.407 3.141,-3.142 v -2.605 c 1.114,-0.845 1.963,-1.982 2.396,-3.29 h -2.396 z m -4.633,6.616 c -1.271,0 -2.304,-1.033 -2.304,-2.304 0,-1.273 1.032,-2.307 2.304,-2.307 1.273,0 2.306,1.033 2.306,2.307 0,1.271 -1.031,2.304 -2.306,2.304 z m 0,-6.359 c -1.271,0 -2.304,-1.031 -2.304,-2.304 0,-1.273 1.033,-2.306 2.304,-2.306 1.273,0 2.306,1.032 2.306,2.306 0,1.273 -1.031,2.304 -2.306,2.304 z m 0,-6.362 c -1.271,0 -2.304,-1.029 -2.304,-2.304 0,-1.271 1.032,-2.303 2.304,-2.303 1.273,0 2.306,1.031 2.306,2.303 0,1.275 -1.031,2.304 -2.306,2.304 z"
   id="path3" />
<path
   d="m 9.3688818,11.093093 c 0,1.280399 -1.0450644,2.318369 -2.3342166,2.318369 -1.2891522,0 -2.3342158,-1.03797 -2.3342158,-2.318369 0,-1.2804008 1.0450636,-2.318371 2.3342158,-2.318371 1.2891522,0 2.3342166,1.0379702 2.3342166,2.318371 z"
   id="path2991"
   style="fill:#ffff00;fill-opacity:1" /></svg>