<?xml version="1.0" encoding="UTF-8"?>
<svg xmlns="http://www.w3.org/2000/svg" xmlns:xlink="http://www.w3.org/1999/xlink" width="512px" height="512px" viewBox="0 0 512 512" version="1.1">
  <defs/>
  <g fill="#000000" id="layer1">
    <path d="M186.574966,162.152222 C204.721222,177.464142 234.003616,193.426331 259.419342,203.384552 C237.556564,187.519272 215.80098,169.636337 194.08461,146.22966 C212.161056,107.683998 233.744369,54.4436111 255.997131,0.0983429 C292.276215,92.7959137 359.896301,232.299561 450.482574,397.815872 C425.873627,384.303299 403.575256,376.60881 380.553162,370.664444 C388.182892,375.019455 406.218384,384.860825 417.790161,392.771744 C436.070709,405.269028 452.987518,418.935135 468.896942,432.02095 C483.096558,458.131775 497.471283,484.780151 512,511.901642 C439.744171,470.064423 369.527191,436.173676 312,425.706329 C330.833344,321.234985 257.119415,259.598694 215.239975,326.096924 C199.114456,351.699005 194.752808,393.882507 202.399735,425.229492 C129.666672,439.234985 58.5026627,478.439484 0,511.901642 C68.1430206,388.425385 137.038345,263.253296 186.574966,162.152222 Z" id="Shape"/>
  </g>
</svg>
