<?xml version="1.0" encoding="UTF-8"?>
<svg xmlns="http://www.w3.org/2000/svg" xmlns:xlink="http://www.w3.org/1999/xlink" width="512px" height="244px" viewBox="0 0 512 244" version="1.1">
  <defs/>
  <g fill="#000000" id="layer1">
    <path d="M512,121.998383 C512,54.9623261 455.650848,0.5562592 385.700195,0.5562592 L385.700195,0.5562592 C379.385193,0.5562592 372.584442,1.0420227 366.26944,2.0135651 L366.26944,2.0135651 C312.349152,9.7858582 275.916534,48.6473389 256,78.2792206 L256,78.2792206 C235.597717,48.6473389 199.650848,9.7858582 145.730545,2.0135651 L145.730545,2.0135651 C139.415558,1.0420227 132.614792,0.5562592 126.299805,0.5562592 L126.299805,0.5562592 C56.8349113,0.5562592 0,54.962326 0,121.998383 L0,121.998383 C0,189.034454 56.3491478,243.440521 125.814041,243.440521 L125.814041,243.440521 C132.129028,243.440521 138.929794,242.954742 145.244781,241.983215 L145.244781,241.983215 C199.165085,234.210938 235.597717,195.349426 255.514221,165.71756 L255.514221,165.71756 C275.916504,195.349426 311.863373,234.210907 365.783691,241.983215 L365.783691,241.983215 C372.098694,242.954742 378.899414,243.440521 385.214417,243.440521 L385.214417,243.440521 C455.650848,243.926269 512,189.520203 512,121.998383 L512,121.998383 Z M139.415558,199.721344 C135.04364,200.207123 130.671738,200.692902 126.299805,200.692902 L126.299805,200.692902 C80.6375733,200.692902 43.2333985,165.231781 43.2333985,121.998398 L43.2333985,121.998398 C43.2333985,78.7649994 80.6375695,43.303894 126.299805,43.303894 L126.299805,43.303894 C130.671722,43.303894 135.04364,43.7896575 139.415558,44.2754211 L139.415558,44.2754211 C190.421249,51.5619659 221.510422,101.596115 232.197357,121.998398 L232.197357,121.998398 C221.510422,142.400665 190.421249,192.434814 139.415558,199.721344 L139.415558,199.721344 Z M279.802643,121.998383 C290.489563,102.081879 321.578735,51.5619507 372.584412,44.2754212 L372.584412,44.2754212 C376.956329,43.7896577 381.328278,43.3038941 385.700165,43.3038941 L385.700165,43.3038941 C431.362396,43.3038941 468.766571,78.7649842 468.766571,121.998398 L468.766571,121.998398 C468.766571,165.231781 431.362396,200.692902 385.700165,200.692902 L385.700165,200.692902 C381.328217,200.692902 376.956299,200.207123 372.584412,199.721344 L372.584412,199.721344 C321.578735,192.434814 290.489563,142.400665 279.802643,121.998383 L279.802643,121.998383 Z M91.3244705,134.628357 L167.10437,134.628357 L167.10437,134.628357 L167.10437,110.339935 L167.10437,110.339935 L91.3244705,110.339935 L91.3244705,110.339935 L91.3244705,134.628357 Z M394.444,134.628357 L419.703979,134.628357 L419.703979,134.628357 L419.703979,110.339935 L419.703979,110.339935 L394.444,110.339935 L394.444,110.339935 L394.444,84.5942078 L394.444,84.5942078 L369.66983,84.5942078 L369.66983,84.5942078 L369.66983,110.339935 L369.66983,110.339935 L344.409882,110.339935 L344.409882,110.339935 L344.409882,134.628357 L344.409882,134.628357 L369.66983,134.628357 L369.66983,134.628357 L369.66983,160.374084 L369.66983,160.374084 L394.444,160.374084 L394.444,160.374084 L394.444,134.628357 Z" id="Shape"/>
  </g>
</svg>
