<?xml version="1.0" encoding="utf-8"?>
<!-- Generator: Adobe Illustrator 16.0.3, SVG Export Plug-In . SVG Version: 6.00 Build 0)  -->
<!DOCTYPE svg PUBLIC "-//W3C//DTD SVG 1.1//EN" "http://www.w3.org/Graphics/SVG/1.1/DTD/svg11.dtd">
<svg version="1.1" id="Ebene_1" xmlns="http://www.w3.org/2000/svg" xmlns:xlink="http://www.w3.org/1999/xlink" x="0px" y="0px"
	 width="7086.609px" height="7086.609px" viewBox="0 0 7086.609 7086.609" enable-background="new 0 0 7086.609 7086.609"
	 xml:space="preserve">
<g id="Ebene_5">
	<g>
		<g>
			<path fill="#000000" d="M3304.268,5331.896c-12.034-3.043-20.625-5.215-29.196-7.381c-298.439-75.446-251.248-143.558-500.107-207.435
				c-16.813-4.313-26.653,1.599-40.882,28.429c-70.518,132.944-142.447,265.606-214.632,398.922
				c-71.263,131.615-163.813,179.535-230.919,121.037c-28.076-24.478-55.094-49.92-65.438-101.112
				c-16.29-80.631,4.143-165.015,50.829-252.271c231.645-432.953,1523.557-2844.369,1938.139-3618.374
				c63.717-118.954,134.533-191.842,216.678-204.721c103.006-16.16,247.332-83.42,229.18,44.594
				c-6.289,44.354-87.871,195.231-112.709,240.053c-49.01,88.453-98.565,176.599-150.635,269.771
				c11.201-0.968,19.568-1.692,27.955-2.417c301.857-26.088,312.371-54.81,674.756-85.063c24.836-2.07,37.732-11.969,54.004-41.574
				c81.498-148.332,373.377-664.933,456.951-812.62c10.49-18.539,34.353-52.693,34.353-52.693l531.899-65.112
				c0,0-94.733,170.42-134.76,243.988c-276.08,507.419-2180.465,3956.967-2676.698,4868.113
				c-55.833,102.526-121.122,172.858-203.759,169.803c-78.266-2.902-138.099-47.424-177.205-126.443
				c-37.604-75.994,85.363-368.156,142.137-475.524c49.688-93.981,101.447-186.476,152.309-279.801
				C3284.924,5368.628,3293.063,5352.991,3304.268,5331.896z M3418.004,3876.581c-133.114,249.449-265.593,497.709-399.044,747.797
				c8.396,2.551,14.024,4.854,20.065,6.008c260.063,49.674,225.026,103.278,537.004,163.686
				c18.597,3.598,28.621-4.293,41.879-29.148c98.211-184.121,197.291-367.444,295.959-550.778
				c42.864-79.646,85.739-159.365,129.959-241.553C3696.168,3937.216,3703.908,3905.673,3418.004,3876.581z M3702.699,3343.626
				c296.33,12.767,298.549,26.552,656.148,41.957c144.494-263.513,289.358-527.688,436.008-795.135
				c-7.724-0.764-11.088-1.517-14.744-1.402c-360.709,11.162-368.492,21.406-667.291,30.228
				c-13.422,0.394-20.927,6.736-30.576,24.717c-53.605,99.911-108.025,199.358-162.033,298.839
				C3848.654,3074.628,3776.783,3207.103,3702.699,3343.626z"/>
			<polygon points="4353.309,1701.428 645.176,1701.428 1585.387,983.928 6174.49,983.928 6084.48,1028.988 			"/>
		</g>
		<path fill="none" stroke="#000000" stroke-width="100" stroke-miterlimit="10" d="M4374.977,1828.149H273.387L1539.354,823.681
			c0,0,5250.033-10.833,5273.699,8.667S4374.977,1828.149,4374.977,1828.149z"/>
	</g>
</g>
<g id="Ebene_3">
	<path fill="#000000" d="M1862.418,3695.397v-708.628c0-360.956-293.903-654.117-654.857-654.117h-0.375
		c-360.951,0-654.858,293.162-654.858,654.117v249.296c0,0-0.107,5.134,3.704,8.944c3.811,3.811,8.453,3.405,8.453,3.405h203.683
		c0,0,4.031,0.193,8.338-4.114c4.308-4.309,3.792-10.007,3.792-10.007v-247.524c0-235.422,191.466-426.519,426.891-426.519h0.373
		c235.049,0,426.889,191.097,426.889,426.519v706.392H800.86v0.195H552.326v2.04c-51.405,10.8-90.146,56.62-90.146,111.376v996.817
		c0,62.956,50.662,113.615,113.611,113.615H1838.95c62.953,0,113.614-51.032,113.614-113.615v-996.817
		C1952.564,3752.018,1913.823,3706.198,1862.418,3695.397z"/>
</g>
</svg>
