<?xml version="1.0" encoding="utf-8"?>
<!-- Generator: Adobe Illustrator 16.0.3, SVG Export Plug-In . SVG Version: 6.00 Build 0)  -->
<!DOCTYPE svg PUBLIC "-//W3C//DTD SVG 1.1//EN" "http://www.w3.org/Graphics/SVG/1.1/DTD/svg11.dtd">
<svg version="1.1" xmlns="http://www.w3.org/2000/svg" xmlns:xlink="http://www.w3.org/1999/xlink" x="0px" y="0px"
	 width="7086.609px" height="7086.609px" viewBox="0 0 7086.609 7086.609" enable-background="new 0 0 7086.609 7086.609"
	 xml:space="preserve">
<g id="Ebene_5">
	<g>
		<path fill="#000000" display="none" fill-rule="evenodd" clip-rule="evenodd" d="M3304.268,5331.896c-12.035-3.043-20.625-5.215-29.197-7.381
			c-298.439-75.447-251.248-143.557-500.107-207.434c-16.814-4.314-26.653,1.598-40.882,28.428
			c-70.518,132.945-142.447,265.607-214.632,398.922c-71.262,131.615-163.812,179.535-230.919,121.037
			c-28.076-24.477-55.093-49.92-65.438-101.113c-16.29-80.631,4.142-165.014,50.829-252.271
			c231.644-432.953,1523.556-2844.369,1938.138-3618.374c63.717-118.954,134.533-191.842,216.678-204.721
			c103.006-16.16,247.332-83.42,229.18,44.594c-6.289,44.354-87.871,195.232-112.709,240.053
			c-49.01,88.453-98.566,176.598-150.635,269.771c11.201-0.968,19.568-1.692,27.955-2.417
			c301.857-26.088,312.371-54.809,674.756-85.062c24.836-2.071,37.732-11.969,54.004-41.574
			c81.498-148.333,373.377-664.933,456.951-812.621c10.49-18.539,34.352-52.693,34.352-52.693l531.9-65.112
			c0,0-94.734,170.42-134.76,243.988c-276.08,507.419-2180.465,3956.967-2676.699,4868.113
			c-55.833,102.527-121.122,172.859-203.758,169.803c-78.266-2.902-138.099-47.424-177.205-126.443
			c-37.604-75.994,85.363-368.156,142.136-475.525c49.689-93.982,101.447-186.475,152.309-279.801
			C3284.924,5368.627,3293.063,5352.99,3304.268,5331.896z M3418.004,3876.58c-133.114,249.449-265.593,497.709-399.044,747.797
			c8.396,2.551,14.025,4.855,20.065,6.008c260.063,49.674,225.027,103.279,537.004,163.686c18.597,3.598,28.621-4.293,41.879-29.148
			c98.211-184.121,197.291-367.445,295.959-550.779c42.865-79.645,85.74-159.365,129.959-241.553
			C3696.168,3937.215,3703.908,3905.672,3418.004,3876.58z M3702.699,3343.625c296.33,12.767,298.549,26.552,656.148,41.958
			c144.494-263.513,289.359-527.689,436.008-795.135c-7.723-0.764-11.088-1.517-14.744-1.403
			c-360.709,11.163-368.492,21.407-667.291,30.228c-13.422,0.394-20.926,6.736-30.576,24.717
			c-53.605,99.911-108.025,199.358-162.033,298.839C3848.654,3074.627,3776.783,3207.103,3702.699,3343.625z"/>
		<g>
			<path fill="#000000" d="M5400.038,1133.928l-1074.84,417.5H1088.992l547.091-417.5H5400.038 M6174.49,983.928H1585.386l-940.211,717.5h3708.132
				l1731.173-672.44L6174.49,983.928L6174.49,983.928z"/>
		</g>
		<polygon fill="#000000" fill-rule="evenodd" clip-rule="evenodd" points="1786.305,1254.138 1460.487,1503.204 1265.305,1503.204 
			1590.31,1254.138 		"/>
		<path fill-rule="evenodd" clip-rule="evenodd" fill="none" stroke="#000000" stroke-width="100" stroke-miterlimit="10" d="
			M4374.976,1828.149H273.387L1539.354,823.681c0,0,5250.032-10.833,5273.698,8.667S4374.976,1828.149,4374.976,1828.149z"/>
	</g>
</g>
<g id="Ebene_2">
	<path fill="#000000" d="M1862.418,3695.396v-266.34c0-360.955-293.904-654.116-654.858-654.116h-0.372c-360.954,0-654.859,293.161-654.859,654.117
		v266.339c-51.407,10.8-90.146,56.62-90.146,111.377v996.817c0,62.955,50.661,113.614,113.611,113.614h1263.158
		c62.952,0,113.613-51.031,113.613-113.614v-996.817C1952.564,3752.016,1913.823,3706.196,1862.418,3695.396z M1634.446,3693.158
		H780.298v-264.102c0-235.421,191.466-426.517,426.89-426.517h0.373c235.048,0,426.889,191.096,426.889,426.518v264.101H1634.446z"
		/>
</g>
</svg>
