<?xml version="1.0" encoding="utf-8"?>
<!-- Generator: Adobe Illustrator 17.1.0, SVG Export Plug-In . SVG Version: 6.00 Build 0)  -->
<!DOCTYPE svg PUBLIC "-//W3C//DTD SVG 1.1//EN" "http://www.w3.org/Graphics/SVG/1.1/DTD/svg11.dtd">
<svg version="1.1" id="Capa_1" xmlns="http://www.w3.org/2000/svg" xmlns:xlink="http://www.w3.org/1999/xlink" x="0px" y="0px"
	 viewBox="0 0 600 600" enable-background="new 0 0 600 600" xml:space="preserve">
<g opacity="0.4">
	<path fill="#000000" d="M97.6,43.3h402.9c10.2,0,18.3-8.7,18.3-19.5s-8.2-19.5-18.3-19.5H97.6c-10.1,0-18.3,8.7-18.3,19.5
		S87.5,43.3,97.6,43.3z"/>
	<path fill="#000000" d="M518.8,62.8H79.2L6,154.1h586L518.8,62.8z M160.7,106.2l-36.6,30.3c-1.6,3.4-4.9,5.4-8.2,5.4
		c-1.4,0-2.8-0.3-4.1-1c-4.5-2.4-6.4-8.3-4.1-13.1l36.6-30.3c2.3-4.8,7.8-6.7,12.3-4.4C161.2,95.5,162.9,101.4,160.7,106.2z
		 M234,106.2l-36.6,30.3c-1.6,3.4-4.9,5.4-8.2,5.4c-1.4,0-2.8-0.3-4.1-1c-4.5-2.4-6.4-8.3-4.1-13.1l36.6-30.3
		c2.3-4.8,7.8-6.7,12.3-4.4C234.4,95.5,236.2,101.4,234,106.2z M308.2,132.1c0,5.4-4.1,9.8-9.2,9.8c-5,0-9.2-4.3-9.2-9.8v-30.3
		c0-5.4,4.1-9.8,9.2-9.8c5.1,0,9.2,4.3,9.2,9.8V132.1z M413.3,140.6c-1.4,0.8-2.9,1.2-4.4,1.2c-3.2,0-6.4-1.8-8-5.1l-40.1-30.3
		c-2.4-4.7-0.8-10.7,3.6-13.2c4.4-2.6,10-0.9,12.4,3.9l40.1,30.3C419.3,132.1,417.7,138.1,413.3,140.6z M486.2,140.8
		c-1.3,0.7-2.6,1-4.1,1c-3.4,0-6.6-2-8.2-5.4l-36.6-30.3c-2.3-4.8-0.4-10.7,4.1-13.1c4.4-2.4,10-0.5,12.3,4.4l36.6,30.3
		C492.6,132.6,490.8,138.4,486.2,140.8z"/>
	<path fill="#000000" d="M225.8,271.2c40.5,0,73.2-35,73.2-78.1c0,43.1,32.8,78.1,73.2,78.1c40.5,0,73.2-35,73.2-78.1
		c0,36.3,23.4,66.6,54.9,75.3l0,0h36.6l0,0c31.5-8.7,54.9-39,54.9-75.3v-19.5H6v19.5c0,36.3,23.4,65.4,54.9,74.1v1.2h36.6l0,0
		c31.5-8.7,54.9-39,54.9-75.3c0,36.3,23.4,66.6,54.9,75.3"/>
</g>
</svg>
