<?xml version="1.0" encoding="UTF-8" standalone="no"?>
<!-- Created with Inkscape (http://www.inkscape.org/) -->

<svg
   xmlns:dc="http://purl.org/dc/elements/1.1/"
   xmlns:cc="http://creativecommons.org/ns#"
   xmlns:rdf="http://www.w3.org/1999/02/22-rdf-syntax-ns#"
   xmlns:svg="http://www.w3.org/2000/svg"
   xmlns="http://www.w3.org/2000/svg"
   xmlns:sodipodi="http://sodipodi.sourceforge.net/DTD/sodipodi-0.dtd"
   xmlns:inkscape="http://www.inkscape.org/namespaces/inkscape"
   version="1.0"
   width="585"
   height="585"
   viewBox="0 0 468 468"
   id="svg2996"
   inkscape:version="0.48.5 r10040"
   sodipodi:docname="bag.svg">
  <sodipodi:namedview
     pagecolor="#ffffff"
     bordercolor="#666666"
     borderopacity="1"
     objecttolerance="10"
     gridtolerance="10"
     guidetolerance="10"
     inkscape:pageopacity="0"
     inkscape:pageshadow="2"
     inkscape:window-width="1920"
     inkscape:window-height="1125"
     id="namedview2989"
     showgrid="false"
     showguides="true"
     inkscape:guide-bbox="true"
     inkscape:zoom="0.80683761"
     inkscape:cx="292.5"
     inkscape:cy="224.8825"
     inkscape:window-x="-9"
     inkscape:window-y="-9"
     inkscape:window-maximized="1"
     inkscape:current-layer="svg2996" />
  <defs
     id="defs3012" />
  <metadata
     id="metadata2998">
Created by potrace 1.8, written by Peter Selinger 2001-2007
<rdf:RDF>
  <cc:Work
     rdf:about="">
    <dc:format>image/svg+xml</dc:format>
    <dc:type
       rdf:resource="http://purl.org/dc/dcmitype/StillImage" />
    <dc:title />
  </cc:Work>
</rdf:RDF>
</metadata>
  <path
     style="fill:#000000;fill-opacity:1;stroke:none"
     d="M 286 22.53125 C 282.97542 22.516199 280.18696 22.649878 277.84375 22.90625 C 263.87151 24.434966 259.0237 26.064732 251.78125 31.6875 C 246.94768 35.440121 242.72055 36.68869 228.9375 38.46875 C 219.63225 39.670448 209.46218 41.998446 206.34375 43.65625 C 189.22235 52.758167 191.79483 75.252505 213.53125 106.4375 C 230.07929 130.17874 233.025 138.89439 227.46875 147.78125 C 225.71082 150.59289 224.72475 155.72001 224.625 162.6875 C 224.42411 176.7215 220.53601 182.96334 194.75 210.53125 C 159.71454 247.98788 142.5759 272.37464 127.09375 306.9375 C 110.73472 343.45789 102.55327 378.78636 101.15625 418.71875 C 99.600256 463.1939 105.69076 487.73854 124.75 513.5625 C 142.32722 537.37846 163.33176 551.49671 186.4375 555 C 193.73234 556.10611 210.25184 557.63702 223.125 558.40625 C 256.15137 560.37946 352.24549 560.53601 373.90625 558.65625 C 397.46767 556.61155 410.15325 553.03806 428.03125 543.4375 C 453.40541 529.81156 471.87132 504.9982 477.96875 476.34375 C 486.39128 436.76261 482.16029 368.1937 468.90625 329.875 C 456.15959 293.02299 442.279 271.98791 395.5 218.5625 C 358.38792 176.17763 355.4871 169.95035 359.53125 140.75 C 361.94869 123.29501 367.81581 109.37442 379.53125 93.21875 C 399.59659 65.548478 400.47528 62.46428 391.0625 52.9375 C 382.35411 44.123671 371.47679 40.629823 352.125 40.4375 C 336.44856 40.281782 335.86316 40.122161 332.21875 35.375 C 330.15336 32.684552 326.03758 29.346683 323.09375 27.96875 C 316.76369 25.005718 299.10653 22.596472 286 22.53125 z M 290.4375 37.46875 C 298.4432 37.481442 306.92954 38.472946 310.625 40.4375 C 318.78475 44.775314 320.11614 52.790669 314.9375 66.375 C 308.8933 82.2296 308.50434 88.918533 313.375 94.375 C 318.20364 99.784459 320.5238 99.934345 325.875 95.21875 C 330.88565 90.803329 342.19083 74.406871 347.21875 64.25 C 351.56003 55.480321 355.83514 53.691054 364 57.21875 C 369.37814 59.542605 369.79438 60.213592 369.6875 66.75 C 369.48053 79.375934 347.65239 114.77935 336.25 121 C 328.28095 125.34758 308.84599 126.64972 276.9375 124.96875 C 256.14639 123.87344 250.99993 121.85099 241.34375 110.875 C 229.87371 97.837324 206.81602 62.995975 208.5625 61.34375 C 210.8824 59.149015 226.34541 55.004599 229.21875 55.8125 C 233.64717 57.057665 241.40459 66.778434 249.40625 81.1875 C 259.27836 98.964723 272.24449 105.5877 274.8125 94.125 C 275.3651 91.658652 274.65979 80.482676 273.25 69.3125 C 270.10666 44.406386 270.11788 43.810045 273.15625 40.40625 C 274.90212 38.45028 282.4318 37.456058 290.4375 37.46875 z M 299.4375 138.3125 C 309.30114 138.29157 319.18724 138.44574 328.90625 139.46875 C 332.79906 138.87711 336.62664 143.39351 331.8125 144.8125 C 311.41102 146.47487 290.69167 145.70511 270.1875 145.40625 C 266.66258 145.27508 257.8852 145.71702 260.4375 140.75 C 269.56181 137.7501 279.97086 139.03415 289.59375 138.375 C 292.86554 138.35926 296.14962 138.31948 299.4375 138.3125 z M 297.75 168.21875 C 307.04162 168.26243 316.34472 168.53548 325.59375 169.28125 C 328.83245 169.18135 337.07169 169.83207 332.9375 173.875 C 311.96053 177.2092 290.05481 176.10532 268.75 175.125 C 265.62866 175.14419 257.56356 174.54466 261.09375 170.4375 C 269.54169 167.5299 279.47475 168.91954 288.46875 168.25 C 291.56353 168.22662 294.65279 168.20419 297.75 168.21875 z M 283.4375 188.1875 C 288.77092 188.12858 294.61435 188.28212 301.09375 188.59375 C 335.1666 190.2325 340.46984 192.20435 366.65625 213.0625 C 415.8143 252.218 452.15454 315.78666 465.21875 385.5 C 468.66326 403.8805 469.10136 444.72844 466 458.9375 C 462.0077 477.22835 451.95581 497.17512 440.03125 510.53125 C 424.15629 528.3122 410.13165 534.87982 376.03125 540.4375 C 363.0126 542.55925 343.24104 543.34978 294.125 543.75 C 208.72233 544.4459 193.32751 542.80334 169.90625 530.40625 C 141.37736 515.30566 125.78138 493.4106 117.5625 457 C 111.33938 429.43081 115.14909 395.68461 130.03125 346.6875 C 147.45385 289.32653 174.19175 247.84105 214.59375 215.46875 C 240.20165 194.95024 254.63704 188.50568 283.4375 188.1875 z "
     transform="scale(0.8,0.8)"
     id="path3232" />
  <path
     style="fill:#000000;fill-opacity:1;stroke:none;stroke-width:5.76247214999999980;stroke-linejoin:round;stroke-miterlimit:4;stroke-opacity:1;stroke-dasharray:none"
     d="m 277.82807,415.43407 c 24.09801,-3.0584 43.42004,-14.42737 51.96552,-31.29305 5.03528,-9.93782 13.78244,-32.33896 16.00135,-46.68486 2.03555,-6.505 3.44241,-10.79098 3.62242,-10.90151 0.96106,-0.59031 0.76164,15.75117 1.29988,24.97717 0.77758,13.32866 -1.6698,31.26172 -5.47804,38.17955 -3.80542,6.91282 -12.90017,14.1794 -21.13734,18.94258 -11.35954,6.56869 -21.17773,8.53543 -40.73498,8.15984 -10.40047,-0.19974 -11.8977,-0.57271 -5.53881,-1.37972 z"
     id="path3027"
     inkscape:connector-curvature="0"
     sodipodi:nodetypes="ssccsssss" />
  <path
     inkscape:connector-curvature="0"
     id="path3042"
     d="m 252.58806,376.40142 c -1.47779,-2.20366 -16.14931,-26.9305 -16.14931,-27.21745 0,-0.43759 16.22764,-27.64192 16.48867,-27.64192 0.10258,0 0.18663,2.32486 0.18663,5.16634 0,4.15952 0.0666,5.22165 0.34197,5.45014 0.25734,0.21358 4.90695,0.2616 18.78993,0.19403 20.50338,-0.0998 19.85372,-0.051 23.6218,-1.77733 0.98473,-0.45117 1.82836,-0.78236 1.87473,-0.73599 0.0463,0.0463 -4.1564,7.46959 -9.33947,16.49604 -10.31743,17.968 -10.40766,18.09909 -13.23303,19.22584 -1.35607,0.5408 -1.66552,0.55893 -11.66407,0.68324 l -10.27102,0.12771 -0.12088,5.31676 c -0.11533,5.07418 -0.13931,5.2892 -0.52599,4.71259 z M 195.47547,366.0184 c -5.98846,-0.69621 -11.41074,-5.15214 -13.3284,-10.95304 -0.548,-1.65771 -0.65849,-2.42377 -0.6697,-4.6436 -0.0143,-2.82641 0.34865,-4.6603 1.46698,-7.41255 0.57022,-1.40334 4.76175,-9.06039 5.69972,-10.41222 l 0.46218,-0.6661 18.28906,0.0619 18.28906,0.062 0,17.03783 0,17.03782 -14.37943,0.0283 c -7.90869,0.0155 -15.03195,-0.0476 -15.82947,-0.14029 z m -28.37718,-32.78463 c -5.23976,-9.01454 -9.66413,-16.82829 -9.83194,-17.36388 -0.16781,-0.53558 -0.32488,-0.81067 -0.34906,-0.61129 -0.0242,0.19938 -0.13395,-0.0725 -0.24394,-0.60418 -0.1959,-0.94696 -0.013,-3.70052 0.20299,-3.056 0.0603,0.18006 0.28987,-0.20058 0.51004,-0.84585 0.22019,-0.64528 2.54922,-4.93378 5.17565,-9.52999 2.66612,-4.6657 4.7154,-8.50844 4.63969,-8.70017 -0.0746,-0.18888 -2.0874,-1.43093 -4.47292,-2.76012 -2.38552,-1.3292 -4.34014,-2.4816 -4.34359,-2.5609 -0.008,-0.17683 8.08054,-0.40463 21.88571,-0.61637 l 10.41261,-0.15972 7.80777,14.05981 c 4.29427,7.73289 7.7478,14.11979 7.67447,14.1931 -0.0733,0.0733 -2.16068,-1.03541 -4.6386,-2.46384 -4.428,-2.55258 -4.51301,-2.58918 -4.95403,-2.13275 -0.68451,0.70838 -17.14539,29.23994 -17.92185,31.06383 -0.88983,2.09015 -1.61068,4.76162 -1.84113,6.82317 l -0.18504,1.65525 -9.52683,-16.3901 z m 109.54783,-5.68503 c -0.11596,-0.1794 -4.24754,-7.28658 -9.18133,-15.79376 -6.66239,-11.48772 -8.90096,-15.53887 -8.70016,-15.74471 0.40379,-0.41391 28.6785,-16.519 29.00139,-16.519 0.15284,0 3.44411,5.46478 7.31394,12.14397 8.0612,13.9134 7.73507,13.31445 8.4226,15.46816 0.28663,0.89788 0.581,1.57265 0.65415,1.4995 0.0732,-0.0732 0.21019,0.58788 0.30455,1.46895 0.18568,1.734 -0.0411,4.5346 -0.35177,4.34264 -0.10536,-0.0651 -0.26666,0.28853 -0.35853,0.78581 -0.25693,1.3906 -1.85934,4.60174 -3.13888,6.29013 -2.12204,2.8001 -4.9743,4.6881 -8.55428,5.66236 -1.60077,0.43564 -2.73799,0.51734 -8.52405,0.61241 -5.43034,0.0892 -6.7162,0.0488 -6.88763,-0.21646 z m -80.3248,-50.62762 c -7.90869,-4.59325 -14.50574,-8.47688 -14.66012,-8.63029 -0.21279,-0.21147 1.51548,-3.37765 7.14389,-13.08753 7.01515,-12.10224 7.53108,-12.91792 9.35588,-14.79153 2.09028,-2.14616 4.09765,-3.31262 6.9717,-4.05119 1.86478,-0.47919 6.05376,-0.47603 8.10564,0.006 3.38875,0.79631 6.65841,3.01057 9.02684,6.11311 1.77136,2.32037 6.75309,10.85385 6.62417,11.34686 -0.11672,0.4463 -17.28727,30.2534 -17.87737,31.03408 -0.28173,0.37272 -1.67243,-0.3789 -14.69063,-7.93966 z m 51.72102,0.85048 c -6.17888,-0.10536 -11.55909,-0.22376 -11.956,-0.26306 -0.6188,-0.0613 -0.0853,-0.43321 3.74251,-2.60903 3.93537,-2.23695 4.46359,-2.60911 4.45897,-3.14172 -0.005,-0.59753 -15.29117,-27.46735 -17.52927,-30.81309 -1.86278,-2.78468 -5.9011,-6.39728 -7.16311,-6.40799 -0.23991,-0.003 -0.59932,-0.10915 -0.7987,-0.23796 -0.43538,-0.28137 37.35998,-0.29109 39.39241,-0.0101 0.73105,0.10107 1.16607,0.20261 0.96668,0.22566 -0.19938,0.0231 0.20302,0.23734 0.89423,0.47616 1.74621,0.60338 3.10109,1.6038 3.95341,2.91916 0.39854,0.61504 2.76169,4.58344 5.25144,8.81865 2.48974,4.23521 4.69666,7.80752 4.90426,7.93847 0.28906,0.18234 1.36379,-0.34385 4.58936,-2.24694 2.31655,-1.36678 4.31197,-2.54091 4.43425,-2.6092 0.42792,-0.23899 -0.1797,0.89525 -7.77642,14.51582 l -7.64929,13.71484 -4.2402,-0.039 c -2.33211,-0.0214 -9.29565,-0.1253 -15.47453,-0.23062 z"
     style="fill:#000000" />
  <path
     style="fill:#800000;fill-opacity:1;stroke:none"
     d=""
     id="path2994"
     inkscape:connector-curvature="0"
     transform="scale(0.8,0.8)" />
  <path
     style="fill:#800000;fill-opacity:1;stroke:none"
     d=""
     id="path2996"
     inkscape:connector-curvature="0"
     transform="scale(0.8,0.8)" />
  <path
     style="fill:#800000;fill-opacity:1;stroke:none"
     d=""
     id="path2998"
     inkscape:connector-curvature="0"
     transform="scale(0.8,0.8)" />
  <path
     style="fill:#ff0000;fill-opacity:1;stroke:none"
     d=""
     id="path3000"
     inkscape:connector-curvature="0"
     transform="scale(0.8,0.8)" />
</svg>
