<?xml version="1.0" encoding="UTF-8" standalone="no"?>
<svg
   xmlns:dc="http://purl.org/dc/elements/1.1/"
   xmlns:cc="http://creativecommons.org/ns#"
   xmlns:rdf="http://www.w3.org/1999/02/22-rdf-syntax-ns#"
   xmlns:svg="http://www.w3.org/2000/svg"
   xmlns="http://www.w3.org/2000/svg"
   id="svg8"
   version="1.1"
   viewBox="0 0 155.575 155.575"
   height="588"
   width="588">
  <defs
     id="defs2" />
  <metadata
     id="metadata5">
    <rdf:RDF>
      <cc:Work
         rdf:about="">
        <dc:format>image/svg+xml</dc:format>
        <dc:type
           rdf:resource="http://purl.org/dc/dcmitype/StillImage" />
        <dc:title></dc:title>
      </cc:Work>
    </rdf:RDF>
  </metadata>
  <g
     transform="translate(0,-141.42498)"
     id="layer1">
    <g
       transform="translate(1.9546657,141.82503)"
       id="22aa5019-b517-444c-b4e2-e6b5a3501f5c">
      <path
         style="fill:none;stroke:#000000;stroke-width:0.28;stroke-linecap:round;stroke-linejoin:round;stroke-opacity:1"
         d="M 70.685163,29.423967 V 11.837228 H 47.17981 v 17.586739 h 23.505353"
         id="path1329" />
      <path
         style="fill:none;stroke:#000000;stroke-width:0.28;stroke-linecap:round;stroke-linejoin:round;stroke-opacity:1"
         d="M 106.02774,29.423967 V 11.837228 H 82.522391 v 17.586739 h 23.505349"
         id="path1331" />
      <path
         style="fill:none;stroke:#000000;stroke-width:0.28;stroke-linecap:round;stroke-linejoin:round;stroke-opacity:1"
         d="M 35.342582,0 V 76.603777 H 47.17981 V 41.261196 H 70.685163 V 76.603777 H 82.522391 V 41.261196 h 23.505349 v 35.342581 h 11.83723 V 0 H 35.342582"
         id="path1333" />
    </g>
    <path
       transform="matrix(0.26458333,0,0,0.26458333,0,141.42498)"
       id="path1356"
       d="M 141.76784,146.33255 V 2.0827696 H 296.97777 452.18771 V 146.33255 290.58234 H 430.62096 409.0542 v -66.8216 -66.82159 h -45.25483 -45.25484 v 66.82159 66.8216 h -21.56676 -21.56675 v -66.8216 -66.82159 h -45.25484 -45.25483 v 66.82159 66.8216 H 163.33459 141.76784 Z M 275.05746,79.510962 V 45.569836 H 230.15618 185.2549 l -0.18421,33.234019 c -0.10132,18.27871 -0.0308,33.634145 0.15661,34.123185 0.2698,0.70385 9.66581,0.85122 45.08549,0.70711 l 44.74467,-0.18206 z m 133.11986,33.707458 c 0.70026,-0.44455 0.85156,-7.74274 0.70711,-34.107072 l -0.18378,-33.541512 h -44.90128 -44.90129 l -0.18421,33.234019 c -0.10132,18.27871 -0.0317,33.631765 0.15459,34.117905 0.26608,0.69418 9.79076,0.88155 44.37839,0.87305 24.22177,-0.006 44.44048,-0.26533 44.93047,-0.57639 z"
       style="fill:#000000;fill-opacity:1;stroke-width:0.70710677" />
    <path
       transform="matrix(0.26458333,0,0,0.26458333,0,141.42498)"
       id="path1358"
       d="M 41.420288,577.24851 C 33.035433,573.05374 30.910875,568.46446 30.335545,553.3042 29.647475,535.17316 27.427468,524.4767 20.780351,507.26525 15.24397,492.92984 12.179367,482.53739 10.120312,471.11573 8.7350827,463.43181 8.4884336,459.69295 8.4963903,446.49938 c 0.014191,-23.53064 2.5170377,-36.61453 12.5798037,-65.76222 6.135467,-17.77192 7.997658,-25.1053 8.684085,-34.19826 l 0.484553,-6.41877 -4.165797,-4.45339 C 20.939038,330.17189 17.228075,324.64629 14.031996,317.7288 9.8165999,308.60513 8.7097522,303.05816 8.3091775,289.04891 7.9816457,277.59417 8.0815707,276.12855 9.5109114,271.42275 c 8.3626856,-27.53232 42.8411476,-32.8956 58.6651646,-9.12562 3.601774,5.41039 5.005058,10.4994 4.989464,18.09431 -0.01143,5.56834 -0.300715,7.00054 -2.485449,12.30513 -2.025342,4.91758 -3.313512,6.85081 -7.122604,10.68932 l -4.650091,4.686 2.009017,1.41593 c 1.10496,0.77877 3.351532,2.09534 4.992383,2.92572 l 2.983364,1.50978 228.27752,-0.18001 228.27751,-0.18 4.73601,-2.40389 c 2.6048,-1.32214 4.73601,-2.60413 4.73601,-2.84886 0,-0.24473 -2.04127,-2.46809 -4.53616,-4.94079 -3.19892,-3.1705 -5.22517,-5.97855 -6.87344,-9.52552 -2.08706,-4.49119 -2.36663,-5.83726 -2.61114,-12.57268 -0.31457,-8.66471 0.65842,-12.64572 4.60839,-18.85534 7.03791,-11.06408 21.18346,-17.19504 33.63145,-14.57652 11.11373,2.33784 19.67464,9.53565 23.92458,20.11521 l 2.41445,6.01041 -0.16567,14.34934 c -0.18982,16.44161 -0.91022,19.97058 -6.28381,30.78186 -3.79472,7.63472 -6.20841,11.19611 -11.35711,16.75731 l -3.96942,4.28746 0.43692,6.65154 c 0.56512,8.60316 2.75942,17.10485 9.30519,36.05239 9.51971,27.556 11.67499,39.32983 11.67809,63.79503 0.003,24.70929 -0.98614,29.63764 -12.37867,61.66771 -6.87237,19.32171 -8.37867,26.55072 -9.14819,43.90387 -0.25633,5.78054 -0.90512,11.64107 -1.48731,13.43503 -1.46762,4.52229 -6.06835,9.56933 -10.986,12.05177 l -4.14101,2.09037 H 296.73939 46.498431 Z M 189.73079,513.65125 c 0.12828,-0.11413 -0.62539,-10.01972 -1.67481,-22.01243 -2.22833,-25.46497 -2.16585,-32.03362 0.76218,-80.14123 1.00601,-16.52862 1.88861,-35.4614 1.96135,-42.07285 l 0.13225,-12.02081 -17.86732,-0.18895 -17.86733,-0.18895 -0.59819,1.60316 c -0.329,0.88174 -1.13564,5.42154 -1.79253,10.08844 -0.65688,4.66691 -2.94738,18.34943 -5.08999,30.4056 -5.50939,31.0006 -7.34415,44.86849 -7.33547,55.44461 0.006,8.00551 0.40097,10.82497 3.91599,27.99399 2.14978,10.50053 4.4221,21.63746 5.04958,24.74873 0.6275,3.11127 1.47555,6.08558 1.88458,6.60958 0.60837,0.77938 4.15909,0.86047 19.51507,0.44567 10.32427,-0.27888 18.87635,-0.60043 19.00464,-0.71456 z m 85.32667,-77.75847 v -78.48885 l -19.39847,-0.18838 c -10.66917,-0.10361 -19.66727,0.0804 -19.99577,0.40891 -0.32851,0.32851 -1.06522,9.80012 -1.63715,21.04802 -0.57192,11.24791 -1.67662,30.20732 -2.45487,42.13202 -1.97644,30.28353 -1.87992,51.99543 0.33242,74.7838 1.18368,12.19251 2.03646,18.16307 2.65052,18.55694 0.49794,0.3194 9.81489,0.50325 20.70433,0.40856 l 19.79899,-0.17217 z m 173.39474,75.30687 c 1.81575,-6.26404 4.41675,-22.88162 4.85053,-30.98961 0.54924,-10.26619 -0.97582,-23.24025 -6.37296,-54.21676 -6.0041,-34.4601 -7.05238,-41.94418 -8.7158,-62.22539 l -0.52195,-6.36396 -17.2759,-0.18964 c -9.50174,-0.10431 -17.53285,0.0673 -17.84691,0.38137 -0.63663,0.63663 -0.12426,11.1316 2.71786,55.6697 2.35272,36.86897 2.4006,58.2199 0.186,82.94795 -1.16069,12.96022 -1.2931,16.7002 -0.61996,17.51128 0.72133,0.86915 4.14431,1.00191 21.76634,0.84419 l 20.91039,-0.18715 z m 77.62939,-0.53033 c 0.63922,-2.23623 1.65666,-5.79723 2.26096,-7.91335 0.60431,-2.11611 3.2812,-9.36178 5.94865,-16.10149 6.90348,-17.44267 8.0536,-23.27286 7.99111,-40.50865 -0.066,-18.19646 -1.15446,-23.86707 -9.63688,-50.20458 -3.695,-11.47281 -7.43218,-24.35983 -8.30485,-28.63783 -0.87267,-4.278 -1.82732,-8.25547 -2.12145,-8.83883 -0.81035,-1.60723 -39.00447,-1.95426 -40.3223,-0.36637 -1.55621,1.87512 1.44367,25.48915 7.77189,61.17755 7.83304,44.17496 8.71441,62.25761 4.22537,86.69089 -0.77071,4.1949 -1.40129,7.71559 -1.40129,7.82373 0,0.17811 4.2114,0.30823 25.58244,0.79038 l 6.84412,0.15441 z m -420.3762,2.09697 c 0,-0.69398 -1.11226,-6.30195 -2.47168,-12.46217 -4.426414,-20.05827 -5.570315,-29.45195 -5.604801,-46.02657 -0.03493,-16.79389 0.887914,-25.47056 5.339791,-50.20458 5.00597,-27.81252 7.62493,-45.9062 6.72888,-46.48805 -0.44562,-0.28937 -9.04887,-0.44846 -19.118334,-0.35356 -15.431504,0.14546 -18.396334,0.33922 -18.8695,1.23323 -0.308754,0.58336 -1.398453,5.03813 -2.421552,9.89949 -1.0231,4.86136 -4.6813,17.43018 -8.129333,27.93072 -8.822032,26.86634 -10.384914,35.91745 -9.584713,55.50788 0.562641,13.77453 1.143921,16.23118 8.700233,36.76955 2.933225,7.97263 6.094044,16.96173 7.024043,19.97577 l 1.690906,5.48008 h 18.358027 c 17.147373,0 18.358033,-0.0832 18.358033,-1.26179 z m 254.5603,1.08501 c 7.1e-4,-0.0972 0.79427,-9.08632 1.76277,-19.97577 1.11149,-12.49731 1.76382,-24.75369 1.76883,-33.23401 0.006,-11.29915 -2.92021,-70.12217 -4.76739,-95.81297 l -0.53384,-7.42462 h -19.79899 -19.79899 l -0.17986,78.31207 -0.17986,78.31208 h 20.86273 c 11.47451,0 20.86358,-0.0796 20.8646,-0.17678 z"
       style="fill:#000000;fill-opacity:1;stroke-width:0.70710677" />
    <rect
       ry="0.033072915"
       y="150.9305"
       x="46.585079"
       height="2.6660137"
       width="27.268171"
       id="rect1360"
       style="fill:#000000;fill-opacity:1;stroke-width:0.26458332" />
    <rect
       ry="0.033072915"
       y="142.60506"
       x="37.417732"
       height="20.345894"
       width="1.3096207"
       id="rect1362"
       style="fill:#000000;fill-opacity:1;stroke-width:0.26458332" />
    <rect
       ry="0.033072915"
       y="162.43646"
       x="37.370964"
       height="19.597538"
       width="3.3208239"
       id="rect1364"
       style="fill:#000000;fill-opacity:1;stroke-width:0.26458332" />
    <rect
       ry="0.033072915"
       y="180.20988"
       x="37.417732"
       height="24.415071"
       width="5.7529764"
       id="rect1366"
       style="fill:#000000;fill-opacity:1;stroke-width:0.26458332" />
    <rect
       ry="0.033072915"
       y="203.54919"
       x="37.297245"
       height="14.879617"
       width="7.3233995"
       id="rect1368"
       style="fill:#000000;fill-opacity:1;stroke-width:0.26458332" />
    <rect
       ry="0.033072915"
       y="202.28635"
       x="46.912483"
       height="16.142466"
       width="2.221992"
       id="rect1370"
       style="fill:#000000;fill-opacity:1;stroke-width:0.26458332" />
    <rect
       ry="0.033072915"
       y="181.75336"
       x="46.444763"
       height="20.532986"
       width="2.6897137"
       id="rect1372"
       style="fill:#000000;fill-opacity:1;stroke-width:0.26458332" />
    <rect
       ry="0.033072915"
       y="181.19209"
       x="47.473747"
       height="1.8708867"
       width="26.613361"
       id="rect1374"
       style="fill:#000000;fill-opacity:1;stroke-width:0.26458332" />
    <rect
       ry="0.033072915"
       y="171.24899"
       x="49.134476"
       height="2.2724617"
       width="24.625231"
       id="rect1376"
       style="fill:#000000;fill-opacity:1;stroke-width:0.26458332" />
    <rect
       ry="0.033072915"
       y="153.59651"
       x="46.585079"
       height="19.924942"
       width="2.5493965"
       id="rect1378"
       style="fill:#000000;fill-opacity:1;stroke-width:0.26458332" />
    <rect
       ry="0.033072915"
       y="141.82503"
       x="37.297245"
       height="1.2009757"
       width="48.763538"
       id="rect1380"
       style="fill:#000000;fill-opacity:1;stroke-width:0.26458332" />
    <rect
       ry="0.033072915"
       y="141.76315"
       x="87.230095"
       height="10.617282"
       width="32.553429"
       id="rect1382"
       style="fill:#000000;fill-opacity:1;stroke-width:0.26458332" />
    <rect
       ry="0.033072915"
       y="151.02405"
       x="82.88028"
       height="2.7595577"
       width="27.221399"
       id="rect1384"
       style="fill:#000000;fill-opacity:1;stroke-width:0.26458332" />
    <rect
       ry="0.033072915"
       y="141.76315"
       x="84.891479"
       height="1.2160764"
       width="3.4143682"
       id="rect1386"
       style="fill:#000000;fill-opacity:1;stroke-width:0.26458332" />
    <rect
       ry="0.033072915"
       y="153.7836"
       x="82.88028"
       height="17.465397"
       width="1.5967771"
       id="rect1388"
       style="fill:#000000;fill-opacity:1;stroke-width:0.26458332" />
    <rect
       ry="0.033072915"
       y="153.48199"
       x="108.13538"
       height="0.3016009"
       width="1.966298"
       id="rect1390"
       style="fill:#000000;fill-opacity:1;stroke-width:0.26458332" />
    <rect
       ry="0.033072915"
       y="153.48199"
       x="108.13538"
       height="0.30160522"
       width="1.9662932"
       id="rect1392"
       style="fill:#000000;fill-opacity:1;stroke-width:0.26458332" />
    <rect
       ry="0.033072915"
       y="153.48199"
       x="108.13538"
       height="18.262121"
       width="1.2647153"
       id="rect1394"
       style="fill:#000000;fill-opacity:1;stroke-width:0.26458332" />
    <rect
       ry="0.033072915"
       y="171.24899"
       x="84.477051"
       height="1.6644236"
       width="24.502094"
       id="rect1396"
       style="fill:#000000;fill-opacity:1;stroke-width:0.26458332" />
    <rect
       ry="0.033072915"
       y="153.66226"
       x="107.9824"
       height="14.620718"
       width="2.4934533"
       id="rect1398"
       style="fill:#000000;fill-opacity:1;stroke-width:0.26458332" />
    <rect
       ry="0.033072915"
       y="165.57019"
       x="107.95016"
       height="6.1739197"
       width="1.4499389"
       id="rect1400"
       style="fill:#000000;fill-opacity:1;stroke-width:0.26458332" />
    <rect
       ry="0.033072915"
       y="151.53854"
       x="117.49168"
       height="25.210197"
       width="2.291836"
       id="rect1402"
       style="fill:#000000;fill-opacity:1;stroke-width:0.26458332" />
    <rect
       ry="0.033072915"
       y="175.2988"
       x="116.04175"
       height="20.29912"
       width="3.6950011"
       id="rect1404"
       style="fill:#000000;fill-opacity:1;stroke-width:0.26458332" />
    <rect
       ry="0.033072915"
       y="195.08344"
       x="115.15307"
       height="19.036272"
       width="4.5369"
       id="rect1406"
       style="fill:#000000;fill-opacity:1;stroke-width:0.26458332" />
    <rect
       ry="0.033072915"
       y="212.66975"
       x="114.68535"
       height="5.7590442"
       width="5.1342816"
       id="rect1408"
       style="fill:#000000;fill-opacity:1;stroke-width:0.26458332" />
    <rect
       ry="0.033072915"
       y="182.64203"
       x="107.99693"
       height="23.994122"
       width="1.8241144"
       id="rect1410"
       style="fill:#000000;fill-opacity:1;stroke-width:0.26458332" />
    <rect
       ry="0.033072915"
       y="205.46684"
       x="107.9824"
       height="12.961958"
       width="2.774086"
       id="rect1412"
       style="fill:#000000;fill-opacity:1;stroke-width:0.26458332" />
    <rect
       ry="0.033072915"
       y="183.06297"
       x="72.543633"
       height="16.22995"
       width="1.5434811"
       id="rect1414"
       style="fill:#000000;fill-opacity:1;stroke-width:0.26458332" />
    <rect
       ry="0.033072915"
       y="181.80013"
       x="82.225471"
       height="17.586336"
       width="2.3386083"
       id="rect1416"
       style="fill:#000000;fill-opacity:1;stroke-width:0.26458332" />
    <rect
       ry="0.033072915"
       y="181.80013"
       x="82.225471"
       height="1.1483377"
       width="26.00345"
       id="rect1418"
       style="fill:#000000;fill-opacity:1;stroke-width:0.26458332" />
    <rect
       ry="0.033072915"
       y="181.84691"
       x="83.441544"
       height="1.1015584"
       width="24.787376"
       id="rect1420"
       style="fill:#000000;fill-opacity:1;stroke-width:0.26458332" />
    <rect
       ry="0.033072915"
       y="198.4978"
       x="82.599648"
       height="19.931011"
       width="1.8774095"
       id="rect1422"
       style="fill:#000000;fill-opacity:1;stroke-width:0.26458332" />
    <rect
       ry="0.033072915"
       y="198.35748"
       x="72.639824"
       height="20.071327"
       width="1.7279171"
       id="rect1424"
       style="fill:#000000;fill-opacity:1;stroke-width:0.26458332" />
  </g>
</svg>
