<svg
   x="0px"
   y="0px"
   width="361px"
   height="361px"
   viewBox="0 0 361 361"
   style="enable-background:new 0 0 361 361;"
   fill="#000000" >
   <g
     transform="matrix(1.6008149,0,0,1.6008149,-109.98896,-107.6324)" >
    <path
       d="m 134.65625,89.15625 c -6.01649,0 -11,4.983509 -11,11 l 0,180 c 0,6.01649 4.98351,11 11,11 l 95.5,0 c 6.01631,0 11,-4.9825 11,-11 l 0,-180 c 0,-6.016491 -4.98351,-11 -11,-11 l -95.5,0 z m 0,10 95.5,0 c 0.60951,0 1,0.390491 1,1 l 0,180 c 0,0.6085 -0.39231,1 -1,1 l -95.5,0 c -0.60951,0 -1,-0.39049 -1,-1 l 0,-180 c 0,-0.609509 0.39049,-1 1,-1 z" />
    <path
       d="m 169.625,69.65625 c -6.01649,0 -11,4.983509 -11,11 v 14 c 24.19135,-0.199419 24.19216,0 47.5,0 v -14 c 0,-6.016491 -4.98351,-11 -11,-11 z" />
    </g>
    <path
     d="m 257.53504,338.34328  -150.95214,0.27841 0.35488, -28.5 150.39386,-0.26189 z" />
</svg>
