<?xml version="1.0" encoding="UTF-8" standalone="no"?>
<!-- Created with Inkscape (http://www.inkscape.org/) -->

<svg
   xmlns:dc="http://purl.org/dc/elements/1.1/"
   xmlns:cc="http://creativecommons.org/ns#"
   xmlns:rdf="http://www.w3.org/1999/02/22-rdf-syntax-ns#"
   xmlns:svg="http://www.w3.org/2000/svg"
   xmlns="http://www.w3.org/2000/svg"
   version="1.0"
   width="469pt"
   height="469pt"
   viewBox="0 0 469 469"
   id="svg2">
  <defs
     id="defs12" />
  <g
     transform="matrix(0.255738,0,0,-0.255738,0,469)"
     id="g6"
     style="fill:#000000;stroke:none" />
  <g
     id="text2989"
     style="fill:#000000;stroke:none" />
  <path
     d="m 219.4375,9 c 0.14299,64.343654 -0.26089,128.68836 0.1875,193.03125 -32.55444,-27.37179 -66.82306,-56.20765 -99.4125,-83.5375 -8.00815,6.75555 -14.34701,15.16823 -22.24375,22.0375 38.28448,30.5124 75.28012,62.58928 113.03125,93.75 -37.91671,31.58956 -75.81253,63.20416 -113.6875,94.84375 8.32753,6.44426 15.01951,14.4757 23.30625,21.0375 31.76963,-27.89044 66.40312,-56.11965 98.81875,-83.38125 0,65.44792 0,130.89583 0,196.34375 51.75799,-43.80495 103.53884,-87.58289 155.28125,-131.40625 -38.7471,-32.45537 -77.53404,-64.8633 -116.3125,-97.28125 38.14541,-33.071 77.12169,-65.70667 116.03125,-98.15625 -51.26596,-44.318438 -103.49637,-87.532676 -155,-131.59375 0,1.4375 0,2.875 0,4.3125 z m 48.03125,76.53125 c 20.19034,17.01176 40.33132,34.08193 60.46875,51.15625 -25.26383,21.03344 -50.49972,42.10036 -75.71875,63.1875 0,-42.40625 0,-84.8125 0,-127.21875 5.08333,4.291667 10.16667,8.583333 15.25,12.875 z m 21.59375,214.0625 c 12.79167,10.70833 25.58333,21.41667 38.375,32.125 -25.07292,21.19792 -50.14583,42.39583 -75.21875,63.59375 0,-42.19792 0,-84.39583 0,-126.59375 12.28125,10.29167 24.5625,20.58333 36.84375,30.875 z"
     id="path2988"
     style="font-size:medium;font-style:normal;font-variant:normal;font-weight:normal;font-stretch:normal;text-indent:0;text-align:start;text-decoration:none;line-height:normal;letter-spacing:normal;word-spacing:normal;text-transform:none;direction:ltr;block-progression:tb;writing-mode:lr-tb;text-anchor:start;baseline-shift:baseline;color:#000000;fill:#000000;fill-opacity:1;stroke:none;stroke-width:0.80000001;marker:none;visibility:visible;display:inline;overflow:visible;enable-background:accumulate;font-family:Sans;-inkscape-font-specification:Sans" />
</svg>
