<?xml version="1.0" encoding="UTF-8" standalone="no"?>
<svg
   xmlns:dc="http://purl.org/dc/elements/1.1/"
   xmlns:cc="http://creativecommons.org/ns#"
   xmlns:rdf="http://www.w3.org/1999/02/22-rdf-syntax-ns#"
   xmlns:svg="http://www.w3.org/2000/svg"
   xmlns="http://www.w3.org/2000/svg"
   height="585"
   width="585"
   xml:space="preserve"
   viewBox="0 0 584.99999 584.99999"
   y="0px"
   x="0px"
   id="Capa_1"
   version="1.1"><metadata
   id="metadata4652"><rdf:RDF><cc:Work
       rdf:about=""><dc:format>image/svg+xml</dc:format><dc:type
         rdf:resource="http://purl.org/dc/dcmitype/StillImage" /><dc:title></dc:title></cc:Work></rdf:RDF></metadata><defs
   id="defs4650" />

<g
   transform="translate(0,528.502)"
   id="g4617">
</g>
<g
   transform="translate(0,528.502)"
   id="g4619">
</g>
<g
   transform="translate(0,528.502)"
   id="g4621">
</g>
<g
   transform="translate(0,528.502)"
   id="g4623">
</g>
<g
   transform="translate(0,528.502)"
   id="g4625">
</g>
<g
   transform="translate(0,528.502)"
   id="g4627">
</g>
<g
   transform="translate(0,528.502)"
   id="g4629">
</g>
<g
   transform="translate(0,528.502)"
   id="g4631">
</g>
<g
   transform="translate(0,528.502)"
   id="g4633">
</g>
<g
   transform="translate(0,528.502)"
   id="g4635">
</g>
<g
   transform="translate(0,528.502)"
   id="g4637">
</g>
<g
   transform="translate(0,528.502)"
   id="g4639">
</g>
<g
   transform="translate(0,528.502)"
   id="g4641">
</g>
<g
   transform="translate(0,528.502)"
   id="g4643">
</g>
<g
   transform="translate(0,528.502)"
   id="g4645">
</g>
<path
   id="path5229"
   d="m 189.83654,563.16686 c -0.65123,-0.55651 -1.02408,-1.01803 -0.82856,-1.0256 0.19551,-0.008 0.52317,0.15393 0.72812,0.35888 0.27115,0.27115 0.42456,0.20199 0.56324,-0.25392 0.19442,-0.63915 2.01818,-18.46387 2.45427,-23.98722 0.13232,-1.67588 0.31097,-2.83802 0.39699,-2.58255 0.20347,0.60425 -1.60379,27.11015 -1.9023,27.89985 -0.20442,0.5408 -0.34879,0.49893 -1.41176,-0.40944 z"
   style="fill:#000000;fill-opacity:1;stroke-width:0.33856034" /><g
   transform="matrix(0.44979994,0,0,0.44979994,5.0349209,30.685404)"
   id="g5283"><g
     style="fill:#000000;stroke:none"
     id="g3745"
     transform="matrix(0.1,0,0,-0.1,0,1134)"><path
       id="path3741"
       d="M 9940,11334 C 8986,11266 7788,10983 6125,10433 4641,9942 2660,9173 965,8428 828,8367 684,8307 645,8293 428,8215 262,8059 150,7826 93,7708 58,7592 27,7425 L 5,7305 V 4771 2238 L 1795,1154 C 2779,558 3600,54 3620,35 3656,0 3656,0 3748,0 c 83,0 92,2 92,19 0,13 15,25 47,39 42,18 812,337 3223,1338 377,156 1810,751 3185,1322 l 2500,1038 3,2424 c 3,2511 3,2554 -38,2774 -164,893 -710,1637 -1580,2154 -203,120 -346,170 -601,208 -101,14 -518,26 -639,18 z m 435,-304 c 331,-23 465,-66 737,-236 735,-460 1209,-1121 1348,-1880 40,-217 41,-281 38,-2657 L 12495,3959 8185,2169 C 5814,1185 3867,378 3858,374 c -17,-5 -18,117 -18,2463 0,1595 -4,2506 -10,2575 -87,912 -589,1744 -1405,2329 -315,226 -751,455 -987,519 -27,7 -48,15 -48,19 0,3 143,66 318,140 4164,1763 7293,2705 8667,2611 z M 1105,8035 c 103,-14 234,-49 320,-84 l 50,-20 h -282 l -283,-1 v 29 c 0,16 -3,43 -6,60 l -6,31 h 53 c 30,0 99,-7 154,-15 z" /><path
       id="path3743"
       d="M 7695,9500 C 7574,9464 6839,9243 6063,9010 L 4650,8585 V 6100 3615 l 41,-75 c 47,-87 123,-192 171,-236 65,-61 75,-64 185,-64 h 102 l 49,50 c 52,53 93,122 139,235 l 28,70 5,1509 5,1508 1270,433 1270,433 5,1042 c 3,573 3,1043 0,1045 -3,1 -104,-28 -225,-65 z" /></g><path
     transform="scale(0.75000001)"
     id="path4563"
     d="m 516.40851,1433.3403 c -2.23576,-11.1788 -4.10762,-164.838 -4.15971,-341.4649 C 512.14236,730.92406 511.52866,724.78168 467.02396,639.23806 422.15825,553.00051 343.1533,478.3393 245.9055,430.27682 219.71487,417.33271 199.07104,405.95721 200.03032,404.99793 204.25736,400.77089 476.11412,290.70497 571.03522,254.79017 983.57496,98.699649 1305.6431,20.785408 1419.6537,49.493625 c 62.0097,15.614207 156.164,93.282415 196.4806,162.077455 8.9898,15.33998 23.003,46.52066 31.1405,69.2904 14.616,40.89755 14.8196,45.4003 16.7952,371.34869 l 1.9998,329.94915 -564.6322,233.84748 c -310.54774,128.6161 -568.30692,234.7049 -572.79817,235.7529 -4.73408,1.1048 -9.87429,-6.6362 -12.23092,-18.4194 z m 188.2086,-372.6979 c 11.94832,-19.5967 12.69685,-32.7506 12.71939,-223.51553 l 0.024,-202.69348 84.88983,-29.65799 c 46.68941,-16.31189 122.36949,-42.11597 168.17797,-57.34239 l 83.2881,-27.68441 1.7243,-141.98955 c 0.9484,-78.09426 -0.486,-141.98956 -3.1875,-141.98956 -2.7016,0 -102.22197,29.29826 -221.15653,65.10724 l -216.24464,65.10723 v 329.33089 c 0,231.37823 2.14369,333.49315 7.20739,343.32495 24.30858,47.1982 61.20086,57.0304 82.55774,22.0026 z"
     style="fill:none;stroke-width:6.40677977" /></g><path
   id="path5285"
   d="M 166.77722,538.38296 C 164.5667,536.35199 146.35768,525.15854 63.226113,474.72799 L 6.3479769,440.2237 5.951687,326.68966 C 5.6720354,246.57157 6.0049254,210.7641 7.0827143,205.03017 9.2209171,193.65476 15.569542,180.9883 21.810273,175.64647 34.453413,164.8244 192.97151,101.18844 276.28318,73.490122 390.78145,35.423307 463.79636,23.259566 497.7165,36.600971 c 19.30606,7.593415 49.94854,34.244434 62.29397,54.179602 3.52204,5.687331 8.46269,15.446777 10.97923,21.687647 9.02767,22.38826 8.87949,19.95674 8.87949,145.7062 v 113.52217 l -198.73492,82.39969 c -109.30421,45.31984 -200.08465,83.23421 -201.73432,84.25417 -3.82744,2.36641 -10.06503,2.38249 -12.62273,0.0325 z m 206.57016,-94.8475 193.65651,-80.401 V 252.25765 141.38083 l -3.11911,-10.77321 C 553.81816,95.838285 526.88686,64.497391 493.73222,48.968631 c -7.89012,-3.695526 -8.28942,-3.737777 -34.39051,-3.638937 -22.86756,0.08659 -28.94936,0.591414 -45.36709,3.765689 -65.86581,12.73478 -148.26081,38.921386 -255.27449,81.130807 -35.30953,13.92714 -88.297113,36.0366 -89.77845,37.46071 -0.591602,0.56875 2.455441,2.37627 6.771207,4.01672 9.609859,3.65274 29.498853,14.81518 39.619623,22.23601 24.40523,17.89455 43.63284,42.85993 53.7875,69.83838 7.78387,20.67984 7.56819,16.89713 8.17457,143.37268 0.30801,64.24183 0.97768,116.79936 1.48815,116.79454 0.51048,-0.005 88.07357,-36.18923 194.58465,-80.40977 z M 63.903234,181.27475 C 59.806654,179.907 53.86492,178.7507 50.699381,178.7052 c -4.880277,-0.0701 -5.755526,0.32914 -5.755526,2.62575 0,2.53278 0.856519,2.69948 13.203853,2.56955 l 13.203853,-0.13893 z"
   style="fill:#000000;fill-opacity:1;stroke-width:1.35424137" /><path
   id="path5287"
   d="m 154.71637,530.94518 c -7.77731,-4.9624 -44.34183,-27.36279 -81.254481,-49.77866 L 6.3479769,440.41039 6.0017496,325.67284 C 5.6233543,200.27509 5.5946041,200.8132 13.443402,186.39237 19.652051,174.98504 24.231694,172.24709 68.970391,153.19552 219.55266,89.071401 343.05767,47.601066 421.42295,34.849514 c 26.40188,-4.296099 57.81669,-4.33255 71.38041,-0.08282 13.20544,4.137472 31.89907,16.83061 47.24463,32.079516 18.35476,18.239156 28.64567,35.12222 35.99453,59.05194 l 3.0912,10.06571 0.41006,117.93335 0.41006,117.93336 -41.00813,17.0325 c -22.55447,9.36787 -111.69952,46.37888 -198.10012,82.24668 -86.4006,35.8678 -158.8615,66.0874 -161.02423,67.15466 -6.52034,3.21769 -10.3332,2.10608 -25.10499,-7.31923 z m 133.31381,-52.11142 c 56.60728,-23.47328 142.5339,-59.1365 190.94803,-79.25158 l 88.02568,-36.57289 0.37604,-100.65741 c 0.22282,-59.64815 -0.17187,-106.21877 -0.9688,-114.30776 C 563.86201,122.16994 553.08887,99.575349 533.49107,79.00058 522.01883,66.956457 507.99046,56.067879 496.3569,50.177713 483.44268,43.639127 450.92348,42.984161 418.10039,48.601556 355.20071,59.366303 253.72754,91.990199 139.06363,138.31263 95.999403,155.7099 70.773035,166.5334 69.86499,168.00265 c -0.449518,0.72734 0.615179,1.68649 2.365994,2.13147 5.25913,1.33661 26.870195,12.78667 37.716456,19.98306 12.31617,8.17167 30.34206,25.2012 39.39248,37.21508 15.32219,20.3393 24.75391,44.66513 26.95401,69.51844 0.7421,8.38312 1.34759,61.59493 1.354,118.9918 0.007,57.105 0.36814,104.75643 0.80392,105.89206 0.57896,1.50876 1.58187,1.75687 3.72416,0.92135 1.61251,-0.62889 49.24688,-20.34887 105.85417,-43.82215 z M 69.00887,183.27668 c -1.370094,-1.37008 -15.155419,-4.62167 -19.66373,-4.63814 -2.772946,-0.0101 -4.401285,0.65196 -4.401285,1.78958 0,3.18245 1.581432,3.61131 13.316706,3.61131 6.331079,0 11.167818,-0.34323 10.748309,-0.76275 z"
   style="fill:#000000;fill-opacity:1;stroke-width:1.35424137" /><path
   id="path5289"
   d="m 221.95019,389.54555 c -8.41716,-11.41433 -7.7278,-0.42794 -7.70902,-122.86017 l 0.0172,-111.76214 72.77332,-21.78496 72.77332,-21.78497 0.35662,46.07022 c 0.22557,29.1379 -0.13298,46.3728 -0.97544,46.89349 -0.73265,0.4528 -26.33217,9.33021 -56.88784,19.72759 l -55.55575,18.90432 -0.13884,48.07557 c -0.0764,26.44156 -0.53718,58.179 -1.02405,70.52764 -0.86262,21.87893 -0.98204,22.579 -4.6783,27.42339 -3.35497,4.39711 -4.48105,4.97131 -9.74933,4.97131 -5.15128,0 -6.39488,-0.59482 -9.20185,-4.40129 z"
   style="fill:#000000;fill-opacity:1;stroke-width:1.35424137" /></svg>