<?xml version="1.0" encoding="UTF-8" standalone="no"?>
<!-- Created with Inkscape (http://www.inkscape.org/) -->

<svg
   xmlns:dc="http://purl.org/dc/elements/1.1/"
   xmlns:cc="http://creativecommons.org/ns#"
   xmlns:rdf="http://www.w3.org/1999/02/22-rdf-syntax-ns#"
   xmlns:svg="http://www.w3.org/2000/svg"
   xmlns="http://www.w3.org/2000/svg"
   version="1.0"
   width="468pt"
   height="470pt"
   viewBox="0 0 468 470"
   id="svg2">
  <defs
     id="defs22" />
  <metadata
     id="metadata4">
Created by potrace 1.8, written by Peter Selinger 2001-2007
<rdf:RDF>
  <cc:Work
     rdf:about="">
    <dc:format>image/svg+xml</dc:format>
    <dc:type
       rdf:resource="http://purl.org/dc/dcmitype/StillImage" />
    <dc:title></dc:title>
  </cc:Work>
</rdf:RDF>
</metadata>
  <g
     transform="matrix(0.158108,0,0,-0.158108,0,470)"
     id="g6">
    <g
       id="g3760">
      <g
         id="g3771">
        <g
           id="g3775">
          <path
             d="m 2143,2412 c -500,-379 -726,-556 -734,-575 -15,-36 0,-73 37,-87 14,-6 63,-10 109,-10 l 85,0 2,-814 c 3,-803 3,-815 24,-843 11,-15 42,-39 70,-53 l 49,-25 484,-3 c 329,-2 502,1 538,8 57,12 118,56 133,94 4,12 9,650 11,1419 l 4,1399 -24,19 c -13,10 -33,19 -45,19 -12,0 -320,-227 -743,-548 z m 665,-1469 -3,-798 -42,-3 -42,-3 -3,490 -3,491 -38,37 -37,38 -205,3 c -230,4 -258,-2 -295,-63 -19,-31 -20,-49 -20,-514 l 0,-481 -154,0 c -85,0 -161,3 -170,6 -14,6 -16,85 -16,800 l 0,794 515,0 515,0 -2,-797 z m -220,-335 2,-458 -170,0 -170,0 0,460 0,460 168,-2 167,-3 3,-457 z"
             id="path10" />
          <g
             transform="matrix(0.93831462,0,0,1,636.66603,-12.595981)"
             id="g3046">
            <path
               d="m -641.53125,943.90625 -25.625,116.34375 1800.68745,396.5625 25.625,-116.375 -1800.68745,-396.53125 z"
               id="path3767"
               style="font-size:medium;font-style:normal;font-variant:normal;font-weight:normal;font-stretch:normal;text-indent:0;text-align:start;text-decoration:none;line-height:normal;letter-spacing:normal;word-spacing:normal;text-transform:none;direction:ltr;block-progression:tb;writing-mode:lr-tb;text-anchor:start;baseline-shift:baseline;color:#000000;fill-opacity:1;fill-rule:nonzero;marker:none;visibility:visible;display:inline;overflow:visible;enable-background:accumulate;font-family:Sans;-inkscape-font-specification:Sans" />
            <path
               d="m -491.75,12.375 -129.8125,0.65625 5.1875,1022.84375 129.78125,-0.6562 L -491.75,12.375 z"
               id="path3769"
               style="font-size:medium;font-style:normal;font-variant:normal;font-weight:normal;font-stretch:normal;text-indent:0;text-align:start;text-decoration:none;line-height:normal;letter-spacing:normal;word-spacing:normal;text-transform:none;direction:ltr;block-progression:tb;writing-mode:lr-tb;text-anchor:start;baseline-shift:baseline;color:#000000;fill-opacity:1;fill-rule:nonzero;marker:none;visibility:visible;display:inline;overflow:visible;enable-background:accumulate;font-family:Sans;-inkscape-font-specification:Sans" />
            <path
               d="m -535.625,9.59375 -0.4375,141.875 1801.0937,5.6875 0.4376,-141.875 -1801.0938,-5.6875 z"
               id="path3773"
               style="font-size:medium;font-style:normal;font-variant:normal;font-weight:normal;font-stretch:normal;text-indent:0;text-align:start;text-decoration:none;line-height:normal;letter-spacing:normal;word-spacing:normal;text-transform:none;direction:ltr;block-progression:tb;writing-mode:lr-tb;text-anchor:start;baseline-shift:baseline;color:#000000;fill-opacity:1;fill-rule:nonzero;marker:none;visibility:visible;display:inline;overflow:visible;enable-background:accumulate;font-family:Sans;-inkscape-font-specification:Sans" />
          </g>
          <g
             transform="matrix(23.167287,0,0,-29.510995,174.29593,1456.7345)"
             id="g3">
            <path
               d="m 61.667,39.375 c 1,-1.292 0.75,-4.292 0.583,-5.458 C 62.083,32.75 61.125,33.292 61.167,32.5 61.209,31.708 61.292,29.417 60.875,29.125 60.458,28.833 60.083,28.667 60.083,28.667 59.5,27.459 55.541,24.542 55.541,24.542 v -0.458 c -6.375,-0.708 -20.635,-1.677 -24.698,-0.708 -4.063,0.969 -13.375,6 -13.375,6 -9.718,0.186 -14.437,3.343 -14.437,3.343 0,0 0.125,0.5 -0.969,1.5 -1.094,1 -0.979,2.948 -0.979,2.948 L 1.75,40.25 c 0.341,0.284 4.797,1.749 6.08,1.593 -0.13,-0.49 -0.205,-1.001 -0.205,-1.531 0,-3.308 2.692,-6 6,-6 3.308,0 6,2.692 6,6 0,0.149 -0.012,0.294 -0.022,0.44 3.896,0.009 16.865,0.038 26.046,0.034 -0.012,-0.157 -0.024,-0.314 -0.024,-0.474 0,-3.308 2.692,-6 6,-6 3.308,0 6,2.692 6,6 0,0.061 -0.007,0.119 -0.009,0.179 2.406,-0.399 4.051,-1.116 4.051,-1.116 z"
               id="path5" />
            <path
               d="m 13.625,35.312 c -2.761,0 -5,2.239 -5,5 0,0.425 0.069,0.831 0.169,1.225 0.549,2.166 2.495,3.775 4.831,3.775 2.611,0 4.731,-2.009 4.956,-4.562 0.013,-0.147 0.044,-0.288 0.044,-0.438 0,-2.761 -2.239,-5 -5,-5 z"
               id="path7" />
            <path
               d="m 51.625,35.312 c -2.761,0 -5,2.239 -5,5 0,0.162 0.033,0.315 0.048,0.473 0.242,2.536 2.353,4.527 4.952,4.527 2.652,0 4.799,-2.07 4.968,-4.68 0.007,-0.108 0.032,-0.211 0.032,-0.32 0,-2.761 -2.239,-5 -5,-5 z"
               id="path9" />
          </g>
        </g>
      </g>
    </g>
  </g>
</svg>
