<?xml version="1.0" encoding="UTF-8" standalone="no"?>
<!-- Created with Inkscape (http://www.inkscape.org/) -->

<svg
   xmlns:dc="http://purl.org/dc/elements/1.1/"
   xmlns:cc="http://creativecommons.org/ns#"
   xmlns:rdf="http://www.w3.org/1999/02/22-rdf-syntax-ns#"
   xmlns:svg="http://www.w3.org/2000/svg"
   xmlns="http://www.w3.org/2000/svg"
   version="1.0"
   width="468pt"
   height="470pt"
   viewBox="0 0 468 470"
   id="svg2">
  <defs
     id="defs16" />
  <metadata
     id="metadata4">
Created by potrace 1.8, written by Peter Selinger 2001-2007
<rdf:RDF>
  <cc:Work
     rdf:about="">
    <dc:format>image/svg+xml</dc:format>
    <dc:type
       rdf:resource="http://purl.org/dc/dcmitype/StillImage" />
    <dc:title></dc:title>
  </cc:Work>
</rdf:RDF>
</metadata>
  <g
     transform="matrix(0.158108,0,0,-0.158108,0,470)"
     id="g6">
    <path
       d="M 24,2935 -1,2910 6,1512 C 13,-65 5,77 95,30 l 49,-25 516,0 515,0 48,24 c 94,46 87,-25 87,898 l 0,811 105,4 c 82,2 108,7 121,20 21,20 23,71 4,93 -31,38 -1451,1105 -1470,1105 -11,0 -32,-11 -46,-25 z M 1180,946 c 0,-715 -2,-794 -16,-800 -9,-3 -85,-6 -170,-6 l -153,0 -3,490 -3,490 -38,37 -37,38 -208,3 c -233,3 -258,-3 -297,-69 -19,-33 -20,-52 -20,-511 l 0,-478 -32,0 c -69,0 -63,-71 -63,806 l 0,794 520,0 520,0 0,-794 z m -472,-338 2,-458 -170,0 -170,0 0,460 0,460 168,-2 167,-3 3,-457 z"
       id="path10" />
    <path
       d="m 1570,820 c -14,-14 -20,-33 -20,-68 0,-42 -3,-50 -25,-60 -19,-9 -25,-19 -25,-42 0,-23 6,-33 25,-42 l 25,-11 0,-169 c 0,-162 -1,-168 -20,-168 -47,0 -47,-80 0,-95 16,-5 20,-15 20,-56 0,-59 27,-94 63,-83 31,10 37,22 37,82 0,49 2,52 25,52 23,0 25,-3 25,-50 0,-37 5,-55 20,-70 23,-23 33,-24 61,-10 15,9 19,22 19,70 0,57 1,60 25,60 22,0 25,-4 25,-39 0,-78 34,-116 80,-91 17,9 20,21 20,70 0,60 0,60 30,60 l 30,0 0,-60 c 0,-54 3,-62 24,-71 17,-8 29,-8 45,0 18,10 21,21 21,71 0,60 0,60 30,60 l 30,0 0,-60 c 0,-54 3,-62 24,-71 17,-8 29,-8 45,0 18,10 21,21 21,71 0,60 0,60 30,60 30,0 30,0 30,-60 0,-48 4,-61 19,-70 28,-14 38,-13 61,10 15,15 20,33 20,70 0,47 2,50 25,50 24,0 25,-3 25,-54 0,-79 37,-109 80,-66 15,15 20,33 20,70 0,47 2,50 25,50 24,0 25,-3 25,-54 0,-79 37,-109 80,-66 15,15 20,33 20,70 0,47 2,50 25,50 24,0 25,-3 25,-55 0,-47 3,-57 25,-71 23,-15 27,-15 50,0 21,14 25,24 25,69 0,53 0,54 36,63 44,11 60,41 38,73 -10,13 -26,21 -45,21 l -29,0 0,170 c 0,165 1,170 21,170 37,0 59,19 59,50 0,31 -22,50 -59,50 -19,0 -21,6 -21,55 0,47 -3,57 -25,71 -23,15 -27,15 -50,0 -22,-14 -25,-24 -25,-71 0,-52 -1,-55 -25,-55 -23,0 -25,3 -25,50 0,37 -5,55 -20,70 -24,24 -29,24 -58,4 -18,-12 -22,-25 -22,-70 0,-51 -1,-54 -25,-54 -23,0 -25,3 -25,50 0,37 -5,55 -20,70 -24,24 -29,24 -58,4 -18,-12 -22,-25 -22,-70 0,-51 -1,-54 -25,-54 -23,0 -25,3 -25,50 0,60 -27,95 -63,84 -31,-10 -37,-22 -37,-81 0,-52 0,-53 -30,-53 l -30,0 0,60 c 0,54 -3,62 -24,71 -17,8 -29,8 -45,0 -18,-10 -21,-21 -21,-71 0,-60 0,-60 -30,-60 l -30,0 0,60 c 0,54 -3,62 -24,71 -17,8 -29,8 -45,0 -18,-10 -21,-21 -21,-71 0,-60 0,-60 -30,-60 -30,0 -30,0 -30,60 0,49 -3,61 -20,70 -46,25 -80,-13 -80,-91 0,-35 -3,-39 -25,-39 -23,0 -25,3 -25,53 0,59 -6,71 -37,81 -36,11 -63,-24 -63,-84 0,-47 -2,-50 -25,-50 -24,0 -25,3 -25,54 0,79 -37,109 -80,66 z m 130,-390 0,-170 -25,0 -25,0 0,170 0,170 25,0 25,0 0,-170 z m 150,0 0,-170 -25,0 -25,0 0,170 0,170 25,0 25,0 0,-170 z m 160,0 0,-170 -30,0 -30,0 0,170 0,170 30,0 30,0 0,-170 z m 150,0 0,-170 -30,0 -30,0 0,170 0,170 30,0 30,0 0,-170 z m 150,0 0,-170 -30,0 -30,0 0,170 0,170 30,0 30,0 0,-170 z m 150,0 0,-170 -25,0 -25,0 0,170 0,170 25,0 25,0 0,-170 z m 150,0 0,-170 -25,0 -25,0 0,170 0,170 25,0 25,0 0,-170 z m 150,0 0,-170 -25,0 -25,0 0,170 0,170 25,0 25,0 0,-170 z"
       id="path12" />
  </g>
</svg>
