<?xml version="1.0" encoding="UTF-8" standalone="no"?>
<!-- Created with Inkscape (http://www.inkscape.org/) -->

<svg
   xmlns:dc="http://purl.org/dc/elements/1.1/"
   xmlns:cc="http://creativecommons.org/ns#"
   xmlns:rdf="http://www.w3.org/1999/02/22-rdf-syntax-ns#"
   xmlns:svg="http://www.w3.org/2000/svg"
   xmlns="http://www.w3.org/2000/svg"
   version="1.0"
   width="468pt"
   height="470pt"
   viewBox="0 0 468 470"
   id="svg2">
  <defs
     id="defs22" />
  <metadata
     id="metadata4">
Created by potrace 1.8, written by Peter Selinger 2001-2007
<rdf:RDF>
  <cc:Work
     rdf:about="">
    <dc:format>image/svg+xml</dc:format>
    <dc:type
       rdf:resource="http://purl.org/dc/dcmitype/StillImage" />
    <dc:title></dc:title>
  </cc:Work>
</rdf:RDF>
</metadata>
  <g
     transform="matrix(0.158108,0,0,-0.158108,0,470)"
     id="g3760">
    <path
       d="m 2143,2412 c -500,-379 -726,-556 -734,-575 -15,-36 0,-73 37,-87 14,-6 63,-10 109,-10 l 85,0 2,-814 c 3,-803 3,-815 24,-843 11,-15 42,-39 70,-53 l 49,-25 484,-3 c 329,-2 502,1 538,8 57,12 118,56 133,94 4,12 9,650 11,1419 l 4,1399 -24,19 c -13,10 -33,19 -45,19 -12,0 -320,-227 -743,-548 z m 665,-1469 -3,-798 -42,-3 -42,-3 -3,490 -3,491 -38,37 -37,38 -205,3 c -230,4 -258,-2 -295,-63 -19,-31 -20,-49 -20,-514 l 0,-481 -154,0 c -85,0 -161,3 -170,6 -14,6 -16,85 -16,800 l 0,794 515,0 515,0 -2,-797 z m -220,-335 2,-458 -170,0 -170,0 0,460 0,460 168,-2 167,-3 3,-457 z"
       id="path10" />
    <path
       d="M 35.875,933.28125 9.5,1045.6562 l 1689.5938,396.5626 26.375,-112.375 L 35.875,933.28125 z"
       id="path3767"
       style="font-size:medium;font-style:normal;font-variant:normal;font-weight:normal;font-stretch:normal;text-indent:0;text-align:start;text-decoration:none;line-height:normal;letter-spacing:normal;word-spacing:normal;text-transform:none;direction:ltr;block-progression:tb;writing-mode:lr-tb;text-anchor:start;baseline-shift:baseline;color:#000000;fill-opacity:1;fill-rule:nonzero;marker:none;visibility:visible;display:inline;overflow:visible;enable-background:accumulate;font-family:Sans;-inkscape-font-specification:Sans" />
    <path
       d="M 177.21875,-0.1875 51.46875,0.40625 56.34375,1023.25 182.0625,1022.6562 177.21875,-0.1875 z"
       id="path3769"
       style="font-size:medium;font-style:normal;font-variant:normal;font-weight:normal;font-stretch:normal;text-indent:0;text-align:start;text-decoration:none;line-height:normal;letter-spacing:normal;word-spacing:normal;text-transform:none;direction:ltr;block-progression:tb;writing-mode:lr-tb;text-anchor:start;baseline-shift:baseline;color:#000000;fill-opacity:1;fill-rule:nonzero;marker:none;visibility:visible;display:inline;overflow:visible;enable-background:accumulate;font-family:Sans;-inkscape-font-specification:Sans" />
    <path
       d="M 134.125,-0.78125 133.65625,136.65625 1823.625,142.3125 1824.0938,4.90625 134.125,-0.78125 z"
       id="path3773"
       style="font-size:medium;font-style:normal;font-variant:normal;font-weight:normal;font-stretch:normal;text-indent:0;text-align:start;text-decoration:none;line-height:normal;letter-spacing:normal;word-spacing:normal;text-transform:none;direction:ltr;block-progression:tb;writing-mode:lr-tb;text-anchor:start;baseline-shift:baseline;color:#000000;fill-opacity:1;fill-rule:nonzero;marker:none;visibility:visible;display:inline;overflow:visible;enable-background:accumulate;font-family:Sans;-inkscape-font-specification:Sans" />
    <g
       transform="matrix(23.167287,0,0,-29.510995,174.29593,1456.7345)"
       id="g3">
      <path
         d="m 61.667,39.375 c 1,-1.292 0.75,-4.292 0.583,-5.458 C 62.083,32.75 61.125,33.292 61.167,32.5 61.209,31.708 61.292,29.417 60.875,29.125 60.458,28.833 60.083,28.667 60.083,28.667 59.5,27.459 55.541,24.542 55.541,24.542 v -0.458 c -6.375,-0.708 -20.635,-1.677 -24.698,-0.708 -4.063,0.969 -13.375,6 -13.375,6 -9.718,0.186 -14.437,3.343 -14.437,3.343 0,0 0.125,0.5 -0.969,1.5 -1.094,1 -0.979,2.948 -0.979,2.948 L 1.75,40.25 c 0.341,0.284 4.797,1.749 6.08,1.593 -0.13,-0.49 -0.205,-1.001 -0.205,-1.531 0,-3.308 2.692,-6 6,-6 3.308,0 6,2.692 6,6 0,0.149 -0.012,0.294 -0.022,0.44 3.896,0.009 16.865,0.038 26.046,0.034 -0.012,-0.157 -0.024,-0.314 -0.024,-0.474 0,-3.308 2.692,-6 6,-6 3.308,0 6,2.692 6,6 0,0.061 -0.007,0.119 -0.009,0.179 2.406,-0.399 4.051,-1.116 4.051,-1.116 z"
         id="path5" />
      <path
         d="m 13.625,35.312 c -2.761,0 -5,2.239 -5,5 0,0.425 0.069,0.831 0.169,1.225 0.549,2.166 2.495,3.775 4.831,3.775 2.611,0 4.731,-2.009 4.956,-4.562 0.013,-0.147 0.044,-0.288 0.044,-0.438 0,-2.761 -2.239,-5 -5,-5 z"
         id="path7" />
      <path
         d="m 51.625,35.312 c -2.761,0 -5,2.239 -5,5 0,0.162 0.033,0.315 0.048,0.473 0.242,2.536 2.353,4.527 4.952,4.527 2.652,0 4.799,-2.07 4.968,-4.68 0.007,-0.108 0.032,-0.211 0.032,-0.32 0,-2.761 -2.239,-5 -5,-5 z"
         id="path9" />
    </g>
  </g>
  <g
     transform="matrix(0.40961057,0,0,0.4033313,18.304472,21.547024)"
     id="g2995">
    <path
       d="M 12.259842,2.9409449 C -0.60236219,9.2480316 0,-0.63779528 0,193.03937 c 0,109.48819 0.77952754,177.69685 1.9842519,180.8504 0.992126,2.76378 4.7480314,6.90945 8.2913381,9.07086 6.34252,3.96851 10.098425,3.96851 183.40157,3.96851 171.95669,0 177.09449,-0.2126 183.22441,-3.96851 4.14567,-2.33858 7.12204,-6.30708 8.50393,-11.23228 1.55906,-5.35039 1.94882,-59.31496 1.55906,-182.83465 L 386.39763,13.393701 379.84251,7.0866143 373.53542,0.56692914 196.05118,0.14173229 C 35.397637,-0.2480315 18.177165,-0.03543307 12.259842,2.9409449 z M 359.71653,194.2441 l 0,166.99606 -167.03149,0 -166.996064,0 0,-166.99606 0,-166.996068 166.996064,0 167.03149,0 0,166.996068 z"
       id="path2997"
       style="fill:#000000;fill-opacity:1;fill-rule:nonzero;stroke:none" />
    <path
       d="m 79.86614,68.740158 c -10.877953,4.358268 -10.700787,1.38189 -10.700787,124.122052 0,73.91338 0.81496,114.62598 1.984252,117.17716 5.350393,9.70867 6.129921,9.70867 122.527555,9.70867 116.00787,0 119.37401,-0.2126 124.33464,-9.49607 1.55906,-2.76378 2.16142,-40.11023 2.16142,-117.77953 l 0,-113.66929 -4.74803,-5.527559 -4.74803,-5.527559 L 197.2559,67.358268 C 135,67.14567 82.027557,67.748032 79.86614,68.740158 z m 98.7874,28.665355 c 5.35039,3.933067 25.51181,3.933067 28.87795,0 1.94882,-2.374016 7.51181,-2.976378 25.47638,-2.976378 l 22.9252,0 19.16929,19.169295 19.38189,19.38189 0,59.27952 0,59.27953 -20.16142,20.16142 -20.37402,20.37402 -19.73622,0 c -16.22834,0 -21.36614,-0.81496 -27.67322,-4.14567 -9.1063,-4.57087 -24.90945,-4.18111 -30.64961,1.16929 -2.37402,2.16142 -8.07874,2.97638 -22.9252,2.97638 l -19.55905,0 -19.16929,-19.1693 -19.381891,-19.38189 0,-60.27165 0,-60.27165 19.169291,-19.1693 19.38189,-19.381885 20.76378,0 c 15.02362,0.212598 21.72047,0.992126 24.48425,2.976378 z"
       id="path2999"
       style="fill:#000000;fill-opacity:1;fill-rule:nonzero;stroke:none" />
    <path
       d="m 128.48031,173.87008 c -7.33464,3.9685 -10.09842,11.09055 -9.3189,22.74803 0.99213,15.41339 4.57087,18.35433 22.14567,18.35433 18.56693,0 20.76378,-2.16141 20.76378,-21.11811 0,-11.26771 -0.77953,-14.45669 -3.9685,-17.39764 -5.1378,-4.57086 -22.7126,-6.12992 -29.62205,-2.58661 z"
       id="path3001"
       style="fill:#000000;fill-opacity:1;fill-rule:nonzero;stroke:none" />
    <path
       d="m 233.82283,173.48032 c -6.34252,2.58661 -8.50394,8.11417 -8.50394,21.5433 0,16.79528 3.36614,19.94882 21.54331,19.94882 12.43701,0 14.03149,-0.38976 17.7874,-5.13779 4.74803,-5.91732 5.70472,-20.94095 1.94882,-29.23229 -3.75591,-7.90157 -21.33071,-11.65748 -32.77559,-7.12204 z"
       id="path3003"
       style="fill:#000000;fill-opacity:1;fill-rule:nonzero;stroke:none" />
  </g>
</svg>
