<?xml version="1.0" encoding="UTF-8" standalone="no"?>
<!-- Created with Inkscape (http://www.inkscape.org/) -->

<svg
   xmlns:dc="http://purl.org/dc/elements/1.1/"
   xmlns:cc="http://creativecommons.org/ns#"
   xmlns:rdf="http://www.w3.org/1999/02/22-rdf-syntax-ns#"
   xmlns:svg="http://www.w3.org/2000/svg"
   xmlns="http://www.w3.org/2000/svg"
   version="1.0"
   width="468pt"
   height="467pt"
   viewBox="0 0 468 467"
   id="svg2">
  <defs
     id="defs14" />
  <metadata
     id="metadata4">
Created by potrace 1.8, written by Peter Selinger 2001-2007
<rdf:RDF>
  <cc:Work
     rdf:about="">
    <dc:format>image/svg+xml</dc:format>
    <dc:type
       rdf:resource="http://purl.org/dc/dcmitype/StillImage" />
    <dc:title></dc:title>
  </cc:Work>
</rdf:RDF>
</metadata>
  <g
     transform="matrix(0.157576,0,0,-0.157576,0,467)"
     id="g6"
     style="fill:#000000;stroke:none">
    <path
       d="m 1435,2940 c -11,-10 -335,-259 -720,-553 L 15,1854 12,1813 c -5,-61 18,-73 139,-73 l 97,0 1,-812 c 2,-774 3,-814 21,-855 12,-28 28,-47 45,-53 17,-7 427,-10 1161,-11 1079,-1 1136,0 1172,18 76,37 72,-12 72,901 l 0,812 96,0 c 104,0 130,8 144,46 17,43 -5,70 -147,177 -76,57 -396,300 -711,540 -315,240 -582,441 -592,447 -28,15 -53,12 -75,-10 z m 1145,-1995 0,-795 -1095,0 -1095,0 0,795 0,795 1095,0 1095,0 0,-795 z"
       id="path8" />
    <path
       d="m 1925.7683,1495.4474 c -369.2181,0 -431.684,157.2514 -432.2419,158.7261 -2.7087,7.6879 -9.4014,12.8287 -16.9712,13.0075 0,0 -0.157,0 -0.3218,0 -7.3298,0 -14.1024,-5.1409 -17.0505,-12.6501 -0.4394,-1.6535 -64.2581,-159.0835 -432.0826,-159.0835 -10.2786,0 -18.4049,-9.3422 -18.4049,-20.6066 V 770.20529 c 0,-288.44252 441.564,-508.80879 460.2483,-518.0613 2.4694,-1.20709 4.8203,-1.65435 7.489,-1.65435 2.4303,0 5.0597,0.44903 7.4098,1.65435 18.8436,9.25251 460.3284,229.61878 460.3284,518.0613 v 704.63551 c -0.079,11.2644 -8.2463,20.6066 -18.4057,20.6066 z m -83.1817,-684.2525 c 0,-225.68587 -345.7136,-398.35801 -360.4138,-405.50979 -1.7931,-1.02836 -3.9039,-1.3858 -5.7769,-1.3858 -2.0316,0 -3.9039,0.36097 -5.8162,1.3858 -14.5411,7.15178 -360.3746,179.82392 -360.3746,405.50979 v 551.5407 c 0,8.8952 6.414,16.2256 14.4218,16.2256 287.9887,0 337.9059,123.1907 338.3837,124.3978 2.2709,5.9447 7.5292,9.9675 13.306,9.9675 0.079,0 0.2354,0 0.2354,0 5.8961,-0.089 11.1151,-4.1117 13.2267,-10.2361 0.4786,-1.1172 49.3994,-124.1292 338.3838,-124.1292 8.0077,0 14.3817,-7.3304 14.3817,-16.2256 V 811.1949 z"
       id="path5"
       style="fill:#000000;stroke:none" />
  </g>
</svg>
