<svg id="Layer_1" data-name="Layer 1" xmlns="http://www.w3.org/2000/svg" viewBox="0 0 122.88 120.96"><path fill-rule="evenodd" d="M105.5,104.64H99.44v9.53A6.81,6.81,0,0,1,92.65,121h-4a6.82,6.82,0,0,1-6.79-6.79v-9.53H40.82v9.53A6.82,6.82,0,0,1,34,121H30a6.81,6.81,0,0,1-6.78-6.79v-9.53H18.1c-3.54-.06-5.24-2-5.5-5.29V21.52c-2,.2-2.95.66-3.43,1.68V45.45H4.87A4.88,4.88,0,0,1,0,40.58V27.44a4.89,4.89,0,0,1,4.73-4.87c.41-3.82,2.06-4.93,8-5.21Q14,7.36,26.36,2.57C44.09-.68,77.73-1,96.52,2.57c8.28,3.19,12.8,8.12,13.62,14.79,6,.3,7.61,1.42,8,5.21a4.89,4.89,0,0,1,4.73,4.87V40.58A4.88,4.88,0,0,1,118,45.45h-4.3V23.14c-.48-1-1.47-1.44-3.43-1.63V98.59c0,4.46-1.44,6-4.78,6ZM16.13,84.87l.28-6.69c.16-1.17.78-1.69,1.89-1.5A129.9,129.9,0,0,1,34.39,86.85c1.09.72.66,2.11-.78,1.85L18.48,87.6a2.74,2.74,0,0,1-2.35-2.73ZM52,93.45H71.3a.94.94,0,0,1,.94.94v3.24a.94.94,0,0,1-.94.94H52a.94.94,0,0,1-.94-.94V94.39a.94.94,0,0,1,.94-.94Zm50.35,0A2.51,2.51,0,1,1,99.82,96a2.51,2.51,0,0,1,2.5-2.51Zm-82.65,0A2.51,2.51,0,1,1,17.16,96a2.51,2.51,0,0,1,2.51-2.51Zm87.08-8.63-.28-6.69c-.16-1.17-.78-1.69-1.88-1.5a129.28,129.28,0,0,0-16.1,10.17c-1.09.72-.66,2.11.78,1.85l15.13-1.1a2.73,2.73,0,0,0,2.35-2.73ZM48.19,6.11h26.5a1.63,1.63,0,0,1,1.62,1.62V12a1.63,1.63,0,0,1-1.62,1.62H48.19A1.63,1.63,0,0,1,46.57,12V7.73a1.63,1.63,0,0,1,1.62-1.62ZM20.32,18.91H102.2a2,2,0,0,1,2,2V64.09c0,1.08-.89,1.69-2,2-28.09,8.53-53.8,8.18-81.88,0-1.11-.3-2-.9-2-2V20.89a2,2,0,0,1,2-2Z"/></svg>
