<?xml version="1.0" encoding="UTF-8" standalone="no"?>


<svg
   xmlns:dc="http://purl.org/dc/elements/1.1/"
   xmlns:cc="http://creativecommons.org/ns#"
   xmlns:rdf="http://www.w3.org/1999/02/22-rdf-syntax-ns#"
   xmlns:svg="http://www.w3.org/2000/svg"
   xmlns="http://www.w3.org/2000/svg"
   xmlns:sodipodi="http://sodipodi.sourceforge.net/DTD/sodipodi-0.dtd"
   xmlns:inkscape="http://www.inkscape.org/namespaces/inkscape"
   id="svg2"
   preserveAspectRatio="xMidYMid meet"
   viewBox="0 0 468 369"
   height="369pt"
   width="468pt"
   version="1.0"
   inkscape:version="0.91 r13725"
   sodipodi:docname="car2.svg">
  <sodipodi:namedview
     pagecolor="#ffffff"
     bordercolor="#666666"
     borderopacity="1"
     objecttolerance="10"
     gridtolerance="10"
     guidetolerance="10"
     inkscape:pageopacity="0"
     inkscape:pageshadow="2"
     inkscape:window-width="640"
     inkscape:window-height="480"
     id="namedview7"
     showgrid="false"
     inkscape:zoom="0.51165312"
     inkscape:cx="292.5"
     inkscape:cy="230.625"
     inkscape:window-x="413"
     inkscape:window-y="288"
     inkscape:window-maximized="0"
     inkscape:current-layer="svg2" />
  <defs
     id="defs14" />
  <metadata
     id="metadata4">
<rdf:RDF>
  <cc:Work
     rdf:about="">
    <dc:format>image/svg+xml</dc:format>
    <dc:type
       rdf:resource="http://purl.org/dc/dcmitype/StillImage" />
    <dc:title></dc:title>
  </cc:Work>
</rdf:RDF>
</metadata>
  <g
     id="g6"
     stroke="none"
     fill="#000000"
     transform="translate(0,369) scale(0.158644,-0.158644)">
    <path
       id="path10"
       d="M815 1343 c-79 -41 -96 -71 -141 -256 -34 -138 -39 -201 -19 -249 6 -15 2 -18 -28 -18 -20 0 -45 -9 -61 -21 l-26 -20 0 -214 0 -214 30 -23 c29 -21 30 -24 30 -105 0 -87 15 -135 45 -147 30 -11 219 -6 236 7 30 23 39 56 39 141 l0 86 560 0 560 0 0 -95 c0 -88 2 -98 25 -120 22 -23 31 -25 128 -25 90 0 108 3 131 21 25 20 26 25 26 118 0 96 0 97 30 119 l30 23 0 214 0 214 -26 20 c-16 12 -41 21 -62 21 -31 0 -34 2 -28 23 19 64 17 91 -20 242 -43 178 -65 219 -136 254 -44 21 -51 21 -669 21 -549 -1 -628 -3 -654 -17z m1273 -131 c16 -11 84 -265 80 -300 l-3 -27 -687 -3 c-661 -2 -688 -1 -697 16 -7 14 -1 56 26 158 20 76 41 145 46 152 7 9 142 12 616 12 333 0 612 -4 619 -8z m-1149 -497 c34 -17 41 -33 41 -86 0 -29 -7 -47 -25 -64 -23 -24 -29 -25 -168 -25 -131 0 -147 2 -171 21 -45 35 -34 138 17 159 39 15 274 12 306 -5z m837 0 c17 -13 -18 -14 -306 -14 -288 0 -323 1 -306 14 16 12 70 15 306 15 236 0 290 -3 306 -15z m531 4 c38 -14 43 -25 43 -91 0 -83 -10 -88 -183 -88 -181 0 -197 8 -197 96 0 51 13 73 50 87 27 10 258 7 287 -4z m-487 -174 c0 -13 -46 -15 -350 -15 -304 0 -350 2 -350 15 0 13 46 15 350 15 304 0 350 -2 350 -15z" />
  </g>
</svg>
