<?xml version="1.0" encoding="UTF-8" standalone="no"?>
<svg
   xmlns:dc="http://purl.org/dc/elements/1.1/"
   xmlns:cc="http://creativecommons.org/ns#"
   xmlns:rdf="http://www.w3.org/1999/02/22-rdf-syntax-ns#"
   xmlns:svg="http://www.w3.org/2000/svg"
   xmlns="http://www.w3.org/2000/svg"
   id="svg5892"
   version="1.1"
   viewBox="0 0 111.70256 43.50668"
   height="43.50668mm"
   width="111.70256mm">
  <defs
     id="defs5886" />
  <metadata
     id="metadata5889">
    <rdf:RDF>
      <cc:Work
         rdf:about="">
        <dc:format>image/svg+xml</dc:format>
        <dc:type
           rdf:resource="http://purl.org/dc/dcmitype/StillImage" />
        <dc:title></dc:title>
      </cc:Work>
    </rdf:RDF>
  </metadata>
  <g
     transform="translate(36.076752,-72.613621)"
     id="layer1">
    <path
       id="path834-3-8-3"
       d="m 31.698971,72.613621 -0.961181,0.0098 -0.839743,0.429429 -0.16433,0.929662 0.642853,0.69143 0.382924,0.06666 0.935344,-0.0098 h 0.0098 0.01551 l 1.12913,0.01757 0.851639,-0.40824 0.185518,-0.926042 -0.625285,-0.704866 -0.380857,-0.07803 -1.153932,-0.01757 h -0.01394 z m -5.244124,0.156062 -1.099674,0.06666 h -0.01394 l -0.01344,0.0021 -1.011824,0.08785 -0.804601,0.491958 -0.09199,0.93948 0.693499,0.63872 0.386538,0.03928 0.982369,-0.0863 0.0217,-0.0021 h 0.0078 l 1.070218,-0.06408 0.818555,-0.47077 0.117306,-0.937411 -0.677995,-0.656291 z m 10.708908,0.03928 -0.871265,0.365352 -0.232545,0.913638 0.588078,0.738458 0.376722,0.0956 0.874882,0.05684 h 0.0062 l 0.0217,0.0021 1.177705,0.111106 0.880565,-0.341582 0.257866,-0.908471 -0.568439,-0.751893 -0.373105,-0.107487 -1.206645,-0.111104 -0.01394,-0.0021 h -0.0155 z m -17.111618,0.611333 -0.787032,0.11317 -0.01757,0.0021 -0.0155,0.0036 -1.300697,0.228928 -0.760159,0.560173 -0.0078,0.94361 0.746207,0.576194 0.388607,0.0036 1.300697,-0.22841 0.756026,-0.109553 0.775147,-0.536919 0.03927,-0.941546 -0.730705,-0.599512 z m 23.509676,0.09973 -0.898136,0.288873 -0.310575,0.890383 0.523483,0.785482 0.3669,0.126608 0.550871,0.08423 0.01394,0.0021 0.02119,0.0036 1.465027,0.273368 0.906405,-0.259416 0.339513,-0.881081 -0.49816,-0.800468 -0.36122,-0.141078 -1.498097,-0.279051 -0.01757,-0.0021 -0.01757,-0.0036 z m -29.454533,1.179256 -0.387056,0.02946 -0.04082,0.0098 -0.02946,0.0078 -0.02532,0.0098 -1.761649,0.564309 -0.02379,0.0078 -0.02119,0.0098 -0.211357,0.07855 -0.644406,0.689364 0.162264,0.929658 0.841809,0.429432 0.380857,-0.06615 0.198953,-0.07441 0.01188,-0.0036 1.679485,-0.539501 0.0217,-0.0057 0.0041,-0.0036 0.0078,-0.0021 -0.0021,-0.0041 0.699183,-0.613399 -0.06822,-0.939478 z m 35.804533,0.217041 -0.931727,0.153995 -0.437698,0.836126 0.402559,0.853694 0.343648,0.179318 1.429369,0.441833 h 0.0021 l 0.545185,0.191204 0.93741,-0.117305 0.468707,-0.818039 -0.368969,-0.869199 -0.335899,-0.19327 -0.583944,-0.205155 -0.01963,-0.0062 -0.01963,-0.0057 z m -41.9183714,2.037085 -0.376722,0.09354 -0.992187,0.457335 -0.01394,0.0078 -0.01344,0.0057 -0.917773,0.455271 -0.568439,0.75189 0.257866,0.907958 0.878499,0.342095 0.373102,-0.105418 0.888836,-0.441317 0.02326,-0.01188 0.0062,-0.0021 0.964798,-0.443383 0.589629,-0.736388 -0.230479,-0.915707 z m 48.0079214,0.232545 -0.945161,0.01757 -0.555005,0.763778 0.275436,0.902271 0.314709,0.22841 1.240234,0.591695 0.0098,0.0041 0.601515,0.321945 0.94361,0.02739 0.589629,-0.738457 -0.232545,-0.913638 -0.302305,-0.242364 -0.646472,-0.345715 -0.0217,-0.0098 -0.0217,-0.01188 z m -53.7207514,2.673739 -0.371036,0.118856 -0.0021,0.0021 -0.0155,0.0078 -0.01551,0.0098 -1.82417803,1.066602 -0.517797,0.789101 0.318325,0.888833 0.902272,0.279053 0.36535203,-0.130741 1.824178,-1.064535 -0.0078,-0.01344 0.523483,-0.74414 -0.288872,-0.898655 z m 58.4434604,0.335896 -0.626835,0.703316 0.183452,0.925525 0.288872,0.259932 0.324527,0.195337 1.415934,0.935344 0.935344,0.11317 0.656291,-0.677478 -0.146246,-0.933792 -0.279569,-0.269234 -1.451073,-0.957048 -0.01757,-0.01188 -0.01757,-0.01188 -0.324012,-0.195337 z m -63.9454504,2.914034 -0.363286,0.132807 -1.286743,0.763778 -0.0098,0.0057 -0.02739,0.0155 -0.470773,0.254249 -0.545187,0.771528 0.289388,0.898136 0.890386,0.310576 0.369486,-0.117306 0.507463,-0.274918 0.01963,-0.0098 0.01963,-0.0098 1.322398,-0.787548 0.513665,-0.792716 -0.326594,-0.8847 z m 69.2696704,0.619082 -0.67179,0.661977 0.12506,0.935861 0.27337,0.275433 0.33021,0.230479 0.0134,0.0078 0.0119,0.0098 1.43712,0.935344 0.93793,0.107487 0.65008,-0.681611 -0.15244,-0.931727 -0.28112,-0.267685 -1.41025,-0.91984 -0.32969,-0.228409 z m -75.1483814,1.420069 -2.0996136,0.259932 -0.787032,0.521417 -0.05891,0.941027 0.716751,0.613399 0.389123,0.02377 2.0996136,-0.259933 0.787033,-0.521415 0.05633,-0.941545 -0.716751,-0.613399 z m -6.2988396,0.777214 -2.10168,0.253733 -0.789099,0.517796 -0.06046,0.943612 0.716754,0.61495 0.386538,0.02532 2.10168,-0.255798 0.787033,-0.517798 0.06098,-0.943096 -0.7152,-0.615466 z m -6.324163,0.800985 -1.051097,0.151929 -0.02119,0.0041 -0.02376,0.0041 -1.036629,0.196887 -0.752409,0.572575 0.0041,0.943094 0.756029,0.564824 h 0.386537 l 0.992188,-0.189653 0.02326,-0.0041 0.02379,-0.0036 1.003556,-0.144694 0.775663,-0.538985 0.03721,-0.943612 -0.730705,-0.597379 z m 93.134884,0.546737 -0.74621,0.578259 0.0114,0.943095 0.23874,0.306958 0.48421,0.429431 0.57981,0.679545 0.13488,0.222726 0.79685,0.503845 0.88315,-0.33383 0.26562,-0.906405 -0.13695,-0.361218 -0.17983,-0.29869 -0.045,-0.07235 -0.0563,-0.06615 -0.67954,-0.797367 -0.047,-0.05426 -0.0548,-0.04909 -0.53899,-0.478524 z m -99.209448,0.947228 -0.374655,0.09767 -1.002004,0.470772 -0.05685,0.02739 -0.05271,0.03307 -0.857311,0.535368 -0.494027,0.802535 0.343649,0.879016 0.910021,0.255798 0.361735,-0.142627 0.808221,-0.503845 0.939477,-0.441317 0.586009,-0.740523 -0.238228,-0.914156 z m -4.253487,4.209046 -0.926041,0.181384 -0.257866,0.289388 -0.01963,0.02894 -0.01757,0.02946 -0.0155,0.03152 -0.511596,0.984436 -0.01344,0.02532 -0.01188,0.02739 -0.400492,0.884701 0.03307,0.943095 0.775664,0.541052 0.896585,-0.293005 0.22221,-0.318327 0.394809,-0.869198 0.0057,-0.0155 0.467154,-0.894518 0.0036,-0.0078 v -0.0021 l 0.01551,-0.02945 -0.01138,-0.0057 0.0739,-0.902271 z m 105.954255,0.476457 -0.58549,0.738456 -0.01,0.388607 0.092,0.564306 0.11678,1.455209 0.4868,0.808736 0.93947,0.09767 0.64234,-0.68988 0.0408,-0.38654 -0.12093,-1.501717 -0.002,-0.04134 -0.008,-0.04289 -0.0977,-0.601513 -0.54881,-0.767395 z m -90.556229,1.0604 -0.478523,0.02377 -0.05271,0.0036 -0.05271,0.0078 -0.993738,0.150379 -0.05271,0.0083 -0.05116,0.01343 -0.612884,0.158131 -0.713134,0.617016 0.06253,0.941545 0.791165,0.517797 0.386541,-0.02532 0.560689,-0.144694 0.880565,-0.134876 0.433565,-0.02325 0.82269,-0.463021 0.124539,-0.935343 -0.669726,-0.664042 z m 68.377223,0.111621 -0.476456,0.02325 -0.05478,0.0021 -0.05271,0.0098 -0.992188,0.150378 -0.05271,0.0078 -0.05064,0.01395 -0.615466,0.15813 -0.712618,0.617016 0.06408,0.941545 0.789098,0.517281 0.386541,-0.02739 0.558622,-0.14211 0.902785,-0.13901 0.41393,-0.01964 0.822172,-0.462504 0.127124,-0.93586 -0.671793,-0.664042 z m -63.812642,0.603581 -0.937411,0.10542 -0.480592,0.812353 0.357603,0.873332 0.333828,0.196887 0.24443,0.08992 0.775147,0.375171 0.673859,0.408244 0.941546,0.07803 0.6289016,-0.703316 -0.181901,-0.925525 -0.2888716,-0.257865 -0.716751,-0.435633 -0.04496,-0.02739 -0.04496,-0.02119 -0.874882,-0.422196 -0.04703,-0.02119 -0.04857,-0.01964 z m 68.378771,0.111104 -0.938961,0.10542 -0.480589,0.81287 0.357084,0.872815 0.334346,0.197404 0.24598,0.08992 0.775145,0.374655 0.673862,0.408243 0.939477,0.07803 0.628901,-0.7028 -0.181385,-0.926041 -0.289385,-0.257866 -0.716754,-0.435632 -0.04289,-0.02687 -0.04702,-0.0217 -0.874881,-0.421679 -0.04496,-0.02377 -0.04857,-0.01757 z m -79.089745,1.502234 -0.329697,0.203089 -0.709001,0.644404 -0.03721,0.03307 -0.03307,0.03721 -0.646472,0.711067 -0.03359,0.03721 -0.03101,0.04083 -0.119372,0.160197 -0.170016,0.927592 0.640787,0.693497 0.93948,-0.09199 0.285252,-0.261482 0.08992,-0.121439 0.566375,-0.624768 0.681612,-0.619084 0.341582,-0.879016 -0.496094,-0.802535 z m 68.377221,0.109037 -0.330213,0.205156 -0.706933,0.642855 -0.03927,0.03514 -0.03307,0.03669 -0.644406,0.711068 -0.03514,0.03721 -0.02946,0.04082 -0.120922,0.160197 -0.167947,0.928108 0.638201,0.692981 0.93948,-0.09147 0.285253,-0.261998 0.08785,-0.118856 0.588079,-0.646473 0.661975,-0.599964 0.342098,-0.879016 -0.496094,-0.804602 z m -80.228695,1.894458 -0.827857,0.453203 -0.158647,0.353466 -0.167947,0.687814 -0.0057,0.02532 -0.0057,0.02532 -0.212907,1.119312 -0.0062,0.0274 -0.0036,0.0289 -0.03721,0.26975 0.304377,0.89452 0.896586,0.29507 0.775663,-0.5395 0.120922,-0.36691 0.03514,-0.24804 0.0021,-0.0217 0.203089,-1.04697 0.0021,-0.0134 0.156062,-0.634581 -0.208772,-0.919841 z m 27.1311616,0.27957 -0.881084,0.33383 -0.265618,0.906403 0.136943,0.363282 0.335897,0.55242 0.380854,0.79117 0.130741,0.36122 0.685232,0.64854 0.931724,-0.15606 0.435634,-0.83613 -0.0646,-0.38292 -0.153998,-0.41961 -0.01757,-0.0491 -0.0217,-0.0465 -0.42168,-0.875401 -0.0217,-0.04496 -0.02739,-0.04444 -0.363286,-0.597897 z m 68.3787714,0.111104 -0.88315,0.334347 -0.265618,0.905889 0.136943,0.363285 0.335896,0.555 0.375172,0.77515 0.138493,0.37517 0.685745,0.64854 0.929661,-0.15658 0.435631,-0.83561 -0.06253,-0.38292 -0.154511,-0.42013 -0.01757,-0.0486 -0.02326,-0.047 -0.420129,-0.874881 -0.02326,-0.04702 -0.02532,-0.04289 -0.363286,-0.597897 z m 13.374893,0.449584 -0.78497,0.522968 -0.12919,0.367419 -0.1328,0.87901 -0.27906,1.08779 0.19896,0.92191 0.85731,0.39843 0.83251,-0.44546 0.16174,-0.35139 0.29301,-1.14257 0.0119,-0.0506 0.008,-0.0512 0.14263,-0.92759 -0.28887,-0.898137 z m -100.005781,2.366787 -0.834058,0.44183 -0.163814,0.35347 -0.107487,0.41599 -0.01394,0.0506 -0.0078,0.0527 -0.150376,0.99425 -0.0077,0.0527 -0.0041,0.0527 -0.03307,0.68161 0.377238,0.863 0.917777,0.22117 0.728636,-0.60203 0.08992,-0.37671 0.02894,-0.61909 0.13901,-0.89865 0.09353,-0.36329 -0.197405,-0.9219 z m 68.376188,0.11161 -0.83354,0.44132 -0.161748,0.3514 -0.107487,0.41806 -0.01394,0.0506 -0.0078,0.0527 -0.152445,0.99426 -0.0078,0.0527 -0.0021,0.0527 -0.03514,0.68006 0.376722,0.86506 0.917773,0.22066 0.728639,-0.60151 0.08992,-0.37724 0.03307,-0.63459 0.134877,-0.88263 0.09353,-0.36328 -0.196887,-0.92191 z m -48.8977914,2.34767 -0.728639,0.59944 -0.08992,0.37879 -0.05064,0.97875 -0.134877,0.8847 -0.0078,0.0274 0.0021,0.008 -0.0021,0.01 h 0.0041 l 0.166915,0.78032 -0.313161,-0.0129 -0.592212,2.0531 2.117185,0.0625 0.855245,-0.39688 0.20102,-0.9219 -0.588595,-0.6842 0.03462,-0.0186 0.163815,-0.35192 0.02326,-0.0858 0.01188,-0.0527 0.0098,-0.0506 0.150376,-0.99425 0.0078,-0.0527 0.0041,-0.0527 0.05064,-1.02371 -0.376721,-0.86507 z m 68.3772214,0.1111 -0.728636,0.59996 -0.08992,0.37879 -0.04703,0.96067 -0.136425,0.8909 -0.01035,0.0388 0.0021,0.0119 v 0.006 h 0.0021 l 0.19327,0.90434 0.855761,0.39842 0.696082,-0.36845 -0.04547,0.48576 0.697113,0.63459 0.386541,0.0351 1.320337,-0.12093 0.0232,-0.002 0.0259,-0.004 0.7829,-0.10748 0.77928,-0.53331 0.0429,-0.94309 -0.72657,-0.60358 -0.38654,-0.0176 -0.73639,0.10335 -0.0196,0.002 -1.298629,0.11886 -0.495059,0.30592 0.147277,-0.96222 0.0083,-0.0527 0.0021,-0.0527 0.05271,-1.02319 -0.378788,-0.86506 z m -96.424089,0.1819 -0.693497,0.64027 0.09199,0.93948 0.263549,0.28525 0.295074,0.22066 0.06253,0.047 0.07028,0.0372 0.728638,0.39067 0.05271,0.0289 0.05633,0.0217 0.855764,0.34159 0.939477,-0.078 0.503846,-0.79685 -0.33228,-0.88265 -0.328146,-0.20722 -0.796851,-0.31833 -0.612881,-0.33021 -0.226859,-0.1695 z m 105.868992,0.57981 -0.34158,0.1819 -0.21704,0.17157 -0.55242,0.32453 -0.72089,0.31832 -0.0351,0.01 -0.008,0.008 -0.66404,0.65423 0.12299,0.93534 0.8201,0.46509 0.38499,-0.0506 0.0878,-0.0274 0.0486,-0.016 0.047,-0.0212 0.81029,-0.35554 0.0589,-0.0253 0.0548,-0.0315 0.67541,-0.39635 0.0625,-0.0372 0.0589,-0.0465 0.27698,-0.21911 0.40256,-0.85525 -0.44131,-0.83405 z m -99.390318,1.32653 -0.906404,0.26355 -0.337963,0.88057 0.502296,0.80099 0.361217,0.13849 0.179316,0.0315 0.01963,0.004 0.0217,0.004 1.777669,0.25373 -0.119372,0.23048 0.06408,0.38292 0.03514,0.0977 0.01963,0.0486 0.0217,0.047 0.42168,0.87488 0.0217,0.045 0.02739,0.045 0.49971,0.82424 0.02739,0.0429 0.02945,0.0413 0.04651,0.0625 0.841809,0.42374 0.848008,-0.41806 0.177769,-0.92552 -0.162264,-0.3266 -0.0098,-0.0212 -0.01757,-0.0238 -0.44545,-0.73587 -0.373105,-0.77153 -0.02119,-0.0589 -0.685747,-0.64854 -0.05323,0.009 0.141076,-0.41496 -0.531233,-0.78135 -0.366903,-0.12299 -1.875337,-0.26923 -0.0057,-0.002 z m 25.1602216,1.57769 -0.851627,0.40669 -0.187585,0.92346 0.623218,0.709 0.380855,0.0765 2.11511597,0.0367 0.851628,-0.40618 0.189135,-0.92346 -0.6227,-0.709 -0.380854,-0.0765 z m 45.3998154,0.0589 -0.984438,0.0134 -0.83974,0.43201 -0.160197,0.92966 0.646472,0.68936 0.380855,0.0641 0.637169,-0.007 0.197406,0.4098 0.02326,0.047 0.02532,0.045 0.501777,0.82424 0.02585,0.0429 0.03101,0.0408 0.04496,0.0605 0.843875,0.42581 0.845428,-0.41806 0.177766,-0.92553 -0.160197,-0.32608 -0.0021,-0.002 -0.0098,-0.0217 -0.01394,-0.0191 -0.449069,-0.73845 -0.375171,-0.77722 -0.01913,-0.0527 -0.685747,-0.64854 -0.673343,-0.0879 z m -39.0503314,0.0506 -0.851627,0.40617 -0.189654,0.92398 0.625285,0.709 0.378788,0.076 2.117185,0.0372 0.851628,-0.40618 0.189651,-0.92397 -0.625285,-0.709 -0.378788,-0.078 z m 33.8341104,0.0196 -2.117183,0.0274 -0.840258,0.43149 -0.159681,0.93173 0.646472,0.6873 0.382405,0.0667 2.115635,-0.0295 0.839742,-0.4315 0.160197,-0.92966 -0.646472,-0.68781 z m -27.4944444,0.0548 -0.847495,0.41393 -0.181901,0.92552 0.63097,0.70125 0.380855,0.0744 2.1171824,0.0176 0.848011,-0.41393 0.181385,-0.92604 -0.63097,-0.7028 -0.380855,-0.0744 z m 21.1506464,0.008 -2.115116,0.0134 -0.841809,0.42581 -0.168466,0.92966 0.640789,0.6935 0.382921,0.0682 2.115116,-0.0134 0.843878,-0.42582 0.165881,-0.92966 -0.640271,-0.6935 z m -14.808915,0.0351 -0.845428,0.42168 -0.172082,0.92759 0.635103,0.69763 0.382407,0.0703 2.115633,0.002 0.845425,-0.4222 0.173633,-0.92759 -0.636653,-0.69711 -0.380855,-0.0703 z m 6.35,0.004 -0.843877,0.42013 -0.174149,0.92759 0.637169,0.69763 0.380857,0.0718 h 2.117183 l 0.843359,-0.41961 0.174149,-0.9276 -0.636653,-0.69763 -0.380855,-0.0724 z m -30.3164954,1.96112 -0.93948,0.092 -0.285252,0.26355 -0.293005,0.39274 -0.57826,0.63665 -0.4175446,0.37879 -0.342098,0.87902 0.4960936,0.80253 0.939477,0.0879 0.330213,-0.20309 0.454753,-0.41392 0.03721,-0.0331 0.03307,-0.0372 0.646473,-0.71107 0.03359,-0.0372 0.03101,-0.0408 0.324528,-0.43357 0.167949,-0.92966 z m 68.3787714,0.1111 -0.939477,0.092 -0.285255,0.26356 -0.294556,0.39274 -0.568441,0.62683 -0.427879,0.38861 -0.341582,0.87901 0.496094,0.80305 0.939477,0.0879 0.329697,-0.20308 0.455269,-0.41445 0.03721,-0.0331 0.03514,-0.0372 0.644404,-0.71107 0.03514,-0.0367 0.02945,-0.0413 0.324011,-0.43356 0.170016,-0.92966 z m -82.378952,2.50218 -0.628901,0.70331 0.181901,0.92759 0.288872,0.25787 0.423746,0.25787 0.04496,0.0274 0.04496,0.0212 0.874882,0.42219 0.04703,0.0212 0.04857,0.0176 0.609782,0.2248 0.937411,-0.10542 0.48214,-0.81081 -0.357082,-0.87488 -0.334349,-0.1974 -0.550354,-0.20102 -0.793232,-0.38086 -0.380857,-0.23048 z m 68.377223,0.1111 -0.628904,0.70332 0.181385,0.92604 0.288873,0.25941 0.425812,0.25787 0.04341,0.0274 0.04651,0.0217 0.873331,0.42168 0.04702,0.0217 0.04858,0.0176 0.61133,0.22428 0.937411,-0.10542 0.480592,-0.81236 -0.3576,-0.87333 -0.33383,-0.19689 -0.548804,-0.20153 -0.794785,-0.38086 -0.379304,-0.23048 z m -59.711084,0.84026 -0.386541,0.0274 -0.890902,0.22841 -0.884698,0.13487 -0.08992,0.006 -0.822171,0.46302 -0.125058,0.93535 0.669727,0.66404 0.384989,0.0506 0.136944,-0.006 0.05271,-0.004 0.05271,-0.008 0.992188,-0.15038 0.05271,-0.01 0.05271,-0.0114 0.945163,-0.24443 0.713134,-0.61702 -0.0646,-0.94154 z m 68.376704,0.1111 -0.38654,0.0274 -0.890384,0.22841 -0.885216,0.13488 -0.08785,0.006 -0.822172,0.46302 -0.127124,0.93534 0.670245,0.66456 0.384471,0.0506 0.136943,-0.006 0.05478,-0.004 0.05271,-0.008 0.992188,-0.15245 0.05271,-0.008 0.05064,-0.0119 0.94516,-0.24391 0.713134,-0.61753 -0.06253,-0.94103 z"
       style="color:#000000;font-style:normal;font-variant:normal;font-weight:normal;font-stretch:normal;font-size:medium;line-height:normal;font-family:sans-serif;font-variant-ligatures:normal;font-variant-position:normal;font-variant-caps:normal;font-variant-numeric:normal;font-variant-alternates:normal;font-feature-settings:normal;text-indent:0;text-align:start;text-decoration:none;text-decoration-line:none;text-decoration-style:solid;text-decoration-color:#000000;letter-spacing:normal;word-spacing:normal;text-transform:none;writing-mode:lr-tb;direction:ltr;text-orientation:mixed;dominant-baseline:auto;baseline-shift:baseline;text-anchor:start;white-space:normal;shape-padding:0;clip-rule:nonzero;display:inline;overflow:visible;visibility:visible;opacity:1;isolation:auto;mix-blend-mode:normal;color-interpolation:sRGB;color-interpolation-filters:linearRGB;solid-color:#000000;solid-opacity:1;vector-effect:none;fill:#000000;fill-opacity:1;fill-rule:nonzero;stroke:none;stroke-width:2.11666656;stroke-linecap:round;stroke-linejoin:miter;stroke-miterlimit:4;stroke-dasharray:2.11666654, 4.23333308000000041;stroke-dashoffset:0;stroke-opacity:1;color-rendering:auto;image-rendering:auto;shape-rendering:auto;text-rendering:auto;enable-background:accumulate" />
  </g>
</svg>
