<?xml version="1.0" encoding="UTF-8" standalone="no"?>
<svg
   xmlns:dc="http://purl.org/dc/elements/1.1/"
   xmlns:cc="http://creativecommons.org/ns#"
   xmlns:rdf="http://www.w3.org/1999/02/22-rdf-syntax-ns#"
   xmlns:svg="http://www.w3.org/2000/svg"
   xmlns="http://www.w3.org/2000/svg"
   id="svg5287"
   version="1.1"
   viewBox="0 0 108.76286 40.571945"
   height="40.571945mm"
   width="108.76286mm">
  <defs
     id="defs5281" />
  <metadata
     id="metadata5284">
    <rdf:RDF>
      <cc:Work
         rdf:about="">
        <dc:format>image/svg+xml</dc:format>
        <dc:type
           rdf:resource="http://purl.org/dc/dcmitype/StillImage" />
        <dc:title></dc:title>
      </cc:Work>
    </rdf:RDF>
  </metadata>
  <g
     transform="translate(31.274111,-69.192515)"
     id="layer1">
    <path
       id="path834-3-8-3"
       d="m 35.114844,69.192773 c -5.60083,-0.01381 -11.207028,0.526785 -15.878617,1.607653 -4.63981,1.073513 -9.3424592,3.394668 -13.1718052,5.562452 -1.914671,1.083895 -3.612946,2.127565 -4.982644,2.958994 -1.36969198,0.831426 -2.37775,1.444448 -3.070095,1.701186 -0.692375,0.256754 -1.877606,0.457695 -3.429765,0.677479 -1.552159,0.219784 -3.439657,0.441359 -5.3945018,0.668176 -3.909714,0.453639 -8.108738,0.934649 -10.324436,1.44694 -4.483418,1.036622 -6.002742,2.478915 -7.369059,4.923731 -1.366316,2.4448 -2.446213,5.855564 -2.724383,8.564853 -0.06954,0.67732 -0.07692,1.234707 0.136428,1.714621 0.213344,0.479917 0.658428,0.953522 1.689819,1.429892 1.222507,0.56463 3.247769,1.08 6.436299,1.51463 -0.11349,-0.61778 -0.175699,-1.25297 -0.175699,-1.90324 0,-5.793066 4.707067,-10.500135 10.500133,-10.500135 5.7930678,0 10.4996188,4.707069 10.4996188,10.500135 0,1.10465 -0.172183,2.16928 -0.489376,3.16983 14.7876122,0.41069 33.9632552,0.38989 48.3572552,0.14831 -0.30585,-0.98415 -0.470773,-2.0301 -0.470773,-3.11402 0,-5.793067 4.707065,-10.500131 10.500135,-10.500133 5.79306,0 10.500133,4.707066 10.500133,10.500133 0,0.81633 -0.09657,1.60992 -0.273368,2.37298 2.201892,-0.18462 3.949157,-0.40785 5.291147,-0.69246 1.61016,-0.34149 2.67485,-0.76429 3.41788,-1.27176 0.74305,-0.50746 1.18609,-1.098479 1.56838,-1.880502 1.52916,-3.128074 1.54799,-8.901056 0.52917,-11.992551 C 76.27729,85.25421 75.56004,84.366335 74.44733,83.479756 73.33461,82.593177 71.81564,81.736936 69.83572,80.39209 65.875842,77.702397 60.264693,73.179964 50.962973,70.909464 46.312262,69.774248 40.716192,69.206664 35.11536,69.192773 Z m -47.758326,21.367171 c -5.252625,0 -9.500193,4.247571 -9.500193,9.500196 -3e-6,5.25263 4.247568,9.49968 9.500193,9.49968 5.2526298,0 9.4996788,-4.24705 9.4996788,-9.49968 0,-5.252625 -4.247049,-9.500196 -9.4996788,-9.500196 z m 68.39686,0.204122 c -5.25263,0 -9.49969,4.247569 -9.499679,9.500194 0,5.25263 4.247049,9.5002 9.499679,9.5002 5.25262,0 9.500185,-4.24757 9.500195,-9.5002 0,-5.252625 -4.247575,-9.500194 -9.500195,-9.500194 z"
       style="fill:#000000;stroke:none;stroke-width:1;stroke-linecap:butt;stroke-linejoin:miter;stroke-miterlimit:4;stroke-dasharray:none;stroke-opacity:1" />
  </g>
</svg>
