<?xml version="1.0" encoding="UTF-8" standalone="no"?>
<!-- Created with Inkscape (http://www.inkscape.org/) -->

<svg
   xmlns:dc="http://purl.org/dc/elements/1.1/"
   xmlns:cc="http://creativecommons.org/ns#"
   xmlns:rdf="http://www.w3.org/1999/02/22-rdf-syntax-ns#"
   xmlns:svg="http://www.w3.org/2000/svg"
   xmlns="http://www.w3.org/2000/svg"
   version="1.0"
   width="585"
   height="585"
   viewBox="0 0 468 468"
   id="svg2996">
  <defs
     id="defs3012" />
  <metadata
     id="metadata2998">
Created by potrace 1.8, written by Peter Selinger 2001-2007
<rdf:RDF>
  <cc:Work
     rdf:about="">
    <dc:format>image/svg+xml</dc:format>
    <dc:type
       rdf:resource="http://purl.org/dc/dcmitype/StillImage" />
    <dc:title></dc:title>
  </cc:Work>
</rdf:RDF>
</metadata>
  <path
     d="m 531.59375,149.28125 c -3.91798,-0.0335 -11.73911,0.90713 -27.375,2.90625 -15.3017,1.95638 -31.34132,3.73858 -35.625,4 -4.2837,0.26143 -8.38861,0.8765 -9.125,1.34375 -0.73638,0.46724 -8.05265,1.58351 -16.25,2.5 -44.77896,5.0065 -97.60699,12.45319 -99.375,14 -2.11145,1.84723 -1.87825,2.22237 7.84375,15.3125 4.23205,5.69823 4.7741,7.27752 2.9375,8.3125 -1.24524,0.70174 -15.62353,2.22666 -31.96875,3.4375 -16.34521,1.21081 -47.81645,3.60832 -69.9375,5.25 -22.121,1.64169 -41.1021,3.4988 -42.1875,4.1875 -2.90046,1.84043 -0.54462,6.45343 12.71875,24.4375 7.99113,10.8354 11.65209,16.84361 11.125,18.28125 -0.54205,1.47849 -4.02731,1.88484 -11.1875,1.28125 -5.71309,-0.48157 -15.22043,-1.18244 -21.1875,-1.5625 -5.96708,-0.38009 -32.80234,-2.21269 -59.625,-4.0625 -48.870068,-3.37031 -58.395183,-3.52481 -59.34375,-0.9375 -0.279983,0.76371 16.77599,28.56083 37.875,61.8125 l 38.375,60.46875 -36.9375,23.4375 C 102.70426,406.14924 91.424864,413.62079 87.21875,417 L 101.5,439.46875 c 3.21529,-1.55511 19.22946,-11.36424 37.46875,-22.9375 l 35.40625,-22.46875 39.03125,61.5 c 21.47466,33.81492 40.01884,61.79753 41.21875,62.1875 2.28584,0.74285 6.92437,-10.43543 40.65625,-97.59375 8.89796,-22.99106 17.05923,-41.90332 18.09375,-42.03125 1.1819,-0.14611 6.39199,7.53175 13.96875,20.6875 10.79929,18.75108 12.27482,20.78995 14.40625,19.4375 1.30893,-0.83054 10.6177,-16.15511 20.71875,-34.03125 10.101,-17.87615 22.66886,-39.74838 27.875,-48.625 5.20614,-8.8766 11.83191,-20.50414 14.71875,-25.84375 2.88688,-5.3396 6.18779,-11.53238 7.40625,-13.75 1.27719,-2.32454 3.03256,-3.93166 4.09375,-3.78125 1.01238,0.14349 4.18908,5.19261 7.0625,11.21875 3.02126,6.33625 6.05113,11.02406 7.1875,11.125 1.15465,0.1025 12.8125,-16.84697 28.28125,-41.125 14.47938,-22.72526 28.08797,-43.76568 30.1875,-46.75 2.09951,-2.98434 4.93457,-7.76325 6.34375,-10.625 1.40915,-2.86175 3.41064,-5.7661 4.46875,-6.4375 1.0581,-0.67139 2.2201,-2.37494 2.59375,-3.78125 0.37364,-1.40628 7.98904,-13.91713 16.875,-27.78125 8.88596,-13.86415 16.06035,-25.91104 15.96875,-26.8125 -0.0356,-0.35097 -0.0993,-0.64665 -0.25,-0.90625 -0.3957,-0.68147 -1.33671,-1.04242 -3.6875,-1.0625 z M 505,161.0625 c -2.35508,3.93229 -4.02693,6.8644 -4.1875,7.46875 -0.37365,1.40631 -1.53565,3.10986 -2.59375,3.78125 -1.05811,0.6714 -3.09085,3.5445 -4.5,6.40625 -1.40916,2.86175 -4.24425,7.67191 -6.34375,10.65625 -2.09954,2.98432 -15.70812,23.9935 -30.1875,46.71875 -15.46875,24.27805 -27.1266,41.25875 -28.28125,41.15625 -1.13638,-0.10094 -4.16624,-4.82 -7.1875,-11.15625 -2.87341,-6.02614 -6.05014,-11.07525 -7.0625,-11.21875 -1.0612,-0.1504 -2.78531,1.45671 -4.0625,3.78125 -1.21846,2.21765 -4.55063,8.4104 -7.4375,13.75 -2.88682,5.33961 -9.5126,16.96715 -14.71875,25.84375 -5.20614,8.87665 -17.74275,30.7801 -27.84375,48.65625 -10.10105,17.87615 -19.44109,33.16946 -20.75,34 -2.13144,1.35245 -3.60699,-0.65515 -14.40625,-19.40625 -7.57677,-13.15575 -12.78685,-20.86485 -13.96875,-20.71875 -1.03453,0.12795 -9.16454,19.0402 -18.0625,42.03125 -33.73186,87.15835 -38.40166,98.36785 -40.6875,97.625 -1.19991,-0.38999 -19.74407,-28.40384 -41.21875,-62.21875 l -32.875,-51.78125 25.78125,-16.21875 4.625,7.28125 c 21.47467,33.8149 40.01884,61.7975 41.21875,62.1875 2.28584,0.74285 6.92439,-10.4354 40.65625,-97.59375 5.77431,-14.92 11.19552,-28.03436 14.59375,-35.5 l 6.15625,-3.875 c 2.47811,3.27879 6.38881,9.48212 11.3125,18.03125 10.79926,18.7511 12.27481,20.78995 14.40625,19.4375 1.30891,-0.83054 10.6177,-16.1551 20.71875,-34.03125 10.101,-17.87615 22.66886,-39.74835 27.875,-48.625 0.46131,-0.78655 0.95747,-1.67654 1.4375,-2.5 L 423.125,212.5625 c 1.47244,2.38036 2.68166,3.8815 3.3125,3.9375 0.58267,0.0517 3.86541,-4.24145 8.9375,-11.625 L 505,161.0625 z"
     transform="scale(0.8,0.8)"
     id="path3376"
     style="fill:#000000;stroke:none" />
  <path
     d="m 249.16918,370.84839 c -15.17898,-7.564 -16.52689,-29.22363 -2.39678,-38.51402 13.86644,-9.11703 32.84952,-1.49018 35.72679,14.35401 3.41201,18.78872 -15.94765,32.822 -33.33001,24.16001 z m 21.42309,-2.51532 c 5.69308,-2.75597 8.13989,-6.81109 8.14466,-13.49813 0.002,-2.86302 -0.35985,-5.2055 -0.80418,-5.2055 -0.44433,0 -1.55469,1.56608 -2.46747,3.48018 -2.45516,5.14855 -8.86568,11.65875 -14.01014,14.22802 -2.49044,1.24378 -4.52806,2.45322 -4.52806,2.68763 0,1.35617 9.90074,0.13014 13.66519,-1.6922 z"
     id="path3527"
     style="fill:#000000;fill-opacity:1;stroke:none" />
  <path
     d="m 342.23783,288.60801 c -15.17898,-7.564 -16.52689,-29.22363 -2.39678,-38.51402 13.86644,-9.11703 32.84952,-1.49018 35.72679,14.35401 3.41201,18.78872 -15.94765,32.822 -33.33001,24.16001 z m 21.42309,-2.51532 c 5.69308,-2.75597 8.13989,-6.81109 8.14466,-13.49813 0.002,-2.86302 -0.35985,-5.2055 -0.80418,-5.2055 -0.44433,0 -1.55469,1.56608 -2.46747,3.48018 -2.45516,5.14855 -8.86568,11.65875 -14.01014,14.22802 -2.49044,1.24378 -4.52806,2.45322 -4.52806,2.68763 0,1.35617 9.90074,0.13014 13.66519,-1.6922 z"
     id="path3527-7"
     style="fill:#000000;fill-opacity:1;stroke:none" />
</svg>
