<?xml version="1.0" encoding="UTF-8" standalone="no"?>
<!-- Created with Inkscape (http://www.inkscape.org/) -->

<svg
   xmlns:dc="http://purl.org/dc/elements/1.1/"
   xmlns:cc="http://creativecommons.org/ns#"
   xmlns:rdf="http://www.w3.org/1999/02/22-rdf-syntax-ns#"
   xmlns:svg="http://www.w3.org/2000/svg"
   xmlns="http://www.w3.org/2000/svg"
   xmlns:sodipodi="http://sodipodi.sourceforge.net/DTD/sodipodi-0.dtd"
   xmlns:inkscape="http://www.inkscape.org/namespaces/inkscape"
   version="1.0"
   width="468pt"
   height="468pt"
   viewBox="0 0 468 468"
   id="svg2"
   inkscape:version="0.91pre3 r13670"
   sodipodi:docname="clock.svg">
  <sodipodi:namedview
     pagecolor="#ffffff"
     bordercolor="#666666"
     borderopacity="1"
     objecttolerance="10"
     gridtolerance="10"
     guidetolerance="10"
     inkscape:pageopacity="0"
     inkscape:pageshadow="2"
     inkscape:window-width="1050"
     inkscape:window-height="714"
     id="namedview8"
     showgrid="false"
     inkscape:zoom="0.4034188"
     inkscape:cx="843.29684"
     inkscape:cy="338.91285"
     inkscape:window-x="2314"
     inkscape:window-y="189"
     inkscape:window-maximized="0"
     inkscape:current-layer="svg2" />
  <defs
     id="defs12" />
  <metadata
     id="metadata4">
Created by potrace 1.8, written by Peter Selinger 2001-2007
<rdf:RDF>
  <cc:Work
     rdf:about="">
    <dc:format>image/svg+xml</dc:format>
    <dc:type
       rdf:resource="http://purl.org/dc/dcmitype/StillImage" />
    <dc:title></dc:title>
  </cc:Work>
</rdf:RDF>
</metadata>
  <path fill="#000000"
     inkscape:connector-curvature="0"
     style="fill:#000000"
     d="m 235.21118,42.565708 c 106.02021,0 192.25949,86.256682 192.25949,192.259492 0,106.02021 -86.23928,192.27689 -192.25949,192.27689 -106.02021,0 -192.259494,-86.25668 -192.259494,-192.27689 0,-106.00281 86.256674,-192.259492 192.259494,-192.259492 m 0,-34.794949 c -125.401,0 -227.054441,101.653441 -227.054441,227.054441 0,125.401 101.653441,227.07184 227.054441,227.07184 125.401,0 227.05444,-101.67084 227.05444,-227.07184 0,-125.401 -101.65344,-227.054441 -227.05444,-227.054441 l 0,0 z"
     id="path6" />
  <rect fill="#000000"
     id="rect3352"
     width="19.830507"
     height="199.2966"
     x="202.95865"
     y="68.804626"
     transform="matrix(0.99567707,-0.09288258,0.09288258,0.99567707,0,0)" />
  <rect fill="#000000"
     id="rect3352-1"
     width="26.957087"
     height="91.804184"
     x="-66.482391"
     y="327.8287"
     transform="matrix(0.57341626,-0.81926418,0.80783051,0.58941485,0,0)" />
</svg>
