<?xml version="1.0" encoding="UTF-8"?>
<svg xmlns="http://www.w3.org/2000/svg" xmlns:xlink="http://www.w3.org/1999/xlink" width="496px" height="512px" viewBox="0 0 496 512" version="1.1">
  <defs/>
  <g fill="#000000" id="layer1">
    <path d="M445.505157,399.407318 C452.654358,405.535187 457.580383,414.621613 460,418.4375 L489.831451,387.807587 C501.975861,376.675201 491.046692,358.672943 491.046692,358.672943 L313.940735,130.965256 C309.892578,99.5922012 317.332489,99.2489471 327.097168,81.3755874 C334.285126,68.2186508 332.295899,59.0608672 324.96518,55.1818542 C307.488648,91.0713882 242.42363,226.433792 242.42363,226.433792 L64.1519394,405.253326 L50.8118553,399.154297 C121.648891,329.119049 206.922329,244.703278 229.436993,222.803299 C215.932659,224.145828 211.352245,227.067825 211.980205,216.553116 L303.370083,54.5614472 C296.654049,53.9463463 291.485592,44.771206 287.570888,33.9767075 L199.966808,183.524818 L35.2701149,359.74823 C30.2130966,365.155579 22.0822315,357.551483 27.1392517,352.144134 L191.042328,176.869995 L283.136505,19.5127868 C279.926269,0.8771343 275.266327,-6.3705044 263.33902,6.4850711 L103.43763,190.675278 L2.2342193,353.612762 C-4.6569274,382.245544 3.393018,389.165283 40.4751975,414.659302 C47.3428733,419.380768 56.9281051,421.760895 67.9405219,418.411133 L72.9221198,480.325623 L86.8278968,494.231476 L378.077393,512 C378.077393,512 400.481262,493.458923 417.477234,475.690369 C434.473236,457.921845 426.747772,456.37674 421.339935,450.196381 C415.932129,444.015991 415.932129,423.92981 415.932129,412.341644 C415.625,402.75 434.5,388.125 445.505157,399.407318 Z M419.647705,372.229401 C420.292999,376.316528 420.110107,381.13678 419.512115,385.964813 L178.328155,382.287048 C114.509811,409.440063 142.199509,397.891846 83.4724426,410.150116 C99.8955154,399.154297 111.027885,370.817352 156.738113,328.31192 C205.359802,283.939941 267.462952,228.556137 276.158142,199.446197 C377.0242,336.070831 416.49353,352.600738 419.647705,372.229401 Z" id="Shape"/>
  </g>
</svg>
