<?xml version="1.0" encoding="UTF-8" standalone="no"?>
<!-- Created with Inkscape (http://www.inkscape.org/) -->

<svg
   xmlns:dc="http://purl.org/dc/elements/1.1/"
   xmlns:cc="http://creativecommons.org/ns#"
   xmlns:rdf="http://www.w3.org/1999/02/22-rdf-syntax-ns#"
   xmlns:svg="http://www.w3.org/2000/svg"
   xmlns="http://www.w3.org/2000/svg"
   xmlns:sodipodi="http://sodipodi.sourceforge.net/DTD/sodipodi-0.dtd"
   xmlns:inkscape="http://www.inkscape.org/namespaces/inkscape"
   version="1.0"
   width="585"
   height="585"
   viewBox="0 0 585 585"
   id="svg2421"
   inkscape:version="0.48.4 r9939"
   sodipodi:docname="cul.svg">
  <metadata
     id="metadata25">
    <rdf:RDF>
      <cc:Work
         rdf:about="">
        <dc:format>image/svg+xml</dc:format>
        <dc:type
           rdf:resource="http://purl.org/dc/dcmitype/StillImage" />
        <dc:title />
      </cc:Work>
    </rdf:RDF>
  </metadata>
  <defs
     id="defs23" />
  <sodipodi:namedview
     pagecolor="#ffffff"
     bordercolor="#666666"
     borderopacity="1"
     objecttolerance="10"
     gridtolerance="10"
     guidetolerance="10"
     inkscape:pageopacity="0"
     inkscape:pageshadow="2"
     inkscape:window-width="1858"
     inkscape:window-height="1057"
     id="namedview21"
     showgrid="false"
     inkscape:zoom="1.6136752"
     inkscape:cx="205.42818"
     inkscape:cy="290.88503"
     inkscape:window-x="1734"
     inkscape:window-y="-8"
     inkscape:window-maximized="1"
     inkscape:current-layer="svg2421" />
  <g
     id="g3833"
     transform="translate(0,8)">
    <path
       style="font-size:medium;font-style:normal;font-variant:normal;font-weight:normal;font-stretch:normal;text-indent:0;text-align:start;text-decoration:none;line-height:normal;letter-spacing:normal;word-spacing:normal;text-transform:none;direction:ltr;block-progression:tb;writing-mode:lr-tb;text-anchor:start;baseline-shift:baseline;color:#000000;marker:none;visibility:visible;display:inline;overflow:visible;enable-background:accumulate;font-family:Sans;-inkscape-font-specification:Sans"
       d="m 232.8125,556.15625 c -4.43254,0 -8.0625,-3.71576 -8.0625,-8.125 l 0,-106.25 c 0,-4.40924 3.62996,-8.125 8.0625,-8.125 l 127.46875,0 c 4.43254,0 8.0625,3.71576 8.0625,8.125 l 0,106.25 c 0,4.40924 -3.62996,8.125 -8.0625,8.125 l -127.46875,0 z m 0,-7.625 127.46875,0 c 0.29411,0 0.4375,-0.1175 0.4375,-0.5 l 0,-106.25 c 0,-0.3825 -0.14339,-0.5 -0.4375,-0.5 l -127.46875,0 c -0.29411,0 -0.4375,0.1175 -0.4375,0.5 l 0,106.25 c 0,0.3825 0.14339,0.5 0.4375,0.5 z"
       id="rect3448"
       fill="#000000"
       stroke="none"
       inkscape:connector-curvature="0" />
    <path
       style="font-size:medium;font-style:normal;font-variant:normal;font-weight:normal;font-stretch:normal;text-indent:0;text-align:start;text-decoration:none;line-height:normal;letter-spacing:normal;word-spacing:normal;text-transform:none;direction:ltr;block-progression:tb;writing-mode:lr-tb;text-anchor:start;baseline-shift:baseline;opacity:1;marker:none;visibility:visible;display:inline;overflow:visible;enable-background:accumulate;font-family:Sans;-inkscape-font-specification:Sans"
       d="m 307.84375,517.875 0,-3.5 0,-31.25 0,-3.5 3.5,0 30.84375,0 3.5,0 0,3.5 0,31.25 0,3.5 -3.5,0 -30.84375,0 -3.5,0 z m 7,-7 23.84375,0 0,-24.25 -23.84375,0 0,24.25 z"
       id="rect3502"
       fill="#000000"
       stroke="none"
       inkscape:connector-curvature="0" />
    <path
       style="font-size:medium;font-style:normal;font-variant:normal;font-weight:normal;font-stretch:normal;text-indent:0;text-align:start;text-decoration:none;line-height:normal;letter-spacing:normal;word-spacing:normal;text-transform:none;direction:ltr;block-progression:tb;writing-mode:lr-tb;text-anchor:start;baseline-shift:baseline;opacity:1;color:#000000;fill:#000000;fill-opacity:1;stroke:none;marker:none;visibility:visible;display:inline;overflow:visible;enable-background:accumulate;font-family:Sans;-inkscape-font-specification:Sans"
       d="m 246.96875,517.09375 0,-3.5 0,-31.21875 0,-3.5 3.5,0 30.8125,0 3.5,0 0,3.5 0,31.21875 0,3.5 -3.5,0 -30.8125,0 -3.5,0 z m 6.96875,-7 23.84375,0 0,-24.25 -23.84375,0 0,24.25 z"
       id="rect3502-1"
       fill="#000000"
       stroke="none"
       inkscape:connector-curvature="0" />
  </g>
  <path
     style="font-size:medium;font-style:normal;font-variant:normal;font-weight:normal;font-stretch:normal;text-indent:0;text-align:start;text-decoration:none;line-height:normal;letter-spacing:normal;word-spacing:normal;text-transform:none;direction:ltr;block-progression:tb;writing-mode:lr-tb;text-anchor:start;baseline-shift:baseline;color:#000000;fill:#000000;fill-opacity:1;stroke:none;marker:none;visibility:visible;display:inline;overflow:visible;enable-background:accumulate;font-family:Sans;-inkscape-font-specification:Sans"
     d="m 236.25,24.8125 c -22.32144,0 -39.625,21.323896 -39.625,46.84375 l 0,331.75 c 0,25.51985 17.30356,46.84375 39.625,46.84375 l 116.6875,0 c 22.32144,0 39.65625,-21.3239 39.65625,-46.84375 l 0,-331.75 c 0,-25.519854 -17.33481,-46.84375 -39.65625,-46.84375 l -116.6875,0 z m 0,8 116.6875,0 c 17.15909,0 31.65625,16.894981 31.65625,38.84375 l 0,331.75 c 0,21.94877 -14.49716,38.84375 -31.65625,38.84375 l -116.6875,0 c -17.15909,0 -31.625,-16.89498 -31.625,-38.84375 l 0,-331.75 c 0,-21.948769 14.46591,-38.84375 31.625,-38.84375 z"
     id="rect3207"
     fill="#000000"
     stroke="none"
     inkscape:connector-curvature="0" />
  <path
     d="m 307.67175,399.12827 -0.0789,-21.59434 27.95363,-0.20156 0.0789,21.59433 z"
     id="rect97"
     inkscape:connector-curvature="0"
     style="fill:#000000;stroke:none" />
  <path
     d="m 225.04602,356.53426 -0.2368,-64.77894 23.06204,-0.16629 0.2368,64.77894 z"
     id="rect99"
     inkscape:connector-curvature="0"
     style="fill:#000000;stroke:none" />
  <path
     style="fill:#000000;stroke:none"
     d="m 325.92733,232.13948 -0.15071,-41.22812 32.14726,-0.2318 0.15072,41.22812 z"
     id="rect101"
     inkscape:connector-curvature="0" />
  <path
     style="fill:#000000;stroke:none"
     d="m 357.45513,260.55285 13.27884,-0.0957 -0.043,-11.77136 -4.90025,0.0353 -0.6889,-188.451144 -145.35488,1.048097 0.31575,86.373277 47.5258,-0.34269 0.33014,90.31056 -47.5258,0.34269 0.67448,184.50576 145.35488,-1.0481 -0.0574,-15.7046 4.90025,-0.0353 -0.0431,-11.77946 -13.27885,0.0957 0.0575,15.71676 -128.59769,0.92726 -0.58842,-160.96303 47.52577,-0.35079 -0.41621,-113.85329 -47.52579,0.34269 -0.2296,-62.806247 128.59769,-0.927268 z"
     id="polygon111"
     inkscape:connector-curvature="0" />
  <path
     style="fill:#000000;stroke:none"
     d="m 333.81907,286.4359 c -0.2564,-70.66599 -0.51281,-141.33198 -0.76921,-211.997971 -11.18203,0.08063 -22.36406,0.161259 -33.5461,0.241888 0.2392,65.433813 0.4784,130.867623 0.7176,196.301433 -16.7716,0.12093 -33.5432,0.24187 -50.31481,0.3628 0.1435,39.25542 0.28701,78.51085 0.43051,117.76627 34.47576,-0.24859 68.95153,-0.49719 103.4273,-0.74578 0.47042,-3.67197 -0.98252,-9.2465 0.63442,-11.78435 6.99715,-0.0505 13.9943,-0.10091 20.99145,-0.15136 -0.49838,-3.65978 0.91646,-9.25368 -0.72052,-11.76242 -9.79194,0.0706 -19.58387,0.14121 -29.37581,0.21182 -0.47042,3.67197 0.98252,9.2465 -0.63442,11.78435 -28.66132,0.20666 -57.32263,0.41333 -85.98394,0.61999 -0.11482,-31.4092 -0.22964,-62.8184 -0.34446,-94.2276 16.77353,-0.12095 33.54706,-0.24189 50.32058,-0.36284 -0.23919,-65.43111 -0.47838,-130.86222 -0.71757,-196.29333 5.59054,-0.0403 11.18107,-0.0806 16.7716,-0.12093 0.26024,70.66326 0.52048,141.32652 0.78072,211.98978 16.53895,-0.11925 33.07789,-0.23851 49.61684,-0.35776 -0.498,-3.66152 0.91593,-9.25586 -0.72052,-11.76648 -13.52122,0.0975 -27.04244,0.19499 -40.56366,0.29249 z"
     id="polygon3834"
     inkscape:connector-curvature="0" />
  <path
     style="fill:#000000;stroke:none"
     d="m 312.55041,362.99858 -30.75997,0.2218 -0.15071,-41.22812 91.5588,-0.66829 -0.043,-11.76731 -99.9403,0.72063 0.23676,64.76679 47.51714,-0.34263 -0.0861,-23.54677 52.42315,-0.38206 -0.043,-11.77136 -60.79887,0.4384 z"
     id="polygon123"
     inkscape:connector-curvature="0" />
  <path
     style="fill:#000000;fill-opacity:1;stroke:none"
     d="m 308.02172,315.75996 -0.007,-2.02536 -0.15429,-42.20839 -0.007,-2.02535 1.4421,-0.0104 30.04757,-0.21666 1.44209,-0.0104 0.007,2.02535 0.15429,42.20839 0.007,2.02536 -1.4421,0.0104 -30.04756,0.21666 z"
     id="polygon136"
     inkscape:connector-curvature="0" />
  <path
     style="fill:#000000;fill-opacity:1"
     d="m 300.80961,160.72647 -0.007,-2.02536 -0.22964,-62.8184 -0.007,-2.02535 1.4421,-0.0104 27.95076,-0.20154 1.44209,-0.0104 0.007,2.02535 0.22964,62.8184 0.007,2.02536 -1.4421,0.0104 -27.95075,0.20154 z"
     id="polygon3830"
     inkscape:connector-curvature="0" />
  <path
     style="fill:#000000;fill-opacity:1"
     d="m 252.59161,161.07415 -0.007,-2.02536 -0.22964,-62.8184 -0.007,-2.02535 1.4421,-0.0104 27.95363,-0.20156 1.4421,-0.0104 0.007,2.02535 0.22964,62.8184 0.007,2.02536 -1.4421,0.0104 -27.95364,0.20156 z"
     id="polygon158"
     inkscape:connector-curvature="0" />
  <path
     style="fill:#000000;fill-opacity:1;stroke:none"
     d="m 216.98222,264.39178 -0.007,-2.02536 -0.14352,-39.25947 -0.007,-2.02536 1.44499,-0.0104 25.84817,-0.18638 1.4421,-0.0104 0.007,2.02536 0.14352,39.25947 0.007,2.02536 -1.44209,0.0104 -25.84818,0.18638 z"
     id="polygon169"
     inkscape:connector-curvature="0" />
</svg>
