<?xml version="1.0" encoding="UTF-8" standalone="no"?>
<!-- Created with Inkscape (http://www.inkscape.org/) -->

<svg
   xmlns:dc="http://purl.org/dc/elements/1.1/"
   xmlns:cc="http://creativecommons.org/ns#"
   xmlns:rdf="http://www.w3.org/1999/02/22-rdf-syntax-ns#"
   xmlns:svg="http://www.w3.org/2000/svg"
   xmlns="http://www.w3.org/2000/svg"
   version="1.0"
   width="585"
   height="585"
   viewBox="0 0 585 585"
   id="svg2421">
  <metadata
     id="metadata25">
    <rdf:RDF>
      <cc:Work
         rdf:about="">
        <dc:format>image/svg+xml</dc:format>
        <dc:type
           rdf:resource="http://purl.org/dc/dcmitype/StillImage" />
        <dc:title></dc:title>
      </cc:Work>
    </rdf:RDF>
  </metadata>
  <defs
     id="defs23" />
  <g
     transform="translate(-1.2394068,175.99576)"
     id="g3928">
    <g
       transform="matrix(0.76105888,-0.70152008,0.70152008,0.76105888,-53.635495,248.11247)"
       id="g3935">
      <g
         transform="matrix(0.71384089,0.65537779,-0.65537779,0.71384089,290.56772,-237.16329)"
         id="g3942">
        <path
           d="m 61.307012,197.22179 5.11878,0 45.703448,0 5.11878,0 0,5.23327 0,46.1182 0,5.23327 -5.11878,0 -45.703448,0 -5.11878,0 0,-5.23327 0,-46.1182 0,-5.23327 z m 10.23757,10.46655 0,35.65164 35.465868,0 0,-35.65164 -35.465868,0 z"
           id="rect3502"
           style="font-size:medium;font-style:normal;font-variant:normal;font-weight:normal;font-stretch:normal;text-indent:0;text-align:start;text-decoration:none;line-height:normal;letter-spacing:normal;word-spacing:normal;text-transform:none;direction:ltr;block-progression:tb;writing-mode:lr-tb;text-anchor:start;baseline-shift:baseline;fill:#000000;stroke:none;marker:none;visibility:visible;display:inline;overflow:visible;enable-background:accumulate;font-family:Sans;-inkscape-font-specification:Sans" />
        <path
           d="m 62.449592,106.20026 5.11878,0 45.657748,0 5.11878,0 0,5.23328 0,46.07147 0,5.23326 -5.11878,0 -45.657748,0 -5.11878,0 0,-5.23326 0,-46.07147 0,-5.23328 z m 10.23757,10.41983 0,35.65164 35.465878,0 0,-35.65164 -35.465878,0 z"
           id="rect3502-1"
           style="font-size:medium;font-style:normal;font-variant:normal;font-weight:normal;font-stretch:normal;text-indent:0;text-align:start;text-decoration:none;line-height:normal;letter-spacing:normal;word-spacing:normal;text-transform:none;direction:ltr;block-progression:tb;writing-mode:lr-tb;text-anchor:start;baseline-shift:baseline;color:#000000;fill:#000000;fill-opacity:1;stroke:none;marker:none;visibility:visible;display:inline;overflow:visible;enable-background:accumulate;font-family:Sans;-inkscape-font-specification:Sans" />
        <g
           transform="translate(137.57415,-216.89619)"
           id="g3924">
          <path
             d="m -114.06275,313.05827 0,168.08981 c 0,0.38784 0.15146,0.57725 0.64502,0.57725 l 137.043982,0 c 0.49352,0 0.64496,-0.18941 0.64496,-0.57725 l 0,-168.08981 c 0,-0.38782 -0.15144,-0.57694 -0.64496,-0.57694 l -137.043982,0 c -0.49356,0 -0.64502,0.18912 -0.64502,0.57694 z m -20.69415,-11.94672 c 0,-6.62763 5.43433,-12.05523 11.8829,-12.05523 l 155.391712,0 c 6.44855,0 11.8829,5.4276 11.8829,12.05523 l 0,190.59383 c 0,6.62763 -5.43435,12.05521 -11.8829,12.05521 l -155.391712,0 c -6.44857,0 -11.8829,-5.42758 -11.8829,-12.05521 l 0,-190.59383 z"
             id="path3920"
             style="font-size:medium;font-style:normal;font-variant:normal;font-weight:normal;font-stretch:normal;text-indent:0;text-align:start;text-decoration:none;line-height:normal;letter-spacing:normal;word-spacing:normal;text-transform:none;direction:ltr;block-progression:tb;writing-mode:lr-tb;text-anchor:start;baseline-shift:baseline;color:#000000;fill:#000000;stroke:none;marker:none;visibility:visible;display:inline;overflow:visible;enable-background:accumulate;font-family:Sans;-inkscape-font-specification:Sans" />
          <path
             d="m 421.81214,320.12918 0,148.83988 c 0,21.88784 -15.46137,40.37886 -35.54798,40.37886 l -303.603437,0 c -20.086912,0 -35.548487,-18.49102 -35.548487,-40.37886 l 0,-148.83988 c 0,-21.8877 15.461575,-40.33926 35.548487,-40.33926 l 303.603437,0 c 20.08661,0 35.54798,18.45156 35.54798,40.33926 z m 22.97272,-8.05567 c 0,-31.57078 -20.97617,-56.04441 -46.07988,-56.04441 l -326.340316,0 c -25.10371,0 -46.07989,24.47363 -46.07989,56.04441 l 0,165.03927 c 0,31.57078 20.97618,56.08862 46.07989,56.08862 l 326.340316,0 c 25.10371,0 46.07988,-24.51784 46.07988,-56.08862 l 0,-165.03927 z"
             id="path3916"
             style="font-size:medium;font-style:normal;font-variant:normal;font-weight:normal;font-stretch:normal;text-indent:0;text-align:start;text-decoration:none;line-height:normal;letter-spacing:normal;word-spacing:normal;text-transform:none;direction:ltr;block-progression:tb;writing-mode:lr-tb;text-anchor:start;baseline-shift:baseline;color:#000000;fill:#000000;fill-opacity:1;stroke:none;marker:none;visibility:visible;display:inline;overflow:visible;enable-background:accumulate;font-family:Sans;-inkscape-font-specification:Sans" />
        </g>
      </g>
    </g>
  </g>
  <g
     transform="matrix(0.88758482,0,0,1.1266529,21.069915,0)"
     id="text3015-2"
     style="font-size:170.95199585px;font-style:normal;font-weight:normal;line-height:125%;letter-spacing:0px;word-spacing:0px;fill:#000000;fill-opacity:1;stroke:none;font-family:Sans">
    <path
       d="m 235.3776,438.57355 23.95665,7.59601 c -3.67291,13.35565 -9.78032,23.27497 -18.32225,29.758 -8.54212,6.48304 -19.37964,9.72456 -32.5126,9.72456 -16.24939,0 -29.605,-5.55092 -40.06687,-16.65279 -10.46192,-11.10184 -15.69287,-26.27993 -15.69286,-45.53433 -1e-5,-20.36725 5.25876,-36.1853 15.77633,-47.45421 10.51752,-11.26869 24.34614,-16.90309 41.48591,-16.90321 14.96935,1.2e-4 27.12852,4.42417 36.47755,13.27215 5.56474,5.23106 9.73837,12.74359 12.5209,22.53762 l -24.45749,5.84308 c -1.44695,-6.34383 -4.46587,-11.35218 -9.05678,-15.02507 -4.59107,-3.6727 -10.16982,-5.50909 -16.73627,-5.5092 -9.07075,1.1e-4 -16.43025,3.25554 -22.07852,9.7663 -5.64835,6.51096 -8.4725,17.05632 -8.47247,31.63614 -3e-5,15.47031 2.78238,26.48869 8.34726,33.05517 5.5648,6.56654 12.79909,9.84979 21.70289,9.84977 6.56645,2e-5 12.21476,-2.08679 16.94495,-6.26045 4.73004,-4.1736 8.12459,-10.74011 10.18367,-19.69954 z"
       id="path4003"
       style="font-weight:bold;-inkscape-font-specification:Sans Bold" />
    <path
       d="m 280.45283,361.1944 24.70791,0 0,66.27728 c -4e-5,10.5176 0.30603,17.33453 0.9182,20.4508 1.05728,5.00839 3.57537,9.02899 7.55427,12.0618 3.97881,3.03286 9.41844,4.54928 16.3189,4.54926 7.01164,2e-5 12.29823,-1.43292 15.85981,-4.29884 3.56142,-2.86587 5.70388,-6.38563 6.42739,-10.55929 0.72335,-4.17359 1.08506,-11.10182 1.08515,-20.78469 l 0,-67.69632 24.7079,0 0,64.27394 c -1.1e-4,14.69123 -0.66789,25.06965 -2.00334,31.1353 -1.33567,6.0657 -3.79811,11.18535 -7.38733,15.35897 -3.58942,4.17364 -8.38909,7.49863 -14.39903,9.97498 -6.01011,2.47636 -13.85654,3.71453 -23.53929,3.71453 -11.68622,0 -20.54823,-1.34947 -26.58604,-4.04842 -6.03789,-2.69894 -10.80974,-6.20479 -14.31556,-10.51755 -3.50587,-4.31274 -5.81528,-8.83417 -6.92823,-13.56431 -1.61382,-7.01167 -2.42072,-17.36227 -2.42071,-31.05183 z"
       id="path4005"
       style="font-weight:bold;-inkscape-font-specification:Sans Bold" />
    <path
       d="m 404.82708,483.56531 0,-121.36924 24.70791,0 0,100.75149 61.43587,0 0,20.61775 z"
       id="path4007"
       style="font-weight:bold;-inkscape-font-specification:Sans Bold" />
  </g>
</svg>
