<?xml version="1.0" encoding="UTF-8" standalone="no"?>
<svg
   xmlns:dc="http://purl.org/dc/elements/1.1/"
   xmlns:cc="http://creativecommons.org/ns#"
   xmlns:rdf="http://www.w3.org/1999/02/22-rdf-syntax-ns#"
   xmlns:svg="http://www.w3.org/2000/svg"
   xmlns="http://www.w3.org/2000/svg"
   width="585mm"
   height="585mm"
   viewBox="0 0 585 585"
   id="svg2421"
   version="1.0">
  <defs
     id="defs4" />
  <metadata
     id="metadata7">
    <rdf:RDF>
      <cc:Work
         rdf:about="">
        <dc:format>image/svg+xml</dc:format>
        <dc:type
           rdf:resource="http://purl.org/dc/dcmitype/StillImage" />
        <dc:title></dc:title>
      </cc:Work>
    </rdf:RDF>
  </metadata>
  <g
     id="layer1"
     style="fill:#000000" />
  <path
     id="rect3434-0"
     d="m 434.3349,18.212267 67.33018,0 c 0,0 0,0 0,0 l 0,302.433933 c 0,0 0,0 0,0 l -67.33018,0 c 0,0 0,0 0,0 l 0,-302.433933 c 0,0 0,0 0,0 z"
     style="fill:#000000;fill-opacity:1" />
  <path
     id="rect3434-8"
     d="m 273.18396,83.3349 67.33018,0 c 0,0 0,0 0,0 l 0,237.31129 c 0,0 0,0 0,0 l -67.33018,0 c 0,0 0,0 0,0 l 0,-237.31129 c 0,0 0,0 0,0 z"
     style="fill:#000000;fill-opacity:1" />
  <path
     id="rect3434-3"
     d="m 353.75943,50.221691 67.33018,0 c 0,0 0,0 0,0 l 0,271.528289 c 0,0 0,0 0,0 l -67.33018,0 c 0,0 0,0 0,0 l 0,-271.528289 c 0,0 0,0 0,0 z"
     style="fill:#000000;fill-opacity:1" />
  <path
     id="rect3434-8-7"
     d="m 192.60847,107.61794 67.33019,0 c 0,0 0,0 0,0 l 0,213.02828 c 0,0 0,0 0,0 l -67.33019,0 c 0,0 0,0 0,0 l 0,-213.02828 c 0,0 0,0 0,0 z"
     style="fill:#000000;fill-opacity:1" />
  <path
     id="rect3434-8-77"
     d="m 109.82546,130.79718 67.33019,0 c 0,0 0,0 0,0 l 0,189.84903 c 0,0 0,0 0,0 l -67.33019,0 c 0,0 0,0 0,0 l 0,-189.84903 c 0,0 0,0 0,0 z"
     style="fill:#000000;fill-opacity:1" />
  <g
     transform="matrix(0.98814917,0,0,0.79318425,1.0469954,422.55341)"
     id="g3928"
     style="fill:#ffffff">
    <g
       transform="matrix(0.76105888,-0.70152008,0.70152008,0.76105888,-53.635495,248.11247)"
       id="g3935"
       style="fill:#ffffff">
      <g
         transform="matrix(0.71384089,0.65537779,-0.65537779,0.71384089,290.56772,-237.16329)"
         id="g3942"
         style="fill:#ffffff">
        <path
           d="m 61.307012,197.22179 5.11878,0 45.703448,0 5.11878,0 0,5.23327 0,46.1182 0,5.23327 -5.11878,0 -45.703448,0 -5.11878,0 0,-5.23327 0,-46.1182 0,-5.23327 z m 10.23757,10.46655 0,35.65164 35.465868,0 0,-35.65164 -35.465868,0 z"
           id="rect3502"
           style="font-style:normal;font-variant:normal;font-weight:normal;font-stretch:normal;font-size:medium;line-height:normal;font-family:Sans;-inkscape-font-specification:Sans;text-indent:0;text-align:start;text-decoration:none;text-decoration-line:none;letter-spacing:normal;word-spacing:normal;text-transform:none;direction:ltr;block-progression:tb;writing-mode:lr-tb;baseline-shift:baseline;text-anchor:start;display:inline;overflow:visible;visibility:visible;fill:#ffffff;stroke:none;marker:none;enable-background:accumulate" />
        <path
           d="m 62.449592,106.20026 5.11878,0 45.657748,0 5.11878,0 0,5.23328 0,46.07147 0,5.23326 -5.11878,0 -45.657748,0 -5.11878,0 0,-5.23326 0,-46.07147 0,-5.23328 z m 10.23757,10.41983 0,35.65164 35.465878,0 0,-35.65164 -35.465878,0 z"
           id="rect3502-1"
           style="color:#000000;font-style:normal;font-variant:normal;font-weight:normal;font-stretch:normal;font-size:medium;line-height:normal;font-family:Sans;-inkscape-font-specification:Sans;text-indent:0;text-align:start;text-decoration:none;text-decoration-line:none;letter-spacing:normal;word-spacing:normal;text-transform:none;direction:ltr;block-progression:tb;writing-mode:lr-tb;baseline-shift:baseline;text-anchor:start;display:inline;overflow:visible;visibility:visible;fill:#ffffff;fill-opacity:1;stroke:none;marker:none;enable-background:accumulate" />
        <g
           transform="translate(137.57415,-216.89619)"
           id="g3924"
           style="fill:#ffffff">
          <path
             d="m -114.06275,313.05827 0,168.08981 c 0,0.38784 0.15146,0.57725 0.64502,0.57725 l 137.043982,0 c 0.49352,0 0.64496,-0.18941 0.64496,-0.57725 l 0,-168.08981 c 0,-0.38782 -0.15144,-0.57694 -0.64496,-0.57694 l -137.043982,0 c -0.49356,0 -0.64502,0.18912 -0.64502,0.57694 z m -20.69415,-11.94672 c 0,-6.62763 5.43433,-12.05523 11.8829,-12.05523 l 155.391712,0 c 6.44855,0 11.8829,5.4276 11.8829,12.05523 l 0,190.59383 c 0,6.62763 -5.43435,12.05521 -11.8829,12.05521 l -155.391712,0 c -6.44857,0 -11.8829,-5.42758 -11.8829,-12.05521 l 0,-190.59383 z"
             id="path3920"
             style="color:#000000;font-style:normal;font-variant:normal;font-weight:normal;font-stretch:normal;font-size:medium;line-height:normal;font-family:Sans;-inkscape-font-specification:Sans;text-indent:0;text-align:start;text-decoration:none;text-decoration-line:none;letter-spacing:normal;word-spacing:normal;text-transform:none;direction:ltr;block-progression:tb;writing-mode:lr-tb;baseline-shift:baseline;text-anchor:start;display:inline;overflow:visible;visibility:visible;fill:#ffffff;stroke:none;marker:none;enable-background:accumulate" />
          <path
             d="m 421.81214,320.12918 0,148.83988 c 0,21.88784 -15.46137,40.37886 -35.54798,40.37886 l -303.603437,0 c -20.086912,0 -35.548487,-18.49102 -35.548487,-40.37886 l 0,-148.83988 c 0,-21.8877 15.461575,-40.33926 35.548487,-40.33926 l 303.603437,0 c 20.08661,0 35.54798,18.45156 35.54798,40.33926 z m 22.97272,-8.05567 c 0,-31.57078 -20.97617,-56.04441 -46.07988,-56.04441 l -326.340316,0 c -25.10371,0 -46.07989,24.47363 -46.07989,56.04441 l 0,165.03927 c 0,31.57078 20.97618,56.08862 46.07989,56.08862 l 326.340316,0 c 25.10371,0 46.07988,-24.51784 46.07988,-56.08862 l 0,-165.03927 z"
             id="path3916"
             style="color:#000000;font-style:normal;font-variant:normal;font-weight:normal;font-stretch:normal;font-size:medium;line-height:normal;font-family:Sans;-inkscape-font-specification:Sans;text-indent:0;text-align:start;text-decoration:none;text-decoration-line:none;letter-spacing:normal;word-spacing:normal;text-transform:none;direction:ltr;block-progression:tb;writing-mode:lr-tb;baseline-shift:baseline;text-anchor:start;display:inline;overflow:visible;visibility:visible;fill:#ffffff;fill-opacity:1;stroke:none;marker:none;enable-background:accumulate" />
        </g>
      </g>
    </g>
  </g>
  <text
     xml:space="preserve"
     style="font-style:normal;font-weight:normal;font-size:157.59104919px;line-height:125%;font-family:sans-serif;letter-spacing:0px;word-spacing:0px;fill:#ffffff;fill-opacity:1;stroke:none;stroke-width:1px;stroke-linecap:butt;stroke-linejoin:miter;stroke-opacity:1"
     x="214.34106"
     y="507.99051"
     id="text3543"
     transform="scale(0.99192807,1.0081376)"><tspan
       id="tspan3545"
       x="214.34106"
       y="507.99051">CUL</tspan></text>
</svg>
