<?xml version="1.0" encoding="UTF-8" standalone="no"?>
<!-- Created with Inkscape (http://www.inkscape.org/) -->

<svg
   xmlns:dc="http://purl.org/dc/elements/1.1/"
   xmlns:cc="http://creativecommons.org/ns#"
   xmlns:rdf="http://www.w3.org/1999/02/22-rdf-syntax-ns#"
   xmlns:svg="http://www.w3.org/2000/svg"
   xmlns="http://www.w3.org/2000/svg"
   version="1.0"
   width="585"
   height="585"
   viewBox="0 0 585 585"
   id="svg2421">
  <metadata
     id="metadata25">
    <rdf:RDF>
      <cc:Work
         rdf:about="">
        <dc:format>image/svg+xml</dc:format>
        <dc:type
           rdf:resource="http://purl.org/dc/dcmitype/StillImage" />
        <dc:title></dc:title>
      </cc:Work>
    </rdf:RDF>
  </metadata>
  <defs
     id="defs23" />
  <g
     transform="scale(0.88758483,1.1266529)"
     id="text3015-2"
     style="font-size:170.95199585px;font-style:normal;font-weight:normal;line-height:125%;letter-spacing:0px;word-spacing:0px;fill:#000000;fill-opacity:1;stroke:none;font-family:Sans">
    <path
       d="m 24.005444,427.43913 c -6.065701,-2.55976 -10.475835,-6.07952 -13.230416,-10.55929 -2.7546085,-4.47961 -4.1319059,-9.39058 -4.1318959,-14.73292 -10e-6,-9.12624 3.1858598,-16.6666 9.5576189,-22.62109 6.37172,-5.95426 15.428494,-8.93145 27.170349,-8.93157 11.630465,1.2e-4 20.659414,2.97731 27.086876,8.93157 6.427314,5.95449 9.641008,13.49485 9.641092,22.62109 -8.4e-5,5.67623 -1.474766,10.72632 -4.424051,15.15029 -2.949443,4.42412 -7.095247,7.80476 -12.437425,10.14192 6.789035,2.72684 11.950423,6.7057 15.484177,11.93659 3.53359,5.23101 5.300426,11.26885 5.300514,18.11357 -8.8e-5,11.29666 -3.60332,20.47864 -10.809709,27.54598 -7.206542,7.06735 -16.791976,10.60102 -28.75633,10.60102 -11.129723,0 -20.395179,-2.92154 -27.796393,-8.76463 -8.7368162,-6.90039 -13.105214,-16.36061 -13.1052071,-28.3807 -6.9e-6,-6.62212 1.6416203,-12.70171 4.9248866,-18.23877 3.2832425,-5.53696 8.4585415,-9.80798 15.5259135,-12.81306 z m 4.841414,-23.62276 c -3.2e-5,4.67456 1.321617,8.31953 3.964951,10.93492 2.643262,2.61555 6.163022,3.92329 10.559291,3.92322 4.451824,7e-5 8.01332,-1.32158 10.6845,-3.96496 2.671065,-2.64322 4.006626,-6.3021 4.006687,-10.97665 -6.1e-5,-4.39613 -1.32171,-7.91589 -3.964951,-10.55929 -2.643356,-2.6432 -6.135291,-3.96485 -10.475818,-3.96495 -4.507566,10e-5 -8.096886,1.33566 -10.767972,4.00669 -2.671159,2.67122 -4.00672,6.20489 -4.006688,10.60102 z m -2.170289,52.42083 c -3e-5,6.45525 1.655509,11.49143 4.966623,15.10855 3.311044,3.61717 7.442936,5.42574 12.395689,5.42572 4.841362,2e-5 8.848045,-1.73899 12.020062,-5.21704 3.171899,-3.478 4.757877,-8.50027 4.757942,-15.06681 -6.5e-5,-5.73175 -1.613868,-10.33665 -4.841414,-13.81473 -3.227666,-3.47797 -7.317822,-5.21698 -12.27048,-5.21704 -5.731831,6e-5 -10.002844,1.97558 -12.813053,5.92656 -2.810277,3.95109 -4.215399,8.23601 -4.215369,12.85479 z"
       id="path3990"
       style="font-weight:bold;-inkscape-font-specification:Sans Bold" />
    <path
       d="m 178.51333,401.06178 -22.70456,2.50417 c -0.55655,-4.67437 -2.00341,-8.12457 -4.34058,-10.3506 -2.33729,-2.22584 -5.37013,-3.33881 -9.09852,-3.33891 -4.95276,10e-5 -9.1403,2.22604 -12.56263,6.67781 -3.42242,4.45197 -5.57879,13.71742 -6.46913,27.7964 5.84304,-6.90033 13.10516,-10.35053 21.78636,-10.35061 9.79406,8e-5 18.18305,3.72852 25.167,11.18533 6.9838,7.45695 10.47573,17.08412 10.47582,28.88154 -9e-5,12.52093 -3.67288,22.56546 -11.01839,30.13363 -7.34566,7.56819 -16.77806,11.35228 -28.29723,11.35228 -12.35399,0 -22.50982,-4.79968 -30.46752,-14.39903 -7.95773,-9.59934 -11.936594,-25.33392 -11.936587,-47.20379 -7e-6,-22.42624 4.145797,-38.59209 12.437427,-48.49761 8.29159,-9.9053 19.05955,-14.85801 32.30392,-14.85813 9.29322,1.2e-4 16.98661,2.60168 23.08018,7.80469 6.09343,5.20324 9.9749,12.75751 11.64444,22.66283 z m -53.17208,51.16873 c -3e-5,7.62387 1.75289,13.50869 5.25878,17.65447 3.50581,4.14583 7.51249,6.21873 12.02006,6.21871 4.34052,2e-5 7.95767,-1.69726 10.85144,-5.09183 2.89366,-3.39453 4.34052,-8.95937 4.34058,-16.69453 -6e-5,-7.95768 -1.55822,-13.78685 -4.67447,-17.48752 -3.11637,-3.70056 -7.01175,-5.55087 -11.68617,-5.55093 -4.50757,6e-5 -8.31948,1.76689 -11.43575,5.30051 -3.11635,3.53373 -4.6745,8.75076 -4.67447,15.65112 z"
       id="path3992"
       style="font-weight:bold;-inkscape-font-specification:Sans Bold" />
    <path
       d="m 214.3231,427.43913 c -6.0657,-2.55976 -10.47583,-6.07952 -13.23041,-10.55929 -2.75461,-4.47961 -4.13191,-9.39058 -4.1319,-14.73292 -1e-5,-9.12624 3.18586,-16.6666 9.55762,-22.62109 6.37172,-5.95426 15.42849,-8.93145 27.17035,-8.93157 11.63046,1.2e-4 20.65941,2.97731 27.08687,8.93157 6.42732,5.95449 9.64101,13.49485 9.6411,22.62109 -9e-5,5.67623 -1.47477,10.72632 -4.42406,15.15029 -2.94944,4.42412 -7.09524,7.80476 -12.43742,10.14192 6.78903,2.72684 11.95042,6.7057 15.48418,11.93659 3.53359,5.23101 5.30042,11.26885 5.30051,18.11357 -9e-5,11.29666 -3.60332,20.47864 -10.80971,27.54598 -7.20654,7.06735 -16.79197,10.60102 -28.75633,10.60102 -11.12972,0 -20.39518,-2.92154 -27.79639,-8.76463 -8.73682,-6.90039 -13.10522,-16.36061 -13.10521,-28.3807 -1e-5,-6.62212 1.64162,-12.70171 4.92489,-18.23877 3.28324,-5.53696 8.45854,-9.80798 15.52591,-12.81306 z m 4.84142,-23.62276 c -4e-5,4.67456 1.32161,8.31953 3.96495,10.93492 2.64326,2.61555 6.16302,3.92329 10.55929,3.92322 4.45182,7e-5 8.01332,-1.32158 10.6845,-3.96496 2.67106,-2.64322 4.00662,-6.3021 4.00668,-10.97665 -6e-5,-4.39613 -1.32171,-7.91589 -3.96495,-10.55929 -2.64335,-2.6432 -6.13529,-3.96485 -10.47581,-3.96495 -4.50757,10e-5 -8.09689,1.33566 -10.76798,4.00669 -2.67116,2.67122 -4.00672,6.20489 -4.00668,10.60102 z m -2.17029,52.42083 c -3e-5,6.45525 1.65551,11.49143 4.96662,15.10855 3.31104,3.61717 7.44294,5.42574 12.39569,5.42572 4.84136,2e-5 8.84804,-1.73899 12.02006,-5.21704 3.1719,-3.478 4.75788,-8.50027 4.75794,-15.06681 -6e-5,-5.73175 -1.61387,-10.33665 -4.84141,-13.81473 -3.22767,-3.47797 -7.31782,-5.21698 -12.27048,-5.21704 -5.73183,6e-5 -10.00285,1.97558 -12.81305,5.92656 -2.81028,3.95109 -4.2154,8.23601 -4.21537,12.85479 z"
       id="path3994"
       style="font-weight:bold;-inkscape-font-specification:Sans Bold" />
    <path
       d="m 341.61889,493.466 0,-122.37091 36.97839,0 22.20373,83.47266 21.9533,-83.47266 37.06186,0 0,122.37091 -22.95498,0 0,-96.32744 -24.29054,96.32744 -23.78971,0 -24.20707,-96.32744 0,96.32744 z"
       id="path3996"
       style="font-weight:bold;-inkscape-font-specification:Sans Bold" />
    <path
       d="m 507.72947,371.09509 0,44.99176 c 7.56815,-8.84801 16.61101,-13.27206 27.12862,-13.27215 5.39783,9e-5 10.26706,1.00176 14.60771,3.00502 4.3405,2.00343 7.60984,4.56325 9.80804,7.67948 2.19802,3.11639 3.70053,6.56659 4.50752,10.35061 0.80681,3.78416 1.21026,9.65506 1.21035,17.61273 l 0,52.00346 -23.45581,0 0,-46.82816 c -7e-5,-9.29323 -0.44526,-15.19196 -1.33556,-17.6962 -0.89045,-2.50411 -2.46251,-4.49354 -4.71621,-5.96829 -2.25382,-1.47461 -5.07798,-2.21196 -8.47247,-2.21203 -3.89545,7e-5 -7.37347,0.9461 -10.43409,2.83807 -3.0607,1.89212 -5.30055,4.7441 -6.71954,8.55595 -1.41908,3.81197 -2.12859,9.44637 -2.12856,16.90321 l 0,44.40745 -23.45581,0 0,-122.37091 z"
       id="path3998"
       style="font-weight:bold;-inkscape-font-specification:Sans Bold" />
    <path
       d="m 579.4325,493.466 0,-18.28051 33.22212,-38.147 c 5.4535,-6.23256 9.48801,-10.65661 12.10353,-13.27215 -2.72682,0.16701 -6.31614,0.27831 -10.76797,0.33389 l -31.30225,0.16694 0,-19.44913 73.289,0 0,16.61106 -33.8899,39.0652 -11.93659,12.93827 c 6.51083,-0.38952 10.54533,-0.58429 12.10353,-0.58431 l 36.31061,0 0,20.61774 z"
       id="path4000"
       style="font-weight:bold;-inkscape-font-specification:Sans Bold" />
  </g>
  <g
     transform="translate(-1.2394068,175.99576)"
     id="g3928">
    <g
       transform="matrix(0.76105888,-0.70152008,0.70152008,0.76105888,-53.635495,248.11247)"
       id="g3935">
      <g
         transform="matrix(0.71384089,0.65537779,-0.65537779,0.71384089,290.56772,-237.16329)"
         id="g3942">
        <path
           d="m 61.307012,197.22179 5.11878,0 45.703448,0 5.11878,0 0,5.23327 0,46.1182 0,5.23327 -5.11878,0 -45.703448,0 -5.11878,0 0,-5.23327 0,-46.1182 0,-5.23327 z m 10.23757,10.46655 0,35.65164 35.465868,0 0,-35.65164 -35.465868,0 z"
           id="rect3502"
           style="font-size:medium;font-style:normal;font-variant:normal;font-weight:normal;font-stretch:normal;text-indent:0;text-align:start;text-decoration:none;line-height:normal;letter-spacing:normal;word-spacing:normal;text-transform:none;direction:ltr;block-progression:tb;writing-mode:lr-tb;text-anchor:start;baseline-shift:baseline;fill:#000000;stroke:none;marker:none;visibility:visible;display:inline;overflow:visible;enable-background:accumulate;font-family:Sans;-inkscape-font-specification:Sans" />
        <path
           d="m 62.449592,106.20026 5.11878,0 45.657748,0 5.11878,0 0,5.23328 0,46.07147 0,5.23326 -5.11878,0 -45.657748,0 -5.11878,0 0,-5.23326 0,-46.07147 0,-5.23328 z m 10.23757,10.41983 0,35.65164 35.465878,0 0,-35.65164 -35.465878,0 z"
           id="rect3502-1"
           style="font-size:medium;font-style:normal;font-variant:normal;font-weight:normal;font-stretch:normal;text-indent:0;text-align:start;text-decoration:none;line-height:normal;letter-spacing:normal;word-spacing:normal;text-transform:none;direction:ltr;block-progression:tb;writing-mode:lr-tb;text-anchor:start;baseline-shift:baseline;color:#000000;fill:#000000;fill-opacity:1;stroke:none;marker:none;visibility:visible;display:inline;overflow:visible;enable-background:accumulate;font-family:Sans;-inkscape-font-specification:Sans" />
        <g
           transform="translate(137.57415,-216.89619)"
           id="g3924">
          <path
             d="m -114.06275,313.05827 0,168.08981 c 0,0.38784 0.15146,0.57725 0.64502,0.57725 l 137.043982,0 c 0.49352,0 0.64496,-0.18941 0.64496,-0.57725 l 0,-168.08981 c 0,-0.38782 -0.15144,-0.57694 -0.64496,-0.57694 l -137.043982,0 c -0.49356,0 -0.64502,0.18912 -0.64502,0.57694 z m -20.69415,-11.94672 c 0,-6.62763 5.43433,-12.05523 11.8829,-12.05523 l 155.391712,0 c 6.44855,0 11.8829,5.4276 11.8829,12.05523 l 0,190.59383 c 0,6.62763 -5.43435,12.05521 -11.8829,12.05521 l -155.391712,0 c -6.44857,0 -11.8829,-5.42758 -11.8829,-12.05521 l 0,-190.59383 z"
             id="path3920"
             style="font-size:medium;font-style:normal;font-variant:normal;font-weight:normal;font-stretch:normal;text-indent:0;text-align:start;text-decoration:none;line-height:normal;letter-spacing:normal;word-spacing:normal;text-transform:none;direction:ltr;block-progression:tb;writing-mode:lr-tb;text-anchor:start;baseline-shift:baseline;color:#000000;fill:#000000;stroke:none;marker:none;visibility:visible;display:inline;overflow:visible;enable-background:accumulate;font-family:Sans;-inkscape-font-specification:Sans" />
          <path
             d="m 421.81214,320.12918 0,148.83988 c 0,21.88784 -15.46137,40.37886 -35.54798,40.37886 l -303.603437,0 c -20.086912,0 -35.548487,-18.49102 -35.548487,-40.37886 l 0,-148.83988 c 0,-21.8877 15.461575,-40.33926 35.548487,-40.33926 l 303.603437,0 c 20.08661,0 35.54798,18.45156 35.54798,40.33926 z m 22.97272,-8.05567 c 0,-31.57078 -20.97617,-56.04441 -46.07988,-56.04441 l -326.340316,0 c -25.10371,0 -46.07989,24.47363 -46.07989,56.04441 l 0,165.03927 c 0,31.57078 20.97618,56.08862 46.07989,56.08862 l 326.340316,0 c 25.10371,0 46.07988,-24.51784 46.07988,-56.08862 l 0,-165.03927 z"
             id="path3916"
             style="font-size:medium;font-style:normal;font-variant:normal;font-weight:normal;font-stretch:normal;text-indent:0;text-align:start;text-decoration:none;line-height:normal;letter-spacing:normal;word-spacing:normal;text-transform:none;direction:ltr;block-progression:tb;writing-mode:lr-tb;text-anchor:start;baseline-shift:baseline;color:#000000;fill:#000000;fill-opacity:1;stroke:none;marker:none;visibility:visible;display:inline;overflow:visible;enable-background:accumulate;font-family:Sans;-inkscape-font-specification:Sans" />
        </g>
      </g>
    </g>
  </g>
</svg>
