<?xml version="1.0" encoding="UTF-8"?>
<svg xmlns="http://www.w3.org/2000/svg" xmlns:xlink="http://www.w3.org/1999/xlink" width="512px" height="430px" viewBox="0 0 512 430" version="1.1">
  <defs/>
  <g fill="#000000" id="layer1">
    <path d="M328.712219,74.5570679 C343.837585,71.2276001 356.437988,58.397461 357.374023,40.5645142 C358.884888,11.7808228 328.891846,-8.6169433 303.516113,3.9367066 C285.784058,12.7089844 279.532654,33.0106812 285.508179,49.986023 L107.585205,354.99469 C91.7436523,358.284851 78.3667602,371.593994 77.376892,389.925232 C75.8127441,418.891297 106.331665,438.834229 132.179077,425.736267 C150.192688,416.608032 156.591248,396.164612 150.604919,379.237061 L328.712219,74.5570679 Z M331.033203,19.8670654 C344.52124,28.0266113 344.575561,47.838623 331.130676,55.4430542 C317.685852,63.0475464 300.734253,52.7927856 300.69104,37.0287476 C300.647827,21.2647705 317.545166,11.7075806 331.033203,19.8670654 Z M104.759827,409.139038 C91.0324097,401.225037 91.0324097,381.332642 104.759827,373.41864 C118.487183,365.504639 135.739624,375.450867 135.739624,391.27887 C135.739624,407.106873 118.487183,417.05304 104.759827,409.139038 Z M18.8482666,175.802185 C43.979248,190.290466 75.5635986,172.081787 75.5635986,143.105164 C75.5635986,114.12854 43.979248,95.9197998 18.8482666,110.408142 C-6.2827148,124.896423 -6.2827148,161.313843 18.8482666,175.802185 Z M27.4396362,125.244934 C41.1670532,117.330933 58.4194946,127.277161 58.4194946,143.105164 C58.4194946,158.933166 41.1670532,168.879334 27.4396362,160.965332 C13.7122803,153.051331 13.7122803,133.158935 27.4396362,125.244934 Z M161.034119,99.6153564 C186.1651,114.103638 217.749451,95.8949585 217.749451,66.9183349 C217.749451,37.9417113 186.1651,19.7329711 161.034119,34.2213134 C135.903076,48.7095947 135.903076,85.1270752 161.034119,99.6153564 Z M169.625488,49.0581055 C183.352905,41.144104 200.605347,51.0903321 200.605347,66.918335 C200.605347,82.7463379 183.352905,92.692566 169.625488,84.7785645 C155.898132,76.864563 155.898132,56.9721069 169.625488,49.0581055 Z M18.8492432,242.424439 C-6.2817382,256.912781 -6.2817382,293.3302 18.8492432,307.818482 C43.9802857,322.306824 75.5645752,304.098084 75.5645752,275.12146 C75.5645752,246.144836 43.9802856,227.936157 18.8492432,242.424439 Z M27.4406738,292.98169 C13.7132568,285.067688 13.7132568,265.175293 27.4406738,257.261292 C41.1680908,249.34729 58.4204712,259.293457 58.4204712,275.12146 C58.4204712,290.949463 41.1680908,300.895691 27.4406738,292.98169 Z M511.429565,32.2991943 C506.523621,3.8964843 472.755798,-9.3468628 450.793274,8.5184936 C437.697388,19.1712646 434.607727,36.1621093 439.939758,50.380249 L262.691101,354.135498 C246.319275,357.307678 232.506226,371.188782 231.930908,390.068664 C231.047485,419.060058 262.029236,438.268249 287.564209,424.560364 C304.88324,415.263061 310.950989,395.514465 305.381165,378.997436 L483.229187,74.4321289 C501.313843,70.515564 515.004273,52.9951172 511.429565,32.2991943 Z M480.278809,18.7106934 C495.370728,23.5384522 499.624329,42.993042 487.91687,53.6448975 C476.209473,64.296753 457.242126,58.2293091 453.857605,42.7496949 C450.473145,27.2700806 465.18689,13.8829956 480.278809,18.7106934 Z M279.455322,409.4552 C265.509644,416.941589 248.589416,406.451355 249.071899,390.617981 C249.554382,374.784668 267.080994,365.375916 280.544128,373.722778 C294.007263,382.069702 293.400879,401.968811 279.455322,409.4552 Z" id="Shape"/>
  </g>
</svg>
