<?xml version="1.0" encoding="UTF-8" standalone="no"?>
<!-- Created with Inkscape (http://www.inkscape.org/) -->

<svg
   xmlns:dc="http://purl.org/dc/elements/1.1/"
   xmlns:cc="http://creativecommons.org/ns#"
   xmlns:rdf="http://www.w3.org/1999/02/22-rdf-syntax-ns#"
   xmlns:svg="http://www.w3.org/2000/svg"
   xmlns="http://www.w3.org/2000/svg"
   version="1.0"
   width="468pt"
   height="463pt"
   viewBox="0 0 468 463"
   id="svg2">
  <defs
     id="defs34" />
  <metadata
     id="metadata4">
Created by potrace 1.8, written by Peter Selinger 2001-2007
<rdf:RDF>
  <cc:Work
     rdf:about="">
    <dc:format>image/svg+xml</dc:format>
    <dc:type
       rdf:resource="http://purl.org/dc/dcmitype/StillImage" />
    <dc:title></dc:title>
  </cc:Work>
</rdf:RDF>
</metadata>
  <g
     transform="matrix(0.11936031,0,0,-0.11936031,149.52335,314.68102)"
     id="g6"
     fill="#000000" stroke="none">
    <path
       d="m 715,2608 c -28,-15 -45,-38 -45,-62 0,-12 63,-83 167,-188 179,-180 199,-192 243,-148 43,43 31,63 -142,236 -90,89 -172,165 -183,168 -11,3 -29,0 -40,-6 z"
       id="path8" />
    <path
       d="m 1207,2609 c -38,-22 -39,-55 -5,-136 35,-86 57,-113 91,-113 31,0 67,35 67,65 0,36 -49,147 -77,173 -26,24 -48,27 -76,11 z"
       id="path10" />
    <path
       d="m 1373,2236 c -103,-33 -194,-114 -241,-214 l -27,-57 0,-295 0,-295 33,-67 c 39,-81 121,-158 202,-190 51,-21 73,-23 328,-26 229,-3 282,-1 330,13 125,36 226,134 263,255 19,63 20,88 17,337 l -3,269 -32,65 c -39,80 -111,150 -191,187 l -57,27 -290,2 c -220,2 -300,-1 -332,-11 z m 633,-143 c 57,-30 111,-97 129,-157 21,-71 21,-461 0,-532 -19,-63 -72,-126 -133,-156 -46,-22 -54,-23 -312,-23 -258,0 -266,1 -312,23 -27,13 -64,42 -83,65 -60,70 -67,114 -63,385 3,261 5,270 72,340 71,76 98,81 406,79 242,-2 257,-3 296,-24 z"
       id="path12" />
    <path
       d="m 585,2130 c -23,-25 -22,-67 1,-90 31,-30 264,-119 288,-111 33,12 52,54 41,87 -9,24 -29,36 -135,81 -135,58 -168,63 -195,33 z"
       id="path14" />
    <path
       d="m 20,1720 c -27,-27 -25,-66 5,-96 l 25,-25 416,3 c 398,3 416,4 430,22 20,28 17,73 -6,96 -19,19 -33,20 -435,20 -402,0 -416,-1 -435,-20 z"
       id="path16" />
    <path
       d="m 2400,1380 c -25,-25 -26,-64 -2,-88 18,-18 159,-82 180,-82 24,0 62,43 62,71 0,37 -21,54 -105,90 -79,34 -108,36 -135,9 z"
       id="path18" />
    <path
       d="m 725,1325 c -128,-54 -155,-72 -155,-106 0,-27 39,-69 65,-69 37,0 248,91 273,118 35,37 18,91 -33,106 -12,3 -70,-15 -150,-49 z"
       id="path20" />
    <path
       d="M 733,817 C 473,557 440,521 440,493 c 0,-35 38,-73 73,-73 14,0 119,97 314,292 262,262 293,296 293,325 0,35 -38,73 -74,73 -14,0 -116,-95 -313,-293 z"
       id="path22" />
    <path
       d="m 2225,1085 c -14,-13 -25,-34 -25,-46 0,-16 51,-74 167,-191 145,-146 171,-168 199,-168 37,0 67,29 67,66 0,22 -35,61 -170,195 -118,118 -176,169 -192,169 -12,0 -33,-11 -46,-25 z"
       id="path24" />
    <path
       d="m 1970,932 c -28,-9 -50,-35 -50,-59 0,-32 88,-243 114,-271 27,-31 72,-26 99,10 l 20,27 -49,122 c -63,156 -86,186 -134,171 z"
       id="path26" />
    <path
       d="m 1288,913 c -16,-17 -118,-254 -118,-271 0,-5 9,-21 21,-36 25,-32 70,-35 97,-6 22,23 113,246 112,276 0,48 -80,73 -112,37 z"
       id="path28" />
    <path
       d="m 1620,902 -25,-20 0,-415 c 0,-394 1,-416 19,-436 24,-26 77,-28 99,-3 15,17 17,61 17,433 0,317 -3,419 -12,432 -21,27 -70,32 -98,9 z"
       id="path30" />
    <path
       d="M -619.52413,1042.2579 C -812.983,913.08814 -970.9355,719.05487 -1062.4674,495.7472 c -44.7674,-107.89631 -59.8052,-161.1148 -73.6358,-260.24742 -70.4321,-497.11113 160.59988,-973.32188 589.78894,-1215.2273 362.48266,-203.61518 788.29873,-205.92998 1156.12012,-5.9885 108.58885,58.75099 120.76425,74.28885 93.17525,121.85052 -17.7795,30.65084 -33.86653,34.03231 -118.28513,22.49674 -207.06681,-29.00258 -514.856909,60.84459 -761.4317,222.92717 -155.25078,102.052 -307.15381,260.42936 -375.83079,392.21783 -88.85617,170.228958 -129.88733,385.85657 -121.5288,639.31509 5.05571,143.48205 55.85279,361.52404 111.96048,485.18019 46.33199,100.3286 48.99502,110.34868 30.71899,135.76758 -21.5634,29.8685 -51.28513,32.4038 -88.10829,8.2188 z M -786.91878,493.1396 C -841.64798,-146.7127 -589.17272,-575.87726 5.5056415,-851.03691 84.176721,-888.03705 308.29693,-952.96533 357.94225,-954.53774 c 25.76861,-0.59062 25.76861,-0.59062 6.35278,-9.73425 -37.55281,-16.83913 -186.96279,-44.17941 -266.044009,-49.08771 -220.882041,-13.709 -462.198891,50.42566 -647.743061,173.04452 -232.87618,153.078 -398.20672,395.48272 -457.43106,670.47865 -33.7457,155.582289 -32.3046,295.55507 4.0677,459.32167 38.14766,170.44665 111.37683,318.15991 222.29787,449.59792 l 46.92611,55.47137 -23.00448,-110.10425 C -769.05216,624.27704 -783.11595,537.7222 -786.91878,493.1396 z"
       id="path19" />
  </g>
</svg>
