<?xml version="1.0" encoding="iso-8859-1"?>
<svg version="1.1"
     id="Layer_1"
     xmlns="http://www.w3.org/2000/svg"
     xmlns:xlink="http://www.w3.org/1999/xlink"
     x="0px"
     y="0px"
     viewBox="0 0 512 512"
     style="enable-background:new 0 0 512 512;"
     xml:space="preserve">
<g>
        <path d="M240.96,358.108c-0.913-2.578-2.913-4.406-5.363-5.156c-0.311-1.517-0.775-4.406-0.62-8.958
            c0-6.365-1.983-11.977-5.054-16.385c-1.535-2.277-3.38-4.095-5.363-5.612c7.346-6.064,11.953-14.867,11.953-24.879
            c0-18.058-14.556-32.621-32.802-32.621H176.41c-0.156,0-0.156,0-0.156,0c-4.744,0-8.434,3.649-8.434,8.348v89.506
            c0,4.553,3.691,8.348,8.434,8.348c4.759,0,8.588-3.795,8.588-8.348v-32.913h18.09c1.379,0.3,5.363,1.508,8.588,3.638
            c1.845,1.208,3.676,2.725,4.605,4.398c1.068,1.674,1.689,3.639,1.828,6.52c0,8.346,1.087,13.813,3.225,18.211
            c1.225,2.121,2.916,4.098,4.915,5.312c2.138,1.364,4.433,1.664,5.968,1.664c0.156,0,0.156,0,0.156,0c1.535,0,2.76-0.3,3.38-0.456
            C240.047,367.205,242.497,362.505,240.96,358.108z M203.711,312.595h-18.868v-31.258h18.868c8.726,0,15.78,6.984,15.78,15.781
            C219.49,305.61,212.437,312.595,203.711,312.595z"/>
</g>
<g>
        <path d="M264.433,264.497c-4.759-0.001-8.433,3.647-8.433,8.348v89.506c0,4.708,3.673,8.348,8.433,8.348
            c4.605,0,8.59-3.639,8.59-8.348v-89.506C273.023,268.146,269.039,264.497,264.433,264.497z"/>
</g>
<g>
        <path d="M327.571,264.496h-27.283h-0.156c-4.604,0-8.433,3.649-8.433,8.348v89.506c0,4.552,3.829,8.348,8.433,8.348
            c4.744,0,8.573-3.795,8.573-8.348v-32.913h18.867c18.246,0,32.974-14.573,32.974-32.319
            C360.545,279.061,345.816,264.496,327.571,264.496z M327.571,312.595h-18.867v-31.258h18.867c8.899,0,15.798,6.984,15.954,15.781
            C343.369,305.61,336.47,312.595,327.571,312.595z"/>
</g>
<g>
        <path d="M255.968,0c-53.739,0-102.445,21.945-137.639,57.341c-0.543,0.436-1.028,0.938-1.454,1.489
            c-34.073,35.004-55.097,82.769-55.097,135.36c-0.001,4.857,3.936,8.794,8.792,8.794c4.857,0,8.793-3.937,8.793-8.793
            c0-39.88,13.294-76.71,35.674-106.306v34.164c0,3.007,1.538,5.807,4.076,7.421l38.208,24.287l-11.217,33.967
            c-1.523,4.612,0.981,9.585,5.594,11.108c0.914,0.302,1.844,0.445,2.759,0.445c3.691,0,7.128-2.342,8.349-6.038l13.364-40.472
            c1.263-3.824-0.234-8.018-3.633-10.179l-39.914-25.371V67.93c31.856-31.127,75.394-50.344,123.343-50.344
            c81.086,0,149.573,54.935,170.225,129.539l-44.427,28.343c-1.874,1.196-3.224,3.055-3.782,5.207l-8.845,34.113l-33.296,5.02
            c-4.802,0.723-8.108,5.203-7.384,10.005c0.658,4.358,4.407,7.484,8.683,7.484c0.436,0,0.878-0.033,1.323-0.1l39.039-5.887
            c3.483-0.525,6.317-3.079,7.201-6.488l9.435-36.388l36.075-23.015c1.542,9.367,2.357,18.974,2.357,28.77v66.931
            c0,4.856,3.936,8.793,8.793,8.793s8.793-3.937,8.793-8.793v-66.931C450.157,87.113,363.044,0,255.968,0z"/>
</g>
<g>
        <path d="M70.57,261.251c-4.857,0-8.793,3.937-8.793,8.793v20.145c0,4.856,3.937,8.793,8.793,8.793
            c4.857,0,8.793-3.937,8.793-8.793v-20.145C79.364,265.188,75.428,261.251,70.57,261.251z"/>
</g>
<g>
        <path d="M350.173,459.094h-15.771c-4.857,0-8.793,3.937-8.793,8.793c0,4.856,3.936,8.793,8.793,8.793h15.771
            c4.857,0,8.793-3.937,8.793-8.793C358.966,463.031,355.03,459.094,350.173,459.094z"/>
</g>
<g>
        <path d="M495.993,479.082c4.689-8.854,7.145-18.708,7.145-28.853c0-15.182-5.515-29.092-14.634-39.86
            c5.849-7.163,9.18-16.222,9.18-25.619c0-22.301-18.144-40.445-40.445-40.445c-2.385,0-4.752,0.23-7.081,0.642v-24.228
            c0-4.856-3.936-8.793-8.793-8.793c-4.857,0-8.793,3.937-8.793,8.793l-0.001,36.025c-0.028,0.388-0.023,0.78,0,1.171
            l-0.002,101.178h-39.699c-4.857,0-8.793,3.937-8.793,8.793c0,4.856,3.936,8.793,8.793,8.793h66.221
            c7.297,0,13.911,2.967,18.712,7.752c0.529,0.866,1.216,1.651,2.052,2.311c1.816,2.286,3.278,4.866,4.266,7.671H27.881
            c1.007-2.857,2.504-5.48,4.368-7.797c0.709-0.586,1.305-1.265,1.782-2.008c4.814-4.885,11.493-7.928,18.878-7.928h228.833
            c4.857,0,8.793-3.937,8.793-8.793c0-4.856-3.936-8.793-8.793-8.793H79.364c0-0.001,0-0.004,0-0.005V350.344
            c0-4.856-3.936-8.793-8.793-8.793c-4.857,0-8.793,3.937-8.793,8.793v38.746c-29.911,4.283-52.979,30.061-52.979,61.137
            c0,10.167,2.468,20.04,7.175,28.908c-4.53,6.928-7.175,15.195-7.175,24.071c0,4.856,3.936,8.793,8.793,8.793h476.818
            c4.857,0,8.793-3.937,8.793-8.793C503.202,494.307,500.544,486.02,495.993,479.082z M61.777,406.922v52.167
            c0,0.001,0,0.004,0,0.005h-8.866c-8.689,0-16.791,2.535-23.628,6.889c-1.905-4.991-2.899-10.313-2.899-15.756
            C26.384,428.873,41.612,411.011,61.777,406.922z M450.157,363.019c2.273-0.739,4.663-1.128,7.081-1.128
            c12.605,0,22.859,10.254,22.859,22.859c0,5.156-1.682,10-4.732,13.94c-7.439-4.924-15.998-8.28-25.208-9.599V363.019z
             M482.662,465.951c-6.825-4.333-14.909-6.855-23.574-6.855h-8.932v-0.001c0-0.001,0-0.003,0-0.005v-52.167
            c7.596,1.541,14.484,5.041,20.128,9.941c0.068,0.059,0.135,0.121,0.204,0.177c9.223,8.104,15.061,19.973,15.061,33.188
            C485.55,455.659,484.56,460.969,482.662,465.951z"/>
</g>
</svg>
