<?xml version="1.0" encoding="UTF-8"?>
<svg xmlns="http://www.w3.org/2000/svg" xmlns:xlink="http://www.w3.org/1999/xlink" width="88px" height="109px" viewBox="0 0 88 109" version="1.1">
  <defs/>
  <g fill="#000000" id="layer1">
    <path d="M52.986,57.297 C51.189,57.322 53.326,58.223 55.672,58.584 C56.32,58.078 56.908,57.566 57.432,57.068 C55.971,57.426 54.484,57.434 52.986,57.297" id="Shape"/>
    <path d="M62.631,54.893 C63.701,53.416 64.481,51.799 64.756,50.127 C64.516,51.319 63.869,52.348 63.26,53.434 C59.901,55.549 62.944,52.178 63.258,50.897 C59.646,55.443 62.762,53.623 62.631,54.893" id="Shape"/>
    <path d="M66.191,45.629 C66.408,42.393 65.554,43.416 65.267,44.651 C65.602,44.825 65.867,46.932 66.191,45.629" id="Shape"/>
    <path d="M46.172,1.399 C47.131,1.571 48.244,1.703 48.088,1.932 C49.137,1.702 49.375,1.49 46.172,1.399" id="Shape"/>
    <polyline id="Shape" points="48.088 1.932 47.41 2.072 48.041 2.016 48.088 1.932"/>
    <path d="M77.992,46.856 C78.099,49.762 77.142,51.172 76.279,53.668 L74.726,54.444 C73.455,56.912 74.849,56.011 73.939,57.974 C71.955,59.738 67.918,63.494 66.626,63.837 C65.683,63.816 67.265,62.724 67.472,62.296 C64.816,64.12 65.341,65.034 61.279,66.142 L61.16,65.878 C51.142,70.591 37.226,61.251 37.409,48.507 C37.302,49.316 37.105,49.114 36.883,49.441 C36.366,42.884 39.911,36.298 45.89,33.609 C51.738,30.714 58.594,31.902 62.783,35.806 C60.482,32.792 55.902,29.597 50.474,29.896 C45.157,29.98 40.183,33.359 38.523,37.027 C35.799,38.742 35.483,43.638 34.296,44.534 C32.699,56.271 37.3,61.342 45.083,67.307 C46.308,68.133 45.428,68.258 45.594,68.887 C43.008,67.676 40.64,65.848 38.693,63.61 C39.726,65.122 40.841,66.592 42.282,67.747 C39.844,66.921 36.587,61.839 35.636,61.632 C39.839,69.157 52.688,74.829 59.416,72.015 C56.303,72.13 52.348,72.079 48.85,70.786 C47.381,70.03 45.383,68.464 45.74,68.171 C54.922,71.601 64.407,70.769 72.352,64.4 C74.373,62.826 76.581,60.148 77.219,60.111 C76.258,61.556 77.383,60.806 76.645,62.082 C78.659,58.834 75.77,60.76 78.727,56.473 L79.819,57.977 C79.413,55.281 83.167,52.007 82.786,47.743 C83.647,46.439 83.747,49.146 82.833,52.146 C84.101,48.818 83.167,48.283 83.493,45.537 C83.845,46.46 84.307,47.441 84.544,48.415 C83.718,45.199 85.392,42.999 85.806,41.13 C85.398,40.949 84.531,42.552 84.333,38.753 C84.362,37.103 84.792,37.888 84.958,37.482 C84.634,37.296 83.784,36.031 83.267,33.605 C83.642,33.035 84.269,35.083 84.779,35.167 C84.451,33.238 83.886,31.767 83.863,30.287 C82.373,27.173 83.336,30.702 82.127,28.95 C80.541,24.003 83.443,27.802 83.639,25.554 C86.043,29.037 87.414,34.435 88.043,36.671 C87.563,33.945 86.787,31.304 85.84,28.749 C86.57,29.056 84.664,23.14 86.789,27.058 C84.519,18.706 77.074,10.902 70.225,7.24 C71.063,8.007 72.121,8.97 71.741,9.121 C68.335,7.093 68.934,6.935 68.446,6.078 C65.671,4.949 65.489,6.169 63.651,6.08 C58.421,3.306 57.413,3.601 52.6,1.863 L52.819,2.886 C49.354,1.732 48.782,3.324 45.037,2.89 C44.809,2.712 46.237,2.246 47.412,2.075 C44.062,2.517 44.219,1.415 40.941,2.197 C41.749,1.63 42.603,1.255 43.465,0.773 C40.733,0.939 36.943,2.363 38.113,1.068 C33.657,3.056 25.743,5.847 21.302,10.011 L21.162,9.078 C19.127,11.521 12.288,16.374 11.743,19.538 L11.199,19.665 C10.14,21.458 9.455,23.49 8.615,25.335 C7.23,27.695 6.585,26.243 6.782,26.613 C4.058,32.136 2.705,36.777 1.536,40.583 C2.369,41.828 1.556,48.078 1.871,53.08 C0.503,77.784 19.209,101.77 39.656,107.308 C42.653,108.38 47.11,108.339 50.901,108.449 C46.428,107.17 45.85,107.771 41.493,106.252 C38.35,104.772 37.661,103.082 35.435,101.15 L36.316,102.707 C31.95,101.162 33.777,100.795 30.225,99.67 L31.166,98.441 C29.751,98.334 27.418,96.056 26.78,94.795 L25.232,94.856 C23.372,92.561 22.381,90.907 22.453,89.626 L21.953,90.517 C21.386,89.544 15.11,81.91 18.366,83.687 C17.761,83.134 16.957,82.787 16.085,81.203 L16.748,80.445 C15.181,78.429 13.864,75.845 13.964,74.984 C14.8,76.113 15.38,76.324 15.954,76.517 C11.997,66.699 11.775,75.976 8.778,66.523 L9.412,66.472 C8.926,65.74 8.631,64.945 8.24,64.165 L8.516,61.415 C5.667,58.121 7.719,47.409 8.13,41.534 C8.415,39.145 10.508,36.602 12.1,32.614 L11.13,32.447 C12.984,29.213 21.716,19.459 25.76,19.961 C27.719,17.5 25.371,19.952 24.988,19.332 C29.291,14.879 30.644,16.186 33.548,15.385 C36.68,13.526 30.86,16.11 32.345,14.676 C37.759,13.293 36.182,11.532 43.245,10.83 C43.99,11.254 41.516,11.485 40.895,12.035 C45.406,9.828 55.17,10.33 61.512,13.26 C68.871,16.699 77.139,26.865 77.465,36.43 L77.836,36.53 C77.648,40.332 78.418,44.729 77.084,48.768 L77.992,46.856" id="Shape"/>
    <path d="M33.372,59.764 L33.12,61.024 C34.301,62.628 35.238,64.366 36.746,65.62 C35.661,63.502 34.855,62.627 33.372,59.764" id="Shape"/>
    <path d="M36.164,59.654 C35.539,58.963 35.169,58.131 34.755,57.302 C35.151,58.759 35.962,60.011 36.717,61.284 L36.164,59.654" id="Shape"/>
    <path d="M85.568,48.916 L85.304,49.578 C84.82,53.016 83.775,56.418 82.173,59.572 C83.943,56.244 85.088,52.604 85.568,48.916" id="Shape"/>
    <path d="M46.527,0.537 C47.742,0.092 49.514,0.293 50.803,0 C49.123,0.141 47.451,0.225 45.8,0.438 L46.527,0.537" id="Shape"/>
    <path d="M3.872,23.219 C4.152,25.811 1.922,26.817 4.366,25.108 C5.676,22.157 3.854,24.293 3.872,23.219" id="Shape"/>
    <path d="M1,35.215 C1.563,33.487 1.665,32.449 1.88,31.449 C0.324,33.438 1.164,33.862 1,35.215" id="Shape"/>
  </g>
</svg>
