<?xml version="1.0" encoding="UTF-8" standalone="no"?>
<svg width="268px" height="148px" viewBox="-134 -74 268 148" version="1.1" xmlns="http://www.w3.org/2000/svg" xmlns:xlink="http://www.w3.org/1999/xlink" stroke="none" fill="#000000">
<defs>
<rect id="display_backlight_dot" x="-5" y="-5" width="10" height="10"/>
<rect id="display_backlight_backlight" x="-5" y="-10" width="10" height="20" rx="5" ry="5"/>
</defs>
<use xlink:href="#display_backlight_dot" transform="translate(-12,36)"/>
<use xlink:href="#display_backlight_dot" transform="translate(0,36)"/>
<use xlink:href="#display_backlight_dot" transform="translate(12,36)"/>
<use xlink:href="#display_backlight_dot" transform="translate(0,24)"/>
<use xlink:href="#display_backlight_dot" transform="translate(0,12)"/>
<use xlink:href="#display_backlight_dot" transform="translate(0,0)"/>
<use xlink:href="#display_backlight_dot" transform="translate(0,-12)"/>
<use xlink:href="#display_backlight_dot" transform="translate(0,-24)"/>
<use xlink:href="#display_backlight_dot" transform="translate(-12,-24)"/>
<use xlink:href="#display_backlight_dot" transform="translate(0,-36)"/>
<g transform="translate(-72,0)">
<use xlink:href="#display_backlight_dot" transform="translate(-12,-36)"/>
<use xlink:href="#display_backlight_dot" transform="translate(0,-36)"/>
<use xlink:href="#display_backlight_dot" transform="translate(12,-36)"/>
<use xlink:href="#display_backlight_dot" transform="translate(-24,12)"/>
<use xlink:href="#display_backlight_dot" transform="translate(-12,12)"/>
<use xlink:href="#display_backlight_dot" transform="translate(0,12)"/>
<use xlink:href="#display_backlight_dot" transform="translate(12,12)"/>
<use xlink:href="#display_backlight_dot" transform="translate(24,12)"/>
<use xlink:href="#display_backlight_dot" transform="translate(-24,-24)"/>
<use xlink:href="#display_backlight_dot" transform="translate(24,-24)"/>
<use xlink:href="#display_backlight_dot" transform="translate(-24,-12)"/>
<use xlink:href="#display_backlight_dot" transform="translate(24,-12)"/>
<use xlink:href="#display_backlight_dot" transform="translate(-24,0)"/>
<use xlink:href="#display_backlight_dot" transform="translate(24,0)"/>
<use xlink:href="#display_backlight_dot" transform="translate(-24,24)"/>
<use xlink:href="#display_backlight_dot" transform="translate(24,24)"/>
<use xlink:href="#display_backlight_dot" transform="translate(-24,36)"/>
<use xlink:href="#display_backlight_dot" transform="translate(24,36)"/>
</g>
<g transform="translate(72,0)">
<use xlink:href="#display_backlight_dot" transform="translate(-24,12)"/>
<use xlink:href="#display_backlight_dot" transform="translate(-12,12)"/>
<use xlink:href="#display_backlight_dot" transform="translate(0,12)"/>
<use xlink:href="#display_backlight_dot" transform="translate(12,12)"/>
<use xlink:href="#display_backlight_dot" transform="translate(24,12)"/>
<use xlink:href="#display_backlight_dot" transform="translate(-24,-12)"/>
<use xlink:href="#display_backlight_dot" transform="translate(-12,-12)"/>
<use xlink:href="#display_backlight_dot" transform="translate(0,-12)"/>
<use xlink:href="#display_backlight_dot" transform="translate(12,-12)"/>
<use xlink:href="#display_backlight_dot" transform="translate(24,-12)"/>
<use xlink:href="#display_backlight_dot" transform="translate(-12,36)"/>
<use xlink:href="#display_backlight_dot" transform="translate(12,36)"/>
<use xlink:href="#display_backlight_dot" transform="translate(-12,24)"/>
<use xlink:href="#display_backlight_dot" transform="translate(12,24)"/>
<use xlink:href="#display_backlight_dot" transform="translate(-12,0)"/>
<use xlink:href="#display_backlight_dot" transform="translate(12,0)"/>
<use xlink:href="#display_backlight_dot" transform="translate(-12,-24)"/>
<use xlink:href="#display_backlight_dot" transform="translate(12,-24)"/>
<use xlink:href="#display_backlight_dot" transform="translate(-12,-36)"/>
<use xlink:href="#display_backlight_dot" transform="translate(12,-36)"/>
</g>
<use xlink:href="#display_backlight_backlight" transform="translate(0,60)"/>
<use xlink:href="#display_backlight_backlight" transform="translate(0,-60)"/>
<use xlink:href="#display_backlight_backlight" transform="translate(120,0) rotate(90)"/>
<use xlink:href="#display_backlight_backlight" transform="translate(-120,0) rotate(90)"/>
<use xlink:href="#display_backlight_backlight" transform="translate(120,60) rotate(-45)"/>
<use xlink:href="#display_backlight_backlight" transform="translate(-120,60) rotate(45)"/>
<use xlink:href="#display_backlight_backlight" transform="translate(120,-60) rotate(45)"/>
<use xlink:href="#display_backlight_backlight" transform="translate(-120,-60) rotate(-45)"/>
<use xlink:href="#display_backlight_backlight" transform="translate(60,60) rotate(-22.5)"/>
<use xlink:href="#display_backlight_backlight" transform="translate(-60,60) rotate(22.5)"/>
<use xlink:href="#display_backlight_backlight" transform="translate(60,-60) rotate(22.5)"/>
<use xlink:href="#display_backlight_backlight" transform="translate(-60,-60) rotate(-22.5)"/>
</svg>
