<?xml version="1.0" encoding="UTF-8" standalone="no"?>
<svg xmlns="http://www.w3.org/2000/svg" xmlns:xlink="http://www.w3.org/1999/xlink" width="375px" height="282px" viewBox="0 0 375 282" version="1.1">
  <defs/>
  <g fill="#000000" id="layer1">
    <path d="M371.40625,126.25 C360.05827,119.152627 347.110908,115.015918 333.75,114.21875 C331.46215,114.031711 329.16285,114.031711 326.875,114.21875 C322.565503,99.8922275 313.533805,87.4461065 301.25,78.90625 C298.094147,76.7907894 293.873953,77.2523732 291.25,80 C280.279709,94.6593164 276.178268,113.343654 280,131.25 C280.279184,133.578492 279.538642,135.91405 277.96875,137.65625 C276.618259,139.166355 274.682039,140.02057 272.65625,140 L265.625,140 L265.625,101.5625 C265.625,97.2477754 262.127225,93.75 257.8125,93.75 L218.75,93.75 L218.75,7.8125 C218.75,3.49777539 215.252225,0 210.9375,0 L164.0625,0 C159.747775,0 156.25,3.49777539 156.25,7.8125 L156.25,46.875 L70.3125,46.875 C65.9977754,46.875 62.5,50.3727754 62.5,54.6875 L62.5,93.75 L23.4375,93.75 C19.1227754,93.75 15.625,97.2477754 15.625,101.5625 L15.625,140.625 L7.8125,140.625 C3.49777539,140.625 5.28401368e-16,144.122775 0,148.4375 C0,268.28125 87.34375,281.25 125,281.25 C204.586837,281.485122 278.282242,239.339446 318.4375,170.625 C340.886167,167.664794 361.035616,155.348089 373.90625,136.71875 C375.992926,133.1201 374.893796,128.517492 371.40625,126.25 Z M250,140.625 L218.75,140.625 L218.75,109.375 L250,109.375 L250,140.625 Z M78.125,140.625 L78.125,109.375 L109.375,109.375 L109.375,140.625 L78.125,140.625 Z M125,140.625 L125,109.375 L156.25,109.375 L156.25,140.625 L125,140.625 Z M203.125,62.5 L203.125,93.75 L171.875,93.75 L171.875,62.5 L203.125,62.5 Z M171.875,140.625 L171.875,109.375 L203.125,109.375 L203.125,140.625 L171.875,140.625 Z M171.875,15.625 L203.125,15.625 L203.125,46.875 L171.875,46.875 L171.875,15.625 Z M156.25,93.75 L125,93.75 L125,62.5 L156.25,62.5 L156.25,93.75 Z M78.125,62.5 L109.375,62.5 L109.375,93.75 L78.125,93.75 L78.125,62.5 Z M31.25,109.375 L62.5,109.375 L62.5,140.625 L31.25,140.625 L31.25,109.375 Z M78.125,218.75 C69.4955508,218.75 62.5,211.754449 62.5,203.125 C62.5,194.495551 69.4955508,187.5 78.125,187.5 C86.7544492,187.5 93.75,194.495551 93.75,203.125 C93.75,211.754449 86.7544492,218.75 78.125,218.75 Z" id="Shape"/>
  </g>
</svg>
