<?xml version="1.0" encoding="UTF-8" standalone="no"?>
<!-- Created with Inkscape (http://www.inkscape.org/) -->

<svg
   xmlns:dc="http://purl.org/dc/elements/1.1/"
   xmlns:cc="http://creativecommons.org/ns#"
   xmlns:rdf="http://www.w3.org/1999/02/22-rdf-syntax-ns#"
   xmlns:svg="http://www.w3.org/2000/svg"
   xmlns="http://www.w3.org/2000/svg"
   xmlns:sodipodi="http://sodipodi.sourceforge.net/DTD/sodipodi-0.dtd"
   xmlns:inkscape="http://www.inkscape.org/namespaces/inkscape"
   version="1.1"
   width="585"
   height="585"
   viewBox="0 0 468 468"
   id="svg2"
   inkscape:version="0.48.2 r9819"
   sodipodi:docname="dog_silhouette.svg">
  <defs
     id="defs9" />
  <sodipodi:namedview
     pagecolor="#ffffff"
     bordercolor="#666666"
     borderopacity="1"
     objecttolerance="10"
     gridtolerance="10"
     guidetolerance="10"
     inkscape:pageopacity="0"
     inkscape:pageshadow="2"
     inkscape:window-width="640"
     inkscape:window-height="480"
     id="namedview7"
     showgrid="false"
     inkscape:zoom="0.4034188"
     inkscape:cx="292.5"
     inkscape:cy="292.5"
     inkscape:window-x="0"
     inkscape:window-y="0"
     inkscape:window-maximized="0"
     inkscape:current-layer="svg2" />
  <metadata
     id="metadata3">
    <rdf:RDF>
      <cc:Work>
        <dc:format>image/svg+xml</dc:format>
        <dc:type
           rdf:resource="http://purl.org/dc/dcmitype/StillImage" />
        <cc:license
           rdf:resource="http://creativecommons.org/licenses/publicdomain/" />
        <dc:publisher>
          <cc:Agent
             rdf:about="http://openclipart.org/">
            <dc:title>Openclipart</dc:title>
          </cc:Agent>
        </dc:publisher>
        <dc:title>Dog silhouette</dc:title>
        <dc:date>2010-05-31T23:25:45</dc:date>
        <dc:description>A silhouette of a dog.</dc:description>
        <dc:source>http://openclipart.org/detail/63865/dog-silhouette-by-laobc</dc:source>
        <dc:creator>
          <cc:Agent>
            <dc:title>laobc</dc:title>
          </cc:Agent>
        </dc:creator>
        <dc:subject>
          <rdf:Bag>
            <rdf:li>animal</rdf:li>
            <rdf:li>black and white</rdf:li>
            <rdf:li>clip art</rdf:li>
            <rdf:li>clipart</rdf:li>
            <rdf:li>dog</rdf:li>
            <rdf:li>mammal</rdf:li>
            <rdf:li>silhouette</rdf:li>
          </rdf:Bag>
        </dc:subject>
      </cc:Work>
      <cc:License
         rdf:about="http://creativecommons.org/licenses/publicdomain/">
        <cc:permits
           rdf:resource="http://creativecommons.org/ns#Reproduction" />
        <cc:permits
           rdf:resource="http://creativecommons.org/ns#Distribution" />
        <cc:permits
           rdf:resource="http://creativecommons.org/ns#DerivativeWorks" />
      </cc:License>
    </rdf:RDF>
  </metadata>
  <g
     id="layer1"
     transform="matrix(1.0736867,0,0,1.0736867,480.08788,-548.62383)">
    <path
       id="path2830"
       d="m -235.91,791.54 c 0.27836,10.072 2.2495,30.144 2.2495,30.144 0.79523,10.656 1.6323,21.311 2.6994,31.943 0.64834,6.4596 2.2495,19.346 2.2495,19.346 0.3533,3.0383 0.67076,6.1552 1.7996,8.9981 0.52214,1.3149 2.2495,3.5992 2.2495,3.5992 1.6809,2.6895 1.05,6.2773 1.1248,9.448 0.0745,3.1565 -0.67486,9.448 -0.67486,9.448 -0.12207,1.7088 -1.5022,3.0924 -2.0246,4.724 -1.2871,4.0201 -2.5296,8.1546 -2.6994,12.372 -0.11262,2.7974 1.1248,8.3232 1.1248,8.3232 0.17766,1.3147 1.6981,2.0542 2.6994,2.9244 0.89489,0.7777 1.8186,1.5969 2.9244,2.0246 1.0583,0.40932 2.2446,0.55708 3.3743,0.4499 0.70819,-0.0671 1.4411,-0.26798 2.0246,-0.67485 0.39384,-0.27462 0.89981,-1.1248 0.89981,-1.1248 0.56406,-0.70507 1.0985,1.4556 1.7996,2.0246 0.93889,0.76181 3.1493,1.7996 3.1493,1.7996 1.2005,0.68598 2.667,0.8628 4.0491,0.8998 0.9119,0.0244 2.6994,-0.4499 2.6994,-0.4499 0.53846,-0.0897 1.0594,-0.26964 1.5747,-0.4499 0.92011,-0.3219 2.6994,-1.1248 2.6994,-1.1248 1.029,-0.42873 1.3713,1.788 2.2495,2.4745 0.87227,0.68181 2.9244,1.5747 2.9244,1.5747 1.0666,0.57432 2.3915,-0.64138 3.3743,-1.3497 1.0359,-0.74663 2.4745,-2.9244 2.4745,-2.9244 1.2118,-1.4322 -0.12869,-3.7813 0.22495,-5.6238 0.25482,-1.3276 1.4172,-2.4741 1.3497,-3.8242 0,0 0.22185,-3.0655 -0.22495,-4.499 -0.55107,-1.7681 -1.9715,-3.1359 -2.9244,-4.724 0,0 -2.953,-4.3652 -4.0491,-6.7486 -1.189,-2.5851 -2.0187,-5.3354 -2.6994,-8.0983 -0.78148,-3.1719 -1.1454,-6.4345 -1.5747,-9.6729 -0.77262,-5.8284 -1.7996,-17.546 -1.7996,-17.546 -0.69064,-6.7336 -1.2557,-13.484 -1.5747,-20.246 -0.4241,-8.9893 -0.4499,-26.994 -0.4499,-26.994 -0.0612,-3.6745 0.0692,-7.351 0.22495,-11.023 0.0988,-2.3272 0.12132,-4.6675 0.44992,-6.9735 0.29258,-2.0532 1.3497,-6.0737 1.3497,-6.0737 0.41661,-1.8748 2.3344,-3.0539 3.5992,-4.499 1.5718,-1.7959 4.9489,-5.1739 4.9489,-5.1739 1.6922,-1.7692 3.6156,-3.3237 5.6238,-4.724 1.4877,-1.0373 4.724,-2.6994 4.724,-2.6994 1.0437,-0.5964 2.4013,-0.12559 3.5992,-0.22495 2.1787,-0.18069 6.5236,-0.67486 6.5236,-0.67486 1.945,-0.2012 4.3764,-0.83683 5.8488,0.44991 0.80839,0.7065 0.67485,3.1493 0.67485,3.1493 l 0.89981,9.8979 c 0.32762,3.6038 0.75725,7.1977 1.1248,10.798 0.38264,3.7484 1.1248,11.248 1.1248,11.248 0.43589,4.3589 1.1859,8.6839 1.5747,13.047 0.34662,3.8902 0.67485,11.698 0.67485,11.698 0.12963,2.247 0.18746,4.4981 0.22496,6.7486 0.0237,1.4245 0,4.2741 0,4.2741 0,1.1641 0.47479,2.2906 0.8998,3.3743 0.52662,1.3428 2.0246,3.8242 2.0246,3.8242 0.98486,1.8603 0.20163,4.2084 0.44991,6.2987 0.26901,2.2646 -0.0294,4.7816 1.1248,6.7486 0.97189,1.6565 4.499,3.5992 4.499,3.5992 0.98152,0.78521 0.73239,2.4051 1.1248,3.5992 0.71804,2.1852 2.2495,6.5236 2.2495,6.5236 0.65817,1.9087 1.9707,3.5346 3.1493,5.1739 1.0873,1.5123 3.5992,4.2741 3.5992,4.2741 0.84352,1.0017 2.3046,1.3778 3.5992,1.5747 1.3426,0.20411 3.1493,-0.22495 4.0491,-0.4499 0.89981,-0.22495 3.0333,-0.81836 3.8242,-2.0246 0.53606,-0.8176 -0.65411,-2.4965 0.22495,-2.9244 0.72927,-0.35499 2.0246,1.3497 2.0246,1.3497 2.271,1.514 4.9643,2.4287 7.6484,2.9244 1.696,0.31317 3.5523,0.58711 5.1739,0 1.1013,-0.39875 2.0767,-1.2575 2.6994,-2.2495 0.32872,-0.52372 0.47364,-1.1817 0.44991,-1.7996 -0.0364,-0.94779 -0.89981,-2.6994 -0.89981,-2.6994 -0.1852,-0.55559 1.0055,-0.65094 1.3497,-1.1248 0.47468,-0.65338 0.89982,-2.2495 0.89982,-2.2495 0.30633,-0.76583 0.26083,-1.692 0,-2.4745 -0.35569,-1.067 -2.0246,-2.6994 -2.0246,-2.6994 -2.2351,-2.9801 -5.6089,-4.91 -8.5482,-7.1985 -2.3316,-1.8154 -7.1985,-5.1739 -7.1985,-5.1739 -1.6383,-1.1775 -3.3086,-2.4201 -4.499,-4.0491 -1.5049,-2.0593 -3.1493,-6.9735 -3.1493,-6.9735 -1.1925,-2.6406 -1.3378,-5.6605 -1.5747,-8.5482 -0.66202,-8.0726 0.44991,-24.295 0.44991,-24.295 0.0918,-4.9572 0.23208,-9.934 0.8998,-14.847 0.48525,-3.5703 1.6234,-7.0244 2.2495,-10.573 0,0 0.87878,-5.1027 1.3497,-7.6484 0.43069,-2.3281 1.0286,-4.6277 1.3497,-6.9735 0.37752,-2.7578 0.10255,-5.5992 0.67487,-8.3232 0.42416,-2.019 2.0246,-5.8487 2.0246,-5.8487 1.0223,-2.9532 2.9205,-5.546 4.724,-8.0983 1.4738,-2.0857 4.9489,-5.8487 4.9489,-5.8487 2.0023,-2.3664 3.6961,-5.0379 4.9489,-7.8733 1.1323,-2.5626 2.2495,-8.0983 2.2495,-8.0983 1.1848,-4.2651 -0.3749,-8.8462 -0.4499,-13.272 -0.11306,-6.6726 0,-20.021 0,-20.021 0,-4.8693 2.0121,-9.5496 2.4745,-14.397 0.3561,-3.733 0.27241,-7.4979 0.22495,-11.248 0,0 -0.63255,-11.861 -0.22495,-17.771 0.17219,-2.4968 0.54907,-4.9878 1.1248,-7.4234 0,0 2.0342,-8.2292 2.9244,-12.372 0.49736,-2.3148 1.3497,-6.9735 1.3497,-6.9735 0,0 0.29215,-2.7003 0.4499,-4.0491 0.50022,-4.277 1.1404,-8.538 1.5747,-12.822 0.37928,-3.742 0.55794,-7.502 0.8998,-11.248 0.2672,-2.9276 -0.007,-5.9767 0.89982,-8.7731 0.50768,-1.566 1.2246,-3.2027 2.4745,-4.2741 0,0 3.0179,-2.8698 4.724,-4.0491 2.9537,-2.0417 6.2992,-3.4483 9.448,-5.1739 2.3249,-1.274 4.6842,-2.4873 6.9735,-3.8242 2.2101,-1.2906 4.5698,-2.3959 6.5236,-4.0491 0,0 4.2498,-2.9575 5.8488,-4.9489 1.008,-1.2554 1.6842,-2.7666 2.2495,-4.2741 l 2.6994,-7.1985 c 0.49677,-1.3247 1.7641,-2.2703 2.2495,-3.5992 0.36387,-0.99605 0.53676,-2.0924 0.44991,-3.1493 -0.12236,-1.489 -1.2846,-2.7815 -1.3497,-4.2741 -0.09041,-2.072 1.3497,-6.0737 1.3497,-6.0737 0.36007,-1.6203 -0.78145,-3.266 -1.5747,-4.724 -0.22945,-0.42176 -0.89981,-1.1248 -0.89981,-1.1248 -1.2647,-1.5809 0.43432,-4.0963 0,-6.0737 -0.23031,-1.0486 -1.3497,-2.9244 -1.3497,-2.9244 -0.31107,-0.67398 -0.90075,-1.2635 -1.5747,-1.5747 -1.7073,-0.78842 -5.6238,-0.4499 -5.6238,-0.4499 -3.5257,-0.28205 -7.0526,0.55451 -10.573,0.8998 -2.7031,0.26515 -8.0983,0.89982 -8.0983,0.89982 -2.9217,0.32464 -5.906,0.25077 -8.7731,0.89981 -2.1744,0.49221 -4.1019,1.869 -6.2987,2.2495 -0.51718,0.0896 -1.2035,0.37116 -1.5747,0 -0.79532,-0.79533 0,-3.3743 0,-3.3743 0,0 -0.14722,-2.4985 -0.67485,-3.5992 -0.89647,-1.8702 -4.0491,-4.724 -4.0491,-4.724 -1.1424,-1.3327 -3.2098,-1.5616 -4.9489,-1.7996 -1.9373,-0.26511 -5.8488,0.44991 -5.8488,0.44991 -1.1214,0.0863 -2.2762,0.2436 -3.3743,0 -3.6352,-0.80648 -10.123,-4.724 -10.123,-4.724 -4.7062,-2.1962 -10.329,-1.2918 -15.522,-1.3497 -6.9876,-0.078 -14.041,0.12131 -20.921,1.3497 -2.8493,0.50879 -8.3232,2.4745 -8.3232,2.4745 -1.2716,0.37805 -1.9602,1.8228 -2.6994,2.9244 -0.69162,1.0307 -0.60496,2.5995 -1.5747,3.3743 -1.3789,1.1017 -3.4794,0.63104 -5.1739,1.1248 -1.4577,0.42473 -4.2741,1.5747 -4.2741,1.5747 -1.8415,0.67845 -2.6396,2.9086 -4.0491,4.2741 -1.9456,1.8848 -6.0737,5.3988 -6.0737,5.3988 -1.9129,1.7004 -2.7786,4.8144 -4.0491,6.5236 -1.2705,1.7092 -2.669,2.2774 -3.3743,3.8242 -0.94144,2.0649 0.10557,4.714 -0.8998,6.7486 -0.42281,0.85562 -1.5816,1.1792 -2.0246,2.0246 -0.77816,1.4852 -0.89981,4.9489 -0.89981,4.9489 -0.48289,2.6559 -0.56038,5.4577 0,8.0983 0.30662,1.4448 1.7996,4.0491 1.7996,4.0491 0.58579,1.318 1.2862,2.5852 2.0246,3.8242 0.41524,0.69673 1.2162,1.2245 1.3497,2.0246 0.24247,1.4531 -1.1248,4.2741 -1.1248,4.2741 -1.4583,5.5416 -0.77782,11.458 -1.7996,17.096 -0.7459,4.116 -3.1493,12.147 -3.1493,12.147 -0.74564,2.876 -4.0084,4.4921 -6.5236,6.0737 -1.5678,0.98584 -5.1739,2.0246 -5.1739,2.0246 -1.9664,0.76946 -5.1739,0.22495 -6.2986,0.67486 -1.1248,0.4499 -5.2915,-0.15268 -7.8733,-0.67486 -2.8588,-0.5782 -5.5888,-1.6846 -8.3232,-2.6994 -2.3632,-0.87698 -6.9735,-2.9244 -6.9735,-2.9244 -3.5449,-1.4866 -7.0487,-3.1999 -10.798,-4.0491 -3.3767,-0.76487 -6.8855,-0.8901 -10.348,-0.8998 l -40.154,-0.11249 c -7.1692,-0.02 -14.358,1.1085 -21.483,0.78733 -1.1438,-0.0515 -4.724,-1.7996 -7.6484,-2.9244 -2.9244,-1.1248 -4.4658,-2.6099 -6.7486,-3.8242 l -10.573,-5.6238 c 0,0 -5.9617,-2.2121 -8.9981,-3.1493 -3.0415,-0.93883 -6.2986,-2.2495 -9.223,-2.4745 -2.9244,-0.22496 -13.817,-1.1248 -10.348,-1.1248 1.1819,0 -4.2229,-0.18944 -6.5236,0.22495 -1.7275,0.31114 -4.949,1.7996 -4.949,1.7996 -1.3463,0.48957 -2.5767,1.6112 -3.1493,2.9244 -0.50953,1.1685 -0.26986,2.5784 0,3.8242 0.19181,0.8855 0.62256,1.7204 1.1248,2.4745 0.79404,1.1924 1.7199,2.3738 2.9244,3.1493 2.193,1.4121 4.9669,1.5976 7.4234,2.4745 3.174,1.133 6.141,3.7345 9.448,3.5992 3.379,-0.13824 4.7509,0.54802 7.1984,2.6994 1.6876,1.4834 5.3988,4.0491 5.3988,4.0491 2.2122,1.6592 4.3364,3.4505 6.2986,5.3988 1.6218,1.6103 4.499,5.1739 4.499,5.1739 2.2537,2.5917 5.3181,4.4107 8.3232,6.0737 2.8264,1.5642 8.9981,3.5992 8.9981,3.5992 1.9936,0.79744 3.8259,1.9792 5.8487,2.6994 1.2764,0.45446 3.9367,1.0123 3.9367,1.0123 5.3073,1.3647 -0.94665,10.51 -2.137,15.859 -1.0044,4.5131 -2.0246,13.722 -2.0246,13.722 -0.66986,4.5402 -1.1167,9.1327 -1.1248,13.722 -0.006,3.8359 0.32093,7.6806 0.89981,11.473 0.40628,2.6613 1.6646,5.1846 1.7996,7.8733 0.0606,1.2076 -0.4499,3.5992 -0.4499,3.5992 -0.35925,2.874 -2.9244,7.1985 -3.1493,8.0983 -0.22495,0.8998 -2.8918,5.5225 -3.1493,8.5482 0,0 -0.74971,7.039 -0.89982,10.573 -0.30548,7.192 0,21.595 0,21.595 0,2.41 -0.4499,6.2986 -0.67485,7.1985 -0.22495,0.89981 -1.5747,7.1985 -1.7996,8.0983 -0.22495,0.89981 -1.7996,8.5482 -2.0246,9.8979 -0.22495,1.3497 -2.7266,7.0382 -4.0491,10.573 -1.4547,3.888 -2.5484,7.9219 -4.2741,11.698 -0.96276,2.1064 -3.3743,6.0737 -3.3743,6.0737 -1.3028,2.3451 -2.3717,4.8131 -3.5992,7.1984 -0.66,1.2825 -1.7846,2.4019 -2.0246,3.8242 -0.16406,0.97252 0.44991,2.9244 0.44991,2.9244 0.19684,1.2794 -0.17072,2.8441 0.67485,3.8242 0.3098,0.35907 1.3497,0.4499 1.3497,0.4499 0.57351,0.19116 1.0518,-1.2032 1.5747,-0.8998 0.38912,0.22581 -0.0669,0.9048 0,1.3497 0.15166,1.0086 0.47222,1.9984 0.89981,2.9244 0.40989,0.88761 0.73017,1.9819 1.5747,2.4745 0,0 1.6938,1.3028 2.6994,1.5747 0.79624,0.21526 2.1056,0.73775 2.4745,0 0,0 0.23415,-1.7177 0.8998,-1.7996 0.68614,-0.0844 0.70002,1.3384 1.3497,1.5747 0,0 1.6556,0.83771 2.4745,0.8998 0.81883,0.0621 2.0246,0.28097 2.2495,-0.4499 0,0 0.0183,-2.4116 0.89981,-2.9244 0.59758,-0.34758 1.3332,0.4499 2.0246,0.4499 0,0 0.92127,0.1373 1.3497,0 0.61426,-0.19684 1.2795,-0.5512 1.5747,-1.1248 0.48036,-0.93342 -0.893,-2.5974 0,-3.1493 0.5705,-0.3526 1.7996,0.8998 1.7996,0.8998 0.91222,0.45611 2.1949,-0.18706 2.9244,-0.8998 1.1872,-1.16 1.2578,-3.0947 1.5747,-4.724 0.22949,-1.18 0.22495,-3.5992 0.22495,-3.5992 0,0 -0.40917,-11.85 -0.22495,-17.771 0.0936,-3.0063 0.67485,-8.9981 0.67485,-8.9981 0.50608,-6.7479 2.4732,-13.339 4.499,-19.796 1.0171,-3.2417 3.8242,-9.448 3.8242,-9.448 1.2911,-3.1897 0.65662,-6.9653 2.0246,-10.123 1.0257,-2.3675 4.499,-6.2986 4.499,-6.2986 2.2605,-3.1647 4.2124,-6.5451 6.5236,-9.6729 1.4893,-2.0155 4.724,-5.8488 4.724,-5.8488 1.0754,-1.3315 1.7886,-2.9309 2.4745,-4.499 0.66512,-1.5207 0.92503,-3.1966 1.5747,-4.724 0.69573,-1.6358 1.1388,-3.551 2.4745,-4.724 1.1408,-1.0019 4.2741,-1.5747 4.2741,-1.5747 2.0598,-0.75886 4.4712,0.12131 6.5236,0.8998 1.7695,0.67117 4.724,3.1493 4.724,3.1493 1.5447,1.0298 3.3206,2.2622 3.8242,4.0491 0.39489,1.4014 -0.3725,2.917 -0.8998,4.2741 -0.69397,1.786 -2.9244,4.949 -2.9244,4.949 -1.1271,1.9074 -2.2395,3.9064 -2.6994,6.0737 -0.28019,1.3203 0,4.0491 0,4.0491 0,3.2942 1.0216,6.5352 2.0246,9.6729 0.7974,2.4948 2.2532,4.7375 3.1493,7.1985 0.90931,2.497 2.2495,7.6484 2.2495,7.6484 0.71937,2.4459 0,6.5236 0,7.6484 0,1.1248 -0.12421,6.0504 0.4499,8.9981 0.34906,1.7923 0.47254,3.9197 1.7996,5.1739 0.79348,0.74991 3.1493,0.8998 3.1493,0.8998 0.88009,0.25145 1.3367,-1.5074 2.2495,-1.5747 0.66887,-0.0492 1.7996,0.89982 1.7996,0.89982 1.1421,0.57106 1.7254,2.0352 2.9244,2.4745 1.6194,0.59319 3.4492,0 5.1739,0 h 2.2495 c 0.87446,0 1.8187,-0.58876 2.2495,-1.3497 0.18472,-0.32626 0,-1.1248 0,-1.1248 0,-1.0199 1.7996,0.8998 2.4745,1.7996 0.67487,0.8998 3.4434,2.1604 4.9489,1.3497 l 2.9244,-1.5747 c 0.79773,-0.42956 0.29044,-2.1212 1.1248,-2.4745 1.0265,-0.43468 2.115,1.5404 3.1493,1.1248 0.46675,-0.18754 0.48237,-0.885 0.67487,-1.3497 0.36296,-0.87628 0.8998,-2.6994 0.8998,-2.6994 0.32251,-0.96756 -0.56017,-1.9627 -0.8998,-2.9244 -0.5379,-1.523 -1.7996,-4.499 -1.7996,-4.499 -0.7601,-1.9003 -4.499,-2.9244 -5.3988,-2.9244 -0.8998,0 -4.2683,-2.4418 -6.2986,-3.8242 -1.9463,-1.3251 -4.1039,-2.4758 -5.6238,-4.2741 -1.1475,-1.3576 -2.4745,-4.724 -2.4745,-4.724 -0.82702,-1.5789 -1.1884,-3.3988 -1.3497,-5.1739 -0.18372,-2.0218 0.4499,-6.0737 0.4499,-6.0737 0.13759,-1.8575 2.2387,-3.002 3.5992,-4.2741 1.0188,-0.95259 3.3743,-2.4745 3.3743,-2.4745 0.7256,-0.53211 1.8425,-0.2746 2.6994,0 1.2285,0.3937 3.1493,2.2495 3.1493,2.2495 2.5634,1.831 5.1548,3.663 7.4234,5.8488 1.4174,1.3656 2.3538,3.1907 3.8242,4.499 0.8079,0.71888 1.6434,1.7485 2.6994,1.7996 4.9122,0.23777 3.2489,16.284 2.4745,24.745 z"
       inkscape:connector-curvature="0"
       style="stroke:#000000;stroke-width:1.25969994px" />
  </g>
</svg>
