<?xml version="1.0" encoding="utf-8"?>
<!-- Generator: Adobe Illustrator 16.0.3, SVG Export Plug-In . SVG Version: 6.00 Build 0)  -->
<!DOCTYPE svg PUBLIC "-//W3C//DTD SVG 1.1//EN" "http://www.w3.org/Graphics/SVG/1.1/DTD/svg11.dtd">
<svg version="1.1" xmlns="http://www.w3.org/2000/svg" xmlns:xlink="http://www.w3.org/1999/xlink" x="0px" y="0px"
	 width="7086.609px" height="7086.609px" viewBox="0 0 7086.609 7086.609" enable-background="new 0 0 7086.609 7086.609"
	 xml:space="preserve">
<g id="Ebene_2">
	<path fill="none" stroke="#000000" stroke-width="150" stroke-miterlimit="10" d="M5217.975,6736.656c0,102.725-83.275,186-186,186
		h-2977.34c-102.725,0-186-83.275-186-186V349.953c0-102.725,83.275-186,186-186h2977.34c102.725,0,186,83.275,186,186V6736.656z"/>
	<path d="M5266.188,3599.299c0,66.301-53.747,120.048-120.048,120.048h-432.173c-66.301,0-120.048-53.747-120.048-120.048l0,0
		c0-66.301,53.747-120.048,120.048-120.048h432.173C5212.441,3479.251,5266.188,3532.998,5266.188,3599.299L5266.188,3599.299z"/>
</g>
<g id="Ebene_3">
	<rect x="1868.635" y="434.413" width="3349.34" height="136"/>
	<rect x="1868.635" y="217.207" width="3349.339" height="136"/>
	<rect x="1868.635" y="1086.033" width="3349.34" height="136"/>
	<rect x="1868.635" y="868.826" width="3349.339" height="136"/>
	<rect x="1868.635" y="651.62" width="3349.34" height="136"/>
	<rect x="1868.635" y="1737.652" width="3349.34" height="136"/>
	<rect x="1868.635" y="1520.446" width="3349.339" height="136"/>
	<rect x="1868.635" y="1303.239" width="3349.34" height="136"/>
	<rect x="1868.83" y="2389.272" width="3349.34" height="136"/>
	<rect x="1868.831" y="2172.065" width="3349.339" height="136"/>
	<rect x="1868.83" y="1954.859" width="3349.34" height="136"/>
	<rect x="1868.635" y="3040.892" width="3349.34" height="136"/>
	<rect x="1868.635" y="2823.685" width="3349.339" height="136"/>
	<rect x="1868.635" y="2606.479" width="3349.34" height="136"/>
	<rect x="1868.635" y="3692.512" width="3349.34" height="136"/>
	<rect x="1868.635" y="3475.305" width="3349.339" height="136"/>
	<rect x="1868.635" y="3258.098" width="3349.34" height="136"/>
	<rect x="1868.831" y="4126.924" width="3349.339" height="136"/>
	<rect x="1868.83" y="3909.718" width="3349.34" height="136"/>
	<rect x="1868.635" y="6733.402" width="3349.339" height="136"/>
</g>
</svg>
