<?xml version="1.0" encoding="UTF-8" standalone="no"?>
<svg
   xmlns:dc="http://purl.org/dc/elements/1.1/"
   xmlns:cc="http://creativecommons.org/ns#"
   xmlns:rdf="http://www.w3.org/1999/02/22-rdf-syntax-ns#"
   xmlns:svg="http://www.w3.org/2000/svg"
   xmlns="http://www.w3.org/2000/svg"
   id="svg8"
   version="1.1"
   viewBox="0 0 155.575 155.575"
   height="588"
   width="588">
  <defs
     id="defs2" />
  <metadata
     id="metadata5">
    <rdf:RDF>
      <cc:Work
         rdf:about="">
        <dc:format>image/svg+xml</dc:format>
        <dc:type
           rdf:resource="http://purl.org/dc/dcmitype/StillImage" />
        <dc:title></dc:title>
      </cc:Work>
    </rdf:RDF>
  </metadata>
  <g
     transform="translate(0,-141.42498)"
     id="layer1">
    <g
       transform="translate(-0.37368168,141.51872)"
       id="22aa5019-b517-444c-b4e2-e6b5a3501f5c" />
    <g
       transform="translate(1.3413293,143.28111)"
       id="22aa5019-b517-444c-b4e2-e6b5a3501f5c-3" />
    <g
       transform="translate(0.65469592,177.1895)"
       id="22aa5019-b517-444c-b4e2-e6b5a3501f5c-0" />
    <path
       transform="matrix(0.26458333,0,0,0.26458333,0,141.42498)"
       id="path1716"
       d="M 22.283028,427.05 C 15.377563,425.35108 11.074854,421.87543 6.7463622,414.49977 l -2.1945961,-3.73954 0.00454,-43.51046 0.00454,-43.51045 1.6715244,-6 C 9.1301071,307.33777 14.383586,298.52021 23.260326,289.15921 l 5.29144,-5.58012 v -2.76538 c 0,-1.52095 -0.180957,-2.87721 -0.402127,-3.0139 -0.221169,-0.13669 -4.283948,0.31376 -9.028396,1.001 -8.343852,1.20862 -8.700222,1.22128 -10.8850769,0.38688 -3.2654762,-1.2471 -4.4843798,-3.15079 -4.876982,-7.61689 -0.2793598,-3.1779 -0.1811069,-3.92007 0.7346705,-5.54947 1.6892038,-3.00554 4.106908,-3.85372 15.8113874,-5.54698 12.883832,-1.86388 13.555245,-1.86164 15.065914,0.0503 0.980925,1.24149 1.303254,2.64331 2,8.69807 0.456835,3.96993 1.073736,7.46085 1.37089,7.7576 0.386644,0.38612 1.50473,0.21753 3.931916,-0.59289 4.110103,-1.37232 4.212383,-1.57532 4.583811,-9.09769 0.647493,-13.11342 4.088789,-24.22515 11.242223,-36.30043 2.453375,-4.14139 13.536135,-15.17608 17.70177,-17.62499 8.334305,-4.8996 14.691325,-7.40167 22.5,-8.85581 l 6.000004,-1.11732 46.75,0.35402 46.75,0.35402 5.90246,1.9291 c 3.24635,1.06101 8.64635,3.33593 12,5.05538 5.75239,2.94931 6.48602,3.5064 12.96062,9.84179 6.84901,6.70176 8.64305,9.08766 12.27506,16.32471 4.52502,9.01645 6.80669,17.41485 7.61158,28.01687 0.312,4.10973 0.66171,7.94948 0.77713,8.5328 0.21545,1.08883 3.68277,2.90635 6.69306,3.50841 1.77142,0.35428 1.66571,0.6932 2.75061,-8.81829 0.91288,-8.00329 1.49813,-9.16721 4.72947,-9.40566 1.15501,-0.0852 6.85956,0.54485 12.67678,1.4002 11.59703,1.70519 13.30789,2.30496 15.31168,5.36778 1.06554,1.62869 1.15531,2.17324 0.86793,5.26528 -0.43281,4.65687 -1.28928,6.12896 -4.47485,7.69131 l -2.62654,1.28818 -8.47749,-1.23142 c -4.66263,-0.67728 -8.68333,-1.04695 -8.93491,-0.82148 -0.25157,0.22546 -0.54852,1.59909 -0.6599,3.05252 l -0.20249,2.6426 6.68992,7 c 5.91516,6.18932 7.07176,7.69486 9.98702,13 3.99081,7.26241 6.19717,14.08949 7.33603,22.69966 0.57522,4.34895 1.04194,6.31341 1.56342,6.5807 0.40888,0.20956 3.04594,1.45054 5.86015,2.75773 4.4896,2.08541 5.59987,2.87221 9.05845,6.41931 4.3986,4.5112 6.89216,8.84184 8.56321,14.87205 0.94884,3.42401 1.01201,5.10879 1.01838,27.1605 0.006,20.87652 0.10405,23.83041 0.875,26.37001 1.15282,3.79749 3.92145,7.02392 7.6366,8.89932 l 2.9531,1.49072 h 16.91636 16.91637 l 2.22289,-1.43661 c 2.58093,-1.668 5.38467,-4.56665 6.83211,-7.06339 0.99881,-1.72287 1.01964,-2.67849 1.34371,-61.64354 l 0.32918,-59.89353 1.92233,-5.45742 c 2.86914,-8.14539 5.73257,-12.65592 11.4728,-18.07219 4.2321,-3.99325 5.55761,-4.90475 10.82276,-7.44233 6.28813,-3.0306 8.9673,-3.78657 15.52599,-4.38089 l 3.97401,-0.3601 0.15494,-2.73485 c 0.0852,-1.50416 0.39402,-3.02291 0.68622,-3.375 0.36262,-0.43693 2.01981,-0.64015 5.22006,-0.64015 h 4.68878 v -50.9112 -50.91121 l 1.52258,-2.81113 c 1.77782,-3.2824 5.36333,-6.42965 8.28543,-7.2727 1.53487,-0.44282 16.5412,-0.59375 59.03425,-0.59375 48.59539,0 57.33919,0.10779 59.44384,0.7328 2.69855,0.80139 6.36205,4.11473 8.03515,7.2672 0.89605,1.68842 0.93755,6.22772 1.17875,129 l 0.25,127.25 9.5,0.25 c 10.80045,0.28422 11.5339,0.5182 13.02345,4.15472 0.70795,1.72829 0.84145,3.54026 0.76235,10.34528 l -0.0959,8.25 -2.32615,2.375 -2.32615,2.375 h -86.91372 c -85.46959,0 -86.94578,-0.0164 -88.84341,-0.98446 -3.5972,-1.83515 -4.03047,-3.20247 -4.03047,-12.71948 0,-7.23309 0.12699,-8.58482 0.9599,-10.21745 1.5286,-2.9963 2.62473,-3.29712 13.0401,-3.57861 l 9.25,-0.25 v -59.75 -59.75 l -4.31432,-0.14358 c -6.01994,-0.20035 -5.87734,0.0386 -6.04781,-10.13158 l -0.13787,-8.22484 -2.93428,0.10218 c -1.61386,0.0562 -4.65136,0.5976 -6.75,1.20311 -12.37244,3.56976 -20.0208,10.45666 -25.26323,22.74809 l -1.68327,3.94662 -0.32675,60.49731 -0.32675,60.49732 -1.59393,3.50268 c -2.28949,5.03119 -6.54508,9.38274 -11.30921,11.56422 l -3.68742,1.68847 -17.31258,0.009 -17.31258,0.009 -3.72093,-1.38361 c -4.90765,-1.82489 -9.38557,-5.88076 -11.81172,-10.69846 l -1.69726,-3.37031 -0.31524,-26.15742 -0.31525,-26.1574 -2.46819,-5.25 c -3.00116,-6.38364 -6.44798,-10.20614 -11.53392,-12.79103 -1.84939,-0.93993 -3.66873,-1.70897 -4.04299,-1.70897 -0.56421,0 -0.7381,5.9408 -1.01771,34.77039 l -0.33723,34.77039 -2.29431,4.56826 c -2.75651,5.48853 -5.32095,8.05502 -10.87814,10.88684 l -3.9329,2.00412 h -6.70458 -6.70459 l -3.58687,-1.80632 c -5.62898,-2.83471 -8.55968,-5.68505 -11.25226,-10.94368 l -2.30414,-4.5 -0.29088,-7.75 -0.29088,-7.75 h -95 -95.000004 l -0.30107,7 c -0.359585,8.36052 -1.108632,11.04989 -4.461527,16.01867 -3.074754,4.55658 -8.108979,7.91909 -13.94874,9.31676 -4.626983,1.10741 -7.227786,1.10195 -11.807401,-0.0247 z M 487.66874,368.61432 c 0.42459,-0.48125 1.55827,-2.45 2.51931,-4.375 3.34053,-6.69128 25.72426,-54.50981 26.24986,-56.07775 0.4584,-1.36748 0.3846,-1.7109 -0.55365,-2.57678 l -1.0825,-0.99902 -9.9768,1.68333 c -5.48721,0.92582 -10.08486,1.57523 -10.21697,1.44311 -0.13212,-0.13211 1.74759,-9.59184 4.17711,-21.0216 l 4.41731,-20.7814 -1.47108,-1.4711 -1.47111,-1.4711 -1.28709,1.38615 c -1.55915,1.67915 -29.15257,60.39186 -29.04621,61.80391 0.0413,0.54823 0.41195,1.33364 0.82367,1.74536 0.66478,0.66479 1.77308,0.57082 9.89988,-0.83937 5.03321,-0.87339 9.54504,-1.58477 10.02629,-1.58086 1.44395,0.0118 1.12154,2.27905 -3.125,21.97614 -2.2,10.20445 -4,18.9245 -4,19.37789 0,1.10908 1.45492,2.65309 2.5,2.65309 0.46476,0 1.1924,-0.39375 1.61698,-0.875 z M 198.24829,353.44205 c 2.90888,-2.28812 3.30348,-3.99512 3.30348,-14.29064 v -9.37774 l -2.35621,-2.39218 -2.3562,-2.39217 h -48.41372 c -47.92204,0 -48.434249,0.0105 -50.435909,1.03164 -1.51211,0.77143 -2.282615,1.62038 -3.05463,3.36565 -0.964505,2.18042 -1.01302,2.95969 -0.73729,11.84335 l 0.295145,9.50936 2.09371,1.875 2.09371,1.875 h 49.118264 c 49.10007,0 49.11876,-3.9e-4 50.44965,-1.04727 z M 71.952666,337.12599 c 3.52828,-1.11219 5.97898,-3.90783 7.1383,-8.14302 1.234105,-4.50839 0.46839,-7.57743 -2.7458,-11.00534 l -2.4566,-2.61995 -20.5434,-5.67704 c -12.748641,-3.52301 -21.447462,-5.67975 -22.926092,-5.68418 -5.604796,-0.0168 -10.867308,6.26247 -10.867308,12.96694 0,2.51871 0.213428,3.13575 1.780231,5.14681 3.147715,4.04023 4.122659,4.44685 23.676512,9.87475 24.764912,6.87441 22.696957,6.47984 26.944157,5.14103 z m 178.870624,-6.66645 c 20.93939,-5.94452 20.86552,-5.91287 23.53515,-10.08529 1.71551,-2.68119 1.70809,-8.40233 -0.0153,-11.8033 -1.62478,-3.20634 -5.84077,-6.08163 -8.91738,-6.08163 -2.99516,0 -41.53915,10.70875 -44.23912,12.29103 -3.11052,1.82289 -5.36241,6.35983 -4.98271,10.03877 0.14891,1.44286 0.85636,3.92828 1.57209,5.52316 1.05874,2.35917 1.74172,3.15318 3.66355,4.25907 1.98887,1.14447 2.95825,1.36156 6.13372,1.37363 3.31763,0.0126 6.11567,-0.65115 23.25,-5.51544 z m -13.22046,-55.12547 1.69894,-1.15524 -0.17507,-5.69128 c -0.47361,-15.39733 -9.39418,-32.729 -22.17123,-43.07621 -5.19756,-4.20914 -10.74684,-7.1721 -19.6537,-10.4938 l -4.5,-1.67822 h -44 -44 l -5.000004,1.3855 c -6.783125,1.8796 -15.98685,6.50954 -21.12049,10.62469 -12.70524,10.18455 -20.82075,26.33618 -22.856705,45.48981 l -0.31889,3 2.14804,1.36708 2.148045,1.36708 88.051064,0.008 88.05105,0.008 1.69895,-1.15525 z M 544.58766,239.1215 c 1.99755,-1.12289 2.65985,-1.87271 3.6987,-4.18752 l 1.2654,-2.81971 V 195.21678 158.3193 l -1.85255,-2.86112 c -1.43795,-2.22081 -2.4475,-3.15292 -4.51105,-4.16499 l -2.65855,-1.30387 -44.11392,0.006 -44.11393,0.006 -2.97331,1.65418 c -1.63533,0.9098 -3.5977,2.42587 -4.36084,3.36904 l -1.38751,1.71486 -0.0439,38.33665 c -0.0435,37.93125 -0.0328,38.3583 1.00003,40.38293 0.65702,1.28786 1.91891,2.59575 3.40473,3.52884 l 2.36079,1.48258 45.92631,0.01 45.9263,0.01 2.4333,-1.36782 z"
       style="fill:#000000;fill-opacity:1;stroke-width:0.5" />
  </g>
</svg>
