<?xml version="1.0" encoding="UTF-8" standalone="no"?>
<svg
   id="svg8"
   version="1.1"
   viewBox="0 0 155.575 155.575"
   height="588"
   width="588"
   sodipodi:docname="electric_car_charger.svg"
   inkscape:version="1.1 (c68e22c387, 2021-05-23)"
   xmlns:inkscape="http://www.inkscape.org/namespaces/inkscape"
   xmlns:sodipodi="http://sodipodi.sourceforge.net/DTD/sodipodi-0.dtd"
   xmlns="http://www.w3.org/2000/svg"
   xmlns:svg="http://www.w3.org/2000/svg"
   xmlns:rdf="http://www.w3.org/1999/02/22-rdf-syntax-ns#"
   xmlns:cc="http://creativecommons.org/ns#"
   xmlns:dc="http://purl.org/dc/elements/1.1/">
  <sodipodi:namedview
     id="namedview10"
     pagecolor="#ffffff"
     bordercolor="#666666"
     borderopacity="1.0"
     inkscape:pageshadow="2"
     inkscape:pageopacity="0.0"
     inkscape:pagecheckerboard="0"
     showgrid="false"
     inkscape:zoom="0.3537415"
     inkscape:cx="641.71154"
     inkscape:cy="151.24038"
     inkscape:window-width="1920"
     inkscape:window-height="1017"
     inkscape:window-x="-8"
     inkscape:window-y="-8"
     inkscape:window-maximized="1"
     inkscape:current-layer="layer1" />
  <defs
     id="defs2" />
  <metadata
     id="metadata5">
    <rdf:RDF>
      <cc:Work
         rdf:about="">
        <dc:format>image/svg+xml</dc:format>
        <dc:type
           rdf:resource="http://purl.org/dc/dcmitype/StillImage" />
      </cc:Work>
    </rdf:RDF>
  </metadata>
  <g
     transform="translate(0,-141.42498)"
     id="layer1">
    <g
       transform="translate(-0.37368168,141.51872)"
       id="22aa5019-b517-444c-b4e2-e6b5a3501f5c" />
    <g
       transform="translate(1.3413293,143.28111)"
       id="22aa5019-b517-444c-b4e2-e6b5a3501f5c-3" />
    <g
       transform="translate(0.65469592,177.1895)"
       id="22aa5019-b517-444c-b4e2-e6b5a3501f5c-0" />
    <path
       transform="matrix(0.26458333,0,0,0.26458333,0,141.42498)"
       id="path1716"
       d="m 298.41851,335.7774 c 4.4896,2.08541 5.59987,2.87221 9.05845,6.41931 4.3986,4.5112 6.89216,8.84184 8.56321,14.87205 0.94884,3.42401 1.01201,5.10879 1.01838,27.1605 0.006,20.87652 0.10405,23.83041 0.875,26.37001 1.15282,3.79749 3.92145,7.02392 7.6366,8.89932 l 2.9531,1.49072 h 16.91636 16.91637 l 2.22289,-1.43661 c 2.58093,-1.668 5.38467,-4.56665 6.83211,-7.06339 0.99881,-1.72287 1.01964,-2.67849 1.34371,-61.64354 l 0.32918,-59.89353 1.92233,-5.45742 c 2.86914,-8.14539 5.73257,-12.65592 11.4728,-18.07219 4.2321,-3.99325 5.55761,-4.90475 10.82276,-7.44233 6.28813,-3.0306 8.9673,-3.78657 15.52599,-4.38089 l 3.97401,-0.3601 0.15494,-2.73485 c 0.0852,-1.50416 0.39402,-3.02291 0.68622,-3.375 0.36262,-0.43693 2.01981,-0.64015 5.22006,-0.64015 h 4.68878 v -50.9112 -50.91121 l 1.52258,-2.81113 c 1.77782,-3.2824 5.36333,-6.42965 8.28543,-7.2727 1.53487,-0.44282 16.5412,-0.59375 59.03425,-0.59375 48.59539,0 57.33919,0.10779 59.44384,0.7328 2.69855,0.80139 6.36205,4.11473 8.03515,7.2672 0.89605,1.68842 0.93755,6.22772 1.17875,129 l 0.25,127.25 9.5,0.25 c 10.80045,0.28422 11.5339,0.5182 13.02345,4.15472 0.70795,1.72829 0.84145,3.54026 0.76235,10.34528 l -0.0959,8.25 -2.32615,2.375 -2.32615,2.375 h -86.91372 c -85.46959,0 -86.94578,-0.0164 -88.84341,-0.98446 -3.5972,-1.83515 -4.03047,-3.20247 -4.03047,-12.71948 0,-7.23309 0.12699,-8.58482 0.9599,-10.21745 1.5286,-2.9963 2.62473,-3.29712 13.0401,-3.57861 l 9.25,-0.25 v -59.75 -59.75 l -4.31432,-0.14358 c -6.01994,-0.20035 -5.87734,0.0386 -6.04781,-10.13158 l -0.13787,-8.22484 -2.93428,0.10218 c -1.61386,0.0562 -4.65136,0.5976 -6.75,1.20311 -12.37244,3.56976 -20.0208,10.45666 -25.26323,22.74809 l -1.68327,3.94662 -0.32675,60.49731 -0.32675,60.49732 -1.59393,3.50268 c -2.28949,5.03119 -6.54508,9.38274 -11.30921,11.56422 l -3.68742,1.68847 -17.31258,0.009 -17.31258,0.009 -3.72093,-1.38361 c -4.90765,-1.82489 -9.38557,-5.88076 -11.81172,-10.69846 l -1.69726,-3.37031 -0.31524,-26.15742 -0.31525,-26.1574 -2.46819,-5.25 c -3.00116,-6.38364 -6.44798,-10.20614 -11.53392,-12.79103 1.97926,-6.42169 0,0 1.97926,-6.42169 z m 189.25023,32.83692 c 0.42459,-0.48125 1.55827,-2.45 2.51931,-4.375 3.34053,-6.69128 25.72426,-54.50981 26.24986,-56.07775 0.4584,-1.36748 0.3846,-1.7109 -0.55365,-2.57678 l -1.0825,-0.99902 -9.9768,1.68333 c -5.48721,0.92582 -10.08486,1.57523 -10.21697,1.44311 -0.13212,-0.13211 1.74759,-9.59184 4.17711,-21.0216 l 4.41731,-20.7814 -1.47108,-1.4711 -1.47111,-1.4711 -1.28709,1.38615 c -1.55915,1.67915 -29.15257,60.39186 -29.04621,61.80391 0.0413,0.54823 0.41195,1.33364 0.82367,1.74536 0.66478,0.66479 1.77308,0.57082 9.89988,-0.83937 5.03321,-0.87339 9.54504,-1.58477 10.02629,-1.58086 1.44395,0.0118 1.12154,2.27905 -3.125,21.97614 -2.2,10.20445 -4,18.9245 -4,19.37789 0,1.10908 1.45492,2.65309 2.5,2.65309 0.46476,0 1.1924,-0.39375 1.61698,-0.875 z M 544.58766,239.1215 c 1.99755,-1.12289 2.65985,-1.87271 3.6987,-4.18752 l 1.2654,-2.81971 V 195.21678 158.3193 l -1.85255,-2.86112 c -1.43795,-2.22081 -2.4475,-3.15292 -4.51105,-4.16499 l -2.65855,-1.30387 -44.11392,0.006 -44.11393,0.006 -2.97331,1.65418 c -1.63533,0.9098 -3.5977,2.42587 -4.36084,3.36904 l -1.38751,1.71486 -0.0439,38.33665 c -0.0435,37.93125 -0.0328,38.3583 1.00003,40.38293 0.65702,1.28786 1.91891,2.59575 3.40473,3.52884 l 2.36079,1.48258 45.92631,0.01 45.9263,0.01 2.4333,-1.36782 z"
       style="fill:#000000;fill-opacity:1;stroke-width:0.5"
       sodipodi:nodetypes="cssssscccssscsssscssscccsssssscssscccssssscccsscssscccsscccsscccsccsssscssscccssssssssscscccsscccsscsssccccc" />
    <path
       style="fill:#000000;stroke-width:0.105864"
       d="m 78.211482,233.35207 -2.4742,0.32599 -2.474198,0.32601 -2.436732,-1.76126 c -2.262294,-1.63519 -2.453298,-1.79158 -2.668279,-2.18506 -0.260718,-0.4772 -0.309829,-1.51888 -0.08598,-1.82422 l 0.144678,-0.19715 -1.695759,-1.20025 -1.69576,-1.20025 0.575812,-0.78535 0.575804,-0.78536 1.695755,1.20022 1.695756,1.20026 1.121307,-1.52942 1.121311,-1.52935 -1.695754,-1.20022 -1.695764,-1.20024 0.575812,-0.78535 0.575806,-0.78535 1.695756,1.20022 1.69576,1.20022 0.139691,-0.19021 c 0.235562,-0.32127 1.182568,-0.59405 1.752652,-0.5048 0.503759,0.0788 0.614635,0.14532 2.995163,1.79496 l 2.472051,1.71306 0.469015,2.40908 0.469006,2.40904 c -2.848709,3.88478 0,0 -2.848709,3.88478 z"
       id="path858"
       sodipodi:nodetypes="cccsscccccccccccccccccsscccc" />
  </g>
</svg>
