<?xml version="1.0" encoding="UTF-8" standalone="no"?>
<!-- Created with Inkscape (http://www.inkscape.org/) -->

<svg
   width="27.5177mm"
   height="27.5177mm"
   viewBox="0 0 27.5177 27.5177"
   version="1.1"
   id="svg1662"
   xmlns="http://www.w3.org/2000/svg"
   xmlns:svg="http://www.w3.org/2000/svg">
  <defs
     id="defs1659" />
  <g
     id="layer1"
     transform="translate(-126.90662,-189.58288)">
    <g
       id="g12834"
       transform="translate(-69.741864,131.77401)"
       style="display:inline">
      <path
         id="rect10896"
         style="opacity:0.25;fill:#000000;fill-rule:evenodd;stroke-width:9.23607;stroke-linecap:round;stroke-linejoin:bevel;paint-order:stroke markers fill"
         transform="scale(0.26458333)"
         d="m 839.14648,236.99609 -77.32031,77.32032 c 2.76552,1.30812 5.85969,2.04297 9.13281,2.04297 h 8.7461 L 841.1875,254.875 v -8.74414 c 0,-3.2732 -0.73283,-6.3692 -2.04102,-9.13477 z m -12.9414,-11.2207 -75.59961,75.60156 c 1.45421,4.71886 4.49857,8.72618 8.51172,11.40625 l 78.49609,-78.49609 c -2.68008,-4.01316 -6.68932,-7.05751 -11.4082,-8.51172 z m -23.2168,-0.94531 -53.32812,53.32812 v 16.90039 c 0,0.95938 0.0697,1.90108 0.1914,2.82618 l 72.86328,-72.86329 c -0.92509,-0.12171 -1.86875,-0.1914 -2.82812,-0.1914 z m -24.16406,0 -29.16406,29.16406 v 19.91992 l 49.08398,-49.08398 z" />
    </g>
    <path
       id="path10140"
       style="font-size:8.46667px;line-height:1.25;font-family:Prototype;-inkscape-font-specification:'Prototype, Normal';letter-spacing:0px;word-spacing:0px;display:inline;fill:#000000;stroke:none;stroke-width:0.179048"
       d="m 134.19196,189.58288 c -4.00778,0 -7.28534,3.27911 -7.28534,7.28689 v 12.94547 c 0,4.00778 3.27756,7.28534 7.28534,7.28534 h 12.94546 c 4.00779,0 7.2869,-3.27756 7.2869,-7.28534 v -12.94547 c 0,-4.00779 -3.27911,-7.28689 -7.2869,-7.28689 z m 5.3e-4,1.65054 h 12.94546 c 3.12223,0 5.63584,2.51361 5.63584,5.63583 v 12.94547 c 0,3.12223 -2.51361,5.63583 -5.63584,5.63583 h -12.94546 c -3.12223,0 -5.63583,-2.5136 -5.63583,-5.63583 v -12.94547 c 0,-3.12222 2.5136,-5.63583 5.63583,-5.63583 z m -2.69234,2.13631 c -0.39512,0 -0.69705,0.12161 -0.90589,0.36432 -0.20885,0.23706 -0.31316,0.54739 -0.31316,0.9312 v 3.88607 c 0,0.10725 0.0226,0.2147 0.0677,0.32195 0.0508,0.1016 0.1158,0.19438 0.19482,0.27905 0.079,0.0847 0.16918,0.15543 0.27078,0.21187 0.1016,0.0508 0.20329,0.076 0.30489,0.076 h 3.27681 c 0.0565,0 0.0848,-0.0278 0.0848,-0.0842 v -0.93173 c 0,-0.0565 -0.0284,-0.0848 -0.0848,-0.0848 h -2.80242 c -0.0565,0 -0.0848,-0.0278 -0.0848,-0.0842 v -1.22783 c 0,-0.0565 0.0284,-0.0847 0.0848,-0.0847 h 2.59933 c 0.0565,0 0.0842,-0.0283 0.0842,-0.0848 v -0.97359 c 0,-0.0564 -0.0278,-0.0847 -0.0842,-0.0847 h -2.59933 c -0.0565,0 -0.0848,-0.0283 -0.0848,-0.0848 v -1.15135 c 0,-0.0621 0.0284,-0.093 0.0848,-0.093 h 2.80242 c 0.0565,0 0.0848,-0.0283 0.0848,-0.0847 v -0.93121 c 0,-0.0564 -0.0367,-0.0847 -0.11008,-0.0847 z m 4.96197,0 c -0.13547,0 -0.27384,0.0367 -0.41496,0.11007 -0.14111,0.0734 -0.25959,0.14939 -0.35554,0.22841 -0.32737,0.27093 -0.51085,0.65201 -0.55035,1.14308 -0.0113,0.0508 -0.017,0.10165 -0.017,0.15245 v 0.16071 c 0,0.12982 0.008,0.26244 0.0253,0.39791 0.0226,0.12982 0.0536,0.25982 0.093,0.38964 0.0451,0.12418 0.0991,0.24265 0.16123,0.35553 0.0677,0.10725 0.14949,0.20055 0.24546,0.27957 0.16368,0.12983 0.34402,0.21736 0.54157,0.26252 0.2032,0.0452 0.39243,0.0677 0.56741,0.0677 h 0.95653 c 0.14112,0 0.26272,0.0142 0.36432,0.0424 0.10725,0.0226 0.18902,0.065 0.24546,0.12712 0.0677,0.079 0.10705,0.16919 0.11834,0.27079 0.0113,0.096 0.0171,0.18926 0.0171,0.27957 0,0.0621 -0.002,0.12132 -0.008,0.17776 -0.005,0.0565 -0.0226,0.11569 -0.0512,0.17777 -0.0282,0.0677 -0.0733,0.14374 -0.13539,0.22841 -0.0621,0.079 -0.13545,0.11834 -0.22014,0.11834 h -2.72593 c -0.0565,0 -0.0848,0.0283 -0.0848,0.0848 v 0.93173 c 0,0.0564 0.0283,0.0842 0.0848,0.0842 h 3.08146 c 0.12417,0 0.25417,-0.0367 0.38964,-0.11007 0.14111,-0.079 0.25959,-0.15766 0.35554,-0.23668 0.31609,-0.27658 0.49692,-0.67181 0.54208,-1.18546 0.0113,-0.0452 0.0165,-0.0934 0.0165,-0.14418 v -0.17776 c 0,-0.12982 -0.008,-0.26507 -0.0253,-0.40618 -0.0169,-0.14111 -0.0479,-0.27687 -0.093,-0.40669 -0.0395,-0.12983 -0.093,-0.25092 -0.16071,-0.36381 -0.0621,-0.11288 -0.14122,-0.20881 -0.2372,-0.28783 -0.16368,-0.13547 -0.34138,-0.22563 -0.5333,-0.27079 -0.19191,-0.0508 -0.37537,-0.0765 -0.55035,-0.0765 h -0.94826 c -0.12983,0 -0.25143,-0.006 -0.36432,-0.0171 -0.10725,-0.0113 -0.19165,-0.048 -0.25373,-0.11008 -0.0677,-0.0734 -0.10757,-0.15777 -0.11886,-0.25373 -0.0113,-0.096 -0.0165,-0.18925 -0.0165,-0.27957 0,-0.0564 0.002,-0.11305 0.008,-0.1695 0.006,-0.0564 0.0232,-0.11254 0.0512,-0.16898 0.0282,-0.0621 0.0733,-0.12708 0.13539,-0.19482 0.0677,-0.0734 0.14111,-0.11007 0.22014,-0.11007 h 2.44688 c 0.0565,0 0.0848,-0.0283 0.0848,-0.0847 v -0.93121 c 0,-0.0565 -0.0283,-0.0848 -0.0848,-0.0848 z m 3.95376,0 c -0.0565,0 -0.0847,0.0283 -0.0847,0.0847 v 0.093 5.80844 c 0,0.0564 0.0282,0.0842 0.0847,0.0842 h 1.05834 c 0.0565,0 0.0847,-0.0278 0.0847,-0.0842 v -1.93891 c 0,-0.0564 0.0284,-0.0847 0.0848,-0.0847 h 1.47329 c 0.31609,0 0.58396,-0.0451 0.80409,-0.1354 0.22014,-0.096 0.39784,-0.23171 0.5333,-0.40669 0.13547,-0.17498 0.23453,-0.3836 0.29662,-0.62632 0.0621,-0.24271 0.093,-0.51371 0.093,-0.81287 0,-0.28787 -0.0309,-0.5531 -0.093,-0.79581 -0.0621,-0.24272 -0.16113,-0.45186 -0.29662,-0.62684 -0.13546,-0.17498 -0.31316,-0.31022 -0.5333,-0.40618 -0.22013,-0.1016 -0.488,-0.15244 -0.80409,-0.15244 z m 1.22784,1.10071 h 1.61695 c 0.1016,0 0.18076,0.0367 0.23719,0.11007 0.0621,0.0677 0.10716,0.14951 0.1354,0.24546 0.0282,0.096 0.045,0.19502 0.0506,0.29662 0.0113,0.0959 0.0171,0.17197 0.0171,0.22841 0,0.0565 -0.006,0.1356 -0.0171,0.2372 -0.005,0.096 -0.0221,0.19188 -0.0506,0.28784 -0.0282,0.096 -0.0733,0.18035 -0.1354,0.25373 -0.0565,0.0677 -0.13562,0.1018 -0.23719,0.1018 h -1.61695 c -0.0565,0 -0.0848,-0.0283 -0.0848,-0.0848 v -1.59163 c 0,-0.0565 0.0284,-0.0848 0.0848,-0.0848 z m -10.13582,5.39657 c -0.39512,0 -0.69705,0.12108 -0.90589,0.3638 -0.20885,0.23706 -0.31316,0.54738 -0.31316,0.93121 v 3.88658 c 0,0.10725 0.0226,0.21418 0.0677,0.32143 0.0508,0.1016 0.11579,0.1949 0.19482,0.27957 0.079,0.0847 0.16918,0.15543 0.27078,0.21187 0.1016,0.0508 0.20329,0.076 0.30489,0.076 h 3.27681 c 0.0565,0 0.0847,-0.0283 0.0847,-0.0848 v -0.93121 c 0,-0.0565 -0.0282,-0.0848 -0.0847,-0.0848 h -2.80242 c -0.0565,0 -0.0847,-0.0283 -0.0847,-0.0847 v -1.22783 c 0,-0.0564 0.0283,-0.0842 0.0847,-0.0842 h 2.59881 c 0.0565,0 0.0847,-0.0283 0.0847,-0.0847 v -0.97358 c 0,-0.0565 -0.0283,-0.0848 -0.0847,-0.0848 h -2.59881 c -0.0565,0 -0.0847,-0.0283 -0.0847,-0.0848 v -1.15135 c 0,-0.0621 0.0283,-0.093 0.0847,-0.093 h 2.80242 c 0.0565,0 0.0847,-0.0283 0.0847,-0.0848 v -0.93172 c 0,-0.0565 -0.0367,-0.0842 -0.11007,-0.0842 z m 3.92069,1.65933 c -0.0565,0 -0.0848,0.0283 -0.0848,0.0847 h -5.3e-4 v 0.86351 c 0,0.0564 0.0282,0.0847 0.0847,0.0847 h 2.22674 c 0.0903,0 0.16369,0.0393 0.22014,0.11834 0.0565,0.079 0.0847,0.15817 0.0847,0.23719 0,0.096 -0.0451,0.18036 -0.13539,0.25373 -0.0847,0.0677 -0.20052,0.1018 -0.34727,0.1018 h -1.41387 c -0.16932,0 -0.31296,0.0482 -0.4315,0.14418 -0.11853,0.096 -0.21446,0.21443 -0.28783,0.35554 -0.0734,0.13546 -0.12737,0.28486 -0.16123,0.44855 -0.0339,0.16369 -0.0507,0.31308 -0.0507,0.44855 0,0.0734 0.0115,0.18083 0.0341,0.32194 0.0226,0.14111 0.0619,0.28212 0.11834,0.42323 0.0621,0.14112 0.14647,0.26534 0.25373,0.37259 0.10725,0.1016 0.24563,0.15245 0.41496,0.15245 h 2.95486 c 0.0565,0 0.0848,-0.0283 0.0848,-0.0848 v -2.79415 c 0,-0.18062 -0.0226,-0.36094 -0.0677,-0.54157 -0.0395,-0.18062 -0.10716,-0.34417 -0.20309,-0.49092 -0.0903,-0.14676 -0.21192,-0.26574 -0.36432,-0.35605 -0.14675,-0.0959 -0.32708,-0.14366 -0.54157,-0.14366 z m 5.90093,0 c -0.28787,0 -0.53632,0.0168 -0.74517,0.0506 -0.2032,0.0339 -0.37252,0.0989 -0.50798,0.19482 -0.12982,0.0959 -0.22838,0.2312 -0.29611,0.40618 -0.0621,0.17498 -0.0935,0.40404 -0.0935,0.68626 0,0.19191 0.0199,0.36961 0.0594,0.5333 0.0395,0.15804 0.1019,0.29643 0.18655,0.41496 0.0847,0.11289 0.19736,0.20306 0.33848,0.27079 0.14111,0.0621 0.31305,0.093 0.51625,0.093 h 1.32963 c 0.11289,0 0.18627,0.0367 0.22014,0.11007 0.0395,0.0734 0.0589,0.14677 0.0589,0.22015 0,0.0395 -0.002,0.0846 -0.008,0.13539 -0.005,0.0452 -0.0221,0.0876 -0.0506,0.12712 -0.0226,0.0395 -0.0567,0.0736 -0.1018,0.1018 -0.0451,0.0226 -0.107,0.0336 -0.18604,0.0336 h -2.32854 c -0.0565,0 -0.0848,0.0283 -0.0848,0.0848 h -5.3e-4 v 0.86352 c 0,0.0565 0.0284,0.0848 0.0848,0.0848 h 2.76883 c 0.19191,0 0.34707,-0.0482 0.4656,-0.14418 0.12418,-0.096 0.2201,-0.20866 0.28784,-0.33848 0.0677,-0.13547 0.11282,-0.27071 0.13539,-0.40618 0.0282,-0.14111 0.0424,-0.25433 0.0424,-0.339 0,-0.29351 -0.0257,-0.53621 -0.0765,-0.72812 -0.0451,-0.19755 -0.11852,-0.35271 -0.22014,-0.4656 -0.096,-0.11289 -0.22281,-0.19204 -0.38085,-0.2372 -0.15805,-0.0508 -0.34728,-0.076 -0.56741,-0.076 h -1.2361 c -0.0847,0 -0.14967,-0.0367 -0.19482,-0.11007 -0.0395,-0.0734 -0.0589,-0.14677 -0.0589,-0.22014 0,-0.079 0.0194,-0.14979 0.0589,-0.21188 0.0395,-0.0677 0.10453,-0.10128 0.19482,-0.10128 h 2.21847 c 0.0565,0 0.0847,-0.0283 0.0847,-0.0847 v -0.86351 c 0,-0.0565 -0.0283,-0.0847 -0.0847,-0.0847 z m 2.4381,0 c -0.0395,0 -0.0594,0.0199 -0.0594,0.0594 0,0.0169 0.002,0.028 0.008,0.0336 l 1.372,4.03852 c 0.0282,0.0847 0.0675,0.14704 0.11834,0.18655 0.0565,0.0339 0.10994,0.0564 0.16072,0.0677 0.0508,0.0113 0.0959,0.0171 0.13539,0.0171 0.0395,0 0.0594,0.005 0.0594,0.0165 v 0.009 l -0.59273,1.56631 v 0.0253 c 0,0.0226 0.0142,0.0336 0.0424,0.0336 h 1.00873 c 0.0734,0 0.11846,-0.0225 0.13539,-0.0677 l 2.26033,-5.89267 c 0.005,-0.0113 0.008,-0.0223 0.008,-0.0336 0,-0.0395 -0.0283,-0.0594 -0.0848,-0.0594 h -1.01596 c -0.0508,0 -0.0817,0.0168 -0.093,0.0506 l -1.07539,2.83652 c -0.005,0.0169 -0.0168,0.0452 -0.0341,0.0847 -0.0113,0.0339 -0.0254,0.0706 -0.0424,0.11007 -0.0169,0.0339 -0.0363,0.0648 -0.0589,0.093 -0.0226,0.0282 -0.0452,0.0424 -0.0677,0.0424 -0.0226,0 -0.0452,-0.0142 -0.0677,-0.0424 -0.0226,-0.0339 -0.0452,-0.0679 -0.0677,-0.10181 -0.0169,-0.0395 -0.0311,-0.0762 -0.0424,-0.11007 -0.0113,-0.0395 -0.0197,-0.0678 -0.0253,-0.0848 l -0.89762,-2.81895 c -0.0169,-0.0395 -0.051,-0.0594 -0.1018,-0.0594 z m -7.39955,2.74298 h 1.50688 c 0.0565,0 0.0847,0.0283 0.0847,0.0848 v 0.50798 c 0,0.0564 -0.0283,0.0847 -0.0847,0.0847 h -1.45624 c -0.1016,0 -0.18074,-0.0367 -0.23719,-0.11007 -0.0565,-0.0734 -0.0848,-0.15778 -0.0848,-0.25373 0,-0.079 0.0257,-0.14979 0.0765,-0.21188 0.0508,-0.0677 0.1158,-0.1018 0.19482,-0.1018 z m 12.07265,4.60334 a 2.3213937,2.3213937 0 0 0 -2.32131,2.3213 2.3213937,2.3213937 0 0 0 2.32131,2.32182 2.3213937,2.3213937 0 0 0 2.3213,-2.32182 2.3213937,2.3213937 0 0 0 -2.3213,-2.3213 z" />
  </g>
</svg>
