<?xml version="1.0" encoding="UTF-8" standalone="no"?>


<svg
   xmlns:dc="http://purl.org/dc/elements/1.1/"
   xmlns:cc="http://creativecommons.org/ns#"
   xmlns:rdf="http://www.w3.org/1999/02/22-rdf-syntax-ns#"
   xmlns:svg="http://www.w3.org/2000/svg"
   xmlns="http://www.w3.org/2000/svg"
   version="1.1"
   id="svg2"
   viewBox="0 0 432 430"
   height="432"
   width="430">
  <metadata
     id="metadata10">
    <rdf:RDF>
      <cc:Work
         rdf:about="">
        <dc:format>image/svg+xml</dc:format>
        <dc:type
           rdf:resource="http://purl.org/dc/dcmitype/StillImage" />
        <dc:title></dc:title>
      </cc:Work>
    </rdf:RDF>
  </metadata>
  <defs
     id="defs8" />
  <path
     id="path4"
     d="M0,198L55,198C54,204 54,210 54,216C54,222 54,228 55,234H16L0,270H61C86,362 171.5,432 270,432C324.5,432 375.5,410.5 414,375.5L414,323.5C381,367.5 328.5,396 270,396C190,396 121.5,343 98.5,270H342L358,234H91C90,228 90,222 90,216C90,211 90,204 91,198H374L390,162H98.5C121,90 189,36 270,36C333,36 381,64.5 414,108L430,72.5C390,28 333,0 270,0C171,0 85.5,71 61,162H16Z"
     style="fill:#000000" />
</svg>
