<?xml version="1.0" encoding="utf-8"?>
<!-- Generator: Adobe Illustrator 16.0.3, SVG Export Plug-In . SVG Version: 6.00 Build 0)  -->
<!DOCTYPE svg PUBLIC "-//W3C//DTD SVG 1.1//EN" "http://www.w3.org/Graphics/SVG/1.1/DTD/svg11.dtd">
<svg version="1.1" xmlns="http://www.w3.org/2000/svg" xmlns:xlink="http://www.w3.org/1999/xlink" x="0px" y="0px"
	 width="7086.609px" height="7086.609px" viewBox="0 0 7086.609 7086.609" enable-background="new 0 0 7086.609 7086.609"
	 xml:space="preserve">
<g id="Ebene_1">
	<g>
		<g id="Ebene_2">
			<g>
				<g>
					<g>
						<g>
							<path fill="#000000" d="M5427.391,4832.482H1659.216c-887.487,0-1608.903-642.037-1608.903-1431.872
								c0-668.042,529.668-1248.547,1251.767-1395.096c-2.832-33.004-4.268-64.721-4.268-95.188
								c0-744.811,680.799-1350.68,1517.664-1350.68c590.975,0,1116.354,298.18,1367.963,767.663
								c640.18-90.71,1236.83,185.225,1540.496,666.783c752.057,125.616,1312.361,719.401,1312.361,1406.518
								C7036.295,4190.445,6314.889,4832.482,5427.391,4832.482z M2814.773,796.932c-690.046,0-1251.766,499.939-1251.766,1114.047
								c0,52.022,5.715,108.466,17.101,172.563c5.683,31.091-2.853,63.434-24.22,88.814c-21.422,25.381-52.771,42.486-88.409,46.936
								C810.933,2302.407,316.223,2810.596,316.223,3400.61c0,659.132,602.369,1195.222,1342.994,1195.222h3768.175
								c740.635,0,1343.742-536.09,1343.742-1195.222c0-590.668-495.445-1098.836-1152.705-1181.942
								c-43.494-5.086-80.547-29.178-100.531-64.095c-252.34-447.237-800.494-697.82-1384.348-577.941
								c-64.158,13.335-129.73-17.131-153.279-72.317C3790.68,1074.808,3333.023,796.932,2814.773,796.932z"/>
						</g>
					</g>
				</g>
			</g>
		</g>
		<g id="Ebene_4">
			<circle cx="1108.739" cy="2486.799" r="82.361"/>
			<circle cx="599.152" cy="3032.511" r="82.361"/>
			<circle cx="971.471" cy="3368.816" r="82.361"/>
			<circle cx="779.295" cy="3787.478" r="82.361"/>
			<circle cx="1026.378" cy="4171.829" r="82.36"/>
			<circle cx="1273.46" cy="3787.478" r="82.361"/>
			<circle cx="1729.166" cy="4007.107" r="82.361"/>
			<circle cx="1477.661" cy="4254.189" r="82.361"/>
			<circle cx="2457.3" cy="4336.551" r="82.359"/>
			<circle cx="2210.216" cy="4007.106" r="82.36"/>
			<circle cx="3460.942" cy="4447.594" r="82.361"/>
			<circle cx="2997.175" cy="4418.911" r="82.36"/>
			<circle cx="3231.085" cy="4089.469" r="82.361"/>
			<circle cx="3831.791" cy="4171.827" r="82.36"/>
			<circle cx="4250.455" cy="4418.911" r="82.36"/>
			<circle cx="1985.548" cy="4418.911" r="82.36"/>
			<circle cx="516.792" cy="3451.175" r="82.36"/>
			<circle cx="971.471" cy="2867.79" r="82.361"/>
			<circle cx="2685.611" cy="4130.648" r="82.361"/>
			<circle cx="4799.521" cy="4254.188" r="82.359"/>
			<circle cx="5175.035" cy="4395.962" r="59.415"/>
			<circle cx="4392.23" cy="4213.009" r="59.415"/>
			<circle cx="3891.207" cy="4395.962" r="59.415"/>
			<circle cx="4717.162" cy="4455.377" r="54.871"/>
			<path d="M5661.268,4359.496c32.813,0,59.414,26.602,59.414,59.414c0,32.816-26.602,59.416-59.414,59.416
				c-32.816,0-59.416-26.6-59.416-59.416C5601.852,4386.098,5628.451,4359.496,5661.268,4359.496z"/>
			<circle cx="6202.865" cy="4171.829" r="59.415"/>
			<circle cx="5754.119" cy="2486.799" r="59.415"/>
			<circle cx="6291.049" cy="3704.235" r="59.417"/>
			<circle cx="5601.852" cy="4048.286" r="59.415"/>
		</g>
		<g id="Ebene_5">
			<circle cx="5835.77" cy="4171.831" r="47.585"/>
			<circle cx="6343.875" cy="3992.362" r="47.585"/>
			<circle cx="6520.295" cy="3580.09" r="47.585"/>
			<circle cx="6538.031" cy="3316.701" r="47.585"/>
			<circle cx="6291.049" cy="3409.914" r="47.584"/>
			<circle cx="6155.277" cy="3151.096" r="47.585"/>
			<circle cx="6026.117" cy="2652.341" r="47.584"/>
			<circle cx="5503.586" cy="2350.374" r="47.585"/>
			<circle cx="5486.889" cy="2595.667" r="47.584"/>
			<circle cx="5284.168" cy="2255.199" r="47.584"/>
			<circle cx="5175.037" cy="1996.618" r="47.585"/>
			<circle cx="6178.152" cy="2871.766" r="47.585"/>
			<circle cx="6526.258" cy="3826.505" r="47.585"/>
			<circle cx="6114.428" cy="3940.561" r="47.585"/>
			<circle cx="5754.119" cy="2764.411" r="47.585"/>
			<circle cx="4881.883" cy="1841.643" r="47.584"/>
			<circle cx="5439.303" cy="4272.425" r="47.585"/>
			<circle cx="5883.355" cy="4359.499" r="47.585"/>
			<circle cx="516.792" cy="3704.235" r="47.585"/>
			<circle cx="1321.047" cy="4039.95" r="47.585"/>
			<circle cx="779.294" cy="4048.288" r="47.585"/>
			<circle cx="1985.548" cy="4171.829" r="47.585"/>
			<circle cx="731.708" cy="2699.929" r="47.585"/>
			<circle cx="6450.877" cy="3032.511" r="59.416"/>
			<circle cx="5978.529" cy="2973.096" r="59.415"/>
			<circle cx="3231.085" cy="4320.013" r="47.585"/>
			<circle cx="1607.608" cy="4478.329" r="47.585"/>
			<circle cx="2650.837" cy="4430.741" r="47.585"/>
			<circle cx="1026.377" cy="3627.678" r="47.585"/>
			<circle cx="731.708" cy="3269.114" r="47.585"/>
			<circle cx="6262.281" cy="2696.067" r="47.585"/>
			<circle cx="1477.661" cy="2404.438" r="47.584"/>
		</g>
		<g>
			<path d="M3170.749,5641.943c0,82.092-10.899,156.041-32.699,221.898c-21.799,65.857-53.656,121.887-95.519,168.09
				c-41.889,46.203-94.039,81.734-156.425,106.547c-62.411,24.811-133.783,37.242-214.114,37.242c-33.337,0-63.917-2.604-91.69-7.76
				c-27.772-5.182-54.703-13.121-80.765-23.791c-26.088-10.67-51.946-23.943-77.574-39.82
				c-25.654-15.877-52.15-34.486-79.489-55.877v434.047c0,6.893-2.578,13.096-7.709,18.609s-13.912,10.16-26.317,13.963
				c-12.406,3.752-28.896,6.688-49.419,8.781c-20.523,2.041-46.636,3.088-78.289,3.088c-31.678,0-57.792-1.047-78.314-3.088
				c-20.523-2.094-37.013-5.029-49.419-8.781c-12.405-3.803-21.187-8.449-26.317-13.963s-7.684-11.717-7.684-18.609V5194.393
				c0-6.893,2.119-12.918,6.407-18.074c4.289-5.156,11.768-9.469,22.463-12.916c10.696-3.445,24.812-6.023,42.374-7.76
				c17.536-1.736,39.565-2.604,66.112-2.604c25.654,0,47.249,0.867,64.812,2.578c17.536,1.736,31.652,4.314,42.348,7.734
				c10.695,3.447,18.175,7.76,22.463,12.916c4.289,5.156,6.433,11.182,6.433,18.047v108.334
				c33.337-27.568,66.011-51.895,98.072-72.928c32.061-21.035,64.76-38.621,98.097-52.764
				c33.337-14.141,67.747-24.658,103.228-31.551c35.481-6.891,73.311-10.338,113.49-10.338c83.751,0,155.123,13.273,214.113,39.822
				c58.991,26.547,107.083,62.947,144.274,109.148c37.166,46.203,64.3,100.012,81.403,161.377S3170.749,5572.307,3170.749,5641.943z
				 M2834.212,5660.883c0-39.361-3.65-77.191-10.9-113.463c-7.25-36.273-19.629-68.564-37.141-96.898s-40.561-50.949-69.15-67.873
				c-28.589-16.926-64.224-25.4-106.904-25.4c-21.34,0-42.476,2.605-63.382,7.787c-20.931,5.182-42.271,13.631-64.045,25.373
				s-44.186,26.955-67.236,45.59c-23.05,18.658-47.376,41.785-72.979,69.404v304.119c45.232,46.484,88.346,82.373,129.341,107.695
				c40.97,25.322,83.649,37.957,128.065,37.957c41.812,0,77.446-8.627,106.904-25.908c29.457-17.256,53.579-39.898,72.367-67.875
				c18.787-27.977,32.648-59.578,41.608-94.803C2829.719,5731.361,2834.212,5696.109,2834.212,5660.883z"/>
			<path d="M5067.6,6116.398c0,6.893-2.578,12.941-7.709,18.098s-13.682,9.471-25.629,12.916
				c-11.973,3.447-28.207,5.998-48.729,7.76c-20.523,1.711-46.586,2.578-78.213,2.578c-32.496,0-58.992-0.867-79.514-2.578
				c-20.523-1.734-36.963-4.287-49.344-7.734c-12.404-3.445-20.957-7.76-25.652-12.916c-4.697-5.156-7.045-11.205-7.045-18.098
				v-546.592c0-30.99-3.65-59.223-10.9-84.723c-7.25-25.475-18.354-47.352-33.287-65.602
				c-14.932-18.252-33.719-32.367-56.336-42.373c-22.615-9.982-49.725-14.984-81.301-14.984c-38.416,0-77.268,12.074-116.527,36.17
				c-39.258,24.098-81.939,59.221-128.039,105.373v612.73c0,6.893-2.578,12.941-7.709,18.098s-13.887,9.471-26.266,12.916
				c-12.406,3.447-28.846,6-49.369,7.734c-20.521,1.711-46.176,2.578-76.936,2.578c-31.627,0-57.689-0.867-78.211-2.578
				c-20.523-1.734-36.988-4.287-49.369-7.734c-12.404-3.445-21.16-7.76-26.291-12.916s-7.684-11.205-7.684-18.098v-546.592
				c0-30.99-3.625-59.223-10.875-84.723c-7.248-25.475-18.123-47.352-32.621-65.602c-14.5-18.252-33.287-32.367-56.311-42.373
				c-23.025-9.982-49.904-14.984-80.588-14.984c-39.258,0-78.492,12.074-117.727,36.17
				c-39.232,24.098-81.453,59.221-126.635,105.373v612.73c0,6.893-2.578,12.941-7.709,18.098s-13.912,9.471-26.317,12.916
				c-12.405,3.447-28.896,6-49.419,7.734c-20.523,1.711-46.636,2.578-78.289,2.578c-31.678,0-57.792-0.867-78.314-2.578
				c-20.523-1.734-37.013-4.287-49.418-7.734c-12.406-3.445-21.187-7.76-26.318-12.941c-5.13-5.156-7.683-11.205-7.683-18.098
				v-922.006c0-6.893,2.119-12.918,6.407-18.1c4.289-5.156,11.972-9.469,23.101-12.916c11.13-3.445,25.45-6.023,43.012-7.76
				c17.537-1.711,39.566-2.578,66.113-2.578c27.364,0,50.057,0.867,68.027,2.578c17.97,1.736,31.856,4.314,41.71,7.76
				c9.827,3.447,16.873,7.76,21.161,12.916c4.288,5.182,6.433,11.207,6.433,18.1v106.469
				c63.176-55.264,126.15-96.719,188.893-124.338c62.744-27.619,128.295-41.455,196.604-41.455
				c46.943,0,89.215,3.982,126.789,11.922c37.574,7.963,71.064,19.348,100.521,34.205c29.457,14.855,54.855,32.621,76.195,53.35
				c21.34,20.727,39.285,43.854,53.811,69.406c34.154-29.688,67.695-55.24,100.572-76.656
				c32.879-21.416,65.348-38.852,97.383-52.328c32.01-13.479,64.045-23.484,96.08-30.045s64.709-9.854,98.021-9.854
				c76.016,0,140.088,10.363,192.186,31.041c52.1,20.676,94.166,48.779,126.203,84.262c32.035,35.506,54.881,77.037,68.563,124.594
				c13.656,47.58,20.498,97.893,20.498,150.986V6116.398z"/>
		</g>
		<path d="M5943.072,3657.443c26.332-19.584,63.553-14.113,83.133,12.221c19.582,26.328,14.111,63.547-12.221,83.129
			c-26.33,19.582-63.551,14.111-83.133-12.219C5911.271,3714.242,5916.742,3677.023,5943.072,3657.443z"/>
		<circle cx="5772.709" cy="3172.249" r="59.417"/>
		<circle cx="5686.418" cy="3819.148" r="47.585"/>
		<path d="M6025.223,3343.53c15.682,21.087,11.299,50.897-9.789,66.581c-21.088,15.683-50.896,11.299-66.578-9.787
			c-15.684-21.09-11.303-50.898,9.785-66.581C5979.729,3318.06,6009.539,3322.441,6025.223,3343.53"/>
		<circle cx="5597.073" cy="2936.078" r="47.584"/>
		<circle cx="5333.676" cy="2809.416" r="47.585"/>
		<circle cx="5185.342" cy="2571.624" r="47.586"/>
		<circle cx="5772.01" cy="3467.281" r="47.585"/>
	</g>
	<g>
		<path d="M4040.969,3538.877c0,57.975-12.53,96.924-37.592,116.872c-25.06,19.946-69.976,29.92-134.745,29.92
			c-64.793,0-109.524-9.835-134.193-29.46c-24.691-19.623-37.015-56.87-37.015-111.734c0-58.598,12.53-97.871,37.591-117.818
			c25.061-19.947,70.366-29.92,135.922-29.92c63.986,0,108.326,9.835,133.017,29.46
			C4028.623,3445.844,4040.969,3483.412,4040.969,3538.877z"/>
		<path d="M5115.354,3282.375c0,65.369-14.073,123.713-42.197,175.054c-28.147,51.366-67.833,94.623-119.083,129.795
			c-51.25,35.172-112.91,62.097-184.959,80.755c-72.049,18.657-152.021,28.009-239.871,28.009c-46.251,0-90.176-2.373-131.774-7.07
			c-41.622-4.723-79.005-10.689-112.15-17.898c-33.146-7.231-60.303-14.441-81.493-21.674
			c-21.191-7.233-35.079-13.175-41.621-17.829c-6.541-4.651-11.355-9.789-14.441-15.386c-3.088-5.574-5.597-12.253-7.533-20.039
			c-1.935-7.762-3.27-17.551-4.03-29.368c-0.782-11.793-1.151-25.773-1.151-41.943c0-17.39,0.761-32.155,2.304-44.27
			c1.542-12.117,4.054-21.883,7.509-29.346c3.455-7.463,7.509-12.738,12.139-15.847c4.606-3.11,9.997-4.677,16.17-4.677
			c7.692,0,19.439,3.593,35.24,10.78s36.602,15.133,62.398,23.863c25.798,8.753,57.191,16.7,94.184,23.886
			c36.969,7.187,81.262,10.757,132.881,10.757c44.661,0,85.292-3.731,121.893-11.194c36.577-7.463,67.581-19.418,93.01-35.91
			c25.429-16.492,45.077-37.176,58.942-62.052c13.867-24.876,20.799-54.728,20.799-89.554c0-29.852-5.781-56.432-17.345-79.765
			c-11.562-23.31-29.644-43.073-54.289-59.242c-24.646-16.17-56.617-28.286-95.912-36.37
			c-39.294-8.085-87.043-12.139-143.268-12.139c-44.685,0-85.316,1.866-121.895,5.597c-36.576,3.732-71.058,5.597-103.396,5.597
			c-22.343,0-38.328-4.491-47.956-13.521c-9.629-9.028-14.442-25.682-14.442-49.959v-524.818c0-24.9,5.965-42.797,17.92-53.692
			c11.933-10.895,31.025-16.354,57.238-16.354h708.856c6.934,0,13.474,1.866,19.647,5.597c6.173,3.731,11.378,9.605,15.616,17.667
			c4.237,8.062,7.303,18.772,9.236,32.108c1.936,13.336,2.902,29.298,2.902,47.887c0,37.222-4.054,64.217-12.139,80.963
			c-8.107,16.745-19.855,25.106-35.264,25.106h-531.937v259.151c26.95-2.488,53.737-4.031,80.318-4.653
			c26.58-0.622,54.521-0.944,83.819-0.944c80.895,0,152.758,7.624,215.57,22.873c62.789,15.248,115.581,37.659,158.354,67.235
			c42.751,29.575,75.32,66.29,97.663,110.169C5104.16,3173.611,5115.354,3224.491,5115.354,3282.375z"/>
	</g>
</g>
<g id="Ebene_2_1_">
	<g>
		<path d="M3592.544,3500.365c0,32.628-1.748,60.512-5.244,83.568c-3.495,23.057-8.698,41.909-15.648,56.559
			c-6.991,14.649-16.022,25.054-27.176,31.214c-11.153,6.2-23.723,9.28-37.622,9.28H1952.141c-30.673,0-57.142-2.247-79.448-6.742
			c-22.308-4.494-40.411-13.192-54.312-26.136c-13.942-12.943-24.055-31.796-30.298-56.559c-6.284-24.721-9.405-56.808-9.405-96.178
			c0-37.123,2.081-68.877,6.243-95.346c4.162-26.427,11.819-50.066,22.973-70.875c11.112-20.809,25.345-41.035,42.741-60.72
			c17.396-19.686,39.995-41.368,67.837-65.007l467.325-403.858c93.182-78.574,168.302-150.115,225.318-214.664
			c57.016-64.549,101.547-123.48,133.551-176.833c31.963-53.313,53.896-102.421,65.715-147.327
			c11.819-44.864,17.729-87.521,17.729-127.974c0-37.04-7.325-72.082-21.891-105.209c-14.607-33.086-36.166-61.969-64.632-86.648
			c-28.509-24.679-64.3-44.031-107.416-58.057c-43.116-14.025-93.848-21.059-152.196-21.059c-82.029,0-154.651,8.449-217.911,25.304
			c-63.259,16.855-118.902,35.667-166.845,56.434c-47.943,20.809-87.938,39.912-119.9,57.308
			c-31.963,17.396-56.975,26.094-75.037,26.094c-12.527,0-23.306-3.33-32.337-10.071c-9.073-6.742-16.355-17.938-21.891-33.669
			c-5.577-15.69-10.072-36.707-13.567-63.092c-3.496-26.386-5.202-58.64-5.202-96.803c0-25.803,1.04-47.361,3.121-64.757
			s5.244-32.545,9.405-45.446c4.162-12.902,9.739-24.097,16.689-33.669c6.95-9.53,19.144-21.017,36.541-34.501
			c17.396-13.443,49.441-30.589,96.095-51.481c46.612-20.893,104.045-41.202,172.298-60.929
			c68.211-19.727,143.373-36.374,225.526-49.941c82.153-13.525,167.761-20.309,256.906-20.309
			c140.584,0,263.481,14.358,368.607,42.991c105.126,28.633,192.482,68.502,262.108,119.609
			c69.585,51.107,121.44,111.744,155.567,181.911c34.126,70.209,51.189,145.745,51.189,226.608
			c0,70.75-8.365,140.335-25.054,208.796c-16.688,68.503-51.439,142.291-104.294,221.448
			c-52.854,79.157-127.267,166.679-223.237,262.649c-95.971,95.97-223.237,207.381-381.801,334.231l-315.046,260.901h1064.705
			c13.9,0,26.761,3.413,38.58,10.155s21.933,17.146,30.298,31.213c8.323,14.067,14.607,32.67,18.77,55.726
			S3592.544,3468.861,3592.544,3500.365z"/>
	</g>
</g>
</svg>
