<?xml version="1.0" encoding="UTF-8"?>
<svg xmlns="http://www.w3.org/2000/svg" xmlns:xlink="http://www.w3.org/1999/xlink" width="475px" height="512px" viewBox="0 0 475 512" version="1.1">
  <defs/>
  <g fill="#000000" id="layer1">
    <path d="M319.927094,348.171417 C312.363953,350.847443 290.773773,353.812378 245.307007,329.426941 C196.083771,302.999908 188.771881,280.913483 187.691452,274.286346 C188.401276,266.239471 187.936447,258.217773 186.560745,250.390839 L186.881134,250.855667 C186.881134,250.855667 182.854538,229.359772 239.194916,194.389648 C289.617981,163.081757 312.539825,169.313156 316.805084,170.958969 C319.556458,172.799484 322.402069,174.53952 325.373291,176.135101 C331.039368,179.156555 336.906433,181.512192 342.817505,183.252213 C349.765076,189.879395 362.523163,208.623932 363.848572,257.922546 C365.217987,307.58551 350.619354,326.7258 342.673035,333.497437 C334.475433,337.203644 326.792938,342.159851 319.927094,348.171417 Z M425.365051,335.878174 C422.17395,334.182129 418.907501,332.737335 415.647308,331.462189 L417.977783,331.267456 C417.977783,331.267456 397.12262,322.039673 395.307251,255.001541 C393.485565,187.93837 415.182434,176.505707 415.182434,176.505707 L412.060486,176.625046 C428.455628,168.232727 442.539185,154.934433 451.842346,137.41481 C476.083313,91.8223647 458.733368,35.1930236 413.14093,10.9457397 C367.529633,-13.270112 310.919128,4.0296202 286.697021,49.6660194 C276.74054,68.3917236 273.888641,88.9516296 277.02951,108.387207 L275.974182,106.741356 C275.974182,106.741356 281.470642,131.082871 224.420425,166.492706 C167.395325,201.927643 141.659287,184.282425 141.659287,184.282425 L143.298813,186.688278 C141.684433,185.683228 140.114014,184.65303 138.392838,183.767319 C92.7752763,159.526306 36.1459428,176.851196 11.9237672,222.462494 C-12.2921027,268.080017 5.0327645,324.690521 50.6189347,348.931519 C84.6279298,366.991364 124.723892,361.959717 152.966324,339.31427 L152.35701,340.488922 C152.35701,340.488922 173.111679,323.415375 232.963516,355.558685 C280.195434,380.905304 287.212097,405.736756 288.122925,415.083893 C286.872894,449.708496 304.932709,483.692413 337.616272,501.04242 C383.20871,525.283386 439.838043,507.958527 464.060211,462.34726 C488.301178,416.729675 470.976349,360.094055 425.365051,335.878174 Z M313.739654,40.7146072 C286.527405,70.4772491 285.962036,114.279396 312.16922,139.035461 C299.21637,126.572601 299.511627,100.585335 312.590057,75.7287216 C314.279846,73.51754 319.160736,68.2409515 326.303009,70.6468048 C327.012817,70.8917999 327.483917,70.9420319 327.754028,70.9169159 C329.368439,71.2624588 331.014252,71.4571304 332.735413,71.3817902 C343.55246,70.8918 351.944824,61.7393914 351.454834,50.8972245 C351.234955,46.0351907 349.224823,41.7448121 346.102844,38.4280854 C371.229584,21.9637891 400.087555,20.0730363 411.915985,30.8712064 L412.355713,30.8963205 C385.363342,6.2595897 341.221985,10.6505156 313.739654,40.7146072 Z M40.1913261,216.746139 C12.9791107,246.533844 12.4137592,290.310882 38.6209068,315.066986 C25.668106,302.604126 25.9382133,276.616821 39.0417862,251.760208 C40.7315636,249.530243 45.6187096,244.278763 52.7546845,246.684616 C53.47081,246.929611 53.9356614,246.979889 54.2057725,246.954727 C55.826439,247.293945 57.4910813,247.494934 59.1871339,247.419601 C70.0293046,246.929611 78.3965074,237.777191 77.90654,226.928757 C77.6866837,222.072998 75.6765443,217.776337 72.5608216,214.465897 C97.6875382,198.026703 126.539307,196.110794 138.367706,206.909012 L138.807419,206.953003 C111.796204,182.297394 67.6485596,186.688278 40.1913261,216.746139 Z M329.76416,365.791534 C302.551941,395.554138 301.986603,439.356323 328.193756,464.137543 C315.23468,451.649536 315.529907,425.662262 328.608368,400.83078 C330.304382,398.594482 335.185242,393.342987 342.327545,395.723724 C343.037353,395.968719 343.502228,396.044128 343.772339,395.993896 C345.392975,396.339355 347.063965,396.534119 348.753693,396.483826 C359.577026,395.968719 367.96936,386.791199 367.479401,375.974152 C367.259521,371.112122 365.243103,366.821747 362.12738,363.505005 C387.254089,347.065887 416.087036,345.149963 427.915405,355.948181 L428.355133,355.998413 C401.387878,331.336517 357.221405,335.727447 329.76416,365.791534 Z" id="Shape"/>
  </g>
</svg>
