<?xml version="1.0" encoding="UTF-8"?>
<svg xmlns="http://www.w3.org/2000/svg" xmlns:xlink="http://www.w3.org/1999/xlink" width="512px" height="512px" viewBox="0 0 512 512" version="1.1">
  <defs/>
  <g fill="#000000" id="layer1">
    <path d="M127.45223,34.272471 C-42.48408,132.24109 -42.48408,379.735381 127.45223,477.703981 C297.38853,575.672581 512,451.955531 512,255.988221 C512,109.012731 391.28129,2.677801 257.16561,0.002251 C212.38697,-0.17877893 168.60867,10.545694 127.45223,34.272469 L127.45223,34.272471 Z M395.27853,141.761411 C424.1194,248.584221 382.72554,349.122761 285.77589,370.830611 C361.56354,313.756431 347.56265,209.656931 308.67439,161.767141 C256.05629,96.012464 173.29484,116.165581 128.34447,164.228231 C60.842969,242.341841 78.202937,378.049861 139.24562,453.478181 C-9.83701,362.826491 -12.23509,146.115031 140.10199,58.292401 C238.00586,-1.113031 352.25583,20.38975 395.27853,141.761409 L395.27853,141.761411 Z M414.70212,292.106191 C446.05731,212.766881 425.30873,112.651591 368.06654,54.486031 C437.06083,92.894608 485.72583,165.867131 486.6728,255.988221 C488.26179,407.206491 295.27239,553.116751 183.27572,446.703861 C71.16973,340.187091 100.49544,158.267551 225.80426,142.200851 C132.84416,221.078721 174.642,360.374801 254.83087,385.869051 C327.28928,408.905561 392.38703,348.570971 414.70212,292.106191 Z M254.5431,150.882461 C337.45226,191.532241 332.12249,323.894071 252.33394,360.749561 C170.12683,304.650511 189.05123,190.529331 254.5431,150.882461 Z" id="Shape"/>
  </g>
</svg>
