<?xml version="1.0" encoding="UTF-8"?>
<svg xmlns="http://www.w3.org/2000/svg" xmlns:xlink="http://www.w3.org/1999/xlink" width="512px" height="368px" viewBox="0 0 512 368" version="1.1">
  <defs/>
  <g fill="#000000" id="layer1">
    <path d="M153.408295,339.349518 L153.408295,367.281738 L141.002396,367.281738 C108.798103,367.281738 87.2101975,362.502838 76.2179795,352.924286 C65.3636857,343.363007 59.9227448,324.292114 59.9227448,295.71167 L59.9227448,249.363678 C59.9227448,229.834228 56.4333687,216.324982 49.4580765,208.822113 C42.6000061,201.322754 30.1285992,197.578217 12.0266152,197.578217 L0,197.578217 L0,169.845963 L12.0266142,169.845963 C30.2492781,169.845963 42.789649,166.153152 49.6442633,158.788254 C56.5023299,151.419876 59.9227438,138.031296 59.9227438,118.636307 L59.9227438,72.0883638 C59.9227438,43.5216982 65.3636847,24.5025179 76.2179785,15.0757143 C87.2101965,5.5005953 108.798102,0.7182466 141.002395,0.7182466 L153.408294,0.7182466 L153.408294,28.450493 L139.830077,28.450493 C121.728095,28.450493 109.904906,31.2916566 104.343291,36.9877244 C98.9126958,42.5527879 96.1922292,54.5104524 96.1922292,72.8710328 L96.1922292,120.967163 C96.1922292,141.265534 93.2165975,156.012619 87.2757024,165.18428 C81.4589299,174.369751 71.4390554,180.579605 57.2160672,183.810364 C71.5597371,187.299744 81.6451253,193.630249 87.4653462,202.815735 C93.2821187,211.987396 96.1922291,226.668976 96.1922291,246.846649 L96.1922291,294.94278 C96.1922291,313.434387 98.9126957,325.450653 104.343291,331.012268 C109.904906,336.573883 121.728095,339.349518 139.830077,339.349518 L153.408295,339.349518 L153.408295,339.349518 Z M358.591705,367.281738 L370.618317,367.281738 C402.808838,367.281738 424.331238,362.502838 435.202789,352.924286 C446.057068,343.363007 451.484222,324.292114 451.484222,295.71167 L451.484222,249.363678 C451.484222,229.834228 454.918427,216.324982 461.776489,208.822113 C468.75177,201.322754 481.357666,197.578217 499.594147,197.578217 L512,197.578217 L512,169.845963 L499.594147,169.845963 C481.357666,169.845963 468.75177,166.153153 461.776489,158.788254 C454.918427,151.419876 451.484222,138.031296 451.484222,118.636307 L451.484222,72.0883638 C451.484222,43.5216982 446.057068,24.5025179 435.202789,15.0757143 C424.331238,5.5005953 402.808838,0.7182466 370.618317,0.7182466 L358.591705,0.7182466 L358.591705,28.450493 L371.776855,28.450493 C390.013306,28.450493 401.905457,31.2916566 407.47052,36.9877244 C413.018341,42.6734773 415.8078,54.6345674 415.8078,72.8710328 L415.8078,120.967163 C415.8078,141.265534 418.714447,156.012619 424.534637,165.18428 C430.472076,174.369751 440.560974,180.579605 454.783966,183.810364 C440.440277,187.299744 430.35144,193.630249 424.534637,202.815735 C418.714447,211.987396 415.8078,226.668976 415.8078,246.846649 L415.8078,294.94278 C415.8078,313.165436 413.018341,325.126526 407.47052,330.822632 C401.905457,336.508362 390.013306,339.349518 371.776855,339.349518 L358.591705,339.349518 L358.591705,367.281738 Z M366.201446,297.259827 C352.905975,322.295746 321.822266,331.805298 296.796692,318.499512 C278.856781,308.976135 268.943787,290.322449 269.629944,271.317078 C269.129974,266.186462 265.278565,252.556549 239.353073,238.64386 C206.500565,221.000458 195.108368,230.372101 195.108368,230.372101 L195.442825,229.727356 C179.940628,242.157349 157.932068,244.91922 139.264618,235.006226 C114.242485,221.700409 104.73291,190.627045 118.024941,165.587707 C131.320419,140.551788 162.404114,131.042206 187.443482,144.348022 C188.38823,144.834198 189.250229,145.399673 190.136353,145.95134 L189.23642,144.630768 C189.23642,144.630768 203.362869,154.316193 234.663803,134.866028 C265.978516,115.429672 262.961517,102.06868 262.961517,102.06868 L263.540772,102.972076 C261.816773,92.3039398 263.382172,81.0186615 268.84726,70.7401733 C282.1427,45.6904754 313.216064,36.1947021 338.251984,49.4867172 C363.277557,62.79599 372.800903,93.8796844 359.495087,118.905258 C354.388611,128.521728 346.658173,135.821136 337.658936,140.427658 L339.372559,140.362152 C339.372559,140.362152 327.463196,146.637497 328.463135,183.448303 C329.459564,220.245361 340.906921,225.310455 340.906921,225.310455 L339.627747,225.417358 C341.417236,226.117279 343.210175,226.910339 344.961761,227.841278 C369.997681,241.133331 379.507263,272.220459 366.201446,297.259827 Z M283.690887,65.826767 C268.75415,82.1634064 268.443817,106.206299 282.828888,119.79483 C275.719086,112.953995 275.881165,98.6896516 283.059875,85.045929 C283.987396,83.8322144 286.666504,80.9359131 290.586884,82.2564698 C290.976501,82.3909608 291.235077,82.4185181 291.383331,82.4047395 C292.269501,82.5944062 293.172882,82.7012635 294.117615,82.6599122 C300.055054,82.3909608 304.661591,77.3672181 304.392639,71.4159852 C304.271942,68.747223 303.16861,66.3922425 301.454956,64.5717011 C315.246948,55.5345002 331.087036,54.496666 337.57962,60.4237519 L337.820984,60.4375458 C323.004944,46.914505 298.775879,49.3246689 283.690887,65.826767 Z M187.671036,157.0746 L187.429688,157.050445 C180.937103,151.123337 165.100449,152.174972 151.308456,161.198395 C153.018677,163.015488 154.122025,165.373917 154.242706,168.03923 C154.511643,173.993912 149.918915,179.017639 143.967682,179.286606 C143.036713,179.327957 142.123001,179.217621 141.233414,179.031433 C141.085159,179.045242 140.830002,179.017639 140.43692,178.883163 C136.520004,177.562607 133.837463,180.445114 132.909943,181.669144 C125.71743,195.312866 125.569168,209.57724 132.678925,216.41806 C118.293892,202.829498 118.60421,178.800415 133.540924,162.450012 C148.612137,145.95134 172.84465,143.541199 187.671036,157.0746 Z M346.603027,238.885223 L346.361664,238.857666 C339.86908,232.930542 324.042786,233.982178 310.250793,243.005585 C311.960998,244.826111 313.06781,247.181091 313.188507,249.849853 C313.457428,255.787323 308.850891,260.824829 302.910004,261.107574 C301.982513,261.135162 301.065308,261.028259 300.175751,260.838623 C300.027496,260.866211 299.772308,260.824829 299.38269,260.690338 C295.462311,259.383575 292.783234,262.266083 291.852264,263.493591 C284.673554,277.123535 284.511505,291.387878 291.624695,298.242523 C277.239655,284.640167 277.549988,260.597259 292.486694,244.260651 C307.557892,227.758545 331.800781,225.348389 346.603027,238.885223 Z M299.572327,226.534485 C303.934052,222.817566 311.947205,212.311493 311.195557,185.051636 C310.468018,157.99176 303.465149,147.702927 299.651642,144.065292 C296.407074,143.110199 293.186646,141.8172 290.076569,140.158722 C288.445648,139.282913 286.883698,138.32782 285.373505,137.317551 C283.032318,136.414185 270.450562,132.993774 242.773483,150.178604 C211.848389,169.373611 214.058579,181.172638 214.058579,181.172638 L213.882721,180.917496 C214.637833,185.213684 214.892975,189.616791 214.503357,194.033691 C215.096405,197.671295 219.109879,209.794464 246.128372,224.300201 C271.084992,237.685333 282.935761,236.057861 287.087158,234.58902 C290.855804,231.289276 295.072693,228.568817 299.572327,226.534485 Z" id="Shape"/>
  </g>
</svg>
