<?xml version="1.0" encoding="UTF-8"?>
<svg xmlns="http://www.w3.org/2000/svg" xmlns:xlink="http://www.w3.org/1999/xlink" width="512px" height="510px" viewBox="0 0 512 510" version="1.1">
  <defs/>
  <g fill="#000000" id="layer1">
    <path d="M199.770248,495.855133 L35.4066772,495.855133 C15.9330082,495.855133 0,479.922119 0,460.448456 L0,35.5677567 C0,16.0940857 15.9330082,0.1610773 35.4066772,0.1610773 L300.957184,0.1610773 L424.880768,124.08461 L424.880768,221.428085 C394.582977,202.623749 396.194183,205.040527 389.47403,181.34874 L389.47403,141.787918 L283.253815,35.5677567 L35.4066772,35.5677567 L35.4066772,460.448463 L169.020386,460.448463 C178.766495,475.247864 187.886948,485.870514 199.770248,495.855133 Z M266.064606,212.601395 L70.8134232,212.601395 L70.8134232,248.008148 L215.210915,248.008148 C229.723618,236.691894 246.881729,224.848404 266.064606,212.601395 Z M145.231003,354.228302 L70.8134232,354.228302 L70.8134232,389.634979 L143.716599,389.634979 C142.776001,377.233368 143.061981,365.340424 145.231003,354.228302 Z M70.8134232,106.381241 L70.8134232,141.787918 L212.440376,141.787918 L212.440376,106.381241 L70.8134232,106.381241 Z M178.876343,283.414825 L70.8134232,283.414825 L70.8134232,318.821564 L156.466278,318.821564 C162.192398,306.725525 169.30249,294.86264 178.876343,283.414825 Z M311.278259,145.005753 C311.756012,142.257202 322.844666,148.473526 322.844666,153.734268 C322.682465,176.776856 320.70929,193.808014 319.204651,205.612961 C315.879517,236.110718 274.282471,270.287018 236.916458,323.023651 C199.695023,378.466583 218.83812,439.981476 275.343659,483.569977 C285.183746,491.160644 311.19046,497.516907 308.162689,505.721832 C302.750702,515.240418 244.724472,494.322662 214.907639,459.823822 C176.365097,415.229126 147.247894,327.244507 273.741791,250.338944 C285.538452,239.026459 296.30127,233.810043 307.945831,202.757889 C310.477753,196.006088 311.830322,169.996079 311.278259,145.005753 Z M334.638214,121.267128 C337.29483,122.114693 343.676666,126.248421 345.245483,129.64743 C347.740936,139.565109 346.800385,230.236374 342.725464,246.968796 C339.195648,281.036774 286.902374,321.847382 290.823608,380.756989 C295.519867,451.309143 340.347015,476.978394 336.509155,493.761841 C322.320648,503.874878 257.3685,433.486237 259.026062,376.12439 C258.806824,307.62204 319.108826,295.47168 330.197907,224.923477 C332.634613,199.816345 332.288178,135.375305 334.638214,121.267128 Z M350.062775,488.984222 C319.044861,426.346527 321.579407,365.16983 341.166901,309.541412 C352.135895,278.984924 365.455383,259.39743 357.032227,161.265686 C357.032227,161.265686 367.667725,160.659561 368.078735,165.324356 C368.24939,221.694672 368.449677,221.926529 412.636017,250.133453 C451.04361,274.135651 503.085571,305.913879 510.39151,355.143066 C519.942383,419.49939 486.909943,475.161438 412.635956,505.608826 C387.513336,519.460327 398.485046,495.406952 350.062775,488.984222 Z" id="Shape"/>
  </g>
</svg>
