<?xml version="1.0" encoding="UTF-8"?>
<svg xmlns="http://www.w3.org/2000/svg" xmlns:xlink="http://www.w3.org/1999/xlink" width="512px" height="512px" viewBox="0 0 512 512" version="1.1">
  <defs/>
  <g fill="#000000" id="layer1">
    <path d="M284.09589,382.75518 C410.50561,286.6875 323.70455,87.85883 214.58346,104.8948 C9.31536,136.94123 60.65822,422.22299 129.04672,475.25772 C22.04198,422.38997 -22.42647,291.21668 10.82114,179.73984 C37.160205,91.426854 119.28723,3.96245 243.70826,0.61041 C440.07466,-17.300905 498.5806,364.77481 284.09589,382.75518 Z M219.24713,130.19909 C106.94737,135.9266 82.72514,249.3567 91.95607,331.31256 C105.42439,450.88976 181.19895,528.52894 299.5102,508.9968 C481.28657,478.98714 631.41356,190.27134 375.95121,28.9819 C470.0609,138.60569 470.93372,360.69505 316.32722,400.11164 C173.34603,443.2138 108.25149,212.38687 219.24713,130.19909 Z" id="Shape"/>
  </g>
</svg>
