<?xml version="1.0" encoding="UTF-8"?>
<svg xmlns="http://www.w3.org/2000/svg" xmlns:xlink="http://www.w3.org/1999/xlink" width="439px" height="512px" viewBox="0 0 439 512" version="1.1">
  <defs/>
  <g fill="#000000" id="layer1">
    <path d="M329.142853,0 L0,0 L0,512 L438.857147,512 L438.857147,109.714287 L329.142853,0 Z M402.285706,475.428558 L36.5714302,475.428558 L36.5714302,36.5714302 L292.57143,36.5714302 L402.285694,146.285725 L402.285694,475.428558 L402.285706,475.428558 Z M219.429001,329.143005 C259.786133,329.143005 292.571442,361.928558 292.571442,402.285706 L365.714295,402.285706 L365.714295,182.857147 L292.571442,109.714287 L73.1428604,109.714287 L73.1428604,402.285698 L146.285721,402.285698 C146.285721,361.928558 179.054138,329.143005 219.429001,329.143005 C163.332214,329.142975 128.08136,277.997803 156.129776,229.345917 C184.178192,180.694031 254.679886,180.694061 282.728241,229.345993 C310.776596,277.997925 275.525787,329.143036 219.429001,329.143005 Z" id="Shape"/>
  </g>
</svg>
