<?xml version="1.0" encoding="UTF-8"?>
<svg xmlns="http://www.w3.org/2000/svg" xmlns:xlink="http://www.w3.org/1999/xlink" width="512px" height="446px" viewBox="0 0 512 446" version="1.1">
  <defs/>
  <g fill="#000000" id="layer1">
    <polygon id="Shape" points="120.038925 290.979645 222.010178 189.010178 120.038925 87.0371628 86.0473328 121.026993 154.028748 189.010178 86.0473328 256.989838"/>
    <rect id="Rectangle-path" x="222.010178" y="256.989838" width="135.959305" height="33.9898262"/>
    <path d="M387.504578,0.9898262 L52.0575104,0.9898262 L51.3834992,1.0039406 C37.3651658,1.5262108 24.9171696,6.8406525 15.3822327,16.3755875 C5.8402371,25.9175835 0.5240334,38.3708725 0.012351,52.3874435 L0,392.949127 L0.012351,393.609039 C0.5240334,407.62912 5.8384728,420.082428 15.3822317,429.62442 C24.9101105,439.155823 37.3581076,444.470245 51.3782072,444.996063 L460.279513,445.010162 L460.618259,444.996063 C474.64014,444.470245 487.086368,439.155823 496.616,429.62442 C506.143893,420.096527 511.460086,407.650299 511.987643,393.630188 L511.997806,175.419937 L512,175.422134 L512,127.995361 L387.504578,0.9898262 Z M475.864624,139.946564 L381.062225,139.945572 L381.061798,44.4795227 L475.864624,139.946564 Z M471.063629,404.075592 C467.986481,407.15274 464.427643,408.638367 459.556091,408.874817 L52.4403877,408.874817 C47.5705833,408.638367 44.0117454,407.152741 40.9345932,404.075592 C37.8503838,400.991364 36.3647385,397.434296 36.1353645,392.578613 L36.1353645,53.4178619 C36.3647384,48.5621719 37.8503837,45.0086288 40.9345932,41.9244155 C44.0135078,38.8472671 47.5705833,37.3580932 52.4350967,37.1251906 L347.071968,37.1251906 L347.072426,173.934944 L475.864632,173.935387 L475.864632,392.568016 C475.628204,397.437836 474.140808,400.998444 471.063629,404.075592 Z" id="Shape"/>
  </g>
</svg>
