<?xml version="1.0" encoding="UTF-8"?>
<svg xmlns="http://www.w3.org/2000/svg" xmlns:xlink="http://www.w3.org/1999/xlink" width="512px" height="290px" viewBox="0 0 512 290" version="1.1">
  <defs/>
  <g fill="#000000" id="layer1">
    <path d="M321.09936,20.90734 C321.09936,20.90734 253.539,20.51073 197.37019,20.90734 L184.43022,129.07949 L223.39548,138.23923 C233.27191,124.86442 284.23267,115.04619 278.36751,166.90214 C278.36751,166.90214 279.19128,201.38439 250.01475,196.15249 C231.4187,192.81788 229.50196,172.4065 229.50196,172.4065 L180.35923,172.4065 C178.84178,251.31308 334.16482,265.93856 327.44387,160.06363 C324.48754,113.49287 292.498,77.06686 232.40981,101.01871 L237.20777,59.00022 L321.09936,59.00022 L321.09936,20.90734 Z M85.05471,259.20593 C77.579647,256.12614 72.64909,250.1162 69.933891,243.35812 C64.084854,225.50572 66.008284,207.20195 66.008284,187.67273 C65.855384,167.51524 54.986582,150.63564 38.965234,142.60101 C68.728338,128.38411 66.566701,102.7118 66.008284,68.01458 C65.7841,52.37389 71.884698,31.9268 85.05471,25.99609 L75.894968,0.40698 C41.504077,10.78651 23.715639,30.82802 23.553622,68.01458 C22.617348,81.49065 25.256588,96.77786 22.245095,109.45148 C18.377109,120.61804 10.42106,126.10655 4e-06,126.17164 L4e-06,159.17577 C17.391659,159.46821 23.441867,174.06242 23.553622,187.67273 C23.800792,204.5407 22.372502,223.69024 26.170677,238.99636 C34.106167,264.34236 41.531201,276.24447 75.894968,284.94043 L85.05471,259.20593 Z M110.353082,114.51147 C92.507852,105.1618 92.507847,81.66068 110.353072,72.311 C128.198302,62.96132 150.625962,74.71187 150.625962,93.41124 C150.625962,112.1106 128.198312,123.86116 110.353082,114.51147 L110.353082,114.51147 Z M110.352982,233.0005 C92.507937,223.65083 92.50793,200.14971 110.352972,190.80003 C128.198012,181.45035 150.625432,193.2009 150.625432,211.90026 C150.625432,230.59963 128.198012,242.35018 110.352982,233.0005 Z M426.945292,259.20594 C434.420362,256.12614 439.350912,250.1162 442.066112,243.35813 C447.915152,225.50572 445.991722,207.20195 445.991722,187.67274 C446.144622,167.51524 457.013422,150.63565 473.034772,142.60102 C443.271672,128.38412 445.433302,102.71181 445.991722,68.01459 C446.215902,52.37389 440.115312,31.9268 426.945292,25.9961 L436.105042,0.40699 C472.494352,19.44637 488.284372,30.82803 488.446382,68.01459 C489.382662,81.49065 486.743422,96.77787 489.754912,109.45148 C493.622892,120.61804 501.578942,126.10656 512.000002,126.17165 L512.000002,159.17577 C494.608352,159.46822 488.558142,174.06243 488.446382,187.67274 C488.199212,204.5407 489.627502,223.69024 485.829332,238.99637 C477.893842,264.34237 470.468802,276.24448 436.105042,284.94043 L426.945292,259.20594 Z M407.393972,226.78337 C407.088992,244.94057 399.104952,263.69132 389.074482,276.94384 C385.488142,281.79025 381.610992,286.00665 377.443072,289.59301 C369.723772,283.34864 362.101852,280.13283 352.726332,277.9616 C350.890602,263.12784 364.025482,255.76935 366.684012,244.81206 C369.484162,228.74666 368.283332,212.7736 368.283332,195.66933 L407.539352,195.66933 C407.491152,206.04067 407.442052,216.41209 407.393972,226.78337 L407.393972,226.78337 Z" id="Shape"/>
  </g>
</svg>
