<?xml version="1.0" encoding="UTF-8"?>
<svg xmlns="http://www.w3.org/2000/svg" xmlns:xlink="http://www.w3.org/1999/xlink" width="465px" height="512px" viewBox="0 0 465 512" version="1.1">
  <defs/>
  <g fill="#000000" id="layer1">
    <path d="M248.871597,63.1644936 L0,63.1644936 L0,444.841557 L261.910492,444.841557 C255.977295,422.835545 252.484772,400.011509 251.52829,376.39481 C183.180725,380.397739 117.761627,362.615574 71.1413879,342.184422 L79.5068435,322.640812 C136.746559,347.150089 194.183159,357.940342 251.318764,355.07349 C251.765068,334.97266 253.910912,314.353519 257.848763,293.221592 L177.188561,293.221592 C175.939697,203.651688 206.883285,130.33754 248.871597,63.1644936 Z M114.27121,123.784836 L135.527344,123.784836 L135.527344,175.191895 L114.27121,175.191895 L114.27121,123.784836 L114.27121,123.784836 Z" id="Shape"/>
    <path d="M275.335388,353.010315 C312.411011,348.651794 349.33194,338.589722 385.956451,322.666748 L394.436066,342.158447 C355.031647,359.292541 315.30188,370.048401 275.408691,374.499664 C276.33371,398.911987 280.205383,422.361999 286.835297,444.841553 L464.550903,444.841553 L464.550903,63.1644936 L277.264893,63.1644936 C229.11554,136.211399 205.218597,201.741322 201.70369,269.308445 L287.387329,269.308445 C282.898407,287.398987 276.421936,317.622559 275.335388,353.010315 Z M336.121796,175.191894 L314.865662,175.191894 L314.865662,123.784836 L336.121796,123.784836 L336.121796,175.191894 Z" id="Shape"/>
    <path d="M277.264893,63.1644936 C287.695435,47.3404503 299.212219,31.1800614 311.964722,14.551323 L292.991974,0 C276.348633,21.7014618 261.745422,42.6689377 248.871597,63.1644936 L277.264893,63.1644936 Z" id="Shape"/>
    <path d="M261.887146,444.841553 C268.198547,468.183868 277.251923,490.606659 289.167297,512 L310.060181,500.365173 C300.184265,482.634003 292.475617,464.092926 286.784698,444.841553 L261.887146,444.841553 L261.887146,444.841553 Z" id="Shape"/>
  </g>
</svg>
