<?xml version="1.0" encoding="UTF-8" standalone="no"?>
<svg
   xmlns:dc="http://purl.org/dc/elements/1.1/"
   xmlns:cc="http://creativecommons.org/ns#"
   xmlns:rdf="http://www.w3.org/1999/02/22-rdf-syntax-ns#"
   xmlns:svg="http://www.w3.org/2000/svg"
   xmlns="http://www.w3.org/2000/svg"
   height="585"
   width="585"
   xml:space="preserve"
   viewBox="0 0 584.99999 584.99999"
   y="0px"
   x="0px"
   id="Capa_1"
   version="1.1"><metadata
   id="metadata4652"><rdf:RDF><cc:Work
       rdf:about=""><dc:format>image/svg+xml</dc:format><dc:type
         rdf:resource="http://purl.org/dc/dcmitype/StillImage" /><dc:title></dc:title></cc:Work></rdf:RDF></metadata><defs
   id="defs4650" />

<g
   transform="translate(0,528.502)"
   id="g4617">
</g>
<g
   transform="translate(0,528.502)"
   id="g4619">
</g>
<g
   transform="translate(0,528.502)"
   id="g4621">
</g>
<g
   transform="translate(0,528.502)"
   id="g4623">
</g>
<g
   transform="translate(0,528.502)"
   id="g4625">
</g>
<g
   transform="translate(0,528.502)"
   id="g4627">
</g>
<g
   transform="translate(0,528.502)"
   id="g4629">
</g>
<g
   transform="translate(0,528.502)"
   id="g4631">
</g>
<g
   transform="translate(0,528.502)"
   id="g4633">
</g>
<g
   transform="translate(0,528.502)"
   id="g4635">
</g>
<g
   transform="translate(0,528.502)"
   id="g4637">
</g>
<g
   transform="translate(0,528.502)"
   id="g4639">
</g>
<g
   transform="translate(0,528.502)"
   id="g4641">
</g>
<g
   transform="translate(0,528.502)"
   id="g4643">
</g>
<g
   transform="translate(0,528.502)"
   id="g4645">
</g>
<path
   id="path5227"
   d="m 174.14749,547.9222 c -41.65747,-40.82689 -62.1833,-97.28302 -62.30615,-171.37249 -0.0459,-27.68167 0.43774,-32.26739 5.00463,-47.45187 12.379,-41.159 39.31365,-82.91503 92.69803,-143.70712 25.28788,-28.79686 44.96827,-53.38057 51.7422,-64.63362 10.64981,-17.69179 23.39328,-69.139046 23.39328,-94.442105 V 14.785667 l 6.87218,6.600052 c 14.84416,14.256355 36.25408,47.007905 100.87313,154.309311 67.61386,112.27434 74.57311,126.78044 78.3104,163.23255 2.71627,26.49334 1.08425,90.39278 -2.57564,100.84581 -8.73288,24.94208 -51.07293,69.02546 -103.66757,107.93606 -6.13736,4.54054 -11.56236,7.85201 -12.05556,7.35883 -0.49318,-0.4932 1.24053,-10.26653 3.85271,-21.71852 6.65716,-29.18551 8.8341,-47.30108 8.79024,-73.14923 -0.0814,-47.94686 -9.1567,-76.73378 -35.90157,-113.87913 -17.10956,-23.76311 -49.60808,-52.56899 -54.16582,-48.01125 -1.19261,1.19262 -0.14796,11.70071 2.93394,29.51227 5.53206,31.97207 5.82641,40.29145 2.10767,59.57113 -5.48492,28.43646 -13.67543,40.08993 -42.19103,60.02942 -21.5749,15.08619 -28.26062,21.99164 -34.48879,35.62225 -5.81324,12.72253 -7.84556,23.23302 -10.69675,55.32015 -1.16912,13.15723 -2.32015,24.11669 -2.55783,24.35439 -0.23769,0.23769 -7.42496,-6.42122 -15.9717,-14.79756 z"
   style="fill:#000000;fill-opacity:1;stroke-width:1.91518652" /><path
   id="path5229"
   d="m 189.83654,563.16686 c -0.65123,-0.55651 -1.02408,-1.01803 -0.82856,-1.0256 0.19551,-0.008 0.52317,0.15393 0.72812,0.35888 0.27115,0.27115 0.42456,0.20199 0.56324,-0.25392 0.19442,-0.63915 2.01818,-18.46387 2.45427,-23.98722 0.13232,-1.67588 0.31097,-2.83802 0.39699,-2.58255 0.20347,0.60425 -1.60379,27.11015 -1.9023,27.89985 -0.20442,0.5408 -0.34879,0.49893 -1.41176,-0.40944 z"
   style="fill:#000000;fill-opacity:1;stroke-width:0.33856034" /></svg>