<?xml version="1.0" encoding="UTF-8"?>
<svg xmlns="http://www.w3.org/2000/svg" xmlns:xlink="http://www.w3.org/1999/xlink" width="476px" height="512px" viewBox="0 0 476 512" version="1.1">
  <defs/>
  <g fill="#000000" id="layer1">
    <path d="M380.784637,512 L95.2153702,512 C42.8535118,512 0.2537079,469.400208 0.2537079,417.03833 L0.2537079,94.9607925 C0.2537098,42.5989342 42.8535118,0 95.2153702,0 L380.784645,0 C433.146492,0 475.746284,42.5989342 475.746284,94.9607925 L475.746284,417.038338 C475.746277,469.400208 433.146484,512 380.784637,512 Z M95.2153702,44.4598198 C67.3689347,44.4598198 44.7135315,67.114357 44.7135315,94.9607925 L44.7135315,417.038338 C44.7135315,444.884773 67.3689346,467.540199 95.2153702,467.540199 L380.784645,467.540199 C408.631081,467.540199 431.286476,444.884773 431.286476,417.038338 L431.286476,94.9607925 C431.286476,67.114357 408.631081,44.4598198 380.784645,44.4598198 L95.2153702,44.4598198 Z M350.269196,68.0073547 C318.348419,68.0073547 292.471436,93.8842544 292.471436,125.805122 C292.471436,134.957046 294.607025,143.607178 298.393829,151.298096 L257.11969,192.572571 C251.924072,190.517059 246.267395,189.37529 240.340668,189.37529 C233.931,189.37529 227.832855,190.702026 222.297745,193.086853 L180.069916,150.85936 C183.721466,143.279922 185.767853,134.78154 185.767853,125.805122 C185.767853,93.8842543 159.890961,68.0073546 127.970078,68.0073546 C96.0493164,68.0073546 70.1723175,93.8842543 70.1723175,125.805122 C70.1723175,157.725891 96.0493164,183.60289 127.970078,183.60289 C138.6082,183.60289 148.56694,180.716156 157.128387,175.702148 L198.405258,216.979446 C196.020523,222.514572 194.693786,228.612594 194.693786,235.022262 C194.693786,254.59967 207.021408,271.292084 224.335113,277.776855 L224.335113,330.848816 C199.748489,337.495849 181.654129,359.947296 181.654129,386.636017 C181.654129,418.556885 207.531021,444.433777 239.451904,444.433777 C271.372787,444.433777 297.249664,418.556884 297.249664,386.636017 C297.249664,361.252106 280.878662,339.706024 258.124573,331.939361 L258.124573,277.074676 C274.499267,270.141174 285.987518,253.923538 285.987518,235.022262 C285.987518,228.13565 284.453461,221.61029 281.722687,215.755279 L321.532898,175.944748 C329.999481,180.807754 339.804962,183.60289 350.269195,183.60289 C382.190063,183.60289 408.066955,157.725891 408.066955,125.805122 C408.066956,93.8842545 382.190063,68.0073547 350.269196,68.0073547 Z M127.885315,147.145844 C116.099121,147.145844 106.544594,137.591202 106.544594,125.805122 C106.544594,114.018929 116.099121,104.464409 127.885315,104.464409 C139.671402,104.464409 149.226028,114.018929 149.226028,125.805122 C149.226028,137.591202 139.671402,147.145844 127.885315,147.145844 Z M260.460358,387.812622 C260.460358,399.598724 250.905823,409.153351 239.119629,409.153351 C227.333435,409.153351 217.778915,399.598724 217.778915,387.812622 C217.778915,376.026428 227.333435,366.471924 239.119629,366.471924 C250.905823,366.471924 260.460358,376.026428 260.460358,387.812622 Z M350.184418,147.145844 C338.398224,147.145844 328.843689,137.591202 328.843689,125.805122 C328.843689,114.018929 338.398224,104.464409 350.184418,104.464409 C361.970489,104.464409 371.525146,114.018929 371.525146,125.805122 C371.525146,137.591202 361.970489,147.145844 350.184418,147.145844 Z" id="Shape"/>
  </g>
</svg>
