<?xml version="1.0" encoding="UTF-8" standalone="no"?>
<!-- Created with Inkscape (http://www.inkscape.org/) -->

<svg
   xmlns:dc="http://purl.org/dc/elements/1.1/"
   xmlns:cc="http://creativecommons.org/ns#"
   xmlns:rdf="http://www.w3.org/1999/02/22-rdf-syntax-ns#"
   xmlns:svg="http://www.w3.org/2000/svg"
   xmlns="http://www.w3.org/2000/svg"
   xmlns:sodipodi="http://sodipodi.sourceforge.net/DTD/sodipodi-0.dtd"
   xmlns:inkscape="http://www.inkscape.org/namespaces/inkscape"
   version="1.0"
   width="362pt"
   height="648pt"
   viewBox="0 0 362 648"
   id="svg2"
   inkscape:version="0.48.4 r9939"
   sodipodi:docname="fridge.svg">
  <sodipodi:namedview
     pagecolor="#ffffff"
     bordercolor="#666666"
     borderopacity="1"
     objecttolerance="10"
     gridtolerance="10"
     guidetolerance="10"
     inkscape:pageopacity="0"
     inkscape:pageshadow="2"
     inkscape:window-width="640"
     inkscape:window-height="480"
     id="namedview11"
     showgrid="false"
     inkscape:zoom="0.29135802"
     inkscape:cx="226.25"
     inkscape:cy="405"
     inkscape:window-x="312"
     inkscape:window-y="24"
     inkscape:window-maximized="0"
     inkscape:current-layer="svg2" />
  <defs
     id="defs12" />
  <metadata
     id="metadata4">
Created by potrace 1.8, written by Peter Selinger 2001-2007
<rdf:RDF>
  <cc:Work
     rdf:about="">
    <dc:format>image/svg+xml</dc:format>
    <dc:type
       rdf:resource="http://purl.org/dc/dcmitype/StillImage" />
    <dc:title />
  </cc:Work>
</rdf:RDF>
</metadata>
  <g
     transform="matrix(-0.17289216,0,0,-0.17289216,286.38991,511.76054)"
     id="g6"
     style="fill:#000000;stroke:none" />
  <path
     style="font-size:medium;font-style:normal;font-variant:normal;font-weight:normal;font-stretch:normal;text-indent:0;text-align:start;text-decoration:none;line-height:normal;letter-spacing:normal;word-spacing:normal;text-transform:none;direction:ltr;block-progression:tb;writing-mode:lr-tb;text-anchor:start;baseline-shift:baseline;color:#000000;fill:#000000;fill-opacity:1;stroke:none;stroke-width:9.23045731;marker:none;visibility:visible;display:inline;overflow:visible;enable-background:accumulate;font-family:Sans;-inkscape-font-specification:Sans"
     d="m 10.53125,18.21875 a 4.6156902,4.6156902 0 0 0 -4.5,4.65625 l 6.0625,571.65625 a 4.6156902,4.6156902 0 0 0 1.6875,3.5 l 43.125,35.65625 a 4.6156902,4.6156902 0 0 0 7.5625,-3.5625 l -2.28125,-570 a 4.6156902,4.6156902 0 0 0 -1.75,-3.59375 L 13.53125,19.21875 a 4.6156902,4.6156902 0 0 0 -3,-1 z M 15.375,32.5 52.96875,62.375 55.1875,620.3125 21.28125,592.28125 15.375,32.5 z"
     id="rect2984-1"
     inkscape:connector-curvature="0" />
  <path
     d="m 60,56.0625 a 4.6156902,4.6156902 0 0 0 -4.625,4.625 l 0,569.96875 a 4.6156902,4.6156902 0 0 0 4.625,4.625 l 282.40625,0 a 4.6156902,4.6156902 0 0 0 4.625,-4.625 l 0,-569.96875 a 4.6156902,4.6156902 0 0 0 -4.625,-4.625 L 60,56.0625 z m 4.59375,9.25 273.1875,0 0,560.75 -273.1875,0 0,-560.75 z"
     id="rect2984"
     style="font-size:medium;font-style:normal;font-variant:normal;font-weight:normal;font-stretch:normal;text-indent:0;text-align:start;text-decoration:none;line-height:normal;letter-spacing:normal;word-spacing:normal;text-transform:none;direction:ltr;block-progression:tb;writing-mode:lr-tb;text-anchor:start;baseline-shift:baseline;color:#000000;fill:#000000;fill-opacity:1;fill-rule:nonzero;stroke:none;stroke-width:9.23045731;marker:none;visibility:visible;display:inline;overflow:visible;enable-background:accumulate;font-family:Sans;-inkscape-font-specification:Sans" />
  <path
     d="m 11.28125,17.09375 a 4.6156902,4.6156902 0 0 0 -2.375,8.25 L 58.0625,63.5 a 4.6156902,4.6156902 0 0 0 2.84375,0.96875 l 281.375,0 a 4.6156902,4.6156902 0 0 0 2.59375,-8.4375 L 288.90625,17.875 a 4.6156902,4.6156902 0 0 0 -2.59375,-0.78125 l -274.5625,0 a 4.6156902,4.6156902 0 0 0 -0.46875,0 z m 13.90625,9.21875 259.71875,0 42.40625,28.90625 -264.84375,0 L 25.1875,26.3125 z"
     id="rect3773"
     style="font-size:medium;font-style:normal;font-variant:normal;font-weight:normal;font-stretch:normal;text-indent:0;text-align:start;text-decoration:none;line-height:normal;letter-spacing:normal;word-spacing:normal;text-transform:none;direction:ltr;block-progression:tb;writing-mode:lr-tb;text-anchor:start;baseline-shift:baseline;color:#000000;fill:#000000;fill-opacity:1;fill-rule:nonzero;stroke:none;stroke-width:9.23045731;marker:none;visibility:visible;display:inline;overflow:visible;enable-background:accumulate;font-family:Sans;-inkscape-font-specification:Sans" />
  <path
     d="m 86.03125,309.4375 a 4.0004,4.0004 0 0 0 -3.59375,4 l 0,17.15625 a 4.0004,4.0004 0 0 0 4,4 l 62.46875,0 a 4.0004,4.0004 0 0 0 4,-4 l 0,-17.15625 a 4.0004,4.0004 0 0 0 -4,-4 l -62.46875,0 a 4.0004,4.0004 0 0 0 -0.40625,0 z m 4.40625,8 54.46875,0 0,9.15625 -54.46875,0 0,-9.15625 z"
     id="rect3781"
     style="font-size:medium;font-style:normal;font-variant:normal;font-weight:normal;font-stretch:normal;text-indent:0;text-align:start;text-decoration:none;line-height:normal;letter-spacing:normal;word-spacing:normal;text-transform:none;direction:ltr;block-progression:tb;writing-mode:lr-tb;text-anchor:start;baseline-shift:baseline;color:#000000;fill:#000000;fill-opacity:1;fill-rule:nonzero;stroke:none;stroke-width:8;marker:none;visibility:visible;display:inline;overflow:visible;enable-background:accumulate;font-family:Sans;-inkscape-font-specification:Sans" />
  <path
     d="m 189.42468,91.815958 -1.34549,0.77953 -2.07698,1.20667 -1.32414,0.77953 v 1.53237 6.257642 l -1.11592,-0.65139 -1.32947,-0.77421 -1.33482,0.76887 -2.08231,1.19599 -1.3455,0.77953 0.006,1.54839 0.006,2.38665 0.006,1.53773 1.32947,0.77417 3.7909,2.18376 -0.006,10.09658 -8.74571,-5.0563 0.0126,-4.34616 0.006,-1.54305 -1.33481,-0.77953 -2.08766,-1.20667 -1.34015,-0.77955 -1.34016,0.77955 -2.07697,1.20667 -1.33483,0.77953 0.006,1.53771 0.006,1.27075 -5.41401,-3.12883 -1.32948,-0.76885 -1.33481,0.76353 -2.08233,1.20132 -1.34015,0.76885 v 1.5484 2.40267 1.54305 l 1.33483,0.76885 5.41935,3.12349 -1.09989,0.63002 -1.33481,0.77421 -0.006,1.54304 -0.006,2.39199 -0.006,1.53771 1.33483,0.77953 2.09299,1.21736 1.34016,0.77953 1.34015,-0.77953 3.75886,-2.17842 8.74571,5.04026 -8.74039,5.04028 -3.78553,-2.18376 -1.34016,-0.77953 -1.34015,0.77953 -2.06096,1.20134 -1.31881,0.77419 -0.006,1.52169 -0.0126,2.38665 -0.006,1.5484 1.34016,0.77952 1.11592,0.64605 -5.42471,3.11815 -1.34549,0.76885 0.006,1.54839 0.006,2.39733 0.006,1.5377 1.32948,0.76886 2.08231,1.20133 1.33482,0.76886 1.32947,-0.76886 5.41937,-3.11813 -0.006,1.26541 -0.0126,1.54306 1.33481,0.77952 2.08232,1.20667 1.34015,0.77953 1.34016,-0.77953 2.07697,-1.20133 1.32948,-0.77954 v -1.5377 -4.34616 l 8.70835,-4.99757 0.0201,10.02181 -3.76952,2.17842 -1.33481,0.77421 v 1.54305 2.40801 1.53237 l 1.32947,0.77419 2.06096,1.19599 1.33481,0.77954 1.33482,-0.76886 1.1426,-0.65139 0.006,6.27364 v 1.53771 l 1.33482,0.76886 2.07165,1.19066 1.33481,0.77419 1.32948,-0.76885 2.07163,-1.19066 1.34016,-0.7742 v -1.54304 l 0.006,-6.26297 1.09989,0.63537 1.32947,0.7742 1.32948,-0.76886 2.08233,-1.19065 1.34549,-0.76886 v -1.54838 -2.39201 -1.54303 l -1.33481,-0.77421 -3.78022,-2.17842 v -10.1019 l 8.74573,5.04562 v 4.37286 1.54838 l 1.34016,0.76887 2.06629,1.1853 1.32948,0.76887 1.33482,-0.77419 2.07698,-1.19601 1.33482,-0.7742 v -1.54304 -1.28143 l 5.41935,3.12347 1.32948,0.76352 1.32948,-0.75818 2.08765,-1.19599 1.35085,-0.76886 -0.006,-1.55372 -0.006,-2.40267 -0.006,-1.53771 -1.32947,-0.76885 -5.41403,-3.12347 1.11056,-0.64073 1.3295,-0.77418 0.006,-1.53238 0.006,-2.39199 0.006,-1.53771 -1.33481,-0.77953 -2.08232,-1.20669 -1.33483,-0.77953 -1.34014,0.77953 -3.7802,2.18377 -8.74573,-5.0456 8.74038,-5.03494 3.79089,2.17842 1.32414,0.77953 1.33481,-0.77953 2.07698,-1.20668 1.3188,-0.77419 0.006,-1.53237 0.006,-2.37597 0.006,-1.54306 -1.34015,-0.77952 -1.11591,-0.64073 5.41935,-3.12881 1.34016,-0.77419 -0.006,-1.54305 -0.006,-2.408 -0.006,-1.53773 -1.32947,-0.76885 -2.07164,-1.20132 -1.33483,-0.76885 -1.3348,0.76885 -5.43539,3.13415 v -1.28143 -1.5377 l -1.32947,-0.77421 -2.06097,-1.196 -1.32948,-0.77953 -1.34014,0.76885 -2.07699,1.19067 -1.34016,0.77418 v 1.54839 4.36753 l -8.78308,5.08832 0.0333,-10.12324 3.78555,-2.19444 1.32412,-0.77953 0.006,-1.53239 0.006,-2.38665 0.006,-1.54305 -1.34016,-0.77953 -2.08233,-1.20133 -1.3348,-0.77421 -1.33483,0.77421 -1.09989,0.63537 -0.006,-6.246952 v -1.53771 l -1.32948,-0.7742 -2.07697,-1.20667 -1.32948,-0.76351 0,0 z m -2.07697,4.29278 2.07697,-1.21203 2.07697,1.21203 0.006,7.789992 0,0 v 0.41646 l 0,0 v 2.66963 l 2.31192,-1.34016 0,0 0.35771,-0.20823 0,0 2.43472,-1.40956 2.08232,1.20667 0,0 0,0 -0.006,2.38665 -5.10968,2.96863 -0.0534,16.31682 2.3119,-1.34015 0,0 0.36307,-0.20823 0,0 11.45808,-6.6474 v -5.90523 l 0,0 0,0 2.07697,-1.19601 2.06096,1.20135 0.006,2.81913 0,0 v 0.41647 l 0,0 v 2.66429 l 2.31724,-1.33482 0,0 0.3524,-0.20289 0,0 6.76486,-3.89766 2.07163,1.19599 0.006,2.40801 0,0 0,0 -9.42381,5.43537 2.31191,1.34016 0,0 0.35773,0.2029 0,0 2.45073,1.42023 0,0 0,0 -0.006,2.37599 -2.07696,1.21201 -5.12571,-2.94727 -14.07431,8.11568 2.31724,1.33482 0,0 0.35239,0.20824 0,0 11.41536,6.58866 5.11503,-2.9633 2.08231,1.21202 0,0 0,0 -0.006,2.39199 -5.11501,2.95261 2.3119,1.33482 0,0 0.35773,0.20289 0,0 6.74885,3.89234 0.006,2.40267 0,0 0,0 -2.08765,1.19065 -9.42381,-5.43003 v 2.66963 l 0,0 v 0.41113 l 0,0 v 2.81913 l 0,0 0,0 -2.07698,1.20133 -2.06631,-1.18532 v -5.9159 L 193.574,141.22557 v 2.66963 l 0,0 0,0 v 0.41646 l 0,0 v 13.18267 l 5.11502,2.95262 v 2.39199 l 0,0 0,0 -2.08231,1.19065 -5.10436,-2.95261 -0.006,10.88677 -2.07165,1.19064 -2.07164,-1.19064 -0.0126,-10.87611 -5.13103,2.94729 -2.06097,-1.19599 v -2.40801 l 0,0 0,0 5.10969,-2.95797 -0.0267,-16.17265 -14.03692,8.05163 v 5.89455 l 0,0 0,0 -2.07699,1.20667 -2.08231,-1.21201 0,0 0,0 0.0126,-2.80845 0,0 v -0.41113 l 0,0 0.006,-2.66963 -9.42914,5.42469 -2.08231,-1.19599 -0.006,-2.39733 0,0 0,0 6.76487,-3.89233 0,0 0.35773,-0.20823 0,0 2.31724,-1.32949 -5.1257,-2.95795 0,0 0,0 0.0126,-2.39199 2.06096,-1.20667 5.12037,2.96329 11.41002,-6.58332 0,0 0.35773,-0.20824 0,0 2.3119,-1.33482 -14.08499,-8.12102 -5.09902,2.95795 -2.09299,-1.22269 0,0 0,0 0.006,-2.39199 2.4454,-1.40958 0,0 0.36305,-0.20822 0,0 2.31725,-1.32949 -9.43982,-5.44071 v -2.40267 l 0,0 0,0 2.09833,-1.19599 6.75417,3.89232 0,0 0.35774,0.20823 0,0 2.3119,1.33482 -0.0126,-5.89989 0,0 0,0 2.07697,-1.21201 2.08765,1.21201 0,0 0,0 -0.0126,5.89455 11.41537,6.59935 0,0 0.35773,0.20823 0,0 2.3119,1.33481 v -2.66963 l 0,0 v -0.41114 l 0,0 0.0126,-13.18264 -5.1257,-2.96331 -0.0126,-2.38665 0,0 0,0 2.08232,-1.19599 2.45072,1.42024 0,0 0.35773,0.20289 0,0 2.31192,1.34016 V 96.108738 l 0,0 0,0 z"
     id="path10"
     style="fill:#000000;fill-opacity:1;stroke:#000000;stroke-width:0.93579012;stroke-opacity:1" />
</svg>
