<?xml version="1.0" encoding="UTF-8" standalone="no"?>
<!-- Created with Inkscape (http://www.inkscape.org/) -->

<svg
   xmlns:dc="http://purl.org/dc/elements/1.1/"
   xmlns:cc="http://creativecommons.org/ns#"
   xmlns:rdf="http://www.w3.org/1999/02/22-rdf-syntax-ns#"
   xmlns:svg="http://www.w3.org/2000/svg"
   xmlns="http://www.w3.org/2000/svg"
   version="1.0"
   width="585"
   height="585"
   viewBox="0 0 468 468"
   id="svg2996">
  <defs
     id="defs3012" />
  <metadata
     id="metadata2998">
Created by potrace 1.8, written by Peter Selinger 2001-2007
<rdf:RDF>
  <cc:Work
     rdf:about="">
    <dc:format>image/svg+xml</dc:format>
    <dc:type
       rdf:resource="http://purl.org/dc/dcmitype/StillImage" />
    <dc:title></dc:title>
  </cc:Work>
</rdf:RDF>
</metadata>
  <path
     d="m 294.46875,13.25 c -5.09039,0 -14.14333,9.319205 -16.09375,16.5625 -0.84466,3.136875 -2.5845,15.395889 -3.84375,27.21875 -3.45981,32.483085 -5.05963,36.53125 -14.28125,36.53125 -2.64506,0 -9.85799,-2.012367 -16.03125,-4.5 -15.4613,-6.230419 -23.10555,-6.880717 -28.34375,-2.375 -3.15734,2.715809 -4.17265,5.035219 -4.71875,10.71875 -0.65249,6.79047 -0.37475,7.6567 4.59375,13.15625 2.92138,3.2336 13.57428,11.06926 23.65625,17.4375 32.22078,20.35215 33.20939,21.79803 33.5625,48.75 0.22766,17.37786 -1.75498,24.40625 -6.9375,24.40625 -1.76865,0 -11.08571,-3.86821 -20.6875,-8.59375 -11.75612,-5.78581 -17.64389,-8.01049 -18.03125,-6.8125 -0.31639,0.97846 -1.26314,9.12501 -2.09375,18.125 -2.36571,25.63296 -4.94145,27.3238 -24.4375,15.9375 -21.1045,-12.32571 -24.28169,-18.55955 -26,-50.84375 -1.84595,-34.6824 -3.09087,-38.88479 -12.75,-43.8125 -7.49895,-3.82569 -12.60529,-3.65783 -19,0.6875 -6.37524,4.33208 -8.21825,9.91338 -8.34375,25.09375 -0.0489,5.91645 -0.88332,13.02023 -1.84375,15.78125 -1.6336,4.69626 -2.11527,5.01314 -7.5625,4.78125 -3.95254,-0.16824 -13.79948,-4.02821 -30.625,-12 -27.323163,-12.94549 -32.636389,-14.34155 -40.1875,-10.4375 -6.68701,3.45729 -8.605912,7.83179 -8.625,19.8125 l 0,10.03125 19.5625,11.46875 c 24.561599,14.414 33.5,22.0924 33.5,28.6875 0,5.83445 -2.325383,8.67825 -14.9375,18.28125 -11.038479,8.40483 -13.10594,12.30148 -11.65625,21.96875 1.411895,9.41515 3.869922,11.15826 14.40625,10.3125 6.962953,-0.55891 13.203809,-2.77468 30.40625,-10.78125 24.90163,-11.59001 33.35395,-13.91496 42.875,-11.78125 13.07116,2.92931 28.57691,12.97118 31.0625,20.125 1.75806,5.0599 -2.97756,11.10849 -15.28125,19.5 -6.78059,4.62457 -12.12504,9.0549 -11.875,9.84375 0.25005,0.78886 5.46233,4.88638 11.59375,9.125 17.62592,12.18478 19.74999,18.70745 9.1875,28.25 -10.81381,9.76965 -26.3063,13.87662 -40.125,10.65625 -8.16229,-1.90218 -11.81631,-3.51411 -36.1875,-16.21875 -16.77886,-8.74676 -19.955889,-9.43689 -27.59375,-5.8125 -6.713645,3.18584 -9.693572,9.27919 -8.5625,17.53125 1.285339,9.37751 3.592856,11.96869 16.6875,18.78125 13.48323,7.01476 17.15625,10.20126 17.15625,14.84375 0,5.11395 -7.526422,11.25658 -29.40625,23.96875 -22.361848,12.99224 -25.994471,15.84429 -28.84375,22.53125 -4.557814,10.69674 -1.890234,20.50539 6.53125,23.875 11.125676,4.45161 14.486834,3.52395 46.46875,-12.71875 16.30932,-8.28301 30.61994,-15.0625 31.78125,-15.0625 4.76529,0 6.61153,6.55906 8.25,29.15625 l 1.59375,22.21875 9,0.9375 c 10.478,1.1221 16.03467,-0.82929 18.8125,-6.625 0.9916,-2.06891 2.79196,-15.60382 4,-30.09375 2.8317,-33.96498 3.97602,-38.97884 10.53125,-45.53125 7.35035,-7.34717 28.85614,-18.04864 33.78125,-16.8125 5.13781,1.28951 6.36124,4.82293 7.625,22.21875 1.40725,19.37119 2.38188,20.12304 15.28125,11.71875 10.70258,-6.97299 18.58398,-10.11253 22.71875,-9.03125 7.10422,1.8578 10.96464,17.96676 8.15625,34.09375 -2.12541,12.205 -8.32789,19.17799 -27.53125,30.96875 -28.09965,17.25306 -34.03125,22.87225 -34.03125,32.1875 0,4.05651 1.11647,6.33521 5.0625,10.28125 4.83054,4.83054 5.44022,5.04216 12.5625,4.25 4.11298,-0.45746 12.52361,-2.80779 18.6875,-5.21875 6.16392,-2.41096 12.72821,-4.40625 14.59375,-4.40625 7.2216,0 9.97927,6.7718 11.4375,27.96875 1.57054,22.82921 3.66996,38.25888 5.75,42.28125 2.18176,4.21902 7.03766,7.94922 11.5625,8.90625 7.35484,1.55561 16.87006,-3.2643 19.375,-9.8125 0.65021,-1.69975 1.88608,-13.6371 2.75,-26.53125 2.74085,-40.90724 4.6905,-46.09954 16.125,-43.1875 3.38717,0.86261 11.89871,3.63704 18.9375,6.15625 9.29121,3.32536 14.31759,4.38376 18.34375,3.84375 8.90482,-1.19439 10.13399,-2.99875 9.5,-14.21875 -0.6977,-12.3478 -0.95239,-12.58501 -33.09375,-34.0625 -28.99375,-19.3742 -28.9331,-19.31121 -28.03125,-41.28125 0.95858,-23.35166 6.97483,-26.50721 29.5625,-15.5 7.35084,3.58216 13.87731,6.53125 14.5,6.53125 0.62268,0 1.5702,-7.28158 2.125,-16.15625 1.2087,-19.33401 2.99712,-23.24934 9.90625,-21.84375 7.69802,1.56604 40.11197,18.36583 42.875,22.21875 2.56441,3.57593 3.04754,8.57456 6.3125,62.625 l 0.8125,13.125 L 430,468.625 c 10.8988,1.08986 16.42216,-0.46454 19,-5.28125 0.96386,-1.801 2.56483,-10.54296 3.53125,-19.4375 0.96644,-8.89455 2.61099,-17.20926 3.65625,-18.46875 3.55265,-4.28069 13.42467,-1.71145 36.125,9.375 11.67086,5.69985 23.31789,10.71003 25.875,11.125 5.5983,0.90848 15.75,-1.625 18.8125,-4.6875 3.46245,-3.46245 3.07001,-21.19849 -0.59375,-26.34375 -1.55761,-2.18745 -10.75977,-9.38824 -20.4375,-16 -21.99786,-15.02884 -28.375,-20.67161 -28.375,-25.0625 0,-4.34541 7.44941,-11.76531 17.5,-17.4375 8.82573,-4.98095 15.5,-12.01315 15.5,-16.375 0,-1.59519 -1.07379,-5.16415 -2.375,-7.90625 -7.10641,-14.97566 -23.31064,-11.75776 -68.875,13.65625 l -10.25,5.71875 -18.71875,-9.25 c -18.78712,-9.29445 -24.5625,-13.96263 -24.5625,-19.84375 0,-3.84591 3.41135,-7.05131 16.65625,-15.5 5.62527,-3.58826 10.6937,-7.25614 11.25,-8.15625 1.57897,-2.55485 -1.76724,-5.5447 -13.1875,-11.8125 -5.80326,-3.18501 -11.50611,-6.72485 -12.65625,-7.875 -3.62583,-3.6258 -2.48349,-9.63971 2.84375,-15.125 5.6763,-5.84471 21.36937,-16.54827 31.40625,-21.40625 l 6.90625,-3.34375 11,5.8125 c 40.76646,21.51365 45.80551,23.88456 52.1875,24.59375 9.32918,1.03668 13.645,-0.3646 16.1875,-5.28125 4.81469,-9.3106 1.42006,-15.8039 -14.96875,-28.6875 -11.57594,-9.10013 -15.84375,-13.94388 -15.84375,-17.9375 0,-4.79703 10.65104,-13.49891 30.71875,-25.15625 l 20.90625,-12.1875 0,-13.3125 c 0,-12.24921 -0.26693,-13.64192 -3.5,-16.875 -6.44419,-6.44419 -14.452,-4.50205 -46.59375,11.34375 -34.97931,17.2447 -35.96149,17.06001 -37.5,-8 -1.04966,-17.09746 -3.19819,-24.56703 -8.59375,-29.59375 -6.904,-6.43206 -21.53484,-2.04449 -23.34375,7 -0.50932,2.54665 -0.9655,12.43509 -1,22 -0.0344,9.56494 -0.60506,24.08529 -1.28125,32.25 -1.16965,14.12292 -1.45981,15.06671 -5.96875,19.71875 -2.6067,2.68941 -12.59783,8.84873 -22.1875,13.6875 -25.4369,12.83503 -26.81793,11.95757 -28.65625,-18.84375 -0.49436,-8.28304 -1.11057,-15.8543 -1.40625,-16.8125 -0.33932,-1.09961 -5.34929,1.18636 -13.53125,6.21875 -14.98687,9.21784 -21.96121,10.89572 -27.3125,6.5625 -3.30699,-2.67784 -3.57731,-3.88069 -4.09375,-18.96875 -0.91316,-26.67945 -1.32593,-26.07553 34.21875,-48.53125 26.45195,-16.71133 33,-22.60077 33,-29.6875 0,-4.018618 -1.14855,-6.336046 -4.90625,-10.09375 -6.53681,-6.536824 -12.65831,-6.47168 -29.9375,0.3125 -18.00747,7.070152 -25.11069,9.17159 -27.59375,8.21875 -3.40219,-1.305554 -4.78941,-9.645634 -6.34375,-37.78125 -0.80622,-14.593897 -2.14984,-28.919171 -2.96875,-31.8125 C 307.90807,20.946426 299.58221,13.25 294.46875,13.25 z m -1.125,234.78125 c 26.54345,0 48.0625,21.51905 48.0625,48.0625 0,26.54345 -21.51905,48.0625 -48.0625,48.0625 -26.54345,0 -48.0625,-21.51905 -48.0625,-48.0625 0,-26.54345 21.51905,-48.0625 48.0625,-48.0625 z"
     transform="scale(0.8,0.8)"
     id="path3043"
     style="fill:#000000;fill-opacity:1;stroke:none" />
</svg>
