<?xml version="1.0" encoding="utf-8"?>
<!-- Generator: Adobe Illustrator 16.0.5, SVG Export Plug-In . SVG Version: 6.00 Build 0)  -->
<!DOCTYPE svg PUBLIC "-//W3C//DTD SVG 1.0//EN" "http://www.w3.org/TR/2001/REC-SVG-20010904/DTD/svg10.dtd">
<svg version="1.0" id="Ebene_1" xmlns="http://www.w3.org/2000/svg" xmlns:xlink="http://www.w3.org/1999/xlink" x="0px" y="0px"
	 width="500px" height="500px" viewBox="0 0 500 500" enable-background="new 0 0 500 500" xml:space="preserve">
<path fill="#000000" d="M481,23v458H23V23H481 M486,18H18v468h468V18L486,18z"/>
<path fill="#000000" d="M240.3,49.7v97.6c-23.7,2.6-45.8,13.2-62.7,30.2s-27.6,39.1-30.2,62.7H49.7V49.7H240.3 M245.3,44.7H44.7
	v200.6H152c3.3-50.1,43.3-90.1,93.4-93.4V44.7L245.3,44.7z"/>
<g>
	<path fill="#000000" d="M354.4,242.8c-4.4-49.3-43.9-88.8-93.2-93.2V47.2h195.6v195.6H354.4z"/>
	<path fill="#000000" d="M454.3,49.7v190.6h-97.6c-2.6-23.7-13.2-45.8-30.2-62.7s-39.1-27.6-62.7-30.2V49.7H454.3 M459.3,44.7H258.7
		V152c50.1,3.3,90.1,43.3,93.4,93.4h107.2V44.7L459.3,44.7z"/>
</g>
<path fill="#000000" d="M147.4,263.7c2.6,23.7,13.2,45.8,30.2,62.7s39.1,27.6,62.7,30.2v97.6H49.7V263.7H147.4 M152,258.7H44.7
	v200.6h200.6V352C195.3,348.7,155.3,308.7,152,258.7L152,258.7z"/>
<path fill="#000000" d="M454.3,263.7v190.6H263.7v-97.6c23.7-2.6,45.8-13.2,62.7-30.2s27.6-39.1,30.2-62.7H454.3 M459.3,258.7H352
	c-3.3,50.1-43.3,90.1-93.4,93.4v107.2h200.6V258.7L459.3,258.7z"/>
<circle fill="#E52420" cx="252" cy="252" r="6.7"/>
<g>
</g>
<g>
</g>
<g>
</g>
<g>
</g>
<g>
</g>
<g>
</g>
</svg>
