<?xml version="1.0" encoding="UTF-8" standalone="no"?>
<!-- Created with Inkscape (http://www.inkscape.org/) -->

<svg
   xmlns:dc="http://purl.org/dc/elements/1.1/"
   xmlns:cc="http://creativecommons.org/ns#"
   xmlns:rdf="http://www.w3.org/1999/02/22-rdf-syntax-ns#"
   xmlns:svg="http://www.w3.org/2000/svg"
   xmlns="http://www.w3.org/2000/svg"
   version="1.0"
   width="468pt"
   height="534pt"
   viewBox="0 0 468 534"
   id="svg2">
  <defs
     id="defs12" />
  <metadata
     id="metadata4">
Created by potrace 1.8, written by Peter Selinger 2001-2007
<rdf:RDF>
  <cc:Work
     rdf:about="">
    <dc:format>image/svg+xml</dc:format>
    <dc:type
       rdf:resource="http://purl.org/dc/dcmitype/StillImage" />
    <dc:title></dc:title>
  </cc:Work>
</rdf:RDF>
</metadata>
  <g
     transform="matrix(0.192593,0,0,-0.192593,0,534)"
     id="g6"
     style="fill:#000000;stroke:none">
    <path
       d="M 74,2741 C 5,2699 10,2800 10,1504 L 10,333 32,300 c 13,-18 39,-41 58,-51 26,-14 263,-49 915,-135 986,-130 928,-127 989,-51 25,31 31,49 34,102 l 4,64 148,3 c 170,3 188,10 228,88 l 22,44 0,1143 c 0,1259 3,1193 -62,1233 -33,20 -47,20 -1148,20 -1080,0 -1116,-1 -1146,-19 z m 946,-466 c 443,-58 820,-108 838,-111 l 32,-5 0,-434 0,-435 -40,0 c -105,0 -107,-123 -2,-137 l 42,-6 0,-393 c 8.7897,-314.39923 8.1164,-304.26028 9.7939,-645.03278 C 1502.213,161.77522 323.15183,342.43013 152,372 c -9,9 -12,247 -12,1008 0,548 3,1000 7,1004 4,4 21,5 38,2 16,-3 392,-53 835,-111 z m 1268,-897 -3,-1013 -127,-3 -128,-3 0,913 c 0,893 -1,914 -20,946 -24,40 -70,69 -124,78 -23,4 -183,26 -356,49 l -315,43 538,1 537,1 z"
       id="path8" />
  </g>
</svg>
