<?xml version="1.0" encoding="UTF-8" standalone="no"?>
<svg
   xmlns:dc="http://purl.org/dc/elements/1.1/"
   xmlns:cc="http://creativecommons.org/ns#"
   xmlns:rdf="http://www.w3.org/1999/02/22-rdf-syntax-ns#"
   xmlns:svg="http://www.w3.org/2000/svg"
   xmlns="http://www.w3.org/2000/svg"
   xmlns:sodipodi="http://sodipodi.sourceforge.net/DTD/sodipodi-0.dtd"
   xmlns:inkscape="http://www.inkscape.org/namespaces/inkscape"
   viewBox="20 20 321 321"
   id="svg2"
   version="1.1"
   inkscape:version="0.91 r13725"
   sodipodi:docname="fts_shutter_shadding_stop.svg">
  <metadata
     id="metadata24">
    <rdf:RDF>
      <cc:Work
         rdf:about="">
        <dc:format>image/svg+xml</dc:format>
        <dc:type
           rdf:resource="http://purl.org/dc/dcmitype/StillImage" />
        <dc:title></dc:title>
      </cc:Work>
    </rdf:RDF>
  </metadata>
  <defs
     id="defs22" />
  <sodipodi:namedview
     pagecolor="#ffffff"
     bordercolor="#666666"
     borderopacity="1"
     objecttolerance="10"
     gridtolerance="10"
     guidetolerance="10"
     inkscape:pageopacity="0"
     inkscape:pageshadow="2"
     inkscape:window-width="1920"
     inkscape:window-height="1017"
     id="namedview20"
     showgrid="false"
     inkscape:zoom="1.470405"
     inkscape:cx="147.21876"
     inkscape:cy="60.758529"
     inkscape:window-x="-8"
     inkscape:window-y="-8"
     inkscape:window-maximized="1"
     inkscape:current-layer="svg2" />
  <path
     style="fill:none;stroke:#FFFFFF;stroke-width:10"
     d="M 223.27992 261.8573 L 76.261017 261.8573 C 72.615017 261.8573 69.661017 258.9023 69.661017 255.2573 L 69.661017 136.4573 C 69.661017 132.81231 72.616017 129.85731 76.261017 129.85731 L 261.06101 129.85731 C 264.70601 129.85731 267.66101 132.81331 267.66101 136.4573 L 267.66101 221.52575 "
     id="path4"
     transform="translate(20,20)" />
  <path
     style="fill:#FFFFFF"
     inkscape:connector-curvature="0"
     d="m 183.10601,220.7013 c 3.935,0 7.87,0 11.805,0 6.448,0 6.448,-10 0,-10 -3.935,0 -7.87,0 -11.805,0 -6.448,0 -6.448,10 0,10 z"
     id="path6" />
  <path
     style="fill:none;stroke:#FFFFFF;stroke-width:10"
     inkscape:connector-curvature="0"
     d="m 188.88001,150.16831 0,128.41899"
     id="path8" />
  <g
     style="fill:#FFFFFF"
     id="g10"
     transform="translate(8.1610167,26.523305)">
    <path
       style="stroke:#FFFFFF;stroke-width:10"
       inkscape:connector-curvature="0"
       d="m 286.666,124.713 c 0,0.509 -3.164,0.922 -7.066,0.922 l -197.867,0 c -3.903,0 -7.066,-0.414 -7.066,-0.922 l 0,-16.593 c 0,-0.509 3.164,-0.922 7.066,-0.922 l 197.867,0 c 3.902,0 7.066,0.414 7.066,0.922 l 0,16.593 z"
       id="path12" />
    <path
       inkscape:connector-curvature="0"
       d="m 75,143.333 c 48.659,0 97.318,0.001 145.976,0.002 21.953,0 43.905,0 65.857,0.001 6.448,0 6.448,-10 0,-10 -48.659,0 -97.317,-0.001 -145.977,-0.002 -21.952,0 -43.905,0 -65.857,-0.001 -6.448,0 -6.448,10 0.001,10 z"
       id="path14" />
    <path
       inkscape:connector-curvature="0"
       d="m 75,156.333 c 48.659,0 97.318,0.001 145.976,0.002 21.953,0 43.905,0 65.857,0.001 6.448,0 6.448,-10 0,-10 -48.659,0 -97.317,-0.001 -145.977,-0.002 -21.952,0 -43.905,0 -65.857,-0.001 -6.448,0 -6.448,10 0.001,10 z"
       id="path16" />
    <path
       inkscape:connector-curvature="0"
       d="m 75,169.333 c 48.659,0 97.318,0.001 145.976,0.002 21.953,0 43.905,0 65.857,0.001 6.448,0 6.448,-10 0,-10 -48.659,0 -97.317,-0.001 -145.977,-0.002 -21.952,0 -43.905,0 -65.857,-0.001 -6.448,0 -6.448,10 0.001,10 z"
       id="path18" />
  </g>
  <g
     transform="matrix(0.47936939,0,0,0.46711835,25.339732,25.10929)"
     id="g4162">
    <path
       d="m 148.93774,13.542204 c -8.37973,8.379724 -11.38378,12.490532 -11.38378,15.652692 0,4.74324 6.48243,10.751344 11.54188,10.751344 4.74324,0 26.40404,-22.13512 26.40404,-27.036468 0,-6.32432 -4.26892,-10.909452 -9.9608,-10.909452 -4.26892,0 -7.11486,1.897296 -16.60134,11.541884 z"
       id="path8-0"
       inkscape:connector-curvature="0"
       style="fill:#FFFFFF;stroke:none" />
    <path
       d="m 51.226992,41.52732 c -2.529728,0.79054 -6.482428,3.320268 -8.69594,5.691888 -3.794592,3.9527 -3.794592,4.427024 -4.268916,38.894568 -0.474324,38.420244 -0.316216,39.527004 9.644588,45.535104 4.585132,2.84594 8.063508,3.16216 35.5743,3.16216 34.309436,0 39.210786,-1.10676 44.586456,-9.8027 2.84594,-4.74324 3.16216,-7.9054 3.16216,-37.313484 0,-47.590508 0.79054,-46.799968 -44.27024,-47.274292 C 70.041844,40.262456 53.914828,40.73678 51.226992,41.52732 Z m 59.448608,45.85132 0,25.29728 -26.08782,0 -26.08782,0 0,-25.29728 0,-25.29728 26.08782,0 26.08782,0 0,25.29728 z"
       id="path10"
       inkscape:connector-curvature="0"
       style="fill:#FFFFFF;stroke:none" />
    <path
       d="m 159.68908,79.47324 c -4.26892,4.268916 -3.9527,10.435128 0.79054,15.02026 l 3.79459,3.9527 40.94997,0 c 39.05268,0 41.26619,-0.158108 45.21889,-3.320268 5.05946,-3.9527 5.53378,-11.06756 0.94865,-15.652692 -3.00405,-3.004052 -5.21756,-3.16216 -45.85132,-3.16216 -40.63376,0 -42.84727,0.158108 -45.85132,3.16216 z"
       id="path12-4"
       inkscape:connector-curvature="0"
       style="fill:#FFFFFF;stroke:none" />
    <path
       d="m 10.751344,148.56644 c -11.06756,11.22566 -12.64864,16.12701 -6.956752,21.66079 6.482428,6.64054 10.27702,5.37567 22.13512,-6.95675 9.48648,-9.8027 10.593236,-11.69999 9.802696,-15.49458 -1.422972,-5.53378 -5.059456,-8.22162 -11.225668,-8.22162 -3.794592,0 -6.798644,1.8973 -13.755396,9.01216 z"
       id="path14-0"
       inkscape:connector-curvature="0"
       style="fill:#FFFFFF;stroke:none" />
    <path
       d="m 138.3445,142.71644 c -6.32432,7.11486 -4.58513,9.64459 27.98512,42.05673 21.50268,21.66079 31.7797,30.67295 34.15132,30.67295 4.58514,0 11.38378,-6.79864 11.38378,-11.22567 0,-2.52973 -9.01216,-12.80675 -30.35674,-34.15133 -26.56214,-26.72025 -30.98916,-30.51484 -35.41619,-30.51484 -2.84594,0 -6.0081,1.26486 -7.74729,3.16216 z"
       id="path16-1"
       inkscape:connector-curvature="0"
       style="fill:#FFFFFF;stroke:none" />
    <path
       d="m 76.840488,162.00562 c -2.213512,3.00405 -2.529728,10.11891 -2.529728,45.21888 l 0,41.58241 3.9527,3.79459 c 4.74324,4.74324 8.537832,4.90135 14.071612,0.63243 l 4.110808,-3.16216 0,-42.37294 c 0,-48.22294 -0.158108,-49.17159 -11.06756,-49.17159 -4.585132,0 -6.798644,0.94865 -8.537832,3.47838 z"
       id="path18-0"
       inkscape:connector-curvature="0"
       style="fill:#FFFFFF;stroke:none" />
  </g>
  <path
     inkscape:connector-curvature="0"
     style="fill:none;stroke:#FFFFFF;stroke-width:6.08634663"
     d="m 328.94024,319.00524 c 0,1.54303 -1.34332,2.79413 -3.00009,2.79413 l -73.25321,0 c -1.65677,0 -3.00009,-1.2511 -3.00009,-2.79413 l 0,-68.22445 c 0,-1.54302 1.34332,-2.79413 3.00009,-2.79413 l 73.25321,0 c 1.65677,0 3.00009,1.25111 3.00009,2.79413 l 0,68.22445 z"
     id="path4-10-4" />
</svg>
