<?xml version="1.0" encoding="utf-8"?>
<!-- Generator: Adobe Illustrator 21.1.0, SVG Export Plug-In . SVG Version: 6.00 Build 0)  -->
<svg version="1.1"
	 id="svg2" inkscape:version="0.91 r13725" sodipodi:docname="fts_shutter_shadding_run.svg" xmlns:cc="http://creativecommons.org/ns#" xmlns:dc="http://purl.org/dc/elements/1.1/" xmlns:inkscape="http://www.inkscape.org/namespaces/inkscape" xmlns:rdf="http://www.w3.org/1999/02/22-rdf-syntax-ns#" xmlns:sodipodi="http://sodipodi.sourceforge.net/DTD/sodipodi-0.dtd" xmlns:svg="http://www.w3.org/2000/svg"
	 xmlns="http://www.w3.org/2000/svg" xmlns:xlink="http://www.w3.org/1999/xlink" x="0px" y="0px" viewBox="0 0 321 321"
	 style="enable-background:new 0 0 321 321;" xml:space="preserve">
<style type="text/css">
	.st0{fill:#090000;}
	.st1{fill:#FFFFFF;}
</style>
<sodipodi:namedview  bordercolor="#666666" borderopacity="1" gridtolerance="10" guidetolerance="10" id="namedview20" inkscape:current-layer="svg2" inkscape:cx="-88.426704" inkscape:cy="132.4121" inkscape:pageopacity="0" inkscape:pageshadow="2" inkscape:window-height="1017" inkscape:window-maximized="1" inkscape:window-width="1920" inkscape:window-x="-8" inkscape:window-y="-8" inkscape:zoom="1.470405" objecttolerance="10" pagecolor="#ffffff" showgrid="false">
	</sodipodi:namedview>
<g fill="#000000">
<g id="path4">
	<path class="st0" d="M225.3,267.5h-147c-6.4,0-11.6-5.2-11.6-11.6V137.1c0-6.4,5.2-11.6,11.6-11.6h184.8c6.4,0,11.6,5.2,11.6,11.6
		v91.5l-10,0v-91.5c0-0.9-0.7-1.6-1.6-1.6H78.3c-0.9,0-1.6,0.7-1.6,1.6v118.8c0,0.9,0.7,1.6,1.6,1.6h147V267.5z"/>
</g>
<g id="path6">
	<path inkscape:connector-curvature="0" class="st1" d="M165.1,201.4c3.9,0,7.9,0,11.8,0c6.4,0,6.4-10,0-10c-3.9,0-7.9,0-11.8,0
		C158.7,191.4,158.7,201.4,165.1,201.4z"/>
	<path class="st0" d="M177,201.9h-11.8c-3.5,0-5.3-2.8-5.3-5.5s1.8-5.5,5.3-5.5H177c3.5,0,5.3,2.8,5.3,5.5S180.5,201.9,177,201.9z
		 M165.1,191.9c-1.3,0-2.5,0.5-3.2,1.4c-0.7,0.8-1.1,1.9-1.1,3.1c0,2.2,1.4,4.5,4.3,4.5H177c1.3,0,2.5-0.5,3.2-1.4
		c0.7-0.8,1.1-1.9,1.1-3.1c0-2.2-1.4-4.5-4.3-4.5H165.1z"/>
</g>
<g id="path8">
	<rect x="165.9" y="130.8" class="st0" width="10" height="128.4"/>
</g>
<g id="path12">
	<path inkscape:connector-curvature="0" d="M276.9,131.9c0,0.5-3.2,0.9-7.1,0.9H71.9c-3.9,0-7.1-0.4-7.1-0.9v-16.6
		c0-0.5,3.2-0.9,7.1-0.9h197.9c3.9,0,7.1,0.4,7.1,0.9V131.9z"/>
</g>
<g id="path14">
	<path inkscape:connector-curvature="0" d="M65.2,150.5c48.7,0,97.3,0,146,0c22,0,43.9,0,65.9,0c6.4,0,6.4-10,0-10
		c-48.7,0-97.3,0-146,0c-22,0-43.9,0-65.9,0C58.8,140.5,58.8,150.5,65.2,150.5z"/>
</g>
<g id="path16">
	<path inkscape:connector-curvature="0" d="M65.2,163.5c48.7,0,97.3,0,146,0c22,0,43.9,0,65.9,0c6.4,0,6.4-10,0-10
		c-48.7,0-97.3,0-146,0c-22,0-43.9,0-65.9,0C58.8,153.5,58.8,163.5,65.2,163.5z"/>
</g>
<g id="path18">
	<path inkscape:connector-curvature="0" d="M65.2,176.5c48.7,0,97.3,0,146,0c22,0,43.9,0,65.9,0c6.4,0,6.4-10,0-10
		c-48.7,0-97.3,0-146,0c-22,0-43.9,0-65.9,0C58.8,166.5,58.8,176.5,65.2,176.5z"/>
</g>
<g id="g4162" transform="matrix(0.47936939,0,0,0.46711835,26.6999,23.749121)">
	<g id="path8-0">
		<path inkscape:connector-curvature="0" d="M107.2-29.3c-8.4,8.4-11.4,12.5-11.4,15.7c0,4.7,6.5,10.8,11.5,10.8
			c4.7,0,26.4-22.1,26.4-27c0-6.3-4.3-10.9-10-10.9C119.5-40.8,116.7-38.9,107.2-29.3z"/>
	</g>
	<g id="path10">
		<path inkscape:connector-curvature="0" d="M9.5-1.3C7-0.5,3,2,0.8,4.4C-3,8.4-3,8.8-3.5,43.3c-0.5,38.4-0.3,39.5,9.6,45.5
			c4.6,2.8,8.1,3.2,35.6,3.2c34.3,0,39.2-1.1,44.6-9.8c2.8-4.7,3.2-7.9,3.2-37.3c0-47.6,0.8-46.8-44.3-47.3
			C28.3-2.6,12.2-2.1,9.5-1.3z M69,44.6v25.3H42.9H16.8V44.6V19.3h26.1H69V44.6z"/>
	</g>
	<g id="path12-4">
		<path inkscape:connector-curvature="0" d="M118,36.7c-4.3,4.3-4,10.4,0.8,15l3.8,4h40.9c39.1,0,41.3-0.2,45.2-3.3
			c5.1-4,5.5-11.1,0.9-15.7c-3-3-5.2-3.2-45.9-3.2S121,33.7,118,36.7z"/>
	</g>
	<g id="path14-0">
		<path inkscape:connector-curvature="0" d="M-31,105.8c-11.1,11.2-12.6,16.1-7,21.7c6.5,6.6,10.3,5.4,22.1-7
			c9.5-9.8,10.6-11.7,9.8-15.5c-1.4-5.5-5.1-8.2-11.2-8.2C-21,96.7-24,98.6-31,105.8z"/>
	</g>
	<g id="path16-1">
		<path inkscape:connector-curvature="0" d="M96.6,99.9c-6.3,7.1-4.6,9.6,28,42.1c21.5,21.7,31.8,30.7,34.2,30.7
			c4.6,0,11.4-6.8,11.4-11.2c0-2.5-9-12.8-30.4-34.2c-26.6-26.7-31-30.5-35.4-30.5C101.5,96.7,98.4,98,96.6,99.9z"/>
	</g>
	<g id="path18-0">
		<path inkscape:connector-curvature="0" d="M35.1,119.2c-2.2,3-2.5,10.1-2.5,45.2V206l4,3.8c4.7,4.7,8.5,4.9,14.1,0.6l4.1-3.2
			v-42.4c0-48.2-0.2-49.2-11.1-49.2C39.1,115.7,36.9,116.7,35.1,119.2z"/>
	</g>
</g>
<g id="path4-1">
	<path inkscape:connector-curvature="0" d="M230.2,219.6c28,16.3,55.9,32.6,83.9,49c0-1.8,0-3.5,0-5.3c-28,16.3-55.9,32.6-83.9,49
		c2,0.9,4,1.8,6,2.6c0-30.1,0-60.3,0-90.4c0-2.5,0-5,0-7.5c0-3.9-8-3.9-8,0c0,30.1,0,60.3,0,90.4c0,2.5,0,5,0,7.5
		c0,2.1,3.5,4.1,6,2.6c28-16.3,55.9-32.6,83.9-49c2.5-1.5,2.5-3.8,0-5.3c-28-16.3-55.9-32.6-83.9-49
		C230.1,212,226.1,217.3,230.2,219.6L230.2,219.6z"/>
</g>
</g>
</svg>
