<?xml version="1.0" encoding="UTF-8" standalone="no"?>
<!-- Created with Inkscape (http://www.inkscape.org/) -->

<svg
   xmlns:dc="http://purl.org/dc/elements/1.1/"
   xmlns:cc="http://creativecommons.org/ns#"
   xmlns:rdf="http://www.w3.org/1999/02/22-rdf-syntax-ns#"
   xmlns:svg="http://www.w3.org/2000/svg"
   xmlns="http://www.w3.org/2000/svg"
   xmlns:sodipodi="http://sodipodi.sourceforge.net/DTD/sodipodi-0.dtd"
   xmlns:inkscape="http://www.inkscape.org/namespaces/inkscape"
   width="193.47885mm"
   height="172.29364mm"
   viewBox="0 0 685.55498 610.48927"
   id="svg2"
   version="1.1"
   inkscape:version="0.91 r13725"
   sodipodi:docname="fts_sunblind_stop.svg">
  <defs
     id="defs4" />
  <sodipodi:namedview
     id="base"
     pagecolor="#ffffff"
     bordercolor="#666666"
     borderopacity="1.0"
     inkscape:pageopacity="0.0"
     inkscape:pageshadow="2"
     inkscape:zoom="0.35"
     inkscape:cx="353.61735"
     inkscape:cy="101.467"
     inkscape:document-units="px"
     inkscape:current-layer="layer1"
     showgrid="false"
     fit-margin-top="1"
     fit-margin-left="1"
     fit-margin-right="1"
     fit-margin-bottom="1"
     showborder="false" />
  <metadata
     id="metadata7">
    <rdf:RDF>
      <cc:Work
         rdf:about="">
        <dc:format>image/svg+xml</dc:format>
        <dc:type
           rdf:resource="http://purl.org/dc/dcmitype/StillImage" />
        <dc:title></dc:title>
      </cc:Work>
    </rdf:RDF>
  </metadata>
  <g
     inkscape:label="Ebene 1"
     inkscape:groupmode="layer"
     id="layer1"
     transform="translate(-21.209488,-23.422326)">
    <g
       style="fill:#000000;stroke:none"
       transform="matrix(0.197635,0,0,-0.197635,24.533318,479.73513)"
       id="g6">
      <path
         inkscape:connector-curvature="0"
         d="m 22,2267 c -43,-46 -35,-58 174,-268 l 196,-197 -123,-3 C 122,1794 88,1781 52,1710 L 30,1665 32,890 C 35,136 36,114 55,81 66,63 91,39 110,29 143,11 193,10 1346,10 l 1201,0 34,23 c 71,47 69,31 69,625 l 0,532 -70,0 -70,0 0,-525 0,-525 -550,0 -550,0 0,400 c 0,382 1,400 18,400 20,0 45,24 55,53 10,28 -11,68 -43,80 -28,11 -30,15 -30,64 l 0,53 -65,0 -65,0 0,-55 c 0,-50 -2,-55 -25,-61 -32,-8 -46,-26 -47,-63 -1,-35 26,-71 54,-71 17,0 18,-18 18,-400 l 0,-400 -555,0 -555,0 0,760 0,760 183,0 182,0 117,-117 117,-118 3,-98 c 3,-90 5,-101 27,-118 30,-25 66,-24 91,1 18,18 20,33 20,147 l 0,127 -403,403 c -353,353 -407,403 -433,403 -19,0 -39,-9 -52,-23 z"
         id="path8" />
      <path
         inkscape:connector-curvature="0"
         d="m 438,2273 c -9,-10 -19,-29 -23,-42 -6,-21 35,-65 384,-415 l 391,-391 0,-95 c 0,-101 3,-111 37,-129 33,-17 51,-14 78,14 24,23 25,30 25,142 l 0,117 -407,408 c -362,363 -411,408 -439,408 -17,0 -38,-8 -46,-17 z"
         id="path10" />
      <path
         inkscape:connector-curvature="0"
         d="m 872,2267 c -45,-48 -46,-47 368,-462 l 390,-390 0,-97 c 0,-89 2,-98 22,-112 31,-22 64,-20 88,4 18,18 20,33 20,147 l 0,128 -403,402 c -354,355 -406,403 -433,403 -19,0 -39,-9 -52,-23 z"
         id="path12" />
      <path
         inkscape:connector-curvature="0"
         d="m 1271,2264 c -12,-15 -21,-36 -21,-48 0,-14 126,-147 390,-411 l 390,-390 0,-97 c 0,-89 2,-98 22,-112 12,-9 32,-16 43,-16 11,0 31,7 43,16 21,14 22,22 22,147 l 0,132 -403,402 c -360,361 -406,403 -434,403 -22,0 -38,-8 -52,-26 z"
         id="path14" />
      <path
         inkscape:connector-curvature="0"
         d="m 1667,2272 c -10,-10 -17,-32 -17,-48 0,-25 54,-83 385,-414 l 385,-385 0,-93 c 0,-85 2,-95 25,-117 31,-32 59,-32 90,0 24,23 25,30 25,142 l 0,117 -407,408 c -362,363 -411,408 -439,408 -17,0 -38,-8 -47,-18 z"
         id="path16" />
      <path
         inkscape:connector-curvature="0"
         d="m 2070,2270 c -47,-47 -47,-48 365,-460 l 385,-385 0,-93 c 0,-85 2,-95 25,-117 30,-30 54,-31 89,-4 26,20 26,23 26,142 l 0,121 -407,408 c -436,436 -435,436 -483,388 z"
         id="path18" />
    </g>
    <path
       style="fill:#000000;stroke:none"
       inkscape:connector-curvature="0"
       id="path10-2"
       d="m 602.48222,370.68111 c -10.31186,2.57796 -16.26101,9.51864 -16.26101,18.44236 l 0,7.53559 -10.51016,0 c -6.34576,0 -12.09661,1.18983 -15.07119,3.17288 -8.92372,6.34576 -10.11355,13.28643 -10.11355,59.68981 l 0,43.03219 -4.36271,-8.72543 c -6.54406,-12.69152 -15.46779,-15.8644 -30.93558,-11.10507 -22.21016,6.94067 -25.18473,14.87287 -17.45083,44.22201 2.97457,10.70846 9.91525,37.28134 15.8644,58.89659 8.1305,30.53896 11.50168,40.25591 14.67456,42.43726 4.56101,2.97457 10.90677,0.79322 13.08814,-4.56101 0.59491,-1.78475 -5.55255,-29.15084 -13.68305,-60.87964 -9.12203,-35.09999 -14.27797,-58.49998 -13.08813,-59.6898 0.99153,-0.99153 4.56101,-1.98305 8.1305,-1.98305 l 6.34576,-0.39661 8.72542,24.78812 c 14.07966,40.05761 14.67457,41.44575 18.83897,42.63558 2.37966,0.79322 6.14746,0 9.12204,-1.98305 l 4.95762,-3.37119 -1.38813,-49.97286 c -0.79323,-27.56439 -0.79323,-60.48303 0,-73.17454 l 1.38813,-23.20169 7.73389,0 7.7339,0 0,57.50845 0,57.70675 4.56101,1.58645 c 2.37967,0.99153 6.14747,0.99153 8.32882,0.1983 3.7678,-1.38814 3.9661,-3.7678 4.95762,-72.57962 l 0.99153,-71.1915 8.52711,-0.59492 8.32881,-0.59491 0,65.24234 c 0,61.27625 0.1983,65.63896 3.7678,70.00166 3.17288,3.9661 4.56101,4.36271 9.32033,2.77628 l 5.75085,-1.98305 0.59491,-58.10337 0.39661,-58.10336 6.54406,0.59491 6.34577,0.59492 0.99152,62.46607 c 0.59491,34.30676 1.78475,63.6559 2.57796,64.84574 1.98305,3.17287 11.7,3.37119 14.87288,0.1983 1.78475,-1.78474 2.37966,-15.26949 2.37966,-48.58473 0,-44.81692 0.1983,-46.20506 3.9661,-46.20506 3.9661,0 3.9661,1.38814 3.9661,90.22878 0,87.65081 0.1983,90.42707 3.9661,94.19487 4.75933,4.75933 5.75085,4.75933 11.50169,0.79323 l 4.36271,-2.97458 0,-91.61691 c 0,-83.2881 -0.39661,-92.21183 -3.56949,-98.55759 -3.7678,-7.53559 -10.31186,-11.8983 -18.64067,-11.8983 -5.15593,0 -5.55254,-0.59491 -5.55254,-8.92372 0,-6.94068 -1.18982,-10.31187 -5.55254,-15.07118 -4.75932,-5.35424 -7.33728,-6.54407 -16.65762,-7.33729 -10.11355,-0.79322 -10.90678,-1.18983 -12.69151,-6.94067 -0.99153,-3.37119 -3.9661,-7.53559 -6.74238,-9.51864 -5.75085,-4.16441 -22.01185,-6.14746 -31.33219,-3.9661 z" />
  </g>
</svg>
