<?xml version="1.0" encoding="UTF-8" standalone="no"?>
<!-- Created with Inkscape (http://www.inkscape.org/) -->

<svg
   xmlns:dc="http://purl.org/dc/elements/1.1/"
   xmlns:cc="http://creativecommons.org/ns#"
   xmlns:rdf="http://www.w3.org/1999/02/22-rdf-syntax-ns#"
   xmlns:svg="http://www.w3.org/2000/svg"
   xmlns="http://www.w3.org/2000/svg"
   version="1.0"
   width="468pt"
   height="492pt"
   viewBox="0 0 468 492"
   id="svg2">
  <defs
     id="defs12" />
  <metadata
     id="metadata4">
Created by potrace 1.8, written by Peter Selinger 2001-2007
<rdf:RDF>
  <cc:Work
     rdf:about="">
    <dc:format>image/svg+xml</dc:format>
    <dc:type
       rdf:resource="http://purl.org/dc/dcmitype/StillImage" />
    <dc:title></dc:title>
  </cc:Work>
</rdf:RDF>
</metadata>
  <path
     d="m 14.173228,80.136391 442.204712,0 0,29.186439 -442.204712,0 z"
     id="rect3764"
     style="fill:#000000;fill-opacity:1;stroke-width:3.1960001;stroke-linecap:round;stroke-miterlimit:4" />
  <path
     d="m 14.173228,355.72916 442.204712,0 0,29.18644 -442.204712,0 z"
     id="rect3774"
     style="fill:#000000;fill-opacity:1;stroke-width:3.1960001;stroke-linecap:round;stroke-miterlimit:4" />
  <path
     d="m 14.173228,316.35876 442.204712,0 0,29.18645 -442.204712,0 z"
     id="rect3776"
     style="fill:#000000;fill-opacity:1;stroke-width:3.1960001;stroke-linecap:round;stroke-miterlimit:4" />
  <path
     d="m 14.173228,316.35876 442.204712,0 0,29.18645 -442.204712,0 z"
     id="rect3778"
     style="fill:#000000;fill-opacity:1;stroke-width:3.1960001;stroke-linecap:round;stroke-miterlimit:4" />
  <path
     d="m 14.173228,237.61797 442.204712,0 0,29.18644 -442.204712,0 z"
     id="rect3780"
     style="fill:#000000;fill-opacity:1;stroke-width:3.1960001;stroke-linecap:round;stroke-miterlimit:4" />
  <path
     d="m 14.173228,276.99686 442.204712,0 0,29.18644 -442.204712,0 z"
     id="rect3782"
     style="fill:#000000;fill-opacity:1;stroke-width:3.1960001;stroke-linecap:round;stroke-miterlimit:4" />
  <path
     d="m 14.173228,198.24757 442.204712,0 0,29.18645 -442.204712,0 z"
     id="rect3784"
     style="fill:#000000;fill-opacity:1;stroke-width:3.1960001;stroke-linecap:round;stroke-miterlimit:4" />
  <path
     d="m 14.173228,158.87718 442.204712,0 0,29.18644 -442.204712,0 z"
     id="rect3786"
     style="fill:#000000;fill-opacity:1;stroke-width:3.1960001;stroke-linecap:round;stroke-miterlimit:4" />
  <path
     d="m 14.173228,119.50395 442.204712,0 0,29.18644 -442.204712,0 z"
     id="rect3788"
     style="fill:#000000;fill-opacity:1;stroke-width:3.1960001;stroke-linecap:round;stroke-miterlimit:4" />
</svg>
