<?xml version="1.0" encoding="UTF-8" standalone="no"?>
<!-- Created with Inkscape (http://www.inkscape.org/) -->

<svg
   xmlns:dc="http://purl.org/dc/elements/1.1/"
   xmlns:cc="http://creativecommons.org/ns#"
   xmlns:rdf="http://www.w3.org/1999/02/22-rdf-syntax-ns#"
   xmlns:svg="http://www.w3.org/2000/svg"
   xmlns="http://www.w3.org/2000/svg"
   version="1.0"
   width="400pt"
   height="648pt"
   viewBox="0 0 400 648"
   id="svg2">
  <defs
     id="defs12" />
  <metadata
     id="metadata4">
Created by potrace 1.8, written by Peter Selinger 2001-2007
<rdf:RDF>
  <cc:Work
     rdf:about="">
    <dc:format>image/svg+xml</dc:format>
    <dc:type
       rdf:resource="http://purl.org/dc/dcmitype/StillImage" />
    <dc:title></dc:title>
  </cc:Work>
</rdf:RDF>
</metadata>
  <g
     transform="matrix(0.218182,0,0,-0.218182,54.20339,646.85424)"
     id="g6"
     style="fill:#000000;stroke:none">
    <path
       d="M 72,2940 C 53,2928 31,2902 20,2877 1,2836 0,2795 0,1485 0,175 1,134 20,93 31,68 53,42 72,30 104,11 121,10 773,10 l 668,0 42,39 42,40 0,1396 0,1396 -42,40 -42,39 -668,0 c -652,0 -669,-1 -701,-20 z m 1328,-1370 13.3481,-1415.72815 -598.85434,0 -672.92067,1.03329 C 137.82974,871.57207 141.33184,1669.8055 140,2196 l 0,634 630,0 630,0 z"
       id="path8" />
  </g>
  <path
     d="m 22.175239,35.574082 c -3.93222,2.499713 -8.27019,7.915773 -10.22594,13.123517 -3.41689,8.540697 -2.90649,17.081394 20.37233,289.967141 23.27882,272.88574 24.22558,281.42644 29.09961,289.96713 2.84425,5.20774 8.10628,10.62379 12.46498,13.12352 7.31945,3.95788 11.04632,4.16619 153.300991,4.16619 l 145.74557,0 8.47061,-8.12408 8.45284,-8.33239 -24.80705,-290.80037 -24.80705,-290.800381 -9.87446,-8.33239 -9.85667,-8.124081 -145.74557,0 c -142.254671,0 -145.946001,0.208308 -152.590191,4.166194 z m 314.090731,285.384328 28.06994,294.90994 -130.65923,0 -146.837551,-0.21524 -12.95456,-147.83634 -9.8624,-115.6119 33.934211,-0.34322 c 14.83562,-0.15005 16.55196,-3.6254 16.03341,-14.27516 -0.45643,-9.37394 0.35467,-12.91521 -14.788727,-13.95675 L 61.498809,322.62489 50.232569,190.55652 38.966329,58.488153 l 137.454661,0 137.45466,0 z"
     id="path8-1"
     style="fill:#000000;stroke:none" />
</svg>
