<?xml version="1.0" encoding="UTF-8" standalone="no"?>
<!-- Created with Inkscape (http://www.inkscape.org/) -->

<svg
   xmlns:dc="http://purl.org/dc/elements/1.1/"
   xmlns:cc="http://creativecommons.org/ns#"
   xmlns:rdf="http://www.w3.org/1999/02/22-rdf-syntax-ns#"
   xmlns:svg="http://www.w3.org/2000/svg"
   xmlns="http://www.w3.org/2000/svg"
   version="1.0"
   width="468pt"
   height="468pt"
   viewBox="0 0 468 468"
   id="svg2">
  <defs
     id="defs14" />
  <metadata
     id="metadata4">
Created by potrace 1.8, written by Peter Selinger 2001-2007
<rdf:RDF>
  <cc:Work
     rdf:about="">
    <dc:format>image/svg+xml</dc:format>
    <dc:type
       rdf:resource="http://purl.org/dc/dcmitype/StillImage" />
    <dc:title></dc:title>
  </cc:Work>
</rdf:RDF>
</metadata>
  <g
     transform="matrix(0.158108,0,0,-0.158108,0,468)"
     id="g6"
     style="fill:#000000;stroke:none">
    <path
       d="M 43,2940 C 8,2926 0,2897 0,2782 c 0,-101 2,-110 23,-130 13,-12 29,-22 35,-22 7,0 12,-7 12,-15 0,-8 -7,-15 -15,-15 -24,0 -39,-43 -26,-69 7,-11 18,-21 26,-21 22,0 18,-38 -4,-50 -11,-5 -22,-19 -26,-30 -8,-24 11,-60 30,-60 13,0 15,-68 15,-507 0,-560 -1,-550 63,-597 28,-21 35,-21 1035,-24 669,-2 1019,0 1042,7 20,6 49,24 65,41 l 30,31 3,525 c 2,511 3,524 22,524 20,0 40,27 40,55 0,9 -13,24 -30,33 -33,19 -41,52 -12,52 24,0 42,19 42,45 0,26 -18,45 -42,45 -10,0 -18,7 -18,15 0,8 7,15 15,15 9,0 27,11 40,25 23,22 25,31 25,122 0,54 -3,108 -6,121 -15,54 29,52 -1191,51 -625,0 -1138,-4 -1150,-9 z m 1087,-330 c 0,-7 -160,-10 -460,-10 -300,0 -460,3 -460,10 0,7 160,10 460,10 300,0 460,-3 460,-10 z m 1050,0 c 0,-7 -160,-10 -460,-10 -300,0 -460,3 -460,10 0,7 160,10 460,10 300,0 460,-3 460,-10 z M 1130,2490 c 0,-20 -7,-20 -460,-20 -453,0 -460,0 -460,20 0,20 7,20 460,20 453,0 460,0 460,-20 z m 1050,0 c 0,-20 -7,-20 -460,-20 -453,0 -460,0 -460,20 0,20 7,20 460,20 453,0 460,0 460,-20 z M 1130,2225 c 0,-104 -3,-145 -12,-145 -6,0 -20,-7 -30,-17 -35,-31 -15,-113 28,-113 12,0 14,-45 14,-285 l 0,-285 -460,0 -460,0 0,495 0,495 460,0 460,0 0,-145 z m 1050,-350 0,-495 -460,0 -460,0 0,285 c 0,240 2,285 14,285 24,0 46,30 46,62 0,33 -24,68 -47,68 -10,0 -13,30 -13,145 l 0,145 460,0 460,0 0,-495 z"
       id="path8" />
    <path
       d="m 1936,1029 c -24,-19 -26,-26 -26,-104 l 0,-83 -62,-4 c -52,-4 -65,-9 -85,-33 -14,-15 -23,-36 -20,-45 7,-28 546,-729 574,-747 18,-12 31,-14 50,-7 36,13 583,730 583,765 0,39 -32,62 -95,67 l -55,4 0,69 c 0,79 -12,112 -47,128 -16,7 -148,11 -407,11 -373,0 -384,-1 -410,-21 z m 724,-149 0,-40 -310,0 -310,0 0,40 0,40 310,0 310,0 0,-40 z m 73,-192 c -5,-7 -94,-124 -198,-260 -186,-246 -188,-247 -205,-225 -9,12 -98,129 -198,260 l -181,237 396,0 c 315,0 393,-3 386,-12 z"
       id="path10" />
  </g>
  <path
     d="m 204.65786,302.90393 c -3.49017,2.69695 -86.77827,112.00266 -88.99928,116.60334 -1.26915,3.01423 -1.11051,4.60067 1.58644,8.09084 2.69695,3.64881 4.44203,4.28339 13.00881,4.75932 l 9.67728,0.47593 0,13.3261 c 0,15.22982 2.06237,18.87864 11.42237,20.62372 2.85559,0.47593 31.57015,0.79322 63.61624,0.47593 l 58.53964,-0.47593 3.80745,-4.44203 c 3.33153,-3.9661 3.80747,-6.02847 3.80747,-17.13355 l 0,-12.53288 9.20134,0 c 7.61491,0 9.83594,-0.63458 12.69152,-3.64881 1.90374,-2.06237 3.49018,-5.23525 3.49018,-6.98034 0,-3.01423 -75.6732,-104.38775 -86.93692,-116.76198 -4.44203,-4.60068 -10.62915,-5.55254 -14.91254,-2.37966 z m 38.5505,68.37556 29.34913,38.39185 -30.61829,0.47593 c -16.81626,0.15865 -44.57896,0.15865 -61.71251,0 l -30.93558,-0.47593 30.61829,-39.97829 c 20.62372,-27.12812 31.09422,-39.50235 32.20473,-38.39185 0.79323,0.79322 14.91255,18.87864 31.09423,39.97829 z m 15.70576,67.74099 0,6.34576 -49.17964,0 -49.17965,0 0,-6.34576 0,-6.34576 49.17965,0 49.17964,0 0,6.34576 z"
     id="path10-1"
     style="fill:#000000;stroke:none" />
</svg>
