<?xml version="1.0" encoding="UTF-8" standalone="no"?>
<!-- Created with Inkscape (http://www.inkscape.org/) -->

<svg
   xmlns:dc="http://purl.org/dc/elements/1.1/"
   xmlns:cc="http://creativecommons.org/ns#"
   xmlns:rdf="http://www.w3.org/1999/02/22-rdf-syntax-ns#"
   xmlns:svg="http://www.w3.org/2000/svg"
   xmlns="http://www.w3.org/2000/svg"
   xmlns:sodipodi="http://sodipodi.sourceforge.net/DTD/sodipodi-0.dtd"
   xmlns:inkscape="http://www.inkscape.org/namespaces/inkscape"
   width="204.81718mm"
   height="144.39618mm"
   viewBox="0 0 725.73018 511.64"
   id="svg2"
   version="1.1"
   inkscape:version="0.91 r13725"
   sodipodi:docname="fts_sunblind_down.svg">
  <defs
     id="defs4" />
  <sodipodi:namedview
     id="base"
     pagecolor="#ffffff"
     bordercolor="#666666"
     borderopacity="1.0"
     inkscape:pageopacity="0.0"
     inkscape:pageshadow="2"
     inkscape:zoom="0.35"
     inkscape:cx="353.61735"
     inkscape:cy="-51.142515"
     inkscape:document-units="px"
     inkscape:current-layer="layer1"
     showgrid="false"
     fit-margin-top="1"
     fit-margin-left="1"
     fit-margin-right="1"
     fit-margin-bottom="1"
     showborder="false" />
  <metadata
     id="metadata7">
    <rdf:RDF>
      <cc:Work
         rdf:about="">
        <dc:format>image/svg+xml</dc:format>
        <dc:type
           rdf:resource="http://purl.org/dc/dcmitype/StillImage" />
        <dc:title></dc:title>
      </cc:Work>
    </rdf:RDF>
  </metadata>
  <g
     inkscape:label="Ebene 1"
     inkscape:groupmode="layer"
     id="layer1"
     transform="translate(-21.209488,30.337907)">
    <g
       style="fill:#000000;stroke:none"
       transform="matrix(0.197635,0,0,-0.197635,24.533318,479.73513)"
       id="g6">
      <path
         inkscape:connector-curvature="0"
         d="m 22,2267 c -43,-46 -35,-58 174,-268 l 196,-197 -123,-3 C 122,1794 88,1781 52,1710 L 30,1665 32,890 C 35,136 36,114 55,81 66,63 91,39 110,29 143,11 193,10 1346,10 l 1201,0 34,23 c 71,47 69,31 69,625 l 0,532 -70,0 -70,0 0,-525 0,-525 -550,0 -550,0 0,400 c 0,382 1,400 18,400 20,0 45,24 55,53 10,28 -11,68 -43,80 -28,11 -30,15 -30,64 l 0,53 -65,0 -65,0 0,-55 c 0,-50 -2,-55 -25,-61 -32,-8 -46,-26 -47,-63 -1,-35 26,-71 54,-71 17,0 18,-18 18,-400 l 0,-400 -555,0 -555,0 0,760 0,760 183,0 182,0 117,-117 117,-118 3,-98 c 3,-90 5,-101 27,-118 30,-25 66,-24 91,1 18,18 20,33 20,147 l 0,127 -403,403 c -353,353 -407,403 -433,403 -19,0 -39,-9 -52,-23 z"
         id="path8" />
      <path
         inkscape:connector-curvature="0"
         d="m 438,2273 c -9,-10 -19,-29 -23,-42 -6,-21 35,-65 384,-415 l 391,-391 0,-95 c 0,-101 3,-111 37,-129 33,-17 51,-14 78,14 24,23 25,30 25,142 l 0,117 -407,408 c -362,363 -411,408 -439,408 -17,0 -38,-8 -46,-17 z"
         id="path10" />
      <path
         inkscape:connector-curvature="0"
         d="m 872,2267 c -45,-48 -46,-47 368,-462 l 390,-390 0,-97 c 0,-89 2,-98 22,-112 31,-22 64,-20 88,4 18,18 20,33 20,147 l 0,128 -403,402 c -354,355 -406,403 -433,403 -19,0 -39,-9 -52,-23 z"
         id="path12" />
      <path
         inkscape:connector-curvature="0"
         d="m 1271,2264 c -12,-15 -21,-36 -21,-48 0,-14 126,-147 390,-411 l 390,-390 0,-97 c 0,-89 2,-98 22,-112 12,-9 32,-16 43,-16 11,0 31,7 43,16 21,14 22,22 22,147 l 0,132 -403,402 c -360,361 -406,403 -434,403 -22,0 -38,-8 -52,-26 z"
         id="path14" />
      <path
         inkscape:connector-curvature="0"
         d="m 1667,2272 c -10,-10 -17,-32 -17,-48 0,-25 54,-83 385,-414 l 385,-385 0,-93 c 0,-85 2,-95 25,-117 31,-32 59,-32 90,0 24,23 25,30 25,142 l 0,117 -407,408 c -362,363 -411,408 -439,408 -17,0 -38,-8 -47,-18 z"
         id="path16" />
      <path
         inkscape:connector-curvature="0"
         d="m 2070,2270 c -47,-47 -47,-48 365,-460 l 385,-385 0,-93 c 0,-85 2,-95 25,-117 30,-30 54,-31 89,-4 26,20 26,23 26,142 l 0,121 -407,408 c -436,436 -435,436 -483,388 z"
         id="path18" />
    </g>
    <path
       style="fill:#000000;stroke:none"
       inkscape:connector-curvature="0"
       id="path10-4"
       d="m 542.99448,-22.64426 c -4.74324,3.75506 -5.13851,5.13851 -5.13851,20.5540304 l 0,16.4036996 -12.25338,0.79055 c -10.27701,0.79054 -12.84627,1.77872 -16.79897,6.52195 -2.76689,2.96453 -4.5456,7.11487 -3.9527,8.89358 1.38345,5.53377 107.90871,144.07591 113.4425,147.63335 3.55742,2.37161 6.12667,2.76689 9.88175,1.38344 7.11485,-2.56925 115.2212,-144.27355 115.2212,-151.19078 0,-7.70776 -6.32433,-12.25336 -18.77533,-13.24154 l -10.86992,-0.79055 0,-13.63680957 c 0,-15.61316043 -2.37163,-22.13511043 -9.28885,-25.29727043 -3.16215,-1.38345 -29.24998,-2.17399 -80.43744,-2.17399 -73.71786,0 -75.89184,0.19764 -81.03035,4.15034 z m 143.08774,29.4476104 0,7.9053996 -61.26685,0 -61.26685,0 0,-7.9053996 0,-7.9054 61.26685,0 61.26685,0 0,7.9054 z M 700.50957,44.74927 c -0.98818,1.38344 -18.57769,24.50674 -39.13173,51.38511 -36.76011,48.6182 -37.15537,48.81583 -40.51517,44.46787 -1.77871,-2.37162 -19.36823,-25.49492 -39.13173,-51.3851 l -35.77193,-46.8395 78.26346,0 c 62.25502,0 77.67055,0.5929 76.2871,2.37162 z" />
  </g>
</svg>
