<?xml version="1.0" encoding="UTF-8" standalone="no"?>
<svg
   xmlns:dc="http://purl.org/dc/elements/1.1/"
   xmlns:cc="http://creativecommons.org/ns#"
   xmlns:rdf="http://www.w3.org/1999/02/22-rdf-syntax-ns#"
   xmlns:svg="http://www.w3.org/2000/svg"
   xmlns="http://www.w3.org/2000/svg"
   xmlns:sodipodi="http://sodipodi.sourceforge.net/DTD/sodipodi-0.dtd"
   xmlns:inkscape="http://www.inkscape.org/namespaces/inkscape"
   enable-background="new -0.258 -0.548 123.547 123.539"
   viewBox="-0.258 -0.548 123.547 123.539"
   xml:space="preserve"
   version="1.1"
   id="svg10"
   sodipodi:docname="fuel.svg"
   inkscape:version="0.92.4 (5da689c313, 2019-01-14)"><metadata
   id="metadata16"><rdf:RDF><cc:Work
       rdf:about=""><dc:format>image/svg+xml</dc:format><dc:type
         rdf:resource="http://purl.org/dc/dcmitype/StillImage" /><dc:title></dc:title></cc:Work></rdf:RDF></metadata><defs
   id="defs14" /><sodipodi:namedview
   pagecolor="#ffffff"
   bordercolor="#666666"
   borderopacity="1"
   objecttolerance="10"
   gridtolerance="10"
   guidetolerance="10"
   inkscape:pageopacity="0"
   inkscape:pageshadow="2"
   inkscape:window-width="3714"
   inkscape:window-height="2115"
   id="namedview12"
   showgrid="true"
   inkscape:zoom="10.806446"
   inkscape:cx="36.339128"
   inkscape:cy="79.285019"
   inkscape:window-x="113"
   inkscape:window-y="-13"
   inkscape:window-maximized="1"
   inkscape:current-layer="g8"
   showguides="false"><inkscape:grid
     type="xygrid"
     id="grid8" /></sodipodi:namedview>
	<g
   id="g8"
   transform="translate(1.5068856e-6,3.1408253)"
   style="fill:#000000">
		
		
		<path
   d="m 58.741998,34.850176 c 0,1.480396 -1.515183,2.632503 -3.444034,2.632503 H 19.259049 c -1.941679,0 -3.444036,-1.152107 -3.444036,-2.632503 V 11.369493 c 0,-1.4803958 1.503959,-2.6325028 3.444036,-2.6325028 h 36.038915 c 1.928851,0 3.444034,1.152107 3.444034,2.6325028 z m 42.013062,2.999197 c -4.559975,-0.774268 -6.213048,-2.58419 -6.213048,-4.24917 v -6.067765 c 0,0 3.031971,0.522784 3.758297,0.667728 1.478305,0.299796 2.417871,2.051494 2.454751,3.581441 0.0496,1.528711 0,6.067766 0,6.067766 z m 9.1809,36.864945 c 0,-0.05823 -1.26507,-7.45277 -1.26507,-7.45277 V 33.11706 c 0,-3.658249 -1.55366,-6.630189 -4.76039,-9.126421 L 83.443495,8.2538485 c -1.415775,0 -5.323183,3.0103435 -5.323183,3.0103435 0,1.093882 10.158942,8.884852 10.158942,8.884852 l -0.301433,13.249232 c 0,4.703815 4.947995,8.516919 11.060036,8.516919 l 2.743363,0.02849 -0.97645,25.319101 1.36608,8.681683 6.15052,25.618891 c 0.22607,4.1612 -4.69788,6.63885 -8.581238,6.63885 -3.59475,0 -7.766717,-2.29429 -7.766717,-5.2551 l 0.07535,-44.897463 c 0,-5.458264 -5.736851,-9.890777 -12.801293,-9.890777 H 66.896731 c 0.864217,-0.0384 0.901094,-29.402267 0.901094,-35.636033 v -1.152104 c 0,-5.3133198 -5.61179,-9.6392958 -12.501465,-9.6392958 H 19.259049 c -6.889675,0 -12.5014648,4.325976 -12.5014648,9.6392958 V 113.1377 l 61.0402408,0.78417 0.06254,-59.453666 h 11.525013 c 2.64235,0 4.797278,1.664981 4.797278,3.706565 v 44.772361 c 0,6.01077 7.264864,11.27578 15.557485,11.27578 7.829239,0 16.598059,-4.81035 16.598059,-11.27578 -0.13789,-1.49155 -6.40224,-28.232812 -6.40224,-28.232812 z"
   id="path6"
   inkscape:connector-curvature="0"
   style="fill:#000000;stroke-width:1.40935898" /> 
	</g>
</svg>