<?xml version="1.0" encoding="UTF-8" standalone="no"?>
<!-- Created with Inkscape (http://www.inkscape.org/) -->

<svg
   xmlns:dc="http://purl.org/dc/elements/1.1/"
   xmlns:cc="http://creativecommons.org/ns#"
   xmlns:rdf="http://www.w3.org/1999/02/22-rdf-syntax-ns#"
   xmlns:svg="http://www.w3.org/2000/svg"
   xmlns="http://www.w3.org/2000/svg"
   xmlns:sodipodi="http://sodipodi.sourceforge.net/DTD/sodipodi-0.dtd"
   xmlns:inkscape="http://www.inkscape.org/namespaces/inkscape"
   width="51.885674mm"
   height="62.383514mm"
   viewBox="0 0 183.84687 221.04395"
   id="svg2"
   version="1.1"
   inkscape:version="0.91 r13725"
   sodipodi:docname="mfh_Gartenabfall.svg">
  <defs
     id="defs4" />
  <sodipodi:namedview
     id="base"
     pagecolor="#ffffff"
     bordercolor="#666666"
     borderopacity="1.0"
     inkscape:pageopacity="0.0"
     inkscape:pageshadow="2"
     inkscape:zoom="1.979899"
     inkscape:cx="87.239787"
     inkscape:cy="83.115409"
     inkscape:document-units="px"
     inkscape:current-layer="layer1"
     showgrid="false"
     fit-margin-top="0"
     fit-margin-left="0"
     fit-margin-right="0"
     fit-margin-bottom="0"
     inkscape:window-width="1440"
     inkscape:window-height="848"
     inkscape:window-x="-8"
     inkscape:window-y="-8"
     inkscape:window-maximized="1" />
  <metadata
     id="metadata7">
    <rdf:RDF>
      <cc:Work
         rdf:about="">
        <dc:format>image/svg+xml</dc:format>
        <dc:type
           rdf:resource="http://purl.org/dc/dcmitype/StillImage" />
        <dc:title></dc:title>
      </cc:Work>
    </rdf:RDF>
  </metadata>
  <g
     inkscape:label="Ebene 1"
     inkscape:groupmode="layer"
     id="layer1"
     transform="translate(-40.545416,-394.43367)">
    <path
       style="fill:#000000"
       d="m 124.68588,612.92284 c -5.12277,-1.27719 -10.74777,-2.99232 -12.5,-3.81138 -1.75224,-0.81907 -6.29258,-2.9469 -10.08965,-4.72853 -3.797066,-1.78163 -9.084566,-5.34134 -11.749996,-7.91047 l -4.84623,-4.67114 0,-24.10205 c 0,-13.25613 -0.27315,-24.81386 -0.60699,-25.68384 -0.33384,-0.86999 -1.44729,-1.58179 -2.47432,-1.58179 -1.0634,0 -2.53523,-1.29157 -3.41869,-3 -1.85371,-3.58467 -2.19283,-3.6372 -5.20616,-0.80632 -2.11192,1.98405 -2.48359,2.04514 -3.88945,0.63928 -2.61775,-2.61775 -3.47047,-9.06167 -2.45376,-18.54273 1.38266,-12.89359 4.80728,-34.52329 5.93617,-37.49249 0.88272,-2.32173 0.77334,-2.52163 -1.11032,-2.02904 -1.88092,0.49187 -2.02619,0.22987 -1.4553,-2.62459 0.59618,-2.98093 0.48623,-3.13388 -1.83417,-2.55149 -3.61274,0.90674 -4.36474,-2.01165 -1.36352,-5.29166 l 2.37651,-2.59727 -2.25,0.55454 c -1.50945,0.37202 -2.25,0.10298 -2.25,-0.81741 0,-0.89122 -1.75196,-1.60434 -5,-2.03521 -2.75,-0.3648 -5,-0.91379 -5,-1.21999 0,-0.30619 0.85996,-1.48572 1.91103,-2.62117 2.06698,-2.23292 2.81089,-6.08933 1.67702,-8.69366 -0.45549,-1.0462 -2.53284,-1.87111 -5.80507,-2.30519 -5.98711,-0.79422 -10.31541,-2.82341 -11.75334,-5.51021 -1.32286,-2.47179 -1.31139,-4.05539 0.0294,-4.05539 0.58246,0 0.73793,0.51953 0.34549,1.15451 -0.39384,0.63724 -0.27865,0.88574 0.25711,0.55462 0.53384,-0.32993 2.74087,0.0308 4.9045,0.8016 5.52633,1.96881 14.43388,1.96219 14.43388,-0.0107 0,-0.825 -0.62633,-1.5 -1.39185,-1.5 -0.76551,0 -3.65809,-2.03755 -6.42794,-4.52788 -4.84425,-4.35541 -7.70631,-9.59922 -8.39387,-15.37917 -0.41137,-3.45812 1.83566,-3.71301 3.58564,-0.40673 1.53835,2.90644 7.74285,8.31378 9.53941,8.31378 0.56003,0 1.48316,0.86871 2.05139,1.93046 0.56823,1.06175 2.28863,2.82443 3.8231,3.91707 2.21097,1.57436 3.50841,1.81755 6.25203,1.17191 3.04466,-0.71649 3.14118,-0.82706 0.80057,-0.91708 -2.53819,-0.0976 -3.30561,-1.96857 -1.53409,-3.74008 0.38259,-0.38259 0.69561,-2.12061 0.69561,-3.86228 0,-1.74167 0.269,-3.43566 0.59777,-3.76443 1.24514,-1.24515 3.40223,0.57539 3.40223,2.87142 0,1.81315 0.54521,2.3945 2.25,2.39917 1.2375,0.003 3.45708,0.63592 4.9324,1.40563 2.05971,1.07459 2.56889,1.10367 2.19344,0.12526 -0.57307,-1.4934 2.55665,-2.50394 7.81514,-2.5234 3.83014,-0.0142 5.70518,-1.34176 3.67082,-2.59906 -0.73122,-0.45192 -0.90292,-0.29014 -0.45729,0.4309 1.00836,1.63156 -0.92253,1.44018 -2.30759,-0.22871 -0.88385,-1.06498 -0.80435,-1.51507 0.34553,-1.95632 0.82143,-0.31521 1.75947,-0.14277 2.08454,0.38321 1.1294,1.82741 2.29924,0.92514 5.969236,-4.60395 l 3.6907,-5.56028 5.54766,0.69314 c 4.39068,0.54858 5.38209,0.42523 4.75376,-0.59143 -0.49174,-0.79565 -0.0921,-1.79772 1.05,-2.63285 1.64929,-1.20599 1.66541,-1.3483 0.15278,-1.3483 -1.15868,0 -1.69113,-0.82648 -1.69113,-2.625 0,-2.45147 0.21485,-2.57453 3.25,-1.86158 1.7875,0.41988 7.11962,0.85762 11.84915,0.97275 4.72954,0.11514 9.08042,0.50678 9.66863,0.87031 0.63228,0.39077 1.34629,-0.59935 1.74662,-2.42203 0.77243,-3.51688 5.99798,-9.93445 8.08919,-9.93445 0.99714,0 1.39641,1.34385 1.39641,4.7 0,3.65556 0.26667,4.43333 1.2,3.5 1.67627,-1.67627 6.30768,-1.49813 7.8,0.3 0.68469,0.825 1.79727,1.5 2.47241,1.5 2.37809,0 9.4927,6.01282 10.13294,8.56372 0.35704,1.42255 1.71387,2.98735 3.02136,3.48446 2.54635,0.96811 2.98924,2.93239 1.35126,5.99298 -0.85519,1.59793 -0.62234,2.00999 1.42641,2.5242 1.34663,0.33798 3.22629,1.47404 4.17701,2.52458 0.95072,1.05053 2.28136,1.91006 2.95697,1.91006 0.67561,0 1.51326,1.0125 1.86144,2.25 0.60389,2.14629 0.69771,2.16564 2.03551,0.41982 0.83119,-1.0847 2.34377,-1.69569 3.71344,-1.5 3.19542,0.45654 4.56513,4.70363 3.18477,9.87513 -0.58738,2.20063 -0.71836,4.2172 -0.29108,4.48128 0.42729,0.26408 2.77571,-0.37665 5.21871,-1.42385 5.15684,-2.21048 7.55681,-1.49927 5.82983,1.72762 -0.61353,1.14639 -1.89749,2.52197 -2.85324,3.05685 -1.53534,0.85924 -1.41744,1.09429 1.01226,2.01808 3.60804,1.3718 3.79054,4.52714 0.22239,3.84504 -2.47504,-0.47313 -2.49403,-0.43194 -0.9131,1.98087 1.12244,1.71305 1.51183,4.11105 1.27761,7.86797 -0.18529,2.97215 0.006,5.4033 0.42552,5.40255 1.24439,-0.002 7.73758,10.73988 7.73758,12.80078 0,2.48943 8.36576,32.14425 9.85086,34.91919 1.84173,3.44131 1.37807,4.70058 -2.49968,6.78888 -3.5499,1.91175 -3.67868,1.91445 -4.75,0.0998 -0.60565,-1.02591 -3.39721,-4.84534 -6.20347,-8.48762 -6.12457,-7.94918 -7.9749,-11.39765 -9.84731,-18.35249 l -1.41878,-5.2699 -0.14355,9.5 c -0.0789,5.225 -0.0755,20.75 0.008,34.5 0.13769,22.78154 0.32207,25.27669 2.07773,28.11803 2.48537,4.0223 2.4322,5.0465 -0.56918,10.96249 -1.81327,3.57411 -2.49696,6.51902 -2.5,10.76835 -0.009,12.20272 -6.35325,18.72889 -23.43799,24.10907 -6.18671,1.94813 -12.41829,3.54206 -13.8484,3.54206 -1.43011,0 -2.87831,0.45 -3.21823,1 -1.2158,1.9672 -22.32202,0.98042 -32.31412,-1.5108 z m 22.08315,-0.14514 c -0.67703,-0.27392 -2.02703,-0.29059 -3,-0.0371 -0.97297,0.25354 -0.41903,0.47766 1.23097,0.49804 1.65,0.0204 2.44606,-0.18706 1.76903,-0.46099 z M 141,609.43364 c 0.36058,-0.58342 -0.65628,-1 -2.44098,-1 -1.68246,0 -3.05902,0.45 -3.05902,1 0,0.55 1.09844,1 2.44098,1 1.34254,0 2.7191,-0.45 3.05902,-1 z m 13,0.0574 4,-0.82737 -4.5,-0.0997 c -2.475,-0.0548 -5.175,0.33653 -6,0.86969 -1.23901,0.80071 -1.15202,0.96201 0.5,0.92706 1.1,-0.0233 3.8,-0.41464 6,-0.86969 z m 13.61617,-2.33785 c -0.42743,-0.42927 -1.86592,-0.35031 -3.19665,0.17545 -2.27119,0.89734 -2.22354,0.94519 0.77713,0.78049 1.75816,-0.0965 2.84695,-0.52668 2.41952,-0.95594 z m -51.5739,-2.49306 c -0.64239,-0.68637 -3.46874,1.08349 -2.98366,1.86837 0.30091,0.48689 1.15294,0.32724 1.89339,-0.35479 0.74046,-0.68202 1.23108,-1.36313 1.09027,-1.51358 z m 45.15894,0.22791 c 3.18933,-0.85009 6.93923,-1.70504 8.3331,-1.89988 1.39387,-0.19484 6.0193,-1.81713 10.27873,-3.60508 7.859,-3.29892 13.6714,-8.27649 13.70227,-11.73421 0.0128,-1.42868 0.16857,-1.47295 0.93274,-0.26501 0.61043,0.96491 0.78945,-0.039 0.53497,-3 -0.21036,-2.4476 -0.40509,-4.89385 -0.43274,-5.43611 -0.0277,-0.54225 -1.00939,0.36413 -2.18163,2.01418 -2.07317,2.91822 -10.96244,9.94127 -15.73579,12.43221 -8.31222,4.33769 -29.65307,10.30737 -40.40093,11.30137 -9.24631,0.85513 -5.91742,1.73816 6.55261,1.73816 8.2136,0 14.64195,-0.5395 18.41667,-1.54563 z M 180.5,603.99266 c 0,-1.05548 -1.91911,-1.49891 -2.48992,-0.57533 -0.34546,0.55897 0.0734,1.01631 0.9309,1.01631 0.85746,0 1.55902,-0.19844 1.55902,-0.44098 z m 3.4838,-1.50799 c 0.40379,-1.27222 1.20847,-1.76032 2.31739,-1.40567 1.44714,0.46282 1.47659,0.38395 0.19881,-0.53237 -1.11587,-0.80021 -1.78141,-0.7003 -2.59888,0.39012 -0.60438,0.80619 -1.31688,1.2478 -1.58333,0.98135 -0.26645,-0.26645 -0.48446,0.19054 -0.48446,1.01554 0,2.14839 1.42021,1.85188 2.15047,-0.44897 z m -52.66591,-0.69238 c 4.22516,-0.25491 9.03211,-0.59695 10.68211,-0.7601 1.65,-0.16315 4.1025,-0.36456 5.45,-0.44759 1.84441,-0.11365 2.16614,-0.43482 1.30159,-1.29937 -0.86455,-0.86455 -2.58244,-0.84533 -6.95,0.0778 -5.69385,1.2034 -30.02078,1.68481 -31.09033,0.61525 -0.29953,-0.29952 4.59291,-0.5717 10.87207,-0.60484 11.48789,-0.0606 21.00009,-0.68983 21.7489,-1.43865 0.22207,-0.22207 -0.86314,-0.72174 -2.41158,-1.11037 -1.5787,-0.39623 -2.95556,-0.28601 -3.13453,0.25092 -0.18529,0.55585 -5.66068,0.88293 -13.05265,0.7797 -7.00341,-0.0978 -13.26585,0.2475 -13.91655,0.76732 -0.76851,0.61395 -1.99495,0.43776 -3.5,-0.5028 -1.2743,-0.79641 -3.55442,-1.73509 -5.06692,-2.086 -2.322446,-0.53883 -2.749996,-0.31494 -2.749996,1.44004 0,1.15298 0.45243,1.79845 1.016306,1.44996 0.55897,-0.34546 0.71444,-1.11655 0.34549,-1.71353 -0.39096,-0.6326 -0.2074,-0.799 0.44002,-0.39887 0.61096,0.37759 0.82123,1.45962 0.46727,2.40451 -0.58009,1.54857 -0.45253,1.57331 1.29368,0.25094 1.06548,-0.80687 1.62116,-1.0908 1.23485,-0.63095 -0.38631,0.45984 -0.0363,1.50219 0.77788,2.31633 1.1319,1.13191 1.80575,1.21013 2.86335,0.3324 0.88856,-0.73744 1.60238,-0.79305 1.99639,-0.15553 0.33731,0.54578 2.43626,0.89043 4.66433,0.76588 2.22806,-0.12455 4.28001,0.14406 4.55988,0.5969 0.27988,0.45285 1.40155,0.54003 2.4926,0.19374 1.09106,-0.34629 5.44069,-0.83818 9.66584,-1.09309 z m 23.59458,-2.96343 c 2.10974,-0.80959 1.01317,-2.37843 -1.72149,-2.4629 L 151,596.29826 l 2.27112,-1.09456 c 1.82449,-0.87931 2.5128,-0.76836 3.5,0.56414 1.14288,1.54262 1.59562,1.53648 6.46905,-0.0878 2.88209,-0.96055 5.24459,-2.11428 5.25,-2.56385 0.005,-0.44956 -0.90147,-0.52815 -2.01529,-0.17464 -1.13671,0.36078 -1.90443,0.21486 -1.75,-0.33261 0.15132,-0.53645 0.0501,-1.068 -0.22488,-1.18122 -0.87158,-0.35885 -9.36678,1.99742 -12.85521,3.56557 -1.86425,0.83804 -4.3083,1.21578 -5.5,0.85006 -3.23742,-0.99355 -0.98494,0.91157 2.67698,2.26415 3.91105,1.4446 4.13628,1.47127 6.0907,0.7213 z M 161,594.43364 c 0.33992,-0.55 1.06803,-1 1.61803,-1 0.55,0 0.72189,0.45 0.38197,1 -0.33992,0.55 -1.06803,1 -1.61803,1 -0.55,0 -0.72189,-0.45 -0.38197,-1 z m 31,2 c 0.33992,-0.55 0.14148,-1 -0.44098,-1 -0.58246,0 -1.05902,0.45 -1.05902,1 0,0.55 0.19844,1 0.44098,1 0.24254,0 0.7191,-0.45 1.05902,-1 z m -93.999996,-1 c 0.33992,-0.55 -0.11008,-1 -1,-1 -0.88992,0 -1.33992,0.45 -1,1 0.33992,0.55 0.78992,1 1,1 0.21008,0 0.66008,-0.45 1,-1 z m 41.177636,-1.07718 c 9.73524,-1.3406 18.49208,-3.72558 28.82656,-7.85108 13.69857,-5.46843 19.72526,-9.8559 25.2896,-18.41099 l 2.7062,-4.16075 0,-26.16641 c 0,-14.39153 -0.31383,-26.48036 -0.6974,-26.86407 -0.38357,-0.38371 -2.18357,0.19818 -4,1.2931 -11.23159,6.77021 -39.46969,14.17656 -67.3026,17.65228 -17.31581,2.16236 -27.402996,3.00272 -32.235126,2.68551 l -4.23513,-0.27803 0.29666,26.62256 c 0.28523,25.59786 0.37834,26.70425 2.41914,28.74504 6.46645,6.46646 28.675376,9.52231 48.932096,6.73284 z m -45.677636,-0.92282 c 0,-0.55 -0.47656,-1 -1.05902,-1 -0.58246,0 -0.7809,0.45 -0.44098,1 0.33992,0.55 0.81648,1 1.05902,1 0.24254,0 0.44098,-0.45 0.44098,-1 z m 80.850776,-2.09783 c 1.80466,-0.6291 3.15576,-1.80322 3.16453,-2.75 0.01,-1.05766 0.27968,-1.24836 0.75,-0.52995 0.48771,0.74498 1.66012,0.17713 3.4876,-1.68918 3.53764,-3.6128 2.00431,-4.59681 -2.45133,-1.57314 -1.88953,1.28228 -4.66128,2.63906 -6.15945,3.01507 -1.49816,0.37602 -2.4799,1.0785 -2.18165,1.56109 0.29825,0.48258 -0.35834,0.6419 -1.4591,0.35405 -2.16016,-0.56489 -2.8135,1.21553 -0.75138,2.04761 1.90478,0.7686 2.216,0.74439 5.60078,-0.43555 z m 15.19512,-11.15217 c 1.1681,-1.2375 2.82577,-3.6 3.68371,-5.25 1.40293,-2.69813 1.09795,-2.55394 -3.03085,1.43289 -2.5249,2.43808 -4.36348,4.80058 -4.08573,5.25 0.73921,1.19606 1.08929,1.04993 3.43287,-1.43289 z m 8.29918,-6.29313 c -0.32569,-0.84872 -0.80663,-1.32866 -1.06875,-1.06653 -0.26213,0.26213 -0.17998,0.95654 0.18255,1.54313 0.98605,1.59546 1.56238,1.28551 0.8862,-0.4766 z M 72.500004,526.37462 c 0,-3.72532 -0.36906,-4.94098 -1.5,-4.94098 -1.07812,0 -1.5,1.10202 -1.5,3.91821 0,2.15502 0.27215,4.62743 0.60478,5.49426 1.11524,2.90626 2.39522,0.51674 2.39522,-4.47149 z m 10.32987,3.47626 c -0.72072,-1.87817 -0.99919,-1.78977 -1.60005,0.50794 -0.3437,1.31432 -0.0834,1.76401 0.82022,1.41724 0.72802,-0.27936 1.07894,-1.1457 0.77983,-1.92518 z m -4.82526,-0.43176 c 0.35166,-1.10799 1.05698,-1.75643 1.56739,-1.44098 0.5104,0.31544 0.928,-0.0905 0.928,-0.90215 0,-0.81163 0.43674,-1.62568 0.97053,-1.80902 1.69207,-0.58114 1.67338,-5.22111 -0.0225,-5.57752 -1.12273,-0.23597 -1.94327,1.1355 -2.96697,4.95901 -0.96073,3.58834 -1.52606,4.57936 -1.76086,3.08676 -0.1902,-1.20912 0.12463,-3.07745 0.69963,-4.15184 0.89757,-1.67713 0.76501,-1.88009 -0.93721,-1.43495 -1.37307,0.35906 -1.98265,0.0214 -1.98265,-1.09816 0,-0.88915 -0.46583,-1.61663 -1.03518,-1.61663 -0.71358,0 -0.71358,0.60093 0,1.93426 0.56935,1.06384 1.03518,3.06228 1.03518,4.44098 0,1.3787 0.45734,2.78938 1.01631,3.13484 0.55897,0.34546 0.75742,1.04702 0.44098,1.55902 -0.31643,0.51199 -0.12909,0.9309 0.41631,0.9309 0.54539,0 1.27935,-0.90653 1.63101,-2.01452 z m 18.61225,0.10791 c -2.24946,-1.42466 3.00053,-2.10134 18.302236,-2.35901 7.6555,-0.12891 12.6055,-0.48393 11,-0.78894 -2.63429,-0.50045 -2.45793,-0.62804 1.80759,-1.30777 2.59968,-0.41428 4.99328,-1.18457 5.3191,-1.71176 0.32582,-0.52719 0.95899,-0.73197 1.40704,-0.45506 0.44805,0.27691 2.82421,-0.10132 5.28036,-0.84051 3.80156,-1.14411 4.87306,-1.13056 7.20467,0.0911 1.50643,0.7893 2.99917,1.17487 3.31721,0.85683 0.31805,-0.31805 0.0533,-0.57827 -0.5884,-0.57827 -0.64167,0 -1.16667,-0.483 -1.16667,-1.07332 0,-0.59033 0.7875,-0.89545 1.75,-0.67804 0.9625,0.21742 3.325,-0.36328 5.25,-1.29043 1.925,-0.92715 4.95021,-1.71659 6.72268,-1.75431 3.50595,-0.0746 8.85577,-2.24867 8.49921,-3.4539 -0.2724,-0.92073 -0.29795,-0.92138 -5.22373,-0.13371 -2.19899,0.35163 -3.99816,1.02677 -3.99816,1.50032 0,0.47354 -1.0125,0.83127 -2.25,0.79495 -3.72216,-0.10925 -16.75,2.27522 -16.75,3.06573 0,0.40462 -1.2375,0.7747 -2.75,0.8224 -7.76962,0.24502 -16.01967,1.43779 -18.49866,2.67447 -1.53176,0.76414 -2.54236,0.99672 -2.24577,0.51683 0.51428,-0.83213 -1.93992,-0.69215 -10.25557,0.58491 -2.0625,0.31675 -7.35,0.78629 -11.749996,1.04342 -9.32172,0.54476 -10.5,0.84506 -10.5,2.6761 0,0.92788 0.91297,1.2242 2.88158,0.93527 1.58487,-0.23261 3.18642,0.0703 3.55902,0.67319 0.37259,0.60287 1.66338,1.08923 2.86842,1.08081 1.6423,-0.0115 1.8446,-0.23469 0.80784,-0.8913 z m -8.30436,-2.7765 c 0.72188,-0.28887 1.58438,-0.25335 1.91667,0.0789 0.33229,0.33229 -0.25834,0.56864 -1.3125,0.52522 -1.16495,-0.048 -1.4019,-0.28494 -0.60417,-0.60416 z m 11.999996,-1 c 0.72188,-0.28887 1.58438,-0.25335 1.91667,0.0789 0.33229,0.33229 -0.25834,0.56864 -1.3125,0.52522 -1.164946,-0.048 -1.401896,-0.28494 -0.60417,-0.60416 z m -16.688406,1.41644 c -0.98762,-0.98026 -1.10248,-0.8654 -0.5598,0.5598 0.37553,0.98622 0.93469,1.54122 1.24258,1.23333 0.30789,-0.30789 6.4e-4,-1.11479 -0.68278,-1.79313 z m 35.605076,0.6625 c -0.33229,-0.33229 -1.19479,-0.36781 -1.91667,-0.0789 -0.79773,0.31922 -0.56078,0.55618 0.60417,0.60416 1.05416,0.0434 1.64479,-0.19293 1.3125,-0.52522 z m 27.1875,-4.02103 c 0.74404,-0.66929 -6.33207,-0.16114 -9.41667,0.67623 -1.97271,0.53552 -0.94543,0.62335 3,0.25649 3.3,-0.30686 6.1875,-0.72658 6.41667,-0.93272 z m -43.2263,-1.87802 c 0.9953,-0.18907 2.62369,-0.37819 3.61865,-0.42027 0.99496,-0.0421 1.5309,-0.52651 1.19098,-1.07651 -0.33992,-0.55 -0.14148,-1 0.44098,-1 0.58246,0 1.05902,0.48032 1.05902,1.06739 0,0.58706 0.7875,0.83285 1.75,0.5462 0.9625,-0.28665 6.475,-1.00968 12.25,-1.60674 11.46766,-1.1856 27.16948,-4.34294 46,-9.24973 11.24942,-2.93133 25.28035,-9.53747 26.42075,-12.4396 0.25556,-0.65036 0.74939,-4.02536 1.09739,-7.5 0.47397,-4.73233 0.35526,-5.94114 -0.47308,-4.81752 -0.88487,1.2003 -1.0007,1.0005 -0.57971,-1 0.28935,-1.375 0.73389,-4.83825 0.98787,-7.6961 0.38033,-4.27958 0.1606,-5.28929 -1.24572,-5.72443 -4.4125,-1.36532 -21.89106,-2.69147 -32.7075,-2.48163 -6.6,0.12804 -12.78851,-0.11512 -13.75224,-0.54036 -0.96373,-0.42525 -2.90319,-0.4843 -4.30992,-0.13124 -1.40672,0.35307 -11.19322,0.63435 -21.74776,0.62507 -18.22841,-0.016 -19.45198,0.10468 -24.416296,2.40889 -2.87443,1.33417 -5.46371,2.0415 -5.75397,1.57185 -1.36197,-2.2037 -6.76034,1.17756 -5.81465,3.64199 0.68513,1.78543 -1.29554,3.28887 -4.36154,3.31065 -1.7362,0.0123 -2.04517,0.45373 -1.58564,2.26531 0.31391,1.2375 1.12493,3.15 1.80226,4.25 1.46172,2.37385 2.47041,11.73639 2.5318,23.5 0.0244,4.675 0.28508,9.78602 0.5793,11.35782 l 0.53493,2.85783 7.33724,-0.68756 c 4.03547,-0.37815 8.151556,-0.84224 9.146856,-1.03131 z M 85.870334,488.91096 c 0.32137,-0.83748 -0.28907,-2.39606 -1.35654,-3.46353 -1.11291,-1.11291 -1.52286,-2.19917 -0.961,-2.54641 0.53891,-0.33307 0.72094,-1.02448 0.4045,-1.53648 -0.31643,-0.51199 -0.3008,-0.9309 0.0347,-0.9309 0.80806,0 3.50799,6.51731 3.50799,8.46788 0,0.84267 -0.49815,1.53212 -1.10699,1.53212 -0.60884,0 -0.84405,-0.68521 -0.52268,-1.52268 z m 2.62967,0.52268 c 0,-0.55 0.45,-1 1,-1 0.55,0 1,0.45 1,1 0,0.55 -0.45,1 -1,1 -0.55,0 -1,-0.45 -1,-1 z m 60.999996,-4 c 0,-0.55 0.47656,-1 1.05902,-1 0.58246,0 0.7809,0.45 0.44098,1 -0.33992,0.55 -0.81648,1 -1.05902,1 -0.24254,0 -0.44098,-0.45 -0.44098,-1 z m -34,-2.38337 c 0,-0.21085 0.90062,-0.61889 2.00138,-0.90674 1.10076,-0.28786 1.7492,-0.11534 1.44098,0.38337 -0.53825,0.87091 -3.44236,1.31244 -3.44236,0.52337 z m 76.5,-1.61663 c -0.33992,-0.55 -0.14148,-1 0.44098,-1 0.58246,0 1.05902,0.45 1.05902,1 0,0.55 -0.19844,1 -0.44098,1 -0.24254,0 -0.7191,-0.45 -1.05902,-1 z m -68.63367,-1.56321 c 1.85148,-0.84561 3.61398,-1.28981 3.91667,-0.98713 0.8463,0.84631 0.0242,1.2637 -3.783,1.92065 l -3.5,0.60394 3.36633,-1.53746 z M 220.5,520.43364 c 0.60373,-1.12807 0.66571,-2 0.14217,-2 -1.15578,0 -2.25166,-2.57504 -2.76624,-6.5 -0.21633,-1.65 -0.75212,-3.1209 -1.19064,-3.26867 -0.43853,-0.14777 -0.69768,-1.72277 -0.5759,-3.5 l 0.22143,-3.23133 -1.91541,2.36078 c -1.05348,1.29844 -1.87988,2.87344 -1.83646,3.5 0.051,0.73599 0.25748,0.69677 0.58333,-0.11078 0.27741,-0.6875 0.93272,-1.25 1.45624,-1.25 0.55926,0 0.50516,0.83464 -0.13116,2.02361 -0.84438,1.57775 -0.72569,2.38091 0.53871,3.64532 1.3209,1.3209 1.37614,1.79773 0.29782,2.57072 -0.94601,0.67814 -0.75303,0.77867 0.67611,0.35223 1.97017,-0.58789 1.97105,-0.57438 0.0589,0.90567 -1.66246,1.28676 -1.70286,1.50245 -0.28138,1.50245 1.1372,0 1.4587,0.52389 1.02119,1.66404 -0.46664,1.21605 -0.27783,1.44111 0.70132,0.83596 0.97915,-0.60515 1.16796,-0.38009 0.70132,0.83596 -0.90327,2.35389 1.00866,2.07446 2.29868,-0.33596 z m -58.75,-0.66228 c -0.6875,-0.27741 -1.8125,-0.27741 -2.5,0 -0.6875,0.27741 -0.125,0.50439 1.25,0.50439 1.375,0 1.9375,-0.22698 1.25,-0.50439 z m -89.249996,-2.89674 c 0,-0.85746 -0.45,-1.2809 -1,-0.94098 -0.55,0.33992 -1,1.04148 -1,1.55902 0,0.51754 0.45,0.94098 1,0.94098 0.55,0 1,-0.70156 1,-1.55902 z m 11,-0.98041 c 0,-2.07228 -0.24528,-2.3103 -1.33333,-1.2939 -0.73334,0.68503 -1.33334,1.82777 -1.33334,2.53942 0,0.71165 0.6,1.29391 1.33334,1.29391 0.76107,0 1.33333,-1.0899 1.33333,-2.53943 z m 92.605386,-1.31108 c 0.61793,-0.82424 1.82138,-1.1997 2.729,-0.85141 1.94173,0.74511 8.3714,-1.74384 6.88229,-2.66417 -0.56991,-0.35222 -1.8643,-0.3772 -2.87644,-0.0555 -1.68352,0.53507 -1.67379,0.44935 0.11427,-1.00654 1.70173,-1.3856 2.14085,-1.40506 3.39544,-0.15047 1.25459,1.25459 1.64846,1.21743 3.0455,-0.28735 1.02494,-1.10398 1.24332,-1.16942 0.60455,-0.18116 -0.87158,1.34845 -0.77526,1.37088 0.75,0.17469 2.26982,-1.78012 2.24681,-3.82992 -0.0411,-3.66137 -2.28944,0.16867 -12.97322,4.43104 -16.09544,6.42139 -1.3839,0.88221 -1.88679,1.68797 -1.197,1.9179 0.78325,0.26109 0.57372,0.8752 -0.61345,1.79797 -1.70348,1.32411 -1.69261,1.36335 0.197,0.71097 1.1,-0.37976 2.49743,-1.35398 3.10539,-2.16493 z M 81.930274,500.9358 c 0.9698,-14.47771 -0.66066,-17.81994 -3.68027,-7.54407 -1.08526,3.69318 -1.74811,9.29545 -1.74503,14.74861 l 0.005,8.7933 2.37302,-2.96587 c 2.00182,-2.50192 2.4785,-4.54048 3.04731,-13.03197 z m -9.43027,11.49784 c 0,-0.55 -0.47656,-1 -1.05902,-1 -0.58246,0 -0.7809,0.45 -0.44098,1 0.33992,0.55 0.81648,1 1.05902,1 0.24254,0 0.44098,-0.45 0.44098,-1 z m 1.66228,-2.25 c -0.27741,-0.6875 -0.50439,-0.125 -0.50439,1.25 0,1.375 0.22698,1.9375 0.50439,1.25 0.27741,-0.6875 0.27741,-1.8125 0,-2.5 z m 136.068226,0.64718 c -0.33155,-0.33156 -0.19875,-1.66562 0.29512,-2.9646 0.59604,-1.5677 0.52263,-2.59374 -0.21835,-3.05169 -0.65263,-0.40334 -0.83766,-0.23907 -0.44548,0.3955 0.36895,0.59698 0.24566,1.34818 -0.27399,1.66934 -0.51965,0.32116 -1.08949,-0.39999 -1.26632,-1.60257 -0.17682,-1.20258 -0.99649,-2.36851 -1.82149,-2.59096 -1.33333,-0.35952 -1.33333,-0.28659 0,0.65636 1.33333,0.94295 1.33333,1.06422 0,1.09144 -1.06048,0.0216 -1.15207,0.25186 -0.31256,0.78566 0.65309,0.41528 1.65445,1.98339 2.22525,3.48469 0.57079,1.50131 1.34895,2.72965 1.72923,2.72965 0.38028,0 0.42014,-0.27127 0.0886,-0.60282 z M 73.500004,504.93364 c 0,-0.825 -0.43588,-1.5 -0.96862,-1.5 -0.53273,0 -0.70959,0.675 -0.39301,1.5 0.31659,0.825 0.75246,1.5 0.96862,1.5 0.21616,0 0.39301,-0.675 0.39301,-1.5 z m 10.66228,-2.75 c -0.27741,-0.6875 -0.50439,-0.125 -0.50439,1.25 0,1.375 0.22698,1.9375 0.50439,1.25 0.27741,-0.6875 0.27741,-1.8125 0,-2.5 z m 129.601926,-4.57867 c -0.56939,-4.22521 -4.61643,-13.48578 -5.50513,-12.59707 -0.33513,0.33512 0.22329,2.5517 1.24092,4.92574 1.01763,2.37404 1.54643,4.65488 1.17512,5.06854 -0.37132,0.41366 -0.11562,0.43026 0.56822,0.0369 0.83636,-0.48111 1.25117,0.0392 1.26724,1.58968 0.0131,1.26769 0.036,3.42423 0.0509,4.79229 0.0189,1.73983 0.27688,2.08314 0.85834,1.14231 0.45722,-0.7398 0.61219,-2.97106 0.34437,-4.95837 z m -8.11303,1.51083 c -0.62361,-0.7514 -0.83773,-1.66227 -0.47584,-2.02417 0.3619,-0.36189 0.20799,-0.65799 -0.34201,-0.65799 -1.94312,0 -2.14671,1.18762 -0.5,2.91667 1.91692,2.01276 3.02001,1.81647 1.31785,-0.23451 z M 75.896994,491.26697 c -0.28326,-0.45833 -0.93847,-0.83333 -1.45601,-0.83333 -0.51754,0 -0.94098,0.375 -0.94098,0.83333 0,0.45834 0.65521,0.83334 1.45601,0.83334 0.80081,0 1.22425,-0.375 0.94098,-0.83334 z M 203.83917,480.13212 c -1.15445,-6.28726 -2.00689,-8.69848 -3.07517,-8.69848 -0.81289,0 -1.27336,0.5625 -1.02327,1.25 0.25009,0.6875 1.51983,4.7159 2.82166,8.95199 1.30183,4.2361 2.48104,7.58791 2.62047,7.44848 0.13944,-0.13943 -0.46522,-4.16783 -1.34369,-8.95199 z m -4.64618,2.57055 c -0.25354,-0.97297 -0.47766,-0.41903 -0.49804,1.23097 -0.0204,1.65 0.18706,2.44606 0.46099,1.76903 0.27392,-0.67703 0.29059,-2.02703 0.0371,-3 z m 10.22575,-0.81925 c 0.41136,0.25423 0.74793,-0.18582 0.74793,-0.97789 0,-1.08673 -0.3272,-1.16859 -1.33334,-0.33357 -0.73333,0.60861 -1.2978,1.61397 -1.25438,2.23413 0.0492,0.70252 0.26985,0.65402 0.58541,-0.12868 0.27855,-0.69093 0.84303,-1.04822 1.25438,-0.79399 z M 82.500004,477.43364 c -1.375,-0.44035 -2.1074,-0.8455 -1.62756,-0.90032 0.47985,-0.0548 0.3455,-0.73462 -0.29855,-1.51065 -0.80051,-0.96456 -0.83925,-1.61601 -0.12245,-2.05902 0.57671,-0.35642 1.04856,0.0535 1.04856,0.91097 0,0.85746 0.45,1.55902 1,1.55902 2.27433,0 0.77725,-2.882 -2,-3.85016 -1.89124,-0.65928 -2.97402,-1.7118 -2.92971,-2.84782 0.0624,-1.60072 0.16629,-1.57861 0.92971,0.19798 0.47269,1.1 0.89106,1.41094 0.92971,0.69098 0.0387,-0.71996 0.52029,-1.0309 1.07029,-0.69098 0.56716,0.35052 1,-0.48962 1,-1.94098 0,-1.40746 -0.43588,-2.55902 -0.96862,-2.55902 -0.53273,0 -0.70763,0.6801 -0.38866,1.51134 0.415,1.08145 0.12162,1.33546 -1.03138,0.89301 -0.88624,-0.34008 -1.61134,-1.66863 -1.61134,-2.95232 0,-2.72814 -1.06436,-3.64832 -2.90451,-2.51105 -1.01002,0.62423 -1.03183,0.98033 -0.0955,1.55902 0.93518,0.57797 0.91145,0.93669 -0.10347,1.56395 -1.04178,0.64385 -0.90736,1.28058 0.64323,3.04689 1.07813,1.22812 1.39774,1.90404 0.71024,1.50204 -0.88687,-0.51858 -1.25,0.15774 -1.25,2.3281 0,3.8121 0.24064,4.54942 1.5,4.59602 0.55,0.0203 1.9,0.56916 3,1.21959 1.1,0.65043 2.9,1.15142 4,1.11332 1.63731,-0.0567 1.54664,-0.21446 -0.5,-0.86991 z M 208.5,478.04063 c 0,-0.21616 -0.69837,-0.661 -1.55194,-0.98855 -0.88992,-0.34149 -1.29132,-0.17385 -0.94098,0.39301 0.58726,0.95021 2.49292,1.40545 2.49292,0.59554 z M 73.500004,468.31561 c 0,-0.55 -0.45,-0.72189 -1,-0.38197 -0.55,0.33992 -1,1.06803 -1,1.61803 0,0.55 0.45,0.72189 1,0.38197 0.55,-0.33992 1,-1.06803 1,-1.61803 z m 121.656526,-0.709 c -1.142,-1.2619 -2.59622,-1.68867 -4.70135,-1.3797 -3.74642,0.54986 -3.40569,1.06444 0.92324,1.39429 1.80049,0.13719 3.49097,0.60112 3.75662,1.03094 0.26565,0.42982 0.75118,0.7815 1.07896,0.7815 0.32779,0 -0.14807,-0.82217 -1.05747,-1.82703 z m 6.98673,-0.6857 c 0.31927,-0.83201 0.15,-2.06951 -0.37615,-2.75 -0.52615,-0.6805 -1.25742,-2.13727 -1.62503,-3.23727 -0.55085,-1.64828 -0.2991,-1.56035 1.43154,0.5 1.15496,1.375 1.76744,1.825 1.36105,1 -1.31811,-2.6759 -3.71132,-5 -5.14867,-5 -0.77222,0 -1.12592,0.45 -0.786,1 0.33992,0.55 0.14148,1 -0.44098,1 -0.58246,0 -1.08754,-0.7875 -1.12241,-1.75 -0.0467,-1.29006 -0.31101,-1.13179 -1.00558,0.6022 -1.11575,2.7855 0.78256,7.5734 3.0856,7.78245 4.24359,0.3852 4.47202,0.5108 2.48337,1.36535 -1.75068,0.75229 -1.77794,0.86819 -0.21862,0.92971 0.97977,0.0387 2.04261,-0.61044 2.36188,-1.44244 z M 118,465.43364 c -1.67602,-0.72021 -1.47353,-0.87082 1.25,-0.92972 1.7875,-0.0387 3.25,0.37972 3.25,0.92972 0,0.55 0.675,1 1.5,1 1.94081,0 1.94494,-1.89203 0.006,-2.63617 -0.82184,-0.31537 -1.24528,-0.97625 -0.94098,-1.46862 0.30404,-0.49236 -1.24699,-0.89521 -3.44699,-0.89521 -2.2,0 -4.29029,0.46971 -4.6451,1.0438 -0.86921,1.40641 1.37637,3.97328 3.39951,3.88591 1.25222,-0.0541 1.16633,-0.26848 -0.37244,-0.92971 z m 1.3125,-2.68311 c 0.72188,-0.28888 1.58438,-0.25335 1.91667,0.079 0.33229,0.33229 -0.25834,0.56864 -1.3125,0.52522 -1.16495,-0.048 -1.4019,-0.28495 -0.60417,-0.60417 z m 20.45653,3.02717 c -0.67703,-0.27392 -2.02703,-0.29059 -3,-0.0371 -0.97297,0.25355 -0.41903,0.47767 1.23097,0.49804 1.65,0.0204 2.44606,-0.18706 1.76903,-0.46098 z M 153.5,464.31706 c 0,-0.48588 -1.0125,-0.89031 -2.25,-0.89873 -1.64832,-0.0112 -1.88613,-0.24586 -0.8893,-0.87744 1.83946,-1.16545 5.1393,-0.20094 5.1393,1.50218 0,0.94907 1.16383,1.33166 3.75,1.23276 2.0625,-0.0789 4.7625,0.17969 6,0.57459 1.37648,0.43925 2.25,0.3036 2.25,-0.34939 0,-0.58707 1.0125,-1.0605 2.25,-1.05208 1.81944,0.0124 1.96296,0.20082 0.75,0.98469 -1.30514,0.84345 -1.28857,0.97136 0.12756,0.98469 2.35004,0.0221 4.47008,-2.78705 3.12128,-4.13585 -1.1744,-1.1744 -13.24884,-0.18769 -13.24884,1.08268 0,0.40433 -0.675,0.73515 -1.5,0.73515 -0.825,0 -1.5,-0.375 -1.5,-0.83334 0,-0.45833 0.45,-0.83333 1,-0.83333 0.55,0 1,-0.675 1,-1.5 0,-0.825 -0.70156,-1.5 -1.55902,-1.5 -0.92614,0 -1.26861,0.46989 -0.84363,1.15752 0.50708,0.82046 0.0147,0.9464 -1.69098,0.43249 -5.73909,-1.72917 -8.85854,-2.32164 -8.41097,-1.59746 0.57878,0.93649 -3.26615,1.73511 -5.81883,1.20861 -1.20469,-0.24847 -1.61424,-0.9212 -1.20696,-1.98256 0.54078,-1.40925 0.38667,-1.39851 -1.25532,0.0875 -1.02947,0.93166 -2.96134,1.72556 -4.29303,1.76422 -3.06595,0.089 -7.29828,1.75269 -4.73028,1.85943 0.93004,0.0387 1.92893,0.45528 2.21974,0.92583 0.29082,0.47055 -0.64951,0.6303 -2.08961,0.35501 -1.80613,-0.34526 -2.39852,-0.14483 -1.90968,0.64613 0.4587,0.74219 2.5394,0.95883 5.89862,0.61416 2.85447,-0.29288 7.43995,-0.16415 10.18995,0.28607 5.44655,0.89169 9.5,0.51899 9.5,-0.87349 z m -16,-1.8244 c 0,-0.51754 0.45,-1.2191 1,-1.55902 0.55,-0.33992 1,0.0835 1,0.94098 0,0.85746 -0.45,1.55902 -1,1.55902 -0.55,0 -1,-0.42344 -1,-0.94098 z m 40.34054,2.69098 c 0.38294,-0.94376 0.7895,-0.88251 1.65946,0.25 1.02423,1.33333 1.10682,1.33333 0.7433,0 -0.52124,-1.91185 -4.3734,-2.15063 -5.85696,-0.36304 -0.89212,1.07493 -0.70022,1.36304 0.90788,1.36304 1.12151,0 2.26735,-0.5625 2.54632,-1.25 z m 6.38863,0.64583 c -0.3323,-0.33229 -1.1948,-0.36782 -1.91667,-0.0789 -0.79773,0.31923 -0.56078,0.55619 0.60417,0.60417 1.05416,0.0434 1.64479,-0.19293 1.3125,-0.52522 z M 111.5,464.43364 c -1.25497,-0.81102 -1.18691,-0.97188 0.41667,-0.98469 1.05416,-0.008 1.63607,-0.2959 1.29312,-0.63885 -0.34294,-0.34295 -1.34646,-0.34612 -2.23004,-0.007 -1.73961,0.66755 -1.11409,2.64027 0.82927,2.61529 0.71561,-0.009 0.59227,-0.40219 -0.30902,-0.98465 z m 81,-1 c 0,-2.19211 -0.13075,-2.27079 -2.35507,-1.41724 -1.80473,0.69254 -1.03764,3.41724 0.96206,3.41724 0.76615,0 1.39301,-0.9 1.39301,-2 z M 74.052834,459.77499 c 1.18092,-0.45316 1.1594,-0.99715 -0.13874,-3.50748 -0.84504,-1.63412 -1.63214,-4.40275 -1.74912,-6.1525 -0.11698,-1.74975 -0.56601,-3.74387 -0.99785,-4.43137 -0.44432,-0.70738 -0.32544,-1.25 0.27386,-1.25 0.58246,0 1.05902,0.525 1.05902,1.16667 0,0.64166 0.28913,0.87754 0.6425,0.52416 0.35338,-0.35337 0.12061,-1.27134 -0.51725,-2.03992 -1.47895,-1.78202 -0.41133,-4.69792 1.45751,-3.98078 0.77948,0.29912 1.41724,0.0457 1.41724,-0.56314 0,-0.60885 -1.08925,-1.10699 -2.42055,-1.10699 -3.34886,0 -4.25608,4.84039 -2.53533,13.5271 0.49748,2.51141 -0.1983,4.36654 -1.79412,4.78357 -1.25322,0.32751 -1.07818,0.49026 0.61663,0.57333 1.88993,0.0926 2.2562,0.53828 1.8184,2.21245 -0.30153,1.15305 -0.24558,2.84055 0.12434,3.75 0.54273,1.33434 0.73755,1.2074 1.00916,-0.6576 0.18513,-1.27113 0.96556,-2.5525 1.7343,-2.8475 z m 17.92967,1.63034 c -0.28332,-0.45842 -0.01,-1.14584 0.60795,-1.52759 0.799,-0.49381 0.73993,-0.9309 -0.20473,-1.51473 -2.93268,-1.8125 -0.14607,-1.61342 3.11428,0.22248 1.925,1.08398 2.78419,1.75988 1.90932,1.50203 -0.87488,-0.25786 -2.22488,-0.0674 -3,0.42333 -1.07866,0.68284 -0.90061,0.89576 0.75889,0.90748 5.847026,0.0413 5.501606,-1.30079 -1.2565,-4.88202 -3.73921,-1.98147 -7.00227,-4.27767 -7.25124,-5.10267 -0.35069,-1.16207 0.003,-1.09624 1.56879,0.29219 1.96484,1.74199 2.03507,1.72098 2.50743,-0.75 0.318,-1.66351 0.0387,-2.54219 -0.80797,-2.54219 -0.71167,0 -1.57959,-0.9 -1.92872,-2 -0.34913,-1.1 -1.24645,-2 -1.99406,-2 -0.74761,0 -1.56509,-0.7875 -1.81661,-1.75 -0.42861,-1.64009 -0.46461,-1.63812 -0.57333,0.0314 -0.0638,0.97976 0.55641,2.03941 1.37826,2.35478 0.82184,0.31537 1.22864,1.00318 0.904,1.52846 -0.74036,1.19792 -3.32366,-2.10021 -3.36646,-4.29799 -0.0417,-2.13926 -3.60285,-3.0192 -6.63245,-1.63882 -2.4146,1.10016 -3.2586,2.77218 -1.39935,2.77218 0.55,0 0.90748,0.3375 0.7944,0.75 -0.50675,1.84851 3.36523,7.07325 5.67069,7.65188 2.864,0.71882 3.09863,1.98802 1.03491,5.59812 -1.85296,3.24141 -1.84176,4 0.059,4 0.9238,0 1.26829,0.4704 0.84549,1.15451 -0.39244,0.63498 -0.28501,0.88967 0.23873,0.56598 0.52374,-0.32369 1.55796,-0.21418 2.29827,0.24336 1.57695,0.97461 7.29773,-0.76775 6.54099,-1.99216 z m -8.9825,-1.97169 c -0.33992,-0.55 -0.14148,-1 0.44098,-1 0.58246,0 1.05902,0.45 1.05902,1 0,0.55 -0.19844,1 -0.44098,1 -0.24254,0 -0.7191,-0.45 -1.05902,-1 z m 5.3125,0.31689 c 0.72188,-0.28888 1.58438,-0.25335 1.91667,0.079 0.33229,0.33229 -0.25834,0.56864 -1.3125,0.52522 -1.16495,-0.048 -1.4019,-0.28495 -0.60417,-0.60417 z m -0.55657,-2.7542 c -2.57962,-1.4268 -2.07235,-2.58895 0.80197,-1.8373 1.06816,0.27933 1.9421,1.13039 1.9421,1.89124 0,0.76085 -0.1125,1.33925 -0.25,1.28532 -0.1375,-0.0539 -1.25983,-0.65659 -2.49407,-1.33926 z m -9.2575,-10.89807 c -1.76816,-1.3828 -2.41175,-3.66462 -1.03361,-3.66462 0.9858,0 3.46719,3.90133 2.86463,4.50389 -0.18293,0.18292 -1.00689,-0.19475 -1.83102,-0.83927 z m 103.403036,12.36075 c -2.12163,-2.18604 -4.17326,-4.77354 -4.5592,-5.75 -0.53483,-1.35319 -0.71841,-1.1134 -0.77198,1.00833 -0.0775,3.07104 4.84063,8.7163 7.59367,8.7163 1.08051,0 0.35072,-1.28207 -2.26249,-3.97463 z m -11.6723,1.37046 c -0.3323,-0.33229 -1.1948,-0.36781 -1.91667,-0.0789 -0.79773,0.31923 -0.56078,0.55619 0.60417,0.60417 1.05416,0.0434 1.64479,-0.19293 1.3125,-0.52522 z M 66.137724,458.73803 c -1.06512,-1.06512 -3.72328,-1.25185 -3.08347,-0.21661 0.31008,0.50172 1.28723,0.91222 2.17143,0.91222 0.88421,0 1.29463,-0.31303 0.91204,-0.69561 z m 44.394076,-3.17684 c 0.028,-1.435 0.17829,-1.45009 1.26998,-0.12755 1.66548,2.01769 5.75508,4.27648 6.46227,3.56929 0.3131,-0.31311 0.0443,-0.56929 -0.59738,-0.56929 -0.64167,0 -1.16667,-0.70156 -1.16667,-1.55902 0,-0.85746 -0.36973,-1.33051 -0.82162,-1.05122 -0.45189,0.27928 -1.55969,-0.35422 -2.46178,-1.40778 -1.49519,-1.74625 -1.50043,-2.05529 -0.0593,-3.49639 0.86945,-0.86946 1.36467,-1.79699 1.10047,-2.06119 -0.8769,-0.8769 -5.75801,1.50384 -5.74243,2.80085 0.0108,0.89662 0.29128,0.83839 0.94563,-0.19629 1.64857,-2.60676 2.12619,-0.425 0.56311,2.57226 -1.17741,2.25771 -1.51309,2.46754 -1.51789,0.94878 -0.004,-1.25598 -0.35041,-1.60575 -0.9734,-0.98275 -0.53199,0.53198 -0.70203,1.98147 -0.37786,3.22107 0.46589,1.78159 0.87808,2.01423 1.96724,1.11031 0.75783,-0.62894 1.39217,-1.87592 1.40966,-2.77108 z m 79.10471,1.20796 c 0.66112,-0.7966 0.78836,-1.34915 0.28276,-1.2279 -0.5056,0.12126 -2.18972,-0.1354 -3.74249,-0.57036 -3.71674,-1.04111 -6.03443,0.96392 -3.3803,2.9243 2.04245,1.50859 5.06668,1.01073 6.84003,-1.12604 z m -56.55099,-0.58769 c 0.4113,-0.4113 1.4868,-0.74782 2.39002,-0.74782 0.90321,0 2.51571,-0.71174 3.58333,-1.58164 1.91373,-1.5593 1.9129,-1.57182 -0.0589,-0.88654 -4.53362,1.57563 -5.96595,1.63405 -3.27643,0.13362 1.49797,-0.83567 3.74797,-1.7086 5,-1.93983 1.25204,-0.23123 -0.87357,-0.43125 -4.72357,-0.44449 -3.85,-0.0132 -7.675,0.35303 -8.5,0.81392 -4.01339,2.2421 -4.39287,2.72666 -3.23138,4.12616 1.19361,1.43822 7.52702,1.8165 8.8169,0.52662 z m -7.77302,-1.43093 c 0.72187,-0.28888 1.58437,-0.25335 1.91667,0.079 0.33229,0.33229 -0.25834,0.56864 -1.3125,0.52522 -1.16495,-0.048 -1.4019,-0.28495 -0.60417,-0.60417 z m 21.78706,0.082 c -0.86534,-2.25504 1.00331,-1.60392 2.03547,0.70924 0.82602,1.85117 1.09431,1.92296 2.20137,0.58903 0.97565,-1.17558 0.98868,-1.68719 0.0576,-2.2626 -0.76271,-0.47139 -0.9419,-0.32096 -0.48954,0.41097 1.25126,2.02459 -0.5134,1.23905 -2.46095,-1.09549 -1.03236,-1.2375 -1.94942,-1.8 -2.03791,-1.25 -0.60362,3.75167 -0.5039,5.36973 0.30031,4.8727 0.51171,-0.31625 0.68883,-1.20449 0.3936,-1.97385 z m 17.79743,1.43448 c -0.28326,-0.45833 -0.93847,-0.83333 -1.45601,-0.83333 -0.51754,0 -0.94098,0.375 -0.94098,0.83333 0,0.45834 0.65521,0.83334 1.45601,0.83334 0.80081,0 1.22425,-0.375 0.94098,-0.83334 z m -98.734706,-3.08333 c -0.27741,-0.6875 -0.50439,-0.125 -0.50439,1.25 0,1.375 0.22698,1.9375 0.50439,1.25 0.27741,-0.6875 0.27741,-1.8125 0,-2.5 z m 104.999996,0 c -0.27741,-0.6875 -0.50439,-0.125 -0.50439,1.25 0,1.375 0.22698,1.9375 0.50439,1.25 0.27741,-0.6875 0.27741,-1.8125 0,-2.5 z m -107.538186,-0.0167 c -0.98762,-0.98026 -1.10248,-0.8654 -0.5598,0.5598 0.37553,0.98622 0.93469,1.54122 1.24258,1.23333 0.30789,-0.30789 6.4e-4,-1.11479 -0.68278,-1.79313 z m 12.87591,0.70765 c 0,-0.85746 0.48322,-1.26037 1.07382,-0.89535 0.59274,0.36633 0.50307,-0.25027 -0.20015,-1.3763 -0.70068,-1.12198 -1.68212,-1.78772 -2.18095,-1.47942 -0.508,0.31396 -0.61026,-0.37436 -0.23247,-1.56468 0.42851,-1.35011 0.24271,-2.12523 -0.50944,-2.12523 -0.79003,0 -0.95737,0.915 -0.50295,2.75 0.37456,1.5125 0.74845,3.5375 0.83087,4.5 0.18553,2.16678 1.72127,2.33718 1.72127,0.19098 z m 22.44113,0.0272 c 1.067616,-0.8075 1.491126,-1.46819 0.94113,-1.46819 -0.55,0 -1.87351,0.66069 -2.94113,1.4682 -1.06762,0.8075 -1.49113,1.46819 -0.94113,1.46819 0.55,0 1.87351,-0.66069 2.94113,-1.46819 z m 21.686426,-0.21819 c 1.24387,-1.58606 1.2085,-1.62143 -0.37756,-0.37755 -0.9625,0.75484 -1.75,1.54234 -1.75,1.75 0,0.82303 0.82119,0.2933 2.12756,-1.37245 z m 79.00356,0.40799 c -0.61257,-0.7381 -0.81767,-1.6381 -0.45578,-2 0.3619,-0.36189 -0.31701,-0.65799 -1.50867,-0.65799 -1.19167,0 -2.1983,0.5625 -2.23696,1.25 -0.0386,0.6875 -0.45702,0.35 -0.92971,-0.75 -0.97221,-2.26246 -1.32901,-0.52097 -0.39301,1.91821 0.3678,0.95848 1.79523,1.58179 3.62244,1.58179 2.40925,0 2.79155,-0.26979 1.90169,-1.34201 z m -10.91882,-3.40799 c -0.2807,-1.5125 -1.0058,-3.08061 -1.61133,-3.48469 -0.79197,-0.52848 -0.78286,-0.73898 0.0325,-0.75 0.62339,-0.008 1.33605,-1.07528 1.58371,-2.3708 0.45144,-2.36155 0.19134,-2.45842 -4.71713,-1.75682 -0.55,0.0786 -0.39612,0.52567 0.34195,0.99347 0.97989,0.62105 0.64263,0.98422 -1.25,1.34601 -2.51063,0.47994 -3.53003,-0.52937 -1.68583,-1.66915 0.49837,-0.30801 0.71838,-1.57206 0.48891,-2.80902 -0.22946,-1.23695 -0.14972,-1.6865 0.17722,-0.999 0.93335,1.96275 4.2258,1.46164 4.92775,-0.75 0.7826,-2.46576 3.19036,-2.62372 3.81067,-0.25 0.3102,1.18699 0.49486,0.9457 0.57398,-0.75 0.10467,-2.24304 -0.26885,-2.5 -3.63399,-2.5 -2.69985,0 -3.66599,-0.3941 -3.44845,-1.40664 0.47017,-2.18836 -4.01245,1.06151 -5.53747,4.01463 -1.04563,2.0248 -1.61188,1.98312 -1.46692,-0.10799 0.0191,-0.275 -1.05265,-0.5649 -2.38158,-0.64421 -2.4778,-0.14789 -3.34894,1.16664 -1.23919,1.86989 2.45635,0.81879 -0.31836,2.57757 -3.3201,2.10449 -2.55687,-0.40296 -3.02201,-0.20268 -2.52673,1.08797 0.74622,1.94464 0.23357,1.98127 -2.6154,0.18689 -1.42261,-0.896 -2.9302,-1.09999 -4.21482,-0.57028 -1.70379,0.70254 -1.55569,0.83736 1,0.91028 2.31717,0.0661 2.65859,0.30623 1.5,1.05497 -1.2718,0.8219 -1.22479,0.9717 0.30902,0.98469 0.99496,0.008 1.54936,0.43544 1.232,0.94894 -0.7676,1.242 7.45416,1.65583 14.23028,0.71625 2.62789,-0.36439 3.21794,-0.12871 3,1.19826 -0.36866,2.24465 -2.07133,4.06344 -3.17581,3.39239 -0.49748,-0.30225 -0.55919,0.009 -0.13714,0.69208 0.42205,0.68289 1.56677,1.03258 2.54381,0.77708 0.97704,-0.25551 2.38876,-0.0766 3.13714,0.39756 2.87815,1.82356 4.60958,1.03404 4.073,-1.85725 z m -5.5873,-2.04775 c -0.27117,-0.43876 -0.0796,-1.45126 0.42567,-2.25 0.71729,-1.13386 0.92206,-0.95896 0.93402,0.79775 0.0157,2.31303 -0.49232,2.85568 -1.35969,1.45225 z m -5.89264,-6.28679 c 0.39747,-1.51992 0.76052,-1.73599 1.34039,-0.79774 0.86061,1.39249 0.32402,2.88228 -1.03815,2.88228 -0.46605,0 -0.60206,-0.93804 -0.30224,-2.08454 z M 103.5,452.04063 c 0,-0.21616 -0.69837,-0.661 -1.55194,-0.98855 -0.88992,-0.34149 -1.29132,-0.17385 -0.94098,0.39301 0.58726,0.95021 2.49292,1.40545 2.49292,0.59554 z m -36.999996,-3.66601 c 0,-0.51754 -0.66088,-0.94098 -1.46862,-0.94098 -0.89208,0 -1.24351,0.5866 -0.89521,1.49426 0.59029,1.53826 2.36383,1.12315 2.36383,-0.55328 z M 122.5,449.43364 c 0,-0.55 -0.45,-1 -1,-1 -0.55,0 -1,0.45 -1,1 0,0.55 0.45,1 1,1 0.55,0 1,-0.45 1,-1 z m 13.5,0.23469 c 1.47326,-1.08239 1.4817,-4.23469 0.0113,-4.23469 -0.69654,0 -1.83519,0.6853 -2.53033,1.52289 -1.07316,1.29308 -0.97846,1.41573 0.62756,0.81277 1.67086,-0.62731 1.73139,-0.51336 0.519,0.97711 -1.37961,1.69603 -0.49241,2.292 1.37244,0.92192 z m 13.5,-1.15136 c 0,-1.05416 0.3375,-2.10541 0.75,-2.3361 0.4125,-0.23069 0.24233,-0.30336 -0.37814,-0.16148 -0.62048,0.14188 -1.63298,-0.24688 -2.25,-0.8639 -0.82915,-0.82914 -1.12186,-0.80874 -1.12186,0.0781 0,0.66 0.5051,1.2 1.12244,1.2 0.82562,0 0.82792,0.35489 0.009,1.34201 -0.61257,0.7381 -0.81767,1.6381 -0.45578,2 1.24193,1.24225 2.32434,0.65618 2.32434,-1.25868 z m 10.39944,-0.24604 c -0.39523,-0.63949 -1.05072,-2.55199 -1.45666,-4.25 -0.71243,-2.9801 -0.74161,-2.99471 -0.84042,-0.42062 -0.074,1.92917 -0.8629,2.96754 -2.85236,3.75459 l -2.75,1.08793 2.68535,-0.35356 c 1.47695,-0.19447 3.27695,0.0216 4,0.48009 1.79062,1.13548 2.05945,1.0694 1.21409,-0.29843 z m 32.51723,0.87974 c -0.22917,-0.15563 -1.21447,-0.89428 -2.18956,-1.64144 -1.54348,-1.18269 -1.69139,-1.14607 -1.14301,0.28297 0.34643,0.90279 1.33173,1.64144 2.18956,1.64144 0.85782,0 1.37217,-0.12734 1.14301,-0.28297 z m -93.916666,-1.57836 c 0,-0.47373 1.08491,-0.65393 2.410906,-0.40045 1.326,0.25348 3.2385,-0.0267 4.25,-0.62269 1.72504,-1.01637 1.69794,-1.12322 -0.43687,-1.72297 -2.27265,-0.63847 -2.27324,-0.64399 -0.41115,-3.8 1.21719,-2.06298 1.59789,-3.84336 1.09624,-5.12658 -0.42271,-1.08129 -0.80019,-1.37692 -0.83884,-0.65696 -0.0416,0.77488 -0.58034,1.00259 -1.32029,0.55804 -0.72049,-0.43286 -0.61459,0.0351 0.25,1.1047 1.40749,1.74123 1.36184,1.78206 -0.74005,0.6621 -1.23202,-0.65647 -2.19123,-1.51764 -2.13158,-1.91372 0.2794,-1.85494 -0.22401,-3.22014 -1.187386,-3.22014 -0.58246,0 -0.806,0.40939 -0.49675,0.90976 1.02196,1.65357 -0.54386,3.98654 -2.27699,3.39256 -1.26734,-0.43433 -1.18752,-0.15975 0.33276,1.14478 1.6745,1.43686 1.71519,1.62662 0.25,1.16592 -1.17893,-0.37069 -1.75,-0.0151 -1.75,1.08962 0,0.90193 -0.75122,2.46997 -1.66938,3.48452 -1.56407,1.72828 -1.5483,1.93626 0.25,3.29694 2.15046,1.62714 4.41938,1.9632 4.41938,0.65457 z m 0.3875,-4.30117 c 0.39209,-2.00175 2.613696,-2.14788 2.597186,-0.17083 -0.0118,1.41656 -0.21165,1.52344 -0.87895,0.47018 -0.606626,-0.9575 -1.026136,-1.02445 -1.409686,-0.225 -0.37228,0.77596 -0.47047,0.7523 -0.30855,-0.0743 z m 92.231546,1.63869 c -0.89048,-0.89048 -1.61905,-1.2269 -1.61905,-0.74762 0,1.13251 2.23613,3.36864 2.80238,2.80238 0.23964,-0.23964 -0.29286,-1.16428 -1.18333,-2.05476 z m 11.93982,1.07355 c 1.87274,-1.39917 1.86131,-1.43015 -0.32445,-0.8793 -1.24607,0.31404 -2.51013,0.96665 -2.80902,1.45027 -0.84582,1.36855 0.98367,1.03519 3.13347,-0.57097 z M 52.750004,445.77136 c -0.6875,-0.27741 -1.8125,-0.27741 -2.5,0 -0.6875,0.27741 -0.125,0.50438 1.25,0.50438 1.375,0 1.9375,-0.22697 1.25,-0.50438 z M 145.9159,443.7922 c 0.49781,-1.29726 0.34369,-1.40393 -0.73502,-0.50868 -0.75069,0.62302 -1.73314,0.79917 -2.18321,0.39144 -0.45008,-0.40772 -0.49462,-0.17882 -0.099,0.50868 0.99452,1.72817 2.2672,1.56305 3.01721,-0.39144 z m -37.72291,-3.08953 c -0.25354,-0.97297 -0.47766,-0.41903 -0.49804,1.23097 -0.0204,1.65 0.18706,2.44606 0.46099,1.76903 0.27392,-0.67703 0.29059,-2.02703 0.0371,-3 z m 15.2917,2.73097 c 0.77166,1.1755 0.988,0.90325 1,-1.25847 0.0143,-2.56795 -0.1401,-2.67155 -2.23469,-1.5 -1.2375,0.69216 -2.40756,1.34103 -2.60014,1.44194 -0.19257,0.10091 -0.0238,0.71145 0.375,1.35676 0.53798,0.87046 0.95098,0.82311 1.60014,-0.18347 0.72552,-1.12498 1.04322,-1.10051 1.85969,0.14324 z m -10.49177,-0.98855 c 0.35034,-0.56686 -0.0511,-0.7345 -0.94098,-0.39301 -1.73242,0.66479 -2.04939,1.38156 -0.61096,1.38156 0.51754,0 1.21592,-0.44485 1.55194,-0.98855 z M 129.5,442.43359 c 0,-0.55 -0.7875,-0.99311 -1.75,-0.98469 -1.49555,0.0131 -1.5319,0.15626 -0.25,0.98469 1.88721,1.21961 2,1.21961 2,0 z m 25.3987,-0.16391 c -0.25451,-0.41181 -1.12334,-0.49525 -1.93073,-0.18543 -2.03585,0.78123 -1.83381,1.2526 0.46275,1.0796 1.0619,-0.08 1.72249,-0.48237 1.46798,-0.89417 z m -32.81469,-3.62009 c 0.61192,-0.83685 1.63085,-1.20124 2.26429,-0.80976 0.68082,0.42077 1.1517,0.0744 1.1517,-0.84722 0,-1.11507 0.99667,-1.55902 3.5,-1.55902 1.925,0 3.5,-0.45 3.5,-1 0,-0.55 -0.675,-1 -1.5,-1 -0.825,0 -1.3875,-0.55182 -1.25,-1.22626 0.1375,-0.67444 -0.7625,-1.38074 -2,-1.56955 -1.2375,-0.18881 -2.30625,0.13801 -2.375,0.72626 -0.30049,2.57108 -0.41499,2.94287 -1.125,3.65288 -0.4125,0.4125 -0.75,0.135 -0.75,-0.61666 0,-1.01008 -0.29271,-1.07396 -1.12185,-0.24482 -0.61703,0.61702 -1.74203,0.88388 -2.5,0.59302 -0.75799,-0.29087 -1.37815,-0.0448 -1.37815,0.54676 0,0.59158 -0.5625,0.93848 -1.25,0.77088 -0.6875,-0.1676 -0.9125,-0.11597 -0.5,0.11472 1.22601,0.68565 0.85178,4.07206 -0.5,4.52447 -0.6875,0.23008 0.0936,0.20403 1.73571,-0.0579 1.64214,-0.26194 3.48638,-1.16095 4.0983,-1.9978 z m 10.95643,0.25971 c -2.05134,-1.57305 -3.69053,-1.52543 -4.24006,0.12316 -0.17855,0.53563 1.14333,1.06514 2.9375,1.17669 3.09305,0.1923 3.16056,0.12494 1.30256,-1.29985 z m 11.14267,-0.66321 c -0.31922,-0.79773 -0.55618,-0.56078 -0.60416,0.60417 -0.0434,1.05416 0.19292,1.64479 0.52522,1.3125 0.33229,-0.3323 0.36781,-1.1948 0.0789,-1.91667 z m 49.00622,-2.5625 c -0.25153,-0.9625 -0.45733,-0.175 -0.45733,1.75 0,1.925 0.2058,2.7125 0.45733,1.75 0.25152,-0.9625 0.25152,-2.5375 0,-3.5 z m -109.689326,2.75 c 1.21296,-0.78387 1.06944,-0.97231 -0.75,-0.98469 -1.2375,-0.008 -2.25,0.43469 -2.25,0.98469 0,1.25292 1.06124,1.25292 3,0 z m 56.999996,0.059 c 0,-1.67642 -1.77354,-2.09154 -2.36383,-0.55327 -0.3483,0.90765 0.003,1.49425 0.89521,1.49425 0.80774,0 1.46862,-0.42344 1.46862,-0.94098 z m 14.99552,0.15876 c 0.002,-0.15522 -0.97484,-0.6445 -2.17178,-1.08728 l -2.17626,-0.80505 2.17626,-0.5691 c 1.19694,-0.31301 2.17626,-0.17536 2.17626,0.30588 0,0.48125 0.65382,0.62411 1.45294,0.31746 1.15744,-0.44416 1.21529,-0.93807 0.28447,-2.42856 -1.06302,-1.70215 -1.32382,-1.73041 -2.88992,-0.31311 -0.94681,0.85685 -2.13352,1.30323 -2.63715,0.99197 -1.33392,-0.8244 -4.63488,1.87408 -3.84866,3.14621 0.5574,0.90188 7.62003,1.31041 7.63384,0.44158 z m 14.73365,0.17806 c -0.3323,-0.33229 -1.1948,-0.36782 -1.91667,-0.079 -0.79773,0.31922 -0.56078,0.55618 0.60417,0.60416 1.05416,0.0434 1.64479,-0.19293 1.3125,-0.52522 z M 61.069724,434.93357 c -2.1016,-1.925 -4.08307,-3.5 -4.40325,-3.5 -0.32018,0 -2.33999,-1.6875 -4.48846,-3.75 -3.8209,-3.66801 -3.87153,-3.68441 -2.31561,-0.75 3.1423,5.92625 9.46998,11.5 13.05552,11.5 1.61185,0 1.2736,-0.64054 -1.8482,-3.5 z M 165.5,437.99259 c 0,-0.24254 -0.45,-0.7191 -1,-1.05902 -0.55,-0.33992 -1,-0.14148 -1,0.44098 0,0.58246 0.45,1.05902 1,1.05902 0.55,0 1,-0.19844 1,-0.44098 z m -77.999996,-1 c 0,-0.24254 -0.45,-0.7191 -1,-1.05902 -0.55,-0.33992 -1,-0.14148 -1,0.44098 0,0.58246 0.45,1.05902 1,1.05902 0.55,0 1,-0.19844 1,-0.44098 z m 49.729166,-1.16319 c -0.3323,-0.33229 -1.1948,-0.36782 -1.91667,-0.0789 -0.79773,0.31923 -0.56078,0.55619 0.60417,0.60417 1.05416,0.0434 1.64479,-0.19293 1.3125,-0.52522 z m 9.0657,-4.143 c -0.57187,-0.68905 -1.54716,-1.2173 -2.16731,-1.17388 -0.71014,0.0497 -0.66545,0.26545 0.12072,0.58276 0.79515,0.32093 1.02431,1.47202 0.63127,3.17105 -0.59451,2.56995 -0.56098,2.59439 0.91903,0.67007 1.08923,-1.4162 1.23359,-2.3616 0.49629,-3.25 z m -54.794866,1.64018 c 0,-1.43762 -1.73512,-1.02567 -2.34208,0.55606 -0.37166,0.96852 -0.0755,1.26467 0.89301,0.89301 0.79699,-0.30583 1.44907,-0.95791 1.44907,-1.44907 z m 17.529346,1.15447 c -0.32378,-0.52388 0.65674,-1.60506 2.17894,-2.40262 2.43848,-1.27765 3.12586,-1.26492 5.77967,0.10704 2.80469,1.44996 2.91626,1.44169 1.6206,-0.12026 -1.20891,-1.45737 -1.18358,-1.59766 0.19307,-1.06939 0.87148,0.33442 1.72263,1.14511 1.89144,1.80152 0.20129,0.78272 0.93477,0.55579 2.13114,-0.65936 1.76636,-1.79407 1.76062,-1.86947 -0.1808,-2.37716 -1.36333,-0.35652 -1.80722,-1.05286 -1.38698,-2.17579 0.53744,-1.4361 0.39801,-1.47249 -1.0692,-0.27901 -1.04676,0.85146 -1.68723,0.95828 -1.68723,0.28138 0,-0.60008 -0.62948,-0.84951 -1.39885,-0.55427 -0.76937,0.29523 -1.69592,0.0561 -2.05902,-0.53139 -0.3643,-0.58945 0.065,-1.06817 0.95787,-1.06817 0.89949,0 1.32294,-0.47748 0.95352,-1.07521 -0.42544,-0.68837 -1.60506,-0.23865 -3.27876,1.25 -1.43783,1.27887 -2.05587,1.59267 -1.37342,0.69735 2.15082,-2.82173 -1.93007,-2.90615 -4.80134,-0.0993 -2.2613,2.21054 -2.29145,2.33806 -0.31574,1.33553 2.99848,-1.52151 3.31574,-1.42282 3.31574,1.03141 0,1.17686 -0.74375,2.6836 -1.65278,3.34829 -1.41747,1.03648 -1.22658,3.51195 0.27081,3.51195 0.275,0 0.23509,-0.42863 -0.0887,-0.95252 z m -5.13236,-0.88081 c 0.28327,-0.45834 -0.12038,-0.83334 -0.89699,-0.83334 -0.77661,0 -1.18026,0.375 -0.89699,0.83334 0.28326,0.45833 0.68691,0.83333 0.89699,0.83333 0.21008,0 0.61373,-0.375 0.89699,-0.83333 z m 50.90125,-4.26843 c -1.63763,-1.63763 -3.29824,-0.1861 -3.29824,2.883 l 0,2.6632 2.21111,-2.21111 c 1.63667,-1.63667 1.91911,-2.50312 1.08713,-3.33509 z M 173.5,433.43357 c 0,-0.55 -0.64844,-1 -1.44098,-1 -0.79254,0 -1.7191,0.45 -2.05902,1 -0.33992,0.55 0.30852,1 1.44098,1 1.13246,0 2.05902,-0.45 2.05902,-1 z m -35,-1 c 0,-0.55 -0.42344,-1 -0.94098,-1 -0.51754,0 -1.2191,0.45 -1.55902,1 -0.33992,0.55 0.0835,1 0.94098,1 0.85746,0 1.55902,-0.45 1.55902,-1 z m 37.5,0 c 0.33992,-0.55 0.14148,-1 -0.44098,-1 -0.58246,0 -1.05902,0.45 -1.05902,1 0,0.55 0.19844,1 0.44098,1 0.24254,0 0.7191,-0.45 1.05902,-1 z m -6.94006,-1.90301 c -0.23081,-0.37346 1.01129,-0.51861 2.76021,-0.32257 1.82137,0.20417 4.03428,-0.29554 5.17985,-1.16969 1.87054,-1.42735 1.667,-1.52037 -3.14445,-1.43716 -3.72096,0.0643 -5.91684,0.70486 -7.93589,2.31479 l -2.79144,2.22582 3.17569,-0.46609 c 1.74662,-0.25635 2.98684,-0.77165 2.75603,-1.1451 z m -69.559936,-0.097 c 0,-0.55 -0.19844,-1 -0.44098,-1 -0.24254,0 -0.7191,0.45 -1.05902,1 -0.33992,0.55 -0.14148,1 0.44098,1 0.58246,0 1.05902,-0.45 1.05902,-1 z M 134.5,429.99258 c 0,-1.05548 -1.91911,-1.49891 -2.48992,-0.57533 -0.34546,0.55897 0.0734,1.01631 0.9309,1.01631 0.85746,0 1.55902,-0.19844 1.55902,-0.44098 z m -6,-2.11804 c 0,-0.85746 -0.45734,-1.27636 -1.01631,-0.9309 -0.55897,0.34546 -0.75742,1.04702 -0.44098,1.55902 0.85723,1.38704 1.45729,1.12841 1.45729,-0.62812 z m 19.88158,0.80902 c -0.0651,-0.4125 -0.0276,-1.0875 0.0833,-1.5 0.11097,-0.4125 0.23232,-2.4375 0.26968,-4.5 0.0374,-2.0625 0.51065,-4.03913 1.05176,-4.39251 0.54112,-0.35339 0.023,-1.15672 -1.15125,-1.78519 -1.60415,-0.85851 -2.1351,-0.85702 -2.1351,0.006 0,0.7111 -1.1592,0.97855 -3.04295,0.70208 -2.47317,-0.36299 -2.92283,-0.15019 -2.40146,1.1365 0.35281,0.87071 0.88653,3.30893 1.18603,5.41826 0.37632,2.65029 1.19549,4.09822 2.65147,4.68662 2.71703,1.09802 3.63531,1.1581 3.48849,0.22823 z m -4.24612,-6.68361 c -1.99539,-3.04535 -2.03102,-3.56639 -0.24387,-3.56639 0.76538,0 1.68728,1.1781 2.04867,2.618 0.89515,3.56655 0.16283,3.95137 -1.8048,0.94839 z m -20.22355,3.44552 c -0.65079,-0.65079 -1.04305,-0.25853 -1.14908,1.14908 -0.12125,1.60963 0.12265,1.85353 0.98809,0.98809 0.75682,-0.75682 0.81178,-1.48638 0.16099,-2.13717 z M 158.5,427.43356 c 0,-0.55 -0.19844,-1 -0.44098,-1 -0.24254,0 -0.7191,0.45 -1.05902,1 -0.33992,0.55 -0.14148,1 0.44098,1 0.58246,0 1.05902,-0.45 1.05902,-1 z m -50,-5.49675 c 0,-0.14265 -1.575,0.45451 -3.5,1.32704 -1.925,0.87252 -3.5,2.19055 -3.5,2.92895 0,0.87062 1.23029,0.40415 3.5,-1.32704 1.925,-1.46827 3.5,-2.78629 3.5,-2.92895 z m 59.3562,1.95094 c 2.55409,-1.95019 4.6438,-3.98675 4.6438,-4.52568 0,-1.16296 -5.13034,1.34469 -7.40526,3.61961 -1.01196,1.01196 -1.59474,1.15845 -1.59474,0.40086 0,-0.90249 -0.3661,-0.89004 -1.5,0.051 -1.86977,1.55177 -1.95778,4 -0.1438,4 0.74591,0 3.44591,-1.59561 6,-3.54581 z m -41.67309,0.35831 c -0.31922,-0.79773 -0.55618,-0.56078 -0.60416,0.60417 -0.0434,1.05416 0.19292,1.64479 0.52522,1.3125 0.33229,-0.3323 0.36781,-1.1948 0.0789,-1.91667 z m 30.22936,-3.64583 c -1.82178,-0.66551 -0.84895,-2.87637 1.83753,-4.17601 2.45336,-1.18686 2.53695,-1.37856 0.77493,-1.77718 -1.08628,-0.24575 -2.54878,-1.18182 -3.25,-2.08015 -1.16787,-1.49617 -1.40089,-1.47033 -2.77493,0.3078 -0.825,1.06762 -1.5,1.60356 -1.5,1.19098 0,-0.41258 -0.50779,-0.43631 -1.12842,-0.0528 -0.77149,0.47681 -0.61334,0.98565 0.5,1.60871 0.89563,0.50122 1.62842,1.98465 1.62842,3.29652 0,1.31186 0.50519,3.652 1.12264,5.20031 l 1.12264,2.8151 1.28983,-3 c 0.71238,-1.65692 0.88132,-3.14923 0.37736,-3.33334 z m -34.83596,3.91666 c 0.0421,-0.32083 0.22269,-1.33967 0.40135,-2.26409 0.23217,-1.20124 -0.14629,-1.50445 -1.32651,-1.06277 -1.34839,0.50461 -1.43252,0.34816 -0.45855,-0.85278 1.72458,-2.12648 0.25121,-3.67119 -2.6928,-2.82317 -2.45624,0.70751 -2.44895,0.72186 0.41667,0.8198 3.95461,0.13515 2.47103,1.35561 -2.16923,1.7845 -2.69747,0.24932 -3.32951,0.0735 -2.2558,-0.62759 2.20639,-1.44064 0.0536,-3.01038 -3.24164,-2.36373 -2.85691,0.56063 -3.84069,2.3065 -1.29969,2.3065 0.79767,0 1.81017,0.5625 2.25,1.25 0.94756,1.48114 4.50475,1.66172 5.49532,0.27896 0.91172,-1.2727 1.87453,-0.24763 2.05825,2.19134 0.12825,1.70249 2.62027,2.90587 2.82263,1.36303 z m 11.73991,-1.83333 c -0.25318,-2.2004 -0.89652,-2.81618 -3.21899,-3.08115 -2.69917,-0.30793 -2.78677,-0.21533 -1.25,1.32143 0.90891,0.90892 1.65257,2.29543 1.65257,3.08115 0,0.78571 0.70489,1.42857 1.56642,1.42857 1.11887,0 1.47602,-0.78573 1.25,-2.75 z m 7.15178,2 c -0.0175,-0.4125 -0.6925,-1.62351 -1.5,-2.69113 -1.49763,-1.98004 -1.95533,-0.99187 -0.86121,1.85934 0.6108,1.59171 2.42046,2.22921 2.36121,0.83179 z m 11.39343,-2.75 c -0.62715,-1.63433 -2.36163,-2.06275 -2.36163,-0.58333 0,0.759 0.70084,1.27571 2.71862,2.00438 0.12023,0.0434 -0.0404,-0.59605 -0.35699,-1.42105 z m 13.32148,-2.6875 c -0.31922,-0.79773 -0.55618,-0.56078 -0.60416,0.60417 -0.0434,1.05416 0.19292,1.64479 0.52522,1.3125 0.33229,-0.3323 0.36781,-1.1948 0.0789,-1.91667 z m -37.25454,-2.38393 c 0.86429,-0.86428 1.57143,-1.25918 1.57143,-0.87755 0,0.38163 0.675,0.13367 1.5,-0.55102 0.825,-0.68469 1.5,-1.63979 1.5,-2.12245 0,-1.21215 -3.73942,-1.10819 -4.50167,0.12515 -0.83555,1.35196 -4.49833,-0.62741 -4.49833,-2.4309 0,-0.7468 -0.77378,-1.65475 -1.71952,-2.01766 -0.94574,-0.36292 -1.39964,-0.33997 -1.00868,0.051 0.39097,0.39096 0.15225,1.40112 -0.53048,2.24481 -0.99015,1.22358 -0.98839,1.38201 0.009,0.78299 0.6875,-0.41304 1.25,-0.27442 1.25,0.30804 0,0.58246 -0.5625,1.07333 -1.25,1.09082 -0.71668,0.0182 -0.44049,0.64455 0.64733,1.46797 1.04352,0.78989 2.35749,1.15176 2.91993,0.80415 0.61978,-0.38304 0.77107,0.0235 0.38406,1.03203 -0.82637,2.1535 1.60593,2.21394 3.72725,0.0926 z m 39.09578,-6.19221 c -1.59661,-1.505 -2.30362,-1.93799 -1.57114,-0.96219 1.48052,1.9723 1.52679,1.89031 -1.95321,3.46164 l -2.5,1.12883 2.55,0.0677 c 1.4025,0.0372 3.11666,-0.49482 3.80925,-1.18232 1.01024,-1.00283 1.11955,-0.85452 0.55282,0.75 -0.58379,1.65279 -0.47019,1.78063 0.65439,0.73636 1.13424,-1.05324 0.87747,-1.71924 -1.54211,-4 z m -17.07714,-0.32177 c -0.32197,-0.52097 -1.01165,-0.68378 -1.53262,-0.3618 -0.52097,0.32197 -0.68378,1.01165 -0.3618,1.53262 0.32197,0.52097 1.01165,0.68378 1.53262,0.3618 0.52097,-0.32197 0.68378,-1.01165 0.3618,-1.53262 z M 161.5,411.43356 c 1.82797,-1.18132 0.24909,-1.18132 -2.5,0 -1.31874,0.56668 -1.48906,0.87815 -0.5,0.9144 0.825,0.0302 2.175,-0.38124 3,-0.9144 z m -34,-1 c 0,-0.55 -0.45,-1 -1,-1 -0.55,0 -1,0.45 -1,1 0,0.55 0.45,1 1,1 0.55,0 1,-0.45 1,-1 z m 6,-0.44098 c 0,-0.24254 -0.45,-0.7191 -1,-1.05902 -0.55,-0.33992 -1,-0.14148 -1,0.44098 0,0.58246 0.45,1.05902 1,1.05902 0.55,0 1,-0.19844 1,-0.44098 z m 14,-5.72569 c 0,-3.95169 -1.29697,-5.10779 -2.42688,-2.16328 -0.35247,0.91853 -0.0631,2.07779 0.64301,2.57613 1.01744,0.71805 1.02447,1.01134 0.0339,1.41328 -1.73123,0.70247 -1.56873,2.00721 0.25,2.00721 1.07246,0 1.5,-1.0926 1.5,-3.83334 z m 16,3.62813 c 0,-0.1462 -1.36541,-0.74179 -3.03425,-1.32355 -1.66883,-0.58176 -2.78832,-0.65984 -2.48775,-0.17351 0.30057,0.48633 -0.24652,1.05985 -1.21576,1.27449 -0.96923,0.21464 0.15026,0.41234 2.48776,0.43932 2.3375,0.027 4.25,-0.0706 4.25,-0.21675 z m -9.87244,-2.12518 c 1.24448,-1.5086 1.16266,-1.55194 -0.87756,-0.46482 -2.32696,1.23991 -2.89993,2.12854 -1.37244,2.12854 0.48265,0 1.49515,-0.74867 2.25,-1.66372 z"
       id="path4147"
       inkscape:connector-curvature="0" />
  </g>
</svg>
