<?xml version="1.0" encoding="UTF-8" standalone="no"?>
<svg
   xmlns:dc="http://purl.org/dc/elements/1.1/"
   xmlns:cc="http://creativecommons.org/ns#"
   xmlns:rdf="http://www.w3.org/1999/02/22-rdf-syntax-ns#"
   xmlns:svg="http://www.w3.org/2000/svg"
   xmlns="http://www.w3.org/2000/svg"
   id="svg828"
   version="1.1"
   viewBox="0 0 106.26845 128.01906"
   height="483.85156"
   width="401.64453">
  <defs
     id="defs822" />
  <metadata
     id="metadata825">
    <rdf:RDF>
      <cc:Work
         rdf:about="">
        <dc:format>image/svg+xml</dc:format>
        <dc:type
           rdf:resource="http://purl.org/dc/dcmitype/StillImage" />
        <dc:title></dc:title>
      </cc:Work>
    </rdf:RDF>
  </metadata>
  <g
     transform="translate(-47.097899,-61.155955)"
     id="layer1">
    <path
       id="rect830"
       transform="scale(0.26458333)"
       d="m 212.74414,231.14062 c -18.79302,0 -33.92383,15.12886 -33.92383,33.92188 0,18.79302 15.13081,33.92188 33.92383,33.92188 h 32.59961 v 5.67773 H 237.5 c -6.52929,0 -11.78516,5.25782 -11.78516,11.78711 v 11.42773 c 0,6.52929 5.25587,11.78516 11.78516,11.78516 h 17.83008 c 6.12591,6.09015 14.57493,9.8457 23.93554,9.8457 9.36062,0 17.81159,-3.75555 23.9375,-9.8457 h 17.51172 c 6.52929,0 11.78516,-5.25587 11.78516,-11.78516 v -11.42773 c 0,-6.52929 -5.25587,-11.78711 -11.78516,-11.78711 h -7.52539 v -31.83594 c 0,-2.14966 -0.20718,-4.24852 -0.58593,-6.28515 0.0209,-0.49085 0.0371,-0.98235 0.0371,-1.47852 10e-6,-18.79302 -15.12885,-33.92188 -33.92187,-33.92188 z m 265.83203,0 c -18.79302,0 -33.92187,15.12886 -33.92187,33.92188 0,0.4988 0.016,0.9929 0.0371,1.48633 -0.37784,2.03428 -0.58399,4.13033 -0.58399,6.27734 v 31.83594 H 437.5 c -6.52929,0 -11.78516,5.25782 -11.78516,11.78711 v 11.42773 c 0,6.52929 5.25587,11.78516 11.78516,11.78516 h 16.59375 c 6.12591,6.09011 14.57497,9.8457 23.93555,9.8457 9.36058,0 17.80964,-3.75559 23.93554,-9.8457 h 18.75 c 6.52929,0 11.78516,-5.25587 11.78516,-11.78516 v -11.42773 c 0,-6.52929 -5.25587,-11.78711 -11.78516,-11.78711 h -8.76367 v -5.67773 h 32.59961 c 18.79302,0 33.92188,-15.12886 33.92188,-33.92188 0,-18.79302 -15.12886,-33.92188 -33.92188,-33.92188 z M 273.24805,352.2793 c -44.1847,0 -79.75586,23.57606 -79.75586,52.86132 v 144.0254 c -6.82314,2.41299 -12.44779,8.65884 -15.48438,16.93164 3.92603,10.69564 12.16956,18.03125 21.75,18.03125 h 358.14453 c 9.58046,0 17.82398,-7.33553 21.75,-18.03125 -3.03687,-8.27353 -8.66241,-14.51911 -15.48632,-16.93164 v -144.0254 c 0,-29.28526 -35.57314,-52.86132 -79.75782,-52.86132 z m 31.77734,47.43554 h 147.23828 c 27.66558,0 49.9375,17.11583 49.9375,38.37696 v 27.29101 c 0,21.26113 -22.27192,38.37696 -49.9375,38.37696 H 305.02539 c -27.66558,0 -49.9375,-17.11583 -49.9375,-38.37696 V 438.0918 c 0,-21.26113 22.27192,-38.37696 49.9375,-38.37696 z m -3.98437,11.11133 c -16.71991,0 -30.17969,13.45978 -30.17969,30.17969 v 21.46289 c 0,16.71991 13.45978,30.17969 30.17969,30.17969 h 155.20703 c 16.7199,0 30.17968,-13.45978 30.17968,-30.17969 v -21.46289 c 0,-16.71991 -13.45978,-30.17969 -30.17968,-30.17969 z m 48.60156,13.12305 h 104.64258 c 9.49714,0 17.14257,7.64543 17.14257,17.14258 0,9.49714 -7.64543,17.14258 -17.14257,17.14258 H 349.64258 c -9.49714,0 -17.14258,-7.64544 -17.14258,-17.14258 0,-9.49715 7.64544,-17.14258 17.14258,-17.14258 z M 193.49219,594.2793 v 88.72851 c 0,17.71941 35.57116,31.98438 79.75586,31.98438 H 484.4082 c 44.18468,0 79.75782,-14.26497 79.75782,-31.98438 V 594.2793 Z"
       style="opacity:1;fill:#000000;fill-opacity:1;fill-rule:evenodd;stroke:none;stroke-width:6.00580692;stroke-linecap:round;stroke-linejoin:miter;stroke-miterlimit:4;stroke-dasharray:none;stroke-opacity:1" />
  </g>
</svg>
