<?xml version="1.0" encoding="utf-8"?>
<!DOCTYPE svg PUBLIC "-//W3C//DTD SVG 1.1//EN" "http://www.w3.org/Graphics/SVG/1.1/DTD/svg11.dtd">
<svg xmlns="http://www.w3.org/2000/svg" enable-background="new -0.258 -0.548 123.547 123.539" viewBox="-0.258 -0.548 123.547 123.539" xml:space="preserve">
	<g fill="#000000">
		<path d="m90.625,107.004c-5.172,0-9.703-4.25-9.703-9.102v-36.14c0-1.648-1.344-2.992-2.992-2.992h-7.188l-.039,47.992-38.07-.633v-82.149c0-4.289 3.5-7.781 7.797-7.781h22.477c4.297,0 7.797,3.492 7.797,7.781v.93c0,5.031-.023,28.734-.562,28.766h7.703c4.406,0 7.984,3.578 7.984,7.984l-.047,36.242c0,2.391 2.602,4.242 4.844,4.242 2.422,0 5.492-2 5.352-5.359l-3.836-20.68-.852-7.008 .609-20.438-1.711-.023c-3.812,0-6.898-3.078-6.898-6.875l.188-10.695c0,0-6.336-6.289-6.336-7.172 0,0 2.438-2.43 3.32-2.43l12.766,12.703c2,2.016 2.969,4.414 2.969,7.367v27.562c0,0 .789,5.969.789,6.016 0,0 3.906,21.586 3.992,22.789-.001,5.22-5.47,9.103-10.353,9.103zm18.461-107.781h-94.024c-8.148,0-14.766,6.617-14.766,14.773v94.008c0,8.156 6.617,14.773 14.766,14.773h94.023c8.148,0 14.766-6.617 14.766-14.773v-94.008c.001-8.156-6.617-14.773-14.765-14.773z" fill="#000000"/>
		<path d="m15.062,1.723c-6.766,0-12.266,5.508-12.266,12.273v94.008c0,6.773 5.5,12.281 12.266,12.281h94.023c6.773,0 12.266-5.508 12.266-12.281v-94.008c0-6.766-5.492-12.273-12.266-12.273h-94.023z" fill="#ffffff"/>
		<path d="m65.055,42.934c0,1.195-.945,2.125-2.148,2.125h-22.477c-1.211,0-2.148-.93-2.148-2.125v-18.954c0-1.195.938-2.125 2.148-2.125h22.477c1.203,0 2.148.93 2.148,2.125v18.954zm26.203,2.421c-2.844-.625-3.875-2.086-3.875-3.43v-4.898c0,0 1.891.422 2.344.539 .922.242 1.508,1.656 1.531,2.891 .031,1.234 0,4.898 0,4.898zm5.726,29.758c0-.047-.789-6.016-.789-6.016v-27.562c0-2.953-.969-5.352-2.969-7.367l-12.765-12.703c-.883,0-3.32,2.43-3.32,2.43 0,.883 6.336,7.172 6.336,7.172l-.188,10.695c0,3.797 3.086,6.875 6.898,6.875l1.711.023-.609,20.438 .852,7.008 3.836,20.68c.141,3.359-2.93,5.359-5.352,5.359-2.242,0-4.844-1.852-4.844-4.242l.047-36.242c0-4.406-3.578-7.984-7.984-7.984h-7.703c.539-.031.562-23.734.562-28.766v-.93c0-4.289-3.5-7.781-7.797-7.781h-22.476c-4.297,0-7.797,3.492-7.797,7.781v82.148l38.07.633 .039-47.992h7.188c1.648,0 2.992,1.344 2.992,2.992v36.141c0,4.852 4.531,9.102 9.703,9.102 4.883,0 10.352-3.883 10.352-9.102-.086-1.204-3.993-22.79-3.993-22.79z" fill="#000000"/> 
	</g>
</svg>
