<?xml version="1.0" encoding="UTF-8" standalone="no"?>
<!-- Created with Inkscape (http://www.inkscape.org/) -->

<svg
   xmlns:dc="http://purl.org/dc/elements/1.1/"
   xmlns:cc="http://creativecommons.org/ns#"
   xmlns:rdf="http://www.w3.org/1999/02/22-rdf-syntax-ns#"
   xmlns:svg="http://www.w3.org/2000/svg"
   xmlns="http://www.w3.org/2000/svg"
   version="1.0"
   width="468pt"
   height="468pt"
   viewBox="0 0 468 468"
   id="svg2">
  <defs
     id="defs12" />
  <metadata
     id="metadata4">
Created by potrace 1.8, written by Peter Selinger 2001-2007
<rdf:RDF>
  <cc:Work
     rdf:about="">
    <dc:format>image/svg+xml</dc:format>
    <dc:type
       rdf:resource="http://purl.org/dc/dcmitype/StillImage" />
    <dc:title></dc:title>
  </cc:Work>
</rdf:RDF>
</metadata>
  <g
     transform="matrix(0.92809982,0,0,1.0774703,3.9661017,29.745763)"
     id="text2990"
     style="fill:#000000">
    <path
       d="m 133.53428,276.73193 45.10187,-117.44109 16.74297,0 48.06593,117.44109 -17.70429,0 -13.69879,-35.56879 -49.10736,0 -12.89769,35.56879 z m 33.88648,-48.22615 39.81462,0 -12.25681,-32.52461 c -3.73852,-9.88013 -6.51566,-17.99792 -8.33143,-24.35341 -1.49544,7.53043 -3.605,15.00734 -6.32868,22.43077 z"
       id="path2988" />
    <path
       d="m 255.86208,276.73193 0,-117.44109 15.94187,0 61.68461,92.20648 0,-92.20648 14.90044,0 0,117.44109 -15.94187,0 -61.68461,-92.28659 0,92.28659 z"
       id="path2990" />
  </g>
  <path
     d="m 224.47837,5.5411787 c -56.76789,0.9397803 -59.55705,1.0964104 -63.98693,4.2290111 -5.74241,4.0723812 -8.53158,11.4339922 -8.53158,23.3378752 -0.16407,18.012455 5.90649,27.566888 19.19606,29.916338 3.2814,0.62652 7.05498,2.349451 8.20347,4.072382 1.47661,1.87956 4.2658,2.81934 8.69565,2.81934 5.74242,0 6.39869,0.46989 6.39869,3.915751 0,2.97597 -0.98442,4.072383 -4.42986,4.6989 -12.96145,2.662715 -38.88437,11.277363 -50.3692,16.602786 -12.96145,6.265198 -29.69649,16.289518 -31.33718,18.638978 -0.49221,0.78315 -3.44544,0 -6.56275,-1.87957 -3.609523,-1.87955 -7.219043,-2.81934 -9.51601,-2.19281 -4.92207,1.0964 -29.040222,24.90416 -29.040222,28.50666 0,1.72293 1.312552,5.01215 2.953242,7.67487 l 2.953243,4.6989 -7.219038,9.3978 c -14.109935,18.32572 -26.907319,47.9288 -32.64973,75.65231 -4.101731,20.04865 -3.609519,54.35063 0.984414,75.0258 18.703868,85.05011 85.808091,145.03941 175.553861,157.25655 16.73504,2.19282 51.68174,0.93978 68.25271,-2.50608 73.01071,-15.03648 129.94267,-61.55561 153.24047,-124.99077 16.4069,-44.95282 16.4069,-91.78521 0,-136.89466 -5.57835,-15.19311 -15.25842,-33.20556 -23.95408,-44.79619 l -5.74241,-7.36161 4.26579,-4.85553 c 7.05497,-7.98813 5.90649,-11.43399 -8.53159,-25.21743 -14.60214,-13.78345 -20.01643,-15.50637 -27.39953,-8.45802 l -3.93765,3.75911 -8.69567,-5.79531 C 334.73275,98.266163 305.85661,85.579129 285.51205,81.036857 c -7.54718,-1.72293 -8.20346,-2.192819 -8.20346,-6.42183 0,-4.385642 0.49222,-4.698902 5.90649,-4.698902 4.10173,0 6.89089,-1.096411 9.35194,-3.915751 1.96882,-2.19282 4.75799,-3.915751 6.23461,-3.915751 5.57835,0 13.61773,-5.168791 16.07878,-10.180953 3.77358,-7.361611 3.60951,-28.036777 -0.32814,-35.085128 -4.26581,-8.1447624 -9.84416,-11.2773633 -21.00084,-11.7472534 -5.25021,-0.31326 -36.42332,0 -69.07306,0.4698901 z m 26.74324,15.8196343 49.54884,0 0.98443,4.072381 c 0.65626,2.34945 0.65626,7.988132 0,12.530403 -1.31256,10.024322 -5.41428,12.530403 -10.33636,6.578462 l -3.1173,-3.602491 -51.84582,-0.469891 -51.8458,-0.46989 -4.26581,4.072382 c -4.59392,4.38564 -9.68006,5.168791 -11.15669,1.40967 -0.4922,-1.40967 -0.98441,-7.048352 -0.98441,-12.530404 0,-12.530402 1.64068,-13.470182 20.50863,-12.373772 7.21903,0.46989 35.43891,0.78315 62.51029,0.78315 z M 225.62685,124.42337 c 0,19.42213 0.98441,22.24147 7.3831,22.24147 6.3987,0 7.38311,-2.81934 7.38311,-22.24147 l 0,-18.48233 7.05497,0.78314 c 17.06318,2.19283 27.39952,4.07238 35.43891,6.42183 9.516,2.66272 9.35194,2.0362 4.10173,15.19312 -3.44545,8.61464 -2.1329,12.5304 4.59392,13.31355 4.92209,0.62653 8.20345,-2.81933 11.97705,-12.68703 1.64069,-4.07238 3.44545,-7.36162 3.93765,-7.36162 2.29696,0 23.62594,12.68704 32.97787,19.57876 l 10.00821,7.36161 -13.94587,13.78345 c -7.71124,7.51824 -14.10992,14.40995 -14.10992,15.03648 0,3.28923 5.41427,8.45802 8.69565,8.45802 2.29697,0 8.53159,-4.69889 17.22725,-13.0003 l 13.61773,-12.84366 4.10173,4.6989 c 11.48483,13.15693 25.26661,35.39839 22.64152,36.33817 -0.82035,0.31327 -5.57834,2.50608 -10.50042,4.85553 -7.21903,3.28924 -9.18787,5.16879 -9.51599,8.45802 -0.32814,2.81934 0.65626,4.85554 2.95323,6.42184 3.28138,2.19282 4.42987,2.0362 13.28959,-1.40967 5.41427,-2.19283 10.50042,-3.44586 11.32077,-2.97597 1.80476,1.09642 7.71124,25.53069 9.18787,37.90447 l 1.14847,9.86769 -19.68828,0 c -20.6727,0 -23.46187,0.93979 -23.46187,7.20499 0,6.57846 5.57834,8.45801 25.26663,8.45801 l 17.88352,0 -1.14847,9.71106 c -1.1485,9.8677 -6.72684,34.77188 -8.36753,37.43459 -0.49221,0.78315 -5.08614,-0.46989 -10.17228,-2.50609 -11.48483,-4.85553 -14.93029,-4.85553 -17.22724,0 -2.62511,5.48205 1.31255,10.33759 11.64889,14.09671 4.59393,1.72294 8.36753,3.75912 8.36753,4.54228 0,4.229 -24.77443,40.09729 -27.72767,40.09729 -0.49221,0 -6.8909,-5.6387 -14.10994,-12.53041 -7.38311,-7.04836 -14.43807,-12.5304 -16.24282,-12.5304 -3.93766,0 -9.18787,4.38563 -9.18787,7.51824 0,1.25304 6.23461,8.45802 13.94586,15.97626 l 14.10993,13.62682 -7.71124,5.95193 c -7.54718,5.95194 -32.81381,21.14506 -35.11077,21.14506 -0.65627,0 -2.95325,-4.22901 -4.92207,-9.3978 -3.93766,-9.8677 -7.71125,-13.31356 -12.96146,-11.74726 -6.72682,2.0362 -7.05497,4.54228 -2.46102,15.66301 2.46102,5.95194 3.77358,10.9641 2.95323,11.74724 -2.78917,2.34946 -36.25925,8.92793 -48.56443,9.39782 -0.82034,0 -1.31255,-8.77129 -1.31255,-19.57876 0,-18.32572 -0.16407,-19.57876 -3.44545,-21.30169 -2.62511,-1.25303 -4.59393,-1.25303 -7.3831,0 -3.77359,1.56631 -3.93766,2.19283 -3.93766,21.30169 l 0,19.73538 -8.53159,-0.93978 c -20.01643,-2.19281 -42.32982,-7.51824 -42.32982,-10.02432 0,-0.62652 1.80477,-5.32542 3.93766,-10.49421 4.10173,-9.71106 3.60953,-13.62682 -1.96882,-15.03648 -6.07055,-1.56631 -9.68007,1.40966 -13.45366,11.12073 -1.96882,5.32542 -4.2658,9.55443 -4.92207,9.55443 -2.29697,0 -27.56359,-15.19312 -35.11077,-21.14506 l -7.71125,-5.95193 14.10994,-13.62682 c 7.71125,-7.51824 13.94586,-14.72322 13.94586,-16.1329 0,-3.44586 -4.59392,-7.3616 -8.69565,-7.3616 -2.29697,0 -8.53159,4.6989 -17.06318,12.84365 -11.1567,10.49422 -13.78181,12.37378 -15.75062,10.80748 -5.906493,-4.54227 -25.75885,-34.9285 -25.75885,-39.00088 0,-0.93978 4.10173,-3.1326 9.023801,-5.01216 10.500416,-4.07239 13.617726,-7.83151 10.828556,-13.47018 -2.132905,-4.69891 -5.578347,-4.69891 -17.227253,-0.4699 -5.086135,1.87957 -9.680068,3.13261 -10.008205,2.66272 -1.804764,-1.56631 -7.219038,-25.0608 -8.367525,-35.55503 l -1.148479,-11.12073 18.211657,0 c 15.258424,0 18.539805,-0.46989 21.821185,-2.97597 3.281393,-2.50607 3.609523,-3.60249 2.296973,-7.36162 l -1.64069,-4.54225 -20.344566,-0.4699 -20.344559,-0.46989 1.148479,-9.3978 c 1.148487,-11.74725 7.38311,-37.12131 9.187865,-38.21773 0.656276,-0.31326 5.74242,0.93978 11.156694,3.1326 10.992629,4.22901 14.602144,3.91575 16.078764,-1.5663 1.47663,-5.63868 -1.64069,-9.08454 -10.828556,-12.5304 -4.757996,-1.72293 -8.859727,-3.6025 -9.187865,-4.22901 -1.64069,-2.50608 18.539801,-33.98872 25.102574,-39.00088 1.96881,-1.56631 4.59392,0.31326 15.75062,10.80747 7.3831,7.04835 14.93027,12.84366 16.57096,12.84366 3.93766,0 9.18787,-4.38564 9.18787,-7.51824 0,-1.25304 -6.39868,-8.45802 -14.10992,-15.97626 l -13.94588,-13.78345 9.84414,-7.20498 c 5.41429,-3.91575 15.25842,-10.02432 21.98525,-13.47019 l 12.14111,-6.2652 2.95324,7.36162 c 1.64069,4.229 4.10174,8.77128 5.41429,10.18094 4.59392,5.01217 13.45365,2.66272 13.45365,-3.60248 0,-1.40967 -1.64068,-6.26521 -3.60952,-10.80747 -2.95325,-6.89173 -3.11731,-8.30139 -1.14848,-9.55443 3.93765,-2.34945 29.36836,-7.20499 47.08781,-9.08455 1.47662,-0.15662 1.96883,4.54227 1.96883,18.32571 z"
     style="fill:#000000;fill-opacity:1" />
</svg>
