<?xml version="1.0" encoding="UTF-8" standalone="no"?>
<!-- Created with Inkscape (http://www.inkscape.org/) -->

<svg
   xmlns:dc="http://purl.org/dc/elements/1.1/"
   xmlns:cc="http://creativecommons.org/ns#"
   xmlns:rdf="http://www.w3.org/1999/02/22-rdf-syntax-ns#"
   xmlns:svg="http://www.w3.org/2000/svg"
   xmlns="http://www.w3.org/2000/svg"
   xmlns:sodipodi="http://sodipodi.sourceforge.net/DTD/sodipodi-0.dtd"
   xmlns:inkscape="http://www.inkscape.org/namespaces/inkscape"
   version="1.0"
   width="468pt"
   height="468pt"
   viewBox="0 0 468 468"
   id="svg2"
   inkscape:version="0.91 r13725"
   sodipodi:docname="general_co2.svg">
  <sodipodi:namedview
     pagecolor="#ffffff"
     bordercolor="#666666"
     borderopacity="1"
     objecttolerance="10"
     gridtolerance="10"
     guidetolerance="10"
     inkscape:pageopacity="0"
     inkscape:pageshadow="2"
     inkscape:window-width="1920"
     inkscape:window-height="1153"
     id="namedview10"
     showgrid="false"
     inkscape:zoom="0.4034188"
     inkscape:cx="345.58836"
     inkscape:cy="-226.67935"
     inkscape:window-x="-4"
     inkscape:window-y="-4"
     inkscape:window-maximized="1"
     inkscape:current-layer="text3340" />
  <defs
     id="defs12" />
  <metadata
     id="metadata4">
Created by potrace 1.8, written by Peter Selinger 2001-2007
<rdf:RDF>
  <cc:Work
     rdf:about="">
    <dc:format>image/svg+xml</dc:format>
    <dc:type
       rdf:resource="http://purl.org/dc/dcmitype/StillImage" />
    <dc:title />
  </cc:Work>
</rdf:RDF>
</metadata>
  <g
     transform="matrix(0.189474,0,0,-0.189474,0,468)"
     id="g6"
     fill="#000000"
     stroke="none">
    <path
       d="M 395,2455 C 244,2422 112,2322 57,2200 5,2083 6,2112 2,1260 0,702 2,446 10,400 43,208 198,52 398,11 c 71,-15 1628,-15 1692,0 174,40 322,190 365,370 22,94 22,1579 0,1683 -21,98 -66,187 -127,252 -61,64 -113,98 -201,128 -61,21 -75,21 -867,23 -640,1 -817,-1 -865,-12 z m 1737,-163 c 74,-36 132,-95 170,-170 l 23,-47 0,-840 0,-840 -28,-57 c -37,-76 -96,-134 -171,-169 l -63,-29 -839,2 -839,3 -50,27 C 273,204 196,285 167,348 l -22,47 0,840 0,840 27,52 c 53,100 128,162 227,189 35,10 236,12 856,11 l 810,-2 67,-33 z"
       id="path8" />
  </g>
  <g
     transform="scale(0.91366746,1.0944901)"
     id="text2986"
     fill="#000000"
     stroke="none">
    <g
       transform="scale(1.0944901,0.91366747)"
       style="font-size:169.6000061px;font-style:normal;font-variant:normal;font-weight:normal;font-stretch:normal;text-align:start;line-height:125%;letter-spacing:0px;word-spacing:0px;writing-mode:lr-tb;text-anchor:start;fill:#000000;fill-opacity:1;font-family:Segoe UI Symbol;-inkscape-font-specification:Segoe UI Symbol"
       id="text2987">
      <g
         style="font-style:normal;font-variant:normal;font-weight:normal;font-stretch:normal;font-size:250px;line-height:23.00000042%;font-family:'Segoe UI Symbol';-inkscape-font-specification:'Segoe UI Symbol, Normal';text-align:start;letter-spacing:0px;word-spacing:0px;writing-mode:lr-tb;text-anchor:start;fill:#000000;fill-opacity:1;stroke:none;stroke-width:1px;stroke-linecap:butt;stroke-linejoin:miter;stroke-opacity:1"
         id="text3340">
        <path
           d="m 163.04582,308.02869 q -19.40918,10.2539 -48.33985,10.2539 -37.353513,0 -59.81445,-24.04785 -22.460938,-24.04785 -22.460938,-63.11035 0,-41.99219 25.268555,-67.87109 25.268554,-25.87891 64.086913,-25.87891 24.90234,0 41.25977,7.20215 l 0,21.85058 q -18.79883,-10.49804 -41.50391,-10.49804 -30.151367,0 -48.950195,20.1416 -18.676758,20.1416 -18.676758,53.83301 0,31.98242 17.456055,51.02539 17.578125,18.9209 46.020508,18.9209 26.36719,0 45.6543,-11.71875 l 0,19.89746 z"
           style=""
           id="path3362" />
        <path
           d="m 265.82902,318.28259 q -37.23145,0 -59.69238,-24.53613 -22.33887,-24.53613 -22.33887,-63.84277 0,-42.23633 22.82715,-67.38282 22.82715,-25.14648 62.13379,-25.14648 36.25488,0 58.34961,24.41406 22.21679,24.41406 22.21679,63.84278 0,42.84668 -22.70507,67.74902 -22.70508,24.90234 -60.79102,24.90234 z m 1.46484,-162.35351 q -27.58789,0 -44.7998,19.89746 -17.21192,19.89746 -17.21192,52.24609 0,32.34863 16.72364,52.12403 16.8457,19.65332 43.82324,19.65332 28.80859,0 45.41016,-18.79883 16.60156,-18.79883 16.60156,-52.61231 0,-34.66797 -16.11328,-53.58886 -16.11328,-18.9209 -44.4336,-18.9209 z"
           style=""
           id="path3364" />
      </g>
      <flowRoot
         xml:space="preserve"
         id="flowRoot3346"
         style="fill:black;stroke:none;stroke-opacity:1;stroke-width:1px;stroke-linejoin:miter;stroke-linecap:butt;fill-opacity:1;font-family:'Segoe UI Symbol';font-style:normal;font-weight:normal;font-size:13.99999976px;line-height:125%;letter-spacing:0px;word-spacing:0px;-inkscape-font-specification:'Segoe UI Symbol, Normal';font-stretch:normal;font-variant:normal;text-anchor:start;text-align:start;writing-mode:lr"><flowRegion
           id="flowRegion3348"><rect
             id="rect3350"
             width="374.30084"
             height="240.44492"
             x="76.843224"
             y="106.58898" /></flowRegion><flowPara
           id="flowPara3352"></flowPara></flowRoot>      <g
         style="font-style:normal;font-variant:normal;font-weight:normal;font-stretch:normal;font-size:170px;line-height:125%;font-family:'Segoe UI Symbol';-inkscape-font-specification:'Segoe UI Symbol, Normal';text-align:start;letter-spacing:0px;word-spacing:0px;writing-mode:lr-tb;text-anchor:start;fill:#000000;fill-opacity:1;stroke:none;stroke-width:1px;stroke-linecap:butt;stroke-linejoin:miter;stroke-opacity:1"
         id="text3354">
        <path
           d="m 426.72141,351.00003 -71.71875,0 0,-12.11914 34.69726,-34.78027 q 13.28125,-13.28125 18.92578,-22.08008 5.72754,-8.88184 5.72754,-18.92578 0,-10.29297 -5.89355,-15.9375 -5.89356,-5.64453 -16.76758,-5.64453 -15.9375,0 -30.54688,13.61328 l 0,-14.27735 q 13.94532,-10.87402 32.45606,-10.87402 15.9375,0 25.06836,8.63281 9.13086,8.63281 9.13086,23.15918 0,11.45508 -6.3086,22.41211 -6.30859,10.87402 -22.66113,27.06055 l -27.47559,27.14355 0,0.33203 55.36622,0 0,12.28516 z"
           style=""
           id="path3359" />
      </g>
    </g>
  </g>
</svg>
