<?xml version="1.0" encoding="UTF-8" standalone="no"?>
<!-- Created with Inkscape (http://www.inkscape.org/) -->

<svg
   xmlns:dc="http://purl.org/dc/elements/1.1/"
   xmlns:cc="http://creativecommons.org/ns#"
   xmlns:rdf="http://www.w3.org/1999/02/22-rdf-syntax-ns#"
   xmlns:svg="http://www.w3.org/2000/svg"
   xmlns="http://www.w3.org/2000/svg"
   xmlns:sodipodi="http://sodipodi.sourceforge.net/DTD/sodipodi-0.dtd"
   xmlns:inkscape="http://www.inkscape.org/namespaces/inkscape"
   version="1.0"
   width="468pt"
   height="468pt"
   viewBox="0 0 468 468"
   id="svg2"
   inkscape:version="0.48.4 r9939"
   sodipodi:docname="general_low.svg">
  <sodipodi:namedview
     pagecolor="#ffffff"
     bordercolor="#666666"
     borderopacity="1"
     objecttolerance="10"
     gridtolerance="10"
     guidetolerance="10"
     inkscape:pageopacity="0"
     inkscape:pageshadow="2"
     inkscape:window-width="1858"
     inkscape:window-height="1057"
     id="namedview10"
     showgrid="false"
     inkscape:zoom="0.4034188"
     inkscape:cx="930.58835"
     inkscape:cy="-224.20054"
     inkscape:window-x="1734"
     inkscape:window-y="-8"
     inkscape:window-maximized="1"
     inkscape:current-layer="svg2" />
  <defs
     id="defs12" />
  <metadata
     id="metadata4">
Created by potrace 1.8, written by Peter Selinger 2001-2007
<rdf:RDF>
  <cc:Work
     rdf:about="">
    <dc:format>image/svg+xml</dc:format>
    <dc:type
       rdf:resource="http://purl.org/dc/dcmitype/StillImage" />
    <dc:title></dc:title>
  </cc:Work>
</rdf:RDF>
</metadata>
  <g
     transform="matrix(0.189474,0,0,-0.189474,0,468)"
     id="g6"
     fill="#000000"
     stroke="none">
    <path
       d="M 395,2455 C 244,2422 112,2322 57,2200 5,2083 6,2112 2,1260 0,702 2,446 10,400 43,208 198,52 398,11 c 71,-15 1628,-15 1692,0 174,40 322,190 365,370 22,94 22,1579 0,1683 -21,98 -66,187 -127,252 -61,64 -113,98 -201,128 -61,21 -75,21 -867,23 -640,1 -817,-1 -865,-12 z m 1737,-163 c 74,-36 132,-95 170,-170 l 23,-47 0,-840 0,-840 -28,-57 c -37,-76 -96,-134 -171,-169 l -63,-29 -839,2 -839,3 -50,27 C 273,204 196,285 167,348 l -22,47 0,840 0,840 27,52 c 53,100 128,162 227,189 35,10 236,12 856,11 l 810,-2 67,-33 z"
       id="path8" />
  </g>
  <g
     transform="scale(0.93961657,1.0642639)"
     id="text2987"
     fill="#000000"
     stroke="none">
    <path
       d="m 73.771116,275.53897 0,-115.79278 15.323192,0 0,102.12828 57.027552,0 0,13.6645 z"
       style=""
       id="path2992" />
    <path
       d="m 159.78636,219.1433 c -1e-5,-19.21973 5.16037,-34.26646 15.48116,-45.14022 10.32074,-10.87357 23.64295,-16.3104 39.96668,-16.31052 10.6893,1.2e-4 20.32552,2.55399 28.9087,7.6616 8.58299,5.10784 15.12562,12.22969 19.6279,21.36559 4.50206,9.13607 6.75315,19.49633 6.75327,31.0808 -1.2e-4,11.74256 -2.36969,22.24763 -7.1087,31.51523 -4.73924,9.26765 -11.453,16.28419 -20.14131,21.04964 -8.68849,4.76546 -18.06143,7.14819 -28.11885,7.14819 -10.90005,0 -20.64159,-2.63285 -29.22464,-7.89855 -8.58312,-5.26569 -15.08626,-12.45337 -19.50943,-21.56305 -4.4232,-9.10963 -6.63479,-18.74585 -6.63478,-28.90871 z m 15.7971,0.23696 c -2e-5,13.95415 3.75179,24.94629 11.25544,32.97646 7.50358,8.03021 16.91601,12.0453 28.23733,12.04529 11.53181,10e-6 21.02323,-4.05457 28.47428,-12.16377 7.45087,-8.10915 11.17635,-19.6147 11.17645,-34.51667 -1e-4,-9.42554 -1.59298,-17.65319 -4.77862,-24.68298 -3.18585,-7.02962 -7.84599,-12.47962 -13.98044,-16.35001 -6.13462,-3.87018 -13.01952,-5.80533 -20.65472,-5.80543 -10.8474,1e-4 -20.18084,3.72558 -28.00037,11.17645 -7.81959,7.45105 -11.72937,19.89126 -11.72935,37.32066 z"
       style=""
       id="path2994" />
    <path
       d="m 310.41175,275.53897 -30.72537,-115.79278 15.71812,0 17.61377,75.90509 c 1.89561,7.95124 3.52798,15.84979 4.8971,23.69566 2.94875,-12.37437 4.68643,-19.50939 5.21305,-21.40508 l 22.03696,-78.19567 18.48261,0 16.58696,58.60726 c 4.1598,14.53338 7.16125,28.19786 9.00435,40.99349 1.47429,-7.3193 3.39627,-15.71809 5.76595,-25.19639 l 18.16667,-74.40436 15.40218,0 -31.75219,115.79278 -14.77029,0 -24.40653,-88.22683 c -2.0537,-7.37189 -3.26481,-11.90039 -3.63333,-13.58551 -1.21119,5.31845 -2.34331,9.84695 -3.39638,13.58551 l -24.5645,88.22683 z"
       style=""
       id="path2996" />
  </g>
</svg>
