<?xml version="1.0" encoding="UTF-8" standalone="no"?>
<!-- Created with Inkscape (http://www.inkscape.org/) -->

<svg
   xmlns:dc="http://purl.org/dc/elements/1.1/"
   xmlns:cc="http://creativecommons.org/ns#"
   xmlns:rdf="http://www.w3.org/1999/02/22-rdf-syntax-ns#"
   xmlns:svg="http://www.w3.org/2000/svg"
   xmlns="http://www.w3.org/2000/svg"
   xmlns:sodipodi="http://sodipodi.sourceforge.net/DTD/sodipodi-0.dtd"
   xmlns:inkscape="http://www.inkscape.org/namespaces/inkscape"
   version="1.0"
   width="468pt"
   height="468pt"
   viewBox="0 0 468 468"
   id="svg2"
   inkscape:version="0.48.4 r9939"
   sodipodi:docname="general_fertig.svg">
  <sodipodi:namedview
     pagecolor="#ffffff"
     bordercolor="#666666"
     borderopacity="1"
     objecttolerance="10"
     gridtolerance="10"
     guidetolerance="10"
     inkscape:pageopacity="0"
     inkscape:pageshadow="2"
     inkscape:window-width="1920"
     inkscape:window-height="1153"
     id="namedview10"
     showgrid="false"
     inkscape:zoom="0.4034188"
     inkscape:cx="930.58836"
     inkscape:cy="-224.20054"
     inkscape:window-x="-4"
     inkscape:window-y="-4"
     inkscape:window-maximized="1"
     inkscape:current-layer="text3009" />
  <defs
     id="defs12" />
  <metadata
     id="metadata4">
Created by potrace 1.8, written by Peter Selinger 2001-2007
<rdf:RDF>
  <cc:Work
     rdf:about="">
    <dc:format>image/svg+xml</dc:format>
    <dc:type
       rdf:resource="http://purl.org/dc/dcmitype/StillImage" />
    <dc:title></dc:title>
  </cc:Work>
</rdf:RDF>
</metadata>
  <g
     transform="matrix(0.189474,0,0,-0.189474,0,468)"
     id="g6"
     stroke="none"
     fill="#000000">
    <path
       d="M 395,2455 C 244,2422 112,2322 57,2200 5,2083 6,2112 2,1260 0,702 2,446 10,400 43,208 198,52 398,11 c 71,-15 1628,-15 1692,0 174,40 322,190 365,370 22,94 22,1579 0,1683 -21,98 -66,187 -127,252 -61,64 -113,98 -201,128 -61,21 -75,21 -867,23 -640,1 -817,-1 -865,-12 z m 1737,-163 c 74,-36 132,-95 170,-170 l 23,-47 0,-840 0,-840 -28,-57 c -37,-76 -96,-134 -171,-169 l -63,-29 -839,2 -839,3 -50,27 C 273,204 196,285 167,348 l -22,47 0,840 0,840 27,52 c 53,100 128,162 227,189 35,10 236,12 856,11 l 810,-2 67,-33 z"
       id="path8" />
  </g>
  <g
     transform="matrix(0.91366746,0,0,1.0944901,-17.847458,446.18644)"
     id="text2986"
     style="fill:#000000;stroke:none">
    <g
       transform="scale(1.0944901,0.91366747)"
       style="font-size:169.6000061px;font-style:normal;font-variant:normal;font-weight:normal;font-stretch:normal;text-align:start;line-height:125%;letter-spacing:0px;word-spacing:0px;writing-mode:lr-tb;text-anchor:start;fill:#000000;fill-opacity:1;font-family:Segoe UI Symbol;-inkscape-font-specification:Segoe UI Symbol"
       id="text2987">
      <g
         transform="scale(0.86721281,1.1531195)"
         style="font-size:99.90291595px;fill:#000000;stroke:none;font-family:Sans;-inkscape-font-specification:Sans"
         id="text3009">
        <g
           transform="scale(0.93808622,1.0660001)"
           style="font-size:135.36978149px;font-style:normal;font-variant:normal;font-weight:normal;font-stretch:normal;text-align:start;line-height:125%;letter-spacing:0px;word-spacing:0px;writing-mode:lr-tb;text-anchor:start;fill:#000000;fill-opacity:1;font-family:Sans;-inkscape-font-specification:Sans"
           id="text3024">
          <path
             d="m 67.968822,-120.99393 0,-96.90044 65.371438,0 0,11.43505 -52.548324,0 0,30.00873 45.475784,0 0,11.43504 -45.475784,0 0,44.02162 z"
             style=""
             id="path3029" />
          <path
             d="m 150.32759,-120.99393 0,-96.90044 70.06443,0 0,11.43505 -57.24132,0 0,29.67824 53.60591,0 0,11.36894 -53.60591,0 0,32.98317 59.48867,0 0,11.43504 z"
             style=""
             id="path3031" />
          <path
             d="m 240.68426,-120.99393 0,-96.90044 42.96405,0 c 8.63681,1e-4 15.20259,0.8704 19.69736,2.6109 4.49462,1.74068 8.08597,4.81426 10.77406,9.22074 2.68792,4.40665 4.03192,9.2759 4.03201,14.60777 -9e-5,6.87431 -2.22541,12.66895 -6.67596,17.38392 -4.45071,4.71507 -11.32495,7.71154 -20.62274,8.9894 3.393,1.63047 5.97084,3.23886 7.73353,4.82519 3.74551,3.43716 7.2928,7.73356 10.64186,12.88921 l 16.85513,26.37331 -16.12804,0 -12.82312,-20.16005 c -3.74564,-5.81664 -6.83024,-10.26727 -9.25379,-13.3519 -2.42367,-3.08456 -4.5939,-5.24378 -6.5107,-6.47766 -1.91691,-1.23379 -3.86682,-2.09307 -5.84972,-2.57784 -1.45422,-0.30841 -3.83376,-0.46264 -7.13864,-0.46269 l -14.87217,0 0,43.03014 z m 12.82312,-54.13469 27.56308,0 c 5.86068,5e-5 10.44351,-0.60585 13.7485,-1.81771 3.30485,-1.21175 5.8166,-3.15064 7.53523,-5.81667 1.71849,-2.66591 2.57777,-5.56322 2.57784,-8.69196 -7e-5,-4.58275 -1.66355,-8.35036 -4.99044,-11.30284 -3.32702,-2.95232 -8.58185,-4.42852 -15.7645,-4.42861 l -30.66971,0 z"
             style=""
             id="path3033" />
          <path
             d="m 362.96655,-120.99393 0,-85.46539 -31.92558,0 0,-11.43505 76.80648,0 0,11.43505 -32.05778,0 0,85.46539 z"
             style=""
             id="path3035" />
          <path
             d="m 423.2484,-120.99393 0,-96.90044 12.82311,0 0,96.90044 z"
             style=""
             id="path3037" />
          <path
             d="m 503.95471,-159.00058 0,-11.36895 41.04718,-0.0661 0,35.95759 c -6.30148,5.0235 -12.80116,8.80213 -19.49906,11.3359 -6.69806,2.53378 -13.5723,3.80066 -20.62274,3.80067 -9.51824,-1e-5 -18.16612,-2.03804 -25.94367,-6.11412 -7.77762,-4.07606 -13.64937,-9.96984 -17.61526,-17.68135 -3.96592,-7.71147 -5.94887,-16.3263 -5.94887,-25.84453 0,-9.43 1.97193,-18.23211 5.91582,-26.40636 3.94386,-8.1741 9.61731,-14.24414 17.02037,-18.21014 7.403,-3.96582 15.9297,-5.94877 25.58013,-5.94887 7.00638,1e-4 13.34082,1.13479 19.00333,3.40407 5.66236,2.26948 10.10197,5.43119 13.31885,9.48514 3.2167,4.05413 5.66235,9.342 7.33694,15.86365 l -11.56725,3.17273 c -1.45425,-4.93529 -3.26094,-8.81306 -5.42008,-11.63334 -2.15929,-2.82012 -5.24388,-5.07849 -9.25379,-6.7751 -4.01004,-1.69644 -8.46067,-2.54471 -13.3519,-2.54479 -5.86079,8e-5 -10.92834,0.89241 -15.20266,2.67699 -4.27441,1.78474 -7.72255,4.13123 -10.34442,7.03949 -2.62194,2.90841 -4.65997,6.10317 -6.11412,9.58429 -2.46769,5.99299 -3.70153,12.49267 -3.70151,19.49906 -2e-5,8.63691 1.48719,15.86368 4.46165,21.68032 2.9744,5.81669 7.30385,10.13512 12.98836,12.95531 5.68443,2.82021 11.72142,4.23031 18.11099,4.2303 5.55222,1e-5 10.97229,-1.06858 16.26024,-3.20577 5.28781,-2.13717 9.29778,-4.41757 12.02993,-6.8412 l 0,-18.0449 z"
             style=""
             id="path3039" />
        </g>
      </g>
    </g>
  </g>
</svg>
