<?xml version="1.0" encoding="UTF-8" standalone="no"?>
<!-- Created with Inkscape (http://www.inkscape.org/) -->

<svg
   xmlns:dc="http://purl.org/dc/elements/1.1/"
   xmlns:cc="http://creativecommons.org/ns#"
   xmlns:rdf="http://www.w3.org/1999/02/22-rdf-syntax-ns#"
   xmlns:svg="http://www.w3.org/2000/svg"
   xmlns="http://www.w3.org/2000/svg"
   xmlns:sodipodi="http://sodipodi.sourceforge.net/DTD/sodipodi-0.dtd"
   xmlns:inkscape="http://www.inkscape.org/namespaces/inkscape"
   version="1.0"
   width="468pt"
   height="468pt"
   viewBox="0 0 468 468"
   id="svg2"
   inkscape:version="0.48.4 r9939"
   sodipodi:docname="general_running.svg">
  <sodipodi:namedview
     pagecolor="#ffffff"
     bordercolor="#666666"
     borderopacity="1"
     objecttolerance="10"
     gridtolerance="10"
     guidetolerance="10"
     inkscape:pageopacity="0"
     inkscape:pageshadow="2"
     inkscape:window-width="1920"
     inkscape:window-height="1153"
     id="namedview10"
     showgrid="false"
     inkscape:zoom="0.4034188"
     inkscape:cx="930.58836"
     inkscape:cy="-224.20054"
     inkscape:window-x="-4"
     inkscape:window-y="-4"
     inkscape:window-maximized="1"
     inkscape:current-layer="text2987" />
  <defs
     id="defs12" />
  <metadata
     id="metadata4">
Created by potrace 1.8, written by Peter Selinger 2001-2007
<rdf:RDF>
  <cc:Work
     rdf:about="">
    <dc:format>image/svg+xml</dc:format>
    <dc:type
       rdf:resource="http://purl.org/dc/dcmitype/StillImage" />
    <dc:title></dc:title>
  </cc:Work>
</rdf:RDF>
</metadata>
  <g
     transform="matrix(0.189474,0,0,-0.189474,0,468)"
     id="g6"
     stroke="none"
     fill="#000000">
    <path
       d="M 395,2455 C 244,2422 112,2322 57,2200 5,2083 6,2112 2,1260 0,702 2,446 10,400 43,208 198,52 398,11 c 71,-15 1628,-15 1692,0 174,40 322,190 365,370 22,94 22,1579 0,1683 -21,98 -66,187 -127,252 -61,64 -113,98 -201,128 -61,21 -75,21 -867,23 -640,1 -817,-1 -865,-12 z m 1737,-163 c 74,-36 132,-95 170,-170 l 23,-47 0,-840 0,-840 -28,-57 c -37,-76 -96,-134 -171,-169 l -63,-29 -839,2 -839,3 -50,27 C 273,204 196,285 167,348 l -22,47 0,840 0,840 27,52 c 53,100 128,162 227,189 35,10 236,12 856,11 l 810,-2 67,-33 z"
       id="path8" />
  </g>
  <g
     transform="matrix(0.91366746,0,0,1.0944901,-17.847458,446.18644)"
     id="text2986"
     style="fill:#000000;stroke:none">
    <g
       transform="scale(1.0944901,0.91366747)"
       style="font-size:169.6000061px;font-style:normal;font-variant:normal;font-weight:normal;font-stretch:normal;text-align:start;line-height:125%;letter-spacing:0px;word-spacing:0px;writing-mode:lr-tb;text-anchor:start;fill:#000000;fill-opacity:1;font-family:Segoe UI Symbol;-inkscape-font-specification:Segoe UI Symbol"
       id="text2987">
      <g
         transform="scale(0.86721281,1.1531195)"
         style="font-size:99.90291595px;fill:#000000;stroke:none;font-family:Sans;-inkscape-font-specification:Sans"
         id="text3009">
        <path
           d="m 71.220951,-127.25983 0,-103.29588 13.669442,0 0,91.10612 50.872877,0 0,12.18976 z"
           style="font-size:144.30421448px"
           id="path3014" />
        <path
           d="m 140.766,-127.25983 39.66956,-103.29588 14.72636,0 42.27663,103.29588 -15.57189,0 -12.04884,-31.2847 -43.19262,0 -11.34423,31.2847 z m 29.80502,-42.41754 35.01913,0 -10.78053,-28.60719 c -3.28824,-8.69011 -5.73088,-15.83016 -7.32795,-21.42015 -1.31532,6.62342 -3.17079,13.19978 -5.56643,19.72909 z m -2.74798,-67.36076 0,-14.44451 13.24667,0 0,14.44451 z m 26.28196,0 0,-14.44451 13.24668,0 0,14.44451 z"
           style="font-size:144.30421448px"
           id="path3016" />
        <path
           d="m 316.28446,-230.55571 13.66944,0 0,59.6805 c -10e-5,10.38129 -1.17444,18.62523 -3.52305,24.73182 -2.34879,6.10664 -6.58819,11.07414 -12.71822,14.90251 -6.13018,3.82839 -14.17448,5.74258 -24.13291,5.74258 -9.67669,0 -17.59181,-1.66758 -23.74537,-5.00273 -6.15362,-3.33515 -10.54569,-8.16173 -13.17622,-14.47975 -2.63055,-6.31798 -3.94583,-14.94945 -3.94581,-25.89443 l 0,-59.6805 13.66944,0 0,59.61004 c -3e-5,8.97207 0.83376,15.58366 2.50136,19.83478 1.66755,4.25117 4.53297,7.5276 8.59625,9.82932 4.06322,2.30174 9.03071,3.4526 14.90251,3.45259 10.05238,1e-5 17.21592,-2.27823 21.49062,-6.83472 4.27456,-4.55646 6.41188,-13.31711 6.41196,-26.28197 z"
           style="font-size:144.30421448px"
           id="path3018" />
        <path
           d="m 353.48788,-127.25983 0,-103.29588 69.68597,0 0,12.18976 -56.01653,0 0,31.98931 48.4772,0 0,12.18976 -48.4772,0 0,46.92705 z"
           style="font-size:144.30421448px"
           id="path3020" />
        <path
           d="m 467.28246,-127.25983 0,-91.10612 -34.03268,0 0,-12.18976 81.87573,0 0,12.18976 -34.17361,0 0,91.10612 z"
           style="font-size:144.30421448px"
           id="path3022" />
      </g>
    </g>
  </g>
</svg>
