<?xml version="1.0" encoding="UTF-8" standalone="no"?>
<!-- Created with Inkscape (http://www.inkscape.org/) -->

<svg
   xmlns:dc="http://purl.org/dc/elements/1.1/"
   xmlns:cc="http://creativecommons.org/ns#"
   xmlns:rdf="http://www.w3.org/1999/02/22-rdf-syntax-ns#"
   xmlns:svg="http://www.w3.org/2000/svg"
   xmlns="http://www.w3.org/2000/svg"
   xmlns:sodipodi="http://sodipodi.sourceforge.net/DTD/sodipodi-0.dtd"
   xmlns:inkscape="http://www.inkscape.org/namespaces/inkscape"
   version="1.0"
   width="468pt"
   height="468pt"
   viewBox="0 0 468 468"
   id="svg2"
   inkscape:version="0.48.4 r9939"
   sodipodi:docname="general_aus.svg">
  <sodipodi:namedview
     pagecolor="#ffffff"
     bordercolor="#666666"
     borderopacity="1"
     objecttolerance="10"
     gridtolerance="10"
     guidetolerance="10"
     inkscape:pageopacity="0"
     inkscape:pageshadow="2"
     inkscape:window-width="1858"
     inkscape:window-height="1057"
     id="namedview10"
     showgrid="false"
     inkscape:zoom="0.4034188"
     inkscape:cx="930.58836"
     inkscape:cy="-224.20054"
     inkscape:window-x="1734"
     inkscape:window-y="-8"
     inkscape:window-maximized="1"
     inkscape:current-layer="svg2" />
  <defs
     id="defs12" />
  <metadata
     id="metadata4">
Created by potrace 1.8, written by Peter Selinger 2001-2007
<rdf:RDF>
  <cc:Work
     rdf:about="">
    <dc:format>image/svg+xml</dc:format>
    <dc:type
       rdf:resource="http://purl.org/dc/dcmitype/StillImage" />
    <dc:title></dc:title>
  </cc:Work>
</rdf:RDF>
</metadata>
  <g
     transform="matrix(0.189474,0,0,-0.189474,0,468)"
     id="g6"
	 fill="#000000" 
	 stroke="none">
    <path
       d="M 395,2455 C 244,2422 112,2322 57,2200 5,2083 6,2112 2,1260 0,702 2,446 10,400 43,208 198,52 398,11 c 71,-15 1628,-15 1692,0 174,40 322,190 365,370 22,94 22,1579 0,1683 -21,98 -66,187 -127,252 -61,64 -113,98 -201,128 -61,21 -75,21 -867,23 -640,1 -817,-1 -865,-12 z m 1737,-163 c 74,-36 132,-95 170,-170 l 23,-47 0,-840 0,-840 -28,-57 c -37,-76 -96,-134 -171,-169 l -63,-29 -839,2 -839,3 -50,27 C 273,204 196,285 167,348 l -22,47 0,840 0,840 27,52 c 53,100 128,162 227,189 35,10 236,12 856,11 l 810,-2 67,-33 z"
       id="path8" />
  </g>
  <g
     transform="scale(0.91366746,1.0944901)"
     id="text2986"
	 fill="#000000" 
	 stroke="none">
    <path
       d="m 101.68802,268.25586 42.01942,-109.41468 15.59868,0 44.78091,109.41468 -16.4943,0 -12.76256,-33.13787 -45.75116,0 -12.01621,33.13787 z m 31.57054,-44.93018 37.09352,0 -11.41913,-30.30174 c -3.48302,-9.20488 -6.07036,-16.76787 -7.76203,-22.68899 -1.39323,7.01576 -3.35861,13.98167 -5.89615,20.89775 z"
       style=""
       id="path2991" />
    <path
       d="m 287.60341,158.84118 14.47916,0 0,63.21571 c -9e-5,10.99624 -1.24401,19.72851 -3.73174,26.19683 -2.48792,6.46837 -6.97844,11.73012 -13.47159,15.78527 -6.4933,4.05516 -15.01411,6.08274 -25.56243,6.08274 -10.2499,0 -18.63387,-1.76636 -25.15194,-5.29907 -6.51814,-3.53271 -11.17037,-8.64519 -13.95672,-15.33746 -2.78638,-6.69224 -4.17956,-15.83499 -4.17955,-27.42831 l 0,-63.21571 14.47916,0 0,63.14108 c -3e-5,9.50354 0.88315,16.50677 2.64954,21.00971 1.76632,4.50298 4.80147,7.9735 9.10545,10.41156 4.3039,2.43808 9.56565,3.65711 15.78527,3.6571 10.64784,10e-6 18.2357,-2.41318 22.76362,-7.23958 4.52777,-4.82636 6.79169,-14.10595 6.79177,-27.83879 z"
       style=""
       id="path2993" />
    <path
       d="m 321.33836,233.10285 13.65818,-1.19416 c 0.64681,5.47325 2.15194,9.96378 4.5154,13.47159 2.36341,3.50786 6.03296,6.34398 11.00864,8.50837 4.97562,2.16442 10.57323,3.24663 16.79284,3.24662 5.52292,1e-5 10.39906,-0.82097 14.62843,-2.46295 4.22924,-1.64195 7.37634,-3.89344 9.44131,-6.75446 2.06482,-2.86097 3.09727,-5.9832 3.09735,-9.36667 -8e-5,-3.43317 -0.99521,-6.431 -2.9854,-8.9935 -1.99034,-2.56242 -5.27427,-4.71439 -9.8518,-6.45591 -2.9357,-1.14436 -9.42892,-2.92315 -19.47969,-5.33639 -10.05086,-2.41314 -17.09141,-4.6895 -21.12166,-6.82909 -5.22446,-2.73655 -9.11791,-6.13243 -11.68035,-10.18766 -2.56248,-4.05508 -3.84371,-8.59537 -3.8437,-13.62085 -10e-6,-5.5229 1.56732,-10.68513 4.702,-15.48673 3.13464,-4.80141 7.71224,-8.44608 13.73281,-10.93401 6.02051,-2.48772 12.71276,-3.73163 20.07677,-3.73174 8.11026,1.1e-4 15.26276,1.30622 21.45752,3.91833 6.19461,2.61232 10.9588,6.45601 14.29257,11.53108 3.3336,5.07526 5.12483,10.82214 5.37371,17.24065 l -13.88208,1.04489 c -0.74643,-6.91608 -3.27157,-12.14051 -7.57544,-15.67332 -4.30401,-3.53262 -10.6604,-5.29897 -19.0692,-5.29907 -8.7572,1e-4 -15.13847,1.60474 -19.14384,4.81394 -4.00543,3.20939 -6.00813,7.07796 -6.0081,11.60572 -3e-5,3.93085 1.41803,7.16502 4.25418,9.70253 2.78634,2.53766 10.06323,5.13743 21.83069,7.79934 11.76737,2.66204 19.84036,4.98816 24.21901,6.97836 6.36876,2.93569 11.07075,6.65499 14.10599,11.15791 3.03505,4.50301 4.55263,9.69013 4.55272,15.56136 -9e-5,5.82155 -1.66694,11.3072 -5.00053,16.45699 -3.33378,5.14981 -8.12284,9.15521 -14.36721,12.01621 -6.24452,2.861 -13.27262,4.2915 -21.08434,4.2915 -9.9016,0 -18.1985,-1.44294 -24.89072,-4.32882 -6.69228,-2.88588 -11.9416,-7.22713 -15.74796,-13.02378 -3.80638,-5.79662 -5.80908,-12.35204 -6.0081,-19.66628 z"
       style=""
       id="path2995" />
  </g>
</svg>
