<?xml version="1.0" encoding="UTF-8" standalone="no"?>
<!-- Created with Inkscape (http://www.inkscape.org/) -->

<svg
   xmlns:dc="http://purl.org/dc/elements/1.1/"
   xmlns:cc="http://creativecommons.org/ns#"
   xmlns:rdf="http://www.w3.org/1999/02/22-rdf-syntax-ns#"
   xmlns:svg="http://www.w3.org/2000/svg"
   xmlns="http://www.w3.org/2000/svg"
   xmlns:sodipodi="http://sodipodi.sourceforge.net/DTD/sodipodi-0.dtd"
   xmlns:inkscape="http://www.inkscape.org/namespaces/inkscape"
   version="1.0"
   width="468pt"
   height="468pt"
   viewBox="0 0 468 468"
   id="svg2"
   inkscape:version="0.48.4 r9939"
   sodipodi:docname="general_prep.svg">
  <sodipodi:namedview
     pagecolor="#ffffff"
     bordercolor="#666666"
     borderopacity="1"
     objecttolerance="10"
     gridtolerance="10"
     guidetolerance="10"
     inkscape:pageopacity="0"
     inkscape:pageshadow="2"
     inkscape:window-width="1920"
     inkscape:window-height="1153"
     id="namedview10"
     showgrid="false"
     inkscape:zoom="0.4034188"
     inkscape:cx="930.58836"
     inkscape:cy="-224.20054"
     inkscape:window-x="-4"
     inkscape:window-y="-4"
     inkscape:window-maximized="1"
     inkscape:current-layer="text2987" />
  <defs
     id="defs12" />
  <metadata
     id="metadata4">
Created by potrace 1.8, written by Peter Selinger 2001-2007
<rdf:RDF>
  <cc:Work
     rdf:about="">
    <dc:format>image/svg+xml</dc:format>
    <dc:type
       rdf:resource="http://purl.org/dc/dcmitype/StillImage" />
    <dc:title />
  </cc:Work>
</rdf:RDF>
</metadata>
  <g
     transform="matrix(0.189474,0,0,-0.189474,0,468)"
     id="g6"
     fill="#000000"
     stroke="none">
    <path
       d="M 395,2455 C 244,2422 112,2322 57,2200 5,2083 6,2112 2,1260 0,702 2,446 10,400 43,208 198,52 398,11 c 71,-15 1628,-15 1692,0 174,40 322,190 365,370 22,94 22,1579 0,1683 -21,98 -66,187 -127,252 -61,64 -113,98 -201,128 -61,21 -75,21 -867,23 -640,1 -817,-1 -865,-12 z m 1737,-163 c 74,-36 132,-95 170,-170 l 23,-47 0,-840 0,-840 -28,-57 c -37,-76 -96,-134 -171,-169 l -63,-29 -839,2 -839,3 -50,27 C 273,204 196,285 167,348 l -22,47 0,840 0,840 27,52 c 53,100 128,162 227,189 35,10 236,12 856,11 l 810,-2 67,-33 z"
       id="path8" />
  </g>
  <g
     transform="scale(0.91366746,1.0944901)"
     id="text2986"
     fill="#000000"
     stroke="none">
    <g
       transform="scale(1.0944901,0.91366747)"
       style="font-size:169.6000061px;font-style:normal;font-variant:normal;font-weight:normal;font-stretch:normal;text-align:start;line-height:125%;letter-spacing:0px;word-spacing:0px;writing-mode:lr-tb;text-anchor:start;fill:#000000;fill-opacity:1;font-family:Segoe UI Symbol;-inkscape-font-specification:Segoe UI Symbol"
       id="text2987">
      <path
         d="m 72.003323,248.22408 0,44.88438 -13.912501,0 0,-118.75313 32.628127,0 c 12.697851,1.2e-4 22.538731,3.09178 29.522661,9.275 6.98377,6.18344 10.47569,14.90635 10.47578,26.16875 -9e-5,11.26257 -3.87847,20.48236 -11.63516,27.65938 -7.75684,7.17713 -18.23261,10.76567 -31.427344,10.76562 z m 0,-61.28125 0,48.69375 14.575,0 c 9.606197,6e-5 16.935097,-2.19447 21.986717,-6.58359 5.05149,-4.389 7.57727,-10.58613 7.57735,-18.59141 -8e-5,-15.67907 -9.27507,-23.51864 -27.825004,-23.51875 z"
         style=""
         id="path2992" />
      <path
         d="m 238.29083,293.10846 -16.5625,0 -19.875,-33.29063 c -1.82194,-3.09163 -3.5886,-5.72782 -5.3,-7.90859 -1.71152,-2.18069 -3.46438,-3.96115 -5.25859,-5.34141 -1.79433,-1.38016 -3.72662,-2.38771 -5.79688,-3.02265 -2.07036,-0.63485 -4.40291,-0.9523 -6.99766,-0.95235 l -11.42812,0 0,50.51563 -13.9125,0 0,-118.75313 35.44375,0 c 5.18953,1.2e-4 9.97885,0.64882 14.36797,1.94609 4.38899,1.29752 8.19836,3.27121 11.42812,5.9211 3.22961,2.65011 5.75539,5.9488 7.57735,9.89609 1.82179,3.9475 2.73272,8.57119 2.73281,13.8711 -9e-5,4.1407 -0.62118,7.93627 -1.86328,11.38672 -1.24227,3.45059 -3.00894,6.52845 -5.3,9.23359 -2.29122,2.70527 -5.05164,5.01022 -8.28125,6.91484 -3.22976,1.90475 -6.8597,3.38157 -10.88984,4.43047 l 0,0.33125 c 1.98743,0.88339 3.71269,1.89094 5.17578,3.02266 1.46295,1.13182 2.85696,2.47062 4.18203,4.01641 1.32493,1.54587 2.63612,3.29874 3.93359,5.25859 1.29732,1.95994 2.74654,4.23728 4.34766,6.83203 z m -71.21875,-106.16563 0,43.0625 18.88125,0 c 3.47807,7e-5 6.69396,-0.52441 9.64766,-1.57344 2.95358,-1.04889 5.50696,-2.55331 7.66015,-4.51328 2.15306,-1.95982 3.83691,-4.36138 5.05157,-7.20468 1.21451,-2.84315 1.8218,-6.03143 1.82187,-9.56485 -7e-5,-6.34886 -2.05658,-11.30381 -6.16953,-14.86484 -4.11308,-3.56084 -10.06178,-5.3413 -17.8461,-5.34141 z"
         style=""
         id="path2994" />
      <path
         d="m 317.45958,293.10846 -62.9375,0 0,-118.75313 60.2875,0 0,12.5875 -46.375,0 0,39.50156 42.89688,0 0,12.50469 -42.89688,0 0,41.57188 49.025,0 z"
         style=""
         id="path2996" />
      <path
         d="m 354.22833,248.22408 0,44.88438 -13.9125,0 0,-118.75313 32.62812,0 c 12.69786,1.2e-4 22.53874,3.09178 29.52266,9.275 6.98377,6.18344 10.4757,14.90635 10.47578,26.16875 -8e-5,11.26257 -3.87847,20.48236 -11.63515,27.65938 -7.75684,7.17713 -18.23261,10.76567 -31.42735,10.76562 z m 0,-61.28125 0,48.69375 14.575,0 c 9.6062,6e-5 16.9351,-2.19447 21.98672,-6.58359 5.05149,-4.389 7.57727,-10.58613 7.57734,-18.59141 -7e-5,-15.67907 -9.27506,-23.51864 -27.825,-23.51875 z"
         style=""
         id="path2998" />
    </g>
  </g>
</svg>
