<?xml version="1.0" encoding="UTF-8" standalone="no"?>
<!-- Created with Inkscape (http://www.inkscape.org/) -->

<svg
   xmlns:dc="http://purl.org/dc/elements/1.1/"
   xmlns:cc="http://creativecommons.org/ns#"
   xmlns:rdf="http://www.w3.org/1999/02/22-rdf-syntax-ns#"
   xmlns:svg="http://www.w3.org/2000/svg"
   xmlns="http://www.w3.org/2000/svg"
   version="1.0"
   width="468pt"
   height="468pt"
   viewBox="0 0 468 468"
   id="svg2">
  <defs
     id="defs12" />
  <metadata
     id="metadata4">
Created by potrace 1.8, written by Peter Selinger 2001-2007
<rdf:RDF>
  <cc:Work
     rdf:about="">
    <dc:format>image/svg+xml</dc:format>
    <dc:type
       rdf:resource="http://purl.org/dc/dcmitype/StillImage" />
    <dc:title></dc:title>
  </cc:Work>
</rdf:RDF>
</metadata>
  <path
     d="m 224.47837,3.5606746 c -56.76789,0.9437963 -59.55705,1.1010958 -63.98693,4.2470829 -5.74241,4.0897835 -8.53158,11.4828525 -8.53158,23.4376045 -0.16407,18.089427 5.90649,27.684689 19.19606,30.044179 3.2814,0.629197 7.05498,2.35949 8.20347,4.089784 1.47661,1.887591 4.2658,2.831388 8.69565,2.831388 5.74242,0 6.39869,0.471898 6.39869,3.932484 0,2.988687 -0.98442,4.089786 -4.42986,4.71898 -12.96145,2.674093 -38.88437,11.325553 -50.3692,16.673733 -12.96145,6.291972 -29.69649,16.35913 -31.33718,18.71863 -0.49221,0.78649 -3.44544,0 -6.56275,-1.88761 -3.609523,-1.88758 -7.219043,-2.83138 -9.51601,-2.20217 -4.92207,1.10109 -29.040222,25.01058 -29.040222,28.62847 0,1.7303 1.312552,5.03358 2.953242,7.70767 l 2.953243,4.71898 -7.219038,9.43796 c -14.109935,18.40403 -26.907319,48.13361 -32.64973,75.97559 -4.101731,20.13433 -3.609519,54.58289 0.984414,75.34641 18.703868,85.41355 85.808091,145.65921 175.553861,157.92855 16.73504,2.20218 51.68174,0.94379 68.25271,-2.51679 73.01071,-15.10074 129.94267,-61.81865 153.24047,-125.52489 16.4069,-45.14491 16.4069,-92.17743 0,-137.47965 -5.57835,-15.25803 -15.25842,-33.34746 -23.95408,-44.98762 l -5.74241,-7.39306 4.26579,-4.87629 c 7.05497,-8.02226 5.90649,-11.48285 -8.53159,-25.32518 -14.60214,-13.84235 -20.01643,-15.57264 -27.39953,-8.49417 l -3.93765,3.77518 -8.69567,-5.82007 C 334.73275,96.681899 305.85661,83.940649 285.51205,79.378967 c -7.54718,-1.730293 -8.20346,-2.20219 -8.20346,-6.449272 0,-4.404384 0.49222,-4.718982 5.90649,-4.718982 4.10173,0 6.89089,-1.101096 9.35194,-3.932484 1.96882,-2.202191 4.75799,-3.932485 6.23461,-3.932485 5.57835,0 13.61773,-5.190878 16.07878,-10.224459 3.77358,-7.393069 3.60951,-28.156585 -0.32814,-35.235056 -4.26581,-8.1795669 -9.84416,-11.3255544 -21.00084,-11.7974524 -5.25021,-0.3145986 -36.42332,0 -69.07306,0.471898 z m 26.74324,15.8872364 49.54884,0 0.98443,4.089783 c 0.65626,2.35949 0.65626,8.022268 0,12.583948 -1.31256,10.06716 -5.41428,12.58395 -10.33636,6.606574 l -3.1173,-3.617885 -51.84582,-0.471899 -51.8458,-0.471898 -4.26581,4.089784 c -4.59392,4.404382 -9.68006,5.190879 -11.15669,1.415694 -0.4922,-1.415694 -0.98441,-7.078471 -0.98441,-12.583949 0,-12.583949 1.64068,-13.527744 20.50863,-12.426649 7.21903,0.471898 35.43891,0.786497 62.51029,0.786497 z M 225.62685,122.95088 c 0,19.50513 0.98441,22.33652 7.3831,22.33652 6.3987,0 7.38311,-2.83139 7.38311,-22.33652 l 0,-18.56131 7.05497,0.78649 c 17.06318,2.2022 27.39952,4.08979 35.43891,6.44928 9.516,2.67409 9.35194,2.04489 4.10173,15.25804 -3.44545,8.65145 -2.1329,12.58394 4.59392,13.37044 4.92209,0.62921 8.20345,-2.83138 11.97705,-12.74125 1.64069,-4.08978 3.44545,-7.39308 3.93765,-7.39308 2.29696,0 23.62594,12.74126 32.97787,19.66243 l 10.00821,7.39307 -13.94587,13.84235 c -7.71124,7.55037 -14.10992,14.47152 -14.10992,15.10074 0,3.30328 5.41427,8.49416 8.69565,8.49416 2.29697,0 8.53159,-4.71897 17.22725,-13.05585 l 13.61773,-12.89855 4.10173,4.71898 c 11.48483,13.21315 25.26661,35.54966 22.64152,36.49345 -0.82035,0.31461 -5.57834,2.51679 -10.50042,4.87628 -7.21903,3.3033 -9.18787,5.19088 -9.51599,8.49416 -0.32814,2.83139 0.65626,4.87629 2.95323,6.44929 3.28138,2.20218 4.42987,2.0449 13.28959,-1.4157 5.41427,-2.2022 10.50042,-3.46058 11.32077,-2.98868 1.80476,1.1011 7.71124,25.63978 9.18787,38.06644 l 1.14847,9.90986 -19.68828,0 c -20.6727,0 -23.46187,0.9438 -23.46187,7.23578 0,6.60657 5.57834,8.49415 25.26663,8.49415 l 17.88352,0 -1.14847,9.75256 c -1.1485,9.90986 -6.72684,34.92046 -8.36753,37.59456 -0.49221,0.78649 -5.08614,-0.4719 -10.17228,-2.5168 -11.48483,-4.87628 -14.93029,-4.87628 -17.22724,0 -2.62511,5.50547 1.31255,10.38177 11.64889,14.15695 4.59393,1.7303 8.36753,3.77518 8.36753,4.56169 0,4.24707 -24.77443,40.26863 -27.72767,40.26863 -0.49221,0 -6.8909,-5.66279 -14.10994,-12.58395 -7.38311,-7.07849 -14.43807,-12.58395 -16.24282,-12.58395 -3.93766,0 -9.18787,4.40438 -9.18787,7.55037 0,1.25839 6.23461,8.49417 13.94586,16.04454 l 14.10993,13.68504 -7.71124,5.97736 c -7.54718,5.97738 -32.81381,21.23543 -35.11077,21.23543 -0.65627,0 -2.95325,-4.24708 -4.92207,-9.43796 -3.93766,-9.90987 -7.71125,-13.37045 -12.96146,-11.79747 -6.72682,2.04491 -7.05497,4.56169 -2.46102,15.72994 2.46102,5.97739 3.77358,11.01096 2.95323,11.79745 -2.78917,2.3595 -36.25925,8.96608 -48.56443,9.43798 -0.82034,0 -1.31255,-8.80877 -1.31255,-19.66243 0,-18.40403 -0.16407,-19.66243 -3.44545,-21.39272 -2.62511,-1.25838 -4.59393,-1.25838 -7.3831,0 -3.77359,1.57301 -3.93766,2.2022 -3.93766,21.39272 l 0,19.81971 -8.53159,-0.94379 c -20.01643,-2.20218 -42.32982,-7.55036 -42.32982,-10.06716 0,-0.6292 1.80477,-5.34817 3.93766,-10.53905 4.10173,-9.75256 3.60953,-13.68505 -1.96882,-15.10074 -6.07055,-1.573 -9.68007,1.41569 -13.45366,11.16825 -1.96882,5.34819 -4.2658,9.59527 -4.92207,9.59527 -2.29697,0 -27.56359,-15.25805 -35.11077,-21.23543 l -7.71125,-5.97736 14.10994,-13.68504 c 7.71125,-7.55037 13.94586,-14.78615 13.94586,-16.20185 0,-3.46058 -4.59392,-7.39306 -8.69565,-7.39306 -2.29697,0 -8.53159,4.71898 -17.06318,12.89854 -11.1567,10.53906 -13.78181,12.42666 -15.75062,10.85366 -5.906493,-4.56168 -25.75885,-35.07776 -25.75885,-39.16755 0,-0.94378 4.10173,-3.14598 9.023801,-5.03357 10.500416,-4.08979 13.617726,-7.86498 10.828556,-13.52775 -2.132905,-4.71898 -5.578347,-4.71898 -17.227253,-0.4719 -5.086135,1.8876 -9.680068,3.146 -10.008205,2.6741 -1.804764,-1.573 -7.219038,-25.16789 -8.367525,-35.70697 l -1.148479,-11.16825 18.211657,0 c 15.258424,0 18.539805,-0.47189 21.821185,-2.98869 3.281393,-2.51678 3.609523,-3.61788 2.296973,-7.39307 l -1.64069,-4.56166 -20.344566,-0.47191 -20.344559,-0.4719 1.148479,-9.43796 c 1.148487,-11.79745 7.38311,-37.27994 9.187865,-38.38104 0.656276,-0.31461 5.74242,0.9438 11.156694,3.14598 10.992629,4.24709 14.602144,3.93248 16.078764,-1.57299 1.47663,-5.66278 -1.64069,-9.12336 -10.828556,-12.58395 -4.757996,-1.73029 -8.859727,-3.61789 -9.187865,-4.24708 -1.64069,-2.51679 18.539801,-34.13396 25.102574,-39.16754 1.96881,-1.573 4.59392,0.3146 15.75062,10.85365 7.3831,7.07847 14.93027,12.89855 16.57096,12.89855 3.93766,0 9.18787,-4.40438 9.18787,-7.55037 0,-1.2584 -6.39868,-8.49416 -14.10992,-16.04453 l -13.94588,-13.84235 9.84414,-7.23577 c 5.41429,-3.93248 15.25842,-10.06716 21.98525,-13.52775 l 12.14111,-6.29198 2.95324,7.39308 c 1.64069,4.24707 4.10174,8.80876 5.41429,10.22445 4.59392,5.03359 13.45365,2.6741 13.45365,-3.61788 0,-1.41569 -1.64068,-6.29198 -3.60952,-10.85365 -2.95325,-6.92118 -3.11731,-8.33687 -1.14848,-9.59526 3.93765,-2.35949 29.36836,-7.23577 47.08781,-9.12337 1.47662,-0.15729 1.96883,4.56168 1.96883,18.40402 z"
     id="path8-1"
     style="fill:#000000;fill-opacity:1" />
  <g
     transform="matrix(0.82962595,0,0,0.97180521,15.452754,57.209722)"
     id="text2986"
     style="fill:#000000;stroke:none">
    <path
       d="m 101.68802,268.25586 42.01942,-109.41468 15.59868,0 44.78091,109.41468 -16.4943,0 -12.76256,-33.13787 -45.75116,0 -12.01621,33.13787 z m 31.57054,-44.93018 37.09352,0 -11.41913,-30.30174 c -3.48302,-9.20488 -6.07036,-16.76787 -7.76203,-22.68899 -1.39323,7.01576 -3.35861,13.98167 -5.89615,20.89775 z"
       id="path2991" />
    <path
       d="m 287.60341,158.84118 14.47916,0 0,63.21571 c -9e-5,10.99624 -1.24401,19.72851 -3.73174,26.19683 -2.48792,6.46837 -6.97844,11.73012 -13.47159,15.78527 -6.4933,4.05516 -15.01411,6.08274 -25.56243,6.08274 -10.2499,0 -18.63387,-1.76636 -25.15194,-5.29907 -6.51814,-3.53271 -11.17037,-8.64519 -13.95672,-15.33746 -2.78638,-6.69224 -4.17956,-15.83499 -4.17955,-27.42831 l 0,-63.21571 14.47916,0 0,63.14108 c -3e-5,9.50354 0.88315,16.50677 2.64954,21.00971 1.76632,4.50298 4.80147,7.9735 9.10545,10.41156 4.3039,2.43808 9.56565,3.65711 15.78527,3.6571 10.64784,10e-6 18.2357,-2.41318 22.76362,-7.23958 4.52777,-4.82636 6.79169,-14.10595 6.79177,-27.83879 z"
       id="path2993" />
    <path
       d="m 321.33836,233.10285 13.65818,-1.19416 c 0.64681,5.47325 2.15194,9.96378 4.5154,13.47159 2.36341,3.50786 6.03296,6.34398 11.00864,8.50837 4.97562,2.16442 10.57323,3.24663 16.79284,3.24662 5.52292,1e-5 10.39906,-0.82097 14.62843,-2.46295 4.22924,-1.64195 7.37634,-3.89344 9.44131,-6.75446 2.06482,-2.86097 3.09727,-5.9832 3.09735,-9.36667 -8e-5,-3.43317 -0.99521,-6.431 -2.9854,-8.9935 -1.99034,-2.56242 -5.27427,-4.71439 -9.8518,-6.45591 -2.9357,-1.14436 -9.42892,-2.92315 -19.47969,-5.33639 -10.05086,-2.41314 -17.09141,-4.6895 -21.12166,-6.82909 -5.22446,-2.73655 -9.11791,-6.13243 -11.68035,-10.18766 -2.56248,-4.05508 -3.84371,-8.59537 -3.8437,-13.62085 -10e-6,-5.5229 1.56732,-10.68513 4.702,-15.48673 3.13464,-4.80141 7.71224,-8.44608 13.73281,-10.93401 6.02051,-2.48772 12.71276,-3.73163 20.07677,-3.73174 8.11026,1.1e-4 15.26276,1.30622 21.45752,3.91833 6.19461,2.61232 10.9588,6.45601 14.29257,11.53108 3.3336,5.07526 5.12483,10.82214 5.37371,17.24065 l -13.88208,1.04489 c -0.74643,-6.91608 -3.27157,-12.14051 -7.57544,-15.67332 -4.30401,-3.53262 -10.6604,-5.29897 -19.0692,-5.29907 -8.7572,1e-4 -15.13847,1.60474 -19.14384,4.81394 -4.00543,3.20939 -6.00813,7.07796 -6.0081,11.60572 -3e-5,3.93085 1.41803,7.16502 4.25418,9.70253 2.78634,2.53766 10.06323,5.13743 21.83069,7.79934 11.76737,2.66204 19.84036,4.98816 24.21901,6.97836 6.36876,2.93569 11.07075,6.65499 14.10599,11.15791 3.03505,4.50301 4.55263,9.69013 4.55272,15.56136 -9e-5,5.82155 -1.66694,11.3072 -5.00053,16.45699 -3.33378,5.14981 -8.12284,9.15521 -14.36721,12.01621 -6.24452,2.861 -13.27262,4.2915 -21.08434,4.2915 -9.9016,0 -18.1985,-1.44294 -24.89072,-4.32882 -6.69228,-2.88588 -11.9416,-7.22713 -15.74796,-13.02378 -3.80638,-5.79662 -5.80908,-12.35204 -6.0081,-19.66628 z"
       id="path2995" />
  </g>
</svg>
