<?xml version="1.0" encoding="UTF-8"?>
<svg xmlns="http://www.w3.org/2000/svg" xmlns:xlink="http://www.w3.org/1999/xlink" width="512px" height="472px" viewBox="0 0 512 472" version="1.1">
  <defs/>
  <g fill="#000000" id="layer1">
    <polygon id="Shape" points="256.000427 471.816254 350.272369 181.676239 161.734497 181.676239"/>
    <path d="M29.6064854,181.676254 L0.9559237,269.845795 C-1.6554771,277.889282 1.2054208,286.700684 8.048567,291.668457 L256.000426,471.816254 L29.6064854,181.676254 Z" id="Shape"/>
    <path d="M29.6064854,181.676254 L161.728952,181.676254 L104.946236,6.9274158 C102.025734,-2.0641728 89.3055573,-2.0641728 86.3864365,6.9274158 L29.6051006,181.676254 L29.6064854,181.676254 Z" id="Shape"/>
    <path d="M482.393494,181.676254 L511.044067,269.845795 C513.655457,277.889282 510.794586,286.700684 503.951416,291.668457 L256.000427,471.816254 L482.393494,181.676254 Z" id="Shape"/>
    <path d="M482.394196,181.676254 L350.270996,181.676254 L407.053741,6.927414 C409.975616,-2.0641746 422.695801,-2.0641746 425.616302,6.927414 L482.394196,181.676254 Z" id="Shape"/>
  </g>
</svg>
