<?xml version="1.0" encoding="UTF-8" standalone="no"?>
<svg
   id="svg10"
   preserveAspectRatio="xMidYMid meet"
   viewBox="0 0 84 102"
   height="102pt"
   width="84pt"
   version="1.0"
   xmlns="http://www.w3.org/2000/svg"
   xmlns:svg="http://www.w3.org/2000/svg"
   xmlns:rdf="http://www.w3.org/1999/02/22-rdf-syntax-ns#"
   xmlns:cc="http://creativecommons.org/ns#"
   xmlns:dc="http://purl.org/dc/elements/1.1/">
  <defs
     id="defs14" />
  <metadata
     id="metadata2">
Created by potrace 1.16, written by Peter Selinger 2001-2019
<rdf:RDF>
  <cc:Work
     rdf:about="">
    <dc:format>image/svg+xml</dc:format>
    <dc:type
       rdf:resource="http://purl.org/dc/dcmitype/StillImage" />
  </cc:Work>
</rdf:RDF>
</metadata>
  <path
     d="m 28.202204,11.48062 c -7.9,1.9 -11.8,3.4 -16.2,6.5 -2.5,1.6 -2.8,2.4 -2.8,7.7 v 5.9 l 4.5,2.2 c 2.5,1.2 4.6,2.7 4.6,3.2 0.1,0.6 0.2,6.2 0.3,12.4 0.2,12.2 0.2,12.1 -5.7,15.2 l -3.2,1.7 -0.3,10.5 c -0.3,10.2 -0.2,10.6 2,11.2 15.4,4.4 19,5 30.3,5 10.9,0 20,-1.4 29.3,-4.7 l 3.2,-1.1 v -10.3 -10.4 l -3.2,-1.7 c -6.2,-3.4 -6.3,-3.7 -6.2,-16.2 0.1,-6.3 0.2,-11.8 0.3,-12.1 0.1,-0.3 2.1,-1.6 4.6,-2.9 l 4.5,-2.3 v -5.8 c 0,-5.2 -0.3,-6 -2.7,-7.6 -10.6,-7.2 -28.7,-9.9 -43.3,-6.4 z m 32.5,-8.5 c 10.6,2.9 19.9,8.4 22.1,13.1 0.6,1.1 1,6.3 1,11.5 l -0.1,9.5 -4.7,2.5 -4.8,2.5 v 6.8 c 0,6.6 0.1,6.9 3.1,8.5 6.5,3.6 6.2,2.8 6.3,17.6 0.2,16 -0.6,18.7 -6.4,21 -10.2,4.1 -20.4,5.9 -33.5,6 -7.1,0.1 -14.8,-0.2 -17,-0.6 -2.2,-0.4 -5.5,-1 -7.4,-1.4 -6.8,-1.2 -15.4,-4.9 -17.3,-7.5 -1.7,-2.2 -1.9,-4.4 -2,-16.9 0,-15.6 -0.3,-14.6 6.1,-18.2 3,-1.7 3.1,-1.9 3.1,-8.7 v -7 l -4.5,-2 c -4.4,-1.9 -4.5,-2.1 -4.6,-6.8 -0.3,-17 0.1,-18.4 6.9,-23.1 2.6,-1.7 5,-3.2 5.4,-3.2 0.4,0 1.9,-0.5 3.5,-1.2 11.9,-4.8 32,-5.9 44.8,-2.4 z"
     id="path823"
     style="fill:#000000;stroke:none;stroke-width:0.1" />
  <path
     fill="#000000"
     d="m 45.057014,40.559624 c 2.152142,-0.866791 4.293822,-2.399808 5.753575,-4.921694 1.131878,-2.183544 1.423126,-4.853671 0.884211,-7.344157 -0.718553,-3.320652 -2.415508,-5.293157 -4.43511,-6.594207 l 0.115112,7.328457 c 0.02084,1.332449 -0.962705,2.347481 -2.295151,2.368412 l -6.995348,0.109889 c -1.332448,0.02085 -2.347481,-0.962703 -2.368412,-2.295152 l -0.115112,-7.328454 c -1.97774,1.363844 -3.775838,3.55785 -4.220561,7.06337 -0.460419,2.506189 0.07846,4.996678 1.2784,7.143592 1.369075,2.31085 3.557851,3.775837 5.736158,4.574602 L 38.20475,70.987914 c -2.152142,0.866788 -4.293822,2.399805 -5.753575,4.921691 -1.131878,2.183544 -1.423126,4.853671 -0.884211,7.344157 0.718553,3.320652 2.415508,5.293157 4.43511,6.594207 l -0.104668,-6.662234 c -0.02084,-1.332448 0.962703,-2.34748 2.29515,-2.368412 l 6.995349,-0.109889 c 1.332443,-0.02085 2.347478,0.962702 2.368408,2.295151 l 0.104668,6.662231 c 1.977743,-1.363844 3.775841,-3.55785 4.220564,-7.06337 0.460419,-2.506189 -0.07846,-4.996678 -1.2784,-7.143588 -1.369075,-2.310854 -3.557851,-3.775841 -5.736161,-4.574603 z"
     id="path2"
     style="stroke-width:2.35575" />
</svg>
