<?xml version="1.0" encoding="UTF-8"?>
<svg xmlns="http://www.w3.org/2000/svg" xmlns:xlink="http://www.w3.org/1999/xlink" width="512px" height="512px" viewBox="0 0 512 512" version="1.1">
  <defs/>
  <g fill="#000000" id="layer1">
    <path d="M249.270203,511.964844 L301.477142,368.478333 L373.594879,368.478333 C386.251831,368.478333 400.146698,358.74704 404.476196,346.850678 L461.324066,190.689972 C470.626312,165.132706 455.990295,144.207275 428.785156,144.207275 L328.730896,144.207275 L197.27655,505.339508 C-47.7753601,448.896881 -79.6285629,93.4835281 187.470901,9.2141361 L56.7097015,368.478327 L111.05159,368.478327 L180.477982,177.906321 L221.32457,177.906321 L151.898178,368.478327 L206.220306,368.488062 L270.917938,190.689646 C280.220184,165.1327 265.574158,144.20727 238.398498,144.20727 L192.715271,144.20727 L245.170624,0.03515 C599.402466,2.8821478 601.105347,506.097992 249.270203,511.964844 Z M371.020538,177.770203 L313.841156,334.652588 L354.668274,334.652588 L411.847656,177.770203 L371.020538,177.770203 Z" id="Shape"/>
  </g>
</svg>
