<?xml version="1.0" encoding="UTF-8" standalone="no"?>
<!-- Created with Inkscape (http://www.inkscape.org/) -->

<svg
   xmlns:dc="http://purl.org/dc/elements/1.1/"
   xmlns:cc="http://creativecommons.org/ns#"
   xmlns:rdf="http://www.w3.org/1999/02/22-rdf-syntax-ns#"
   xmlns:svg="http://www.w3.org/2000/svg"
   xmlns="http://www.w3.org/2000/svg"
   xmlns:xlink="http://www.w3.org/1999/xlink"
   xmlns:sodipodi="http://sodipodi.sourceforge.net/DTD/sodipodi-0.dtd"
   xmlns:inkscape="http://www.inkscape.org/namespaces/inkscape"
   version="1.1"
   width="585"
   height="585"
   viewBox="0 0 585 585"
   id="svg3807"
   inkscape:version="0.91pre3 r13670"
   sodipodi:docname="hm-cc-rt-dn.svg">
  <sodipodi:namedview
     pagecolor="#ffffff"
     bordercolor="#666666"
     borderopacity="1"
     objecttolerance="10"
     gridtolerance="10"
     guidetolerance="10"
     inkscape:pageopacity="0"
     inkscape:pageshadow="2"
     inkscape:window-width="1858"
     inkscape:window-height="1057"
     id="namedview23"
     showgrid="false"
     inkscape:zoom="0.57052034"
     inkscape:cx="293.13639"
     inkscape:cy="260.94965"
     inkscape:window-x="1974"
     inkscape:window-y="-8"
     inkscape:window-maximized="1"
     inkscape:current-layer="svg3807" />
  <defs
     id="defs3809">
    <pattern
       xlink:href="#pattern5764"
       id="pattern2998"
       patternTransform="matrix(5.3878074,0,0,8.5119766,22.403107,592.62993)" />
    <pattern
       patternTransform="scale(5.9593898,12.020305)"
       id="pattern5764"
       xlink:href="#Strips1_1" />
    <pattern
       patternUnits="userSpaceOnUse"
       width="2"
       height="1"
       patternTransform="translate(0,0) scale(10,10)"
       id="Strips1_1">
      <rect
         style="fill:black;stroke:none"
         x="0"
         y="-0.5"
         width="1"
         height="2"
         id="rect5049" />
    </pattern>
  </defs>
  <metadata
     id="metadata3812">
    <rdf:RDF>
      <cc:Work
         rdf:about="">
        <dc:format>image/svg+xml</dc:format>
        <dc:type
           rdf:resource="http://purl.org/dc/dcmitype/StillImage" />
        <dc:title></dc:title>
      </cc:Work>
    </rdf:RDF>
  </metadata>
  <path
     inkscape:connector-curvature="0"
     style="color:#000000;font-style:normal;font-variant:normal;font-weight:normal;font-stretch:normal;font-size:medium;line-height:normal;font-family:Sans;-inkscape-font-specification:Sans;text-indent:0;text-align:start;text-decoration:none;text-decoration-line:none;letter-spacing:normal;word-spacing:normal;text-transform:none;direction:ltr;block-progression:tb;writing-mode:lr-tb;baseline-shift:baseline;text-anchor:start;display:inline;overflow:visible;visibility:visible;fill:#000000;fill-opacity:1;stroke:none;stroke-width:5;marker:none;enable-background:accumulate"
     id="rect3818-8"
     d="m 112.42115,66.296005 a 3.3438093,3.5224792 0 0 0 -3.00913,3.522127 l 0,267.989828 a 3.3438093,3.5224792 0 0 0 3.34347,3.52213 l 374.59458,0 a 3.3438093,3.5224792 0 0 0 3.34347,-3.52213 l 0,-267.989828 a 3.3438093,3.5224792 0 0 0 -3.34347,-3.522127 l -374.59458,0 a 3.3438093,3.5224792 0 0 0 -0.33434,0 z m 3.67782,7.044244 367.90763,0 0,260.945581 -367.90763,0 0,-260.945581 z" />
  <g
     id="g4191"
     transform="matrix(1.0604985,0,0,1.0604985,-24.518839,-97.819061)">
    <path
       d="m 235.71863,93.479922 a 1.7439933,2.7661906 0 0 0 -1.56645,2.754649 l 0,35.243309 a 1.7439933,2.7661906 0 0 0 1.73672,2.78165 l 140.31649,0 a 1.7439933,2.7661906 0 0 0 1.75374,-2.78165 l 0,-35.243309 a 1.7439933,2.7661906 0 0 0 -1.75374,-2.754649 l -140.31649,0 a 1.7439933,2.7661906 0 0 0 -0.17027,0 z m 1.90698,5.536309 136.84306,0 0,29.706999 -136.84306,0 0,-29.706999 z"
       id="path12"
       style="color:#000000;font-style:normal;font-variant:normal;font-weight:normal;font-stretch:normal;font-size:medium;line-height:normal;font-family:Sans;-inkscape-font-specification:Sans;text-indent:0;text-align:start;text-decoration:none;text-decoration-line:none;letter-spacing:normal;word-spacing:normal;text-transform:none;direction:ltr;block-progression:tb;writing-mode:lr-tb;baseline-shift:baseline;text-anchor:start;display:inline;overflow:visible;visibility:visible;fill:#000000;fill-opacity:1;stroke:none;stroke-width:6.40107012;marker:none;enable-background:accumulate"
       inkscape:connector-curvature="0" />
    <path
       inkscape:connector-curvature="0"
       style="color:#000000;font-style:normal;font-variant:normal;font-weight:normal;font-stretch:normal;font-size:medium;line-height:normal;font-family:Sans;-inkscape-font-specification:Sans;text-indent:0;text-align:start;text-decoration:none;text-decoration-line:none;letter-spacing:normal;word-spacing:normal;text-transform:none;direction:ltr;block-progression:tb;writing-mode:lr-tb;baseline-shift:baseline;text-anchor:start;display:inline;overflow:visible;visibility:visible;fill:#000000;fill-opacity:1;stroke:none;stroke-width:5.56599998;marker:none;enable-background:accumulate"
       id="rect4483"
       d="m 245.44876,95.492034 0,1.809261 0,34.355625 0,1.80926 1.14068,0 10.74034,0 1.14068,0 0,-1.80926 0,-34.355625 0,-1.809261 -1.14068,0 -10.74034,0 -1.14068,0 z m 2.28136,3.618522 8.45898,0 0,30.737104 -8.45898,0 0,-30.737104 z" />
    <path
       inkscape:connector-curvature="0"
       style="color:#000000;font-style:normal;font-variant:normal;font-weight:normal;font-stretch:normal;font-size:medium;line-height:normal;font-family:Sans;-inkscape-font-specification:Sans;text-indent:0;text-align:start;text-decoration:none;text-decoration-line:none;letter-spacing:normal;word-spacing:normal;text-transform:none;direction:ltr;block-progression:tb;writing-mode:lr-tb;baseline-shift:baseline;text-anchor:start;display:inline;overflow:visible;visibility:visible;fill:#000000;fill-opacity:1;stroke:none;stroke-width:5.56599998;marker:none;enable-background:accumulate"
       id="rect4483-1"
       d="m 266.91662,95.22776 0,1.80926 0,34.37595 0,1.80927 1.14068,0 10.74034,0 1.14068,0 0,-1.80927 0,-34.37595 0,-1.80926 -1.14068,0 -10.74034,0 -1.14068,0 z m 2.28136,3.618522 8.45898,0 0,30.757438 -8.45898,0 0,-30.757438 z" />
    <path
       inkscape:connector-curvature="0"
       style="color:#000000;font-style:normal;font-variant:normal;font-weight:normal;font-stretch:normal;font-size:medium;line-height:normal;font-family:Sans;-inkscape-font-specification:Sans;text-indent:0;text-align:start;text-decoration:none;text-decoration-line:none;letter-spacing:normal;word-spacing:normal;text-transform:none;direction:ltr;block-progression:tb;writing-mode:lr-tb;baseline-shift:baseline;text-anchor:start;display:inline;overflow:visible;visibility:visible;fill:#000000;fill-opacity:1;stroke:none;stroke-width:5.56599998;marker:none;enable-background:accumulate"
       id="rect4483-7"
       d="m 287.20535,95.024472 0,1.809261 0,34.375957 0,1.80926 1.14068,0 10.74033,0 1.14068,0 0,-1.80926 0,-34.375957 0,-1.809261 -1.14068,0 -10.74033,0 -1.14068,0 z m 2.28136,3.638851 8.45897,0 0,30.737107 -8.45897,0 0,-30.737107 z" />
    <path
       inkscape:connector-curvature="0"
       style="color:#000000;font-style:normal;font-variant:normal;font-weight:normal;font-stretch:normal;font-size:medium;line-height:normal;font-family:Sans;-inkscape-font-specification:Sans;text-indent:0;text-align:start;text-decoration:none;text-decoration-line:none;letter-spacing:normal;word-spacing:normal;text-transform:none;direction:ltr;block-progression:tb;writing-mode:lr-tb;baseline-shift:baseline;text-anchor:start;display:inline;overflow:visible;visibility:visible;fill:#000000;fill-opacity:1;stroke:none;stroke-width:5.56599998;marker:none;enable-background:accumulate"
       id="rect4483-4"
       d="m 308.53222,95.285235 0,1.80926 0,34.375945 0,1.80927 1.14068,0 10.74033,0 1.14068,0 0,-1.80927 0,-34.375945 0,-1.80926 -1.14068,0 -10.74033,0 -1.14068,0 z m 2.28136,3.63885 8.45897,0 0,30.737105 -8.45897,0 0,-30.737105 z" />
    <path
       inkscape:connector-curvature="0"
       style="color:#000000;font-style:normal;font-variant:normal;font-weight:normal;font-stretch:normal;font-size:medium;line-height:normal;font-family:Sans;-inkscape-font-specification:Sans;text-indent:0;text-align:start;text-decoration:none;text-decoration-line:none;letter-spacing:normal;word-spacing:normal;text-transform:none;direction:ltr;block-progression:tb;writing-mode:lr-tb;baseline-shift:baseline;text-anchor:start;display:inline;overflow:visible;visibility:visible;fill:#000000;fill-opacity:1;stroke:none;stroke-width:5.56599998;marker:none;enable-background:accumulate"
       id="rect4483-0"
       d="m 330.67936,94.490274 0,1.80926 0,34.375956 0,1.80927 1.14068,0 10.74033,0 1.14068,0 0,-1.80927 0,-34.375956 0,-1.80926 -1.14068,0 -10.74033,0 -1.14068,0 z m 2.28136,3.63885 8.45897,0 0,30.737116 -8.45897,0 0,-30.737116 z" />
    <path
       inkscape:connector-curvature="0"
       style="color:#000000;font-style:normal;font-variant:normal;font-weight:normal;font-stretch:normal;font-size:medium;line-height:normal;font-family:Sans;-inkscape-font-specification:Sans;text-indent:0;text-align:start;text-decoration:none;text-decoration-line:none;letter-spacing:normal;word-spacing:normal;text-transform:none;direction:ltr;block-progression:tb;writing-mode:lr-tb;baseline-shift:baseline;text-anchor:start;display:inline;overflow:visible;visibility:visible;fill:#000000;fill-opacity:1;stroke:none;stroke-width:5.56599998;marker:none;enable-background:accumulate"
       id="rect4483-9"
       d="m 351.18596,95.024472 0,1.809261 0,34.375957 0,1.80926 1.14068,0 10.74034,0 1.14068,0 0,-1.80926 0,-34.375957 0,-1.809261 -1.14068,0 -10.74034,0 -1.14068,0 z m 2.28136,3.638851 8.45898,0 0,30.737107 -8.45898,0 0,-30.737107 z" />
  </g>
  <path
     style="color:#000000;font-style:normal;font-variant:normal;font-weight:normal;font-stretch:normal;font-size:medium;line-height:normal;font-family:sans-serif;text-indent:0;text-align:start;text-decoration:none;text-decoration-line:none;text-decoration-style:solid;text-decoration-color:#000000;letter-spacing:normal;word-spacing:normal;text-transform:none;direction:ltr;block-progression:tb;writing-mode:lr-tb;baseline-shift:baseline;text-anchor:start;white-space:normal;clip-rule:nonzero;display:inline;overflow:visible;visibility:visible;opacity:1;isolation:auto;mix-blend-mode:normal;color-interpolation:sRGB;color-interpolation-filters:linearRGB;solid-color:#000000;solid-opacity:1;fill:#000000;fill-opacity:1;fill-rule:nonzero;stroke:none;stroke-width:6.98562479;stroke-linecap:butt;stroke-linejoin:miter;stroke-miterlimit:4;stroke-dasharray:none;stroke-dashoffset:0;stroke-opacity:1;color-rendering:auto;image-rendering:auto;shape-rendering:auto;text-rendering:auto;enable-background:accumulate"
     d="m 84.976562,42.777344 0,3.492187 0,339.513669 430.152348,0 0,-343.005856 -430.152348,0 z m 6.986329,6.984375 416.179689,0 0,329.035161 -416.179689,0 0,-329.035161 z"
     id="rect4173"
     inkscape:connector-curvature="0" />
  <path
     style="color:#000000;font-style:normal;font-variant:normal;font-weight:normal;font-stretch:normal;font-size:medium;line-height:normal;font-family:sans-serif;text-indent:0;text-align:start;text-decoration:none;text-decoration-line:none;text-decoration-style:solid;text-decoration-color:#000000;letter-spacing:normal;word-spacing:normal;text-transform:none;direction:ltr;block-progression:tb;writing-mode:lr-tb;baseline-shift:baseline;text-anchor:start;white-space:normal;clip-rule:nonzero;display:inline;overflow:visible;visibility:visible;opacity:1;isolation:auto;mix-blend-mode:normal;color-interpolation:sRGB;color-interpolation-filters:linearRGB;solid-color:#000000;solid-opacity:1;fill:#000000;fill-opacity:1;fill-rule:nonzero;stroke:none;stroke-width:7.43987942;stroke-linecap:butt;stroke-linejoin:miter;stroke-miterlimit:4;stroke-dasharray:none;stroke-dashoffset:0;stroke-opacity:1;color-rendering:auto;image-rendering:auto;shape-rendering:auto;text-rendering:auto;enable-background:accumulate"
     d="m 85.154297,388.07812 0,3.72071 0,136.45508 140.796873,0 0,-140.17579 -140.796873,0 z m 7.439453,7.43946 125.91797,0 0,125.29687 -125.91797,0 0,-125.29687 z"
     id="rect4204"
     inkscape:connector-curvature="0" />
  <path
     style="color:#000000;font-style:normal;font-variant:normal;font-weight:normal;font-stretch:normal;font-size:medium;line-height:normal;font-family:sans-serif;text-indent:0;text-align:start;text-decoration:none;text-decoration-line:none;text-decoration-style:solid;text-decoration-color:#000000;letter-spacing:normal;word-spacing:normal;text-transform:none;direction:ltr;block-progression:tb;writing-mode:lr-tb;baseline-shift:baseline;text-anchor:start;white-space:normal;clip-rule:nonzero;display:inline;overflow:visible;visibility:visible;opacity:1;isolation:auto;mix-blend-mode:normal;color-interpolation:sRGB;color-interpolation-filters:linearRGB;solid-color:#000000;solid-opacity:1;fill:#000000;fill-opacity:1;fill-rule:nonzero;stroke:none;stroke-width:7.4603138;stroke-linecap:butt;stroke-linejoin:miter;stroke-miterlimit:4;stroke-dasharray:none;stroke-dashoffset:0;stroke-opacity:1;color-rendering:auto;image-rendering:auto;shape-rendering:auto;text-rendering:auto;enable-background:accumulate"
     d="m 229.0918,387.92773 0,3.73047 0,136.44727 141.57226,0 0,-140.17774 -141.57226,0 z m 7.46093,7.46094 126.65039,0 0,125.25586 -126.65039,0 0,-125.25586 z"
     id="rect4204-8"
     inkscape:connector-curvature="0" />
  <path
     style="color:#000000;font-style:normal;font-variant:normal;font-weight:normal;font-stretch:normal;font-size:medium;line-height:normal;font-family:sans-serif;text-indent:0;text-align:start;text-decoration:none;text-decoration-line:none;text-decoration-style:solid;text-decoration-color:#000000;letter-spacing:normal;word-spacing:normal;text-transform:none;direction:ltr;block-progression:tb;writing-mode:lr-tb;baseline-shift:baseline;text-anchor:start;white-space:normal;clip-rule:nonzero;display:inline;overflow:visible;visibility:visible;opacity:1;isolation:auto;mix-blend-mode:normal;color-interpolation:sRGB;color-interpolation-filters:linearRGB;solid-color:#000000;solid-opacity:1;fill:#000000;fill-opacity:1;fill-rule:nonzero;stroke:none;stroke-width:7.43987942;stroke-linecap:butt;stroke-linejoin:miter;stroke-miterlimit:4;stroke-dasharray:none;stroke-dashoffset:0;stroke-opacity:1;color-rendering:auto;image-rendering:auto;shape-rendering:auto;text-rendering:auto;enable-background:accumulate"
     d="m 374.1543,387.92773 0,3.72071 0,136.45703 140.79687,0 0,-140.17774 -140.79687,0 z m 7.43945,7.44141 125.91797,0 0,125.29688 -125.91797,0 0,-125.29688 z"
     id="rect4204-8-6"
     inkscape:connector-curvature="0" />
  <path
     style="color:#000000;font-style:normal;font-variant:normal;font-weight:normal;font-stretch:normal;font-size:medium;line-height:normal;font-family:sans-serif;text-indent:0;text-align:start;text-decoration:none;text-decoration-line:none;text-decoration-style:solid;text-decoration-color:#000000;letter-spacing:normal;word-spacing:normal;text-transform:none;direction:ltr;block-progression:tb;writing-mode:lr-tb;baseline-shift:baseline;text-anchor:start;white-space:normal;clip-rule:nonzero;display:inline;overflow:visible;visibility:visible;opacity:1;isolation:auto;mix-blend-mode:normal;color-interpolation:sRGB;color-interpolation-filters:linearRGB;solid-color:#000000;solid-opacity:1;fill:#000000;fill-opacity:1;fill-rule:nonzero;stroke:none;stroke-width:5;stroke-linecap:butt;stroke-linejoin:miter;stroke-miterlimit:4;stroke-dasharray:none;stroke-dashoffset:0;stroke-opacity:1;color-rendering:auto;image-rendering:auto;shape-rendering:auto;text-rendering:auto;enable-background:accumulate"
     d="m 93.082031,530.20703 0,2.5 0,47.11133 413.941409,0 0,-49.61133 -413.941409,0 z m 5,5 403.941409,0 0,39.61133 -403.941409,0 0,-39.61133 z"
     id="rect4241"
     inkscape:connector-curvature="0" />
</svg>
