<?xml version="1.0" encoding="UTF-8" standalone="no"?>
<!-- Created with Inkscape (http://www.inkscape.org/) -->

<svg
   xmlns:dc="http://purl.org/dc/elements/1.1/"
   xmlns:cc="http://creativecommons.org/ns#"
   xmlns:rdf="http://www.w3.org/1999/02/22-rdf-syntax-ns#"
   xmlns:svg="http://www.w3.org/2000/svg"
   xmlns="http://www.w3.org/2000/svg"
   xmlns:sodipodi="http://sodipodi.sourceforge.net/DTD/sodipodi-0.dtd"
   xmlns:inkscape="http://www.inkscape.org/namespaces/inkscape"
   version="1.0"
   width="468pt"
   height="468pt"
   viewBox="0 0 468 468"
   id="svg2"
   inkscape:version="0.91pre3 r13670"
   sodipodi:docname="hm-dis-wm55.svg">
  <sodipodi:namedview
     pagecolor="#ffffff"
     bordercolor="#666666"
     borderopacity="1"
     objecttolerance="10"
     gridtolerance="10"
     guidetolerance="10"
     inkscape:pageopacity="0"
     inkscape:pageshadow="2"
     inkscape:window-width="1858"
     inkscape:window-height="1057"
     id="namedview8"
     showgrid="false"
     inkscape:zoom="0.4034188"
     inkscape:cx="-278.86653"
     inkscape:cy="292.5"
     inkscape:window-x="54"
     inkscape:window-y="-8"
     inkscape:window-maximized="1"
     inkscape:current-layer="svg2" />
  <defs
     id="defs12" />
  <metadata
     id="metadata4">
Created by potrace 1.8, written by Peter Selinger 2001-2007
<rdf:RDF>
  <cc:Work
     rdf:about="">
    <dc:format>image/svg+xml</dc:format>
    <dc:type
       rdf:resource="http://purl.org/dc/dcmitype/StillImage" />
    <dc:title></dc:title>
  </cc:Work>
</rdf:RDF>
</metadata>
  <g
     transform="matrix(0.258564,0,0,-0.258564,0,468)"
     id="g6"
     stroke="none"
     fill="#000000">
    <path
       d="M 97,1796 C 46,1777 22,1754 10,1711 4,1688 0,1385 0,897 0,55 -2,82 55,30 L 82,5 893,2 c 758,-2 814,-1 847,15 73,37 70,-6 70,888 0,775 -1,801 -20,832 -44,73 16,68 -865,70 -650,2 -797,0 -828,-11 z m 1573,-896 0,-770 -765,0 -765,0 0,770 0,770 765,0 765,0 0,-770 z"
       id="path8" />
  </g>
  <path
     style="color:#000000;font-style:normal;font-variant:normal;font-weight:normal;font-stretch:normal;font-size:medium;line-height:normal;font-family:sans-serif;text-indent:0;text-align:start;text-decoration:none;text-decoration-line:none;text-decoration-style:solid;text-decoration-color:#000000;letter-spacing:normal;word-spacing:normal;text-transform:none;direction:ltr;block-progression:tb;writing-mode:lr-tb;baseline-shift:baseline;text-anchor:start;white-space:normal;clip-rule:nonzero;display:inline;overflow:visible;visibility:visible;opacity:1;isolation:auto;mix-blend-mode:normal;color-interpolation:sRGB;color-interpolation-filters:linearRGB;solid-color:#000000;solid-opacity:1;fill:#000000;fill-opacity:1;fill-rule:nonzero;stroke:none;stroke-width:15.26985931;stroke-linecap:butt;stroke-linejoin:miter;stroke-miterlimit:4;stroke-dasharray:none;stroke-dashoffset:0;stroke-opacity:1;color-rendering:auto;image-rendering:auto;shape-rendering:auto;text-rendering:auto;enable-background:accumulate"
     d="m 72.730469,67.997266 0,7.458414 0,328.01759 325.560551,0 0,-335.476004 -325.560551,0 z M 88,82.914094 l 295.02148,0 0,305.642346 -295.02148,0 0,-305.642346 z"
     id="rect2989"
     inkscape:connector-curvature="0" />
  <g
     style="font-style:normal;font-variant:normal;font-weight:bold;font-stretch:normal;font-size:56px;line-height:125%;font-family:sans-serif;-inkscape-font-specification:'sans-serif, Bold';text-align:start;letter-spacing:0px;word-spacing:0px;writing-mode:lr-tb;text-anchor:start;fill:#000000;fill-opacity:1;stroke:none;stroke-width:1px;stroke-linecap:butt;stroke-linejoin:miter;stroke-opacity:1"
     id="text4138">
    <path
       d="m 142.91701,183.24048 q 3.0625,3.0625 4.78515,7.35547 1.75,4.26562 1.75,9.57031 0,3.82812 -1.09375,7.79297 -1.09375,3.9375 -2.73437,6.53515 l -13.83594,0 -0.4375,-2.13281 q -1.55859,1.03906 -3.00781,1.66797 -1.44922,0.60156 -4.1836,0.60156 -4.45703,0 -7.21875,-3.66406 -2.76171,-3.69141 -2.76171,-9.92578 0,-3.33594 0.92968,-5.82422 0.92969,-2.51562 2.54297,-4.375 1.50391,-1.75 3.63672,-2.73437 2.13281,-0.98438 4.23828,-0.98438 1.80469,0 3.19922,0.68359 1.39453,0.65625 2.16016,1.39454 l 0,-1.69532 6.34375,0 0,22.3125 4.64843,0 q 0.98438,-2.16015 1.44922,-4.67578 0.49219,-2.54297 0.49219,-4.86719 0,-4.62109 -1.28516,-8.09375 -1.28515,-3.5 -3.55468,-5.79687 -2.32422,-2.35156 -5.44141,-3.5 -3.11719,-1.14844 -6.75391,-1.14844 -3.47265,0 -6.61718,1.36719 -3.11719,1.36719 -5.4961,3.69141 -2.43359,2.3789 -3.96484,5.96093 -1.50391,3.58203 -1.50391,7.84766 0,4.64844 1.42188,8.23047 1.44922,3.58203 3.82812,5.96094 2.37891,2.35156 5.52344,3.58203 3.14453,1.23047 6.64453,1.23047 2.32422,0 5.27735,-0.4375 2.98046,-0.41016 5.27734,-1.09375 l 0,5.30468 q -2.54297,0.57422 -5.05859,0.875 -2.51563,0.30078 -5.4961,0.30078 -5.0039,0 -9.26953,-1.72265 -4.23828,-1.72266 -7.35547,-4.89453 -3.08984,-3.14453 -4.83984,-7.60157 -1.72266,-4.45703 -1.72266,-9.73437 0,-5.08594 1.80469,-9.40625 1.80469,-4.34766 4.97656,-7.57422 3.08985,-3.17187 7.38281,-5.00391 4.32032,-1.83203 9.16016,-1.83203 4.8125,0 8.96875,1.69532 4.18359,1.69531 7.19141,4.75781 z m -12.16797,24.00781 0,-13.78125 q -1.1211,-0.57422 -2.07813,-0.82031 -0.95703,-0.27344 -2.16015,-0.27344 -2.625,0 -4.04688,2.29688 -1.42187,2.29687 -1.42187,6.28906 0,4.32031 1.17578,6.39844 1.17578,2.07812 3.88281,2.07812 1.42188,0 2.48828,-0.54687 1.06641,-0.57422 2.16016,-1.64063 z"
       style=""
       id="path4147" />
    <path
       d="m 209.69044,185.45532 -12.71484,0 0,32.83985 -10.5,0 0,-32.83985 -12.71484,0 0,-7.875 35.92968,0 0,7.875 z"
       style=""
       id="path4149" />
    <path
       d="m 245.45607,218.29517 -29.44922,0 0,-40.71485 29.44922,0 0,7.875 -19.00391,0 0,7.02735 17.63672,0 0,7.875 -17.63672,0 0,10.0625 19.00391,0 0,7.875 z"
       style=""
       id="path4151" />
    <path
       d="m 291.20216,218.29517 -12.14062,0 -8.77735,-13.39844 -8.9414,13.39844 -11.59375,0 14.4375,-20.50782 -14.13672,-20.20703 12.11328,0 8.47656,12.6875 8.72266,-12.6875 11.62109,0 -14.21875,19.79688 14.4375,20.91797 z"
       style=""
       id="path4153" />
    <path
       d="m 328.90919,185.45532 -12.71484,0 0,32.83985 -10.5,0 0,-32.83985 -12.71484,0 0,-7.875 35.92968,0 0,7.875 z"
       style=""
       id="path4155" />
    <path
       d="m 364.48341,218.29517 -27.17968,0 0,-7.10938 8.58593,0 0,-21.51953 -8.58593,0 0,-6.64453 q 1.96875,0 3.77343,-0.21875 1.80469,-0.2461 3.00782,-0.82031 1.42187,-0.6836 2.13281,-1.77735 0.71094,-1.09375 0.82031,-2.73437 l 9.05078,0 0,33.71484 8.39453,0 0,7.10938 z"
       style=""
       id="path4157" />
    <path
       d="m 143.87404,263.54907 -8.64063,0 -2.13281,8.50391 7.71094,0 0,6.5625 -9.35156,0 -2.48829,9.67969 -6.58984,0 2.43359,-9.67969 -7.21875,0 -2.43359,9.67969 -6.69922,0 2.46094,-9.67969 -7.38281,0 0,-6.5625 9.02343,0 2.10547,-8.50391 -8.01172,0 0,-6.53515 9.65235,0 2.35156,-9.4336 6.69922,0 -2.35156,9.4336 7.1914,0 2.37891,-9.4336 6.69922,0 -2.37891,9.4336 6.97266,0 0,6.53515 z m -15.20313,-0.0547 -7.32812,0 -2.1875,8.64063 7.35547,0 2.16015,-8.64063 z"
       style=""
       id="path4159" />
    <path
       d="m 204.22169,255.45532 -12.71484,0 0,32.83985 -10.5,0 0,-32.83985 -12.71484,0 0,-7.875 35.92968,0 0,7.875 z"
       style=""
       id="path4161" />
    <path
       d="m 239.98732,288.29517 -29.44922,0 0,-40.71485 29.44922,0 0,7.875 -19.00391,0 0,7.02735 17.63672,0 0,7.875 -17.63672,0 0,10.0625 19.00391,0 0,7.875 z"
       style=""
       id="path4163" />
    <path
       d="m 285.73341,288.29517 -12.14062,0 -8.77735,-13.39844 -8.9414,13.39844 -11.59375,0 14.4375,-20.50782 -14.13672,-20.20703 12.11328,0 8.47656,12.6875 8.72266,-12.6875 11.62109,0 -14.21875,19.79688 14.4375,20.91797 z"
       style=""
       id="path4165" />
    <path
       d="m 323.44044,255.45532 -12.71484,0 0,32.83985 -10.5,0 0,-32.83985 -12.71484,0 0,-7.875 35.92968,0 0,7.875 z"
       style=""
       id="path4167" />
    <path
       d="m 361.58498,288.29517 -31.96485,0 0,-6.72657 q 3.66406,-2.65234 7.32813,-5.63281 3.6914,-2.98047 5.90625,-5.14062 3.30859,-3.19922 4.70312,-5.57813 1.39453,-2.37891 1.39453,-4.70312 0,-2.78907 -1.80468,-4.29297 -1.77735,-1.53125 -5.14063,-1.53125 -2.51562,0 -5.30469,1.03906 -2.76172,1.03906 -5.14062,2.65234 l -0.875,0 0,-9.05078 q 1.9414,-0.84765 5.71484,-1.69531 3.80078,-0.84766 7.60156,-0.84766 7.65625,0 11.67579,3.22657 4.01953,3.19921 4.01953,9.07812 0,3.85547 -1.94141,7.32813 -1.91406,3.47265 -5.87891,7.16406 -2.48828,2.29687 -5.0039,4.23828 -2.51563,1.91406 -3.58203,2.67969 l 18.29297,0 0,7.79297 z"
       style=""
       id="path4169" />
  </g>
</svg>
