<?xml version="1.0" encoding="utf-8"?>
<!-- Generator: Adobe Illustrator 21.1.0, SVG Export Plug-In . SVG Version: 6.00 Build 0)  -->
<svg version="1.1"
	 id="svg2" xmlns:cc="http://creativecommons.org/ns#" xmlns:dc="http://purl.org/dc/elements/1.1/" xmlns:rdf="http://www.w3.org/1999/02/22-rdf-syntax-ns#" xmlns:svg="http://www.w3.org/2000/svg"
	 xmlns="http://www.w3.org/2000/svg" xmlns:xlink="http://www.w3.org/1999/xlink" x="0px" y="0px" viewBox="0 0 468 468"
	 style="enable-background:new 0 0 468 468;" xml:space="preserve">
<style type="text/css">
	.st0{fill-opacity:0.9577;}
</style>
<path id="path5840" d="M204.8,21.8c-11.4,0-22.8,1-34.1,3c-22.5,4.1-44,12.3-63.2,24.2S71.7,76.3,58.7,94.3
	c-13,18-22.2,38.4-26.8,59.8c-4.7,21.4-4.8,43.6-0.3,65.1c4.1,19.7,12.2,38.5,23.4,55.4l-0.7,0.5c13.2,18.3,32.8,37.9,53.2,50.6
	c19.2,11.9,40.7,20.2,63.2,24.3c22.5,4.1,45.7,4.1,68.2-0.1s44-12.5,63.1-24.5s35.8-27.4,48.7-45.5c12.9-18,21.9-38.4,26.5-59.9
	c4.6-21.4,4.5-43.6,0-65.1c-4.6-21.4-13.6-41.9-26.5-59.9c-12.9-18-29.5-33.5-48.7-45.5c-19.1-12-40.6-20.3-63.1-24.5
	C227.7,22.9,216.3,21.8,204.8,21.8z M204.8,61.8c9,0,18,0.9,26.8,2.5c17.6,3.3,34.5,9.9,49.3,19.1c14.8,9.2,27.6,21.2,37.3,34.9
	c9.8,13.6,16.6,29.1,20,45c3.4,15.9,3.4,32.5,0,48.4c-3.4,15.9-10.2,31.3-19.9,44.9s-22.5,25.6-37.3,34.8
	c-14.8,9.2-31.7,15.8-49.3,19.1s-36,3.3-53.6,0.1c-17.6-3.2-34.5-9.8-49.4-18.9c-12.2-7.5-28.1-22.8-38.2-35.5l0.2-0.1
	C80.8,242.4,74,227,70.7,211c-3.3-15.9-3.2-32.5,0.2-48.4c3.5-15.9,10.4-31.3,20.2-44.9c9.8-13.6,22.6-25.5,37.5-34.7
	c14.8-9.2,31.8-15.7,49.3-18.9C186.8,62.6,195.8,61.8,204.8,61.8L204.8,61.8z"/>
<path id="path5874" class="st0" d="M257.5,10.2c-12.2-0.3-24.4,0.5-36.5,2.4c-32.1,5-62.5,17.6-87.1,36.2l10.3,12.1
	c22.2-16.8,50.1-28.4,79.4-32.9s60.3-2.1,88.1,7s52.6,24.9,70.8,44.9c18.2,20,29.7,44.3,33.2,69.3l16.3-2
	c-3.8-28.1-16.8-55.2-37-77.4s-47.4-39.4-77.9-49.4C298.1,14,277.8,10.6,257.5,10.2z"/>
<path id="path5876" d="M49.9,158.9c-3.8,0.3-6.7,3.4-6.8,7.1l-1.2,32.5v0.2v0.2L42.7,418v1.8l0.8,1.6l0.8,1.3L46,426l3.6,0.5
	c7.9,1.2,29,11.4,57.2,21.8c28.2,10.4,64.6,20.8,108.4,22.2c0,0,0,0,0,0c0,0,0.2,0,0.3,0c0.2,0,1,0,1.8-0.1c1-0.1,2.3-0.2,4.2-0.6
	c3.8-0.7,10-2,20.2-4.8c20.3-5.5,56.5-16.6,120.8-39.3l4.9-1.8l0-5.2l-1.4-246.4c0.2-4-3-7.4-7-7.6c-4-0.2-7.4,3-7.6,7
	c0,0.2,0,0.5,0,0.7l1.3,241.2c-60.7,21.4-95.6,32.1-114.8,37.3c-9.9,2.7-15.7,3.9-18.8,4.4c-1.6,0.3-2.5,0.4-2.9,0.4
	c-0.4,0,0.2,0,0.2,0h-0.2H216c-41.8-1.3-76.7-11.2-104.1-21.3c-24-8.8-41.2-17.9-54.7-21.4l-0.7-214.1v0v-0.3l1.2-32.2
	c0.2-4-2.9-7.5-6.9-7.7C50.6,158.9,50.2,158.9,49.9,158.9L49.9,158.9z"/>
<path id="path5878" d="M425.3,119.1l-13.9,3.6l5.2,20.3l1.8,212.7v0l0.1,31.9l-11.6,5.1l-0.2,0.1L356.8,413l5.4,13.3l49.9-20.3
	l0.1,0l0.1,0l16.1-7.1l4.3-1.9l0-4.7l-0.1-36.7v0L431,142v-0.9l-0.2-0.8L425.3,119.1z"/>
<path id="rect5880" d="M199.8,372.4v1.2v62v1.2h1.2h21h1.2v-1.2v-62v-1.2H222h-21H199.8z M202.2,374.8h18.6v59.6h-18.6V374.8z"/>
</svg>
