<?xml version="1.0" encoding="UTF-8" standalone="no"?>
<!-- Created with Inkscape (http://www.inkscape.org/) -->

<svg
   xmlns:dc="http://purl.org/dc/elements/1.1/"
   xmlns:cc="http://creativecommons.org/ns#"
   xmlns:rdf="http://www.w3.org/1999/02/22-rdf-syntax-ns#"
   xmlns:svg="http://www.w3.org/2000/svg"
   xmlns="http://www.w3.org/2000/svg"
   xmlns:sodipodi="http://sodipodi.sourceforge.net/DTD/sodipodi-0.dtd"
   xmlns:inkscape="http://www.inkscape.org/namespaces/inkscape"
   version="1.0"
   width="469pt"
   height="469pt"
   viewBox="0 0 469 469"
   id="svg2"
   inkscape:version="0.48.4 r9939"
   sodipodi:docname="hm_lan_neu.svg">
  <sodipodi:namedview
     pagecolor="#ffffff"
     bordercolor="#666666"
     borderopacity="1"
     objecttolerance="10"
     gridtolerance="10"
     guidetolerance="10"
     inkscape:pageopacity="0"
     inkscape:pageshadow="2"
     inkscape:window-width="1858"
     inkscape:window-height="1057"
     id="namedview9"
     showgrid="false"
     inkscape:zoom="3.2204692"
     inkscape:cx="224.45002"
     inkscape:cy="509.26427"
     inkscape:window-x="1734"
     inkscape:window-y="-8"
     inkscape:window-maximized="1"
     inkscape:current-layer="svg2" />
  <defs
     id="defs12" />
  <metadata
     id="metadata4">
Created by potrace 1.8, written by Peter Selinger 2001-2007
<rdf:RDF>
  <cc:Work
     rdf:about="">
    <dc:format>image/svg+xml</dc:format>
    <dc:type
       rdf:resource="http://purl.org/dc/dcmitype/StillImage" />
    <dc:title />
  </cc:Work>
</rdf:RDF>
</metadata>
  <path
     style="font-size:medium;font-style:normal;font-variant:normal;font-weight:normal;font-stretch:normal;text-indent:0;text-align:start;text-decoration:none;line-height:normal;letter-spacing:normal;word-spacing:normal;text-transform:none;direction:ltr;block-progression:tb;writing-mode:lr-tb;text-anchor:start;baseline-shift:baseline;color:#000000;fill:#000000;fill-opacity:1;fill-rule:nonzero;stroke:none;stroke-width:8;marker:none;visibility:visible;display:inline;overflow:visible;enable-background:accumulate;font-family:Sans;-inkscape-font-specification:Sans"
     d="m 233.9375,11.29375 c -128.19928,0 -232.25,104.05071 -232.25,232.25 0,32.04988 6.4958432,62.6163 18.25,90.40625 11.754093,27.78978 28.769531,52.80078 49.78125,73.8125 21.010512,21.01051 46.02071,38.02631 73.8125,49.78125 l 0.125,0.0312 0.625,0.28125 0.40625,0 c 3.52069,1.06565 7.28354,0.66308 10.25,-1.1875 3.05067,-1.90313 5.0993,-4.70871 6.84375,-7.65625 3.50788,-5.92711 6.13911,-13.47792 9.1875,-21 3.04856,-7.52251 6.48458,-14.96916 10.5,-20.0625 4.03605,-5.11951 7.89694,-7.73011 13.65625,-7.75 0.0239,0.003 0.0386,-0.003 0.0625,0 37.63618,4.42778 50.49397,3.91783 81.875,-0.375 5.52036,-0.0197 9.26907,2.43869 13.15625,7.375 3.91183,4.96761 7.24569,12.34855 10.0625,19.8125 2.81582,7.46131 5.11583,14.95469 7.90625,20.84375 1.37856,2.90942 2.89116,5.65989 5.34375,7.8125 2.79518,2.45332 6.93854,3.51354 10.8125,1.875 27.7918,-11.75494 52.83324,-28.77074 73.84375,-49.78125 21.01171,-21.01172 37.99592,-46.02271 49.75,-73.8125 11.75418,-27.78995 18.25,-58.35637 18.25,-90.40625 0,-128.19929 -104.05072,-232.25 -232.25,-232.25 z m 0,11.90625 c 121.76693,0 220.34375,98.57623 220.34375,220.34375 0,30.44231 -6.16415,59.42361 -17.3125,85.78125 -11.14821,26.35737 -27.27728,50.08977 -47.21875,70.03125 -19.62214,19.62213 -42.92874,35.52951 -68.78125,46.65625 -0.40583,-0.50958 -1.16057,-1.41243 -2.03125,-3.25 -2.15439,-4.54672 -4.56354,-12.07371 -7.53125,-19.9375 -2.96481,-7.85609 -6.51325,-16.19958 -11.84375,-22.96875 -5.35316,-6.79793 -13.10398,-12.08547 -22.875,-11.9375 l -0.0625,0 -0.0312,0 -0.125,0 -0.25,0 -0.28125,0.0312 c -31.71282,4.35189 -41.93609,4.86528 -79.90625,0.375 l -0.125,0 -0.0937,-0.0312 -0.5,0 -0.125,0 c -9.90853,0 -17.65446,5.42144 -23.0625,12.28125 -5.37763,6.82123 -9.02613,15.16787 -12.1875,22.96875 -3.1608,7.79945 -5.91362,15.19456 -8.40625,19.40625 -1.23042,2.07899 -2.53544,3.36242 -2.90625,3.59375 -0.62114,0.38749 0.008,0.34081 -0.5,0.0625 l 0,-0.0312 c -0.0302,-0.0128 -0.0636,-0.0184 -0.0937,-0.0312 C 121.73129,435.39766 98.06129,419.26124 78.1564,399.35635 58.21478,379.41477 42.054475,355.68237 30.90625,329.325 19.75791,302.96736 13.59375,273.98606 13.59375,243.54375 13.59375,121.77623 112.17056,23.2 233.9375,23.2 z"
     id="path3754"
     inkscape:connector-curvature="0" />
  <path
     style="font-size:medium;font-style:normal;font-variant:normal;font-weight:normal;font-stretch:normal;text-indent:0;text-align:start;text-decoration:none;line-height:normal;letter-spacing:normal;word-spacing:normal;text-transform:none;direction:ltr;block-progression:tb;writing-mode:lr-tb;text-anchor:start;baseline-shift:baseline;color:#000000;fill:#000000;fill-opacity:1;fill-rule:nonzero;stroke:none;stroke-width:7.93264341;marker:none;visibility:visible;display:inline;overflow:visible;enable-background:accumulate;font-family:Sans;-inkscape-font-specification:Sans"
     d="m 235.375,72.29375 c -91.33014,0 -165.5,74.16986 -165.5,165.5 0,91.33012 74.16986,165.5 165.5,165.5 91.33012,0 165.5,-74.16988 165.5,-165.5 0,-91.33014 -74.16988,-165.5 -165.5,-165.5 z m 0,11.90625 c 84.89936,0 153.59375,68.69437 153.59375,153.59375 0,84.89936 -68.69439,153.59375 -153.59375,153.59375 -84.89938,0 -153.59375,-68.69439 -153.59375,-153.59375 C 81.78125,152.89437 150.47562,84.2 235.375,84.2 z"
     id="path3761"
     inkscape:connector-curvature="0" />
  <path
     style="font-size:medium;font-style:normal;font-variant:normal;font-weight:normal;font-stretch:normal;text-indent:0;text-align:start;text-decoration:none;line-height:normal;letter-spacing:normal;word-spacing:normal;text-transform:none;direction:ltr;block-progression:tb;writing-mode:lr-tb;text-anchor:start;baseline-shift:baseline;color:#000000;fill:#000000;fill-opacity:1;fill-rule:nonzero;stroke:none;stroke-width:8;marker:none;visibility:visible;display:inline;overflow:visible;enable-background:accumulate;font-family:Sans;-inkscape-font-specification:Sans"
     d="m 236.09375,168.8875 c -37.81867,0 -68.59375,30.77508 -68.59375,68.59375 0,37.81867 30.77508,68.59375 68.59375,68.59375 37.81867,0 68.59375,-30.77508 68.59375,-68.59375 0,-37.81867 -30.77508,-68.59375 -68.59375,-68.59375 z m 0,12 c 31.33353,0 56.59375,25.26022 56.59375,56.59375 0,31.33353 -25.26022,56.59375 -56.59375,56.59375 -31.33353,0 -56.59375,-25.26022 -56.59375,-56.59375 0,-31.33353 25.26022,-56.59375 56.59375,-56.59375 z"
     id="path3763"
     inkscape:connector-curvature="0" />
  <path
     style="font-size:medium;font-style:normal;font-variant:normal;font-weight:normal;font-stretch:normal;text-indent:0;text-align:start;text-decoration:none;line-height:normal;letter-spacing:normal;word-spacing:normal;text-transform:none;direction:ltr;block-progression:tb;writing-mode:lr-tb;text-anchor:start;baseline-shift:baseline;color:#000000;fill:#000000;fill-opacity:1;fill-rule:nonzero;stroke:none;stroke-width:4;marker:none;visibility:visible;display:inline;overflow:visible;enable-background:accumulate;font-family:Sans;-inkscape-font-specification:Sans"
     d="m 227.84375,40.59375 -0.0625,0.03125 -0.0625,0 c -2.07278,0.22823 -3.55938,1.887844 -3.5625,3.96875 -2e-5,0.01081 -6e-5,0.02041 0,0.03125 l 0,33.75 c 2.3e-4,2.26013 1.73987,3.999774 4,4 l 9.9375,0 c 2.26013,-2.26e-4 3.99977,-1.73987 4,-4 l 0,-33.78125 c -2.3e-4,-2.26013 -1.73987,-3.999774 -4,-4 l -9.84375,0 c -0.0336,-0.0018 -0.0601,9.92e-4 -0.0937,0 -0.11218,-0.0033 -0.20038,-0.0061 -0.3125,0 z m 4.3125,8 1.9375,0 0,25.78125 -1.9375,0 0,-25.78125 z"
     id="rect3765"
     inkscape:connector-curvature="0" />
  <path
     style="font-size:medium;font-style:normal;font-variant:normal;font-weight:normal;font-stretch:normal;text-indent:0;text-align:start;text-decoration:none;line-height:normal;letter-spacing:normal;word-spacing:normal;text-transform:none;direction:ltr;block-progression:tb;writing-mode:lr-tb;text-anchor:start;baseline-shift:baseline;color:#000000;fill:#000000;fill-opacity:1;fill-rule:nonzero;stroke:none;stroke-width:4;marker:none;visibility:visible;display:inline;overflow:visible;enable-background:accumulate;font-family:Sans;-inkscape-font-specification:Sans"
     d="m 189.90625,46.21875 c -0.517,-0.05787 -1.08193,2.39e-4 -1.625,0.15625 l -9.53125,2.75 c -2.17214,0.624474 -3.37404,2.76523 -2.75,4.9375 l 9.34375,32.46875 c 0.62447,2.172152 2.76522,3.374044 4.9375,2.75 l 9.5625,-2.75 c 2.17214,-0.624474 3.34279,-2.765231 2.71875,-4.9375 L 193.25,49.125 c -0.46835,-1.629114 -1.79274,-2.732634 -3.34375,-2.90625 z m -3.25,8.96875 7.125,24.75 -1.875,0.53125 -7.09375,-24.78125 z"
     id="rect3765-1"
     inkscape:connector-curvature="0"
     sodipodi:nodetypes="sccccccccsccccc" />
  <path
     style="font-size:medium;font-style:normal;font-variant:normal;font-weight:normal;font-stretch:normal;text-indent:0;text-align:start;text-decoration:none;line-height:normal;letter-spacing:normal;word-spacing:normal;text-transform:none;direction:ltr;block-progression:tb;writing-mode:lr-tb;text-anchor:start;baseline-shift:baseline;color:#000000;fill:#000000;fill-opacity:1;fill-rule:nonzero;stroke:none;stroke-width:4;marker:none;visibility:visible;display:inline;overflow:visible;enable-background:accumulate;font-family:Sans;-inkscape-font-specification:Sans"
     d="m 280.75,45.03125 c -2.08934,-0.349482 -3.9961,0.887844 -4.53125,2.9375 l -8.65625,32.625 c -0.58017,2.184395 0.65947,4.32564 2.84375,4.90625 L 280,88.0625 c 2.1844,0.580169 4.29439,-0.65947 4.875,-2.84375 l 8.6875,-32.65625 c 0.58017,-2.184395 -0.65947,-4.29439 -2.84375,-4.875 l -9.5,-2.53125 c -0.0304,-0.0096 -0.0631,-0.02236 -0.0937,-0.03125 -0.0895,-0.02599 -0.19015,-0.04281 -0.28125,-0.0625 l -0.0312,-0.03125 -0.0625,0 z m 2.15625,8.84375 1.875,0.5 -6.59375,24.9375 -1.875,-0.5 z"
     id="rect3765-7"
     inkscape:connector-curvature="0"
     sodipodi:nodetypes="ccccccccccccccccccc" />
  <g
     transform="matrix(-0.26754831,0.96354445,-0.96354445,-0.26754831,-1.6,14.4)"
     inkscape:transform-center-x="-14.732192"
     inkscape:transform-center-y="4.869831"
     style="font-size:11.19999981px;font-style:normal;font-variant:normal;font-weight:normal;font-stretch:normal;text-align:start;line-height:125%;letter-spacing:0px;word-spacing:0px;writing-mode:lr-tb;text-anchor:start;fill:#000000;fill-opacity:1;stroke:#000000;stroke-opacity:1;font-family:Arial;-inkscape-font-specification:Arial"
     id="text3013">
    <path
       d="m 0.50921607,-281.37888 0,-8.01718 3.02421873,0 c 0.5322872,0 0.9387972,0.0255 1.2195312,0.0766 0.3937445,0.0656 0.7236921,0.1905 0.9898437,0.37461 0.2661395,0.18412 0.480332,0.44206 0.6425781,0.77383 0.1622327,0.33177 0.2433524,0.69636 0.2433594,1.09375 -7e-6,0.68177 -0.2169338,1.25873 -0.6507812,1.73086 -0.4338601,0.47214 -1.2177135,0.7082 -2.3515625,0.7082 l -2.05625,0 0,3.25937 z m 1.06093743,-4.20546 2.0726563,0 c 0.6854119,0 1.1721302,-0.1276 1.4601562,-0.38282 0.2880151,-0.2552 0.4320253,-0.61431 0.4320312,-1.07734 -5.9e-6,-0.33541 -0.084771,-0.62252 -0.2542968,-0.86133 -0.1695368,-0.23879 -0.3928438,-0.39648 -0.6699219,-0.47305 -0.1786506,-0.0474 -0.5085982,-0.0711 -0.9898437,-0.0711 l -2.0507813,0 z"
       style="stroke:#000000;stroke-opacity:1"
       id="path3070"
       inkscape:connector-curvature="0" />
    <path
       d="m 7.4982784,-284.28278 c -4e-7,-1.07552 0.2989576,-1.87213 0.896875,-2.38985 0.4994774,-0.4302 1.1083309,-0.6453 1.8265626,-0.64531 0.798433,1e-5 1.451037,0.2616 1.957812,0.78477 0.506766,0.52318 0.760151,1.24596 0.760157,2.16836 -6e-6,0.74739 -0.112116,1.33528 -0.336329,1.76367 -0.224224,0.42838 -0.550525,0.76107 -0.978906,0.99805 -0.428389,0.23697 -0.895967,0.35546 -1.402734,0.35546 -0.8130233,0 -1.4701841,-0.26067 -1.9714845,-0.78203 -0.5013027,-0.52135 -0.7519535,-1.27239 -0.7519531,-2.25312 z m 1.0117187,0 c -1.4e-6,0.74375 0.1622381,1.30065 0.4867188,1.6707 0.3244769,0.37005 0.7328098,0.55508 1.2250001,0.55508 0.488538,0 0.895048,-0.18594 1.219531,-0.55781 0.324475,-0.37188 0.486714,-0.9388 0.486719,-1.70078 -5e-6,-0.71823 -0.163156,-1.26237 -0.489453,-1.63243 -0.326306,-0.37004 -0.731905,-0.55507 -1.216797,-0.55507 -0.4921903,0 -0.9005232,0.18412 -1.2250001,0.55234 -0.3244807,0.36823 -0.4867202,0.92422 -0.4867188,1.66797 z"
       style="stroke:#000000;stroke-opacity:1"
       id="path3072"
       inkscape:connector-curvature="0" />
    <path
       d="m 15.170935,-281.37888 -1.777344,-5.80781 1.017187,0 0.924219,3.35235 0.344531,1.24687 c 0.01458,-0.062 0.114842,-0.4612 0.300782,-1.19766 l 0.924218,-3.40156 1.011719,0 0.869531,3.36875 0.289844,1.11016 0.333594,-1.1211 0.995312,-3.35781 0.957032,0 -1.815625,5.80781 -1.022657,0 -0.924218,-3.47812 -0.224219,-0.98984 -1.175781,4.46796 z"
       style="stroke:#000000;stroke-opacity:1"
       id="path3074"
       inkscape:connector-curvature="0" />
    <path
       d="m 26.168592,-283.24919 1.017187,0.12578 c -0.160422,0.59428 -0.457557,1.05547 -0.891406,1.3836 -0.433859,0.32812 -0.988025,0.49218 -1.6625,0.49218 -0.849481,0 -1.523048,-0.26158 -2.020703,-0.78476 -0.497657,-0.52318 -0.746485,-1.2569 -0.746484,-2.20117 -10e-7,-0.97708 0.251561,-1.73542 0.754687,-2.275 0.503123,-0.53958 1.155727,-0.80937 1.957813,-0.80938 0.776558,1e-5 1.410932,0.26433 1.903125,0.79297 0.492181,0.52865 0.738275,1.2724 0.738281,2.23125 -6e-6,0.0583 -0.0018,0.14584 -0.0055,0.2625 l -4.33125,0 c 0.03646,0.63802 0.216926,1.12656 0.541406,1.46563 0.324477,0.33906 0.729164,0.50859 1.214063,0.50859 0.360934,0 0.669006,-0.0948 0.924219,-0.28438 0.255203,-0.18958 0.457547,-0.49218 0.607031,-0.90781 z m -3.232031,-1.5914 3.242968,0 c -0.04375,-0.48854 -0.167713,-0.85495 -0.371875,-1.09922 -0.313545,-0.37916 -0.720055,-0.56875 -1.219531,-0.56875 -0.452086,0 -0.832164,0.1513 -1.140234,0.4539 -0.308075,0.30261 -0.478517,0.7073 -0.511328,1.21407 z"
       style="stroke:#000000;stroke-opacity:1"
       id="path3076"
       inkscape:connector-curvature="0" />
    <path
       d="m 28.416248,-281.37888 0,-5.80781 0.885938,0 0,0.88047 c 0.226039,-0.41197 0.434763,-0.68359 0.626171,-0.81484 0.191404,-0.13125 0.401951,-0.19687 0.631641,-0.19688 0.331768,1e-5 0.669007,0.10574 1.011719,0.31719 l -0.339063,0.91328 c -0.240628,-0.14218 -0.481253,-0.21328 -0.721875,-0.21328 -0.215106,0 -0.408335,0.0647 -0.579687,0.19414 -0.171356,0.12943 -0.293492,0.30899 -0.366406,0.53867 -0.109377,0.35001 -0.164065,0.73282 -0.164063,1.14844 l 0,3.04062 z"
       style="stroke:#000000;stroke-opacity:1"
       id="path3078"
       inkscape:connector-curvature="0" />
  </g>
  <g
     transform="matrix(0.02968349,0.99955935,-0.99955935,0.02968349,0,14.4)"
     inkscape:transform-center-x="-12.050922"
     inkscape:transform-center-y="0.56420841"
     style="font-size:11.19999981px;font-style:normal;font-variant:normal;font-weight:normal;font-stretch:normal;text-align:start;line-height:125%;letter-spacing:0px;word-spacing:0px;writing-mode:lr-tb;text-anchor:start;fill:#000000;fill-opacity:1;stroke:#000000;stroke-opacity:1;font-family:Arial;-inkscape-font-specification:Arial"
     id="text3013-1">
    <path
       d="m 79.869321,-229.66677 1.000781,-0.0875 c 0.04739,0.40104 0.157681,0.73008 0.330859,0.98711 0.173175,0.25703 0.442055,0.46484 0.806641,0.62344 0.36458,0.15859 0.774736,0.23789 1.230469,0.23789 0.404683,0 0.761974,-0.0602 1.071875,-0.18047 0.30989,-0.12031 0.540489,-0.28529 0.691796,-0.49492 0.151297,-0.20964 0.226948,-0.43841 0.226954,-0.68633 -6e-6,-0.25156 -0.07292,-0.47122 -0.21875,-0.65898 -0.145839,-0.18776 -0.386464,-0.34544 -0.721875,-0.47305 -0.215109,-0.0839 -0.69089,-0.21419 -1.427344,-0.39102 -0.736461,-0.17682 -1.252346,-0.34361 -1.547656,-0.50039 -0.382814,-0.20051 -0.668101,-0.44934 -0.85586,-0.74648 -0.187761,-0.29713 -0.281641,-0.62981 -0.28164,-0.99805 -1e-6,-0.40468 0.114842,-0.78294 0.344531,-1.13476 0.229686,-0.35182 0.565102,-0.61888 1.00625,-0.80118 0.441143,-0.18228 0.931507,-0.27343 1.471094,-0.27343 0.594266,0 1.118354,0.0957 1.572265,0.28711 0.453901,0.19141 0.802989,0.47305 1.047266,0.84492 0.244264,0.37188 0.375514,0.79297 0.39375,1.26328 l -1.017188,0.0766 c -0.05469,-0.50676 -0.239719,-0.88958 -0.555078,-1.14844 -0.315369,-0.25884 -0.781124,-0.38827 -1.397265,-0.38828 -0.64167,1e-5 -1.109248,0.11759 -1.402735,0.35274 -0.293491,0.23516 -0.440236,0.51862 -0.440234,0.85039 -2e-6,0.28802 0.103904,0.525 0.311719,0.71093 0.204164,0.18595 0.737367,0.37644 1.599609,0.57149 0.862235,0.19506 1.453771,0.3655 1.774609,0.51133 0.466661,0.21511 0.811192,0.48763 1.033594,0.81758 0.222389,0.32995 0.333587,0.71002 0.333594,1.14023 -7e-6,0.42656 -0.122142,0.82852 -0.366406,1.20586 -0.244278,0.37734 -0.595189,0.67083 -1.052735,0.88047 -0.457557,0.20963 -0.97253,0.31445 -1.544922,0.31445 -0.725524,0 -1.333466,-0.10573 -1.823828,-0.31719 -0.490366,-0.21145 -0.875001,-0.52955 -1.153906,-0.95429 -0.278907,-0.42474 -0.425652,-0.90508 -0.440234,-1.44102 z"
       style="stroke:#000000;stroke-opacity:1"
       id="path3057"
       inkscape:connector-curvature="0" />
    <path
       d="m 89.734945,-227.97146 0.142188,0.86953 c -0.277086,0.0583 -0.525003,0.0875 -0.74375,0.0875 -0.357294,0 -0.634377,-0.0565 -0.83125,-0.16953 -0.196876,-0.11302 -0.335418,-0.26159 -0.415625,-0.4457 -0.08021,-0.18411 -0.120313,-0.57148 -0.120313,-1.16211 l 0,-3.34141 -0.721875,0 0,-0.76562 0.721875,0 0,-1.43828 0.978907,-0.59063 0,2.02891 0.989843,0 0,0.76562 -0.989843,0 0,3.3961 c -2e-6,0.28073 0.01731,0.4612 0.05195,0.5414 0.03463,0.0802 0.09114,0.14402 0.169531,0.19141 0.07838,0.0474 0.190493,0.0711 0.336328,0.0711 0.109373,1e-5 0.253383,-0.0128 0.432031,-0.0383 z"
       style="stroke:#000000;stroke-opacity:1"
       id="path3059"
       inkscape:connector-curvature="0" />
    <path
       d="m 94.48182,-227.80739 c -0.364587,0.30989 -0.715498,0.52864 -1.052734,0.65625 -0.337243,0.1276 -0.699091,0.1914 -1.085547,0.1914 -0.638023,0 -1.128387,-0.15586 -1.471094,-0.46758 -0.342709,-0.31171 -0.514063,-0.71002 -0.514062,-1.19492 -10e-7,-0.28437 0.06471,-0.54414 0.19414,-0.77929 0.129427,-0.23516 0.298958,-0.42383 0.508594,-0.56602 0.209634,-0.14219 0.445702,-0.24974 0.708203,-0.32266 0.193227,-0.051 0.484894,-0.10025 0.875,-0.14765 0.794788,-0.0948 1.379944,-0.20781 1.755469,-0.33907 0.0036,-0.13489 0.0055,-0.22056 0.0055,-0.25703 -5e-6,-0.40103 -0.09297,-0.68359 -0.278907,-0.84765 -0.251566,-0.22239 -0.625263,-0.33359 -1.121093,-0.3336 -0.463024,1e-5 -0.80482,0.0811 -1.025391,0.24336 -0.220575,0.16225 -0.383725,0.44936 -0.489453,0.86133 l -0.9625,-0.13125 c 0.0875,-0.41197 0.23151,-0.74466 0.432031,-0.99805 0.20052,-0.25338 0.490363,-0.44843 0.869532,-0.58515 0.379164,-0.13672 0.818486,-0.20507 1.317968,-0.20508 0.49583,10e-6 0.898694,0.0583 1.208594,0.175 0.309891,0.11667 0.537755,0.26342 0.683594,0.44023 0.145828,0.17683 0.247911,0.40014 0.30625,0.66993 0.03281,0.16771 0.04921,0.47031 0.04922,0.90781 l 0,1.3125 c -5e-6,0.9151 0.02096,1.49388 0.06289,1.73633 0.04192,0.24244 0.124864,0.47487 0.248828,0.69726 l -1.028125,0 c -0.102088,-0.20416 -0.167713,-0.44297 -0.196875,-0.7164 z m -0.08203,-2.19844 c -0.357296,0.14583 -0.893233,0.26979 -1.607813,0.37187 -0.404689,0.0583 -0.690887,0.12396 -0.858593,0.19688 -0.16771,0.0729 -0.297137,0.17956 -0.388281,0.31992 -0.09115,0.14037 -0.136721,0.29623 -0.136719,0.46758 -2e-6,0.2625 0.09935,0.48125 0.298047,0.65625 0.198696,0.175 0.489451,0.2625 0.872265,0.2625 0.379164,0 0.716403,-0.0829 1.011719,-0.24883 0.295309,-0.16588 0.512235,-0.39284 0.650781,-0.68086 0.105725,-0.22239 0.15859,-0.55052 0.158594,-0.98437 z"
       style="stroke:#000000;stroke-opacity:1"
       id="path3061"
       inkscape:connector-curvature="0" />
    <path
       d="m 100.7326,-227.09099 0,-0.85312 c -0.45209,0.65625 -1.066408,0.98437 -1.842967,0.98437 -0.342711,0 -0.662632,-0.0656 -0.959766,-0.19687 -0.297137,-0.13125 -0.517709,-0.29623 -0.661719,-0.49493 -0.144011,-0.19869 -0.245183,-0.44205 -0.303515,-0.73007 -0.04011,-0.19323 -0.06016,-0.49948 -0.06016,-0.91875 l 0,-3.59844 0.984375,0 0,3.22109 c -2e-6,0.51407 0.02005,0.86042 0.06016,1.03907 0.06198,0.25885 0.193227,0.46211 0.39375,0.60976 0.200518,0.14766 0.448435,0.22149 0.74375,0.22149 0.295309,0 0.572392,-0.0756 0.83125,-0.22696 0.258852,-0.1513 0.442052,-0.35729 0.549612,-0.61797 0.10754,-0.26067 0.16132,-0.63893 0.16133,-1.13476 l 0,-3.11172 0.98437,0 0,5.80781 z"
       style="stroke:#000000;stroke-opacity:1"
       id="path3063"
       inkscape:connector-curvature="0" />
    <path
       d="m 105.30995,-227.97146 0.14218,0.86953 c -0.27708,0.0583 -0.525,0.0875 -0.74375,0.0875 -0.35729,0 -0.63437,-0.0565 -0.83125,-0.16953 -0.19687,-0.11302 -0.33542,-0.26159 -0.41562,-0.4457 -0.0802,-0.18411 -0.12032,-0.57148 -0.12031,-1.16211 l 0,-3.34141 -0.72188,0 0,-0.76562 0.72188,0 0,-1.43828 0.9789,-0.59063 0,2.02891 0.98985,0 0,0.76562 -0.98985,0 0,3.3961 c 0,0.28073 0.0173,0.4612 0.052,0.5414 0.0346,0.0802 0.0911,0.14402 0.16954,0.19141 0.0784,0.0474 0.19049,0.0711 0.33632,0.0711 0.10938,1e-5 0.25339,-0.0128 0.43204,-0.0383 z"
       style="stroke:#000000;stroke-opacity:1"
       id="path3065"
       inkscape:connector-curvature="0" />
    <path
       d="m 105.87323,-228.82458 0.97343,-0.15313 c 0.0547,0.39011 0.2069,0.68907 0.45665,0.89688 0.24973,0.20781 0.59882,0.31172 1.04726,0.31172 0.45208,0 0.7875,-0.0921 1.00625,-0.27618 0.21875,-0.18411 0.32812,-0.40012 0.32813,-0.64804 -1e-5,-0.2224 -0.0966,-0.3974 -0.28985,-0.525 -0.1349,-0.0875 -0.47031,-0.1987 -1.00625,-0.3336 -0.72187,-0.18228 -1.22226,-0.33997 -1.50117,-0.47304 -0.27891,-0.13307 -0.49037,-0.31719 -0.63437,-0.55235 -0.14402,-0.23515 -0.21602,-0.49491 -0.21602,-0.77929 0,-0.25885 0.0592,-0.49857 0.17773,-0.71914 0.11849,-0.22057 0.27982,-0.40377 0.48399,-0.54961 0.15312,-0.11302 0.36185,-0.20872 0.62617,-0.28711 0.26432,-0.0784 0.54778,-0.11757 0.85039,-0.11758 0.45573,10e-6 0.85586,0.0656 1.20039,0.19687 0.34453,0.13126 0.59883,0.30899 0.76289,0.53321 0.16406,0.22422 0.27708,0.52409 0.33906,0.89961 l -0.9625,0.13125 c -0.0438,-0.29896 -0.17044,-0.53229 -0.38007,-0.7 -0.20964,-0.16771 -0.50587,-0.25156 -0.88868,-0.25157 -0.45208,10e-6 -0.77474,0.0747 -0.96796,0.22422 -0.19323,0.14949 -0.28985,0.32449 -0.28985,0.525 0,0.12761 0.0401,0.24246 0.12031,0.34453 0.0802,0.10574 0.20599,0.19324 0.37735,0.2625 0.0984,0.0365 0.38828,0.12032 0.86953,0.25157 0.69635,0.18594 1.18216,0.33815 1.45742,0.45664 0.27526,0.11849 0.49127,0.29076 0.64805,0.51679 0.15676,0.22605 0.23515,0.50678 0.23515,0.84219 0,0.32813 -0.0957,0.63711 -0.2871,0.92695 -0.19142,0.28985 -0.46759,0.51407 -0.82852,0.67266 -0.36094,0.15859 -0.76927,0.23789 -1.225,0.23789 -0.75469,0 -1.32982,-0.15677 -1.72539,-0.47031 -0.39557,-0.31354 -0.64805,-0.77838 -0.75742,-1.39453 z"
       style="stroke:#000000;stroke-opacity:1"
       id="path3067"
       inkscape:connector-curvature="0" />
  </g>
  <g
     transform="matrix(0.29368919,0.95590097,-0.95590097,0.29368919,1.6,12.8)"
     inkscape:transform-center-x="-10.968305"
     inkscape:transform-center-y="-2.7558722"
     style="font-size:11.19999981px;font-style:normal;font-variant:normal;font-weight:normal;font-stretch:normal;text-align:start;line-height:125%;letter-spacing:0px;word-spacing:0px;writing-mode:lr-tb;text-anchor:start;fill:#000000;fill-opacity:1;stroke:#000000;stroke-opacity:1;font-family:Arial;-inkscape-font-specification:Arial"
     id="text3013-4">
    <path
       d="m 133.85005,-158.45499 0,-8.01719 1.06094,0 0,7.0711 3.94844,0 0,0.94609 z"
       style="stroke:#000000;stroke-opacity:1"
       id="path3048"
       inkscape:connector-curvature="0" />
    <path
       d="m 140.00786,-165.34015 0,-1.13203 0.98438,0 0,1.13203 z m 0,6.88516 0,-5.80781 0.98438,0 0,5.80781 z"
       style="stroke:#000000;stroke-opacity:1"
       id="path3050"
       inkscape:connector-curvature="0" />
    <path
       d="m 142.49615,-158.45499 0,-5.80781 0.88593,0 0,0.82578 c 0.42656,-0.63802 1.04271,-0.95703 1.84844,-0.95703 0.35,0 0.67174,0.0629 0.96523,0.18867 0.29349,0.12579 0.51315,0.29076 0.65899,0.49492 0.14583,0.20417 0.24791,0.44662 0.30625,0.72734 0.0365,0.1823 0.0547,0.50131 0.0547,0.95704 l 0,3.57109 -0.98438,0 0,-3.53281 c 0,-0.40104 -0.0383,-0.70091 -0.11484,-0.89961 -0.0766,-0.1987 -0.21238,-0.35729 -0.40742,-0.47578 -0.19506,-0.11849 -0.42384,-0.17773 -0.68633,-0.17774 -0.41928,1e-5 -0.78112,0.13308 -1.08555,0.39922 -0.30443,0.26615 -0.45664,0.7711 -0.45664,1.51484 l 0,3.17188 z"
       style="stroke:#000000;stroke-opacity:1"
       id="path3052"
       inkscape:connector-curvature="0" />
    <path
       d="m 148.73599,-158.45499 0,-8.01719 0.98437,0 0,4.57188 2.32969,-2.3625 1.27422,0 -2.22031,2.15468 2.44453,3.65313 -1.21406,0 -1.91953,-2.96953 -0.69454,0.66719 0,2.30234 z"
       style="stroke:#000000;stroke-opacity:1"
       id="path3054"
       inkscape:connector-curvature="0" />
  </g>
</svg>
