<?xml version="1.0" encoding="UTF-8" standalone="no"?>
<!-- Created with Inkscape (http://www.inkscape.org/) -->

<svg
   xmlns:dc="http://purl.org/dc/elements/1.1/"
   xmlns:cc="http://creativecommons.org/ns#"
   xmlns:rdf="http://www.w3.org/1999/02/22-rdf-syntax-ns#"
   xmlns:svg="http://www.w3.org/2000/svg"
   xmlns="http://www.w3.org/2000/svg"
   xmlns:sodipodi="http://sodipodi.sourceforge.net/DTD/sodipodi-0.dtd"
   xmlns:inkscape="http://www.inkscape.org/namespaces/inkscape"
   version="1.0"
   width="469pt"
   height="469pt"
   viewBox="0 0 469 469"
   id="svg2"
   inkscape:version="0.91pre3 r13670"
   sodipodi:docname="hm_lan.svg">
  <sodipodi:namedview
     pagecolor="#ffffff"
     bordercolor="#666666"
     borderopacity="1"
     objecttolerance="10"
     gridtolerance="10"
     guidetolerance="10"
     inkscape:pageopacity="0"
     inkscape:pageshadow="2"
     inkscape:window-width="1858"
     inkscape:window-height="1057"
     id="namedview9"
     showgrid="false"
     inkscape:zoom="1.6102346"
     inkscape:cx="216.56749"
     inkscape:cy="374.77546"
     inkscape:window-x="1974"
     inkscape:window-y="-8"
     inkscape:window-maximized="1"
     inkscape:current-layer="svg2" />
  <defs
     id="defs12" />
  <metadata
     id="metadata4">
Created by potrace 1.8, written by Peter Selinger 2001-2007
<rdf:RDF>
  <cc:Work
     rdf:about="">
    <dc:format>image/svg+xml</dc:format>
    <dc:type
       rdf:resource="http://purl.org/dc/dcmitype/StillImage" />
    <dc:title />
  </cc:Work>
</rdf:RDF>
</metadata>
  <path
     style="font-size:medium;font-style:normal;font-variant:normal;font-weight:normal;font-stretch:normal;text-indent:0;text-align:start;text-decoration:none;line-height:normal;letter-spacing:normal;word-spacing:normal;text-transform:none;direction:ltr;block-progression:tb;writing-mode:lr-tb;text-anchor:start;baseline-shift:baseline;color:#000000;fill:#000000;fill-opacity:1;fill-rule:nonzero;stroke:none;stroke-width:8;marker:none;visibility:visible;display:inline;overflow:visible;enable-background:accumulate;font-family:Sans;-inkscape-font-specification:Sans"
     d="m 233.9375,11.29375 c -128.19928,0 -232.25,104.05071 -232.25,232.25 0,32.04988 6.4958432,62.6163 18.25,90.40625 11.754093,27.78978 28.769531,52.80078 49.78125,73.8125 21.010512,21.01051 46.02071,38.02631 73.8125,49.78125 l 0.125,0.0312 0.625,0.28125 0.40625,0 c 3.52069,1.06565 7.28354,0.66308 10.25,-1.1875 3.05067,-1.90313 5.0993,-4.70871 6.84375,-7.65625 3.50788,-5.92711 6.13911,-13.47792 9.1875,-21 3.04856,-7.52251 6.48458,-14.96916 10.5,-20.0625 4.03605,-5.11951 7.89694,-7.73011 13.65625,-7.75 0.0239,0.003 0.0386,-0.003 0.0625,0 37.63618,4.42778 50.49397,3.91783 81.875,-0.375 5.52036,-0.0197 9.26907,2.43869 13.15625,7.375 3.91183,4.96761 7.24569,12.34855 10.0625,19.8125 2.81582,7.46131 5.11583,14.95469 7.90625,20.84375 1.37856,2.90942 2.89116,5.65989 5.34375,7.8125 2.79518,2.45332 6.93854,3.51354 10.8125,1.875 27.7918,-11.75494 52.83324,-28.77074 73.84375,-49.78125 21.01171,-21.01172 37.99592,-46.02271 49.75,-73.8125 11.75418,-27.78995 18.25,-58.35637 18.25,-90.40625 0,-128.19929 -104.05072,-232.25 -232.25,-232.25 z m 0,11.90625 c 121.76693,0 220.34375,98.57623 220.34375,220.34375 0,30.44231 -6.16415,59.42361 -17.3125,85.78125 -11.14821,26.35737 -27.27728,50.08977 -47.21875,70.03125 -19.62214,19.62213 -42.92874,35.52951 -68.78125,46.65625 -0.40583,-0.50958 -1.16057,-1.41243 -2.03125,-3.25 -2.15439,-4.54672 -4.56354,-12.07371 -7.53125,-19.9375 -2.96481,-7.85609 -6.51325,-16.19958 -11.84375,-22.96875 -5.35316,-6.79793 -13.10398,-12.08547 -22.875,-11.9375 l -0.0625,0 -0.0312,0 -0.125,0 -0.25,0 -0.28125,0.0312 c -31.71282,4.35189 -41.93609,4.86528 -79.90625,0.375 l -0.125,0 -0.0937,-0.0312 -0.5,0 -0.125,0 c -9.90853,0 -17.65446,5.42144 -23.0625,12.28125 -5.37763,6.82123 -9.02613,15.16787 -12.1875,22.96875 -3.1608,7.79945 -5.91362,15.19456 -8.40625,19.40625 -1.23042,2.07899 -2.53544,3.36242 -2.90625,3.59375 -0.62114,0.38749 0.008,0.34081 -0.5,0.0625 l 0,-0.0312 c -0.0302,-0.0128 -0.0636,-0.0184 -0.0937,-0.0312 C 121.73129,435.39766 98.06129,419.26124 78.1564,399.35635 58.21478,379.41477 42.054475,355.68237 30.90625,329.325 19.75791,302.96736 13.59375,273.98606 13.59375,243.54375 13.59375,121.77623 112.17056,23.2 233.9375,23.2 z"
     id="path3754"
     inkscape:connector-curvature="0" />
  <path
     style="font-size:medium;font-style:normal;font-variant:normal;font-weight:normal;font-stretch:normal;text-indent:0;text-align:start;text-decoration:none;line-height:normal;letter-spacing:normal;word-spacing:normal;text-transform:none;direction:ltr;block-progression:tb;writing-mode:lr-tb;text-anchor:start;baseline-shift:baseline;color:#000000;fill:#000000;fill-opacity:1;fill-rule:nonzero;stroke:none;stroke-width:7.93264341;marker:none;visibility:visible;display:inline;overflow:visible;enable-background:accumulate;font-family:Sans;-inkscape-font-specification:Sans"
     d="m 235.375,72.29375 c -91.33014,0 -165.5,74.16986 -165.5,165.5 0,91.33012 74.16986,165.5 165.5,165.5 91.33012,0 165.5,-74.16988 165.5,-165.5 0,-91.33014 -74.16988,-165.5 -165.5,-165.5 z m 0,11.90625 c 84.89936,0 153.59375,68.69437 153.59375,153.59375 0,84.89936 -68.69439,153.59375 -153.59375,153.59375 -84.89938,0 -153.59375,-68.69439 -153.59375,-153.59375 C 81.78125,152.89437 150.47562,84.2 235.375,84.2 z"
     id="path3761"
     inkscape:connector-curvature="0" />
  <path
     style="font-size:medium;font-style:normal;font-variant:normal;font-weight:normal;font-stretch:normal;text-indent:0;text-align:start;text-decoration:none;line-height:normal;letter-spacing:normal;word-spacing:normal;text-transform:none;direction:ltr;block-progression:tb;writing-mode:lr-tb;text-anchor:start;baseline-shift:baseline;color:#000000;fill:#000000;fill-opacity:1;fill-rule:nonzero;stroke:none;stroke-width:8;marker:none;visibility:visible;display:inline;overflow:visible;enable-background:accumulate;font-family:Sans;-inkscape-font-specification:Sans"
     d="m 236.09375,168.8875 c -37.81867,0 -68.59375,30.77508 -68.59375,68.59375 0,37.81867 30.77508,68.59375 68.59375,68.59375 37.81867,0 68.59375,-30.77508 68.59375,-68.59375 0,-37.81867 -30.77508,-68.59375 -68.59375,-68.59375 z m 0,12 c 31.33353,0 56.59375,25.26022 56.59375,56.59375 0,31.33353 -25.26022,56.59375 -56.59375,56.59375 -31.33353,0 -56.59375,-25.26022 -56.59375,-56.59375 0,-31.33353 25.26022,-56.59375 56.59375,-56.59375 z"
     id="path3763"
     inkscape:connector-curvature="0" />
  <path
     style="font-size:medium;font-style:normal;font-variant:normal;font-weight:normal;font-stretch:normal;text-indent:0;text-align:start;text-decoration:none;line-height:normal;letter-spacing:normal;word-spacing:normal;text-transform:none;direction:ltr;block-progression:tb;writing-mode:lr-tb;text-anchor:start;baseline-shift:baseline;color:#000000;fill:#000000;fill-opacity:1;fill-rule:nonzero;stroke:none;stroke-width:4;marker:none;visibility:visible;display:inline;overflow:visible;enable-background:accumulate;font-family:Sans;-inkscape-font-specification:Sans"
     d="m 227.84375,40.59375 -0.0625,0.03125 -0.0625,0 c -2.07278,0.22823 -3.55938,1.887844 -3.5625,3.96875 -2e-5,0.01081 -6e-5,0.02041 0,0.03125 l 0,33.75 c 2.3e-4,2.26013 1.73987,3.999774 4,4 l 9.9375,0 c 2.26013,-2.26e-4 3.99977,-1.73987 4,-4 l 0,-33.78125 c -2.3e-4,-2.26013 -1.73987,-3.999774 -4,-4 l -9.84375,0 c -0.0336,-0.0018 -0.0601,9.92e-4 -0.0937,0 -0.11218,-0.0033 -0.20038,-0.0061 -0.3125,0 z m 4.3125,8 1.9375,0 0,25.78125 -1.9375,0 0,-25.78125 z"
     id="rect3765"
     inkscape:connector-curvature="0" />
  <path
     style="font-size:medium;font-style:normal;font-variant:normal;font-weight:normal;font-stretch:normal;text-indent:0;text-align:start;text-decoration:none;line-height:normal;letter-spacing:normal;word-spacing:normal;text-transform:none;direction:ltr;block-progression:tb;writing-mode:lr-tb;text-anchor:start;baseline-shift:baseline;color:#000000;fill:#000000;fill-opacity:1;fill-rule:nonzero;stroke:none;stroke-width:4;marker:none;visibility:visible;display:inline;overflow:visible;enable-background:accumulate;font-family:Sans;-inkscape-font-specification:Sans"
     d="m 189.90625,46.21875 c -0.517,-0.05787 -1.08193,2.39e-4 -1.625,0.15625 l -9.53125,2.75 c -2.17214,0.624474 -3.37404,2.76523 -2.75,4.9375 l 9.34375,32.46875 c 0.62447,2.172152 2.76522,3.374044 4.9375,2.75 l 9.5625,-2.75 c 2.17214,-0.624474 3.34279,-2.765231 2.71875,-4.9375 L 193.25,49.125 c -0.46835,-1.629114 -1.79274,-2.732634 -3.34375,-2.90625 z m -3.25,8.96875 7.125,24.75 -1.875,0.53125 -7.09375,-24.78125 z"
     id="rect3765-1"
     inkscape:connector-curvature="0"
     sodipodi:nodetypes="sccccccccsccccc" />
  <path
     style="font-size:medium;font-style:normal;font-variant:normal;font-weight:normal;font-stretch:normal;text-indent:0;text-align:start;text-decoration:none;line-height:normal;letter-spacing:normal;word-spacing:normal;text-transform:none;direction:ltr;block-progression:tb;writing-mode:lr-tb;text-anchor:start;baseline-shift:baseline;color:#000000;fill:#000000;fill-opacity:1;fill-rule:nonzero;stroke:none;stroke-width:4;marker:none;visibility:visible;display:inline;overflow:visible;enable-background:accumulate;font-family:Sans;-inkscape-font-specification:Sans"
     d="m 280.75,45.03125 c -2.08934,-0.349482 -3.9961,0.887844 -4.53125,2.9375 l -8.65625,32.625 c -0.58017,2.184395 0.65947,4.32564 2.84375,4.90625 L 280,88.0625 c 2.1844,0.580169 4.29439,-0.65947 4.875,-2.84375 l 8.6875,-32.65625 c 0.58017,-2.184395 -0.65947,-4.29439 -2.84375,-4.875 l -9.5,-2.53125 c -0.0304,-0.0096 -0.0631,-0.02236 -0.0937,-0.03125 -0.0895,-0.02599 -0.19015,-0.04281 -0.28125,-0.0625 l -0.0312,-0.03125 -0.0625,0 z m 2.15625,8.84375 1.875,0.5 -6.59375,24.9375 -1.875,-0.5 z"
     id="rect3765-7"
     inkscape:connector-curvature="0"
     sodipodi:nodetypes="ccccccccccccccccccc" />
</svg>
