<?xml version="1.0" encoding="utf-8"?>
<!DOCTYPE svg PUBLIC "-//W3C//DTD SVG 1.1//EN" "http://www.w3.org/Graphics/SVG/1.1/DTD/svg11.dtd">
<svg version="1.1" id="Ebene_3" xmlns="http://www.w3.org/2000/svg" xmlns:xlink="http://www.w3.org/1999/xlink" x="0px" y="0px"
	 width="7086.609px" height="7086.609px" viewBox="0 0 7086.609 7086.609" enable-background="new 0 0 7086.609 7086.609"
	 xml:space="preserve">
<g id="Layout">
	<path fill="#000000" d="M6292.602,5178.342c283.217-475.187,447.504-1041.354,447.504-1635.004c0-1762.871-1434.029-3196.9-3196.7-3196.9
		c-1762.871,0-3196.901,1434.029-3196.901,3196.9s1434.03,3196.834,3196.901,3196.834c593.648,0,1159.816-164.42,1634.802-447.639
		l1223.918,301.361c118.797,27.48,219.316-73.172,191.836-191.635L6292.602,5178.342z M4840.295,4694.084
		c0,91.248-72.973,155.35-155.216,155.35h-2192.1c-91.315,0-155.416-73.173-155.416-155.35V2766.725
		c0-45.624,18.477-91.248,54.896-118.596l1096.05-949.905c54.896-54.696,146.145-54.696,210.112,0l1096.05,949.905
		c36.419,27.348,54.829,72.972,54.829,118.596L4840.295,4694.084L4840.295,4694.084z"/>
</g>
</svg>
