<?xml version="1.0" encoding="UTF-8" standalone="no"?>
<svg
   xmlns:dc="http://purl.org/dc/elements/1.1/"
   xmlns:cc="http://creativecommons.org/ns#"
   xmlns:rdf="http://www.w3.org/1999/02/22-rdf-syntax-ns#"
   xmlns:svg="http://www.w3.org/2000/svg"
   xmlns="http://www.w3.org/2000/svg"
   xmlns:sodipodi="http://sodipodi.sourceforge.net/DTD/sodipodi-0.dtd"
   xmlns:inkscape="http://www.inkscape.org/namespaces/inkscape"
   width="49.466179mm"
   height="61.29509mm"
   viewBox="0 0 49.466179 61.29509"
   version="1.1"
   id="svg8"
   inkscape:version="1.0.1 (3bc2e813f5, 2020-09-07)"
   sodipodi:docname="HomeMatic.svg">
  <defs
     id="defs2" />
  <sodipodi:namedview
     id="base"
     pagecolor="#ffffff"
     bordercolor="#666666"
     borderopacity="1.0"
     inkscape:pageopacity="0.0"
     inkscape:pageshadow="2"
     inkscape:zoom="10.096883"
     inkscape:cx="93.479394"
     inkscape:cy="50.190641"
     inkscape:document-units="mm"
     inkscape:current-layer="layer2"
     inkscape:document-rotation="0"
     showgrid="false"
     fit-margin-top="0"
     fit-margin-left="0"
     fit-margin-right="0"
     fit-margin-bottom="0"
     inkscape:window-width="1920"
     inkscape:window-height="1017"
     inkscape:window-x="-8"
     inkscape:window-y="-8"
     inkscape:window-maximized="1"
     showguides="false" />
  <metadata
     id="metadata5">
    <rdf:RDF>
      <cc:Work
         rdf:about="">
        <dc:format>image/svg+xml</dc:format>
        <dc:type
           rdf:resource="http://purl.org/dc/dcmitype/StillImage" />
        <dc:title />
      </cc:Work>
    </rdf:RDF>
  </metadata>
  <g
     inkscape:label="Ebene 1"
     inkscape:groupmode="layer"
     id="layer1"
     transform="translate(-64.729538,-62.983971)"
     style="display:none" />
  <g
     inkscape:groupmode="layer"
     id="layer2"
     inkscape:label="Ebene 2"
     transform="translate(-14.458702,-3.6417052)"
     style="display:inline">
    <path
       style="fill:#000000;fill-opacity:1;stroke:none;stroke-width:0.268329px;stroke-linecap:butt;stroke-linejoin:miter;stroke-opacity:1"
       d="m 18.557669,33.279773 c 2.209464,-0.377454 4.59003,-0.66432 4.59003,-0.66432 l 0.03225,0.711011 c 0,0 -3.491439,0.289094 -4.658651,0.05402 -0.110837,-0.02232 -0.07511,-0.08166 0.03637,-0.100706 z"
       id="path26"
       sodipodi:nodetypes="sccss" />
    <path
       style="fill:#000000;fill-opacity:1;stroke:none;stroke-width:0.269313px;stroke-linecap:butt;stroke-linejoin:miter;stroke-opacity:1"
       d="m 23.004055,47.806654 -4.515293,0.59428 v 0.33016 l 4.515293,-0.26412 z"
       id="path28" />
    <path
       style="fill:#000000;fill-opacity:1;stroke:none;stroke-width:0.266575px;stroke-linecap:butt;stroke-linejoin:miter;stroke-opacity:1"
       d="m 25.442521,47.410474 c 0,0 3.884783,-0.38686 5.831549,-0.52826 2.00853,-0.14589 3.876547,-0.28931 5.890448,-0.3068 2.360715,-0.0205 7.219534,0.24077 7.219534,0.24077 l 0.02776,1.32063 c 0,0 -5.966982,-0.15048 -8.938596,-0.14007 -3.334373,0.0117 -9.979235,0.21011 -9.979235,0.21011 z"
       id="path30"
       sodipodi:nodetypes="cssccscc" />
    <path
       style="fill:#000000;fill-opacity:1;stroke:none;stroke-width:0.264583px;stroke-linecap:butt;stroke-linejoin:miter;stroke-opacity:1"
       d="m 96.425063,106.26692 c 0,0 4.407237,0.18689 5.935197,0.25236 1.41892,0.0608 2.46043,0.38692 2.46043,0.38692 l 0.0788,0.62136 c 0,0 -2.08075,-0.0743 -3.75114,-0.0405 -1.1368,0.023 -4.666936,-0.005 -4.666936,-0.005 z"
       id="path32"
       transform="translate(-50.270836,-59.342266)"
       sodipodi:nodetypes="csccscc" />
    <path
       style="fill:#000000;fill-opacity:1;stroke:none;stroke-width:0.26929px;stroke-linecap:butt;stroke-linejoin:miter;stroke-opacity:1"
       d="m 24.507051,32.417359 c 0,0 4.628939,-0.41507 6.892678,-0.524244 2.482267,-0.119713 4.970723,-0.103961 7.455775,-0.06603 1.118016,0.01706 3.351679,0.132064 3.351679,0.132064 l 0.345632,1.168264 c 0,0 -5.474521,-0.05659 -8.211815,-0.04573 -3.260768,0.01293 -9.781431,0.155408 -9.781431,0.155408 z"
       id="path34"
       sodipodi:nodetypes="cssccscc" />
    <path
       style="display:inline;fill:#000000;fill-opacity:1;stroke:#000000;stroke-width:0.264583px;stroke-linecap:butt;stroke-linejoin:miter;stroke-opacity:1"
       d="m 68.316975,73.793187 0.653677,0.09338 1.680882,-0.186764 2.848158,-0.303493 0.02335,-0.79375"
       id="path51"
       transform="translate(-50.270836,-59.342266)" />
    <path
       style="display:inline;fill:#000000;fill-opacity:1;stroke:none;stroke-width:0.266399px;stroke-linecap:butt;stroke-linejoin:miter;stroke-opacity:1"
       d="m 38.434918,13.073529 -4.970093,-0.350184 -3.573735,-0.04669 -3.621069,0.233456 -2.177374,0.21011 0.02367,0.974322 4.733418,-0.2973 h 4.875427 l 4.09441,-0.02335 1.704033,0.02335 z"
       id="path53"
       sodipodi:nodetypes="ccccccccccc" />
    <path
       style="display:inline;fill:#000000;fill-opacity:1;stroke:none;stroke-width:0.268079px;stroke-linecap:butt;stroke-linejoin:miter;stroke-opacity:1"
       d="m 18.279595,19.120037 1.797491,-0.490258 2.037157,-0.280147 1.222294,-0.09338 -0.04793,0.747057 -2.15699,0.09338 -1.989223,0.163421 -0.479332,0.09338 z"
       id="path55" />
    <path
       style="display:inline;fill:#000000;fill-opacity:1;stroke:none;stroke-width:0.265268px;stroke-linecap:butt;stroke-linejoin:miter;stroke-opacity:1"
       d="m 24.221285,18.139522 3.801592,-0.280147 5.209592,-0.186765 5.068791,0.07004 5.538124,0.210107 0.703998,0.79375 -4.364792,0.02335 -6.523722,0.04669 -6.500255,-0.07004 -2.909861,0.116728 z"
       id="path57" />
    <path
       style="fill:#000000;fill-opacity:1;stroke:none;stroke-width:0.264583px;stroke-linecap:butt;stroke-linejoin:miter;stroke-opacity:1"
       d="m 64.861829,123.93951 c 0,0 1.687109,-1.00422 2.59136,-1.37739 0.992166,-0.40945 2.03871,-0.68008 3.081617,-0.93383 0.830501,-0.20207 2.521324,-0.46691 2.521324,-0.46691 l 0.560294,-57.056614 0.280147,-0.653676 0.09338,0.560294 1.260662,28.294853 1.260662,28.294853 c 0,0 3.4483,-0.26356 5.252758,-0.37353 1.775334,-0.1082 4.89833,-0.28285 6.676838,-0.3035 1.99421,-0.0232 4.785845,0.3035 4.785845,0.3035 l 1.587499,0.0934 v -6.25662 l -0.186764,-6.81691 -0.186762,-4.29559 -0.653677,-5.136026 -0.840441,-4.482351 -1.400736,-4.575736 c 0,0 -0.919482,-2.868876 -1.634191,-4.295588 -0.645849,-1.289255 -2.381249,-3.828677 -2.381249,-3.828677 l -2.521324,-3.081618 1.867647,1.680883 c 0,0 1.267767,1.18327 1.937684,2.031066 0.637149,0.806327 1.498333,2.012724 1.984375,2.918199 0.647925,1.207057 1.221088,2.52339 1.704227,3.80533 0.642449,1.704643 1.657537,5.159376 1.657537,5.159376 l 1.307353,6.256616 c 0,0 0.766246,4.577106 0.957169,6.886946 0.09555,1.15597 0.132297,2.31899 0.163417,3.47849 0.03113,1.15949 0.179588,2.36566 0.210108,3.52517 0.06351,2.41235 1e-6,7.19044 1e-6,7.19044 l 8.007541,1.05055 0.18676,-8.40441 c 0,0 -0.004,-3.59834 -0.11675,-5.46287 -0.104,-1.72595 -0.25399,-3.47472 -0.5136,-5.29945 -0.30631,-2.15308 -0.67842,-4.596372 -1.21397,-6.746869 -0.27596,-1.108156 -0.95717,-3.408457 -0.95717,-3.408457 0,0 -0.91129,-3.045385 -1.56415,-4.575735 -0.70381,-1.649778 -1.535494,-3.318447 -2.521328,-4.902573 -0.812568,-1.305705 -1.756208,-2.779607 -2.731435,-3.968751 -1.075541,-1.311461 -3.455147,-3.735294 -3.455147,-3.735294 0,0 -1.518701,-1.355023 -2.334558,-1.961029 -0.776246,-0.576583 -2.427942,-1.5875 -2.427942,-1.5875 l -2.241176,-1.213971 c 0,0 2.742685,1.006345 4.155515,1.820956 1.639621,0.945375 3.498891,2.232284 4.902573,3.501838 1.585539,1.434034 3.111552,3.089261 4.412316,4.785846 1.150479,1.500568 2.133702,3.066424 3.058272,4.715808 1.26623,2.258881 2.40319,4.592906 3.26839,7.027023 0.93554,2.63201 1.57797,5.399819 2.19448,8.124268 0.38533,1.70286 0.88714,5.13603 0.88714,5.13603 0,0 0.69238,4.50299 0.81708,6.72352 0.1885,3.35648 -0.07,9.99192 -0.07,9.99192 l 3.82868,1.30735 1.77427,0.74706 c 0,0 -4.01519,-0.84735 -6.18659,-1.14393 -2.16438,-0.29562 -4.60996,-0.47538 -6.79356,-0.53696 -2.084945,-0.0588 -3.644967,-0.0978 -5.719675,0.11678 -0.977644,0.10111 -2.484355,0.36353 -3.431802,0.44356 -2.978277,0.25157 -8.964706,0.07 -8.964706,0.07 0,0 -7.162539,0.1 -10.738971,0.2568 -2.432777,0.10668 -7.447247,0.58363 -7.447247,0.58363 z"
       id="path24"
       transform="translate(-50.270836,-59.342266)"
       sodipodi:nodetypes="cssccccccssccccccccscccsssccssscccssscssscsccsssssscscccsssscscc" />
    <path
       style="display:inline;fill:#000000;fill-opacity:1;stroke:#000000;stroke-width:0.264583px;stroke-linecap:butt;stroke-linejoin:miter;stroke-opacity:1"
       d="m 102.23811,92.469655 -0.2101,-0.63033 c 0,0 -2.324833,-0.174701 -3.641918,-0.256801 -1.484757,-0.09256 -4.7625,-0.256803 -4.7625,-0.256803 l 0.303493,1.050554"
       id="path45"
       sodipodi:nodetypes="csc"
       transform="translate(-50.270836,-59.342266)" />
    <path
       style="display:inline;fill:#000000;fill-opacity:1;stroke:none;stroke-width:0.264583px;stroke-linecap:butt;stroke-linejoin:miter;stroke-opacity:1"
       d="m 102.23811,92.469655 -8.311025,-0.09338 -0.303493,-1.050554"
       id="path47"
       transform="translate(-50.270836,-59.342266)" />
    <path
       style="fill:none;stroke:#000000;stroke-width:0.264583px;stroke-linecap:butt;stroke-linejoin:miter;stroke-opacity:1"
       d="m 51.757175,32.497059 0.210097,0.63033"
       id="path66" />
    <path
       style="display:inline;fill:none;stroke:none;stroke-width:0.264583px;stroke-linecap:butt;stroke-linejoin:miter;stroke-opacity:1"
       d="m 68.316975,73.793185 3.104964,-0.863787 2.101103,-0.326838 -0.02335,0.79375"
       id="path49"
       transform="translate(-50.270836,-59.342266)" />
  </g>
</svg>
