<?xml version="1.0" encoding="UTF-8" standalone="no"?>
<svg
   xmlns:dc="http://purl.org/dc/elements/1.1/"
   xmlns:cc="http://creativecommons.org/ns#"
   xmlns:rdf="http://www.w3.org/1999/02/22-rdf-syntax-ns#"
   xmlns:svg="http://www.w3.org/2000/svg"
   xmlns="http://www.w3.org/2000/svg"
   xmlns:sodipodi="http://sodipodi.sourceforge.net/DTD/sodipodi-0.dtd"
   xmlns:inkscape="http://www.inkscape.org/namespaces/inkscape"
   width="49.782791mm"
   height="70.573128mm"
   viewBox="0 0 49.782791 70.573128"
   version="1.1"
   id="svg8"
   inkscape:version="1.0.1 (3bc2e813f5, 2020-09-07)"
   sodipodi:docname="HomeMatic_Schrift.svg">
  <defs
     id="defs2" />
  <sodipodi:namedview
     id="base"
     pagecolor="#ffffff"
     bordercolor="#666666"
     borderopacity="1.0"
     inkscape:pageopacity="0.0"
     inkscape:pageshadow="2"
     inkscape:zoom="7.7970309"
     inkscape:cx="54.019374"
     inkscape:cy="67.701107"
     inkscape:document-units="mm"
     inkscape:current-layer="layer2"
     inkscape:document-rotation="0"
     showgrid="false"
     fit-margin-top="0"
     fit-margin-left="0"
     fit-margin-right="0"
     fit-margin-bottom="0"
     inkscape:window-width="1920"
     inkscape:window-height="1017"
     inkscape:window-x="-8"
     inkscape:window-y="-8"
     inkscape:window-maximized="1" />
  <metadata
     id="metadata5">
    <rdf:RDF>
      <cc:Work
         rdf:about="">
        <dc:format>image/svg+xml</dc:format>
        <dc:type
           rdf:resource="http://purl.org/dc/dcmitype/StillImage" />
        <dc:title></dc:title>
      </cc:Work>
    </rdf:RDF>
  </metadata>
  <g
     inkscape:label="Ebene 1"
     inkscape:groupmode="layer"
     id="layer1"
     transform="translate(-64.729538,-62.983971)"
     style="display:inline" />
  <g
     inkscape:groupmode="layer"
     id="layer2"
     inkscape:label="Ebene 2"
     transform="translate(-14.458702,-3.6417052)">
    <path
       style="fill:#000000;stroke:none;stroke-width:0.264583px;stroke-linecap:butt;stroke-linejoin:miter;stroke-opacity:1;fill-opacity:1"
       d="m 68.82563,92.622039 c 2.148209,-0.377454 4.462777,-0.66432 4.462777,-0.66432 l 0.03136,0.711011 c 0,0 -3.394643,0.289094 -4.529496,0.05402 -0.107764,-0.02232 -0.07303,-0.08166 0.03536,-0.100706 z"
       id="path26"
       transform="translate(-50.270836,-59.342266)"
       sodipodi:nodetypes="sccss" />
    <path
       style="fill:#000000;fill-opacity:1;stroke:none;stroke-width:0.27766px;stroke-linecap:butt;stroke-linejoin:miter;stroke-opacity:1"
       d="m 23.288255,47.806654 -4.799493,0.59428 v 0.33016 l 4.799493,-0.26412 z"
       id="path28" />
    <path
       style="fill:#000000;fill-opacity:1;stroke:none;stroke-width:0.265781px;stroke-linecap:butt;stroke-linejoin:miter;stroke-opacity:1"
       d="m 25.620142,47.410474 c 0,0 3.861688,-0.38686 5.796882,-0.52826 1.996588,-0.14589 3.8535,-0.28931 5.855429,-0.3068 2.346682,-0.0205 7.176616,0.24077 7.176616,0.24077 l 0.0276,1.32063 c 0,0 -5.931509,-0.15048 -8.885457,-0.14007 -3.314551,0.0117 -9.91991,0.21011 -9.91991,0.21011 z"
       id="path30"
       sodipodi:nodetypes="cssccscc" />
    <path
       style="fill:#000000;stroke:none;stroke-width:0.264583px;stroke-linecap:butt;stroke-linejoin:miter;stroke-opacity:1;fill-opacity:1"
       d="m 96.425063,106.26692 c 0,0 4.407237,0.18689 5.935197,0.25236 1.41892,0.0608 2.46043,0.38692 2.46043,0.38692 l 0.0788,0.62136 c 0,0 -2.08075,-0.0743 -3.75114,-0.0405 -1.1368,0.023 -4.666936,-0.005 -4.666936,-0.005 z"
       id="path32"
       transform="translate(-50.270836,-59.342266)"
       sodipodi:nodetypes="csccscc" />
    <path
       style="fill:#000000;stroke:none;stroke-width:0.264583px;stroke-linecap:butt;stroke-linejoin:miter;stroke-opacity:1;fill-opacity:1"
       d="m 75.246,91.759625 c 0,0 4.468533,-0.41507 6.653826,-0.524244 2.396249,-0.119713 4.798472,-0.103961 7.19741,-0.06603 1.079274,0.01706 3.235534,0.132064 3.235534,0.132064 l 0.333654,1.168264 c 0,0 -5.284812,-0.05659 -7.927251,-0.04573 -3.147773,0.01293 -9.442476,0.155408 -9.442476,0.155408 z"
       id="path34"
       transform="translate(-50.270836,-59.342266)"
       sodipodi:nodetypes="cssccscc" />
    <path
       style="display:inline;fill:none;stroke:#000000;stroke-width:0.264583px;stroke-linecap:butt;stroke-linejoin:miter;stroke-opacity:1"
       d="m 68.316975,73.793187 0.653677,0.09338 1.680882,-0.186764 2.848158,-0.303493 0.02335,-0.79375"
       id="path51"
       transform="translate(-50.270836,-59.342266)" />
    <path
       style="display:inline;fill:#000000;fill-opacity:1;stroke:none;stroke-width:0.26955px;stroke-linecap:butt;stroke-linejoin:miter;stroke-opacity:1"
       d="m 38.538711,13.073529 -5.088376,-0.350184 -3.658785,-0.04669 -3.707247,0.233456 -2.229193,0.21011 0.02423,0.817095 4.846068,-0.140073 h 4.991456 l 4.191854,-0.02335 1.744587,0.02335 z"
       id="path53" />
    <path
       style="display:inline;fill:#000000;fill-opacity:1;stroke:none;stroke-width:0.270887px;stroke-linecap:butt;stroke-linejoin:miter;stroke-opacity:1"
       d="m 18.279595,19.120037 1.835352,-0.490258 2.080066,-0.280147 1.248039,-0.09338 -0.04894,0.747057 -2.202424,0.09338 -2.031122,0.163421 -0.489428,0.09338 z"
       id="path55" />
    <path
       style="display:inline;fill:#000000;stroke:none;stroke-width:0.264583px;stroke-linecap:butt;stroke-linejoin:miter;stroke-opacity:1;fill-opacity:1"
       d="m 74.596939,77.481788 3.781984,-0.280147 5.182722,-0.186765 5.042647,0.07004 5.509559,0.210107 0.700367,0.79375 -4.342279,0.02335 -6.490074,0.04669 -6.466728,-0.07004 -2.894852,0.116728 z"
       id="path57"
       transform="translate(-50.270836,-59.342266)" />
    <path
       style="fill:#000000;stroke:none;stroke-width:0.265;stroke-linecap:butt;stroke-linejoin:miter;stroke-opacity:1;stroke-miterlimit:4;stroke-dasharray:none;fill-opacity:1"
       d="m 64.861829,123.93951 c 0,0 1.687109,-1.00422 2.59136,-1.37739 0.992166,-0.40945 2.03871,-0.68008 3.081617,-0.93383 0.830501,-0.20207 2.521324,-0.46691 2.521324,-0.46691 l 0.560294,-57.056614 0.280147,-0.653676 0.09338,0.560294 1.260662,28.294853 1.260662,28.294853 c 0,0 3.4483,-0.26356 5.252758,-0.37353 1.775334,-0.1082 4.89833,-0.28285 6.676838,-0.3035 1.99421,-0.0232 4.785845,0.3035 4.785845,0.3035 l 1.587499,0.0934 v -6.25662 l -0.186764,-6.81691 -0.186762,-4.29559 -0.653677,-5.136026 -0.840441,-4.482351 -1.400736,-4.575736 c 0,0 -0.919482,-2.868876 -1.634191,-4.295588 -0.645849,-1.289255 -2.381249,-3.828677 -2.381249,-3.828677 l -2.521324,-3.081618 1.867647,1.680883 c 0,0 1.267767,1.18327 1.937684,2.031066 0.637149,0.806327 1.498333,2.012724 1.984375,2.918199 0.647925,1.207057 1.221088,2.52339 1.704227,3.80533 0.642449,1.704643 1.657537,5.159376 1.657537,5.159376 l 1.307353,6.256616 c 0,0 0.766246,4.577106 0.957169,6.886946 0.09555,1.15597 0.132297,2.31899 0.163417,3.47849 0.03113,1.15949 0.179588,2.36566 0.210108,3.52517 0.06351,2.41235 1e-6,7.19044 1e-6,7.19044 l 8.007541,1.05055 0.18676,-8.40441 c 0,0 -0.004,-3.59834 -0.11675,-5.46287 -0.104,-1.72595 -0.25399,-3.47472 -0.5136,-5.29945 -0.30631,-2.15308 -0.67842,-4.596372 -1.21397,-6.746869 -0.27596,-1.108156 -0.95717,-3.408457 -0.95717,-3.408457 0,0 -0.91129,-3.045385 -1.56415,-4.575735 -0.70381,-1.649778 -1.535494,-3.318447 -2.521328,-4.902573 -0.812568,-1.305705 -1.756208,-2.779607 -2.731435,-3.968751 -1.075541,-1.311461 -3.455147,-3.735294 -3.455147,-3.735294 0,0 -1.518701,-1.355023 -2.334558,-1.961029 -0.776246,-0.576583 -2.427942,-1.5875 -2.427942,-1.5875 l -2.241176,-1.213971 c 0,0 2.742685,1.006345 4.155515,1.820956 1.639621,0.945375 3.498891,2.232284 4.902573,3.501838 1.585539,1.434034 3.111552,3.089261 4.412316,4.785846 1.150479,1.500568 2.133702,3.066424 3.058272,4.715808 1.26623,2.258881 2.40319,4.592906 3.26839,7.027023 0.93554,2.63201 1.57797,5.399819 2.19448,8.124268 0.38533,1.70286 0.88714,5.13603 0.88714,5.13603 0,0 0.69238,4.50299 0.81708,6.72352 0.1885,3.35648 -0.07,9.99192 -0.07,9.99192 l 3.82868,1.30735 1.77427,0.74706 c 0,0 -4.01519,-0.84735 -6.18659,-1.14393 -2.16438,-0.29562 -4.60996,-0.47538 -6.79356,-0.53696 -2.084945,-0.0588 -3.644967,-0.0978 -5.719675,0.11678 -0.977644,0.10111 -2.484355,0.36353 -3.431802,0.44356 -2.978277,0.25157 -8.964706,0.07 -8.964706,0.07 0,0 -7.162539,0.1 -10.738971,0.2568 -2.432777,0.10668 -7.447247,0.58363 -7.447247,0.58363 z"
       id="path24"
       transform="translate(-50.270836,-59.342266)"
       sodipodi:nodetypes="cssccccccssccccccccscccsssccssscccssscssscsccsssssscscccsssscscc" />
    <path
       style="display:inline;fill:#000000;stroke:none;stroke-width:0.264583px;stroke-linecap:butt;stroke-linejoin:miter;stroke-opacity:1;fill-opacity:1"
       d="m 93.623592,91.325721 c 0,0 3.277743,0.164248 4.7625,0.256803 1.317085,0.0821 3.641918,0.256801 3.641918,0.256801 l 0.2101,0.63033 v 0 l 0,0"
       id="path45"
       sodipodi:nodetypes="csc"
       transform="translate(-50.270836,-59.342266)" />
    <path
       style="display:inline;fill:#000000;stroke:none;stroke-width:0.264583px;stroke-linecap:butt;stroke-linejoin:miter;stroke-opacity:1;fill-opacity:1"
       d="m 102.23811,92.469655 -8.311025,-0.09338 -0.303493,-1.050554"
       id="path47"
       transform="translate(-50.270836,-59.342266)" />
    <path
       style="fill:none;stroke:#000000;stroke-width:0.264583px;stroke-linecap:butt;stroke-linejoin:miter;stroke-opacity:1"
       d="m 51.757175,32.497059 0.210097,0.63033"
       id="path66" />
    <path
       style="display:inline;fill:#000000;stroke:none;stroke-width:0.264583px;stroke-linecap:butt;stroke-linejoin:miter;stroke-opacity:1;fill-opacity:1"
       d="m 68.316975,73.793185 3.104964,-0.863787 2.101103,-0.326838 -0.02335,0.79375"
       id="path49"
       transform="translate(-50.270836,-59.342266)" />
    <path
       style="display:inline;fill:#000000;fill-opacity:1;stroke-width:0.092186"
       d="m 72.360222,133.42118 c -0.580518,-0.17743 -1.138862,-0.63635 -1.479775,-1.21628 -0.219341,-0.37312 -0.25265,-0.5279 -0.251266,-1.16763 0.0013,-0.57984 0.04483,-0.81896 0.203858,-1.11863 0.422142,-0.79547 1.156724,-1.30219 2.016384,-1.39091 0.999282,-0.10318 1.976066,0.43597 2.459737,1.35759 0.238349,0.45416 0.262361,0.57828 0.231789,1.19804 -0.03907,0.79206 -0.226877,1.25337 -0.704823,1.73132 -0.634818,0.63482 -1.605358,0.87256 -2.475904,0.6065 z m 1.288977,-0.49964 c 0.807389,-0.22421 1.357225,-1.01611 1.357225,-1.95474 0,-0.48932 -0.04444,-0.6549 -0.272115,-1.01391 -0.690826,-1.08932 -2.296195,-1.19927 -3.109207,-0.21294 -0.509381,0.61797 -0.618307,1.37536 -0.299028,2.07925 0.252983,0.55772 0.418832,0.72718 0.96086,0.98178 0.506687,0.23798 0.834849,0.26702 1.362265,0.12056 z m 13.126836,0.52351 c -0.614146,-0.17161 -1.158237,-0.57831 -1.488682,-1.11279 -0.385077,-0.62284 -0.4438,-1.62957 -0.136689,-2.34347 0.409013,-0.95077 1.437848,-1.55706 2.481637,-1.46241 0.661524,0.0599 1.153908,0.30996 1.631866,0.82848 0.403625,0.43788 0.571684,0.82742 0.607642,1.4084 l 0.02264,0.3662 -2.165196,0.0461 c -2.004093,0.0427 -2.16761,0.0587 -2.197585,0.21471 -0.09158,0.47684 0.69491,1.35593 1.377552,1.53974 0.732482,0.19723 1.615291,-0.0986 2.068972,-0.69346 0.275074,-0.36064 0.685794,-0.4539 0.685794,-0.15572 0,0.27698 -0.617688,0.91142 -1.131653,1.16233 -0.604589,0.29514 -1.184154,0.36177 -1.756322,0.2019 z m 2.48653,-2.87036 c 0.08495,-0.22138 -0.142856,-0.66032 -0.519139,-1.00028 -0.943231,-0.85215 -2.42243,-0.61818 -3.029022,0.47912 -0.363291,0.65717 -0.353263,0.66109 1.691045,0.66109 1.527479,0 1.811633,-0.0214 1.857116,-0.13993 z m 11.071795,2.86617 c -0.930817,-0.33217 -1.464527,-1.14167 -1.526097,-2.31466 -0.03258,-0.62087 -0.0052,-0.82154 0.166399,-1.2205 0.226786,-0.52717 0.84657,-1.15855 1.339448,-1.36448 0.66353,-0.27724 1.74102,-0.11077 2.22482,0.34374 0.22126,0.20786 0.39987,0.16238 0.39987,-0.1018 0,-0.28579 0.70423,-0.40493 0.91221,-0.15434 0.074,0.0892 0.0978,0.80545 0.0804,2.41989 l -0.0246,2.29324 -0.48398,0.0279 c -0.43129,0.0248 -0.48397,0.007 -0.48397,-0.15589 0,-0.25553 -0.16603,-0.33199 -0.35317,-0.16263 -0.51542,0.46646 -1.53936,0.64365 -2.25128,0.38959 z m 1.82055,-1.14798 c 0.45179,-0.26061 0.6917,-0.70242 0.6917,-1.27382 0,-0.5728 -0.1527,-0.92132 -0.55024,-1.25583 -0.68486,-0.57627 -1.8468,-0.31134 -2.27619,0.51901 -0.175409,0.3392 -0.177197,1.07522 -0.003,1.41125 0.40155,0.7765 1.36358,1.04619 2.13817,0.59939 z m 9.10595,1.1326 c -0.21423,-0.079 -0.59564,-0.32882 -0.84755,-0.55532 -1.73474,-1.55968 -0.60757,-4.46587 1.7291,-4.45816 0.73391,0.002 1.2829,0.22158 1.79718,0.71746 0.38013,0.36651 0.64304,0.78856 0.54952,0.88208 -0.0318,0.0317 -0.31328,0.0578 -0.62555,0.0578 -0.48466,0 -0.5991,-0.0333 -0.78177,-0.22779 -0.62441,-0.66464 -1.81837,-0.44394 -2.26439,0.41856 -0.18784,0.36325 -0.17032,1.08288 0.0357,1.46705 0.44833,0.83594 1.54673,1.03873 2.26354,0.41789 0.21843,-0.18917 0.36446,-0.23199 0.79127,-0.23199 0.28788,0 0.54941,0.026 0.58119,0.0578 0.17085,0.17084 -0.63729,1.07812 -1.22546,1.3758 -0.44076,0.22309 -1.49829,0.26472 -2.00279,0.0789 z M 64.77377,130.1615 v -3.23875 l 0.253511,0.0292 0.253512,0.0292 0.04609,1.3828 0.04609,1.38279 h 1.705442 1.705443 l 0.02545,-1.40585 0.02544,-1.40583 h 0.274157 0.274158 v 3.22651 3.22652 h -0.276558 -0.276558 v -1.51032 c 0,-1.48833 -0.0031,-1.51113 -0.207419,-1.56591 -0.26859,-0.072 -2.817859,-0.0725 -3.085999,-6.9e-4 -0.199994,0.0536 -0.205823,0.0926 -0.230465,1.54285 l -0.02529,1.48786 -0.253512,0.0292 -0.253511,0.0292 z m 11.913494,0.85273 c 0.02441,-2.35481 0.0262,-2.37402 0.224103,-2.40222 0.135525,-0.0193 0.218814,0.0325 0.259725,0.16133 0.07621,0.24009 0.173509,0.23863 0.506547,-0.007 0.322596,-0.23851 1.054555,-0.32609 1.499093,-0.17937 0.175991,0.058 0.494643,0.2551 0.708114,0.43782 l 0.388129,0.33222 0.293632,-0.28417 c 0.624029,-0.60395 1.383991,-0.72074 2.163184,-0.33245 0.559625,0.27886 0.897833,0.64817 1.030253,1.12497 0.05237,0.18856 0.09545,1.05843 0.09573,1.93304 l 3.48e-4,1.59022 H 83.57956 83.303001 v -1.59374 c 0,-1.47143 -0.01592,-1.62475 -0.207421,-1.99822 -0.505648,-0.9861 -1.901567,-0.98696 -2.396694,-0.001 -0.13533,0.26935 -0.161204,0.58326 -0.161325,1.95712 l -1.43e-4,1.6363 H 80.26086 79.984302 v -1.59372 c 0,-1.47145 -0.01592,-1.62477 -0.207419,-1.99823 -0.505648,-0.98611 -1.901568,-0.98696 -2.396695,-0.001 -0.13533,0.26936 -0.161204,0.58327 -0.161326,1.95712 l -1.42e-4,1.6363 h -0.277947 -0.278115 z m 14.311058,2.26253 c -0.02543,-0.0663 -0.03531,-1.50993 -0.02195,-3.20809 l 0.02432,-3.08759 h 0.816494 0.816491 l 0.387335,1.10624 c 0.213037,0.60843 0.586624,1.67663 0.830197,2.37379 0.258566,0.74006 0.492094,1.26756 0.561164,1.26756 0.113561,0 0.270503,-0.40334 1.355434,-3.48346 l 0.463924,-1.31707 0.795365,0.0265 0.795367,0.0264 v 3.18042 3.18043 l -0.525462,0.0275 -0.525459,0.0275 -0.02766,-2.25551 c -0.02492,-2.03064 -0.06661,-2.49278 -0.211874,-2.34751 -0.02526,0.0253 -0.393763,1.0589 -0.81887,2.29697 l -0.772927,2.25103 -0.50561,0.0273 -0.505606,0.0273 -0.626382,-1.82491 c -0.876579,-2.55384 -0.967507,-2.79286 -1.062423,-2.79286 -0.04755,0 -0.09464,0.98923 -0.108609,2.2816 l -0.02467,2.2816 -0.531184,0.0277 c -0.373154,0.0194 -0.544946,-0.008 -0.577432,-0.0928 z m 14.122218,0.0498 c -0.0338,-0.0338 -0.0614,-0.90219 -0.0614,-1.92977 v -1.86833 l -0.25351,-0.0292 c -0.23228,-0.0267 -0.25587,-0.066 -0.28166,-0.46833 -0.0271,-0.42306 -0.018,-0.44121 0.24996,-0.49479 l 0.2781,-0.0556 0.0265,-0.74973 0.0265,-0.74972 0.53007,-0.0277 0.53007,-0.0276 v 0.74498 c 0,0.5156 0.0355,0.75591 0.11524,0.78049 0.0633,0.0196 0.23153,0.061 0.37367,0.0923 0.24396,0.0536 0.25688,0.0812 0.23047,0.49168 -0.0262,0.40718 -0.0456,0.43689 -0.30424,0.46625 -0.15194,0.0172 -0.30687,0.0795 -0.34428,0.13828 -0.0374,0.0588 -0.0686,0.92622 -0.0695,1.92759 l -10e-4,1.82068 h -0.49167 c -0.27041,0 -0.5193,-0.0277 -0.55311,-0.0614 z m 2.54126,-2.35377 0.0246,-2.42453 0.42291,-0.0275 c 0.28128,-0.0183 0.45935,0.0164 0.53171,0.1036 0.0786,0.0948 0.10201,0.76554 0.0841,2.42433 l -0.0247,2.29323 -0.53161,0.0277 -0.53162,0.0277 z m -0.0215,-3.58146 v -0.46553 l 0.53006,0.0276 c 0.4768,0.0248 0.53316,0.0495 0.56076,0.24444 0.0169,0.11924 0.005,0.31628 -0.0248,0.43788 -0.0501,0.19969 -0.10444,0.2211 -0.56076,0.2211 h -0.50526 z"
       id="path853"
       transform="translate(-50.270836,-59.342266)" />
  </g>
</svg>
