<?xml version="1.0" encoding="UTF-8" standalone="no"?>
<!-- Created with Inkscape (http://www.inkscape.org/) -->

<svg
   xmlns:dc="http://purl.org/dc/elements/1.1/"
   xmlns:cc="http://creativecommons.org/ns#"
   xmlns:rdf="http://www.w3.org/1999/02/22-rdf-syntax-ns#"
   xmlns:svg="http://www.w3.org/2000/svg"
   xmlns="http://www.w3.org/2000/svg"
   version="1.1"
   width="550"
   height="550"
   viewBox="0 0 550 550"
   id="svg2">
  <defs
     id="defs4" />
  <metadata
     id="metadata7">
    <rdf:RDF>
      <cc:Work
         rdf:about="">
        <dc:format>image/svg+xml</dc:format>
        <dc:type
           rdf:resource="http://purl.org/dc/dcmitype/StillImage" />
        <dc:title></dc:title>
      </cc:Work>
    </rdf:RDF>
  </metadata>
  <g
     id="g3080">
    <path
       d="m 190.59176,498.82507 -40.29379,-0.45409 -1.75964,-2.18734 c -2.82509,-3.51174 -5.86939,-10.55576 -6.80637,-15.74884 -1.46067,-8.09552 -2.03177,-32.95331 -0.91462,-39.80955 2.44777,-15.02251 8.36796,-31.64475 19.31029,-54.21781 12.81347,-26.4331 21.23704,-39.07423 39.62633,-59.46661 14.45072,-16.02479 28.52156,-29.13053 40.02659,-37.28119 12.4563,-8.82458 13.52528,-10.57468 9.5076,-15.56553 -1.15783,-1.43827 -5.77206,-4.98053 -10.25386,-7.87171 -14.02728,-9.04888 -40.49928,-33.36881 -54.42904,-50.00418 -21.58919,-25.78252 -42.02301,-73.63306 -45.43347,-106.39305 -2.42479,-23.291926 2.25569,-51.032718 9.08932,-53.871602 3.67964,-1.528626 53.84148,-2.34802 156.08662,-2.549678 92.37131,-0.182183 95.27791,-0.138201 96.97526,1.467415 0.96239,0.910375 2.6507,3.262051 3.75178,5.225947 16.91775,30.17455 1.18373,99.459838 -33.65611,148.205768 -7.66893,10.72993 -20.92121,25.3412 -32.13515,35.43053 -12.31408,11.07913 -24.34796,20.68826 -28.11228,22.44782 -1.88063,0.87906 -5.80099,3.88796 -8.7119,6.68644 l -5.29258,5.08814 4.39343,4.52042 c 2.41639,2.48623 6.35974,5.68036 8.76302,7.09807 9.56426,5.64205 32.83934,27.71378 45.56739,43.21153 20.37317,24.80647 37.41557,55.01022 47.27188,83.77856 5.69433,16.62049 6.00633,18.80043 6.01076,41.99689 0.003,18.83735 -0.15255,21.081 -1.86281,26.7642 -3.4497,11.46332 -5.1327,12.31947 -26.59295,13.52812 -13.87058,0.78118 -119.6776,0.76523 -190.1257,-0.0287 l 0,3e-5 z m 198.59066,-19.01303 c 3.29016,-1.97241 4.09166,-5.89068 4.07845,-19.93822 -0.0163,-17.24683 -2.22174,-27.61199 -10.57331,-49.69054 C 369.6373,375.6831 342.75359,337.004 316.32914,314.70973 297.734,299.02103 283.28006,290.44741 274.43362,289.85861 c -4.57345,-0.30439 -5.65574,-0.006 -11.54567,3.17952 -16.54057,8.94676 -48.19211,38.05746 -64.52978,59.34962 -13.80075,17.9859 -31.81554,53.4401 -37.42379,73.65227 -4.21928,15.20638 -5.869,44.32107 -2.92363,51.59693 l 1.52379,3.76416 113.93966,-0.26442 c 87.31497,-0.20263 114.35293,-0.51217 115.70822,-1.32465 l 0,0 z M 284.82196,263.0858 c 20.51763,-12.14801 37.72426,-25.90685 55.34676,-44.25664 17.67253,-18.4019 25.75758,-29.99776 35.97095,-51.59079 8.62908,-18.24356 15.19253,-38.00778 17.2768,-52.02484 0.7268,-4.88785 1.3596,-15.07577 1.42069,-22.872762 0.10319,-13.171834 -0.0178,-14.345323 -1.91629,-18.592375 l -2.02644,-4.53317 -116.49101,0 -116.49101,0 -1.03188,2.36724 c -0.56754,1.301983 -1.44889,5.624956 -1.95856,9.606608 -1.17355,9.167964 0.28639,32.556859 2.67395,42.838099 4.1585,17.90715 16.80144,48.1615 26.67589,63.83497 10.51659,16.69271 25.75664,33.98863 42.03656,47.70727 15.90126,13.39954 44.21517,32.25612 48.43387,32.25612 1.14094,0 5.67682,-2.13288 10.07972,-4.73973 z"
       id="path3060"
       style="fill:#000000;fill-opacity:1;stroke:none" />
    <path
       d="m 166.85124,45.109577 c -13.90195,-0.374563 -15.79856,-0.706355 -18.65908,-3.264199 -4.44804,-3.97741 -2.58325,-10.753373 3.43439,-12.479251 2.48819,-0.713622 26.79686,-0.885495 125.23931,-0.885495 l 122.15185,0 2.8329,3.191265 c 3.89356,4.386093 3.81586,6.525899 -0.38248,10.534315 l -3.36063,3.208612 -108.72248,0.03344 C 229.58768,45.466654 174.44747,45.314246 166.85124,45.10958 z"
       id="path3058"
       style="fill:#000000;fill-opacity:1;stroke:none" />
    <path
       d="m 266.33596,254.7738 c -10.40255,-6.07712 -21.11409,-13.98196 -28.27875,-20.86901 l -6.22114,-5.98008 2.62163,-1.95126 c 4.78089,-3.55836 11.46645,-6.21092 18.21833,-7.22828 5.52424,-0.83238 8.82479,-2.11357 19.22496,-7.46267 14.92176,-7.67468 22.60436,-9.95205 33.57268,-9.95205 5.93271,0 9.32214,0.5101 14.30522,2.1529 3.59168,1.1841 8.50786,2.59475 10.92485,3.13478 2.41699,0.54003 4.39451,1.32252 4.39451,1.73888 0,2.55918 -13.72743,17.08083 -25.45626,26.92907 -10.427,8.75513 -32.7923,23.85318 -35.18687,23.75344 -0.48401,-0.0202 -4.13763,-1.93973 -8.11916,-4.26572 z"
       id="path3062"
       style="fill:#000000;fill-opacity:1;stroke:none" />
    <path
       d="m 163.6374,470.33188 c -1.34061,-3.0755 -1.22807,-4.19392 0.67668,-6.72502 3.57074,-4.74493 24.60356,-12.87 40.20441,-15.53114 25.40502,-4.3335 30.4442,-6.79311 51.06003,-24.92224 11.39436,-10.01997 14.44587,-11.8397 19.84658,-11.83529 5.08418,0.004 7.57184,1.58443 17.6829,11.23298 4.36587,4.16617 11.32382,10.81178 15.4621,14.76802 4.1383,3.95624 8.69252,7.59609 10.1205,8.08855 1.42798,0.49247 8.87663,2.04666 16.55255,3.45376 9.85937,1.80737 16.22436,3.50692 21.68279,5.78964 4.24961,1.7772 10.77619,3.81 14.50348,4.51733 3.72729,0.70734 8.00108,1.83805 9.49731,2.51269 2.59858,1.17169 2.72041,1.44278 2.72041,6.05293 l 0,4.82629 -109.51916,0 -109.51917,0 -0.97141,-2.2285 z"
       id="path3064"
       style="fill:#000000;fill-opacity:1;stroke:none" />
    <path
       d="m 153.24125,524.8685 c -5.57174,-1.4765 -8.15331,-4.09391 -8.15331,-8.26654 0,-4.35717 2.99278,-6.48909 11.30018,-8.04977 5.48631,-1.0307 13.318,-1.09207 123.0112,-0.9639 l 117.15187,0.1369 3.61893,2.63759 c 6.234,4.54353 6.4285,8.31909 0.68897,13.37395 l -2.29387,2.02025 -121.08855,-0.0273 c -99.08375,-0.0223 -121.66042,-0.17883 -124.23542,-0.8612 z"
       id="path3066"
       style="fill:#000000;fill-opacity:1;stroke:none" />
  </g>
</svg>
