<svg width="32" height="32" viewBox="0 0 32 32" fill="#000000" xmlns="http://www.w3.org/2000/svg">
<path fill-rule="evenodd" clip-rule="evenodd" d="M6 5C6 4.44772 6.44772 4 7 4H8C8.55228 4 9 4.44772 9 5V14.0183C12.5542 14.2219 14.9304 16.5571 16.2836 17.8868C16.4304 18.0311 16.5652 18.1636 16.6881 18.2802C16.8271 18.412 16.9707 18.5513 17.1193 18.6955C18.5794 20.1125 20.5322 22.0074 23.5001 22.0074C24.2582 22.0074 24.9767 21.8813 25.6439 21.6726L23.2457 12.2119C23.11 11.6766 23.434 11.1325 23.9693 10.9967L24.9387 10.7507C25.474 10.6149 26.018 10.9388 26.1537 11.4742L28.375 20.2372C29.2168 19.5987 29.8406 18.9165 30.1821 18.4307C30.4997 17.9788 31.1235 17.87 31.5753 18.1878C32.027 18.5056 32.1358 19.1296 31.8181 19.5816C30.7827 21.0547 27.705 24.0082 23.5001 24.0082C20.3051 24.0082 18.0116 22.2766 16.5168 20.8945L9.70696 27.7072C9.31652 28.0978 8.68348 28.0978 8.29304 27.7072L7.58564 26.9995C7.1952 26.6089 7.1952 25.9756 7.58564 25.585L14.356 18.8118C12.9575 17.4885 11.1262 16.0049 8.50008 16.0049C5.205 16.0049 2.65772 18.387 1.81811 19.5816C1.50045 20.0335 0.876692 20.1423 0.424907 19.8245C-0.0268778 19.5067 -0.135606 18.8827 0.182055 18.4307C0.999212 17.2681 3.08848 15.1834 6 14.3562V5ZM6.75 5.25031V6.25031C6.75 6.52645 6.97386 6.75031 7.25 6.75031H7.75C8.02614 6.75031 8.25 6.52645 8.25 6.25031V5.25031C8.25 4.97416 8.02614 4.75031 7.75 4.75031H7.25C6.97386 4.75031 6.75 4.97416 6.75 5.25031ZM24.0342 12.2701L24.2799 13.2395C24.3478 13.5071 24.6198 13.6691 24.8874 13.6012L25.3721 13.4782C25.6397 13.4103 25.8017 13.1383 25.7339 12.8706L25.4881 11.9013C25.4203 11.6336 25.1483 11.4716 24.8806 11.5395L24.396 11.6625C24.1283 11.7304 23.9664 12.0024 24.0342 12.2701ZM10.0604 25.5854L9.70696 25.2318C9.51174 25.0365 9.19522 25.0365 9 25.2318L8.29304 25.939C8.09782 26.1343 8.09782 26.451 8.29304 26.6463L8.64652 26.9999C8.84174 27.1952 9.15826 27.1952 9.35348 26.9999L10.0604 26.2927C10.2557 26.0974 10.2557 25.7807 10.0604 25.5854Z" fill="#000000"/>
</svg>
