<?xml version="1.0" encoding="utf-8"?>
<!-- Generator: Adobe Illustrator 18.1.1, SVG Export Plug-In . SVG Version: 6.00 Build 0)  -->

<svg version="1.1" id="Layer_1" xmlns="http://www.w3.org/2000/svg" xmlns:xlink="http://www.w3.org/1999/xlink" x="0px" y="0px"
	 viewBox="-3 -3 26 26" enable-background="new 0 0 20 20" xml:space="preserve">
	<g fill="#000000">
		<path d="M10,0c4.1,0,6.7,1.3,6.7,2.2S14.1,4.3,10,4.3C5.9,4.3,3.3,3,3.3,2.2S5.9,0,10,0z"/>
		<path d="M12.3,5.4c-0.1,1.2-0.4,3.3-1.3,4.2c-0.3,0.3-0.7,0.5-1.1,0.5c-0.4,0-0.8-0.2-1.1-0.5c-0.9-0.9-1.2-3-1.3-4.3
			C8.3,5.5,9.1,5.5,10,5.5C10.8,5.5,11.5,5.5,12.3,5.4z"/>
		<path d="M11,19.2L11,19.2c-0.2,0-0.2,0-0.3,0l-0.5,0.1c-0.1,0-0.1,0-0.2,0c-0.3,0-0.5,0-0.8-0.1l-0.2,0l-0.1,0h0
			c-0.6-0.2-0.9-0.5-1.3-0.8c-0.1-0.1-0.2-0.2-0.3-0.3v-3.6c0.7,0.3,1.6,0.5,2.7,0.5c0.8,0,1.6-0.1,2.4-0.5l-0.1,3.7
			C12.1,18.5,11.7,18.9,11,19.2z"/>
		<path d="M8.9,20L8.9,20C8.8,20,8.8,20,8.9,20l-0.2,0c0,0,0,0,0,0c-0.1,0-0.1,0-0.2,0l0,0l0,0h0c-0.1,0-0.2-0.1-0.3-0.2
			c0,0,0,0-0.1-0.1v-0.9C8.2,18.9,8.4,19,8.7,19c0.2,0,0.3,0,0.5-0.1l0,0.9C9.1,19.8,9,19.9,8.9,20z"/>
		<path d="M11.3,20L11.3,20C11.2,20,11.2,20,11.3,20l-0.2,0c0,0,0,0,0,0c-0.1,0-0.1,0-0.2,0l0,0l0,0h0c-0.1,0-0.2-0.1-0.3-0.2
			c0,0,0,0-0.1-0.1v-0.9c0.1,0.1,0.3,0.1,0.6,0.1c0.2,0,0.3,0,0.5-0.1l0,0.9C11.5,19.8,11.4,19.9,11.3,20z"/>
		<path d="M12.9,13c-3,1.9-5.9,0.1-6,0c-2.7-1.9-3.1-6.6-3.1-8.7c0.7,0.3,1.5,0.6,2.4,0.8c0,1.1,0.3,3.9,1.7,5.3
			c0.5,0.6,1.2,0.8,2,0.8c0.8,0,1.4-0.3,2-0.8c1.4-1.4,1.6-4.3,1.7-5.3C14.4,5,15.3,4.7,16,4.4C15.9,11.2,12.9,13,12.9,13z"/>
	</g>
</svg>
