<?xml version="1.0" encoding="utf-8"?>
<!-- Generator: Adobe Illustrator 19.2.1, SVG Export Plug-In . SVG Version: 6.00 Build 0)  -->
<svg version="1.2" baseProfile="tiny" id="Layer_1" xmlns="http://www.w3.org/2000/svg" xmlns:xlink="http://www.w3.org/1999/xlink"
	 x="0px" y="0px" viewBox="-3 -3 28 28" xml:space="preserve">
<g>
	<path fill="#000000" d="M11.5,20c0,0,0.2-1,1.7-1H14c9.5,0,9.1-6,9.1-6H5v11h5.7l0.7-3.6L11.5,20z"/>
	<path fill="#000000" d="M1,1v10c0,0.6,0.4,1,1,1h7c0.6,0,1-0.4,1-1V1c0-0.6-0.4-1-1-1H2C1.4,0,1,0.4,1,1z"/>
	<path fill="#000000" d="M16,11h-1h-4v1h4h1h6.5c0.3,0,0.5-0.2,0.5-0.5S22.8,11,22.5,11H16z"/>
</g>
</svg>
