<?xml version="1.0" encoding="utf-8"?>
<!-- Generator: Adobe Illustrator 19.2.1, SVG Export Plug-In . SVG Version: 6.00 Build 0)  -->
<svg version="1.2" baseProfile="tiny" id="Layer_1" xmlns="http://www.w3.org/2000/svg" xmlns:xlink="http://www.w3.org/1999/xlink"
	 x="0px" y="0px" viewBox="-3 -3 28 28" xml:space="preserve">
<g>
	<path fill="none" d="M12.5,16.1c0.3,0,0.5-0.3,0.5-0.6V13c0-0.3-0.2-0.6-0.5-0.6S12,12.7,12,13v2.5C12,15.8,12.2,16.1,12.5,16.1z"
		/>
	<path fill="#000000" d="M2,24h2v-2h3h1v-1V7h2v16.4c0,0.4,0.4,0.7,0.7,0.6l6.8-1.2c0.3-0.1,0.5-0.3,0.5-0.6V6c0-0.3-0.2-0.6-0.5-0.6l-6.8-0.9
		c-0.4,0-0.7,0.2-0.7,0.6V6H8H7v1v14H4V2h16v22h2V0H2V24z M12,13c0-0.3,0.2-0.6,0.5-0.6S13,12.7,13,13v2.5c0,0.3-0.2,0.6-0.5,0.6
		S12,15.8,12,15.5V13z"/>
</g>
</svg>
