<?xml version="1.0" encoding="utf-8"?>
<!-- Generator: Adobe Illustrator 19.2.1, SVG Export Plug-In . SVG Version: 6.00 Build 0)  -->
<svg version="1.2" baseProfile="tiny" id="Layer_1" xmlns="http://www.w3.org/2000/svg" xmlns:xlink="http://www.w3.org/1999/xlink"
	 x="0px" y="0px" viewBox="-3 -3 28 28" xml:space="preserve">
<g>
	<path fill="#000000" d="M23,11.5H1c-0.6,0-1,0.4-1,1v5c0,0.6,0.4,1,1,1h2v1h1v-1h16v1h1v-1h2c0.6,0,1-0.4,1-1v-5C24,11.9,23.6,11.5,23,11.5z"/>
	<path fill="#000000" d="M19,10.5h3v-3c0-1.7-1.3-3-3-3H5c-1.7,0-3,1.3-3,3v3h3c-0.6,0-1-0.4-1-1s0.4-1,1-1h5c0.6,0,1,0.4,1,1s-0.4,1-1,1h4
		c-0.6,0-1-0.4-1-1s0.4-1,1-1h5c0.6,0,1,0.4,1,1S19.6,10.5,19,10.5z"/>
</g>
</svg>
