<?xml version="1.0" encoding="utf-8"?>
<!-- Generator: Adobe Illustrator 19.2.1, SVG Export Plug-In . SVG Version: 6.00 Build 0)  -->
<svg version="1.2" baseProfile="tiny" id="Layer_1" xmlns="http://www.w3.org/2000/svg" xmlns:xlink="http://www.w3.org/1999/xlink"
	 x="0px" y="0px" viewBox="-3 -3 28 28" xml:space="preserve">
<g>
	<rect x="5" y="4" fill="none" width="4" height="16"/>
	<path fill="none" d="M11.5,9.5C11.2,9.5,11,9.7,11,10v4c0,0.3,0.2,0.5,0.5,0.5S12,14.3,12,14v-4C12,9.7,11.8,9.5,11.5,9.5z"/>
	<path fill="#000000" d="M18,1l-8-1C9.5,0,9,0,9,1v1H3v20h6v1c0,0.8,0.4,1,0.8,1h0.1c0,0,0.1,0,0.1,0l7.9-1c0.5-0.1,1-0.1,1-1V2C19,2,19,1.1,18,1z
		 M9,20H5V4h4V20z M12,14c0,0.3-0.2,0.5-0.5,0.5S11,14.3,11,14v-4c0-0.3,0.2-0.5,0.5-0.5S12,9.7,12,10V14z"/>
</g>
</svg>
