<?xml version="1.0" encoding="utf-8"?>
<!-- Generator: Adobe Illustrator 19.2.1, SVG Export Plug-In . SVG Version: 6.00 Build 0)  -->
<svg version="1.2" baseProfile="tiny" id="Layer_1" xmlns="http://www.w3.org/2000/svg" xmlns:xlink="http://www.w3.org/1999/xlink"
	 x="0px" y="0px" viewBox="-3 -3 28 28" xml:space="preserve">
<g fill="#000000">
<polygon points="4,14 4,16 10.9,16 5.1,24 7.6,24 12,17.8 16.5,24 18.9,24 13.2,16 20,16 20,14 "/>
<path fill="#000000" d="M0,7.1c0,1,0.9,2,2,2c1.1,0,2-1,2-2c0,1,0.9,2,2,2c1.1,0,2-1,2-2c0,1,0.9,2,2,2c0.4,0,0.7-0.1,1-0.3V13h2V8.8
	c0.3,0.2,0.6,0.3,1,0.3c1.1,0,2-1,2-2c0,1,0.9,2,2,2c1.1,0,2-1,2-2c0,1,0.9,2,2,2c1.1,0,2-1,2-2L12,0L0,7.1z"/>
</g>
</svg>
