<?xml version="1.0" encoding="utf-8"?>
<!-- Generator: Adobe Illustrator 18.1.1, SVG Export Plug-In . SVG Version: 6.00 Build 0)  -->

<svg version="1.1" id="Layer_1" xmlns="http://www.w3.org/2000/svg" xmlns:xlink="http://www.w3.org/1999/xlink" x="0px" y="0px"
	 viewBox="-3 -3 26 26" enable-background="new 0 0 20 20" xml:space="preserve">
	<g fill="#000000">
		<path d="M5.5,4c0.1-0.1,0.4-0.2,0.7-0.2c1.6,0,4.4,1.6,6.9,4c2.8,2.6,4,5.1,4,6.3c0,0.3-0.1,0.5-0.2,0.6c-0.1,0.1-0.4,0.2-0.7,0.2
			c-1.3,0-4-1.2-6.7-3.7C7,8.7,5.3,6.1,5.3,4.7C5.3,4.4,5.4,4.1,5.5,4z"/>
		<path d="M3.8,1C6.2,1,10.3,3.5,14,7c3.6,3.4,6,7.2,6,9.3c0,0.4-0.1,0.7-0.3,0.9c-0.2,0.2-0.6,0.3-1.2,0.3c-2.2,0-6.4-1.9-10.2-5.4
			c-3.6-3.4-6-7.2-6-9.5c0-0.4,0.1-0.7,0.2-1c0,0,0-0.1,0.1-0.1c0-0.1,0.1-0.1,0.2-0.2C3,1.1,3.3,1,3.8,1z"/>
		<path d="M6,18.2c-3.5,0.2-5.3-0.2-6-0.4L3.5,14c0.4,0.5,0.8,0.9,1.3,1.4l0.1,0.1C5.5,16,6.5,17,7.9,17.8C7.7,18,7,18.1,6,18.2z"/>
		<path d="M14,18.9c-4.1-0.4-7.3-3.2-8.5-4.2l-0.1-0.1c-4.3-4.2-4.5-8-3.9-10.5c0.7,2.5,2.9,5.7,6.1,8.7c3.1,3,7,5.2,9.8,5.6
			C16.3,18.9,15.4,19.1,14,18.9z"/>
	</g>
</svg>
