<?xml version="1.0" encoding="utf-8"?>
<!-- Generator: Adobe Illustrator 18.1.1, SVG Export Plug-In . SVG Version: 6.00 Build 0)  -->

<svg version="1.1" id="Layer_1" xmlns="http://www.w3.org/2000/svg" xmlns:xlink="http://www.w3.org/1999/xlink" x="0px" y="0px"
	 viewBox="-3 -3 26 26" enable-background="new 0 0 20 20" xml:space="preserve">
	<g fill="#000000">
		<path d="M10,0c2.5,0,5.7,0.5,7,1.8c-0.2,0-0.4-0.1-0.7-0.1c-0.4-0.1-0.8-0.1-1-0.1c0,0-0.1,0-0.1,0v0c0,0,0,0,0,0c0,0-0.1,0-0.1,0
			c0,0-0.1,0-0.1,0c-0.2,0-0.5,0-0.8,0c-0.3,0-0.7,0-1,0c-0.6,0-1.3,0-2.1-0.1c-0.4,0-0.8,0-1,0h0c0,0,0,0,0,0c0,0,0,0,0,0
			c0,0,0,0,0,0c0,0,0,0,0,0c0,0,0,0,0,0c-0.2,0-0.6,0-1,0c-0.8,0-1.5,0-2.2,0.1c-0.4,0-0.7,0-1,0c-0.4,0-0.6,0-0.8,0c0,0-0.1,0-0.1,0
			c0,0-0.1,0-0.1,0c0,0,0,0,0,0l0,0c0,0-0.1,0-0.1,0c-0.2,0-0.6,0.1-1,0.1C3.4,1.7,3.2,1.8,3,1.8C4.3,0.5,7.5,0,10,0z"/>
		<path d="M10.8,19.5c-0.4,0.1-0.6,0.4-0.7,0.5c0,0-0.1,0-0.1,0c0,0-0.1,0-0.1,0c-0.1-0.1-0.3-0.4-0.7-0.5c-0.4-0.1-0.7-0.4-0.7-0.4
			c0-0.3,0-1.3,0-2c0.7,0.1,1.4,0.2,1.4,0.2H10l0,0c0,0,0.8,0,1.5-0.2c0,0.7,0,1.6,0,2C11.5,19.1,11.3,19.4,10.8,19.5z"/>
		<path d="M12,15.6c0,0-0.1,0.1-0.3,0.2C11,16,10.1,16.1,10,16.1h0c-0.3,0-1.1-0.1-1.7-0.3C8.1,15.7,8,15.6,8,15.6
			c0-2.4,0-5.1-1.8-8.1H10V7.5h0v0.1h3.8C12,10.5,12,13.2,12,15.6z"/>
		<path d="M15.5,6.4h-11C3.4,4.7,2.9,3.5,2.8,3c0.3-0.1,0.7-0.1,1-0.2C5.2,2.7,7.7,2.7,10,2.6c0,0,0,0,0,0c2.3,0,4.7,0.1,6.2,0.2
			c0.3,0,0.7,0.1,1,0.2C17.1,3.5,16.6,4.7,15.5,6.4z"/>
	</g>
</svg>
