<?xml version="1.0" encoding="utf-8"?>
<!-- Generator: Adobe Illustrator 19.2.1, SVG Export Plug-In . SVG Version: 6.00 Build 0)  -->
<svg version="1.2" baseProfile="tiny" id="Layer_1" xmlns="http://www.w3.org/2000/svg" xmlns:xlink="http://www.w3.org/1999/xlink"
	 x="0px" y="0px" viewBox="-3 -3 28 28" xml:space="preserve">
<g>
	<rect x="20" y="11" fill="none" width="2" height="2"/>
	<rect x="2" y="11" fill="none" width="2" height="2"/>
	<path fill="#000000" d="M22.3,9H20V8H4v1H1.7C0.8,9,0,9.8,0,10.7v2.6C0,14.2,0.8,15,1.7,15H4v3c0,1.7,1.3,3,3,3h10c1.7,0,3-1.3,3-3v-3h2.3
		c0.9,0,1.7-0.8,1.7-1.7v-2.6C24,9.8,23.2,9,22.3,9z M4,13H2v-2h2V13z M22,13h-2v-2h2V13z"/>
	<path fill="#000000" d="M13.3,3h-2.6C9.8,3,9,3.5,9,4.4V6H4v1h5h6h5V6h-5V4.4C15,3.5,14.2,3,13.3,3z"/>
</g>
</svg>
