<?xml version="1.0" encoding="utf-8"?>
<!-- Generator: Adobe Illustrator 19.2.1, SVG Export Plug-In . SVG Version: 6.00 Build 0)  -->
<svg version="1.2" baseProfile="tiny" id="Layer_1" xmlns="http://www.w3.org/2000/svg" xmlns:xlink="http://www.w3.org/1999/xlink"
	 x="0px" y="0px" viewBox="-3 -3 28 28" xml:space="preserve">
<g>
	<path fill="#000000" d="M22,10V8.9C22,8.4,21.6,8,21.1,8H20v4v0v0v4h1.1c0.5,0,0.9-0.4,0.9-0.9V14c0.5,0,1-0.2,1.4-0.6C23.8,13,24,12.5,24,12
		s-0.2-1-0.6-1.4C23,10.2,22.5,10,22,10z"/>
	<path fill="#000000" d="M18,5h-2c-0.6,0-1,0.4-1,1v4H9V6c0-0.6-0.4-1-1-1H6C5.4,5,5,5.4,5,6v6v0v0v6c0,0.6,0.4,1,1,1h2c0.6,0,1-0.4,1-1v-4h6v4
		c0,0.6,0.4,1,1,1h2c0.6,0,1-0.4,1-1V6C19,5.4,18.6,5,18,5z"/>
	<path fill="#000000" d="M2,14v1.1C2,15.6,2.4,16,2.9,16H4V8H2.9C2.4,8,2,8.4,2,8.9V10c-0.5,0-1,0.2-1.4,0.6C0.2,11,0,11.5,0,12s0.2,1,0.6,1.4
		C1,13.8,1.5,14,2,14z"/>
</g>
</svg>
