<?xml version="1.0" encoding="UTF-8" standalone="no"?>
<svg
   viewBox="-4 -4 32 32"
   fill="#000000"
   version="1.1"
   id="svg1"
   width="32px"
   height="32px"
   xmlns="http://www.w3.org/2000/svg"
   xmlns:svg="http://www.w3.org/2000/svg">
  <defs
     id="defs1" />
  <path
     d="m 9.08,8.82 c 0,0.3 -0.25,0.55 -0.55,0.55 -0.3,0 -0.55,-0.25 -0.55,-0.55 0,-0.3 0.25,-0.55 0.55,-0.55 0.3,0 0.55,0.24 0.55,0.55 z m -0.47,6.22 c 0,0.3 -0.25,0.55 -0.55,0.55 -0.3,0 -0.55,-0.25 -0.55,-0.55 0,-0.3 0.25,-0.55 0.55,-0.55 0.3,0 0.55,0.24 0.55,0.55 z m 0.57,0.13 c -0.3,0 -0.55,0.25 -0.55,0.55 0,0.3 0.25,0.55 0.55,0.55 0.3,0 0.55,-0.25 0.55,-0.55 0,-0.3 -0.24,-0.55 -0.55,-0.55 z M 8.06,15.8 c -0.3,0 -0.55,0.25 -0.55,0.55 0,0.3 0.25,0.55 0.55,0.55 0.3,0 0.55,-0.25 0.55,-0.55 0,-0.31 -0.25,-0.55 -0.55,-0.55 z m 7.43,0.55 c 0,0.3 -0.25,0.55 -0.55,0.55 -0.3,0 -0.55,-0.25 -0.55,-0.55 0,-0.3 0.25,-0.55 0.55,-0.55 0.3,0 0.55,0.24 0.55,0.55 z m -0.55,-1.86 c -0.3,0 -0.55,0.25 -0.55,0.55 0,0.3 0.25,0.55 0.55,0.55 0.3,0 0.55,-0.25 0.55,-0.55 0,-0.31 -0.25,-0.55 -0.55,-0.55 z m 1.31,0 c -0.3,0 -0.55,0.25 -0.55,0.55 0,0.3 0.25,0.55 0.55,0.55 0.3,0 0.55,-0.25 0.55,-0.55 -0.01,-0.31 -0.25,-0.55 -0.55,-0.55 z m 0,1.31 c -0.3,0 -0.55,0.25 -0.55,0.55 0,0.3 0.25,0.55 0.55,0.55 0.3,0 0.55,-0.25 0.55,-0.55 C 16.79,16.04 16.55,15.8 16.25,15.8 Z M 16.2,9.57 c 0,0.3 -0.25,0.55 -0.55,0.55 -0.3,0 -0.55,-0.25 -0.55,-0.55 0,-0.3 0.25,-0.55 0.55,-0.55 0.31,0 0.55,0.25 0.55,0.55 z M 15.65,7.71 c -0.3,0 -0.55,0.25 -0.55,0.55 0,0.3 0.25,0.55 0.55,0.55 0.3,0 0.55,-0.25 0.55,-0.55 0,-0.3 -0.24,-0.55 -0.55,-0.55 z M 12,3.76 c -4.58,0 -8.31,3.73 -8.31,8.31 0,4.58 3.73,8.31 8.31,8.31 4.58,0 8.31,-3.73 8.31,-8.31 0,-4.59 -3.73,-8.31 -8.31,-8.31 z m 7.33,7.81 H 12.5 V 4.74 c 3.65,0.25 6.58,3.17 6.83,6.83 z M 11.5,4.74 v 6.83 H 4.67 C 4.92,7.91 7.85,4.99 11.5,4.74 Z M 4.67,12.57 H 11.5 V 19.4 C 7.85,19.14 4.92,16.22 4.67,12.57 Z m 7.83,6.82 v -6.83 h 6.83 c -0.25,3.66 -3.18,6.58 -6.83,6.83 z M 12,1.75 c -5.7,0 -10.32,4.62 -10.32,10.32 0,5.7 4.62,10.31 10.32,10.31 5.7,0 10.32,-4.62 10.32,-10.32 C 22.32,6.36 17.7,1.75 12,1.75 Z m 0,19.63 c -5.14,0 -9.32,-4.18 -9.32,-9.32 0,-5.14 4.18,-9.32 9.32,-9.32 5.14,0 9.32,4.18 9.32,9.32 0,5.14 -4.18,9.32 -9.32,9.32 z"
     id="path1"
     style="fill:#000000;fill-opacity:1" />
</svg>
