<?xml version="1.0" encoding="UTF-8" standalone="no"?>
<svg
   viewBox="0 0 24 24"
   fill="#000000"
   version="1.1"
   id="svg1"
   width="24"
   height="24"
   xmlns="http://www.w3.org/2000/svg"
   xmlns:svg="http://www.w3.org/2000/svg">
  <defs
     id="defs1" />
  <path
     d="M 12.18,0.97 C 9.48,0.97 7.44,2.06 7.44,3.5 V 6.1 L 5.85,6.82 C 5.67,6.9 5.55,7.08 5.55,7.28 v 10.81 c 0,0.28 0.22,0.5 0.5,0.5 h 1.38 v 1.92 c 0,1.44 2.04,2.53 4.74,2.53 2.7,0 4.74,-1.09 4.74,-2.53 v -17 C 16.92,2.06 14.88,0.97 12.18,0.97 Z m 0,21.06 c -2.14,0 -3.74,-0.81 -3.74,-1.53 0,-0.72 1.6,-1.53 3.74,-1.53 2.14,0 3.74,0.81 3.74,1.53 0,0.72 -1.6,1.53 -3.74,1.53 z"
     id="path1" />
</svg>
