<?xml version="1.0" encoding="UTF-8" standalone="no"?>
<svg
   xmlns:dc="http://purl.org/dc/elements/1.1/"
   xmlns:cc="http://creativecommons.org/ns#"
   xmlns:rdf="http://www.w3.org/1999/02/22-rdf-syntax-ns#"
   xmlns:svg="http://www.w3.org/2000/svg"
   xmlns="http://www.w3.org/2000/svg"
   id="svg2"
   viewBox="0 0 300 470"
   height="470pt"
   width="468pt"
   version="1.0">
  <defs
     id="defs22" />
  <metadata
     id="metadata4">
Created by potrace 1.8, written by Peter Selinger 2001-2007
<rdf:RDF>
  <cc:Work
     rdf:about="">
    <dc:format>image/svg+xml</dc:format>
    <dc:type
       rdf:resource="http://purl.org/dc/dcmitype/StillImage" />
    <dc:title></dc:title>
  </cc:Work>
</rdf:RDF>
</metadata>
  <g fill="#000000">
    <path
        id="path4153"
        transform="scale(0.8,0.8)"
        d="m 186.66016,54.484375 c -2.76615,-0.01797 -5.57466,-0.01478 -8.42774,0.0078 -44.22342,0.350126 -77.66985,5.955318 -103.080076,17.617187 -25.41023,11.661869 -39.489685,31.280005 -53.919922,53.513675 -22.5485512,34.74213 -22.19221022,119.977 -21.8339845,220.78906 0.26027923,73.2479 -0.4396221,134.26875 21.8046875,177.99023 11.122154,21.86075 28.148234,39.25671 53.496094,51.04883 25.347861,11.79213 58.916231,18.08826 103.533201,18.44727 45.32224,0.3647 79.64665,-5.06711 105.75391,-16.63282 26.10727,-11.56567 43.87624,-29.4009 55.58203,-53.02539 23.41156,-47.24897 23.4182,-117.11521 23.35156,-210.65625 -0.0625,-87.79631 0.32344,-152.39988 -22.95898,-195.83789 C 328.31973,96.027104 310.56404,79.811237 284.4375,69.378906 259.94387,59.598597 228.15231,54.75397 186.66016,54.484375 Z M 177.9668,177.76758 c 3.59542,1e-5 7.12109,2.63272 7.12109,6.57031 0,3.9376 -3.52567,6.57225 -7.12109,6.57227 -3.59544,-2e-5 -7.125,-2.63467 -7.125,-6.57227 0,-3.93759 3.52956,-6.5703 7.125,-6.57031 z m -0.002,98.34961 c 64.29949,0 116.54297,51.54391 116.54297,115.09179 0,63.54789 -52.24348,115.09571 -116.54297,115.09571 -64.29947,0 -116.542965,-51.54783 -116.542965,-115.09571 0,-63.54787 52.243495,-115.09179 116.542965,-115.09179 z m 0,7 c -60.56488,0 -109.542965,48.37612 -109.542965,108.09179 0,59.71567 48.978085,108.09571 109.542965,108.09571 60.56492,0 109.54297,-48.38003 109.54297,-108.09571 0,-59.71567 -48.97805,-108.09179 -109.54297,-108.09179 z m 50.08204,85.0039 c 9.17309,0.16295 18.29339,3.63731 20.875,9.07227 3.75506,8.30066 2.76862,23.32095 -1.97461,29.25 -3.75507,4.74324 -5.3361,5.13867 -17.78711,5.13867 -18.18242,0 -21.54297,-3.16391 -21.54297,-19.96289 0,-13.43917 2.17373,-18.97176 8.49804,-21.54102 3.58214,-1.42049 7.76206,-2.03109 11.93165,-1.95703 z m -106.20704,0.40235 c 7.29358,-0.006 15.37046,1.67853 18.58204,4.51953 3.16216,2.96452 3.95117,6.12544 3.95117,17.39062 0,18.97297 -2.17232,21.14844 -20.75,21.14844 -17.58952,0 -21.14855,-2.96533 -22.13672,-18.38086 -0.79054,-11.66047 1.97657,-18.77581 9.28906,-22.72851 2.59396,-1.33404 6.68831,-1.94575 11.06445,-1.94922 z"
        style="color:#000000" />
  </g>
  <g fill="#000000"
     transform="translate(-14.149533,19.2)"
     id="g4158" />
</svg>
