<?xml version="1.0" encoding="UTF-8" standalone="no"?>


<svg
   xmlns="http://www.w3.org/2000/svg"
   xml:space="preserve"
   enable-background="new 0 0 20 20"
   viewBox="-3 -3 26 26"
   y="0px"
   x="0px"
   id="Layer_1"
   version="1.1">
     <path
       id="path11"
       d="M 10.042373,0.00677966 C 4.6898345,-0.00153735 0.04947551,4.6276361 0.17627119,10.211864 0.30306687,15.796093 5.289199,20.34416 10.254238,20.254237 15.219276,20.164314 20.355463,15.4517 20.169492,9.8305085 19.983521,4.2093166 15.394912,0.01509666 10.042373,0.00677966 Z M 10.084746,6.3 c 2.1,0 3.8,1.7 3.8,3.8 0,2.1 -1.7,3.8 -3.8,3.8 -2.1000002,0 -3.749986,-1.699406 -3.8000002,-3.8 -0.050014,-2.1005945 1.7,-3.8 3.8000002,-3.8 M 9.2847458,3.5 c 0,-0.4 0.4,-0.8 0.8000002,-0.8 0.4,0 0.8,0.4 0.8,0.8 0,0.4 -0.35,0.8 -0.8,0.8 C 9.6347458,4.3 9.2847458,3.9 9.2847458,3.5 m -2.8,0 c 0,0.4 -0.4,0.8 -0.8,0.8 -0.4,0 -0.8,-0.4 -0.8,-0.8 0,-0.4 0.4,-0.8 0.8,-0.8 0.4,0 0.8,0.4 0.8,0.8 m 7.9000002,0.8 c -0.4,0 -0.8,-0.4 -0.8,-0.8 0,-0.4 0.4,-0.8 0.8,-0.8 0.4,0 0.8,0.4 0.8,0.8 0,0.4 -0.4,0.8 -0.8,0.8"
       fill="#000000" /><path
       id="path13"
       d="M10,12.8c1.5,0,2.7-1.2,2.7-2.7c0-1.5-1.2-2.7-2.7-2.7c-1.5,0-2.7,1.2-2.7,2.7   C7.2,11.6,8.5,12.8,10,12.8"
       clip-path="url(#SVGID_2_)"
       fill="#000000" /></svg>
