<?xml version="1.0" encoding="utf-8"?>
<!-- Generator: Adobe Illustrator 19.2.1, SVG Export Plug-In . SVG Version: 6.00 Build 0)  -->
<svg version="1.2" baseProfile="tiny" id="Layer_1" xmlns="http://www.w3.org/2000/svg" xmlns:xlink="http://www.w3.org/1999/xlink"
	 x="0px" y="0px" viewBox="-3 -3 28 28" xml:space="preserve">
<g>
	<path fill="#000000" d="M23,12.5H1c-0.6,0-1,0.4-1,1v4c0,0.6,0.4,1,1,1h2v1h1v-1h16v1h1v-1h2c0.6,0,1-0.4,1-1v-4C24,12.9,23.6,12.5,23,12.5z"/>
	<path fill="#000000" d="M15,11.5h5V7.6c0-1.7-0.9-3.1-2.6-3.1H7.5C5.8,4.5,4,5.9,4,7.6v3.9h5c-0.6,0-1-0.4-1-1s0.4-1,1-1h6c0.6,0,1,0.4,1,1
		S15.6,11.5,15,11.5z"/>
</g>
</svg>
