<?xml version="1.0" encoding="utf-8"?>
<!-- Generator: Adobe Illustrator 18.1.1, SVG Export Plug-In . SVG Version: 6.00 Build 0)  -->

<svg version="1.1" id="Layer_1" xmlns="http://www.w3.org/2000/svg" xmlns:xlink="http://www.w3.org/1999/xlink" x="0px" y="0px"
	 viewBox="-3 -3 26 26" enable-background="new 0 0 20 20" xml:space="preserve">
<g>
	<defs>
		<rect id="SVGID_1_" x="0" y="0" width="20" height="20"/>
	</defs>
	<clipPath id="SVGID_2_">
		<use xlink:href="#SVGID_1_"  overflow="visible"/>
	</clipPath>
	<path clip-path="url(#SVGID_2_)" d="M19.4,2.5C18.8,1.4,17.6,0,15,0H5C5,0,3.8,0,2.5,0.6C1.4,1.2,0,2.4,0,5V15c0,0.1,0,1.3,0.6,2.5
		C1.2,18.6,2.4,20,5,20H15c0.1,0,1.3,0,2.5-0.6c1.2-0.6,2.5-1.8,2.5-4.4V5C20,5,20,3.8,19.4,2.5 M10,6.3c2.1,0,3.8,1.7,3.8,3.8
		c0,2.1-1.7,3.8-3.8,3.8s-3.8-1.7-3.8-3.8C6.1,8,7.9,6.3,10,6.3 M9.2,3.5c0-0.4,0.4-0.8,0.8-0.8c0.4,0,0.8,0.4,0.8,0.8
		c0,0.4-0.4,0.8-0.8,0.8C9.5,4.3,9.2,3.9,9.2,3.5 M6.4,3.5c0,0.4-0.4,0.8-0.8,0.8c-0.4,0-0.8-0.4-0.8-0.8c0-0.4,0.4-0.8,0.8-0.8
		C6,2.7,6.4,3.1,6.4,3.5 M14.3,4.3c-0.4,0-0.8-0.4-0.8-0.8c0-0.4,0.4-0.8,0.8-0.8c0.4,0,0.8,0.4,0.8,0.8C15.1,3.9,14.7,4.3,14.3,4.3
		"/>
	<path clip-path="url(#SVGID_2_)" d="M10,12.8c1.5,0,2.7-1.2,2.7-2.7c0-1.5-1.2-2.7-2.7-2.7c-1.5,0-2.7,1.2-2.7,2.7
		C7.2,11.6,8.5,12.8,10,12.8"/>
</g>
</svg>
