<?xml version="1.0" encoding="utf-8"?>
<!DOCTYPE svg PUBLIC "-//W3C//DTD SVG 1.1//EN" "http://www.w3.org/Graphics/SVG/1.1/DTD/svg11.dtd">
<svg version="1.1" xmlns="http://www.w3.org/2000/svg" xmlns:xlink="http://www.w3.org/1999/xlink" x="0px" y="0px"
	 width="7086.609px" height="7086.609px" viewBox="0 0 7086.609 7086.609" enable-background="new 0 0 7086.609 7086.609"
	 xml:space="preserve">
<g id="Ebene_1">
	
		<path fill-rule="evenodd" clip-rule="evenodd" fill="none" stroke="#000000" stroke-width="150" stroke-linecap="round" stroke-linejoin="round" stroke-miterlimit="10" d="
		M6567.055,6358.055c0,102.726-83.275,186-186,186H733.869c-102.725,0-186-83.274-186-186V710.87c0-102.725,83.275-186,186-186
		h5647.186c102.725,0,186,83.275,186,186V6358.055z"/>
</g>
<g id="Ebene_4">
	<path fill-rule="evenodd" clip-rule="evenodd" fill="#000000" d="M5235.109,3227.574c-9.012-248.655-85.645-473.233-276.313-644.609
		c-140.936-126.678-286.479-248.247-430.482-371.499c-103.341-88.445-202.806-182.361-312.33-262.443
		c-216.011-157.952-463.492-191.767-722.628-156.743c-378.656,51.172-701.18,225.278-986.872,469.89
		c-221.076,189.283-398.899,415.49-530.377,676.542c-99.966,198.486-165.966,407.051-179.33,629.748
		c-14.818,246.929,36.323,476.431,197.618,671.379c189.189,228.652,379.955,456.021,572.003,682.279
		c81.987,96.597,183.346,169.159,300.192,219.363c239.488,102.901,486.406,105.066,735.576,48.44
		c394.747-89.712,723.776-296.546,1010.222-576.793c3.002,2.237,6.004,4.474,9.004,6.71
		c96.487-122.924,200.029-241.023,288.052-369.732C5119.57,3942.842,5248.834,3606.193,5235.109,3227.574z M3656,3358
		c-542,566-1340.413,754.199-1340.413,754.199S2926.609,3952,3543.305,3336s692.91-977.64,692.91-977.64S4198,2792,3656,3358z"/>
</g>
</svg>
