<?xml version="1.0" encoding="utf-8"?>
<!-- Generator: Adobe Illustrator 19.2.1, SVG Export Plug-In . SVG Version: 6.00 Build 0)  -->
<svg version="1.2" baseProfile="tiny" id="Layer_1" xmlns="http://www.w3.org/2000/svg" xmlns:xlink="http://www.w3.org/1999/xlink"
	 x="0px" y="0px" viewBox="-3 -3 28 28" xml:space="preserve">
<path fill="#000000" d="M23,14h-3V3.8c0-2-1.4-3.8-3.4-3.8c-2,0-3.6,2-3.6,4v0c-1.6,0.1-3.1,0.6-4,1.5V6h9V5.5c-0.9-0.8-2.4-1.4-4-1.5v0
	c0-1.5,1.2-3,2.6-3C18,1,19,2.3,19,3.8V14H1c-0.6,0-1,0.4-1,1s0.4,1,1,1h0.2l0.7,5.9C2,22.6,2.6,23,3.3,23H4v1h1v-1h14v1h1v-1h0.7
	c0.7,0,1.3-0.4,1.5-1.1l0.7-5.9H23c0.6,0,1-0.4,1-1S23.6,14,23,14z"/>
</svg>
