<?xml version="1.0" encoding="utf-8"?>
<!-- Generator: Adobe Illustrator 18.1.1, SVG Export Plug-In . SVG Version: 6.00 Build 0)  -->

<svg version="1.1" id="Layer_1" xmlns="http://www.w3.org/2000/svg" xmlns:xlink="http://www.w3.org/1999/xlink" x="0px" y="0px"
	 viewBox="-3 -3 26 26" enable-background="new 0 0 20 20" xml:space="preserve">
	<g fill="#000000">
		<path d="M11.7,18.9c-0.1,0.1-0.3,0.2-0.5,0.3l-0.3,0.1l-0.1,0.3c0,0.1-0.2,0.3-0.4,0.5c-0.1,0-0.3,0-0.4,0c-0.2,0-0.3,0-0.4,0
			c-0.2-0.2-0.3-0.4-0.4-0.5l-0.1-0.3l-0.3-0.1c-0.3-0.1-0.5-0.2-0.5-0.3v-2.8h3.4V18.9z"/>
		<path d="M12.4,14.4L12,14.9H8l-0.4-0.5c-0.1-0.9-0.5-5-1.3-7.9c1.9,0.4,5.3,0.4,7.6-0.1C13,9.3,12.5,13.5,12.4,14.4z"/>
		<path d="M14.4,4.9c0,0.1-0.1,0.1-0.1,0.2c-2.3,0.8-7.2,0.6-8.6,0.1c0-0.1-0.1-0.2-0.1-0.3C5.1,3.7,4,1.6,4.9,1.1C6.4,0.1,9,0,10,0
			s3.6,0.1,5.1,1.1C16,1.6,14.9,3.7,14.4,4.9z"/>
	</g>
</svg>
