<?xml version="1.0" encoding="utf-8"?>
<!-- Generator: Adobe Illustrator 18.1.1, SVG Export Plug-In . SVG Version: 6.00 Build 0)  -->

<svg version="1.1" id="Layer_1" xmlns="http://www.w3.org/2000/svg" xmlns:xlink="http://www.w3.org/1999/xlink" x="0px" y="0px"
	 viewBox="-3 -3 26 26" enable-background="new 0 0 20 20" xml:space="preserve">
	<g fill="#000000">
		<path d="M10.2,0c4.5,0,5,3.2,5,4.5c0,0.9-0.1,1.6-0.2,2.1c-2.4,0.3-7.5,0.3-10,0C4.9,6.1,4.8,5.4,4.8,4.5C4.8,0.2,9.3,0,10.2,0z"/>
		<path d="M11.4,19.2l-0.3,0.1L11,19.5c0,0.1-0.2,0.3-0.3,0.5c-0.1,0-0.2,0-0.4,0l-0.1,0l0,0c-0.2,0-0.3,0-0.4,0
			c-0.1-0.2-0.3-0.4-0.3-0.5l-0.1-0.3l-0.3-0.1c-0.3-0.1-0.5-0.2-0.5-0.3v-2.8h3.4v2.8C11.8,19,11.6,19.1,11.4,19.2z"/>
		<path d="M12.9,11.3L12.9,11.3c-0.1,1.2-0.3,2.7-0.3,3.1L12.2,15H8.2l-0.4-0.5l-0.3-3.1l0-0.1c-0.2-0.8-0.6-1.5-1.1-2.1
			C6.1,8.8,5.8,8.4,5.5,7.9C6.8,8,8.4,8,10.1,8c1.7,0,3.3-0.1,4.5-0.2c-0.2,0.3-0.4,0.6-0.6,0.9C13.6,9.5,13.1,10.2,12.9,11.3z"/>
	</g>
</svg>
