<?xml version="1.0" encoding="utf-8"?>
<!-- Generator: Adobe Illustrator 19.2.1, SVG Export Plug-In . SVG Version: 6.00 Build 0)  -->
<svg version="1.2" baseProfile="tiny" id="Layer_1" xmlns="http://www.w3.org/2000/svg" xmlns:xlink="http://www.w3.org/1999/xlink"
	 x="0px" y="0px" viewBox="-3 -3 28 28" xml:space="preserve">
<g>
	<path fill="none" d="M11.5,14.5c0.3,0,0.5-0.2,0.5-0.5v-4c0-0.3-0.2-0.5-0.5-0.5S11,9.7,11,10v4C11,14.3,11.2,14.5,11.5,14.5z"/>
	<rect x="5" y="4" fill="none" width="4" height="16"/>
	<path fill="#000000" d="M18,23c0.5-0.1,1-0.1,1-1V2c0,0,0-0.9-1-1l-8-1C9.9,0,9.9,0,9.8,0H9.8C9.4,0,9,0.2,9,1v1H3v20h6v1c0,1,0.5,1,1.1,1L18,23z
		 M11,10c0-0.3,0.2-0.5,0.5-0.5S12,9.7,12,10v4c0,0.3-0.2,0.5-0.5,0.5S11,14.3,11,14V10z M9,20H5V4h4V20z"/>
</g>
</svg>
