<?xml version="1.0" encoding="UTF-8" standalone="no"?>
<svg
   xmlns:dc="http://purl.org/dc/elements/1.1/"
   xmlns:cc="http://creativecommons.org/ns#"
   xmlns:rdf="http://www.w3.org/1999/02/22-rdf-syntax-ns#"
   xmlns:svg="http://www.w3.org/2000/svg"
   xmlns="http://www.w3.org/2000/svg"
   xml:space="preserve"
   enable-background="new 0 0 20 20"
   viewBox="-2 -2 24 24"
   y="0px"
   x="0px"
   id="Layer_1"
   version="1.1">
   <g fill="#000000">
      
     <path
     id="path4234"
     d="m 10.951595,19.2 -0.3,0.1 -0.1,0.2 c 0,0.1 -0.2,0.3 -0.3,0.5 -0.1,0 -0.2,0 -0.3999996,0 l -0.1,0 0,0 c -0.2,0 -0.3,0 -0.4,0 -0.1,-0.2 -0.3,-0.4 -0.3,-0.5 l -0.1,-0.3 -0.3,-0.1 c -0.3,-0.1 -0.5,-0.2 -0.5,-0.3 l 0,-2.8 3.3999996,0 0,2.8 c -0.2,0.2 -0.4,0.3 -0.6,0.4 z" /><path
     id="path4236"
     d="m 12.701595,12.832957 0,0 c -0.1,0.702825 -0.3,1.581356 -0.3,1.815631 l -0.4,0.351412 -3.9999996,0 -0.4,-0.292844 -0.3,-1.815631 0,-0.05857 c -0.4096463,-0.79177 -1.3004991,-1.38339 -2,-1.991337 1.3,0.05857 2.9,0.05857 4.6,0.05857 1.6999996,0 3.2999996,-0.05857 4.4999996,-0.117137 -0.742258,0.650771 -1.497343,1.439185 -1.7,2.049906 z" /><path
     style="fill:#000000"
     d="M 8.1816406,8.1054688 A 0.43484864,0.43484864 0 0 0 7.7519531,8.546875 l 0,1.503906 a 0.4355469,0.4355469 0 0 0 0.8710938,0 l 0,-1.503906 A 0.43484864,0.43484864 0 0 0 8.1816406,8.1054688 Z"
     id="path4822" /><path
     style="fill:#000000"
     d="m 11.505859,7.578125 a 0.44022256,0.44022256 0 0 0 -0.445312,0.4355469 l -0.05664,2.1542971 a 0.44058587,0.44058587 0 1 0 0.88086,0.02344 l 0.05469,-2.1562498 A 0.44022256,0.44022256 0 0 0 11.505859,7.578125 Z"
     id="path4904" /><path
     style="fill:#000000"
     d="m 13.636719,5.4140625 a 0.50005,0.50005 0 0 0 -0.08399,0.00977 L 5.9589844,6.9160156 A 0.50005,0.50005 0 1 0 6.1503906,7.8964844 L 13.744141,6.40625 A 0.50005,0.50005 0 0 0 13.636719,5.4140625 Z"
     id="path4908" /><path
     style="fill:#000000"
     d="m 13.578125,3.4472656 a 0.50005,0.50005 0 0 0 -0.134766,0.011719 L 6.0527344,5.0195312 A 0.50008872,0.50008872 0 1 0 6.2597656,5.9980469 L 13.650391,4.4375 a 0.50005,0.50005 0 0 0 -0.07227,-0.9902344 z"
     id="path4910" /><path
     style="fill:#000000"
     d="m 12.876953,1.6171875 a 0.50005,0.50005 0 0 0 -0.08203,0.013672 L 6.6914062,2.9863281 a 0.50038132,0.50038132 0 1 0 0.21875,0.9765625 L 13.011719,2.6074219 A 0.50005,0.50005 0 0 0 12.876953,1.6171875 Z"
     id="path4912" />
   </g>
</svg>
