<?xml version="1.0" encoding="utf-8"?>
<!-- Generator: Adobe Illustrator 19.2.1, SVG Export Plug-In . SVG Version: 6.00 Build 0)  -->
<svg version="1.2" baseProfile="tiny" id="Layer_1" xmlns="http://www.w3.org/2000/svg" xmlns:xlink="http://www.w3.org/1999/xlink"
	 x="0px" y="0px" viewBox="-3 -3 28 28" xml:space="preserve">
<g>
	<circle fill="none" cx="12" cy="12" r="3"/>
	<path fill="#000000" d="M20.4,9.6c-1.1,0-2.6,0.2-3.9,0.5c1.2-0.7,2.4-1.7,3.1-2.4c1.8-1.8,1.9-3.2,0.9-4.2c-1-1-2.5-0.9-4.2,0.9
		c-0.8,0.8-1.7,1.9-2.4,3.1c0.3-1.4,0.5-2.9,0.5-3.9C14.4,1.1,13.4,0,12,0S9.6,1.1,9.6,3.6c0,1.1,0.2,2.6,0.5,3.9
		C9.4,6.4,8.5,5.2,7.7,4.4C6,2.6,4.5,2.5,3.5,3.5c-1,1-0.9,2.5,0.9,4.2c0.8,0.8,1.9,1.7,3.1,2.4C6.2,9.8,4.7,9.6,3.6,9.6
		C1.1,9.6,0,10.6,0,12s1.1,2.4,3.6,2.4c1.1,0,2.6-0.2,3.9-0.5c-1.2,0.7-2.4,1.7-3.1,2.4c-1.8,1.8-1.9,3.2-0.9,4.2
		c1,1,2.5,0.9,4.2-0.9c0.8-0.8,1.7-1.9,2.4-3.1c-0.3,1.4-0.5,2.9-0.5,3.9c0,2.5,0.9,3.6,2.4,3.6s2.4-1.1,2.4-3.6
		c0-1.1-0.2-2.6-0.5-3.9c0.7,1.2,1.7,2.4,2.4,3.1c1.8,1.8,3.2,1.9,4.2,0.9c1-1,0.9-2.5-0.9-4.2c-0.8-0.8-1.9-1.7-3.1-2.4
		c1.4,0.3,2.9,0.5,3.9,0.5c2.5,0,3.6-0.9,3.6-2.4S22.9,9.6,20.4,9.6z M12,15c-1.7,0-3-1.3-3-3s1.3-3,3-3s3,1.3,3,3S13.7,15,12,15z"
		/>
</g>
</svg>
