<?xml version="1.0" encoding="utf-8"?>
<!-- Generator: Adobe Illustrator 18.1.1, SVG Export Plug-In . SVG Version: 6.00 Build 0)  -->

<svg version="1.1" id="Layer_1" xmlns="http://www.w3.org/2000/svg" xmlns:xlink="http://www.w3.org/1999/xlink" x="0px" y="0px"
	 viewBox="-3 -3 26 26" enable-background="new 0 0 20 20" xml:space="preserve">
<g id="Layer_2">
	<g>
		<path fill="#000000" d="M16.5,11.4C13.7,8,9.6,4.7,8.4,3.9c-3.8-2.7-6-3.3-7.1-3.3H1.2C0.7,0.6,0.4,0.7,0.2,1
			C0.1,1.1,0.1,1.3,0.1,1.4C0,1.5,0,1.6,0,1.7c0,0.2,0,0.5,0.1,0.7c0,0.1,0,0.2,0,0.3c0.1,0.3,0.2,0.6,0.3,1c0,0.1,0,0.1,0.1,0.2
			c0.2,0.4,0.4,0.8,0.6,1.1c2.4,3.9,5.3,6.7,6.4,7.7c2.2,2.1,5.6,4.7,8.5,6c0.5,0.2,0.9,0.4,1.3,0.5c0.1,0,0.3,0.1,0.4,0.1
			c0.2,0.1,0.5,0.1,0.7,0.1c0.1,0,0.2,0,0.3,0c0.2,0,0.3,0,0.5,0c0.1,0,0.2-0.1,0.2-0.1c0.1-0.1,0.3-0.1,0.3-0.2c0,0,0,0,0,0
			C20.7,17.7,18.8,14.3,16.5,11.4z"/>
		<path fill="#000000" d="M1.1,9.2c0,0.1,0.1,0.3,0.1,0.5c0.3,1.2,1,3.6,0.7,5.7c-0.2,1.3,0,2,0.5,2.5c0.6,0.6,0.7,0.7,3.3,0.4
			c0.5,0,0.8-0.1,1.3-0.1c0.8,0,2,0.1,4.4,0.5l1.8,0.3c0.7,0.1,1.4,0.2,2,0.3c-0.4-0.2-0.8-0.4-1.2-0.7c-0.3-0.2-0.6-0.3-1-0.5
			c-0.5-0.3-0.9-0.6-1.4-0.9c-0.3-0.2-0.6-0.4-0.9-0.6c-0.5-0.4-1-0.8-1.5-1.2c-0.2-0.2-0.4-0.3-0.6-0.5c-0.7-0.6-1.3-1.1-1.9-1.6
			C5.9,12.7,4.2,11,2.3,8.6C2.3,8.5,2.2,8.5,2.1,8.4C1.9,8,1.6,7.5,1.3,7.1c-0.3-0.5-0.7-0.9-1-1.5C0.6,7.1,1,8.8,1.1,9.2z"/>
	</g>
</g>
</svg>
