<?xml version="1.0" encoding="utf-8"?>
<!DOCTYPE svg PUBLIC "-//W3C//DTD SVG 1.1//EN" "http://www.w3.org/Graphics/SVG/1.1/DTD/svg11.dtd">
<svg version="1.1" xmlns="http://www.w3.org/2000/svg" xmlns:xlink="http://www.w3.org/1999/xlink" x="0px" y="0px"
	 width="7086.609px" height="7086.609px" viewBox="0 0 7086.609 7086.609" enable-background="new 0 0 7086.609 7086.609"
	 xml:space="preserve">
<g id="Ebene_3">
	
		<path fill-rule="evenodd" clip-rule="evenodd" stroke="#000000" stroke-width="150" stroke-linecap="round" stroke-linejoin="round" stroke-miterlimit="10" fill="#000000" d="
		M6381.055,524.87H733.869c-102.725,0-186,83.275-186,186v5647.185c0,102.726,83.275,186,186,186h5647.186
		c102.725,0,186-83.274,186-186V710.87C6567.055,608.145,6483.779,524.87,6381.055,524.87z M3543.305,4675.781
		c-625.448,0-1132.477-507.026-1132.477-1132.477c0-625.449,507.028-1132.477,1132.477-1132.477
		c625.45,0,1132.477,507.027,1132.477,1132.477C4675.781,4168.755,4168.755,4675.781,3543.305,4675.781z"/>
</g>
<g id="Ebene_5">
	<circle fill-rule="evenodd" clip-rule="evenodd" fill="#000000" cx="3557.462" cy="3534.462" r="892.477"/>
</g>
</svg>
