<?xml version="1.0" encoding="utf-8"?>
<!-- Generator: Adobe Illustrator 18.1.1, SVG Export Plug-In . SVG Version: 6.00 Build 0)  -->

<svg version="1.1" id="Layer_1" xmlns="http://www.w3.org/2000/svg" xmlns:xlink="http://www.w3.org/1999/xlink" x="0px" y="0px"
	 viewBox="-3 -3 26 26" enable-background="new 0 0 20 20" xml:space="preserve">
<g id="Layer_2">
	<g>
		<path fill="#000000" d="M7.3,16c-0.5,0.4-1.2,1.2-1.3,1.3L6,17.3c-0.2,0.1-0.3,0.3-0.2,0.3c0,0,0,0.1,0.1,0.1
			C6.3,18,7,18.4,8.5,18.4c0.1,0,0.2,0,0.2,0c0.2,0,0.6,0,0.9-0.1c-0.4-0.3-0.8-0.6-1.1-0.9C8,16.9,7.6,16.5,7.3,16z"/>
		<path fill="#000000" d="M9.3,14.6c-2-2.2-2.5-4.2-2.6-5.1L6.6,9.5c0,0,0,0,0,0l0,0c-0.1,1.1-0.4,4,2.8,7c1.6,1.5,3.8,2.3,5.9,2.2
			c0.6,0,1.2-0.2,1.7-0.4c-0.2,0-0.3,0.1-0.5,0.1C13.8,18.5,11,16.4,9.3,14.6z"/>
		<path fill="#000000" d="M18.6,10.8c-1.2-1.7-2.4-2.9-3.6-3.6l-0.1,0c-0.1-0.1-0.3-0.2-0.2-0.4c0-0.1,0.2-0.2,0.3-0.2l0.2,0
			c0.4,0,0.7-0.1,0.8-0.3c0.2-0.2,0.3-0.4,0.3-0.8c0-1.3-1.6-3.1-3.3-4c-1-0.5-2-0.5-2.4,0c-0.2,0.2-0.2,0.5-0.2,0.8
			c0.3,1.5,1.7,2.7,2,2.9c0.1,0.1,0.3,0.2,0.2,0.4l-0.1,0.1l-0.2,0c-0.1,0-0.1,0-0.2,0c0,0-0.8-0.2-1.7-0.2c-0.4,0-0.7,0-1,0.1
			c-0.9,0.3-1.2,0.8-1.4,1l0,0C8,6.9,7.9,7,7.7,7C7.6,7,7.5,6.9,7.4,6.7C6.9,5.3,5.9,4.2,4.5,3.4C3.6,2.9,2.7,2.6,1.9,2.6
			c-0.6,0-1.2,0.2-1.5,0.6C0.1,3.4,0,3.7,0,4.1c0.1,1.1,1,2.6,1.7,3.1c0.9,0.7,2.4,1.7,3.8,1.7c0.5,0,0.9-0.1,1.3-0.3l0.1,0
			c0.1,0,0.2-0.1,0.3-0.1c0.1,0,0.3,0,0.4,0.4c0,0.1,0,0.3,0.1,0.5l0,0c0.2,0.9,0.8,2.6,2.4,4.4c1.6,1.7,4.3,3.7,6.8,3.7
			c0.7,0,1.4-0.2,2-0.5c0.1-0.1,0.2-0.2,0.3-0.3l0,0c0.3-0.3,0.6-0.7,0.7-1.2C20.2,14.1,19.5,12,18.6,10.8z"/>
	</g>
</g>
</svg>
