<?xml version="1.0" encoding="utf-8"?>
<!-- Generator: Adobe Illustrator 19.2.1, SVG Export Plug-In . SVG Version: 6.00 Build 0)  -->
<svg version="1.2" baseProfile="tiny" id="Layer_1" xmlns="http://www.w3.org/2000/svg" xmlns:xlink="http://www.w3.org/1999/xlink"
	 x="0px" y="0px" viewBox="-3 -3 28 28" xml:space="preserve">
<g>
	<path fill="#000000" d="M20,13.5V11c0-0.8,0.7-1.5,1.5-1.5H23V6.6c0-1.2-0.9-2.1-2.1-2.1H3.1C1.9,4.5,1,5.4,1,6.6v2.9h1.5C3.3,9.5,4,10.2,4,11v2.5
		H20z"/>
	<path fill="#000000" d="M23,10.5L23,10.5h-1.5c-0.3,0-0.5,0.2-0.5,0.5v3.5H3V11c0-0.3-0.2-0.5-0.5-0.5H1h0c-0.6,0-1,0.4-1,1v5c0,1.1,0.9,2,2,2h1v1
		h1v-1h16v1h1v-1h1c1.1,0,2-0.9,2-2v-5C24,10.9,23.6,10.5,23,10.5z"/>
</g>
</svg>
