<?xml version="1.0" encoding="utf-8"?>
<!-- Generator: Adobe Illustrator 18.1.1, SVG Export Plug-In . SVG Version: 6.00 Build 0)  -->

<svg version="1.1" id="Layer_1" xmlns="http://www.w3.org/2000/svg" xmlns:xlink="http://www.w3.org/1999/xlink" x="0px" y="0px"
	 viewBox="-3 -3 26 26" enable-background="new 0 0 20 20" xml:space="preserve">
	<g fill="#000000">
		<path d="M15.8,0H4.2C4.1,0,4,0.1,4,0.2v19.5C4,19.9,4.1,20,4.2,20h11.5c0.1,0,0.2-0.1,0.2-0.2V0.2C16,0.1,15.9,0,15.8,0z M12.5,17.4
			C12.5,17.5,12.5,17.5,12.5,17.4l-5,0c0,0,0,0,0,0v-3.7h5V17.4z M12.5,12.6h-5v-2h5V12.6z M12.5,9.4h-5V7.6h5V9.4z M12.5,6.4h-5V2.6
			c0,0,0,0,0,0h4.9c0,0,0,0,0,0V6.4z"/>
	</g>
</svg>
