<?xml version="1.0" encoding="utf-8"?>
<!-- Generator: Adobe Illustrator 18.1.1, SVG Export Plug-In . SVG Version: 6.00 Build 0)  -->

<svg version="1.1" id="Layer_1" xmlns="http://www.w3.org/2000/svg" xmlns:xlink="http://www.w3.org/1999/xlink" x="0px" y="0px"
	 viewBox="-3 -3 26 26" enable-background="new 0 0 20 20" xml:space="preserve">
	<g fill="#000000">
		<path d="M14.3,3.2H0V0h14.1c2.2,0,3.9,0.5,4.9,1.5c1,1.1,1,2.3,1,2.4v1.4c0,0,0,0,0,0c-0.5-0.5-1-0.9-1.5-1.2l-0.8-0.4l0,0.1
			c-1-0.4-2-0.5-3.1-0.5C14.4,3.2,14.3,3.2,14.3,3.2z"/>
		<path d="M6.3,8.5L6.3,8.5c0.4,0,7-0.3,9.7-0.9c1.6-0.4,2.3-1.2,2.6-2c0.3,0.2,0.6,0.5,0.8,0.8c0,0,0.1,0.1,0.1,0.1
			c0.1,0.1,0.1,0.2,0.2,0.3c0,0.1,0.1,0.1,0.1,0.2c0,0.1,0.1,0.2,0.1,0.3c0,0.1,0,0.1,0.1,0.2C19.9,7.7,20,7.9,20,8
			c-0.3,3.4-6.2,3.5-6.3,3.5c-0.8,0-8.2,0.5-9.6,0.9c-1.5,0.5-2.2,1.3-2.5,2c-0.3-0.3-0.6-0.6-0.9-0.9c0,0,0,0,0,0
			c-0.2-0.3-0.3-0.6-0.4-0.9c0,0,0-0.1,0-0.1c0-0.2-0.1-0.3-0.1-0.5C0.3,8.6,5.7,8.5,6.3,8.5z"/>
		<path d="M20,16.8V20H5.9c-2.2,0-3.9-0.5-4.9-1.5c-1-1.1-1-2.3-1-2.4v-1.3c0.4,0.5,0.9,0.9,1.5,1.2l0.8,0.4l0-0.1
			c1,0.4,2,0.5,3.1,0.5c0.2,0,0.3,0,0.3,0H20z"/>
	</g>
</svg>
