<?xml version="1.0" encoding="utf-8"?>
<!-- Generator: Adobe Illustrator 18.1.1, SVG Export Plug-In . SVG Version: 6.00 Build 0)  -->

<svg version="1.1" id="Layer_1" xmlns="http://www.w3.org/2000/svg" xmlns:xlink="http://www.w3.org/1999/xlink" x="0px" y="0px"
	 viewBox="-3 -3 26 26" enable-background="new 0 0 20 20" xml:space="preserve">
	<g fill="#000000">
		<path d="M15.6,4.6c3.3,2.8,4.8,5.6,4.3,6.7c-0.2,0.3-0.6,0.5-1.3,0.5c-1,0-3.5-0.5-8-3.8C9.6,7.1,8.7,6.3,8,5.5C6.3,3.7,5.4,2,5.4,1
			c0,0,0,0,0,0c0-0.1,0-0.1,0-0.2c0,0,0,0,0,0c0,0,0-0.1,0-0.1c0,0,0,0,0-0.1c0,0,0,0,0,0c0,0,0-0.1,0.1-0.1c0,0,0,0,0,0
			C5.7,0.2,6,0.1,6.8,0.1C8.6,0.1,11.8,1.3,15.6,4.6z"/>
		<path d="M12.1,19.2c-1.1,0.4-2.3,0.7-3.5,0.7c0,0,0,0,0,0c-0.4,0-0.7,0-1-0.1c-2.2-0.3-6.9-2.5-7.5-7.7C-0.2,10.1,0.5,7.9,1.4,6
			c0.6,1.7,2,4.3,5.8,7.2c3.9,3,6.7,3.7,8.4,3.7C14.5,18,13.3,18.8,12.1,19.2z"/>
		<path d="M17.1,15.5c-1.5,0.7-4.7,0.2-9.2-3.2C3.3,8.8,2.4,5.8,2.3,4.5c0.7-1.1,1.4-2.1,2.1-2.8c0,0,0,0.1,0,0.1c0,0.1,0,0.1,0,0.2
			c0,0.1,0,0.2,0.1,0.2c0,0.1,0,0.1,0.1,0.2c0,0.1,0.1,0.2,0.1,0.3c0,0.1,0.1,0.1,0.1,0.2c0,0.1,0.1,0.2,0.1,0.3
			c0,0.1,0.1,0.1,0.1,0.2C5,3.4,5.1,3.5,5.1,3.6c0,0.1,0.1,0.1,0.1,0.2C5.3,3.9,5.4,4,5.5,4.2c0,0,0,0,0,0.1c0.1,0.2,0.2,0.3,0.3,0.5
			c0,0.1,0.1,0.1,0.1,0.2C6.1,5,6.2,5.1,6.2,5.2c0.1,0.1,0.1,0.1,0.2,0.2c0.1,0.1,0.2,0.2,0.3,0.3c0.1,0.1,0.1,0.1,0.2,0.2
			C6.9,6,7,6.1,7.1,6.2c0.1,0.1,0.1,0.1,0.2,0.2c0.1,0.1,0.2,0.2,0.3,0.3C7.6,6.8,7.7,6.9,7.8,7C7.9,7.1,8,7.1,8.1,7.2
			c0.1,0.1,0.1,0.1,0.2,0.2c0.1,0.1,0.2,0.2,0.3,0.3c0.1,0.1,0.1,0.1,0.2,0.2C8.9,8,9.1,8.2,9.2,8.3c0.1,0.1,0.1,0.1,0.2,0.2
			C9.6,8.6,9.8,8.7,10,8.9c4.5,3.4,7.2,4.1,8.7,4.1c0.1,0,0.3,0,0.4,0C18.5,13.8,17.9,14.7,17.1,15.5z"/>
	</g>
</svg>
