<?xml version="1.0" encoding="UTF-8" standalone="no"?>
<svg
   xmlns:dc="http://purl.org/dc/elements/1.1/"
   xmlns:cc="http://creativecommons.org/ns#"
   xmlns:rdf="http://www.w3.org/1999/02/22-rdf-syntax-ns#"
   xmlns:svg="http://www.w3.org/2000/svg"
   xmlns="http://www.w3.org/2000/svg"
   version="1.1"
   id="Layer_1"
   x="0px"
   y="0px"
   viewBox="-3 -3 26 26"
   enable-background="new 0 0 20 20"
   xml:space="preserve"><metadata
     id="metadata9"><rdf:RDF><cc:Work
         rdf:about=""><dc:format>image/svg+xml</dc:format><dc:type
           rdf:resource="http://purl.org/dc/dcmitype/StillImage" /><dc:title></dc:title></cc:Work></rdf:RDF></metadata><defs
     id="defs7" /><path
     style="fill:#000000"
     d="M 3.0123217,3.0823131 C -0.77837549,6.861248 -0.78628484,13.415797 3.2520185,17.274785 7.2903228,21.133773 14.03202,20.824014 17.479248,17.249616 20.926474,13.675219 21.225985,6.711065 17.119702,2.8677841 13.013418,-0.97549827 6.8030191,-0.69662271 3.0123217,3.0823131 Z m 4.4799386,4.4200184 c 1.4849244,-1.4849241 3.8890877,-1.4849243 5.3740127,-5e-7 1.484923,1.4849249 1.484923,3.889088 -10e-7,5.374012 -1.484924,1.484925 -3.8533019,1.449979 -5.3740115,0 -1.5207098,-1.449979 -1.4849242,-3.8890868 -2e-7,-5.3740115 M 4.1296132,5.3184212 c -0.2828428,-0.2828431 -0.2828428,-0.8485281 -10e-8,-1.1313709 0.2828426,-0.2828429 0.848528,-0.2828429 1.1313708,0 0.282843,0.2828429 0.3181982,0.8131729 10e-8,1.1313709 -0.318198,0.3181979 -0.8485281,0.282843 -1.1313708,0 m -1.162836,2.749596 c 0.2828427,0.282843 0.2828427,0.848528 0,1.131371 -0.2828427,0.282843 -0.8485282,0.2828429 -1.1313709,0 -0.2828427,-0.282843 -0.2828427,-0.848528 0,-1.1313711 0.2828427,-0.282843 0.8485282,-0.2828429 1.1313709,10e-8 m 6.1518291,-5.020458 c -0.2828431,0.2828423 -0.8485278,0.2828416 -1.1313708,0 -0.282843,-0.282843 -0.2828428,-0.8485282 -10e-8,-1.131371 0.2828426,-0.2828428 0.848528,-0.2828428 1.1313708,0 0.2828428,0.2828428 0.2828426,0.848528 10e-8,1.131371"
     id="path11" /><path
     style="fill:#000000"
     clip-path="url(#SVGID_2_)"
     d="m 12.028532,12.158448 c 1.06066,-1.06066 1.060661,-2.7577156 10e-7,-3.8183772 -1.060661,-1.0606598 -2.7577173,-1.0606596 -3.8183775,5e-7 -1.0606599,1.0606608 -1.0606599,2.7577167 3e-7,3.8183767 0.9899494,1.131371 2.7577162,1.06066 3.8183762,0"
     id="path13" /></svg>