<?xml version="1.0" encoding="utf-8"?>
<!-- Generator: Adobe Illustrator 19.2.1, SVG Export Plug-In . SVG Version: 6.00 Build 0)  -->
<svg version="1.2" baseProfile="tiny" id="Layer_1" xmlns="http://www.w3.org/2000/svg" xmlns:xlink="http://www.w3.org/1999/xlink"
	 x="0px" y="0px" viewBox="-3 -3 28 28" xml:space="preserve">
<path fill="#000000" d="M21,6l-9-6L3,6v4c-1.7,0.2-3,1.7-3,3.5C0,15.4,1.6,17,3.5,17S7,15.4,7,13.5c0-1.8-1.3-3.2-3-3.5V7.7C4.3,7.9,4.6,8,5,8
	c1.1,0,2-1,2-2c0,1,1.1,2,2.5,2c0.6,0,1.1-0.2,1.5-0.4v9l-0.5,1.1L7,18.1l2.5,2.4L8.9,24l3.1-1.6l3.1,1.6l-0.6-3.4l2.5-2.4l-3.5-0.5
	L12,14.5V6c0,1,1.1,2,2.5,2S17,7,17,6c0,1,0.9,2,2,2c0.4,0,0.7-0.1,1-0.3v3.1L17,16h7l-3-5.2V6z"/>
</svg>
