<?xml version="1.0" encoding="utf-8"?>
<!-- Generator: Adobe Illustrator 19.2.1, SVG Export Plug-In . SVG Version: 6.00 Build 0)  -->
<svg version="1.2" baseProfile="tiny" id="Layer_1" xmlns="http://www.w3.org/2000/svg" xmlns:xlink="http://www.w3.org/1999/xlink"
	 x="0px" y="0px" viewBox="-3 -3 28 28" xml:space="preserve">
<g>
	<polygon fill="none" points="5,7.5 4,7.5 4,6.5 3,6.5 3,7.5 2,7.5 2,8.5 3,8.5 3,9.5 4,9.5 4,8.5 5,8.5 	"/>
	<circle fill="none" cx="6.5" cy="11" r="1.5"/>
	<circle fill="none" cx="17.5" cy="11" r="1.5"/>
	<path fill="#000000" d="M19.8,4.5h-0.1H4.9C2.4,4.5,0,6.5,0,9v7.8c0,1.6,1.5,2.7,3,2.7c1.1,0,2.2-0.7,2.6-1.7L7,13.5h10l1.9,4.3
		c0.6,1,1.3,1.6,2.4,1.6c1.6,0,2.7-1.1,2.7-2.6V9C24,6.5,22.2,4.5,19.8,4.5z M4,8.5v1H3v-1H2v-1h1v-1h1v1h1v1H4z M6.5,12.5
		C5.7,12.5,5,11.8,5,11s0.7-1.5,1.5-1.5S8,10.2,8,11S7.3,12.5,6.5,12.5z M17.5,12.5c-0.8,0-1.5-0.7-1.5-1.5s0.7-1.5,1.5-1.5
		S19,10.2,19,11S18.3,12.5,17.5,12.5z"/>
</g>
</svg>
