<?xml version="1.0" encoding="utf-8"?>
<!-- Generator: Adobe Illustrator 19.2.1, SVG Export Plug-In . SVG Version: 6.00 Build 0)  -->
<svg version="1.2" baseProfile="tiny" id="Layer_1" xmlns="http://www.w3.org/2000/svg" xmlns:xlink="http://www.w3.org/1999/xlink"
	 x="0px" y="0px" viewBox="-3 -3 28 28" xml:space="preserve">
<g>
	<path fill="none" d="M5.5,15C4.7,15,4,15.7,4,16.5C4,17.3,4.7,18,5.5,18S7,17.3,7,16.5C7,15.7,6.3,15,5.5,15z"/>
	<polygon fill="none" points="17,9 7,9 6,13 18,13 	"/>
	<path fill="none" d="M18.5,15c-0.8,0-1.5,0.7-1.5,1.5c0,0.8,0.7,1.5,1.5,1.5s1.5-0.7,1.5-1.5C20,15.7,19.3,15,18.5,15z"/>
	<path fill="#000000" d="M21.5,0h-19C1.1,0,0,1.1,0,2.5V21h1V4h22v17h1V2.5C24,1.1,22.9,0,21.5,0z"/>
	<path fill="#000000" d="M20,23v-2h1c0.6,0,1-0.5,1-1v-4.9c0-2-2-2.1-2-2.1l-2-6H6l-2,6c-1,0-2,1-2,2.1V20c0,0.6,0.5,1,1,1h1v2c0,0.6,0.4,1,1,1h1
		c0.6,0,1-0.4,1-1v-2h10v2c0,0.6,0.4,1,1,1h1C19.6,24,20,23.6,20,23z M5.5,18C4.7,18,4,17.3,4,16.5C4,15.7,4.7,15,5.5,15
		S7,15.7,7,16.5C7,17.3,6.3,18,5.5,18z M6,13l1-4h10l1,4H6z M18.5,18c-0.8,0-1.5-0.7-1.5-1.5c0-0.8,0.7-1.5,1.5-1.5s1.5,0.7,1.5,1.5
		C20,17.3,19.3,18,18.5,18z"/>
</g>
</svg>
