<?xml version="1.0" encoding="utf-8"?>
<!-- Generator: Adobe Illustrator 19.2.1, SVG Export Plug-In . SVG Version: 6.00 Build 0)  -->
<svg version="1.2" baseProfile="tiny" id="Layer_1" xmlns="http://www.w3.org/2000/svg" xmlns:xlink="http://www.w3.org/1999/xlink"
	 x="0px" y="0px" viewBox="-3 -3 28 28" xml:space="preserve">
<path fill="#000000" d="M24,23L24,23l-1.4-3.2l-2.1-0.7l-6.7-6.7l3.8-3.8c0.9,0.4,2,0.6,3.2,0.3c1-0.3,1.9-1,2.5-1.9c0.8-1.2,0.9-2.3,0.7-3.3
	l-2.2,2.2c-0.4,0.4-1,0.4-1.4,0l-2.1-2.1c-0.4-0.4-0.4-1,0-1.4l2.2-2.2c-1-0.2-2.2-0.1-3.4,0.8c-0.9,0.6-1.5,1.5-1.8,2.5
	c-0.3,1.1-0.1,2.2,0.3,3.1l-3.4,3.4L8.4,5.6L3.5,0.7C2.8,0,1.7-0.2,0.8,0.4c-1,0.7-1.1,2.2-0.3,3l5,5l4.2,3.7l-3.4,3.4
	c-0.9-0.4-2-0.6-3.2-0.3c-1,0.3-1.9,1-2.5,1.9c-0.8,1.2-0.9,2.3-0.7,3.3l2-2c0.4-0.4,1-0.4,1.4,0l2.1,2.1c0.4,0.4,0.4,1,0,1.4l-2,2
	c1,0.2,2.2,0.1,3.4-0.8c0.9-0.6,1.5-1.5,1.8-2.5c0.3-1.1,0.1-2.2-0.3-3.1l3.8-3.8l6.7,6.7l0.7,2.1v0L23,24h0L24,23z"/>
</svg>
