<?xml version="1.0" encoding="utf-8"?>
<!-- Generator: Adobe Illustrator 18.1.1, SVG Export Plug-In . SVG Version: 6.00 Build 0)  -->

<svg version="1.1" id="Layer_1" xmlns="http://www.w3.org/2000/svg" xmlns:xlink="http://www.w3.org/1999/xlink" x="0px" y="0px"
	 viewBox="-3 -3 26 26" enable-background="new 0 0 20 20" xml:space="preserve">
	<g fill="#000000">
		<path d="M4.9,0.3C5.1,0.1,5.4,0,5.8,0c2.2,0,5.9,2.7,9,6.5c1.9,2.4,3.4,4.9,4.1,7c0.6,1.9,0.6,3.4,0,3.9c-0.2,0.2-0.5,0.3-0.9,0.3
			c-2,0-5.4-2.4-8.4-5.8c-0.2-0.2-0.4-0.5-0.6-0.7C7,8.9,5.6,6.4,4.8,4.2C4.7,3.7,4.5,3.3,4.5,2.9S4.3,2.1,4.3,1.7
			C4.4,1.1,4.5,0.5,4.9,0.3L4.9,0.3L4.9,0.3z"/>
		<path d="M5.7,19.5C5.1,19.8,4.6,20,4,20c-0.4,0-0.7-0.1-1-0.3c-0.7-0.5-0.9-1.6-0.6-2.7c0.9,0.9,2,1.7,3.1,2.4
			C5.6,19.4,5.6,19.4,5.7,19.5z"/>
		<path d="M12,20l-0.1,0c-1.9,0-3.7-0.6-5.4-1.4l-0.4-0.2c-1-0.6-1.9-1.3-2.6-2l-0.2-0.3c-0.3-0.3-0.5-0.7-0.7-1
			C1.2,12.7-1.2,6.9,3.2,1.9c0,0,0,0,0,0.1c0,0.2,0,0.3,0,0.5c0,0,0,0,0,0.1c0,0.2,0.1,0.4,0.1,0.5c0,0,0,0.1,0,0.1
			c0,0.2,0.1,0.4,0.1,0.6c0,0,0,0.1,0,0.1c0.1,0.2,0.1,0.4,0.2,0.7C4.5,6.9,6,9.5,8,12c0.2,0.2,0.4,0.5,0.6,0.7
			c0.1,0.1,0.1,0.2,0.2,0.2c0.1,0.2,0.3,0.3,0.4,0.5c0.1,0.1,0.2,0.2,0.2,0.3c0.1,0.1,0.3,0.3,0.4,0.4c0.1,0.1,0.2,0.2,0.2,0.3
			c0.1,0.1,0.3,0.3,0.4,0.4c0.1,0.1,0.2,0.2,0.2,0.2c0.1,0.1,0.3,0.2,0.4,0.4c0.1,0.1,0.2,0.1,0.2,0.2c0.2,0.1,0.3,0.3,0.5,0.4
			c0.1,0,0.1,0.1,0.2,0.1c0.2,0.2,0.4,0.3,0.6,0.5c0,0,0.1,0.1,0.1,0.1c0.2,0.1,0.3,0.2,0.5,0.4c0.1,0.1,0.1,0.1,0.2,0.1
			c0.1,0.1,0.3,0.2,0.4,0.3c0.1,0.1,0.2,0.1,0.2,0.1c0.1,0.1,0.2,0.2,0.4,0.2c0.1,0,0.2,0.1,0.2,0.1c0.1,0.1,0.2,0.1,0.4,0.2
			c0.1,0,0.1,0.1,0.2,0.1c0.1,0.1,0.3,0.1,0.4,0.2c0.1,0,0.1,0.1,0.2,0.1c0.2,0.1,0.3,0.1,0.5,0.2c0,0,0,0,0.1,0
			c0.2,0.1,0.3,0.1,0.5,0.1C15.3,19.6,13.6,20,12,20z"/>
	</g>
</svg>
