<?xml version="1.0" encoding="utf-8"?>
<!-- Generator: Adobe Illustrator 19.2.1, SVG Export Plug-In . SVG Version: 6.00 Build 0)  -->
<svg version="1.2" baseProfile="tiny" id="Layer_1" xmlns="http://www.w3.org/2000/svg" xmlns:xlink="http://www.w3.org/1999/xlink"
	 x="0px" y="0px" viewBox="-3 -3 28 28" xml:space="preserve">
<g>
	<path fill="none" d="M17,9.5c0,0.8,0.7,1.5,1.5,1.5S20,10.3,20,9.5C20,8.7,19.3,8,18.5,8S17,8.7,17,9.5z"/>
	<polygon fill="none" points="17,2 7,2 6,6 18,6 	"/>
	<path fill="none" d="M5.5,11C6.3,11,7,10.3,7,9.5C7,8.7,6.3,8,5.5,8S4,8.7,4,9.5C4,10.3,4.7,11,5.5,11z"/>
	<path fill="#000000" d="M19,18h-1c-1.1,0-2-0.9-2-2v-1H8v1c0,1.1-0.9,2-2,2H5c-1,0-1.9-1-2-2l-3,4.1V24l24,0v-4l-3-4C20.9,17,20,18,19,18z"/>
	<path fill="#000000" d="M2,8.1V13c0,0.6,0.5,1,1,1h1v2c0,0.6,0.4,1,1,1h1c0.6,0,1-0.4,1-1v-2h10v2c0,0.6,0.4,1,1,1h1c0.6,0,1-0.4,1-1v-2h1
		c0.6,0,1-0.5,1-1V8.1C22,6,20,6,20,6l-2-6H6L4,6C3,6,2,7,2,8.1z M18.5,8C19.3,8,20,8.7,20,9.5c0,0.8-0.7,1.5-1.5,1.5
		S17,10.3,17,9.5C17,8.7,17.7,8,18.5,8z M7,2h10l1,4H6L7,2z M5.5,8C6.3,8,7,8.7,7,9.5C7,10.3,6.3,11,5.5,11S4,10.3,4,9.5
		C4,8.7,4.7,8,5.5,8z"/>
</g>
</svg>
