<?xml version="1.0" encoding="utf-8"?>
<!-- Generator: Adobe Illustrator 18.1.1, SVG Export Plug-In . SVG Version: 6.00 Build 0)  -->

<svg version="1.1" id="Layer_1" xmlns="http://www.w3.org/2000/svg" xmlns:xlink="http://www.w3.org/1999/xlink" x="0px" y="0px"
	 viewBox="-3 -3 26 26" enable-background="new 0 0 20 20" xml:space="preserve">
<path fill="#000000" d="M10,12.6c-4.2,0-6.8-0.7-7.3-1.2c0.4-0.5,3-1.2,7.3-1.2c4.2,0,6.8,0.7,7.3,1.2C16.8,11.8,14.2,12.6,10,12.6z
	"/>
<path fill="#000000" d="M18.5,11.5c0,0,0-0.1,0-0.1C18.5,9,10.9,9,10,9C9.1,9,1.5,9,1.5,11.4c0,0,0,0.1,0,0.1C0.5,11,0,10.6,0,10.2
	C0,9,3.9,7.4,10,7.4c6.1,0,10,1.6,10,2.7C20,10.6,19.5,11,18.5,11.5z"/>
</svg>
