<?xml version="1.0" encoding="UTF-8" standalone="no"?>
<!-- Created with Inkscape (http://www.inkscape.org/) -->

<svg
   xmlns:dc="http://purl.org/dc/elements/1.1/"
   xmlns:cc="http://creativecommons.org/ns#"
   xmlns:rdf="http://www.w3.org/1999/02/22-rdf-syntax-ns#"
   xmlns:svg="http://www.w3.org/2000/svg"
   xmlns="http://www.w3.org/2000/svg"
   xmlns:sodipodi="http://sodipodi.sourceforge.net/DTD/sodipodi-0.dtd"
   xmlns:inkscape="http://www.inkscape.org/namespaces/inkscape"
   version="1.0"
   width="550"
   height="550"
   viewBox="0 0 440 440"
   id="svg2985"
   inkscape:version="0.48.5 r10040"
   sodipodi:docname="my_humidity.svg">
  <sodipodi:namedview
     pagecolor="#ffffff"
     bordercolor="#666666"
     borderopacity="1"
     objecttolerance="10"
     gridtolerance="10"
     guidetolerance="10"
     inkscape:pageopacity="0"
     inkscape:pageshadow="2"
     inkscape:window-width="1920"
     inkscape:window-height="1125"
     id="namedview2995"
     showgrid="false"
     inkscape:zoom="0.42909091"
     inkscape:cx="275"
     inkscape:cy="275"
     inkscape:window-x="-9"
     inkscape:window-y="-9"
     inkscape:window-maximized="1"
     inkscape:current-layer="svg2985" />
  <defs
     id="defs3001" />
  <metadata
     id="metadata2987">
Created by potrace 1.8, written by Peter Selinger 2001-2007
<rdf:RDF>
  <cc:Work
     rdf:about="">
    <dc:format>image/svg+xml</dc:format>
    <dc:type
       rdf:resource="http://purl.org/dc/dcmitype/StillImage" />
    <dc:title></dc:title>
  </cc:Work>
</rdf:RDF>
</metadata>
  <path
     inkscape:connector-curvature="0"
     id="path2995-4"
     style="fill:#000000;fill-opacity:1;stroke:none"
     d="M 200.13536,3.2421883 C 179.24395,23.324867 168.89215,32.628932 152.26847,59.716615 134.58498,86.206146 115.32611,103.21287 88.728441,173.76683 c -14.278904,37.79676 -14.834126,44.69386 -15.114069,71.57155 0,33.87712 5.04406,46.7498 26.602058,69.70768 17.42773,18.43461 38.56476,28.35414 60.01578,31.12618 -0.24193,-4.09049 -0.35585,-8.52144 -0.35585,-13.38576 0.10801,-10.3673 0.2743,-17.75294 1.23694,-25.09407 -5.74996,-0.94057 -11.016,-2.42427 -14.97851,-4.40545 -25.19796,-12.87903 -36.11663,-30.23095 -35.83664,-57.94858 0,-16.51859 0.49233,-26.95834 11.69138,-56.35582 22.1181,-57.67506 39.29077,-85.47187 56.47445,-105.595147 4.03843,37.595607 23.25555,65.228097 39.32705,92.768527 6.85109,-9.82179 13.24358,-17.95975 19.43479,-27.04266 -4.54579,-7.04199 -9.8056,-16.17869 -20.72254,-39.02209 C 205.6892,84.403383 190.0365,51.324363 200.13536,3.2421883 z" />
  <path
     d="m 235.28584,147.27425 c -17.68362,26.48954 -36.93428,43.48334 -63.532,114.0373 -14.27878,37.79676 -14.83873,44.69117 -15.11871,71.56886 0,33.8771 5.03957,46.756 26.59772,69.71404 62.99461,66.63429 174.42506,22.1181 174.14508,-69.71404 0,-15.67865 -2.23981,-26.03776 -11.47901,-52.35551 -26.08719,-50.65778 -20.985,-29.73719 -46.38577,-82.88764 -10.81408,-25.6878 -26.45027,-58.76307 -16.35143,-106.845246 -20.89143,20.082676 -31.2523,29.394556 -47.87588,56.482236 z m 88.63496,181.75649 c 0,24.07794 -21.69814,55.36526 -44.65617,64.3245 -12.8789,5.03956 -37.79677,3.63968 -50.11571,-2.51979 -25.19784,-12.87889 -36.1169,-30.23741 -35.83693,-57.95504 0,-16.51858 0.48995,-26.94769 11.689,-56.34517 22.1181,-57.67506 39.30394,-85.47972 56.48747,-105.603 7.04127,65.54842 60.21141,100.81978 62.43234,158.0985 z"
     id="path2995"
     style="fill:#000000;fill-opacity:1;stroke:none"
     inkscape:connector-curvature="0" />
  <path
     d="m 268.27128,385.41831 c -5.53994,-2.88673 -8.20927,-9.72645 -6.5001,-15.66497 1.74343,-7.90364 8.67075,-13.17084 15.49534,-16.68062 5.23422,-2.85917 11.0305,-4.57901 16.16687,-7.60832 4.30983,-3.9377 7.78937,-8.72121 11.24691,-13.40454 3.64095,-5.48925 5.07806,-12.11481 6.09074,-18.52992 0.29004,-1.45031 0.53057,-7.18784 1.1697,-2.70671 1.18061,8.43397 2.10666,16.96095 1.88965,25.48719 -0.66304,4.86792 -3.04751,9.30778 -4.8364,13.83864 -2.70736,6.00076 -5.16237,12.29822 -9.77751,17.14489 -5.13592,5.75303 -10.49291,11.40429 -16.61249,16.12044 -4.0655,2.70977 -9.74586,4.50662 -14.33271,2.00392 z"
     id="path3059"
     style="fill:#000000;fill-opacity:1;stroke:none"
     inkscape:connector-curvature="0" />
 
</svg>
