<?xml version="1.0" encoding="utf-8"?>
<!-- Generator: Adobe Illustrator 21.1.0, SVG Export Plug-In . SVG Version: 6.00 Build 0)  -->
<svg version="1.1"
	 id="svg6235" inkscape:version="0.91 r13725" sodipodi:docname="HutschIcon3.svg" xmlns:cc="http://creativecommons.org/ns#" xmlns:dc="http://purl.org/dc/elements/1.1/" xmlns:inkscape="http://www.inkscape.org/namespaces/inkscape" xmlns:rdf="http://www.w3.org/1999/02/22-rdf-syntax-ns#" xmlns:sodipodi="http://sodipodi.sourceforge.net/DTD/sodipodi-0.dtd" xmlns:svg="http://www.w3.org/2000/svg"
	 xmlns="http://www.w3.org/2000/svg" xmlns:xlink="http://www.w3.org/1999/xlink" x="0px" y="0px" viewBox="0 0 460.7 466.4"
	 style="enable-background:new 0 0 460.7 466.4;" xml:space="preserve">
<style type="text/css">
	.st0{opacity:0.895;fill-opacity:0.2765;enable-background:new    ;}
</style>
<path id="path6106" inkscape:connector-curvature="0" class="st0" d="M41.2,247.3c-6.4-2.8-10.5-9-10.5-16c0-5.5,0.8-7.5,4.2-11.4
	c10.7-12.2,30.6-4.5,30.6,11.9c0,3.7-3.6,10.8-6.8,13.1C53.6,248.6,46.6,249.6,41.2,247.3L41.2,247.3z"/>
<path id="path6108" inkscape:connector-curvature="0" class="st0" d="M92.9,247.3c-6.5-2.8-10.5-9-10.5-16.1c0-7.4,3.1-12.4,10-15.9
	c4.7-2.4,12.2-1.8,16.8,1.4c4.9,3.4,8.1,9.9,7.7,15.5C116,243.9,103.4,251.8,92.9,247.3L92.9,247.3z"/>
<path id="path6110" inkscape:connector-curvature="0" class="st0" d="M144.2,247c-1.8-0.8-4.6-3-6.2-4.9c-7.2-8.4-4.8-20.9,5.2-26.3
	c3.5-1.9,4.8-2.2,9.2-1.9c4.1,0.3,5.9,0.8,8.6,2.8c7.7,5.4,9.9,15.6,5.1,23.4C161.5,247.5,151.9,250.5,144.2,247z"/>
<path id="path6112" inkscape:connector-curvature="0" class="st0" d="M195.9,247c-4.5-2-8.9-7.4-10.1-12.2
	c-1.9-8,3.4-17.7,11.1-20.2c4.5-1.5,11.7-0.6,15.5,1.9c7.8,5.2,10.2,15.8,5.4,23.6C213.2,247.5,203.6,250.5,195.9,247L195.9,247z"/>
<path id="path6114" inkscape:connector-curvature="0" class="st0" d="M247.7,247.1c-4.7-2.1-8.3-6.3-9.7-11
	c-1.6-5.3-0.8-10.1,2.4-14.8c8.4-12.3,27.4-8.9,31.3,5.7C275.2,240.4,260.4,252.9,247.7,247.1L247.7,247.1z"/>
<path id="path6116" inkscape:connector-curvature="0" class="st0" d="M298.4,246.5c-7.2-3.6-11.2-12-9.2-19.5
	c3.9-14.6,22.9-18.1,31.3-5.7c6.2,9.2,2.8,21.1-7.4,25.8C308.5,249.2,303.3,249,298.4,246.5L298.4,246.5z"/>
<path id="path6118" inkscape:connector-curvature="0" class="st0" d="M349.8,246.3c-15.3-8-10.6-31.1,6.5-32.3
	c6.1-0.4,9.6,0.8,13.7,4.7c6.7,6.5,7.1,16.4,1.1,23.5C365.4,248.8,357.5,250.3,349.8,246.3L349.8,246.3z"/>
<path id="path6120" inkscape:connector-curvature="0" class="st0" d="M401.6,246.3c-11.7-5.9-12.6-22-1.7-29.6
	c2.7-1.9,4.5-2.5,8.6-2.8c4.5-0.3,5.7,0,9.2,1.9c9.9,5.4,12.4,17.8,5.2,26.3C417.1,248.8,409.4,250.3,401.6,246.3z"/>
<sodipodi:namedview  bordercolor="#666666" borderopacity="1.0" fit-margin-bottom="0" fit-margin-left="0" fit-margin-right="0" fit-margin-top="0" id="base" inkscape:current-layer="layer1" inkscape:cx="58.647606" inkscape:cy="177.21724" inkscape:document-units="px" inkscape:pageopacity="0.0" inkscape:pageshadow="2" inkscape:window-height="1018" inkscape:window-maximized="1" inkscape:window-width="1920" inkscape:window-x="-8" inkscape:window-y="-8" inkscape:zoom="0.35" pagecolor="#ffffff" showgrid="false">
	</sodipodi:namedview>
<g id="rect4173">
	<path inkscape:connector-curvature="0" d="M0,0v4.7v461.7h460.7V0H0z M7.5,9.5h445.7v447.4H7.5V9.5L7.5,9.5z"/>
</g>
<g id="rect4173-1">
	<path inkscape:connector-curvature="0" d="M0.6,95.1v2.9v278.4h459.6V95.1H0.6z M8,100.8h444.6v269.8H8V100.8z"/>
</g>
<g id="rect4173-1-4">
	<path inkscape:connector-curvature="0" d="M0,126.5v2.2v212.8h459.6v-215H0z M7.5,130.9h444.6v206.2H7.5V130.9L7.5,130.9z"/>
</g>
<g id="path3763-8-7">
	<path inkscape:connector-curvature="0" d="M99.5,209.4c-12,0-21.7,9.7-21.7,21.7c0,12,9.7,21.7,21.7,21.7c12,0,21.7-9.7,21.7-21.7
		C121.3,219.2,111.5,209.4,99.5,209.4z M99.5,213.2c9.9,0,17.9,8,17.9,17.9c0,9.9-8,17.9-17.9,17.9c-9.9,0-17.9-8-17.9-17.9
		C81.6,221.2,89.6,213.2,99.5,213.2z"/>
</g>
<g id="path3763-87-0">
	<path inkscape:connector-curvature="0" d="M47.9,209.4c-12,0-21.7,9.7-21.7,21.7c0,12,9.7,21.7,21.7,21.7s21.7-9.7,21.7-21.7
		C69.6,219.2,59.8,209.4,47.9,209.4z M47.9,213.2c9.9,0,17.9,8,17.9,17.9c0,9.9-8,17.9-17.9,17.9c-9.9,0-17.9-8-17.9-17.9
		C29.9,221.2,37.9,213.2,47.9,213.2z"/>
</g>
<g id="path3763-80-1">
	<path inkscape:connector-curvature="0" d="M254.6,209.4c-12,0-21.7,9.7-21.7,21.7c0,12,9.7,21.7,21.7,21.7s21.7-9.7,21.7-21.7
		C276.3,219.2,266.5,209.4,254.6,209.4z M254.6,213.2c9.9,0,17.9,8,17.9,17.9c0,9.9-8,17.9-17.9,17.9c-9.9,0-17.9-8-17.9-17.9
		C236.6,221.2,244.6,213.2,254.6,213.2z"/>
</g>
<g id="path3763-1-8">
	<path inkscape:connector-curvature="0" d="M306.2,209.4c-12,0-21.7,9.7-21.7,21.7c0,12,9.7,21.7,21.7,21.7s21.7-9.7,21.7-21.7
		C328,219.2,318.2,209.4,306.2,209.4z M306.2,213.2c9.9,0,17.9,8,17.9,17.9c0,9.9-8,17.9-17.9,17.9c-9.9,0-17.9-8-17.9-17.9
		C288.3,221.2,296.3,213.2,306.2,213.2z"/>
</g>
<g id="path3763-0-4">
	<path inkscape:connector-curvature="0" d="M357.9,209.4c-12,0-21.7,9.7-21.7,21.7c0,12,9.7,21.7,21.7,21.7s21.7-9.7,21.7-21.7
		C379.6,219.2,369.9,209.4,357.9,209.4z M357.9,213.2c9.9,0,17.9,8,17.9,17.9c0,9.9-8,17.9-17.9,17.9c-9.9,0-17.9-8-17.9-17.9
		C340,221.2,348,213.2,357.9,213.2z"/>
</g>
<g id="path3763-9-4">
	<path inkscape:connector-curvature="0" d="M151.2,209.4c-12,0-21.7,9.7-21.7,21.7c0,12,9.7,21.7,21.7,21.7c12,0,21.7-9.7,21.7-21.7
		C172.9,219.2,163.2,209.4,151.2,209.4z M151.2,213.2c9.9,0,17.9,8,17.9,17.9c0,9.9-8,17.9-17.9,17.9s-17.9-8-17.9-17.9
		C133.3,221.2,141.3,213.2,151.2,213.2z"/>
</g>
<g id="path3763-7-6">
	<path inkscape:connector-curvature="0" d="M202.9,209.4c-12,0-21.7,9.7-21.7,21.7c0,12,9.7,21.7,21.7,21.7c12,0,21.7-9.7,21.7-21.7
		C224.6,219.2,214.9,209.4,202.9,209.4z M202.9,213.2c9.9,0,17.9,8,17.9,17.9c0,9.9-8,17.9-17.9,17.9c-9.9,0-17.9-8-17.9-17.9
		C185,221.2,193,213.2,202.9,213.2z"/>
</g>
<g id="path3763-90-0">
	<path inkscape:connector-curvature="0" d="M409.6,209.4c-12,0-21.7,9.7-21.7,21.7c0,12,9.7,21.7,21.7,21.7c12,0,21.7-9.7,21.7-21.7
		C431.3,219.2,421.6,209.4,409.6,209.4z M409.6,213.2c9.9,0,17.9,8,17.9,17.9c0,9.9-8,17.9-17.9,17.9s-17.9-8-17.9-17.9
		C391.7,221.2,399.7,213.2,409.6,213.2z"/>
</g>
<g id="path3763-8-1">
	<path inkscape:connector-curvature="0" d="M99.5,18.7c-12,0-21.7,9.7-21.7,21.7c0,12,9.7,21.7,21.7,21.7s21.7-9.7,21.7-21.7
		C121.3,28.4,111.5,18.7,99.5,18.7z M99.5,22.5c9.9,0,17.9,8,17.9,17.9c0,9.9-8,17.9-17.9,17.9c-9.9,0-17.9-8-17.9-17.9
		C81.6,30.5,89.6,22.5,99.5,22.5z"/>
</g>
<g id="path3763-87-3">
	<path inkscape:connector-curvature="0" d="M47.9,18.7c-12,0-21.7,9.7-21.7,21.7c0,12,9.7,21.7,21.7,21.7c12,0,21.7-9.7,21.7-21.7
		C69.6,28.4,59.8,18.7,47.9,18.7z M47.9,22.5c9.9,0,17.9,8,17.9,17.9c0,9.9-8,17.9-17.9,17.9c-9.9,0-17.9-8-17.9-17.9
		C29.9,30.5,37.9,22.5,47.9,22.5z"/>
</g>
<g id="path3763-80-6">
	<path inkscape:connector-curvature="0" d="M254.6,18.7c-12,0-21.7,9.7-21.7,21.7c0,12,9.7,21.7,21.7,21.7c12,0,21.7-9.7,21.7-21.7
		C276.3,28.4,266.5,18.7,254.6,18.7z M254.6,22.5c9.9,0,17.9,8,17.9,17.9c0,9.9-8,17.9-17.9,17.9c-9.9,0-17.9-8-17.9-17.9
		C236.6,30.5,244.6,22.5,254.6,22.5L254.6,22.5z"/>
</g>
<g id="path3763-1-3">
	<path inkscape:connector-curvature="0" d="M306.2,18.7c-12,0-21.7,9.7-21.7,21.7c0,12,9.7,21.7,21.7,21.7S328,52.4,328,40.4
		C328,28.4,318.2,18.7,306.2,18.7z M306.2,22.5c9.9,0,17.9,8,17.9,17.9c0,9.9-8,17.9-17.9,17.9c-9.9,0-17.9-8-17.9-17.9
		C288.3,30.5,296.3,22.5,306.2,22.5L306.2,22.5z"/>
</g>
<g id="path3763-0-2">
	<path inkscape:connector-curvature="0" d="M357.9,18.7c-12,0-21.7,9.7-21.7,21.7c0,12,9.7,21.7,21.7,21.7s21.7-9.7,21.7-21.7
		C379.6,28.4,369.9,18.7,357.9,18.7z M357.9,22.5c9.9,0,17.9,8,17.9,17.9c0,9.9-8,17.9-17.9,17.9c-9.9,0-17.9-8-17.9-17.9
		C340,30.5,348,22.5,357.9,22.5z"/>
</g>
<g id="path3763-9-8">
	<path inkscape:connector-curvature="0" d="M151.2,18.7c-12,0-21.7,9.7-21.7,21.7c0,12,9.7,21.7,21.7,21.7c12,0,21.7-9.7,21.7-21.7
		C172.9,28.4,163.2,18.7,151.2,18.7z M151.2,22.5c9.9,0,17.9,8,17.9,17.9c0,9.9-8,17.9-17.9,17.9c-9.9,0-17.9-8-17.9-17.9
		C133.3,30.5,141.3,22.5,151.2,22.5z"/>
</g>
<g id="path3763-7-4">
	<path inkscape:connector-curvature="0" d="M202.9,18.7c-12,0-21.7,9.7-21.7,21.7c0,12,9.7,21.7,21.7,21.7c12,0,21.7-9.7,21.7-21.7
		C224.6,28.4,214.9,18.7,202.9,18.7z M202.9,22.5c9.9,0,17.9,8,17.9,17.9c0,9.9-8,17.9-17.9,17.9c-9.9,0-17.9-8-17.9-17.9
		C185,30.5,193,22.5,202.9,22.5z"/>
</g>
<g id="path3763-90-1">
	<path inkscape:connector-curvature="0" d="M409.6,18.7c-12,0-21.7,9.7-21.7,21.7c0,12,9.7,21.7,21.7,21.7s21.7-9.7,21.7-21.7
		C431.3,28.4,421.6,18.7,409.6,18.7z M409.6,22.5c9.9,0,17.9,8,17.9,17.9c0,9.9-8,17.9-17.9,17.9s-17.9-8-17.9-17.9
		C391.7,30.5,399.7,22.5,409.6,22.5z"/>
</g>
<g id="path5135-56">
	<path d="M40.4,59.3l-4.5-2.4c7.4-14.1,12.8-24.1,16.1-29.7c2.6-4.4,3.4-5.7,5.3-5.4l-0.9,5c1,0.2,1.9-0.3,2.2-0.7
		C58.5,26.5,55.9,29.9,40.4,59.3z"/>
</g>
<g id="path5135-7-3">
	<path d="M83.1,49.7L81.2,45c14.8-5.9,25.4-10,31.6-12.1c4.8-1.7,6.3-2.2,7.6-0.6l-3.9,3.3c0.7,0.8,1.6,1,2.1,0.9
		C118.1,36.5,113.9,37.4,83.1,49.7z"/>
</g>
<g id="path5135-1-1">
	<path d="M165.8,51.5c-0.3-0.2-3.7-2.7-33.6-17.3l2.2-4.6c14.3,7,24.4,12.1,30.1,15.3c4.5,2.5,5.8,3.2,5.5,5.2l-5-0.7
		C164.9,50.3,165.5,51.2,165.8,51.5z"/>
</g>
<g id="path5135-0-3">
	<path d="M254.6,61.2l-1.5-4.9c-1,0.3-1.5,1.1-1.7,1.6c0.1-0.4,0.9-4.6,1.5-37.8l5.1,0.1c-0.3,15.9-0.6,27.3-1.1,33.8
		C256.6,59.1,256.5,60.6,254.6,61.2z"/>
</g>
<g id="path5135-2-1">
	<path d="M321.6,47.7c-0.3-0.2-4.2-2-36.3-10.6l1.3-4.9c15.4,4.1,26.3,7.2,32.5,9.2c4.8,1.6,6.3,2,6.4,4l-5.1,0.3
		C320.5,46.7,321.1,47.4,321.6,47.7z"/>
</g>
<g id="path5135-5-5">
	<path d="M360.3,61.7l-2.1-4.6c-0.9,0.4-1.4,1.3-1.4,1.8c0-0.4,0.3-4.6-3.3-37.7l5.1-0.6c1.7,15.8,2.8,27.1,3.2,33.6
		C362,59.3,362.1,60.8,360.3,61.7z"/>
</g>
<g id="path5135-8-8">
	<path d="M397.9,55.4l-3.5-3.7c11.6-10.9,20-18.5,25-22.8c3.9-3.3,5-4.3,6.8-3.3l-2.5,4.5c0.9,0.5,1.9,0.3,2.3,0.1
		C425.8,30.3,422.2,32.6,397.9,55.4z"/>
</g>
<g id="path5135-9-3">
	<path d="M213.5,59.6l-3.8-3.3c-0.7,0.8-0.7,1.8-0.5,2.2c-0.1-0.4-1.7-4.3-18.9-32.8l4.4-2.6c8.2,13.6,14,23.4,17.1,29.2
		C214.1,56.7,214.9,58.1,213.5,59.6z"/>
</g>
<g id="path3763-8-2">
	<path inkscape:connector-curvature="0" d="M101.2,405.1c-12,0-21.7,9.7-21.7,21.7c0,12,9.7,21.7,21.7,21.7s21.7-9.7,21.7-21.7
		C123,414.9,113.2,405.1,101.2,405.1z M101.2,408.9c9.9,0,17.9,8,17.9,17.9c0,9.9-8,17.9-17.9,17.9s-17.9-8-17.9-17.9
		C83.3,416.9,91.3,408.9,101.2,408.9z"/>
</g>
<g id="path3763-87-4">
	<path inkscape:connector-curvature="0" d="M49.6,405.1c-12,0-21.7,9.7-21.7,21.7c0,12,9.7,21.7,21.7,21.7s21.7-9.7,21.7-21.7
		C71.3,414.9,61.5,405.1,49.6,405.1L49.6,405.1z M49.6,408.9c9.9,0,17.9,8,17.9,17.9c0,9.9-8,17.9-17.9,17.9s-17.9-8-17.9-17.9
		C31.6,416.9,39.6,408.9,49.6,408.9z"/>
</g>
<g id="path3763-80-8">
	<path inkscape:connector-curvature="0" d="M256.3,405.1c-12,0-21.7,9.7-21.7,21.7c0,12,9.7,21.7,21.7,21.7c12,0,21.7-9.7,21.7-21.7
		C278,414.9,268.2,405.1,256.3,405.1z M256.3,408.9c9.9,0,17.9,8,17.9,17.9c0,9.9-8,17.9-17.9,17.9s-17.9-8-17.9-17.9
		C238.3,416.9,246.3,408.9,256.3,408.9L256.3,408.9z"/>
</g>
<g id="path3763-1-87">
	<path inkscape:connector-curvature="0" d="M307.9,405.1c-12,0-21.7,9.7-21.7,21.7c0,12,9.7,21.7,21.7,21.7c12,0,21.7-9.7,21.7-21.7
		C329.7,414.9,319.9,405.1,307.9,405.1z M307.9,408.9c9.9,0,17.9,8,17.9,17.9c0,9.9-8,17.9-17.9,17.9s-17.9-8-17.9-17.9
		C290,416.9,298,408.9,307.9,408.9L307.9,408.9z"/>
</g>
<g id="path3763-0-3">
	<path inkscape:connector-curvature="0" d="M359.6,405.1c-12,0-21.7,9.7-21.7,21.7c0,12,9.7,21.7,21.7,21.7c12,0,21.7-9.7,21.7-21.7
		C381.3,414.9,371.6,405.1,359.6,405.1z M359.6,408.9c9.9,0,17.9,8,17.9,17.9c0,9.9-8,17.9-17.9,17.9c-9.9,0-17.9-8-17.9-17.9
		C341.7,416.9,349.7,408.9,359.6,408.9z"/>
</g>
<g id="path3763-9-2">
	<path inkscape:connector-curvature="0" d="M152.9,405.1c-12,0-21.7,9.7-21.7,21.7c0,12,9.7,21.7,21.7,21.7s21.7-9.7,21.7-21.7
		C174.6,414.9,164.9,405.1,152.9,405.1L152.9,405.1z M152.9,408.9c9.9,0,17.9,8,17.9,17.9c0,9.9-8,17.9-17.9,17.9s-17.9-8-17.9-17.9
		C135,416.9,143,408.9,152.9,408.9z"/>
</g>
<g id="path3763-7-1">
	<path inkscape:connector-curvature="0" d="M204.6,405.1c-12,0-21.7,9.7-21.7,21.7c0,12,9.7,21.7,21.7,21.7c12,0,21.7-9.7,21.7-21.7
		C226.3,414.9,216.6,405.1,204.6,405.1z M204.6,408.9c9.9,0,17.9,8,17.9,17.9c0,9.9-8,17.9-17.9,17.9c-9.9,0-17.9-8-17.9-17.9
		C186.7,416.9,194.7,408.9,204.6,408.9z"/>
</g>
<g id="path3763-90-03">
	<path inkscape:connector-curvature="0" d="M411.3,405.1c-12,0-21.7,9.7-21.7,21.7c0,12,9.7,21.7,21.7,21.7c12,0,21.7-9.7,21.7-21.7
		C433,414.9,423.3,405.1,411.3,405.1z M411.3,408.9c9.9,0,17.9,8,17.9,17.9c0,9.9-8,17.9-17.9,17.9c-9.9,0-17.9-8-17.9-17.9
		C393.4,416.9,401.4,408.9,411.3,408.9z"/>
</g>
<g id="path5135-4">
	<path d="M42.1,445.7l-4.5-2.4c7.4-14.1,12.8-24.1,16.1-29.7c2.6-4.4,3.4-5.7,5.3-5.4l-0.9,5c1,0.2,1.9-0.3,2.2-0.7
		C60.2,412.9,57.6,416.3,42.1,445.7z"/>
</g>
<g id="path5135-7-4">
	<path d="M84.8,436.1l-1.9-4.7c14.8-5.9,25.4-10,31.6-12.1c4.8-1.7,6.3-2.2,7.6-0.6l-3.9,3.3c0.7,0.8,1.6,1,2.1,0.9
		C119.8,422.9,115.6,423.8,84.8,436.1z"/>
</g>
<g id="path5135-1-4">
	<path d="M167.5,437.9c-0.3-0.2-3.7-2.7-33.6-17.3l2.2-4.6c14.3,7,24.4,12.1,30.1,15.3c4.5,2.5,5.8,3.2,5.5,5.2l-5-0.7
		C166.6,436.8,167.2,437.6,167.5,437.9z"/>
</g>
<g id="path5135-0-4">
	<path d="M256.3,447.6l-1.5-4.9c-1,0.3-1.5,1.1-1.7,1.6c0.1-0.4,0.9-4.6,1.5-37.8l5.1,0.1c-0.3,15.9-0.6,27.3-1.1,33.8
		C258.3,445.5,258.2,447.1,256.3,447.6z"/>
</g>
<g id="path5135-2-2">
	<path d="M323.3,434.1c-0.3-0.2-4.2-2-36.3-10.6l1.3-4.9c15.4,4.1,26.3,7.2,32.5,9.2c4.8,1.6,6.3,2,6.4,4l-5.1,0.3
		C322.2,433.1,322.8,433.9,323.3,434.1z"/>
</g>
<g id="path5135-5-0">
	<path d="M362,448.1l-2.1-4.6c-0.9,0.4-1.4,1.3-1.4,1.8c0-0.4,0.3-4.6-3.3-37.7l5.1-0.6c1.7,15.8,2.8,27.1,3.2,33.6
		C363.7,445.7,363.8,447.3,362,448.1z"/>
</g>
<g id="path5135-8-4">
	<path d="M399.6,441.8l-3.5-3.7c11.6-10.9,20-18.5,25-22.8c3.9-3.3,5-4.3,6.8-3.3l-2.5,4.5c0.9,0.5,1.9,0.3,2.3,0.1
		C427.4,416.7,423.9,419.1,399.6,441.8z"/>
</g>
<g id="path5135-9-1">
	<path d="M215.2,446l-3.8-3.3c-0.7,0.8-0.7,1.8-0.5,2.2c-0.1-0.4-1.7-4.3-18.9-32.8l4.4-2.6c8.2,13.6,14,23.4,17.1,29.2
		C215.8,443.1,216.6,444.5,215.2,446z"/>
</g>
</svg>
