<?xml version="1.0" encoding="UTF-8" standalone="no"?>
<!-- Created with Inkscape (http://www.inkscape.org/) -->

<svg
   xmlns:dc="http://purl.org/dc/elements/1.1/"
   xmlns:cc="http://creativecommons.org/ns#"
   xmlns:rdf="http://www.w3.org/1999/02/22-rdf-syntax-ns#"
   xmlns:svg="http://www.w3.org/2000/svg"
   xmlns="http://www.w3.org/2000/svg"
   xmlns:sodipodi="http://sodipodi.sourceforge.net/DTD/sodipodi-0.dtd"
   xmlns:inkscape="http://www.inkscape.org/namespaces/inkscape"
   width="162.52237mm"
   height="164.53722mm"
   viewBox="0 0 575.86666 583.00588"
   id="svg6235"
   version="1.1"
   inkscape:version="0.91 r13725"
   sodipodi:docname="HutschIcon3.svg">
  <defs
     id="defs6237" />
  <sodipodi:namedview
     id="base"
     pagecolor="#ffffff"
     bordercolor="#666666"
     borderopacity="1.0"
     inkscape:pageopacity="0.0"
     inkscape:pageshadow="2"
     inkscape:zoom="0.35"
     inkscape:cx="58.647606"
     inkscape:cy="177.21724"
     inkscape:document-units="px"
     inkscape:current-layer="layer1"
     showgrid="false"
     fit-margin-top="0"
     fit-margin-left="0"
     fit-margin-right="0"
     fit-margin-bottom="0"
     inkscape:window-width="1920"
     inkscape:window-height="1018"
     inkscape:window-x="-8"
     inkscape:window-y="-8"
     inkscape:window-maximized="1" />
  <metadata
     id="metadata6240">
    <rdf:RDF>
      <cc:Work
         rdf:about="">
        <dc:format>image/svg+xml</dc:format>
        <dc:type
           rdf:resource="http://purl.org/dc/dcmitype/StillImage" />
        <dc:title></dc:title>
      </cc:Work>
    </rdf:RDF>
  </metadata>
  <g
     inkscape:label="Ebene 1"
     inkscape:groupmode="layer"
     id="layer1"
     transform="translate(307.93332,-126.57354)">
    <g
       transform="translate(421.42854,-478.28616)"
       id="g6122">
      <path
         inkscape:connector-curvature="0"
         id="rect4173"
         d="m -729.36181,604.8597 0,5.93566 0,577.07024 575.86659,0 0,-583.0059 -575.86659,0 z m 9.35291,11.87133 557.16076,0 0,559.25987 -557.16076,0 0,-559.25987 z"
         style="color:#000000;font-style:normal;font-variant:normal;font-weight:normal;font-stretch:normal;font-size:medium;line-height:normal;font-family:sans-serif;text-indent:0;text-align:start;text-decoration:none;text-decoration-line:none;text-decoration-style:solid;text-decoration-color:#000000;letter-spacing:normal;word-spacing:normal;text-transform:none;direction:ltr;block-progression:tb;writing-mode:lr-tb;baseline-shift:baseline;text-anchor:start;white-space:normal;clip-rule:nonzero;display:inline;overflow:visible;visibility:visible;opacity:1;isolation:auto;mix-blend-mode:normal;color-interpolation:sRGB;color-interpolation-filters:linearRGB;solid-color:#000000;solid-opacity:1;fill:#000000;fill-opacity:1;fill-rule:nonzero;stroke:none;stroke-width:6.98562479;stroke-linecap:butt;stroke-linejoin:miter;stroke-miterlimit:4;stroke-dasharray:none;stroke-dashoffset:0;stroke-opacity:1;color-rendering:auto;image-rendering:auto;shape-rendering:auto;text-rendering:auto;enable-background:accumulate" />
      <path
         inkscape:connector-curvature="0"
         id="rect4173-1"
         d="m -728.64759,723.71641 0,3.57945 0,347.99794 574.43801,0 0,-351.57739 -574.43801,0 z m 9.32971,7.15891 555.77858,0 0,337.25748 -555.77858,0 0,-337.25748 z"
         style="color:#000000;font-style:normal;font-variant:normal;font-weight:normal;font-stretch:normal;font-size:medium;line-height:normal;font-family:sans-serif;text-indent:0;text-align:start;text-decoration:none;text-decoration-line:none;text-decoration-style:solid;text-decoration-color:#000000;letter-spacing:normal;word-spacing:normal;text-transform:none;direction:ltr;block-progression:tb;writing-mode:lr-tb;baseline-shift:baseline;text-anchor:start;white-space:normal;clip-rule:nonzero;display:inline;overflow:visible;visibility:visible;opacity:1;isolation:auto;mix-blend-mode:normal;color-interpolation:sRGB;color-interpolation-filters:linearRGB;solid-color:#000000;solid-opacity:1;fill:#000000;fill-opacity:1;fill-rule:nonzero;stroke:none;stroke-width:6.98562479;stroke-linecap:butt;stroke-linejoin:miter;stroke-miterlimit:4;stroke-dasharray:none;stroke-dashoffset:0;stroke-opacity:1;color-rendering:auto;image-rendering:auto;shape-rendering:auto;text-rendering:auto;enable-background:accumulate" />
      <path
         inkscape:connector-curvature="0"
         id="rect4173-1-4"
         d="m -729.36186,763.00208 0,2.73587 0,265.98435 574.43801,0 0,-268.72022 -574.43801,0 z m 9.32971,5.47175 555.77858,0 0,257.77517 -555.77858,0 0,-257.77517 z"
         style="color:#000000;font-style:normal;font-variant:normal;font-weight:normal;font-stretch:normal;font-size:medium;line-height:normal;font-family:sans-serif;text-indent:0;text-align:start;text-decoration:none;text-decoration-line:none;text-decoration-style:solid;text-decoration-color:#000000;letter-spacing:normal;word-spacing:normal;text-transform:none;direction:ltr;block-progression:tb;writing-mode:lr-tb;baseline-shift:baseline;text-anchor:start;white-space:normal;clip-rule:nonzero;display:inline;overflow:visible;visibility:visible;opacity:1;isolation:auto;mix-blend-mode:normal;color-interpolation:sRGB;color-interpolation-filters:linearRGB;solid-color:#000000;solid-opacity:1;fill:#000000;fill-opacity:1;fill-rule:nonzero;stroke:none;stroke-width:6.98562479;stroke-linecap:butt;stroke-linejoin:miter;stroke-miterlimit:4;stroke-dasharray:none;stroke-dashoffset:0;stroke-opacity:1;color-rendering:auto;image-rendering:auto;shape-rendering:auto;text-rendering:auto;enable-background:accumulate" />
      <path
         inkscape:connector-curvature="0"
         id="path3763-8-7"
         d="m -604.93656,866.6149 c -14.9708,0 -27.1534,12.1826 -27.1534,27.1534 0,14.9707 12.1826,27.1533 27.1534,27.1533 14.9708,0 27.1534,-12.1826 27.1534,-27.1533 0,-14.9708 -12.1826,-27.1534 -27.1534,-27.1534 z m 0,4.7503 c 12.4036,0 22.4031,9.9994 22.4031,22.4031 0,12.4036 -9.9995,22.403 -22.4031,22.403 -12.4036,0 -22.4031,-9.9994 -22.4031,-22.403 0,-12.4037 9.9995,-22.4031 22.4031,-22.4031 z"
         style="color:#000000;font-style:normal;font-variant:normal;font-weight:normal;font-stretch:normal;font-size:medium;line-height:normal;font-family:Sans;-inkscape-font-specification:Sans;text-indent:0;text-align:start;text-decoration:none;text-decoration-line:none;letter-spacing:normal;word-spacing:normal;text-transform:none;direction:ltr;block-progression:tb;writing-mode:lr-tb;baseline-shift:baseline;text-anchor:start;display:inline;overflow:visible;visibility:visible;fill:#000000;fill-opacity:1;fill-rule:nonzero;stroke:none;stroke-width:8;marker:none;enable-background:accumulate" />
      <path
         inkscape:connector-curvature="0"
         id="path3763-87-0"
         d="m -669.52846,866.6149 c -14.9708,0 -27.1533,12.1826 -27.1533,27.1534 0,14.9707 12.1825,27.1533 27.1533,27.1533 14.9708,0 27.1534,-12.1826 27.1534,-27.1533 0,-14.9708 -12.1826,-27.1534 -27.1534,-27.1534 z m 0,4.7503 c 12.4036,0 22.4031,9.9994 22.4031,22.4031 0,12.4036 -9.9995,22.403 -22.4031,22.403 -12.4036,0 -22.403,-9.9994 -22.403,-22.403 0,-12.4037 9.9994,-22.4031 22.403,-22.4031 z"
         style="color:#000000;font-style:normal;font-variant:normal;font-weight:normal;font-stretch:normal;font-size:medium;line-height:normal;font-family:Sans;-inkscape-font-specification:Sans;text-indent:0;text-align:start;text-decoration:none;text-decoration-line:none;letter-spacing:normal;word-spacing:normal;text-transform:none;direction:ltr;block-progression:tb;writing-mode:lr-tb;baseline-shift:baseline;text-anchor:start;display:inline;overflow:visible;visibility:visible;fill:#000000;fill-opacity:1;fill-rule:nonzero;stroke:none;stroke-width:8;marker:none;enable-background:accumulate" />
      <path
         inkscape:connector-curvature="0"
         id="path3763-80-1"
         d="m -411.16106,866.6149 c -14.9708,0 -27.1533,12.1826 -27.1533,27.1534 0,14.9707 12.1825,27.1533 27.1533,27.1533 14.9708,0 27.15336,-12.1826 27.15336,-27.1533 0,-14.9708 -12.18256,-27.1534 -27.15336,-27.1534 z m 0,4.7503 c 12.40362,0 22.40308,9.9994 22.40308,22.4031 0,12.4036 -9.99946,22.403 -22.40308,22.403 -12.4036,0 -22.403,-9.9994 -22.403,-22.403 0,-12.4037 9.9994,-22.4031 22.403,-22.4031 z"
         style="color:#000000;font-style:normal;font-variant:normal;font-weight:normal;font-stretch:normal;font-size:medium;line-height:normal;font-family:Sans;-inkscape-font-specification:Sans;text-indent:0;text-align:start;text-decoration:none;text-decoration-line:none;letter-spacing:normal;word-spacing:normal;text-transform:none;direction:ltr;block-progression:tb;writing-mode:lr-tb;baseline-shift:baseline;text-anchor:start;display:inline;overflow:visible;visibility:visible;fill:#000000;fill-opacity:1;fill-rule:nonzero;stroke:none;stroke-width:8;marker:none;enable-background:accumulate" />
      <path
         inkscape:connector-curvature="0"
         id="path3763-1-8"
         d="m -346.5692,866.6149 c -14.97082,0 -27.15335,12.1826 -27.15335,27.1534 0,14.9707 12.18253,27.1533 27.15335,27.1533 14.97079,0 27.15335,-12.1826 27.15335,-27.1533 0,-14.9708 -12.18256,-27.1534 -27.15335,-27.1534 z m 0,4.7503 c 12.40361,0 22.40307,9.9994 22.40307,22.4031 0,12.4036 -9.99946,22.403 -22.40307,22.403 -12.40361,0 -22.40306,-9.9994 -22.40306,-22.403 0,-12.4037 9.99945,-22.4031 22.40306,-22.4031 z"
         style="color:#000000;font-style:normal;font-variant:normal;font-weight:normal;font-stretch:normal;font-size:medium;line-height:normal;font-family:Sans;-inkscape-font-specification:Sans;text-indent:0;text-align:start;text-decoration:none;text-decoration-line:none;letter-spacing:normal;word-spacing:normal;text-transform:none;direction:ltr;block-progression:tb;writing-mode:lr-tb;baseline-shift:baseline;text-anchor:start;display:inline;overflow:visible;visibility:visible;fill:#000000;fill-opacity:1;fill-rule:nonzero;stroke:none;stroke-width:8;marker:none;enable-background:accumulate" />
      <path
         inkscape:connector-curvature="0"
         id="path3763-0-4"
         d="m -281.97737,866.6149 c -14.97082,0 -27.15335,12.1826 -27.15335,27.1534 0,14.9707 12.18253,27.1533 27.15335,27.1533 14.97079,0 27.15335,-12.1826 27.15335,-27.1533 0,-14.9708 -12.18256,-27.1534 -27.15335,-27.1534 z m 0,4.7503 c 12.40361,0 22.40307,9.9994 22.40307,22.4031 0,12.4036 -9.99946,22.403 -22.40307,22.403 -12.40361,0 -22.40306,-9.9994 -22.40306,-22.403 0,-12.4037 9.99945,-22.4031 22.40306,-22.4031 z"
         style="color:#000000;font-style:normal;font-variant:normal;font-weight:normal;font-stretch:normal;font-size:medium;line-height:normal;font-family:Sans;-inkscape-font-specification:Sans;text-indent:0;text-align:start;text-decoration:none;text-decoration-line:none;letter-spacing:normal;word-spacing:normal;text-transform:none;direction:ltr;block-progression:tb;writing-mode:lr-tb;baseline-shift:baseline;text-anchor:start;display:inline;overflow:visible;visibility:visible;fill:#000000;fill-opacity:1;fill-rule:nonzero;stroke:none;stroke-width:8;marker:none;enable-background:accumulate" />
      <path
         inkscape:connector-curvature="0"
         id="path3763-9-4"
         d="m -540.34466,866.6149 c -14.9708,0 -27.1534,12.1826 -27.1534,27.1534 0,14.9707 12.1826,27.1533 27.1534,27.1533 14.9708,0 27.1533,-12.1826 27.1533,-27.1533 0,-14.9708 -12.1825,-27.1534 -27.1533,-27.1534 z m 0,4.7503 c 12.4036,0 22.403,9.9994 22.403,22.4031 0,12.4036 -9.9994,22.403 -22.403,22.403 -12.4036,0 -22.4031,-9.9994 -22.4031,-22.403 0,-12.4037 9.9995,-22.4031 22.4031,-22.4031 z"
         style="color:#000000;font-style:normal;font-variant:normal;font-weight:normal;font-stretch:normal;font-size:medium;line-height:normal;font-family:Sans;-inkscape-font-specification:Sans;text-indent:0;text-align:start;text-decoration:none;text-decoration-line:none;letter-spacing:normal;word-spacing:normal;text-transform:none;direction:ltr;block-progression:tb;writing-mode:lr-tb;baseline-shift:baseline;text-anchor:start;display:inline;overflow:visible;visibility:visible;fill:#000000;fill-opacity:1;fill-rule:nonzero;stroke:none;stroke-width:8;marker:none;enable-background:accumulate" />
      <path
         inkscape:connector-curvature="0"
         id="path3763-7-6"
         d="m -475.75286,866.6149 c -14.9708,0 -27.1534,12.1826 -27.1534,27.1534 0,14.9707 12.1826,27.1533 27.1534,27.1533 14.9708,0 27.1533,-12.1826 27.1533,-27.1533 0,-14.9708 -12.1825,-27.1534 -27.1533,-27.1534 z m 0,4.7503 c 12.4036,0 22.403,9.9994 22.403,22.4031 0,12.4036 -9.9994,22.403 -22.403,22.403 -12.4036,0 -22.4031,-9.9994 -22.4031,-22.403 0,-12.4037 9.9995,-22.4031 22.4031,-22.4031 z"
         style="color:#000000;font-style:normal;font-variant:normal;font-weight:normal;font-stretch:normal;font-size:medium;line-height:normal;font-family:Sans;-inkscape-font-specification:Sans;text-indent:0;text-align:start;text-decoration:none;text-decoration-line:none;letter-spacing:normal;word-spacing:normal;text-transform:none;direction:ltr;block-progression:tb;writing-mode:lr-tb;baseline-shift:baseline;text-anchor:start;display:inline;overflow:visible;visibility:visible;fill:#000000;fill-opacity:1;fill-rule:nonzero;stroke:none;stroke-width:8;marker:none;enable-background:accumulate" />
      <path
         inkscape:connector-curvature="0"
         id="path3763-90-0"
         d="m -217.38554,866.6149 c -14.97082,0 -27.15335,12.1826 -27.15335,27.1534 0,14.9707 12.18253,27.1533 27.15335,27.1533 14.97079,0 27.15335,-12.1826 27.15335,-27.1533 0,-14.9708 -12.18256,-27.1534 -27.15335,-27.1534 z m 0,4.7503 c 12.40361,0 22.40307,9.9994 22.40307,22.4031 0,12.4036 -9.99946,22.403 -22.40307,22.403 -12.40361,0 -22.40306,-9.9994 -22.40306,-22.403 0,-12.4037 9.99945,-22.4031 22.40306,-22.4031 z"
         style="color:#000000;font-style:normal;font-variant:normal;font-weight:normal;font-stretch:normal;font-size:medium;line-height:normal;font-family:Sans;-inkscape-font-specification:Sans;text-indent:0;text-align:start;text-decoration:none;text-decoration-line:none;letter-spacing:normal;word-spacing:normal;text-transform:none;direction:ltr;block-progression:tb;writing-mode:lr-tb;baseline-shift:baseline;text-anchor:start;display:inline;overflow:visible;visibility:visible;fill:#000000;fill-opacity:1;fill-rule:nonzero;stroke:none;stroke-width:8;marker:none;enable-background:accumulate" />
      <path
         inkscape:connector-curvature="0"
         id="path3763-8-1"
         d="m -604.93659,628.2189 c -14.9708,0 -27.1533,12.1826 -27.1533,27.1534 0,14.9707 12.1825,27.1533 27.1533,27.1533 14.9708,0 27.1534,-12.1826 27.1534,-27.1533 0,-14.9708 -12.1826,-27.1534 -27.1534,-27.1534 z m 0,4.7503 c 12.4036,0 22.4031,9.9994 22.4031,22.4031 0,12.4036 -9.9995,22.403 -22.4031,22.403 -12.4036,0 -22.403,-9.9994 -22.403,-22.403 0,-12.4037 9.9994,-22.4031 22.403,-22.4031 z"
         style="color:#000000;font-style:normal;font-variant:normal;font-weight:normal;font-stretch:normal;font-size:medium;line-height:normal;font-family:Sans;-inkscape-font-specification:Sans;text-indent:0;text-align:start;text-decoration:none;text-decoration-line:none;letter-spacing:normal;word-spacing:normal;text-transform:none;direction:ltr;block-progression:tb;writing-mode:lr-tb;baseline-shift:baseline;text-anchor:start;display:inline;overflow:visible;visibility:visible;fill:#000000;fill-opacity:1;fill-rule:nonzero;stroke:none;stroke-width:8;marker:none;enable-background:accumulate" />
      <path
         inkscape:connector-curvature="0"
         id="path3763-87-3"
         d="m -669.52839,628.2189 c -14.9708,0 -27.1534,12.1826 -27.1534,27.1534 0,14.9707 12.1826,27.1533 27.1534,27.1533 14.9708,0 27.1533,-12.1826 27.1533,-27.1533 0,-14.9708 -12.1825,-27.1534 -27.1533,-27.1534 z m 0,4.7503 c 12.4036,0 22.4031,9.9994 22.4031,22.4031 0,12.4036 -9.9995,22.403 -22.4031,22.403 -12.4036,0 -22.4031,-9.9994 -22.4031,-22.403 0,-12.4037 9.9995,-22.4031 22.4031,-22.4031 z"
         style="color:#000000;font-style:normal;font-variant:normal;font-weight:normal;font-stretch:normal;font-size:medium;line-height:normal;font-family:Sans;-inkscape-font-specification:Sans;text-indent:0;text-align:start;text-decoration:none;text-decoration-line:none;letter-spacing:normal;word-spacing:normal;text-transform:none;direction:ltr;block-progression:tb;writing-mode:lr-tb;baseline-shift:baseline;text-anchor:start;display:inline;overflow:visible;visibility:visible;fill:#000000;fill-opacity:1;fill-rule:nonzero;stroke:none;stroke-width:8;marker:none;enable-background:accumulate" />
      <path
         inkscape:connector-curvature="0"
         id="path3763-80-6"
         d="m -411.16104,628.2189 c -14.97082,0 -27.15335,12.1826 -27.15335,27.1534 0,14.9707 12.18253,27.1533 27.15335,27.1533 14.97079,0 27.15335,-12.1826 27.15335,-27.1533 0,-14.9708 -12.18256,-27.1534 -27.15335,-27.1534 z m 0,4.7503 c 12.40361,0 22.40307,9.9994 22.40307,22.4031 0,12.4036 -9.99946,22.403 -22.40307,22.403 -12.40361,0 -22.40306,-9.9994 -22.40306,-22.403 0,-12.4037 9.99945,-22.4031 22.40306,-22.4031 z"
         style="color:#000000;font-style:normal;font-variant:normal;font-weight:normal;font-stretch:normal;font-size:medium;line-height:normal;font-family:Sans;-inkscape-font-specification:Sans;text-indent:0;text-align:start;text-decoration:none;text-decoration-line:none;letter-spacing:normal;word-spacing:normal;text-transform:none;direction:ltr;block-progression:tb;writing-mode:lr-tb;baseline-shift:baseline;text-anchor:start;display:inline;overflow:visible;visibility:visible;fill:#000000;fill-opacity:1;fill-rule:nonzero;stroke:none;stroke-width:8;marker:none;enable-background:accumulate" />
      <path
         inkscape:connector-curvature="0"
         id="path3763-1-3"
         d="m -346.56919,628.2189 c -14.97082,0 -27.15335,12.1826 -27.15335,27.1534 0,14.9707 12.18253,27.1533 27.15335,27.1533 14.97079,0 27.15335,-12.1826 27.15335,-27.1533 0,-14.9708 -12.18256,-27.1534 -27.15335,-27.1534 z m 0,4.7503 c 12.40361,0 22.40307,9.9994 22.40307,22.4031 0,12.4036 -9.99946,22.403 -22.40307,22.403 -12.40361,0 -22.40306,-9.9994 -22.40306,-22.403 0,-12.4037 9.99945,-22.4031 22.40306,-22.4031 z"
         style="color:#000000;font-style:normal;font-variant:normal;font-weight:normal;font-stretch:normal;font-size:medium;line-height:normal;font-family:Sans;-inkscape-font-specification:Sans;text-indent:0;text-align:start;text-decoration:none;text-decoration-line:none;letter-spacing:normal;word-spacing:normal;text-transform:none;direction:ltr;block-progression:tb;writing-mode:lr-tb;baseline-shift:baseline;text-anchor:start;display:inline;overflow:visible;visibility:visible;fill:#000000;fill-opacity:1;fill-rule:nonzero;stroke:none;stroke-width:8;marker:none;enable-background:accumulate" />
      <path
         inkscape:connector-curvature="0"
         id="path3763-0-2"
         d="m -281.97736,628.2189 c -14.97082,0 -27.15335,12.1826 -27.15335,27.1534 0,14.9707 12.18253,27.1533 27.15335,27.1533 14.97079,0 27.15335,-12.1826 27.15335,-27.1533 0,-14.9708 -12.18256,-27.1534 -27.15335,-27.1534 z m 0,4.7503 c 12.40361,0 22.40307,9.9994 22.40307,22.4031 0,12.4036 -9.99946,22.403 -22.40307,22.403 -12.40361,0 -22.40306,-9.9994 -22.40306,-22.403 0,-12.4037 9.99945,-22.4031 22.40306,-22.4031 z"
         style="color:#000000;font-style:normal;font-variant:normal;font-weight:normal;font-stretch:normal;font-size:medium;line-height:normal;font-family:Sans;-inkscape-font-specification:Sans;text-indent:0;text-align:start;text-decoration:none;text-decoration-line:none;letter-spacing:normal;word-spacing:normal;text-transform:none;direction:ltr;block-progression:tb;writing-mode:lr-tb;baseline-shift:baseline;text-anchor:start;display:inline;overflow:visible;visibility:visible;fill:#000000;fill-opacity:1;fill-rule:nonzero;stroke:none;stroke-width:8;marker:none;enable-background:accumulate" />
      <path
         inkscape:connector-curvature="0"
         id="path3763-9-8"
         d="m -540.34469,628.2189 c -14.9708,0 -27.1533,12.1826 -27.1533,27.1534 0,14.9707 12.1825,27.1533 27.1533,27.1533 14.9708,0 27.1534,-12.1826 27.1534,-27.1533 0,-14.9708 -12.1826,-27.1534 -27.1534,-27.1534 z m 0,4.7503 c 12.4036,0 22.4031,9.9994 22.4031,22.4031 0,12.4036 -9.9995,22.403 -22.4031,22.403 -12.4036,0 -22.4031,-9.9994 -22.4031,-22.403 0,-12.4037 9.9995,-22.4031 22.4031,-22.4031 z"
         style="color:#000000;font-style:normal;font-variant:normal;font-weight:normal;font-stretch:normal;font-size:medium;line-height:normal;font-family:Sans;-inkscape-font-specification:Sans;text-indent:0;text-align:start;text-decoration:none;text-decoration-line:none;letter-spacing:normal;word-spacing:normal;text-transform:none;direction:ltr;block-progression:tb;writing-mode:lr-tb;baseline-shift:baseline;text-anchor:start;display:inline;overflow:visible;visibility:visible;fill:#000000;fill-opacity:1;fill-rule:nonzero;stroke:none;stroke-width:8;marker:none;enable-background:accumulate" />
      <path
         inkscape:connector-curvature="0"
         id="path3763-7-4"
         d="m -475.75288,628.2189 c -14.97081,0 -27.15331,12.1826 -27.15331,27.1534 0,14.9707 12.1825,27.1533 27.15331,27.1533 14.97079,0 27.15335,-12.1826 27.15335,-27.1533 0,-14.9708 -12.18256,-27.1534 -27.15335,-27.1534 z m 0,4.7503 c 12.40361,0 22.40307,9.9994 22.40307,22.4031 0,12.4036 -9.99946,22.403 -22.40307,22.403 -12.40361,0 -22.40311,-9.9994 -22.40311,-22.403 0,-12.4037 9.9995,-22.4031 22.40311,-22.4031 z"
         style="color:#000000;font-style:normal;font-variant:normal;font-weight:normal;font-stretch:normal;font-size:medium;line-height:normal;font-family:Sans;-inkscape-font-specification:Sans;text-indent:0;text-align:start;text-decoration:none;text-decoration-line:none;letter-spacing:normal;word-spacing:normal;text-transform:none;direction:ltr;block-progression:tb;writing-mode:lr-tb;baseline-shift:baseline;text-anchor:start;display:inline;overflow:visible;visibility:visible;fill:#000000;fill-opacity:1;fill-rule:nonzero;stroke:none;stroke-width:8;marker:none;enable-background:accumulate" />
      <path
         inkscape:connector-curvature="0"
         id="path3763-90-1"
         d="m -217.38553,628.2189 c -14.97082,0 -27.15335,12.1826 -27.15335,27.1534 0,14.9707 12.18253,27.1533 27.15335,27.1533 14.97079,0 27.15335,-12.1826 27.15335,-27.1533 0,-14.9708 -12.18256,-27.1534 -27.15335,-27.1534 z m 0,4.7503 c 12.40361,0 22.40307,9.9994 22.40307,22.4031 0,12.4036 -9.99946,22.403 -22.40307,22.403 -12.40361,0 -22.40306,-9.9994 -22.40306,-22.403 0,-12.4037 9.99945,-22.4031 22.40306,-22.4031 z"
         style="color:#000000;font-style:normal;font-variant:normal;font-weight:normal;font-stretch:normal;font-size:medium;line-height:normal;font-family:Sans;-inkscape-font-specification:Sans;text-indent:0;text-align:start;text-decoration:none;text-decoration-line:none;letter-spacing:normal;word-spacing:normal;text-transform:none;direction:ltr;block-progression:tb;writing-mode:lr-tb;baseline-shift:baseline;text-anchor:start;display:inline;overflow:visible;visibility:visible;fill:#000000;fill-opacity:1;fill-rule:nonzero;stroke:none;stroke-width:8;marker:none;enable-background:accumulate" />
      <path
         inkscape:connector-curvature="0"
         id="path5135-56"
         d="m -681.63719,677.49276 c 22.2694,-42.36753 23.5115,-42.15356 23.5115,-42.15356"
         style="fill:none;fill-rule:evenodd;stroke:#000000;stroke-width:5.09088326;stroke-linecap:butt;stroke-linejoin:miter;stroke-miterlimit:4;stroke-dasharray:none;stroke-opacity:1" />
      <path
         inkscape:connector-curvature="0"
         id="path5135-7-3"
         d="m -626.72619,664.02078 c 44.4503,-17.75109 45.2558,-16.78167 45.2558,-16.78167"
         style="fill:none;fill-rule:evenodd;stroke:#000000;stroke-width:5.09088326;stroke-linecap:butt;stroke-linejoin:miter;stroke-miterlimit:4;stroke-dasharray:none;stroke-opacity:1" />
      <path
         inkscape:transform-center-y="-5.7134519"
         inkscape:transform-center-x="-14.125418"
         inkscape:connector-curvature="0"
         id="path5135-1-1"
         d="m -562.69859,644.69719 c 43.0088,21.00438 42.8317,22.25226 42.8317,22.25226"
         style="fill:none;fill-rule:evenodd;stroke:#000000;stroke-width:5.09088326;stroke-linecap:butt;stroke-linejoin:miter;stroke-miterlimit:4;stroke-dasharray:none;stroke-opacity:1" />
      <path
         inkscape:connector-curvature="0"
         id="path5135-0-3"
         d="m -410.00729,630.10675 c -0.81996,47.8567 -2.02544,48.2246 -2.02544,48.2246"
         style="fill:none;fill-rule:evenodd;stroke:#000000;stroke-width:5.09088326;stroke-linecap:butt;stroke-linejoin:miter;stroke-miterlimit:4;stroke-dasharray:none;stroke-opacity:1" />
      <path
         inkscape:transform-center-y="-6.5517275"
         inkscape:transform-center-x="6.5555309"
         inkscape:connector-curvature="0"
         id="path5135-2-1"
         d="m -371.97266,648.16943 c 46.23696,12.37254 46.30232,13.63122 46.30232,13.63122"
         style="fill:none;fill-rule:evenodd;stroke:#000000;stroke-width:5.09088326;stroke-linecap:butt;stroke-linejoin:miter;stroke-miterlimit:4;stroke-dasharray:none;stroke-opacity:1" />
      <path
         inkscape:transform-center-y="-24.714808"
         inkscape:transform-center-x="-2.391877"
         inkscape:connector-curvature="0"
         id="path5135-5-5"
         d="m -284.39686,630.93791 c 5.24545,47.57542 4.09624,48.09298 4.09624,48.09298"
         style="fill:none;fill-rule:evenodd;stroke:#000000;stroke-width:5.09088326;stroke-linecap:butt;stroke-linejoin:miter;stroke-miterlimit:4;stroke-dasharray:none;stroke-opacity:1" />
      <path
         inkscape:connector-curvature="0"
         id="path5135-8-8"
         d="m -234.14235,671.75472 c 34.92206,-32.73204 36.02546,-32.1229 36.02546,-32.1229"
         style="fill:none;fill-rule:evenodd;stroke:#000000;stroke-width:5.09088326;stroke-linecap:butt;stroke-linejoin:miter;stroke-miterlimit:4;stroke-dasharray:none;stroke-opacity:1" />
      <path
         inkscape:connector-curvature="0"
         id="path5135-9-3"
         d="m -488.76709,635.3527 c 24.75669,40.96392 23.93147,41.91658 23.93147,41.91658"
         style="fill:none;fill-rule:evenodd;stroke:#000000;stroke-width:5.09088326;stroke-linecap:butt;stroke-linejoin:miter;stroke-miterlimit:4;stroke-dasharray:none;stroke-opacity:1" />
      <path
         inkscape:connector-curvature="0"
         id="path3763-8-2"
         d="m -602.81472,1111.2494 c -14.97082,0 -27.15335,12.1826 -27.15335,27.1534 0,14.9707 12.18253,27.1533 27.15335,27.1533 14.97079,0 27.15335,-12.1826 27.15335,-27.1533 0,-14.9708 -12.18256,-27.1534 -27.15335,-27.1534 z m 0,4.7503 c 12.40361,0 22.40307,9.9994 22.40307,22.4031 0,12.4036 -9.99946,22.403 -22.40307,22.403 -12.40361,0 -22.40306,-9.9994 -22.40306,-22.403 0,-12.4037 9.99945,-22.4031 22.40306,-22.4031 z"
         style="color:#000000;font-style:normal;font-variant:normal;font-weight:normal;font-stretch:normal;font-size:medium;line-height:normal;font-family:Sans;-inkscape-font-specification:Sans;text-indent:0;text-align:start;text-decoration:none;text-decoration-line:none;letter-spacing:normal;word-spacing:normal;text-transform:none;direction:ltr;block-progression:tb;writing-mode:lr-tb;baseline-shift:baseline;text-anchor:start;display:inline;overflow:visible;visibility:visible;fill:#000000;fill-opacity:1;fill-rule:nonzero;stroke:none;stroke-width:8;marker:none;enable-background:accumulate" />
      <path
         inkscape:connector-curvature="0"
         id="path3763-87-4"
         d="m -667.40657,1111.2494 c -14.97082,0 -27.15335,12.1826 -27.15335,27.1534 0,14.9707 12.18253,27.1533 27.15335,27.1533 14.97079,0 27.15335,-12.1826 27.15335,-27.1533 0,-14.9708 -12.18256,-27.1534 -27.15335,-27.1534 z m 0,4.7503 c 12.40361,0 22.40307,9.9994 22.40307,22.4031 0,12.4036 -9.99946,22.403 -22.40307,22.403 -12.40361,0 -22.40306,-9.9994 -22.40306,-22.403 0,-12.4037 9.99945,-22.4031 22.40306,-22.4031 z"
         style="color:#000000;font-style:normal;font-variant:normal;font-weight:normal;font-stretch:normal;font-size:medium;line-height:normal;font-family:Sans;-inkscape-font-specification:Sans;text-indent:0;text-align:start;text-decoration:none;text-decoration-line:none;letter-spacing:normal;word-spacing:normal;text-transform:none;direction:ltr;block-progression:tb;writing-mode:lr-tb;baseline-shift:baseline;text-anchor:start;display:inline;overflow:visible;visibility:visible;fill:#000000;fill-opacity:1;fill-rule:nonzero;stroke:none;stroke-width:8;marker:none;enable-background:accumulate" />
      <path
         inkscape:connector-curvature="0"
         id="path3763-80-8"
         d="m -409.03921,1111.2494 c -14.97082,0 -27.15335,12.1826 -27.15335,27.1534 0,14.9707 12.18253,27.1533 27.15335,27.1533 14.97079,0 27.15335,-12.1826 27.15335,-27.1533 0,-14.9708 -12.18256,-27.1534 -27.15335,-27.1534 z m 0,4.7503 c 12.40361,0 22.40307,9.9994 22.40307,22.4031 0,12.4036 -9.99946,22.403 -22.40307,22.403 -12.40361,0 -22.40306,-9.9994 -22.40306,-22.403 0,-12.4037 9.99945,-22.4031 22.40306,-22.4031 z"
         style="color:#000000;font-style:normal;font-variant:normal;font-weight:normal;font-stretch:normal;font-size:medium;line-height:normal;font-family:Sans;-inkscape-font-specification:Sans;text-indent:0;text-align:start;text-decoration:none;text-decoration-line:none;letter-spacing:normal;word-spacing:normal;text-transform:none;direction:ltr;block-progression:tb;writing-mode:lr-tb;baseline-shift:baseline;text-anchor:start;display:inline;overflow:visible;visibility:visible;fill:#000000;fill-opacity:1;fill-rule:nonzero;stroke:none;stroke-width:8;marker:none;enable-background:accumulate" />
      <path
         inkscape:connector-curvature="0"
         id="path3763-1-87"
         d="m -344.44736,1111.2494 c -14.97082,0 -27.15335,12.1826 -27.15335,27.1534 0,14.9707 12.18253,27.1533 27.15335,27.1533 14.97079,0 27.15335,-12.1826 27.15335,-27.1533 0,-14.9708 -12.18256,-27.1534 -27.15335,-27.1534 z m 0,4.7503 c 12.40361,0 22.40307,9.9994 22.40307,22.4031 0,12.4036 -9.99946,22.403 -22.40307,22.403 -12.40361,0 -22.40306,-9.9994 -22.40306,-22.403 0,-12.4037 9.99945,-22.4031 22.40306,-22.4031 z"
         style="color:#000000;font-style:normal;font-variant:normal;font-weight:normal;font-stretch:normal;font-size:medium;line-height:normal;font-family:Sans;-inkscape-font-specification:Sans;text-indent:0;text-align:start;text-decoration:none;text-decoration-line:none;letter-spacing:normal;word-spacing:normal;text-transform:none;direction:ltr;block-progression:tb;writing-mode:lr-tb;baseline-shift:baseline;text-anchor:start;display:inline;overflow:visible;visibility:visible;fill:#000000;fill-opacity:1;fill-rule:nonzero;stroke:none;stroke-width:8;marker:none;enable-background:accumulate" />
      <path
         inkscape:connector-curvature="0"
         id="path3763-0-3"
         d="m -279.85553,1111.2494 c -14.97082,0 -27.15335,12.1826 -27.15335,27.1534 0,14.9707 12.18253,27.1533 27.15335,27.1533 14.97079,0 27.15335,-12.1826 27.15335,-27.1533 0,-14.9708 -12.18256,-27.1534 -27.15335,-27.1534 z m 0,4.7503 c 12.40361,0 22.40307,9.9994 22.40307,22.4031 0,12.4036 -9.99946,22.403 -22.40307,22.403 -12.40361,0 -22.40306,-9.9994 -22.40306,-22.403 0,-12.4037 9.99945,-22.4031 22.40306,-22.4031 z"
         style="color:#000000;font-style:normal;font-variant:normal;font-weight:normal;font-stretch:normal;font-size:medium;line-height:normal;font-family:Sans;-inkscape-font-specification:Sans;text-indent:0;text-align:start;text-decoration:none;text-decoration-line:none;letter-spacing:normal;word-spacing:normal;text-transform:none;direction:ltr;block-progression:tb;writing-mode:lr-tb;baseline-shift:baseline;text-anchor:start;display:inline;overflow:visible;visibility:visible;fill:#000000;fill-opacity:1;fill-rule:nonzero;stroke:none;stroke-width:8;marker:none;enable-background:accumulate" />
      <path
         inkscape:connector-curvature="0"
         id="path3763-9-2"
         d="m -538.22285,1111.2494 c -14.97082,0 -27.15335,12.1826 -27.15335,27.1534 0,14.9707 12.18253,27.1533 27.15335,27.1533 14.97079,0 27.15335,-12.1826 27.15335,-27.1533 0,-14.9708 -12.18256,-27.1534 -27.15335,-27.1534 z m 0,4.7503 c 12.40361,0 22.40307,9.9994 22.40307,22.4031 0,12.4036 -9.99946,22.403 -22.40307,22.403 -12.40361,0 -22.40306,-9.9994 -22.40306,-22.403 0,-12.4037 9.99945,-22.4031 22.40306,-22.4031 z"
         style="color:#000000;font-style:normal;font-variant:normal;font-weight:normal;font-stretch:normal;font-size:medium;line-height:normal;font-family:Sans;-inkscape-font-specification:Sans;text-indent:0;text-align:start;text-decoration:none;text-decoration-line:none;letter-spacing:normal;word-spacing:normal;text-transform:none;direction:ltr;block-progression:tb;writing-mode:lr-tb;baseline-shift:baseline;text-anchor:start;display:inline;overflow:visible;visibility:visible;fill:#000000;fill-opacity:1;fill-rule:nonzero;stroke:none;stroke-width:8;marker:none;enable-background:accumulate" />
      <path
         inkscape:connector-curvature="0"
         id="path3763-7-1"
         d="m -473.63105,1111.2494 c -14.97082,0 -27.15335,12.1826 -27.15335,27.1534 0,14.9707 12.18253,27.1533 27.15335,27.1533 14.97079,0 27.15335,-12.1826 27.15335,-27.1533 0,-14.9708 -12.18256,-27.1534 -27.15335,-27.1534 z m 0,4.7503 c 12.40361,0 22.40307,9.9994 22.40307,22.4031 0,12.4036 -9.99946,22.403 -22.40307,22.403 -12.40361,0 -22.40306,-9.9994 -22.40306,-22.403 0,-12.4037 9.99945,-22.4031 22.40306,-22.4031 z"
         style="color:#000000;font-style:normal;font-variant:normal;font-weight:normal;font-stretch:normal;font-size:medium;line-height:normal;font-family:Sans;-inkscape-font-specification:Sans;text-indent:0;text-align:start;text-decoration:none;text-decoration-line:none;letter-spacing:normal;word-spacing:normal;text-transform:none;direction:ltr;block-progression:tb;writing-mode:lr-tb;baseline-shift:baseline;text-anchor:start;display:inline;overflow:visible;visibility:visible;fill:#000000;fill-opacity:1;fill-rule:nonzero;stroke:none;stroke-width:8;marker:none;enable-background:accumulate" />
      <path
         inkscape:connector-curvature="0"
         id="path3763-90-03"
         d="m -215.2637,1111.2494 c -14.97082,0 -27.15335,12.1826 -27.15335,27.1534 0,14.9707 12.18253,27.1533 27.15335,27.1533 14.97079,0 27.15335,-12.1826 27.15335,-27.1533 0,-14.9708 -12.18256,-27.1534 -27.15335,-27.1534 z m 0,4.7503 c 12.40361,0 22.40307,9.9994 22.40307,22.4031 0,12.4036 -9.99946,22.403 -22.40307,22.403 -12.40361,0 -22.40306,-9.9994 -22.40306,-22.403 0,-12.4037 9.99945,-22.4031 22.40306,-22.4031 z"
         style="color:#000000;font-style:normal;font-variant:normal;font-weight:normal;font-stretch:normal;font-size:medium;line-height:normal;font-family:Sans;-inkscape-font-specification:Sans;text-indent:0;text-align:start;text-decoration:none;text-decoration-line:none;letter-spacing:normal;word-spacing:normal;text-transform:none;direction:ltr;block-progression:tb;writing-mode:lr-tb;baseline-shift:baseline;text-anchor:start;display:inline;overflow:visible;visibility:visible;fill:#000000;fill-opacity:1;fill-rule:nonzero;stroke:none;stroke-width:8;marker:none;enable-background:accumulate" />
      <path
         inkscape:connector-curvature="0"
         id="path5135-4"
         d="m -679.51536,1160.5232 c 22.26945,-42.3675 23.51153,-42.1535 23.51153,-42.1535"
         style="fill:none;fill-rule:evenodd;stroke:#000000;stroke-width:5.09088326;stroke-linecap:butt;stroke-linejoin:miter;stroke-miterlimit:4;stroke-dasharray:none;stroke-opacity:1" />
      <path
         inkscape:connector-curvature="0"
         id="path5135-7-4"
         d="m -624.6044,1147.0512 c 44.45036,-17.751 45.25583,-16.7816 45.25583,-16.7816"
         style="fill:none;fill-rule:evenodd;stroke:#000000;stroke-width:5.09088326;stroke-linecap:butt;stroke-linejoin:miter;stroke-miterlimit:4;stroke-dasharray:none;stroke-opacity:1" />
      <path
         inkscape:transform-center-y="-5.7134519"
         inkscape:transform-center-x="-14.125418"
         inkscape:connector-curvature="0"
         id="path5135-1-4"
         d="m -560.57675,1127.7277 c 43.00875,21.0043 42.83167,22.2522 42.83167,22.2522"
         style="fill:none;fill-rule:evenodd;stroke:#000000;stroke-width:5.09088326;stroke-linecap:butt;stroke-linejoin:miter;stroke-miterlimit:4;stroke-dasharray:none;stroke-opacity:1" />
      <path
         inkscape:connector-curvature="0"
         id="path5135-0-4"
         d="m -407.88546,1113.1372 c -0.81996,47.8567 -2.02544,48.2246 -2.02544,48.2246"
         style="fill:none;fill-rule:evenodd;stroke:#000000;stroke-width:5.09088326;stroke-linecap:butt;stroke-linejoin:miter;stroke-miterlimit:4;stroke-dasharray:none;stroke-opacity:1" />
      <path
         inkscape:transform-center-y="-6.5517275"
         inkscape:transform-center-x="6.5555309"
         inkscape:connector-curvature="0"
         id="path5135-2-2"
         d="m -369.85083,1131.1999 c 46.23696,12.3725 46.30232,13.6312 46.30232,13.6312"
         style="fill:none;fill-rule:evenodd;stroke:#000000;stroke-width:5.09088326;stroke-linecap:butt;stroke-linejoin:miter;stroke-miterlimit:4;stroke-dasharray:none;stroke-opacity:1" />
      <path
         inkscape:transform-center-y="-24.714808"
         inkscape:transform-center-x="-2.391877"
         inkscape:connector-curvature="0"
         id="path5135-5-0"
         d="m -282.27503,1113.9684 c 5.24545,47.5754 4.09624,48.093 4.09624,48.093"
         style="fill:none;fill-rule:evenodd;stroke:#000000;stroke-width:5.09088326;stroke-linecap:butt;stroke-linejoin:miter;stroke-miterlimit:4;stroke-dasharray:none;stroke-opacity:1" />
      <path
         inkscape:connector-curvature="0"
         id="path5135-8-4"
         d="m -232.02052,1154.7852 c 34.92206,-32.7321 36.02546,-32.1229 36.02546,-32.1229"
         style="fill:none;fill-rule:evenodd;stroke:#000000;stroke-width:5.09088326;stroke-linecap:butt;stroke-linejoin:miter;stroke-miterlimit:4;stroke-dasharray:none;stroke-opacity:1" />
      <path
         inkscape:connector-curvature="0"
         id="path5135-9-1"
         d="m -486.64525,1118.3832 c 24.75668,40.9639 23.93146,41.9165 23.93146,41.9165"
         style="fill:none;fill-rule:evenodd;stroke:#000000;stroke-width:5.09088326;stroke-linecap:butt;stroke-linejoin:miter;stroke-miterlimit:4;stroke-dasharray:none;stroke-opacity:1" />
      <path
         inkscape:connector-curvature="0"
         id="path6106"
         d="m -677.8749,913.95569 c -8.05858,-3.49056 -13.13198,-11.21805 -13.13198,-20.00179 0,-6.81974 0.95346,-9.42724 5.22697,-14.29449 13.43733,-15.30427 38.20959,-5.66693 38.20959,14.86496 0,4.68624 -4.53307,13.48832 -8.43819,16.38486 -6.38628,4.73689 -15.14615,5.95733 -21.86639,3.04646 z"
         style="opacity:0.89499996;fill:#000000;fill-opacity:0.27645054;fill-rule:nonzero;stroke-width:5.80000019;stroke-miterlimit:4;stroke-dasharray:none" />
      <path
         inkscape:connector-curvature="0"
         id="path6108"
         d="m -613.22514,913.95569 c -8.09799,-3.50764 -13.13198,-11.21272 -13.13198,-20.09999 0,-9.29505 3.91678,-15.51987 12.53043,-19.91422 5.9197,-3.02001 15.25361,-2.23178 21.03636,1.77648 6.15553,4.26664 10.15327,12.31426 9.6112,19.34771 -1.12756,14.63005 -16.93575,24.56871 -30.04601,18.89002 z"
         style="opacity:0.89499996;fill:#000000;fill-opacity:0.27645054;fill-rule:nonzero;stroke-width:5.80000019;stroke-miterlimit:4;stroke-dasharray:none" />
      <path
         inkscape:connector-curvature="0"
         id="path6110"
         d="m -549.13682,913.6609 c -2.25334,-1.02349 -5.74941,-3.79138 -7.76903,-6.15086 -9.02987,-10.54938 -5.98518,-26.06557 6.44198,-32.82928 4.40993,-2.40019 5.9707,-2.71953 11.55403,-2.36401 5.13267,0.32683 7.33925,1.03163 10.76927,3.43981 9.57633,6.72343 12.33788,19.50167 6.31864,29.23756 -5.69976,9.21916 -17.70942,13.02972 -27.31489,8.66678 z"
         style="opacity:0.89499996;fill:#000000;fill-opacity:0.27645054;fill-rule:nonzero;stroke-width:5.80000019;stroke-miterlimit:4;stroke-dasharray:none" />
      <path
         inkscape:connector-curvature="0"
         id="path6112"
         d="m -484.48706,913.6609 c -5.61056,-2.54839 -11.13003,-9.26262 -12.57876,-15.3016 -2.38705,-9.95035 4.2668,-22.12435 13.81459,-25.2754 5.67978,-1.8745 14.62554,-0.78339 19.38148,2.36395 9.74418,6.44839 12.758,19.74379 6.69759,29.54627 -5.69977,9.21916 -17.70943,13.02972 -27.3149,8.66678 z"
         style="opacity:0.89499996;fill:#000000;fill-opacity:0.27645054;fill-rule:nonzero;stroke-width:5.80000019;stroke-miterlimit:4;stroke-dasharray:none" />
      <path
         inkscape:connector-curvature="0"
         id="path6114"
         d="m -419.78092,913.67625 c -5.82389,-2.66007 -10.41945,-7.84588 -12.16976,-13.73283 -1.98825,-6.68723 -1.04826,-12.57448 2.95167,-18.48653 10.43972,-15.4303 34.19512,-11.07409 39.10817,7.17157 4.51832,16.77976 -14.00585,32.30295 -29.89008,25.04779 z"
         style="opacity:0.89499996;fill:#000000;fill-opacity:0.27645054;fill-rule:nonzero;stroke-width:5.80000019;stroke-miterlimit:4;stroke-dasharray:none" />
      <path
         inkscape:connector-curvature="0"
         id="path6116"
         d="m -356.39529,912.97673 c -9.05164,-4.51061 -13.97613,-14.97942 -11.45336,-24.34827 4.91305,-18.24566 28.66845,-22.60187 39.10817,-7.17157 7.76748,11.48065 3.49544,26.41243 -9.21809,32.21936 -5.78745,2.64343 -12.2179,2.39945 -18.43672,-0.69952 z"
         style="opacity:0.89499996;fill:#000000;fill-opacity:0.27645054;fill-rule:nonzero;stroke-width:5.80000019;stroke-miterlimit:4;stroke-dasharray:none" />
      <path
         inkscape:connector-curvature="0"
         id="path6118"
         d="m -292.11822,912.74359 c -19.15117,-10.00469 -13.30557,-38.86261 8.18712,-40.41725 7.56589,-0.54727 12.05276,0.99742 17.08627,5.88228 8.37261,8.12533 8.93657,20.45157 1.3417,29.32447 -7.12089,8.31915 -16.97253,10.24783 -26.61509,5.2105 z"
         style="opacity:0.89499996;fill:#000000;fill-opacity:0.27645054;fill-rule:nonzero;stroke-width:5.80000019;stroke-miterlimit:4;stroke-dasharray:none" />
      <path
         inkscape:connector-curvature="0"
         id="path6120"
         d="m -227.41335,912.78826 c -14.59451,-7.39889 -15.7801,-27.48714 -2.18557,-37.0317 3.43002,-2.40818 5.6366,-3.11298 10.76927,-3.43981 5.58333,-0.35552 7.1441,-0.0362 11.55403,2.36401 12.42716,6.76371 15.47185,22.2799 6.44198,32.82928 -7.11415,8.31129 -16.80208,10.23513 -26.57971,5.27822 z"
         style="opacity:0.89499996;fill:#000000;fill-opacity:0.27645054;fill-rule:nonzero;stroke-width:5.80000019;stroke-miterlimit:4;stroke-dasharray:none" />
    </g>
  </g>
</svg>
