<?xml version="1.0" encoding="UTF-8" standalone="no"?>
<svg
   xmlns:dc="http://purl.org/dc/elements/1.1/"
   xmlns:cc="http://creativecommons.org/ns#"
   xmlns:rdf="http://www.w3.org/1999/02/22-rdf-syntax-ns#"
   xmlns:svg="http://www.w3.org/2000/svg"
   xmlns="http://www.w3.org/2000/svg"
   id="svg8"
   version="1.1"
   viewBox="0 0 123.0775 57.061401"
   height="215.66513"
   width="465.1748">
  <defs
     id="defs2" />
  <metadata
     id="metadata5">
    <rdf:RDF>
      <cc:Work
         rdf:about="">
        <dc:format>image/svg+xml</dc:format>
        <dc:type
           rdf:resource="http://purl.org/dc/dcmitype/StillImage" />
        <dc:title></dc:title>
      </cc:Work>
    </rdf:RDF>
  </metadata>
  <g
     transform="translate(-18.849359,-93.720612)"
     id="layer1">
    <path
       id="ellipse830"
       transform="scale(0.26458333)"
       d="m 151.77539,354.22852 c -3.778,-0.0649 -6.91479,0.23335 -10.4082,0.65429 -3.49342,0.42095 -7.7884,1.01413 -11.34375,1.78711 -3.55535,0.77299 -6.69302,1.76994 -9.61524,3.19531 -2.08089,1.01501 -4.04213,2.2495 -5.41797,3.59571 a 93.417466,68.179965 77.891585 0 0 -32.121089,112.11133 93.417466,68.179965 77.891585 0 0 82.259769,66.40039 l 41.28125,2.27148 264.95507,25.64063 c 0,0 5.72855,-0.0189 8.55469,0 15.92942,-5e-5 30.18214,-6.1505 39.75391,-15.83399 2.54772,-2.17397 5.1521,-4.9778 6.37109,-6.55078 2.21023,-2.85203 4.34828,-6.27354 5.8457,-9.19727 1.49745,-2.92369 2.35156,-5.34532 3.06446,-8.33984 0.71289,-2.99448 1.28329,-6.55822 1.42578,-9.98047 0.14253,-3.42225 -0.1425,-6.70106 -0.85547,-9.69531 -0.71301,-2.99426 -1.8535,-5.70316 -3.56445,-8.69727 -1.71096,-2.9941 -3.99327,-6.27455 -6.48828,-9.19726 -2.49502,-2.92275 -5.20335,-5.48944 -8.48243,-7.98438 -3.27908,-2.49498 -7.12824,-4.91808 -11.76171,-7.19922 -4.63352,-2.28109 -10.05295,-4.42089 -21.17383,-7.05859 -11.12088,-2.63769 -27.94538,-5.77344 -56.7461,-11.04883 -28.80071,-5.27539 -69.58165,-12.69074 -94.67382,-17.32422 -25.09218,-4.63351 -34.50348,-6.48747 -41.56055,-8.12695 -7.05708,-1.63952 -11.76289,-3.06451 -16.9668,-4.77539 -5.20391,-1.71084 -10.9063,-3.70806 -16.18164,-6.06055 -5.27534,-2.35245 -10.12306,-5.06059 -15.11328,-8.19726 -4.99022,-3.13671 -10.12394,-6.70211 -14.33008,-10.05274 -4.20614,-3.35066 -7.48527,-6.48721 -10.55078,-9.69531 -3.06552,-3.2081 -5.91802,-6.48736 -9.05469,-9.69531 -3.13666,-3.20795 -6.55773,-6.34383 -10.62109,-9.62305 -4.06336,-3.2792 -8.7698,-6.70133 -13.18945,-9.55273 -4.41966,-2.8514 -8.5551,-5.13302 -11.83399,-6.84375 -3.27889,-1.71073 -5.70162,-2.85259 -9.26562,-3.63672 -3.56401,-0.78414 -8.41341,-1.22417 -12.19141,-1.28906 z m 323.43945,140.99609 a 29.371683,25.04243 0 0 1 29.3711,25.04297 29.371683,25.04243 0 0 1 -5.1836,14.20117 c -4.89015,6.64332 -13.31887,11.03513 -22.90429,11.03516 -1.77906,-10e-6 -3.51672,-0.15665 -5.20117,-0.44532 a 29.371683,25.04243 0 0 1 -25.45313,-24.79101 29.371683,25.04243 0 0 1 29.37109,-25.04297 z"
       style="opacity:1;fill:#000000;fill-opacity:1;fill-rule:evenodd;stroke:none;stroke-width:8.77241611;stroke-linecap:round;stroke-linejoin:miter;stroke-miterlimit:4;stroke-dasharray:none;stroke-opacity:1" />
    <ellipse
       style="opacity:1;fill:#808080;fill-opacity:1;fill-rule:evenodd;stroke:none;stroke-width:2.00024676;stroke-linecap:round;stroke-linejoin:miter;stroke-miterlimit:4;stroke-dasharray:none;stroke-opacity:1"
       id="ellipse828"
       cx="-7.013577"
       cy="125.78204"
       rx="16.613775"
       ry="19.931738"
       transform="matrix(0.94808788,-0.31800846,0.33898421,0.94079206,0,0)" />
    <ellipse
       transform="rotate(-19.169832)"
       ry="17.315289"
       rx="14.033305"
       cy="126.08815"
       cx="-8.608304"
       id="path826"
       style="opacity:1;fill:#cccccc;fill-opacity:1;fill-rule:evenodd;stroke:none;stroke-width:2;stroke-linecap:round;stroke-linejoin:miter;stroke-miterlimit:4;stroke-dasharray:none;stroke-opacity:1" />
    <path
       id="rect837"
       d="m 62.950991,120.03811 48.942779,7.5631 -3.79527,17.96117 -48.691339,-7.01665 z"
       style="opacity:0.494;fill:none;fill-opacity:1;fill-rule:evenodd;stroke:#cccccc;stroke-width:2;stroke-linecap:round;stroke-linejoin:miter;stroke-miterlimit:4;stroke-dasharray:none;stroke-opacity:1" />
    <path
       id="ellipse840"
       d="m 124.89264,129.60139 a 8.7332181,8.1536293 0 0 0 -8.7328,8.15402 8.7332181,8.1536293 0 0 0 8.7328,8.15351 8.7332181,8.1536293 0 0 0 8.73331,-8.15351 8.7332181,8.1536293 0 0 0 -8.73331,-8.15402 z m 0.81545,1.47433 a 7.7712577,6.6258095 0 0 1 7.7711,6.62595 7.7712577,6.6258095 0 0 1 -7.7711,6.62595 7.7712577,6.6258095 0 0 1 -7.7711,-6.62595 7.7712577,6.6258095 0 0 1 7.7711,-6.62595 z"
       style="opacity:1;fill:#666666;fill-opacity:1;fill-rule:evenodd;stroke:none;stroke-width:7.41931248;stroke-linecap:round;stroke-linejoin:miter;stroke-miterlimit:4;stroke-dasharray:none;stroke-opacity:1" />
    <path
       id="ellipse842"
       d="m 132.08909,133.93343 a 7.7712577,6.6258095 0 0 1 1.3901,3.76824 7.7712577,6.6258095 0 0 1 -7.77111,6.62595 7.7712577,6.6258095 0 0 1 -7.7711,-6.62595 7.7712577,6.6258095 0 0 1 0.56638,-2.47013 8.3088236,7.9555786 0 0 0 -1.04232,3.85351 8.3088236,7.9555786 0 0 0 8.30906,7.95559 8.3088236,7.9555786 0 0 0 8.30853,-7.95559 8.3088236,7.9555786 0 0 0 -1.98954,-5.15162 z"
       style="opacity:1;fill:#e6e6e6;fill-opacity:1;fill-rule:evenodd;stroke:none;stroke-width:7.14836454;stroke-linecap:round;stroke-linejoin:miter;stroke-miterlimit:4;stroke-dasharray:none;stroke-opacity:1" />
  </g>
</svg>
