<?xml version="1.0" encoding="UTF-8" standalone="no"?>
<!-- Created with Inkscape (http://www.inkscape.org/) -->

<svg
   xmlns:dc="http://purl.org/dc/elements/1.1/"
   xmlns:cc="http://creativecommons.org/ns#"
   xmlns:rdf="http://www.w3.org/1999/02/22-rdf-syntax-ns#"
   xmlns:svg="http://www.w3.org/2000/svg"
   xmlns="http://www.w3.org/2000/svg"
   version="1.1"
   width="585"
   height="585"
   viewBox="0 0 468 468"
   id="svg2">
  <title
     id="title3840">Fisch-Icon</title>
  <metadata
     id="metadata8">
    <rdf:RDF>
      <cc:Work
         rdf:about="">
        <dc:format>image/svg+xml</dc:format>
        <dc:type
           rdf:resource="http://purl.org/dc/dcmitype/StillImage" />
        <dc:title>Fisch-Icon</dc:title>
        <dc:creator>
          <cc:Agent>
            <dc:title></dc:title>
          </cc:Agent>
        </dc:creator>
      </cc:Work>
    </rdf:RDF>
  </metadata>
  <defs
     id="defs6" />
  <path
     d="M 40.238173,70.702329 C 17.121375,106.60391 3.7055491,149.35299 3.7055491,195.22809 c 0,68.92895 30.2994449,130.77546 78.2881659,172.98023 l 0,29.08935 304.040345,0 0,-29.08935 c 47.97837,-42.20468 78.26039,-104.05365 78.26039,-172.98023 0,-45.8751 -13.41582,-88.62418 -36.53263,-124.525761 l -387.523647,0 z m 8.806725,8.279491 369.910202,0 c 15.36365,23.85422 26.21203,50.88385 31.39305,79.87764 l -432.696306,0 C 22.832861,129.86567 33.681261,102.83604 49.044898,78.98182 z M 132.0837,180.11386 c 4.26085,0 7.69546,3.43486 7.69546,7.69603 0,4.26117 -3.43461,7.72382 -7.69546,7.72382 -4.26085,0 -7.72325,-3.46265 -7.72325,-7.72382 0,-4.26117 3.4624,-7.69603 7.72325,-7.69603 z m 0,1.80593 c -3.24707,0 -5.88968,2.64279 -5.88968,5.8901 0,3.2473 2.64261,5.89011 5.88968,5.89011 3.24706,0 5.86189,-2.64281 5.86189,-5.89011 0,-3.24731 -2.61483,-5.8901 -5.86189,-5.8901 z m 22.03069,11.94691 c 4.26086,0 7.69547,3.46264 7.69547,7.72382 0,4.26117 -3.43461,7.72382 -7.69547,7.72382 -4.26085,0 -7.72324,-3.46265 -7.72324,-7.72382 0,-4.26118 3.46239,-7.72382 7.72324,-7.72382 z m 0,1.83371 c -3.24707,0 -5.88966,2.6428 -5.88966,5.89011 0,3.2473 2.64259,5.86232 5.88966,5.86232 3.24707,0 5.88968,-2.61502 5.88968,-5.86232 0,-3.24731 -2.64261,-5.89011 -5.88968,-5.89011 z m -14.58526,26.28322 c 6.23928,0 11.27928,5.04035 11.27928,11.28011 0,6.23974 -5.04,11.30789 -11.27928,11.30789 -6.23929,0 -11.30706,-5.06815 -11.30706,-11.30789 0,-6.23976 5.06777,-11.28011 11.30706,-11.28011 z m 0,2.66721 c -4.75477,0 -8.61226,3.85778 -8.61226,8.6129 0,4.75511 3.85749,8.61289 8.61226,8.61289 4.75476,0 8.61226,-3.85778 8.61226,-8.61289 0,-4.75512 -3.8575,-8.6129 -8.61226,-8.6129 z m 86.28922,13.3361 c 8.11044,-3.7e-4 16.49721,0.52666 25.05889,1.63922 41.8567,5.43916 76.34416,23.26548 91.17876,44.59256 11.44912,-8.56838 27.88774,-14.67907 47.14515,-17.47583 l -17.64123,30.97862 9.25123,33.70142 c -18.59221,-8.20439 -33.15904,-19.06847 -41.50551,-31.06198 -20.44082,15.31654 -56.79063,22.74985 -96.73506,17.55919 -47.67299,-6.19497 -85.77573,-28.50342 -96.17943,-53.70556 14.52091,-16.23023 44.28198,-26.22601 79.4272,-26.22764 z m -42.3945,19.61517 c -2.92642,0.21441 -5.41383,2.48017 -5.80633,5.50114 -0.44859,3.45253 1.98772,6.57994 5.44517,7.02923 3.45738,0.44928 6.63568,-1.96526 7.08426,-5.41779 0.44858,-3.45253 -1.98779,-6.60773 -5.44516,-7.05701 -0.43219,-0.0562 -0.85989,-0.0862 -1.27794,-0.0555 z"
     id="path2989"
     style="color:#000000;fill:#000000;fill-opacity:1;fill-rule:nonzero;stroke:#000000;stroke-width:0.74959999;stroke-linecap:butt;stroke-linejoin:miter;stroke-miterlimit:4;stroke-opacity:1;stroke-dasharray:none;stroke-dashoffset:0;marker:none;visibility:visible;display:inline;overflow:visible;enable-background:accumulate" />
</svg>
