<?xml version="1.0" encoding="UTF-8" standalone="no"?>
<svg
   xmlns:dc="http://purl.org/dc/elements/1.1/"
   xmlns:cc="http://creativecommons.org/ns#"
   xmlns:rdf="http://www.w3.org/1999/02/22-rdf-syntax-ns#"
   xmlns:svg="http://www.w3.org/2000/svg"
   xmlns="http://www.w3.org/2000/svg"
   id="svg8"
   preserveAspectRatio="xMidYMid"
   version="1.1"
   viewBox="0 0 256 261"
   height="261px"
   width="256px">
  <title
     id="title2">InfluxDB</title>
  <path
     id="path4"
     d="M 91.255859 0.001953125 C 90.31503 -0.021160615 89.379032 0.14283466 88.501953 0.484375 C 87.624874 0.82591351 86.824029 1.3388566 86.146484 1.9921875 L 2.2070312 79.681641 L 1.8808594 80.011719 C 0.73244339 81.257182 0.06352207 82.876954 0.00390625 84.580078 C -0.0611291 86.437802 0.60563254 88.246331 1.859375 89.619141 L 43.828125 135.01172 L 44.162109 135.34375 C 45.42002 136.51374 47.061679 137.19421 48.789062 137.25391 C 50.673483 137.31904 52.507571 136.63875 53.892578 135.35938 L 137.80664 57.544922 L 138.13477 57.216797 C 139.29331 55.976307 139.9694 54.354937 140.0293 52.648438 C 140.09443 50.786572 139.42227 48.974248 138.15625 47.607422 L 96.259766 2.2402344 L 95.857422 1.8457031 C 95.30174 1.3412255 94.669724 0.92649169 93.982422 0.61914062 C 93.123294 0.23494951 92.196918 0.025066805 91.255859 0.001953125 z M 110.42578 1.6679688 C 108.93551 1.8381132 109.18663 3.188892 111.44336 5.4453125 L 146.48047 43.134766 L 147.01562 43.609375 C 148.47596 44.835576 150.1827 45.741175 152.02344 46.259766 C 154.09428 46.843412 156.27515 46.922444 158.38281 46.490234 L 208.67578 35.085938 L 209.03516 34.978516 C 212.37556 33.926511 212.252 32.26982 208.55273 31.285156 L 112.83398 1.9921875 L 112.48633 1.9023438 C 111.61277 1.6863088 110.92254 1.6112538 110.42578 1.6679688 z M 222.76758 40.396484 C 222.30122 40.418697 221.83465 40.486894 221.375 40.601562 L 161.04102 54.439453 L 160.58984 54.572266 C 158.95749 55.107717 157.56712 56.215975 156.68359 57.701172 C 155.71975 59.321387 155.43838 61.257443 155.89844 63.085938 L 181.49219 174.41602 L 181.62305 174.86914 C 182.15474 176.51152 183.26365 177.9123 184.75391 178.80469 C 186.37965 179.7782 188.32544 180.06805 190.16406 179.60938 L 250.52344 165.76953 L 251.07422 165.63477 C 251.80015 165.42366 252.48695 165.09213 253.10742 164.6543 C 253.88301 164.10679 254.53749 163.40513 255.02539 162.5918 C 255.5133 161.77847 255.82564 160.87097 255.94531 159.92969 C 256.06499 158.9884 255.98641 158.03258 255.71484 157.12305 L 230.04688 45.792969 L 229.91602 45.339844 C 229.38451 43.697465 228.27542 42.296681 226.78516 41.404297 C 225.56585 40.674165 224.16666 40.329847 222.76758 40.396484 z M 144.31641 64.169922 C 143.33575 64.22031 142.28698 64.719041 141.28711 65.71875 L 62.216797 139.16211 L 61.941406 139.44727 C 59.485464 142.13019 60.260763 145.06087 63.931641 146.06836 L 167.2793 177.86914 L 167.64453 177.96094 C 171.25745 178.77808 173.48207 176.72338 172.49609 172.90039 L 148.21875 67.806641 L 148.10742 67.435547 C 147.39455 65.250713 145.95083 64.085942 144.31641 64.169922 z M 1.1445312 102.51367 C 0.18684493 102.47037 -0.20953599 103.66958 0.46679688 105.96875 L 22.681641 203.23633 L 22.755859 203.60352 C 23.496907 207.03313 25.199887 206.91091 26.136719 203.23633 L 41.392578 154.14258 L 41.548828 153.44141 C 41.912426 151.56561 41.880793 149.63182 41.455078 147.76367 C 40.975918 145.66222 40.010108 143.703 38.634766 142.04297 L 3.5976562 104.22852 L 3.3632812 103.96289 C 2.4949534 103.01126 1.7191432 102.53965 1.1445312 102.51367 z M 56.5 153.39258 C 55.195945 153.34905 53.892309 153.6549 52.730469 154.29492 C 51.040521 155.22585 49.788544 156.78739 49.246094 158.63867 L 31.005859 217.29883 L 30.876953 217.80273 C 30.507587 219.49089 30.753163 221.26167 31.578125 222.79297 C 32.485814 224.47762 34.020998 225.73556 35.851562 226.29297 L 145.43555 260.1543 L 145.94727 260.23438 C 147.65711 260.44063 149.39426 260.09037 150.89648 259.23047 C 152.54891 258.28457 153.81101 256.7788 154.45703 254.98828 L 172.82031 196.20508 L 172.95703 195.65039 C 173.1108 194.90484 173.1474 194.13784 173.0625 193.37891 C 172.9564 192.43049 172.66307 191.51121 172.20117 190.67578 C 171.7395 189.84013 171.11768 189.10446 170.37109 188.50977 C 169.62428 187.91507 168.76742 187.474 167.84961 187.21094 L 58.265625 153.66992 L 57.798828 153.55273 C 57.369237 153.45993 56.934685 153.40709 56.5 153.39258 z M 242.96289 177.04297 C 242.41759 177.05066 241.69773 177.20124 240.80664 177.52148 L 190.51172 188.94922 L 189.82422 189.14062 C 188.00967 189.69826 186.34097 190.65414 184.93945 191.94336 C 183.36296 193.39372 182.1771 195.21841 181.49219 197.24805 L 166.23438 246.3418 L 166.14062 246.70117 C 165.28179 250.20715 166.67188 251.09698 169.36523 248.4043 L 242.54688 180.65234 L 242.79492 180.39453 L 243.02344 180.14258 C 244.65958 178.28544 244.59881 177.01989 242.96289 177.04297 z "
     style="fill:#000000;stroke:none" />
</svg>
