<svg xmlns="http://www.w3.org/2000/svg" xmlns:xlink="http://www.w3.org/1999/xlink" width="250px" height="250px" viewBox="0 0 250 250" version="1.1" fill="#000000">
  <g id="surface740315">
    <path style=" stroke:none;fill-rule:nonzero;fill:#000000;fill-opacity:1;" d="M 45 20 C 31.273438 20 20 31.273438 20 45 L 20 205 C 20 218.726562 31.273438 230 45 230 L 205 230 C 218.726562 230 230 218.726562 230 205 L 230 45 C 230 31.273438 218.726562 20 205 20 Z M 45 30 L 205 30 C 207.308594 30 209.46875 30.566406 211.425781 31.503906 L 31.503906 211.425781 C 30.566406 209.46875 30 207.308594 30 205 L 30 45 C 30 36.726562 36.726562 30 45 30 Z M 218.496094 38.574219 C 219.433594 40.53125 220 42.691406 220 45 L 220 205 C 220 213.273438 213.273438 220 205 220 L 45 220 C 42.691406 220 40.53125 219.433594 38.574219 218.496094 Z M 69.960938 55.15625 C 68.933594 55.128906 67.921875 55.160156 66.945312 55.242188 C 64.332031 55.46875 61.898438 56.058594 59.738281 56.902344 C 51.082031 60.289062 46.054688 66.933594 46.054688 66.933594 L 53.945312 73.066406 C 53.945312 73.066406 57.667969 68.460938 63.386719 66.222656 C 69.109375 63.980469 76.261719 63.332031 86.464844 73.535156 C 98.761719 85.832031 111.609375 86.480469 120.261719 83.097656 C 128.917969 79.710938 133.945312 73.066406 133.945312 73.066406 L 126.054688 66.933594 C 126.054688 66.933594 122.332031 71.539062 116.613281 73.777344 C 110.890625 76.019531 103.738281 76.667969 93.535156 66.464844 C 85.464844 58.394531 77.164062 55.34375 69.960938 55.15625 Z M 125 160 L 125 170 L 195 170 L 195 160 Z M 125 180 L 125 190 L 155 190 L 155 180 Z M 165 180 L 165 190 L 195 190 L 195 180 Z M 165 180 "/>
  </g>
</svg>
