<?xml version="1.0" encoding="UTF-8" standalone="no"?>
<!-- Created with Inkscape (http://www.inkscape.org/) -->

<svg
   xmlns:dc="http://purl.org/dc/elements/1.1/"
   xmlns:cc="http://creativecommons.org/ns#"
   xmlns:rdf="http://www.w3.org/1999/02/22-rdf-syntax-ns#"
   xmlns:svg="http://www.w3.org/2000/svg"
   xmlns="http://www.w3.org/2000/svg"
   version="1.1"
   width="29"
   height="29"
   id="svg2">
  <defs
     id="defs4" />
  <metadata
     id="metadata7">
    <rdf:RDF>
      <cc:Work
         rdf:about="">
        <dc:format>image/svg+xml</dc:format>
        <dc:type
           rdf:resource="http://purl.org/dc/dcmitype/StillImage" />
        <dc:title></dc:title>
      </cc:Work>
    </rdf:RDF>
  </metadata>
  <g
     transform="translate(0,-1023.3622)"
     id="layer1"
     style="fill:#000000">
    <path
       d="m 23.94969,1027.1811 c 0.31559,0.5466 0.1296,1.2407 -0.41702,1.5563 l -9.07747,5.2409 c -0.54662,0.3156 -1.24075,0.1296 -1.55634,-0.417 -0.31559,-0.5467 -0.1296,-1.2408 0.41702,-1.5564 l 9.07747,-5.2409 c 0.54662,-0.3156 1.24075,-0.1296 1.55634,0.4171 z m 10e-6,21.3622 c -0.31559,0.5467 -1.00972,0.7326 -1.55634,0.4171 l -9.07746,-5.2409 c -0.54662,-0.3156 -0.73262,-1.0097 -0.41703,-1.5564 0.3156,-0.5466 1.00973,-0.7326 1.55634,-0.417 l 9.07747,5.2409 c 0.54662,0.3156 0.73261,1.0097 0.41702,1.5563 z m 2.862,-10.6811 c 0,0.6312 -0.50814,1.1393 -1.13932,1.1393 l -10.48176,0 c -0.63118,0 -1.13932,-0.5081 -1.13932,-1.1393 0,-0.6312 0.50814,-1.1393 1.13932,-1.1393 l 10.48176,0 c 0.63118,0 1.13932,0.5081 1.13932,1.1393 z m -16.25936,0.1645 c 1e-5,-3.3954 -2.32542,-6.1618 -5.20384,-6.2107 l 0,-6.8787 c -2e-5,-0.054 0.006,-0.1165 -10e-6,-0.1695 -0.0828,-0.7941 -0.77224,-1.4056 -1.61498,-1.4056 l -1.54521,0 0,29 1.54521,0 c 0.89892,0 1.61498,-0.6948 1.61499,-1.5651 l -10e-6,-6.5697 c 2.87843,-0.049 5.20386,-2.8053 5.20385,-6.2007 z"
       id="IR"
       style="fill:#000000;fill-opacity:1;stroke:none">
      <title
         id="title3786">IR-Icon</title>
    </path>
  </g>
</svg>
