<?xml version="1.0" encoding="UTF-8" standalone="no"?>
<!-- Created with Inkscape (http://www.inkscape.org/) -->

<svg
   xmlns:dc="http://purl.org/dc/elements/1.1/"
   xmlns:cc="http://creativecommons.org/ns#"
   xmlns:rdf="http://www.w3.org/1999/02/22-rdf-syntax-ns#"
   xmlns:svg="http://www.w3.org/2000/svg"
   xmlns="http://www.w3.org/2000/svg"
   xmlns:sodipodi="http://sodipodi.sourceforge.net/DTD/sodipodi-0.dtd"
   xmlns:inkscape="http://www.inkscape.org/namespaces/inkscape"
   version="1.0"
   width="469pt"
   height="469pt"
   viewBox="0 0 469 469"
   id="svg2"
   inkscape:version="0.48.4 r9939"
   sodipodi:docname="hue_bridge.svg">
  <sodipodi:namedview
     pagecolor="#ffffff"
     bordercolor="#666666"
     borderopacity="1"
     objecttolerance="10"
     gridtolerance="10"
     guidetolerance="10"
     inkscape:pageopacity="0"
     inkscape:pageshadow="2"
     inkscape:window-width="1618"
     inkscape:window-height="1027"
     id="namedview9"
     showgrid="false"
     inkscape:zoom="2.56"
     inkscape:cx="66.730215"
     inkscape:cy="446.26716"
     inkscape:window-x="54"
     inkscape:window-y="-8"
     inkscape:window-maximized="1"
     inkscape:current-layer="svg2"
     inkscape:snap-grids="true"
     inkscape:snap-to-guides="false" />
  <defs
     id="defs12" />
  <metadata
     id="metadata4">
Created by potrace 1.8, written by Peter Selinger 2001-2007
<rdf:RDF>
  <cc:Work
     rdf:about="">
    <dc:format>image/svg+xml</dc:format>
    <dc:type
       rdf:resource="http://purl.org/dc/dcmitype/StillImage" />
    <dc:title></dc:title>
  </cc:Work>
</rdf:RDF>
</metadata>
  <path
     style="font-size:medium;font-style:normal;font-variant:normal;font-weight:normal;font-stretch:normal;text-indent:0;text-align:start;text-decoration:none;line-height:normal;letter-spacing:normal;word-spacing:normal;text-transform:none;direction:ltr;block-progression:tb;writing-mode:lr-tb;text-anchor:start;baseline-shift:baseline;color:#000000;fill:#000000;fill-opacity:1;stroke:none;stroke-width:5;marker:none;visibility:visible;display:inline;overflow:visible;enable-background:accumulate;font-family:Sans;-inkscape-font-specification:Sans"
     d="m 236.23031,5.037598 c -123.68292,0 -224.009113,100.326192 -224.009113,224.009112 0,123.68291 100.326193,224.00911 224.009113,224.00911 123.68291,0 224.00911,-100.3262 224.00911,-224.00911 0,-123.68292 -100.3262,-224.009112 -224.00911,-224.009112 z m 0,5.50053 c 120.71019,0 218.50858,97.798382 218.50858,218.508582 0,120.71019 -97.79839,218.50858 -218.50858,218.50858 -120.7102,0 -218.508583,-97.79839 -218.508583,-218.50858 0,-120.7102 97.798383,-218.508582 218.508583,-218.508582 z"
     id="path3761"
     inkscape:connector-curvature="0" />
  <path
     style="font-size:medium;font-style:normal;font-variant:normal;font-weight:normal;font-stretch:normal;text-indent:0;text-align:start;text-decoration:none;line-height:normal;letter-spacing:normal;word-spacing:normal;text-transform:none;direction:ltr;block-progression:tb;writing-mode:lr-tb;text-anchor:start;baseline-shift:baseline;color:#000000;fill:#000000;fill-opacity:1;stroke:none;stroke-width:0.80000001;marker:none;visibility:visible;display:inline;overflow:visible;enable-background:accumulate;font-family:Sans;-inkscape-font-specification:Sans"
     d="m 233.89364,158.475 c -36.20207,0 -65.59364,29.39157 -65.59364,65.59364 0,36.20208 29.39157,65.59365 65.59364,65.59365 36.20208,0 65.59365,-29.39157 65.59365,-65.59365 0,-36.20207 -29.39157,-65.59364 -65.59365,-65.59364 z m 0,4.06153 c 34.00707,0 61.53212,27.52505 61.53212,61.53211 0,34.00707 -27.52505,61.53212 -61.53212,61.53212 -34.00706,0 -61.53211,-27.52505 -61.53211,-61.53212 0,-34.00706 27.52505,-61.53211 61.53211,-61.53211 z"
     id="path3763"
     inkscape:connector-curvature="0" />
  <g
     id="g3073"
     transform="matrix(0.69670748,0,0,0.69670748,75.286671,-6.6736686)">
    <path
       inkscape:connector-curvature="0"
       id="path4048"
       d="m 229.75427,110.68165 c -9.48508,0 -17.2,7.71492 -17.2,17.2 0,9.48509 7.71492,17.2 17.2,17.2 9.48509,0 17.2,-7.71491 17.2,-17.2 0,-9.48508 -7.71491,-17.2 -17.2,-17.2 z m 0,2.4 c 8.18803,0 14.8,6.61198 14.8,14.8 0,8.18803 -6.61197,14.8 -14.8,14.8 -8.18803,0 -14.8,-6.61197 -14.8,-14.8 0,-8.18802 6.61197,-14.8 14.8,-14.8 z"
       style="font-size:medium;font-style:normal;font-variant:normal;font-weight:normal;font-stretch:normal;text-indent:0;text-align:start;text-decoration:none;line-height:normal;letter-spacing:normal;word-spacing:normal;text-transform:none;direction:ltr;block-progression:tb;writing-mode:lr-tb;text-anchor:start;baseline-shift:baseline;color:#000000;fill:#000000;fill-opacity:1;stroke:none;stroke-width:3;marker:none;visibility:visible;display:inline;overflow:visible;enable-background:accumulate;font-family:Sans;-inkscape-font-specification:Sans" />
    <path
       inkscape:connector-curvature="0"
       id="path5512-1"
       d="m 229.68301,132.65665 c -4.31876,0 -8.62526,0.63265 -12.20496,1.925 a 1.6621177,1.60016 0 1 0 1.14259,3 c 6.1362,-2.2153 15.98853,-2.2153 22.12473,0 a 1.6621177,1.60016 0 1 0 1.14259,-3 c -3.5797,-1.29235 -7.8862,-1.925 -12.20495,-1.925 z"
       style="font-size:medium;font-style:normal;font-variant:normal;font-weight:normal;font-stretch:normal;text-indent:0;text-align:start;text-decoration:none;line-height:normal;letter-spacing:normal;word-spacing:normal;text-transform:none;direction:ltr;block-progression:tb;writing-mode:lr-tb;text-anchor:start;baseline-shift:baseline;color:#000000;fill:#000000;fill-opacity:1;stroke:none;stroke-width:4;marker:none;visibility:visible;display:inline;overflow:visible;enable-background:accumulate;font-family:Sans;-inkscape-font-specification:Sans" />
    <path
       inkscape:connector-curvature="0"
       id="path5516-7"
       d="m 214.71998,126.28165 0,3.2 31.3514,0 0,-3.2 -31.3514,0 z"
       style="font-size:medium;font-style:normal;font-variant:normal;font-weight:normal;font-stretch:normal;text-indent:0;text-align:start;text-decoration:none;line-height:normal;letter-spacing:normal;word-spacing:normal;text-transform:none;direction:ltr;block-progression:tb;writing-mode:lr-tb;text-anchor:start;baseline-shift:baseline;color:#000000;fill:#000000;fill-opacity:1;stroke:none;stroke-width:4;marker:none;visibility:visible;display:inline;overflow:visible;enable-background:accumulate;font-family:Sans;-inkscape-font-specification:Sans" />
    <path
       inkscape:connector-curvature="0"
       id="path5520-4"
       d="m 226.45427,111.82418 a 1.60016,1.7368371 0 0 0 -1.35,1.00401 c -4.22304,9.57896 -4.22305,21.35976 0.025,30.58156 a 1.60016,1.7368371 0 1 0 2.85,-1.57385 c -3.75194,-8.14484 -3.75195,-18.94815 0.025,-27.51527 a 1.60016,1.7368371 0 0 0 -1.55,-2.49645 z"
       style="font-size:medium;font-style:normal;font-variant:normal;font-weight:normal;font-stretch:normal;text-indent:0;text-align:start;text-decoration:none;line-height:normal;letter-spacing:normal;word-spacing:normal;text-transform:none;direction:ltr;block-progression:tb;writing-mode:lr-tb;text-anchor:start;baseline-shift:baseline;color:#000000;fill:#000000;fill-opacity:1;stroke:none;stroke-width:4;marker:none;visibility:visible;display:inline;overflow:visible;enable-background:accumulate;font-family:Sans;-inkscape-font-specification:Sans" />
    <path
       inkscape:connector-curvature="0"
       id="path6250-0"
       d="m 217.81353,118.08165 a 1.6622558,1.60016 0 0 0 -0.33761,3.1 c 7.16001,2.5847 17.25194,2.5847 24.41194,0 a 1.6622558,1.60016 0 1 0 -1.14268,-3 c -6.13671,2.2153 -15.98986,2.2153 -22.12657,0 a 1.6622558,1.60016 0 0 0 -0.80508,-0.1 z"
       style="font-size:medium;font-style:normal;font-variant:normal;font-weight:normal;font-stretch:normal;text-indent:0;text-align:start;text-decoration:none;line-height:normal;letter-spacing:normal;word-spacing:normal;text-transform:none;direction:ltr;block-progression:tb;writing-mode:lr-tb;text-anchor:start;baseline-shift:baseline;color:#000000;fill:#000000;fill-opacity:1;stroke:none;stroke-width:4;marker:none;visibility:visible;display:inline;overflow:visible;enable-background:accumulate;font-family:Sans;-inkscape-font-specification:Sans" />
    <path
       inkscape:connector-curvature="0"
       id="path9156-9"
       d="m 232.85427,111.68159 a 1.60016,1.7520285 0 0 0 -1.35,2.51829 c 3.77696,8.64205 3.77695,19.53985 0.025,27.75592 a 1.60016,1.7520285 0 1 0 2.85,1.58762 c 4.24806,-9.30246 4.24805,-21.1863 0.025,-30.84904 a 1.60016,1.7520285 0 0 0 -1.55,-1.01279 z"
       style="font-size:medium;font-style:normal;font-variant:normal;font-weight:normal;font-stretch:normal;text-indent:0;text-align:start;text-decoration:none;line-height:normal;letter-spacing:normal;word-spacing:normal;text-transform:none;direction:ltr;block-progression:tb;writing-mode:lr-tb;text-anchor:start;baseline-shift:baseline;color:#000000;fill:#000000;fill-opacity:1;stroke:none;stroke-width:4;marker:none;visibility:visible;display:inline;overflow:visible;enable-background:accumulate;font-family:Sans;-inkscape-font-specification:Sans" />
  </g>
  <g
     id="g3109"
     transform="matrix(0.03837295,0,0,0.03837295,122.567,121.66197)"
     style="stroke-width:2.08480191;stroke-miterlimit:4;stroke-dasharray:none">
    <path
       id="path3111"
       d="m 217.66536,1.452756 c -3.54331,0.7795276 -9.88583,4.7125986 -13.85433,8.681103 l -7.08662,7.122047 -0.60236,74.692917 -0.60236,74.728347 4.57086,6.90945 c 7.90158,11.65748 14.42126,13.64173 47.62205,13.64173 l 29.05512,0 0,30.61418 0,30.64961 -134.00788,0 c -150.4133834,0 -142.68897386,-0.81496 -142.68897386,13.8189 0,13.03937 2.55118116,13.85433 48.82677186,13.85433 l 40.110237,0 0,32.59842 0,32.59843 -27.283465,0 c -24.307087,0 -28.062992,0.38976 -35.964567,4.35827 -5.137796,2.76378 -10.488189,7.29921 -12.862205,11.44488 -3.7559056,6.51969 -3.933071,10.27559 -3.933071,79.47638 0,70.15748 0.1771654,72.5315 4.145669,77.84646 2.161418,2.97638 6.519685,7.33465 9.496063,9.49606 5.314961,3.96851 7.688977,4.14567 79.830711,4.14567 73.91339,0 74.51575,0 80.64567,-4.35826 12.43701,-8.8937 12.64961,-10.45276 12.64961,-89.11418 0,-70.37008 0,-70.97244 -4.35827,-77.49213 -9.28347,-13.6063 -12.64961,-14.81102 -45.24803,-15.41339 l -29.44489,-0.77952 0,-32.42127 0,-32.38582 171.92126,0 171.9567,0 0,32.38582 0,32.42127 -29.44488,0.77952 c -32.20866,0.60237 -35.18504,1.59449 -44.46851,14.2441 -3.9685,5.13779 -4.14567,8.29134 -4.74803,76.67717 -0.60236,68.77559 -0.38976,71.53937 3.54331,79.65354 3.18897,6.30709 6.51968,9.67323 12.6496,12.64961 7.90158,3.93307 11.65749,4.14567 77.27953,4.14567 65.62205,0 69.37796,-0.2126 77.27953,-4.14567 6.12992,-2.97638 9.49606,-6.34252 12.64961,-12.64961 3.9685,-8.11417 4.14567,-10.87795 3.5433,-79.65354 -0.56692,-68.38583 -0.77952,-71.53938 -4.71259,-76.67717 -9.49607,-12.86221 -12.08268,-13.64173 -46.45276,-14.2441 l -31.42913,-0.77952 0,-32.42127 0,-32.38582 43.29921,0 c 38.33858,0 43.65354,-0.4252 47.23228,-3.57874 6.90945,-5.74016 7.51181,-13.25197 1.55906,-18.9567 l -4.9252,-5.13779 -135.60236,0 -135.35433,0 0,-30.64961 0,-30.61418 28.66535,0 c 31.00394,0 35.36221,-0.99212 44.4685,-10.87795 l 4.9252,-5.35039 0.60236,-75.082683 c 0.56693,-73.523625 0.38977,-75.118113 -3.7559,-81.814964 C 369.03544,0.6377953 368.46851,0.46062994 292.57087,0.07086615 255.01181,-0.14173229 221.42126,0.46062994 217.66536,1.452756 z m 137.76378,92.267721 -0.60237,66.826773 -66.22441,0 -66.18897,0 -0.60236,-66.826773 -0.38977,-66.578744 67.1811,0 67.21654,0 -0.38976,66.578744 z m -185.7756,341.929153 0.38977,65.79921 -67.21654,0 -67.1811,0 0,-66.18898 0,-66.22441 66.79134,0.38976 66.61417,0.60237 0.60236,65.62205 z m 371.94095,-0.38977 0,66.18898 -66.22441,0 -66.18897,0 0,-66.18898 0,-66.22441 66.18897,0 66.22441,0 0,66.22441 z"
       style="fill:#000000;fill-opacity:1;fill-rule:nonzero;stroke:none"
       inkscape:connector-curvature="0" />
  </g>
  <g
     id="g3123"
     transform="matrix(0.06523713,0,0,0.06523713,322.02223,208.57713)">
    <path
       id="path3125"
       d="M 69.661421,8.4330708 C 48.330711,31.358267 29.551183,61.015748 18.070867,90.248031 -13.322835,168.90945 -3.4724411,254.26771 44.964569,326.23228 c 12.047245,17.7874 32.811026,39.50787 37.736223,39.50787 1.984252,0 6.129921,-2.55118 9.283465,-5.91732 7.334646,-7.12205 6.555118,-11.26771 -4.322835,-23.13779 C 64.736224,311.59842 43.759845,273.25984 35.29134,240.23622 28.94882,215.75197 26.574805,172.66535 30.543309,148.96063 37.665356,104.66929 57.224412,62.397637 85.287406,31.748031 97.122052,18.496063 98.539375,15.34252 94.783469,8.2204724 89.220477,-2.8346456 80.14961,-2.6574803 69.661421,8.4330708 z"
       style="fill:#000000;fill-opacity:1;fill-rule:nonzero;stroke:none"
       inkscape:connector-curvature="0" />
    <path
       id="path3127"
       d="m 491.42128,4.6771653 c -6.90944,7.2992127 -5.52755,13.0393697 6.51969,26.8582677 27.67323,31.641732 45.8504,68.208661 53.57481,108.318897 4.14567,20.94094 4.53543,60.66142 0.95669,81.63779 -7.29921,41.10237 -26.64567,81.2126 -54.5315,112.42914 -12.82677,14.42126 -13.8189,21.5433 -4.53543,28.45275 7.90157,5.95276 13.42913,3.18898 27.67323,-13.42913 C 581.35042,277.40551 599.31499,183.54331 569.09058,98.929133 557.6457,67.110236 536.27955,32.137795 514.55908,9.6023621 504.28349,-1.2401575 498.15357,-2.4448819 491.42128,4.6771653 z"
       style="fill:#000000;fill-opacity:1;fill-rule:nonzero;stroke:none"
       inkscape:connector-curvature="0" />
    <path
       id="path3129"
       d="m 123.23623,35.114173 c -7.72441,1.984252 -33.590556,37.133858 -44.291344,60.271653 -27.248033,59.279524 -26.29134,123.909444 2.976378,182.622044 11.267717,22.53543 33.980316,52.15748 42.094486,54.92126 7.29922,2.58662 16.01575,-3.7559 16.79528,-12.22441 0.60236,-4.96063 -1.16929,-8.11417 -8.8937,-16.61811 -60.874019,-67.1811 -60.484255,-172.13386 0.60236,-240.909445 10.06299,-11.267717 11.05512,-17.397638 3.75591,-24.519685 -4.74803,-4.748031 -6.51969,-5.314961 -13.03937,-3.543307 z"
       style="fill:#000000;fill-opacity:1;fill-rule:nonzero;stroke:none"
       inkscape:connector-curvature="0" />
    <path
       id="path3131"
       d="m 449.92916,35.716535 c -3.96851,1.559055 -8.32678,8.893701 -8.32678,13.818898 0,0.992126 4.35827,6.909448 9.49607,13.251968 32.0315,38.728349 45.85039,75.082679 45.85039,121.145669 0,45.85039 -13.81889,82.59449 -45.85039,121.14567 -5.1378,6.30708 -9.49607,13.42913 -9.49607,15.41338 0,5.1378 8.50394,13.64174 13.64174,13.64174 5.52756,0 16.01575,-9.67323 27.49606,-25.29922 20.55118,-27.67322 32.98819,-57.72047 38.90552,-93.29527 C 531.74412,156.04724 511.19294,87.661417 470.6575,44.787401 459.99215,33.519685 457.83073,32.527559 449.92916,35.716535 z"
       style="fill:#000000;fill-opacity:1;fill-rule:nonzero;stroke:none"
       inkscape:connector-curvature="0" />
    <path
       id="path3133"
       d="m 157.60631,76.606299 c -10.27559,11.055118 -23.31496,31.818901 -29.05512,46.240161 -21.72048,54.95669 -10.66536,119.19685 27.88583,159.51968 8.50393,8.8937 10.87795,10.45276 14.81102,9.28346 11.65748,-3.57874 15.62599,-16.40551 7.29921,-23.91732 -8.8937,-7.90157 -23.49212,-33.02362 -28.62992,-48.82677 -4.35827,-13.25197 -5.35039,-19.94882 -5.35039,-36.95669 0,-32.81103 7.90157,-55.91339 28.06299,-81.03543 11.26772,-14.031501 12.64961,-21.153548 5.74016,-27.673233 -6.51969,-6.129921 -12.86221,-4.925197 -20.76378,3.366142 z"
       style="fill:#000000;fill-opacity:1;fill-rule:nonzero;stroke:none"
       inkscape:connector-curvature="0" />
    <path
       id="path3135"
       d="m 405.07089,74.232283 c -7.12205,6.909449 -6.12992,11.480315 4.92519,25.299212 32.59843,40.322835 38.55119,91.098425 16.01575,136.771655 -4.35827,8.6811 -11.87008,20.55118 -16.79527,26.29134 -4.96063,5.91732 -9.1063,12.437 -9.1063,14.42126 0,10.48818 10.27559,17.5748 18.77953,13.03937 6.51968,-3.36615 21.15354,-21.72048 29.23228,-36.9567 11.87008,-21.5433 17.61024,-44.6811 17.7874,-71.1496 0.2126,-34.58268 -8.8937,-63.6378 -29.23228,-91.913388 -15.02363,-20.940944 -22.7126,-24.874015 -31.6063,-15.803149 z"
       style="fill:#000000;fill-opacity:1;fill-rule:nonzero;stroke:none"
       inkscape:connector-curvature="0" />
    <path
       id="path3137"
       d="m 194.563,126.03543 c -25.86614,29.23229 -26.07874,75.47244 -0.56693,106.72441 7.68898,9.67323 15.59055,11.23228 22.32284,4.53543 5.52756,-5.52756 4.9252,-12.47244 -2.19685,-22.32283 -9.07087,-12.47244 -11.83465,-20.76378 -12.04725,-35.00787 0,-15.02363 2.19685,-21.15355 11.48032,-33.98032 7.29921,-10.48819 8.29134,-16.19291 3.54331,-22.9252 -4.9252,-7.12204 -14.81103,-5.91732 -22.53544,2.97638 z"
       style="fill:#000000;fill-opacity:1;fill-rule:nonzero;stroke:none"
       inkscape:connector-curvature="0" />
    <path
       id="path3139"
       d="m 366.5197,123.05905 c -5.13779,5.74016 -4.96063,11.87008 0.77953,18.77953 12.25984,14.63386 17.61024,35.18504 13.25197,51.37795 -1.20472,4.35827 -5.74016,13.42914 -10.09843,19.94882 -9.07086,13.64173 -9.67322,17.7874 -3.3307,23.74016 7.08661,6.69685 13.6063,5.52756 22.11023,-3.75591 25.51182,-28.27559 25.51182,-78.09448 0,-106.33464 -8.50393,-9.49606 -16.19291,-10.66535 -22.7126,-3.75591 z"
       style="fill:#000000;fill-opacity:1;fill-rule:nonzero;stroke:none"
       inkscape:connector-curvature="0" />
    <path
       id="path3141"
       d="m 259.58269,145.38189 c -8.4685,4.74803 -11.65748,14.03149 -11.65748,35.39764 0,28.06299 5.1378,37.34645 22.35827,40.11023 l 7.29921,1.16929 0,153.56693 c 0,146.26772 0.17717,153.77953 3.54331,156.72047 4.57086,4.14567 12.08268,4.35827 17.7874,0.2126 l 4.35827,-2.97638 0,-153.74409 0,-153.77953 8.11417,-1.38189 c 11.26772,-1.77165 18.9567,-7.68897 21.72048,-16.79527 1.20472,-4.14567 1.77165,-16.19292 1.38189,-27.67323 l -0.56693,-20.33858 -7.33465,-6.73229 -7.51181,-6.69685 -27.07087,0 c -19.77165,0.17717 -28.66535,0.9567 -32.42126,2.94095 z m 47.65748,35.5748 0,12.86221 -15.83858,0 -15.80315,0 0,-12.86221 0,-12.82677 15.80315,0 15.83858,0 0,12.82677 z"
       style="fill:#000000;fill-opacity:1;fill-rule:nonzero;stroke:none"
       inkscape:connector-curvature="0" />
  </g>
  <g
     id="g3945"
     transform="matrix(0.68449371,0,0,0.68449371,11.927054,64.004242)"
     style="fill:#000000;fill-opacity:1">
    <path
       inkscape:connector-curvature="0"
       id="path1874"
       d="m 116.46029,219.42874 c -0.51467,0.94213 -0.90093,1.96648 -1.13357,3.049 -1.31218,6.10609 2.58413,12.13045 8.68926,13.43733 6.10513,1.30687 12.13351,-2.59279 13.44569,-8.69887 1.31219,-6.10609 -2.5835,-12.13157 -8.68862,-13.43844 a 0.61404693,0.61457749 45.929813 1 0 -0.25743,1.20101 c 5.45601,1.16792 8.91741,6.52244 7.74474,11.97931 -1.17267,5.45686 -6.53095,8.9239 -11.98696,7.75598 -5.45601,-1.16793 -8.9174,-6.52244 -7.74474,-11.97931 0.83015,-3.86298 3.83394,-6.8861 7.69172,-7.74061 a 0.61425606,0.61478682 45.929813 0 0 -0.26513,-1.19986 c -3.24321,0.71838 -5.95094,2.80806 -7.49496,5.63446 z"
       style="font-size:medium;font-style:normal;font-variant:normal;font-weight:normal;font-stretch:normal;text-indent:0;text-align:start;text-decoration:none;line-height:normal;letter-spacing:normal;word-spacing:normal;text-transform:none;direction:ltr;block-progression:tb;writing-mode:lr-tb;text-anchor:start;baseline-shift:baseline;color:#000000;fill:#000000;fill-opacity:1;stroke:none;stroke-width:29.9999733;marker:none;visibility:visible;display:inline;overflow:visible;enable-background:accumulate;font-family:Sans;-inkscape-font-specification:Sans" />
    <path
       inkscape:connector-curvature="0"
       id="path4532"
       d="m 126.40407,210.97254 a 0.5411586,0.5411586 0 0 0 -0.53235,0.54899 l 0,8.88616 a 0.54131,0.54131 0 0 0 1.08262,0 l 0,-8.88616 a 0.5411586,0.5411586 0 0 0 -0.55027,-0.54899 z"
       style="font-size:medium;font-style:normal;font-variant:normal;font-weight:normal;font-stretch:normal;text-indent:0;text-align:start;text-decoration:none;line-height:normal;letter-spacing:normal;word-spacing:normal;text-transform:none;direction:ltr;block-progression:tb;writing-mode:lr-tb;text-anchor:start;baseline-shift:baseline;color:#000000;fill:#000000;fill-opacity:1;stroke:none;stroke-width:26.42753792;marker:none;visibility:visible;display:inline;overflow:visible;enable-background:accumulate;font-family:Sans;-inkscape-font-specification:Sans" />
  </g>
  <path
     sodipodi:type="arc"
     style="fill:#007cdc;fill-opacity:1;stroke:none"
     id="path3943"
     sodipodi:cx="395.59454"
     sodipodi:cy="168.29846"
     sodipodi:rx="8.6943855"
     sodipodi:ry="8.6943855"
     d="m 403.90367,165.73901 a 8.6943855,8.6943855 0 1 1 -1.81689,-3.22355"
     transform="matrix(0.8,0,0,0.8,-79.491525,-18.382415)"
     sodipodi:start="5.9843783"
     sodipodi:end="11.838686"
     sodipodi:open="true" />
  <path
     sodipodi:type="arc"
     style="fill:#007cdc;fill-opacity:1;stroke:none"
     id="path3943-4"
     sodipodi:cx="395.59454"
     sodipodi:cy="168.29846"
     sodipodi:rx="8.6943855"
     sodipodi:ry="8.6943855"
     d="m 403.90367,165.73901 a 8.6943855,8.6943855 0 1 1 -1.81689,-3.22355"
     transform="matrix(0.8,0,0,0.8,-158.37669,16.175267)"
     sodipodi:start="5.9843783"
     sodipodi:end="11.838686"
     sodipodi:open="true" />
  <path
     sodipodi:type="arc"
     style="fill:#007cdc;fill-opacity:1;stroke:none"
     id="path3943-8"
     sodipodi:cx="395.59454"
     sodipodi:cy="168.29846"
     sodipodi:rx="8.6943855"
     sodipodi:ry="8.6943855"
     d="m 403.90367,165.73901 a 8.6943855,8.6943855 0 1 1 -1.81689,-3.22355"
     transform="matrix(0.8,0,0,0.8,-190.28284,83.962131)"
     sodipodi:start="5.9843783"
     sodipodi:end="11.838686"
     sodipodi:open="true" />
  <path
     sodipodi:type="arc"
     style="fill:none;stroke:#007cdc;stroke-width:7.80876493;stroke-miterlimit:4;stroke-opacity:1;stroke-dasharray:none"
     id="path3980"
     sodipodi:cx="243.13228"
     sodipodi:cy="189.72392"
     sodipodi:rx="76.075874"
     sodipodi:ry="76.075874"
     d="m 319.20815,189.72392 a 76.075874,76.075874 0 1 1 -152.15175,0 76.075874,76.075874 0 1 1 152.15175,0 z"
     transform="matrix(0.80577775,0,0,0.80577775,37.885251,71.215759)" />
</svg>
