<?xml version="1.0" encoding="utf-8"?>
<!-- Generator: Adobe Illustrator 21.1.0, SVG Export Plug-In . SVG Version: 6.00 Build 0)  -->
<svg version="1.1"
	 id="svg2" inkscape:version="0.48.4 r9939" sodipodi:docname="hue_bridge.svg" xmlns:cc="http://creativecommons.org/ns#" xmlns:dc="http://purl.org/dc/elements/1.1/" xmlns:inkscape="http://www.inkscape.org/namespaces/inkscape" xmlns:rdf="http://www.w3.org/1999/02/22-rdf-syntax-ns#" xmlns:sodipodi="http://sodipodi.sourceforge.net/DTD/sodipodi-0.dtd" xmlns:svg="http://www.w3.org/2000/svg"
	 xmlns="http://www.w3.org/2000/svg" xmlns:xlink="http://www.w3.org/1999/xlink" x="0px" y="0px" viewBox="0 0 469 469"
	 style="enable-background:new 0 0 469 469;" xml:space="preserve">
<style type="text/css">
	.st0{fill:#007CDC;}
</style>
<sodipodi:namedview  bordercolor="#666666" borderopacity="1" gridtolerance="10" guidetolerance="10" id="namedview9" inkscape:current-layer="svg2" inkscape:cx="66.730215" inkscape:cy="446.26716" inkscape:pageopacity="0" inkscape:pageshadow="2" inkscape:snap-grids="true" inkscape:snap-to-guides="false" inkscape:window-height="1027" inkscape:window-maximized="1" inkscape:window-width="1618" inkscape:window-x="54" inkscape:window-y="-8" inkscape:zoom="2.56" objecttolerance="10" pagecolor="#ffffff" showgrid="false">
	</sodipodi:namedview>
<g id="path3761">
	<path inkscape:connector-curvature="0" d="M236.2,5c-123.7,0-224,100.3-224,224s100.3,224,224,224s224-100.3,224-224
		S359.9,5,236.2,5L236.2,5z M236.2,10.5c120.7,0,218.5,97.8,218.5,218.5s-97.8,218.5-218.5,218.5S17.7,349.8,17.7,229
		S115.5,10.5,236.2,10.5L236.2,10.5z"/>
</g>
<g id="path3763">
	<path inkscape:connector-curvature="0" d="M233.9,158.5c-36.2,0-65.6,29.4-65.6,65.6s29.4,65.6,65.6,65.6s65.6-29.4,65.6-65.6
		S270.1,158.5,233.9,158.5L233.9,158.5z M233.9,162.5c34,0,61.5,27.5,61.5,61.5s-27.5,61.5-61.5,61.5s-61.5-27.5-61.5-61.5
		S199.9,162.5,233.9,162.5L233.9,162.5z"/>
</g>
<g id="g3073" transform="matrix(0.69670748,0,0,0.69670748,75.286671,-6.6736686)">
	<g id="path4048">
		<path inkscape:connector-curvature="0" d="M229.8,110.7c-9.5,0-17.2,7.7-17.2,17.2s7.7,17.2,17.2,17.2s17.2-7.7,17.2-17.2
			S239.2,110.7,229.8,110.7z M229.8,113.1c8.2,0,14.8,6.6,14.8,14.8s-6.6,14.8-14.8,14.8c-8.2,0-14.8-6.6-14.8-14.8
			S221.6,113.1,229.8,113.1z"/>
	</g>
	<g id="path5512-1">
		<path inkscape:connector-curvature="0" d="M229.7,132.7c-4.3,0-8.6,0.6-12.2,1.9c-0.9,0.3-1.4,1.2-1.1,2c0.3,0.8,1.2,1.3,2.1,1.1
			c0.1,0,0.1,0,0.2-0.1c6.1-2.2,16-2.2,22.1,0c0.8,0.4,1.8,0,2.2-0.8c0.4-0.8,0-1.8-0.9-2.1c-0.1,0-0.1,0-0.2-0.1
			C238.3,133.3,234,132.7,229.7,132.7z"/>
	</g>
	<g id="path5516-7">
		<path inkscape:connector-curvature="0" d="M214.7,126.3v3.2h31.4v-3.2H214.7z"/>
	</g>
	<g id="path5520-4">
		<path inkscape:connector-curvature="0" d="M226.5,111.8c-0.6,0-1.1,0.4-1.4,1c-4.2,9.6-4.2,21.4,0,30.6c0.4,0.9,1.3,1.3,2.1,0.9
			c0.8-0.4,1.2-1.4,0.8-2.3c0,0,0-0.1-0.1-0.1c-3.8-8.1-3.8-18.9,0-27.5c0.4-0.9,0.1-1.9-0.7-2.3C227,111.9,226.7,111.8,226.5,111.8
			L226.5,111.8z"/>
	</g>
	<g id="path6250-0">
		<path inkscape:connector-curvature="0" d="M217.8,118.1c-0.9,0.1-1.6,0.9-1.4,1.8c0.1,0.6,0.5,1.1,1.1,1.3
			c7.2,2.6,17.3,2.6,24.4,0c0.9-0.3,1.4-1.2,1.1-2c-0.3-0.8-1.2-1.3-2.1-1.1c-0.1,0-0.1,0-0.2,0.1c-6.1,2.2-16,2.2-22.1,0
			C218.4,118.1,218.1,118.1,217.8,118.1L217.8,118.1z"/>
	</g>
	<g id="path9156-9">
		<path inkscape:connector-curvature="0" d="M232.9,111.7c-0.9,0.1-1.6,0.9-1.5,1.8c0,0.2,0.1,0.5,0.2,0.7c3.8,8.6,3.8,19.5,0,27.8
			c-0.4,0.8-0.2,1.9,0.6,2.4c0.8,0.5,1.7,0.2,2.2-0.7c0,0,0-0.1,0.1-0.1c4.2-9.3,4.2-21.2,0-30.8C234.1,112,233.5,111.6,232.9,111.7
			L232.9,111.7z"/>
	</g>
</g>
<g id="g3109" transform="matrix(0.03837295,0,0,0.03837295,122.567,121.66197)">
	<g id="path3111">
		<path inkscape:connector-curvature="0" d="M217.7,1.5c-3.5,0.8-9.9,4.7-13.9,8.7l-7.1,7.1l-0.6,74.7l-0.6,74.7l4.6,6.9
			c7.9,11.7,14.4,13.6,47.6,13.6h29.1v30.6v30.6h-134c-150.4,0-142.7-0.8-142.7,13.8c0,13,2.6,13.9,48.8,13.9H89v32.6v32.6H61.7
			c-24.3,0-28.1,0.4-36,4.4c-5.1,2.8-10.5,7.3-12.9,11.4C9.1,363.7,9,367.4,9,436.6c0,70.2,0.2,72.5,4.1,77.8c2.2,3,6.5,7.3,9.5,9.5
			c5.3,4,7.7,4.1,79.8,4.1c73.9,0,74.5,0,80.6-4.4c12.4-8.9,12.6-10.5,12.6-89.1c0-70.4,0-71-4.4-77.5
			c-9.3-13.6-12.6-14.8-45.2-15.4l-29.4-0.8v-32.4v-32.4h171.9h172v32.4V341l-29.4,0.8c-32.2,0.6-35.2,1.6-44.5,14.2
			c-4,5.1-4.1,8.3-4.7,76.7c-0.6,68.8-0.4,71.5,3.5,79.7c3.2,6.3,6.5,9.7,12.6,12.6c7.9,3.9,11.7,4.1,77.3,4.1s69.4-0.2,77.3-4.1
			c6.1-3,9.5-6.3,12.6-12.6c4-8.1,4.1-10.9,3.5-79.7c-0.6-68.4-0.8-71.5-4.7-76.7c-9.5-12.9-12.1-13.6-46.5-14.2l-31.4-0.8v-32.4
			v-32.4h43.3c38.3,0,43.7-0.4,47.2-3.6c6.9-5.7,7.5-13.3,1.6-19l-4.9-5.1H437.8H302.5v-30.6v-30.6h28.7c31,0,35.4-1,44.5-10.9
			l4.9-5.4l0.6-75.1c0.6-73.5,0.4-75.1-3.8-81.8c-8.3-13.5-8.9-13.6-84.8-14C255-0.1,221.4,0.5,217.7,1.5z M355.4,93.7l-0.6,66.8
			h-66.2h-66.2l-0.6-66.8l-0.4-66.6h67.2h67.2L355.4,93.7z M169.7,435.6l0.4,65.8h-67.2H35.6v-66.2V369l66.8,0.4l66.6,0.6
			L169.7,435.6z M541.6,435.3v66.2h-66.2h-66.2v-66.2V369h66.2h66.2C541.6,369,541.6,435.3,541.6,435.3z"/>
	</g>
</g>
<g id="g3123" transform="matrix(0.06523713,0,0,0.06523713,322.02223,208.57713)">
	<g id="path3125">
		<path inkscape:connector-curvature="0" d="M69.7,8.4C48.3,31.4,29.6,61,18.1,90.2c-31.4,78.7-21.5,164,26.9,236
			c12,17.8,32.8,39.5,37.7,39.5c2,0,6.1-2.6,9.3-5.9c7.3-7.1,6.6-11.3-4.3-23.1c-22.9-25.1-43.9-63.4-52.4-96.4
			c-6.3-24.5-8.7-67.6-4.7-91.3c7.1-44.3,26.7-86.6,54.7-117.2c11.8-13.3,13.3-16.4,9.5-23.5C89.2-2.8,80.1-2.7,69.7,8.4z"/>
	</g>
	<g id="path3127">
		<path inkscape:connector-curvature="0" d="M491.4,4.7c-6.9,7.3-5.5,13,6.5,26.9c27.7,31.6,45.9,68.2,53.6,108.3
			c4.1,20.9,4.5,60.7,1,81.6c-7.3,41.1-26.6,81.2-54.5,112.4c-12.8,14.4-13.8,21.5-4.5,28.5c7.9,6,13.4,3.2,27.7-13.4
			c60.3-71.5,78.2-165.4,48-250c-11.4-31.8-32.8-66.8-54.5-89.3C504.3-1.2,498.2-2.4,491.4,4.7z"/>
	</g>
	<g id="path3129">
		<path inkscape:connector-curvature="0" d="M123.2,35.1c-7.7,2-33.6,37.1-44.3,60.3c-27.2,59.3-26.3,123.9,3,182.6
			c11.3,22.5,34,52.2,42.1,54.9c7.3,2.6,16-3.8,16.8-12.2c0.6-5-1.2-8.1-8.9-16.6C71,236.9,71.4,132,132.5,63.2
			c10.1-11.3,11.1-17.4,3.8-24.5C131.5,33.9,129.8,33.3,123.2,35.1z"/>
	</g>
	<g id="path3131">
		<path inkscape:connector-curvature="0" d="M449.9,35.7c-4,1.6-8.3,8.9-8.3,13.8c0,1,4.4,6.9,9.5,13.3
			c32,38.7,45.9,75.1,45.9,121.1c0,45.9-13.8,82.6-45.9,121.1c-5.1,6.3-9.5,13.4-9.5,15.4c0,5.1,8.5,13.6,13.6,13.6
			c5.5,0,16-9.7,27.5-25.3c20.6-27.7,33-57.7,38.9-93.3c10.1-59.5-10.5-127.9-51-170.8C460,33.5,457.8,32.5,449.9,35.7z"/>
	</g>
	<g id="path3133">
		<path inkscape:connector-curvature="0" d="M157.6,76.6c-10.3,11.1-23.3,31.8-29.1,46.2c-21.7,55-10.7,119.2,27.9,159.5
			c8.5,8.9,10.9,10.5,14.8,9.3c11.7-3.6,15.6-16.4,7.3-23.9c-8.9-7.9-23.5-33-28.6-48.8c-4.4-13.3-5.4-19.9-5.4-37
			c0-32.8,7.9-55.9,28.1-81c11.3-14,12.6-21.2,5.7-27.7C171.9,67.1,165.5,68.3,157.6,76.6z"/>
	</g>
	<g id="path3135">
		<path inkscape:connector-curvature="0" d="M405.1,74.2c-7.1,6.9-6.1,11.5,4.9,25.3c32.6,40.3,38.6,91.1,16,136.8
			c-4.4,8.7-11.9,20.6-16.8,26.3c-5,5.9-9.1,12.4-9.1,14.4c0,10.5,10.3,17.6,18.8,13c6.5-3.4,21.2-21.7,29.2-37
			c11.9-21.5,17.6-44.7,17.8-71.1c0.2-34.6-8.9-63.6-29.2-91.9C421.7,69.1,414,65.2,405.1,74.2z"/>
	</g>
	<g id="path3137">
		<path inkscape:connector-curvature="0" d="M194.6,126c-25.9,29.2-26.1,75.5-0.6,106.7c7.7,9.7,15.6,11.2,22.3,4.5
			c5.5-5.5,4.9-12.5-2.2-22.3c-9.1-12.5-11.8-20.8-12-35c0-15,2.2-21.2,11.5-34c7.3-10.5,8.3-16.2,3.5-22.9
			C212.2,115.9,202.3,117.1,194.6,126z"/>
	</g>
	<g id="path3139">
		<path inkscape:connector-curvature="0" d="M366.5,123.1c-5.1,5.7-5,11.9,0.8,18.8c12.3,14.6,17.6,35.2,13.3,51.4
			c-1.2,4.4-5.7,13.4-10.1,19.9c-9.1,13.6-9.7,17.8-3.3,23.7c7.1,6.7,13.6,5.5,22.1-3.8c25.5-28.3,25.5-78.1,0-106.3
			C380.7,117.3,373,116.2,366.5,123.1z"/>
	</g>
	<g id="path3141">
		<path inkscape:connector-curvature="0" d="M259.6,145.4c-8.5,4.7-11.7,14-11.7,35.4c0,28.1,5.1,37.3,22.4,40.1l7.3,1.2v153.6
			c0,146.3,0.2,153.8,3.5,156.7c4.6,4.1,12.1,4.4,17.8,0.2l4.4-3V375.8V222.1l8.1-1.4c11.3-1.8,19-7.7,21.7-16.8
			c1.2-4.1,1.8-16.2,1.4-27.7l-0.6-20.3l-7.3-6.7l-7.5-6.7H292C272.2,142.6,263.3,143.4,259.6,145.4z M307.2,181v12.9h-15.8h-15.8
			V181v-12.8h15.8h15.8V181z"/>
	</g>
</g>
<g id="g3945" transform="matrix(0.68449371,0,0,0.68449371,11.927054,64.004242)">
	<g id="path1874">
		<path inkscape:connector-curvature="0" d="M116.5,219.4c-0.5,0.9-0.9,2-1.1,3c-1.3,6.1,2.6,12.1,8.7,13.4
			c6.1,1.3,12.1-2.6,13.4-8.7c1.3-6.1-2.6-12.1-8.7-13.4c-0.3-0.1-0.7,0.1-0.7,0.5c-0.1,0.3,0.1,0.7,0.5,0.7c0,0,0,0,0,0
			c5.5,1.2,8.9,6.5,7.7,12s-6.5,8.9-12,7.8c-5.5-1.2-8.9-6.5-7.7-12c0.8-3.9,3.8-6.9,7.7-7.7c0.3-0.1,0.5-0.4,0.5-0.7
			c-0.1-0.3-0.4-0.5-0.7-0.5C120.7,214.5,118,216.6,116.5,219.4L116.5,219.4z"/>
	</g>
	<g id="path4532">
		<path inkscape:connector-curvature="0" d="M126.4,211c-0.3,0-0.5,0.3-0.5,0.5v8.9c0,0.3,0.2,0.5,0.5,0.5c0.3,0,0.5-0.2,0.5-0.5
			v-8.9C127,211.2,126.7,211,126.4,211C126.4,211,126.4,211,126.4,211z"/>
	</g>
</g>
<g id="path3943">
	
		<path sodipodi:cx="395.59454" sodipodi:cy="168.29846" sodipodi:end="11.838686" sodipodi:open="true" sodipodi:rx="8.6943855" sodipodi:ry="8.6943855" sodipodi:start="5.9843783" sodipodi:type="arc" class="st0" d="
		M243.6,114.2c1.1,3.7-0.9,7.6-4.6,8.7c-3.7,1.1-7.6-0.9-8.7-4.6c-1.1-3.7,0.9-7.6,4.6-8.7c2.6-0.8,5.4,0,7.2,2"/>
</g>
<g id="path3943-4">
	
		<path sodipodi:cx="395.59454" sodipodi:cy="168.29846" sodipodi:end="11.838686" sodipodi:open="true" sodipodi:rx="8.6943855" sodipodi:ry="8.6943855" sodipodi:start="5.9843783" sodipodi:type="arc" class="st0" d="
		M164.7,148.8c1.1,3.7-0.9,7.6-4.6,8.7c-3.7,1.1-7.6-0.9-8.7-4.6c-1.1-3.7,0.9-7.6,4.6-8.7c2.6-0.8,5.4,0,7.2,2"/>
</g>
<g id="path3943-8">
	
		<path sodipodi:cx="395.59454" sodipodi:cy="168.29846" sodipodi:end="11.838686" sodipodi:open="true" sodipodi:rx="8.6943855" sodipodi:ry="8.6943855" sodipodi:start="5.9843783" sodipodi:type="arc" class="st0" d="
		M132.8,216.6c1.1,3.7-0.9,7.6-4.6,8.7c-3.7,1.1-7.6-0.9-8.7-4.6c-1.1-3.7,0.9-7.6,4.6-8.7c2.6-0.8,5.4,0,7.2,2"/>
</g>
<g id="path3980">
	<path class="st0" d="M233.8,289.3c-36,0-65.2-29.3-65.2-65.2s29.3-65.2,65.2-65.2s65.2,29.3,65.2,65.2S269.8,289.3,233.8,289.3z
		 M233.8,166.7c-31.6,0-57.4,25.7-57.4,57.4s25.7,57.4,57.4,57.4c31.6,0,57.4-25.7,57.4-57.4S265.4,166.7,233.8,166.7z"/>
</g>
</svg>
