<?xml version="1.0" encoding="UTF-8" standalone="no"?>
<!-- Created with Inkscape (http://www.inkscape.org/) -->

<svg
   xmlns:dc="http://purl.org/dc/elements/1.1/"
   xmlns:cc="http://creativecommons.org/ns#"
   xmlns:rdf="http://www.w3.org/1999/02/22-rdf-syntax-ns#"
   xmlns:svg="http://www.w3.org/2000/svg"
   xmlns="http://www.w3.org/2000/svg"
   xmlns:sodipodi="http://sodipodi.sourceforge.net/DTD/sodipodi-0.dtd"
   xmlns:inkscape="http://www.inkscape.org/namespaces/inkscape"
   version="1.0"
   width="452.5"
   height="600"
   viewBox="0 0 362 480"
   id="svg2"
   inkscape:version="0.48.4 r9939"
   sodipodi:docname="raspberry_logo.svg">
  <sodipodi:namedview
     pagecolor="#ffffff"
     bordercolor="#666666"
     borderopacity="1"
     objecttolerance="10"
     gridtolerance="10"
     guidetolerance="10"
     inkscape:pageopacity="0"
     inkscape:pageshadow="2"
     inkscape:window-width="1618"
     inkscape:window-height="1027"
     id="namedview11"
     showgrid="false"
     inkscape:zoom="0.82408494"
     inkscape:cx="341.86405"
     inkscape:cy="408.44236"
     inkscape:window-x="54"
     inkscape:window-y="-8"
     inkscape:window-maximized="1"
     inkscape:current-layer="svg2" />
  <defs
     id="defs12" />
  <metadata
     id="metadata4">
Created by potrace 1.8, written by Peter Selinger 2001-2007
<rdf:RDF>
  <cc:Work
     rdf:about="">
    <dc:format>image/svg+xml</dc:format>
    <dc:type
       rdf:resource="http://purl.org/dc/dcmitype/StillImage" />
    <dc:title></dc:title>
  </cc:Work>
</rdf:RDF>
</metadata>
  <g
     transform="matrix(-0.17289216,0,0,-0.17289216,286.38991,343.76054)"
     id="g6"
     style="fill:#000000;stroke:none" />
  <path
     style="font-size:medium;font-style:normal;font-variant:normal;font-weight:normal;font-stretch:normal;text-indent:0;text-align:start;text-decoration:none;line-height:normal;letter-spacing:normal;word-spacing:normal;text-transform:none;direction:ltr;block-progression:tb;writing-mode:lr-tb;text-anchor:start;baseline-shift:baseline;color:#000000;fill:#000000;fill-opacity:1;stroke:none;stroke-width:0.52228558;marker:none;visibility:visible;display:inline;overflow:visible;enable-background:accumulate;font-family:Sans;-inkscape-font-specification:Sans"
     d="m 116.84327,24.116393 c -1.76206,0.0664 -3.79763,1.08071 -5.70417,2.33352 -2.26362,-0.79868 -4.59529,-1.63879 -7.00058,-1.55568 -2.3969,0.083 -4.791725,1.19499 -7.000589,2.85209 -2.984013,-0.29485 -5.452576,-0.16584 -7.259867,0.51856 -1.499984,0.56803 -2.267145,1.43918 -3.111363,2.33353 -0.351585,-0.027 -0.641988,0.0311 -1.555694,0 -1.218405,-0.0415 -2.978506,0.0228 -4.667056,0.25928 -2.690394,0.37793 -5.307894,2.33509 -7.778421,4.66706 -0.21884,0.20649 -0.570425,0.0311 -0.777846,0.25928 -5.364934,-0.37285 -9.829445,1.19158 -11.926924,4.40777 -1.795985,2.754 -0.884661,6.23302 0.259282,9.5934 -1.084104,1.67835 -2.328857,3.76245 -2.592811,6.48202 -0.235416,2.42812 0.970757,5.25847 3.111375,8.29699 -0.662716,1.92257 -1.110136,3.93354 -0.518564,5.96346 0.639912,2.19702 2.014723,4.26994 3.889221,6.48202 -0.354699,2.50482 -0.197062,4.99072 0.777836,7.000577 1.11844,2.304461 3.002688,4.174446 5.185621,5.704186 0.743622,6.361294 5.614049,10.274708 7.778431,11.667644 0.459437,1.97537 1.173394,4.087 2.852082,5.96345 1.715609,1.91776 4.601723,3.29915 8.296996,4.40778 0.966593,2.73239 2.387973,5.02636 4.407774,6.22273 1.181586,0.69986 2.40042,0.8991 3.629928,1.29641 -6.627628,4.16522 -13.167423,8.60589 -17.89038,15.55686 -5.379976,7.91788 -8.41937,18.36762 -8.556267,32.66939 -10e-4,0.10788 -0.258244,0.15101 -0.259282,0.25887 l -2.074246,3.88921 c -9.206233,5.98246 -17.604863,17.09677 -20.742474,30.85442 -3.163743,13.8724 -0.576642,30.17142 11.667642,44.59632 0.05191,0.0663 -0.05191,0.19415 0,0.25887 1.653694,8.77264 4.645798,15.05712 7.000585,21.77959 0.03114,0.20743 0.230238,0.3128 0.259283,0.51856 2.019485,14.43999 8.954826,25.17722 16.334687,32.41012 7.243901,7.09964 14.137661,10.54323 18.149661,11.66763 l -0.25928,0.25887 c 0.19706,0.15017 0.58079,0.10946 0.77785,0.25887 8.84946,6.7062 18.67589,13.24183 31.37297,17.89038 0.40759,0.14934 0.62332,0.37336 1.03713,0.51856 12.65913,12.62852 26.59071,17.89843 40.44782,17.89038 0.18357,0 0.28106,0.003 0.51856,0 13.85555,0 27.78848,-5.26195 40.44782,-17.89038 0.41382,-0.1452 0.62953,-0.36922 1.03712,-0.51856 12.69646,-4.64847 22.52291,-11.1836 31.37299,-17.89038 0.19706,-0.14936 0.58079,-0.10957 0.77784,-0.25887 l 0,-0.25887 c 4.03577,-1.16656 10.7194,-4.63942 17.89038,-11.66763 7.37996,-7.2329 14.31552,-17.97004 16.3347,-32.41012 l 0.25928,0 c 0.0208,-0.17755 -0.0208,-0.34017 0,-0.51856 2.35489,-6.72198 5.34638,-13.00702 7.00059,-21.77959 0.0208,-0.0943 -0.0208,-0.16345 0,-0.25887 12.24417,-14.4258 14.83128,-30.72309 11.66764,-44.59632 -3.13751,-13.75847 -11.53592,-24.87162 -20.74247,-30.85442 l -2.07425,-3.88921 -0.25928,-0.25887 c -0.13587,-14.30069 -3.17609,-24.75153 -8.55627,-32.66939 -4.69434,-6.90858 -11.30807,-11.40634 -17.89038,-15.55686 1.22961,-0.39721 2.44833,-0.59666 3.62993,-1.29641 2.0199,-1.19628 3.44159,-3.49053 4.40777,-6.22273 3.69528,-1.1089 6.58148,-2.49006 8.29699,-4.40778 1.67869,-1.87641 2.39234,-3.98831 2.85209,-5.96345 2.16437,-1.392947 7.03533,-5.306317 7.77843,-11.667644 2.18325,-1.529752 4.06708,-3.399533 5.18561,-5.704186 0.97594,-2.010017 1.13275,-4.495607 0.77785,-7.000577 1.8746,-2.21183 3.24889,-4.28503 3.88921,-6.48202 0.59116,-2.0299 0.14312,-4.04079 -0.51855,-5.96346 2.14757,-3.04306 3.60721,-5.86582 3.37064,-8.29699 -0.26446,-2.71912 -1.77016,-4.80455 -2.85209,-6.48203 1.14302,-3.36041 2.05579,-6.83955 0.25928,-9.59339 -2.098,-3.216 -6.56157,-4.7809 -11.92692,-4.40777 -0.3464,0.0239 -0.42211,-0.30139 -0.77784,-0.25928 -2.46876,-2.33367 -5.0872,-4.2858 -7.77843,-4.66706 -1.68896,-0.23926 -3.44522,-0.30243 -4.66706,-0.25928 -0.81517,0.029 -1.14146,-0.0321 -1.55568,0 -0.84422,-0.894 -1.61158,-1.7655 -3.11137,-2.33353 -1.80698,-0.6844 -4.27596,-0.81321 -7.25986,-0.51856 -2.20898,-1.65679 -4.6037,-2.76928 -7.00058,-2.85209 -2.59407,-0.0892 -5.08938,0.91339 -7.51915,1.81496 -2.75968,-1.60708 -5.52155,-2.59828 -7.77844,-2.07424 -2.69766,0.62642 -4.90486,1.75278 -6.7413,2.33353 -3.02581,-0.72029 -5.70106,-0.95955 -7.51914,-0.25929 -1.99045,0.76675 -3.21093,1.81699 -4.40777,2.33353 -0.11409,-0.0176 -0.14624,0.27411 -0.25928,0.25928 -3.40083,-0.44741 -6.43743,-0.43455 -8.55627,0.77785 -2.21136,1.2654 -3.61936,3.0315 -5.18562,4.66705 l -3.11138,-0.25928 -0.77783,0 -0.51857,0.25928 c -10.27063,6.05306 -15.28949,16.34219 -18.14966,24.11313 -2.85655,-7.77076 -7.87934,-18.06119 -18.14924,-24.11313 l -0.51857,-0.25928 -0.51856,0 -3.37065,0.25928 c -1.56762,-1.6357 -2.97396,-3.40186 -5.18562,-4.66705 -2.11905,-1.21229 -5.15544,-1.22527 -8.55627,-0.77785 -0.0829,-0.0311 -0.17424,-0.22277 -0.25928,-0.25928 -1.19674,-0.51669 -2.41754,-1.56663 -4.40777,-2.33353 -1.81788,-0.70047 -4.49231,-0.4612 -7.51915,0.25929 -1.54054,-0.48766 -3.8579,-1.14665 -5.96345,-1.81497 l 0.25927,-0.25928 -2.33352,-0.51856 c -0.28418,-0.0322 -0.48123,0.01 -0.77785,0 -0.22817,-0.008 -0.28313,-0.26654 -0.51856,-0.25928 z m 0,4.40777 c 2.19518,-0.0685 4.70803,1.53894 8.03771,2.59281 l 0.51856,0.25928 0.77784,-0.25928 c 3.1818,-1.0393 4.68252,-0.75285 5.96347,-0.25928 1.28095,0.49357 2.5061,1.5317 4.66705,2.33353 l 0.51856,0.25928 0.51856,0 c 3.46566,-0.73221 5.45662,-0.36476 7.00059,0.51856 1.54397,0.88332 2.75376,2.47212 4.66705,4.40778 l 0.77785,0.51856 0.77784,0 3.37065,0 c 10.47318,6.37291 16.23026,19.46473 18.14967,26.18737 l 2.07424,7.25987 2.07425,-7.25987 c 1.91815,-6.71883 7.67357,-19.81217 18.14966,-26.18737 l 3.37065,0 0.77784,0 0.77785,-0.51856 c 1.91142,-1.93532 3.12371,-3.52458 4.66706,-4.40778 1.54343,-0.88321 3.53492,-1.25079 7.00058,-0.51856 l 0.51855,0 0.51857,-0.25928 c 2.16053,-0.80139 3.38507,-1.83974 4.66706,-2.33353 1.28199,-0.49377 2.78416,-0.77961 5.96345,0.25928 l 0.77785,0.25928 0.51856,-0.25928 c 2.53763,-0.80253 4.72504,-1.92556 6.48202,-2.33353 1.75699,-0.408 3.21436,-0.40925 5.70418,1.55569 l 0.77784,0.77784 1.29642,-0.51856 c 2.29597,-0.8856 4.34958,-1.36113 6.22273,-1.29641 1.87325,0.0643 3.41618,0.73159 5.18561,2.33353 l 0.77785,0.51856 1.03713,0 c 3.04405,-0.39483 4.87054,-0.15463 5.96346,0.25928 1.09291,0.41392 1.63046,0.92304 2.33352,1.81497 l 0.77785,0.77784 1.03712,0 c 0.67413,-0.0145 1.27815,-0.22204 2.33353,-0.25928 1.05537,-0.0373 2.28665,0.0685 3.62994,0.25928 2.68655,0.38063 5.32002,1.38132 7.00057,3.88922 l 0.77785,1.03712 1.29641,0 c 4.82459,-0.57094 7.38006,0.78967 8.55626,2.59281 1.17631,1.80312 1.37254,4.51486 -0.25928,7.51915 l -0.77785,1.03712 0.77785,1.03712 c 1.10029,1.70591 1.93714,3.25725 2.07425,4.66706 0.13689,1.40981 -0.24684,3.26404 -2.59281,6.22274 l -0.77785,1.03712 0.51856,1.29641 c 0.68243,1.35454 0.71251,2.33207 0.25929,3.88921 -0.45426,1.55714 -1.63596,3.4964 -3.62993,5.70418 l -0.77785,0.77784 0.25928,1.29641 c 0.47294,2.12534 0.43664,3.49248 -0.25928,4.92633 -0.69591,1.43386 -2.1094,2.901472 -3.88921,4.148505 l -1.03713,0.777835 0.25929,1.296411 c 0.5756,5.368206 -5.10358,8.734745 -7.51915,10.371231 l -0.77784,0.259282 -0.25928,1.037117 c -0.3744,1.856536 -0.88985,3.342986 -2.07425,4.667056 -1.18449,1.32408 -2.97084,2.64983 -6.7413,3.62994 l -1.29682,0.25928 -0.25928,1.2964 c -0.55175,2.48206 -1.79444,3.47426 -3.37066,4.40778 -1.57622,0.93352 -3.8332,1.69424 -6.22274,2.33352 l -4.92633,1.29641 4.40777,2.5928 c 7.65253,4.44917 14.70092,9.48821 19.70534,16.85327 5.00454,7.36506 8.08273,17.11295 8.03772,31.37298 l 0,0.51857 0.25928,0.51856 2.33353,4.14849 0.25928,0.51857 0.51855,0.25886 c 8.28238,5.03677 16.47357,16.00448 19.44608,29.03946 2.9725,13.03498 0.95104,28.07958 -11.14908,41.74422 l -0.25928,0.25887 -0.25928,0.77743 c -1.59438,8.62472 -4.26185,14.63763 -6.74131,21.77959 l 0,0.25887 0,0.25886 c -1.75906,13.65402 -8.34894,23.52561 -15.29757,30.33587 -6.94852,6.81025 -14.73109,10.55452 -17.11254,11.14908 l -0.25928,0 -0.51856,0.25886 c -9.16838,6.98424 -18.62021,13.57844 -31.63227,18.14967 l -0.51856,0.25886 -0.25928,0.25887 c -12.19035,12.57243 -25.23011,17.37181 -38.37357,17.37181 -0.16595,0.002 -0.2987,0 -0.51857,0 -13.14171,0.008 -26.18291,-4.79913 -38.37357,-17.37181 l -0.25928,-0.25597 -0.51857,-0.25886 C 122.23922,323.94134 112.7875,317.34656 103.61953,310.3629 l -0.51855,-0.25886 -0.25928,0 c -2.38176,-0.59489 -10.163923,-4.33883 -17.112546,-11.14908 -6.948521,-6.81025 -13.53819,-16.68176 -15.29757,-30.33587 l 0,-0.25886 0,-0.25887 c -2.47935,-7.14262 -5.147447,-13.15495 -6.741303,-21.77959 l -0.259282,-0.77992 -0.259282,-0.25887 C 51.071393,231.61926 49.050147,216.57284 52.02264,203.53877 54.995245,190.5047 63.186657,179.53582 71.468713,174.49931 l 0.518553,-0.25888 0.259282,-0.51855 2.333529,-4.1485 0.259282,-0.51856 0,-0.51856 c -0.04153,-14.26177 3.03338,-24.00836 8.037714,-31.3734 5.004322,-7.36504 12.053654,-12.40536 19.705347,-16.85327 l 4.40777,-2.5928 -4.92634,-1.29641 c -2.389223,-0.63928 -4.646619,-1.39996 -6.222736,-2.33352 -1.576117,-0.93362 -2.559726,-1.92538 -3.111375,-4.40778 l -0.518564,-1.2964 -1.2964,-0.25928 c -3.770458,-0.97987 -5.556806,-2.30591 -6.741303,-3.62994 -1.184496,-1.32403 -1.700048,-2.81023 -2.074246,-4.667056 L 81.839944,98.789287 81.062098,98.530005 C 78.646535,96.89353 72.967355,93.527003 73.542959,88.158774 l 0.259282,-1.296411 -1.037128,-0.777835 c -1.779499,-1.247044 -3.193308,-2.714755 -3.88921,-4.148505 -0.695914,-1.43372 -0.732215,-2.80086 -0.259283,-4.92633 l 0.259283,-1.29641 -0.777847,-0.77784 c -1.993972,-2.20808 -3.176088,-4.14692 -3.629928,-5.70418 -0.45323,-1.55726 -0.422109,-2.53458 0.259282,-3.88921 l 0.777835,-1.29641 -1.037117,-1.03712 c -2.345557,-2.96014 -2.729606,-4.81276 -2.592811,-6.22274 0.136897,-1.40998 0.972822,-2.96204 2.074247,-4.66706 l 0.777846,-1.03712 -0.777846,-1.03712 c -1.633158,-3.00442 -1.434967,-5.71638 -0.259283,-7.51915 1.175685,-1.80277 3.731879,-3.16346 8.556267,-2.59281 l 1.296411,0 0.777836,-1.03712 c 1.680143,-2.50634 4.312154,-3.51159 7.000585,-3.88922 1.344221,-0.18886 2.571348,-0.0353 3.629939,0 1.058591,0.0353 1.604327,0 2.333528,0 l 1.037118,0 0.777846,-0.77784 c 0.702132,-0.89172 1.240499,-1.40103 2.333529,-1.81497 1.093131,-0.41391 2.919401,-0.65442 5.963456,-0.25928 l 1.037129,0 0.777835,-0.51856 c 1.76903,-1.60209 3.31236,-2.2688 5.18562,-2.33353 1.87336,-0.0643 3.92665,0.41112 6.22274,1.29641 l 1.29641,0.51856 0.77783,-0.77784 c 1.71043,-1.34976 2.98339,-1.77105 4.1485,-1.81497 z"
     id="path12490-3"
     inkscape:connector-curvature="0" />
  <path
     style="font-size:medium;font-style:normal;font-variant:normal;font-weight:normal;font-stretch:normal;text-indent:0;text-align:start;text-decoration:none;line-height:normal;letter-spacing:normal;word-spacing:normal;text-transform:none;direction:ltr;block-progression:tb;writing-mode:lr-tb;text-anchor:start;baseline-shift:baseline;color:#000000;fill:#000000;fill-opacity:1;stroke:none;stroke-width:0.52228558;marker:none;visibility:visible;display:inline;overflow:visible;enable-background:accumulate;font-family:Sans;-inkscape-font-specification:Sans"
     d="m 110.62054,29.820573 4.92633,5.96346 c 0.69694,0.86247 1.19954,1.55831 1.55568,2.07424 -2.92146,-1.73001 -5.67274,-3.69065 -12.18619,-4.92633 l -6.222747,-1.03713 4.148507,4.66706 c 0.35884,0.40624 0.66687,0.4301 1.03711,0.77784 0.26447,0.24839 0.27588,0.56026 0.51857,0.77785 -3.26238,-1.0085 -6.374791,-2.09388 -10.111961,-2.59281 l -7.519138,-1.03713 5.704174,4.92634 c 0.770579,0.65048 1.10464,1.06429 1.555682,1.55569 -4.208332,-1.23803 -8.937518,-3.05863 -14.519724,-1.55569 l -3.629939,1.03712 2.59281,2.59281 0.259283,0.51856 c -2.966591,0.0488 -6.798863,0.21303 -9.852667,0.25928 l -4.148504,0 2.333529,3.37066 c 1.732106,2.44271 2.955081,5.14143 4.148492,8.29699 -0.86392,-0.0653 -1.86951,-0.16366 -2.852081,-0.25929 l -3.62994,-0.51856 1.555693,3.62993 c 1.624232,3.47147 3.841085,5.6825 5.704175,7.25987 0.297659,0.25202 0.253064,0.29174 0.518564,0.51856 -0.459448,-0.11305 -0.78095,-0.0809 -1.296411,-0.25928 l -4.926328,-1.81497 2.333529,4.66706 c 0.233352,0.48807 0.766427,0.58411 1.037117,1.03712 1.8383,3.07161 4.055987,5.34296 6.482021,7.51914 -0.638862,0.007 -0.42625,0.13743 -1.555682,0 l -5.704174,-0.77783 3.88921,4.14849 c 2.356649,2.54233 5.51553,4.792253 8.556267,7.000586 -0.533087,0.01343 -0.98942,-0.01343 -1.555682,0 l -5.185621,0 3.629928,3.629928 c 3.136471,3.116555 6.82169,4.674335 10.371243,6.482021 -0.201204,-0.0068 -0.289366,0 -0.518565,0 l -5.963456,0 4.667057,3.889222 c 0.339138,0.28302 0.932368,0.26146 1.296399,0.51855 3.030582,2.13856 6.80042,3.4955 10.630513,4.66706 -0.10573,0.0238 -0.143114,-0.0238 -0.259282,0 l -5.704174,1.03713 5.185621,2.85209 c 0.427289,0.2404 0.857703,0.0633 1.2964,0.25928 3.115002,1.39507 6.244412,2.11141 9.074832,2.33353 1.2126,0.0953 2.16063,0.17568 3.11137,0.25927 -0.33499,0.19655 -0.3547,0.32162 -0.77784,0.51857 l 0.77784,4.14849 c 0.23024,0.0134 0.78924,-0.2711 1.03712,-0.25929 5.06852,0.24094 13.19884,0.32442 21.52031,-2.33351 8.72895,-2.78808 17.51826,-8.60134 20.22391,-19.446074 l 0.25928,-1.037117 -0.77784,-1.037129 c -5.02476,-5.604435 -12.19544,-11.565107 -21.77959,-18.149657 8.38233,4.76084 16.57613,9.554574 23.85383,15.556847 l 1.03713,1.037128 1.2964,-0.777846 c 5.68437,-2.686817 9.24617,-6.427711 10.8898,-10.889799 1.64364,-4.46208 1.47915,-9.31337 0.25928,-14.00117 -2.43962,-9.37558 -8.82281,-18.31896 -14.26045,-23.59456 l -2.85209,-2.85209 -0.77784,3.88922 c -0.1369,0.69352 -0.37959,1.03897 -0.51857,1.55568 -2.49282,-2.87573 -4.71828,-5.90476 -8.29698,-8.81555 l -3.37066,-2.85209 -0.25927,4.40778 c -0.008,1.16841 0.22609,1.99078 0.25927,2.59281 -2.0087,-2.23189 -4.3444,-4.1634 -7.25985,-5.96346 -0.34018,-0.21013 -0.42419,-0.57426 -0.77785,-0.77785 l -7.00059,-4.14849 4.1485,7.00058 c 0.82555,1.44619 0.59634,1.84255 0.51856,2.07425 -2.50694,-2.16138 -5.45039,-4.36209 -9.85267,-6.22274 -0.48848,-0.2066 -0.50922,-0.58224 -1.03712,-0.77785 l -7.25986,-2.5928 z m -0.25929,9.85267 c 2.24351,0.93673 5.52652,1.75309 7.25987,2.85209 l 1.2964,1.03712 1.29641,-1.2964 c 0.73739,-0.70628 1.04448,-1.66903 1.2964,-2.59281 2.0952,1.36841 4.65648,2.55965 6.48201,4.14849 l 1.5557,1.55569 1.55568,-1.81497 c 0.30803,-0.41609 1.02986,-1.25613 1.55568,-2.33352 1.85356,1.50599 3.92271,2.9421 5.18562,4.66705 l 1.2964,1.55569 1.55569,-1.03713 c 1.26394,-0.8046 1.68398,-1.95756 2.07425,-3.11137 2.5114,2.51441 4.75407,5.05158 7.25987,7.77843 l 1.2964,1.2964 1.55568,-1.03712 c 0.63472,-0.46567 0.76748,-1.00591 1.03713,-1.55568 4.30987,4.9271 9.09091,11.23645 10.88979,18.14966 1.06762,4.10292 1.24424,8.03062 0,11.40836 -1.13109,3.07066 -3.7242,5.576047 -7.77842,7.778422 C 139.18934,72.762093 118.01076,62.367953 94.804403,54.452253 l -0.259282,-0.25928 -0.259282,-0.25928 -0.777836,0.25928 -1.814975,0.25928 0,1.81497 0,1.55568 1.296411,0.25928 0.259282,0.25928 c 0.2655,0.0902 0.513374,0.16854 0.777836,0.25929 28.975363,15.03339 45.777273,27.377728 55.226823,37.595723 -2.58254,8.317454 -9.06176,12.891724 -16.59398,15.297574 -5.6545,1.80607 -10.37413,1.47617 -15.03828,1.55569 l 0.51856,-1.55569 -1.29641,-1.03712 c -1.21395,-0.86226 -2.54655,-0.87451 -3.88921,-1.03713 -1.34255,-0.16273 -2.61033,-0.39784 -4.14849,-0.51856 -1.45239,-0.11398 -2.71301,-0.74984 -4.14849,-1.03712 0.14623,-0.19353 0.38685,-0.31103 0.51855,-0.51857 l 1.29641,-2.33352 -2.59281,-0.77784 c -3.49614,-1.11471 -5.920099,-2.42084 -8.815545,-3.62994 0.21883,-0.12777 0.297659,-0.10573 0.518565,-0.25928 l 2.852081,-1.814965 -3.111364,-1.814964 c -3.430597,-1.8485 -6.335058,-3.778684 -9.334113,-5.704186 0.574566,-0.216335 1.028824,-0.142493 1.555682,-0.777835 L 89.3595,88.158774 87.025971,86.862363 c -3.006818,-1.863022 -5.157298,-4.10296 -7.519138,-6.22274 0.540343,-0.18492 1.658151,0.0405 2.074246,-0.25928 l 2.074247,-1.2964 -1.814964,-1.81498 c -2.464829,-2.52494 -4.2128,-4.76143 -6.222739,-7.00057 1.082851,-0.15619 2.175565,-0.0602 3.111364,-0.77785 l 1.296411,-1.03712 -0.777847,-1.55569 c -0.988382,-2.22983 -2.733961,-3.24996 -4.407775,-4.66705 -0.671021,-0.56824 -1.16625,-1.63451 -1.814964,-2.33353 0.353661,-0.003 0.689686,0.0425 1.037118,0 0.607752,-0.0747 1.22557,-0.16428 2.074246,-1.03712 l 1.037129,-0.77785 -0.259282,-1.2964 c -1.012237,-4.12155 -2.780327,-6.35402 -4.407775,-8.81555 2.133566,-0.0156 4.310699,0.0311 6.222739,0 1.513683,-0.0249 2.910272,-0.19187 3.88921,-0.25928 0.489531,-0.0342 0.874301,0.084 1.296411,0 0.210535,-0.0425 0.284174,0.0228 0.777846,-0.25928 0.123413,-0.0705 0.340177,-0.34806 0.518553,-0.51856 0.09332,-0.0851 0.257206,-0.25576 0.259283,-0.25929 0.0023,-0.004 0.258244,-0.51503 0.259282,-0.51856 0.0023,-0.007 0.0023,-1.28904 0,-1.2964 -9.37e-4,-0.004 0.0023,-0.51483 0,-0.51856 -0.0023,-0.004 -0.17735,-0.16252 -0.259282,-0.25928 3.544474,0.15805 7.167147,0.11802 10.11196,1.03712 l 1.296399,0.51856 0.777847,-0.77784 c 0.809994,-0.63877 1.433612,-1.5211 1.555682,-2.59281 0.05191,-0.48869 -0.153496,-0.87471 -0.259282,-1.2964 2.636884,0.60288 5.460144,1.17491 7.778434,2.07424 l 1.2964,0.51856 1.03713,-0.77784 c 0.8411,-0.75938 1.33446,-1.98504 1.29639,-3.11137 z m 14.00117,31.89155 c 2.56262,1.30419 4.78456,3.00583 7.25986,4.40778 -1.90374,-1.30544 -5.1487,-3.05564 -7.25986,-4.40778 z"
     id="path12492-5"
     inkscape:connector-curvature="0" />
  <path
     style="font-size:medium;font-style:normal;font-variant:normal;font-weight:normal;font-stretch:normal;text-indent:0;text-align:start;text-decoration:none;line-height:normal;letter-spacing:normal;word-spacing:normal;text-transform:none;direction:ltr;block-progression:tb;writing-mode:lr-tb;text-anchor:start;baseline-shift:baseline;color:#000000;fill:#000000;fill-opacity:1;stroke:none;stroke-width:0.52228558;marker:none;visibility:visible;display:inline;overflow:visible;enable-background:accumulate;font-family:Sans;-inkscape-font-specification:Sans"
     d="m 239.48313,29.820573 -7.51915,2.5928 c -5.19588,1.92472 -7.87663,4.63507 -10.63051,7.00059 -0.0726,-0.2317 -0.30803,-0.62808 0.51856,-2.07425 l 3.88921,-7.00058 -6.7413,4.14849 c -0.35366,0.20359 -0.43766,0.56772 -0.77784,0.77785 -2.91514,1.80008 -5.25106,3.73161 -7.25986,5.96346 0.0311,-0.60226 0.008,-1.42548 0,-2.59281 l 0,-4.40778 -3.37066,2.85209 c -3.5786,2.91128 -5.80416,5.93989 -8.29699,8.81555 -0.13897,-0.51742 -0.38062,-0.86216 -0.51856,-1.55568 l -0.77785,-3.88922 -2.85208,2.85209 c -5.43763,5.27562 -11.82093,14.21906 -14.26045,23.59456 -1.21976,4.68776 -1.38424,9.53917 0.25928,14.00117 1.64363,4.462009 5.20553,8.20314 10.8898,10.889799 l 1.29641,0.777846 1.03712,-1.037128 c 6.88794,-5.684868 14.67343,-10.212587 22.55743,-14.779007 -8.9176,6.23114 -15.68929,12.02373 -20.48319,17.371817 l -0.77783,1.037129 0.25927,1.037117 c 2.70544,10.844764 11.23568,16.657994 19.96464,19.446074 8.32613,2.65941 16.712,2.57509 21.77959,2.33351 0.24476,-0.0114 0.80895,0.27277 1.03713,0.25929 l 0.77783,-4.14849 c -0.40551,-0.18855 -0.45426,-0.33033 -0.77783,-0.51857 0.89814,-0.0747 1.74008,-0.17195 2.85208,-0.25927 2.76518,-0.21697 6.02206,-1.01681 9.07483,-2.33353 0.51234,-0.22102 1.05807,0.0208 1.55569,-0.25928 l 5.18561,-2.85209 -5.70417,-1.03713 c -0.11616,-0.0238 -0.1535,0.0238 -0.25929,0 3.75108,-1.14744 7.37074,-2.60626 10.37124,-4.66706 0.43145,-0.29619 1.15826,-0.1872 1.55569,-0.51855 l 4.66706,-3.889222 -6.22275,0 c -0.11409,0 -0.15142,-0.0023 -0.25929,0 3.53079,-1.799911 6.99313,-3.382911 10.11196,-6.482021 l 3.62993,-3.629928 -4.92633,0 c -0.56627,-0.01343 -1.0226,0.01343 -1.55569,0 3.04085,-2.208321 6.19992,-4.458086 8.55627,-7.000586 l 3.88922,-4.14849 -5.96387,0.77783 c -1.19498,0.14541 -0.90542,0.0134 -1.5557,0 2.79226,-2.50528 5.9559,-4.74462 7.77843,-8.55626 l 2.33353,-4.66706 -4.92634,1.81497 c -0.61604,0.2122 -1.02364,0.14032 -1.55568,0.25928 0.27587,-0.23553 0.20846,-0.25565 0.51855,-0.51856 1.86321,-1.57739 4.33923,-3.78838 5.96347,-7.25987 l 1.55568,-3.62993 -3.88921,0.51856 c -1.0476,0.10164 -1.94875,0.19436 -2.85209,0.25929 1.19435,-3.15679 2.4166,-5.85491 4.14849,-8.29699 l 2.59281,-3.37066 -4.14849,-0.25928 c -3.0534,-0.0467 -6.88598,0.0488 -9.85268,0 l 0.25929,-0.51856 2.59281,-2.59281 -3.62993,-1.03712 c -5.50049,-1.48111 -10.33722,0.33758 -14.51974,1.55569 0.45012,-0.4803 0.82762,-0.94119 1.55569,-1.55569 l 5.4449,-4.92634 -7.25987,1.03713 c -3.76185,0.50217 -7.09049,1.57461 -10.37123,2.59281 0.59635,-0.53464 1.17661,-0.83344 1.81496,-1.55569 l 4.1485,-4.66706 -6.22274,1.03713 c -6.51345,1.23568 -9.26494,3.19673 -12.18621,4.92633 0.35574,-0.51596 0.85874,-1.21163 1.5557,-2.07424 l 4.92674,-5.96346 z m 0.25928,9.85267 c -0.0415,1.12631 0.4553,2.35217 1.2964,3.11137 l 1.03713,0.77784 1.2964,-0.51856 c 2.28831,-0.88736 4.92074,-1.47534 7.51915,-2.07424 -0.1037,0.41401 -0.31425,0.81829 -0.25928,1.2964 0.12238,1.0716 1.00601,1.95418 1.81496,2.59281 l 0.77785,0.77784 1.03713,-0.51856 c 2.96949,-0.92615 6.7973,-0.89234 10.37123,-1.03712 -0.0829,0.0965 -0.25721,0.25554 -0.25928,0.25928 -0.002,0.004 -0.25825,0.51493 -0.25929,0.51856 -0.002,0.007 0.25617,1.28932 0.25929,1.2964 10e-4,0.004 0.2572,0.51504 0.25928,0.51856 0.002,0.004 0.17009,0.17403 0.25928,0.25929 0.17839,0.1705 0.13586,0.44793 0.25928,0.51856 0.49367,0.28241 0.82658,0.21717 1.03712,0.25928 0.42107,0.084 0.80689,-0.0342 1.29641,0 0.97904,0.0674 2.11625,0.23418 3.62993,0.25928 1.99179,0.0332 4.26808,-0.0166 6.48202,0 -1.62755,2.46158 -3.3945,4.69297 -4.40777,8.81555 l -0.25929,1.2964 0.77785,0.77785 c 0.84941,0.87398 1.72598,0.96234 2.33353,1.03712 0.34639,0.0425 0.68243,-0.003 1.03713,0 -0.66169,0.71914 -1.1285,1.7524 -1.81498,2.33353 -1.67381,1.41707 -3.67857,2.4375 -4.66706,4.66705 l -0.51855,1.55569 1.2964,1.03712 c 0.93548,0.71831 2.02862,0.62165 3.11138,0.77785 -2.01421,2.2539 -4.00237,4.46049 -6.48202,7.00057 l -1.5557,1.81498 1.81497,1.2964 c 0.4024,0.28977 1.55621,0.0767 2.07425,0.25928 -2.36185,2.11971 -4.51221,4.359684 -7.51915,6.22274 l -2.07424,1.296411 1.55568,2.074246 c 0.56523,0.680455 1.19756,0.567514 1.81496,0.777835 -2.99894,1.925502 -5.9032,3.855742 -9.33411,5.704186 l -3.11136,1.814964 2.85209,1.814965 c 0.2292,0.15889 0.29247,0.12788 0.51855,0.25928 -2.89533,1.20907 -5.32002,2.5152 -8.81555,3.62994 l -2.85209,0.77784 1.55569,2.33352 c 0.13172,0.20764 0.37233,0.32504 0.51857,0.51857 -1.43539,0.28728 -2.69602,0.92314 -4.14851,1.03712 -1.53815,0.12072 -3.06511,0.35583 -4.40777,0.51856 -1.34265,0.16273 -2.41587,0.17487 -3.62993,1.03713 l -1.55568,1.03712 0.77784,1.55569 c -4.67328,-0.0757 -9.6159,0.25907 -15.29757,-1.55569 -7.53668,-2.40727 -14.01496,-6.97052 -16.59399,-15.297574 9.44841,-10.220895 26.5091,-22.558593 55.48612,-37.595733 0.26446,-0.0913 0.51234,-0.16915 0.77784,-0.25928 0.12653,-0.0653 0.13171,-0.19352 0.25928,-0.25928 l -0.51855,-1.03712 -0.25929,-0.77784 2.07425,0 0,-3.62994 -2.59281,1.55569 -0.25928,0 c -0.0726,0.027 -0.18253,-0.027 -0.25929,0 l -0.25824,0.25928 c -23.11768,7.90706 -44.19298,18.35429 -61.96813,32.669392 -4.05401,-2.20224 -6.64734,-4.707842 -7.77843,-7.778422 -1.24413,-3.37764 -1.3269,-7.30548 -0.25928,-11.40836 1.80066,-6.91999 6.83558,-13.22226 11.14908,-18.14967 0.26654,0.52323 0.42107,1.10909 1.03713,1.55569 l 1.55568,1.03712 1.2964,-1.2964 c 2.50632,-2.72696 4.74858,-5.26376 7.25987,-7.77843 0.39515,1.14202 0.56523,2.31557 1.81496,3.11137 l 1.81497,1.03713 1.2964,-1.55569 c 1.2625,-1.72442 3.33187,-3.16089 5.18563,-4.66705 0.52582,1.07739 1.24755,1.91742 1.55568,2.33352 l 1.29641,1.81497 1.81496,-1.55569 c 1.74071,-1.51493 4.26372,-2.57339 6.22274,-3.88921 0.27381,0.84868 0.87015,1.67658 1.55568,2.33353 l 1.03713,1.2964 1.55568,-1.03712 c 1.7627,-1.11727 4.95653,-1.90283 7.25987,-2.85209 z m -15.03829,32.41011 c -1.17008,0.75482 -3.04385,1.59345 -4.14849,2.33353 1.40301,-0.76892 2.71809,-1.5952 4.14849,-2.33353 z"
     id="path12494-9"
     inkscape:connector-curvature="0" />
  <path
     style="font-size:medium;font-style:normal;font-variant:normal;font-weight:normal;font-stretch:normal;text-indent:0;text-align:start;text-decoration:none;line-height:normal;letter-spacing:normal;word-spacing:normal;text-transform:none;direction:ltr;block-progression:tb;writing-mode:lr-tb;text-anchor:start;baseline-shift:baseline;color:#000000;fill:#000000;fill-opacity:1;stroke:none;stroke-width:0.52228558;marker:none;visibility:visible;display:inline;overflow:visible;enable-background:accumulate;font-family:Sans;-inkscape-font-specification:Sans"
     d="m 175.18148,223.76268 c -21.30605,0.1037 -38.74384,16.11939 -38.63286,36.04004 -6.3e-4,0.12445 -6.3e-4,0.13524 0,0.25886 0.11408,19.92157 17.84547,35.8839 39.15141,35.78077 21.30657,-0.1037 38.74393,-16.1189 38.63285,-36.04005 6.2e-4,-0.12445 6.2e-4,-0.13524 0,-0.25886 -0.11408,-19.9214 -17.84537,-35.8839 -39.1514,-35.78076 z m 0,4.14849 c 19.14654,-0.0933 34.64397,14.25041 34.74363,31.63227 6.2e-4,0.10787 6.2e-4,0.151 0,0.25886 0.0933,17.38228 -15.07791,31.79829 -34.22508,31.89155 -19.14654,0.0933 -34.64449,-14.25041 -34.74363,-31.63227 -5.2e-4,-0.10787 -5.2e-4,-0.151 0,-0.25886 -0.0933,-17.38161 15.07862,-31.79829 34.22508,-31.89155 z"
     id="path12496-8"
     inkscape:connector-curvature="0" />
  <path
     style="font-size:medium;font-style:normal;font-variant:normal;font-weight:normal;font-stretch:normal;text-indent:0;text-align:start;text-decoration:none;line-height:normal;letter-spacing:normal;word-spacing:normal;text-transform:none;direction:ltr;block-progression:tb;writing-mode:lr-tb;text-anchor:start;baseline-shift:baseline;color:#000000;fill:#000000;fill-opacity:1;stroke:none;stroke-width:0.52228558;marker:none;visibility:visible;display:inline;overflow:visible;enable-background:accumulate;font-family:Sans;-inkscape-font-specification:Sans"
     d="m 142.2528,156.60892 c -13.9823,-1.67947 -29.37206,5.9506 -38.63285,19.96464 -12.347677,18.68539 -9.588925,42.4527 6.7413,53.15257 16.33096,10.69938 39.50849,3.90639 51.85617,-14.779 12.3478,-18.6854 9.58966,-42.71257 -6.7413,-53.41187 -4.08274,-2.67478 -8.5626,-4.36654 -13.22332,-4.92634 z m -0.77785,4.40777 c 4.07642,0.47543 8.16268,1.85223 11.66764,4.14851 14.01973,9.18509 16.69831,30.15979 5.44491,47.18912 -11.25331,17.02931 -31.87299,22.92706 -45.89272,13.74188 -14.01921,-9.18568 -16.698207,-30.1598 -5.44489,-47.18912 8.44001,-12.77197 21.99603,-19.3163 34.22506,-17.89039 z"
     id="path12498-4"
     inkscape:connector-curvature="0" />
  <path
     style="font-size:medium;font-style:normal;font-variant:normal;font-weight:normal;font-stretch:normal;text-indent:0;text-align:start;text-decoration:none;line-height:normal;letter-spacing:normal;word-spacing:normal;text-transform:none;direction:ltr;block-progression:tb;writing-mode:lr-tb;text-anchor:start;baseline-shift:baseline;color:#000000;fill:#000000;fill-opacity:1;stroke:none;stroke-width:0.52228558;marker:none;visibility:visible;display:inline;overflow:visible;enable-background:accumulate;font-family:Sans;-inkscape-font-specification:Sans"
     d="m 207.3323,154.79395 c -4.66073,0.56005 -9.14059,2.25164 -13.22333,4.92634 -16.33034,10.6993 -19.08898,34.72647 -6.7413,53.41186 12.34779,18.6854 35.52573,25.4784 51.85618,14.77902 16.33096,-10.6993 18.82981,-34.46785 6.48202,-53.15259 -9.26078,-14.01402 -24.39128,-21.64386 -38.37357,-19.96463 z m 0.51856,4.40778 c 12.22904,-1.42567 26.04435,5.11841 34.48436,17.89038 11.25331,17.02866 8.31555,38.00403 -5.70418,47.18913 -14.0191,9.18501 -34.38002,3.28743 -45.63343,-13.74189 -11.25332,-17.02932 -8.57422,-38.00403 5.44489,-47.18913 3.50496,-2.2961 7.33205,-3.67324 11.40836,-4.14849 z"
     id="path12500-0"
     inkscape:connector-curvature="0" />
  <path
     style="font-size:medium;font-style:normal;font-variant:normal;font-weight:normal;font-stretch:normal;text-indent:0;text-align:start;text-decoration:none;line-height:normal;letter-spacing:normal;word-spacing:normal;text-transform:none;direction:ltr;block-progression:tb;writing-mode:lr-tb;text-anchor:start;baseline-shift:baseline;color:#000000;fill:#000000;fill-opacity:1;stroke:none;stroke-width:0.52228558;marker:none;visibility:visible;display:inline;overflow:visible;enable-background:accumulate;font-family:Sans;-inkscape-font-specification:Sans"
     d="m 77.432587,177.61067 c -14.240638,8.13188 -20.338102,21.55077 -20.742473,34.22508 -0.404484,12.67432 4.397303,24.8996 12.445477,31.37299 l 0.259282,0 0.259282,0.25886 c 2.462346,1.09372 5.339737,0.18668 7.259868,-1.55568 1.92013,-1.74278 3.279799,-4.1733 4.667056,-7.25987 2.774618,-6.17304 5.035229,-14.80166 6.222739,-23.33528 1.18751,-8.53361 1.407998,-17.14315 0.259282,-23.59455 -0.574566,-3.22571 -1.47437,-5.75181 -3.111375,-7.77844 -1.636994,-2.02661 -4.523931,-3.06689 -7.259856,-2.33352 l -0.259282,0 z m 1.555682,4.1485 c 0.06217,-0.0332 0.199127,0.0332 0.259282,0 1.094575,-0.23232 1.558379,-0.18171 2.333528,0.77742 0.853551,1.05654 1.829588,3.1332 2.333529,5.96347 1.008084,5.66062 0.625389,14.07791 -0.518565,22.29816 -1.143942,8.22024 -3.206679,16.48229 -5.704174,22.03887 -1.248702,2.77833 -2.46898,4.90983 -3.629939,5.96346 -1.054337,0.95695 -1.601833,1.045 -2.333528,0.77743 -6.483477,-5.39578 -11.249674,-16.20361 -10.889796,-27.48378 0.359879,-11.26499 5.601096,-22.9293 18.149663,-30.33586 z"
     id="path12502-7"
     inkscape:connector-curvature="0" />
  <path
     style="font-size:medium;font-style:normal;font-variant:normal;font-weight:normal;font-stretch:normal;text-indent:0;text-align:start;text-decoration:none;line-height:normal;letter-spacing:normal;word-spacing:normal;text-transform:none;direction:ltr;block-progression:tb;writing-mode:lr-tb;text-anchor:start;baseline-shift:baseline;color:#000000;fill:#000000;fill-opacity:1;stroke:none;stroke-width:0.52228558;marker:none;visibility:visible;display:inline;overflow:visible;enable-background:accumulate;font-family:Sans;-inkscape-font-specification:Sans"
     d="m 268.26331,176.57356 c -2.73603,-0.73346 -5.62276,0.30698 -7.25986,2.33352 -1.63711,2.02679 -2.53701,4.81175 -3.11137,8.03771 -1.14872,6.45182 -0.66895,15.06053 0.51856,23.59456 1.18771,8.53403 3.18864,16.90271 5.96346,23.07599 1.38746,3.08665 3.0061,5.77637 4.92634,7.51915 1.92023,1.74278 4.53825,2.3902 7.00058,1.29641 l 0.25928,0 0.25928,-0.25928 c 8.04787,-6.47382 13.10925,-18.43865 12.70476,-31.11371 -0.40447,-12.67506 -6.50172,-26.09311 -20.74247,-34.22508 l -0.25928,-0.25887 -0.25928,0 z m -1.2964,4.14849 c 0.0623,0.0332 0.19912,-0.0332 0.25928,0 12.54857,7.40656 17.53091,19.07005 17.89038,30.33586 0.35988,11.28108 -4.14735,22.08766 -10.63051,27.48377 -0.73222,0.26717 -1.27909,0.17922 -2.33353,-0.77743 -1.16096,-1.05371 -2.64032,-3.18504 -3.88922,-5.96345 -2.4977,-5.55683 -4.56012,-13.81823 -5.70418,-22.03888 -1.14405,-8.22066 -1.26726,-16.37784 -0.25928,-22.03888 0.50404,-2.83052 1.2207,-4.90667 2.07425,-5.96346 0.7851,-0.97188 1.46753,-1.28495 2.59281,-1.03711 z"
     id="path12504-6"
     inkscape:connector-curvature="0" />
  <path
     style="font-size:medium;font-style:normal;font-variant:normal;font-weight:normal;font-stretch:normal;text-indent:0;text-align:start;text-decoration:none;line-height:normal;letter-spacing:normal;word-spacing:normal;text-transform:none;direction:ltr;block-progression:tb;writing-mode:lr-tb;text-anchor:start;baseline-shift:baseline;color:#000000;fill:#000000;fill-opacity:1;stroke:none;stroke-width:0.52228558;marker:none;visibility:visible;display:inline;overflow:visible;enable-background:accumulate;font-family:Sans;-inkscape-font-specification:Sans"
     d="m 211.74007,122.9024 c -1.17329,0.19717 -2.50807,1.06592 -2.85208,2.33353 -0.34433,1.26762 -0.15972,2.35658 0.25928,3.37066 0.83799,2.02814 2.49698,4.16089 4.66705,6.7413 4.34016,5.16081 10.87487,11.61375 17.89039,17.6311 7.01551,6.0173 14.3961,11.60484 20.22391,15.03829 2.91389,1.71673 5.53553,2.95406 7.77842,3.37065 1.12144,0.20826 2.2098,0.35429 3.37066,-0.25886 1.16084,-0.61398 1.97727,-2.14519 2.07424,-3.37066 0.4916,-15.89541 -5.45599,-28.68823 -15.29757,-36.5586 -9.84147,-7.87037 -23.46824,-10.77015 -38.1143,-8.29699 z m 1.5557,4.1485 c 13.29384,-2.04478 25.13282,0.66262 33.70651,7.51914 8.63882,6.90857 14.04307,17.93428 13.74189,32.41012 -0.11512,0.002 -0.0208,0.0415 -0.25928,0 -1.19425,-0.22153 -3.51181,-0.99564 -6.22274,-2.59281 -5.42189,-3.19435 -12.82187,-8.87487 -19.70536,-14.77901 -6.88391,-5.90412 -13.29934,-12.26947 -17.37223,-17.11254 -2.03639,-2.42153 -3.41732,-4.3026 -3.88921,-5.4449 z"
     id="path12506-3"
     inkscape:connector-curvature="0" />
  <path
     style="font-size:medium;font-style:normal;font-variant:normal;font-weight:normal;font-stretch:normal;text-indent:0;text-align:start;text-decoration:none;line-height:normal;letter-spacing:normal;word-spacing:normal;text-transform:none;direction:ltr;block-progression:tb;writing-mode:lr-tb;text-anchor:start;baseline-shift:baseline;color:#000000;fill:#000000;fill-opacity:1;stroke:none;stroke-width:0.52228558;marker:none;visibility:visible;display:inline;overflow:visible;enable-background:accumulate;font-family:Sans;-inkscape-font-specification:Sans"
     d="m 134.21509,121.86529 c -14.64729,-2.47315 -28.27312,0.68522 -38.114287,8.55626 -9.841157,7.87101 -15.789888,20.40513 -15.29757,36.29933 l 0,0.25886 c 0.09332,1.22547 0.913705,2.49764 2.074246,3.11138 1.160857,0.61397 2.249215,0.46794 3.370657,0.25886 2.242885,-0.41651 4.864526,-1.39456 7.778421,-3.11137 5.827812,-3.43362 13.208393,-9.02082 20.223903,-15.03829 7.01553,-6.01745 13.55033,-12.47022 17.89039,-17.6311 2.17007,-2.58044 3.82926,-4.97243 4.66705,-7.00058 0.419,-1.0141 0.6036,-1.84376 0.25928,-3.11138 -0.34432,-1.26761 -1.67879,-2.39569 -2.85209,-2.59281 z m -1.81497,4.40777 c -0.53931,1.17681 -1.69973,3.1497 -3.62993,5.44489 -4.07289,4.84314 -10.48832,11.20832 -17.37181,17.11255 -6.88349,5.90421 -14.283366,11.32522 -19.705352,14.51972 -2.710931,1.59726 -5.028379,2.63023 -6.222738,2.85209 -0.298686,0.0581 -0.153496,0.006 -0.259283,0 -0.302838,-14.47825 5.101929,-25.49982 13.741889,-32.41011 8.457644,-6.76443 20.367654,-9.40374 33.447224,-7.51914 z"
     id="path12508-6"
     inkscape:connector-curvature="0" />
  <path
     style="font-size:medium;font-style:normal;font-variant:normal;font-weight:normal;font-stretch:normal;text-indent:0;text-align:start;text-decoration:none;line-height:normal;letter-spacing:normal;word-spacing:normal;text-transform:none;direction:ltr;block-progression:tb;writing-mode:lr-tb;text-anchor:start;baseline-shift:baseline;color:#000000;fill:#000000;fill-opacity:1;stroke:none;stroke-width:0.52228558;marker:none;visibility:visible;display:inline;overflow:visible;enable-background:accumulate;font-family:Sans;-inkscape-font-specification:Sans"
     d="m 174.40363,114.60542 c -8.9147,-0.1648 -17.43053,3.21897 -23.85385,7.51915 -3.24328,2.17125 -6.07204,4.50881 -8.0377,7.00058 -1.96566,2.49177 -3.35686,5.12404 -3.37066,7.77842 -0.0415,5.63261 4.13554,10.76414 10.37124,14.51974 6.23571,3.75554 14.87505,6.35938 25.15025,6.48202 10.42713,0.0747 18.92792,-1.88484 25.15025,-5.18562 6.22232,-3.30077 10.33171,-8.29832 10.37123,-14.00117 0.0415,-6.59992 -5.34835,-12.48682 -12.18621,-16.85325 -6.76919,-4.32262 -15.3601,-7.28798 -23.33527,-7.25987 -0.0829,2.8e-4 -0.17839,-8.9e-4 -0.25928,0 z m 0,4.40777 0.25928,0 c 6.93047,-0.0767 14.84456,2.55024 21.00176,6.48202 6.15719,3.93179 10.13984,9.14052 10.11195,13.22333 -0.0208,3.72635 -2.43019,7.27486 -7.77844,10.11196 -5.34823,2.83709 -13.45781,4.73849 -23.33527,4.66705 -9.6074,-0.11449 -17.65465,-2.43907 -23.076,-5.70418 -5.42135,-3.26509 -8.06125,-7.38611 -8.0377,-10.8898 0.006,-1.10535 0.72391,-2.8861 2.33353,-4.92634 1.6095,-2.04022 4.08055,-4.26789 7.00057,-6.22273 5.84004,-3.90969 13.65508,-6.94649 21.52032,-6.74131 z"
     id="path12510-1"
     inkscape:connector-curvature="0" />
  <path
     style="font-size:medium;font-style:normal;font-variant:normal;font-weight:normal;font-stretch:normal;text-indent:0;text-align:start;text-decoration:none;line-height:normal;letter-spacing:normal;word-spacing:normal;text-transform:none;direction:ltr;block-progression:tb;writing-mode:lr-tb;text-anchor:start;baseline-shift:baseline;color:#000000;fill:#000000;fill-opacity:1;stroke:none;stroke-width:0.52228558;marker:none;visibility:visible;display:inline;overflow:visible;enable-background:accumulate;font-family:Sans;-inkscape-font-specification:Sans"
     d="m 175.44075,302.0655 c -7.60243,-0.15515 -17.0332,1.31475 -24.63169,3.88921 -3.83818,1.30047 -7.0124,2.75444 -9.59338,4.66706 -2.47687,1.83547 -4.34711,4.40819 -4.40778,7.25987 -9.3e-4,0.0498 -0.25928,-0.0498 -0.25928,0 -0.005,0.11114 0.25825,0.15017 0.25928,0.25886 0.0208,2.43608 1.37584,4.69576 3.37065,7.00059 2.0841,2.40803 4.80157,4.91215 8.29699,7.25986 6.99083,4.69544 16.44028,8.45778 26.18737,8.03771 l 0,0.25887 c 9.43917,0.16261 18.67559,-4.12502 25.6688,-9.07483 3.49667,-2.47492 6.45071,-5.13418 8.55628,-7.77843 2.10556,-2.64426 3.46616,-5.07294 3.37065,-7.77843 -0.0102,-2.78181 -1.77161,-5.03419 -4.1485,-6.74131 -2.37688,-1.7071 -5.54156,-3.02408 -9.07483,-4.14849 -6.99021,-2.2245 -15.73244,-3.40931 -23.33528,-3.11136 -0.0829,0.003 -0.17631,-0.003 -0.25928,0 z m 0,4.40778 0.25928,0 c 7.05099,-0.30782 15.54618,0.78572 22.03888,2.85209 3.2464,1.03318 5.98276,2.34025 7.77842,3.62993 1.79568,1.28968 2.32928,2.3239 2.33353,3.11137 0.0311,0.76083 -0.55589,2.95306 -2.33353,5.18562 -1.77772,2.23255 -4.57246,4.73136 -7.77842,7.00059 -6.41191,4.53836 -14.95003,8.178 -23.076,8.0377 l -0.25928,0 c -8.44416,0.36423 -16.91746,-3.20853 -23.33528,-7.51915 -3.20886,-2.15531 -6.01501,-4.44453 -7.77842,-6.48202 -1.76332,-2.03748 -2.33924,-4.01583 -2.33353,-4.14849 l 0,-0.25887 c -0.0311,-0.9697 0.58907,-2.14477 2.59281,-3.62993 2.00402,-1.48516 5.25479,-2.94203 8.81555,-4.1485 7.12161,-2.41284 16.10051,-3.80441 23.07599,-3.62993 z"
     id="path12512-5"
     inkscape:connector-curvature="0" />
  <path
     style="font-size:medium;font-style:normal;font-variant:normal;font-weight:normal;font-stretch:normal;text-indent:0;text-align:start;text-decoration:none;line-height:normal;letter-spacing:normal;word-spacing:normal;text-transform:none;direction:ltr;block-progression:tb;writing-mode:lr-tb;text-anchor:start;baseline-shift:baseline;color:#000000;fill:#000000;fill-opacity:1;stroke:none;stroke-width:0.52228558;marker:none;visibility:visible;display:inline;overflow:visible;enable-background:accumulate;font-family:Sans;-inkscape-font-specification:Sans"
     d="m 91.95231,241.65306 c -3.432673,-0.14023 -6.669424,0.55257 -9.593384,2.33353 l -0.259282,0 c -4.272119,3.25075 -6.273776,9.78945 -6.22275,17.37181 0.05191,7.58237 2.27431,16.4974 7.259867,25.40953 l 0.259282,0 0,0.25887 c 7.39075,10.61665 16.319658,16.58542 24.631687,19.18679 8.31202,2.60135 15.83045,1.92605 20.74246,-1.03713 l 0.25928,0 0,-0.25887 c 2.73168,-2.04239 4.23935,-5.2631 4.92634,-8.81555 0.68761,-3.55244 0.48123,-7.50205 -0.25928,-11.66764 -1.4804,-8.33117 -5.35748,-17.18854 -10.88979,-23.85383 -6.17452,-7.16454 -13.16182,-13.10244 -20.22391,-16.3347 -3.530986,-1.61618 -7.197846,-2.45293 -10.63052,-2.59281 z m -7.259856,5.96345 c 4.260711,-2.59521 9.795943,-2.09622 16.075406,0.77743 6.22669,2.84994 12.85608,8.33457 18.66822,15.03829 4.94252,5.95467 8.77147,14.2359 10.11196,21.7796 0.66998,3.77189 0.80792,7.27455 0.25928,10.11195 -0.52168,2.69644 -1.60236,4.72083 -3.11138,5.96347 -3.3583,2.02595 -10.00543,3.08324 -17.3718,0.77743 -7.28279,-2.27919 -15.462374,-7.69621 -22.298169,-17.37183 -4.641126,-8.29641 -6.695772,-16.83318 -6.741303,-23.59455 -0.04152,-6.76139 1.919928,-11.58957 4.407786,-13.48261 z"
     id="path12514-4"
     inkscape:connector-curvature="0" />
  <path
     style="font-size:medium;font-style:normal;font-variant:normal;font-weight:normal;font-stretch:normal;text-indent:0;text-align:start;text-decoration:none;line-height:normal;letter-spacing:normal;word-spacing:normal;text-transform:none;direction:ltr;block-progression:tb;writing-mode:lr-tb;text-anchor:start;baseline-shift:baseline;color:#000000;fill:#000000;fill-opacity:1;stroke:none;stroke-width:0.52228558;marker:none;visibility:visible;display:inline;overflow:visible;enable-background:accumulate;font-family:Sans;-inkscape-font-specification:Sans"
     d="m 256.33639,236.46744 c -3.29805,0.0663 -6.7609,1.10233 -10.11196,2.85209 -6.7021,3.4995 -13.38107,9.67852 -19.96462,17.11253 l -0.51857,0.77743 0,0.25887 c -5.60399,6.89746 -10.228,15.95627 -12.18619,24.63168 -2.04076,9.04149 -1.77774,17.96075 3.37064,22.81672 l 0.25929,0 c 4.73416,3.62885 12.49837,4.90037 21.26103,2.59281 8.76275,-2.30755 18.34558,-8.2053 26.44665,-19.44606 6.12307,-7.85809 8.13655,-18.11391 7.77843,-27.2245 -0.35885,-9.11059 -2.67713,-17.21111 -6.74131,-21.26103 l -0.25927,0 c -2.78998,-2.1578 -6.03596,-3.18032 -9.33412,-3.11137 z m 0,4.14849 c 2.31134,-0.0747 4.523,0.64717 6.48202,2.07424 0.0208,0.0166 -0.0208,0.24145 0,0.25888 2.41411,2.52692 5.1207,9.64018 5.4449,17.89038 0.32876,8.35971 -1.48143,17.88125 -6.74131,24.63168 -7.57441,10.50996 -16.36984,15.85131 -24.11312,17.89038 -7.61715,2.00588 -14.14024,0.54179 -17.37181,-1.81496 -3.11957,-2.94236 -3.95508,-10.07603 -2.07425,-18.40894 1.88082,-8.33292 6.03512,-17.55983 11.40836,-23.85385 l 0.51855,-0.51856 c 6.20895,-6.92168 12.69471,-12.57317 18.40895,-15.55686 2.94377,-1.5371 5.61437,-2.51249 8.03771,-2.5928 z"
     id="path12516-2"
     inkscape:connector-curvature="0" />
  <g
     transform="matrix(8.2969886,0,0,8.2969886,-577.47326,-677.75699)"
     style="font-size:5.89602375px;font-style:normal;font-variant:normal;font-weight:normal;font-stretch:normal;text-align:center;line-height:125%;letter-spacing:0px;word-spacing:0px;text-anchor:middle;fill:#000000;fill-opacity:1;stroke:none;font-family:Consolas for Powerline FixedD;-inkscape-font-specification:Consolas for Powerline FixedD"
     id="text25617">
    <path
       inkscape:connector-curvature="0"
       d="m 71.812824,127.41233 0,0.74276 0.21304,0 c 0.142025,0 0.243267,0.0274 0.303726,0.0821 0.06046,0.0547 0.09068,0.12619 0.09069,0.21448 -2e-6,0.0864 -0.03023,0.1569 -0.09069,0.2116 -0.06046,0.0547 -0.161701,0.0821 -0.303726,0.0821 l -0.895344,0 c -0.142027,0 -0.243268,-0.0274 -0.303725,-0.0821 -0.06046,-0.0547 -0.09069,-0.12619 -0.09069,-0.21448 0,-0.0864 0.03071,-0.1569 0.09212,-0.2116 0.06142,-0.0547 0.162179,-0.0821 0.302286,-0.0821 l 0.09213,0 0,-2.30889 -0.09213,0 c -0.142027,0 -0.243268,-0.0273 -0.303725,-0.082 -0.06046,-0.0547 -0.09069,-0.12619 -0.09069,-0.21448 0,-0.0883 0.03023,-0.15978 0.09069,-0.21448 0.06046,-0.0547 0.161698,-0.082 0.303725,-0.082 l 1.335818,0.003 c 0.416481,0 0.7394,0.10317 0.968756,0.30949 0.229351,0.20632 0.344028,0.45727 0.344031,0.75283 -3e-6,0.18426 -0.05374,0.35171 -0.16122,0.50237 -0.107482,0.15067 -0.269661,0.28454 -0.486537,0.40161 0.124751,0.1094 0.25814,0.24951 0.40017,0.42032 0.08828,0.1094 0.207279,0.28022 0.356986,0.51245 0.1497,0 0.248543,0.0154 0.296528,0.0461 0.08636,0.0595 0.129548,0.14299 0.129552,0.25047 -4e-6,0.0864 -0.02975,0.1569 -0.08925,0.2116 -0.0595,0.0547 -0.160263,0.0821 -0.302286,0.0821 l -0.336834,0 c -0.477903,-0.73892 -0.874233,-1.18323 -1.188993,-1.33294 z m 0,-0.59018 0.460627,0 c 0.170814,0 0.323396,-0.0259 0.457748,-0.0777 0.18041,-0.0691 0.301804,-0.14202 0.364183,-0.2188 0.06237,-0.0768 0.09356,-0.15258 0.09356,-0.22743 -3e-6,-0.11132 -0.0595,-0.21448 -0.178493,-0.30948 -0.118998,-0.095 -0.292692,-0.14251 -0.521084,-0.14251 l -0.676546,0 z"
       style="font-weight:bold;line-height:125%;writing-mode:lr-tb;fill:#000000;font-family:Courier New;-inkscape-font-specification:Courier New Bold"
       id="path4881" />
    <path
       inkscape:connector-curvature="0"
       d="m 76.488187,128.74527 0,-0.13819 c -0.147787,0.0787 -0.310926,0.13771 -0.489416,0.17706 -0.178495,0.0393 -0.340674,0.059 -0.486538,0.059 -0.316682,0 -0.573865,-0.084 -0.77155,-0.2519 -0.197686,-0.16794 -0.296528,-0.35363 -0.296528,-0.55707 0,-0.24759 0.126192,-0.47742 0.378578,-0.6895 0.252384,-0.21208 0.601212,-0.31812 1.046486,-0.31812 0.178491,0 0.384814,0.0192 0.618968,0.0576 l 0,-0.14106 c -3e-6,-0.0883 -0.03791,-0.16026 -0.113718,-0.21592 -0.07581,-0.0557 -0.220239,-0.0835 -0.433277,-0.0835 -0.174656,0 -0.40113,0.0346 -0.679424,0.10364 -0.103642,0.025 -0.184252,0.0374 -0.24183,0.0374 -0.07869,0 -0.145386,-0.0283 -0.200084,-0.0849 -0.0547,-0.0566 -0.08205,-0.12907 -0.08205,-0.21736 -10e-7,-0.0499 0.0096,-0.0931 0.02879,-0.12955 0.01919,-0.0365 0.04606,-0.0657 0.08061,-0.0878 0.03455,-0.0221 0.10652,-0.0485 0.215919,-0.0792 0.145864,-0.0403 0.294608,-0.0725 0.446233,-0.0964 0.151621,-0.024 0.288849,-0.036 0.411685,-0.036 0.36658,0 0.651113,0.0792 0.853599,0.23751 0.202481,0.15835 0.303723,0.37474 0.303726,0.6492 l 0,1.2149 0.100762,0 c 0.142023,0 0.243265,0.0274 0.303726,0.0821 0.06045,0.0547 0.09068,0.12619 0.09069,0.21448 -4e-6,0.0864 -0.03023,0.1569 -0.09069,0.2116 -0.06046,0.0547 -0.161703,0.0821 -0.303726,0.0821 z m 0,-1.05656 c -0.236074,-0.0461 -0.453912,-0.0691 -0.653515,-0.0691 -0.239911,0 -0.446233,0.0585 -0.618967,0.17562 -0.107481,0.0748 -0.16122,0.15066 -0.16122,0.22743 0,0.0557 0.02591,0.10076 0.07773,0.13531 0.09596,0.0633 0.227434,0.095 0.394412,0.095 0.142025,1e-5 0.302765,-0.0278 0.482219,-0.0835 0.17945,-0.0557 0.33923,-0.13147 0.47934,-0.22744 z"
       style="font-weight:bold;line-height:125%;writing-mode:lr-tb;fill:#000000;font-family:Courier New;-inkscape-font-specification:Courier New Bold"
       id="path4883" />
    <path
       inkscape:connector-curvature="0"
       d="m 80.130018,126.82215 c -0.09597,-0.0595 -0.196728,-0.10412 -0.302287,-0.13387 -0.105562,-0.0297 -0.21592,-0.0446 -0.331075,-0.0446 -0.228396,0 -0.409768,0.0374 -0.544116,0.11228 -0.0595,0.0326 -0.08925,0.0681 -0.08925,0.10652 -1e-6,0.0441 0.0403,0.0873 0.120914,0.12955 0.06142,0.0307 0.198644,0.0605 0.411686,0.0893 0.39153,0.0537 0.664068,0.10748 0.817612,0.16121 0.201522,0.071 0.356983,0.17658 0.466385,0.31669 0.109396,0.1401 0.164095,0.28789 0.164098,0.44335 -3e-6,0.21112 -0.09309,0.38769 -0.279255,0.52972 -0.266782,0.20536 -0.613211,0.30804 -1.039289,0.30804 -0.170817,0 -0.328678,-0.0149 -0.473582,-0.0446 -0.144907,-0.0298 -0.277817,-0.0734 -0.39873,-0.13099 -0.02879,0.0249 -0.0595,0.0441 -0.09212,0.0576 -0.03263,0.0134 -0.06622,0.0202 -0.100763,0.0202 -0.09213,0 -0.165538,-0.0302 -0.220237,-0.0907 -0.0547,-0.0605 -0.08205,-0.16169 -0.08205,-0.30372 l 0,-0.19865 c 0,-0.14202 0.02735,-0.24326 0.08205,-0.30372 0.0547,-0.0605 0.126192,-0.0907 0.21448,-0.0907 0.07101,0 0.13051,0.0197 0.178492,0.059 0.04798,0.0393 0.08541,0.107 0.112278,0.20296 0.0902,0.0768 0.198644,0.13483 0.325318,0.17418 0.126671,0.0393 0.272536,0.059 0.437596,0.059 0.270616,0 0.480777,-0.0422 0.630483,-0.12668 0.07101,-0.0422 0.106517,-0.0864 0.106519,-0.13243 -2e-6,-0.0768 -0.05086,-0.1401 -0.152582,-0.19001 -0.101724,-0.0499 -0.311885,-0.0921 -0.630483,-0.12667 -0.474063,-0.0499 -0.790744,-0.14586 -0.950043,-0.28789 -0.159301,-0.14011 -0.238951,-0.31284 -0.23895,-0.5182 -10e-7,-0.21112 0.08925,-0.38674 0.267739,-0.52685 0.241828,-0.19192 0.558509,-0.28789 0.950043,-0.28789 0.136267,0 0.267258,0.013 0.392972,0.0389 0.125711,0.0259 0.246145,0.0657 0.361304,0.11947 0.03646,-0.0269 0.07053,-0.047 0.102202,-0.0605 0.03167,-0.0134 0.06093,-0.0202 0.08781,-0.0202 0.08061,0 0.147782,0.0302 0.201524,0.0907 0.05374,0.0605 0.08061,0.1617 0.08061,0.30372 l 0,0.14395 c -3e-6,0.12859 -0.01536,0.21592 -0.04606,0.26198 -0.06142,0.0883 -0.144908,0.13243 -0.250466,0.13243 -0.07102,0 -0.133392,-0.0221 -0.187129,-0.0662 -0.05374,-0.0441 -0.08829,-0.10268 -0.103641,-0.17562 z"
       style="font-weight:bold;line-height:125%;writing-mode:lr-tb;fill:#000000;font-family:Courier New;-inkscape-font-specification:Courier New Bold"
       id="path4885" />
    <path
       inkscape:connector-curvature="0"
       d="m 82.294965,128.41995 0,0.96732 0.354106,0 c 0.142026,0 0.243267,0.0274 0.303726,0.0821 0.06046,0.0547 0.09068,0.12619 0.09069,0.21448 -2e-6,0.0864 -0.03023,0.1569 -0.09069,0.2116 -0.06046,0.0547 -0.1617,0.0821 -0.303726,0.0821 l -1.045047,0 c -0.142027,0 -0.243268,-0.0274 -0.303726,-0.0821 -0.06046,-0.0547 -0.09068,-0.12524 -0.09068,-0.2116 0,-0.0883 0.03071,-0.15978 0.09212,-0.21448 0.06142,-0.0547 0.162179,-0.0821 0.302286,-0.0821 l 0.100762,0 0,-2.66588 -0.100762,0 c -0.142027,0 -0.243268,-0.0273 -0.303726,-0.082 -0.06046,-0.0547 -0.09068,-0.12619 -0.09068,-0.21448 0,-0.0864 0.03023,-0.1569 0.09068,-0.2116 0.06046,-0.0547 0.161699,-0.0821 0.303726,-0.0821 l 0.690941,0 0,0.20153 c 0.138186,-0.094 0.281173,-0.1641 0.428958,-0.21016 0.147783,-0.0461 0.299406,-0.0691 0.454869,-0.0691 0.403047,0 0.746597,0.13675 1.030653,0.41025 0.28405,0.2735 0.426076,0.58682 0.42608,0.93996 -4e-6,0.38962 -0.16794,0.7111 -0.503811,0.96444 -0.280217,0.21112 -0.595938,0.31668 -0.947164,0.31668 -0.151625,0 -0.301328,-0.0221 -0.449111,-0.0662 -0.147786,-0.0441 -0.29461,-0.11036 -0.440474,-0.19865 z m 1.750382,-1.01338 c -3e-6,-0.0825 -0.03263,-0.1876 -0.09788,-0.31524 -0.06526,-0.12763 -0.16554,-0.23415 -0.300847,-0.31956 -0.135311,-0.0854 -0.294131,-0.12811 -0.47646,-0.12811 -0.293652,0 -0.526844,0.11036 -0.699577,0.33108 -0.117078,0.15162 -0.175615,0.29748 -0.175614,0.43759 -10e-7,0.15738 0.08397,0.31045 0.251905,0.45919 0.167935,0.14874 0.375697,0.22311 0.623286,0.22311 0.249504,0 0.457745,-0.0739 0.624725,-0.22167 0.166974,-0.14779 0.250463,-0.30325 0.250466,-0.46639 z"
       style="font-weight:bold;line-height:125%;writing-mode:lr-tb;fill:#000000;font-family:Courier New;-inkscape-font-specification:Courier New Bold"
       id="path4887" />
    <path
       inkscape:connector-curvature="0"
       d="m 85.81876,125.01131 0,1.32431 c 0.143944,-0.0941 0.290289,-0.16458 0.439035,-0.2116 0.148742,-0.047 0.298925,-0.0705 0.45055,-0.0705 0.408804,0 0.755234,0.14107 1.03929,0.4232 0.28405,0.28214 0.426076,0.62281 0.426079,1.02202 -3e-6,0.38194 -0.135312,0.70102 -0.405927,0.95724 -0.270621,0.25622 -0.627606,0.38433 -1.070957,0.38433 -0.157383,0 -0.309006,-0.0202 -0.454869,-0.0605 -0.145867,-0.0403 -0.286934,-0.0998 -0.423201,-0.1785 l 0,0.14395 -0.690941,0 c -0.142026,0 -0.243268,-0.0274 -0.303725,-0.0821 -0.06046,-0.0547 -0.09069,-0.12619 -0.09069,-0.21448 0,-0.0864 0.03071,-0.1569 0.09212,-0.2116 0.06142,-0.0547 0.162179,-0.0821 0.302286,-0.0821 l 0.100762,0 0,-2.5536 -0.100762,0 c -0.142026,0 -0.243268,-0.0273 -0.303725,-0.082 -0.06046,-0.0547 -0.09069,-0.12619 -0.09069,-0.21448 0,-0.0864 0.03023,-0.15689 0.09069,-0.2116 0.06046,-0.0547 0.161699,-0.082 0.303725,-0.0821 z m 1.764776,2.50466 c -3e-6,-0.24375 -0.08541,-0.45007 -0.256223,-0.61897 -0.170819,-0.16889 -0.38002,-0.25334 -0.627604,-0.25334 -0.24567,0 -0.453911,0.0845 -0.624726,0.25334 -0.170817,0.1689 -0.256224,0.37235 -0.256223,0.61034 -10e-7,0.21687 0.07677,0.39489 0.230313,0.53403 0.153541,0.13915 0.370419,0.20873 0.650636,0.20873 0.280212,0 0.49757,-0.0696 0.652074,-0.20873 0.1545,-0.13914 0.23175,-0.31428 0.231753,-0.5254 z"
       style="font-weight:bold;line-height:125%;writing-mode:lr-tb;fill:#000000;font-family:Courier New;-inkscape-font-specification:Courier New Bold"
       id="path4889" />
    <path
       inkscape:connector-curvature="0"
       d="m 91.579474,127.73765 -2.42117,0 c 0.06142,0.15354 0.170335,0.27734 0.326757,0.37138 0.15642,0.094 0.36802,0.14107 0.634802,0.14107 0.218795,0 0.509566,-0.047 0.872312,-0.14107 0.149701,-0.0384 0.253341,-0.0576 0.310923,-0.0576 0.07869,0 0.144902,0.0278 0.198645,0.0835 0.05374,0.0557 0.08061,0.12571 0.08061,0.21016 -3e-6,0.0768 -0.02879,0.14203 -0.08637,0.19577 -0.07677,0.071 -0.263903,0.13866 -0.561389,0.20296 -0.29749,0.0643 -0.583462,0.0964 -0.857917,0.0964 -0.472144,0 -0.849762,-0.13339 -1.132854,-0.40017 -0.283094,-0.26677 -0.424641,-0.59497 -0.424641,-0.98459 0,-0.41456 0.153062,-0.75187 0.459188,-1.01194 0.306124,-0.26005 0.658791,-0.39009 1.058002,-0.39009 0.239908,0 0.460145,0.0422 0.660712,0.12667 0.200562,0.0845 0.349785,0.17562 0.447671,0.2735 0.138185,0.14203 0.252382,0.31764 0.342592,0.52684 0.06141,0.14587 0.09212,0.31477 0.09213,0.50669 z m -0.653514,-0.59018 c -0.09021,-0.16889 -0.208245,-0.29509 -0.354107,-0.37858 -0.145868,-0.0835 -0.319562,-0.12523 -0.521084,-0.12523 -0.199607,0 -0.372342,0.0418 -0.518206,0.12523 -0.145866,0.0835 -0.264861,0.20969 -0.356986,0.37858 z"
       style="font-weight:bold;line-height:125%;writing-mode:lr-tb;fill:#000000;font-family:Courier New;-inkscape-font-specification:Courier New Bold"
       id="path4891" />
    <path
       inkscape:connector-curvature="0"
       d="m 93.511229,126.13121 0,0.3685 c 0.247585,-0.17849 0.442872,-0.29748 0.58586,-0.35698 0.142984,-0.0595 0.276853,-0.0893 0.401609,-0.0893 0.191925,0 0.378095,0.071 0.55851,0.21304 0.122831,0.096 0.184248,0.19385 0.184251,0.29365 -3e-6,0.0845 -0.02927,0.15594 -0.08781,0.21448 -0.05854,0.0585 -0.129075,0.0878 -0.211601,0.0878 -0.07294,0 -0.149706,-0.0365 -0.230313,-0.1094 -0.08061,-0.0729 -0.152585,-0.1094 -0.215919,-0.1094 -0.08253,0 -0.205845,0.0518 -0.369941,0.15546 -0.1641,0.10364 -0.368983,0.25911 -0.614649,0.46639 l 0,0.88958 0.840644,0 c 0.142024,0 0.243266,0.0274 0.303726,0.0821 0.06046,0.0547 0.09068,0.12619 0.09069,0.21448 -3e-6,0.0864 -0.03023,0.1569 -0.09069,0.2116 -0.06046,0.0547 -0.161702,0.0821 -0.303726,0.0821 l -1.78205,0 c -0.142027,0 -0.243269,-0.0274 -0.303726,-0.0821 -0.06046,-0.0547 -0.09069,-0.12619 -0.09069,-0.21448 0,-0.0864 0.03023,-0.1569 0.09069,-0.2116 0.06046,-0.0547 0.161699,-0.0821 0.303726,-0.0821 l 0.351228,0 0,-1.4337 -0.21304,0 c -0.142027,0 -0.243269,-0.0273 -0.303726,-0.082 -0.06046,-0.0547 -0.09069,-0.12619 -0.09069,-0.21448 0,-0.0864 0.03023,-0.1569 0.09069,-0.2116 0.06046,-0.0547 0.161699,-0.0821 0.303726,-0.0821 z"
       style="font-weight:bold;line-height:125%;writing-mode:lr-tb;fill:#000000;font-family:Courier New;-inkscape-font-specification:Courier New Bold"
       id="path4893" />
    <path
       inkscape:connector-curvature="0"
       d="m 97.04654,126.13121 0,0.3685 c 0.247585,-0.17849 0.442871,-0.29748 0.58586,-0.35698 0.142984,-0.0595 0.276853,-0.0893 0.401609,-0.0893 0.191925,0 0.378095,0.071 0.55851,0.21304 0.12283,0.096 0.184247,0.19385 0.184251,0.29365 -4e-6,0.0845 -0.02927,0.15594 -0.08781,0.21448 -0.05854,0.0585 -0.129075,0.0878 -0.211601,0.0878 -0.07294,0 -0.149706,-0.0365 -0.230313,-0.1094 -0.08061,-0.0729 -0.152586,-0.1094 -0.215919,-0.1094 -0.08253,0 -0.205845,0.0518 -0.369941,0.15546 -0.1641,0.10364 -0.368983,0.25911 -0.614649,0.46639 l 0,0.88958 0.840644,0 c 0.142024,0 0.243266,0.0274 0.303726,0.0821 0.06045,0.0547 0.09068,0.12619 0.09069,0.21448 -3e-6,0.0864 -0.03023,0.1569 -0.09069,0.2116 -0.06046,0.0547 -0.161702,0.0821 -0.303726,0.0821 l -1.78205,0 c -0.142027,0 -0.243269,-0.0274 -0.303726,-0.0821 -0.06046,-0.0547 -0.09069,-0.12619 -0.09069,-0.21448 0,-0.0864 0.03023,-0.1569 0.09069,-0.2116 0.06046,-0.0547 0.161699,-0.0821 0.303726,-0.0821 l 0.351228,0 0,-1.4337 -0.21304,0 c -0.142027,0 -0.243269,-0.0273 -0.303726,-0.082 -0.06046,-0.0547 -0.09069,-0.12619 -0.09069,-0.21448 0,-0.0864 0.03023,-0.1569 0.09069,-0.2116 0.06046,-0.0547 0.161699,-0.0821 0.303726,-0.0821 z"
       style="font-weight:bold;line-height:125%;writing-mode:lr-tb;fill:#000000;font-family:Courier New;-inkscape-font-specification:Courier New Bold"
       id="path4895" />
    <path
       inkscape:connector-curvature="0"
       d="m 100.37457,128.72512 -1.022017,-2.00373 c -0.09596,-0.0115 -0.168897,-0.0441 -0.218798,-0.0979 -0.0499,-0.0537 -0.07485,-0.119 -0.07485,-0.19577 0,-0.0883 0.03023,-0.15978 0.09069,-0.21448 0.06046,-0.0547 0.161699,-0.0821 0.303726,-0.0821 l 0.538358,0 c 0.142031,0 0.243271,0.0273 0.303731,0.0821 0.0605,0.0547 0.0907,0.1262 0.0907,0.21448 0,0.0864 -0.0302,0.1569 -0.0907,0.2116 -0.0605,0.0547 -0.15594,0.082 -0.28645,0.082 l 0.69669,1.35597 0.69094,-1.35597 c -0.12667,0 -0.22023,-0.0273 -0.28069,-0.082 -0.0605,-0.0547 -0.0907,-0.12619 -0.0907,-0.21448 0,-0.0864 0.0302,-0.1569 0.0907,-0.2116 0.0605,-0.0547 0.1617,-0.0821 0.30373,-0.0821 l 0.55563,0 c 0.1401,0 0.24038,0.0273 0.30084,0.0821 0.0605,0.0547 0.0907,0.1262 0.0907,0.21448 0,0.0787 -0.0259,0.14539 -0.0777,0.20009 -0.0518,0.0547 -0.1286,0.0859 -0.23031,0.0936 l -1.3531,2.66588 c 0.14779,0 0.24471,0.0144 0.29077,0.0432 0.0921,0.0595 0.13819,0.14395 0.13819,0.25335 0,0.0864 -0.0302,0.1569 -0.0907,0.2116 -0.0605,0.0547 -0.1617,0.0821 -0.30373,0.0821 l -1.286879,0 c -0.142027,0 -0.243269,-0.0274 -0.303726,-0.0821 -0.06046,-0.0547 -0.09069,-0.12524 -0.09069,-0.2116 0,-0.0883 0.03023,-0.15978 0.09069,-0.21448 0.06046,-0.0547 0.161699,-0.0821 0.303726,-0.0821 l 0.587299,0 z"
       style="font-weight:bold;line-height:125%;writing-mode:lr-tb;fill:#000000;font-family:Courier New;-inkscape-font-specification:Courier New Bold"
       id="path4897" />
    <path
       inkscape:connector-curvature="0"
       d="m 107.43367,127.54764 0,0.60745 0.59594,0 c 0.14202,0 0.24327,0.0274 0.30373,0.0821 0.0604,0.0547 0.0907,0.12619 0.0907,0.21448 0,0.0864 -0.0302,0.1569 -0.0907,0.2116 -0.0605,0.0547 -0.16171,0.0821 -0.30373,0.0821 l -1.27824,0 c -0.14203,0 -0.24327,-0.0274 -0.30372,-0.0821 -0.0605,-0.0547 -0.0907,-0.12619 -0.0907,-0.21448 0,-0.0864 0.0307,-0.1569 0.0921,-0.2116 0.0614,-0.0547 0.16218,-0.0821 0.30229,-0.0821 l 0.0921,0 0,-2.30889 -0.0921,0 c -0.14203,0 -0.24327,-0.0273 -0.30372,-0.082 -0.0605,-0.0547 -0.0907,-0.12619 -0.0907,-0.21448 0,-0.0883 0.0302,-0.15978 0.0907,-0.21448 0.0605,-0.0547 0.16169,-0.082 0.30372,-0.082 l 1.35885,0.003 c 0.39921,0 0.71541,0.10892 0.9486,0.32676 0.23319,0.21784 0.34979,0.48318 0.34979,0.79602 0,0.17274 -0.0393,0.33588 -0.11803,0.48942 -0.0595,0.11515 -0.15883,0.22887 -0.29797,0.34115 -0.13915,0.11228 -0.28118,0.19672 -0.42608,0.25334 -0.14491,0.0566 -0.33636,0.0849 -0.57435,0.0849 z m 0,-0.59018 0.547,0 c 0.25718,0 0.4611,-0.058 0.61177,-0.17417 0.15066,-0.11612 0.22599,-0.25574 0.22599,-0.41889 0,-0.13818 -0.0609,-0.2591 -0.18281,-0.36274 -0.12187,-0.10364 -0.29605,-0.15546 -0.52252,-0.15546 l -0.67943,0 z"
       style="font-weight:bold;line-height:125%;writing-mode:lr-tb;fill:#000000;font-family:Courier New;-inkscape-font-specification:Courier New Bold"
       id="path4899" />
    <path
       inkscape:connector-curvature="0"
       d="m 111.52174,125.01131 0,0.62473 -0.70246,0 0,-0.62473 z m 0.0806,1.1199 0,2.02388 0.70821,0 c 0.14203,0 0.24327,0.0274 0.30373,0.0821 0.0605,0.0547 0.0907,0.12619 0.0907,0.21448 0,0.0864 -0.0302,0.1569 -0.0907,0.2116 -0.0605,0.0547 -0.1617,0.0821 -0.30373,0.0821 l -2.0066,0 c -0.14203,0 -0.24327,-0.0274 -0.30373,-0.0821 -0.0605,-0.0547 -0.0907,-0.12619 -0.0907,-0.21448 0,-0.0864 0.0302,-0.1569 0.0907,-0.2116 0.0605,-0.0547 0.1617,-0.0821 0.30373,-0.0821 l 0.70821,0 0,-1.4337 -0.47502,0 c -0.14011,0 -0.24087,-0.0273 -0.30229,-0.082 -0.0614,-0.0547 -0.0921,-0.12619 -0.0921,-0.21448 0,-0.0864 0.0302,-0.1569 0.0907,-0.2116 0.0605,-0.0547 0.1617,-0.0821 0.30373,-0.0821 z"
       style="font-weight:bold;line-height:125%;writing-mode:lr-tb;fill:#000000;font-family:Courier New;-inkscape-font-specification:Courier New Bold"
       id="path4901" />
    <path
       inkscape:connector-curvature="0"
       d="m 81.048392,134.68156 c -1e-6,-0.33587 0.05566,-0.67558 0.166978,-1.01913 0.08253,-0.25335 0.210159,-0.53548 0.382896,-0.8464 0.124751,-0.22264 0.216876,-0.35939 0.276376,-0.41025 0.0595,-0.0509 0.12571,-0.0763 0.198645,-0.0763 0.08445,0 0.155459,0.0288 0.21304,0.0864 0.05758,0.0576 0.08637,0.12667 0.08637,0.20728 -3e-6,0.0557 -0.02303,0.12188 -0.06909,0.19864 -0.207285,0.33972 -0.358428,0.65832 -0.45343,0.9558 -0.09501,0.29749 -0.142509,0.59882 -0.142506,0.90398 -3e-6,0.30709 0.0475,0.60938 0.142506,0.90686 0.095,0.29749 0.246145,0.61609 0.45343,0.9558 0.04606,0.0749 0.06909,0.14107 0.06909,0.19865 -3e-6,0.0806 -0.02879,0.1497 -0.08637,0.20728 -0.05758,0.0576 -0.128594,0.0864 -0.21304,0.0864 -0.07102,0 -0.133392,-0.023 -0.18713,-0.0691 -0.07677,-0.0672 -0.178495,-0.21783 -0.305165,-0.45199 -0.182333,-0.33971 -0.307086,-0.61992 -0.374259,-0.84064 -0.105562,-0.33779 -0.158342,-0.66887 -0.158341,-0.99323 z"
       style="font-weight:bold;line-height:125%;writing-mode:lr-tb;fill:#000000;font-family:Courier New;-inkscape-font-specification:Courier New Bold"
       id="path4903" />
    <path
       inkscape:connector-curvature="0"
       d="m 85.720876,132.77572 c 0.03646,-0.0499 0.07629,-0.0873 0.119475,-0.11228 0.04318,-0.0249 0.08972,-0.0374 0.139628,-0.0374 0.08636,0 0.156898,0.0297 0.2116,0.0892 0.0547,0.0595 0.08205,0.16027 0.08205,0.30229 l 0,0.50093 c -3e-6,0.14203 -0.02735,0.24327 -0.08205,0.30373 -0.0547,0.0605 -0.125236,0.0907 -0.2116,0.0907 -0.07869,0 -0.14203,-0.0221 -0.190009,-0.0662 -0.04798,-0.0441 -0.08349,-0.12667 -0.10652,-0.24759 -0.01344,-0.0806 -0.04031,-0.14298 -0.08061,-0.18713 -0.07869,-0.0864 -0.188571,-0.15546 -0.329636,-0.20728 -0.141069,-0.0518 -0.282615,-0.0777 -0.42464,-0.0777 -0.176575,0 -0.338754,0.0384 -0.486537,0.11515 -0.147786,0.0768 -0.278297,0.20153 -0.391533,0.37426 -0.113238,0.17274 -0.169857,0.3781 -0.169856,0.61609 l 0,0.3829 c -1e-6,0.28405 0.10316,0.52108 0.309484,0.71109 0.206321,0.19001 0.492773,0.28501 0.859357,0.28501 0.218795,0 0.404005,-0.0297 0.555631,-0.0892 0.08828,-0.0345 0.182328,-0.10268 0.282134,-0.20441 0.06141,-0.0614 0.109396,-0.10124 0.143946,-0.11947 0.03454,-0.0182 0.07389,-0.0274 0.118035,-0.0274 0.07869,0 0.147781,0.0298 0.207282,0.0893 0.05949,0.0595 0.08924,0.12955 0.08925,0.21016 -4e-6,0.0806 -0.04031,0.16698 -0.120915,0.2591 -0.117079,0.13435 -0.267742,0.23991 -0.45199,0.31668 -0.247589,0.10364 -0.521086,0.15546 -0.820492,0.15546 -0.34931,0 -0.664071,-0.072 -0.944285,-0.21592 -0.226475,-0.11515 -0.419363,-0.297 -0.578662,-0.54555 -0.1593,-0.24855 -0.23895,-0.51964 -0.23895,-0.8133 l 0,-0.40017 c 0,-0.30708 0.07149,-0.59353 0.214479,-0.85935 0.142986,-0.26582 0.341151,-0.4707 0.594497,-0.61465 0.253343,-0.14394 0.522042,-0.21592 0.806097,-0.21592 0.170813,0 0.330593,0.0197 0.479339,0.059 0.148742,0.0394 0.28741,0.0993 0.416004,0.17993 z"
       style="font-weight:bold;line-height:125%;writing-mode:lr-tb;fill:#000000;font-family:Courier New;-inkscape-font-specification:Courier New Bold"
       id="path4905" />
    <path
       inkscape:connector-curvature="0"
       d="m 88.582521,134.68156 c -2e-6,0.33588 -0.05566,0.67655 -0.166978,1.02202 -0.08253,0.25334 -0.210162,0.53452 -0.382896,0.84352 -0.124754,0.22264 -0.216879,0.35987 -0.276376,0.41169 -0.0595,0.0518 -0.125714,0.0777 -0.198645,0.0777 -0.08445,0 -0.155463,-0.0288 -0.21304,-0.0864 -0.05758,-0.0576 -0.08637,-0.12667 -0.08637,-0.20728 0,-0.0576 0.02303,-0.12379 0.06909,-0.19865 0.207281,-0.33971 0.358425,-0.65831 0.45343,-0.9558 0.095,-0.29748 0.142505,-0.59977 0.142506,-0.90686 -10e-7,-0.30516 -0.0475,-0.60649 -0.142506,-0.90398 -0.09501,-0.29748 -0.246149,-0.61608 -0.45343,-0.9558 -0.04606,-0.0768 -0.06909,-0.14298 -0.06909,-0.19864 0,-0.0806 0.02879,-0.1497 0.08637,-0.20728 0.05758,-0.0576 0.128591,-0.0864 0.21304,-0.0864 0.07101,0 0.133389,0.023 0.187129,0.0691 0.07677,0.0653 0.178492,0.21592 0.305166,0.45199 0.18233,0.33972 0.307083,0.61897 0.374259,0.83777 0.105558,0.33971 0.158339,0.67079 0.158341,0.99322 z"
       style="font-weight:bold;line-height:125%;writing-mode:lr-tb;fill:#000000;font-family:Courier New;-inkscape-font-specification:Courier New Bold"
       id="path4907" />
    <path
       inkscape:connector-curvature="0"
       d="m 91.314614,135.52509 1.292634,0 c 0.07101,-0.0576 0.138186,-0.0864 0.201525,-0.0864 0.0902,0 0.161696,0.0298 0.214479,0.0893 0.05278,0.0595 0.07917,0.16122 0.07917,0.30516 l 0,0.28213 -2.688909,0 0,-0.62472 c 1.063279,-0.87711 1.705277,-1.44138 1.925996,-1.6928 0.111316,-0.12859 0.166975,-0.25047 0.166977,-0.36563 -2e-6,-0.14394 -0.06286,-0.27109 -0.188569,-0.38145 -0.125715,-0.11036 -0.293172,-0.16554 -0.502371,-0.16554 -0.211122,0 -0.386736,0.0614 -0.526842,0.18425 -0.07293,0.0653 -0.131472,0.16218 -0.175614,0.29077 -0.02687,0.0806 -0.06382,0.13819 -0.110838,0.17274 -0.04702,0.0345 -0.105082,0.0518 -0.174175,0.0518 -0.08061,0 -0.150184,-0.0288 -0.208721,-0.0864 -0.05854,-0.0576 -0.08781,-0.12475 -0.08781,-0.20153 -1e-6,-0.11515 0.05326,-0.2591 0.159779,-0.43183 0.10652,-0.17274 0.261981,-0.31092 0.466385,-0.41457 0.204402,-0.10363 0.426558,-0.15546 0.66647,-0.15546 0.372338,0 0.677503,0.11276 0.915496,0.33827 0.237987,0.22552 0.356982,0.49854 0.356985,0.81906 -3e-6,0.16314 -0.03407,0.31428 -0.102201,0.45343 -0.06814,0.13915 -0.231756,0.33155 -0.490856,0.57722 -0.203445,0.19385 -0.599776,0.54124 -1.188993,1.04217 z"
       style="font-weight:bold;line-height:125%;writing-mode:lr-tb;fill:#000000;font-family:Courier New;-inkscape-font-specification:Courier New Bold"
       id="path4909" />
    <path
       inkscape:connector-curvature="0"
       d="m 96.689553,133.92441 0,0.64775 c -3e-6,0.38386 -0.110841,0.7514 -0.332515,1.10263 -0.221679,0.35123 -0.538839,0.52684 -0.951482,0.52684 -0.237992,0 -0.439036,-0.0523 -0.603133,-0.1569 -0.1641,-0.1046 -0.319561,-0.29749 -0.466385,-0.57866 -0.146825,-0.28117 -0.220238,-0.57914 -0.220237,-0.89391 l 0,-0.64775 c -1e-6,-0.38194 0.110358,-0.749 0.331075,-1.10119 0.220716,-0.35218 0.537397,-0.52828 0.950043,-0.52828 0.23607,0 0.436154,0.0518 0.600255,0.15546 0.164095,0.10365 0.320517,0.29605 0.469263,0.57723 0.148741,0.28117 0.223113,0.5801 0.223116,0.89678 z m -0.593057,0 c -2e-6,-0.32052 -0.08925,-0.60073 -0.267739,-0.84065 -0.101724,-0.13242 -0.24471,-0.19864 -0.428959,-0.19864 -0.178494,0 -0.324359,0.0729 -0.437595,0.2188 -0.170817,0.22072 -0.256225,0.49421 -0.256224,0.82049 l 0,0.64775 c -10e-7,0.32244 0.0902,0.60266 0.270618,0.84065 0.0998,0.13243 0.242787,0.19864 0.428959,0.19864 0.176572,0 0.321477,-0.0729 0.434717,-0.21879 0.170813,-0.22072 0.256221,-0.49422 0.256223,-0.8205 z"
       style="font-weight:bold;line-height:125%;writing-mode:lr-tb;fill:#000000;font-family:Courier New;-inkscape-font-specification:Courier New Bold"
       id="path4911" />
    <path
       inkscape:connector-curvature="0"
       d="m 99.237395,132.29494 0,3.23015 0.595936,0 c 0.142024,0 0.243269,0.0273 0.303729,0.082 0.0604,0.0547 0.0907,0.12619 0.0907,0.21448 0,0.0864 -0.0302,0.1569 -0.0907,0.2116 -0.0605,0.0547 -0.161705,0.082 -0.303729,0.082 l -1.78205,0 c -0.142027,0 -0.243269,-0.0273 -0.303726,-0.082 -0.06046,-0.0547 -0.09069,-0.1262 -0.09069,-0.21448 0,-0.0864 0.03023,-0.1569 0.09069,-0.2116 0.06046,-0.0547 0.161699,-0.082 0.303726,-0.082 l 0.595936,0 0,-2.46148 -0.526842,0.13819 c -0.08445,0.023 -0.147785,0.0345 -0.190008,0.0345 -0.07485,0 -0.139628,-0.0297 -0.194327,-0.0892 -0.0547,-0.0595 -0.08205,-0.13243 -0.08205,-0.2188 -10e-7,-0.0787 0.02015,-0.14058 0.06046,-0.18569 0.0403,-0.0451 0.124752,-0.0849 0.253345,-0.11947 z"
       style="font-weight:bold;line-height:125%;writing-mode:lr-tb;fill:#000000;font-family:Courier New;-inkscape-font-specification:Courier New Bold"
       id="path4913" />
    <path
       inkscape:connector-curvature="0"
       d="m 102.77271,132.29494 0,3.23015 0.59593,0 c 0.14203,0 0.24327,0.0273 0.30373,0.082 0.0605,0.0547 0.0907,0.12619 0.0907,0.21448 -1e-5,0.0864 -0.0302,0.1569 -0.0907,0.2116 -0.0605,0.0547 -0.1617,0.082 -0.30373,0.082 l -1.78205,0 c -0.14202,0 -0.24327,-0.0273 -0.30372,-0.082 -0.0605,-0.0547 -0.0907,-0.1262 -0.0907,-0.21448 0,-0.0864 0.0302,-0.1569 0.0907,-0.2116 0.0605,-0.0547 0.1617,-0.082 0.30372,-0.082 l 0.59594,0 0,-2.46148 -0.52684,0.13819 c -0.0845,0.023 -0.14779,0.0345 -0.19001,0.0345 -0.0749,0 -0.13963,-0.0297 -0.19433,-0.0892 -0.0547,-0.0595 -0.082,-0.13243 -0.082,-0.2188 0,-0.0787 0.0202,-0.14058 0.0605,-0.18569 0.0403,-0.0451 0.12475,-0.0849 0.25335,-0.11947 z"
       style="font-weight:bold;line-height:125%;writing-mode:lr-tb;fill:#000000;font-family:Courier New;-inkscape-font-specification:Courier New Bold"
       id="path4915" />
  </g>
</svg>
