<?xml version="1.0" encoding="utf-8"?>
<!-- Generator: Adobe Illustrator 21.1.0, SVG Export Plug-In . SVG Version: 6.00 Build 0)  -->
<svg version="1.1"
	 id="svg97" inkscape:version="0.48.4 r9939" sodipodi:docname="Folder-remote.svg" xmlns:cc="http://creativecommons.org/ns#" xmlns:dc="http://purl.org/dc/elements/1.1/" xmlns:inkscape="http://www.inkscape.org/namespaces/inkscape" xmlns:rdf="http://www.w3.org/1999/02/22-rdf-syntax-ns#" xmlns:sodipodi="http://sodipodi.sourceforge.net/DTD/sodipodi-0.dtd" xmlns:svg="http://www.w3.org/2000/svg"
	 xmlns="http://www.w3.org/2000/svg" xmlns:xlink="http://www.w3.org/1999/xlink" x="0px" y="0px" viewBox="0 0 48 48"
	 style="enable-background:new 0 0 48 48;" xml:space="preserve">
<style type="text/css">
	.st0{opacity:0.1136;enable-background:new    ;}
	.st1{fill:#729FCF;}
	.st2{opacity:0.4659;enable-background:new    ;}
	.st3{fill:#FFFFFF;}
</style>
<sodipodi:namedview  bordercolor="#666666" borderopacity="1" gridtolerance="10" guidetolerance="10" id="namedview96" inkscape:current-layer="svg97" inkscape:cx="-3.3321393" inkscape:cy="21.938889" inkscape:pageopacity="0" inkscape:pageshadow="2" inkscape:window-height="1027" inkscape:window-maximized="1" inkscape:window-width="1618" inkscape:window-x="54" inkscape:window-y="-8" inkscape:zoom="13.906433" objecttolerance="10" pagecolor="#ffffff" showgrid="false">
	</sodipodi:namedview>
<g fill="#000000">
<g id="rect255">
	<rect x="5.4" y="43.3" width="36.5" height="1"/>
</g>
<g id="rect250">
	<rect x="5.6" y="39.7" width="36.5" height="1"/>
</g>
<g id="rect183">
	<path inkscape:connector-curvature="0" d="M21.9,29.5c-1,0-1.9,0.9-1.9,1.9V38h-3.1c-1,0-1.9,0.9-1.9,1.9v4.2c0,1,0.9,1.9,1.9,1.9
		h13.2c1,0,1.9-0.9,1.9-1.9v-4.2c0-1-0.9-1.9-1.9-1.9h-2.5v-6.6c0-1-0.9-1.9-1.9-1.9H21.9z M21.9,30.5h3.7c0.5,0,0.9,0.4,0.9,0.9
		v7.1V39h0.5h3c0.5,0,0.9,0.4,0.9,0.9v4.2c0,0.5-0.4,0.9-0.9,0.9H16.9c-0.5,0-0.9-0.4-0.9-0.9v-4.2c0-0.5,0.4-0.9,0.9-0.9h3.6H21
		v-0.5v-7.1C21,30.9,21.4,30.5,21.9,30.5z"/>
</g>
<g id="path216">
	<path inkscape:connector-curvature="0" d="M5.3,1.1c-0.4,0-0.7,0.2-0.9,0.4S4,2,4,2.4l1,32.2c0,0.4,0.2,0.7,0.4,0.9S6,36,6.3,36
		h31.3c0.4,0,0.7-0.2,0.9-0.4S39,35,39,34.6L38,7.4c0-0.4-0.2-0.7-0.4-0.9S37,6.1,36.7,6.1H23.4c-0.1,0-0.4-0.1-0.5-0.2
		c-0.2-0.1-0.3-0.3-0.4-0.5l-0.6-2.9c-0.1-0.5-0.4-0.9-0.8-1.1s-0.7-0.3-1-0.3H5.3z M5.3,2.1h14.8c0.1,0,0.3,0,0.5,0.2
		s0.3,0.2,0.3,0.5l0.6,2.9c0.1,0.5,0.4,0.9,0.8,1.2s0.7,0.3,1.1,0.3h13.3c0,0,0.2,0,0.2,0.1S37,7.4,37,7.4L38,34.7
		c0,0,0,0.1-0.1,0.2c-0.1,0.1-0.1,0.1-0.2,0.1H6.3c0,0-0.2,0-0.2-0.1S6,34.7,6,34.6L5,2.4c0,0,0,0,0,0c0,0,0-0.1,0.1-0.2
		S5.2,2.1,5.3,2.1z"/>
</g>
<g id="path9788" class="st0">
	<path inkscape:connector-curvature="0" class="st1" d="M6.2,18.5h30.3"/>
	<path d="M36.4,19H6.2c-0.3,0-0.5-0.2-0.5-0.5S5.9,18,6.2,18h30.3c0.3,0,0.5,0.2,0.5,0.5S36.7,19,36.4,19z"/>
</g>
<g id="path9784" class="st0">
	<path inkscape:connector-curvature="0" class="st1" d="M6,14.5h30.4"/>
	<path d="M36.4,15H6c-0.3,0-0.5-0.2-0.5-0.5S5.7,14,6,14h30.4c0.3,0,0.5,0.2,0.5,0.5S36.7,15,36.4,15z"/>
</g>
<g id="path9778" class="st0">
	<path inkscape:connector-curvature="0" class="st1" d="M5.9,8.5h30.5"/>
	<path d="M36.4,9H5.9C5.7,9,5.4,8.8,5.4,8.5S5.7,8,5.9,8h30.5c0.3,0,0.5,0.2,0.5,0.5S36.7,9,36.4,9z"/>
</g>
<g id="path9798" class="st0">
	<path inkscape:connector-curvature="0" class="st1" d="M6.3,28.5h30.1"/>
	<path d="M36.4,29H6.3c-0.3,0-0.5-0.2-0.5-0.5S6.1,28,6.3,28h30.1c0.3,0,0.5,0.2,0.5,0.5S36.7,29,36.4,29z"/>
</g>
<g id="path9800" class="st0">
	<path inkscape:connector-curvature="0" class="st1" d="M6.5,30.5h30"/>
	<path d="M36.4,31h-30C6.2,31,6,30.8,6,30.5S6.2,30,6.5,30h30c0.3,0,0.5,0.2,0.5,0.5S36.7,31,36.4,31z"/>
</g>
<g id="path9782" class="st0">
	<path inkscape:connector-curvature="0" class="st1" d="M6,12.5h30.4"/>
	<path d="M36.4,13H6c-0.3,0-0.5-0.2-0.5-0.5S5.7,12,6,12h30.4c0.3,0,0.5,0.2,0.5,0.5S36.7,13,36.4,13z"/>
</g>
<g id="path9780" class="st0">
	<path inkscape:connector-curvature="0" class="st1" d="M6,10.5h30.5"/>
	<path d="M36.4,11H6c-0.3,0-0.5-0.2-0.5-0.5S5.7,10,6,10h30.5c0.3,0,0.5,0.2,0.5,0.5S36.7,11,36.4,11z"/>
</g>
<g id="path9776" class="st0">
	<path inkscape:connector-curvature="0" class="st1" d="M5.9,6.5h15.3"/>
	<path d="M21.2,7H5.9C5.6,7,5.4,6.8,5.4,6.5S5.6,6,5.9,6h15.3c0.3,0,0.5,0.2,0.5,0.5S21.4,7,21.2,7z"/>
</g>
<g id="path9774" class="st0">
	<path inkscape:connector-curvature="0" class="st1" d="M5.8,4.5h14.8"/>
	<path d="M20.6,5H5.8C5.5,5,5.3,4.8,5.3,4.5S5.5,4,5.8,4h14.8c0.3,0,0.5,0.2,0.5,0.5S20.9,5,20.6,5z"/>
</g>
<g id="path9794" class="st0">
	<path inkscape:connector-curvature="0" class="st1" d="M6.3,24.5h30.2"/>
	<path d="M36.4,25H6.3c-0.3,0-0.5-0.2-0.5-0.5S6,24,6.3,24h30.2c0.3,0,0.5,0.2,0.5,0.5S36.7,25,36.4,25z"/>
</g>
<g id="path9792" class="st0">
	<path inkscape:connector-curvature="0" class="st1" d="M6.2,22.5h30.2"/>
	<path d="M36.4,23H6.2c-0.3,0-0.5-0.2-0.5-0.5S6,22,6.2,22h30.2c0.3,0,0.5,0.2,0.5,0.5S36.7,23,36.4,23z"/>
</g>
<g id="path9790" class="st0">
	<path inkscape:connector-curvature="0" class="st1" d="M6.2,20.5h30.3"/>
	<path d="M36.4,21H6.2c-0.3,0-0.5-0.2-0.5-0.5S5.9,20,6.2,20h30.3c0.3,0,0.5,0.2,0.5,0.5S36.7,21,36.4,21z"/>
</g>
<g id="path9786" class="st0">
	<path inkscape:connector-curvature="0" class="st1" d="M6.1,16.5h30.3"/>
	<path d="M36.4,17H6.1c-0.3,0-0.5-0.2-0.5-0.5S5.9,16,6.1,16h30.3c0.3,0,0.5,0.2,0.5,0.5S36.7,17,36.4,17z"/>
</g>
<g id="path9796" class="st0">
	<path inkscape:connector-curvature="0" class="st1" d="M6.3,26.5h30.2"/>
	<path d="M36.4,27H6.3c-0.3,0-0.5-0.2-0.5-0.5S6,26,6.3,26h30.2c0.3,0,0.5,0.2,0.5,0.5S36.7,27,36.4,27z"/>
</g>
<g id="path9802" class="st0">
	<path inkscape:connector-curvature="0" class="st1" d="M6.5,32.5h30"/>
	<path d="M36.4,33h-30C6.2,33,6,32.8,6,32.5S6.2,32,6.5,32h30c0.3,0,0.5,0.2,0.5,0.5S36.7,33,36.4,33z"/>
</g>
<g id="path233">
	<path inkscape:connector-curvature="0" d="M40.7,35.5c1.1,0,2-1.1,2-2.3c0.8-11.5,1.7-21.2,1.7-21.2c0.1-0.2-0.2-0.5-0.5-0.5H9.6
		L7.7,33.3c-0.1,1-0.5,1.8-1.5,2.2L40.7,35.5L40.7,35.5z"/>
	<path d="M6.2,36c-0.2,0-0.5-0.2-0.5-0.4c0-0.2,0.1-0.5,0.3-0.6c0.7-0.3,1.1-0.8,1.2-1.8l1.8-21.9c0-0.3,0.2-0.5,0.5-0.5H44
		c0.3,0,0.6,0.1,0.8,0.4c0.2,0.2,0.2,0.5,0.1,0.7c0,0-0.9,9.7-1.6,21.1c-0.1,1.6-1.2,2.7-2.5,2.8c0,0,0,0,0,0L6.2,36z M10,11.9
		L8.2,33.3c-0.1,0.5-0.2,1.1-0.6,1.6l33,0c0.8,0,1.5-0.8,1.6-1.9c0.8-11,1.6-20.4,1.7-21.2L10,11.9z"/>
</g>
<g id="path304" class="st2">
	<path inkscape:connector-curvature="0" class="st3" d="M10.1,11.9l-0.1,0.5L8.3,32.8c0,0,0,0.1-0.1,0.3s-0.1,0.4-0.2,0.4l-0.6,0.8
		h1c2.7,0,29.5,0,31.4,0c0.8,0,1.3-0.1,1.8-0.4s0.6-0.9,0.6-1.5l1.6-20l0-0.5h-0.5l-32.8-0.1H10.1z M11,12.9L42.8,13l-1.6,19.4
		c0,0.5-0.1,0.7-0.2,0.8s-0.5,0.2-1.1,0.2c-1.8,0-26.9,0-30.7,0c0.1-0.2,0.1-0.5,0.1-0.5L11,12.9z"/>
</g>
<g id="layer2">
</g>
</g>
</svg>
