<?xml version="1.0" encoding="UTF-8" standalone="no"?>
<!-- Created with Inkscape (http://www.inkscape.org/) -->

<svg
   xmlns:dc="http://purl.org/dc/elements/1.1/"
   xmlns:cc="http://creativecommons.org/ns#"
   xmlns:rdf="http://www.w3.org/1999/02/22-rdf-syntax-ns#"
   xmlns:svg="http://www.w3.org/2000/svg"
   xmlns="http://www.w3.org/2000/svg"
   xmlns:sodipodi="http://sodipodi.sourceforge.net/DTD/sodipodi-0.dtd"
   xmlns:inkscape="http://www.inkscape.org/namespaces/inkscape"
   version="1.0"
   width="585"
   height="585"
   viewBox="0 0 585 585"
   id="svg2421"
   inkscape:version="0.91 r13725"
   sodipodi:docname="jeelink_lacrosse.svg">
  <title
     id="title3346">jeelink lacrosse svg icon</title>
  <sodipodi:namedview
     pagecolor="#ffffff"
     bordercolor="#666666"
     borderopacity="1"
     objecttolerance="10"
     gridtolerance="10"
     guidetolerance="10"
     inkscape:pageopacity="0"
     inkscape:pageshadow="2"
     inkscape:window-width="1546"
     inkscape:window-height="904"
     id="namedview17"
     showgrid="false"
     inkscape:zoom="0.8"
     inkscape:cx="502.46349"
     inkscape:cy="362.77184"
     inkscape:window-x="1507"
     inkscape:window-y="54"
     inkscape:window-maximized="0"
     inkscape:current-layer="svg2421" />
  <metadata
     id="metadata25">
    <rdf:RDF>
      <cc:Work
         rdf:about="">
        <dc:format>image/svg+xml</dc:format>
        <dc:type
           rdf:resource="http://purl.org/dc/dcmitype/StillImage" />
        <dc:title>jeelink lacrosse svg icon</dc:title>
        <cc:license
           rdf:resource="http://scripts.sil.org/OFL" />
        <dc:date>20.03.2025</dc:date>
        <dc:creator>
          <cc:Agent>
            <dc:title>Diblominschenör</dc:title>
          </cc:Agent>
        </dc:creator>
        <dc:publisher>
          <cc:Agent>
            <dc:title>Diblominschenör</dc:title>
          </cc:Agent>
        </dc:publisher>
        <dc:description>Ein Icon für JeeLink mit LaCrosse Sketch für FHEM </dc:description>
        <dc:subject>
          <rdf:Bag>
            <rdf:li>jeelink lacrosse svg icon</rdf:li>
          </rdf:Bag>
        </dc:subject>
        <dc:contributor>
          <cc:Agent>
            <dc:title>Diblominschenör</dc:title>
          </cc:Agent>
        </dc:contributor>
        <dc:source>https://fhem.de/#Download</dc:source>
      </cc:Work>
      <cc:License
         rdf:about="http://scripts.sil.org/OFL">
        <cc:permits
           rdf:resource="http://scripts.sil.org/pub/OFL/Reproduction" />
        <cc:permits
           rdf:resource="http://scripts.sil.org/pub/OFL/Distribution" />
        <cc:permits
           rdf:resource="http://scripts.sil.org/pub/OFL/Embedding" />
        <cc:permits
           rdf:resource="http://scripts.sil.org/pub/OFL/DerivativeWorks" />
        <cc:requires
           rdf:resource="http://scripts.sil.org/pub/OFL/Notice" />
        <cc:requires
           rdf:resource="http://scripts.sil.org/pub/OFL/Attribution" />
        <cc:requires
           rdf:resource="http://scripts.sil.org/pub/OFL/ShareAlike" />
        <cc:requires
           rdf:resource="http://scripts.sil.org/pub/OFL/DerivativeRenaming" />
        <cc:requires
           rdf:resource="http://scripts.sil.org/pub/OFL/BundlingWhenSelling" />
      </cc:License>
    </rdf:RDF>
  </metadata>
  <defs
     id="defs23" />
  <g
     transform="translate(-1.2394068,175.99576)"
     id="g3928">
    <g
       transform="matrix(0.76105888,-0.70152008,0.70152008,0.76105888,-53.635495,248.11247)"
       id="g3935">
      <g
         transform="matrix(0.71384089,0.65537779,-0.65537779,0.71384089,290.56772,-237.16329)"
         id="g3942">
        <path
           d="m 61.307012,197.22179 5.11878,0 45.703448,0 5.11878,0 0,5.23327 0,46.1182 0,5.23327 -5.11878,0 -45.703448,0 -5.11878,0 0,-5.23327 0,-46.1182 0,-5.23327 z m 10.23757,10.46655 0,35.65164 35.465868,0 0,-35.65164 -35.465868,0 z"
           id="rect3502"
           style="font-size:medium;font-style:normal;font-variant:normal;font-weight:normal;font-stretch:normal;text-indent:0;text-align:start;text-decoration:none;line-height:normal;letter-spacing:normal;word-spacing:normal;text-transform:none;direction:ltr;block-progression:tb;writing-mode:lr-tb;text-anchor:start;baseline-shift:baseline;fill:#000000;stroke:none;marker:none;visibility:visible;display:inline;overflow:visible;enable-background:accumulate;font-family:Sans;-inkscape-font-specification:Sans" />
        <path
           d="m 62.449592,106.20026 5.11878,0 45.657748,0 5.11878,0 0,5.23328 0,46.07147 0,5.23326 -5.11878,0 -45.657748,0 -5.11878,0 0,-5.23326 0,-46.07147 0,-5.23328 z m 10.23757,10.41983 0,35.65164 35.465878,0 0,-35.65164 -35.465878,0 z"
           id="rect3502-1"
           style="font-size:medium;font-style:normal;font-variant:normal;font-weight:normal;font-stretch:normal;text-indent:0;text-align:start;text-decoration:none;line-height:normal;letter-spacing:normal;word-spacing:normal;text-transform:none;direction:ltr;block-progression:tb;writing-mode:lr-tb;text-anchor:start;baseline-shift:baseline;color:#000000;fill:#000000;fill-opacity:1;stroke:none;marker:none;visibility:visible;display:inline;overflow:visible;enable-background:accumulate;font-family:Sans;-inkscape-font-specification:Sans" />
        <g
           transform="translate(137.57415,-216.89619)"
           id="g3924">
          <path
             d="m -114.06275,313.05827 0,168.08981 c 0,0.38784 0.15146,0.57725 0.64502,0.57725 l 137.043982,0 c 0.49352,0 0.64496,-0.18941 0.64496,-0.57725 l 0,-168.08981 c 0,-0.38782 -0.15144,-0.57694 -0.64496,-0.57694 l -137.043982,0 c -0.49356,0 -0.64502,0.18912 -0.64502,0.57694 z m -20.69415,-11.94672 c 0,-6.62763 5.43433,-12.05523 11.8829,-12.05523 l 155.391712,0 c 6.44855,0 11.8829,5.4276 11.8829,12.05523 l 0,190.59383 c 0,6.62763 -5.43435,12.05521 -11.8829,12.05521 l -155.391712,0 c -6.44857,0 -11.8829,-5.42758 -11.8829,-12.05521 l 0,-190.59383 z"
             id="path3920"
             style="font-size:medium;font-style:normal;font-variant:normal;font-weight:normal;font-stretch:normal;text-indent:0;text-align:start;text-decoration:none;line-height:normal;letter-spacing:normal;word-spacing:normal;text-transform:none;direction:ltr;block-progression:tb;writing-mode:lr-tb;text-anchor:start;baseline-shift:baseline;color:#000000;fill:#000000;stroke:none;marker:none;visibility:visible;display:inline;overflow:visible;enable-background:accumulate;font-family:Sans;-inkscape-font-specification:Sans" />
          <path
             d="m 421.81214,320.12918 0,148.83988 c 0,21.88784 -15.46137,40.37886 -35.54798,40.37886 l -303.603437,0 c -20.086912,0 -35.548487,-18.49102 -35.548487,-40.37886 l 0,-148.83988 c 0,-21.8877 15.461575,-40.33926 35.548487,-40.33926 l 303.603437,0 c 20.08661,0 35.54798,18.45156 35.54798,40.33926 z m 22.97272,-8.05567 c 0,-31.57078 -20.97617,-56.04441 -46.07988,-56.04441 l -326.340316,0 c -25.10371,0 -46.07989,24.47363 -46.07989,56.04441 l 0,165.03927 c 0,31.57078 20.97618,56.08862 46.07989,56.08862 l 326.340316,0 c 25.10371,0 46.07988,-24.51784 46.07988,-56.08862 l 0,-165.03927 z"
             id="path3916"
             style="font-size:medium;font-style:normal;font-variant:normal;font-weight:normal;font-stretch:normal;text-indent:0;text-align:start;text-decoration:none;line-height:normal;letter-spacing:normal;word-spacing:normal;text-transform:none;direction:ltr;block-progression:tb;writing-mode:lr-tb;text-anchor:start;baseline-shift:baseline;color:#000000;fill:#000000;fill-opacity:1;stroke:none;marker:none;visibility:visible;display:inline;overflow:visible;enable-background:accumulate;font-family:Sans;-inkscape-font-specification:Sans" />
        </g>
      </g>
    </g>
  </g>
  <text
     xml:space="preserve"
     style="font-style:normal;font-weight:normal;font-size:137.5px;line-height:125%;font-family:sans-serif;letter-spacing:0px;word-spacing:0px;fill:#000000;fill-opacity:1;stroke:none;stroke-width:1px;stroke-linecap:butt;stroke-linejoin:miter;stroke-opacity:1"
     x="33.004635"
     y="415.34497"
     id="text3345"
     sodipodi:linespacing="125%"
     transform="scale(0.78763978,1.2696159)"><tspan
       sodipodi:role="line"
       id="tspan3347"
       x="33.004635"
       y="415.34497"
       style="font-style:normal;font-variant:normal;font-weight:bold;font-stretch:normal;font-size:167.24346924px;font-family:'Bitstream Vera Sans';-inkscape-font-specification:'Bitstream Vera Sans Bold'"
       transform="matrix(1,0,0,0.67593833,0,101.16982)">JeeLink</tspan></text>
  <text
     xml:space="preserve"
     style="font-style:normal;font-variant:normal;font-weight:900;font-stretch:normal;font-size:126.43765259px;line-height:125%;font-family:sans-serif;-inkscape-font-specification:'sans-serif Heavy';letter-spacing:0px;word-spacing:0px;fill:#000000;fill-opacity:1;stroke:none;stroke-width:1px;stroke-linecap:butt;stroke-linejoin:miter;stroke-opacity:1"
     x="358.30383"
     y="164.36803"
     id="text3349"
     sodipodi:linespacing="125%"
     transform="scale(0.55363254,1.8062522)"><tspan
       sodipodi:role="line"
       id="tspan3351"
       x="358.30383"
       y="164.36803"
       style="font-style:normal;font-variant:normal;font-weight:bold;font-stretch:normal;font-size:126.43765259px;font-family:'Bitstream Vera Sans';-inkscape-font-specification:'Bitstream Vera Sans Bold';">LaCrosse</tspan></text>
</svg>
