<?xml version="1.0" encoding="UTF-8" standalone="no"?>
<!-- Svg Vector Icons : http://www.onlinewebfonts.com/icon -->

<svg
   xmlns:dc="http://purl.org/dc/elements/1.1/"
   xmlns:cc="http://creativecommons.org/ns#"
   xmlns:rdf="http://www.w3.org/1999/02/22-rdf-syntax-ns#"
   xmlns:svg="http://www.w3.org/2000/svg"
   xmlns="http://www.w3.org/2000/svg"
   xmlns:sodipodi="http://sodipodi.sourceforge.net/DTD/sodipodi-0.dtd"
   xmlns:inkscape="http://www.inkscape.org/namespaces/inkscape"
   version="1.1"
   x="0px"
   y="0px"
   viewBox="0 0 1000 1000"
   enable-background="new 0 0 1000 1000"
   xml:space="preserve"
   id="svg4501"
   sodipodi:docname="kindle_icon.svg"
   inkscape:version="0.92.0 r15299"><defs
     id="defs4505" /><sodipodi:namedview
     pagecolor="#ffffff"
     bordercolor="#666666"
     borderopacity="1"
     objecttolerance="10"
     gridtolerance="10"
     guidetolerance="10"
     inkscape:pageopacity="0"
     inkscape:pageshadow="2"
     inkscape:window-width="1920"
     inkscape:window-height="1017"
     id="namedview4503"
     showgrid="false"
     inkscape:zoom="0.59962655"
     inkscape:cx="735.26593"
     inkscape:cy="528.78848"
     inkscape:window-x="-8"
     inkscape:window-y="-8"
     inkscape:window-maximized="1"
     inkscape:current-layer="svg4501" /><metadata
     id="metadata4485"> Svg Vector Icons : http://www.onlinewebfonts.com/icon <rdf:RDF><cc:Work
     rdf:about=""><dc:format>image/svg+xml</dc:format><dc:type
       rdf:resource="http://purl.org/dc/dcmitype/StillImage" /><dc:title></dc:title></cc:Work></rdf:RDF></metadata><path
     d="m 205.43,12.11 c -8.42,3.25 -15.5,9.76 -19.33,17.04 -3.83,7.46 -3.83,13.01 -3.83,470.86 0,461.1 0,463.39 3.83,470.86 2.11,4.21 7.46,9.95 11.87,12.82 l 8.04,5.36 291.7,0.57 291.89,0.38 8.61,-4.02 c 5.55,-2.87 10.34,-7.08 13.97,-12.83 l 5.55,-8.8 V 500 35.65 l -5.55,-8.8 C 808.54,21.11 803.76,16.9 798.21,14.03 L 789.79,10.01 499.81,10.2 C 323.14,10.19 208.3,10.96 205.43,12.11 Z m 556.8,488.85 V 863.67 H 500 237.77 V 500.96 138.25 H 500 762.23 Z"
     id="path4487"
     inkscape:connector-curvature="0"
     style="stroke-width:0.1;fill:#000000;fill-opacity:1"
     sodipodi:nodetypes="ccscccccccccccccccccccccccc" /><g
     id="g5214"
     transform="translate(-1.3284706,-2.614169)"><path
       inkscape:connector-curvature="0"
       d="m 431.41984,957.29765 -18.36533,-22.2672 h -0.0907 v 22.2672 h -6.60533 v -64.0849 h 6.60533 v 36.3864 h 0.0907 l 15.74133,-15.1156 h 8.596 l -18.82,17.4688 21.26267,25.3453 h -8.41467"
       style="fill:#ffffff;fill-opacity:1;fill-rule:nonzero;stroke:none;stroke-width:0.13333333"
       id="path38" /><path
       inkscape:connector-curvature="0"
       d="m 444.26517,957.29765 v -42.8141 h 6.604 v 42.8141 z m 3.256,-51.7751 c -2.532,0 -4.61333,-2.0822 -4.61333,-4.6161 0,-2.5349 2.08133,-4.6156 4.61333,-4.6156 2.53467,0 4.61467,2.0807 4.61467,4.6156 0,2.5339 -2.08,4.6161 -4.61467,4.6161"
       style="fill:#ffffff;fill-opacity:1;fill-rule:nonzero;stroke:none;stroke-width:0.13333333"
       id="path40" /><path
       inkscape:connector-curvature="0"
       d="m 487.9865,957.29765 v -26.3401 c 0,-5.3412 -0.90533,-11.3151 -7.42,-11.3151 -5.24666,0 -10.04133,3.7109 -13.29733,6.5181 v 31.1371 h -6.60533 v -42.8141 h 5.428 l 0.90533,5.1589 c 4.704,-3.6199 9.31867,-6.2448 15.29067,-6.2448 6.15066,0 12.30266,4.4348 12.30266,15.1161 v 28.7839 h -6.604"
       style="fill:#ffffff;fill-opacity:1;fill-rule:nonzero;stroke:none;stroke-width:0.13333333"
       id="path42" /><path
       inkscape:connector-curvature="0"
       d="m 530.7785,920.27685 c -1.71866,-0.6344 -3.25733,-1.0865 -6.604,-1.0865 -8.41466,0 -15.74266,6.6084 -15.74266,16.8365 0,9.6843 5.33733,16.5635 16.46666,16.5635 2.16934,0 4.52267,-0.4531 5.88,-1.0859 z m -7.056,37.9255 c -11.94266,0 -21.98666,-6.9688 -21.98666,-21.724 0,-13.3047 9.59066,-23.0807 22.076,-23.0807 3.076,0 5.248,0.2708 6.96666,0.7239 v -20.9088 h 6.604 v 61.9114 c -2.624,1.5391 -7.59866,3.0782 -13.66,3.0782"
       style="fill:#ffffff;fill-opacity:1;fill-rule:nonzero;stroke:none;stroke-width:0.13333333"
       id="path44" /><path
       inkscape:connector-curvature="0"
       d="m 554.5705,958.20235 c -5.24666,0 -7.508,-3.349 -7.508,-7.8751 v -57.1145 h 6.60534 v 54.1276 c 0,4.0729 0.99466,4.888 3.52666,4.888 0.45334,0 1.17734,0 2.26134,-0.2708 l 0.816,4.7969 c -1.99067,0.9947 -3.52934,1.4479 -5.70134,1.4479"
       style="fill:#ffffff;fill-opacity:1;fill-rule:nonzero;stroke:none;stroke-width:0.13333333"
       id="path46" /><path
       inkscape:connector-curvature="0"
       d="m 581.34917,919.00965 c -6.332,0 -10.31333,5.6119 -10.31333,12.4009 h 20.176 c 0,-5.9738 -3.348,-12.4009 -9.86267,-12.4009 z m -10.40267,18.0129 c 0,8.1459 4.704,15.4766 13.932,15.4766 3.89067,0 7.87067,-1.538 10.40534,-3.1667 l 2.08,4.7057 c -3.16667,2.173 -8.59467,4.1642 -13.29867,4.1642 -13.66267,0 -20.176,-10.9522 -20.176,-23.1719 0,-12.4011 7.05733,-21.6328 17.37067,-21.6328 11.03733,0 17.09866,8.7796 17.09866,22.0859 0,0.4532 0,0.9948 0,1.539 h -27.412"
       style="fill:#ffffff;fill-opacity:1;fill-rule:nonzero;stroke:none;stroke-width:0.13333333"
       id="path48" /></g></svg>