<?xml version="1.0" encoding="UTF-8" standalone="no"?>
<svg
   xmlns:dc="http://purl.org/dc/elements/1.1/"
   xmlns:cc="http://creativecommons.org/ns#"
   xmlns:rdf="http://www.w3.org/1999/02/22-rdf-syntax-ns#"
   xmlns:svg="http://www.w3.org/2000/svg"
   xmlns="http://www.w3.org/2000/svg"
   version="1.1"
   id="svg2"
   viewBox="0 0 155.57501 155.575"
   height="588"
   width="588">
  <metadata
     id="metadata40">
    <rdf:RDF>
      <cc:Work
         rdf:about="">
        <dc:format>image/svg+xml</dc:format>
        <dc:type
           rdf:resource="http://purl.org/dc/dcmitype/StillImage" />
        <dc:title></dc:title>
      </cc:Work>
    </rdf:RDF>
  </metadata>
  <defs
     id="defs38" />
  <g
     transform="translate(0,4.3011858)"
     id="07a560e5-d194-462b-a472-21ce1236df89">
    <path
       transform="matrix(0.26458334,0,0,0.26458334,0,-4.3011858)"
       id="path50"
       d="M 62.745055,354.58711 C 38.761496,329.81491 17.352632,306.85851 15.1698,303.57286 l -3.968784,-5.97389 2.997662,-6.03479 c 3.613797,-7.27516 90.963082,-95.465 94.555102,-95.465 5.18236,0 5.73036,10.21428 5.64598,105.23619 l -0.0818,92.10157 -3.98322,3.09524 -3.98323,3.09526 z"
       style="fill:#000000;fill-opacity:1;stroke-width:1.47818542" />
    <path
       transform="matrix(0.26458334,0,0,0.26458334,0,-4.3011858)"
       id="path52"
       d="m 196.01901,335.71816 c -1.25356,-2.75128 -1.71545,-33.89797 -1.71545,-115.67682 V 108.12955 l 46.19329,-46.131538 c 31.23627,-31.19451 47.9917,-46.874534 51.74749,-48.426205 5.20066,-2.148609 5.92754,-2.104196 11.41986,0.697775 3.32354,1.695543 26.12133,22.986885 52.60322,49.127265 51.47121,50.807443 55.50633,55.899803 52.23564,65.921683 -1.36405,4.1797 -24.52645,28.46118 -100.2263,105.0687 -54.14874,54.798 -100.44781,100.85947 -102.88681,102.35881 -5.87536,3.61179 -7.32964,3.45228 -9.37094,-1.02788 z"
       style="fill:#000000;fill-opacity:1;stroke-width:1.47818542" />
    <path
       transform="matrix(0.26458334,0,0,0.26458334,0,-4.3011858)"
       id="path54"
       d="m 410.66981,358.49114 c -48.56741,-48.49642 -52.2591,-52.5455 -53.11574,-58.258 -1.67303,-11.15654 3.50675,-17.54483 55.36949,-68.28796 l 47.21252,-46.19329 h 7.8733 7.87331 l 52.85272,52.83742 c 29.06901,29.06059 52.84622,53.83867 52.83829,55.06241 -0.007,1.22374 -1.58725,5.5509 -3.50957,9.61591 -2.69963,5.70871 -14.14414,17.98606 -50.28218,53.94132 -45.0162,44.7885 -51.15438,50.09121 -60.61782,52.36708 -4.09298,0.98433 -6.80284,-1.46606 -56.49432,-51.08489 z"
       style="fill:#000000;fill-opacity:1;stroke-width:1.47818542" />
    <path
       transform="matrix(0.26458334,0,0,0.26458334,0,-4.3011858)"
       id="path56"
       d="m 283.49223,571.75859 c -6.59754,-4.93726 -29.55932,-27.15243 -53.34268,-51.60826 L 188.39082,477.2109 v -8.87502 -8.87501 l 49.77275,-51.11974 49.77276,-51.11974 h 9.73213 9.73212 l 51.35903,51.37476 51.35902,51.37475 v 7.39082 7.39081 l -52.85273,52.83744 c -47.16836,47.15472 -53.35482,52.83742 -57.52122,52.83742 -3.39167,0 -7.83673,-2.37093 -16.25245,-8.6688 z"
       style="fill:#000000;fill-opacity:1;stroke-width:1.47818542" />
  </g>
</svg>
