<?xml version="1.0" encoding="UTF-8" standalone="no"?>
<svg
   xmlns:dc="http://purl.org/dc/elements/1.1/"
   xmlns:cc="http://creativecommons.org/ns#"
   xmlns:rdf="http://www.w3.org/1999/02/22-rdf-syntax-ns#"
   xmlns:svg="http://www.w3.org/2000/svg"
   xmlns="http://www.w3.org/2000/svg"
   xmlns:sodipodi="http://sodipodi.sourceforge.net/DTD/sodipodi-0.dtd"
   xmlns:inkscape="http://www.inkscape.org/namespaces/inkscape"
   width="7.11111in"
   height="7.11111in"
   viewBox="0 0 640 640"
   version="1.1"
   id="svg3771"
   sodipodi:docname="kodi.svg"
   inkscape:version="0.92.3 (2405546, 2018-03-11)">
  <metadata
     id="metadata3777">
    <rdf:RDF>
      <cc:Work
         rdf:about="">
        <dc:format>image/svg+xml</dc:format>
        <dc:type
           rdf:resource="http://purl.org/dc/dcmitype/StillImage" />
      </cc:Work>
    </rdf:RDF>
  </metadata>
  <defs
     id="defs3775">
    <inkscape:path-effect
       effect="fill_between_strokes"
       id="path-effect3781"
       is_visible="true"
       linkedpath=""
       secondpath=""
       reversesecond="false" />
  </defs>
  <sodipodi:namedview
     pagecolor="#ffffff"
     bordercolor="#666666"
     borderopacity="1"
     objecttolerance="10"
     gridtolerance="10"
     guidetolerance="10"
     inkscape:pageopacity="0"
     inkscape:pageshadow="2"
     inkscape:window-width="1920"
     inkscape:window-height="1110"
     id="namedview3773"
     showgrid="true"
     showguides="true"
     inkscape:zoom="1.3505861"
     inkscape:cx="273.06622"
     inkscape:cy="340.91699"
     inkscape:window-x="1920"
     inkscape:window-y="32"
     inkscape:window-maximized="1"
     inkscape:current-layer="svg3771">
    <inkscape:grid
       type="xygrid"
       id="grid3779" />
  </sodipodi:namedview>
  <path
     id="Path4"
     d="m 155.94,345.94 c -0.0736,19.55237 -0.77965,54.03069 -0.94,58.65 -0.47,13.54 -3.71,16.37 -10.41,9.16 L 57.5,326.1 c -4.646582,-4.67646 -4.501563,-9.51901 3.34,-17.35 L 135,234.69 c 11.46779,-11.45233 19.83209,-19.14172 20,0.62 0,0 1.07883,73.75226 0.94,110.63 z m 219.69,73.75 43.75,45.31 c 10.80697,11.19231 6.50845,22.24155 -1.25,30 l -83.75,83.75 c -9.03507,9.03507 -18.69916,6.91284 -26.25,-0.62 L 220,490.21 c -5.42534,-5.41241 -7.50479,-13.10899 3.13,-23.75 l 85.47,-85.52 c 8.7678,-8.77293 18.37301,-7.96714 27.65,0.94 z m 92.5,-199.69 -85,86.25 c -11.78994,11.96332 -3.77192,22.4869 -2.5,23.75 L 470,418.75 c 5.56961,5.53097 15.85776,7.79746 25,-1.25 l 86.81,-85.91 c 5.92553,-5.8641 6.68378,-18.98991 0.69,-25 l -84.55,-84.78 c -9.38054,-9.40606 -20.97285,-9.51279 -29.82,-1.81 -0.47515,0.41369 0,0 0,0 z m -55.62994,-39.37505 c 8.97,-6.6 10.25489,-26.05204 1.24508,-35.13838 L 334.24625,65.312429 m 0,0 c -10.21,-12.08 -10.8087,-9.25708 -17.92773,-2.569144 C 308.05959,70.50209 229.59,138.75 229.59,138.75 c -5,6.04 -6.2273,12.3897 -6.23104,13.1175 l -1.04618,203.23972 c -0.0574,11.15304 4.27326,12.05502 10.68722,5.55278 l 23.25,-23.57 60.41,-60.43 95.84006,-96.03505"
     inkscape:path-effect="#path-effect3781"
     inkscape:original-d="m 155.94,345.94 c -0.0736,19.55237 -0.77965,54.03069 -0.94,58.65 -0.47,13.54 -3.71,16.37 -10.41,9.16 L 57.5,326.1 c -4.646582,-4.67646 -4.501563,-9.51901 3.34,-17.35 L 135,234.69 c 11.46779,-11.45233 19.83209,-19.14172 20,0.62 0,0 1.07883,73.75226 0.94,110.63 z m 219.69,73.75 43.75,45.31 c 10.80697,11.19231 6.50845,22.24155 -1.25,30 l -83.75,83.75 c -9.03507,9.03507 -18.69916,6.91284 -26.25,-0.62 L 220,490.21 c -5.42534,-5.41241 -7.50479,-13.10899 3.13,-23.75 l 85.47,-85.52 c 8.7678,-8.77293 18.37301,-7.96714 27.65,0.94 z m 92.5,-199.69 -85,86.25 c -11.78994,11.96332 -3.77192,22.4869 -2.5,23.75 L 470,418.75 c 5.56961,5.53097 15.85776,7.79746 25,-1.25 l 86.81,-85.91 c 5.92553,-5.8641 6.68378,-18.98991 0.69,-25 l -84.55,-84.78 c -9.38054,-9.40606 -20.97285,-9.51279 -29.82,-1.81 -0.47515,0.41369 0,0 0,0 z m -55.62994,-39.37505 c 8.97,-6.6 10.25489,-26.05204 1.24508,-35.13838 L 334.24625,65.312429 m 0,0 c -10.21,-12.08 -10.8087,-9.25708 -17.92773,-2.569144 C 308.05959,70.50209 229.59,138.75 229.59,138.75 c -5,6.04 -6.2273,12.3897 -6.23104,13.1175 l -1.04618,203.23972 c -0.0574,11.15304 4.27326,12.05502 10.68722,5.55278 l 23.25,-23.57 60.41,-60.43 95.84006,-96.03505"
     style="fill:#000000;fill-opacity:1;stroke:#000000;stroke-width:1"
     inkscape:connector-curvature="0"
     sodipodi:nodetypes="sscssssscssssssssccssssssssccsccscsssccc" />
</svg>
