<?xml version="1.0" encoding="UTF-8" standalone="no"?>
<svg
   xmlns:dc="http://purl.org/dc/elements/1.1/"
   xmlns:cc="http://creativecommons.org/ns#"
   xmlns:rdf="http://www.w3.org/1999/02/22-rdf-syntax-ns#"
   xmlns:svg="http://www.w3.org/2000/svg"
   xmlns="http://www.w3.org/2000/svg"
   width="77.141106mm"
   height="78.765022mm"
   viewBox="0 0 77.141106 78.765023"
   version="1.1"
   id="svg144793">
  <defs
     id="defs144787" />
  <metadata
     id="metadata144790">
    <rdf:RDF>
      <cc:Work
         rdf:about="">
        <dc:format>image/svg+xml</dc:format>
        <dc:type
           rdf:resource="http://purl.org/dc/dcmitype/StillImage" />
        <dc:title></dc:title>
      </cc:Work>
    </rdf:RDF>
  </metadata>
  <g
     id="layer1"
     transform="translate(-11.889384,-8.7701796)"
     style="display:inline" />
  <g
     id="layer5"
     style="display:inline"
     transform="translate(-2.1942982,-2.7981576)">
    <path
       id="path145464"
       style="color:#000000;font-style:normal;font-variant:normal;font-weight:normal;font-stretch:normal;font-size:medium;line-height:normal;font-family:sans-serif;font-variant-ligatures:normal;font-variant-position:normal;font-variant-caps:normal;font-variant-numeric:normal;font-variant-alternates:normal;font-variant-east-asian:normal;font-feature-settings:normal;font-variation-settings:normal;text-indent:0;text-align:start;text-decoration:none;text-decoration-line:none;text-decoration-style:solid;text-decoration-color:#000000;letter-spacing:normal;word-spacing:normal;text-transform:none;writing-mode:lr-tb;direction:ltr;text-orientation:mixed;dominant-baseline:auto;baseline-shift:baseline;text-anchor:start;white-space:normal;shape-padding:0;shape-margin:0;inline-size:0;clip-rule:nonzero;display:inline;overflow:visible;visibility:visible;opacity:1;isolation:auto;mix-blend-mode:normal;color-interpolation:sRGB;color-interpolation-filters:linearRGB;solid-color:#000000;solid-opacity:1;vector-effect:none;fill:#000000;fill-opacity:1;fill-rule:nonzero;stroke:none;stroke-width:0.8;stroke-linecap:round;stroke-linejoin:miter;stroke-miterlimit:4;stroke-dasharray:none;stroke-dashoffset:0;stroke-opacity:1;color-rendering:auto;image-rendering:auto;shape-rendering:auto;text-rendering:auto;enable-background:accumulate;stop-color:#000000;stop-opacity:1"
       d="M 47.222656,2.8027344 C 46.011761,3.0070127 45.220478,4.068122 44.142813,4.5730696 40.656253,6.6981965 37.179328,8.8534663 33.862811,11.245798 28.874274,14.756689 24.090946,18.550456 19.103385,22.064274 15.412737,24.9267 11.527433,27.520392 7.7312774,30.236092 5.8233384,31.652886 3.9340987,33.147082 2.3691406,34.939453 1.9087545,35.702379 2.4140424,36.738851 3.2265625,37 2.451333,38.131543 3.939554,39.729749 5.125,39.042969 c 1.8296291,-1.505194 3.717852,-2.990297 5.892578,-3.978516 3.084345,-1.829696 5.681373,-4.342558 8.546385,-6.479305 7.595131,-5.890028 15.440256,-11.444892 23.08642,-17.266125 1.151091,-0.851531 2.318099,-1.6835202 3.529305,-2.4479292 1.348901,1.3387862 2.872031,2.4887052 4.239801,3.8102432 5.300856,4.768206 10.649108,9.486896 16.101841,14.082878 3.439249,2.899972 6.463901,6.359506 10.398592,8.620551 1.098946,0.545427 2.710938,-0.406005 2.368721,-1.703041 C 78.92637,32.22906 77.331291,31.703094 76.328788,30.773243 71.278762,26.915992 67.096875,22.097473 62.799999,17.469335 58.87181,13.380034 54.899128,9.3323811 50.918966,5.294285 49.940929,4.3681368 48.998362,3.2287471 47.671875,2.8261719 47.522405,2.8051772 47.373652,2.7902046 47.222656,2.8027344 Z m 1.179688,4.125 c 0.367666,0.3459622 1.079695,1.055544 0.330158,0.3590669 C 48.596943,7.177955 47.892694,6.4348804 48.402344,6.9277344 Z M 12.208984,30.730469 c -0.957177,0.657387 -1.858439,1.401849 -2.8886715,1.945312 1.1888955,-0.881029 2.4222065,-1.700137 3.6328125,-2.550781 -0.248047,0.201823 -0.496094,0.403646 -0.744141,0.605469 z" />
    <path
       id="path145460"
       style="color:#000000;font-style:normal;font-variant:normal;font-weight:normal;font-stretch:normal;font-size:medium;line-height:normal;font-family:sans-serif;font-variant-ligatures:normal;font-variant-position:normal;font-variant-caps:normal;font-variant-numeric:normal;font-variant-alternates:normal;font-variant-east-asian:normal;font-feature-settings:normal;font-variation-settings:normal;text-indent:0;text-align:start;text-decoration:none;text-decoration-line:none;text-decoration-style:solid;text-decoration-color:#000000;letter-spacing:normal;word-spacing:normal;text-transform:none;writing-mode:lr-tb;direction:ltr;text-orientation:mixed;dominant-baseline:auto;baseline-shift:baseline;text-anchor:start;white-space:normal;shape-padding:0;shape-margin:0;inline-size:0;clip-rule:nonzero;display:inline;overflow:visible;visibility:visible;opacity:1;isolation:auto;mix-blend-mode:normal;color-interpolation:sRGB;color-interpolation-filters:linearRGB;solid-color:#000000;solid-opacity:1;vector-effect:none;fill:#000000;fill-opacity:1;fill-rule:nonzero;stroke:none;stroke-width:1.25177;stroke-linecap:round;stroke-linejoin:round;stroke-miterlimit:4;stroke-dasharray:none;stroke-dashoffset:0;stroke-opacity:1;color-rendering:auto;image-rendering:auto;shape-rendering:auto;text-rendering:auto;enable-background:accumulate;stop-color:#000000;stop-opacity:1"
       d="m 46.328852,22.983036 c -2.217903,0.321563 -3.55827,2.255217 -5.361212,3.300638 -1.226111,0.227006 -2.149802,-0.783791 -3.232798,-1.135626 -1.716803,-0.763756 -3.720736,-1.572361 -5.613499,-0.965834 -1.101162,0.688922 -0.952903,2.246796 -0.247118,3.155639 0.633252,1.432328 1.95367,2.86591 1.518349,4.539831 -1.08339,1.655353 -2.904881,2.668481 -4.200365,4.155134 -0.543347,0.672861 -1.40272,1.545007 -0.986434,2.451831 0.674022,1.180648 2.216535,1.251247 3.450946,1.361933 1.934891,0.239033 3.970856,0.157734 5.808533,0.833898 1.371396,1.21916 1.872414,3.036478 2.751222,4.572372 0.634652,1.157155 1.351712,2.476593 2.667723,3.014202 1.549274,0.341069 3.053282,-0.982147 3.11037,-2.446011 0.332635,-1.082159 0.01345,-2.315892 0.566173,-3.324413 0.74503,-0.807253 1.992142,-0.424343 2.974047,-0.548271 2.953992,-0.04973 5.926546,0.185579 8.784538,-0.472076 1.083408,-0.569429 0.948584,-2.265951 -0.148139,-2.759017 -2.538147,-2.265376 -5.815375,-3.562519 -8.516128,-5.608782 -0.785305,-1.26669 -0.524092,-2.832745 -0.600585,-4.245747 -0.0028,-1.738757 0.177067,-3.510745 -0.763818,-5.075086 -0.458698,-0.558234 -1.222217,-0.873617 -1.961805,-0.804615 z m -0.360925,2.624427 c 0.608306,0.656081 0.33434,2.961519 0.419292,3.765547 -0.02428,1.856022 -0.246094,4.315087 1.404323,5.609929 1.296399,1.144873 5.062924,2.486671 6.423974,3.500982 0.577869,0.843721 0.124889,1.681425 -0.937032,1.297807 -2.137579,0.06778 -6.290002,-0.692246 -8.295489,0.168741 -0.560547,0.33981 -0.141252,3.525131 -1.225817,4.578298 -0.210314,2.430224 -2.430268,-2.431811 -2.537829,-3.39033 -0.757435,-1.661759 -2.355145,-3.123082 -4.338612,-3.167075 -1.035954,-0.212169 -3.788876,-0.257501 -4.805796,-0.468761 -0.926931,-0.478502 0.887097,-1.877915 1.836908,-2.26927 1.257209,-1.121016 2.892172,-2.590119 2.560697,-4.465344 -0.15644,-0.868358 -2.558406,-3.118092 -1.870784,-3.972338 0.698543,-0.736956 3.270991,1.101127 3.945357,1.563653 1.223671,0.662155 2.860263,0.925451 4.027894,0.0091 0.712211,-0.410142 1.274712,-1.653036 1.949268,-2.075553 0.508315,-0.195298 2.105207,-2.044319 1.443646,-0.685386 z" />
    <path
       id="path145500"
       style="color:#000000;font-style:normal;font-variant:normal;font-weight:normal;font-stretch:normal;font-size:medium;line-height:normal;font-family:sans-serif;font-variant-ligatures:normal;font-variant-position:normal;font-variant-caps:normal;font-variant-numeric:normal;font-variant-alternates:normal;font-variant-east-asian:normal;font-feature-settings:normal;font-variation-settings:normal;text-indent:0;text-align:start;text-decoration:none;text-decoration-line:none;text-decoration-style:solid;text-decoration-color:#000000;letter-spacing:normal;word-spacing:normal;text-transform:none;writing-mode:lr-tb;direction:ltr;text-orientation:mixed;dominant-baseline:auto;baseline-shift:baseline;text-anchor:start;white-space:normal;shape-padding:0;shape-margin:0;inline-size:0;clip-rule:nonzero;display:inline;overflow:visible;visibility:visible;opacity:1;isolation:auto;mix-blend-mode:normal;color-interpolation:sRGB;color-interpolation-filters:linearRGB;solid-color:#000000;solid-opacity:1;vector-effect:none;fill:#000000;fill-opacity:1;fill-rule:nonzero;stroke:none;stroke-width:0.978871;stroke-linecap:round;stroke-linejoin:miter;stroke-miterlimit:4;stroke-dasharray:none;stroke-dashoffset:0;stroke-opacity:1;color-rendering:auto;image-rendering:auto;shape-rendering:auto;text-rendering:auto;enable-background:accumulate;stop-color:#000000;stop-opacity:1"
       d="m 10.355469,33.263672 c -0.6980196,-0.01332 -1.2188295,0.672487 -1.0196717,1.344932 0.239015,4.419523 0.2896991,8.848155 0.5461821,13.265707 0.3147416,3.656432 0.8617436,7.299629 0.8458386,10.979455 0.03228,5.353025 0.988061,10.668347 1.126606,15.992843 0.122285,2.021968 0.08923,4.064093 0.272529,6.075266 0.400552,1.007214 2.322431,0.792437 2.219097,-0.394859 C 14.198016,75.414984 13.964937,70.303822 13.3826,65.220362 12.853107,60.923121 13.16219,56.593385 12.611276,52.277067 12.235278,49.201516 11.998916,46.1896 11.954613,43.066006 11.838145,40.032697 11.758314,36.990418 11.560547,33.964844 11.40643,33.464219 10.842215,33.234864 10.355469,33.263672 Z" />
    <path
       id="path145496"
       style="color:#000000;font-style:normal;font-variant:normal;font-weight:normal;font-stretch:normal;font-size:medium;line-height:normal;font-family:sans-serif;font-variant-ligatures:normal;font-variant-position:normal;font-variant-caps:normal;font-variant-numeric:normal;font-variant-alternates:normal;font-variant-east-asian:normal;font-feature-settings:normal;font-variation-settings:normal;text-indent:0;text-align:start;text-decoration:none;text-decoration-line:none;text-decoration-style:solid;text-decoration-color:#000000;letter-spacing:normal;word-spacing:normal;text-transform:none;writing-mode:lr-tb;direction:ltr;text-orientation:mixed;dominant-baseline:auto;baseline-shift:baseline;text-anchor:start;white-space:normal;shape-padding:0;shape-margin:0;inline-size:0;clip-rule:nonzero;display:inline;overflow:visible;visibility:visible;opacity:1;isolation:auto;mix-blend-mode:normal;color-interpolation:sRGB;color-interpolation-filters:linearRGB;solid-color:#000000;solid-opacity:1;vector-effect:none;fill:#000000;fill-opacity:1;fill-rule:nonzero;stroke:none;stroke-width:1.16484;stroke-linecap:round;stroke-linejoin:miter;stroke-miterlimit:4;stroke-dasharray:none;stroke-dashoffset:0;stroke-opacity:1;color-rendering:auto;image-rendering:auto;shape-rendering:auto;text-rendering:auto;enable-background:accumulate;stop-color:#000000;stop-opacity:1"
       d="m 14.183594,30.691323 c -0.669223,-0.02119 -1.451122,0.45298 -1.291338,1.205887 -0.155402,6.31299 0.0087,12.630319 0.488194,18.926867 0.579648,8.251963 1.188654,16.508618 2.372868,24.701581 0.235813,1.525845 0.355438,3.083184 0.666604,4.589734 0.52643,0.775134 1.85487,0.778164 2.5,0.146499 0.422605,-0.636518 -0.06029,-1.438601 -0.04105,-2.13756 C 17.976195,71.737218 17.205556,65.363765 16.740546,58.93657 16.091935,50.589597 15.425948,42.261662 15.62017,33.880778 15.56684,33.02022 15.776075,32.115128 15.57031,31.279246 15.310879,30.800551 14.687504,30.677769 14.183592,30.691323 Z" />
    <path
       id="path145504"
       style="color:#000000;font-style:normal;font-variant:normal;font-weight:normal;font-stretch:normal;font-size:medium;line-height:normal;font-family:sans-serif;font-variant-ligatures:normal;font-variant-position:normal;font-variant-caps:normal;font-variant-numeric:normal;font-variant-alternates:normal;font-variant-east-asian:normal;font-feature-settings:normal;font-variation-settings:normal;text-indent:0;text-align:start;text-decoration:none;text-decoration-line:none;text-decoration-style:solid;text-decoration-color:#000000;letter-spacing:normal;word-spacing:normal;text-transform:none;writing-mode:lr-tb;direction:ltr;text-orientation:mixed;dominant-baseline:auto;baseline-shift:baseline;text-anchor:start;white-space:normal;shape-padding:0;shape-margin:0;inline-size:0;clip-rule:nonzero;display:inline;overflow:visible;visibility:visible;opacity:1;isolation:auto;mix-blend-mode:normal;color-interpolation:sRGB;color-interpolation-filters:linearRGB;solid-color:#000000;solid-opacity:1;vector-effect:none;fill:#000000;fill-opacity:1;fill-rule:nonzero;stroke:none;stroke-width:1.09465;stroke-linecap:round;stroke-linejoin:miter;stroke-miterlimit:4;stroke-dasharray:none;stroke-dashoffset:0;stroke-opacity:1;color-rendering:auto;image-rendering:auto;shape-rendering:auto;text-rendering:auto;enable-background:accumulate;stop-color:#000000;stop-opacity:1"
       d="m 65.316945,73.577767 c -4.892649,0.470152 -9.752296,0.834528 -14.675927,0.640861 -2.690161,-0.115379 -5.387112,-0.01988 -8.046729,0.419685 -6.015937,0.757852 -12.213998,0.716857 -18.240539,0.02287 -0.706027,-0.0086 -1.747428,-0.482216 -2.159851,0.359942 -0.417861,0.722672 -0.197153,2.07333 0.825788,2.062563 7.107283,0.890343 14.332876,0.914494 21.426165,-0.127016 3.958641,-0.499329 7.9516,0.02687 11.924953,-0.177567 3.087498,-0.123996 6.181007,-0.355352 9.246922,-0.703293 0.907296,-0.451517 0.936073,-2.15947 -0.08594,-2.488281 -0.07127,-0.0077 -0.143123,-0.01637 -0.214844,-0.0098 z" />
    <path
       id="path145508"
       style="color:#000000;font-style:normal;font-variant:normal;font-weight:normal;font-stretch:normal;font-size:medium;line-height:normal;font-family:sans-serif;font-variant-ligatures:normal;font-variant-position:normal;font-variant-caps:normal;font-variant-numeric:normal;font-variant-alternates:normal;font-variant-east-asian:normal;font-feature-settings:normal;font-variation-settings:normal;text-indent:0;text-align:start;text-decoration:none;text-decoration-line:none;text-decoration-style:solid;text-decoration-color:#000000;letter-spacing:normal;word-spacing:normal;text-transform:none;writing-mode:lr-tb;direction:ltr;text-orientation:mixed;dominant-baseline:auto;baseline-shift:baseline;text-anchor:start;white-space:normal;shape-padding:0;shape-margin:0;inline-size:0;clip-rule:nonzero;display:inline;overflow:visible;visibility:visible;opacity:1;isolation:auto;mix-blend-mode:normal;color-interpolation:sRGB;color-interpolation-filters:linearRGB;solid-color:#000000;solid-opacity:1;vector-effect:none;fill:#000000;fill-opacity:1;fill-rule:nonzero;stroke:none;stroke-width:0.961195;stroke-linecap:round;stroke-linejoin:miter;stroke-miterlimit:4;stroke-dasharray:none;stroke-dashoffset:0;stroke-opacity:1;color-rendering:auto;image-rendering:auto;shape-rendering:auto;text-rendering:auto;enable-background:accumulate;stop-color:#000000;stop-opacity:1"
       d="m 58.90625,77.642578 c -5.572075,0.08827 -11.144628,0.105907 -16.71703,0.124058 -5.452729,0.121302 -10.906582,0.201626 -16.359663,0.284585 -2.059406,0.05984 -4.078042,0.60766 -6.015104,1.259326 -0.879835,0.543119 -0.446564,2.311387 0.681641,2.042969 2.111985,-0.652823 4.284447,-1.186707 6.511718,-1.123047 7.5728,-0.03822 15.142042,-0.347441 22.715626,-0.269531 6.09963,-0.08267 12.200484,-0.152456 18.3,-0.05664 1.156695,-0.145718 1.096668,-2.17385 -0.08594,-2.208985 -3.010349,-0.03355 -6.020646,-0.06905 -9.03125,-0.05273 z" />
    <path
       id="path145512"
       style="color:#000000;font-style:normal;font-variant:normal;font-weight:normal;font-stretch:normal;font-size:medium;line-height:normal;font-family:sans-serif;font-variant-ligatures:normal;font-variant-position:normal;font-variant-caps:normal;font-variant-numeric:normal;font-variant-alternates:normal;font-variant-east-asian:normal;font-feature-settings:normal;font-variation-settings:normal;text-indent:0;text-align:start;text-decoration:none;text-decoration-line:none;text-decoration-style:solid;text-decoration-color:#000000;letter-spacing:normal;word-spacing:normal;text-transform:none;writing-mode:lr-tb;direction:ltr;text-orientation:mixed;dominant-baseline:auto;baseline-shift:baseline;text-anchor:start;white-space:normal;shape-padding:0;shape-margin:0;inline-size:0;clip-rule:nonzero;display:inline;overflow:visible;visibility:visible;opacity:1;isolation:auto;mix-blend-mode:normal;color-interpolation:sRGB;color-interpolation-filters:linearRGB;solid-color:#000000;solid-opacity:1;vector-effect:none;fill:#000000;fill-opacity:1;fill-rule:nonzero;stroke:none;stroke-width:2.83646;stroke-linecap:round;stroke-linejoin:miter;stroke-miterlimit:4;stroke-dasharray:none;stroke-dashoffset:0;stroke-opacity:1;color-rendering:auto;image-rendering:auto;shape-rendering:auto;text-rendering:auto;enable-background:accumulate;stop-color:#000000;stop-opacity:1"
       d="m 70.067467,27.433231 c -0.665885,-0.01583 -1.393867,0.517835 -1.200646,1.252949 0.267475,7.100278 0.504225,14.209207 0.192848,21.312481 -0.256505,6.994354 -0.386558,13.992485 -0.360753,20.991578 0.0023,2.312485 -0.113285,4.591956 -0.277933,6.878539 0.277863,0.984934 1.729688,1.054352 2.416015,0.466797 0.496317,-0.6026 0.209841,-1.493032 0.37112,-2.211305 0.33105,-5.785121 0.06227,-11.586179 0.265199,-17.376409 0.191064,-7.74953 0.616192,-15.501619 0.292772,-23.254145 -0.09835,-2.461862 -0.114792,-4.938678 -0.288466,-7.390563 -0.216701,-0.541235 -0.883818,-0.698752 -1.410156,-0.669922 z" />
    <path
       id="path145516"
       style="color:#000000;font-style:normal;font-variant:normal;font-weight:normal;font-stretch:normal;font-size:medium;line-height:normal;font-family:sans-serif;font-variant-ligatures:normal;font-variant-position:normal;font-variant-caps:normal;font-variant-numeric:normal;font-variant-alternates:normal;font-variant-east-asian:normal;font-feature-settings:normal;font-variation-settings:normal;text-indent:0;text-align:start;text-decoration:none;text-decoration-line:none;text-decoration-style:solid;text-decoration-color:#000000;letter-spacing:normal;word-spacing:normal;text-transform:none;writing-mode:lr-tb;direction:ltr;text-orientation:mixed;dominant-baseline:auto;baseline-shift:baseline;text-anchor:start;white-space:normal;shape-padding:0;shape-margin:0;inline-size:0;clip-rule:nonzero;display:inline;overflow:visible;visibility:visible;opacity:1;isolation:auto;mix-blend-mode:normal;color-interpolation:sRGB;color-interpolation-filters:linearRGB;solid-color:#000000;solid-opacity:1;vector-effect:none;fill:#000000;fill-opacity:1;fill-rule:nonzero;stroke:none;stroke-width:1.09055;stroke-linecap:round;stroke-linejoin:miter;stroke-miterlimit:4;stroke-dasharray:none;stroke-dashoffset:0;stroke-opacity:1;color-rendering:auto;image-rendering:auto;shape-rendering:auto;text-rendering:auto;enable-background:accumulate;stop-color:#000000;stop-opacity:1"
       d="m 75.005859,31.113281 c -0.701556,-0.02748 -1.364514,0.560504 -1.209174,1.298125 -0.262075,5.72613 -0.277236,11.459968 -0.317668,17.19045 0.201065,2.57542 0.397669,5.110828 0.221477,7.707422 -0.156965,5.555327 -0.509558,11.090109 -0.77673,16.634775 -0.02926,1.634315 -0.118547,3.285332 -0.01947,4.911416 0.424347,0.976042 2.270026,0.922249 2.503906,-0.171875 -0.05445,-6.468357 0.625083,-12.890133 0.761819,-19.357517 0.163388,-3.109852 0.222256,-6.232386 -0.127815,-9.332218 -0.04855,-3.673864 0.06917,-7.35008 0.08448,-11.024883 0.0153,-2.367132 0.189033,-4.738025 0.211208,-7.099835 -0.140678,-0.569683 -0.808746,-0.780447 -1.332033,-0.75586 z" />
    <path
       id="path145468"
       style="color:#000000;font-style:normal;font-variant:normal;font-weight:normal;font-stretch:normal;font-size:medium;line-height:normal;font-family:sans-serif;font-variant-ligatures:normal;font-variant-position:normal;font-variant-caps:normal;font-variant-numeric:normal;font-variant-alternates:normal;font-variant-east-asian:normal;font-feature-settings:normal;font-variation-settings:normal;text-indent:0;text-align:start;text-decoration:none;text-decoration-line:none;text-decoration-style:solid;text-decoration-color:#000000;letter-spacing:normal;word-spacing:normal;text-transform:none;writing-mode:lr-tb;direction:ltr;text-orientation:mixed;dominant-baseline:auto;baseline-shift:baseline;text-anchor:start;white-space:normal;shape-padding:0;shape-margin:0;inline-size:0;clip-rule:nonzero;display:inline;overflow:visible;visibility:visible;opacity:1;isolation:auto;mix-blend-mode:normal;color-interpolation:sRGB;color-interpolation-filters:linearRGB;solid-color:#000000;solid-opacity:1;vector-effect:none;fill:#000000;fill-opacity:1;fill-rule:nonzero;stroke:none;stroke-width:1.2;stroke-linecap:round;stroke-linejoin:miter;stroke-miterlimit:4;stroke-dasharray:none;stroke-dashoffset:0;stroke-opacity:1;color-rendering:auto;image-rendering:auto;shape-rendering:auto;text-rendering:auto;enable-background:accumulate;stop-color:#000000;stop-opacity:1"
       d="m 30.934732,55.741932 c -1.1477,0.130376 -2.30901,0.401278 -3.369141,0.84961 -0.85436,0.540303 -0.458978,2.009482 0.550782,2.046875 1.297173,-0.134699 2.546475,-0.873139 3.889617,-0.600619 1.03445,0.174509 1.655442,1.195673 2.149445,2.0264 0.310238,0.837955 0.327992,2.112982 1.416016,2.361328 1.261899,0.209188 2.029457,-1.08373 2.906778,-1.749056 1.412275,-1.347203 3.338812,-2.030156 5.277497,-2.042401 1.899511,-0.120409 3.723731,0.393659 5.382721,1.187611 1.931296,0.787342 3.532531,2.248536 4.573629,4.045252 0.610993,0.803148 2.043889,0.274582 1.984375,-0.734374 -0.09544,-0.848096 -0.817065,-1.470852 -1.264145,-2.156135 -1.924945,-2.336818 -4.81145,-3.659649 -7.696706,-4.367889 -3.127923,-0.589969 -6.65039,-0.198143 -9.171962,1.893164 -0.415571,0.325202 -0.804224,0.679479 -1.199218,1.027344 -0.531667,-1.35784 -1.512468,-2.597967 -2.777344,-3.339844 -0.815883,-0.414381 -1.751099,-0.499761 -2.652344,-0.447266 z" />
    <path
       id="path145472"
       style="color:#000000;font-style:normal;font-variant:normal;font-weight:normal;font-stretch:normal;font-size:medium;line-height:normal;font-family:sans-serif;font-variant-ligatures:normal;font-variant-position:normal;font-variant-caps:normal;font-variant-numeric:normal;font-variant-alternates:normal;font-variant-east-asian:normal;font-feature-settings:normal;font-variation-settings:normal;text-indent:0;text-align:start;text-decoration:none;text-decoration-line:none;text-decoration-style:solid;text-decoration-color:#000000;letter-spacing:normal;word-spacing:normal;text-transform:none;writing-mode:lr-tb;direction:ltr;text-orientation:mixed;dominant-baseline:auto;baseline-shift:baseline;text-anchor:start;white-space:normal;shape-padding:0;shape-margin:0;inline-size:0;clip-rule:nonzero;display:inline;overflow:visible;visibility:visible;opacity:1;isolation:auto;mix-blend-mode:normal;color-interpolation:sRGB;color-interpolation-filters:linearRGB;solid-color:#000000;solid-opacity:1;vector-effect:none;fill:#000000;fill-opacity:1;fill-rule:nonzero;stroke:none;stroke-width:1.2;stroke-linecap:round;stroke-linejoin:miter;stroke-miterlimit:4;stroke-dasharray:none;stroke-dashoffset:0;stroke-opacity:1;color-rendering:auto;image-rendering:auto;shape-rendering:auto;text-rendering:auto;enable-background:accumulate;stop-color:#000000;stop-opacity:1"
       d="m 23.231607,55.073964 c -0.953136,0.04002 -1.379137,1.345859 -0.676273,1.97055 1.634177,2.381463 4.05035,4.015877 6.346183,5.692226 2.437244,1.874658 5.037406,3.788571 8.15435,4.278942 3.945685,0.668762 8.034543,0.545638 11.942391,-0.309087 3.633063,-0.888322 6.986563,-2.725794 9.961022,-4.961793 0.782336,-0.675639 1.662389,-1.288306 2.301624,-2.102479 0.524434,-0.872671 -0.51735,-2.008537 -1.433594,-1.566406 -0.938535,0.632139 -1.685172,1.535529 -2.630859,2.173828 -3.381743,2.440263 -7.2817,4.368831 -11.489987,4.725335 -2.89438,0.312365 -6.013264,0.315396 -8.880117,-0.319633 C 33.586062,63.9006 31.161851,61.46577 28.499094,59.637889 26.815147,58.481065 25.315595,57.069283 24.128091,55.404042 23.89986,55.164138 23.559558,55.045028 23.231607,55.073964 Z" />
    <path
       id="path145488"
       style="color:#000000;font-style:normal;font-variant:normal;font-weight:normal;font-stretch:normal;font-size:medium;line-height:normal;font-family:sans-serif;font-variant-ligatures:normal;font-variant-position:normal;font-variant-caps:normal;font-variant-numeric:normal;font-variant-alternates:normal;font-variant-east-asian:normal;font-feature-settings:normal;font-variation-settings:normal;text-indent:0;text-align:start;text-decoration:none;text-decoration-line:none;text-decoration-style:solid;text-decoration-color:#000000;letter-spacing:normal;word-spacing:normal;text-transform:none;writing-mode:lr-tb;direction:ltr;text-orientation:mixed;dominant-baseline:auto;baseline-shift:baseline;text-anchor:start;white-space:normal;shape-padding:0;shape-margin:0;inline-size:0;clip-rule:nonzero;display:inline;overflow:visible;visibility:visible;opacity:1;isolation:auto;mix-blend-mode:normal;color-interpolation:sRGB;color-interpolation-filters:linearRGB;solid-color:#000000;solid-opacity:1;vector-effect:none;fill:#000000;fill-opacity:1;fill-rule:nonzero;stroke:none;stroke-width:1.2;stroke-linecap:round;stroke-linejoin:miter;stroke-miterlimit:4;stroke-dasharray:none;stroke-dashoffset:0;stroke-opacity:1;color-rendering:auto;image-rendering:auto;shape-rendering:auto;text-rendering:auto;enable-background:accumulate;stop-color:#000000;stop-opacity:1"
       d="m 52.424739,63.624112 c -0.990618,0.08044 -1.975725,0.377981 -2.888484,0.750668 -0.856918,0.204582 -2.525937,1.381239 -2.323415,1.899847 0.219242,0.353256 2.607897,0.517654 3.157184,0.161985 0,0 0.852916,0.813826 1.060578,1.31151 0.526931,1.911723 1.089252,3.858829 2.054657,5.600599 0.617375,0.802529 2.048144,0.259919 1.980469,-0.75 -0.174596,-0.958407 -0.785555,-1.793857 -1.044964,-2.737197 -0.490796,-1.389384 -0.995757,-2.89147 -0.494582,-4.354723 0.263771,-0.984151 -0.454657,-1.962192 -1.50147,-1.882689 z m -0.140625,2.300781 c -0.815748,-0.521316 -0.516459,-0.721551 0.318359,-0.767578 z M 49.536255,64.37478 c -0.0191,6.88e-4 0.03824,-0.0049 0,0 z" />
    <path
       id="path145484"
       style="color:#000000;font-style:normal;font-variant:normal;font-weight:normal;font-stretch:normal;font-size:medium;line-height:normal;font-family:sans-serif;font-variant-ligatures:normal;font-variant-position:normal;font-variant-caps:normal;font-variant-numeric:normal;font-variant-alternates:normal;font-variant-east-asian:normal;font-feature-settings:normal;font-variation-settings:normal;text-indent:0;text-align:start;text-decoration:none;text-decoration-line:none;text-decoration-style:solid;text-decoration-color:#000000;letter-spacing:normal;word-spacing:normal;text-transform:none;writing-mode:lr-tb;direction:ltr;text-orientation:mixed;dominant-baseline:auto;baseline-shift:baseline;text-anchor:start;white-space:normal;shape-padding:0;shape-margin:0;inline-size:0;clip-rule:nonzero;display:inline;overflow:visible;visibility:visible;opacity:1;isolation:auto;mix-blend-mode:normal;color-interpolation:sRGB;color-interpolation-filters:linearRGB;solid-color:#000000;solid-opacity:1;vector-effect:none;fill:#000000;fill-opacity:1;fill-rule:nonzero;stroke:none;stroke-width:1.2;stroke-linecap:round;stroke-linejoin:miter;stroke-miterlimit:4;stroke-dasharray:none;stroke-dashoffset:0;stroke-opacity:1;color-rendering:auto;image-rendering:auto;shape-rendering:auto;text-rendering:auto;enable-background:accumulate;stop-color:#000000;stop-opacity:1"
       d="m 34.061685,64.560292 c -1.0139,0.09451 -1.237065,1.306842 -1.791792,1.967613 -1.179348,1.920283 -2.437729,3.796971 -3.645708,5.694496 -0.417538,0.930984 0.756892,1.934008 1.613281,1.38086 0.737871,-0.586781 1.087812,-1.541995 1.65986,-2.278815 1.113642,-1.756176 2.27509,-3.493441 3.30889,-5.293451 0.255448,-0.730712 -0.372934,-1.538489 -1.144531,-1.470703 z" />
    <path
       id="path145480"
       style="color:#000000;font-style:normal;font-variant:normal;font-weight:normal;font-stretch:normal;font-size:medium;line-height:normal;font-family:sans-serif;font-variant-ligatures:normal;font-variant-position:normal;font-variant-caps:normal;font-variant-numeric:normal;font-variant-alternates:normal;font-variant-east-asian:normal;font-feature-settings:normal;font-variation-settings:normal;text-indent:0;text-align:start;text-decoration:none;text-decoration-line:none;text-decoration-style:solid;text-decoration-color:#000000;letter-spacing:normal;word-spacing:normal;text-transform:none;writing-mode:lr-tb;direction:ltr;text-orientation:mixed;dominant-baseline:auto;baseline-shift:baseline;text-anchor:start;white-space:normal;shape-padding:0;shape-margin:0;inline-size:0;clip-rule:nonzero;display:inline;overflow:visible;visibility:visible;opacity:1;isolation:auto;mix-blend-mode:normal;color-interpolation:sRGB;color-interpolation-filters:linearRGB;solid-color:#000000;solid-opacity:1;vector-effect:none;fill:#000000;fill-opacity:1;fill-rule:nonzero;stroke:none;stroke-width:1.2;stroke-linecap:round;stroke-linejoin:miter;stroke-miterlimit:4;stroke-dasharray:none;stroke-dashoffset:0;stroke-opacity:1;color-rendering:auto;image-rendering:auto;shape-rendering:auto;text-rendering:auto;enable-background:accumulate;stop-color:#000000;stop-opacity:1"
       d="m 32.274576,62.806386 c -0.981009,-0.0032 -1.454017,1.166926 -1.013672,1.96289 0.389578,0.914 0.717699,1.943403 0.281652,2.908054 -0.441032,0.833606 0.40903,1.909935 1.31991,1.617337 0.919404,-0.277381 0.955233,-1.407186 1.120804,-2.192559 -0.09715,-0.463139 0.433013,-0.20071 0.683884,-0.420722 0.77236,-0.381924 0.754447,-1.524386 0.07361,-1.991921 -0.753083,-0.65977 -1.392854,-1.765538 -2.466186,-1.883079 z" />
    <path
       id="path145476"
       style="color:#000000;font-style:normal;font-variant:normal;font-weight:normal;font-stretch:normal;font-size:medium;line-height:normal;font-family:sans-serif;font-variant-ligatures:normal;font-variant-position:normal;font-variant-caps:normal;font-variant-numeric:normal;font-variant-alternates:normal;font-variant-east-asian:normal;font-feature-settings:normal;font-variation-settings:normal;text-indent:0;text-align:start;text-decoration:none;text-decoration-line:none;text-decoration-style:solid;text-decoration-color:#000000;letter-spacing:normal;word-spacing:normal;text-transform:none;writing-mode:lr-tb;direction:ltr;text-orientation:mixed;dominant-baseline:auto;baseline-shift:baseline;text-anchor:start;white-space:normal;shape-padding:0;shape-margin:0;inline-size:0;clip-rule:nonzero;display:inline;overflow:visible;visibility:visible;opacity:1;isolation:auto;mix-blend-mode:normal;color-interpolation:sRGB;color-interpolation-filters:linearRGB;solid-color:#000000;solid-opacity:1;vector-effect:none;fill:#000000;fill-opacity:1;fill-rule:nonzero;stroke:none;stroke-width:1.2;stroke-linecap:round;stroke-linejoin:miter;stroke-miterlimit:4;stroke-dasharray:none;stroke-dashoffset:0;stroke-opacity:1;color-rendering:auto;image-rendering:auto;shape-rendering:auto;text-rendering:auto;enable-background:accumulate;stop-color:#000000;stop-opacity:1"
       d="m 35.155208,64.76669 c -1.388269,0.02468 -2.738963,0.956855 -3.197266,2.267578 -0.219031,0.985254 1.098278,1.741133 1.837891,1.054687 0.414323,-0.468169 0.743794,-1.16276 1.503906,-1.05664 0.944971,-0.102007 1.909224,0.227197 2.837891,0.04297 0.978207,-0.30068 0.956657,-1.845283 -0.02344,-2.126953 -0.966125,-0.160715 -1.97838,-0.21904 -2.958984,-0.181641 z" />
    <path
       style="display:none;fill:none;stroke:#000000;stroke-width:0.865;stroke-linecap:butt;stroke-linejoin:miter;stroke-miterlimit:4;stroke-dasharray:none;stroke-opacity:1"
       d="m 56.493672,71.674699 c 0.458052,-0.320585 0.916051,-0.641133 1.120686,-0.44848 0.204634,0.192653 0.155976,0.898196 0.11948,1.421286 -0.0365,0.52309 -0.06082,0.863696 -0.08514,1.204067"
       id="path145444"
       transform="translate(-9.6950855,-5.9720226)" />
    <path
       id="path145492"
       style="color:#000000;font-style:normal;font-variant:normal;font-weight:normal;font-stretch:normal;font-size:medium;line-height:normal;font-family:sans-serif;font-variant-ligatures:normal;font-variant-position:normal;font-variant-caps:normal;font-variant-numeric:normal;font-variant-alternates:normal;font-variant-east-asian:normal;font-feature-settings:normal;font-variation-settings:normal;text-indent:0;text-align:start;text-decoration:none;text-decoration-line:none;text-decoration-style:solid;text-decoration-color:#000000;letter-spacing:normal;word-spacing:normal;text-transform:none;writing-mode:lr-tb;direction:ltr;text-orientation:mixed;dominant-baseline:auto;baseline-shift:baseline;text-anchor:start;white-space:normal;shape-padding:0;shape-margin:0;inline-size:0;clip-rule:nonzero;display:inline;overflow:visible;visibility:visible;opacity:1;isolation:auto;mix-blend-mode:normal;color-interpolation:sRGB;color-interpolation-filters:linearRGB;solid-color:#000000;solid-opacity:1;vector-effect:none;fill:#000000;fill-opacity:1;fill-rule:nonzero;stroke:none;stroke-width:0.865;stroke-linecap:round;stroke-linejoin:miter;stroke-miterlimit:4;stroke-dasharray:none;stroke-dashoffset:0;stroke-opacity:1;color-rendering:auto;image-rendering:auto;shape-rendering:auto;text-rendering:auto;enable-background:accumulate;stop-color:#000000;stop-opacity:1"
       d="m 55.336837,62.14204 c -0.623511,0.128255 -1.084324,0.645656 -1.655178,0.91776 -1.366846,0.748847 -1.960669,2.338931 -1.925869,3.831705 0.0283,1.146271 1.145925,3.742484 1.285618,4.876785 0.253732,0.870005 0.285368,-2.41031 0.478153,-3.294049 0.192923,-1.577793 -0.08714,-1.432232 0.406621,-2.96744 0.460491,-1.067161 2.025797,-1.093432 2.41458,-2.192883 0.159173,-0.605689 -0.382787,-1.232222 -1.003925,-1.171878 z" />
  </g>
</svg>
