<?xml version="1.0" encoding="UTF-8" standalone="no"?>
<svg width="86mm" height="130mm" viewBox="0 0 86 130" version="1.1" xmlns="http://www.w3.org/2000/svg" xmlns:xlink="http://www.w3.org/1999/xlink" stroke="none" fill="#000000">
<rect x="0" y="0" width="5" height="130" rx="3" ry="3"/>
<rect x="81" y="0" width="5" height="130" rx="3" ry="3"/>
<rect x="0" y="0" width="86" height="5" rx="3" ry="3"/>
<rect x="0" y="125" width="86" height="5" rx="3" ry="3"/>

<rect x="33" y="0" width="5" height="130"/>
<rect x="42" y="38" width="5" height="54" rx="3" ry="3"/>
<rect x="24" y="38" width="5" height="54" rx="3" ry="3"/>

<rect x="8" y="53" width="4" height="24" rx="3" ry="3"/>
<rect x="17" y="53" width="4" height="24" rx="3" ry="3"/>
<rect x="8" y="53" width="13" height="4" rx="3" ry="3"/>
<rect x="8" y="73" width="13" height="4" rx="3" ry="3"/>
<rect x="8" y="60" width="13" height="4" rx="3" ry="3"/>

</svg>
