<?xml version="1.0" encoding="UTF-8" standalone="no"?>
<!-- Created with Inkscape (http://www.inkscape.org/) -->

<svg
   xmlns:dc="http://purl.org/dc/elements/1.1/"
   xmlns:cc="http://creativecommons.org/ns#"
   xmlns:rdf="http://www.w3.org/1999/02/22-rdf-syntax-ns#"
   xmlns:svg="http://www.w3.org/2000/svg"
   xmlns="http://www.w3.org/2000/svg"
   version="1.2"
   width="126"
   height="126"
   viewBox="0 0 126 126"
   id="Layer_1"
   xml:space="preserve"><metadata
   id="metadata9"><rdf:RDF><cc:Work
       rdf:about=""><dc:format>image/svg+xml</dc:format><dc:type
         rdf:resource="http://purl.org/dc/dcmitype/StillImage" /><dc:title></dc:title></cc:Work></rdf:RDF></metadata><defs
   id="defs7" />
<path
   d="m 89.417,20.667 v 24.666 h 24.666 V 20.667 H 89.417 z m 20.666,20.666 H 93.417 V 24.667 h 16.666 v 16.666 z m -20.666,64 h 24.666 V 80.667 H 89.417 v 24.666 z m 4,-20.666 h 16.666 v 16.666 H 93.417 V 84.667 z m -42.75,20.666 H 75.333 V 80.667 H 50.667 v 24.666 z m 4,-20.666 h 16.666 v 16.666 H 54.667 V 84.667 z m -42.75,20.666 H 36.583 V 80.667 H 11.917 v 24.666 z m 4,-20.666 h 16.666 v 16.666 H 15.917 V 84.667 z M 98.501,65.351 h -17.5 -2.25 -13.844 V 77.084 H 61.093 V 65.351 H 26.751 v 11.733 h -5 V 60.368 h 2.498 v -0.017 h 54.502 2.25 17.5 V 49.017 h 5 v 28.067 h -5 V 65.351 z"
   style="fill:#000000;fill-opacity:1" />
<g
   transform="scale(0.91797743,1.0893514)"
   id="text2986"
   style="font-size:20.49355316px;font-style:normal;font-weight:bold;line-height:124.00000095%;letter-spacing:0px;word-spacing:0px;fill:#000000;fill-opacity:1;stroke:none;font-family:Sans;-inkscape-font-specification:Sans Bold"><path
     d="m 23.537066,52.14595 0,-14.669701 6.234123,0 c 1.567694,1.4e-5 2.70678,0.131768 3.41726,0.395261 0.710458,0.263522 1.279167,0.732164 1.706128,1.40593 0.426936,0.673791 0.640411,1.4443 0.640424,2.311529 -1.3e-5,1.100737 -0.32356,2.009671 -0.970642,2.726803 -0.647106,0.717148 -1.614412,1.169113 -2.901919,1.355897 0.640413,0.373586 1.169096,0.783857 1.586049,1.230814 0.416931,0.446967 0.978968,1.240824 1.686115,2.381575 l 1.791185,2.861892 -3.542343,0 -2.141416,-3.192111 C 30.281518,47.813089 29.761175,47.094281 29.480997,46.797413 29.200805,46.500556 28.903942,46.297088 28.590408,46.187009 28.276861,46.076943 27.779867,46.021906 27.099422,46.0219 l -0.600397,0 0,6.12405 z m 2.961959,-8.465598 2.191449,0 c 1.420932,8e-6 2.308185,-0.06003 2.661761,-0.180119 0.353557,-0.120071 0.630407,-0.326874 0.830549,-0.620411 0.200122,-0.293518 0.300188,-0.660427 0.300199,-1.100728 -1.1e-5,-0.493649 -0.131764,-0.892245 -0.395262,-1.19579 -0.263517,-0.303523 -0.635429,-0.495316 -1.115738,-0.575381 -0.240167,-0.03334 -0.960643,-0.05002 -2.161429,-0.05003 l -2.311529,0 z"
     id="path3007" /><path
     d="m 37.586358,47.372794 2.881906,-0.280186 c 0.173444,0.967311 0.525343,1.67778 1.055698,2.13141 0.530345,0.453636 1.245818,0.680452 2.146419,0.68045 0.953957,2e-6 1.672765,-0.201798 2.156427,-0.6054 0.483643,-0.403597 0.72547,-0.875576 0.725479,-1.415937 -9e-6,-0.346891 -0.101743,-0.642086 -0.305202,-0.885586 -0.203477,-0.243488 -0.558711,-0.455295 -1.065704,-0.63542 -0.346904,-0.120073 -1.137426,-0.333548 -2.371569,-0.640423 -1.587721,-0.393587 -2.70179,-0.87724 -3.34221,-1.45096 -0.900597,-0.807192 -1.350895,-1.791175 -1.350893,-2.951952 -2e-6,-0.747149 0.211805,-1.445944 0.63542,-2.096387 0.423611,-0.650416 1.034014,-1.145743 1.831211,-1.485982 0.797189,-0.340211 1.759491,-0.510323 2.886909,-0.510338 1.841209,1.5e-5 3.227124,0.403615 4.15775,1.210801 0.930603,0.807213 1.419259,1.884591 1.465969,3.232138 l -2.961959,0.130086 c -0.126759,-0.753821 -0.398605,-1.295846 -0.815539,-1.626076 -0.41695,-0.330206 -1.042363,-0.495315 -1.876241,-0.495327 -0.860575,1.2e-5 -1.534353,0.176795 -2.021337,0.53035 -0.313545,0.226829 -0.470315,0.530362 -0.470311,0.910603 -4e-6,0.346906 0.14676,0.643769 0.440292,0.890589 0.373575,0.31355 1.280841,0.640433 2.7218,0.980648 1.440944,0.340234 2.506648,0.692133 3.197114,1.055698 0.690445,0.363582 1.230802,0.860577 1.621072,1.490986 0.390246,0.630423 0.585375,1.409271 0.585387,2.336546 -1.2e-5,0.840559 -0.2335,1.627745 -0.700463,2.361561 -0.466987,0.73382 -1.127423,1.27918 -1.98131,1.636082 -0.853908,0.356903 -1.917944,0.535354 -3.192111,0.535354 -1.854565,0 -3.278839,-0.428616 -4.272826,-1.28585 -0.993992,-0.857232 -1.587718,-2.10639 -1.781178,-3.747478 z"
     id="path3009" /><path
     d="m 56.919144,52.14595 0,-2.951952 -6.003971,0 0,-2.461628 6.364209,-9.316161 2.361562,0 0,9.306154 1.821204,0 0,2.471635 -1.821204,0 0,2.951952 z m 0,-5.423587 0,-5.013315 -3.37223,5.013315 z"
     id="path3011" /><path
     d="m 65.224635,44.230716 c -0.72715,-0.306862 -1.255832,-0.728807 -1.586048,-1.265837 -0.33022,-0.537013 -0.495329,-1.125735 -0.495328,-1.766169 -10e-7,-1.094044 0.381918,-1.997975 1.145758,-2.711793 0.763835,-0.713791 1.849552,-1.070693 3.257154,-1.070708 1.394248,1.5e-5 2.47663,0.356917 3.247147,1.070708 0.7705,0.713818 1.155755,1.617749 1.155765,2.711793 -1e-5,0.680461 -0.176794,1.285861 -0.530351,1.816202 -0.353576,0.530359 -0.850571,0.935627 -1.490986,1.215804 0.813863,0.32689 1.432604,0.803872 1.856227,1.430946 0.423604,0.627087 0.63541,1.350899 0.635421,2.171436 -1.1e-5,1.354232 -0.431963,2.454959 -1.295857,3.302184 -0.863913,0.847227 -2.013005,1.27084 -3.44728,1.27084 -1.33422,0 -2.444954,-0.350231 -3.332204,-1.050694 -1.047361,-0.827213 -1.57104,-1.961295 -1.571039,-3.402251 -1e-6,-0.793853 0.196796,-1.522667 0.590391,-2.186446 0.393591,-0.663765 1.014001,-1.17577 1.86123,-1.536015 z m 0.580384,-2.831873 c -4e-6,0.560381 0.158434,0.997336 0.475315,1.310867 0.316871,0.31355 0.738816,0.47032 1.265837,0.470311 0.53368,9e-6 0.960629,-0.158429 1.280847,-0.475315 0.320204,-0.316866 0.48031,-0.755489 0.480317,-1.31587 -7e-6,-0.527004 -0.158445,-0.948949 -0.475314,-1.265837 -0.316883,-0.316864 -0.735492,-0.475302 -1.25583,-0.475314 -0.540363,1.2e-5 -0.970647,0.160118 -1.290854,0.480317 -0.320216,0.320224 -0.480322,0.743837 -0.480318,1.270841 z m -0.260172,6.284156 c -3e-6,0.773849 0.198461,1.377581 0.595394,1.811198 0.396925,0.433622 0.892252,0.650432 1.485983,0.65043 0.580377,2e-6 1.060694,-0.208469 1.440953,-0.625414 0.380244,-0.416939 0.570369,-1.019003 0.570377,-1.806194 -8e-6,-0.687116 -0.193469,-1.239148 -0.580384,-1.656096 -0.386929,-0.416935 -0.877253,-0.625406 -1.470973,-0.625413 -0.687126,7e-6 -1.199131,0.23683 -1.536016,0.71047 -0.336893,0.473652 -0.505337,0.987324 -0.505334,1.541019 z"
     id="path3013" /><path
     d="m 74.26061,48.373455 2.801853,-0.290191 c 0.08005,0.633755 0.316872,1.135754 0.71047,1.505995 0.393589,0.370248 0.847222,0.55537 1.3609,0.555368 0.587049,2e-6 1.084043,-0.238489 1.490986,-0.715473 0.406928,-0.476979 0.610396,-1.195787 0.610404,-2.156427 -8e-6,-0.900589 -0.201808,-1.576035 -0.605401,-2.02634 -0.403607,-0.45029 -0.928954,-0.675439 -1.576042,-0.675446 -0.807205,7e-6 -1.531017,0.35691 -2.171436,1.070708 l -2.281509,-0.330219 1.440953,-7.635049 7.434917,0 0,2.631741 -5.303507,0 -0.440291,2.491647 c 0.627076,-0.313531 1.267499,-0.470301 1.92127,-0.470311 1.247484,10e-6 2.304849,0.453643 3.172098,1.3609 0.86723,0.907275 1.30085,2.084719 1.30086,3.532336 -10e-6,1.207469 -0.350242,2.284847 -1.050695,3.232138 -0.953973,1.29419 -2.27818,1.941284 -3.972627,1.941284 -1.354233,0 -2.458296,-0.363574 -3.31219,-1.090722 -0.8539,-0.727146 -1.364237,-1.704458 -1.531013,-2.931939 z"
     id="path3015" /></g><g
   id="flowRoot2990"
   style="font-size:4px;font-style:normal;font-weight:bold;line-height:124.00000095%;letter-spacing:0px;word-spacing:0px;fill:#000000;fill-opacity:1;stroke:none;font-family:Sans;-inkscape-font-specification:Sans Bold" /><g
   transform="scale(0.94039617,1.0633816)"
   id="text3002"
   style="font-size:20.78482819px;font-style:normal;font-weight:bold;line-height:124.00000095%;letter-spacing:0px;word-spacing:0px;fill:#000000;fill-opacity:1;stroke:none;font-family:Sans;-inkscape-font-specification:Sans Bold"><path
     d="m 86.911857,17.070581 0,-14.7564157 3.004057,0 0,12.2496517 7.469548,0 0,2.506764 z"
     id="path3019" /><path
     d="m 112.95379,17.070581 -3.26793,0 -1.29905,-3.379564 -5.94722,0 -1.22801,3.379564 -3.186741,0 5.794991,-14.8782018 3.17659,0 z m -5.53112,-5.886328 -2.05007,-5.5209698 -2.00947,5.5209698 z"
     id="path3021" /><path
     d="m 114.58775,17.070581 0,-14.8782018 2.92286,0 6.08931,9.9357158 0,-9.9357158 2.79093,0 0,14.8782018 -3.0142,0 -5.99797,-9.7022924 0,9.7022924 z"
     id="path3023" /></g></svg>