<?xml version="1.0" encoding="utf-8"?>
<!DOCTYPE svg PUBLIC "-//W3C//DTD SVG 1.1//EN" "http://www.w3.org/Graphics/SVG/1.1/DTD/svg11.dtd">
<svg version="1.1" id="Ebene_2" xmlns="http://www.w3.org/2000/svg" xmlns:xlink="http://www.w3.org/1999/xlink" x="0px" y="0px"
	 width="7086.609px" height="7086.609px" viewBox="0 0 7086.609 7086.609" enable-background="new 0 0 7086.609 7086.609"
	 xml:space="preserve">
<path fill="#000000" d="M5569.073,1091.802H1517.536c-219.075,0-396.682,167.307-396.682,373.74v3049.803h4844.9V1465.542
	C5965.755,1259.109,5788.178,1091.802,5569.073,1091.802z M5639,3979.962H1447.609V1341.904H5639V3979.962z"/>
<path fill="#000000" d="M6525.955,5554.652c-54.506-79.904-560.2-989.961-560.2-989.961h-4844.9c0,0-496.6,904.402-551.121,978.533
	c-35.312,47.707-54.334,104.43-54.492,162.644c0,157.573,135.575,285.308,302.792,285.308h5450.541
	c167.217,0,302.792-127.734,302.792-285.308C6570.346,5652.615,6554.69,5600.476,6525.955,5554.652z M4614.148,5733.289H2472.576
	l244.257-387.288h1652.95L4614.148,5733.289z"/>
</svg>
