<?xml version="1.0" encoding="UTF-8" standalone="no"?>
<!-- Created with Inkscape (http://www.inkscape.org/) -->

<svg
   xmlns:dc="http://purl.org/dc/elements/1.1/"
   xmlns:cc="http://creativecommons.org/ns#"
   xmlns:rdf="http://www.w3.org/1999/02/22-rdf-syntax-ns#"
   xmlns:svg="http://www.w3.org/2000/svg"
   xmlns="http://www.w3.org/2000/svg"
   version="1.0"
   width="273pt"
   height="648pt"
   viewBox="0 0 273 648"
   id="svg2">
  <defs
     id="defs20" />
  <metadata
     id="metadata4">
Created by potrace 1.8, written by Peter Selinger 2001-2007
<rdf:RDF>
  <cc:Work
     rdf:about="">
    <dc:format>image/svg+xml</dc:format>
    <dc:type
       rdf:resource="http://purl.org/dc/dcmitype/StillImage" />
    <dc:title></dc:title>
  </cc:Work>
</rdf:RDF>
</metadata>
  <g
     transform="matrix(0.219661,0,0,-0.219661,0,648)"
     id="g6"
     style="fill:#000000;stroke:none">
    <path
       d="M 307,2939 C 159,2903 39,2774 10,2620 -3,2549 -3,1381 10,1310 35,1179 109,1081 228,1023 l 76,-38 293,-3 c 250,-3 303,-1 351,13 145,42 251,156 283,303 6,30 9,282 7,697 -3,621 -4,652 -23,698 -41,100 -133,192 -232,232 -43,17 -77,19 -343,21 -162,2 -312,-1 -333,-7 z m 643,-148 c 61,-32 97,-67 126,-123 l 24,-47 0,-656 c 0,-644 0,-656 -21,-700 -11,-24 -39,-61 -61,-81 -76,-68 -81,-69 -398,-69 l -285,0 -51,27 c -58,30 -98,73 -125,133 -17,37 -19,82 -19,688 0,703 -2,678 56,754 31,41 98,81 155,93 24,5 159,8 299,7 246,-2 257,-3 300,-26 z"
       id="path8" />
    <path
       d="m 274,890 c -11,-4 -27,-22 -34,-39 -10,-26 -10,-35 4,-56 20,-30 -11,-23 385,-90 300,-50 327,-54 348,-39 35,22 47,61 29,90 -9,12 -23,25 -33,28 -18,5 -669,117 -675,115 -2,0 -12,-4 -24,-9 z"
       id="path10" />
    <path
       d="m 285,658 c -50,-26 -62,-87 -22,-112 12,-8 174,-40 360,-71 l 339,-58 26,20 c 31,23 42,82 19,102 -8,6 -160,36 -338,66 -178,30 -333,57 -344,60 -11,2 -29,-1 -40,-7 z"
       id="path12" />
    <path
       d="m 265,415 c -27,-26 -32,-62 -12,-88 9,-13 91,-30 337,-73 179,-30 340,-56 359,-57 62,-2 99,85 49,117 -19,11 -651,126 -696,126 -7,0 -24,-11 -37,-25 z"
       id="path14" />
    <path
       d="M 406,179 C 376,156 370,101 395,80 403,73 499,53 607,34 826,-4 848,-2 870,51 c 10,24 10,33 -4,54 -9,13 -26,27 -39,30 -30,6 -377,65 -387,65 -4,0 -19,-9 -34,-21 z"
       id="path16" />
  </g>
  <path
     d="m 131.12721,80.042331 c -1.68619,1.597446 -24.05057,30.440379 -49.698585,64.075669 -35.143998,46.05994 -46.681169,61.67949 -46.681169,63.54319 0,4.79236 2.484929,5.76859 15.619555,6.03482 l 11.892162,0.355 0,9.40722 c 0,10.8272 0.887473,13.22339 5.324848,15.44206 2.839919,1.50871 7.987274,1.59746 67.181839,1.59746 57.15337,0 64.51941,-0.17749 67.71432,-1.41996 5.23609,-2.12994 6.21232,-4.61487 6.21232,-15.79705 l 0,-9.22973 11.89217,-0.355 c 10.38345,-0.26623 12.1584,-0.53247 13.8446,-2.04118 1.33121,-1.24247 1.86369,-2.48493 1.59745,-4.43737 -0.26624,-1.8637 -14.28834,-20.9444 -48.01237,-64.96316 -26.18051,-34.25652 -48.54487,-62.921953 -49.60984,-63.631937 -2.83992,-2.041193 -3.90489,-1.774945 -7.2773,1.419968 z m 45.88245,67.803059 40.73508,53.15974 -41.44507,0.26623 c -22.80809,0.0887 -59.81578,0.0887 -82.268903,0 L 53.206929,201.00513 93.853273,147.57916 C 116.30639,118.20373 135.0321,94.330668 135.47585,94.419418 c 0.53247,0.08871 19.16945,24.139312 41.53381,53.425972 z m 19.25819,73.57166 0,6.65606 -60.792,0 -60.792031,0 0,-6.65606 0,-6.65606 60.792031,0 60.792,0 0,6.65606 z"
     id="path3006" />
  <path
     d="m 67.850263,253.89862 c -4.969859,1.41997 -5.59109,3.28366 -5.59109,17.21701 0,14.0221 0.621231,16.06329 5.324848,18.37072 2.839919,1.50871 7.898526,1.59747 67.004339,1.59747 42.15505,0 65.05191,-0.355 67.27058,-0.97623 5.85733,-1.59746 6.83356,-4.34862 6.83356,-19.16945 0,-12.06965 -0.0887,-12.69089 -2.12993,-15.08707 l -2.12995,-2.48492 -66.91559,-0.17751 c -39.403882,-0.0887 -67.980566,0.17751 -69.666767,0.70998 z m 128.417587,18.10448 0,6.65607 -60.792,0 -60.792031,0 0,-6.65607 0,-6.65605 60.792031,0 60.792,0 0,6.65605 z"
     id="path3008" />
  <path
     d="m 69.358969,302.79848 c -1.686201,0.44374 -3.993635,1.6862 -5.058605,2.75117 -1.952444,1.6862 -2.041191,2.48494 -2.041191,14.46583 0,7.98728 0.35499,13.57836 1.064969,14.99834 2.396182,5.32484 0.266242,5.14734 71.974198,4.96986 36.03148,-0.0887 66.38311,-0.5325 67.44808,-0.88747 1.06497,-0.44376 2.75118,-1.68621 3.7274,-2.75119 1.59746,-1.6862 1.77495,-3.46115 2.04119,-14.37709 0.17749,-7.98727 -0.0887,-13.31212 -0.70999,-14.90957 -2.04119,-4.96987 -0.26623,-4.88112 -70.55423,-5.05861 -41.178832,-0.0888 -65.939374,0.17749 -67.891821,0.79873 z m 126.908881,18.45947 0,7.0998 -60.792,0 -60.792031,0 0,-7.0998 0,-7.0998 60.792031,0 60.792,0 0,7.0998 z"
     id="path3010" />
</svg>
