<?xml version="1.0" encoding="UTF-8" standalone="no"?>
<!-- Created with Inkscape (http://www.inkscape.org/) -->

<svg
   xmlns:dc="http://purl.org/dc/elements/1.1/"
   xmlns:cc="http://creativecommons.org/ns#"
   xmlns:rdf="http://www.w3.org/1999/02/22-rdf-syntax-ns#"
   xmlns:svg="http://www.w3.org/2000/svg"
   xmlns="http://www.w3.org/2000/svg"
   version="1.0"
   width="468pt"
   height="470pt"
   viewBox="0 0 468 470"
   id="svg2">
  <defs
     id="defs30" />
  <metadata
     id="metadata4">
Created by potrace 1.8, written by Peter Selinger 2001-2007
<rdf:RDF>
  <cc:Work
     rdf:about="">
    <dc:format>image/svg+xml</dc:format>
    <dc:type
       rdf:resource="http://purl.org/dc/dcmitype/StillImage" />
    <dc:title></dc:title>
  </cc:Work>
</rdf:RDF>
</metadata>
  <g
     transform="matrix(0.158108,0,0,-0.158108,0,470)"
     id="g6"
     fill="#000000" 
	 stroke="none">
    <path
       d="m 647.47695,2937.2625 c -40.45934,-16.4904 -67.01077,-64.6932 -75.86125,-136.9974 l -7.58613,-63.4247 -109.99881,-5.0739 c -132.75718,-5.074 -164.36603,-24.1014 -164.36603,-98.9426 0,-150.9508 123.9067,-296.8276 342.63997,-404.6495 152.98685,-74.8412 354.01906,-130.6549 553.787,-153.4878 190.9175,-22.8329 553.7871,-10.148 725.7393,24.1014 378.0418,76.1096 644.8206,234.6714 714.36,423.677 59.4247,159.8302 31.6089,202.959 -135.2859,210.57 -61.9533,2.5369 -112.5275,10.1479 -117.5849,19.0274 -5.0574,7.6109 -10.1148,32.9808 -10.1148,55.8137 0,50.7398 -29.0802,111.6275 -61.9534,129.3864 -31.6088,16.4904 -1613.31572,16.4904 -1653.77505,0 z m 1599.40785,-154.7563 3.7931,-48.2028 -777.5778,0 -778.84205,0 0,41.8604 c 0,24.1013 3.79306,46.9342 8.85048,50.7397 3.79306,5.074 352.75467,7.611 773.78457,6.3425 l 766.1986,-3.8055 3.7931,-46.9343 z m 193.4462,-249.8933 c -55.6316,-104.0165 -348.9618,-232.1344 -627.1197,-273.9947 -187.1244,-27.9069 -514.5921,-27.9069 -689.073,0 -152.98671,24.1014 -340.11111,81.1836 -446.31685,135.7289 -72.06819,35.5178 -185.86006,129.3864 -185.86006,150.9507 0,6.3425 431.14476,11.4165 979.87431,11.4165 958.3805,0 979.8745,0 968.4953,-24.1014 z"
       id="path8" />

  </g>
</svg>
