<?xml version="1.0" encoding="UTF-8" standalone="no"?>
<!-- Created with Inkscape (http://www.inkscape.org/) -->

<svg
   xmlns:dc="http://purl.org/dc/elements/1.1/"
   xmlns:cc="http://creativecommons.org/ns#"
   xmlns:rdf="http://www.w3.org/1999/02/22-rdf-syntax-ns#"
   xmlns:svg="http://www.w3.org/2000/svg"
   xmlns="http://www.w3.org/2000/svg"
   xmlns:sodipodi="http://sodipodi.sourceforge.net/DTD/sodipodi-0.dtd"
   xmlns:inkscape="http://www.inkscape.org/namespaces/inkscape"
   version="1.0"
   width="273pt"
   height="648pt"
   viewBox="0 0 273 648"
   preserveAspectRatio="xMidYMid meet"
   id="svg2"
   inkscape:version="0.48.4 r9939"
   sodipodi:docname="light_dim_down.svg">
  <defs
     id="defs20" />
  <sodipodi:namedview
     pagecolor="#ffffff"
     bordercolor="#666666"
     borderopacity="1"
     objecttolerance="10"
     gridtolerance="10"
     guidetolerance="10"
     inkscape:pageopacity="0"
     inkscape:pageshadow="2"
     inkscape:window-width="1858"
     inkscape:window-height="1057"
     id="namedview18"
     showgrid="false"
     inkscape:zoom="0.82408494"
     inkscape:cx="491.49356"
     inkscape:cy="480.69544"
     inkscape:window-x="1734"
     inkscape:window-y="-8"
     inkscape:window-maximized="1"
     inkscape:current-layer="svg2" />
  <metadata
     id="metadata4">
Created by potrace 1.8, written by Peter Selinger 2001-2007
<rdf:RDF>
  <cc:Work
     rdf:about="">
    <dc:format>image/svg+xml</dc:format>
    <dc:type
       rdf:resource="http://purl.org/dc/dcmitype/StillImage" />
  </cc:Work>
</rdf:RDF>
</metadata>
  <g
     transform="translate(0,648) scale(0.219661,-0.219661)"
     id="g6"
     stroke="none"
     fill="#000000">
    <path
       d="M307 2939 c-148 -36 -268 -165 -297 -319 -13 -71 -13 -1239 0 -1310 25 -131 99 -229 218 -287 l76 -38 293 -3 c250 -3 303 -1 351 13 145 42 251 156 283 303 6 30 9 282 7 697 -3 621 -4 652 -23 698 -41 100 -133 192 -232 232 -43 17 -77 19 -343 21 -162 2 -312 -1 -333 -7z m643 -148 c61 -32 97 -67 126 -123 l24 -47 0 -656 c0 -644 0 -656 -21 -700 -11 -24 -39 -61 -61 -81 -76 -68 -81 -69 -398 -69 l-285 0 -51 27 c-58 30 -98 73 -125 133 -17 37 -19 82 -19 688 0 703 -2 678 56 754 31 41 98 81 155 93 24 5 159 8 299 7 246 -2 257 -3 300 -26z"
       id="path8" />
    <path
       d="M274 890 c-11 -4 -27 -22 -34 -39 -10 -26 -10 -35 4 -56 20 -30 -11 -23 385 -90 300 -50 327 -54 348 -39 35 22 47 61 29 90 -9 12 -23 25 -33 28 -18 5 -669 117 -675 115 -2 0 -12 -4 -24 -9z"
       id="path10" />
    <path
       d="M285 658 c-50 -26 -62 -87 -22 -112 12 -8 174 -40 360 -71 l339 -58 26 20 c31 23 42 82 19 102 -8 6 -160 36 -338 66 -178 30 -333 57 -344 60 -11 2 -29 -1 -40 -7z"
       id="path12" />
    <path
       d="M265 415 c-27 -26 -32 -62 -12 -88 9 -13 91 -30 337 -73 179 -30 340 -56 359 -57 62 -2 99 85 49 117 -19 11 -651 126 -696 126 -7 0 -24 -11 -37 -25z"
       id="path14" />
    <path
       d="M406 179 c-30 -23 -36 -78 -11 -99 8 -7 104 -27 212 -46 219 -38 241 -36 263 17 10 24 10 33 -4 54 -9 13 -26 27 -39 30 -30 6 -377 65 -387 65 -4 0 -19 -9 -34 -21z"
       id="path16" />
  </g>
  <path
     inkscape:connector-curvature="0"
     id="path3006"
     d="m 140.92631,343.67647 c 1.67105,-1.61327 23.76247,-30.6658 49.09219,-64.54144 34.70813,-46.38927 46.09751,-62.11691 46.07993,-63.98053 -0.0452,-4.79214 -2.53921,-5.7449 -15.67576,-5.88727 l -11.89498,-0.24285 -0.0887,-9.4068 c -0.10209,-10.82672 -1.01212,-13.21444 -5.47022,-15.39117 -2.85402,-1.48186 -8.00198,-1.52207 -67.19392,-0.96392 -57.150824,0.53891 -64.514863,0.78585 -67.697916,2.05839 -5.215773,2.17922 -6.168529,4.67324 -6.06309,15.85493 l 0.08703,9.22932 -11.888294,0.46712 c -10.380478,0.36412 -12.152839,0.64709 -13.824738,2.17163 -1.319436,1.25496 -1.840176,2.50239 -1.555538,4.45223 0.283801,1.86111 14.485193,20.80874 48.622785,64.50756 26.502361,34.00813 49.136011,62.46141 50.207631,63.16132 2.85904,2.01433 3.92145,1.73805 7.26359,-1.48852 z M 94.40657,276.30906 53.172047,223.53578 94.612764,222.87877 c 22.806236,-0.30376 59.812286,-0.65271 82.265246,-0.77573 l 40.82453,-0.11872 -40.14077,53.80686 c -22.17513,29.58584 -40.67491,53.63441 -41.11947,53.54985 -0.53329,-0.0837 -19.39622,-23.95749 -42.03573,-53.03197 z m -19.951056,-73.3868 -0.06276,-6.65576 60.789296,-0.57322 60.78933,-0.57322 0.0628,6.65576 0.0628,6.65577 -60.78933,0.57322 -60.789293,0.57321 -0.06276,-6.65576 z" />
  <path
     inkscape:connector-curvature="0"
     id="path3008"
     d="m 202.56112,169.23126 c 4.95625,-1.46677 5.55988,-3.33623 5.4285,-17.26896 -0.13222,-14.02148 -0.77267,-16.05672 -5.49784,-18.3197 -2.85401,-1.48186 -7.91323,-1.52292 -67.01642,-0.9656 -42.153175,0.39749 -65.04567,0.96837 -67.258383,1.61049 -5.842007,1.65262 -6.792252,4.41287 -6.652504,19.23304 0.113807,12.06911 0.208361,12.68949 2.272094,15.06631 l 2.153286,2.46473 66.914287,-0.45346 c 39.40297,-0.28285 67.97587,-0.8185 69.65698,-1.36685 z m -128.582591,-16.8928 -0.06276,-6.65577 60.789301,-0.57322 60.78932,-0.57322 0.0628,6.65577 0.0628,6.65575 -60.78933,0.57322 -60.789299,0.57322 -0.06276,-6.65575 z" />
  <path
     inkscape:connector-curvature="0"
     id="path3010"
     d="m 200.59139,120.3478 c 1.68194,-0.45962 3.97756,-1.72378 5.03244,-2.79875 1.93646,-1.70453 2.01767,-2.50407 1.9047,-14.48443 -0.0753,-7.986925 -0.48301,-13.574409 -1.20634,-14.987631 -2.44629,-5.302009 -0.31477,-5.144601 -72.01786,-4.290981 -36.029045,0.428444 -66.375141,1.158416 -67.436717,1.523412 -1.060738,0.453782 -2.735158,1.712076 -3.701293,2.786214 -1.581489,1.701188 -1.742235,3.477732 -1.905535,14.395696 -0.102168,7.98859 0.214219,13.31069 0.850544,14.90221 2.087961,4.95041 0.312243,4.8784 70.598791,4.39312 41.17784,-0.29949 65.93477,-0.79924 67.88127,-1.43886 z m -127.077294,-17.262 -0.06695,-7.099485 60.789304,-0.57322 60.78933,-0.573219 0.0669,7.099484 0.0669,7.09948 -60.78933,0.57322 -60.789303,0.57322 -0.06695,-7.09948 z" />
</svg>
