<?xml version="1.0" encoding="UTF-8" standalone="no"?>
<!-- Created with Inkscape (http://www.inkscape.org/) -->

<svg
   xmlns:dc="http://purl.org/dc/elements/1.1/"
   xmlns:cc="http://creativecommons.org/ns#"
   xmlns:rdf="http://www.w3.org/1999/02/22-rdf-syntax-ns#"
   xmlns:svg="http://www.w3.org/2000/svg"
   xmlns="http://www.w3.org/2000/svg"
   version="1.0"
   width="273pt"
   height="648pt"
   viewBox="0 0 273 648"
   id="svg2">
  <defs
     id="defs20" />
  <metadata
     id="metadata4">
Created by potrace 1.8, written by Peter Selinger 2001-2007
<rdf:RDF>
  <cc:Work
     rdf:about="">
    <dc:format>image/svg+xml</dc:format>
    <dc:type
       rdf:resource="http://purl.org/dc/dcmitype/StillImage" />
    <dc:title></dc:title>
  </cc:Work>
</rdf:RDF>
</metadata>
  <g fill="#000000"
     transform="matrix(0.219661,0,0,-0.219661,0,648)"
     id="g6"
     style="fill:#000000;stroke:none">
    <path
       d="M 307,2939 C 159,2903 39,2774 10,2620 -3,2549 -3,1381 10,1310 35,1179 109,1081 228,1023 l 76,-38 293,-3 c 250,-3 303,-1 351,13 145,42 251,156 283,303 6,30 9,282 7,697 -3,621 -4,652 -23,698 -41,100 -133,192 -232,232 -43,17 -77,19 -343,21 -162,2 -312,-1 -333,-7 z m 643,-148 c 61,-32 97,-67 126,-123 l 24,-47 0,-656 c 0,-644 0,-656 -21,-700 -11,-24 -39,-61 -61,-81 -76,-68 -81,-69 -398,-69 l -285,0 -51,27 c -58,30 -98,73 -125,133 -17,37 -19,82 -19,688 0,703 -2,678 56,754 31,41 98,81 155,93 24,5 159,8 299,7 246,-2 257,-3 300,-26 z"
       id="path8" />
    <path
       d="m 274,890 c -11,-4 -27,-22 -34,-39 -10,-26 -10,-35 4,-56 20,-30 -11,-23 385,-90 300,-50 327,-54 348,-39 35,22 47,61 29,90 -9,12 -23,25 -33,28 -18,5 -669,117 -675,115 -2,0 -12,-4 -24,-9 z"
       id="path10" />
    <path
       d="m 285,658 c -50,-26 -62,-87 -22,-112 12,-8 174,-40 360,-71 l 339,-58 26,20 c 31,23 42,82 19,102 -8,6 -160,36 -338,66 -178,30 -333,57 -344,60 -11,2 -29,-1 -40,-7 z"
       id="path12" />
    <path
       d="m 265,415 c -27,-26 -32,-62 -12,-88 9,-13 91,-30 337,-73 179,-30 340,-56 359,-57 62,-2 99,85 49,117 -19,11 -651,126 -696,126 -7,0 -24,-11 -37,-25 z"
       id="path14" />
    <path
       d="M 406,179 C 376,156 370,101 395,80 403,73 499,53 607,34 826,-4 848,-2 870,51 c 10,24 10,33 -4,54 -9,13 -26,27 -39,30 -30,6 -377,65 -387,65 -4,0 -19,-9 -34,-21 z"
       id="path16" />
  </g>
  <g
     id="text2997"
     style="font-size:215.33731079px;font-style:normal;font-variant:normal;font-weight:normal;font-stretch:normal;text-align:start;line-height:125%;letter-spacing:0px;word-spacing:0px;writing-mode:lr-tb;text-anchor:start;fill:#FF5555;fill-opacity:1;stroke:none;font-family:Arial;-inkscape-font-specification:Arial">
    <path
       d="m 119.67991,288.62583 c -0.12626,-4.5422 -0.18935,-7.9489 -0.18926,-10.22011 -9e-5,-13.37438 1.89252,-24.9193 5.67784,-34.63482 2.77573,-7.31798 7.25491,-14.69917 13.43755,-22.14357 4.54216,-5.42535 12.71193,-13.34278 24.50934,-23.7523 11.79714,-10.4092 19.46222,-18.70514 22.99525,-24.88786 3.53272,-6.18234 5.29915,-12.93266 5.29931,-20.25096 -1.6e-4,-13.24807 -5.17329,-24.88763 -15.51942,-34.91871 -10.34642,-10.0306 -23.02692,-15.04602 -38.04152,-15.04627 -14.51013,2.5e-4 -26.62284,4.54252 -36.33817,13.62681 -9.71548,9.08478 -16.08727,23.27936 -19.115396,42.5838 l -35.013341,-4.16375 c 3.154335,-25.86549 12.52276,-45.67482 28.105303,-59.428052 15.582453,-13.752713 36.180374,-20.6292 61.793814,-20.629482 27.12732,2.82e-4 48.76617,7.381466 64.91663,22.143572 16.15011,14.762632 24.22525,32.616262 24.22544,53.560952 -1.9e-4,12.11291 -2.83911,23.27932 -8.51675,33.49925 -5.67802,10.22027 -16.78134,22.64842 -33.30999,37.28447 -11.10348,9.84172 -18.35849,17.09673 -21.76505,21.76505 -3.40684,4.66856 -5.93032,10.03096 -7.57045,16.08721 -1.64039,6.05646 -2.5867,15.89804 -2.83892,29.52477 z m -2.08187,68.32333 0,-38.79857 38.79856,0 0,38.79857 z"
       id="path2990"
       style="font-size:387.60714722px;fill:#FF5555" />
  </g>
</svg>
