<?xml version="1.0" encoding="UTF-8" standalone="no"?>
<!-- Created with Inkscape (http://www.inkscape.org/) -->

<svg
   xmlns:dc="http://purl.org/dc/elements/1.1/"
   xmlns:cc="http://creativecommons.org/ns#"
   xmlns:rdf="http://www.w3.org/1999/02/22-rdf-syntax-ns#"
   xmlns:svg="http://www.w3.org/2000/svg"
   xmlns="http://www.w3.org/2000/svg"
   version="1.0"
   width="468pt"
   height="470pt"
   viewBox="0 0 468 470"
   id="svg2">
  <defs
     id="defs30" />
  <metadata
     id="metadata4">
Created by potrace 1.8, written by Peter Selinger 2001-2007
<rdf:RDF>
  <cc:Work
     rdf:about="">
    <dc:format>image/svg+xml</dc:format>
    <dc:type
       rdf:resource="http://purl.org/dc/dcmitype/StillImage" />
    <dc:title></dc:title>
  </cc:Work>
</rdf:RDF>
</metadata>
  <g
     transform="matrix(0.158108,0,0,-0.158108,0,470)"
     id="g6"
     fill="#000000" 
	 stroke="none">
    <path
       d="m 647.47695,2937.2625 c -40.45934,-16.4904 -67.01077,-64.6932 -75.86125,-136.9974 l -7.58613,-63.4247 -109.99881,-5.0739 c -132.75718,-5.074 -164.36603,-24.1014 -164.36603,-98.9426 0,-150.9508 123.9067,-296.8276 342.63997,-404.6495 152.98685,-74.8412 354.01906,-130.6549 553.787,-153.4878 190.9175,-22.8329 553.7871,-10.148 725.7393,24.1014 378.0418,76.1096 644.8206,234.6714 714.36,423.677 59.4247,159.8302 31.6089,202.959 -135.2859,210.57 -61.9533,2.5369 -112.5275,10.1479 -117.5849,19.0274 -5.0574,7.6109 -10.1148,32.9808 -10.1148,55.8137 0,50.7398 -29.0802,111.6275 -61.9534,129.3864 -31.6088,16.4904 -1613.31572,16.4904 -1653.77505,0 z m 1599.40785,-154.7563 3.7931,-48.2028 -777.5778,0 -778.84205,0 0,41.8604 c 0,24.1013 3.79306,46.9342 8.85048,50.7397 3.79306,5.074 352.75467,7.611 773.78457,6.3425 l 766.1986,-3.8055 3.7931,-46.9343 z m 193.4462,-249.8933 c -55.6316,-104.0165 -348.9618,-232.1344 -627.1197,-273.9947 -187.1244,-27.9069 -514.5921,-27.9069 -689.073,0 -152.98671,24.1014 -340.11111,81.1836 -446.31685,135.7289 -72.06819,35.5178 -185.86006,129.3864 -185.86006,150.9507 0,6.3425 431.14476,11.4165 979.87431,11.4165 958.3805,0 979.8745,0 968.4953,-24.1014 z"
       id="path8" />
    <path
       d="m 318.74487,2129.2318 c -8.85048,-2.537 -79.65431,-88.7946 -156.77991,-189.0056 C 20.357317,1755.0261 5.185067,1719.5083 50.701816,1690.3329 c 42.988029,-26.6384 80.918644,3.8055 207.354054,171.2467 164.36604,218.181 165.63039,218.181 132.75719,251.1618 -25.28709,25.3699 -41.72369,29.1754 -72.06819,16.4904 z"
       id="path10" />
    <path
       d="m 2554.1229,2117.8154 c -16.4366,-12.685 -26.5515,-29.1754 -22.7584,-43.1288 2.5287,-11.4165 69.5395,-105.285 147.9294,-206.7645 120.1137,-158.5618 146.6651,-186.4686 175.7452,-186.4686 39.195,0 64.4821,20.2959 64.4821,52.0082 0,20.2959 -250.3421,358.9838 -288.2727,389.4277 -26.5515,20.2959 -41.7237,19.0274 -77.1256,-5.074 z"
       id="path12" />
    <path
       d="m 848.50925,1949.1057 c -22.75837,-13.9534 -142.87201,-403.3811 -139.07895,-445.2414 5.05741,-40.5918 64.48206,-64.6932 92.29785,-36.7863 10.11483,8.8794 46.7811,114.1644 82.18302,230.8659 61.95335,204.2275 64.48206,215.644 42.98804,238.4768 -22.75838,25.3699 -51.83852,30.4439 -78.38996,12.685 z"
       id="path14" />
    <path
       d="m 2019.3011,1946.5687 c -12.6436,-6.3425 -22.7584,-21.5644 -22.7584,-32.9808 0,-43.1288 118.8493,-417.3346 140.3433,-440.1675 25.2871,-27.9068 83.4474,-19.0274 96.0909,13.9535 8.8505,22.8329 -102.4127,400.8441 -130.2285,445.2414 -18.9653,30.4438 -48.0454,35.5178 -83.4473,13.9534 z"
       id="path16" />
    <path
       d="m 1413.6754,1875.533 c -7.5861,-21.5644 -11.3792,-119.2384 -8.8504,-242.2823 3.793,-219.4495 7.5861,-229.5974 68.2751,-230.8659 50.5741,0 55.6316,20.2959 55.6316,253.6988 0,241.0138 -3.7931,253.6988 -65.7465,253.6988 -27.8158,0 -39.1949,-7.611 -49.3098,-34.2494 z"
       id="path18" />
  </g>
</svg>
