<?xml version="1.0" encoding="UTF-8" standalone="no"?>
<!-- Created with Inkscape (http://www.inkscape.org/) -->

<svg
   xmlns:dc="http://purl.org/dc/elements/1.1/"
   xmlns:cc="http://creativecommons.org/ns#"
   xmlns:rdf="http://www.w3.org/1999/02/22-rdf-syntax-ns#"
   xmlns:svg="http://www.w3.org/2000/svg"
   xmlns="http://www.w3.org/2000/svg"
   version="1.0"
   width="468pt"
   height="537pt"
   viewBox="0 0 468 537"
   id="svg2">
  <defs
     id="defs40" />
  <metadata
     id="metadata4">
Created by potrace 1.8, written by Peter Selinger 2001-2007
<rdf:RDF>
  <cc:Work
     rdf:about="">
    <dc:format>image/svg+xml</dc:format>
    <dc:type
       rdf:resource="http://purl.org/dc/dcmitype/StillImage" />
    <dc:title></dc:title>
  </cc:Work>
</rdf:RDF>
</metadata>
  <g
     transform="matrix(0.181395,0,0,-0.181395,0,537)"
     id="g6"
     style="fill:#000000;stroke:none">
    <path
       d="m 975.81604,2781.4717 c -14,-16 -17,-43 -17,-174 0,-135 2,-157 18,-171 27.99996,-25 71.99996,-26 95.99996,-1 13,13 16,43 16,173 0,140 -2,160 -18,174 -25,22 -74.99996,21 -94.99996,-1 z"
       id="path8" />
    <path
       d="m 422.25631,2727.3758 c -29,-15 -44,-50 -34,-81 3,-11 73,-85 154,-166 127,-126 153,-147 180,-147 34,0 72,38 72,73 0,34 -312,341 -342,337 -2,-1 -15,-7 -30,-16 z"
       id="path12" />
    <path
       d="m 1039,2257 c -70,-20 -136,-63 -174,-115 -65,-87 -65,-91 -65,-643 0,-479 1,-500 21,-553 25,-67 87,-134 160,-173 l 54,-28 250,0 c 235,0 253,1 296,21 63,29 125,94 158,163 l 26,56 0,520 0,520 -28,56 c -32,66 -99,132 -165,162 -43,20 -65,22 -267,24 -153,2 -234,-2 -266,-10 z m 486,-146 c 48,-22 69,-44 90,-94 13,-31 15,-107 15,-517 0,-526 0,-523 -59,-573 -48,-40 -90,-47 -299,-47 -205,0 -226,4 -280,54 -51,46 -50,40 -53,567 l -3,495 23,40 c 24,43 64,72 115,85 17,4 117,7 221,8 164,0 195,-2 230,-18 z"
       id="path16" />
    <path
       d="m 210.43241,2104.272 c -22,-31 -20,-71 5,-94 19,-17 39,-19 240,-19 236,0 241,1 254,55 4,18 0,34 -15,53 l -21,27 -224,0 c -220,0 -224,0 -239,-22 z"
       id="path20" />
    <path
       d="m 220.43241,1565.272 c -32,-25 -35,-70 -6,-99 19,-19 33,-20 238,-20 207,0 220,1 237,20 26,29 24,79 -4,102 -21,16 -44,18 -231,18 -195,0 -209,-1 -234,-21 z"
       id="path22" />
    <path
       d="m 214.43241,1016.272 c -29,-28.99999 -26,-73.99999 7,-99.99999 26,-20 36,-21 240,-18 184,3 215,5 229,20 23,22 22,73 -1,97.99999 -17,19 -30,20 -237,20 -205,0 -219,-1 -238,-20 z"
       id="path26" />
    <path
       d="m 1851.2075,1024.544 c -22,-24.99997 -21,-74.99997 1,-94.99997 16,-15 48,-17 238,-17 120,0 224,4 231,8 32,20 32,93.99997 0,113.99997 -7,4 -111,8 -233,8 -201,0 -222,-2 -237,-18 z"
       id="path28" />
    <path
       d="m 998,693 c -36,-41 -30,-95 11,-108 60,-19 520,-91 539,-84 53,20 66,99 19,119 -28,12 -482,90 -524,90 -16,0 -37,-8 -45,-17 z"
       id="path30" />
    <path
       d="m 1023,530 c -41,-17 -58,-85 -28,-110 15,-12 492,-100 543,-100 33,0 62,34 62,74 0,18 -6,38 -13,44 -6,6 -120,29 -252,51 -132,23 -251,43 -265,46 -14,2 -35,0 -47,-5 z"
       id="path32" />
    <path
       d="m 1023,360 c -46,-18 -59,-90 -20,-114 21,-13 478,-96 531,-96 14,0 35,9 46,20 26,26 27,85 2,99 -10,5 -126,28 -258,51 -131,22 -248,42 -259,44 -11,2 -30,0 -42,-4 z"
       id="path34" />
    <path
       d="m 1101,154 c -26,-33 -27,-55 -3,-82 13,-16 51,-26 176,-47 158,-27 159,-27 185,-7 31,22 41,81 18,101 -16,13 -271,61 -323,61 -23,0 -39,-8 -53,-26 z"
       id="path36" />
  </g>
  <g
     transform="matrix(2.0288592,0,0,1.9152618,-130.17449,-346.6803)"
     id="g3002">
    <path
       d="m 230.06102,192.18543 c -16.73161,0.29015 -17.55369,0.3385 -18.85933,1.30565 -1.6925,1.25729 -2.51458,3.53008 -2.51458,7.20523 -0.0484,5.56108 1.74087,8.51088 5.65781,9.23624 0.96713,0.19343 2.07936,0.72535 2.41785,1.25729 0.43522,0.58028 1.2573,0.87042 2.56294,0.87042 1.6925,0 1.88592,0.14508 1.88592,1.20894 0,0.91879 -0.29013,1.25729 -1.30565,1.45071 -3.8202,0.82208 -11.46065,3.48173 -14.84566,5.12587 -3.82023,1.9343 -8.75267,5.02916 -9.23624,5.75452 -0.14507,0.24179 -1.0155,0 -1.93429,-0.58029 -1.06386,-0.58028 -2.12772,-0.87043 -2.80472,-0.677 -1.45072,0.3385 -8.55923,7.6888 -8.55923,8.80102 0,0.53192 0.38685,1.54743 0.87042,2.3695 l 0.87044,1.45072 -2.12772,2.90144 c -4.15873,5.65781 -7.93059,14.79732 -9.6231,23.35656 -1.20893,6.18972 -1.06386,16.77996 0.29015,23.16312 5.51273,26.25799 25.29084,44.77882 51.74226,48.55069 4.93245,0.677 15.23254,0.29014 20.11662,-0.77372 21.51898,-4.6423 38.29895,-19.0044 45.16568,-38.58909 4.83572,-13.87853 4.83572,-28.33735 0,-42.26424 -1.64415,-4.69066 -4.49723,-10.25174 -7.06016,-13.83018 l -1.69251,-2.27279 1.25729,-1.49908 c 2.07935,-2.46622 1.74087,-3.53008 -2.51457,-7.78551 -4.3038,-4.25544 -5.89959,-4.78738 -8.07567,-2.6113 l -1.16058,1.16058 -2.56293,-1.78922 c -5.46437,-3.86858 -13.97524,-7.78552 -19.97154,-9.18788 -2.22444,-0.53193 -2.41787,-0.67701 -2.41787,-1.98265 0,-1.354 0.14508,-1.45072 1.74087,-1.45072 1.20893,0 2.03101,-0.3385 2.75637,-1.20893 0.58028,-0.677 1.40234,-1.20893 1.83756,-1.20893 1.64415,0 4.01365,-1.59579 4.73901,-3.14322 1.11222,-2.27279 1.06385,-8.65595 -0.0967,-10.83202 -1.25728,-2.51458 -2.90145,-3.48173 -6.18972,-3.6268 -1.54744,-0.0967 -10.73532,0 -20.35841,0.14507 z m 7.88223,4.88409 14.60389,0 0.29014,1.25729 c 0.19344,0.72535 0.19344,2.46621 0,3.86857 -0.38685,3.09487 -1.59579,3.86859 -3.04649,2.03101 l -0.9188,-1.11222 -15.28088,-0.14507 -15.28091,-0.14507 -1.25728,1.25728 c -1.354,1.35401 -2.85307,1.59579 -3.2883,0.43522 -0.14507,-0.43522 -0.29014,-2.17608 -0.29014,-3.86858 0,-3.86858 0.48357,-4.15872 6.04466,-3.82022 2.12771,0.14507 10.44516,0.24179 18.42411,0.24179 z m -7.54373,31.81907 c 0,5.9963 0.29015,6.86673 2.17607,6.86673 1.88594,0 2.17608,-0.87043 2.17608,-6.86673 l 0,-5.70615 2.07937,0.24178 c 5.02914,0.677 8.07565,1.25729 10.44516,1.98265 2.80472,0.82207 2.75637,0.62864 1.20893,4.69066 -1.0155,2.65964 -0.62863,3.86857 1.354,4.11036 1.45072,0.19343 2.41787,-0.87043 3.53008,-3.91694 0.48357,-1.25729 1.0155,-2.27279 1.16059,-2.27279 0.67699,0 6.96344,3.91693 9.7198,6.04466 l 2.94979,2.27279 -4.11037,4.25544 c -2.27279,2.32115 -4.15872,4.44887 -4.15872,4.64229 0,1.0155 1.59579,2.61129 2.56294,2.61129 0.677,0 2.51458,-1.45071 5.07751,-4.01364 l 4.01364,-3.9653 1.20894,1.45072 c 3.385,4.06201 7.44702,10.92873 6.6733,11.21888 -0.24179,0.0967 -1.64414,0.77372 -3.09486,1.49908 -2.12773,1.01551 -2.70801,1.59579 -2.80473,2.61129 -0.0967,0.87042 0.19343,1.49907 0.87044,1.98265 0.96714,0.677 1.30565,0.62864 3.91693,-0.43522 1.59579,-0.67701 3.09487,-1.06386 3.33666,-0.91879 0.53192,0.3385 2.27279,7.88223 2.70799,11.70246 l 0.33851,3.04651 -5.80287,0 c -6.09301,0 -6.91509,0.29014 -6.91509,2.22444 0,2.03101 1.64415,2.61128 7.44702,2.61128 l 5.27094,0 -0.33851,2.99816 c -0.33849,3.04651 -1.98263,10.73531 -2.46621,11.55738 -0.14507,0.24179 -1.49907,-0.14507 -2.99815,-0.77372 -3.385,-1.49907 -4.4005,-1.49907 -5.07751,0 -0.77372,1.69249 0.38685,3.19157 3.43337,4.35215 1.354,0.53193 2.46621,1.16057 2.46621,1.40236 0,1.30564 -7.30194,12.37946 -8.17238,12.37946 -0.14506,0 -2.031,-1.74085 -4.15872,-3.86858 -2.17607,-2.17608 -4.25543,-3.86857 -4.78737,-3.86857 -1.16057,0 -2.708,1.354 -2.708,2.32115 0,0.38685 1.83758,2.61129 4.11037,4.93242 l 4.15872,4.20709 -2.27279,1.83757 c -2.22442,1.83758 -9.67145,6.52824 -10.34846,6.52824 -0.19343,0 -0.87044,-1.30564 -1.45072,-2.90144 -1.16057,-3.0465 -2.27279,-4.11037 -3.82022,-3.6268 -1.98264,0.62865 -2.07936,1.40237 -0.72535,4.83574 0.72535,1.83757 1.11222,3.38501 0.87043,3.62679 -0.82207,0.72535 -10.68695,2.75635 -14.31375,2.90143 -0.24178,0 -0.38686,-2.708 -0.38686,-6.04466 0,-5.65779 -0.0484,-6.04464 -1.0155,-6.57658 -0.77372,-0.38686 -1.354,-0.38686 -2.17607,0 -1.11222,0.48357 -1.16058,0.677 -1.16058,6.57658 l 0,6.09302 -2.51457,-0.29014 c -5.89959,-0.677 -12.47618,-2.32115 -12.47618,-3.09486 0,-0.19343 0.53194,-1.64416 1.16058,-3.23994 1.20893,-2.99816 1.06386,-4.20708 -0.58029,-4.6423 -1.78921,-0.48357 -2.85308,0.43522 -3.96529,3.43337 -0.5803,1.64415 -1.25729,2.94979 -1.45072,2.94979 -0.67701,0 -8.12402,-4.69066 -10.34846,-6.52824 l -2.27279,-1.83757 4.15872,-4.20709 c 2.2728,-2.32113 4.11037,-4.54557 4.11037,-4.98078 0,-1.06387 -1.354,-2.27279 -2.56294,-2.27279 -0.67699,0 -2.51457,1.45071 -5.02915,3.96528 -3.28829,3.23995 -4.062,3.82023 -4.6423,3.33665 -1.74085,-1.40235 -7.59209,-10.78366 -7.59209,-12.04095 0,-0.29014 1.20894,-0.96716 2.65965,-1.54743 3.09487,-1.25729 4.01366,-2.41788 3.19159,-4.15872 -0.62865,-1.45072 -1.64415,-1.45072 -5.07752,-0.14507 -1.49907,0.58028 -2.85308,0.96714 -2.94979,0.82207 -0.53193,-0.48358 -2.12772,-7.73717 -2.46622,-10.97711 l -0.3385,-3.43336 5.36766,0 c 4.49722,0 5.46437,-0.14507 6.43151,-0.91879 0.96714,-0.77371 1.06386,-1.11221 0.677,-2.27277 l -0.48357,-1.40237 -5.9963,-0.14508 -5.9963,-0.14507 0.3385,-2.90143 c 0.3385,-3.62681 2.17608,-11.46068 2.70801,-11.79918 0.19342,-0.0967 1.6925,0.29015 3.28829,0.96715 3.23994,1.30564 4.3038,1.20893 4.73901,-0.48358 0.43521,-1.74085 -0.48357,-2.80472 -3.19158,-3.86858 -1.40236,-0.53192 -2.61129,-1.11221 -2.708,-1.30564 -0.48358,-0.77372 5.46437,-10.49352 7.39865,-12.04096 0.5803,-0.48357 1.35401,0.0967 4.6423,3.33665 2.17608,2.17608 4.40051,3.96529 4.88408,3.96529 1.16058,0 2.70801,-1.354 2.70801,-2.32113 0,-0.38686 -1.88593,-2.6113 -4.15872,-4.93245 l -4.11037,-4.25544 2.90143,-2.22444 c 1.5958,-1.20893 4.49723,-3.09486 6.47988,-4.15873 l 3.57843,-1.93428 0.87044,2.27279 c 0.48358,1.30564 1.20892,2.70801 1.59579,3.14322 1.354,1.54743 3.96529,0.82208 3.96529,-1.11222 0,-0.43521 -0.48358,-1.93429 -1.06386,-3.33664 -0.87043,-2.12773 -0.91878,-2.56294 -0.33849,-2.9498 1.16056,-0.72536 8.65593,-2.22443 13.87852,-2.80472 0.43521,-0.0484 0.58029,1.40236 0.58029,5.6578 z"
       id="path8-1" />
    <path
       d="m 230.88876,291.03178 c 2.45886,0.74682 4.50872,0.58575 6.66205,-0.52342 6.51778,-3.40507 6.71377,-12.00365 0.29985,-15.69776 l -1.99578,-1.12541 -0.34794,-15.63776 c -0.39661,-15.73429 -0.61322,-16.98126 -2.77866,-16.6651 -2.09778,0.30627 -2.28569,2.09608 -1.89057,17.34681 0.3457,14.91238 0.32743,15.26061 -0.92792,15.89312 -2.15332,1.10919 -3.57982,2.69971 -4.44295,5.07188 -1.01675,2.74015 -0.67021,5.3504 1.01071,7.86948 1.44754,2.10394 2.34923,2.83619 4.41121,3.46816 z"
       id="path10-7" />
    <path
       d="m 275.37177,213.77127 c -3.77187,3.48172 -3.77187,3.48172 5.75451,12.95974 7.10851,7.06016 8.31744,8.07566 9.33295,7.78552 1.64416,-0.48358 5.22259,-4.35215 5.22259,-5.65779 0,-1.35401 -15.71611,-17.3119 -17.07012,-17.3119 -0.48357,0 -1.93429,1.01549 -3.23993,2.22443 z"
       id="path14-0" />
  </g>
</svg>
