<?xml version="1.0" encoding="UTF-8"?>
<svg xmlns="http://www.w3.org/2000/svg" xmlns:xlink="http://www.w3.org/1999/xlink" width="709px" height="858px" viewBox="0 0 709 858" version="1.1">
  <defs/>
  <g fill="#000000" id="layer1">
    <path d="M683.91,676.74 C702.37,697.23 710.4,712.55 709.622,726.22 C708.832,739.901 698.722,749.32 686.252,756.84 C661.302,771.88 623.692,783.27 601.032,810.75 L596.641,807.13 L601.001,810.79 C577.22,839.08 547.81,855.389 520.151,857.57 C492.52,859.75 466.6,846.99 452.651,819.09 C452.63,819.059 452.611,819.019 452.59,818.99 C450.731,815.42 449.37,811.66 448.43,807.76 C412.44,809.76 381.15,798.84 356.1,800.861 C319.18,802.89 296.13,811.79 275.13,811.89 C267.01,829.731 251.21,841.331 231.73,845.77 C204.88,851.901 171.22,845.74 138.02,828.38 L140.66,823.34 L137.99,828.37 C106.98,811.93 67.63,813.43 38.57,807.37 C24.04,804.33 11.19,798.96 4.93,786.78 C-1.31,774.619 -0.17,757.869 8.69,733.639 C11.46,725.018 9.37,712.289 7.31,698.829 C6.32,692.36 5.34,685.639 5.34,679.009 C5.34,671.839 6.48,664.769 9.99,658.219 C10.01,658.2 10.02,658.17 10.03,658.15 C10.04,658.15 10.04,658.139 10.04,658.139 C17.5,643.819 29.79,637.9 40.99,633.879 C52.19,629.87 62.37,627.16 69.52,620.019 C77.17,611.929 84.04,599.91 93.33,589.98 C94.58,588.66 95.88,587.369 97.25,586.139 C92.88,557.259 97.62,526.75 107.58,496.82 C128.69,433.39 173.27,372.46 204.92,334.82 C231.87,296.52 239.81,265.64 242.58,226.46 C244.83,172.89 204.66,12.89 356.1,0.7 C362.09,0.22 367.84,-0.01 373.35,-8.86606327e-16 C508.87,0.19 501.25,143 500.401,220.01 C499.85,270.47 527.751,304.63 556.281,340.62 C581.771,370.74 615.141,414.769 634.251,465.309 C649.831,506.48 655.881,552.049 640.451,597.809 C642.76,598.679 645.071,599.779 647.35,601.129 C649.62,602.48 651.88,604.099 654.08,606.019 C654.099,606.04 654.129,606.059 654.15,606.08 C665.25,615.53 668.719,630.11 671.82,643.63 C674.929,657.16 677.82,669.86 683.889,676.71 C683.889,676.719 683.9,676.73 683.91,676.74 Z M698.24,725.57 C698.73,717.12 693.06,703.9 675.419,684.33 L675.409,684.309 L675.399,684.299 C666.218,673.969 663.779,659.48 660.718,646.169 C657.658,632.869 654.128,620.989 646.708,614.699 L646.678,614.678 L646.649,614.649 C636.989,606.209 627.549,605.558 616.279,605.829 C613.848,605.889 611.348,606.018 608.779,606.119 C595.939,620.889 565.529,638.99 544.428,633.429 C525.149,628.57 514.239,606.089 512.888,584.059 C512.338,584.329 511.789,584.619 511.229,584.919 C499.308,591.449 492.578,603.049 488.298,620.199 C484.029,637.349 482.598,659.57 481.319,685.009 L481.319,685.07 C480.099,704.92 470.999,729.36 464.669,753.15 C458.339,776.949 455.209,799.499 462.73,813.799 L462.759,813.86 L462.78,813.91 C474.9,838.22 495.441,848.1 519.25,846.22 C543.059,844.34 570.099,829.85 592.28,803.46 C617.809,772.53 657.799,760.69 680.36,747.08 C691.65,740.28 697.76,734.009 698.24,725.57 Z M269.49,787.95 C271.06,772.27 259,751.78 243.41,731.379 C227.82,710.969 209.42,690.959 200.71,672.769 L200.69,672.749 L200.68,672.719 L167.94,613.049 C156.6,597.669 144.83,588.23 131.33,586.19 C129.33,585.879 127.44,585.73 125.66,585.719 C125.54,585.73 125.43,585.73 125.31,585.719 C115.14,585.789 108.39,590.559 101.65,597.759 C93.66,606.289 86.83,618.319 77.74,627.909 L77.69,627.959 L77.63,628.009 C67.8,637.87 55.35,640.829 44.84,644.599 C34.34,648.359 25.88,652.339 20.11,663.459 L20.07,663.539 C15.56,671.9 16.55,683.91 18.57,697.099 C20.59,710.299 23.68,724.359 19.51,737.209 L19.48,737.309 L19.44,737.41 C11.02,760.38 11.11,773.85 15.07,781.58 C19.03,789.3 27.67,793.46 40.9,796.22 C67.37,801.75 108.62,799.92 143.3,818.29 C143.31,818.29 143.32,818.3 143.33,818.3 C174.67,834.691 206.06,839.96 229.2,834.67 C252.36,829.38 267.44,814.82 269.48,788.08 L269.48,788.01 L269.49,787.95 Z M432.77,231.69 C430.14,226.54 424.77,221.64 415.63,217.89 L415.61,217.88 L415.58,217.87 C396.57,209.73 388.32,209.15 377.71,202.25 C360.44,191.15 346.17,187.26 334.31,187.31 C328.1,187.33 322.55,188.43 317.58,190.15 C303.13,195.12 293.54,205.49 287.53,211.18 L287.52,211.19 C287.52,211.2 287.51,211.2 287.51,211.21 C286.33,212.33 284.81,213.35 281.13,216.05 C277.42,218.76 271.86,222.84 263.86,228.84 C256.75,234.17 254.44,241.11 256.9,249.24 C259.35,257.37 267.19,266.75 281.53,274.86 L281.55,274.88 L281.58,274.89 C290.48,280.12 296.56,287.17 303.54,292.78 C307.03,295.58 310.7,298.08 315.12,299.97 C319.54,301.86 324.7,303.14 331.16,303.52 C346.32,304.4 357.48,299.85 367.33,294.21 C377.2,288.58 385.559,281.69 395.15,278.58 L395.17,278.57 L395.191,278.56 C414.85,272.42 428.871,260.05 433.26,248.3 C435.46,242.42 435.39,236.84 432.77,231.69 Z M382.89,260.71 C367.24925,268.8627 348.98,278.75 329.54,278.75 C310.11,278.75 294.76,269.77 283.72,261.02 C278.2,256.65 273.72,252.3 270.34,249.14 C264.47566,244.51097 265.17812,238.01832 267.58754,238.21 C271.62617,238.71418 272.23681,244.03168 274.78,246.41 C278.22,249.63 282.53,253.8 287.75,257.94 C298.19,266.21 312.11,274.26 329.54,274.26 C346.94,274.26 367.25174,264.04483 379.65,257.09 C386.67421,253.14976 395.61224,246.0869 402.90658,240.73258 C408.4873,236.63611 408.2838,231.70337 412.89167,232.24042 C417.49953,232.77747 414.09084,237.70026 407.6379,243.33195 C401.18495,248.96364 391.08972,256.43592 382.89,260.71 L382.89,260.71 Z M622.39,594.47 C628.97,573.07 615.28,557.39 578.25,539.361 C575.76,538.18 573.3,537.09 570.89,536.09 C575.831,516 574.85,495.639 570.241,476.28 C560.14,433.82 532.371,396.21 511.231,377.5 C507.321,377.34 507.701,380.76 515.571,388.4 C535.071,406.34 577.701,470.75 554.631,530.56 C548.041,528.871 541.881,528.06 536.291,528.231 C527.47,479.481 507.051,439.021 496.781,419.981 C477.47,384.091 447.43,310.541 434.51,259.621 C426.991,270.341 413.781,279.541 397.151,284.741 C397.141,284.741 397.131,284.741 397.121,284.751 C389.25,287.311 380.951,293.891 370.56,299.831 C361,305.301 349.52,310.101 334.8,310.101 C333.49,310.101 332.15,310.061 330.78,309.981 C316.5,309.151 307.05,303.901 299.48,297.821 C291.93,291.751 286.1,285.071 278.34,280.501 C278.33,280.501 278.33,280.501 278.32,280.491 C275.67,278.981 269.72,274.961 267.98,273.701 C264.62,337.081 222.31,416.611 202.08,462.461 C188.19,495.511 179.92,530.841 178.94,565.482 C142.43,516.801 169.1,454.442 183.36,427.421 C199.28,397.861 201.76,389.741 197.9,392.581 C183.54,416.001 161.04,453.321 152.28,491.691 C147.71,511.681 146.88,531.931 152.81,550.661 C158.73,569.38 171.37,586.621 193.99,600.691 C193.99,600.701 193.99,600.701 193.99,600.701 C224.77,619.581 245.72,638.471 258.09,655.211 C270.46,671.961 274.34,686.621 270.48,697.011 C268.54,702.212 264.64,706.252 259.08,708.782 C254.61,710.801 249.08,711.872 242.58,711.862 C245.88,716.021 249.21,720.232 252.45,724.471 C257.52,731.111 262.45,737.841 266.74,744.631 C330.12,787.891 404.76,771.271 458.54,732.902 C463.88,714.541 469.16,697.202 469.95,684.391 C469.95,684.381 469.95,684.381 469.95,684.371 C471.23,658.881 472.58,636.211 477.25,617.451 C481.93,598.67 490.35,583.37 505.76,574.93 C508.24,573.58 510.7,572.5 513.16,571.64 C513.33,570.06 513.56,568.49 513.84,566.96 C518.26,537.66 544.42,536.231 577.25,550.67 C608.91,564.99 620.79,577.5 615.42,594.46 C615.62,594.46 615.81,594.46 616,594.45 C618.08,594.401 620.22,594.39 622.39,594.47 Z M434.51,173.03 L434.51,173.03 C434.44,172.77 434.44,172.55 434.441,172.29 C434.25,162.46 432.37,154.17 428.47,145.69 C424.49,136.99 419.55,130.77 412.7,125.79 C405.95,120.9 399.38,118.64 391.7,118.64 L391.33,118.64 C383.481,118.72 376.85,121.07 370.1,126.19 C363.361,131.32 358.571,137.62 354.701,146.39 C350.831,155.15 349.181,163.78 349.291,173.84 L349.291,174.61 C349.351,177.45 349.551,180.16 349.901,182.79 C355.981,184.24 364.78309,186.74105 371.66309,190.17105 C371.19309,187.45105 370.99309,184.65105 371.06309,181.59105 C371.06309,181.37105 371.06309,181.18105 371.09209,180.96105 C371.28309,175.40105 372.24309,170.72105 374.19309,166.00105 C376.15209,161.28105 378.50209,157.89105 381.67209,155.24105 C384.69309,152.72105 387.61309,151.56105 390.97309,151.55105 C391.14309,151.55105 391.30309,151.55105 391.47309,151.56105 C395.05309,151.68105 398.03309,153.00105 401.02309,155.91105 C404.00209,158.82105 406.06309,162.32105 407.68309,167.19105 C409.23309,171.83105 409.93309,176.36105 409.82309,181.66105 C409.82309,181.92105 409.75309,182.11105 409.75309,182.33105 C409.57309,187.86105 408.61309,192.50105 406.65309,197.25105 C405.36209,200.40105 401.89309,202.91105 400.13209,205.04105 C402.56309,205.88105 404.92,206.66 407.941,207.8 C410.96,208.94 414.33,210.28 418.14,211.91 C419.241,212.36 420.3,212.83 421.321,213.32 C424.331,209.68 426.84,205.48 429.02,200.48 C432.85,191.71 434.59,183.12 434.51,173.03 Z M318.43,183.08 L318.43,183.08 C318.72,179.75 318.75,176.31 318.52,172.66 L318.52,172.59 C318.04,163.89 316.31,156.52 313.06,149.15 C309.82,141.78 305.95,136.55 300.83,132.46 C296.11,128.69 291.55,126.99 286.44,126.98 C286.01,126.98 285.58,126.99 285.14,127.01 C279.5,127.3 274.82,129.62 270.18,134.23 C265.53,138.83 262.33,144.43 259.93,152.17 C257.54,159.91 256.69,167.39 257.17,176.09 L257.17,176.16 C257.69,184.86 259.42,192.23 262.66,199.59 C265.4,205.82 268.53,210.54 272.54,214.3 C274.38,212.94 275.96,211.78 277.29,210.81 C279.37,209.29 281.06314,207.90686 283.58314,205.95686 C283.18314,205.67686 282.78314,205.35686 282.37314,205.00686 C279.94314,202.90686 278.06314,200.17686 276.44314,196.34686 C274.86314,192.62686 273.97314,188.94686 273.53314,184.51686 C273.53314,184.33686 273.49314,184.18686 273.49314,184.00686 C273.09314,179.43686 273.34314,175.45686 274.30314,171.40686 C275.26314,167.34686 276.59314,164.28686 278.61314,161.82686 C280.64314,159.35686 282.78314,158.09686 285.36314,157.87686 C285.60314,157.85686 285.84314,157.84686 286.07314,157.84686 C288.37314,157.82686 290.45314,158.70686 292.65314,160.60686 C295.08314,162.70686 296.93314,165.43686 298.58314,169.30686 C300.13314,173.02686 301.06314,176.70686 301.50314,181.09686 C301.50314,181.27686 301.50314,181.42686 301.53314,181.60686 C301.85314,184.91686 301.79314,187.87686 301.38314,190.79686 C305.60314,188.00686 309.97,185.91 315.47,184.01 C316.44,183.68 317.42,183.37 318.43,183.08 Z" id="Combined-Shape" />
    <path d="M344.08661,203.88969 C344.73345,205.96593 348.07962,205.6218 350.0129,206.61761 C351.70932,207.49139 353.07376,209.40652 354.98119,209.46159 C356.80162,209.51419 359.63478,208.83116 359.8716,207.02544 C360.18446,204.63981 356.70077,203.12379 354.45905,202.24981 C351.57436,201.1251 347.87849,200.55447 345.17246,202.05908 C344.55236,202.40385 343.87557,203.21236 344.08661,203.88972 L344.08661,203.88969 Z" id="path28396-7"/>
    <path d="M324.32226,203.88969 C323.67542,205.96593 320.32925,205.6218 318.39597,206.61761 C316.69955,207.49139 315.33511,209.40652 313.42768,209.46159 C311.60725,209.51419 308.77409,208.83116 308.53727,207.02544 C308.22441,204.63981 311.7081,203.12379 313.94982,202.24981 C316.83451,201.1251 320.53038,200.55447 323.23641,202.05908 C323.85651,202.40385 324.5333,203.21236 324.32226,203.88972 L324.32226,203.88969 Z" id="path5461"/>
  </g>
</svg>
