<?xml version="1.0" encoding="utf-8"?>
<!DOCTYPE svg PUBLIC "-//W3C//DTD SVG 1.1//EN" "http://www.w3.org/Graphics/SVG/1.1/DTD/svg11.dtd">
<svg version="1.1"
	 id="icon" xmlns:rdf="http://www.w3.org/1999/02/22-rdf-syntax-ns#" xmlns:cc="http://web.resource.org/cc/" xmlns:dc="http://purl.org/dc/elements/1.1/" xmlns:svg="http://www.w3.org/2000/svg" xmlns:inkscape="http://www.inkscape.org/namespaces/inkscape" xmlns:sodipodi="http://sodipodi.sourceforge.net/DTD/sodipodi-0.dtd" xmlns:ns1="http://sozi.baierouge.fr"
	 xmlns="http://www.w3.org/2000/svg" xmlns:xlink="http://www.w3.org/1999/xlink" x="0px" y="0px" width="831.14px" height="802px"
	 viewBox="6 85.445 831.14 802" enable-background="new 6 85.445 831.14 802" xml:space="preserve">
<path fill-rule="evenodd" clip-rule="evenodd" fill="#000000" d="M550.233,240.119l-0.09-0.328c-6.715-5.197-14.14-9.143-22.459-12.489l0.091,0.327c-4.396,5.789-8.7,11.905-12.679,17.931
	c-2.652-0.679-4.887-1.12-7.122-1.563c-2.98-0.588-5.961-1.177-9.088-1.021c-1.072-0.058-2.144-0.114-3.126,0.156
	c-2.638-7.024-5.274-14.048-8.241-20.981c-3.454,0.246-6.729,1.147-10.421,1.811l-5.238,1.442c-3.186,1.228-6.132,2.039-8.898,3.505
	c0.909,7.146,2.237,14.531,3.892,21.825c-1.31,0.361-2.201,0.958-3.422,1.646c-0.328,0.09-0.655,0.181-0.893,0.598
	c-2.439,1.376-4.697,3.406-6.957,5.437c-2.022,1.614-3.717,3.136-5.321,4.987c-6.828-3.053-13.238-5.867-20.066-8.92l-0.418-0.236
	c-1.039,1.341-2.079,2.686-2.791,3.938c-1.841,2.267-3.266,4.772-4.362,7.188c-2.226,3.431-3.617,7.336-5.337,11.332l0.329-0.09
	c5.788,4.396,11.814,8.373,17.932,12.679c-0.771,2.325-1.449,4.978-1.893,7.212c-0.588,2.979-0.758,6.197-0.693,8.997
	c-0.293,1.49-0.262,2.89,0.01,3.873c-7.024,2.637-14.048,5.274-20.654,8.148c0.246,3.456,0.82,6.821,1.811,10.422
	c1.353,4.912,3.031,9.734,5.276,14.048c7.057-1.237,14.112-2.475,21.497-3.802c0.36,1.31,1.048,2.529,1.974,3.332
	c1.465,2.767,3.169,5.116,5.29,7.702c1.94,1.933,3.555,3.955,5.732,5.469c-3.055,6.828-6.197,13.33-8.92,20.067
	c6.804,5.524,14.318,9.797,22.548,12.816l-0.092-0.329c4.067-5.698,8.374-11.814,12.353-17.84l0.327-0.09
	c1.907,0.532,4.144,0.973,6.051,1.505c3.307,0.499,6.941,0.908,10.069,0.751c1.398-0.034,2.473,0.024,3.544,0.081
	c2.549,6.697,5.185,13.72,8.151,20.655c3.035-0.483,6.073-0.967,9.348-1.868l4.912-1.352c3.602-0.991,7.113-2.31,10.535-3.957
	c-1.237-7.056-2.565-14.44-3.893-21.825c0.892-0.598,1.785-1.195,2.677-1.793c2.768-1.466,5.116-3.17,7.375-5.2
	c2.023-1.614,3.954-3.555,5.796-5.821c0.09,0.326,0.09,0.326,0.418,0.236c6.5,3.143,13.329,6.196,20.065,8.921
	c0.804-0.926,1.605-1.85,2.646-3.194c1.514-2.177,2.938-4.684,4.034-7.099c2.136-3.757,4.183-7.842,5.81-12.166
	c-6.115-4.306-12.231-8.61-18.259-12.588l-0.089-0.327c0.533-1.909,0.973-4.143,1.416-6.377c0.262-2.89,0.85-5.87,0.783-8.67
	c-0.09-0.327-0.18-0.655,0.147-0.745c-0.36-1.31-0.303-2.382-0.155-3.128c7.023-2.637,14.047-5.274,20.743-7.822
	c-0.246-3.455-1.147-6.729-1.72-10.094l-1.531-5.567c-1.23-3.185-2.131-6.459-3.688-9.553c-7.057,1.236-14.44,2.564-21.825,3.892
	c-0.598-0.893-1.195-1.785-1.466-2.767c-1.794-2.677-3.587-5.353-5.708-7.941c-1.523-1.694-3.464-3.626-4.987-5.32
	C544.128,253.775,547.181,246.947,550.233,240.119L550.233,240.119z M470.281,291.357c4.183-7.844,10.575-12.773,18.853-14.699
	c8.423-2.67,16.111-1.616,24.043,2.895c7.519,4.272,12.447,10.665,14.7,18.852c2.344,8.513,1.289,16.201-2.895,24.044
	c-4.601,7.606-10.665,12.446-19.18,14.788c-8.186,2.253-16.2,1.288-23.717-2.984c-7.606-4.599-12.445-10.664-14.789-19.179
	C465.045,306.888,466.01,298.874,470.281,291.357L470.281,291.357z"/>
<path fill-rule="evenodd" clip-rule="evenodd" fill="#000000" d="M418.226,361.482c-1.45-0.455-2.51-0.628-3.516-0.466c-4.187-0.356-8.318-0.378-12.449-0.401
	c-2.229,9.647-3.842,18.852-5.454,28.056l-6.035,0.973c-3.97,0.984-7.604,1.914-11.185,3.179c-2.964,0.821-5.819,2.313-8.674,3.806
	c-6.609-6.848-13.553-13.641-20.105-20.152l-0.39-0.282c-1.903,0.995-3.808,1.99-5.321,3.266c-3.138,1.882-5.885,4.044-8.578,6.543
	c-4.315,3.103-8.188,6.823-11.617,11.16l0.054,0.335c5.375,7.735,10.414,15.522,15.789,23.256c-1.97,2.726-3.657,5.062-5.235,8.067
	c-2.251,3.115-4.057,6.846-5.528,10.523c-0.79,1.504-1.244,2.953-1.645,4.738c-9.659-0.164-19.317-0.327-28.922-0.156
	c-1.028,4.295-2.056,8.59-2.694,13.164c-0.26,6.923-0.575,13.51-0.219,19.987l27.775,5.844l0.756,4.694
	c0.596,3.688,1.578,7.658,3.233,11.52c0.876,3.299,2.422,6.49,3.968,9.68c-6.847,6.608-13.359,13.162-20.152,20.106
	c5.646,9.409,12.858,17.878,20.97,25.517l0.335-0.055c7.734-5.374,15.521-10.414,23.592-15.844c2.336,1.688,4.617,3.041,6.954,4.729
	c3.45,2.196,7.517,3.948,11.919,5.646c1.113,0.509,2.563,0.963,4.066,1.753c-0.218,9.323-0.046,18.928,0.127,28.532
	c3.958,1.082,7.863,1.829,12.049,2.186c1.06,0.174,3.18,0.52,6.641,0.651c4.91,0.584,9.712,0.497,14.18,0.465
	c2.229-9.646,4.177-18.905,5.735-28.444l4.358-0.702c4.023-0.648,7.658-1.578,11.238-2.845c3.245-1.211,6.436-2.757,9.627-4.303
	c0,0,0.054,0.335,0.389,0.281c6.608,6.847,13.552,13.64,20.159,20.487c1.515-1.277,3.083-2.217,4.315-3.104
	c3.137-1.882,5.885-4.044,8.632-6.207c4.543-3.828,8.697-7.938,12.461-12.329c-5.093-8.123-10.468-15.857-15.896-23.926
	c1.688-2.337,3.039-4.618,4.728-6.955c1.86-3.396,3.667-7.127,5.192-10.469c-0.054-0.336,0.228-0.726,0.173-1.061
	c0.509-1.113,0.963-2.563,1.472-3.677c9.658,0.164,19.264-0.009,28.922,0.155c1.028-4.295,1.721-8.534,2.359-13.109
	c0.173-1.06,0.347-2.121,0.465-3.516c0.174-1.06,0.012-2.065,0.466-3.515c-0.032-4.467,0.271-8.987-0.042-13.066
	c-9.312-2.282-18.852-3.842-28.11-5.789l-0.648-4.023c-0.648-4.023-1.686-8.328-3.34-12.189c-0.822-2.964-2.314-5.82-3.472-8.729
	c6.847-6.607,13.641-13.551,20.099-20.44l0.335-0.054c-5.645-9.41-12.523-17.933-21.305-25.463
	c-8.124,5.094-15.857,10.469-23.591,15.843c-2.726-1.968-5.451-3.938-8.123-5.571c-3.396-1.859-6.792-3.72-10.415-4.856
	c-1.168-0.844-2.617-1.299-3.731-1.807c-0.172-9.605-0.008-19.263-0.181-28.868c-4.294-1.028-8.923-2.002-13.497-2.641
	C420.626,361.439,419.231,361.32,418.226,361.482L418.226,361.482z M376.073,496.937c-7.269-8.806-10.23-18.648-8.942-29.864
	c0.953-11.162,6.027-20.236,14.832-27.503c8.523-6.879,18.702-9.895,29.528-8.888c11.216,1.288,20.571,5.972,27.503,14.831
	c7.268,8.806,10.23,18.647,8.941,29.864c-0.952,11.161-6.026,20.235-14.55,27.113c-9.14,7.32-18.982,10.285-29.863,8.942
	C392.36,510.479,382.95,505.459,376.073,496.937L376.073,496.937z"/>
<path fill-rule="evenodd" clip-rule="evenodd" fill="#000000" d="M376.833,863.947c-10.201-3.136-20.891-5.212-30.506-9.625
	c-22.279-10.224-36.49-28.065-44.682-51.021c-0.931-2.61-3.305-5.401-5.753-6.662c-34.416-17.73-47.451-51.527-33.91-88.079
	c0.851-2.302,0.854-5.518-0.059-7.778c-6.891-17.027-7.165-34.028-0.852-51.246c0.699-1.908,1.37-4.635,0.543-6.167
	c-6.043-11.214-6.807-23.569-8.372-35.772c-3.642-28.387-13.557-54.593-27.073-79.676c-11.207-20.791-22.753-41.487-32.446-62.992
	c-15.659-34.743-19.983-71.724-18.435-109.594c1.542-37.64,11.259-73.181,29.143-106.045
	c26.167-48.083,63.902-84.512,113.679-108.25c28.371-13.53,58.114-21.196,89.299-23.836c1.367-0.115,2.705-0.569,4.055-0.866
	c9.952,0,19.905,0,29.856,0c7.634,1.15,15.263,2.324,22.899,3.444c41.795,6.138,79.315,22.335,112.902,47.852
	c44.536,33.831,74.981,77.611,89.911,131.377c16.295,58.676,13.143,116.656-11.918,172.582
	c-8.104,18.087-17.945,35.439-27.72,52.717c-17.301,30.576-27.993,63.047-31.002,98.134c-0.53,6.172-3.736,12.075-5.229,18.219
	c-0.739,3.043-1.367,6.697-0.373,9.475c6.047,16.922,5.435,33.489-0.943,50.16c-1.002,2.616-1.029,6.268-0.041,8.887
	c13.279,35.21,0.305,69.574-33.239,86.721c-3.876,1.98-5.784,4.518-7.271,8.521c-12.346,33.272-36.241,52.708-71.217,58.595
	c-0.739,0.125-1.418,0.61-2.127,0.928C442.915,863.947,409.874,863.947,376.833,863.947z M425.711,633.434c1.99,0,3.979,0,5.971,0
	c32.042-0.005,64.084,0.076,96.125-0.051c13.539-0.053,20.356-6.591,22.758-19.486c3.633-19.514,6.979-39.163,12.19-58.277
	c7.488-27.465,22.471-51.674,36.355-76.231c16.237-28.718,27.922-58.746,30.283-92.081c2.455-34.736-1.783-68.37-15.683-100.363
	c-14.109-32.472-35.193-59.769-63.387-81.407c-25.683-19.712-54.416-32.742-86.193-38.803c-37.412-7.137-74.046-3.965-109.756,9.318
	c-33.911,12.61-62.529,32.956-85.612,60.654c-19.972,23.963-33.825,51.227-41.264,81.739c-7.532,30.895-7.609,61.834-1.978,92.926
	c5.341,29.484,19.597,55.269,34.135,80.882c11.797,20.784,23.546,41.707,29.654,64.908c5.046,19.169,7.813,38.931,12.22,58.283
	c1.072,4.705,3.604,10.312,7.29,12.873c4.527,3.146,10.955,4.835,16.588,4.906C358.839,633.654,392.277,633.435,425.711,633.434z
	 M426.163,714.722c-32.41,0-64.82-0.025-97.23,0.034c-3.359,0.008-6.804,0.134-10.062,0.864
	c-14.221,3.188-20.275,19.666-11.872,31.554c5.502,7.786,13.467,9.113,22.093,9.111c64.422-0.004,128.845,0.012,193.267-0.04
	c3.358-0.002,6.787-0.219,10.061-0.916c14.288-3.052,20.644-19.342,12.361-31.381c-5.038-7.323-12.386-9.284-20.79-9.265
	C491.382,714.769,458.774,714.719,426.163,714.722z M425.789,653.686c-30.449,0-60.896-0.003-91.343,0.003
	c-3.78,0-7.568-0.089-11.342,0.079c-9.064,0.409-16.65,6.19-19.18,14.456c-2.537,8.301,0.289,17.883,8.137,22.449
	c4.366,2.54,10.106,3.771,15.233,3.791c65.471,0.237,130.942,0.171,196.414,0.096c3.543-0.003,7.208-0.295,10.605-1.221
	c11.586-3.156,17.647-17.172,12.178-27.859c-4.233-8.274-11.135-11.873-20.408-11.839
	C492.652,653.761,459.219,653.689,425.789,653.686z M344.797,776.297c-1.517,20.658,15.722,39.937,37.497,40.611
	c29.192,0.896,58.445,0.73,87.646-0.021c18.265-0.47,33.318-14.789,36.858-32.702c1.496-7.582,1.013-8.188-6.771-8.188
	c-49.503-0.008-99.006-0.008-148.507,0.011C349.368,776.008,347.218,776.187,344.797,776.297z"/>
</svg>
