<?xml version="1.0" encoding="UTF-8"?>
<svg xmlns="http://www.w3.org/2000/svg" xmlns:xlink="http://www.w3.org/1999/xlink" width="432px" height="512px" viewBox="0 0 432 512" version="1.1">
  <defs/>
  <g fill="#000000" id="layer1">
    <path d="M422.595,400.003 C414.852,417.891 405.687,434.356 395.068,449.495 C380.594,470.132 368.742,484.418 359.609,492.35 C345.45,505.371 330.28,512.04 314.036,512.418 C302.374,512.418 288.31,509.1 271.94,502.368 C255.515,495.668 240.421,492.349 226.62,492.349 C212.145,492.349 196.621,495.667 180.017,502.368 C163.387,509.099 149.99,512.608 139.747,512.955 C124.169,513.619 108.642,506.76 93.144,492.349 C83.252,483.721 70.879,468.931 56.056,447.977 C40.153,425.602 27.079,399.655 16.835,370.073 C5.866,338.121 0.366,307.181 0.366,277.227 C0.366,242.914 7.78,213.321 22.631,188.521 C34.303,168.601 49.83,152.888 69.262,141.352 C88.694,129.816 109.693,123.938 132.305,123.562 C144.678,123.562 160.904,127.389 181.067,134.911 C201.174,142.458 214.084,146.286 219.744,146.286 C223.976,146.286 238.318,141.811 262.631,132.889 C285.623,124.615 305.028,121.189 320.924,122.539 C364,126.016 396.362,142.996 417.885,173.589 C379.36,196.932 360.303,229.626 360.682,271.568 C361.03,304.237 372.881,331.423 396.173,353.008 C406.728,363.027 418.517,370.77 431.632,376.268 C428.788,384.516 425.786,392.417 422.594,400.003 L422.595,400.003 Z M323.801,11.242 C323.801,36.848 314.446,60.756 295.8,82.885 C273.298,109.192 246.081,124.393 216.566,121.995 C216.19,118.923 215.972,115.69 215.972,112.292 C215.972,87.71 226.673,61.403 245.676,39.894 C255.164,29.004 267.23,19.948 281.863,12.724 C296.464,5.608 310.275,1.672 323.264,0.999 C323.643,4.422 323.802,7.845 323.802,11.241 L323.801,11.242 Z" id="Shape"/>
  </g>
</svg>
