<?xml version="1.0" encoding="UTF-8" standalone="no"?>
<!-- Created with Inkscape (http://www.inkscape.org/) -->

<svg
   xmlns:dc="http://purl.org/dc/elements/1.1/"
   xmlns:cc="http://creativecommons.org/ns#"
   xmlns:rdf="http://www.w3.org/1999/02/22-rdf-syntax-ns#"
   xmlns:svg="http://www.w3.org/2000/svg"
   xmlns="http://www.w3.org/2000/svg"
   version="1.0"
   width="468pt"
   height="470pt"
   viewBox="0 0 468 470"
   id="svg2">
  <defs
     id="defs22" />
  <metadata
     id="metadata4">
Created by potrace 1.8, written by Peter Selinger 2001-2007
<rdf:RDF>
  <cc:Work
     rdf:about="">
    <dc:format>image/svg+xml</dc:format>
    <dc:type
       rdf:resource="http://purl.org/dc/dcmitype/StillImage" />
    <dc:title></dc:title>
  </cc:Work>
</rdf:RDF>
</metadata>
  <path
     d="M 9.802696,161.21508 C -0.474324,166.27453 0,158.36913 0,313.31497 c 0,87.59183 0.632432,142.13909 1.58108,144.66882 0.79054,2.21351 3.794592,5.53378 6.640536,7.27297 5.059456,3.16216 8.063508,3.16216 146.724224,3.16216 137.55396,0 141.66477,-0.15811 146.56612,-3.16216 3.32026,-1.8973 5.69188,-5.05946 6.79864,-9.01216 1.26486,-4.26891 1.58108,-47.4324 1.26486,-146.2499 l -0.47432,-140.3999 -5.21756,-5.05946 -5.05946,-5.21756 -141.98098,-0.31622 C 28.301332,158.68535 14.545936,158.84346 9.802696,161.21508 z m 277.953864,153.04854 0,133.60126 -133.60126,0 -133.60126,0 0,-133.60126 0,-133.60126 133.60126,0 133.60126,0 0,133.60126 z"
     id="path12"
     style="fill:#000000;stroke:none" />
  <path
     d="m 63.875632,213.86504 c -8.69594,3.47838 -8.537832,1.10676 -8.537832,99.29182 0,59.1324 0.632432,91.70264 1.58108,93.75805 4.268916,7.74729 4.901348,7.74729 98.02696,7.74729 92.8094,0 95.49723,-0.15811 99.44993,-7.58918 1.26487,-2.21352 1.73919,-32.09593 1.73919,-94.23237 l 0,-90.9121 -3.79459,-4.42703 -3.79459,-4.42702 -90.754,-0.31622 c -49.80402,-0.1581 -92.17696,0.31622 -93.916148,1.10676 z m 79.053998,22.92566 c 4.26892,3.16216 20.39593,3.16216 23.08377,0 1.58108,-1.8973 6.0081,-2.37162 20.39593,-2.37162 l 18.34053,0 15.33648,15.33648 15.49458,15.49458 0,47.4324 0,47.4324 -16.12702,16.12702 -16.28512,16.28512 -15.8108,0 c -12.96486,0 -17.07566,-0.63243 -22.13512,-3.32027 -7.27297,-3.63648 -19.92161,-3.32027 -24.50674,0.94865 -1.8973,1.73919 -6.48243,2.37162 -18.34053,2.37162 l -15.65269,0 -15.336476,-15.33648 -15.494584,-15.49458 0,-48.22294 0,-48.22294 15.336476,-15.33648 15.494584,-15.49458 16.60134,0 c 12.01621,0.15811 17.39188,0.79054 19.60539,2.37162 z"
     id="path14"
     style="fill:#000000;stroke:none" />
  <path
     d="m 102.7702,297.9785 c -5.849996,3.16216 -8.063508,8.85404 -7.431076,18.18242 0.79054,12.33242 3.636484,14.70404 17.708096,14.70404 14.86215,0 16.60134,-1.73919 16.60134,-16.91756 0,-9.01215 -0.63243,-11.54188 -3.16216,-13.9135 -4.11081,-3.63648 -18.18242,-4.90135 -23.7162,-2.0554 z"
     id="path16"
     style="fill:#000000;stroke:none" />
  <path
     d="m 187.04176,297.66228 c -5.05945,2.0554 -6.79864,6.48243 -6.79864,17.23377 0,13.43918 2.68784,15.96891 17.23377,15.96891 9.96081,0 11.22567,-0.31622 14.22972,-4.11081 3.79459,-4.74324 4.58513,-16.75945 1.58108,-23.39998 -3.00405,-6.32432 -17.07566,-9.32837 -26.24593,-5.69189 z"
     id="path18"
     style="fill:#000000;stroke:none" />
  <g
     transform="translate(-161.3247,11.89499)"
     id="g4034">
    <path
       d="m 506.16929,60.60325 c -11.42237,3.9661 -21.09965,13.96067 -24.43118,25.38304 -3.64881,12.53288 -3.64881,112.79588 0,125.32876 3.33153,11.42237 13.00881,21.41694 24.43118,25.38304 4.75932,1.74508 7.29762,3.01424 5.3939,3.17288 -6.34576,0 -11.58102,10.62915 -6.8217,13.64338 0.95187,0.63458 15.54712,3.49017 32.20474,6.34576 26.96948,4.60068 30.61829,4.91797 33.94981,2.8556 3.80746,-2.53831 4.75932,-8.72542 1.58644,-11.42237 -1.11051,-0.79322 -14.59525,-3.64881 -29.82507,-6.34576 l -27.7627,-4.75932 21.73423,-0.15865 c 11.8983,-0.15864 25.38304,-0.95186 29.82507,-1.90372 10.78779,-2.22102 20.30643,-9.83593 25.70033,-20.30644 l 4.44203,-8.40813 0,-60.76065 0,-60.76065 -4.44203,-8.40813 c -5.3939,-10.47051 -14.91254,-18.08542 -25.70033,-20.30644 -4.44203,-0.95186 -17.92677,-1.74508 -29.82507,-1.74508 -17.13355,0.15864 -23.63796,0.79322 -30.45965,3.17288 z m 61.55387,21.57558 c 7.9322,5.55254 8.24949,7.61492 8.24949,66.47184 0,59.33286 -0.15864,60.9193 -8.56678,66.47184 -3.33152,2.06237 -8.56677,2.5383 -29.66642,2.5383 l -25.54169,0 -5.39389,-5.3939 -5.3939,-5.39389 0,-58.22235 0,-58.22235 5.3939,-5.39389 5.39389,-5.3939 26.01762,0 c 20.94101,0 26.65219,0.47593 29.50778,2.5383 z"
       id="path24-1"
       style="fill:#000000;stroke:none" />
    <path
       d="m 505.37607,264.30215 c -1.90373,3.01423 -2.22102,4.75932 -0.95186,6.98033 2.06237,3.80746 1.74508,3.64881 36.32947,9.20135 30.61829,5.07661 32.83931,4.75932 32.83931,-4.28338 l 0,-5.3939 -28.55592,-5.07661 c -35.06032,-6.18711 -36.48812,-6.34576 -39.661,-1.42779 z"
       id="path26-7"
       style="fill:#000000;stroke:none" />
    <path
       d="m 506.16929,282.70485 c -3.49017,3.49017 -3.9661,5.86983 -1.74508,9.36 2.06237,3.33152 61.55387,13.48474 66.47183,11.26372 4.91797,-2.22102 4.91797,-10.62915 0,-12.69152 -2.69695,-1.11051 -57.42913,-11.10508 -60.91929,-11.10508 -0.31729,0 -2.06238,1.4278 -3.80746,3.17288 z"
       id="path28-4"
       style="fill:#000000;stroke:none" />
    <path
       d="m 519.1781,302.69399 c -3.80746,2.69695 -4.60068,8.88407 -1.4278,11.26373 2.22102,1.74508 28.55592,6.82169 35.53626,6.82169 5.71118,0 8.40813,-2.5383 8.40813,-8.09084 0,-5.07661 -0.63458,-5.3939 -19.51321,-8.56678 -7.9322,-1.4278 -15.70576,-2.85559 -16.97491,-3.17288 -1.4278,-0.47593 -4.12474,0.31729 -6.02847,1.74508 z"
       id="path30-1"
       style="fill:#000000;stroke:none" />
  </g>
</svg>
