<?xml version="1.0" encoding="UTF-8" standalone="no"?>
<!-- Created with Inkscape (http://www.inkscape.org/) -->

<svg
   xmlns:dc="http://purl.org/dc/elements/1.1/"
   xmlns:cc="http://creativecommons.org/ns#"
   xmlns:rdf="http://www.w3.org/1999/02/22-rdf-syntax-ns#"
   xmlns:svg="http://www.w3.org/2000/svg"
   xmlns="http://www.w3.org/2000/svg"
   version="1.0"
   width="468pt"
   height="470pt"
   viewBox="0 0 468 470"
   id="svg2">
  <defs
     id="defs22" />
  <metadata
     id="metadata4">
Created by potrace 1.8, written by Peter Selinger 2001-2007
<rdf:RDF>
  <cc:Work
     rdf:about="">
    <dc:format>image/svg+xml</dc:format>
    <dc:type
       rdf:resource="http://purl.org/dc/dcmitype/StillImage" />
    <dc:title></dc:title>
  </cc:Work>
</rdf:RDF>
</metadata>
  <path
     d="M 9.802696,161.21508 C -0.474324,166.27453 0,158.36913 0,313.31497 c 0,87.59183 0.632432,142.13909 1.58108,144.66882 0.79054,2.21351 3.794592,5.53378 6.640536,7.27297 5.059456,3.16216 8.063508,3.16216 146.724224,3.16216 137.55396,0 141.66477,-0.15811 146.56612,-3.16216 3.32026,-1.8973 5.69188,-5.05946 6.79864,-9.01216 1.26486,-4.26891 1.58108,-47.4324 1.26486,-146.2499 l -0.47432,-140.3999 -5.21756,-5.05946 -5.05946,-5.21756 -141.98098,-0.31622 C 28.301332,158.68535 14.545936,158.84346 9.802696,161.21508 z m 277.953864,153.04854 0,133.60126 -133.60126,0 -133.60126,0 0,-133.60126 0,-133.60126 133.60126,0 133.60126,0 0,133.60126 z"
     id="path12"
     style="fill:#000000;stroke:none" />
  <path
     d="m 63.875632,213.86504 c -8.69594,3.47838 -8.537832,1.10676 -8.537832,99.29182 0,59.1324 0.632432,91.70264 1.58108,93.75805 4.268916,7.74729 4.901348,7.74729 98.02696,7.74729 92.8094,0 95.49723,-0.15811 99.44993,-7.58918 1.26487,-2.21352 1.73919,-32.09593 1.73919,-94.23237 l 0,-90.9121 -3.79459,-4.42703 -3.79459,-4.42702 -90.754,-0.31622 c -49.80402,-0.1581 -92.17696,0.31622 -93.916148,1.10676 z m 79.053998,22.92566 c 4.26892,3.16216 20.39593,3.16216 23.08377,0 1.58108,-1.8973 6.0081,-2.37162 20.39593,-2.37162 l 18.34053,0 15.33648,15.33648 15.49458,15.49458 0,47.4324 0,47.4324 -16.12702,16.12702 -16.28512,16.28512 -15.8108,0 c -12.96486,0 -17.07566,-0.63243 -22.13512,-3.32027 -7.27297,-3.63648 -19.92161,-3.32027 -24.50674,0.94865 -1.8973,1.73919 -6.48243,2.37162 -18.34053,2.37162 l -15.65269,0 -15.336476,-15.33648 -15.494584,-15.49458 0,-48.22294 0,-48.22294 15.336476,-15.33648 15.494584,-15.49458 16.60134,0 c 12.01621,0.15811 17.39188,0.79054 19.60539,2.37162 z"
     id="path14"
     style="fill:#000000;stroke:none" />
  <path
     d="m 102.7702,297.9785 c -5.849996,3.16216 -8.063508,8.85404 -7.431076,18.18242 0.79054,12.33242 3.636484,14.70404 17.708096,14.70404 14.86215,0 16.60134,-1.73919 16.60134,-16.91756 0,-9.01215 -0.63243,-11.54188 -3.16216,-13.9135 -4.11081,-3.63648 -18.18242,-4.90135 -23.7162,-2.0554 z"
     id="path16"
     style="fill:#000000;stroke:none" />
  <path
     d="m 187.04176,297.66228 c -5.05945,2.0554 -6.79864,6.48243 -6.79864,17.23377 0,13.43918 2.68784,15.96891 17.23377,15.96891 9.96081,0 11.22567,-0.31622 14.22972,-4.11081 3.79459,-4.74324 4.58513,-16.75945 1.58108,-23.39998 -3.00405,-6.32432 -17.07566,-9.32837 -26.24593,-5.69189 z"
     id="path18"
     style="fill:#000000;stroke:none" />
  <path
     d="M 451.09375,2.875 A 137.5,137.45842 0 0 0 309.625,140.3125 a 137.5,137.45842 0 1 0 275,0 A 137.5,137.45842 0 0 0 451.09375,2.875 z m -1.28125,29.21875 a 107.5,107.44878 0 0 1 104.40625,107.46875 107.5,107.44878 0 1 1 -215,0 A 107.5,107.44878 0 0 1 449.8125,32.09375 z"
     transform="scale(0.8,0.8)"
     id="path3012"
     style="fill:#000000;fill-opacity:1;stroke:none" />
  <rect
     width="28"
     height="191.18645"
     x="322.72784"
     y="-255.33479"
     transform="matrix(0.73950665,0.67314925,-0.67314925,0.73950665,0,0)"
     id="rect5249"
     style="fill:#000000;fill-opacity:1;fill-rule:nonzero;stroke:none" />
</svg>
