<?xml version="1.0" encoding="UTF-8" standalone="no"?>
<svg
   xmlns:dc="http://purl.org/dc/elements/1.1/"
   xmlns:cc="http://creativecommons.org/ns#"
   xmlns:rdf="http://www.w3.org/1999/02/22-rdf-syntax-ns#"
   xmlns:svg="http://www.w3.org/2000/svg"
   xmlns="http://www.w3.org/2000/svg"
   version="1.1"
   id="svg2"
   viewBox="0 0 155.575 155.57501"
   height="588"
   width="588">
  <metadata
     id="metadata72">
    <rdf:RDF>
      <cc:Work
         rdf:about="">
        <dc:format>image/svg+xml</dc:format>
        <dc:type
           rdf:resource="http://purl.org/dc/dcmitype/StillImage" />
        <dc:title></dc:title>
      </cc:Work>
    </rdf:RDF>
  </metadata>
  <defs
     id="defs70" />
  <g
     transform="translate(0,3.5838649)"
     id="a90b3bda-94e3-4ce3-b416-76d571c4b2fb">
    <g
       transform="translate(1.8979359,6.4799852)"
       id="a90b3bda-94e3-4ce3-b416-76d571c4b2fb-3" />
    <path
       transform="matrix(0.26458334,0,0,0.26458334,0,-3.5838649)"
       id="path258"
       d="M 8.4996771,132.6183 9.2276226,96.043009 14.787641,83.994678 C 22.657203,66.941663 37.661042,52.075792 53.714346,45.425923 L 65.816083,40.412939 243.95925,40.057466 c 172.50649,-0.344226 178.63663,-0.246547 193.73873,3.087071 25.36822,5.599744 38.29884,13.948177 46.52096,30.035485 4.06462,7.952767 4.14929,9.015245 4.14929,52.065998 v 43.94756 H 248.06998 7.7717315 Z M 406.26688,147.48221 c 13.69035,-6.90502 20.13851,-16.75665 20.13851,-30.76802 0,-23.596266 -17.77444,-36.654646 -46.41344,-34.098637 -11.40782,1.018139 -23.20494,5.644498 -27.20038,10.666904 -9.53723,11.988653 -11.51813,26.358793 -5.31321,38.543813 3.75567,7.37526 6.61139,10.11563 15.99612,15.35 7.278,4.05932 34.95835,4.25722 42.7924,0.30594 z"
       style="fill:#000000;fill-opacity:1;stroke-width:1.72118998" />
    <path
       transform="matrix(0.26458334,0,0,0.26458334,0,-3.5838649)"
       id="path260"
       d="M 502.13775,136.23298 V 74.01215 l 30.55112,1.204012 c 28.61408,1.127673 30.96462,1.475786 37.07278,5.490447 12.8203,8.426302 13.25835,10.25697 13.2656,55.439541 0.007,44.15763 -0.32366,45.83233 -10.63164,53.83332 -9.36836,7.27166 -15.58962,8.47434 -43.83626,8.47434 h -26.4216 z"
       style="fill:#000000;fill-opacity:1;stroke-width:1.72118998" />
    <path
       transform="matrix(0.26458334,0,0,0.26458334,0,-3.5838649)"
       id="path262"
       d="M 10.860944,558.92018 C 8.6303282,556.68957 8.1562173,551.44806 8.1562173,529.01822 V 501.82097 L 17.40997,490.53155 c 12.012042,-14.65451 15.884121,-21.0568 20.039318,-33.1341 3.262338,-9.48215 3.409539,-14.75273 3.409539,-122.08013 V 223.14719 l -10.346773,-7.4957 c -9.894985,-7.1684 -18.913457,-19.00291 -18.913457,-24.81923 0,-2.44698 22.804172,-2.70559 238.579053,-2.70559 h 238.57904 l -0.67605,11.96452 c -0.75874,13.42786 -3.92301,18.37769 -15.56485,24.34798 -5.68011,2.91293 -10.38827,3.27487 -42.59945,3.27487 h -36.21356 v 40.44797 40.44796 h 63.27132 63.27133 l 4.69573,4.35413 c 6.36472,5.90172 7.11951,10.12775 5.73022,32.08353 -2.88897,45.65569 -13.97641,82.61442 -33.27809,110.92862 -6.63591,9.73445 -23.30209,26.66381 -34.01672,34.55394 l -5.12917,3.77706 21.68834,0.0955 c 11.92857,0.0527 24.32114,0.99099 27.53904,2.08534 17.35287,5.90136 26.42197,21.99495 22.43477,39.81168 -2.41122,10.77442 -11.37846,20.87681 -20.9737,23.62868 -3.76097,1.07873 -95.02948,1.69643 -250.64248,1.69643 -220.184806,0 -244.998946,-0.27125 -247.432426,-2.70473 z M 506.16995,542.50202 c 4.50141,-2.05099 8.01613,-8.11283 8.01613,-13.82544 0,-5.32462 -5.26858,-13.15132 -10.22485,-15.18943 -3.02838,-1.24534 -78.37587,-1.67161 -241.06889,-1.36384 L 26.228712,512.57099 25.733825,528.492 25.238939,544.41301 H 263.60736 c 171.02953,0 239.55326,-0.53986 242.56259,-1.91099 z M 305.92209,489.6844 C 263.73994,457.10721 243.13702,411.15588 239.37556,341.26356 l -1.06789,-19.84271 6.0411,-6.40544 6.0411,-6.40544 h 63.05051 63.0505 V 268.16201 227.71404 H 270.63769 164.78451 l 0.002,73.58088 c 0.002,72.42662 0.0691,73.85705 4.26778,91.1874 11.94424,49.30103 45.26056,86.14345 89.29607,98.74686 7.49377,2.14479 16.82155,3.03623 32.0808,3.06587 l 21.51487,0.0418 -6.02416,-4.65247 z m 92.49809,-30.48987 c 4.93595,-3.32406 15.43061,-12.42486 23.32149,-20.22398 17.13102,-16.93185 27.61291,-34.99109 27.61291,-47.57423 0,-6.86615 -0.77507,-8.38992 -7.14121,-14.03938 -3.92767,-3.4855 -16.03805,-10.76298 -26.91195,-16.17218 l -19.77072,-9.83489 -0.48365,-20.07906 -0.48368,-20.07905 h -9.46654 -9.46655 l -0.48609,20.36097 -0.48612,20.36097 -14.58994,6.74058 c -17.45399,8.06376 -32.36734,17.69144 -36.00578,23.24441 -7.85842,11.99346 0.60377,31.73002 23.82211,55.56077 17.4787,17.93976 30.65906,27.77881 37.21237,27.77881 2.3919,0 8.38743,-2.71969 13.32335,-6.04374 z"
       style="fill:#000000;fill-opacity:1;stroke-width:1.72118998" />
    <path
       transform="matrix(0.26458334,0,0,0.26458334,0,-3.5838649)"
       id="path264"
       d="m 360.23118,423.80542 c -7.59511,-7.94972 -15.04929,-17.70655 -17.4235,-22.80577 -4.90904,-10.54341 -5.88496,-9.32051 16.78004,-21.02653 l 15.18197,-7.84118 v 32.78364 c 0,18.03101 -0.2845,32.78365 -0.63222,32.78365 -0.34772,0 -6.60555,-6.25222 -13.90629,-13.89381 z"
       style="fill:#000000;fill-opacity:1;stroke-width:1.72118998" />
    <path
       transform="matrix(0.26458334,0,0,0.26458334,0,-3.5838649)"
       id="path266"
       d="m 395.42397,406.24135 c 0,-17.72439 0.43756,-32.22616 0.97235,-32.22616 0.53479,0 8.28015,3.93953 17.2119,8.7545 12.99249,7.00406 16.23955,9.51779 16.23955,12.57195 0,5.77996 -8.53971,17.76688 -22.1731,31.12369 l -12.2507,12.00217 z"
       style="fill:#000000;fill-opacity:1;stroke-width:1.72118998" />
  </g>
</svg>
