<?xml version="1.0" encoding="UTF-8" standalone="no"?>
<!-- Created with Inkscape (http://www.inkscape.org/) -->

<svg
   xmlns:dc="http://purl.org/dc/elements/1.1/"
   xmlns:cc="http://creativecommons.org/ns#"
   xmlns:rdf="http://www.w3.org/1999/02/22-rdf-syntax-ns#"
   xmlns:svg="http://www.w3.org/2000/svg"
   xmlns="http://www.w3.org/2000/svg"
   version="1.0"
   width="468pt"
   height="475pt"
   viewBox="0 0 468 475"
   id="svg2">
  <defs
     id="defs14" />
  <metadata
     id="metadata4">
Created by potrace 1.8, written by Peter Selinger 2001-2007
<rdf:RDF>
  <cc:Work
     rdf:about="">
    <dc:format>image/svg+xml</dc:format>
    <dc:type
       rdf:resource="http://purl.org/dc/dcmitype/StillImage" />
    <dc:title></dc:title>
  </cc:Work>
</rdf:RDF>
</metadata>
  <g
     transform="matrix(-0.10635835,-0.10317139,0.10178565,-0.10780634,256.53927,529.08217)"
     id="g6"
     fill="#000000" stroke="none">
    <path
       d="m 919,2931 c -29,-29 -29,-30 -29,-150 0,-72 5,-131 12,-146 15,-34 56,-55 106,-55 37,0 40,-2 46,-32 20,-104 123,-232 228,-281 31,-15 88,-32 127,-39 198,-34 393,92 457,295 l 18,57 44,0 c 37,0 50,6 78,34 l 34,34 0,116 c 0,124 -11,165 -49,186 -13,6 -199,10 -531,10 l -512,0 -29,-29 z m 991,-161 0,-60 -445,0 -445,0 0,60 0,60 445,0 445,0 0,-60 z m -656,-233 c 9,-59 50,-144 87,-178 l 32,-30 -28,11 c -70,27 -132,87 -174,167 -32,64 -29,73 28,73 l 49,0 6,-43 z m 186,-72 c 0,-105 -1,-114 -17,-108 -61,22 -105,85 -122,176 l -8,47 73,0 74,0 0,-115 z m 186,73 c -10,-66 -52,-144 -90,-167 -18,-12 -36,-21 -40,-21 -3,0 -6,52 -6,115 l 0,115 71,0 72,0 -7,-42 z m 154,30 c -1,-52 -78,-154 -149,-200 -57,-35 -67,-36 -34,0 35,37 63,101 70,162 l 6,50 53,0 c 37,0 54,-4 54,-12 z"
       id="path8" />
    <path
       d="M 555,1390 C 258,978 14,632 12,622 10,611 34,582 79,542 432,226 853,47 1332,8 1871,-35 2451,170 2861,549 l 73,67 -24,35 c -186,262 -1095,1485 -1106,1487 -8,2 -31,-11 -51,-28 -52,-46 -143,-87 -226,-100 -124,-22 -266,16 -363,95 -23,19 -48,35 -56,35 -7,0 -256,-338 -553,-750 z m 723,603 c 160,-59 362,-30 484,67 l 36,29 536,-728 c 295,-401 536,-734 536,-739 0,-6 -44,-47 -97,-92 C 2397,216 1950,51 1470,50 1301,50 1199,60 1046,91 721,158 350,350 110,574 c -30,28 -48,52 -43,59 3,7 240,337 526,734 l 519,721 50,-35 c 27,-20 80,-47 116,-60 z"
       id="path10" />
  </g>
</svg>
