<?xml version="1.0" encoding="UTF-8" standalone="no"?>
<svg
   viewBox="0 0 594 536.70001"
   version="1.1"
   id="svg4"
   width="594"
   height="536.70001"
   xmlns="http://www.w3.org/2000/svg"
   xmlns:svg="http://www.w3.org/2000/svg">
  <defs
     id="defs8" />
  <path
     d="m 82.9,445.7 3.8,8.9 3.8,-9.1 4.1,-8.5 39.6,-78 c 0.7,-1.3 1.4,-2.4 2.2,-3.1 0.7,-0.7 1.6,-1.3 2.5,-1.6 0.9,-0.4 2,-0.5 3.1,-0.5 h 31.4 v 154.1 h -31.5 v -88.7 c 0,-4.3 0.2,-9 0.6,-14 l -40.8,79.3 c -1.3,2.5 -3,4.3 -5.1,5.6 -2.2,1.3 -4.6,1.9 -7.4,1.9 h -4.9 c -2.8,0 -5.2,-0.6 -7.4,-1.9 -2.2,-1.3 -3.9,-3.1 -5.1,-5.6 L 30.7,405.1 c 0.3,2.5 0.5,4.9 0.6,7.4 l 0.2,6.7 v 88.7 H 0 V 353.7 h 31.4 c 1.2,0 2.2,0.2 3.1,0.5 a 9.63,9.63 0 0 1 2.5,1.6 c 0.7,0.7 1.5,1.8 2.2,3.1 l 39.7,78.3 z m 259.5,-15 c 0,6.6 -0.7,13 -2.1,19.1 -1.4,6.1 -3.4,11.8 -5.9,17.2 -2.6,5.4 -5.8,10.3 -9.5,14.9 -3.8,4.6 -8.1,8.6 -12.9,12.2 l 39,42.6 h -29.4 c -4.2,0 -8.1,-0.5 -11.5,-1.5 -3.5,-1 -6.5,-3.1 -9.2,-6.2 l -19.2,-21.5 c -3.1,0.6 -6.3,1.1 -9.5,1.5 -3.2,0.4 -6.5,0.5 -9.9,0.5 -12,0 -22.9,-2 -32.8,-6 -9.9,-4 -18.3,-9.6 -25.3,-16.7 a 74.13,74.13 0 0 1 -16.3,-25 c -3.8,-9.6 -5.8,-20 -5.8,-31.1 0,-11.1 1.9,-21.5 5.8,-31.1 a 74.13,74.13 0 0 1 16.3,-25 c 7,-7.1 15.5,-12.6 25.3,-16.6 9.9,-4 20.8,-6 32.8,-6 12,0 22.9,2 32.7,6.1 9.8,4.1 18.3,9.6 25.2,16.7 7,7.1 12.4,15.4 16.2,25 4.1,9.5 6,19.8 6,30.9 z m -36.6,0 c 0,-7.6 -1,-14.5 -3,-20.6 -2,-6.1 -4.8,-11.3 -8.5,-15.5 -3.7,-4.2 -8.2,-7.5 -13.6,-9.7 -5.4,-2.3 -11.5,-3.4 -18.3,-3.4 -6.9,0 -13.1,1.1 -18.5,3.4 -5.4,2.3 -9.9,5.5 -13.6,9.7 -3.7,4.2 -6.5,9.4 -8.5,15.5 -2,6.1 -3,13 -3,20.6 0,7.7 1,14.6 3,20.7 2,6.1 4.8,11.3 8.5,15.5 3.7,4.2 8.3,7.5 13.6,9.7 5.4,2.2 11.5,3.3 18.5,3.3 6.8,0 12.9,-1.1 18.3,-3.3 5.4,-2.2 9.9,-5.4 13.6,-9.7 3.7,-4.2 6.5,-9.4 8.5,-15.5 2,-6.1 3,-13 3,-20.7 z m 151,-77.1 V 382 H 415.4 V 507.8 H 379.6 V 382 h -41.4 v -28.4 z m 137.2,0 V 382 H 550.6 V 507.8 H 514.8 V 382 h -41.4 v -28.4 z m -449.9,-180 v 117.1 c 0,8.4 6.8,15.3 15.3,15.3 H 279 C 278,232.8 217.9,173.6 144.1,173.6 Z m 0,-96.6 v 49.8 c 99,0.9 179.4,80.7 180.4,179.1 h 51.7 C 375.2,179.6 271.5,77.1 144.1,77 Z M 449.9,290.6 V 186.5 C 415.1,100.1 344.3,31.9 256,0 H 159.4 C 151,0 144.1,6.8 144.1,15.3 v 15 c 152.6,0.9 276.6,124 277.6,275.6 h 13 c 8.4,0 15.2,-6.8 15.2,-15.3 z M 410.6,42.8 c 14.5,14.4 27.6,29.7 39.4,47.8 V 17.3 C 450,6.9 443.2,0 434.7,0 h -77.3 c 18,12.6 37.2,26.9 53.2,42.8 z"
     id="path2"
     style="fill:#000000;stroke:none" />
</svg>
