<?xml version="1.0" encoding="UTF-8" standalone="no"?>
<svg
   viewBox="0 0 305.90039 306"
   version="1.1"
   id="svg4"
   width="305.90039"
   height="306"
   xmlns="http://www.w3.org/2000/svg"
   xmlns:svg="http://www.w3.org/2000/svg">
  <defs
     id="defs8" />
  <path
     id="path1072"
     
     d="M 15.30078,0 C 6.90078,0 0,6.8007812 0,15.300781 v 15 c 152.6,0.9 276.59961,123.999609 277.59961,275.599609 h 13 c 8.4,0 15.20117,-6.80078 15.20117,-15.30078 V 186.5 C 271.00078,100.1 200.20039,31.9 111.90039,0 Z m 198,0 c 18,12.6 37.19922,26.900781 53.19922,42.800781 14.5,14.4 27.60039,29.698828 39.40039,47.798828 V 17.300781 C 305.90039,6.9007812 299.09961,0 290.59961,0 Z M 0,77 v 49.80078 c 99,0.9 179.40039,80.69961 180.40039,179.09961 h 51.69922 C 231.09961,179.60039 127.4,77.1 0,77 Z m 0,96.59961 V 290.69922 C 0,299.09922 6.80078,306 15.30078,306 H 134.90039 C 133.90039,232.8 73.8,173.59961 0,173.59961 Z" style="fill:#000000;stroke:none" />
</svg>
