<?xml version="1.0" encoding="utf-8"?>
<!DOCTYPE svg PUBLIC "-//W3C//DTD SVG 1.1//EN" "http://www.w3.org/Graphics/SVG/1.1/DTD/svg11.dtd">
<svg version="1.1" xmlns="http://www.w3.org/2000/svg" xmlns:xlink="http://www.w3.org/1999/xlink" x="0px" y="0px" width="562px"
	 height="514px" viewBox="0 0 562 514" enable-background="new 0 0 562 514" xml:space="preserve">
<g id="Ebene_1">
	<g>
		<path fill-rule="evenodd" clip-rule="evenodd" fill="#000000" d="M74.828,332.363c0,0-0.214-0.322-0.281-0.438
			c-11.177-19.108-19.123-39.393-24.77-60.692c-7.089-26.744-8.035-54.223-6.096-81.668c1.094-15.489,3.336-31.045,8.29-45.85
			c4.974-14.867,10.394-29.595,17.816-43.549C77.813,85.08,87.417,71.132,97.94,57.758c4.512-5.734,10.142-10.482,14.485-16.401
			c1.706-2.325,3.867-1.675,5.952,0.236c11.232,10.296,22.543,20.506,33.848,30.722c6.882,6.219,13.762,12.442,20.723,18.572
			c3.097,2.727,3.243,4.625,0.008,7.843c-17.571,17.476-30.428,37.872-38.795,61.38c-6.863,19.283-9.444,38.985-8.704,59.158
			c0.61,16.625,3.577,32.928,9.95,48.472c2.75,6.706,5.358,13.453,9.037,19.734c2.767,4.725,3.25,4.894,7.276,1.396
			c4.01-3.484,7.835-7.2,12.018-10.46c3.107-2.421,2.176-5.207,0.897-7.563c-12.321-22.689-15.232-47.173-13.156-72.324
			c1.958-23.725,10.21-45.309,24.506-64.567c4.758-6.41,9.923-12.39,15.402-18.139c4.19-4.397,4.881-4.249,9.277-0.291
			c16.749,15.078,33.562,30.084,50.393,45.069c3.501,3.117,3.425,4.351-0.245,7.156c-10.582,8.087-17.463,18.317-20.735,31.577
			c-3.401,13.782-1.167,26.419,4.944,38.499c5.524,10.919,14.373,18.947,25.589,23.997c4.219,1.9,6.683,4.143,6.205,9.222
			c-0.467,4.97,0.895,9.904,1.446,14.856c0.566,5.091-1.093,6.559-6.009,4.944c-13.014-4.276-24.989-10.291-35.044-20.001
			c-11.146-10.764-19.146-23.474-22.857-38.278c-2.634-10.511-3.57-21.372-1.688-32.583c1.944-11.586,5.962-21.964,11.972-31.804
			c1.09-1.785,1.165-3.313-0.593-4.812c-3.909-3.334-7.841-6.655-11.548-10.207c-2.281-2.185-3.846-1.356-5.239,0.695
			c-9.489,13.968-15.2,29.426-16.831,46.167c-0.788,8.086-0.788,16.385,0.045,24.464c1.722,16.698,7.429,32.119,17.066,45.982
			c0.847,1.218,1.573,2.522,2.453,3.714c4.5,6.096,4.457,6.032-0.766,11.104c-16.64,16.161-35.656,29.614-52.199,45.884
			c-2.762,2.716-5.276,2.104-7.553-0.794c-15.891-20.23-28.115-42.32-34.954-67.291c-4.542-16.585-7.1-33.353-6.313-51.784
			c-1.261-15.059,0.99-31.102,5.065-46.688c4.564-17.453,11.417-34.158,21.262-49.491c3.645-5.677,6.223-12.024,10.673-17.214
			c1.902-2.218,1.409-4.24-0.634-6.038c-4.092-3.601-8.316-7.06-12.278-10.798c-2.667-2.517-4.819-1.938-6.615,0.664
			c-5.82,8.431-11.865,16.706-16.941,25.644c-6.2,10.917-11.634,22.233-16.115,33.9c-4.258,11.087-7.344,22.582-9.338,34.42
			c-3.124,18.552-2.648,37.127-1.924,55.746c0.598,15.367,4.501,30.037,9.012,44.695c5.344,17.367,13.141,33.436,22.512,48.877
			c1.354,2.23,2.746,4.434,4.19,6.595c0.129,0.193,0.343,0.525,0.473,0.718L74.828,332.363z"/>
		<path fill-rule="evenodd" clip-rule="evenodd" fill="#000000" d="M490.984,332.363c0,0,0.222-0.388,0.311-0.542
			c4.755-8.291,9.066-16.859,13.014-25.672c7.9-17.638,13.271-36.002,16.461-54.938c2.177-12.923,3.125-26.074,2.294-37.845
			c0.553-21.081-1.361-40.483-6.016-59.646c-5.469-22.514-14.152-43.692-25.812-63.654c-10.313-17.659-23.046-33.502-37.043-48.361
			c-2.174-2.308-3.937-2.024-6.284,0.109c-17.786,16.158-35.7,32.176-53.558,48.255c-4.534,4.083-4.647,5.335-0.253,9.552
			c8.646,8.295,15.929,17.648,22.421,27.688c11.198,17.316,18.662,36.274,22.207,56.387c2.755,15.631,3.566,31.504,1.254,47.633
			c-2.835,19.776-8.68,38.257-17.961,55.791c-2.367,4.472-3.779,4.778-7.517,1.542c-4.139-3.584-8.112-7.358-12.227-10.971
			c-2.028-1.781-1.946-3.709-0.719-5.782c7.654-12.923,11.135-27.244,13.026-41.861c2.498-19.299,1.347-38.621-4.378-57.239
			c-6.927-22.528-19.378-41.888-36.472-58.228c-2.481-2.372-4.336-2.366-6.766-0.11c-6.437,5.975-12.983,11.832-19.503,17.716
			c-10.831,9.774-21.66,19.55-32.527,29.283c-2.436,2.182-2.933,3.475,0.434,5.67c8.633,5.631,14.373,13.658,18.635,23.113
			c12.669,28.105-2.076,60.651-28.274,71.926c-3.226,1.388-5.517,3.28-5.756,7.647c-0.272,4.964-0.596,9.95-0.786,14.927
			c-0.213,5.602,1.309,6.628,6.744,5.003c14.044-4.199,26.188-11.546,36.262-22.181c14.798-15.622,22.104-34.622,22.341-55.782
			c0.167-15.016-4.104-29.494-12.189-42.415c-1.997-3.19-1.383-5.173,0.914-7.292c3.642-3.36,7.419-6.574,11.049-9.947
			c1.866-1.734,3.477-1.049,4.587,0.558c9.536,13.801,15.829,29.121,17.76,45.655c3.364,28.809-3.721,55.165-21.68,78.232
			c-2.353,3.022-1.588,4.866,0.837,7.032c17.865,15.957,35.723,31.923,53.52,47.958c2.888,2.602,4.969,2.794,7.658-0.472
			c10.023-12.168,18.794-25.114,25.445-39.433c5.31-11.432,8.383-23.553,11.374-35.757c3.182-12.984,4.715-26.128,5.086-39.392
			c0.462-16.486-1.423-32.757-5.1-48.901c-3.032-13.315-8.007-25.803-13.801-38.043c-5.392-11.387-12.113-21.974-19.891-31.873
			c-1.654-2.105-1.714-3.608,0.371-5.389c3.382-2.89,6.678-5.888,9.906-8.949c6.958-6.595,6.939-6.629,12.972,0.801
			c1.254,1.545,2.502,3.105,3.624,4.746c10.857,15.872,19.95,32.574,26.446,50.814c4.915,13.799,9.241,27.749,10.784,42.188
			c1.667,15.598,3.592,31.27,1.219,47.153c-1.49,9.975-2.215,20.025-4.464,29.944c-4.49,19.809-11.69,38.535-21.443,56.25
			c-3.121,5.668-6.468,11.209-10.102,16.556c-0.132,0.193-0.342,0.515-0.342,0.515L490.984,332.363z"/>
	</g>
	

</g>
<g id="Ebene_4">
	<g>
		<g id="Bridge_2_">
			<path fill="#000000" d="M25.71,387.787c12.914-4.193,25.927-8.076,39.029-11.639c9.354-2.543,16.67-2.311,21.926,0.521
				c5.255,2.832,7.816,7.112,7.652,12.762c-0.211,7.242-13.035,19.667-13.035,19.667c0.086,0.269,11.009,1.491,14.26,4.543
				c3.251,3.053,4.813,7.143,4.669,12.241c-0.204,7.25-3.128,13.872-8.777,19.578c-6.531,6.597-15.475,10.67-24.512,12.881
				c-14.948,4.083-29.763,8.452-44.534,13.133C23.496,443.578,24.601,415.683,25.71,387.787z M47.591,396.165
				c-0.26,7.157-0.39,10.735-0.649,17.892c4.732-1.392,7.102-2.071,11.85-3.392c3.652-1.016,6.533-2.641,8.637-4.901
				c2.104-2.26,3.198-4.681,3.283-7.271c0.083-2.551-0.872-4.396-2.858-5.524c-1.988-1.128-4.804-1.199-8.446-0.186
				C54.672,394.1,52.311,394.776,47.591,396.165z M46.384,429.376c-0.287,7.899-0.428,11.848-0.715,19.747
				c5.124-1.507,7.691-2.24,12.832-3.665c6.076-1.684,10.486-3.597,13.21-5.826c2.724-2.229,4.147-5.228,4.268-9.014
				c0.092-2.907-1.106-4.888-3.588-5.923c-2.482-1.035-5.843-0.991-10.074,0.163C55.931,426.602,52.743,427.505,46.384,429.376z"/>
			<path fill="#000000" d="M118.732,363.378c13.688-2.666,27.386-5.075,41.162-7.238c8.955-1.345,16.209,0.036,21.76,4.007
				c5.55,3.971,8.289,9.314,8.193,15.941c-0.147,10.203-16.331,22.33-16.331,22.33c0.032,0.321,9.02,5.852,13.129,13.696
				c4.11,7.844,8.101,15.258,11.967,22.238c-10.285,1.043-15.422,1.641-25.68,2.999c-1.484-2.538-4.063-7.405-7.714-14.575
				c-3.651-7.168-6.791-11.635-9.437-13.405c-2.646-1.771-5.5-2.409-8.562-1.905c-2.663,0.438-3.994,0.662-6.654,1.122
				c-0.248,11.272-0.495,22.545-0.743,33.817c-9.305,1.608-13.949,2.479-23.217,4.348
				C117.317,418.96,118.026,391.169,118.732,363.378z M141.318,374.354c-0.167,7.586-0.25,11.379-0.416,18.965
				c4.883-0.844,7.327-1.248,12.219-2.019c3.899-0.615,7.008-1.9,9.324-3.884c2.314-1.983,3.5-4.496,3.556-7.557
				c0.114-6.277-4.238-8.827-13.029-7.435C148.307,373.163,145.976,373.549,141.318,374.354z"/>
			<path fill="#000000" d="M234.446,348.344c-0.213,27.727-0.425,55.453-0.637,83.179c-9.396,0.559-14.092,0.903-23.474,1.723
				c0.31-27.733,0.622-55.467,0.935-83.201C220.533,349.236,225.168,348.896,234.446,348.344z"/>
			<path fill="#000000" d="M255.783,347.349c13.695-0.461,27.402-0.59,41.104-0.378c14.015,1.213,26.813,3.424,37.74,13.068
				c8.929,7.881,13.962,19.28,14.146,31.056c0.179,11.375-4.337,22.687-13.875,29.425c-11.57,8.174-26.672,9.869-40.481,9.574
				c-13-0.158-26.004-0.018-38.997,0.422C255.542,402.793,255.662,375.071,255.783,347.349z M278.99,362.126
				c-0.012,17.561-0.027,35.122-0.04,52.683c6.123-0.037,9.185-0.027,15.308,0.047c9.936,0.12,17.524-2.033,22.752-6.65
				c5.226-4.617,7.806-10.837,7.756-18.736c-0.051-8.177-2.741-14.759-8.052-19.668c-5.312-4.91-12.906-7.514-22.806-7.631
				C287.941,362.1,284.957,362.09,278.99,362.126z"/>
			<path fill="#000000" d="M453.706,370.028c0.19,7.282,0.285,10.922,0.476,18.204c-11.637-6.533-22.13-11.523-34.678-14.089
				c-10.36-2.118-19.208-0.481-25.022,3.661c-5.815,4.143-8.681,10.075-8.562,17.702c0.114,7.309,3.173,13.574,9.183,18.891
				c6.009,5.317,13.864,8.673,23.524,10.233c5.118,0.826,10.234,0.715,15.338-0.346c-0.089-3.889-0.134-5.835-0.223-9.725
				c-5.371-0.969-8.062-1.432-13.444-2.313c-0.128-6.106-0.192-9.159-0.319-15.266c12.221,2.002,24.396,4.273,36.518,6.811
				c0.299,11.362,0.601,22.724,0.9,34.086c-3.588,2.534-9.114,4.078-16.599,4.746c-7.485,0.668-14.957,0.381-22.349-0.787
				c-14.638-2.313-29.068-7.854-40.419-17.486c-9.479-8.043-15.903-19.577-16.127-32.138c-0.208-11.724,5.276-22.85,15.246-29.283
				c12.48-8.053,26.399-8.155,40.077-6.45C429.761,358.042,442.633,363.059,453.706,370.028z"/>
			<path fill="#000000" d="M545.087,456.139c0.243,6.134,0.363,9.202,0.606,15.336c-22.359-7.098-44.856-13.395-67.655-18.921
				c-0.822-27.815-1.638-55.63-2.462-83.445c22.201,5.403,44.106,11.517,65.897,18.387c0.242,6.134,0.363,9.201,0.605,15.335
				c-14.364-4.535-28.771-8.773-43.303-12.738c0.23,7.007,0.349,10.51,0.579,17.517c13.894,3.786,27.675,7.822,41.416,12.127
				c0.24,6.134,0.361,9.199,0.602,15.333c-13.774-4.315-27.589-8.36-41.516-12.154c0.265,8.035,0.399,12.05,0.664,20.085
				C515.479,447.086,530.305,451.456,545.087,456.139z"/>
		</g>
	</g>
</g>
</svg>
