<?xml version="1.0" encoding="utf-8"?>
<!-- Generator: Adobe Illustrator 16.0.3, SVG Export Plug-In . SVG Version: 6.00 Build 0)  -->
<!DOCTYPE svg PUBLIC "-//W3C//DTD SVG 1.1//EN" "http://www.w3.org/Graphics/SVG/1.1/DTD/svg11.dtd">
<svg version="1.1" xmlns="http://www.w3.org/2000/svg" xmlns:xlink="http://www.w3.org/1999/xlink" x="0px" y="0px" width="562px"
	 height="514px" viewBox="0 0 562 514" enable-background="new 0 0 562 514" xml:space="preserve">
<g id="Ebene_1">
	<g>
		<path fill-rule="evenodd" clip-rule="evenodd" fill="#000000" d="M74.828,332.363c0,0-0.214-0.322-0.281-0.438
			c-11.177-19.108-19.123-39.393-24.77-60.692c-7.089-26.744-8.035-54.223-6.096-81.668c1.094-15.489,3.336-31.045,8.29-45.85
			c4.974-14.867,10.394-29.595,17.816-43.549C77.813,85.08,87.417,71.132,97.94,57.758c4.512-5.734,10.142-10.482,14.485-16.401
			c1.706-2.325,3.867-1.675,5.952,0.236c11.232,10.296,22.543,20.506,33.848,30.722c6.882,6.219,13.762,12.442,20.723,18.572
			c3.097,2.727,3.243,4.625,0.008,7.843c-17.571,17.476-30.428,37.872-38.795,61.38c-6.863,19.283-9.444,38.985-8.704,59.158
			c0.61,16.625,3.577,32.928,9.95,48.472c2.75,6.706,5.358,13.453,9.037,19.734c2.767,4.725,3.25,4.894,7.276,1.396
			c4.01-3.484,7.835-7.2,12.018-10.46c3.107-2.421,2.176-5.207,0.897-7.563c-12.321-22.689-15.232-47.173-13.156-72.324
			c1.958-23.725,10.21-45.309,24.506-64.567c4.758-6.41,9.923-12.39,15.402-18.139c4.19-4.397,4.881-4.249,9.277-0.291
			c16.749,15.078,33.562,30.084,50.393,45.069c3.501,3.117,3.425,4.351-0.245,7.156c-10.582,8.087-17.463,18.317-20.735,31.577
			c-3.401,13.782-1.167,26.419,4.944,38.499c5.524,10.919,14.373,18.947,25.589,23.997c4.219,1.9,6.683,4.143,6.205,9.222
			c-0.467,4.97,0.895,9.904,1.446,14.856c0.566,5.091-1.093,6.559-6.009,4.944c-13.014-4.276-24.989-10.291-35.044-20.001
			c-11.146-10.764-19.146-23.474-22.857-38.278c-2.634-10.511-3.57-21.372-1.688-32.583c1.944-11.586,5.962-21.964,11.972-31.804
			c1.09-1.785,1.165-3.313-0.593-4.812c-3.909-3.334-7.841-6.655-11.548-10.207c-2.281-2.185-3.846-1.356-5.239,0.695
			c-9.489,13.968-15.2,29.426-16.831,46.167c-0.788,8.086-0.788,16.385,0.045,24.464c1.722,16.698,7.429,32.119,17.066,45.982
			c0.847,1.218,1.573,2.522,2.453,3.714c4.5,6.096,4.457,6.032-0.766,11.104c-16.64,16.161-35.656,29.614-52.199,45.884
			c-2.762,2.716-5.276,2.104-7.553-0.794c-15.891-20.23-28.115-42.32-34.954-67.291c-4.542-16.585-7.1-33.353-6.313-51.784
			c-1.261-15.059,0.99-31.102,5.065-46.688c4.564-17.453,11.417-34.158,21.262-49.491c3.645-5.677,6.223-12.024,10.673-17.214
			c1.902-2.218,1.409-4.24-0.634-6.038c-4.092-3.601-8.316-7.06-12.278-10.798c-2.667-2.517-4.819-1.938-6.615,0.664
			c-5.82,8.431-11.865,16.706-16.941,25.644c-6.2,10.917-11.634,22.233-16.115,33.9c-4.258,11.087-7.344,22.582-9.338,34.42
			c-3.124,18.552-2.648,37.127-1.924,55.746c0.598,15.367,4.501,30.037,9.012,44.695c5.344,17.367,13.141,33.436,22.512,48.877
			c1.354,2.23,2.746,4.434,4.19,6.595c0.129,0.193,0.343,0.525,0.473,0.718L74.828,332.363z"/>
		<path fill-rule="evenodd" clip-rule="evenodd" fill="#000000" d="M490.984,332.363c0,0,0.222-0.388,0.311-0.542
			c4.755-8.291,9.066-16.859,13.014-25.672c7.9-17.638,13.271-36.002,16.461-54.938c2.177-12.923,3.125-26.074,2.294-37.845
			c0.553-21.081-1.361-40.483-6.016-59.646c-5.469-22.514-14.152-43.692-25.812-63.654c-10.313-17.659-23.046-33.502-37.043-48.361
			c-2.174-2.308-3.937-2.024-6.284,0.109c-17.786,16.158-35.7,32.176-53.558,48.255c-4.534,4.083-4.647,5.335-0.253,9.552
			c8.646,8.295,15.929,17.648,22.421,27.688c11.198,17.316,18.662,36.274,22.207,56.387c2.755,15.631,3.566,31.504,1.254,47.633
			c-2.835,19.776-8.68,38.257-17.961,55.791c-2.367,4.472-3.779,4.778-7.517,1.542c-4.139-3.584-8.112-7.358-12.227-10.971
			c-2.028-1.781-1.946-3.709-0.719-5.782c7.654-12.923,11.135-27.244,13.026-41.861c2.498-19.299,1.347-38.621-4.378-57.239
			c-6.927-22.528-19.378-41.888-36.472-58.228c-2.481-2.372-4.336-2.366-6.766-0.11c-6.437,5.975-12.983,11.832-19.503,17.716
			c-10.831,9.774-21.66,19.55-32.527,29.283c-2.436,2.182-2.933,3.475,0.434,5.67c8.633,5.631,14.373,13.658,18.635,23.113
			c12.669,28.105-2.076,60.651-28.274,71.926c-3.226,1.388-5.517,3.28-5.756,7.647c-0.272,4.964-0.596,9.95-0.786,14.927
			c-0.213,5.602,1.309,6.628,6.744,5.003c14.044-4.199,26.188-11.546,36.262-22.181c14.798-15.622,22.104-34.622,22.341-55.782
			c0.167-15.016-4.104-29.494-12.189-42.415c-1.997-3.19-1.383-5.173,0.914-7.292c3.642-3.36,7.419-6.574,11.049-9.947
			c1.866-1.734,3.477-1.049,4.587,0.558c9.536,13.801,15.829,29.121,17.76,45.655c3.364,28.809-3.721,55.165-21.68,78.232
			c-2.353,3.022-1.588,4.866,0.837,7.032c17.865,15.957,35.723,31.923,53.52,47.958c2.888,2.602,4.969,2.794,7.658-0.472
			c10.023-12.168,18.794-25.114,25.445-39.433c5.31-11.432,8.383-23.553,11.374-35.757c3.182-12.984,4.715-26.128,5.086-39.392
			c0.462-16.486-1.423-32.757-5.1-48.901c-3.032-13.315-8.007-25.803-13.801-38.043c-5.392-11.387-12.113-21.974-19.891-31.873
			c-1.654-2.105-1.714-3.608,0.371-5.389c3.382-2.89,6.678-5.888,9.906-8.949c6.958-6.595,6.939-6.629,12.972,0.801
			c1.254,1.545,2.502,3.105,3.624,4.746c10.857,15.872,19.95,32.574,26.446,50.814c4.915,13.799,9.241,27.749,10.784,42.188
			c1.667,15.598,3.592,31.27,1.219,47.153c-1.49,9.975-2.215,20.025-4.464,29.944c-4.49,19.809-11.69,38.535-21.443,56.25
			c-3.121,5.668-6.468,11.209-10.102,16.556c-0.132,0.193-0.342,0.515-0.342,0.515L490.984,332.363z"/>
	</g>
		<rect x="241" y="441.498" transform="matrix(0.7071 0.7071 -0.7071 0.7071 403.2676 -66.5775)" display="none" fill-rule="evenodd" clip-rule="evenodd" fill="#000000" width="82" height="24"/>
</g>
<g id="Ebene_4">
	<g>
		<path fill-rule="evenodd" clip-rule="evenodd" fill="#000000" d="M15.16,371.338h38.045c9.07,0,16.198,2.182,21.385,6.545c5.186,4.364,7.779,9.524,7.779,15.482
			c0,7.638-4.011,13.49-12.031,17.561c6.047,1.597,10.677,4.413,13.889,8.446c3.213,4.034,4.819,8.74,4.819,14.118
			c0,7.647-2.625,13.866-7.874,18.656c-5.25,4.791-12.976,7.186-23.18,7.186H15.16V371.338z M37.08,387.464v18.833h11.464
			c3.527,0,6.277-0.902,8.251-2.708c1.973-1.806,2.96-4.073,2.96-6.803c0-2.688-0.987-4.914-2.96-6.678
			c-1.974-1.764-4.724-2.645-8.251-2.645H37.08z M37.08,422.422v20.786h12.346c5.836,0,10.036-0.808,12.598-2.425
			c2.561-1.616,3.842-4.419,3.842-8.409c0-3.064-1.218-5.49-3.653-7.275c-2.436-1.784-5.69-2.677-9.763-2.677H37.08z"/>
		<path fill-rule="evenodd" clip-rule="evenodd" fill="#000000" d="M105.233,371.338h39.305c8.524,0,15.453,2.465,20.786,7.396c5.333,4.931,8,10.901,8,17.908
			c0,9.694-5.039,16.87-15.117,21.527c4.417,2.01,8.616,7.422,12.596,16.234c3.98,8.813,7.822,17.123,11.529,24.929h-24.054
			c-1.436-2.897-3.938-8.419-7.505-16.566c-3.569-8.146-6.623-13.374-9.163-15.684c-2.542-2.309-5.26-3.465-8.157-3.465h-6.299
			v35.715h-21.92V371.338z M127.153,387.464v20.029h11.59c3.695,0,6.624-0.87,8.787-2.613c2.162-1.742,3.244-4.23,3.244-7.465
			c0-6.634-4.179-9.951-12.535-9.951H127.153z"/>
		<path fill-rule="evenodd" clip-rule="evenodd" fill="#000000" d="M237.257,370.205c14.991,0,27.126,4.525,36.407,13.574c9.279,9.05,13.92,19.58,13.92,31.589
			c0,12.179-4.703,22.739-14.109,31.683c-9.406,8.945-21.479,13.417-36.218,13.417c-14.908,0-27.043-4.45-36.407-13.354
			c-9.365-8.902-14.046-19.484-14.046-31.746c0-12.052,4.65-22.591,13.952-31.62C210.056,374.719,222.223,370.205,237.257,370.205z
			 M237.257,442.2c8.313,0,15.013-2.467,20.093-7.401c5.08-4.934,7.621-11.41,7.621-19.432c0-8.063-2.541-14.55-7.621-19.464
			c-5.08-4.912-11.779-7.369-20.093-7.369c-8.357,0-15.085,2.457-20.188,7.369c-5.102,4.914-7.653,11.401-7.653,19.464
			c0,8.021,2.551,14.498,7.653,19.432C222.171,439.733,228.9,442.2,237.257,442.2z"/>
		<path fill-rule="evenodd" clip-rule="evenodd" fill="#000000" d="M377.342,371.338l-28.663,41.385l38.868,46.609h-27.399l-34.896-41.258v41.258h-21.92v-87.995h21.92v39.62l27.979-39.62
			H377.342z"/>
		<path fill-rule="evenodd" clip-rule="evenodd" fill="#000000" d="M461.369,443.208v16.125h-64.878v-87.995h63.996v16.125h-42.076v18.455h40.123v16.125h-40.123v21.164H461.369z"/>
		<path fill-rule="evenodd" clip-rule="evenodd" fill="#000000" d="M478.124,371.338h39.305c8.524,0,15.453,2.465,20.786,7.396c5.332,4.931,7.999,10.901,7.999,17.908
			c0,9.694-5.039,16.87-15.117,21.527c4.418,2.01,8.616,7.422,12.596,16.234c3.98,8.813,7.823,17.123,11.529,24.929h-24.054
			c-1.436-2.897-3.938-8.419-7.506-16.566c-3.568-8.146-6.622-13.374-9.162-15.684c-2.541-2.309-5.26-3.465-8.157-3.465h-6.299
			v35.715h-21.92V371.338z M500.044,387.464v20.029h11.59c3.694,0,6.624-0.87,8.787-2.613c2.162-1.742,3.244-4.23,3.244-7.465
			c0-6.634-4.18-9.951-12.535-9.951H500.044z"/>
	</g>
</g>
</svg>
