<?xml version="1.0" encoding="utf-8"?>
<!DOCTYPE svg PUBLIC "-//W3C//DTD SVG 1.1//EN" "http://www.w3.org/Graphics/SVG/1.1/DTD/svg11.dtd">
<svg version="1.1" xmlns="http://www.w3.org/2000/svg" xmlns:xlink="http://www.w3.org/1999/xlink" x="0px" y="0px" width="300" height="220" viewBox="0 0 300 220" enable-background="new 0 0 300 220" xml:space="preserve">
	<path fill="#E72" d="m149,58a52,52 0 1,0 2,0z"/>
	<path fill="#237" d="m112,135h76l-38-66z"/>
	<path fill="none" stroke="#EEE" stroke-width="12" d="m63,8a72, 117 0 0,0 0,204m174,0a72,117 0 0,0 0-204M82 30a70,99 0 0,0 0,160m136,0a72,101 0 0,0 0-160M101 54a68,78 0 0,0 0,112m98, 0a68,78 0 0,0 0-112"/>
	<path fill="none" stroke="#E72" stroke-width="12" d="m63,22a96,112 0 0,0 0,176m174,0a96,112 0 0,0 0-176M80 40a80,93 0 0,0 0,140m140,0a80,93  0 0,0 0-140M100,60a62 66 0 0,0 0,100m100,0a62,66 0 0,0 0-100"/>
</svg>