<?xml version="1.0" encoding="UTF-8"?>
<svg xmlns="http://www.w3.org/2000/svg" xmlns:xlink="http://www.w3.org/1999/xlink" width="512px" height="238px" viewBox="0 0 512 238" version="1.1">
  <defs/>
  <g fill="#000000" id="layer1">
    <path d="M450.391663,131.216003 C452.519684,132.691101 454.569672,133.516876 456.876282,134.769867 C458.745483,135.786896 460.648865,136.739777 462.524841,137.743072 C463.987427,138.524139 466.695953,140.167694 465.053589,142.088318 C463.987305,143.338989 461.404724,143.143127 459.890686,143.355041 C457.492493,143.688354 454.542236,143.561218 452.150818,143.355041 C449.221253,143.1008 446.15863,143.79483 443.17746,143.79483 C441.025421,143.79483 438.857422,143.887604 436.728363,143.881866 C435.961029,143.879516 434.994415,144.058258 434.469818,143.381317 C433.924744,142.680359 434.307159,141.900452 434.733246,141.316406 C435.243958,140.620026 435.725067,139.691284 436.340057,139.147247 C436.89093,138.662781 437.612549,138.32724 438.164551,137.901184 C439.509125,136.864685 439.976379,135.768616 438.785309,134.430939 C437.601044,133.097839 436.730591,132.155273 436.669952,130.268982 C436.593262,127.860474 438.123383,127.364502 440.173401,126.838867 C443.242767,126.052032 442.983948,126.578857 445.553955,128.049408 C446.785156,128.753632 449.809845,130.811615 450.391663,131.216003 Z M58.5539284,132.181427 C56.3881645,133.599335 54.3169251,134.371246 51.9782944,135.563477 C50.0834389,136.53125 48.1552811,137.433716 46.2540932,138.387756 C44.7714691,139.129883 42.0204926,140.701294 43.6125336,142.665466 C44.6456299,143.943543 47.2321854,143.815369 48.7406121,144.066101 C51.1290856,144.462372 54.0816651,144.411957 56.4776459,144.269928 C59.4129868,144.091309 62.4561081,144.866638 65.4361344,144.943329 C67.5875855,145.00174 69.7521821,145.150696 71.8806458,145.199951 C72.6474076,145.218231 73.6094437,145.42218 74.1517334,144.758972 C74.7146683,144.072907 74.3527451,143.282684 73.9421539,142.688324 C73.4502945,141.979401 72.9932632,141.037994 72.3931503,140.477875 C71.8548507,139.978516 71.1430893,139.624695 70.6019745,139.184906 C69.2849426,138.112854 68.8462143,137.004242 70.0722275,135.698578 C71.2914505,134.397492 72.1858063,133.477814 72.2963944,131.593872 C72.436081,129.187561 70.992508,128.250763 68.8833848,128.072144 C66.1685334,127.841919 66.2744294,128.398529 63.5790406,129.405243 C62.2498169,129.901215 59.1466522,131.792084 58.5539284,132.181427 Z M509.575653,149.195374 C492.893402,168.435028 461.247833,158.80072 409.010132,183.792206 C339.684509,216.958618 335.120575,236.687286 255.37645,237.250885 C172.888153,237.834839 171.011002,215.182282 97.9313202,182.619385 C40.2454033,156.915741 8.2997513,168.449921 1.4704743,148.315613 C-7.834382,121.882385 29.2701302,97.5106659 49.5543709,83.2266541 C141.578327,18.4238892 181.664463,0.9674073 253.422566,1.0349427 C330.454655,-3.3616332 404.944187,41.8862916 460.612217,83.2266541 C480.441711,97.9517059 522.505981,126.137207 509.575653,149.195374 Z M258.598663,132.690064 L258.59082,149.036804 C275.68692,147.541382 289.333527,133.712341 290.971832,116.270126 L274.611023,116.302429 C273.227203,124.733429 266.758911,131.368103 258.598663,132.690064 Z M268.040527,116.315552 L258.606476,116.334335 L258.601776,126.133881 C263.22406,124.965393 266.855408,121.167847 268.040527,116.315552 Z M268.140961,109.900696 C267.050568,104.886902 263.340729,100.94606 258.614319,99.7456512 L258.609619,109.919678 L268.140961,109.900696 Z M220.035721,109.996231 L236.573319,109.963333 C237.796433,101.500641 244.125534,94.7637635 252.202789,93.2554322 L252.211014,76.4596253 C234.976502,78.0875702 221.330093,92.2734985 220.035721,109.996231 Z M252.187118,125.984924 L252.191818,116.347061 L243.215835,116.364883 C244.373367,121.030609 247.799957,124.690735 252.187118,125.984924 Z M236.642029,116.377808 L220.081146,116.41069 C221.769379,133.693329 235.255081,147.407105 252.176163,149.022308 L252.18399,132.617065 C244.263947,131.129669 238.025269,124.61557 236.642029,116.377808 Z M252.194763,109.932404 L252.199646,99.8863984 C247.665848,101.21875 244.129257,105.067978 243.086243,109.950424 L252.194763,109.932404 Z M291.003571,109.855286 C289.642243,92.1268768 275.912628,77.9781341 258.625671,76.4488678 L258.617645,93.1884766 C266.86969,94.5339356 273.385956,101.314865 274.65741,109.887772 L291.003571,109.855286 Z M219.63736,195.939087 C185.552444,182.189697 161.554443,149.382324 161.554443,111.079956 C161.554443,90.151657 168.730606,70.8706817 180.788422,55.4320983 C155.689865,66.0773162 122.264465,86.2836455 67.0507965,124.643768 C58.3134499,130.714844 31.8893967,137.783539 38.119648,143.624634 C42.8108368,148.022583 68.0254822,144.797424 86.7898483,150.661224 C153.691742,171.567779 183.704071,188.908966 219.63736,195.939087 Z M445.659302,124.86026 C394.154694,87.8739929 358.883087,66.9594116 330.093842,55.5932007 C342.074951,71.0045929 349.198456,90.2252655 349.198456,111.079956 C349.198456,148.111053 326.761841,179.996796 294.470673,194.499664 C337.635712,184.559784 380.607513,161.711273 421.617432,150.368164 C449.633423,142.616669 460.612213,148.90213 472.9263,142.745087 C477.892334,140.262054 452.799042,129.98526 445.659302,124.86026 Z" id="Shape"/>
  </g>
</svg>
