<?xml version="1.0" encoding="UTF-8" standalone="no"?>
<svg xmlns="http://www.w3.org/2000/svg" xmlns:xlink="http://www.w3.org/1999/xlink" width="375px" height="150px" viewBox="0 0 375 150" version="1.1">
  <defs/>
  <g fill="#000000" id="layer1">
      <path d="M134.397364,63.4450791 L96.0678706,84.6544744 C94.6335643,85.4479154 93.74857,86.9127368 93.74857,88.4996267 L93.74857,130.948932 C93.74857,132.535822 94.6335643,134.000644 96.0678706,134.794085 L134.397364,156.033995 C135.83167,156.796929 137.601659,156.796929 139.035965,156.033995 L177.365459,134.794085 C178.799765,134.000644 179.684759,132.535822 179.684759,130.948932 L179.684759,88.4996267 C179.684759,86.9127368 178.799765,85.4479154 177.365459,84.6544744 L139.035965,63.4450791 C138.303554,63.0483586 137.510113,62.865252 136.716665,62.865252 C135.923224,62.865252 135.129775,63.0483586 134.397364,63.4450791" id="Shape"></path>
      <path d="M331.629465,101.652504 L325.25139,105.192489 C325.007254,105.314558 324.885185,105.558695 324.885185,105.833347 L324.885185,112.913317 C324.885185,113.187969 325.007254,113.432106 325.25139,113.554174 L331.629465,117.094159 C331.873602,117.216228 332.178769,117.216228 332.422906,117.094159 L338.800988,113.554174 C339.045125,113.432106 339.197709,113.187969 339.197709,112.913317 L339.197709,105.833347 C339.197709,105.558695 339.045125,105.314558 338.800988,105.192489 L332.422906,101.652504 C332.300838,101.591466 332.148254,101.560951 332.026186,101.560951 C331.904117,101.560951 331.751533,101.591466 331.629465,101.652504" id="Shape"></path>
      <path d="M279.292615,18.4628512 L260.646657,8.05651774 C260.036315,7.72082755 259.334427,7.72082755 258.7546,8.0870329 C258.174773,8.42272309 257.808568,9.03306534 257.808568,9.70444573 L257.808568,72.6307281 L240.596916,63.0788738 C239.864505,62.6821533 239.071064,62.4990467 238.277616,62.4990467 C237.484174,62.4990467 236.690726,62.6821533 235.958315,63.0788738 L197.628821,84.288269 C196.194515,85.08171 195.309521,86.5465315 195.309521,88.1334213 L195.309521,130.582727 C195.309521,132.169617 196.194515,133.634438 197.628821,134.427879 L235.958315,155.66779 C237.392621,156.430723 239.16261,156.430723 240.596916,155.66779 L278.92641,134.427879 C280.360716,133.634438 281.24571,132.169617 281.24571,130.582727 L281.24571,21.7892223 C281.24571,20.4159464 280.482784,19.1342316 279.292615,18.4628512 Z M256.77099,120.756213 L239.345716,130.39962 C238.704859,130.765826 237.880895,130.765826 237.240038,130.39962 L219.814764,120.756213 C219.143384,120.390007 218.746663,119.718635 218.746663,119.016739 L218.746663,99.7299241 C218.746663,98.9975134 219.143384,98.3261408 219.814764,97.9599355 L237.240038,88.3165279 L237.209515,88.3165279 C237.545205,88.1334213 237.91141,88.072391 238.277616,88.072391 C238.643821,88.072391 239.010026,88.1639365 239.345716,88.3165279 L256.740467,97.9599355 C257.411847,98.3261408 257.808568,98.9975134 257.808568,99.7299241 L257.808568,119.016739 C257.808568,119.718635 257.411847,120.390007 256.77099,120.756213 Z" id="Shape"></path>
      <path d="M372.67498,84.288269 L334.345486,63.0788738 C333.613075,62.6821533 332.819634,62.4990467 332.026186,62.4990467 C331.232745,62.4990467 330.439296,62.6821533 329.706885,63.0788738 L291.377391,84.288269 C289.943085,85.08171 289.058091,86.6075696 289.058091,88.2249746 L289.058091,130.491174 C289.058091,132.139102 289.943085,133.634438 291.377391,134.427879 L329.706885,155.66779 C331.171706,156.461238 332.91118,156.461238 334.345486,155.66779 L352.045411,145.871798 C353.662816,144.986804 353.632301,142.667504 352.014896,141.751986 L313.563334,120.786736 C312.891954,120.390007 312.495233,119.718635 312.495233,118.986224 L312.495233,99.7299241 C312.495233,98.9975134 312.891954,98.356656 313.502296,97.9904506 L330.958085,88.347043 C331.293775,88.1639365 331.65998,88.072391 332.026186,88.072391 C332.392391,88.072391 332.758596,88.1639365 333.063771,88.347043 L350.51956,98.0209658 C351.160417,98.356656 351.557138,99.0280286 351.557138,99.7299241 L351.557138,115.446239 C351.557138,116.117612 351.923343,116.758477 352.50317,117.094159 C353.082997,117.399334 353.784885,117.399334 354.395227,117.063644 L373.132738,106.199552 C374.261869,105.528179 374.99428,104.276972 374.99428,102.934219 L374.99428,88.2554898 C374.99428,86.6075696 374.109286,85.08171 372.67498,84.288269 Z" id="Shape"></path>
      <path d="M83.6168886,84.288269 L45.2873952,63.0788738 C44.5549845,62.6821533 43.7615434,62.4990467 42.9680946,62.4990467 C42.1746536,62.4990467 41.3812047,62.6821533 40.648794,63.0788738 L2.31930056,84.288269 C0.884994313,85.08171 0,86.6075696 0,88.2249746 L0,146.543179 C0,147.214551 0.366205352,147.855409 0.946032445,148.191099 C1.52585954,148.526789 2.25827024,148.526789 2.83808952,148.191099 L21.5756006,137.296492 C22.735247,136.625111 23.4371425,135.373912 23.4371425,134.031159 L23.4371425,99.7299241 C23.4371425,98.9975134 23.833863,98.3261408 24.4442053,97.9904506 L41.8999937,88.347043 C42.2356839,88.1639365 42.6018892,88.072391 42.9680946,88.072391 C43.3343,88.072391 43.7005053,88.1639365 44.0361955,88.347043 L61.4919839,97.9904506 C62.1023262,98.356656 62.4990467,98.9975134 62.4990467,99.7299241 L62.4990467,134.031159 C62.4990467,135.373912 63.2009422,136.625111 64.3605886,137.296492 L83.0980997,148.191099 C83.7084419,148.526789 84.4103375,148.526789 84.9901568,148.191099 C85.5699838,147.855409 85.9361892,147.214551 85.9361892,146.543179 L85.9361892,88.2554898 C85.9361892,86.6075696 85.0511949,85.08171 83.6168886,84.288269 Z" id="Shape"></path>
  </g>
</svg>
