<?xml version="1.0" encoding="UTF-8"?>
<svg xmlns="http://www.w3.org/2000/svg" xmlns:xlink="http://www.w3.org/1999/xlink" width="524px" height="205px" viewBox="0 0 524 205" version="1.1">
  <defs/>
  <g fill="#000000" id="layer1">
    <path d="M261,116 L234,116 L234,58 L261,58 L261,116 Z M320.5,145 L379,145 L379,58 L407.5,58 L407.5,145 L436.5,146 L436.5,58 L467,58 L467,145 L496,145 L496,29 L320.5,29 L320.5,145 Z M174.5,174 L234,174 L234,145.5 L291,145.5 L291,87.5 L292,29 L174.5,29 L174.5,174 Z M28.5,145.5 L88.5,145.5 L88.5,58 L116.5,58 L116.5,145 L146.5,145 L146.5,29 L28.5,29 L28.5,145.5 Z M524,174 L263.5,174 L263.5,204.5 L146.5,204.5 L146.5,174.5 L0,174.5 L0,0 L524,0 L524,174 Z" id="Shape"/>
  </g>
</svg>
