<?xml version="1.0" encoding="UTF-8"?>
<svg xmlns="http://www.w3.org/2000/svg" xmlns:xlink="http://www.w3.org/1999/xlink" width="28px" height="29px" viewBox="0 0 28 29" version="1.1">
  <defs/>
  <g id="layer1" fill="#000000">
    <path d="M4.142,0.724 L24.175,0.724 C25.1409998,0.723734652 26.0675109,1.10735905 26.7505759,1.79042407 C27.4336409,2.47348909 27.8172653,3.40000022 27.817,4.366 L27.817,24.399 C27.8172653,25.3649998 27.4336409,26.2915109 26.7505759,26.9745759 C26.0675109,27.6576409 25.1409998,28.0412653 24.175,28.041 L4.142,28.041 C3.17600022,28.0412653 2.24948909,27.6576409 1.56642407,26.9745759 C0.883359053,26.2915109 0.499734652,25.3649998 0.5,24.399 L0.5,4.366 C0.499734652,3.40000022 0.883359053,2.47348909 1.56642407,1.79042407 C2.24948909,1.10735905 3.17600022,0.723734652 4.142,0.724 Z M4.97575135,1.79999936 C4.08037068,1.79975341 3.22159185,2.15533308 2.58846208,2.78846285 C1.95533231,3.42159261 1.59975265,4.28037145 1.5999986,5.17575212 L1.5999986,23.7442461 C1.59975265,24.6396267 1.95533231,25.4984056 2.58846208,26.1315353 C3.22159185,26.7646651 4.08037068,27.1202448 4.97575135,27.1199988 L23.5442453,27.1199988 C24.439626,27.1202448 25.2984048,26.7646651 25.9315346,26.1315353 C26.5646643,25.4984056 26.920244,24.6396267 26.919998,23.7442461 L26.919998,5.17575212 C26.920244,4.28037145 26.5646643,3.42159261 25.9315346,2.78846285 C25.2984048,2.15533308 24.439626,1.79975341 23.5442453,1.79999936 L4.97575135,1.79999936 Z" id="Combined-Shape"></path>
    <path d="M14.1599998,7.91900015 C17.7305205,7.91900015 20.6249995,10.8134791 20.6249995,14.3839998 C20.6249995,17.9545205 17.7305205,20.8489995 14.1599998,20.8489995 C10.5894791,20.8489995 7.69500015,17.9545205 7.69500015,14.3839998 C7.6940578,12.6690866 8.37488713,11.024141 9.58751408,9.81151408 C10.800141,8.59888713 12.4450866,7.9180578 14.1599998,7.91900015 Z M14.2500004,9.20000156 C12.8573795,9.19923631 11.5215769,9.75211394 10.536845,10.7368458 C9.55211317,11.7215776 8.99923555,13.0573802 9.00000079,14.4500012 C9.00000079,17.3494959 11.3505057,19.7000008 14.2500004,19.7000008 C17.1494951,19.7000008 19.5,17.3494959 19.5,14.4500012 C19.5,11.5505064 17.1494951,9.20000156 14.2500004,9.20000156 Z" id="Combined-Shape"></path>
    <path d="M10.516,23.489 C10.5179097,23.4633229 10.5383229,23.4429097 10.564,23.441 L10.636,23.441 L11.69,24.4 L11.69,23.489 L12.049,23.489 C12.0746771,23.4909097 12.0950903,23.5113229 12.097,23.537 L12.097,25.358 C12.0950903,25.3836771 12.0746771,25.4040903 12.049,25.406 L11.998,25.406 L10.944,24.352 L10.944,25.334 C10.9420903,25.3596771 10.9216771,25.3800903 10.896,25.382 L10.561,25.382 C10.513,25.406 10.461,25.382 10.461,25.334 C10.437,25.286 10.461,25.234 10.509,25.234 L10.516,23.489 Z" id="Pfad_36" fill-opacity="0.25" fill-rule="nonzero"></path>
    <path d="M12.889,23.489 L13.248,23.489 C13.2736771,23.4909097 13.2940903,23.5113229 13.296,23.537 L13.296,24.615 C13.296,24.8002915 13.4462085,24.9505 13.6315,24.9505 C13.8167915,24.9505 13.967,24.8002915 13.967,24.615 L13.967,23.489 C13.9754984,23.4776687 13.9888359,23.471 14.003,23.471 C14.0171641,23.471 14.0305016,23.4776687 14.039,23.489 L14.374,23.489 C14.3996771,23.4909097 14.4200903,23.5113229 14.422,23.537 L14.422,24.637 C14.4219999,25.0606024 14.0786024,25.4039999 13.655,25.4039999 C13.2313976,25.4039999 12.8880001,25.0606024 12.888,24.637 L12.888,23.487 L12.889,23.489 Z" id="Pfad_37" fill-opacity="0.25" fill-rule="nonzero"></path>
    <path d="M15.189,23.489 L15.572,23.489 C15.6107081,23.4914416 15.6415584,23.5222919 15.644,23.561 L15.644,24.256 L16.244,23.489 L16.627,23.489 C16.651,23.489 16.699,23.513 16.675,23.561 L16.675,23.589 L16.004,24.308 L16.675,25.219 C16.6906228,25.2334971 16.6972126,25.255293 16.6922388,25.2760173 C16.6872649,25.2967416 16.6715007,25.3131725 16.651,25.319 L16.196,25.319 L15.596,24.48 L15.596,25.271 C15.5935584,25.3097081 15.5627081,25.3405584 15.524,25.343 L15.26,25.343 C15.2212919,25.3405584 15.1904416,25.3097081 15.188,25.271 L15.189,23.489 Z" id="Pfad_38" fill-opacity="0.25" fill-rule="nonzero"></path>
    <path d="M17.322,23.489 L17.681,23.489 C17.7066771,23.4909097 17.7270903,23.5113229 17.729,23.537 L17.729,25.289 C17.7270903,25.3146771 17.7066771,25.3350903 17.681,25.337 L17.369,25.337 C17.3437135,25.3346248 17.3238424,25.3143309 17.322,25.289 L17.322,23.489 Z" id="Pfad_39" fill-opacity="0.25" fill-rule="nonzero"></path>
    <path d="M17.25,22.363 C17.25,22.2171968 17.3681968,22.099 17.514,22.099 C17.6598032,22.099 17.778,22.2171968 17.778,22.363 C17.778,22.5088032 17.6598032,22.627 17.514,22.627 C17.3686502,22.6259112 17.2510888,22.5083498 17.25,22.363 Z" id="Pfad_40" fill-opacity="0.25" fill-rule="nonzero"></path>
    <circle id="Ellipse_3" fill-opacity="0.25" fill-rule="nonzero" cx="14.159" cy="5.037" r="1"></circle>
  </g>
</svg>
