<?xml version="1.0" encoding="UTF-8"?>
<svg xmlns="http://www.w3.org/2000/svg" xmlns:xlink="http://www.w3.org/1999/xlink" width="30px" height="52px" viewBox="0 0 30 52" version="1.1">
  <defs/>
  <g id="layer1" fill="#000000">
    <path d="M14.4072076,0.500026042 C7.69435801,0.524557854 2.26072148,5.96614433 2.247,12.68 C2.24736004,13.4103503 2.31202661,14.1256477 2.43564258,14.8205401 C1.23890456,16.070788 0.502932491,17.7655356 0.5,19.632 L0.5,46.568 C0.501654127,48.4903699 2.05963008,50.0483459 3.982,50.05 L24.836,50.05 C26.7583699,50.0483459 28.3163459,48.4903699 28.318,46.568 L28.318,19.619 C28.3100677,17.7692163 27.5830715,16.0894434 26.4020431,14.8447131 C26.5291672,14.1384132 26.5953632,13.410962 26.594997,12.667999 C26.5916845,5.94635411 21.1415437,0.499715045 14.420605,0.499998501 C20.5810615,0.500278919 25.576534,5.83128616 25.5795703,12.4101504 C25.5799059,13.1373694 25.5192259,13.8494054 25.4026947,14.5407383 C26.4853111,15.7590919 27.1517287,17.4032692 27.159,19.2138547 L27.159,45.5917861 C27.1574837,47.4734196 25.7293297,48.9983809 23.9671458,49 L4.8508542,49 C3.08867025,48.9983809 1.66051629,47.4734196 1.659,45.5917861 L1.659,19.2265792 C1.66168813,17.3996665 2.3363336,15.7408319 3.43335063,14.5170776 C3.32003525,13.8369104 3.26075718,13.1367707 3.26042713,12.421897 C3.27300514,5.85036596 8.25379069,0.524123608 14.4072076,0.500026042 Z" id="Combined-Shape"></path>
    <path d="M14.415,0.5 C21.1385133,0.496687109 26.5916836,5.94448567 26.594997,12.667999 C26.5983105,19.3915124 21.1505124,24.8446831 14.426999,24.847997 C7.70348567,24.851311 2.25031452,19.4035133 2.247,12.68 C2.26072679,5.96354668 7.69856347,0.520347242 14.415,0.5 Z M14.4197396,2.00000132 C8.53030595,2.01784319 3.7620366,6.79081497 3.75,12.6802634 C3.7529064,18.5759025 8.53462207,23.3529063 14.4302612,23.3500004 C20.3259003,23.3470945 25.1029045,18.5653792 25.0999991,12.6697401 C25.0970936,6.77410097 20.3153787,1.99709635 14.4197396,2.00000132 Z" id="Combined-Shape" fill-rule="nonzero"></path>
    <path d="M14.415,19.619 C10.5760687,19.619 7.464,16.5069313 7.464,12.668 C7.464,8.8290687 10.5760687,5.717 14.415,5.717 C18.2539313,5.717 21.366,8.8290687 21.366,12.668 C21.366,16.5069313 18.2539313,19.619 14.415,19.619 Z M14.4499998,18.1499996 C17.4599516,18.1499996 19.8999996,15.7099516 19.8999996,12.6999998 C19.8999996,9.69004803 17.4599516,7.25 14.4499998,7.25 C11.440048,7.25 9,9.69004803 9,12.6999998 C9,15.7099516 11.440048,18.1499996 14.4499998,18.1499996 Z" id="Combined-Shape" fill-rule="nonzero"></path>
    <path d="M10.9300003,44.86 C10.9314884,44.8330262 10.9530265,44.8114881 10.9800003,44.81 L11.0420003,44.81 L12.0580003,45.789 L12.0580003,44.889 C12.0594884,44.8620262 12.0810265,44.8404881 12.1080003,44.839 L12.4180003,44.839 C12.4449741,44.8404881 12.4665122,44.8620262 12.4680003,44.889 L12.4680003,46.599 C12.4665122,46.6259738 12.4449741,46.6475119 12.4180003,46.649 L12.3800003,46.649 C12.3680003,46.649 12.3550003,46.637 12.3430003,46.637 L11.3430003,45.637 L11.3430003,46.579 C11.3415122,46.6059738 11.3199741,46.6275119 11.2930003,46.629 L10.9930003,46.629 C10.9660265,46.6275119 10.9444884,46.6059738 10.9430003,46.579 L10.9300003,44.86 Z" id="Pfad_23_1_" fill-opacity="0.25" fill-rule="nonzero"></path>
    <path d="M13.201,44.885 C13.2024881,44.8580262 13.2240262,44.8364881 13.251,44.835 L13.561,44.835 C13.5879738,44.8364881 13.6095119,44.8580262 13.611,44.885 L13.611,45.913 C13.6082082,46.0873169 13.7467028,46.2311726 13.921,46.235 C14.0037861,46.2390691 14.0847,46.2094906 14.1453444,46.1529896 C14.2059888,46.0964887 14.24121,46.0178667 14.243,45.935 L14.243,44.885 C14.2444881,44.8580262 14.2660262,44.8364881 14.293,44.835 L14.603,44.835 C14.6299738,44.8364881 14.6515119,44.8580262 14.653,44.885 L14.653,45.935 C14.653,46.3354064 14.3284064,46.66 13.928,46.66 C13.5275936,46.66 13.203,46.3354064 13.203,45.935 L13.201,44.885 Z" id="Pfad_24_1_" fill-opacity="0.25" fill-rule="nonzero"></path>
    <path d="M15.394,44.897 C15.3910674,44.8661853 15.4132635,44.8386621 15.444,44.835 L15.754,44.835 C15.7848147,44.8320674 15.8123379,44.8542635 15.816,44.885 L15.816,45.567 L16.374,44.861 C16.3859539,44.8454435 16.4043825,44.8362292 16.424,44.836 L16.746,44.836 C16.7833548,44.8396957 16.8109025,44.8725752 16.808,44.91 C16.808,44.922 16.808,44.935 16.796,44.935 L16.201,45.678 L16.845,46.521 C16.856458,46.5349763 16.8603185,46.5536898 16.8553272,46.5710595 C16.8503359,46.5884293 16.8371298,46.6022386 16.82,46.608 C16.8105701,46.6091294 16.8017795,46.6133489 16.795,46.62 L16.448,46.62 C16.436,46.62 16.411,46.608 16.398,46.608 L15.816,45.815 L15.816,46.571 C15.8189326,46.6018147 15.7967365,46.6293379 15.766,46.633 L15.456,46.633 C15.4251853,46.6359326 15.3976621,46.6137365 15.394,46.583 L15.394,44.898 L15.394,44.897 Z" id="Pfad_25_1_" fill-opacity="0.25" fill-rule="nonzero"></path>
    <path d="M17.426,44.885 C17.4274881,44.8580262 17.4490262,44.8364881 17.476,44.835 L17.786,44.835 C17.8129738,44.8364881 17.8345119,44.8580262 17.836,44.885 L17.836,46.57 C17.8345119,46.5969738 17.8129738,46.6185119 17.786,46.62 L17.476,46.62 C17.4490262,46.6185119 17.4274881,46.5969738 17.426,46.57 L17.426,44.885 Z" id="Pfad_26_1_" fill-opacity="0.25" fill-rule="nonzero"></path>
    <path d="M17.364,43.806 C17.364,43.662406 17.480406,43.546 17.624,43.546 C17.767594,43.546 17.884,43.662406 17.884,43.806 C17.884,43.949594 17.767594,44.066 17.624,44.066 C17.5545478,44.0676609 17.4874464,44.0408019 17.4383223,43.9916777 C17.3891981,43.9425536 17.3623391,43.8754522 17.364,43.806 Z" id="Pfad_27_1_" fill-opacity="0.25" fill-rule="nonzero"></path>
  </g>
</svg>
