<?xml version="1.0" encoding="UTF-8" standalone="no"?>
<svg
   xmlns:dc="http://purl.org/dc/elements/1.1/"
   xmlns:cc="http://creativecommons.org/ns#"
   xmlns:rdf="http://www.w3.org/1999/02/22-rdf-syntax-ns#"
   xmlns:svg="http://www.w3.org/2000/svg"
   xmlns="http://www.w3.org/2000/svg"
   height="585"
   width="585"
   xml:space="preserve"
   viewBox="0 0 584.99999 584.99999"
   y="0px"
   x="0px"
   id="Capa_1"
   version="1.1"><metadata
   id="metadata4652"><rdf:RDF><cc:Work
       rdf:about=""><dc:format>image/svg+xml</dc:format><dc:type
         rdf:resource="http://purl.org/dc/dcmitype/StillImage" /><dc:title></dc:title></cc:Work></rdf:RDF></metadata><defs
   id="defs4650" />

<g
   transform="translate(0,528.502)"
   id="g4617">
</g>
<g
   transform="translate(0,528.502)"
   id="g4619">
</g>
<g
   transform="translate(0,528.502)"
   id="g4621">
</g>
<g
   transform="translate(0,528.502)"
   id="g4623">
</g>
<g
   transform="translate(0,528.502)"
   id="g4625">
</g>
<g
   transform="translate(0,528.502)"
   id="g4627">
</g>
<g
   transform="translate(0,528.502)"
   id="g4629">
</g>
<g
   transform="translate(0,528.502)"
   id="g4631">
</g>
<g
   transform="translate(0,528.502)"
   id="g4633">
</g>
<g
   transform="translate(0,528.502)"
   id="g4635">
</g>
<g
   transform="translate(0,528.502)"
   id="g4637">
</g>
<g
   transform="translate(0,528.502)"
   id="g4639">
</g>
<g
   transform="translate(0,528.502)"
   id="g4641">
</g>
<g
   transform="translate(0,528.502)"
   id="g4643">
</g>
<g
   transform="translate(0,528.502)"
   id="g4645">
</g>
<path
   id="path5208"
   d="m 66.47512,563.75594 c -6.92589,-4.03396 -7.26188,-20.88987 -0.60582,-30.39273 3.79695,-5.42092 7.96706,-6.9656 18.80468,-6.9656 h 13.9258 V 463.71534 401.03306 H 85.92086 c -9.28274,0 -14.7395,-2.06059 -20.37173,-7.69284 -8.96426,-8.96427 -9.50745,-13.39462 -2.81393,-22.95093 3.92284,-5.60066 7.91474,-6.9656 20.37173,-6.9656 h 15.49285 v -64.02381 -64.02382 l -17.48649,-2.18478 c -9.61758,-1.20165 -17.96189,-3.77124 -18.54291,-5.71023 -5.04637,-16.84051 -4.60978,-21.15226 2.90244,-28.66448 5.70882,-5.70883 11.13147,-7.76915 20.44804,-7.76915 h 12.67892 v -63.914 c 0,-69.952907 0.62886,-67.718771 -19.06102,-67.718771 -20.2817,0 -29.23892,-24.942268 -13.42452,-37.381886 8.17489,-6.430362 10.45462,-6.495706 226.62423,-6.495706 179.08248,0 219.41418,0.766204 224.19088,4.259084 4.0804,2.983648 5.6911,7.81112 5.3788,16.12054 -0.6232,16.576654 -7.8675,23.497968 -24.5946,23.497968 h -13.6178 v 61.115221 61.11521 h 9.1983 c 21.3771,0 34.6815,12.85487 27.5715,26.63998 -4.6791,9.07214 -8.5343,10.86767 -23.4498,10.92141 l -13.32,0.0479 v 65.81638 65.81639 h 15.0438 c 18.1133,0 22.5656,3.79886 22.5656,19.25381 0,14.35634 -8.5543,21.48968 -25.7703,21.48968 h -11.8391 l -0.6268,53.27993 c -0.3447,29.30395 -0.6973,58.56875 -0.7835,65.03286 l -0.1568,11.75293 16.7938,1.68609 c 18.631,1.87052 25.5167,7.85889 25.5167,22.19131 0,5.53169 -2.9313,10.88161 -8.2579,15.07154 -8.1775,6.43239 -10.3846,6.49477 -226.43974,6.4004 -142.35557,-0.0622 -220.08789,-1.20554 -223.66646,-3.28985 z m 278.7254,-70.28581 c 53.70993,-12.45616 73.31103,-38.191 75.62453,-99.28921 2.6806,-70.79313 -22.101,-144.78445 -83.01243,-247.85358 C 305.43,91.532309 299.16696,83.094722 294.58918,88.096542 289.6009,93.546898 218.51757,217.65228 205.10551,244.32736 c -13.02638,25.908 -23.05745,55.38888 -30.07677,88.39433 -6.90608,32.47297 -7.80904,95.84691 -1.61551,113.38214 9.32094,26.38952 35.88949,45.27287 73.05914,51.92611 21.26971,3.80719 72.94044,1.42075 98.72815,-4.55981 z"
   style="fill:#000000;fill-opacity:1;stroke-width:3.13411379" /><path
   id="path5210"
   d="m 307.79371,457.89224 c -2.3564,-9.01085 2.92915,-15.50506 19.42102,-23.86214 27.99056,-14.18388 41.78881,-37.53477 52.83382,-89.41109 2.8823,-13.53735 3.0179,-13.092 3.3792,11.09445 0.6956,46.56585 -17.087,88.25812 -43.3608,101.66201 -15.96893,8.14674 -30.2183,8.37491 -32.27324,0.51677 z"
   style="fill:#000000;fill-opacity:1;stroke-width:3.13411379" /></svg>