<?xml version="1.0" encoding="UTF-8" standalone="no"?>
<!-- Created with Inkscape (http://www.inkscape.org/) -->

<svg
   xmlns:dc="http://purl.org/dc/elements/1.1/"
   xmlns:cc="http://creativecommons.org/ns#"
   xmlns:rdf="http://www.w3.org/1999/02/22-rdf-syntax-ns#"
   xmlns:svg="http://www.w3.org/2000/svg"
   xmlns="http://www.w3.org/2000/svg"
   version="1.0"
   width="468pt"
   height="467pt"
   viewBox="0 0 468 467"
   id="svg2">
  <defs
     id="defs14" />
  <metadata
     id="metadata4">
Created by potrace 1.8, written by Peter Selinger 2001-2007
<rdf:RDF>
  <cc:Work
     rdf:about="">
    <dc:format>image/svg+xml</dc:format>
    <dc:type
       rdf:resource="http://purl.org/dc/dcmitype/StillImage" />
    <dc:title></dc:title>
  </cc:Work>
</rdf:RDF>
</metadata>
  <g
     transform="matrix(0.157576,0,0,-0.157576,0,467)"
     id="g6"
     style="fill:#000000;stroke:none">
    <g
       transform="matrix(72.851224,0,0,-72.504503,117.06183,2858.6956)"
       id="g2995">
      <path
         d="m 25.440944,7.0157481 c 3.153543,0 5.704724,2.5511811 5.704724,5.7047249 0,3.153543 -2.551181,5.704724 -5.704724,5.704724 -3.153543,0 -5.704724,-2.551181 -5.704724,-5.704724 0,-3.1535438 2.551181,-5.7047249 5.704724,-5.7047249 z M 19.73622,26.397638 c -0.744095,0.389764 -2.267717,3.437008 -2.267717,3.437008 0,0 -0.779527,1.133858 -1.133858,5.704724 l -3.437008,-1.169291 1.133859,-5.704724 c 0,0 2.303149,-7.972441 6.874015,-7.972441 l 9.106299,0 c 4.570866,0 6.838583,7.972441 6.838583,7.972441 l 1.133858,5.704724 -3.401575,1.169291 c -0.389764,-4.570866 -1.133858,-5.704724 -1.133858,-5.704724 0,0 -1.523622,-3.047244 -2.30315,-3.437008 l 0.46063,10.346457 c -1.73622,0.708661 -3.614173,1.062992 -5.598425,1.062992 -2.374015,0 -4.677165,-0.566929 -6.69685,-1.523622 L 19.73622,26.397638 z M 7.0157478,0 l 0,4.003937 c 0,1.6653544 -1.3464566,3.0118111 -3.0118109,3.0118111 L 0,7.0157481 0,0 7.0157478,0 z m -2.5157479,12.011811 -0.496063,-0.03543 0,-1.9842519 0.496063,0 c 3.047244,0 5.4921258,-2.4448819 5.4921258,-5.4921261 l 0,-0.496063 1.9842523,0 0.03543,0.49606 c 0,4.1456694 -3.366142,7.511811 -7.5118111,7.511811 z M 17.007873,4.996063 c 0,6.625984 -5.385826,12.011811 -12.0118102,12.011811 l -0.9921259,-0.03543 0,-2.019685 0.9921259,0.07087 c 5.5275592,0 9.9921262,-4.5 9.9921262,-10.027559 l -0.03543,-0.992126 2.019685,0 0.03543,0.992126 z m 4.996063,0 0,0.6377953 C 21.188976,5.988189 20.480314,6.448819 19.877952,7.0511812 19.948818,6.3779528 19.984251,5.7047245 19.984251,4.996063 l 0,-0.992126 1.984252,0 0.03543,0.992126 z m -17.0078732,17.007874 -0.9921259,-0.03543 0,-1.984252 0.9921259,0.03543 c 5.2440942,0 9.8503932,-2.692913 12.5433072,-6.767716 0.07087,0.850393 0.318897,1.700787 0.673228,2.444882 -3.11811,3.862204 -7.866142,6.307086 -13.2165352,6.307086 z"
         id="path2997"
         style="fill:#000000;fill-opacity:1;fill-rule:nonzero;stroke:none" />
    </g>
  </g>
</svg>
