<?xml version="1.0" encoding="UTF-8"?>
<svg xmlns="http://www.w3.org/2000/svg" xmlns:xlink="http://www.w3.org/1999/xlink" width="290px" height="347px" viewBox="0 0 290 347" version="1.1">
  <defs/>
  <g fill="#000000" id="layer1">
    <path d="M122.30545,74.6417999 C112.010803,102.094192 91.5228271,106.892334 81.1770629,116.70697 C-30.6528779,184.697174 -4.9111176,262.482086 29.16333,301.907104 C55.5236205,332.406616 106.82309,350.899475 111.607696,342.484345 C114.284454,335.23056 91.2926025,329.611176 82.5932312,322.900452 C32.6381683,284.36499 15.7142487,229.981293 48.6207581,180.965637 C81.6550599,134.342529 126.597046,104.128159 129.536713,77.1658935 C130.866913,66.7294464 132.611359,51.6726379 132.75473,31.3012847 C132.75473,26.6504058 125.67392,21.1547088 125.251556,23.5846404 C125.739624,45.6779327 124.543854,68.672699 122.30545,74.6417999 Z M135.28009,83.7146912 C125.476532,146.084534 66.1585388,167.349457 66.3523559,227.910614 C64.8869628,278.622711 122.309448,340.851502 134.853149,331.910828 C138.246094,317.072998 98.6155701,294.379486 94.4637451,232.006165 C90.9970703,179.92572 137.22821,143.84613 140.348816,113.727509 C143.951355,98.9348145 144.782867,18.774704 142.576691,10.0067444 C141.189758,7.00177 138.270111,1.5323334 135.921448,0.78302 C133.843842,13.2556915 137.434326,61.5181274 135.28009,83.7146912 Z M202.154846,342.38443 C267.818543,315.466675 297.021668,266.257324 288.577972,209.361572 C282.118988,165.839325 236.110046,137.745026 202.154907,116.525299 C163.090912,91.5882873 158.376556,91.383316 158.225708,41.5477905 C157.862335,37.4237671 147.552307,37.9596252 147.552307,37.9596252 C156.075073,89.1810455 148.641693,117.707367 142.329071,141.233215 C122.923035,213.555511 119.413422,272.310699 146.835541,327.687042 C189.644409,333.365204 179.944611,354.630157 202.154846,342.38443 Z" id="Shape"/>
  </g>
</svg>
