<?xml version="1.0" encoding="UTF-8"?>
<svg xmlns="http://www.w3.org/2000/svg" xmlns:xlink="http://www.w3.org/1999/xlink" width="512px" height="368px" viewBox="0 0 512 368" version="1.1">
  <defs/>
  <g fill="#000000" id="layer1">
    <path d="M244.397156,151.134399 C243.90152,144.561554 244.414703,137.669891 244.911194,131.004807 C245.843613,118.482346 246.724564,106.654099 241.648529,96.3693542 C241.622223,96.3161773 241.597611,96.2621307 241.574692,96.2075347 L236.791458,84.8163756 L232.739792,91.6333617 L235.701447,92.2135924 L234.579483,97.941696 L227.554565,96.5656889 C226.623261,96.3832243 225.838791,95.7594297 225.451218,94.8931883 C225.063934,94.0269621 225.121918,93.0263518 225.606812,92.2104796 L234.731964,76.8570403 C235.294647,75.909912 236.342499,75.3605193 237.442963,75.4366149 C238.542313,75.5130004 239.505005,76.2021331 239.931625,77.2183074 L246.922867,93.8671264 C252.659195,105.55986 251.67952,118.715454 250.732086,131.438492 C250.22966,138.185898 249.754959,144.559006 250.217499,150.695343 L244.397156,151.134399 Z M270.101532,130.945404 C269.149292,118.443863 268.249695,106.635712 273.316956,96.3693543 C273.342987,96.3161774 273.36731,96.2621308 273.390503,96.2075348 L278.173737,84.8163757 L282.225403,91.6333618 L279.263458,92.2135925 L280.386017,97.9416961 L287.410919,96.565689 C288.342224,96.3832244 289.126404,95.7594298 289.513977,94.8931884 C289.90155,94.0269622 289.843262,93.0263519 289.358399,92.2104797 L280.233246,76.8570404 C279.670838,75.9096222 278.613373,75.3593903 277.522522,75.436615 C276.422607,75.5130005 275.460175,76.2021332 275.033569,77.2183075 L268.042603,93.8671265 C262.312805,105.54628 263.31369,118.683487 264.281769,131.388702 C264.797211,138.153915 265.283783,144.544296 264.819824,150.695343 L270.640747,151.134399 C271.137512,144.541748 270.610748,137.629715 270.101532,130.945404 Z M201.009903,167.997025 C191.739914,167.997025 184.208008,175.528885 184.208008,184.798889 C184.208008,194.068878 191.739914,201.600738 201.009903,201.600738 C210.279862,201.600738 217.739349,194.068878 217.739349,184.798889 C217.739349,175.528885 210.279862,167.997025 201.009903,167.997025 Z M312.249847,166.258926 C302.90744,166.258926 295.447937,173.718353 295.447937,182.988342 C295.447937,192.185913 302.90744,199.717774 312.249847,199.717774 C321.519806,199.717774 328.979279,192.185913 328.979279,182.988342 C328.979279,173.718353 321.519806,166.258926 312.249847,166.258926 Z M254.373276,326.405426 L242.855377,307.30246 L242.855377,286.343689 L237.854309,286.343689 L237.854309,307.997833 C237.854309,308.452728 237.9785,308.89914 238.213577,309.288971 L250.090759,328.987702 L254.373276,326.405426 Z M280.807526,326.477844 L269.289063,307.374878 L269.289063,286.343689 L264.288544,286.343689 L264.288544,308.070251 C264.288544,308.525146 264.412476,308.971558 264.647278,309.361389 L276.524445,329.06012 L280.807526,326.477844 Z M463.341705,188.356964 C446.589783,200.626984 427.916534,208.020172 409.29068,210.738007 C414.342743,213.254486 419.275024,216.240753 424.016601,219.715607 C464.065918,249.046448 475.436096,301.84198 449.291809,337.473511 C423.147583,373.17749 369.482971,378.247009 329.361267,348.916168 C305.606293,331.47583 291.942108,305.831177 290.210571,280.415131 C280.224335,283.766602 269.253479,285.619476 257.736084,285.619476 C247.190536,285.619476 237.105118,284.062958 227.812073,281.228333 C225.631912,306.138001 212.03009,331.077332 188.718063,348.119537 C148.596374,377.522797 94.9318008,372.453247 68.7875213,336.749298 C42.71566,301.117767 54.0858878,248.394653 94.2075805,219.063812 C100.419418,214.503235 106.96093,210.773682 113.677032,207.857147 C91.5997924,206.650452 68.95195,198.905335 49.0163574,184.301331 C-0.8822836,147.800736 -15.0045404,82.186554 17.4404392,37.8643951 C49.9578418,-6.4577637 116.65835,-12.7584649 166.556986,23.8145599 C209.898615,55.5187378 226.240595,109.130585 208.480066,151.718628 C213.249659,152.919815 217.612177,155.140518 221.326593,158.133148 C232.335947,153.881653 244.683985,151.494247 257.736078,151.494247 C269.734339,151.494247 281.133173,153.518768 291.449091,157.146652 C294.929102,154.608643 298.914453,152.723938 303.226831,151.668442 C288.373255,110.103897 304.943293,59.3294373 346.525232,28.8116684 C396.061762,-7.4716721 462.400171,-1.1709671 494.627893,42.8615036 C526.92804,86.9664001 512.878174,152.073624 463.341705,188.356964 Z M172.153564,202.533569 C170.791153,200.448883 169.650025,198.207794 168.773773,195.838165 C165.745819,197.50357 162.625458,199.002655 159.424576,200.32959 C163.75174,200.739929 168.007233,201.479034 172.153564,202.533569 Z M226.007965,184.798889 C226.007965,170.957047 214.869568,159.710556 201.027725,159.710556 C187.185928,159.710556 175.939407,170.957047 175.939407,184.798889 C175.939407,198.640717 187.185928,209.887207 201.027725,209.887207 C214.869568,209.887207 226.007965,198.640717 226.007965,184.798889 Z M287.96936,240.591766 L287.96936,239.042633 L280.475952,239.042633 C280.475952,239.042633 280.165863,239.873444 280.568176,241.822388 C281.975311,248.060852 280.887878,252.367676 277.243561,254.988434 C270.2164,260.043274 253.858963,258.286468 242.239212,251.230987 C239.030304,249.282379 231.667053,244.056152 232.600037,237.625305 L225.184723,236.549164 C224.074921,244.195892 228.873718,251.881653 238.35022,257.635803 C244.747681,261.520538 252.838272,264.243713 260.547516,265.107117 C262.304321,265.304016 264.013,265.401337 265.663452,265.401337 C272.116333,265.401337 277.667358,263.913299 281.618317,261.071869 C285.874207,258.011475 290.397766,251.981232 287.96936,240.591766 Z M337.247833,182.988342 C337.247833,169.146545 326.109467,158.008255 312.2677,158.008255 C298.317749,158.008255 287.179413,169.146545 287.179413,182.988342 C287.179413,196.722015 298.317749,207.968475 312.2677,207.968475 C326.109467,207.968475 337.247833,196.722015 337.247833,182.988342 Z M349.490753,202.442291 C346.823395,201.183746 344.221924,199.795868 341.689423,198.289612 C340.979248,199.822266 340.159058,201.293396 339.234528,202.69101 C339.474487,203.47998 339.699463,204.273651 339.903656,205.073395 C343.027252,204.004608 346.228882,203.1268 349.490753,202.442291 Z" id="Shape"/>
  </g>
</svg>
