<?xml version="1.0" encoding="UTF-8" standalone="no"?>
<svg
   version="1.0"
   width="468pt"
   height="465pt"
   viewBox="0 0 468 465"
   preserveAspectRatio="xMidYMid meet"
   id="svg372"
   xmlns="http://www.w3.org/2000/svg"
   xmlns:svg="http://www.w3.org/2000/svg">
  <defs
     id="defs376" />
  <metadata
     id="metadata356">
Created by potrace 1.8, written by Peter Selinger 2001-2007
</metadata>
  <g
     transform="translate(0,465) scale(0.157047,-0.157047)"
     fill="#000000"
     stroke="none"
     id="g370">
    <path
       d="M331 2830 c-139 -60 -264 -116 -278 -125 -28 -19 -53 -71 -53 -112 0 -97 177 -647 315 -978 257 -615 459 -1040 643 -1348 123 -205 179 -267 241 -267 23 0 153 53 463 189 76 34 102 50 118 76 38 61 30 92 -100 392 -67 153 -132 295 -146 315 -47 73 -113 90 -292 78 -56 -4 -65 -2 -75 15 -15 25 -371 842 -381 873 -6 19 5 35 78 104 72 67 88 89 101 131 9 31 13 65 9 87 -12 60 -251 601 -281 632 -22 23 -75 48 -103 48 -3 0 -119 -49 -259 -110z m393 -312 c64 -146 116 -278 116 -292 0 -18 -15 -40 -52 -73 -139 -128 -159 -171 -124 -269 28 -80 370 -860 393 -897 40 -64 90 -80 226 -72 86 5 116 4 129 -7 22 -16 260 -560 250 -570 -8 -7 -446 -198 -456 -198 -19 0 -251 392 -361 610 -57 114 -292 643 -405 915 -136 325 -308 853 -298 918 2 17 48 40 228 118 124 54 228 95 232 91 4 -4 59 -127 122 -274z"
       id="path360" />
    <path
       d="m 2439.2732,1204 c 26,-26 19,-51 -35,-116 -28,-35 -70,-103 -94,-153 -127,-261 -91,-556 96,-791 50,-63 59,-90 37,-112 -23,-23 -55,-12 -97,33 -84,91 -149,218 -186,361 -22,84 -25,271 -6,359 30,139 113,301 204,398 38,40 57,45 81,21 z"
       id="path364" />
    <path
       d="m 2676.2732,1103 c 9,-2 21,-15 27,-28 10,-21 5,-32 -39,-92 -97,-131 -129,-222 -130,-368 -1,-148 39,-261 131,-377 28,-34 50,-64 50,-67 0,-19 -34,-51 -55,-51 -53,0 -169,185 -206,328 -50,198 4,445 132,595 44,52 65,65 90,60 z"
       id="path366" />
    <path
       d="m 2938.2732,972 c 24,-26 21,-38 -18,-86 -83,-101 -116,-250 -81,-366 16,-55 57,-131 98,-182 18,-23 20,-31 10,-53 -9,-19 -19,-25 -42,-25 -25,0 -37,10 -74,60 -146,198 -135,458 27,640 31,34 57,38 80,12 z"
       id="path368" />
    <path
       d="m 1784.9213,2935.9524 c -26,-26 -19,-51 35,-116 28,-35 70,-103 94,-153 127,-261 91,-556 -96,-791 -50,-63 -59,-90 -37,-112 23,-23 55,-12 97,33 84,91 149,218 186,361 22,84 25,271 6,359 -30,139 -113,301 -204,398 -38,40 -57,45 -81,21 z"
       id="path364-7" />
    <path
       d="m 1547.9213,2834.9524 c -9,-2 -21,-15 -27,-28 -10,-21 -5,-32 39,-92 97,-131 129,-222 130,-368 1,-148 -39,-261 -131,-377 -28,-34 -50,-64 -50,-67 0,-19 34,-51 55,-51 53,0 169,185 206,328 50,198 -4,445 -132,595 -44,52 -65,65 -90,60 z"
       id="path366-1" />
    <path
       d="m 1285.9213,2703.9524 c -24,-26 -21,-38 18,-86 83,-101 116,-250 81,-366 -16,-55 -57,-131 -98,-182 -18,-23 -20,-31 -10,-53 9,-19 19,-25 42,-25 25,0 37,10 74,60 146,198 135,458 -27,640 -31,34 -57,38 -80,12 z"
       id="path368-5" />
  </g>
</svg>
