<?xml version="1.0" encoding="UTF-8" standalone="no"?>
<svg
   version="1.0"
   width="468pt"
   height="351pt"
   viewBox="0 0 468 351"
   preserveAspectRatio="xMidYMid meet"
   id="svg230"
   xmlns="http://www.w3.org/2000/svg"
   xmlns:svg="http://www.w3.org/2000/svg">
  <defs
     id="defs234" />
  <metadata
     id="metadata222">
Created by potrace 1.8, written by Peter Selinger 2001-2007
</metadata>
  <g
     transform="matrix(0.158108,0,0,-0.158108,-1.153958,467.76009)"
     fill="#000000"
     stroke="none"
     id="g228">
    <path
       d="m 938.63703,1610.6285 c -212,-8 -344,-19 -560,-46 -240,-30 -302.999997,-47 -344.999997,-94 -19,-21 -20,-36 -20,-337 V 818.62858 l 32,-28 c 53,-48 87.999997,-52 420.999997,-48 299,3 308,4 355,27 59,29 89,71 123,176 15,44 33,87.00002 41,95.00002 12,13 79.99997,15 472.99997,18 253,1 474,-1 492,-6 34,-9 38,-15 83,-144.00002 25,-71 55,-109 110,-137 l 49,-26 h 331 c 367,0 375,1 415,68 19,30 20,52 20,321.99992 0,270 -1,292 -20,322 -25,41 -57,57 -155,76 -282,56 -583,77 -1150,81 -269,2 -582,1 -694.99997,-4 z m 1409.99997,-154 c 186,-19 368,-44 433,-57 l 47,-11 v -254 -253.99992 h -304 c -167,0 -312,3 -321,6 -19,8 -42,50 -62,118.00002 -31,103.9999 -68,152.9999 -132,174.9999 -45,15 -999,15 -1052.99997,1 -55,-16 -98,-73 -132,-174.9999 -44,-135.00002 -14,-125.00002 -376,-125.00002 h -310 v 253.99992 255 l 53,10 c 131,27 283,44 657,75 25,2 337.99997,2 694.99997,1 521,-2 681,-5 805,-19 z"
       id="path226" />
    <g
       id="g1243"
       transform="rotate(90,1018.1934,2642.0798)">
      <path
         d="m 744.61121,3350.9244 c -11.95962,-14.9496 -20.92934,-32.889 -20.92934,-39.8655 0,-6.9764 23.91925,-40.862 52.82167,-74.7476 204.31021,-240.1891 320.91656,-465.4286 380.71466,-736.5134 25.9125,-116.6063 31.8923,-411.6103 9.9663,-540.1763 -43.8519,-271.0848 -187.36738,-568.082 -369.75162,-764.4192 -75.74428,-81.7241 -85.71063,-118.5996 -44.84859,-152.4852 41.85868,-32.8889 69.76447,-23.9192 134.54575,47.8385 229.22606,248.1622 381.71126,582.035 424.56656,924.8775 16.9428,133.5491 7.9731,379.718 -18.936,506.2907 -61.7914,288.0275 -191.354,548.1493 -383.70458,768.4057 -67.77119,76.7409 -80.72745,86.7073 -110.62651,86.7073 -23.91924,0 -38.86877,-6.9765 -53.8183,-25.9125 z"
         id="path318"
         style="stroke-width:0.996635" />
      <path
         d="m 459.57354,3132.6612 c -13.95289,-12.9562 -24.91588,-33.8856 -24.91588,-45.8452 0,-11.9596 29.89906,-56.8082 68.76783,-102.6534 199.32704,-236.2025 291.01748,-484.3647 291.01748,-793.3216 0.99664,-310.9502 -101.65679,-577.0518 -312.94345,-815.2476 -51.82503,-57.8049 -58.80148,-89.6972 -26.90915,-121.5895 37.87214,-37.8721 71.75773,-26.9092 139.52893,46.8418 157.46836,167.4348 277.06458,409.6171 324.90307,657.7793 23.91925,119.5962 23.91925,356.7954 0.99664,473.4017 -48.83513,246.1689 -172.41789,492.3378 -333.8728,663.759 -63.78465,68.7679 -88.70053,75.7443 -126.57267,36.8755 z"
         id="path322"
         style="stroke-width:0.996635" />
      <path
         d="m 197.45849,2918.3847 c -18.93607,-7.9731 -41.85868,-44.8486 -41.85868,-68.7679 0,-3.9865 29.89905,-44.8485 65.77792,-90.6938 74.74764,-94.6803 130.55921,-200.3236 165.44144,-308.9569 19.93271,-65.7779 22.92261,-94.6803 22.92261,-234.2092 0,-139.529 -2.9899,-168.4314 -22.92261,-234.2093 -34.88223,-108.6332 -91.69043,-214.2766 -165.44144,-307.9603 -35.87887,-44.8486 -65.77792,-86.7072 -65.77792,-90.6938 0,-47.8385 59.79811,-90.6938 97.67025,-70.7611 53.8183,28.9024 171.42125,197.3338 221.25301,315.9334 60.79475,146.5053 72.75437,212.2833 72.75437,387.6911 0,131.5558 -2.9899,173.4145 -20.92934,236.2025 -45.84522,167.4347 -129.56257,322.9098 -229.22609,425.5632 -48.83513,51.8251 -59.79812,55.8116 -99.66352,40.8621 z"
         id="path324"
         style="stroke-width:0.996635" />
    </g>
  </g>
</svg>
