<?xml version="1.0" encoding="UTF-8"?>
<svg xmlns="http://www.w3.org/2000/svg" xmlns:xlink="http://www.w3.org/1999/xlink" width="512px" height="366px" viewBox="0 0 512 366" version="1.1">
  <defs/>
  <g fill="#000000" id="layer1">
    <path d="M170.322,276.808 C167.922,261.148 161.322,248.428 145.302,242.277 C139.032,239.877 133.602,235.497 127.422,232.737 C120.402,229.587 113.262,226.587 105.852,224.637 C100.242,223.137 95.022,225.657 91.692,230.577 C88.542,235.197 90.822,239.547 93.462,243.417 C96.432,247.767 99.732,251.907 103.062,255.987 C108.582,262.767 114.432,269.277 119.802,276.148 C124.932,282.718 129.312,290.008 128.562,298.708 C126.912,317.788 118.272,333.599 104.352,346.468 C102.822,347.848 100.122,348.838 98.142,348.658 C89.262,347.698 81.192,344.338 74.682,338.128 C67.212,331.018 68.352,322.648 77.292,317.458 C79.422,316.228 81.642,315.088 83.592,313.588 C89.052,309.478 90.882,302.458 87.912,296.368 C86.502,293.428 84.912,290.248 82.572,288.118 C71.142,277.708 59.921,266.967 47.681,257.488 C18.01,234.447 2.771,203.968 0.43,167.067 C-2.21,126.086 7.3,87.836 28.93,52.825 C37.12,39.535 46.66,26.874 61.3,20.305 C71.26,15.835 82.18,13.315 92.831,10.525 C122.142,2.815 151.721,-2.975 182.232,2.185 C208.512,6.595 227.743,20.125 236.563,45.955 C242.353,62.845 243.733,80.305 241.933,98.186 C238.393,133.317 212.443,164.727 178.602,174.027 C163.932,178.047 155.922,175.797 147.102,163.587 C140.772,154.797 135.522,145.227 129.852,135.956 C129.012,134.576 128.412,132.986 127.692,131.516 C127.002,130.046 126.252,128.636 125.532,127.166 C127.662,142.406 131.202,157.077 139.512,170.156 C144.012,177.266 150.012,182.516 158.802,183.296 C191.142,186.206 218.443,175.586 237.823,149.575 C259.513,120.474 264.284,86.994 258.013,51.744 C256.783,44.784 254.713,37.974 253.243,31.044 C252.253,26.574 254.023,23.274 258.433,21.714 C260.473,21.024 262.573,20.454 264.613,20.034 C291.074,14.334 317.834,12.444 344.804,15.174 C375.405,18.234 404.355,26.634 430.245,43.645 C470.776,70.315 495.886,108.266 509.536,154.167 C511.516,160.827 511.816,168.117 511.996,175.138 C512.116,179.818 509.116,181.048 505.546,178.108 C501.616,174.898 498.016,171.238 494.626,167.458 C491.476,163.888 488.956,159.808 485.896,156.058 C483.526,153.118 481.456,153.568 480.316,157.228 C479.596,159.448 478.966,161.638 478.336,163.858 C471.256,189.118 460.096,212.158 442.006,231.569 C439.486,234.299 437.236,238.349 436.936,241.949 C436.156,251.909 435.586,262.079 436.546,272.009 C438.526,293.34 441.616,314.579 444.016,335.88 C445.366,347.91 441.496,354.99 430.186,359.161 C422.236,362.071 413.716,364.201 405.316,364.801 C391.936,365.731 378.436,365.071 364.996,365.071 C364.636,350.071 365.926,335.34 351.826,327.3 C354.556,316.17 357.706,305.61 359.596,294.81 C361.156,285.84 359.836,277.02 353.536,269.67 C347.626,262.74 340.216,260.85 333.435,264.81 C313.005,276.72 291.764,276.78 270.134,268.98 C260.204,265.38 253.274,267.42 247.783,276.48 C241.873,286.23 239.383,297.18 240.043,308.251 C240.883,322.201 243.313,336.001 245.173,349.891 C246.193,357.661 245.323,359.671 237.613,361.651 C220.483,366.001 203.053,366.481 185.532,365.071 C184.602,364.981 183.672,364.591 183.072,364.441 C182.202,349.891 183.732,334.77 166.392,327.03 C174.072,310.74 173.022,293.85 170.382,276.96 L170.322,276.81 L170.322,276.808 Z M66.761,219.718 C69.311,217.318 71.351,213.568 72.071,210.118 C73.871,201.478 67.391,189.898 59.891,186.688 C55.901,184.948 52.421,185.578 49.601,188.758 C42.731,196.528 35.951,204.388 29.2,212.279 C28.06,213.629 27.04,215.219 26.23,216.809 C23.53,221.999 25.12,225.779 30.88,227.189 C34.36,228.059 37.96,228.239 41.53,228.749 C50.83,227.849 59.83,226.289 66.76,219.749 L66.76,219.719 L66.761,219.718 Z M67.541,133.347 C67.511,127.167 62.351,122.007 56.261,121.977 C49.991,121.947 44.591,127.557 44.801,133.737 C45.071,139.947 50.231,144.927 56.411,144.807 C62.651,144.717 67.631,139.617 67.571,133.377 L67.541,133.347 L67.541,133.347 Z" id="Shape"/>
  </g>
</svg>
