<?xml version="1.0" encoding="UTF-8" standalone="no"?>
<svg
   xmlns:dc="http://purl.org/dc/elements/1.1/"
   xmlns:cc="http://creativecommons.org/ns#"
   xmlns:rdf="http://www.w3.org/1999/02/22-rdf-syntax-ns#"
   xmlns:svg="http://www.w3.org/2000/svg"
   xmlns="http://www.w3.org/2000/svg"
   xmlns:sodipodi="http://sodipodi.sourceforge.net/DTD/sodipodi-0.dtd"
   xmlns:inkscape="http://www.inkscape.org/namespaces/inkscape"
   version="1.1"
   id="svg41117"
   viewBox="0 0 197.65015 152.81912"
   height="152.81912"
   width="197.65015"
   preserveAspectRatio="xMidYMid"
   sodipodi:docname="PlayStation.svg"
   inkscape:version="1.0.1 (3bc2e813f5, 2020-09-07)">
  <sodipodi:namedview
     pagecolor="#ffffff"
     bordercolor="#666666"
     borderopacity="1"
     objecttolerance="10"
     gridtolerance="10"
     guidetolerance="10"
     inkscape:pageopacity="0"
     inkscape:pageshadow="2"
     inkscape:window-width="1920"
     inkscape:window-height="1017"
     id="namedview845"
     showgrid="false"
     inkscape:lockguides="true"
     inkscape:zoom="5.3417174"
     inkscape:cx="98.80252"
     inkscape:cy="76.409561"
     inkscape:window-x="-8"
     inkscape:window-y="-8"
     inkscape:window-maximized="1"
     inkscape:current-layer="layer2"
     fit-margin-top="0"
     fit-margin-left="0"
     fit-margin-right="0"
     fit-margin-bottom="0" />
  <metadata
     id="metadata41126">
    <rdf:RDF>
      <cc:Work
         rdf:about="">
        <dc:format>image/svg+xml</dc:format>
        <dc:type
           rdf:resource="http://purl.org/dc/dcmitype/StillImage" />
        <dc:title></dc:title>
      </cc:Work>
    </rdf:RDF>
  </metadata>
  <defs
     id="defs41119">
    <style
       id="style41121">

      .cls-2 {
        fill: #ffffff;
      }
    </style>
  </defs>
  <g
     inkscape:groupmode="layer"
     id="layer1"
     inkscape:label="Layer 1"
     style="display:none"
     transform="translate(-1.1974797,-1)">
    <path
       style="fill:none;stroke:#000000;stroke-width:1px;stroke-linecap:butt;stroke-linejoin:miter;stroke-opacity:1"
       d="M 68.773036,87.186746 Z"
       id="path854" />
    <path
       style="fill:none;stroke:#000000;stroke-width:1px;stroke-linecap:butt;stroke-linejoin:miter;stroke-opacity:1"
       d="M 113.40449,101.62316 Z"
       id="path858" />
  </g>
  <g
     inkscape:groupmode="layer"
     id="layer2"
     inkscape:label="Layer 2"
     style="display:inline"
     transform="translate(-1.1974797,-1)">
    <path
       style="display:inline;fill:#000000;fill-opacity:1;stroke:none;stroke-width:1px;stroke-linecap:butt;stroke-linejoin:miter;stroke-opacity:1"
       d="m 75.037816,1 v 142.58321 l 32.250314,10.23591 -0.0193,-121.994149 c 0,0 1.2655,-5.084241 3.3697,-5.990583 2.12671,-0.91604 5.03467,0.117723 6.73941,1.684851 1.99033,1.829656 2.62088,7.675435 2.62088,7.675435 l 0.11565,50.971179 c 0,0 6.39962,2.720115 9.80625,3.131271 3.60177,0.434708 7.44325,0.476597 10.85793,-0.748823 3.53676,-1.269231 6.89549,-3.563517 9.17308,-6.5522 3.18302,-4.176802 4.44019,-9.63177 5.42897,-14.789251 0.86978,-4.536804 0.80138,-9.253571 0.37441,-13.853223 -0.3835,-4.131378 -1.28714,-8.239438 -2.62088,-12.168371 -1.26515,-3.726891 -2.68599,-7.527443 -5.05455,-10.670725 -2.5012,-3.319303 -5.92785,-5.89352 -9.36029,-8.237051 -3.59569,-2.454991 -7.56511,-4.371605 -11.60675,-5.990583 C 110.31913,9.5598515 75.037816,1 75.037816,1 Z"
       id="path862"
       sodipodi:nodetypes="ccccssccsssssssssc" />
    <path
       style="display:inline;fill:#000000;fill-opacity:1;stroke:none;stroke-width:1.00157;stroke-linecap:butt;stroke-linejoin:miter;stroke-miterlimit:4;stroke-dasharray:none;stroke-opacity:1"
       d="m 113.40449,121.00214 v -19.37898 c 0,0 7.02994,-2.512776 13.87473,-3.890901 4.54572,-0.915231 9.14227,-1.636926 13.76333,-2.020305 4.23734,-0.351543 8.50606,-0.454011 12.75318,-0.252538 5.88248,0.279051 11.78284,0.834921 17.5514,2.020305 5.46535,1.123075 10.117,2.174281 15.27856,4.293149 2.82176,1.15836 6.58914,2.73836 8.83883,4.79822 1.48097,1.35601 2.9405,3.0722 3.28299,5.05077 0.37053,2.14051 -0.32198,4.52031 -1.50837,6.34008 -1.70372,2.61328 -4.59405,4.41573 -7.45673,5.65548 -2.23298,0.96705 -9.33229,3.60854 -13.8896,5.3033 -20.8614,7.75788 -62.48832,22.72169 -62.48832,22.72169 v -18.67289 c 0,0 33.35036,-11.30499 50.49276,-17.68586 1.85436,-0.69025 5.15085,-1.71873 5.93465,-3.53553 0.48121,-1.11541 0.094,-2.81487 -0.88389,-3.53554 -1.93416,-1.42535 -4.62777,-1.68028 -7.44988,-1.76777 -3.21961,-0.0998 -7.33554,0.69162 -10.48032,1.38896 -4.06724,0.90189 -11.8693,3.91435 -11.8693,3.91435 z"
       id="path856"
       sodipodi:nodetypes="ccssssssssssccssssscc" />
    <path
       style="display:inline;fill:#000000;fill-opacity:1;stroke:none;stroke-width:1px;stroke-linecap:butt;stroke-linejoin:miter;stroke-opacity:1"
       d="M 68.773036,87.186746 V 105.9316 c 0,0 -11.438281,3.40279 -18.624377,6.14769 -12.075853,4.61268 -9.728522,3.3379 -16.433014,5.92579 -2.121821,0.81901 -3.760907,2.35109 -3.001359,4.49492 1.290713,3.64304 7.956696,3.29934 12.142857,3.21429 9.03896,-0.18365 25.915893,-7.9997 25.915893,-7.9997 v 16.77053 c 0,0 -18.235796,2.21218 -27.344465,1.58631 -8.666655,-0.5955 -18.311332,-2.077 -26.324181,-5.43256 -5.2367283,-2.19299 -11.2729623,-3.9143 -13.3186757,-9.2103 -1.10285604,-2.8551 -0.7308362,-6.14544 1.7640499,-7.91842 8.5616608,-6.0843 18.8506728,-9.40884 26.7498198,-12.60832 13.629665,-5.520588 38.473452,-13.715084 38.473452,-13.715084 z"
       id="path852"
       sodipodi:nodetypes="ccssssccsssssc" />
  </g>
</svg>
