<?xml version="1.0" encoding="UTF-8"?>
<svg xmlns="http://www.w3.org/2000/svg" xmlns:xlink="http://www.w3.org/1999/xlink" width="454px" height="512px" viewBox="0 0 454 512" version="1.1">
  <defs/>
  <g fill="#000000" id="layer1">
    <path d="M454,305.829437 L362.88089,339.52124 L362.88089,446.001984 L181.94487,512 L181.94487,298.297028 L361.829163,231.433655 L361.829163,58.8240128 L454,92.4968643 L454,305.829437 Z M276.83905,363.384949 C261.121613,369.109497 248.381836,387.308899 248.387482,404.033051 C248.393646,420.750488 261.139832,429.665985 276.851166,423.952332 C292.568512,418.227631 305.311371,400.030548 305.305664,383.306366 C305.303009,366.581055 292.556549,357.663544 276.83905,363.384949 Z M334.616089,212.499786 L154.223557,279.378082 L154.520203,415.138489 L90.3097153,438.12973 L0,405.25946 L0,191.926544 L90.704361,158.234757 L90.704361,51.7543259 L232.97171,0 L334.616089,32.4636765 L334.616089,212.499786 Z M215.214478,94.8330383 C199.496994,100.555306 186.752319,118.758018 186.755752,135.482971 C186.758331,152.208206 199.506576,161.129227 215.224075,155.407822 C230.941574,149.685913 243.686462,131.483017 243.683304,114.758003 C243.680664,98.0326996 230.931976,89.1116333 215.214478,94.8330383 Z" id="Shape"/>
  </g>
</svg>
