<?xml version="1.0" encoding="UTF-8"?>
<svg xmlns="http://www.w3.org/2000/svg" xmlns:xlink="http://www.w3.org/1999/xlink" width="279px" height="280px" viewBox="0 0 279 280" version="1.1">
  <defs/>
  <g fill="#000000" id="layer1">
    <path d="M62.1679382,173.762054 L62.1679382,203.708923 L39.6292114,203.708923 C20.5831299,203.708923 9.4527435,189.883575 4.7999878,170.474884 C-1.4842682,144.407349 -1.218399,128.82962 4.7999878,103.861816 C10.0207367,82.0723572 26.6981812,70.6277771 45.7442932,70.6277771 L135.887024,70.6277771 L135.887024,59.3553467 L70.3495483,59.3553467 L70.3495483,33.572998 C70.3495483,14.6598053 75.389038,8.1478118 103.124329,3.2533569 C124.534515,-0.3309784 146.360565,-0.2924195 168.589294,3.2533569 C186.37854,6.2142028 201.364075,19.5561523 201.364075,37.3212433 L201.364075,99.7286987 C201.364075,118.037628 186.813599,133.035248 168.589294,133.035248 L103.118286,133.04129 C80.8937683,133.04129 62.1679382,152.1297 62.1679382,173.762054 Z M120.542511,31.2840118 C120.542511,19.6108703 108.009644,12.2755432 98.0375061,18.1121215 C88.0653381,23.9486846 88.0653381,38.6193236 98.0375061,44.455902 C108.009644,50.2924805 120.542511,42.9571533 120.542511,31.2840118 Z M217.018036,106.184967 L217.018036,76.2380676 L239.556732,76.2380981 C258.602844,76.2380981 269.733215,90.063446 274.385986,109.472107 C280.670227,135.539673 280.404358,151.117371 274.385956,176.085174 C269.165192,197.874603 252.487762,209.319183 233.44165,209.319183 L143.298889,209.319153 L143.298859,219.519928 L208.836395,219.519928 L208.836365,246.373962 C208.836365,265.28714 203.796875,271.799133 176.061585,276.693603 C154.651367,280.277923 132.825318,280.239349 110.596588,276.693573 C92.8073122,273.732727 77.821808,260.390777 77.821808,242.625671 L77.821808,180.218231 C77.8218385,161.909302 92.3722841,146.911712 110.596619,146.911712 L176.067658,146.90567 C198.292145,146.905701 217.018005,127.817291 217.018036,106.184967 Z M158.643372,248.662933 C158.643372,260.336059 171.176239,267.671387 181.148407,261.834839 C191.120575,255.99826 191.120575,241.327606 181.148407,235.491058 C171.176269,229.65448 158.643372,236.989807 158.643372,248.662933 Z" id="Shape"/>
  </g>
</svg>
