<?xml version="1.0" encoding="UTF-8" standalone="no"?>
<svg
   xmlns:dc="http://purl.org/dc/elements/1.1/"
   xmlns:cc="http://creativecommons.org/ns#"
   xmlns:rdf="http://www.w3.org/1999/02/22-rdf-syntax-ns#"
   xmlns:svg="http://www.w3.org/2000/svg"
   xmlns="http://www.w3.org/2000/svg"
   xmlns:sodipodi="http://sodipodi.sourceforge.net/DTD/sodipodi-0.dtd"
   xmlns:inkscape="http://www.inkscape.org/namespaces/inkscape"
   version="1.0"
   width="469pt"
   height="469pt"
   viewBox="0 0 469 469"
   preserveAspectRatio="xMidYMid meet"
   id="svg2"
   inkscape:version="0.91 r13725"
   sodipodi:docname="radio_button_on.svg">
  <defs
     id="defs12" />
  <sodipodi:namedview
     pagecolor="#ffffff"
     bordercolor="#666666"
     borderopacity="1"
     objecttolerance="10"
     gridtolerance="10"
     guidetolerance="10"
     inkscape:pageopacity="0"
     inkscape:pageshadow="2"
     inkscape:window-width="1209"
     inkscape:window-height="750"
     id="namedview10"
     showgrid="false"
     inkscape:zoom="0.40255864"
     inkscape:cx="191.27648"
     inkscape:cy="690.58263"
     inkscape:window-x="0"
     inkscape:window-y="0"
     inkscape:window-maximized="0"
     inkscape:current-layer="svg2" />
  <metadata
     id="metadata4">
Created by potrace 1.8, written by Peter Selinger 2001-2007
<rdf:RDF>
  <cc:Work
     rdf:about="">
    <dc:format>image/svg+xml</dc:format>
    <dc:type
       rdf:resource="http://purl.org/dc/dcmitype/StillImage" />
  </cc:Work>
</rdf:RDF>
</metadata>
  <g
     transform="translate(0,469) scale(0.255738,-0.255738)"
     fill="#000000"
     stroke="none"
     id="g6">
    <path
       d="M809 1820 c-604 -75 -970 -697 -739 -1253 154 -370 546 -604 935 -558 456 54 790 406 812 858 17 335 -134 630 -415 814 -165 108 -400 163 -593 139z m306 -155 c203 -55 385 -203 484 -395 63 -120 85 -213 85 -355 0 -141 -16 -211 -74 -333 -107 -225 -300 -377 -543 -429 -89 -18 -275 -13 -362 11 -144 40 -295 138 -391 254 -65 78 -135 218 -159 317 -23 94 -23 267 0 360 39 160 153 336 276 430 82 61 224 129 314 149 87 19 283 15 370 -9z"
       id="path8" />
  </g>
  <g
     id="g3366"
     transform="matrix(0.16230071,0,0,-0.16230071,84.953269,383.56032)"
     style="fill:#000000;stroke:none">
    <path
       id="path3368"
       d="M 809,1820 C 205,1745 -161,1123 70,567 224,197 616,-37 1005,9 c 456,54 790,406 812,858 17,335 -134,630 -415,814 -165,108 -400,163 -593,139 z"
       inkscape:connector-curvature="0"
       sodipodi:nodetypes="cccccc" />
  </g>
</svg>
