<?xml version="1.0" encoding="UTF-8" standalone="no"?>
<!-- Created with Inkscape (http://www.inkscape.org/) -->

<svg
   xmlns:dc="http://purl.org/dc/elements/1.1/"
   xmlns:cc="http://creativecommons.org/ns#"
   xmlns:rdf="http://www.w3.org/1999/02/22-rdf-syntax-ns#"
   xmlns:svg="http://www.w3.org/2000/svg"
   xmlns="http://www.w3.org/2000/svg"
   xmlns:sodipodi="http://sodipodi.sourceforge.net/DTD/sodipodi-0.dtd"
   xmlns:inkscape="http://www.inkscape.org/namespaces/inkscape"
   version="1.0"
   width="468pt"
   height="468pt"
   viewBox="0 0 468 468"
   id="svg2"
   inkscape:version="0.48.4 r9939"
   sodipodi:docname="0.svg">
  <sodipodi:namedview
     pagecolor="#ffffff"
     bordercolor="#666666"
     borderopacity="1"
     objecttolerance="10"
     gridtolerance="10"
     guidetolerance="10"
     inkscape:pageopacity="0"
     inkscape:pageshadow="2"
     inkscape:window-width="1858"
     inkscape:window-height="1057"
     id="namedview9"
     showgrid="false"
     inkscape:zoom="0.4034188"
     inkscape:cx="292.5"
     inkscape:cy="292.5"
     inkscape:window-x="1734"
     inkscape:window-y="-8"
     inkscape:window-maximized="1"
     inkscape:current-layer="svg2" />
  <defs
     id="defs12" />
  <metadata
     id="metadata4">
Created by potrace 1.8, written by Peter Selinger 2001-2007
<rdf:RDF>
  <cc:Work
     rdf:about="">
    <dc:format>image/svg+xml</dc:format>
    <dc:type
       rdf:resource="http://purl.org/dc/dcmitype/StillImage" />
    <dc:title></dc:title>
  </cc:Work>
</rdf:RDF>
</metadata>
  <g fill="#000000"
     transform="matrix(0.189474,0,0,-0.189474,0,468)"
     id="g6">
    <path
       d="M 395,2455 C 244,2422 112,2322 57,2200 5,2083 6,2112 2,1260 0,702 2,446 10,400 43,208 198,52 398,11 c 71,-15 1628,-15 1692,0 174,40 322,190 365,370 22,94 22,1579 0,1683 -21,98 -66,187 -127,252 -61,64 -113,98 -201,128 -61,21 -75,21 -867,23 -640,1 -817,-1 -865,-12 z m 1737,-163 c 74,-36 132,-95 170,-170 l 23,-47 0,-840 0,-840 -28,-57 c -37,-76 -96,-134 -171,-169 l -63,-29 -839,2 -839,3 -50,27 C 273,204 196,285 167,348 l -22,47 0,840 0,840 27,52 c 53,100 128,162 227,189 35,10 236,12 856,11 l 810,-2 67,-33 z"
       id="path8" />
  </g>
  <g
     style="font-size:420.84954834px;font-style:normal;font-variant:normal;font-weight:bold;font-stretch:normal;text-align:start;line-height:125%;letter-spacing:0px;word-spacing:0px;writing-mode:lr-tb;text-anchor:start;fill:#000000;fill-opacity:1;stroke:none;font-family:Arial;-inkscape-font-specification:Arial Bold"
     id="text2993">
    <path
       d="m 229.2643,81.14604 c 29.17986,3.02e-4 51.98955,10.411935 68.42915,31.23493 19.59013,24.6594 29.38528,65.55245 29.38549,122.67928 -2.1e-4,56.99014 -9.86386,97.95169 -29.59098,122.88478 -16.30261,20.5493 -39.0438,30.82394 -68.22366,30.82395 -29.31708,-10e-6 -52.94874,-11.26786 -70.89506,-33.80359 -17.94641,-22.53568 -26.9196,-62.70951 -26.91958,-120.52161 -2e-5,-56.71585 9.86363,-97.54041 29.59098,-122.4738 16.30238,-20.549001 39.04358,-30.823638 68.22366,-30.82394 z m 0,47.87986 c -6.98687,2.5e-4 -13.22015,2.22642 -18.69986,6.67852 -5.4799,4.45259 -9.72675,12.43256 -12.74056,23.93992 -3.97294,14.9327 -5.95937,40.07131 -5.95929,75.41591 -8e-5,35.3449 1.78085,59.6273 5.34281,72.84725 3.56179,13.22011 8.04838,22.02205 13.45979,26.40585 5.41121,4.38389 11.61024,6.57581 18.59711,6.57577 6.98664,4e-5 13.21992,-2.22613 18.69986,-6.67852 5.47967,-4.45229 9.72652,-12.43226 12.74056,-23.93993 3.97271,-14.7954 5.95914,-39.86552 5.9593,-75.21042 -1.6e-4,-35.3446 -1.78109,-59.62699 -5.34282,-72.84724 -3.56202,-13.21982 -8.04861,-22.056 -13.45979,-26.50859 -5.41144,-4.4521 -11.61047,-6.67827 -18.59711,-6.67852 z"
       style=""
       id="path3031" />
  </g>
</svg>
