<?xml version="1.0" encoding="UTF-8" standalone="no"?>
<!-- Created with Inkscape (http://www.inkscape.org/) -->

<svg
   xmlns:dc="http://purl.org/dc/elements/1.1/"
   xmlns:cc="http://creativecommons.org/ns#"
   xmlns:rdf="http://www.w3.org/1999/02/22-rdf-syntax-ns#"
   xmlns:svg="http://www.w3.org/2000/svg"
   xmlns="http://www.w3.org/2000/svg"
   xmlns:sodipodi="http://sodipodi.sourceforge.net/DTD/sodipodi-0.dtd"
   xmlns:inkscape="http://www.inkscape.org/namespaces/inkscape"
   version="1.0"
   width="468pt"
   height="468pt"
   viewBox="0 0 468 468"
   id="svg2"
   inkscape:version="0.48.4 r9939"
   sodipodi:docname="2.svg">
  <sodipodi:namedview
     pagecolor="#ffffff"
     bordercolor="#666666"
     borderopacity="1"
     objecttolerance="10"
     gridtolerance="10"
     guidetolerance="10"
     inkscape:pageopacity="0"
     inkscape:pageshadow="2"
     inkscape:window-width="1858"
     inkscape:window-height="1057"
     id="namedview9"
     showgrid="false"
     inkscape:zoom="0.4034188"
     inkscape:cx="292.5"
     inkscape:cy="292.5"
     inkscape:window-x="1734"
     inkscape:window-y="-8"
     inkscape:window-maximized="1"
     inkscape:current-layer="svg2" />
  <defs
     id="defs12" />
  <metadata
     id="metadata4">
Created by potrace 1.8, written by Peter Selinger 2001-2007
<rdf:RDF>
  <cc:Work
     rdf:about="">
    <dc:format>image/svg+xml</dc:format>
    <dc:type
       rdf:resource="http://purl.org/dc/dcmitype/StillImage" />
    <dc:title></dc:title>
  </cc:Work>
</rdf:RDF>
</metadata>
  <g fill="#000000"
     transform="matrix(0.189474,0,0,-0.189474,0,468)"
     id="g6">
    <path
       d="M 395,2455 C 244,2422 112,2322 57,2200 5,2083 6,2112 2,1260 0,702 2,446 10,400 43,208 198,52 398,11 c 71,-15 1628,-15 1692,0 174,40 322,190 365,370 22,94 22,1579 0,1683 -21,98 -66,187 -127,252 -61,64 -113,98 -201,128 -61,21 -75,21 -867,23 -640,1 -817,-1 -865,-12 z m 1737,-163 c 74,-36 132,-95 170,-170 l 23,-47 0,-840 0,-840 -28,-57 c -37,-76 -96,-134 -171,-169 l -63,-29 -839,2 -839,3 -50,27 C 273,204 196,285 167,348 l -22,47 0,840 0,840 27,52 c 53,100 128,162 227,189 35,10 236,12 856,11 l 810,-2 67,-33 z"
       id="path8" />
  </g>
  <g fill="#000000"
     style="font-size:420.84954834px;font-style:normal;font-variant:normal;font-weight:bold;font-stretch:normal;text-align:start;line-height:125%;letter-spacing:0px;word-spacing:0px;writing-mode:lr-tb;text-anchor:start;fill:#000000;fill-opacity:1;stroke:none;font-family:Arial;-inkscape-font-specification:Arial Bold"
     id="text2993">
    <path
       d="m 326.66796,329.99799 0,53.63366 -202.41055,0 c 2.19191,-20.27528 8.76768,-39.48885 19.72732,-57.64077 10.95958,-18.1518 32.60482,-42.2287 64.93577,-72.23077 26.02899,-24.24801 41.98892,-40.68743 47.87986,-49.3183 7.94557,-11.9184 11.91843,-23.69999 11.91859,-35.34479 -1.6e-4,-12.87733 -3.45929,-22.77523 -10.3774,-29.69373 -6.9184,-6.91801 -16.47381,-10.37714 -28.66626,-10.37739 -12.05569,2.5e-4 -21.64535,3.63062 -28.76901,10.89112 -7.12384,7.26099 -11.23369,19.31656 -12.32958,36.16676 l -57.53803,-5.7538 c 3.42487,-31.78267 14.17899,-54.59236 32.2624,-68.42915 18.08331,-13.836232 40.68751,-20.754488 67.81267,-20.75479 29.72783,3.02e-4 53.0855,8.014519 70.07309,24.04267 16.98721,16.02872 25.48091,35.96151 25.48113,59.79845 -2.2e-4,13.56274 -2.43188,26.47453 -7.295,38.73542 -4.86354,12.26125 -12.56951,25.10454 -23.11796,38.52993 -6.98693,8.90482 -19.59049,21.71387 -37.8107,38.42718 -18.2205,16.71351 -29.76234,27.81012 -34.62556,33.28985 -4.86344,5.47988 -8.80205,10.82269 -11.81585,16.02845 z"
       style=""
       id="path2994" />
  </g>
</svg>
