<?xml version="1.0" encoding="UTF-8" standalone="no"?>
<!-- Created with Inkscape (http://www.inkscape.org/) -->

<svg
   xmlns:dc="http://purl.org/dc/elements/1.1/"
   xmlns:cc="http://creativecommons.org/ns#"
   xmlns:rdf="http://www.w3.org/1999/02/22-rdf-syntax-ns#"
   xmlns:svg="http://www.w3.org/2000/svg"
   xmlns="http://www.w3.org/2000/svg"
   xmlns:sodipodi="http://sodipodi.sourceforge.net/DTD/sodipodi-0.dtd"
   xmlns:inkscape="http://www.inkscape.org/namespaces/inkscape"
   version="1.0"
   width="468pt"
   height="468pt"
   viewBox="0 0 468 468"
   id="svg2"
   inkscape:version="0.48.4 r9939"
   sodipodi:docname="3.svg">
  <sodipodi:namedview
     pagecolor="#ffffff"
     bordercolor="#666666"
     borderopacity="1"
     objecttolerance="10"
     gridtolerance="10"
     guidetolerance="10"
     inkscape:pageopacity="0"
     inkscape:pageshadow="2"
     inkscape:window-width="1858"
     inkscape:window-height="1057"
     id="namedview9"
     showgrid="false"
     inkscape:zoom="0.4034188"
     inkscape:cx="292.5"
     inkscape:cy="292.5"
     inkscape:window-x="1734"
     inkscape:window-y="-8"
     inkscape:window-maximized="1"
     inkscape:current-layer="svg2" />
  <defs
     id="defs12" />
  <metadata
     id="metadata4">
Created by potrace 1.8, written by Peter Selinger 2001-2007
<rdf:RDF>
  <cc:Work
     rdf:about="">
    <dc:format>image/svg+xml</dc:format>
    <dc:type
       rdf:resource="http://purl.org/dc/dcmitype/StillImage" />
    <dc:title></dc:title>
  </cc:Work>
</rdf:RDF>
</metadata>
  <g fill="#000000"
     transform="matrix(0.189474,0,0,-0.189474,0,468)"
     id="g6">
    <path
       d="M 395,2455 C 244,2422 112,2322 57,2200 5,2083 6,2112 2,1260 0,702 2,446 10,400 43,208 198,52 398,11 c 71,-15 1628,-15 1692,0 174,40 322,190 365,370 22,94 22,1579 0,1683 -21,98 -66,187 -127,252 -61,64 -113,98 -201,128 -61,21 -75,21 -867,23 -640,1 -817,-1 -865,-12 z m 1737,-163 c 74,-36 132,-95 170,-170 l 23,-47 0,-840 0,-840 -28,-57 c -37,-76 -96,-134 -171,-169 l -63,-29 -839,2 -839,3 -50,27 C 273,204 196,285 167,348 l -22,47 0,840 0,840 27,52 c 53,100 128,162 227,189 35,10 236,12 856,11 l 810,-2 67,-33 z"
       id="path8" />
  </g>
  <g fill="#000000"
     style="font-size:420.84954834px;font-style:normal;font-variant:normal;font-weight:bold;font-stretch:normal;text-align:start;line-height:125%;letter-spacing:0px;word-spacing:0px;writing-mode:lr-tb;text-anchor:start;fill:#000000;fill-opacity:1;stroke:none;font-family:Arial;-inkscape-font-specification:Arial Bold"
     id="text2993">
    <path
       d="m 129.60022,303.6949 55.89408,-6.78127 c 1.78087,14.24758 6.5757,25.1387 14.38451,32.67338 7.80864,7.53479 17.2613,11.30215 28.35803,11.30211 11.91846,4e-5 21.95336,-4.5208 30.10471,-13.56253 8.15107,-9.04163 12.22668,-21.2342 12.22683,-36.57775 -1.5e-4,-14.52139 -3.90452,-26.02898 -11.71309,-34.52281 -7.80887,-8.49357 -17.33004,-12.74042 -28.56352,-12.74056 -7.39786,1.4e-4 -16.23405,1.43858 -26.50859,4.31535 l 6.37028,-47.05789 c 15.61735,0.41117 27.53593,-2.97946 35.75577,-10.1719 8.21958,-7.19205 12.32943,-16.74746 12.32958,-28.66626 -1.5e-4,-10.13742 -3.01404,-18.22014 -9.04169,-24.24817 -6.02793,-6.02754 -14.04214,-9.04144 -24.04268,-9.04169 -9.86376,2.5e-4 -18.28896,3.42513 -25.27563,10.27465 -6.98684,6.85 -11.23369,16.85065 -12.74056,30.00197 l -53.22267,-9.04169 c 3.69885,-18.22013 9.2814,-32.77587 16.74767,-43.66725 7.4662,-10.89085 17.87783,-19.453048 31.23493,-25.686621 13.35696,-6.232987 28.32368,-9.349627 44.90021,-9.349929 28.35788,3.02e-4 51.09908,9.041983 68.22365,27.12507 14.11032,14.79575 21.16557,31.50916 21.16578,50.14028 -2.1e-4,26.44029 -14.45319,47.53754 -43.35901,63.29182 17.26123,3.69903 31.06349,11.98724 41.40682,24.86465 10.34294,12.87768 15.51451,28.42663 15.51472,46.6469 -2.1e-4,26.44015 -9.65837,48.97586 -28.9745,67.60718 -19.31651,18.63136 -43.35916,27.94703 -72.12803,27.94704 -27.26215,-10e-6 -49.86635,-7.84298 -67.81267,-23.52895 -17.94641,-15.68592 -28.35804,-36.20095 -31.23493,-61.54513 z"
       style=""
       id="path2999" />
  </g>
</svg>
