<?xml version="1.0" encoding="utf-8"?>
<!-- Generator: Adobe Illustrator 21.1.0, SVG Export Plug-In . SVG Version: 6.00 Build 0)  -->
<svg xmlns:cc="http://creativecommons.org/ns#" xmlns:dc="http://purl.org/dc/elements/1.1/" xmlns:inkscape="http://www.inkscape.org/namespaces/inkscape" xmlns:rdf="http://www.w3.org/1999/02/22-rdf-syntax-ns#" xmlns:sodipodi="http://sodipodi.sourceforge.net/DTD/sodipodi-0.dtd" xmlns:svg="http://www.w3.org/2000/svg" xmlns="http://www.w3.org/2000/svg" xmlns:xlink="http://www.w3.org/1999/xlink" version="1.1" id="svg2" inkscape:version="0.48.4 r9939" sodipodi:docname="9.svg" x="0px" y="0px" viewBox="0 0 468 468" xml:space="preserve">
<sodipodi:namedview bordercolor="#000000" borderopacity="0" gridtolerance="10" guidetolerance="10" id="namedview9" inkscape:current-layer="svg2" inkscape:cx="292.5" inkscape:cy="292.5" inkscape:pageopacity="0" inkscape:pageshadow="2" inkscape:window-height="1057" inkscape:window-maximized="1" inkscape:window-width="1858" inkscape:window-x="1734" inkscape:window-y="-8" inkscape:zoom="0.4034188" objecttolerance="10" pagecolor="#ffffff" showgrid="false">
	</sodipodi:namedview>
<g fill="#000000">
	<g fill="#000000" id="g6" transform="matrix(0.189474,0,0,-0.189474,0,468)">
		<path fill="#000000" id="path8" d="M395,2455c-151-33-283-133-338-255c-52-117-51-88-55-940c-2-558,0-814,8-860C43,208,198,52,398,11   c71-15,1628-15,1692,0c174,40,322,190,365,370c22,94,22,1579,0,1683c-21,98-66,187-127,252c-61,64-113,98-201,128   c-61,21-75,21-867,23C620,2468,443,2466,395,2455z M2132,2292c74-36,132-95,170-170l23-47v-840V395l-28-57c-37-76-96-134-171-169   l-63-29l-839,2l-839,3l-50,27c-62,32-139,113-168,176l-22,47v840v840l27,52c53,100,128,162,227,189c35,10,236,12,856,11l810-2   L2132,2292z"/>
	</g>
	<g fill="#000000">
		<path fill="#000000" d="M132.9,314l55.9-6.2c1.4,11.4,4.9,19.8,10.7,25.3c5.8,5.5,13.4,8.2,22.8,8.2c11.9,0,22.1-5.5,30.4-16.4    c8.4-11,13.7-33.7,16-68.2c-14.5,16.9-32.7,25.3-54.5,25.3c-23.7,0-44.1-9.1-61.3-27.4c-17.2-18.3-25.8-42.1-25.8-71.4    c0-30.5,9.1-55.2,27.2-73.9c18.2-18.7,41.3-28,69.4-28c30.5,0,55.6,11.8,75.2,35.4c19.6,23.6,29.4,62.5,29.4,116.6    c0,55.1-10.2,94.8-30.6,119.2c-20.4,24.4-47,36.6-79.7,36.6c-23.6,0-42.6-6.3-57.1-18.8C146.3,357.6,137,338.9,132.9,314z     M263.6,187.8c0-18.6-4.3-33.1-12.8-43.4c-8.6-10.3-18.5-15.4-29.7-15.4c-10.7,0-19.6,4.2-26.6,12.6c-7.1,8.4-10.6,22.2-10.6,41.4    c0,19.5,3.8,33.7,11.5,42.8c7.7,9.1,17.3,13.7,28.8,13.7c11.1,0,20.4-4.4,28-13.2C259.8,217.7,263.6,204.8,263.6,187.8z"/>
	</g>
</g>
</svg>
