<?xml version="1.0" encoding="UTF-8" standalone="no"?>
<!-- Created with Inkscape (http://www.inkscape.org/) -->

<svg
   xmlns:dc="http://purl.org/dc/elements/1.1/"
   xmlns:cc="http://creativecommons.org/ns#"
   xmlns:rdf="http://www.w3.org/1999/02/22-rdf-syntax-ns#"
   xmlns:svg="http://www.w3.org/2000/svg"
   xmlns="http://www.w3.org/2000/svg"
   xmlns:sodipodi="http://sodipodi.sourceforge.net/DTD/sodipodi-0.dtd"
   xmlns:inkscape="http://www.inkscape.org/namespaces/inkscape"
   version="1.0"
   width="468pt"
   height="468pt"
   viewBox="0 0 468 468"
   id="svg2"
   inkscape:version="0.48.4 r9939"
   sodipodi:docname="audio.svg">
  <sodipodi:namedview
     pagecolor="#ffffff"
     bordercolor="#666666"
     borderopacity="1"
     objecttolerance="10"
     gridtolerance="10"
     guidetolerance="10"
     inkscape:pageopacity="0"
     inkscape:pageshadow="2"
     inkscape:window-width="640"
     inkscape:window-height="480"
     id="namedview9"
     showgrid="false"
     inkscape:zoom="0.4034188"
     inkscape:cx="292.5"
     inkscape:cy="292.5"
     inkscape:window-x="0"
     inkscape:window-y="0"
     inkscape:window-maximized="0"
     inkscape:current-layer="svg2" />
  <defs
     id="defs12" />
  <metadata
     id="metadata4">
Created by potrace 1.8, written by Peter Selinger 2001-2007
<rdf:RDF>
  <cc:Work
     rdf:about="">
    <dc:format>image/svg+xml</dc:format>
    <dc:type
       rdf:resource="http://purl.org/dc/dcmitype/StillImage" />
    <dc:title />
  </cc:Work>
</rdf:RDF>
</metadata>
  <g fill="#000000"
     transform="matrix(0.189474,0,0,-0.189474,0,468)"
     id="g6">
    <path
       d="M 395,2455 C 244,2422 112,2322 57,2200 5,2083 6,2112 2,1260 0,702 2,446 10,400 43,208 198,52 398,11 c 71,-15 1628,-15 1692,0 174,40 322,190 365,370 22,94 22,1579 0,1683 -21,98 -66,187 -127,252 -61,64 -113,98 -201,128 -61,21 -75,21 -867,23 -640,1 -817,-1 -865,-12 z m 1737,-163 c 74,-36 132,-95 170,-170 l 23,-47 0,-840 0,-840 -28,-57 c -37,-76 -96,-134 -171,-169 l -63,-29 -839,2 -839,3 -50,27 C 273,204 196,285 167,348 l -22,47 0,840 0,840 27,52 c 53,100 128,162 227,189 35,10 236,12 856,11 l 810,-2 67,-33 z"
       id="path8" />
  </g>
  <g fill="#000000"
     style="font-size:125.87387085px;font-style:normal;font-variant:normal;font-weight:bold;font-stretch:normal;text-align:start;line-height:125%;letter-spacing:0px;word-spacing:0px;writing-mode:lr-tb;text-anchor:start;fill:#000000;fill-opacity:1;stroke:none;font-family:Arial;-inkscape-font-specification:Arial Bold"
     id="text2993">
    <path
       d="m 122.93242,280.61111 -19.79072,0 -7.867116,-20.46679 -36.016645,0 -7.436884,20.46679 -19.299021,0 35.094717,-90.10307 19.237559,0 z M 89.435708,244.96324 77.020414,211.52799 64.850967,244.96324 z"
       style=""
       id="path2987" />
    <path
       d="m 132.52046,190.50804 18.19271,0 0,48.80071 c -2e-5,7.74423 0.22534,12.76361 0.67608,15.05815 0.77849,3.68774 2.63259,6.64815 5.5623,8.88124 2.92965,2.23313 6.93491,3.34969 12.01579,3.34967 5.16275,2e-5 9.05533,-1.05508 11.67775,-3.16528 2.62232,-2.11017 4.19984,-4.70181 4.73257,-7.77493 0.5326,-3.07306 0.79894,-8.17439 0.799,-15.304 l 0,-49.84556 18.19271,0 0,47.32563 c -8e-5,10.81731 -0.49178,18.45906 -1.47509,22.92527 -0.98346,4.46624 -2.79659,8.2359 -5.43937,11.30898 -2.64293,3.0731 -6.17698,5.52132 -10.60217,7.34469 -4.42531,1.82337 -10.20272,2.73505 -17.33224,2.73505 -8.6047,0 -15.12989,-0.99363 -19.5756,-2.9809 -4.44576,-1.98726 -7.95933,-4.56866 -10.54071,-7.74419 -2.58141,-3.17552 -4.28185,-6.5047 -5.10133,-9.98755 -1.18827,-5.16277 -1.7824,-12.78404 -1.7824,-22.86381 z"
       style=""
       id="path2989" />
    <path
       d="m 223.54547,190.50804 33.25086,0 c 7.49829,9e-5 13.21424,0.57373 17.14785,1.72093 5.28566,1.55712 9.81334,4.3229 13.58307,8.29735 3.76959,3.97461 6.6378,8.84034 8.60466,14.59719 1.9667,5.75699 2.95009,12.85583 2.95017,21.29653 -8e-5,7.41644 -0.92201,13.80846 -2.76578,19.1761 -2.25368,6.55595 -5.47018,11.86215 -9.64951,15.91862 -3.15511,3.0731 -7.41646,5.47011 -12.78407,7.19104 -4.01556,1.27021 -9.38322,1.90531 -16.103,1.90531 l -34.23425,0 z m 18.1927,15.24254 0,59.67946 13.58307,0 c 5.0808,10e-6 8.74802,-0.28681 11.00167,-0.86047 2.95012,-0.73752 5.39835,-1.98725 7.3447,-3.74917 1.94623,-1.76189 3.53399,-4.66083 4.76329,-8.69685 1.22917,-4.03597 1.84379,-9.5368 1.84385,-16.50251 -6e-5,-6.96562 -0.61468,-12.3128 -1.84385,-16.04154 -1.2293,-3.72862 -2.95023,-6.63782 -5.1628,-8.72759 -2.21268,-2.08963 -5.01943,-3.50325 -8.42027,-4.24086 -2.54047,-0.57357 -7.51888,-0.8604 -14.93523,-0.86047 z"
       style=""
       id="path2991" />
    <path
       d="m 314.01732,280.61111 0,-90.10307 18.19271,0 0,90.10307 z"
       style=""
       id="path2993" />
    <path
       d="m 345.7931,236.11273 c 0,-9.17825 1.37264,-16.88146 4.11795,-23.10965 2.04871,-4.58908 4.84522,-8.70702 8.38954,-12.35383 3.54428,-3.64666 7.42661,-6.35098 11.64702,-8.11297 5.61348,-2.37643 12.08746,-3.56469 19.42195,-3.56479 13.27569,1e-4 23.89834,4.11804 31.86796,12.35384 7.96947,8.23596 11.95424,19.68834 11.95433,34.35717 -9e-5,14.546 -3.95413,25.92668 -11.86213,34.14206 -7.90817,8.2154 -18.47959,12.3231 -31.71432,12.3231 -13.39872,0 -24.05209,-4.08721 -31.96016,-12.26164 -7.9081,-8.17441 -11.86214,-19.43216 -11.86214,-33.77329 z m 18.74587,-0.61461 c -3e-5,10.2027 2.35601,17.93664 7.06811,23.20184 4.71204,5.26525 10.69432,7.89787 17.94686,7.89785 7.25244,2e-5 13.20399,-2.61211 17.85467,-7.83638 4.65054,-5.22423 6.97584,-13.06061 6.97592,-23.50916 -8e-5,-10.32554 -2.26392,-18.02875 -6.79154,-23.10966 -4.52775,-5.08077 -10.54076,-7.62119 -18.03905,-7.62127 -7.49839,8e-5 -13.54213,2.57123 -18.13125,7.71347 -4.58917,5.14237 -6.88375,12.8968 -6.88372,23.26331 z"
       style=""
       id="path2995" />
  </g>
</svg>
