<?xml version="1.0" encoding="UTF-8" standalone="no"?>
<!-- Created with Inkscape (http://www.inkscape.org/) -->

<svg
   xmlns:dc="http://purl.org/dc/elements/1.1/"
   xmlns:cc="http://creativecommons.org/ns#"
   xmlns:rdf="http://www.w3.org/1999/02/22-rdf-syntax-ns#"
   xmlns:svg="http://www.w3.org/2000/svg"
   xmlns="http://www.w3.org/2000/svg"
   xmlns:sodipodi="http://sodipodi.sourceforge.net/DTD/sodipodi-0.dtd"
   xmlns:inkscape="http://www.inkscape.org/namespaces/inkscape"
   version="1.0"
   width="468pt"
   height="468pt"
   viewBox="0 0 468 468"
   id="svg2"
   inkscape:version="0.91 r13725"
   sodipodi:docname="rc_ASPECT.svg">
  <sodipodi:namedview
     pagecolor="#ffffff"
     bordercolor="#666666"
     borderopacity="1"
     objecttolerance="10"
     gridtolerance="10"
     guidetolerance="10"
     inkscape:pageopacity="0"
     inkscape:pageshadow="2"
     inkscape:window-width="1920"
     inkscape:window-height="1005"
     id="namedview3363"
     showgrid="false"
     inkscape:zoom="1.31"
     inkscape:cx="352.91661"
     inkscape:cy="281.30022"
     inkscape:window-x="-9"
     inkscape:window-y="891"
     inkscape:window-maximized="1"
     inkscape:current-layer="svg2"
     inkscape:snap-grids="true"
     showguides="false" />
  <defs
     id="defs12" />
  <metadata
     id="metadata4">
Created by potrace 1.8, written by Peter Selinger 2001-2007
<rdf:RDF>
  <cc:Work
     rdf:about="">
    <dc:format>image/svg+xml</dc:format>
    <dc:type
       rdf:resource="http://purl.org/dc/dcmitype/StillImage" />
    <dc:title></dc:title>
  </cc:Work>
</rdf:RDF>
</metadata>
  <g fill="#000000"
     transform="matrix(0.189474,0,0,-0.189474,0,468)"
     id="g6">
    <path
       d="M 395,2455 C 244,2422 112,2322 57,2200 5,2083 6,2112 2,1260 0,702 2,446 10,400 43,208 198,52 398,11 c 71,-15 1628,-15 1692,0 174,40 322,190 365,370 22,94 22,1579 0,1683 -21,98 -66,187 -127,252 -61,64 -113,98 -201,128 -61,21 -75,21 -867,23 -640,1 -817,-1 -865,-12 z m 1737,-163 c 74,-36 132,-95 170,-170 l 23,-47 0,-840 0,-840 -28,-57 c -37,-76 -96,-134 -171,-169 l -63,-29 -839,2 -839,3 -50,27 C 273,204 196,285 167,348 l -22,47 0,840 0,840 27,52 c 53,100 128,162 227,189 35,10 236,12 856,11 l 810,-2 67,-33 z"
       id="path8" />
  </g>
  <g fill="#000000"
     style="font-style:normal;font-variant:normal;font-weight:bold;font-stretch:normal;font-size:120px;line-height:125%;font-family:Arial;-inkscape-font-specification:'Arial, Bold';text-align:start;letter-spacing:0px;word-spacing:0px;writing-mode:lr-tb;text-anchor:start;fill:#000000;fill-opacity:1;stroke:none"
     id="text2993">
    <path
       d="m 120.5918,268.71982 -18.86719,0 -7.500001,-19.51172 -34.335937,0 -7.089844,19.51172 -18.398437,0 33.457031,-85.89844 18.339844,0 34.394534,85.89844 z m -31.933597,-33.98438 -11.835937,-31.875 -11.601563,31.875 23.4375,0 z"
       style=""
       id="path3384" />
    <path
       d="m 124.16602,250.96591 16.52343,-2.51953 q 1.05469,4.80469 4.27735,7.32422 3.22265,2.46094 9.02343,2.46094 6.38672,0 9.60938,-2.34375 2.16797,-1.64063 2.16797,-4.39453 0,-1.875 -1.17188,-3.10547 -1.23047,-1.17188 -5.50781,-2.16797 -19.92187,-4.39453 -25.25391,-8.02735 -7.38281,-5.03906 -7.38281,-14.0039 0,-8.08594 6.38672,-13.59375 6.38672,-5.50781 19.80469,-5.50781 12.77344,0 18.98437,4.16015 6.21094,4.16016 8.55469,12.30469 l -15.52734,2.87109 q -0.9961,-3.63281 -3.8086,-5.5664 -2.7539,-1.9336 -7.91015,-1.9336 -6.50391,0 -9.31641,1.81641 -1.875,1.28906 -1.875,3.33984 0,1.75782 1.64063,2.98828 2.22656,1.64063 15.35156,4.62891 13.18359,2.98828 18.39844,7.32422 5.15625,4.39453 5.15625,12.24609 0,8.55469 -7.14844,14.70703 -7.14844,6.15235 -21.15235,6.15235 -12.71484,0 -20.15625,-5.15625 -7.38281,-5.15625 -9.66796,-14.00391 z"
       style=""
       id="path3386" />
    <path
       d="m 196.29492,206.49326 15.35156,0 0,9.14062 q 2.98829,-4.6875 8.08594,-7.61719 5.09766,-2.92968 11.3086,-2.92968 10.83984,0 18.39843,8.49609 7.5586,8.49609 7.5586,23.67187 0,15.58594 -7.61719,24.25782 -7.61719,8.61328 -18.45703,8.61328 -5.15625,0 -9.375,-2.05078 -4.16016,-2.05078 -8.78906,-7.03125 l 0,31.34765 -16.46485,0 0,-85.89843 z m 16.28906,30.05859 q 0,10.48828 4.16016,15.52734 4.16016,4.98047 10.13672,4.98047 5.74219,0 9.55078,-4.57031 3.80859,-4.62891 3.80859,-15.11719 0,-9.78515 -3.92578,-14.53125 -3.92578,-4.74609 -9.72656,-4.74609 -6.03516,0 -10.01953,4.6875 -3.98438,4.6289 -3.98438,13.76953 z"
       style=""
       id="path3388" />
    <path
       d="m 306.1582,248.91513 16.40625,2.75391 q -3.16406,9.02343 -10.01953,13.76953 -6.79687,4.6875 -17.05078,4.6875 -16.23047,0 -24.02344,-10.60547 -6.15234,-8.49609 -6.15234,-21.44531 0,-15.46875 8.08594,-24.19922 8.08593,-8.78906 20.44922,-8.78906 13.88671,0 21.91406,9.19921 8.02734,9.14063 7.67578,28.06641 l -41.25,0 q 0.17578,7.32422 3.98437,11.42578 3.8086,4.04297 9.49219,4.04297 3.86719,0 6.50391,-2.10937 2.63672,-2.10938 3.98437,-6.79688 z m 0.9375,-16.64062 q -0.17578,-7.14844 -3.6914,-10.83985 -3.51563,-3.75 -8.55469,-3.75 -5.39063,0 -8.90625,3.92578 -3.51563,3.92578 -3.45703,10.66407 l 24.60937,0 z"
       style=""
       id="path3390" />
    <path
       d="m 391.17773,224.89169 -16.23046,2.92969 q -0.82032,-4.86328 -3.75,-7.32422 -2.8711,-2.46094 -7.5,-2.46094 -6.15235,0 -9.84375,4.27735 -3.63282,4.21875 -3.63282,14.17969 0,11.07421 3.69141,15.64453 3.75,4.57031 10.01953,4.57031 4.6875,0 7.67578,-2.63672 2.98828,-2.69531 4.21875,-9.19922 l 16.17188,2.75391 q -2.51953,11.13281 -9.66797,16.8164 -7.14844,5.6836 -19.16016,5.6836 -13.65234,0 -21.79687,-8.61328 -8.08594,-8.61328 -8.08594,-23.84766 0,-15.41016 8.14453,-23.96484 8.14453,-8.61328 22.03125,-8.61328 11.36719,0 18.04688,4.92187 6.73828,4.86328 9.66796,14.88281 z"
       style=""
       id="path3392" />
    <path
       d="m 432.25195,206.49326 0,13.125 -11.25,0 0,25.07812 q 0,7.61719 0.29297,8.90625 0.35156,1.23047 1.46485,2.05078 1.17187,0.82031 2.8125,0.82031 2.28515,0 6.62109,-1.58203 l 1.40625,12.77344 q -5.74219,2.46094 -13.00781,2.46094 -4.45313,0 -8.02735,-1.46485 -3.57422,-1.52343 -5.27343,-3.86718 -1.64063,-2.40235 -2.28516,-6.44532 -0.52734,-2.87109 -0.52734,-11.60156 l 0,-27.1289 -7.5586,0 0,-13.125 7.5586,0 0,-12.36329 16.52343,-9.60937 0,21.97266 11.25,0 z"
       style=""
       id="path3394" />
  </g>
</svg>
