<?xml version="1.0" encoding="UTF-8" standalone="no"?>
<!-- Created with Inkscape (http://www.inkscape.org/) -->

<svg
   xmlns:dc="http://purl.org/dc/elements/1.1/"
   xmlns:cc="http://creativecommons.org/ns#"
   xmlns:rdf="http://www.w3.org/1999/02/22-rdf-syntax-ns#"
   xmlns:svg="http://www.w3.org/2000/svg"
   xmlns="http://www.w3.org/2000/svg"
   version="1.0"
   width="468pt"
   height="468pt"
   viewBox="0 0 468 468"
   id="svg2">
  <defs
     id="defs12" />
  <metadata
     id="metadata4">
Created by potrace 1.8, written by Peter Selinger 2001-2007
<rdf:RDF>
  <cc:Work
     rdf:about="">
    <dc:format>image/svg+xml</dc:format>
    <dc:type
       rdf:resource="http://purl.org/dc/dcmitype/StillImage" />
    <dc:title></dc:title>
  </cc:Work>
</rdf:RDF>
</metadata>
  <g
     transform="matrix(0.189474,0,0,-0.189474,0,468)"
     id="g6">
    <path style="fill:#000000;"
       d="M 395,2455 C 244,2422 112,2322 57,2200 5,2083 6,2112 2,1260 0,702 2,446 10,400 43,208 198,52 398,11 c 71,-15 1628,-15 1692,0 174,40 322,190 365,370 22,94 22,1579 0,1683 -21,98 -66,187 -127,252 -61,64 -113,98 -201,128 -61,21 -75,21 -867,23 -640,1 -817,-1 -865,-12 z m 1737,-163 c 74,-36 132,-95 170,-170 l 23,-47 0,-840 0,-840 -28,-57 c -37,-76 -96,-134 -171,-169 l -63,-29 -839,2 -839,3 -50,27 C 273,204 196,285 167,348 l -22,47 0,840 0,840 27,52 c 53,100 128,162 227,189 35,10 236,12 856,11 l 810,-2 67,-33 z"
       id="path8" />
  </g>
  <path style="fill:#000000;"
     d="m 121.53111,98.16889 c -31.967848,24.30613 -45.309808,35.27031 -45.838198,37.64809 -0.52839,1.84938 0,4.49135 1.18889,6.34073 2.11357,3.17036 82.957888,65.78509 89.166518,68.95545 2.77407,1.45308 3.96296,1.32098 6.86913,-0.1321 1.98148,-1.05679 3.96295,-2.90617 4.49135,-3.96296 0.3963,-1.18889 0.79259,-15.19133 0.79259,-31.17526 l 0,-29.06168 78.33444,0.3963 c 71.46533,0.39629 78.86284,0.66049 85.46777,2.90616 10.56789,3.56666 17.56911,8.05802 24.96662,16.11603 7.66173,8.45431 12.54937,17.9654 14.53085,28.79748 1.84938,10.0395 1.84938,114.26526 0.1321,126.94672 -3.43457,23.24935 -20.34318,42.00734 -43.59253,48.21597 -4.49135,1.18889 -36.85549,1.58519 -131.04177,1.45309 l -125.229428,-0.2642 -3.30246,3.30246 c -1.84938,1.84938 -3.30246,4.22715 -3.30246,5.28394 0,3.83086 3.03826,8.71851 5.81233,9.5111 1.58518,0.2642 60.104848,0.39629 130.249178,0.2642 l 127.47511,-0.3963 8.8506,-3.03827 c 18.4938,-6.20863 35.9308,-21.39996 44.64931,-38.57277 8.58641,-17.04072 8.58641,-16.64442 8.58641,-87.84554 0,-58.78386 -0.2642,-65.52089 -2.37777,-73.3147 -7.13333,-25.36293 -26.28762,-45.17771 -51.78264,-53.89622 l -10.56788,-3.56666 -78.86284,-0.39629 -78.99494,-0.3963 0,-29.45798 c 0,-29.061684 0,-29.457981 -3.03827,-32.23205 -1.71728,-1.585183 -4.35925,-2.906168 -5.81234,-2.906168 -1.58518,0 -22.32465,14.927137 -47.81967,34.477728 z m 38.17648,39.62957 0,46.2345 -4.22715,-3.03827 c -2.37778,-1.58519 -16.11602,-12.02097 -30.38267,-23.11725 L 98.942262,137.93055 129.06073,114.81331 c 16.51232,-12.68146 30.11846,-23.249355 30.38266,-23.249355 0.13211,-0.1321 0.2642,20.739485 0.2642,46.234505 z"
     id="path8-0" />
</svg>
