<?xml version="1.0" encoding="UTF-8" standalone="no"?>
<!-- Created with Inkscape (http://www.inkscape.org/) -->

<svg
   xmlns:dc="http://purl.org/dc/elements/1.1/"
   xmlns:cc="http://creativecommons.org/ns#"
   xmlns:rdf="http://www.w3.org/1999/02/22-rdf-syntax-ns#"
   xmlns:svg="http://www.w3.org/2000/svg"
   xmlns="http://www.w3.org/2000/svg"
   version="1.0"
   width="468pt"
   height="468pt"
   viewBox="0 0 468 468"
   id="svg2">
  <defs
     id="defs12" />
  <metadata
     id="metadata4">
Created by potrace 1.8, written by Peter Selinger 2001-2007
<rdf:RDF>
  <cc:Work
     rdf:about="">
    <dc:format>image/svg+xml</dc:format>
    <dc:type
       rdf:resource="http://purl.org/dc/dcmitype/StillImage" />
    <dc:title></dc:title>
  </cc:Work>
</rdf:RDF>
</metadata>
  <g
     transform="matrix(0.189474,0,0,-0.189474,0,468)"
     id="g6">
    <path style="fill:#000000;"
       d="M 395,2455 C 244,2422 112,2322 57,2200 5,2083 6,2112 2,1260 0,702 2,446 10,400 43,208 198,52 398,11 c 71,-15 1628,-15 1692,0 174,40 322,190 365,370 22,94 22,1579 0,1683 -21,98 -66,187 -127,252 -61,64 -113,98 -201,128 -61,21 -75,21 -867,23 -640,1 -817,-1 -865,-12 z m 1737,-163 c 74,-36 132,-95 170,-170 l 23,-47 0,-840 0,-840 -28,-57 c -37,-76 -96,-134 -171,-169 l -63,-29 -839,2 -839,3 -50,27 C 273,204 196,285 167,348 l -22,47 0,840 0,840 27,52 c 53,100 128,162 227,189 35,10 236,12 856,11 l 810,-2 67,-33 z"
       id="path8" />
  </g>
  <path style="fill:#000000;"
     d="M 226.94877,64.644509 C 223.25025,68.786859 71.166842,267.76758 67.616262,273.24139 c -2.66294,4.14235 -1.92324,7.24911 2.95882,12.13117 2.07117,2.07118 18.64057,2.36705 163.178978,2.36705 160.66399,0 160.95986,0 164.95427,-3.10676 2.21912,-1.77529 3.84647,-4.43823 3.84647,-6.65734 0,-2.515 -23.67057,-34.76615 -78.70464,-106.81344 -43.34673,-56.66143 -80.332,-104.594327 -82.10729,-106.517561 -1.92323,-1.775292 -5.02999,-3.254703 -7.54499,-3.254703 -2.515,0 -5.47381,1.33147 -7.24911,3.254703 z m 76.92935,113.618731 67.31318,88.02493 -67.75701,0.44382 c -37.28114,0.14793 -98.82462,0.14793 -136.69753,0 l -68.940528,-0.44382 68.200828,-89.20846 c 37.57703,-49.11644 68.79258,-88.764636 69.53229,-88.024926 0.59176,0.59176 31.3635,40.831726 68.34877,89.208456 z"
     id="path8-2" />
  <path style="fill:#000000;"
     d="m 77.084482,313.80459 c -1.18353,0.44382 -3.84646,2.21912 -5.62176,3.99441 -7.10116,6.36147 -7.69293,9.32029 -7.69293,39.79614 0,27.3691 0.14794,28.99645 3.40264,33.58262 1.77529,2.66294 5.17794,6.36147 7.39706,7.98882 4.14235,3.10676 4.73411,3.10676 154.598398,3.55059 107.25726,0.29588 152.67516,0 158.14898,-1.18354 8.87646,-1.92323 15.97763,-8.72852 17.45705,-16.71733 0.59176,-2.81089 0.7397,-17.01323 0.44381,-31.51145 -0.44381,-29.44026 -1.18352,-31.95526 -10.50381,-37.57703 -4.58617,-2.81088 -8.58058,-2.95882 -160.07221,-2.81088 -85.362,0 -156.373688,0.44383 -157.557228,0.88765 z m 307.717388,43.34673 0,25.14998 -150.45605,-0.29589 -150.603988,-0.44382 -0.44382,-22.93086 c -0.14794,-12.57499 0,-23.67057 0.29588,-24.70616 0.59177,-1.62735 29.588208,-1.92323 151.047818,-1.92323 l 150.16016,0 0,25.14998 z"
     id="path10" />
</svg>
