<?xml version="1.0" encoding="UTF-8" standalone="no"?>
<!-- Created with Inkscape (http://www.inkscape.org/) -->

<svg
   xmlns:dc="http://purl.org/dc/elements/1.1/"
   xmlns:cc="http://creativecommons.org/ns#"
   xmlns:rdf="http://www.w3.org/1999/02/22-rdf-syntax-ns#"
   xmlns:svg="http://www.w3.org/2000/svg"
   xmlns="http://www.w3.org/2000/svg"
   version="1.0"
   width="468pt"
   height="468pt"
   viewBox="0 0 468 468"
   id="svg2">
  <defs
     id="defs12" />
  <metadata
     id="metadata4">
Created by potrace 1.8, written by Peter Selinger 2001-2007
<rdf:RDF>
  <cc:Work
     rdf:about="">
    <dc:format>image/svg+xml</dc:format>
    <dc:type
       rdf:resource="http://purl.org/dc/dcmitype/StillImage" />
    <dc:title></dc:title>
  </cc:Work>
</rdf:RDF>
</metadata>
  <g
     transform="matrix(0.189474,0,0,-0.189474,0,468)"
     id="g6">
    <path
       d="M 395,2455 C 244,2422 112,2322 57,2200 5,2083 6,2112 2,1260 0,702 2,446 10,400 43,208 198,52 398,11 c 71,-15 1628,-15 1692,0 174,40 322,190 365,370 22,94 22,1579 0,1683 -21,98 -66,187 -127,252 -61,64 -113,98 -201,128 -61,21 -75,21 -867,23 -640,1 -817,-1 -865,-12 z m 1737,-163 c 74,-36 132,-95 170,-170 l 23,-47 0,-840 0,-840 -28,-57 c -37,-76 -96,-134 -171,-169 l -63,-29 -839,2 -839,3 -50,27 C 273,204 196,285 167,348 l -22,47 0,840 0,840 27,52 c 53,100 128,162 227,189 35,10 236,12 856,11 l 810,-2 67,-33 z"
       id="path8" />
  </g>
  <g
     id="text2993"
     style="font-size:133.91072083px;font-style:normal;font-variant:normal;font-weight:bold;font-stretch:normal;text-align:start;line-height:125%;letter-spacing:0px;word-spacing:0px;writing-mode:lr-tb;text-anchor:start;fill:#000000;fill-opacity:1;stroke:none;font-family:Arial;-inkscape-font-specification:Arial Bold">
    <path
       d="m 101.66063,282.21396 0,-95.85602 71.07469,0 0,16.21576 -51.7204,0 0,21.25048 48.12416,0 0,16.15036 -48.12416,0 0,26.08905 53.55121,0 0,16.15037 -72.9055,0"
       id="path3061" />
    <path
       d="m 191.10881,282.21396 0,-95.85602 31.05839,0 c 11.76945,10e-5 19.44141,0.4796 23.01591,1.4385 5.49236,1.43859 10.09118,4.57712 13.79646,9.4156 3.70513,4.79506 5.55774,11.00673 5.55782,18.63503 -8e-5,5.88481 -1.06805,10.83235 -3.20392,14.84265 -2.13602,4.01039 -4.86044,7.17072 -8.17326,9.48098 -3.26937,2.26676 -6.60406,3.77064 -10.00407,4.51164 -4.62068,0.91544 -11.31185,1.37314 -20.07353,1.37311 l -12.61952,0 0,36.15851 -19.35428,0 m 19.35428,-79.64026 0,27.20061 10.59255,0 c 7.62833,5e-5 12.72844,-0.50124 15.30034,-1.50388 2.5718,-1.00253 4.57697,-2.5718 6.01553,-4.7078 1.48202,-2.13588 2.22306,-4.62055 2.22312,-7.45401 -6e-5,-3.48719 -1.02444,-6.36418 -3.07314,-8.63097 -2.04883,-2.26664 -4.64247,-3.68334 -7.78095,-4.25009 -2.31036,-0.43583 -6.95277,-0.65378 -13.92724,-0.65386 l -9.35021,0"
       id="path3063" />
    <path
       d="m 325.1503,246.97085 0,-16.15036 41.71633,0 0,38.18548 c -4.05403,3.92317 -9.93878,7.38863 -17.65425,10.39639 -7.67204,2.96417 -15.45298,4.44625 -23.34284,4.44625 -10.02591,0 -18.76584,-2.09235 -26.21982,-6.27706 -7.45404,-4.2283 -13.05544,-10.24381 -16.80423,-18.04657 -3.74881,-7.8463 -5.62321,-16.36828 -5.6232,-25.56596 -10e-6,-9.98222 2.09235,-18.85292 6.27707,-26.61214 4.18469,-7.75907 10.30918,-13.70919 18.37349,-17.8504 6.14625,-3.18203 13.79642,-4.77309 22.95052,-4.77319 11.9002,1e-4 21.18502,2.50656 27.85447,7.5194 6.71289,4.96943 11.02836,11.85676 12.94645,20.66201 l -19.22351,3.59623 c -1.35139,-4.70772 -3.90144,-8.41293 -7.65018,-11.11563 -3.70527,-2.74614 -8.34768,-4.11924 -13.92723,-4.11933 -8.45665,9e-5 -15.19141,2.68091 -20.20431,8.04249 -4.96937,5.36173 -7.45404,13.31703 -7.45401,23.86593 -3e-5,11.37722 2.52823,19.92099 7.58479,25.63135 5.05648,5.66681 11.68227,8.5002 19.87737,8.50019 4.05388,1e-5 8.10781,-0.78462 12.16181,-2.3539 4.09746,-1.61284 7.60651,-3.55262 10.52716,-5.81936 l 0,-12.16182 -22.16588,0"
       id="path3065" />
  </g>
</svg>
