<?xml version="1.0" encoding="UTF-8" standalone="no"?>
<!-- Created with Inkscape (http://www.inkscape.org/) -->

<svg
   xmlns:dc="http://purl.org/dc/elements/1.1/"
   xmlns:cc="http://creativecommons.org/ns#"
   xmlns:rdf="http://www.w3.org/1999/02/22-rdf-syntax-ns#"
   xmlns:svg="http://www.w3.org/2000/svg"
   xmlns="http://www.w3.org/2000/svg"
   version="1.0"
   width="468pt"
   height="468pt"
   viewBox="0 0 468 468"
   id="svg2">
  <defs
     id="defs12" />
  <metadata
     id="metadata4">
Created by potrace 1.8, written by Peter Selinger 2001-2007
<rdf:RDF>
  <cc:Work
     rdf:about="">
    <dc:format>image/svg+xml</dc:format>
    <dc:type
       rdf:resource="http://purl.org/dc/dcmitype/StillImage" />
    <dc:title></dc:title>
  </cc:Work>
</rdf:RDF>
</metadata>
  <g fill="#000000"
     transform="matrix(0.189474,0,0,-0.189474,0,468)"
     id="g6">
    <path
       d="M 395,2455 C 244,2422 112,2322 57,2200 5,2083 6,2112 2,1260 0,702 2,446 10,400 43,208 198,52 398,11 c 71,-15 1628,-15 1692,0 174,40 322,190 365,370 22,94 22,1579 0,1683 -21,98 -66,187 -127,252 -61,64 -113,98 -201,128 -61,21 -75,21 -867,23 -640,1 -817,-1 -865,-12 z m 1737,-163 c 74,-36 132,-95 170,-170 l 23,-47 0,-840 0,-840 -28,-57 c -37,-76 -96,-134 -171,-169 l -63,-29 -839,2 -839,3 -50,27 C 273,204 196,285 167,348 l -22,47 0,840 0,840 27,52 c 53,100 128,162 227,189 35,10 236,12 856,11 l 810,-2 67,-33 z"
       id="path8" />
  </g>
  <g fill="#000000"
     id="text2993"
     style="font-size:133.91072083px;font-style:normal;font-variant:normal;font-weight:bold;font-stretch:normal;text-align:start;line-height:125%;letter-spacing:0px;word-spacing:0px;writing-mode:lr-tb;text-anchor:start;fill:#000000;fill-opacity:1;stroke:none;font-family:Arial;-inkscape-font-specification:Arial Bold">
    <path
       d="m 40.729947,286.46216 0,-95.85602 19.354284,0 0,37.72778 37.923935,0 0,-37.72778 19.354284,0 0,95.85602 -19.354284,0 0,-41.91249 -37.923935,0 0,41.91249 z"
       id="path3009" />
    <path
       d="m 133.51281,239.12263 c 0,-9.76427 1.46028,-17.95932 4.38087,-24.58518 2.17952,-4.88208 5.15459,-9.26294 8.9252,-13.1426 3.77058,-3.87949 7.90079,-6.75647 12.39067,-8.63096 5.97189,-2.52817 12.85922,-3.7923 20.662,-3.7924 14.12333,1e-4 25.42422,4.38096 33.90269,13.14261 8.4783,8.76181 12.7175,20.94541 12.7176,36.55082 -1e-4,15.47474 -4.2066,27.58206 -12.61952,36.32198 -8.41309,8.73994 -19.65948,13.10991 -33.73922,13.10991 -14.25421,0 -25.58779,-4.34817 -34.00077,-13.04453 -8.41302,-8.69633 -12.61952,-20.67287 -12.61952,-35.92965 z m 19.94276,-0.65386 c -3e-5,10.85412 2.50644,19.08187 7.5194,24.68325 5.0129,5.60142 11.37714,8.40212 19.09274,8.40211 7.7155,1e-5 14.04705,-2.77889 18.99466,-8.33673 4.94747,-5.55779 7.42124,-13.89451 7.42132,-25.01018 -8e-5,-10.9848 -2.40846,-19.17985 -7.22516,-24.58517 -4.81684,-5.40517 -11.21378,-8.1078 -19.19082,-8.10788 -7.97715,8e-5 -14.40677,2.7354 -19.2889,8.20596 -4.88219,5.4707 -7.32327,13.72024 -7.32324,24.74864 z"
       id="path3011" />
    <path
       d="m 241.26911,286.46216 0,-95.85602 28.96604,0 17.3927,65.3861 17.19654,-65.3861 29.03143,0 0,95.85602 -17.98118,0 0,-75.45555 -19.02735,75.45555 -18.63504,0 -18.96197,-75.45555 0,75.45555 z"
       id="path3013" />
    <path
       d="m 353.21009,286.46216 0,-95.85602 71.07469,0 0,16.21576 -51.7204,0 0,21.25048 48.12416,0 0,16.15036 -48.12416,0 0,26.08905 53.55121,0 0,16.15037 z"
       id="path3015" />
  </g>
</svg>
