<?xml version="1.0" encoding="UTF-8" standalone="no"?>
<!-- Created with Inkscape (http://www.inkscape.org/) -->

<svg
   xmlns:dc="http://purl.org/dc/elements/1.1/"
   xmlns:cc="http://creativecommons.org/ns#"
   xmlns:rdf="http://www.w3.org/1999/02/22-rdf-syntax-ns#"
   xmlns:svg="http://www.w3.org/2000/svg"
   xmlns="http://www.w3.org/2000/svg"
   version="1.0"
   width="468pt"
   height="468pt"
   viewBox="0 0 468 468"
   id="svg2">
  <defs
     id="defs12" />
  <metadata
     id="metadata4">
Created by potrace 1.8, written by Peter Selinger 2001-2007
<rdf:RDF>
  <cc:Work
     rdf:about="">
    <dc:format>image/svg+xml</dc:format>
    <dc:type
       rdf:resource="http://purl.org/dc/dcmitype/StillImage" />
    <dc:title></dc:title>
  </cc:Work>
</rdf:RDF>
</metadata>
  <g fill="#000000"
     transform="matrix(0.189474,0,0,-0.189474,0,468)"
     id="g6">
    <path
       d="M 395,2455 C 244,2422 112,2322 57,2200 5,2083 6,2112 2,1260 0,702 2,446 10,400 43,208 198,52 398,11 c 71,-15 1628,-15 1692,0 174,40 322,190 365,370 22,94 22,1579 0,1683 -21,98 -66,187 -127,252 -61,64 -113,98 -201,128 -61,21 -75,21 -867,23 -640,1 -817,-1 -865,-12 z m 1737,-163 c 74,-36 132,-95 170,-170 l 23,-47 0,-840 0,-840 -28,-57 c -37,-76 -96,-134 -171,-169 l -63,-29 -839,2 -839,3 -50,27 C 273,204 196,285 167,348 l -22,47 0,840 0,840 27,52 c 53,100 128,162 227,189 35,10 236,12 856,11 l 810,-2 67,-33 z"
       id="path8" />
  </g>
  <g fill="#000000"
     transform="matrix(1.4001727,0,0,1.4001727,36.718393,198.89022)"
     id="g3011">
    <path
       d="m 277.54724,0.03543307 0,19.98425093 -0.0709,6.555118 0.0709,4.854331 0,17.503936 -19.13386,0 0,-48.89763593 z"
       id="path3013"
       style="fill:#000000;fill-opacity:1;fill-rule:nonzero;stroke:none" />
    <path
       d="m 250.58267,12.897637 0,36.070865 -18.49606,0 0,-36.744093 -17.64567,0 0,36.744093 -18.46063,0 0,-36.744093 -17.64567,0 0,36.744093 -18.53149,0 0,-48.93306893 78.02362,0 c 3.50787,0 6.51968,1.24015743 9,3.75590533 2.51575,2.4803149 3.7559,5.5275589 3.7559,9.1062986 z"
       id="path3015"
       style="fill:#000000;fill-opacity:1;fill-rule:nonzero;stroke:none" />
    <path
       d="m 152.07874,12.897637 0,23.173228 c 0,3.57874 -1.27559,6.625984 -3.79134,9.141732 -2.51575,2.480315 -5.56299,3.720472 -9.07087,3.720472 l -59.173224,0 -0.07087,-28.913385 18.531496,0 0.07087,16.759842 34.972438,0 0,-24.59055 -53.5748,0 0.07087,-12.15354293 59.17322,0 c 3.50788,0 6.55512,1.24015743 9.07087,3.75590533 2.51575,2.4803149 3.79134,5.5275589 3.79134,9.1062986 z"
       id="path3017"
       style="fill:#000000;fill-opacity:1;fill-rule:nonzero;stroke:none" />
    <path
       d="m 52.51181,0.03543307 19.452756,0 0,48.89763593 -19.452756,0 0,-17.503936 -33.377952,0 0,17.503936 -19.133858,0 0,-48.89763593 19.133858,0 0,19.98425093 33.377952,0 z"
       id="path3019"
       style="fill:#000000;fill-opacity:1;fill-rule:nonzero;stroke:none" />
  </g>
</svg>
