<?xml version="1.0" encoding="UTF-8" standalone="no"?>
<!-- Created with Inkscape (http://www.inkscape.org/) -->

<svg
   xmlns:dc="http://purl.org/dc/elements/1.1/"
   xmlns:cc="http://creativecommons.org/ns#"
   xmlns:rdf="http://www.w3.org/1999/02/22-rdf-syntax-ns#"
   xmlns:svg="http://www.w3.org/2000/svg"
   xmlns="http://www.w3.org/2000/svg"
   version="1.0"
   width="468pt"
   height="468pt"
   viewBox="0 0 468 468"
   id="svg2">
  <defs
     id="defs12" />
  <metadata
     id="metadata4">
Created by potrace 1.8, written by Peter Selinger 2001-2007
<rdf:RDF>
  <cc:Work
     rdf:about="">
    <dc:format>image/svg+xml</dc:format>
    <dc:type
       rdf:resource="http://purl.org/dc/dcmitype/StillImage" />
    <dc:title></dc:title>
  </cc:Work>
</rdf:RDF>
</metadata>
  <g
     transform="matrix(0.189474,0,0,-0.189474,0,468)"
     id="g6">
    <path
       d="M 395,2455 C 244,2422 112,2322 57,2200 5,2083 6,2112 2,1260 0,702 2,446 10,400 43,208 198,52 398,11 c 71,-15 1628,-15 1692,0 174,40 322,190 365,370 22,94 22,1579 0,1683 -21,98 -66,187 -127,252 -61,64 -113,98 -201,128 -61,21 -75,21 -867,23 -640,1 -817,-1 -865,-12 z m 1737,-163 c 74,-36 132,-95 170,-170 l 23,-47 0,-840 0,-840 -28,-57 c -37,-76 -96,-134 -171,-169 l -63,-29 -839,2 -839,3 -50,27 C 273,204 196,285 167,348 l -22,47 0,840 0,840 27,52 c 53,100 128,162 227,189 35,10 236,12 856,11 l 810,-2 67,-33 z"
       id="path8" />
  </g>
  <g
     id="text2993"
     style="font-size:133.91072083px;font-style:normal;font-variant:normal;font-weight:bold;font-stretch:normal;text-align:start;line-height:125%;letter-spacing:0px;word-spacing:0px;writing-mode:lr-tb;text-anchor:start;fill:#000000;fill-opacity:1;stroke:none;font-family:Arial;-inkscape-font-specification:Arial Bold">
    <path
       d="m 63.540542,282.21396 0,-95.85602 19.354284,0 0,37.72778 37.923934,0 0,-37.72778 19.35428,0 0,95.85602 -19.35428,0 0,-41.91249 -37.923934,0 0,41.91249 -19.354284,0"
       id="path2995" />
    <path
       d="m 160.24657,282.21396 0,-95.85602 71.07469,0 0,16.21576 -51.7204,0 0,21.25048 48.12416,0 0,16.15036 -48.12416,0 0,26.08905 53.55121,0 0,16.15037 -72.9055,0"
       id="path2997" />
    <path
       d="m 250.21783,282.21396 0,-95.07138 19.35429,0 0,78.92101 48.12416,0 0,16.15037 -67.47845,0"
       id="path2999" />
    <path
       d="m 331.55813,282.21396 0,-95.85602 31.0584,0 c 11.76944,10e-5 19.4414,0.4796 23.0159,1.4385 5.49237,1.43859 10.09118,4.57712 13.79647,9.4156 3.70513,4.79506 5.55773,11.00673 5.55782,18.63503 -9e-5,5.88481 -1.06806,10.83235 -3.20392,14.84265 -2.13603,4.01039 -4.86044,7.17072 -8.17326,9.48098 -3.26938,2.26676 -6.60406,3.77064 -10.00408,4.51164 -4.62067,0.91544 -11.31184,1.37314 -20.07353,1.37311 l -12.61951,0 0,36.15851 -19.35429,0 m 19.35429,-79.64026 0,27.20061 10.59254,0 c 7.62833,5e-5 12.72844,-0.50124 15.30035,-1.50388 2.5718,-1.00253 4.57697,-2.5718 6.01552,-4.7078 1.48202,-2.13588 2.22306,-4.62055 2.22313,-7.45401 -7e-5,-3.48719 -1.02445,-6.36418 -3.07315,-8.63097 -2.04882,-2.26664 -4.64247,-3.68334 -7.78094,-4.25009 -2.31036,-0.43583 -6.95277,-0.65378 -13.92724,-0.65386 l -9.35021,0"
       id="path3001" />
  </g>
</svg>
