<?xml version="1.0" encoding="UTF-8" standalone="no"?>
<!-- Created with Inkscape (http://www.inkscape.org/) -->

<svg
   xmlns:dc="http://purl.org/dc/elements/1.1/"
   xmlns:cc="http://creativecommons.org/ns#"
   xmlns:rdf="http://www.w3.org/1999/02/22-rdf-syntax-ns#"
   xmlns:svg="http://www.w3.org/2000/svg"
   xmlns="http://www.w3.org/2000/svg"
   version="1.0"
   width="468pt"
   height="468pt"
   viewBox="0 0 468 468"
   id="svg2">
  <defs
     id="defs12" />
  <metadata
     id="metadata4">
Created by potrace 1.8, written by Peter Selinger 2001-2007
<rdf:RDF>
  <cc:Work
     rdf:about="">
    <dc:format>image/svg+xml</dc:format>
    <dc:type
       rdf:resource="http://purl.org/dc/dcmitype/StillImage" />
    <dc:title></dc:title>
  </cc:Work>
</rdf:RDF>
</metadata>
  <g
     transform="matrix(0.189474,0,0,-0.189474,0,468)"
     id="g6">
    <path
       d="M 395,2455 C 244,2422 112,2322 57,2200 5,2083 6,2112 2,1260 0,702 2,446 10,400 43,208 198,52 398,11 c 71,-15 1628,-15 1692,0 174,40 322,190 365,370 22,94 22,1579 0,1683 -21,98 -66,187 -127,252 -61,64 -113,98 -201,128 -61,21 -75,21 -867,23 -640,1 -817,-1 -865,-12 z m 1737,-163 c 74,-36 132,-95 170,-170 l 23,-47 0,-840 0,-840 -28,-57 c -37,-76 -96,-134 -171,-169 l -63,-29 -839,2 -839,3 -50,27 C 273,204 196,285 167,348 l -22,47 0,840 0,840 27,52 c 53,100 128,162 227,189 35,10 236,12 856,11 l 810,-2 67,-33 z"
       id="path8" />
  </g>
  <g
     id="text2993"
     style="font-size:133.91072083px;font-style:normal;font-variant:normal;font-weight:bold;font-stretch:normal;text-align:start;line-height:125%;letter-spacing:0px;word-spacing:0px;writing-mode:lr-tb;text-anchor:start;fill:#000000;fill-opacity:1;stroke:none;font-family:Arial;-inkscape-font-specification:Arial Bold">
    <path
       d="m 81.554406,282.21396 0,-95.85602 19.354284,0 0,95.85602 -19.354284,0"
       id="path3004" />
    <path
       d="m 119.47834,282.21396 0,-95.85602 18.8312,0 39.23165,64.01299 0,-64.01299 17.98118,0 0,95.85602 -19.41967,0 -38.64318,-62.50911 0,62.50911 -17.98118,0"
       id="path3006" />
    <path
       d="m 216.18437,282.21396 0,-95.85602 65.71303,0 0,16.21576 -46.35874,0 0,22.68897 40.01629,0 0,16.21575 -40.01629,0 0,40.73554 -19.35429,0"
       id="path3008" />
    <path
       d="m 293.99382,234.87443 c 0,-9.76427 1.46029,-17.95932 4.38087,-24.58517 2.17953,-4.88209 5.14369,-9.26295 8.89251,-13.14261 3.79237,-3.87949 7.93349,-6.75647 12.42336,-8.63096 5.97189,-2.52817 12.85922,-3.7923 20.662,-3.7924 14.12333,1e-4 25.41332,4.38096 33.87,13.14261 8.5001,8.76181 12.75019,20.94541 12.75029,36.55082 -10e-5,15.47475 -4.2066,27.59296 -12.61952,36.35467 -8.41309,8.71815 -19.65948,13.07722 -33.73922,13.07722 -14.25421,0 -25.58779,-4.33727 -34.00077,-13.01183 -8.41302,-8.71813 -12.61952,-20.70557 -12.61952,-35.96235 m 19.94276,-0.65386 c -2e-5,10.85412 2.50644,19.09276 7.5194,24.71594 5.0129,5.57963 11.37714,8.36943 19.09274,8.36942 7.7155,1e-5 14.03615,-2.76799 18.96197,-8.30403 4.96927,-5.57959 7.45394,-13.92721 7.45401,-25.04288 -7e-5,-10.9848 -2.41936,-19.17985 -7.25785,-24.58517 -4.79505,-5.40517 -11.18108,-8.10779 -19.15813,-8.10788 -7.97715,9e-5 -14.40677,2.7463 -19.28889,8.23865 -4.88219,5.44891 -7.32327,13.68755 -7.32325,24.71595"
       id="path3010" />
  </g>
</svg>
