<?xml version="1.0" standalone="no"?>
<!DOCTYPE svg PUBLIC "-//W3C//DTD SVG 20010904//EN"
 "http://www.w3.org/TR/2001/REC-SVG-20010904/DTD/svg10.dtd">
<svg version="1.0" xmlns="http://www.w3.org/2000/svg"
 width="468pt" height="545pt" viewBox="0 0 468 545"
 preserveAspectRatio="xMidYMid meet">
<metadata>
Created by potrace 1.8, written by Peter Selinger 2001-2007
</metadata>
<g transform="translate(0,545) scale(0.237563,-0.237563)"
fill="#000000" stroke="none">
<path d="M750 1749 c-382 -291 -706 -541 -719 -554 -30 -30 -30 -70 0 -100 13
-13 337 -262 719 -554 517 -395 702 -531 722 -531 17 0 34 10 47 26 19 24 21
40 21 150 l0 124 175 0 c102 0 184 4 198 11 54 24 52 -3 55 779 2 399 0 745
-3 769 -4 26 -16 53 -30 67 -24 24 -28 24 -209 24 l-184 0 -4 139 c-3 153 -14
181 -67 181 -20 0 -212 -141 -721 -531z m648 -1063 l-3 -466 -599 457 c-330
252 -600 463 -600 468 0 6 270 216 600 468 l599 458 3 -460 c1 -253 1 -669 0
-925z m442 454 l0 -690 -150 0 -150 0 0 690 0 690 150 0 150 0 0 -690z"/>
</g>
</svg>
