<?xml version="1.0" encoding="UTF-8" standalone="no"?>
<!-- Created with Inkscape (http://www.inkscape.org/) -->

<svg
   xmlns:dc="http://purl.org/dc/elements/1.1/"
   xmlns:cc="http://creativecommons.org/ns#"
   xmlns:rdf="http://www.w3.org/1999/02/22-rdf-syntax-ns#"
   xmlns:svg="http://www.w3.org/2000/svg"
   xmlns="http://www.w3.org/2000/svg"
   xmlns:sodipodi="http://sodipodi.sourceforge.net/DTD/sodipodi-0.dtd"
   xmlns:inkscape="http://www.inkscape.org/namespaces/inkscape"
   version="1.0"
   width="468pt"
   height="468pt"
   viewBox="0 0 468 468"
   id="svg2"
   inkscape:version="0.48.4 r9939"
   sodipodi:docname="mediamenu.svg">
  <sodipodi:namedview
     pagecolor="#ffffff"
     bordercolor="#666666"
     borderopacity="1"
     objecttolerance="10"
     gridtolerance="10"
     guidetolerance="10"
     inkscape:pageopacity="0"
     inkscape:pageshadow="2"
     inkscape:window-width="640"
     inkscape:window-height="480"
     id="namedview9"
     showgrid="false"
     inkscape:zoom="0.4034188"
     inkscape:cx="292.5"
     inkscape:cy="292.5"
     inkscape:window-x="2445"
     inkscape:window-y="211"
     inkscape:window-maximized="0"
     inkscape:current-layer="svg2" />
  <defs
     id="defs12" />
  <metadata
     id="metadata4">
Created by potrace 1.8, written by Peter Selinger 2001-2007
<rdf:RDF>
  <cc:Work
     rdf:about="">
    <dc:format>image/svg+xml</dc:format>
    <dc:type
       rdf:resource="http://purl.org/dc/dcmitype/StillImage" />
    <dc:title></dc:title>
  </cc:Work>
</rdf:RDF>
</metadata>
  <g fill="#000000"
     transform="matrix(0.189474,0,0,-0.189474,0,468)"
     id="g6">
    <path
       d="M 395,2455 C 244,2422 112,2322 57,2200 5,2083 6,2112 2,1260 0,702 2,446 10,400 43,208 198,52 398,11 c 71,-15 1628,-15 1692,0 174,40 322,190 365,370 22,94 22,1579 0,1683 -21,98 -66,187 -127,252 -61,64 -113,98 -201,128 -61,21 -75,21 -867,23 -640,1 -817,-1 -865,-12 z m 1737,-163 c 74,-36 132,-95 170,-170 l 23,-47 0,-840 0,-840 -28,-57 c -37,-76 -96,-134 -171,-169 l -63,-29 -839,2 -839,3 -50,27 C 273,204 196,285 167,348 l -22,47 0,840 0,840 27,52 c 53,100 128,162 227,189 35,10 236,12 856,11 l 810,-2 67,-33 z"
       id="path8" />
  </g>
  <g fill="#000000"
     style="font-size:120px;font-style:normal;font-variant:normal;font-weight:bold;font-stretch:normal;text-align:center;line-height:125%;letter-spacing:0px;word-spacing:0px;writing-mode:lr-tb;text-anchor:middle;fill:#000000;fill-opacity:1;stroke:none;font-family:Arial;-inkscape-font-specification:Arial Bold"
     id="text2993">
    <path
       d="m 46.660156,203.8723 0,-85.89844 25.957031,0 15.585938,58.59375 15.410155,-58.59375 26.01563,0 0,85.89844 -16.11328,0 0,-67.61719 -17.050786,67.61719 -16.699219,0 -16.992188,-67.61719 0,67.61719 z"
       style=""
       id="path2993" />
    <path
       d="m 146.97266,203.8723 0,-85.89844 63.6914,0 0,14.53125 -46.34765,0 0,19.04297 43.125,0 0,14.47266 -43.125,0 0,23.3789 47.98828,0 0,14.47266 z"
       style=""
       id="path2995" />
    <path
       d="m 227.07031,117.97386 31.69922,0 c 7.14839,9e-5 12.5976,0.54696 16.34766,1.64063 5.039,1.48445 9.3554,4.12117 12.94922,7.91015 3.59367,3.78914 6.32805,8.42781 8.20312,13.91602 1.87492,5.48834 2.81242,12.25591 2.8125,20.30273 -8e-5,7.07035 -0.87898,13.16409 -2.63672,18.28125 -2.14851,6.25002 -5.21491,11.30861 -9.19922,15.17578 -3.00787,2.9297 -7.07037,5.21485 -12.1875,6.85547 -3.82817,1.21094 -8.94536,1.81641 -15.35156,1.81641 l -32.63672,0 z m 17.34375,14.53125 0,56.89453 12.94922,0 c 4.84371,2e-5 8.3398,-0.27342 10.48828,-0.82031 2.81245,-0.70311 5.14643,-1.89451 7.00196,-3.57422 1.85541,-1.67967 3.36908,-4.44333 4.54101,-8.29101 1.17181,-3.84763 1.75775,-9.09176 1.75781,-15.73243 -6e-5,-6.64057 -0.586,-11.73822 -1.75781,-15.29296 -1.17193,-3.55463 -2.81256,-6.32807 -4.92187,-8.32032 -2.10943,-1.99212 -4.78521,-3.33977 -8.02735,-4.04297 -2.42192,-0.5468 -7.16801,-0.82024 -14.23828,-0.82031 z"
       style=""
       id="path2997" />
    <path
       d="m 313.32031,203.8723 0,-85.89844 17.34375,0 0,85.89844 z"
       style=""
       id="path2999" />
    <path
       d="m 424.58984,203.8723 -18.86718,0 -7.5,-19.51172 -34.33594,0 -7.08985,19.51172 -18.39843,0 33.45703,-85.89844 18.33984,0 z m -31.93359,-33.98438 -11.83594,-31.875 -11.60156,31.875 z"
       style=""
       id="path3001" />
    <path
       d="m 63.300781,353.8723 0,-85.89844 25.957031,0 15.585938,58.59375 15.41016,-58.59375 26.01562,0 0,85.89844 -16.11328,0 0,-67.61719 -17.05078,67.61719 -16.69922,0 -16.992188,-67.61719 0,67.61719 z"
       style=""
       id="path3003" />
    <path
       d="m 163.61328,353.8723 0,-85.89844 63.69141,0 0,14.53125 -46.34766,0 0,19.04297 43.125,0 0,14.47266 -43.125,0 0,23.3789 47.98828,0 0,14.47266 z"
       style=""
       id="path3005" />
    <path
       d="m 243.94531,353.8723 0,-85.89844 16.875,0 35.15625,57.36328 0,-57.36328 16.11328,0 0,85.89844 -17.40234,0 -34.62891,-56.01563 0,56.01563 z"
       style=""
       id="path3007" />
    <path
       d="m 330.37109,267.97386 17.34375,0 0,46.52344 c -2e-5,7.38284 0.21482,12.168 0.64453,14.35547 0.74217,3.51564 2.50974,6.33791 5.30274,8.46679 2.79293,2.12893 6.61129,3.19338 11.45508,3.19336 4.92182,2e-5 8.63276,-1.00584 11.13281,-3.01757 2.49994,-2.0117 4.00385,-4.4824 4.51172,-7.41211 0.50775,-2.92966 0.76166,-7.79294 0.76172,-14.58985 l 0,-47.51953 17.34375,0 0,45.11719 c -8e-5,10.31253 -0.46883,17.59768 -1.40625,21.85547 -0.93758,4.25783 -2.66609,7.85157 -5.18555,10.78125 -2.5196,2.92969 -5.88874,5.26367 -10.10742,7.00195 -4.21881,1.73828 -9.72661,2.60742 -16.52344,2.60742 -8.20316,0 -14.42386,-0.94726 -18.66211,-2.84179 -4.2383,-1.89453 -7.58791,-4.35547 -10.04883,-7.38282 -2.46095,-3.02733 -4.08204,-6.20115 -4.86328,-9.52148 -1.13282,-4.92185 -1.69922,-12.18747 -1.69922,-21.79688 z"
       style=""
       id="path3009" />
  </g>
</svg>
