<?xml version="1.0" encoding="UTF-8" standalone="no"?>
<!-- Created with Inkscape (http://www.inkscape.org/) -->

<svg
   xmlns:dc="http://purl.org/dc/elements/1.1/"
   xmlns:cc="http://creativecommons.org/ns#"
   xmlns:rdf="http://www.w3.org/1999/02/22-rdf-syntax-ns#"
   xmlns:svg="http://www.w3.org/2000/svg"
   xmlns="http://www.w3.org/2000/svg"
   version="1.0"
   width="468pt"
   height="468pt"
   viewBox="0 0 468 468"
   id="svg2">
  <defs
     id="defs12" />
  <metadata
     id="metadata4">
Created by potrace 1.8, written by Peter Selinger 2001-2007
<rdf:RDF>
  <cc:Work
     rdf:about="">
    <dc:format>image/svg+xml</dc:format>
    <dc:type
       rdf:resource="http://purl.org/dc/dcmitype/StillImage" />
    <dc:title></dc:title>
  </cc:Work>
</rdf:RDF>
</metadata>
  <g
     transform="matrix(0.189474,0,0,-0.189474,0,468)"
     id="g6">
    <path style="fill:#000000;"
       d="M 395,2455 C 244,2422 112,2322 57,2200 5,2083 6,2112 2,1260 0,702 2,446 10,400 43,208 198,52 398,11 c 71,-15 1628,-15 1692,0 174,40 322,190 365,370 22,94 22,1579 0,1683 -21,98 -66,187 -127,252 -61,64 -113,98 -201,128 -61,21 -75,21 -867,23 -640,1 -817,-1 -865,-12 z m 1737,-163 c 74,-36 132,-95 170,-170 l 23,-47 0,-840 0,-840 -28,-57 c -37,-76 -96,-134 -171,-169 l -63,-29 -839,2 -839,3 -50,27 C 273,204 196,285 167,348 l -22,47 0,840 0,840 27,52 c 53,100 128,162 227,189 35,10 236,12 856,11 l 810,-2 67,-33 z"
       id="path8" />
  </g>
  <path style="fill:#000000;"
     d="m 48.748041,199.30455 c -1.837633,0.66823 -5.512904,3.67527 -8.352885,6.68231 -5.011731,5.17879 -5.011731,5.17879 -5.512904,28.06569 -0.501173,27.23041 1.169404,32.24214 13.197559,38.42327 l 7.350539,3.67527 179.92115,-0.3341 179.92114,-0.50118 4.67763,-3.50821 c 9.52228,-7.18349 11.35991,-12.69639 11.35991,-35.75036 0,-23.55513 -1.83763,-29.40215 -11.35991,-35.08211 -5.1788,-3.1741 -9.68936,-3.34116 -186.60347,-3.1741 -99.73344,0 -182.761124,0.66824 -184.598759,1.50352 z m 360.009359,36.75269 0,16.70578 -176.24588,0 -176.245881,0 0,-15.53637 c 0,-8.687 0.501172,-16.2046 1.169403,-16.70577 0.501173,-0.66823 79.853578,-1.16941 176.245878,-1.16941 l 175.07648,0 0,16.70577 z"
     id="path8-4" />
</svg>
