<?xml version="1.0" encoding="UTF-8" standalone="no"?>
<!-- Created with Inkscape (http://www.inkscape.org/) -->

<svg
   xmlns:dc="http://purl.org/dc/elements/1.1/"
   xmlns:cc="http://creativecommons.org/ns#"
   xmlns:rdf="http://www.w3.org/1999/02/22-rdf-syntax-ns#"
   xmlns:svg="http://www.w3.org/2000/svg"
   xmlns="http://www.w3.org/2000/svg"
   version="1.0"
   width="468pt"
   height="468pt"
   viewBox="0 0 468 468"
   id="svg2">
  <defs
     id="defs12" />
  <metadata
     id="metadata4">
Created by potrace 1.8, written by Peter Selinger 2001-2007
<rdf:RDF>
  <cc:Work
     rdf:about="">
    <dc:format>image/svg+xml</dc:format>
    <dc:type
       rdf:resource="http://purl.org/dc/dcmitype/StillImage" />
    <dc:title></dc:title>
  </cc:Work>
</rdf:RDF>
</metadata>
  <g fill="#000000"
     transform="matrix(0.189474,0,0,-0.189474,0,468)"
     id="g6">
    <path
       d="M 395,2455 C 244,2422 112,2322 57,2200 5,2083 6,2112 2,1260 0,702 2,446 10,400 43,208 198,52 398,11 c 71,-15 1628,-15 1692,0 174,40 322,190 365,370 22,94 22,1579 0,1683 -21,98 -66,187 -127,252 -61,64 -113,98 -201,128 -61,21 -75,21 -867,23 -640,1 -817,-1 -865,-12 z m 1737,-163 c 74,-36 132,-95 170,-170 l 23,-47 0,-840 0,-840 -28,-57 c -37,-76 -96,-134 -171,-169 l -63,-29 -839,2 -839,3 -50,27 C 273,204 196,285 167,348 l -22,47 0,840 0,840 27,52 c 53,100 128,162 227,189 35,10 236,12 856,11 l 810,-2 67,-33 z"
       id="path8" />
  </g>
  <g fill="#000000"
     transform="matrix(-0.38074944,0,0,0.38074944,346.92122,81.750963)"
     id="g3764">
    <path
       d="m 596.48032,8.9291342 8.8937,8.5039368 0,387.602379 0,387.60237 -8.8937,8.50394 c -4.6063,4.99606 -11.72834,8.8937 -15.27165,8.8937 -6.76772,0 -505.559063,-378.00001 -515.125992,-390.08269 -6.767717,-8.8937 -4.996063,-23.45669 3.543307,-31.6063 C 77.421261,381.22442 514.77166,46.204726 557.04331,15.307087 568.41733,6.7677168 580.14568,0.03543307 582.98032,0.03543307 c 2.48032,0 8.8937,3.89763793 13.5,8.89370113 z M 342.81496,238.78347 c -112.6063,85.96064 -207.46063,159.12993 -210.68504,162.35434 -5.66929,5.31496 7.83071,16.33465 208.55906,169.79528 l 214.93701,164.12599 0,-328.60631 c 0,-239.10237 -1.06299,-327.897649 -3.89764,-326.125996 -2.16141,1.062993 -96.30708,72.460636 -208.91339,158.456696 z"
       id="path3766"
       style="fill:#000000;fill-opacity:1;fill-rule:nonzero;stroke:none" />
    <path
       d="m 42.34252,785.16144 c -4.535433,19.20473 -26.397638,24.83859 -36.8149609,9.9567 L 0,787.1457 0,405.60238 0,24.023623 5.5275591,16.051182 c 7.8661419,-11.2322842 24.4133859,-11.2322842 32.2795279,0 l 5.527559,7.972441 0.389764,377.255917 c 0.212598,208.34647 -0.389764,380.2323 -1.38189,383.8819 z"
       id="path3768"
       style="fill:#000000;fill-opacity:1;fill-rule:nonzero;stroke:none" />
  </g>
</svg>
