<?xml version="1.0" encoding="UTF-8" standalone="no"?>
<!-- Created with Inkscape (http://www.inkscape.org/) -->

<svg
   xmlns:dc="http://purl.org/dc/elements/1.1/"
   xmlns:cc="http://creativecommons.org/ns#"
   xmlns:rdf="http://www.w3.org/1999/02/22-rdf-syntax-ns#"
   xmlns:svg="http://www.w3.org/2000/svg"
   xmlns="http://www.w3.org/2000/svg"
   xmlns:sodipodi="http://sodipodi.sourceforge.net/DTD/sodipodi-0.dtd"
   xmlns:inkscape="http://www.inkscape.org/namespaces/inkscape"
   version="1.0"
   width="468pt"
   height="468pt"
   viewBox="0 0 468 468"
   id="svg2"
   inkscape:version="0.48.4 r9939"
   sodipodi:docname="svg_OPTIONS.svg">
  <sodipodi:namedview
     pagecolor="#ffffff"
     bordercolor="#666666"
     borderopacity="1"
     objecttolerance="10"
     gridtolerance="10"
     guidetolerance="10"
     inkscape:pageopacity="0"
     inkscape:pageshadow="2"
     inkscape:window-width="640"
     inkscape:window-height="480"
     id="namedview9"
     showgrid="false"
     inkscape:zoom="0.4034188"
     inkscape:cx="292.5"
     inkscape:cy="292.5"
     inkscape:window-x="2239"
     inkscape:window-y="219"
     inkscape:window-maximized="0"
     inkscape:current-layer="svg2" />
  <defs
     id="defs12" />
  <metadata
     id="metadata4">
Created by potrace 1.8, written by Peter Selinger 2001-2007
<rdf:RDF>
  <cc:Work
     rdf:about="">
    <dc:format>image/svg+xml</dc:format>
    <dc:type
       rdf:resource="http://purl.org/dc/dcmitype/StillImage" />
    <dc:title></dc:title>
  </cc:Work>
</rdf:RDF>
</metadata>
  <g fill="#000000"
     transform="matrix(0.189474,0,0,-0.189474,0,468)"
     id="g6">
    <path
       d="M 395,2455 C 244,2422 112,2322 57,2200 5,2083 6,2112 2,1260 0,702 2,446 10,400 43,208 198,52 398,11 c 71,-15 1628,-15 1692,0 174,40 322,190 365,370 22,94 22,1579 0,1683 -21,98 -66,187 -127,252 -61,64 -113,98 -201,128 -61,21 -75,21 -867,23 -640,1 -817,-1 -865,-12 z m 1737,-163 c 74,-36 132,-95 170,-170 l 23,-47 0,-840 0,-840 -28,-57 c -37,-76 -96,-134 -171,-169 l -63,-29 -839,2 -839,3 -50,27 C 273,204 196,285 167,348 l -22,47 0,840 0,840 27,52 c 53,100 128,162 227,189 35,10 236,12 856,11 l 810,-2 67,-33 z"
       id="path8" />
  </g>
  <g fill="#000000"
     style="font-size:88.39859009px;font-style:normal;font-variant:normal;font-weight:bold;font-stretch:normal;text-align:start;line-height:125%;letter-spacing:0px;word-spacing:0px;writing-mode:lr-tb;text-anchor:start;fill:#000000;fill-opacity:1;stroke:none;font-family:Arial;-inkscape-font-specification:Arial Bold"
     id="text2993">
    <path
       d="m 36.741397,236.47784 c -4e-6,-6.4457 0.963977,-11.8555 2.891946,-16.22943 1.438771,-3.22282 3.402702,-6.11476 5.8918,-8.67584 2.489073,-2.56097 5.215557,-4.46016 8.17946,-5.69757 3.94223,-1.66892 8.488767,-2.50341 13.639626,-2.50347 9.323245,6e-5 16.783307,2.89201 22.38021,8.67584 5.596788,5.78394 8.395211,13.82671 8.395276,24.12832 -6.5e-5,10.21536 -2.776906,18.20777 -8.330531,23.97726 -5.553739,5.7695 -12.977832,8.65425 -22.272301,8.65425 -9.409641,0 -16.891285,-2.87036 -22.444955,-8.61109 -5.553694,-5.74072 -8.330535,-13.6468 -8.330531,-23.71827 z m 13.164829,-0.43164 c -1.7e-5,7.16515 1.654577,12.59653 4.963788,16.29418 3.309167,3.69767 7.510398,5.5465 12.603705,5.54649 5.093239,1e-5 9.272888,-1.83443 12.53896,-5.50333 3.265979,-3.66887 4.898991,-9.17219 4.899043,-16.50999 -5.2e-5,-7.25141 -1.589901,-12.66121 -4.769553,-16.22943 -3.179745,-3.56812 -7.402558,-5.3522 -12.66845,-5.35226 -5.265961,6e-5 -9.510355,1.80572 -12.733195,5.41701 -3.222884,3.61138 -4.834315,9.05715 -4.834298,16.33733 z"
       style=""
       id="path2989" />
    <path
       d="m 108.04729,267.72812 0,-63.27751 20.50261,0 c 7.76937,7e-5 12.83387,0.3166 15.1935,0.9496 3.62568,0.94965 6.6615,3.0143 9.10748,6.19394 2.44587,3.17976 3.66883,7.28747 3.66888,12.32314 -5e-5,3.88475 -0.70505,7.15077 -2.115,9.79809 -1.41006,2.64739 -3.20134,4.72642 -5.37384,6.23711 -2.1726,1.51074 -4.38113,2.51069 -6.62558,2.99985 -3.05025,0.60431 -7.4673,0.90646 -13.25116,0.90643 l -8.33053,0 0,23.86935 z m 12.77636,-52.57299 0,17.95596 6.99247,0 c 5.0357,4e-5 8.40244,-0.33088 10.10023,-0.99275 1.69772,-0.66181 3.02859,-1.69773 3.99261,-3.10777 0.96394,-1.40996 1.44593,-3.05017 1.44597,-4.92062 -4e-5,-2.302 -0.67626,-4.20119 -2.02867,-5.69757 -1.3525,-1.49628 -3.06464,-2.43148 -5.13645,-2.80562 -1.52513,-0.2877 -4.58973,-0.43158 -9.19379,-0.43163 z"
       style=""
       id="path2991" />
    <path
       d="m 181.33871,267.72812 0,-52.57299 -18.77607,0 0,-10.70452 50.28533,0 0,10.70452 -18.7329,0 0,52.57299 z"
       style=""
       id="path2993" />
    <path
       d="m 220.74687,267.72812 0,-63.27751 12.77636,0 0,63.27751 z"
       style=""
       id="path2995" />
    <path
       d="m 243.06232,236.47784 c 0,-6.4457 0.96398,-11.8555 2.89195,-16.22943 1.43877,-3.22282 3.4027,-6.11476 5.8918,-8.67584 2.48907,-2.56097 5.21555,-4.46016 8.17946,-5.69757 3.94223,-1.66892 8.48876,-2.50341 13.63962,-2.50347 9.32325,6e-5 16.78331,2.89201 22.38021,8.67584 5.59679,5.78394 8.39521,13.82671 8.39528,24.12832 -7e-5,10.21536 -2.77691,18.20777 -8.33053,23.97726 -5.55374,5.7695 -12.97784,8.65425 -22.2723,8.65425 -9.40965,0 -16.89129,-2.87036 -22.44496,-8.61109 -5.55369,-5.74072 -8.33053,-13.6468 -8.33053,-23.71827 z m 13.16483,-0.43164 c -2e-5,7.16515 1.65458,12.59653 4.96379,16.29418 3.30916,3.69767 7.51039,5.5465 12.6037,5.54649 5.09324,1e-5 9.27289,-1.83443 12.53896,-5.50333 3.26598,-3.66887 4.89899,-9.17219 4.89905,-16.50999 -6e-5,-7.25141 -1.58991,-12.66121 -4.76956,-16.22943 -3.17974,-3.56812 -7.40256,-5.3522 -12.66845,-5.35226 -5.26596,6e-5 -9.51035,1.80572 -12.73319,5.41701 -3.22289,3.61138 -4.83432,9.05715 -4.8343,16.33733 z"
       style=""
       id="path2997" />
    <path
       d="m 314.49771,267.72812 0,-63.27751 12.43105,0 25.89802,42.25695 0,-42.25695 11.86993,0 0,63.27751 -12.81952,0 -25.50955,-41.26419 0,41.26419 z"
       style=""
       id="path2999" />
    <path
       d="m 375.01277,247.13919 12.43105,-1.20858 c 0.74815,4.17248 2.26606,7.23708 4.55374,9.1938 2.28763,1.95675 5.37381,2.93512 9.25854,2.93511 4.11488,10e-6 7.21544,-0.87045 9.30171,-2.61138 2.08619,-1.74091 3.1293,-3.77678 3.12934,-6.10762 -4e-5,-1.49631 -0.43887,-2.76963 -1.31648,-3.81996 -0.8777,-1.05028 -2.40999,-1.96391 -4.5969,-2.74087 -1.49636,-0.51794 -4.90627,-1.43875 -10.22972,-2.76246 -6.84861,-1.69773 -11.65412,-3.78395 -14.41657,-6.25869 -3.88471,-3.4818 -5.82706,-7.7262 -5.82705,-12.73319 -1e-5,-3.22282 0.91362,-6.23706 2.74087,-9.04273 1.82724,-2.80556 4.46021,-4.94214 7.8989,-6.40976 3.43866,-1.46749 7.58954,-2.20127 12.45263,-2.20133 7.94203,6e-5 13.92015,1.74098 17.93439,5.22277 4.01414,3.4819 6.12195,8.12915 6.32343,13.94177 l -12.77636,0.56112 c -0.54677,-3.25159 -1.71938,-5.58961 -3.51781,-7.01405 -1.79851,-1.42434 -4.49622,-2.13653 -8.09314,-2.13659 -3.71207,6e-5 -6.6184,0.76261 -8.719,2.28766 -1.35247,0.97842 -2.02869,2.28771 -2.02868,3.92787 -1e-5,1.49638 0.63305,2.77689 1.89919,3.84154 1.61141,1.3525 5.52489,2.7625 11.74044,4.23001 6.21549,1.46759 10.81238,2.9855 13.7907,4.55374 2.97822,1.5683 5.30904,3.71208 6.99246,6.43134 1.68332,2.71932 2.52501,6.07886 2.52506,10.07865 -5e-5,3.62574 -1.0072,7.02125 -3.02143,10.18655 -2.01435,3.16532 -4.86313,5.51773 -8.54635,7.05722 -3.68332,1.53949 -8.27302,2.30924 -13.76912,2.30924 -7.99963,0 -14.14321,-1.84883 -18.43076,-5.5465 -4.28757,-3.69765 -6.84859,-9.08587 -7.68308,-16.16468 z"
       style=""
       id="path3001" />
  </g>
</svg>
