<?xml version="1.0" encoding="UTF-8" standalone="no"?>
<!-- Created with Inkscape (http://www.inkscape.org/) -->

<svg
   xmlns:dc="http://purl.org/dc/elements/1.1/"
   xmlns:cc="http://creativecommons.org/ns#"
   xmlns:rdf="http://www.w3.org/1999/02/22-rdf-syntax-ns#"
   xmlns:svg="http://www.w3.org/2000/svg"
   xmlns="http://www.w3.org/2000/svg"
   xmlns:sodipodi="http://sodipodi.sourceforge.net/DTD/sodipodi-0.dtd"
   xmlns:inkscape="http://www.inkscape.org/namespaces/inkscape"
   version="1.0"
   width="468pt"
   height="234pt"
   viewBox="0 0 468 234"
   id="svg2"
   inkscape:version="0.91 r13725"
   sodipodi:docname="rc_PROG2.svg">
  <sodipodi:namedview
     pagecolor="#ffffff"
     bordercolor="#666666"
     borderopacity="1"
     objecttolerance="10"
     gridtolerance="10"
     guidetolerance="10"
     inkscape:pageopacity="0"
     inkscape:pageshadow="2"
     inkscape:window-width="1920"
     inkscape:window-height="1005"
     id="namedview3363"
     showgrid="false"
     inkscape:zoom="1.31"
     inkscape:cx="247.95478"
     inkscape:cy="281.30022"
     inkscape:window-x="-9"
     inkscape:window-y="891"
     inkscape:window-maximized="1"
     inkscape:current-layer="svg2"
     inkscape:snap-grids="true"
     showguides="false" />
  <defs
     id="defs12" />
  <metadata
     id="metadata4">
Created by potrace 1.8, written by Peter Selinger 2001-2007
<rdf:RDF>
  <cc:Work
     rdf:about="">
    <dc:format>image/svg+xml</dc:format>
    <dc:type
       rdf:resource="http://purl.org/dc/dcmitype/StillImage" />
    <dc:title></dc:title>
  </cc:Work>
</rdf:RDF>
</metadata>
  <g fill="#000000"
     style="font-style:normal;font-variant:normal;font-weight:bold;font-stretch:normal;font-size:133.91000366px;line-height:125%;font-family:Arial;-inkscape-font-specification:'Arial, Bold';text-align:center;letter-spacing:0px;word-spacing:0px;writing-mode:lr-tb;text-anchor:middle;fill:#000000;fill-opacity:1;stroke:none"
     id="text2993"
     transform="translate(-4.9999999e-7,-117.00002)">
    <path
       d="m 45.689051,281.92776 0,-95.8555 31.058228,0 q 17.654151,0 23.015782,1.43849 8.238599,2.15773 13.796389,9.41555 5.55779,7.19243 5.55779,18.63493 0,8.82708 -3.2039,14.84257 -3.2039,6.01549 -8.17322,9.48093 -4.90393,3.40006 -10.004017,4.51162 -6.930889,1.3731 -20.073424,1.3731 l -12.619448,0 0,36.15831 -19.35418,0 z m 19.35418,-79.63983 0,27.20047 10.59249,0 q 11.442506,0 15.300264,-1.50387 3.857759,-1.50388 6.015489,-4.70778 2.223115,-3.2039 2.223115,-7.45397 0,-5.23086 -3.07313,-8.63092 -3.07313,-3.40006 -7.780903,-4.25007 -3.465445,-0.65386 -13.927164,-0.65386 l -9.350161,0 z"
       id="path3456"
       inkscape:connector-curvature="0" />
    <path
       d="m 135.20214,281.92776 0,-95.8555 40.73532,0 q 15.36565,0 22.29653,2.61543 6.99628,2.55005 11.18097,9.15401 4.18468,6.60396 4.18468,15.1041 0,10.78865 -6.34241,17.85031 -6.34242,6.99628 -18.96187,8.82708 6.27703,3.6616 10.33095,8.04245 4.1193,4.38084 11.05019,15.5618 l 11.70405,18.70032 -23.14656,0 -13.99255,-20.85805 q -7.45397,-11.18096 -10.20017,-14.05793 -2.7462,-2.94236 -5.81933,-3.98853 -3.07313,-1.11156 -9.74248,-1.11156 l -3.92314,0 0,40.01607 -19.35418,0 z m 19.35418,-55.31633 14.31948,0 q 13.92716,0 17.3926,-1.17695 3.46545,-1.17694 5.42702,-4.05391 1.96157,-2.87698 1.96157,-7.19244 0,-4.83854 -2.61543,-7.7809 -2.55004,-3.00774 -7.25782,-3.79237 -2.35388,-0.32693 -14.12332,-0.32693 l -15.1041,0 0,24.3235 z"
       id="path3458"
       inkscape:connector-curvature="0" />
    <path
       d="m 227.9845,234.58849 q 0,-14.64641 4.38085,-24.58504 3.26929,-7.32321 8.89246,-13.14254 5.68856,-5.81933 12.42329,-8.63092 8.95785,-3.79237 20.6619,-3.79237 21.18498,0 33.86981,13.14254 12.75022,13.14253 12.75022,36.55063 0,23.21194 -12.61945,36.35447 -12.61945,13.07715 -33.73904,13.07715 -21.38114,0 -34.00059,-13.01176 Q 227.9845,257.4735 227.9845,234.58849 Z m 19.94266,-0.65386 q 0,16.28105 7.51936,24.71581 7.51936,8.36938 19.09263,8.36938 11.57328,0 18.96187,-8.30399 7.45397,-8.36938 7.45397,-25.04274 0,-16.47721 -7.25781,-24.58504 -7.19244,-8.10784 -19.15803,-8.10784 -11.96559,0 -19.28879,8.23861 -7.3232,8.17322 -7.3232,24.71581 z"
       id="path3460"
       inkscape:connector-curvature="0" />
    <path
       d="m 380.59484,246.68485 0,-16.15028 41.71611,0 0,38.18527 q -6.08088,5.88472 -17.65415,10.39634 -11.5079,4.44623 -23.34272,4.44623 -15.03872,0 -26.21968,-6.27703 -11.18096,-6.34242 -16.80413,-18.04647 -5.62318,-11.76943 -5.62318,-25.56582 0,-14.97334 6.27703,-26.612 6.27703,-11.63866 18.3734,-17.85031 9.21939,-4.77316 22.95039,-4.77316 17.85031,0 27.85433,7.51936 10.0694,7.45398 12.94638,20.6619 l -19.22341,3.59621 q -2.02696,-7.06166 -7.65013,-11.11557 -5.55779,-4.11931 -13.92717,-4.11931 -12.68483,0 -20.20419,8.04245 -7.45398,8.04245 -7.45398,23.8658 0,17.06568 7.58475,25.63121 7.58475,8.50015 19.87727,8.50015 6.08087,0 12.16174,-2.35389 6.14626,-2.41927 10.52711,-5.81933 l 0,-12.16175 -22.16577,0 z"
       id="path3462"
       inkscape:connector-curvature="0" />
  </g>
</svg>
