<?xml version="1.0" encoding="utf-8"?>
<!-- Generator: Adobe Illustrator 21.1.0, SVG Export Plug-In . SVG Version: 6.00 Build 0)  -->
<svg version="1.1"
	 id="svg2" inkscape:version="0.48.2 r9819" sodipodi:docname="rc_PLAYgreen.svg" xmlns:cc="http://creativecommons.org/ns#" xmlns:dc="http://purl.org/dc/elements/1.1/" xmlns:inkscape="http://www.inkscape.org/namespaces/inkscape" xmlns:rdf="http://www.w3.org/1999/02/22-rdf-syntax-ns#" xmlns:sodipodi="http://sodipodi.sourceforge.net/DTD/sodipodi-0.dtd" xmlns:svg="http://www.w3.org/2000/svg"
	 xmlns="http://www.w3.org/2000/svg" xmlns:xlink="http://www.w3.org/1999/xlink" x="0px" y="0px" viewBox="0 0 468 468"
	 style="enable-background:new 0 0 468 468;" xml:space="preserve">
<style type="text/css">
	.st0{fill:#008000;}
</style>
<sodipodi:namedview  bordercolor="#666666" borderopacity="1" gridtolerance="10" guidetolerance="10" id="namedview6844" inkscape:current-layer="svg2" inkscape:cx="292.5" inkscape:cy="292.5" inkscape:guide-bbox="true" inkscape:pageopacity="0" inkscape:pageshadow="2" inkscape:window-height="1343" inkscape:window-maximized="1" inkscape:window-width="2560" inkscape:window-x="1080" inkscape:window-y="22" inkscape:zoom="1.05" objecttolerance="10" pagecolor="#ffffff" showgrid="false" showguides="true">
	</sodipodi:namedview>
<g fill="#000000" id="g6" transform="matrix(0.189474,0,0,-0.189474,0,468)">
	<path id="path8" d="M395,2455c-151-33-283-133-338-255c-52-117-51-88-55-940c-2-558,0-814,8-860C43,208,198,52,398,11
		c71-15,1628-15,1692,0c174,40,322,190,365,370c22,94,22,1579,0,1683c-21,98-66,187-127,252c-61,64-113,98-201,128
		c-61,21-75,21-867,23C620,2468,443,2466,395,2455z M2132,2292c74-36,132-95,170-170l23-47v-840V395l-28-57c-37-76-96-134-171-169
		l-63-29l-839,2l-839,3l-50,27c-62,32-139,113-168,176l-22,47v840v840l27,52c53,100,128,162,227,189c35,10,236,12,856,11l810-2
		L2132,2292z"/>
</g>
<path fill="#008000" id="path8-1" inkscape:connector-curvature="0" d="M170.7,153.7l-2.9,2.8v127v127l2.9,2.8c1.5,1.6,3.8,2.9,5,2.9
	c2.2,0,165.6-123.8,168.8-127.8c2.2-2.9,1.6-7.7-1.2-10.4c-2.6-2.3-145.8-112.1-159.7-122.2c-3.7-2.8-7.6-5-8.5-5
	C174.3,150.8,172.2,152.1,170.7,153.7L170.7,153.7z M253.8,229c36.9,28.2,68,52.1,69,53.2c1.9,1.7-2.6,5.4-68.3,55.6l-70.4,53.8
	V283.9c0-78.3,0.3-107.4,1.3-106.8C186.1,177.4,216.9,200.8,253.8,229L253.8,229z"/>
<rect x="105.1" y="56.2" class="st0" width="258.4" height="86.1"/>
</svg>
