<?xml version="1.0" encoding="UTF-8" standalone="no"?>
<!-- Created with Inkscape (http://www.inkscape.org/) -->

<svg
   xmlns:dc="http://purl.org/dc/elements/1.1/"
   xmlns:cc="http://creativecommons.org/ns#"
   xmlns:rdf="http://www.w3.org/1999/02/22-rdf-syntax-ns#"
   xmlns:svg="http://www.w3.org/2000/svg"
   xmlns="http://www.w3.org/2000/svg"
   version="1.0"
   width="468pt"
   height="468pt"
   viewBox="0 0 468 468"
   id="svg2">
  <defs
     id="defs12" />
  <metadata
     id="metadata4">
Created by potrace 1.8, written by Peter Selinger 2001-2007
<rdf:RDF>
  <cc:Work
     rdf:about="">
    <dc:format>image/svg+xml</dc:format>
    <dc:type
       rdf:resource="http://purl.org/dc/dcmitype/StillImage" />
    <dc:title></dc:title>
  </cc:Work>
</rdf:RDF>
</metadata>
  <g
     transform="matrix(0.189474,0,0,-0.189474,0,468)"
     id="g6">
    <path style="fill:#000000;"
       d="M 395,2455 C 244,2422 112,2322 57,2200 5,2083 6,2112 2,1260 0,702 2,446 10,400 43,208 198,52 398,11 c 71,-15 1628,-15 1692,0 174,40 322,190 365,370 22,94 22,1579 0,1683 -21,98 -66,187 -127,252 -61,64 -113,98 -201,128 -61,21 -75,21 -867,23 -640,1 -817,-1 -865,-12 z m 1737,-163 c 74,-36 132,-95 170,-170 l 23,-47 0,-840 0,-840 -28,-57 c -37,-76 -96,-134 -171,-169 l -63,-29 -839,2 -839,3 -50,27 C 273,204 196,285 167,348 l -22,47 0,840 0,840 27,52 c 53,100 128,162 227,189 35,10 236,12 856,11 l 810,-2 67,-33 z"
       id="path8" />
  </g>
  <path style="fill:#000000;"
     d="m 204.28626,45.692695 c -2.92571,1.462855 -6.9892,5.038725 -8.93967,7.801897 -3.57587,5.038725 -3.57587,5.688884 -4.06349,74.443108 l -0.48762,69.56692 -64.52819,0 c -72.167544,0 -72.005004,0 -79.644362,11.37776 -3.57587,5.3638 -3.738409,6.82666 -3.25079,28.76949 l 0.487618,23.24316 6.176502,6.01396 6.013963,6.17651 67.453899,0.48761 67.45391,0.48762 0,68.59168 c 0,65.50342 0.16253,68.75422 3.25078,73.95548 6.01396,9.91491 11.37777,11.70285 34.13331,11.70285 24.38093,0 29.5822,-1.95048 35.43361,-13.00316 3.57587,-7.15175 3.57587,-7.96444 3.57587,-74.28057 l 0,-67.12882 68.91676,0 c 68.59168,0 68.75422,0 74.11802,-3.73841 9.26476,-6.33904 11.37777,-12.353 11.37777,-33.48315 0,-23.24314 -3.08825,-31.20758 -13.65331,-36.08376 -6.17651,-2.76318 -11.86539,-3.08825 -73.63041,-3.08825 l -67.12883,0 0,-67.94153 c 0,-74.605642 0,-74.768182 -10.23999,-82.245 -4.06348,-2.925711 -7.31428,-3.41333 -26.00632,-3.900949 -17.39173,-0.325078 -22.43046,0.16254 -26.81903,2.275554 z m 41.93521,97.361175 0,77.20627 76.39358,0 76.39357,0 0,16.25396 0,16.25395 -77.20628,0 -77.20627,0 0,77.20628 0,77.36881 -15.76633,-0.48762 -15.92888,-0.48761 0,-76.8812 0,-76.71866 -74.28057,0 -74.443093,0 0,-16.25395 0,-16.25396 74.280563,-0.32507 74.4431,-0.48762 -0.65015,-76.8812 -0.48762,-76.718653 17.22918,0 17.2292,0 0,77.206273 z"
     id="path8-7" />
</svg>
