<?xml version="1.0" encoding="UTF-8" standalone="no"?>
<!-- Created with Inkscape (http://www.inkscape.org/) -->

<svg
   xmlns:dc="http://purl.org/dc/elements/1.1/"
   xmlns:cc="http://creativecommons.org/ns#"
   xmlns:rdf="http://www.w3.org/1999/02/22-rdf-syntax-ns#"
   xmlns:svg="http://www.w3.org/2000/svg"
   xmlns="http://www.w3.org/2000/svg"
   xmlns:sodipodi="http://sodipodi.sourceforge.net/DTD/sodipodi-0.dtd"
   xmlns:inkscape="http://www.inkscape.org/namespaces/inkscape"
   version="1.0"
   width="468pt"
   height="468pt"
   viewBox="0 0 468 468"
   id="svg2"
   inkscape:version="0.48.4 r9939"
   sodipodi:docname="svg_PLAY.svg">
  <sodipodi:namedview
     pagecolor="#ffffff"
     bordercolor="#666666"
     borderopacity="1"
     objecttolerance="10"
     gridtolerance="10"
     guidetolerance="10"
     inkscape:pageopacity="0"
     inkscape:pageshadow="2"
     inkscape:window-width="640"
     inkscape:window-height="480"
     id="namedview8"
     showgrid="false"
     inkscape:zoom="0.4034188"
     inkscape:cx="292.5"
     inkscape:cy="292.5"
     inkscape:window-x="2079"
     inkscape:window-y="401"
     inkscape:window-maximized="0"
     inkscape:current-layer="svg2" />
  <defs
     id="defs12" />
  <metadata
     id="metadata4">
Created by potrace 1.8, written by Peter Selinger 2001-2007
<rdf:RDF>
  <cc:Work
     rdf:about="">
    <dc:format>image/svg+xml</dc:format>
    <dc:type
       rdf:resource="http://purl.org/dc/dcmitype/StillImage" />
    <dc:title />
  </cc:Work>
</rdf:RDF>
</metadata>
  <g
     transform="matrix(0.189474,0,0,-0.189474,0,468)"
     id="g6">
    <path style="fill:#000000;"
       d="M 395,2455 C 244,2422 112,2322 57,2200 5,2083 6,2112 2,1260 0,702 2,446 10,400 43,208 198,52 398,11 c 71,-15 1628,-15 1692,0 174,40 322,190 365,370 22,94 22,1579 0,1683 -21,98 -66,187 -127,252 -61,64 -113,98 -201,128 -61,21 -75,21 -867,23 -640,1 -817,-1 -865,-12 z m 1737,-163 c 74,-36 132,-95 170,-170 l 23,-47 0,-840 0,-840 -28,-57 c -37,-76 -96,-134 -171,-169 l -63,-29 -839,2 -839,3 -50,27 C 273,204 196,285 167,348 l -22,47 0,840 0,840 27,52 c 53,100 128,162 227,189 35,10 236,12 856,11 l 810,-2 67,-33 z"
       id="path8" />
  </g>
  <path style="fill:#000000;"
     inkscape:connector-curvature="0"
     d="m 149.16929,73.255292 -3.6373,3.49181 0,158.731648 0,158.73167 3.6373,3.49181 c 1.89139,2.03688 4.80123,3.63729 6.25615,3.63729 2.76434,0 207.03497,-154.80338 210.96325,-159.75011 2.76435,-3.63729 2.03689,-9.60246 -1.45492,-12.94878 C 361.73295,225.7308 182.63243,88.531942 165.31889,75.874142 c -4.65574,-3.4918 -9.45698,-6.25615 -10.6209,-6.25615 -1.01845,0 -3.63731,1.60041 -5.5287,3.6373 z M 253.0505,167.38855 c 46.12093,35.20904 84.96727,65.18037 86.2767,66.4898 2.32787,2.18237 -3.20082,6.69263 -85.40375,69.54513 l -88.02259,67.21725 0,-134.58001 c 0,-97.91604 0.43647,-134.28902 1.60041,-133.56156 0.87295,0.43648 39.4283,29.68035 85.54923,64.88939 z"
     id="path8-1" />
</svg>
