<?xml version="1.0" encoding="UTF-8" standalone="no"?>
<!-- Created with Inkscape (http://www.inkscape.org/) -->

<svg
   xmlns:dc="http://purl.org/dc/elements/1.1/"
   xmlns:cc="http://creativecommons.org/ns#"
   xmlns:rdf="http://www.w3.org/1999/02/22-rdf-syntax-ns#"
   xmlns:svg="http://www.w3.org/2000/svg"
   xmlns="http://www.w3.org/2000/svg"
   version="1.0"
   width="468pt"
   height="468pt"
   viewBox="0 0 468 468"
   id="svg2">
  <defs
     id="defs12" />
  <metadata
     id="metadata4">
Created by potrace 1.8, written by Peter Selinger 2001-2007
<rdf:RDF>
  <cc:Work
     rdf:about="">
    <dc:format>image/svg+xml</dc:format>
    <dc:type
       rdf:resource="http://purl.org/dc/dcmitype/StillImage" />
    <dc:title></dc:title>
  </cc:Work>
</rdf:RDF>
</metadata>
  <g fill="#000000"
     transform="matrix(0.189474,0,0,-0.189474,0,468)"
     id="g6">
    <path style="fill:#000000;"
       d="M 395,2455 C 244,2422 112,2322 57,2200 5,2083 6,2112 2,1260 0,702 2,446 10,400 43,208 198,52 398,11 c 71,-15 1628,-15 1692,0 174,40 322,190 365,370 22,94 22,1579 0,1683 -21,98 -66,187 -127,252 -61,64 -113,98 -201,128 -61,21 -75,21 -867,23 -640,1 -817,-1 -865,-12 z m 1737,-163 c 74,-36 132,-95 170,-170 l 23,-47 0,-840 0,-840 -28,-57 c -37,-76 -96,-134 -171,-169 l -63,-29 -839,2 -839,3 -50,27 C 273,204 196,285 167,348 l -22,47 0,840 0,840 27,52 c 53,100 128,162 227,189 35,10 236,12 856,11 l 810,-2 67,-33 z"
       id="path8" />
  </g>
  <path style="fill:#000000;"
     d="m 169.78727,80.79935 c -2.57942,1.57632 -5.73204,5.01554 -7.16505,7.59496 -2.43612,4.44233 -2.57942,12.89709 -2.57942,152.61561 0,147.02686 0,147.88667 3.00932,151.7558 6.01865,8.16816 9.88777,9.88777 23.50137,10.31767 16.33632,0.71651 24.21788,-2.29282 28.51691,-11.03418 3.00932,-5.73204 3.00932,-7.16505 3.00932,-151.3259 0,-157.77444 0.2866,-150.75269 -7.73825,-158.34764 -3.58253,-3.29593 -5.15884,-3.58253 -19.91885,-4.01243 -14.0435,-0.28661 -16.62292,0 -20.63535,2.43611 z m 28.23031,159.20746 0,143.30104 -9.31457,0 -9.31457,0 0,-143.30104 0,-143.30104 9.31457,0 9.31457,0 0,143.30104 z"
     id="path8-4" />
  <path style="fill:#000000;"
     d="m 257.2009,80.79935 c -9.60117,6.01865 -9.02796,-3.86912 -9.02796,159.63736 l 0,148.17327 3.29592,4.87224 c 4.87224,7.30835 11.17748,9.88777 24.64778,9.88777 14.1868,0 22.64157,-3.72582 26.7973,-11.46408 2.43611,-4.72894 2.57942,-12.46719 2.57942,-151.6125 0,-159.06415 0.4299,-150.17949 -7.88156,-157.91774 -3.58253,-3.29593 -5.01554,-3.58253 -19.77555,-4.01243 -14.0435,-0.28661 -16.62292,0 -20.63535,2.43611 z m 29.37671,159.63736 0.28661,142.87114 -10.03107,0 -10.03108,0 0,-143.30104 0,-143.44434 9.74447,0.4299 9.60117,0.42991 0.4299,143.01443 z"
     id="path10" />
</svg>
