<?xml version="1.0" encoding="utf-8"?>
<!-- Generator: Adobe Illustrator 21.1.0, SVG Export Plug-In . SVG Version: 6.00 Build 0)  -->
<svg version="1.1"
	 id="svg2" inkscape:version="0.48.2 r9819" sodipodi:docname="rc_RADIO.svg" xmlns:cc="http://creativecommons.org/ns#" xmlns:dc="http://purl.org/dc/elements/1.1/" xmlns:inkscape="http://www.inkscape.org/namespaces/inkscape" xmlns:rdf="http://www.w3.org/1999/02/22-rdf-syntax-ns#" xmlns:sodipodi="http://sodipodi.sourceforge.net/DTD/sodipodi-0.dtd" xmlns:svg="http://www.w3.org/2000/svg"
	 xmlns="http://www.w3.org/2000/svg" xmlns:xlink="http://www.w3.org/1999/xlink" x="0px" y="0px" viewBox="0 0 468 468"
	 style="enable-background:new 0 0 468 468;" xml:space="preserve">
<style type="text/css">
	.st0{fill:#9B0000;}
</style>
<sodipodi:namedview  bordercolor="#666666" borderopacity="1" gridtolerance="10" guidetolerance="10" id="namedview18" inkscape:current-layer="svg2" inkscape:cx="13.386911" inkscape:cy="223.98473" inkscape:guide-bbox="true" inkscape:pageopacity="0" inkscape:pageshadow="2" inkscape:window-height="1250" inkscape:window-maximized="0" inkscape:window-width="1744" inkscape:window-x="1536" inkscape:window-y="99" inkscape:zoom="1.05" objecttolerance="10" pagecolor="#ffffff" showgrid="false" showguides="true">
	</sodipodi:namedview>
<g id="g6" transform="matrix(0.189474,0,0,-0.189474,0,468)">
	<g id="path8">
		<path d="M395,2455c-151-33-283-133-338-255c-52-117-51-88-55-940c-2-558,0-814,8-860C43,208,198,52,398,11c71-15,1628-15,1692,0
			c174,40,322,190,365,370c22,94,22,1579,0,1683c-21,98-66,187-127,252c-61,64-113,98-201,128c-61,21-75,21-867,23
			C620,2468,443,2466,395,2455z M2132,2292c74-36,132-95,170-170l23-47v-840V395l-28-57c-37-76-96-134-171-169l-63-29l-839,2l-839,3
			l-50,27c-62,32-139,113-168,176l-22,47v840v840l27,52c53,100,128,162,227,189c35,10,236,12,856,11l810-2L2132,2292z"/>
	</g>
</g>
<g id="g4575" transform="matrix(0.8,0,0,0.8,46.5,89.011878)">
	<g id="rect3052">
		<path inkscape:connector-curvature="0" d="M75.2,196.3c-3.2,0-5.8,2.6-5.8,5.8l0,0v200.7c0,3.2,2.6,5.8,5.8,5.8l0,0h314.7
			c3.2,0,5.8-2.6,5.8-5.8V202.1c0-3.2-2.6-5.8-5.8-5.8H75.2z M80.9,207.8h303.2V397H80.9V207.8z"/>
	</g>
	<g id="path3877">
		<path inkscape:connector-curvature="0" d="M211,325.2c-3.3,0-6,2.6-6.1,5.9c0,3.3,2.6,6,5.9,6.1c0.1,0,0.1,0,0.2,0h145.8
			c3.3,0,6-2.6,6.1-5.9c0-3.3-2.6-6-5.9-6.1c-0.1,0-0.1,0-0.2,0H211z"/>
	</g>
	<g id="path3877-1">
		<path inkscape:connector-curvature="0" d="M222,344.5c-3.1,0-5.5,2.5-5.5,5.5s2.5,5.5,5.5,5.5h123.8c3.1,0,5.5-2.5,5.5-5.5
			s-2.5-5.5-5.5-5.5H222z"/>
	</g>
	<g id="path3877-7">
		<path inkscape:connector-curvature="0" d="M224.8,307.5c-3,0-5.4,2.4-5.4,5.4s2.4,5.4,5.4,5.4l0,0H343c3,0,5.4-2.4,5.4-5.4
			s-2.4-5.4-5.4-5.4H224.8z"/>
	</g>
	<g id="path3877-4">
		<path inkscape:connector-curvature="0" d="M104,48.9c-3.3,0.1-6,2.8-5.9,6.1l0,0v145.8c0,3.3,2.6,6,5.9,6.1c3.3,0,6-2.6,6.1-5.9
			c0-0.1,0-0.1,0-0.2V55c0.1-3.3-2.6-6-5.9-6.1C104.2,48.9,104.1,48.9,104,48.9z"/>
	</g>
	<g id="path3922">
		<path inkscape:connector-curvature="0" d="M116,51.6c0,6.6-5.3,11.9-11.9,11.9s-11.9-5.3-11.9-11.9l0,0c0-6.6,5.3-11.9,11.9-11.9
			C110.7,39.6,116,45,116,51.6C116,51.5,116,51.6,116,51.6z"/>
	</g>
	<g id="path3877-4-0">
		<path inkscape:connector-curvature="0" d="M161.5,256c-3.2,0.1-5.7,2.7-5.7,5.9v135.7c-0.2,3.2,2.3,5.9,5.5,6.1s5.9-2.3,6.1-5.5
			c0-0.2,0-0.4,0-0.6V261.8c0-3.2-2.5-5.8-5.7-5.9C161.6,256,161.6,256,161.5,256z"/>
	</g>
	<g id="path3877-4-0-9">
		<path inkscape:connector-curvature="0" d="M76.2,248.7V261H385v-12.3C385.1,248.7,76.2,248.7,76.2,248.7z"/>
	</g>
	<g id="path3922-4">
		<path inkscape:connector-curvature="0" d="M369.8,227.9c0,9-7.3,16.4-16.3,16.4s-16.4-7.3-16.4-16.3l0,0c0-9,7.3-16.4,16.3-16.4
			C362.5,211.6,369.8,218.9,369.8,227.9L369.8,227.9z"/>
	</g>
	<g id="path3922-8">
		<path inkscape:connector-curvature="0" d="M123.9,306.4c0,4.4-3.5,7.9-7.9,7.9s-7.9-3.5-7.9-7.9l0,0c0-4.4,3.5-7.9,7.9-7.9
			C120.4,298.4,123.9,302,123.9,306.4L123.9,306.4z"/>
	</g>
	<g id="path3922-8-8">
		<path inkscape:connector-curvature="0" d="M124.3,346c0,4.4-3.5,7.9-7.9,7.9s-7.9-3.5-7.9-7.9l0,0c0-4.4,3.5-7.9,7.9-7.9
			S124.3,341.6,124.3,346L124.3,346z"/>
	</g>
	<g id="path3877-1-1">
		<path inkscape:connector-curvature="0" d="M236,362.5c-2.4,0-4.4,2.5-4.4,5.5s2,5.5,4.4,5.5l0,0h98c2.4,0,4.4-2.5,4.4-5.5
			s-2-5.5-4.4-5.5H236z"/>
	</g>
	<g id="path3877-1-1-7">
		<path inkscape:connector-curvature="0" d="M235.3,288.9c-2.4,0-4.4,2.5-4.4,5.5c0,3.1,2,5.5,4.4,5.5l0,0h98c2.4,0,4.4-2.5,4.4-5.5
			c0-3.1-2-5.5-4.4-5.5H235.3L235.3,288.9z"/>
	</g>
</g>
<g>
	<circle class="st0" cx="234.3" cy="99.1" r="43.1"/>
	<path d="M234.3,146.2c-26,0-47.1-21.1-47.1-47.1c0-26,21.1-47.1,47.1-47.1c26,0,47.1,21.1,47.1,47.1
		C281.4,125.1,260.3,146.2,234.3,146.2z M234.3,60c-21.6,0-39.1,17.5-39.1,39.1c0,21.6,17.5,39.1,39.1,39.1
		c21.6,0,39.1-17.5,39.1-39.1C273.4,77.5,255.9,60,234.3,60z"/>
</g>
</svg>
