<?xml version="1.0" encoding="UTF-8" standalone="no"?>
<!-- Created with Inkscape (http://www.inkscape.org/) -->

<svg
   xmlns:dc="http://purl.org/dc/elements/1.1/"
   xmlns:cc="http://creativecommons.org/ns#"
   xmlns:rdf="http://www.w3.org/1999/02/22-rdf-syntax-ns#"
   xmlns:svg="http://www.w3.org/2000/svg"
   xmlns="http://www.w3.org/2000/svg"
   version="1.0"
   width="468pt"
   height="468pt"
   viewBox="0 0 468 468"
   id="svg2">
  <defs
     id="defs12" />
  <metadata
     id="metadata4">
Created by potrace 1.8, written by Peter Selinger 2001-2007
<rdf:RDF>
  <cc:Work
     rdf:about="">
    <dc:format>image/svg+xml</dc:format>
    <dc:type
       rdf:resource="http://purl.org/dc/dcmitype/StillImage" />
    <dc:title></dc:title>
  </cc:Work>
</rdf:RDF>
</metadata>
  <g
     transform="matrix(0.189474,0,0,-0.189474,0,468)"
     id="g6">
    <path style="fill:#000000;"
       d="M 395,2455 C 244,2422 112,2322 57,2200 5,2083 6,2112 2,1260 0,702 2,446 10,400 43,208 198,52 398,11 c 71,-15 1628,-15 1692,0 174,40 322,190 365,370 22,94 22,1579 0,1683 -21,98 -66,187 -127,252 -61,64 -113,98 -201,128 -61,21 -75,21 -867,23 -640,1 -817,-1 -865,-12 z m 1737,-163 c 74,-36 132,-95 170,-170 l 23,-47 0,-840 0,-840 -28,-57 c -37,-76 -96,-134 -171,-169 l -63,-29 -839,2 -839,3 -50,27 C 273,204 196,285 167,348 l -22,47 0,840 0,840 27,52 c 53,100 128,162 227,189 35,10 236,12 856,11 l 810,-2 67,-33 z"
       id="path8" />
  </g>
  <path style="fill:#000000;"
     d="m 359.40895,88.113456 3.38403,3.248667 0,147.679067 0,147.67906 -3.38403,3.24866 c -1.75969,1.89506 -4.46692,3.38403 -5.82053,3.38403 -1.48897,0 -16.92015,-10.82889 -34.24638,-24.22965 l -31.67451,-24.09429 -0.67681,21.65779 -0.67681,21.65779 -3.65475,2.70722 c -2.97795,2.16578 -4.46692,2.57186 -7.03878,1.48897 -5.00837,-1.89505 -192.61897,-145.64864 -194.37867,-149.03266 -0.94753,-1.62434 -1.35361,-4.46692 -0.81217,-6.36198 0.67681,-2.57187 25.17719,-22.06388 95.97109,-76.07298 52.24941,-40.06692 96.64788,-73.771863 98.6783,-74.85475 3.38403,-2.03042 3.92547,-1.895055 7.44487,0.676803 l 3.79011,2.842589 0.67681,22.063878 0.67681,21.92851 9.47527,-7.30951 c 33.43422,-25.85398 55.09201,-41.691241 56.8517,-41.691241 1.21825,0 3.65476,1.488971 5.41445,3.384027 z m -46.56424,49.406834 -25.85399,19.62738 0,82.02888 0,82.16424 28.42585,21.79315 28.42584,21.65779 0,-125.34446 c 0,-124.26158 0,-125.2091 -2.70722,-123.44941 -1.35361,1.08289 -14.21292,10.69354 -28.29048,21.52243 z m -128.32241,40.47299 -80.26919,61.31863 3.79011,2.97795 c 8.3924,6.90342 158.64332,121.28362 159.32013,121.28362 0.40608,0 0.6768,-7.58022 0.6768,-16.78479 l 0,-16.78478 -53.73839,-41.01444 c -29.6441,-22.60533 -54.95664,-42.2327 -56.1749,-43.45094 -3.92547,-3.92548 -3.1133,-9.74601 2.03042,-14.07757 2.4365,-2.16578 27.74905,-21.65779 56.17489,-43.18022 l 51.57262,-39.25475 0.13536,-17.46159 c 0,-13.67148 -0.40608,-17.05551 -1.7597,-16.10798 -0.81216,0.81216 -37.76577,28.96729 -81.75815,62.53686 z m 40.20227,26.93688 c -21.92851,16.64943 -41.01444,31.4038 -42.23269,32.62205 -2.30114,2.03042 -1.08289,3.11331 18.27376,17.86768 11.23498,8.66312 31.13307,23.82357 43.85702,33.56958 l 23.41749,17.86767 0,-67.13915 c 0,-53.3323 -0.40608,-67.00379 -1.7597,-66.19162 -0.81216,0.54144 -19.62737,14.75437 -41.55588,31.40379 z"
     id="path8-1" />
</svg>
