<?xml version="1.0" encoding="UTF-8" standalone="no"?>
<!-- Created with Inkscape (http://www.inkscape.org/) -->

<svg
   xmlns:dc="http://purl.org/dc/elements/1.1/"
   xmlns:cc="http://creativecommons.org/ns#"
   xmlns:rdf="http://www.w3.org/1999/02/22-rdf-syntax-ns#"
   xmlns:svg="http://www.w3.org/2000/svg"
   xmlns="http://www.w3.org/2000/svg"
   id="svg2"
   viewBox="0 0 468 468"
   height="468pt"
   width="468pt"
   version="1.0">
  <defs
     id="defs12" />
  <metadata
     id="metadata4">
Created by potrace 1.8, written by Peter Selinger 2001-2007
<rdf:RDF>
  <cc:Work
     rdf:about="">
    <dc:format>image/svg+xml</dc:format>
    <dc:type
       rdf:resource="http://purl.org/dc/dcmitype/StillImage" />
    <dc:title></dc:title>
  </cc:Work>
</rdf:RDF>
</metadata>
  <g fill="#000000"
     id="g6"
     transform="matrix(0.189474,0,0,-0.189474,0,468)">
    <path
       id="path8"
       d="M 395,2455 C 244,2422 112,2322 57,2200 5,2083 6,2112 2,1260 0,702 2,446 10,400 43,208 198,52 398,11 c 71,-15 1628,-15 1692,0 174,40 322,190 365,370 22,94 22,1579 0,1683 -21,98 -66,187 -127,252 -61,64 -113,98 -201,128 -61,21 -75,21 -867,23 -640,1 -817,-1 -865,-12 z m 1737,-163 c 74,-36 132,-95 170,-170 l 23,-47 0,-840 0,-840 -28,-57 c -37,-76 -96,-134 -171,-169 l -63,-29 -839,2 -839,3 -50,27 C 273,204 196,285 167,348 l -22,47 0,840 0,840 27,52 c 53,100 128,162 227,189 35,10 236,12 856,11 l 810,-2 67,-33 z" />
  </g>
  <g fill="#000000"
     id="g3340"
     transform="matrix(0.12170837,0,0,-0.12170837,54.694644,418.11994)"
     style="fill:#000000;stroke:none">
    <path
       id="path3342"
       d="m 1360,2720 c -194,-148 -319,-250 -324,-265 -6,-16 -6,-34 0,-50 10,-30 627,-505 655,-505 9,0 28,9 43,21 l 26,20 0,205 0,205 433,-3 c 429,-3 432,-3 479,-26 26,-13 66,-44 88,-69 72,-82 71,-68 68,-804 -3,-652 -3,-654 -25,-695 -61,-114 -114,-145 -265,-154 -61,-3 -112,-11 -121,-18 -32,-27 -28,-91 7,-114 17,-12 159,-9 218,3 163,34 286,162 318,329 13,70 13,1232 0,1324 -15,101 -52,175 -121,241 -31,30 -77,63 -101,74 -104,44 -132,46 -565,43 l -413,-4 0,219 c 0,217 0,220 -23,241 -13,12 -32,22 -43,22 -10,0 -161,-108 -334,-240 z m 260,-290 c 0,-170 -3,-310 -6,-310 -8,0 -399,300 -401,308 -2,7 386,310 400,311 4,1 7,-138 7,-309 z" />
    <path
       id="path3344"
       d="M 358,2490 C 195,2462 91,2378 28,2222 L 5,2165 2,1560 C -2,886 3,803 50,703 105,585 219,503 360,481 c 37,-6 237,-11 463,-11 l 397,0 0,-210 c 0,-211 0,-211 25,-235 13,-14 34,-25 47,-25 26,0 629,456 654,496 10,14 14,33 10,48 -4,17 -100,96 -318,263 -171,131 -320,242 -330,247 -24,12 -62,-8 -77,-41 -7,-15 -11,-96 -11,-214 l 0,-190 -442,3 -443,3 -53,29 c -29,17 -66,48 -83,70 -60,82 -60,79 -57,792 3,725 -1,681 76,766 54,60 108,80 225,86 89,4 99,7 117,30 27,33 25,58 -5,87 -21,22 -33,25 -87,24 -35,-1 -84,-5 -110,-9 z M 1574,684 1779,528 1732,491 c -26,-20 -114,-88 -197,-151 -82,-62 -156,-118 -162,-123 -10,-7 -13,55 -13,307 0,174 2,316 5,316 3,0 97,-70 209,-156 z" />
  </g>
</svg>
