<?xml version="1.0" encoding="utf-8"?>
<!-- Generator: Adobe Illustrator 21.1.0, SVG Export Plug-In . SVG Version: 6.00 Build 0)  -->
<svg version="1.1"
	 id="svg2" inkscape:version="0.48.2 r9819" sodipodi:docname="rc_REWred.svg" xmlns:cc="http://creativecommons.org/ns#" xmlns:dc="http://purl.org/dc/elements/1.1/" xmlns:inkscape="http://www.inkscape.org/namespaces/inkscape" xmlns:rdf="http://www.w3.org/1999/02/22-rdf-syntax-ns#" xmlns:sodipodi="http://sodipodi.sourceforge.net/DTD/sodipodi-0.dtd" xmlns:svg="http://www.w3.org/2000/svg"
	 xmlns="http://www.w3.org/2000/svg" xmlns:xlink="http://www.w3.org/1999/xlink" x="0px" y="0px" viewBox="0 0 468 468"
	 style="enable-background:new 0 0 468 468;" xml:space="preserve">
<style type="text/css">
	.st0{fill:#9B0000;}
</style>
<sodipodi:namedview  bordercolor="#666666" borderopacity="1" gridtolerance="10" guidetolerance="10" id="namedview6904" inkscape:current-layer="svg2" inkscape:cx="292.5" inkscape:cy="292.5" inkscape:guide-bbox="true" inkscape:pageopacity="0" inkscape:pageshadow="2" inkscape:window-height="1343" inkscape:window-maximized="1" inkscape:window-width="2560" inkscape:window-x="1080" inkscape:window-y="22" inkscape:zoom="1.050338" objecttolerance="10" pagecolor="#ffffff" showgrid="false" showguides="true">
	</sodipodi:namedview>
<defs>
	
	<inkscape:path-effect  effect="skeletal" id="path-effect3662"></inkscape:path-effect>
</defs>
<g id="g6" transform="matrix(0.189474,0,0,-0.189474,0,468)" fill="#000000">
	<path id="path8" d="M395,2455c-151-33-283-133-338-255c-52-117-51-88-55-940c-2-558,0-814,8-860C43,208,198,52,398,11
		c71-15,1628-15,1692,0c174,40,322,190,365,370c22,94,22,1579,0,1683c-21,98-66,187-127,252c-61,64-113,98-201,128
		c-61,21-75,21-867,23C620,2468,443,2466,395,2455z M2132,2292c74-36,132-95,170-170l23-47v-840V395l-28-57c-37-76-96-134-171-169
		l-63-29l-839,2l-839,3l-50,27c-62,32-139,113-168,176l-22,47v840v840l27,52c53,100,128,162,227,189c35,10,236,12,856,11l810-2
		L2132,2292z"/>
</g>
<path fill="#9b0000"  id="path8-1" inkscape:connector-curvature="0" d="M331.8,171.4l2.7,2.6v118.1v118.1l-2.7,2.6c-1.4,1.5-3.6,2.7-4.7,2.7
	c-1.2,0-13.5-8.7-27.4-19.4l-25.3-19.3l-0.5,17.3l-0.5,17.3l-2.9,2.2c-2.4,1.7-3.6,2.1-5.6,1.2c-4-1.5-154.1-116.5-155.5-119.2
	c-0.8-1.3-1.1-3.6-0.6-5.1c0.5-2.1,20.1-17.7,76.8-60.9c41.8-32.1,77.3-59,78.9-59.9c2.7-1.6,3.1-1.5,6,0.5l3,2.3l0.5,17.7l0.5,17.5
	l7.6-5.8c26.7-20.7,44.1-33.4,45.5-33.4C328.5,168.6,330.4,169.8,331.8,171.4L331.8,171.4z M294.6,210.9l-20.7,15.7v65.6v65.7
	l22.7,17.4l22.7,17.3V292.4c0-99.4,0-100.2-2.2-98.8C316.1,194.5,305.8,202.2,294.6,210.9z M191.9,243.3l-64.2,49.1l3,2.4
	c6.7,5.5,126.9,97,127.5,97c0.3,0,0.5-6.1,0.5-13.4v-13.4l-43-32.8c-23.7-18.1-44-33.8-44.9-34.8c-3.1-3.1-2.5-7.8,1.6-11.3
	c1.9-1.7,22.2-17.3,44.9-34.5l41.3-31.4l0.1-14c0-10.9-0.3-13.6-1.4-12.9C256.7,193.9,227.1,216.4,191.9,243.3L191.9,243.3z
	 M224.1,264.8c-17.5,13.3-32.8,25.1-33.8,26.1c-1.8,1.6-0.9,2.5,14.6,14.3c9,6.9,24.9,19.1,35.1,26.9l18.7,14.3v-53.7
	c0-42.7-0.3-53.6-1.4-53C256.7,240.1,241.6,251.5,224.1,264.8L224.1,264.8z"/>
<rect x="105.7" y="55.9" class="st0" width="258.4" height="86.1"/>
</svg>
