<?xml version="1.0" encoding="UTF-8" standalone="no"?>
<!-- Created with Inkscape (http://www.inkscape.org/) -->

<svg
   xmlns:dc="http://purl.org/dc/elements/1.1/"
   xmlns:cc="http://creativecommons.org/ns#"
   xmlns:rdf="http://www.w3.org/1999/02/22-rdf-syntax-ns#"
   xmlns:svg="http://www.w3.org/2000/svg"
   xmlns="http://www.w3.org/2000/svg"
   xmlns:sodipodi="http://sodipodi.sourceforge.net/DTD/sodipodi-0.dtd"
   xmlns:inkscape="http://www.inkscape.org/namespaces/inkscape"
   version="1.0"
   width="468pt"
   height="468pt"
   viewBox="0 0 468 468"
   id="svg2"
   inkscape:version="0.48.4 r9939"
   sodipodi:docname="svg_RADIO.svg">
  <sodipodi:namedview
     pagecolor="#ffffff"
     bordercolor="#666666"
     borderopacity="1"
     objecttolerance="10"
     gridtolerance="10"
     guidetolerance="10"
     inkscape:pageopacity="0"
     inkscape:pageshadow="2"
     inkscape:window-width="1317"
     inkscape:window-height="584"
     id="namedview18"
     showgrid="false"
     inkscape:zoom="1.1410407"
     inkscape:cx="182.43453"
     inkscape:cy="223.98473"
     inkscape:window-x="2236"
     inkscape:window-y="91"
     inkscape:window-maximized="0"
     inkscape:current-layer="svg2" />
  <defs
     id="defs12" />
  <metadata
     id="metadata4">
Created by potrace 1.8, written by Peter Selinger 2001-2007
<rdf:RDF>
  <cc:Work
     rdf:about="">
    <dc:format>image/svg+xml</dc:format>
    <dc:type
       rdf:resource="http://purl.org/dc/dcmitype/StillImage" />
    <dc:title />
  </cc:Work>
</rdf:RDF>
</metadata>
  <g fill="#000000"
     transform="matrix(0.189474,0,0,-0.189474,0,468)"
     id="g6">
    <path
       d="M 395,2455 C 244,2422 112,2322 57,2200 5,2083 6,2112 2,1260 0,702 2,446 10,400 43,208 198,52 398,11 c 71,-15 1628,-15 1692,0 174,40 322,190 365,370 22,94 22,1579 0,1683 -21,98 -66,187 -127,252 -61,64 -113,98 -201,128 -61,21 -75,21 -867,23 -640,1 -817,-1 -865,-12 z m 1737,-163 c 74,-36 132,-95 170,-170 l 23,-47 0,-840 0,-840 -28,-57 c -37,-76 -96,-134 -171,-169 l -63,-29 -839,2 -839,3 -50,27 C 273,204 196,285 167,348 l -22,47 0,840 0,840 27,52 c 53,100 128,162 227,189 35,10 236,12 856,11 l 810,-2 67,-33 z"
       id="path8" />
  </g>
  <g fill="#000000">
  <path
     d="m 75.15625,196.28125 a 5.7863151,5.7863151 0 0 0 -5.8125,5.78125 l 0,200.71875 a 5.7863151,5.7863151 0 0 0 5.8125,5.78125 l 314.71875,0 a 5.7863151,5.7863151 0 0 0 5.78125,-5.78125 l 0,-200.71875 a 5.7863151,5.7863151 0 0 0 -5.78125,-5.78125 l -314.71875,0 z m 5.78125,11.5625 303.15625,0 0,189.15625 -303.15625,0 0,-189.15625 z"
     id="rect3052"
     style="font-size:medium;font-style:normal;font-variant:normal;font-weight:normal;font-stretch:normal;text-indent:0;text-align:start;text-decoration:none;line-height:normal;letter-spacing:normal;word-spacing:normal;text-transform:none;direction:ltr;block-progression:tb;writing-mode:lr-tb;text-anchor:start;baseline-shift:baseline;color:#000000;fill:#000000;fill-opacity:1;stroke:none;stroke-width:11.57147312;marker:none;visibility:visible;display:inline;overflow:visible;enable-background:accumulate;font-family:Sans;-inkscape-font-specification:Sans" />
  <path
     style="font-size:medium;font-style:normal;font-variant:normal;font-weight:normal;font-stretch:normal;text-indent:0;text-align:start;text-decoration:none;line-height:normal;letter-spacing:normal;word-spacing:normal;text-transform:none;direction:ltr;block-progression:tb;writing-mode:lr-tb;text-anchor:start;baseline-shift:baseline;color:#000000;fill:#000000;fill-opacity:1;stroke:none;stroke-width:12;marker:none;visibility:visible;display:inline;overflow:visible;enable-background:accumulate;font-family:Sans;-inkscape-font-specification:Sans"
     d="m 211.03125,325.15625 a 6.0006,6.0006 0 1 0 0,12 l 145.75,0 a 6.0006,6.0006 0 1 0 0,-12 l -145.75,0 z"
     id="path3877"
     inkscape:connector-curvature="0" />
  <path
     style="font-size:medium;font-style:normal;font-variant:normal;font-weight:normal;font-stretch:normal;text-indent:0;text-align:start;text-decoration:none;line-height:normal;letter-spacing:normal;word-spacing:normal;text-transform:none;direction:ltr;block-progression:tb;writing-mode:lr-tb;text-anchor:start;baseline-shift:baseline;color:#000000;fill:#000000;fill-opacity:1;stroke:none;stroke-width:11.05794525;marker:none;visibility:visible;display:inline;overflow:visible;enable-background:accumulate;font-family:Sans;-inkscape-font-specification:Sans"
     d="m 222.03125,344.46875 a 5.53125,5.53125 0 1 0 0,11.0625 l 123.75,0 a 5.53125,5.53125 0 0 0 0,-11.0625 l -123.75,0 z"
     id="path3877-1"
     inkscape:connector-curvature="0" />
  <path
     style="font-size:medium;font-style:normal;font-variant:normal;font-weight:normal;font-stretch:normal;text-indent:0;text-align:start;text-decoration:none;line-height:normal;letter-spacing:normal;word-spacing:normal;text-transform:none;direction:ltr;block-progression:tb;writing-mode:lr-tb;text-anchor:start;baseline-shift:baseline;color:#000000;fill:#000000;fill-opacity:1;stroke:none;stroke-width:10.80961132;marker:none;visibility:visible;display:inline;overflow:visible;enable-background:accumulate;font-family:Sans;-inkscape-font-specification:Sans"
     d="m 224.78125,307.53125 a 5.40625,5.40625 0 1 0 0,10.8125 l 118.25,0 a 5.40625,5.40625 0 0 0 0,-10.8125 l -118.25,0 z"
     id="path3877-7"
     inkscape:connector-curvature="0" />
  <path
     style="font-size:medium;font-style:normal;font-variant:normal;font-weight:normal;font-stretch:normal;text-indent:0;text-align:start;text-decoration:none;line-height:normal;letter-spacing:normal;word-spacing:normal;text-transform:none;direction:ltr;block-progression:tb;writing-mode:lr-tb;text-anchor:start;baseline-shift:baseline;color:#000000;fill:#000000;fill-opacity:1;stroke:none;stroke-width:12;marker:none;visibility:visible;display:inline;overflow:visible;enable-background:accumulate;font-family:Sans;-inkscape-font-specification:Sans"
     d="M 104.03125,48.9375 A 6.0006,6.0006 0 0 0 98.125,55.03125 l 0,145.75 a 6.0006,6.0006 0 1 0 12,0 l 0,-145.75 a 6.0006,6.0006 0 0 0 -6.09375,-6.09375 z"
     id="path3877-4"
     inkscape:connector-curvature="0" />
  <path
     d="m 193.34745,120.84216 a 6.8167372,6.8167372 0 1 1 -13.63347,0 6.8167372,6.8167372 0 1 1 13.63347,0 z"
     transform="matrix(1.7454546,0,0,1.7454546,-221.47072,-159.36518)"
     id="path3922"
     style="fill:#000000;fill-opacity:1;stroke:none" />
  <path
     style="font-size:medium;font-style:normal;font-variant:normal;font-weight:normal;font-stretch:normal;text-indent:0;text-align:start;text-decoration:none;line-height:normal;letter-spacing:normal;word-spacing:normal;text-transform:none;direction:ltr;block-progression:tb;writing-mode:lr-tb;text-anchor:start;baseline-shift:baseline;color:#000000;fill:#000000;fill-opacity:1;stroke:none;stroke-width:11.57774448;marker:none;visibility:visible;display:inline;overflow:visible;enable-background:accumulate;font-family:Sans;-inkscape-font-specification:Sans"
     d="m 161.53125,255.96875 a 5.7894511,5.7894511 0 0 0 -5.6875,5.875 l 0,135.6875 a 5.7894511,5.7894511 0 1 0 11.5625,0 l 0,-135.6875 a 5.7894511,5.7894511 0 0 0 -5.875,-5.875 z"
     id="path3877-4-0"
     inkscape:connector-curvature="0" />
  <path
     style="font-size:medium;font-style:normal;font-variant:normal;font-weight:normal;font-stretch:normal;text-indent:0;text-align:start;text-decoration:none;line-height:normal;letter-spacing:normal;word-spacing:normal;text-transform:none;direction:ltr;block-progression:tb;writing-mode:lr-tb;text-anchor:start;baseline-shift:baseline;color:#000000;fill:#000000;fill-opacity:1;stroke:none;stroke-width:12.24820423;marker:none;visibility:visible;display:inline;overflow:visible;enable-background:accumulate;font-family:Sans;-inkscape-font-specification:Sans"
     d="m 76.225,248.6875 0,12.25 308.84375,0 0,-12.25 -308.84375,0 z"
     id="path3877-4-0-9"
     inkscape:connector-curvature="0" />
  <path
     d="m 193.34745,120.84216 a 6.8167372,6.8167372 0 1 1 -13.63347,0 6.8167372,6.8167372 0 1 1 13.63347,0 z"
     transform="matrix(2.4000001,0,0,2.4000001,-94.194916,-62.083064)"
     id="path3922-4"
     style="fill:#000000;fill-opacity:1;stroke:none" />
  <path
     d="m 193.34745,120.84216 a 6.8167372,6.8167372 0 1 1 -13.63347,0 6.8167372,6.8167372 0 1 1 13.63347,0 z"
     transform="matrix(1.1636364,0,0,1.1636364,-101.04546,165.76501)"
     id="path3922-8"
     style="fill:#000000;fill-opacity:1;stroke:none" />
  <path
     d="m 193.34745,120.84216 a 6.8167372,6.8167372 0 1 1 -13.63347,0 6.8167372,6.8167372 0 1 1 13.63347,0 z"
     transform="matrix(1.1636364,0,0,1.1636364,-100.66241,205.42603)"
     id="path3922-8-8"
     style="fill:#000000;fill-opacity:1;stroke:none" />
  <path
     style="font-size:medium;font-style:normal;font-variant:normal;font-weight:normal;font-stretch:normal;text-indent:0;text-align:start;text-decoration:none;line-height:normal;letter-spacing:normal;word-spacing:normal;text-transform:none;direction:ltr;block-progression:tb;writing-mode:lr-tb;text-anchor:start;baseline-shift:baseline;color:#000000;fill:#000000;fill-opacity:1;stroke:none;stroke-width:11.05794525;marker:none;visibility:visible;display:inline;overflow:visible;enable-background:accumulate;font-family:Sans;-inkscape-font-specification:Sans"
     d="m 235.97247,362.51497 a 4.3806034,5.53125 0 1 0 0,11.0625 l 98.00672,0 a 4.3806034,5.53125 0 0 0 0,-11.0625 l -98.00672,0 z"
     id="path3877-1-1"
     inkscape:connector-curvature="0" />
  <path
     style="font-size:medium;font-style:normal;font-variant:normal;font-weight:normal;font-stretch:normal;text-indent:0;text-align:start;text-decoration:none;line-height:normal;letter-spacing:normal;word-spacing:normal;text-transform:none;direction:ltr;block-progression:tb;writing-mode:lr-tb;text-anchor:start;baseline-shift:baseline;color:#000000;fill:#000000;fill-opacity:1;stroke:none;stroke-width:11.05794525;marker:none;visibility:visible;display:inline;overflow:visible;enable-background:accumulate;font-family:Sans;-inkscape-font-specification:Sans"
     d="m 235.25353,288.89796 a 4.3806034,5.53125 0 1 0 0,11.0625 l 98.00671,0 a 4.3806034,5.53125 0 0 0 0,-11.0625 l -98.00671,0 z"
     id="path3877-1-1-7"
     inkscape:connector-curvature="0" />
  </g>
</svg>
