<?xml version="1.0" encoding="UTF-8" standalone="no"?>
<!-- Created with Inkscape (http://www.inkscape.org/) -->

<svg
   xmlns:dc="http://purl.org/dc/elements/1.1/"
   xmlns:cc="http://creativecommons.org/ns#"
   xmlns:rdf="http://www.w3.org/1999/02/22-rdf-syntax-ns#"
   xmlns:svg="http://www.w3.org/2000/svg"
   xmlns="http://www.w3.org/2000/svg"
   version="1.0"
   width="468pt"
   height="470pt"
   viewBox="0 0 468 470"
   id="svg2">
  <defs
     id="defs14" />
  <metadata
     id="metadata4">
Created by potrace 1.8, written by Peter Selinger 2001-2007
<rdf:RDF>
  <cc:Work
     rdf:about="">
    <dc:format>image/svg+xml</dc:format>
    <dc:type
       rdf:resource="http://purl.org/dc/dcmitype/StillImage" />
    <dc:title></dc:title>
  </cc:Work>
</rdf:RDF>
</metadata>
  <g
     transform="matrix(0.159727,0,0,-0.159727,0,470)"
     id="g6"
     style="fill:#000000;stroke:none">
    <path
       d="m 1327,2929 c -110,-26 -209,-109 -260,-217 l -32,-67 -3,-630 -3,-630 L 525,880 C 248,602 16,362 11,347 -5,307 -2,253 16,215 24,197 68,146 113,102 208,10 250,-9 323,10 360,20 424,80 875,531 l 510,509 630,2 630,3 66,32 c 80,39 150,111 187,191 l 27,57 3,639 c 3,705 3,699 -60,798 -40,63 -89,105 -168,142 l -65,31 -635,2 c -350,1 -652,-3 -673,-8 z m 1332,-154 c 61,-30 107,-85 126,-149 23,-76 22,-1199 -1,-1275 -18,-61 -69,-123 -128,-154 -41,-22 -46,-22 -650,-25 -672,-3 -675,-3 -749,59 -21,17 -49,53 -62,80 l -25,48 0,626 c 0,678 -2,657 55,731 13,18 48,44 77,58 l 52,26 628,0 629,0 48,-25 z M 1145,1154 c 22,-22 51,-48 65,-57 l 25,-17 L 765,610 C 507,351 288,140 280,140 c -16,0 -150,129 -150,145 0,5 213,223 473,483 463,463 472,472 487,450 8,-13 32,-41 55,-64 z"
       id="path8" />
  </g>
</svg>
