<?xml version="1.0" encoding="UTF-8" standalone="no"?>
<!-- Created with Inkscape (http://www.inkscape.org/) -->

<svg
   xmlns:dc="http://purl.org/dc/elements/1.1/"
   xmlns:cc="http://creativecommons.org/ns#"
   xmlns:rdf="http://www.w3.org/1999/02/22-rdf-syntax-ns#"
   xmlns:svg="http://www.w3.org/2000/svg"
   xmlns="http://www.w3.org/2000/svg"
   id="svg2"
   viewBox="0 0 468 468"
   height="468pt"
   width="468pt"
   version="1.0">
  <defs
     id="defs12" />
  <metadata
     id="metadata4">
Created by potrace 1.8, written by Peter Selinger 2001-2007
<rdf:RDF>
  <cc:Work
     rdf:about="">
    <dc:format>image/svg+xml</dc:format>
    <dc:type
       rdf:resource="http://purl.org/dc/dcmitype/StillImage" />
    <dc:title></dc:title>
  </cc:Work>
</rdf:RDF>
</metadata>
  <g fill="#000000"
     id="g6"
     transform="matrix(0.189474,0,0,-0.189474,0,468)">
    <path
       id="path8"
       d="M 395,2455 C 244,2422 112,2322 57,2200 5,2083 6,2112 2,1260 0,702 2,446 10,400 43,208 198,52 398,11 c 71,-15 1628,-15 1692,0 174,40 322,190 365,370 22,94 22,1579 0,1683 -21,98 -66,187 -127,252 -61,64 -113,98 -201,128 -61,21 -75,21 -867,23 -640,1 -817,-1 -865,-12 z m 1737,-163 c 74,-36 132,-95 170,-170 l 23,-47 0,-840 0,-840 -28,-57 c -37,-76 -96,-134 -171,-169 l -63,-29 -839,2 -839,3 -50,27 C 273,204 196,285 167,348 l -22,47 0,840 0,840 27,52 c 53,100 128,162 227,189 35,10 236,12 856,11 l 810,-2 67,-33 z" />
  </g>
  <g fill="#000000"
     id="g3365"
     transform="matrix(0.1258835,0,0,-0.1258835,51.167461,420.73808)"
     style="fill:#000000;stroke:none">
    <path
       id="path3367"
       d="m 2249,2931 -29,-29 0,-204 0,-203 -92,3 c -234,9 -374,-47 -469,-185 -55,-80 -62,-111 -69,-343 -8,-231 -13,-256 -67,-320 -15,-19 -48,-46 -72,-62 l -45,-28 -180,0 c -100,0 -207,-4 -239,-10 C 905,1537 830,1500 769,1443 658,1340 640,1282 636,1023 632,808 622,759 564,692 496,613 473,606 242,600 55,595 37,593 24,576 1,544 6,493 35,474 c 35,-23 398,-16 465,9 118,45 214,146 250,265 17,54 20,93 20,246 0,213 10,260 69,327 21,24 59,54 83,67 42,20 59,22 230,22 102,0 210,5 239,10 125,24 237,111 293,229 30,66 31,67 36,281 7,242 15,274 84,343 69,69 103,80 268,85 l 147,4 3,-212 c 3,-209 3,-212 27,-231 13,-10 33,-19 45,-19 27,1 635,466 655,502 29,51 40,41 -552,491 -48,37 -95,67 -103,67 -9,0 -29,-13 -45,-29 z m 359,-370 172,-132 -197,-151 c -109,-83 -204,-155 -210,-161 -10,-7 -13,56 -13,313 l 0,322 38,-30 c 20,-16 115,-88 210,-161 z" />
    <path
       id="path3369"
       d="m 43,2490 c -41,-16 -55,-70 -29,-106 13,-17 32,-19 213,-25 228,-6 276,-19 338,-92 56,-66 67,-111 74,-310 7,-194 7,-197 67,-197 60,0 66,19 66,202 -1,118 -5,179 -17,222 -47,174 -163,276 -347,306 -76,12 -334,12 -365,0 z" />
    <path
       id="path3371"
       d="m 1610,1192 c -20,-16 -22,-26 -23,-177 -1,-227 25,-328 112,-427 81,-92 197,-131 393,-132 l 127,-1 3,-208 c 3,-206 3,-209 27,-228 13,-10 33,-19 45,-19 24,0 617,449 649,492 13,18 18,34 13,51 -4,18 -97,95 -323,267 -174,134 -325,245 -335,248 -10,2 -29,-8 -48,-26 l -30,-30 0,-208 0,-207 -139,5 c -132,4 -142,6 -205,37 -123,60 -156,143 -156,392 0,138 -2,158 -18,172 -24,22 -64,22 -92,-1 z m 965,-509 c 113,-86 204,-157 203,-158 -22,-18 -397,-303 -406,-309 -9,-6 -12,62 -12,308 0,174 2,316 5,316 3,0 98,-70 210,-157 z" />
  </g>
</svg>
