<?xml version="1.0" encoding="UTF-8" standalone="no"?>
<!-- Created with Inkscape (http://www.inkscape.org/) -->

<svg
   xmlns:dc="http://purl.org/dc/elements/1.1/"
   xmlns:cc="http://creativecommons.org/ns#"
   xmlns:rdf="http://www.w3.org/1999/02/22-rdf-syntax-ns#"
   xmlns:svg="http://www.w3.org/2000/svg"
   xmlns="http://www.w3.org/2000/svg"
   version="1.0"
   width="468pt"
   height="468pt"
   viewBox="0 0 468 468"
   id="svg2">
  <defs
     id="defs12" />
  <metadata
     id="metadata4">
Created by potrace 1.8, written by Peter Selinger 2001-2007
<rdf:RDF>
  <cc:Work
     rdf:about="">
    <dc:format>image/svg+xml</dc:format>
    <dc:type
       rdf:resource="http://purl.org/dc/dcmitype/StillImage" />
    <dc:title></dc:title>
  </cc:Work>
</rdf:RDF>
</metadata>
  <g fill="#000000"
     transform="matrix(0.189474,0,0,-0.189474,0,468)"
     id="g6">
    <path
       d="M 395,2455 C 244,2422 112,2322 57,2200 5,2083 6,2112 2,1260 0,702 2,446 10,400 43,208 198,52 398,11 c 71,-15 1628,-15 1692,0 174,40 322,190 365,370 22,94 22,1579 0,1683 -21,98 -66,187 -127,252 -61,64 -113,98 -201,128 -61,21 -75,21 -867,23 -640,1 -817,-1 -865,-12 z m 1737,-163 c 74,-36 132,-95 170,-170 l 23,-47 0,-840 0,-840 -28,-57 c -37,-76 -96,-134 -171,-169 l -63,-29 -839,2 -839,3 -50,27 C 273,204 196,285 167,348 l -22,47 0,840 0,840 27,52 c 53,100 128,162 227,189 35,10 236,12 856,11 l 810,-2 67,-33 z"
       id="path8" />
  </g>
  <g fill="#000000"
     id="text2993"
     style="font-size:133.91072083px;font-style:normal;font-variant:normal;font-weight:bold;font-stretch:normal;text-align:start;line-height:125%;letter-spacing:0px;word-spacing:0px;writing-mode:lr-tb;text-anchor:start;fill:#000000;fill-opacity:1;stroke:none;font-family:Arial;-inkscape-font-specification:Arial Bold">
    <path
       d="m 93.360551,255.27299 18.831199,-1.83081 c 1.13333,6.32068 3.43274,10.96309 6.89823,13.92724 3.46543,2.96418 8.14053,4.44627 14.02532,4.44625 6.23342,2e-5 10.93032,-1.3186 14.0907,-3.95586 3.16027,-2.63721 4.74043,-5.72125 4.74049,-9.25213 -6e-5,-2.26669 -0.66482,-4.19557 -1.99427,-5.78667 -1.32958,-1.59102 -3.65079,-2.97503 -6.96362,-4.15201 -2.26677,-0.7846 -7.43227,-2.1795 -15.49651,-4.18471 -10.37462,-2.57181 -17.65426,-5.73214 -21.83895,-9.48099 -5.884763,-5.27442 -8.827134,-11.70405 -8.827126,-19.2889 -8e-6,-4.88208 1.383996,-9.44821 4.152016,-13.69838 2.768,-4.25001 6.75655,-7.48662 11.96566,-9.70984 5.20906,-2.22303 11.49702,-3.33459 18.86388,-3.33469 12.03099,1e-4 21.08696,2.63734 27.16793,7.91172 6.08083,5.27456 9.27384,12.31446 9.57906,21.11971 l -19.35428,0.85002 c -0.82829,-4.92568 -2.60461,-8.46743 -5.32897,-10.62524 -2.72447,-2.15766 -6.8111,-3.23653 -12.25989,-3.23662 -5.62325,9e-5 -10.0259,1.15524 -13.20799,3.46547 -2.0488,1.48216 -3.07318,3.46554 -3.07315,5.95013 -3e-5,2.26679 0.95897,4.20658 2.87699,5.81936 2.44105,2.04883 8.36938,4.18478 17.78501,6.40784 9.41555,2.22319 16.37916,4.5226 20.89086,6.89823 4.51157,2.37575 8.04241,5.62326 10.59255,9.74253 2.54998,4.11937 3.825,9.20858 3.82509,15.26766 -9e-5,5.49245 -1.52576,10.63615 -4.57703,15.43111 -3.05143,4.79499 -7.36691,8.35853 -12.94645,10.69063 -5.57967,2.3321 -12.53239,3.49815 -20.85816,3.49816 -12.11826,-10e-6 -21.42487,-2.80071 -27.91986,-8.40212 -6.495033,-5.60139 -10.374604,-13.76375 -11.638729,-24.48709 z"
       id="path2989" />
    <path
       d="m 187.58191,190.60614 19.35428,0 0,51.91656 c -3e-5,8.23869 0.23972,13.57855 0.71925,16.0196 0.82819,3.92319 2.80067,7.07261 5.91744,9.44829 3.1167,2.37571 7.37769,3.56355 12.78298,3.56354 5.49238,1e-5 9.6335,-1.12245 12.42336,-3.36739 2.78974,-2.2449 4.46799,-5.00201 5.03473,-8.27134 0.56661,-3.26927 0.84995,-8.69631 0.85002,-16.28113 l 0,-53.02813 19.35428,0 0,50.3473 c -8e-5,11.50798 -0.52317,19.63765 -1.56926,24.38901 -1.04626,4.75141 -2.97515,8.76175 -5.78667,12.03104 -2.81168,3.26931 -6.57138,5.87386 -11.2791,7.81364 -4.70786,1.93979 -10.85415,2.90968 -18.43888,2.90968 -9.15409,0 -16.09591,-1.05708 -20.82547,-3.17123 -4.72962,-2.11414 -8.46752,-4.86035 -11.21372,-8.23864 -2.74623,-3.37827 -4.55524,-6.92001 -5.42704,-10.62524 -1.26415,-5.49241 -1.89621,-13.60028 -1.8962,-24.32363 z"
       id="path2991" />
    <path
       d="m 284.54948,190.60614 38.31625,0 c 7.58474,1e-4 13.24063,0.31613 16.9677,0.9481 3.72693,0.63216 7.06162,1.95078 10.00407,3.95586 2.94229,2.00526 5.39427,4.67519 7.35593,8.0098 1.9615,3.33477 2.94229,7.07267 2.94238,11.21371 -9e-5,4.48992 -1.20973,8.60924 -3.62893,12.35797 -2.41936,3.74886 -5.69956,6.56046 -9.84061,8.43481 5.84108,1.70009 10.33092,4.59887 13.46954,8.69635 3.13844,4.09757 4.70771,8.91434 4.7078,14.45033 -9e-5,4.35909 -1.01358,8.59829 -3.04046,12.71759 -2.02705,4.11934 -4.79506,7.41044 -8.30403,9.8733 -3.50913,2.46288 -7.8355,3.97766 -12.97914,4.54434 -3.22578,0.34872 -11.00671,0.56668 -23.34284,0.65386 l -32.62766,0 z m 19.35429,15.95421 0,22.16589 12.6849,0 c 7.54115,5e-5 12.22715,-0.10892 14.05801,-0.32693 3.31284,-0.39226 5.91738,-1.53652 7.81364,-3.43277 1.89613,-1.89614 2.84423,-4.3917 2.84429,-7.48671 -6e-5,-2.9641 -0.81739,-5.37248 -2.45198,-7.22516 -1.63471,-1.85253 -4.06489,-2.97499 -7.29054,-3.36739 -1.91805,-0.21787 -7.43227,-0.32685 -16.54269,-0.32693 z m 0,38.12009 0,25.63135 17.91579,0 c 6.97446,2e-5 11.39891,-0.19614 13.27337,-0.58847 2.87693,-0.52307 5.21993,-1.7981 7.02901,-3.82509 1.80895,-2.02694 2.71345,-4.74046 2.71352,-8.14057 -7e-5,-2.87695 -0.69752,-5.31803 -2.09235,-7.32324 -1.39497,-2.00514 -3.41104,-3.46542 -6.04822,-4.38087 -2.63729,-0.91536 -8.35857,-1.37306 -17.16385,-1.37311 z"
       id="path2993" />
  </g>
</svg>
