<?xml version="1.0" encoding="UTF-8" standalone="no"?>
<!-- Created with Inkscape (http://www.inkscape.org/) -->

<svg
   xmlns:dc="http://purl.org/dc/elements/1.1/"
   xmlns:cc="http://creativecommons.org/ns#"
   xmlns:rdf="http://www.w3.org/1999/02/22-rdf-syntax-ns#"
   xmlns:svg="http://www.w3.org/2000/svg"
   xmlns="http://www.w3.org/2000/svg"
   version="1.0"
   width="468pt"
   height="468pt"
   viewBox="0 0 468 468"
   id="svg2">
  <defs
     id="defs12" />
  <metadata
     id="metadata4">
Created by potrace 1.8, written by Peter Selinger 2001-2007
<rdf:RDF>
  <cc:Work
     rdf:about="">
    <dc:format>image/svg+xml</dc:format>
    <dc:type
       rdf:resource="http://purl.org/dc/dcmitype/StillImage" />
    <dc:title></dc:title>
  </cc:Work>
</rdf:RDF>
</metadata>
  <g fill="#000000"
     transform="matrix(0.189474,0,0,-0.189474,0,468)"
     id="g6"
     style="fill:#000000;stroke:none">
    <path
       d="M 395,2455 C 244,2422 112,2322 57,2200 5,2083 6,2112 2,1260 0,702 2,446 10,400 43,208 198,52 398,11 c 71,-15 1628,-15 1692,0 174,40 322,190 365,370 22,94 22,1579 0,1683 -21,98 -66,187 -127,252 -61,64 -113,98 -201,128 -61,21 -75,21 -867,23 -640,1 -817,-1 -865,-12 z m 1737,-163 c 74,-36 132,-95 170,-170 l 23,-47 0,-840 0,-840 -28,-57 c -37,-76 -96,-134 -171,-169 l -63,-29 -839,2 -839,3 -50,27 C 273,204 196,285 167,348 l -22,47 0,840 0,840 27,52 c 53,100 128,162 227,189 35,10 236,12 856,11 l 810,-2 67,-33 z"
       id="path8" />
  </g>
  <path fill="#000000"
     d="m 230.64237,127.53921 c -58.61626,0 -106.30668,47.69042 -106.30668,106.30316 0,58.61273 47.69394,106.30315 106.30668,106.30315 58.61273,0 106.30315,-47.69042 106.30315,-106.30315 0,-58.61274 -47.6869,-106.30316 -106.30315,-106.30316 z m 0,197.79199 c -50.53284,0 -91.49236,-40.95952 -91.49236,-91.48883 0,-50.52931 40.956,-91.48884 91.49236,-91.48884 50.52578,0 91.48883,40.95953 91.48883,91.48884 0,50.52931 -40.96305,91.48883 -91.48883,91.48883 z m 192.9208,-74.36396 c 0.49663,-5.64606 0.79954,-11.35201 0.79954,-17.12487 0,-5.77287 -0.30291,-11.47882 -0.79954,-17.12488 l -38.45525,-4.55419 c -1.78575,-12.83486 -5.13183,-25.15547 -9.84099,-36.79278 L 406.31502,152.191 c -4.85006,-10.42215 -10.60883,-20.33359 -17.16363,-29.64625 l -35.59523,15.30038 c -7.84743,-10.03471 -16.88537,-19.07617 -26.91656,-26.91656 l 15.29334,-35.598756 c -9.31266,-6.54774 -19.22058,-12.31004 -29.64273,-17.1601 l -23.18305,31.04457 c -11.63378,-4.70917 -23.96144,-8.05524 -36.78925,-9.83747 L 247.76372,40.91805 c -5.64607,-0.493106 -11.35201,-0.796014 -17.12488,-0.796014 -5.78343,0 -11.47881,0.302908 -17.13192,0.796014 l -4.54714,38.458764 c -12.83486,1.78223 -25.15899,5.1283 -36.79278,9.83747 l -23.17952,-31.04457 c -10.42215,4.85006 -20.33007,10.60884 -29.64626,17.1601 l 15.29334,35.598756 c -10.03119,7.84743 -19.06912,16.88185 -26.91303,26.91656 L 72.126297,122.54475 c -6.55127,9.31618 -12.30652,19.2241 -17.1601,29.64625 l 31.04456,23.17952 c -4.70916,11.63731 -8.05524,23.95792 -9.83746,36.79278 l -38.458776,4.55067 c -0.493106,5.64958 -0.792492,11.35553 -0.792492,17.1284 0,5.77286 0.299386,11.47881 0.796014,17.1284 l 38.458774,4.55066 c 1.78575,12.83133 5.13183,25.15547 9.83746,36.79278 l -31.04456,23.17952 c 4.85358,10.42215 10.60883,20.33359 17.1601,29.64626 l 35.598753,-15.29687 c 7.84391,10.03119 16.88185,19.06561 26.91304,26.91304 l -15.29334,35.59523 c 9.31619,6.55127 19.2241,12.31357 29.64625,17.16363 l 23.17952,-31.04457 c 11.63379,4.70564 23.96145,8.05172 36.79278,9.83747 l 4.54715,38.45877 c 5.65311,0.49311 11.35201,0.79602 17.13192,0.79602 5.77286,0 11.47881,-0.30291 17.12488,-0.79602 l 4.55419,-38.45877 c 12.8278,-1.78575 25.15546,-5.13183 36.78925,-9.83747 l 23.18304,31.04457 c 10.41863,-4.85006 20.33007,-10.60883 29.64274,-17.15658 l -15.29334,-35.60228 c 10.03119,-7.84743 19.06912,-16.88185 26.91656,-26.91304 l 35.59523,15.29687 c 6.55127,-9.31619 12.31357,-19.22411 17.16362,-29.64626 l -31.05513,-23.17952 c 4.70916,-11.63731 8.05524,-23.96145 9.84099,-36.79278 l 38.45525,-4.55419 z m -192.9208,96.69463 c -62.76187,0 -113.81951,-51.06116 -113.81951,-113.81598 0,-62.75483 51.05764,-113.81599 113.81951,-113.81599 62.75482,0 113.81598,51.06116 113.81598,113.81599 0,62.75482 -51.06116,113.81598 -113.81598,113.81598 z"
     id="path5" />
</svg>
