<?xml version="1.0" encoding="utf-8"?>
<!-- Generator: Adobe Illustrator 21.1.0, SVG Export Plug-In . SVG Version: 6.00 Build 0)  -->
<svg version="1.1"
	 id="svg2" xmlns:cc="http://creativecommons.org/ns#" xmlns:dc="http://purl.org/dc/elements/1.1/" xmlns:rdf="http://www.w3.org/1999/02/22-rdf-syntax-ns#" xmlns:svg="http://www.w3.org/2000/svg"
	 xmlns="http://www.w3.org/2000/svg" xmlns:xlink="http://www.w3.org/1999/xlink" x="0px" y="0px" viewBox="0 0 468 468"
	 style="enable-background:new 0 0 468 468;" xml:space="preserve">
<style type="text/css">
	.st0{enable-background:new    ;}
</style>
<g id="g6" transform="matrix(0.189474,0,0,-0.189474,0,468)">
	<path id="path8" d="M395,2455c-151-33-283-133-338-255c-52-117-51-88-55-940c-2-558,0-814,8-860C43,208,198,52,398,11
		c71-15,1628-15,1692,0c174,40,322,190,365,370c22,94,22,1579,0,1683c-21,98-66,187-127,252c-61,64-113,98-201,128
		c-61,21-75,21-867,23C620,2468,443,2466,395,2455z M2132,2292c74-36,132-95,170-170l23-47v-840V395l-28-57c-37-76-96-134-171-169
		l-63-29l-839,2l-839,3l-50,27c-62,32-139,113-168,176l-22,47v840v840l27,52c53,100,128,162,227,189c35,10,236,12,856,11l810-2
		L2132,2292z"/>
</g>
<g class="st0">
	<path d="M40.7,286.5v-95.9h19.4v37.7H98v-37.7h19.4v95.9H98v-41.9H60.1v41.9H40.7z"/>
	<path d="M133.4,239.1c0-9.8,1.5-18,4.4-24.6c2.2-4.9,5.2-9.3,8.9-13.1c3.8-3.9,7.9-6.8,12.4-8.6c6-2.5,12.9-3.8,20.7-3.8
		c14.1,0,25.4,4.4,33.9,13.1c8.5,8.8,12.7,20.9,12.7,36.6c0,15.5-4.2,27.6-12.6,36.3c-8.4,8.7-19.7,13.1-33.7,13.1
		c-14.3,0-25.6-4.3-34-13C137.7,266.4,133.4,254.4,133.4,239.1z M153.4,238.5c0,10.9,2.5,19.1,7.5,24.7c5,5.6,11.4,8.4,19.1,8.4
		c7.7,0,14-2.8,19-8.3c4.9-5.6,7.4-13.9,7.4-25c0-11-2.4-19.2-7.2-24.6c-4.8-5.4-11.2-8.1-19.2-8.1c-8,0-14.4,2.7-19.3,8.2
		C155.8,219.2,153.4,227.4,153.4,238.5z"/>
	<path d="M241.3,286.5v-95.9h29l17.4,65.4l17.2-65.4h29v95.9h-18V211l-19,75.5h-18.6l-19-75.5v75.5H241.3z"/>
	<path d="M353.1,286.5v-95.9h71.1v16.2h-51.7v21.3h48.1v16.2h-48.1v26.1H426v16.2H353.1z"/>
</g>
</svg>
