<?xml version="1.0" encoding="UTF-8" standalone="no"?>
<svg
   xmlns:dc="http://purl.org/dc/elements/1.1/"
   xmlns:cc="http://creativecommons.org/ns#"
   xmlns:rdf="http://www.w3.org/1999/02/22-rdf-syntax-ns#"
   xmlns:svg="http://www.w3.org/2000/svg"
   xmlns="http://www.w3.org/2000/svg"
   id="svg2"
   viewBox="0 0 468 468"
   height="468pt"
   width="468pt"
   version="1.0">
  <defs
     id="defs12" />
  <metadata
     id="metadata4">
Created by potrace 1.8, written by Peter Selinger 2001-2007
<rdf:RDF>
  <cc:Work
     rdf:about="">
    <dc:format>image/svg+xml</dc:format>
    <dc:type
       rdf:resource="http://purl.org/dc/dcmitype/StillImage" />
    <dc:title></dc:title>
  </cc:Work>
</rdf:RDF>
</metadata>
  <g
     style="display:inline"
     id="layer3">
    <rect
       ry="96.790062"
       rx="58.759068"
       y="13.881355"
       x="13.881355"
       height="450.15253"
       width="446.18646"
       id="rect4520"
       style="opacity:1;fill:#848585;fill-opacity:0.98345155;fill-rule:nonzero;stroke:#000000;stroke-width:0.85039377;stroke-miterlimit:4;stroke-dasharray:none;stroke-opacity:1" />
  </g>
  <g
     style="display:inline"
     id="layer1">
    <rect
       ry="6.0340185"
       rx="18.465361"
       y="87.388412"
       x="57.110378"
       height="231.74146"
       width="352.38751"
       id="rect4508"
       style="opacity:1;fill:#000000;fill-opacity:1;fill-rule:nonzero;stroke:#000000;stroke-width:0.85039377;stroke-miterlimit:4;stroke-dasharray:none;stroke-opacity:1" />
  </g>
  <g
     style="display:inline"
     id="layer2">
    <g
       style="fill:#feffff;fill-opacity:1"
       id="g6"
       transform="matrix(0.189474,0,0,-0.189474,3.1853047,468)">
      <path
         style="fill:#feffff;fill-opacity:1"
         id="path8"
         d="M 395,2455 C 244,2422 112,2322 57,2200 5,2083 6,2112 2,1260 0,702 2,446 10,400 43,208 198,52 398,11 c 71,-15 1628,-15 1692,0 174,40 322,190 365,370 22,94 22,1579 0,1683 -21,98 -66,187 -127,252 -61,64 -113,98 -201,128 -61,21 -75,21 -867,23 -640,1 -817,-1 -865,-12 z m 1737,-163 c 74,-36 132,-95 170,-170 l 23,-47 V 1235 395 l -28,-57 c -37,-76 -96,-134 -171,-169 l -63,-29 -839,2 -839,3 -50,27 C 273,204 196,285 167,348 l -22,47 v 840 840 l 27,52 c 53,100 128,162 227,189 35,10 236,12 856,11 l 810,-2 z" />
    </g>
    <g
       style="fill:#ffffff;fill-opacity:1;stroke:none"
       id="g4029"
       transform="matrix(0.12657094,0,0,-0.12657094,49.403568,381.66585)">
      <path
         style="fill:#ffffff;fill-opacity:1"
         id="path4031"
         d="m 117,2316 c -51,-19 -85,-52 -98,-95 -6,-24 -9,-331 -7,-913 3,-873 3,-877 24,-905 12,-15 36,-37 55,-48 33,-19 55,-20 632,-23 l 597,-3 V 235 140 H 926 C 558,140 531,139 509,122 478,96 478,44 510,18 532,0 569,0 1487,2 c 932,3 955,3 969,22 20,28 17,73 -6,96 -19,19 -33,20 -425,20 h -405 v 95 94 l 613,3 612,3 37,23 c 21,13 45,40 57,66 21,42 21,53 21,906 0,853 0,864 -21,906 -12,26 -36,53 -57,66 l -37,23 -1345,2 c -1122,2 -1351,0 -1383,-11 z M 2820,1420 V 650 H 1480 140 v 763 c 0,420 3,767 7,770 3,4 606,7 1340,7 h 1333 z" />
    </g>
  </g>
</svg>
