<?xml version="1.0" encoding="UTF-8" standalone="no"?>
<!-- Created with Inkscape (http://www.inkscape.org/) -->

<svg
   xmlns:dc="http://purl.org/dc/elements/1.1/"
   xmlns:cc="http://creativecommons.org/ns#"
   xmlns:rdf="http://www.w3.org/1999/02/22-rdf-syntax-ns#"
   xmlns:svg="http://www.w3.org/2000/svg"
   xmlns="http://www.w3.org/2000/svg"
   version="1.0"
   width="468pt"
   height="468pt"
   viewBox="0 0 468 468"
   id="svg2">
  <defs
     id="defs12" />
  <metadata
     id="metadata4">
Created by potrace 1.8, written by Peter Selinger 2001-2007
<rdf:RDF>
  <cc:Work
     rdf:about="">
    <dc:format>image/svg+xml</dc:format>
    <dc:type
       rdf:resource="http://purl.org/dc/dcmitype/StillImage" />
    <dc:title></dc:title>
  </cc:Work>
</rdf:RDF>
</metadata>
  <g
     transform="matrix(0.189474,0,0,-0.189474,3.1853047,468)"
     id="g6">
    <path
       d="M 395,2455 C 244,2422 112,2322 57,2200 5,2083 6,2112 2,1260 0,702 2,446 10,400 43,208 198,52 398,11 c 71,-15 1628,-15 1692,0 174,40 322,190 365,370 22,94 22,1579 0,1683 -21,98 -66,187 -127,252 -61,64 -113,98 -201,128 -61,21 -75,21 -867,23 -640,1 -817,-1 -865,-12 z m 1737,-163 c 74,-36 132,-95 170,-170 l 23,-47 0,-840 0,-840 -28,-57 c -37,-76 -96,-134 -171,-169 l -63,-29 -839,2 -839,3 -50,27 C 273,204 196,285 167,348 l -22,47 0,840 0,840 27,52 c 53,100 128,162 227,189 35,10 236,12 856,11 l 810,-2 67,-33 z"
       id="path8" />
  </g>
  <g
     transform="matrix(0.12657094,0,0,-0.12657094,49.403568,381.66585)"
     id="g4029"
     style="fill:#000000;stroke:none">
    <path
       d="m 117,2316 c -51,-19 -85,-52 -98,-95 -6,-24 -9,-331 -7,-913 3,-873 3,-877 24,-905 12,-15 36,-37 55,-48 33,-19 55,-20 632,-23 l 597,-3 0,-94 0,-95 -394,0 C 558,140 531,139 509,122 478,96 478,44 510,18 532,0 569,0 1487,2 c 932,3 955,3 969,22 20,28 17,73 -6,96 -19,19 -33,20 -425,20 l -405,0 0,95 0,94 613,3 612,3 37,23 c 21,13 45,40 57,66 21,42 21,53 21,906 0,853 0,864 -21,906 -12,26 -36,53 -57,66 l -37,23 -1345,2 c -1122,2 -1351,0 -1383,-11 z m 2703,-896 0,-770 -1340,0 -1340,0 0,763 c 0,420 3,767 7,770 3,4 606,7 1340,7 l 1333,0 0,-770 z"
       id="path4031" />
  </g>
</svg>
