<?xml version="1.0" encoding="UTF-8" standalone="no"?>
<!-- Created with Inkscape (http://www.inkscape.org/) -->

<svg
   xmlns:dc="http://purl.org/dc/elements/1.1/"
   xmlns:cc="http://creativecommons.org/ns#"
   xmlns:rdf="http://www.w3.org/1999/02/22-rdf-syntax-ns#"
   xmlns:svg="http://www.w3.org/2000/svg"
   xmlns="http://www.w3.org/2000/svg"
   version="1.0"
   width="468pt"
   height="468pt"
   viewBox="0 0 468 468"
   id="svg2">
  <defs
     id="defs12" />
  <metadata
     id="metadata4">
Created by potrace 1.8, written by Peter Selinger 2001-2007
<rdf:RDF>
  <cc:Work
     rdf:about="">
    <dc:format>image/svg+xml</dc:format>
    <dc:type
       rdf:resource="http://purl.org/dc/dcmitype/StillImage" />
    <dc:title></dc:title>
  </cc:Work>
</rdf:RDF>
</metadata>
  <g
     transform="matrix(0.189474,0,0,-0.189474,0,468)"
     id="g6">
    <path style="fill:#000000;"
       d="M 395,2455 C 244,2422 112,2322 57,2200 5,2083 6,2112 2,1260 0,702 2,446 10,400 43,208 198,52 398,11 c 71,-15 1628,-15 1692,0 174,40 322,190 365,370 22,94 22,1579 0,1683 -21,98 -66,187 -127,252 -61,64 -113,98 -201,128 -61,21 -75,21 -867,23 -640,1 -817,-1 -865,-12 z m 1737,-163 c 74,-36 132,-95 170,-170 l 23,-47 0,-840 0,-840 -28,-57 c -37,-76 -96,-134 -171,-169 l -63,-29 -839,2 -839,3 -50,27 C 273,204 196,285 167,348 l -22,47 0,840 0,840 27,52 c 53,100 128,162 227,189 35,10 236,12 856,11 l 810,-2 67,-33 z"
       id="path8" />
  </g>
  <path style="fill:#000000;"
     d="m 412.5712,235.6075 -40.0296,-23.1168 0,16.4904 -204.6024,0 39.8384,-42.0896 c 3.3904,-2.7176 7.8264,-4.624 12.3896,-4.7296 18.46,0 29.4224,-0.005 33.4576,-0.0128 2.7352,7.7928 10.0824,13.4176 18.8168,13.4176 11.0496,0 20.0168,-8.9664 20.0168,-20.02 0,-11.0584 -8.9664,-20.0216 -20.0168,-20.0216 -8.7344,0 -16.0816,5.6216 -18.8168,13.408 l -33.0656,-0.006 c -8.9616,0 -18.352,4.9168 -24.3288,10.6808 0.1632,-0.1712 0.3328,-0.3536 -0.01,0.003 -0.1264,0.1424 -42.2672,44.6512 -42.2672,44.6512 -3.3832,2.7136 -7.8168,4.608 -12.3768,4.7168 l -23.1456,0 c -3.0676,-15.2904 -16.57,-26.8104 -32.766797,-26.8104 -18.4664,0 -33.4352,14.9688 -33.4352,33.4296 0,18.4664 14.9688,33.436 33.4352,33.436 16.199997,0 29.702397,-11.5296 32.770397,-26.8328 l 22.74,0 c 0.0584,0 0.1168,0.003 0.176,0 l 50.2968,0 c 4.5512,0.116 8.9792,2.0128 12.3592,4.7296 0,0 42.1312,44.5056 42.2616,44.6496 0.3376,0.3576 0.1696,0.1712 0.003,0.003 5.9768,5.7632 15.3712,10.6768 24.3344,10.6768 l 31.8656,-0.007 0,13.4216 40.04,0 0,-40.036 -40.04,0 0,13.404 c 0,0 -8.3928,-0.0152 -32.256,-0.0152 -4.564,-0.1048 -9.0048,-2.0088 -12.3936,-4.7264 l -39.8472,-42.0976 154.5672,0 0,16.5168 40.0296,-23.1136 z"
     id="path1334" />
</svg>
