<?xml version="1.0" encoding="UTF-8" standalone="no"?>
<!-- Created with Inkscape (http://www.inkscape.org/) -->

<svg
   xmlns:dc="http://purl.org/dc/elements/1.1/"
   xmlns:cc="http://creativecommons.org/ns#"
   xmlns:rdf="http://www.w3.org/1999/02/22-rdf-syntax-ns#"
   xmlns:svg="http://www.w3.org/2000/svg"
   xmlns="http://www.w3.org/2000/svg"
   version="1.0"
   width="468pt"
   height="468pt"
   viewBox="0 0 468 468"
   id="svg2">
  <defs
     id="defs12" />
  <metadata
     id="metadata4">
Created by potrace 1.8, written by Peter Selinger 2001-2007
<rdf:RDF>
  <cc:Work
     rdf:about="">
    <dc:format>image/svg+xml</dc:format>
    <dc:type
       rdf:resource="http://purl.org/dc/dcmitype/StillImage" />
    <dc:title></dc:title>
  </cc:Work>
</rdf:RDF>
</metadata>
  <g
     transform="matrix(0.189474,0,0,-0.189474,0,468)"
     id="g6">
    <path style="fill:#000000;"
       d="M 395,2455 C 244,2422 112,2322 57,2200 5,2083 6,2112 2,1260 0,702 2,446 10,400 43,208 198,52 398,11 c 71,-15 1628,-15 1692,0 174,40 322,190 365,370 22,94 22,1579 0,1683 -21,98 -66,187 -127,252 -61,64 -113,98 -201,128 -61,21 -75,21 -867,23 -640,1 -817,-1 -865,-12 z m 1737,-163 c 74,-36 132,-95 170,-170 l 23,-47 0,-840 0,-840 -28,-57 c -37,-76 -96,-134 -171,-169 l -63,-29 -839,2 -839,3 -50,27 C 273,204 196,285 167,348 l -22,47 0,840 0,840 27,52 c 53,100 128,162 227,189 35,10 236,12 856,11 l 810,-2 67,-33 z"
       id="path8" />
  </g>
  <path style="fill:#000000;"
     d="m 346.93269,90.212314 c -4.54389,4.796325 -3.53414,7.825582 6.18473,18.932876 23.09811,26.37979 38.11819,56.54617 45.56512,91.00399 4.03901,18.428 4.03901,55.03155 0,73.58576 -7.32072,33.70051 -23.85542,66.26504 -46.19621,91.004 -4.54389,5.04876 -8.33046,10.34997 -8.33046,11.73838 0,6.68961 6.5634,11.35973 11.8646,8.33047 5.55364,-3.02927 22.34079,-23.35055 32.05966,-38.8755 11.35972,-18.04934 21.96213,-44.1767 26.75846,-66.51749 14.13655,-65.12908 -5.04877,-134.67582 -50.99253,-184.279941 -8.20426,-8.83534 -12.24326,-9.97131 -16.91337,-4.922545 z"
     id="path8-8" />
  <path style="fill:#000000;"
     d="m 183.85756,135.6512 c -28.65174,16.15605 -41.5261,23.98164 -42.53586,26.12736 -1.26219,2.39817 -1.64084,19.56397 -1.64084,72.32357 0,59.44921 0.25244,69.92541 1.89328,73.33332 1.64085,3.40792 8.07803,7.44693 42.91451,27.01089 22.46701,12.62192 42.1572,22.97189 43.79805,22.97189 1.64084,0 4.67011,-1.13597 6.94204,-2.52438 8.33048,-5.04877 7.95181,1.51462 7.95181,-120.28684 l 0,-110.31553 -2.90303,-4.29145 c -3.15548,-4.79633 -7.57316,-7.44693 -12.24326,-7.44693 -1.76707,0 -21.20482,10.22375 -44.1767,23.0981 z M 225.005,336.97073 c -0.37866,0.25244 -15.65117,-7.95181 -34.07917,-18.30178 l -33.44808,-18.68043 -0.12621,-65.00285 0,-65.00286 33.82672,-18.93287 33.70052,-18.93288 0.37865,102.11129 c 0.12622,56.16752 0,102.36372 -0.25243,102.74238 z"
     id="path10" />
  <path style="fill:#000000;"
     d="m 312.34864,116.84455 c -1.51462,0.75731 -3.66035,3.02926 -4.54388,4.92255 -2.01951,4.16523 -2.27195,3.66035 10.6024,19.18531 33.5743,40.895 43.41939,95.54788 26.25358,146.79285 -5.80608,17.41824 -17.92311,37.99196 -31.04991,52.63339 -7.82558,8.70912 -8.45668,11.10728 -3.66034,15.77739 2.0195,2.14573 4.79632,3.78657 6.0585,3.78657 3.02926,0 17.29203,-15.02007 24.9914,-26.50602 12.62191,-18.80665 21.58347,-39.75903 26.63224,-62.47847 3.15547,-14.26277 3.78657,-44.55536 1.13597,-60.08031 -5.30121,-31.68101 -20.4475,-63.36201 -41.5261,-86.46011 -7.57314,-8.45668 -10.34997,-9.84509 -14.89386,-7.57315 z"
     id="path12" />
  <path style="fill:#000000;"
     d="m 274.73534,147.89446 c -3.9128,3.91279 -3.15548,8.33046 2.52438,14.76764 36.22489,41.14744 36.72977,100.72287 1.38841,142.37519 -7.19449,8.45667 -8.07803,12.49569 -3.53413,16.78714 4.54388,4.29145 8.20424,3.53413 14.51519,-3.15548 17.29203,-18.55422 28.65175,-44.30292 31.68102,-71.44002 3.78657,-33.5743 -8.07803,-70.17785 -30.67126,-95.29546 -6.68961,-7.32071 -11.35972,-8.5829 -15.90361,-4.03901 z"
     id="path14" />
  <path style="fill:#000000;"
     d="m 56.881104,162.28344 c -2.14573,1.00975 -5.04877,3.2817 -6.5634,5.17499 -2.77682,3.53413 -2.77682,3.78657 -2.77682,67.65346 l 0,64.24554 4.29145,4.79632 4.29145,4.67011 32.9432,0.37866 c 38.370616,0.37866 40.390116,0 44.555356,-9.46644 2.27194,-5.04877 2.39816,-8.70912 2.0195,-66.51749 -0.37865,-59.57543 -0.50487,-61.21627 -3.02926,-64.75041 -5.42742,-7.44693 -8.20424,-7.95181 -41.526086,-7.95181 -22.46701,0.12622 -31.30235,0.50488 -34.20539,1.76707 z m 61.342496,72.70223 0,56.79861 -27.137106,0 -27.13712,0 0,-56.79861 0,-56.79862 27.13712,0 27.137106,0 0,56.79862 z"
     id="path16" />
</svg>
