<?xml version="1.0" encoding="UTF-8" standalone="no"?>
<!-- Created with Inkscape (http://www.inkscape.org/) -->

<svg
   xmlns:dc="http://purl.org/dc/elements/1.1/"
   xmlns:cc="http://creativecommons.org/ns#"
   xmlns:rdf="http://www.w3.org/1999/02/22-rdf-syntax-ns#"
   xmlns:svg="http://www.w3.org/2000/svg"
   xmlns="http://www.w3.org/2000/svg"
   version="1.0"
   width="468pt"
   height="468pt"
   viewBox="0 0 468 468"
   id="svg2">
  <defs
     id="defs12" />
  <metadata
     id="metadata4">
Created by potrace 1.8, written by Peter Selinger 2001-2007
<rdf:RDF>
  <cc:Work
     rdf:about="">
    <dc:format>image/svg+xml</dc:format>
    <dc:type
       rdf:resource="http://purl.org/dc/dcmitype/StillImage" />
    <dc:title></dc:title>
  </cc:Work>
</rdf:RDF>
</metadata>
  <g fill="#000000"
     transform="matrix(0.189474,0,0,-0.189474,0,468)"
     id="g6">
    <path
       d="M 395,2455 C 244,2422 112,2322 57,2200 5,2083 6,2112 2,1260 0,702 2,446 10,400 43,208 198,52 398,11 c 71,-15 1628,-15 1692,0 174,40 322,190 365,370 22,94 22,1579 0,1683 -21,98 -66,187 -127,252 -61,64 -113,98 -201,128 -61,21 -75,21 -867,23 -640,1 -817,-1 -865,-12 z m 1737,-163 c 74,-36 132,-95 170,-170 l 23,-47 0,-840 0,-840 -28,-57 c -37,-76 -96,-134 -171,-169 l -63,-29 -839,2 -839,3 -50,27 C 273,204 196,285 167,348 l -22,47 0,840 0,840 27,52 c 53,100 128,162 227,189 35,10 236,12 856,11 l 810,-2 67,-33 z"
       id="path8" />
  </g>
  <path fill="#000000"
     d="m 193.22521,125.76888 c -31.62456,17.83235 -45.83472,26.4699 -46.94926,28.83825 -1.39315,2.647 -1.81109,21.59387 -1.81109,79.82765 0,65.61747 0.27864,77.18064 2.08973,80.94214 1.8111,3.76152 8.91618,8.21961 47.36719,29.81347 24.79812,13.93152 46.5313,25.35537 48.34239,25.35537 1.81109,0 5.15467,-1.25384 7.66233,-2.78631 9.19482,-5.5726 8.77687,1.67179 8.77687,-132.76742 l 0,-121.76152 -3.20425,-4.73672 c -3.48288,-5.29398 -8.35893,-8.2196 -13.51358,-8.2196 -1.95041,0 -23.40496,11.28453 -48.76033,25.49469 z m 45.41676,222.20781 c -0.41795,0.27864 -17.27509,-8.77685 -37.61511,-20.2007 l -36.91855,-20.61866 -0.1393,-71.74736 0,-71.74735 37.33647,-20.89729 37.19718,-20.89728 0.41794,112.70604 c 0.13931,61.99528 0,112.98466 -0.27863,113.4026 z"
     id="path10"
     style="fill:#000000;stroke:none" />
  <path 
     d="m 53.074068,155.1644 c -2.368358,1.11452 -5.572605,3.62219 -7.244392,5.71192 -3.06494,3.90083 -3.06494,4.17945 -3.06494,74.67297 l 0,70.91147 4.736727,5.29397 4.736717,5.15466 36.361274,0.41794 c 42.351836,0.41795 44.580876,0 49.178286,-10.44862 2.50767,-5.57262 2.64698,-9.61276 2.22903,-73.41915 -0.41794,-65.75679 -0.55726,-67.56789 -3.34356,-71.46872 -5.99055,-8.21959 -9.05548,-8.77686 -45.834714,-8.77686 -24.798115,0.13932 -34.550182,0.55727 -37.754428,1.95042 z m 67.707202,80.24557 0,62.69186 -29.952774,0 -29.952781,0 0,-62.69186 0,-62.69186 29.952781,0 29.952774,0 0,62.69186 z"
     id="path16"
     style="fill:#000000;stroke:none" />
  <path fill="#000000"
     d="m 270.4118,228.45605 c -0.78313,0.28478 -2.34937,1.56626 -3.55966,2.84773 -2.1358,2.207 -2.1358,2.207 -2.34938,11.96048 -0.21358,11.6045 0.49835,13.7403 5.62427,16.37445 l 3.13251,1.56626 76.67517,-0.14238 76.67518,-0.21359 1.99341,-1.49506 c 4.05801,-3.06131 4.84114,-5.41069 4.84114,-15.23536 0,-10.03826 -0.78313,-12.53002 -4.84114,-14.9506 -2.207,-1.35267 -4.12921,-1.42386 -79.52291,-1.35267 -42.50239,0 -77.88546,0.28477 -78.66859,0.64074 z m 153.42154,15.66253 0,7.11932 -75.10892,0 -75.10891,0 0,-6.62097 c 0,-3.70205 0.21357,-6.90575 0.49834,-7.11932 0.21358,-0.28478 34.03039,-0.49836 75.10893,-0.49836 l 74.61056,0 0,7.11933 z"
     id="path8-4" />
</svg>
