<?xml version="1.0" encoding="UTF-8" standalone="no"?>
<!-- Created with Inkscape (http://www.inkscape.org/) -->

<svg
   xmlns:dc="http://purl.org/dc/elements/1.1/"
   xmlns:cc="http://creativecommons.org/ns#"
   xmlns:rdf="http://www.w3.org/1999/02/22-rdf-syntax-ns#"
   xmlns:svg="http://www.w3.org/2000/svg"
   xmlns="http://www.w3.org/2000/svg"
   version="1.0"
   width="468pt"
   height="468pt"
   viewBox="0 0 468 468"
   id="svg2">
  <defs
     id="defs12" />
  <metadata
     id="metadata4">
Created by potrace 1.8, written by Peter Selinger 2001-2007
<rdf:RDF>
  <cc:Work
     rdf:about="">
    <dc:format>image/svg+xml</dc:format>
    <dc:type
       rdf:resource="http://purl.org/dc/dcmitype/StillImage" />
    <dc:title></dc:title>
  </cc:Work>
</rdf:RDF>
</metadata>
  <g fill="#000000"
     transform="matrix(0.189474,0,0,-0.189474,0,468)"
     id="g6">
    <path
       d="M 395,2455 C 244,2422 112,2322 57,2200 5,2083 6,2112 2,1260 0,702 2,446 10,400 43,208 198,52 398,11 c 71,-15 1628,-15 1692,0 174,40 322,190 365,370 22,94 22,1579 0,1683 -21,98 -66,187 -127,252 -61,64 -113,98 -201,128 -61,21 -75,21 -867,23 -640,1 -817,-1 -865,-12 z m 1737,-163 c 74,-36 132,-95 170,-170 l 23,-47 0,-840 0,-840 -28,-57 c -37,-76 -96,-134 -171,-169 l -63,-29 -839,2 -839,3 -50,27 C 273,204 196,285 167,348 l -22,47 0,840 0,840 27,52 c 53,100 128,162 227,189 35,10 236,12 856,11 l 810,-2 67,-33 z"
       id="path8" />
  </g>
  <path
     d="m 193.22521,125.76888 c -31.62456,17.83235 -45.83472,26.4699 -46.94926,28.83825 -1.39315,2.647 -1.81109,21.59387 -1.81109,79.82765 0,65.61747 0.27864,77.18064 2.08973,80.94214 1.8111,3.76152 8.91618,8.21961 47.36719,29.81347 24.79812,13.93152 46.5313,25.35537 48.34239,25.35537 1.81109,0 5.15467,-1.25384 7.66233,-2.78631 9.19482,-5.5726 8.77687,1.67179 8.77687,-132.76742 l 0,-121.76152 -3.20425,-4.73672 c -3.48288,-5.29398 -8.35893,-8.2196 -13.51358,-8.2196 -1.95041,0 -23.40496,11.28453 -48.76033,25.49469 z m 45.41676,222.20781 c -0.41795,0.27864 -17.27509,-8.77685 -37.61511,-20.2007 l -36.91855,-20.61866 -0.1393,-71.74736 0,-71.74735 37.33647,-20.89729 37.19718,-20.89728 0.41794,112.70604 c 0.13931,61.99528 0,112.98466 -0.27863,113.4026 z"
     id="path10"
     style="fill:#000000;stroke:none" />
  <path
     d="m 53.074068,155.1644 c -2.368358,1.11452 -5.572605,3.62219 -7.244392,5.71192 -3.06494,3.90083 -3.06494,4.17945 -3.06494,74.67297 l 0,70.91147 4.736727,5.29397 4.736717,5.15466 36.361274,0.41794 c 42.351836,0.41795 44.580876,0 49.178286,-10.44862 2.50767,-5.57262 2.64698,-9.61276 2.22903,-73.41915 -0.41794,-65.75679 -0.55726,-67.56789 -3.34356,-71.46872 -5.99055,-8.21959 -9.05548,-8.77686 -45.834714,-8.77686 -24.798115,0.13932 -34.550182,0.55727 -37.754428,1.95042 z m 67.707202,80.24557 0,62.69186 -29.952774,0 -29.952781,0 0,-62.69186 0,-62.69186 29.952781,0 29.952774,0 0,62.69186 z"
     id="path16"
     style="fill:#000000;stroke:none" />
  <path fill="#000000"
     d="m 336.85551,164.01748 c -1.19204,0.59603 -2.84769,2.053 -3.64239,3.17884 -1.45698,2.05299 -1.45698,2.31789 -1.65566,30.33133 l -0.19868,28.34456 -26.29155,0 c -29.40417,0 -29.33794,0 -32.45055,4.63579 -1.45698,2.18546 -1.52319,2.78148 -1.32452,11.72195 l 0.19868,9.47025 2.51657,2.45035 2.45034,2.51658 27.48365,0.19867 27.48363,0.19868 0,27.9472 c 0,26.68894 0.0663,28.01344 1.32451,30.13267 2.45034,4.03975 4.63578,4.76823 13.90739,4.76823 9.93382,0 12.05305,-0.79471 14.43718,-5.29805 1.45694,-2.91391 1.45694,-3.24504 1.45694,-30.2651 l 0,-27.35117 28.07967,0 c 27.94721,0 28.01344,0 30.19889,-1.5232 3.77485,-2.58279 4.63578,-5.03315 4.63578,-13.64247 0,-9.47027 -1.25828,-12.71533 -5.56295,-14.70208 -2.51657,-1.12585 -4.83446,-1.2583 -30.0002,-1.2583 l -27.35119,0 0,-27.6823 c 0,-30.39756 0,-30.46379 -4.17221,-33.51017 -1.65564,-1.19206 -2.98015,-1.39074 -10.5961,-1.58941 -7.08613,-0.13245 -9.13913,0.0663 -10.92723,0.92715 z m 17.08621,39.66915 0,31.45717 31.12606,0 31.12604,0 0,6.62256 0,6.62256 -31.45718,0 -31.45718,0 0,31.45717 0,31.5234 -6.42387,-0.19869 -6.49011,-0.19868 0,-31.32471 0,-31.25849 -30.26511,0 -30.33133,0 0,-6.62256 0,-6.62256 30.2651,-0.13246 30.33134,-0.19867 -0.26491,-31.32472 -0.19868,-31.25848 7.01993,0 7.0199,0 0,31.45716 z"
     id="path8-9" />
</svg>
