<?xml version="1.0" encoding="UTF-8" standalone="no"?>
<!-- Created with Inkscape (http://www.inkscape.org/) -->

<svg
   xmlns:dc="http://purl.org/dc/elements/1.1/"
   xmlns:cc="http://creativecommons.org/ns#"
   xmlns:rdf="http://www.w3.org/1999/02/22-rdf-syntax-ns#"
   xmlns:svg="http://www.w3.org/2000/svg"
   xmlns="http://www.w3.org/2000/svg"
   xmlns:sodipodi="http://sodipodi.sourceforge.net/DTD/sodipodi-0.dtd"
   xmlns:inkscape="http://www.inkscape.org/namespaces/inkscape"
   version="1.0"
   width="468pt"
   height="468pt"
   viewBox="0 0 468 468"
   id="svg2"
   inkscape:version="0.91 r13725"
   sodipodi:docname="rc_VIERA_LINK.svg">
  <sodipodi:namedview
     pagecolor="#ffffff"
     bordercolor="#666666"
     borderopacity="1"
     objecttolerance="10"
     gridtolerance="10"
     guidetolerance="10"
     inkscape:pageopacity="0"
     inkscape:pageshadow="2"
     inkscape:window-width="1920"
     inkscape:window-height="1005"
     id="namedview3363"
     showgrid="false"
     inkscape:zoom="1.31"
     inkscape:cx="352.91661"
     inkscape:cy="281.30022"
     inkscape:window-x="-9"
     inkscape:window-y="891"
     inkscape:window-maximized="1"
     inkscape:current-layer="svg2"
     inkscape:snap-grids="true"
     showguides="false" />
  <defs
     id="defs12" />
  <metadata
     id="metadata4">
Created by potrace 1.8, written by Peter Selinger 2001-2007
<rdf:RDF>
  <cc:Work
     rdf:about="">
    <dc:format>image/svg+xml</dc:format>
    <dc:type
       rdf:resource="http://purl.org/dc/dcmitype/StillImage" />
    <dc:title></dc:title>
  </cc:Work>
</rdf:RDF>
</metadata>
  <g fill="#000000"
     transform="matrix(0.189474,0,0,-0.189474,0,468)"
     id="g6">
    <path
       d="M 395,2455 C 244,2422 112,2322 57,2200 5,2083 6,2112 2,1260 0,702 2,446 10,400 43,208 198,52 398,11 c 71,-15 1628,-15 1692,0 174,40 322,190 365,370 22,94 22,1579 0,1683 -21,98 -66,187 -127,252 -61,64 -113,98 -201,128 -61,21 -75,21 -867,23 -640,1 -817,-1 -865,-12 z m 1737,-163 c 74,-36 132,-95 170,-170 l 23,-47 0,-840 0,-840 -28,-57 c -37,-76 -96,-134 -171,-169 l -63,-29 -839,2 -839,3 -50,27 C 273,204 196,285 167,348 l -22,47 0,840 0,840 27,52 c 53,100 128,162 227,189 35,10 236,12 856,11 l 810,-2 67,-33 z"
       id="path8" />
  </g>
  <g fill="#000000"
     style="font-style:normal;font-variant:normal;font-weight:bold;font-stretch:normal;font-size:133.91000366px;line-height:125%;font-family:Arial;-inkscape-font-specification:'Arial, Bold';text-align:center;letter-spacing:0px;word-spacing:0px;writing-mode:lr-tb;text-anchor:middle;fill:#000000;fill-opacity:1;stroke:none"
     id="text2993">
    <path
       d="m 63.73551,198.23399 -34.26213,-95.8555 20.988824,0 24.258111,70.94354 23.473482,-70.94354 20.531123,0 -34.327515,95.8555 -20.661895,0 z"
       style=""
       id="path3401" />
    <path
       d="m 128.14047,198.23399 0,-95.8555 19.35418,0 0,95.8555 -19.35418,0 z"
       style=""
       id="path3403" />
    <path
       d="m 165.86805,198.23399 0,-95.8555 71.0743,0 0,16.21567 -51.72012,0 0,21.25036 48.12391,0 0,16.15028 -48.12391,0 0,26.08891 53.55092,0 0,16.15028 -72.9051,0 z"
       style=""
       id="path3405" />
    <path
       d="m 255.38113,198.23399 0,-95.8555 40.73532,0 q 15.36565,0 22.29653,2.61543 6.99628,2.55005 11.18097,9.15401 4.18468,6.60396 4.18468,15.1041 0,10.78865 -6.34241,17.85031 -6.34242,6.99628 -18.96187,8.82708 6.27703,3.6616 10.33095,8.04244 4.1193,4.38085 11.05019,15.56181 l 11.70405,18.70032 -23.14656,0 -13.99254,-20.85805 q -7.45398,-11.18096 -10.20018,-14.05793 -2.7462,-2.94236 -5.81933,-3.98853 -3.07313,-1.11156 -9.74248,-1.11156 l -3.92314,0 0,40.01607 -19.35418,0 z m 19.35418,-55.31634 14.31948,0 q 13.92716,0 17.3926,-1.17694 3.46545,-1.17694 5.42702,-4.05392 1.96157,-2.87697 1.96157,-7.19243 0,-4.83854 -2.61543,-7.7809 -2.55004,-3.00774 -7.25781,-3.79237 -2.35389,-0.32693 -14.12333,-0.32693 l -15.1041,0 0,24.32349 z"
       style=""
       id="path3407" />
    <path
       d="m 438.52662,198.23399 -21.05421,0 -8.36938,-21.77345 -38.31605,0 -7.91167,21.77345 -20.53112,0 37.33526,-95.8555 20.46573,0 38.38144,95.8555 z m -35.63524,-37.92373 -13.20792,-35.56984 -12.94637,35.56984 26.15429,0 z"
       style=""
       id="path3409" />
    <path
       d="m 107.02087,365.6215 0,-95.07087 19.35418,0 0,78.92059 48.12391,0 0,16.15028 -67.47809,0 z"
       style=""
       id="path3411" />
    <path
       d="m 188.22997,286.76629 0,-17.00029 18.37339,0 0,17.00029 -18.37339,0 z m 0,78.85521 0,-69.43966 18.37339,0 0,69.43966 -18.37339,0 z"
       style=""
       id="path3413" />
    <path
       d="m 288.5317,365.6215 -18.37339,0 0,-35.43908 q 0,-11.24634 -1.17694,-14.51563 -1.17695,-3.33467 -3.85776,-5.16547 -2.61543,-1.8308 -6.34242,-1.8308 -4.77316,0 -8.56553,2.61542 -3.79238,2.61543 -5.23086,6.93089 -1.3731,4.31546 -1.3731,15.95413 l 0,31.45054 -18.3734,0 0,-69.43966 17.06568,0 0,10.20017 q 9.08862,-11.76943 22.88501,-11.76943 6.08088,0 11.11558,2.22312 5.0347,2.15772 7.58475,5.55778 2.61543,3.40006 3.59621,7.71552 1.04617,4.31546 1.04617,12.35791 l 0,43.15459 z"
       style=""
       id="path3415" />
    <path
       d="m 306.57816,365.6215 0,-95.8555 18.3734,0 0,50.87011 21.51191,-24.45427 22.62346,0 -23.73502,25.36967 25.43505,44.06999 -19.81188,0 -17.45799,-31.189 -8.56553,8.95785 0,22.23115 -18.3734,0 z"
       style=""
       id="path3417" />
  </g>
</svg>
