<?xml version="1.0" encoding="UTF-8" standalone="no"?>
<!-- Created with Inkscape (http://www.inkscape.org/) -->

<svg
   xmlns:dc="http://purl.org/dc/elements/1.1/"
   xmlns:cc="http://creativecommons.org/ns#"
   xmlns:rdf="http://www.w3.org/1999/02/22-rdf-syntax-ns#"
   xmlns:svg="http://www.w3.org/2000/svg"
   xmlns="http://www.w3.org/2000/svg"
   version="1.0"
   width="468pt"
   height="468pt"
   viewBox="0 0 468 468"
   id="svg2">
  <defs
     id="defs12" />
  <metadata
     id="metadata4">
Created by potrace 1.8, written by Peter Selinger 2001-2007
<rdf:RDF>
  <cc:Work
     rdf:about="">
    <dc:format>image/svg+xml</dc:format>
    <dc:type
       rdf:resource="http://purl.org/dc/dcmitype/StillImage" />
    <dc:title></dc:title>
  </cc:Work>
</rdf:RDF>
</metadata>
  <g
     transform="matrix(0.189474,0,0,-0.189474,3.1853047,468)"
     id="g6">
    <path
       d="M 395,2455 C 244,2422 112,2322 57,2200 5,2083 6,2112 2,1260 0,702 2,446 10,400 43,208 198,52 398,11 c 71,-15 1628,-15 1692,0 174,40 322,190 365,370 22,94 22,1579 0,1683 -21,98 -66,187 -127,252 -61,64 -113,98 -201,128 -61,21 -75,21 -867,23 -640,1 -817,-1 -865,-12 z m 1737,-163 c 74,-36 132,-95 170,-170 l 23,-47 0,-840 0,-840 -28,-57 c -37,-76 -96,-134 -171,-169 l -63,-29 -839,2 -839,3 -50,27 C 273,204 196,285 167,348 l -22,47 0,840 0,840 27,52 c 53,100 128,162 227,189 35,10 236,12 856,11 l 810,-2 67,-33 z"
       id="path8" />
  </g>
  <g
     id="text2993"
     style="font-size:128.65153503px;font-style:normal;font-variant:normal;font-weight:bold;font-stretch:normal;text-align:start;line-height:125%;letter-spacing:0px;word-spacing:0px;writing-mode:lr-tb;text-anchor:start;fill:#000000;fill-opacity:1;stroke:none;font-family:Arial;-inkscape-font-specification:Arial Bold">
    <path
       d="m 72.614156,278.38513 -32.916701,-92.09138 20.16462,0 23.305527,68.15767 22.551708,-68.15767 19.7249,0 -32.979524,92.09138 -19.85053,0"
       id="path3113" />
    <path
       d="m 134.49002,278.38513 0,-92.09138 18.59416,0 0,92.09138 -18.59416,0"
       id="path3115" />
    <path
       d="m 170.67326,186.29375 33.98461,0 c 7.66376,9e-5 13.50584,0.58639 17.52626,1.75891 5.40229,1.59148 10.02989,4.41829 13.88281,8.48045 3.85277,4.06231 6.78427,9.04588 8.79454,14.95071 2.01009,5.86309 3.01518,13.1081 3.01527,21.73507 -9e-5,7.5801 -0.94236,14.11318 -2.82682,19.59926 -2.30341,6.70062 -5.59089,12.12391 -9.86245,16.2699 -3.22473,3.14091 -7.58012,5.59082 -13.06617,7.34972 -4.10417,1.29824 -9.59028,1.94736 -16.45835,1.94736 l -34.9897,0 0,-92.09138 m 18.59417,15.5789 0,60.9964 13.88281,0 c 5.19292,2e-5 8.94106,-0.29313 11.24444,-0.87945 3.01522,-0.7538 5.507,-2.0311 7.47536,-3.83191 2.01012,-1.80076 3.64339,-4.75321 4.89981,-8.85735 1.2563,-4.14597 1.88448,-9.77865 1.88455,-16.89808 -7e-5,-7.11934 -0.62825,-12.58451 -1.88455,-16.39553 -1.25642,-3.8109 -3.01533,-6.78429 -5.27672,-8.92018 -2.26151,-2.13574 -5.1302,-3.58056 -8.60608,-4.33445 -2.59653,-0.58623 -7.6848,-0.87938 -15.26481,-0.87945 l -8.35481,0"
       id="path3117" />
    <path
       d="m 263.70691,278.38513 0,-92.09138 68.28331,0 0,15.5789 -49.68915,0 0,20.41589 46.23415,0 0,15.51608 -46.23415,0 0,25.06443 51.44805,0 0,15.51608 -70.04221,0"
       id="path3119" />
    <path
       d="m 345.87303,232.9048 c -1e-5,-9.38078 1.40293,-17.25398 4.20881,-23.61961 2.09393,-4.69035 4.94168,-8.89916 8.54327,-12.62645 3.64343,-3.72712 7.62191,-6.49112 11.93544,-8.29199 5.73736,-2.42888 12.35419,-3.64336 19.85053,-3.64345 13.56866,9e-5 24.41524,4.2089 32.5398,12.62644 8.16626,8.4177 12.24944,20.1228 12.24953,35.11534 -9e-5,14.86699 -4.04139,26.50927 -12.1239,34.92688 -8.08267,8.37575 -18.88738,12.56362 -32.41415,12.56363 -13.69439,-10e-6 -24.58286,-4.16694 -32.66543,-12.50081 -8.08261,-8.37573 -12.12391,-19.89238 -12.1239,-34.54998 m 19.15953,-0.62818 c -3e-5,10.42785 2.408,18.34293 7.22408,23.74526 4.81602,5.36049 10.93032,8.04073 18.3429,8.04072 7.41248,1e-5 13.48489,-2.65929 18.21726,-7.97791 4.7741,-5.36045 7.16119,-13.38022 7.16126,-24.05934 -7e-5,-10.55339 -2.32434,-18.42659 -6.97281,-23.61962 -4.60673,-5.19289 -10.74196,-7.78937 -18.40571,-7.78945 -7.66386,8e-5 -13.84097,2.63844 -18.53135,7.91509 -4.69045,5.23491 -7.03566,13.14998 -7.03563,23.74525"
       id="path3121" />
  </g>
</svg>
