<?xml version="1.0" encoding="UTF-8" standalone="no"?>
<!-- Created with Inkscape (http://www.inkscape.org/) -->

<svg
   xmlns:dc="http://purl.org/dc/elements/1.1/"
   xmlns:cc="http://creativecommons.org/ns#"
   xmlns:rdf="http://www.w3.org/1999/02/22-rdf-syntax-ns#"
   xmlns:svg="http://www.w3.org/2000/svg"
   xmlns="http://www.w3.org/2000/svg"
   xmlns:sodipodi="http://sodipodi.sourceforge.net/DTD/sodipodi-0.dtd"
   xmlns:inkscape="http://www.inkscape.org/namespaces/inkscape"
   version="1.0"
   width="468pt"
   height="468pt"
   viewBox="0 0 468 468"
   id="svg2"
   inkscape:version="0.48.4 r9939"
   sodipodi:docname="svg_WEB.svg">
  <sodipodi:namedview
     pagecolor="#ffffff"
     bordercolor="#666666"
     borderopacity="1"
     objecttolerance="10"
     gridtolerance="10"
     guidetolerance="10"
     inkscape:pageopacity="0"
     inkscape:pageshadow="2"
     inkscape:window-width="640"
     inkscape:window-height="480"
     id="namedview21"
     showgrid="false"
     inkscape:zoom="0.4034188"
     inkscape:cx="292.5"
     inkscape:cy="292.5"
     inkscape:window-x="2387"
     inkscape:window-y="343"
     inkscape:window-maximized="0"
     inkscape:current-layer="svg2" />
  <defs
     id="defs12" />
  <metadata
     id="metadata4">
Created by potrace 1.8, written by Peter Selinger 2001-2007
<rdf:RDF>
  <cc:Work
     rdf:about="">
    <dc:format>image/svg+xml</dc:format>
    <dc:type
       rdf:resource="http://purl.org/dc/dcmitype/StillImage" />
    <dc:title></dc:title>
  </cc:Work>
</rdf:RDF>
</metadata>
  <g fill="#000000"
     transform="matrix(0.189474,0,0,-0.189474,0,468)"
     id="g6">
    <path
       d="M 395,2455 C 244,2422 112,2322 57,2200 5,2083 6,2112 2,1260 0,702 2,446 10,400 43,208 198,52 398,11 c 71,-15 1628,-15 1692,0 174,40 322,190 365,370 22,94 22,1579 0,1683 -21,98 -66,187 -127,252 -61,64 -113,98 -201,128 -61,21 -75,21 -867,23 -640,1 -817,-1 -865,-12 z m 1737,-163 c 74,-36 132,-95 170,-170 l 23,-47 0,-840 0,-840 -28,-57 c -37,-76 -96,-134 -171,-169 l -63,-29 -839,2 -839,3 -50,27 C 273,204 196,285 167,348 l -22,47 0,840 0,840 27,52 c 53,100 128,162 227,189 35,10 236,12 856,11 l 810,-2 67,-33 z"
       id="path8" />
  </g>
  <g fill="#000000"
     transform="matrix(0.8323754,0,0,0.8323754,26.65624,-433.97834)"
     id="layer1">
    <path
       inkscape:connector-curvature="0"
       d="m 282.53324,567.48447 c -101.9996,-6.15349 -158.39057,28.80355 -198.616182,68.47862 -9.226541,9.10021 9.691362,14.56206 16.311962,13.45219 4.27433,-0.7162 2.80261,2.60729 6.57139,0.0227 9.61145,-6.59456 17.59089,-4.90002 32.85825,7.42615 11.20072,9.04282 12.46179,11.09399 15.84234,23.33911 3.17093,11.48629 3.40647,16.09097 1.46683,32.09135 l -2.34695,18.56526 11.73504,19.62614 c 11.42456,19.20391 11.77696,19.55769 17.3093,17.7696 l 5.57404,-1.85655 -6.16086,-11.40433 -6.45431,-11.66967 14.08212,11.66967 c 16.65018,13.79256 22.48762,16.68748 48.11379,22.54344 18.95335,4.33129 19.65283,4.49009 26.40394,13.52621 3.79572,5.08021 6.7477,9.98989 6.7477,10.60867 1.1e-4,0.61844 -8.09039,9.87009 -18.18943,20.68702 l -18.48272,19.62615 9.38806,7.95648 c 5.16184,4.34319 14.79694,12.26011 21.41651,17.50437 l 12.02847,9.54778 4.40071,30.50016 c 2.43711,16.79329 5.44686,34.2512 6.7476,38.98705 2.48782,9.05715 15.82814,39.69486 26.99067,62.06096 l 6.7477,13.2609 4.40062,-3.9783 c 3.35635,-3.0341 5.18855,-8.7915 7.33439,-22.80869 1.5627,-10.20613 4.83876,-25.43051 7.33441,-33.94789 l 4.40075,-15.38263 36.67204,-33.41757 36.37876,-33.41733 1.46683,-24.93052 1.46694,-25.19689 -14.96221,-9.81314 -14.96224,-9.81301 -49.28732,-5.03917 c -46.98844,-4.83728 -49.49841,-5.37476 -58.08856,-10.87401 -8.60831,-5.51107 -8.80145,-6.06027 -8.80135,-15.64783 1.1e-4,-8.6637 -1.10272,-11.23984 -7.62783,-18.29993 l -7.62771,-8.22181 9.68139,-8.48704 c 9.03838,-8.17041 9.69216,-8.39142 15.25563,-6.09992 5.21333,2.14733 6.22498,1.93996 9.38806,-1.59123 2.95711,-3.30141 5.98422,-3.97829 17.6025,-3.97829 9.30769,0 14.37301,0.79805 14.96235,2.38699 0.48769,1.31268 1.96317,5.88018 3.22708,10.34345 2.13971,7.55666 2.67402,8.2217 9.38806,8.2217 l 7.33441,0 -3.2272,-9.01737 c -1.6742,-4.98858 -2.92128,-9.76025 -2.93366,-10.60878 -0.011,-0.84808 8.91332,-5.44775 19.94956,-10.07822 11.03635,-4.63049 20.24309,-8.93619 20.24309,-9.54781 0,-0.61161 -1.53094,-3.39998 -3.22719,-6.36526 -3.73877,-6.53624 -2.51772,-7.95658 7.04099,-7.95658 7.25529,0 7.31735,0.0797 3.52061,-3.71297 -3.75785,-3.75401 -3.82652,-3.99955 2.05366,-9.54791 l 6.16088,-5.83483 -4.10732,-7.16081 c -2.23284,-3.93966 -4.68414,-10.16247 -5.28077,-14.05655 l -0.87987,-7.16092 -14.96224,8.48703 c -8.13177,4.73939 -15.81985,10.95835 -17.3092,13.52607 -2.74747,4.73714 -6.39936,5.52235 -14.96223,3.44775 -3.65782,-0.88557 -4.69403,-2.51303 -4.69403,-7.16082 0,-4.88525 2.59582,-8.5342 13.49527,-18.30003 l 13.4954,-11.93477 -4.69402,-10.87401 -4.40064,-10.87389 -22.29675,-1.3261 -22.00323,-1.32609 -12.02843,10.874 -12.02844,10.60867 -14.66882,-2.38696 -14.66895,-2.38699 13.78883,-26.25663 13.78869,-26.25652 c 0,0 4.7678,-6.38516 -0.5866,-11.1391 z"
       id="path1341"
       style="fill:#000000;fill-opacity:1;stroke:none" />
    <path
       style="font-size:medium;font-style:normal;font-variant:normal;font-weight:normal;font-stretch:normal;text-indent:0;text-align:start;text-decoration:none;line-height:normal;letter-spacing:normal;word-spacing:normal;text-transform:none;direction:ltr;block-progression:tb;writing-mode:lr-tb;text-anchor:start;baseline-shift:baseline;opacity:0.9;color:#000000;fill:#000000;fill-opacity:1;stroke:none;stroke-width:1.04513669;marker:none;visibility:visible;display:inline;overflow:visible;enable-background:accumulate;font-family:Sans;-inkscape-font-specification:Sans"
       d="m 211.61888,661.12633 c -59.15331,16.09049 -113.388099,48.24524 -147.626285,87.52427 -34.238186,39.27902 -47.888446,85.00401 -37.15522,124.46246 10.599744,38.96773 44.788608,71.16563 93.232855,87.87404 l 1.84889,0.61821 c 49.41725,16.52363 112.46705,16.77541 171.62036,0.68492 59.15331,-16.09049 113.38809,-48.24524 147.62628,-87.52426 34.23819,-39.27902 47.88845,-85.00401 37.15522,-124.46247 -10.73323,-39.45845 -45.66449,-71.96862 -95.08175,-88.49225 -49.41725,-16.52362 -112.46704,-16.77541 -171.62035,-0.68492 z m 2.4136,8.87312 c 55.56237,-15.11371 115.10353,-14.89127 161.52087,0.62928 46.41733,15.52054 79.38403,46.22998 89.46569,83.29308 10.08165,37.0631 -2.78688,80.24033 -34.94661,117.13488 -32.15973,36.89456 -83.38418,67.24672 -138.94656,82.36043 C 235.5635,968.53083 176.02234,968.30839 129.60501,952.78784 83.187671,937.26729 50.220976,906.55786 40.139319,869.49476 30.057661,832.43166 42.926195,789.25443 75.085923,752.35987 107.24565,715.46532 158.47011,685.11315 214.03248,669.99945 z"
       id="path2218"
       inkscape:connector-curvature="0" />
    <path
       style="font-size:medium;font-style:normal;font-variant:normal;font-weight:normal;font-stretch:normal;text-indent:0;text-align:start;text-decoration:none;line-height:normal;letter-spacing:normal;word-spacing:normal;text-transform:none;direction:ltr;block-progression:tb;writing-mode:lr-tb;text-anchor:start;baseline-shift:baseline;opacity:0.9;color:#000000;fill:#000000;fill-opacity:1;stroke:none;stroke-width:1.04041123;marker:none;visibility:visible;display:inline;overflow:visible;enable-background:accumulate;font-family:Sans;-inkscape-font-specification:Sans"
       d="m 247.9639,630.19429 c -61.81495,0.37396 -123.09342,17.55109 -166.759553,46.74438 -43.66613,29.19329 -68.998144,69.92024 -68.936418,110.83186 0.06096,40.40282 24.874702,80.32981 67.632389,108.92316 l 1.637207,1.0726 c 43.753425,28.66443 105.082615,45.09983 166.897565,44.72588 61.81495,-0.37396 123.09343,-17.5511 166.75956,-46.74438 43.66613,-29.19329 68.99814,-69.92024 68.93641,-110.83186 C 484.06934,744.00432 458.61489,703.5846 414.86147,674.92017 371.10804,646.25574 309.77886,629.82034 247.9639,630.19429 z m 0.0139,9.20115 c 58.07888,-0.35135 115.97105,15.14707 157.08003,42.07903 41.10898,26.93196 65.11287,65.08664 65.17086,103.52557 0.058,38.43892 -23.83032,76.88333 -64.85728,104.31218 -41.02696,27.42886 -98.87131,43.62744 -156.95019,43.9788 C 190.34232,933.64237 132.45015,918.14395 91.341171,891.21199 50.232191,864.28003 26.228305,826.12535 26.170309,787.68642 26.112314,749.2475 50.000629,710.80309 91.027591,683.37424 132.05455,655.94538 189.8989,639.7468 247.97779,639.39544 z"
       id="path2230"
       inkscape:connector-curvature="0" />
    <path
       style="font-size:medium;font-style:normal;font-variant:normal;font-weight:normal;font-stretch:normal;text-indent:0;text-align:start;text-decoration:none;line-height:normal;letter-spacing:normal;word-spacing:normal;text-transform:none;direction:ltr;block-progression:tb;writing-mode:lr-tb;text-anchor:start;baseline-shift:baseline;opacity:0.9;color:#000000;fill:#000000;fill-opacity:1;stroke:none;stroke-width:1.07725382;marker:none;visibility:visible;display:inline;overflow:visible;enable-background:accumulate;font-family:Sans;-inkscape-font-specification:Sans"
       d="m 81.122902,821.10748 c 5.46913,61.53993 26.531378,121.49331 57.422888,163.45466 30.89152,41.96136 70.92351,64.99496 109.1416,62.79736 37.74161,-2.1703 72.88822,-28.8908 96.0612,-72.9621 l 0.86558,-1.68465 c 23.157,-45.06926 33.40299,-106.82293 27.93386,-168.36286 -5.46913,-61.53993 -26.53137,-121.49331 -57.42289,-163.45466 -30.89152,-41.96135 -70.9235,-64.99495 -109.1416,-62.79732 -38.21809,2.19762 -73.76978,29.57744 -96.92678,74.6467 -23.156999,45.06926 -33.402987,106.82294 -27.933858,168.36287 z m 8.586182,-0.49373 c -5.127238,-57.69289 4.566453,-116.20647 26.275836,-158.45831 21.70939,-42.25184 55.39837,-68.17156 91.22733,-70.2318 35.82896,-2.06024 73.75899,19.74122 102.71938,59.07944 28.96039,39.33821 48.90298,96.14764 54.03022,153.84054 5.12724,57.69289 -4.56646,116.20647 -26.27584,158.45831 -21.70938,42.25187 -55.39836,68.17157 -91.22733,70.23177 C 210.62972,1035.594 172.6997,1013.7925 143.7393,974.45429 114.77891,935.11608 94.836323,878.30665 89.709084,820.61375 z"
       id="path2234"
       inkscape:connector-curvature="0" />
    <path
       style="font-size:medium;font-style:normal;font-variant:normal;font-weight:normal;font-stretch:normal;text-indent:0;text-align:start;text-decoration:none;line-height:normal;letter-spacing:normal;word-spacing:normal;text-transform:none;direction:ltr;block-progression:tb;writing-mode:lr-tb;text-anchor:start;baseline-shift:baseline;opacity:0.9;color:#000000;fill:#000000;fill-opacity:1;stroke:none;stroke-width:1.30457115;marker:none;visibility:visible;display:inline;overflow:visible;enable-background:accumulate;font-family:Sans;-inkscape-font-specification:Sans"
       d="m 147.09917,802.94433 c 8.86571,61.03172 28.64707,121.88921 53.93478,165.70707 25.28771,43.8179 55.56351,69.698 82.46003,70.6341 26.48042,0.9215 49.2184,-22.3365 62.08078,-63.61065 l 0.59181,-1.97247 c 12.7497,-42.49405 14.96145,-102.58613 6.09574,-163.61785 -8.86571,-61.03172 -28.64707,-121.88922 -53.93478,-165.70707 -25.28771,-43.81786 -55.56351,-69.69799 -82.46003,-70.63405 -26.89652,-0.93607 -49.92289,23.08901 -62.67259,65.58306 -12.7497,42.49406 -14.96145,102.58614 -6.09574,163.61786 z m 7.41554,0.25808 c -8.19894,-56.44165 -6.06785,-112.37428 5.72296,-151.67244 11.79082,-39.29815 33.20048,-61.82541 58.07416,-60.95974 24.87368,0.86566 53.07898,25.11965 76.46484,65.64204 23.38586,40.52239 41.87117,97.17253 50.0701,153.61418 8.19894,56.44164 6.06785,112.37428 -5.72296,151.67243 -11.79082,39.29812 -33.20048,61.82542 -58.07416,60.95972 -24.87369,-0.8656 -53.07898,-25.11963 -76.46484,-65.64202 -23.38586,-40.52239 -41.87117,-97.17253 -50.0701,-153.61417 z"
       id="path2240"
       inkscape:connector-curvature="0" />
    <path
       inkscape:connector-curvature="0"
       d="m 249.08649,557.48941 c -134.94803,0 -244.6891656,109.80344 -244.6891656,244.68916 0,134.88572 109.7411356,244.34213 244.6891656,244.34213 134.94791,0 244.68916,-109.45641 244.68916,-244.34213 0,-134.88572 -109.74125,-244.68916 -244.68916,-244.68916 z m 0,11.10645 c 128.94154,0 233.5827,104.70925 233.5827,233.58271 0,128.87346 -104.64116,233.23563 -233.5827,233.23563 -128.94165,0 -233.582708,-104.36217 -233.582708,-233.23563 0,-128.87346 104.641058,-233.58271 233.582708,-233.58271 z"
       id="path1307"
       style="font-size:medium;font-style:normal;font-variant:normal;font-weight:normal;font-stretch:normal;text-indent:0;text-align:start;text-decoration:none;line-height:normal;letter-spacing:normal;word-spacing:normal;text-transform:none;direction:ltr;block-progression:tb;writing-mode:lr-tb;text-anchor:start;baseline-shift:baseline;color:#000000;fill:#000000;fill-opacity:1;stroke:none;stroke-width:0.99999994;marker:none;visibility:visible;display:inline;overflow:visible;enable-background:accumulate;font-family:Sans;-inkscape-font-specification:Sans" />
    <path
       style="font-size:medium;font-style:normal;font-variant:normal;font-weight:normal;font-stretch:normal;text-indent:0;text-align:start;text-decoration:none;line-height:normal;letter-spacing:normal;word-spacing:normal;text-transform:none;direction:ltr;block-progression:tb;writing-mode:lr-tb;text-anchor:start;baseline-shift:baseline;color:#000000;fill:#000000;fill-opacity:1;stroke:none;stroke-width:1;marker:none;visibility:visible;display:inline;overflow:visible;enable-background:accumulate;font-family:Sans;-inkscape-font-specification:Sans"
       d="m 424.70549,669.43948 c -11.20316,3.04741 -18.09388,15.08759 -15.04647,26.29075 3.0474,11.20316 15.08759,18.09388 26.29075,15.04647 11.20316,-3.04741 18.09388,-15.08759 15.04647,-26.29075 -3.04741,-11.20316 -15.08759,-18.09388 -26.29075,-15.04647 z m 2.49873,9.18605 c 5.63116,-1.53175 13.07422,2.728 14.60597,8.35915 1.53175,5.63115 -2.72799,13.07422 -8.35915,14.60597 -5.63116,1.53175 -13.07423,-2.728 -14.60597,-8.35915 -1.53175,-5.63115 2.72799,-13.07422 8.35915,-14.60597 z"
       id="path2255"
       inkscape:connector-curvature="0" />
    <path
       style="font-size:medium;font-style:normal;font-variant:normal;font-weight:normal;font-stretch:normal;text-indent:0;text-align:start;text-decoration:none;line-height:normal;letter-spacing:normal;word-spacing:normal;text-transform:none;direction:ltr;block-progression:tb;writing-mode:lr-tb;text-anchor:start;baseline-shift:baseline;color:#000000;fill:#000000;fill-opacity:1;stroke:none;stroke-width:1;marker:none;visibility:visible;display:inline;overflow:visible;enable-background:accumulate;font-family:Sans;-inkscape-font-specification:Sans"
       d="m 120.77848,936.71511 c -9.60271,2.61207 -15.14122,14.28443 -12.09382,25.48759 3.04741,11.20316 13.73539,18.4617 23.3381,15.84963 9.60271,-2.61206 15.14122,-14.28442 12.09382,-25.48758 -3.04741,-11.20316 -13.73539,-18.4617 -23.3381,-15.84964 z m 2.49873,9.18605 c 4.82671,-1.31293 11.43386,3.1742 12.96561,8.80535 1.53175,5.63115 -1.89208,12.84685 -6.71879,14.15978 -4.82671,1.31292 -11.43386,-3.17421 -12.96561,-8.80536 -1.53175,-5.63115 1.89208,-12.84684 6.71879,-14.15977 z"
       id="path2275"
       inkscape:connector-curvature="0" />
    <path
       style="font-size:medium;font-style:normal;font-variant:normal;font-weight:normal;font-stretch:normal;text-indent:0;text-align:start;text-decoration:none;line-height:normal;letter-spacing:normal;word-spacing:normal;text-transform:none;direction:ltr;block-progression:tb;writing-mode:lr-tb;text-anchor:start;baseline-shift:baseline;color:#000000;fill:#000000;fill-opacity:1;stroke:none;stroke-width:8.81365013;marker:none;visibility:visible;display:inline;overflow:visible;enable-background:accumulate;font-family:Sans;-inkscape-font-specification:Sans"
       d="m 93.3125,708.875 c -1.329709,0.1086 -2.675235,0.3499 -4.03125,0.71875 C 78.433129,712.54458 69.883669,722.22597 69.6875,733 c -0.09808,5.38701 2.37494,10.28039 6.46875,13 4.09381,2.71961 9.450941,3.31916 14.875,1.84375 10.84811,-2.95084 19.39758,-12.63222 19.59375,-23.40625 0.0981,-5.38701 -2.37494,-10.28039 -6.46875,-13 -3.07036,-2.03971 -6.854624,-2.88831 -10.84375,-2.5625 z m 2.8125,8.8125 c 1.288082,0.15297 2.34305,0.55352 3.15625,1.09375 1.6264,1.08046 2.58272,2.67328 2.53125,5.5 -0.10293,5.65341 -6.185274,13.1833 -13.09375,15.0625 -3.45424,0.9396 -6.061098,0.39296 -7.6875,-0.6875 -1.626402,-1.08046 -2.582718,-2.64204 -2.53125,-5.46875 0.102935,-5.65343 6.185273,-13.21456 13.09375,-15.09375 1.72712,-0.4698 3.243168,-0.55922 4.53125,-0.40625 z"
       id="path2291"
       inkscape:connector-curvature="0" />
    <path
       style="font-size:medium;font-style:normal;font-variant:normal;font-weight:normal;font-stretch:normal;text-indent:0;text-align:start;text-decoration:none;line-height:normal;letter-spacing:normal;word-spacing:normal;text-transform:none;direction:ltr;block-progression:tb;writing-mode:lr-tb;text-anchor:start;baseline-shift:baseline;color:#000000;fill:#000000;fill-opacity:1;stroke:none;stroke-width:1;marker:none;visibility:visible;display:inline;overflow:visible;enable-background:accumulate;font-family:Sans;-inkscape-font-specification:Sans"
       d="m 439.72856,837.07592 c -11.20316,3.04741 -18.09388,15.08759 -15.04647,26.29075 3.04741,11.20316 15.08759,18.09388 26.29075,15.04647 11.20316,-3.04741 18.09388,-15.08759 15.04647,-26.29075 -3.04741,-11.20316 -15.08759,-18.09388 -26.29075,-15.04647 z m 2.49873,9.18605 c 5.63116,-1.53175 13.07423,2.728 14.60597,8.35915 1.53175,5.63115 -2.72799,13.07422 -8.35915,14.60597 -5.63116,1.53175 -13.07422,-2.728 -14.60597,-8.35915 -1.53175,-5.63115 2.72799,-13.07422 8.35915,-14.60597 z"
       id="path2255-7"
       inkscape:connector-curvature="0" />
  </g>
</svg>
