<?xml version="1.0" encoding="UTF-8" standalone="no"?>
<!-- Created with Inkscape (http://www.inkscape.org/) -->

<svg
   xmlns:dc="http://purl.org/dc/elements/1.1/"
   xmlns:cc="http://creativecommons.org/ns#"
   xmlns:rdf="http://www.w3.org/1999/02/22-rdf-syntax-ns#"
   xmlns:svg="http://www.w3.org/2000/svg"
   xmlns="http://www.w3.org/2000/svg"
   version="1.0"
   width="585"
   height="585"
   viewBox="0 0 468 468"
   id="svg2996">
  <defs
     id="defs3012" />
  <metadata
     id="metadata2998">
Created by potrace 1.8, written by Peter Selinger 2001-2007
<rdf:RDF>
  <cc:Work
     rdf:about="">
    <dc:format>image/svg+xml</dc:format>
    <dc:type
       rdf:resource="http://purl.org/dc/dcmitype/StillImage" />
    <dc:title></dc:title>
  </cc:Work>
</rdf:RDF>
</metadata>
  <path
     d="m 300.0074,446.77616 c -4.4358,-6.61463 -48.47469,-80.83614 -48.47469,-81.69746 0,-1.31351 48.7098,-82.97159 49.49335,-82.97159 0.3079,0 0.5602,6.97846 0.5602,15.50759 0,12.48544 0.20004,15.67358 1.02647,16.35947 0.77243,0.6411 14.72898,0.7852 56.40096,0.58237 61.54412,-0.29956 59.59407,-0.15303 70.90453,-5.33491 2.95582,-1.35426 5.48811,-2.34839 5.6273,-2.20919 0.13896,0.13894 -12.47609,22.42118 -28.0339,49.51548 -30.96936,53.93377 -31.24022,54.32725 -39.72102,57.70936 -4.07046,1.62331 -4.9993,1.67775 -35.01152,2.05088 l -30.8301,0.38335 -0.36284,15.95908 c -0.34618,15.23095 -0.41817,15.87639 -1.57883,14.14557 z M 128.57496,415.6099 c -17.97528,-2.0898 -34.251125,-15.46497 -40.007284,-32.87727 -1.644899,-4.97588 -1.976581,-7.27534 -2.01021,-13.93849 -0.04287,-8.48394 1.046536,-13.98862 4.403366,-22.24995 1.711621,-4.21237 14.293148,-27.19617 17.108618,-31.25391 l 1.38729,-1.99943 54.8975,0.18569 54.89752,0.18625 0,51.14179 0,51.14169 -43.16212,0.0851 c -23.73921,0.0464 -45.1208,-0.14285 -47.51468,-0.42107 z M 43.396355,317.20167 C 27.668391,290.14309 14.387971,266.68885 13.884243,265.08125 c -0.503698,-1.60764 -0.975171,-2.43338 -1.047762,-1.83493 -0.07247,0.5985 -0.402059,-0.21772 -0.732217,-1.81352 -0.588027,-2.84242 -0.03893,-11.10767 0.609317,-9.17308 0.180877,0.5405 0.870091,-0.60204 1.530947,-2.53894 0.660945,-1.93693 7.651917,-14.8095 15.535558,-28.60575 8.002768,-14.00482 14.154016,-25.53944 13.926753,-26.11495 -0.223998,-0.56694 -6.265671,-4.29517 -13.42617,-8.28492 -7.160527,-3.9898 -13.027613,-7.44894 -13.037974,-7.68695 -0.02395,-0.53076 24.255002,-1.21457 65.693421,-1.85014 l 31.255104,-0.47942 23.43624,42.20275 c 12.88995,23.21149 23.25623,42.38277 23.03613,42.60282 -0.21981,0.2201 -6.48559,-3.10796 -13.92349,-7.39561 -13.29135,-7.66196 -13.54649,-7.77182 -14.8703,-6.40178 -2.05465,2.12631 -51.464597,87.7683 -53.795261,93.24298 -2.670973,6.27393 -4.834716,14.29275 -5.526447,20.48083 l -0.555413,4.96849 -28.596324,-49.19746 z M 372.22145,300.13714 c -0.34803,-0.53849 -12.74965,-21.87183 -27.55919,-47.40744 -19.99821,-34.48222 -26.71764,-46.64237 -26.1149,-47.26025 1.21202,-1.24242 86.08304,-49.58437 87.05225,-49.58437 0.45877,0 10.33805,16.40338 21.95396,36.45203 24.19693,41.76328 23.21801,39.96541 25.28174,46.43011 0.86036,2.69515 1.74395,4.72056 1.96354,4.501 0.21982,-0.21982 0.63092,1.76461 0.91415,4.40926 0.55736,5.20492 -0.12338,13.61134 -1.0559,13.03513 -0.31624,-0.19525 -0.8004,0.86608 -1.07619,2.35876 -0.7712,4.1741 -5.5811,13.8128 -9.42183,18.8808 -6.36964,8.40495 -14.93115,14.07205 -25.67701,16.99646 -4.80497,1.30764 -8.21853,1.5529 -25.58629,1.83822 -16.30003,0.26772 -20.15973,0.14644 -20.67433,-0.64971 z M 131.11393,148.17037 c -23.73918,-13.78739 -43.54128,-25.44473 -44.004674,-25.9052 -0.638722,-0.63477 4.548971,-10.13855 21.443514,-39.284295 21.0571,-36.32679 22.60574,-38.775171 28.08317,-44.399122 6.27429,-6.442026 12.29974,-9.94335 20.92665,-12.160279 5.59745,-1.438351 18.17132,-1.428888 24.33035,0.01796 10.17187,2.390256 19.98627,9.036695 27.09547,18.349465 5.31703,6.964949 20.27049,32.579552 19.88347,34.059409 -0.35033,1.339653 -51.89045,90.810342 -53.6617,93.153682 -0.84566,1.11877 -5.02006,-1.13733 -44.09625,-23.83214 z m 155.24878,2.55283 c -18.5469,-0.31624 -34.69645,-0.67164 -35.8878,-0.7896 -1.85745,-0.18387 -0.25604,-1.30036 11.23373,-7.83144 11.81263,-6.71453 13.39815,-7.83163 13.38427,-9.43038 -0.015,-1.79358 -45.89882,-82.447581 -52.61682,-92.490324 -5.59145,-8.358651 -17.71311,-19.202458 -21.50121,-19.234591 -0.72015,-0.009 -1.79896,-0.327642 -2.39743,-0.714279 -1.30686,-0.844606 112.14184,-0.873774 118.2425,-0.03025 2.19438,0.303386 3.50017,0.608181 2.90167,0.677356 -0.59849,0.06917 0.60936,0.712424 2.68415,1.429279 5.24152,1.811154 9.30842,4.814082 11.86679,8.762327 1.19628,1.846131 8.28966,13.757915 15.76303,26.470582 7.47335,12.712638 14.09776,23.435493 14.72093,23.828569 0.86764,0.547327 4.09361,-1.032128 13.77568,-6.744568 6.95348,-4.102594 12.94307,-7.626948 13.3101,-7.831931 1.28445,-0.717334 -0.53939,2.687234 -23.34218,43.57153 l -22.96055,41.16726 -12.72761,-0.1171 c -7.00023,-0.0641 -27.90238,-0.37612 -46.44925,-0.69223 z"
     id="path3042-4"
     style="fill:#000000" />
</svg>
