<?xml version="1.0" encoding="utf-8"?>
<!-- Generator: Adobe Illustrator 21.1.0, SVG Export Plug-In . SVG Version: 6.00 Build 0)  -->
<svg version="1.1"
	 id="svg2" xmlns:cc="http://creativecommons.org/ns#" xmlns:dc="http://purl.org/dc/elements/1.1/" xmlns:rdf="http://www.w3.org/1999/02/22-rdf-syntax-ns#" xmlns:svg="http://www.w3.org/2000/svg"
	 xmlns="http://www.w3.org/2000/svg" xmlns:xlink="http://www.w3.org/1999/xlink" x="0px" y="0px" viewBox="0 0 468 468"
	 style="enable-background:new 0 0 468 468;" xml:space="preserve">
<style type="text/css">
	.st0{enable-background:new    ;}
</style>
<g fill="#000000" id="g6" transform="matrix(0.31014317,0,0,-0.31506905,5.4080647,571.67698)">
	<path id="path8" d="M76.9,1799.2c-42-15.7-61.8-34.6-71.7-70c-4.9-19-8.2-268.6-8.2-670.7c0-693.8-1.6-671.5,45.3-714.4l22.2-20.6
		l668.2-2.5c624.5-1.6,670.7-0.8,697.9,12.4c60.1,30.5,57.7-4.9,57.7,731.7c0,638.6-0.8,660-16.5,685.5
		c-36.3,60.1,13.2,56-712.7,57.7C223.5,1810,102.4,1808.3,76.9,1799.2z M1372.9,1061V426.6H742.6H112.3V1061v634.4h630.3h630.3V1061
		z"/>
</g>
<g fill="#000000" class="st0">
	<path d="M118.7,357.5V116.8h58c14.6,0,25.2,2.2,31.8,6.5c6.6,4.3,11.9,12,15.9,23.1c4,11.1,6,23.7,6,37.9c0,18.1-3,33-9,44.7
		c-6,11.8-15,19.2-27,22.2c6,6.1,10.9,12.9,14.8,20.2c3.9,7.3,9.1,20.4,15.7,39.1l16.7,46.9h-33l-19.9-52.4
		c-7.1-18.7-11.9-30.5-14.5-35.4c-2.6-4.9-5.4-8.2-8.3-10c-2.9-1.8-7.5-2.7-13.9-2.7h-5.6v100.5H118.7z M146.2,218.6h20.4
		c13.2,0,21.5-1,24.8-3c3.3-2,5.9-5.4,7.7-10.2c1.9-4.8,2.8-10.8,2.8-18.1c0-8.1-1.2-14.6-3.7-19.6c-2.5-5-5.9-8.1-10.4-9.4
		c-2.2-0.5-8.9-0.8-20.1-0.8h-21.5V218.6z"/>
	<path d="M343.6,269l26.7,14.9c-4.1,26.3-10.9,45.8-20.4,58.5c-9.5,12.7-21.6,19.1-36.3,19.1c-18.1,0-33-10.9-44.7-32.7
		c-11.7-21.8-17.5-51.7-17.5-89.5c0-40.1,5.9-71.2,17.6-93.3s27.2-33.2,46.3-33.2c16.7,0,30.3,8.7,40.7,26.1
		c6.2,10.3,10.9,25.1,14,44.3l-27.3,11.5c-1.6-12.5-5-22.3-10.1-29.5c-5.1-7.2-11.3-10.8-18.7-10.8c-10.1,0-18.3,6.4-24.6,19.2
		c-6.3,12.8-9.5,33.5-9.5,62.2c0,30.4,3.1,52.1,9.3,65c6.2,12.9,14.3,19.4,24.2,19.4c7.3,0,13.6-4.1,18.9-12.3
		C337.5,299.5,341.3,286.6,343.6,269z"/>
</g>
</svg>
