<?xml version="1.0" encoding="UTF-8" standalone="no"?>
<!-- Created with Inkscape (http://www.inkscape.org/) -->

<svg
   xmlns:dc="http://purl.org/dc/elements/1.1/"
   xmlns:cc="http://creativecommons.org/ns#"
   xmlns:rdf="http://www.w3.org/1999/02/22-rdf-syntax-ns#"
   xmlns:svg="http://www.w3.org/2000/svg"
   xmlns="http://www.w3.org/2000/svg"
   version="1.0"
   width="468pt"
   height="468pt"
   viewBox="0 0 568 568"
   id="svg2">
  <defs
     id="defs12" />
  <metadata
     id="metadata4">
Created by potrace 1.8, written by Peter Selinger 2001-2007
<rdf:RDF>
  <cc:Work
     rdf:about="">
    <dc:format>image/svg+xml</dc:format>
    <dc:type
       rdf:resource="http://purl.org/dc/dcmitype/StillImage" />
    <dc:title></dc:title>
  </cc:Work>
</rdf:RDF>
</metadata>
  <g
     transform="matrix(0.31014317,0,0,-0.31506905,5.4080647,571.67698)"
     id="g6">
    <path
       d="M 97,1796 C 46,1777 22,1754 10,1711 4,1688 0,1385 0,897 0,55 -2,82 55,30 L 82,5 893,2 c 758,-2 814,-1 847,15 73,37 70,-6 70,888 0,775 -1,801 -20,832 -44,73 16,68 -865,70 -650,2 -797,0 -828,-11 z m 1573,-896 0,-770 -765,0 -765,0 0,770 0,770 765,0 765,0 0,-770 z"
       id="path8" />
  </g>
  <text
     x="168.70497"
     y="326.7482"
     transform="scale(0.7531229,1.3278045)"
     id="text4055"
     xml:space="preserve"
     style="font-size:307.27346802px;font-style:normal;font-variant:normal;font-weight:bold;font-stretch:normal;line-height:125%;letter-spacing:0px;word-spacing:0px;fill-opacity:1;font-family:Arial;-inkscape-font-specification:Arial Bold"><tspan
       x="168.70497"
       y="326.7482"
       id="tspan4057">RC</tspan></text>
</svg>
