<?xml version="1.0" encoding="UTF-8" standalone="no"?>
<svg
   xmlns:dc="http://purl.org/dc/elements/1.1/"
   xmlns:cc="http://creativecommons.org/ns#"
   xmlns:rdf="http://www.w3.org/1999/02/22-rdf-syntax-ns#"
   xmlns:svg="http://www.w3.org/2000/svg"
   xmlns="http://www.w3.org/2000/svg"
   id="svg899"
   version="1.1"
   viewBox="0 0 96.98044 97.397062"
   height="368.11487"
   width="366.54025">
  <defs
     id="defs893" />
  <metadata
     id="metadata896">
    <rdf:RDF>
      <cc:Work
         rdf:about="">
        <dc:format>image/svg+xml</dc:format>
        <dc:type
           rdf:resource="http://purl.org/dc/dcmitype/StillImage" />
        <dc:title></dc:title>
      </cc:Work>
    </rdf:RDF>
  </metadata>
  <g
     transform="translate(1.8918742,-67.162404)"
     id="layer1">
    <path
       id="rect912"
       transform="scale(0.26458333)"
       d="m 197.15625,253.88672 a 158.60725,160.62992 0 0 0 -1.09961,0.0293 158.60725,160.62992 0 0 0 -100.99414,40.91015 l 0.164062,0.16211 a 12.443461,12.533264 0 0 0 -3.357421,8.53906 12.443461,12.533264 0 0 0 12.443359,12.53321 12.443461,12.533264 0 0 0 8.75,-3.62696 133.7509,134.83574 0 0 1 182.01758,5.01758 133.7509,134.83574 0 0 1 7.73242,184.04688 l 0.0254,0.0234 a 12.679406,12.770911 0 0 0 -3.125,8.38282 12.679406,12.770911 0 0 0 12.67773,12.77148 12.679406,12.770911 0 0 0 8.43555,-3.25781 l 0.0742,0.0742 a 158.60725,160.62992 0 0 0 0.34766,-0.45117 12.679406,12.770911 0 0 0 2.07812,-2.69727 158.60725,160.62992 0 0 0 -11.29101,-216.46484 158.60725,160.62992 0 0 0 -114.87891,-45.99219 z m -2.08008,45.98828 a 114.98344,118.04522 0 0 0 -0.79687,0.0215 114.98344,118.04522 0 0 0 -70.13086,27.5 9.2705837,9.2705837 0 0 0 -5.08789,8.27149 9.2705837,9.2705837 0 0 0 9.27148,9.26953 9.2705837,9.2705837 0 0 0 5.99414,-2.21094 96.963664,99.089354 0 0 1 131.74024,3.86133 96.963664,99.089354 0 0 1 5.60547,135.25391 l 0.008,0.008 a 9.2705837,9.2705837 0 0 0 -2.80469,6.64062 9.2705837,9.2705837 0 0 0 9.27148,9.26954 9.2705837,9.2705837 0 0 0 6.58204,-2.75196 l 0.0566,0.0586 A 114.98344,118.04522 0 0 0 278.35742,333.67383 114.98344,118.04522 0 0 0 195.07617,299.875 Z M 25.359375,321.56641 c -18.0097355,0 -32.5097656,14.49807 -32.5097656,32.50781 v 235.375 c 0,18.00973 14.5000301,32.50781 32.5097656,32.50781 H 261.30273 c 18.00974,0 32.50977,-14.49808 32.50977,-32.50781 v -51.8086 h -25.25391 v 52.23633 c 0,5.18088 -4.17068,9.35157 -9.35156,9.35157 H 26.445312 c -5.180873,0 -9.351562,-4.17069 -9.351562,-9.35157 V 354.15039 c 0,-5.18087 4.170689,-9.35156 9.351562,-9.35156 H 77.78125 V 321.56641 Z M 197.18945,350.9043 a 64.831009,66.557327 0 0 0 -0.44922,0.0117 64.831009,66.557327 0 0 0 -33.37304,10.83203 9.6978791,9.6978791 0 0 0 -7.31055,-3.3418 9.6978791,9.6978791 0 0 0 -9.69726,9.69727 9.6978791,9.6978791 0 0 0 9.69726,9.69726 9.6978791,9.6978791 0 0 0 6.63867,-2.63476 l 0.0527,0.0527 a 54.670936,55.869462 0 0 1 74.46875,2.02344 54.670936,55.869462 0 0 1 3.16015,76.26172 l 0.0215,0.0215 a 10.618761,10.618762 0 0 0 -3.13867,7.52734 10.618761,10.618762 0 0 0 10.61914,10.61915 10.618761,10.618762 0 0 0 10.61914,-10.61915 10.618761,10.618762 0 0 0 -4.63282,-8.76953 64.831009,66.557327 0 0 0 -9.71875,-82.32226 64.831009,66.557327 0 0 0 -46.95703,-19.05664 z m 2.75196,32.82617 a 30.23622,30.23622 0 0 0 -30.23633,30.23633 30.23622,30.23622 0 0 0 30.23633,30.23632 30.23622,30.23622 0 0 0 30.23632,-30.23632 30.23622,30.23622 0 0 0 -30.23632,-30.23633 z"
       style="opacity:1;fill:#000000;fill-opacity:1;fill-rule:evenodd;stroke:none;stroke-width:27.36490822;stroke-linecap:round;stroke-linejoin:miter;stroke-miterlimit:4;stroke-dasharray:none;stroke-opacity:1" />
    <path
       id="path952"
       d="m 52.019863,90.454975 a 19.757014,20.283104 0 0 0 -12.580401,5.165817 l 2.221501,2.240103 a 16.660768,17.026015 0 0 1 22.693819,0.616816 16.660768,17.026015 0 0 1 0.963194,23.240079 l 2.25313,2.27216 A 19.757014,20.283104 0 0 0 66.466802,96.258812 19.757014,20.283104 0 0 0 52.019863,90.454975 Z"
       style="opacity:1;fill:#000000;fill-opacity:1;fill-rule:evenodd;stroke:none;stroke-width:5.54386854;stroke-linecap:round;stroke-linejoin:miter;stroke-miterlimit:4;stroke-dasharray:none;stroke-opacity:1" />
    <g
       id="text956"
       style="font-style:normal;font-variant:normal;font-weight:normal;font-stretch:normal;font-size:3.81042266px;line-height:1.25;font-family:sans-serif;-inkscape-font-specification:sans-serif;letter-spacing:0px;word-spacing:0px;opacity:1;fill:#000000;fill-opacity:1;stroke:none;stroke-width:0.28578168"
       aria-label="RFID">
      <path
         id="path994"
         style="font-style:normal;font-variant:normal;font-weight:bold;font-stretch:normal;font-size:24.3867054px;font-family:'Liberation Sans';-inkscape-font-specification:'Liberation Sans, Bold';font-variant-ligatures:normal;font-variant-caps:normal;font-variant-numeric:normal;font-feature-settings:normal;text-align:start;writing-mode:lr-tb;text-anchor:start;fill:#000000;stroke-width:0.28578168"
         d="M 21.839704,152.49455 17.945928,146.124 h -4.120019 v 6.37055 h -3.512734 v -16.77776 h 8.38293 q 3.000708,0 4.632045,1.29792 1.631338,1.28602 1.631338,3.70325 0,1.76233 -1.000236,3.04834 -1.000236,1.27411 -2.703019,1.67897 l 4.536785,7.04928 z m -0.416765,-11.63369 q 0,-2.41724 -3.095968,-2.41724 h -4.501062 v 4.95355 h 4.596322 q 1.476539,0 2.238623,-0.66683 0.762085,-0.66682 0.762085,-1.86948 z" />
      <path
         id="path996"
         style="font-style:normal;font-variant:normal;font-weight:bold;font-stretch:normal;font-size:24.3867054px;font-family:'Liberation Sans';-inkscape-font-specification:'Liberation Sans, Bold';font-variant-ligatures:normal;font-variant-caps:normal;font-variant-numeric:normal;font-feature-settings:normal;text-align:start;writing-mode:lr-tb;text-anchor:start;fill:#000000;stroke-width:0.28578168"
         d="m 31.449114,138.43171 v 5.1917 h 8.585359 v 2.71493 h -8.585359 v 6.15621 H 27.93638 v -16.77776 h 12.371967 v 2.71492 z" />
      <path
         id="path998"
         style="font-style:normal;font-variant:normal;font-weight:bold;font-stretch:normal;font-size:24.3867054px;font-family:'Liberation Sans';-inkscape-font-specification:'Liberation Sans, Bold';font-variant-ligatures:normal;font-variant-caps:normal;font-variant-numeric:normal;font-feature-settings:normal;text-align:start;writing-mode:lr-tb;text-anchor:start;fill:#000000;stroke-width:0.28578168"
         d="m 42.844658,152.49455 v -16.77776 h 3.512733 v 16.77776 z" />
      <path
         id="path1000"
         style="font-style:normal;font-variant:normal;font-weight:bold;font-stretch:normal;font-size:24.3867054px;font-family:'Liberation Sans';-inkscape-font-specification:'Liberation Sans, Bold';font-variant-ligatures:normal;font-variant-caps:normal;font-variant-numeric:normal;font-feature-settings:normal;text-align:start;writing-mode:lr-tb;text-anchor:start;fill:#000000;stroke-width:0.28578168"
         d="m 64.564067,143.98064 q 0,2.59585 -1.024051,4.53678 -1.012143,1.92903 -2.881632,2.95308 -1.857581,1.02405 -4.26291,1.02405 h -6.787316 v -16.77776 h 6.072861 q 4.239096,0 6.561072,2.14336 2.321976,2.13145 2.321976,6.12049 z m -3.536548,0 q 0,-2.70302 -1.405094,-4.12002 -1.405093,-1.42891 -4.012851,-1.42891 h -2.488682 v 11.34792 h 2.976892 q 2.262439,0 3.596087,-1.5599 1.333648,-1.55989 1.333648,-4.23909 z" />
    </g>
  </g>
</svg>
