<?xml version="1.0" encoding="UTF-8"?>
<svg xmlns="http://www.w3.org/2000/svg" xmlns:xlink="http://www.w3.org/1999/xlink" width="512px" height="512px" viewBox="0 0 512 512" version="1.1">
  <defs/>
  <g fill="#000000" id="layer1">
    <path d="M512,310.828705 L512,237.675476 C508.383606,199.049118 480.846344,199.384979 438.857117,201.098877 L438.857117,347.405304 C506.26825,354.411346 509.694458,327.899658 512,310.828705 Z M73.1428757,347.405304 L73.1428757,201.098877 C31.1536541,199.384979 3.6164083,199.049118 0,237.675476 L0,310.828705 C2.3055527,327.899658 5.7317491,354.411346 73.1428757,347.405304 Z M18.2857246,438.846802 L493.714283,438.846802 L493.714283,512 L18.2857246,512 L18.2857246,438.846802 Z M328.319977,73.0807724 C316.793884,-21.573822 197.443054,-27.1074219 183.679977,73.0807724 L328.319977,73.0807724 Z M21.4819965,32.8603935 C31.3341713,14.2692299 57.7523441,13.1851501 68.9204578,30.9137707 C78.5478458,46.1964493 70.6726322,65.7089978 54.8517437,71.3434124 L54.8571835,182.81053 L36.5714055,182.81053 L36.5714055,71.3942566 C21.5582657,66.1819839 13.3209982,48.2602463 21.4819965,32.8603935 Z M347.42868,228.531189 C347.42868,249.570526 324.499237,262.791504 306.254639,252.27182 C288.01004,241.752152 288.01004,215.31015 306.254639,204.790482 C324.499237,194.270813 347.42868,207.491775 347.42868,228.531189 Z M178.254654,252.27182 C196.499176,262.791504 219.428711,249.570526 219.428711,228.531189 C219.428711,207.491776 196.499176,194.270813 178.254578,204.790482 C160.010071,215.31015 160.010071,241.752151 178.254654,252.27182 Z M420.571411,164.522247 L420.571411,420.558502 L91.4285812,420.558502 L91.4285812,164.522247 C91.4285812,124.123146 124.178268,91.3690719 164.571457,91.3690719 L347.428528,91.3690719 C387.821747,91.369072 420.571411,124.123146 420.571411,164.522247 Z M169.091141,268.098755 C199.498611,285.631439 237.71434,263.596588 237.71434,228.531189 C237.71434,193.465698 199.498611,171.430847 169.091141,188.963562 C138.68367,206.496277 138.683746,250.56604 169.091141,268.098755 Z M347.428528,329.116974 L164.571457,329.116974 L164.571457,365.693603 L347.428528,365.693603 L347.428528,329.116974 Z M365.714325,228.531189 C365.714325,193.465698 327.498657,171.430847 297.091187,188.963562 C266.683716,206.496277 266.683716,250.56604 297.091187,268.098755 C327.498657,285.631439 365.714325,263.596588 365.714325,228.531189 Z" id="Shape"/>
  </g>
</svg>
