<?xml version="1.0" encoding="utf-8"?>
<!-- Generator: Adobe Illustrator 21.1.0, SVG Export Plug-In . SVG Version: 6.00 Build 0)  -->
<svg version="1.1" id="Ebene_1" xmlns="http://www.w3.org/2000/svg" xmlns:xlink="http://www.w3.org/1999/xlink" x="0px" y="0px"
	 viewBox="0 0 500.6 646" style="enable-background:new 0 0 500.6 646;" xml:space="preserve">
<style type="text/css">
	.st0{fill:#FF0D40;}
	.st1{fill:#FA0F45;}
	.st2{fill:#FFFFFF;}
</style>
<desc>Exported by the ArtWorks SVGExport module.
  Source document: ADFS::HardDisc4.$.WebSite.PiLearn.WorkFiles.Logo.RPi.RPi-white/ArtWorks</desc>
<g transform="matrix(1 0 0 -1 0 4978.625)" fill="#000000">
	<g>
		<path d="M500.5,4610.6l-0.7,7.1c0,0.3-0.1,0.5-0.1,0.8l-0.5,3.4c-0.1,0.5-0.2,1-0.3,1.5l-1.5,6.9c-0.2,0.8-0.4,1.5-0.6,2.2
			l-2.2,6.7c-0.1,0.3-0.2,0.6-0.3,1l-1.2,3.2c-0.2,0.4-0.3,0.8-0.5,1.2l-2.9,6.4c-0.3,0.7-0.7,1.4-1.1,2l-3.6,6
			c-0.2,0.4-0.5,0.8-0.8,1.2l-1.9,2.7c-0.2,0.2-0.3,0.5-0.5,0.7l-4.2,5.5c-0.4,0.6-0.9,1.1-1.4,1.7l-4.8,5.1c-0.5,0.5-1,1-1.5,1.5
			l-5.4,4.6l-2.2,1.9c-0.5,0.4-1,0.8-1.6,1.2l-5.2,3.6c-1.5,3-3,5.9-4.6,8.7l0.1,1.7c0,0.4,0,0.9,0,1.3l-0.1,4.4c0,0.4,0,0.7,0,1.1
			l-0.5,7.1c-0.1,0.8-0.2,1.6-0.3,2.4l-1.3,6.9c0,0.1-1,4.7-1,4.7c-0.1,0.7-0.3,1.4-0.5,2.1l-2.1,6.7c-0.2,0.5-0.4,1.1-0.6,1.6
			l-1.7,4.2c-0.1,0.2-0.2,0.5-0.3,0.7l-2.9,6.3c-0.3,0.7-0.7,1.5-1.1,2.1l-3.6,5.9c-0.1,0.2-0.2,0.4-0.4,0.6l-2.4,3.7
			c-0.3,0.5-0.6,0.9-1,1.4l-4.2,5.4c-0.5,0.6-1,1.2-1.5,1.7l-7.7,7.9c-0.5,0.5-1.1,1-1.7,1.5l-5.2,4.3c-0.5,0.4-1.1,0.8-1.7,1.2
			l-3.3,2.2c0,0-5.6,3.6-5.6,3.6c-0.6,0.4-1.2,0.7-1.8,1.1l-1.5,0.8c0.4,0.7,0.7,1.4,0.9,2.1c5.5,1,11.2,2.5,16.4,4.7
			c5,2.2,8.5,6.7,9.5,11.9c6.8,2.6,11.8,5.3,15.1,8c3.8,3.2,5.9,7.9,5.8,12.7c4.3,2.7,8.5,5.9,12.2,9.4c4.1,3.9,5.9,9.5,4.9,14.9
			c2.3,2.1,4.6,4.3,6.8,6.7c4.1,4.6,5.3,11,3.2,16.7c2.3,2.6,4.5,5.2,6.3,7.9c3.4,4.9,3.8,11.2,1.3,16.4c2.1,2.9,3.7,5.7,4.8,8.5
			c2.4,6.1,0.8,13.1-3.9,17.6c-0.1,0.1-0.2,0.2-0.4,0.4c4.2,5.1,5,12.1,2,18c-2.8,5.5-8.5,8.9-14.6,8.9c-0.6,0-1.2,0-1.7-0.1
			c-2-0.2-4-0.4-6-0.5c-2,4.1-5.7,7.2-10.3,8.5c-4.1,1.1-8.6,1.7-13.4,1.7c-1.9,0-3.9-0.1-5.7-0.3c-2.8,3.5-6.9,5.9-11.7,6.2
			c-0.9,0.1-1.8,0.1-2.7,0.1c-2.2,0-4.6-0.2-7-0.6c-3.1,3.7-7.7,6-12.7,6c-0.8,0-1.6-0.1-2.5-0.2c-4.6-0.7-8.8-1.7-12.6-2.9
			c-3,2.6-6.9,4.1-10.9,4.1c-1.4,0-2.9-0.2-4.3-0.6c-4.5-1.2-8.7-3.1-12.6-5.2c-2.5,1.5-5.4,2.3-8.4,2.3c-1.9,0-3.9-0.3-5.8-1.1
			c-3.4-1.3-6.7-3.2-9.6-5.3c-2.3,1.1-4.7,1.7-7.2,1.7c-3.1,0-6.2-0.9-8.9-2.6c-3.9-2.5-8-6.3-11.8-10.2c-1.3,0.3-2.6,0.5-3.8,0.5
			c-3.9,0-7.7-1.4-10.8-4c-23.2-20.1-31.3-48.4-32.9-54.9c0,0,0,0,0,0c0,0,0,0,0,0c-1.6,6.5-9.7,34.7-32.9,54.9c-3,2.6-6.9,4-10.8,4
			c-1.3,0-2.6-0.2-3.8-0.5c-3.8,3.9-7.9,7.7-11.8,10.2c-2.7,1.8-5.8,2.6-8.9,2.6c-2.5,0-5-0.6-7.2-1.7c-3,2.1-6.2,4-9.6,5.3
			c-1.9,0.7-3.9,1.1-5.8,1.1c-3,0-5.8-0.8-8.4-2.3c-3.9,2.1-8.1,4-12.6,5.2c-1.4,0.4-2.9,0.6-4.3,0.6c-4,0-7.9-1.5-10.9-4.1
			c-3.8,1.2-8,2.2-12.6,2.9c-0.8,0.1-1.7,0.2-2.5,0.2c-4.9,0-9.6-2.2-12.7-6c-2.4,0.3-4.8,0.6-7,0.6c-0.9,0-1.9,0-2.7-0.1
			c-4.7-0.4-8.9-2.7-11.7-6.2c-1.9,0.2-3.8,0.3-5.7,0.3c-4.8,0-9.3-0.6-13.4-1.7c-4.6-1.3-8.3-4.4-10.3-8.5c-2,0.1-4,0.3-6,0.5
			c-0.6,0.1-1.2,0.1-1.7,0.1c-6.1,0-11.8-3.4-14.6-8.9c-3-5.9-2.2-13,2-18c-0.1-0.1-0.3-0.2-0.4-0.4c-4.7-4.6-6.2-11.5-3.9-17.6
			c1.1-2.8,2.7-5.7,4.8-8.5c-2.5-5.2-2.1-11.5,1.3-16.4c1.8-2.7,4-5.4,6.3-7.9c-2.1-5.6-0.9-12.1,3.2-16.7c2.1-2.4,4.4-4.6,6.8-6.7
			c-1-5.3,0.8-11,4.9-14.9c3.7-3.5,7.9-6.6,12.2-9.4c-0.1-4.8,2-9.5,5.8-12.7c3.3-2.8,8.3-5.5,15.1-8c1-5.2,4.5-9.7,9.5-11.9
			c4.4-1.9,9.1-3.3,13.8-4.2l-5.1-2.5c-0.5-0.2-0.9-0.5-1.3-0.7l-5.1-3c-0.4-0.3-0.9-0.5-1.3-0.8l-4.9-3.4c-0.4-0.3-0.8-0.6-1.2-0.9
			l-4.6-3.7c-0.4-0.3-0.8-0.7-1.1-1l-4.3-4c-0.4-0.4-0.7-0.7-1.1-1.1l-3.9-4.3c-0.3-0.4-0.7-0.8-1-1.2l-1.2-1.5l-3.8-4.9
			c-0.3-0.4-0.6-0.9-0.9-1.3l-3.4-5.1c-0.3-0.5-0.6-0.9-0.9-1.4l-2.9-5.3c-0.3-0.5-0.5-1.1-0.8-1.6l-2.4-5.4
			c-0.1-0.3-0.2-0.6-0.4-0.9l-1.3-3.3c-0.1-0.3-0.2-0.6-0.3-0.9l-2-5.9c-0.2-0.6-0.4-1.2-0.5-1.9l-1.4-5.9c-0.1-0.5-0.2-1-0.3-1.5
			l-0.7-4.2c0-0.2,0-0.3-0.1-0.5l-0.8-6.2c-0.1-0.7-0.1-1.4-0.2-2.1l-0.2-6.2c0-0.4,0-0.8,0-1.1l0.1-4.1c0-0.4,0-0.8,0.1-1.3
			c-1.8-3.3-3.5-6.6-5.1-10l-3.1-2.2c-0.4-0.3-0.8-0.6-1.2-0.9l-4.7-3.9c-0.4-0.3-0.8-0.7-1.2-1l-4.4-4.2c-0.4-0.4-0.7-0.7-1.1-1.1
			l-4.1-4.5c-0.4-0.4-0.7-0.8-1-1.2l-3.7-4.8c-0.3-0.4-0.6-0.9-0.9-1.3l-3.3-5.1c-0.3-0.5-0.6-0.9-0.8-1.4l-2.9-5.2
			c-0.3-0.5-0.5-1-0.7-1.5l-2.4-5.4c-0.2-0.5-0.4-1-0.6-1.6l-0.8-2.3l-2-5.9c-0.2-0.6-0.4-1.2-0.5-1.7l-1.5-5.9
			c-0.2-0.6-0.3-1.2-0.4-1.9l-0.9-5.9c-0.1-0.5-0.1-1-0.2-1.6l-0.3-3.5c0-0.1,0-0.3,0-0.4l-0.3-6.2c0-0.7,0-1.4,0-2.1l0.3-6.1
			c0-0.6,0.1-1.2,0.2-1.8l0.5-4c0-0.1,1-6.5,1-6.5c0.1-0.7,0.3-1.5,0.5-2.2l1.6-6c0.1-0.4,0.2-0.8,0.4-1.2l1.4-4.2
			c0.1-0.3,0.2-0.7,0.4-1l2.3-5.8c0.3-0.7,0.6-1.5,1-2.2l3-5.5c0,0,2.3-4.2,2.3-4.2c0.4-0.7,0.8-1.3,1.2-2l3.7-5.2
			c0.2-0.3,0.5-0.7,0.7-1l2.9-3.6c0.3-0.3,0.5-0.7,0.8-1l1.4-1.5c3.3-15.5,8.2-30.5,14.5-44.7c0-0.5,0.1-1.1,0.2-1.6l1.2-7.4
			c0.1-0.7,0.3-1.4,0.5-2.1l2-7.1c0.1-0.3,0.2-0.5,0.2-0.8l1.2-3.7c0.1-0.4,0.3-0.8,0.5-1.3l2.8-7c0.3-0.7,0.6-1.4,0.9-2l3.5-6.6
			c0.2-0.3,0.3-0.6,0.5-0.8l2.1-3.6c0.2-0.4,0.5-0.8,0.7-1.1l4.3-6.3c0.4-0.6,0.9-1.3,1.4-1.8l5-5.8c0.1-0.2,0.3-0.3,0.5-0.5
			l2.9-3.2c0.4-0.4,0.8-0.8,1.2-1.2l5.7-5.2c0.6-0.5,1.2-1,1.8-1.5l6.3-4.6c0.1-0.1,3.7-2.6,3.7-2.6c0.6-0.4,1.2-0.8,1.8-1.1
			l6.8-3.8c0.7-0.4,1.4-0.7,2.1-1l3.8-1.6l4.2-1.8c19.3-15.3,41.1-27.5,64.6-36l4.3-4.8c0.5-0.5,1-1,1.5-1.5l6-5.4
			c0.5-0.4,0.9-0.8,1.4-1.2l2.4-1.8c0.1-0.1,0.2-0.1,0.3-0.2l6.5-4.7c0.6-0.4,1.2-0.8,1.8-1.2l7.1-4c0.6-0.4,1.3-0.7,2-1l7.5-3.2
			c0.4-0.2,0.9-0.4,1.3-0.5l2.6-0.9c0.2-0.1,0.5-0.2,0.7-0.2l7.7-2.4c0.7-0.2,1.4-0.4,2.1-0.5l8-1.6c0.7-0.1,1.4-0.2,2.1-0.3
			l8.2-0.8c0.6-0.1,1.3-0.1,1.9-0.1c0.1,0,2.5,0,2.5,0l8.1,0.1c0.7,0,1.4,0.1,2.1,0.1l8.2,0.9c0.7,0.1,1.4,0.2,2.1,0.4l8.1,1.8
			c0.7,0.1,1.3,0.3,2,0.5l7.9,2.6c0.6,0.2,1.3,0.5,1.9,0.7l7.7,3.4c0.6,0.3,1.2,0.6,1.8,0.9l7.3,4.2c0.5,0.3,0.9,0.5,1.3,0.8
			l0.7,0.4c0.1,0.1,0.2,0.2,0.4,0.2l6.7,4.7c0.5,0.4,1.1,0.8,1.6,1.2l6.2,5.4c0.6,0.5,1.1,1,1.6,1.5c0,0,5.8,6.2,5.8,6.3
			c0.4,0.4,0.7,0.8,1.1,1.3l0.5,0.6c20.2,7.8,39,18.4,55.9,31.3l7.9,2.7c0.6,0.2,1.3,0.5,1.9,0.7l8,3.6c0.6,0.3,1.2,0.6,1.8,0.9
			l7.6,4.3c0.6,0.3,1.2,0.7,1.7,1.1l7.1,5c0.6,0.4,1.1,0.8,1.6,1.3l6.5,5.7c0.5,0.4,1,0.9,1.5,1.4l5.9,6.3c0.5,0.5,0.9,1,1.3,1.6
			l5.2,6.8c0.4,0.6,0.8,1.1,1.2,1.7l4.5,7.2c0.4,0.6,0.7,1.2,1,1.8l3.7,7.6c0.2,0.4,0.4,0.8,0.5,1.2l0.8,2c0.1,0.3,0.2,0.5,0.3,0.8
			l2.9,8.1c0.2,0.7,0.5,1.4,0.6,2l2,8.3c0.2,0.7,0.3,1.4,0.4,2.1l1.2,8.4c0.1,0.7,0.2,1.4,0.2,2.2l0.3,8.4c0,0.1,0.1,3,0.1,3
			c0,0.2,0,0.3,0,0.5c3.6,10.3,6.5,20.8,8.7,31.7c0.3,0.3,0.6,0.6,0.8,1l1.3,1.7c0,0,4.6,6,4.6,6c0.4,0.6,0.8,1.1,1.2,1.7l3.9,6.2
			c0.4,0.6,0.7,1.2,1,1.9l3.2,6.5c0.3,0.6,0.5,1.1,0.7,1.7l1,2.7c0,0.1,2.6,7.2,2.6,7.2c0.3,0.7,0.5,1.4,0.6,2.1l1.7,7
			c0.2,0.7,0.3,1.5,0.4,2.2l0.9,7.1c0,0.2,0,0.3,0.1,0.5l0.3,3.3c0.1,0.6,0.1,1.2,0.1,1.8l0.1,7.2
			C500.6,4609,500.6,4609.8,500.5,4610.6"/>
	</g>
	<g>
		<path class="st0" d="M49.8,4547.3L49.8,4547.3"/>
	</g>
	<g>
		<path class="st1" d="M49.8,4546.7c-0.2,0-0.4,0.1-0.5,0.3c-0.1,0.3,0,0.5,0.3,0.7c0.3,0.1,0.6,0,0.7-0.3c0.1-0.3,0-0.5-0.2-0.7
			l0,0C49.9,4546.8,49.9,4546.7,49.8,4546.7z"/>
	</g>
	<g>
		<path class="st2" d="M60.7,4558.9l3.1,6.5l0.4,1.1l1.4,5.2l0.6,1.2l1.3,3.5l0.8,2.3l0.8,2.3l1.3,5.2l0.8,3.5l0.9,6.1l0.3,0.9
			l0.5,2.1l0.9,5.5l0.1,0.6l0.7,3.4l0.4,3.3l0.6,5.6l0.1,0.7v2.2l0.1,1.7l0.2,3.3l0.1,2.6v0.1l-0.1,2.2l-0.1,1.9l0,0.5l0,1l0,1.3
			l0,1.2l0,1.1l0,1l0,0.9l0,0.9l-0.1,0.8l-0.1,0.8l-0.1,0.8l-0.1,0.8l0,0l0,0.8l-0.1,0.9l-0.1,1l-0.1,1.1l-0.1,1.2l-0.2,1.4
			l-0.2,1.6l-0.1,0.9l-0.1,0.5l-0.1,0.4l-0.4,2.2l-0.5,2.7l-0.2,1l-0.7,1.8l-0.3,0.6l-0.8,2.8l-0.1,0.2l-1.8,2.9l-0.5,0.6l-1,0.7
			l-0.3,0.4l-0.5,1l-0.3,0.5l-2.3,1.4l-0.2,0l-2.9-0.2l-0.7-0.2l-2-0.9l-2.3-1.3l-5-3.5L47,4662l-4.4-4.2l-4.1-4.5l-3.7-4.8
			l-3.3-5.1l-2.9-5.2l-2.4-5.4l-0.8-2.3l-2-5.9l-1.5-5.9l-0.9-5.9l-0.3-3.5l-0.3-6.2l0.3-6.1l0.5-4l1-6.2l1.6-6l1.4-4.2l2.3-5.8
			l3-5.5l2.2-4.1l3.7-5.2l2.9-3.6l3.1-3.4l0.7-0.7l0.9-0.5l1.9-1.2l0.5-0.1l2.5,0.3l0.7,0.4l2.8,1.3l1.2,0.9l1.4,1.8l1.2,1.3l0.7,1
			l0.9,2l2.4,2.8L60.7,4558.9"/>
	</g>
	<g>
		<path class="st2" d="M186.6,4754.3l0.6-3.1l0.5-1.4l0.8-1.4l1.1-1.5l0.5-1.1l0.8-1.4l0.7-1.2l1.7-2.4l0.4-0.5l1.5-1.4l0.2-0.2
			l2.2-1.9l1.7-1.2l0.6-0.5l2.4-1.6l1-0.5l1.5-0.9l2.4-1.3l0.2-0.1l2.6-1.3l1.2-0.5l1.5-0.7l2.7-1.1l0.2-0.1l3-1.1l1.5-0.5l1.7-0.6
			l3.4-1l0.3-0.1l3.4-0.9l3.1-0.7l0.8-0.2l4.2-0.8l1.5-0.2l2.2-0.2l0.8-0.1l4.8-0.2l4.8,0l0.3,0l4.2-0.3l1.7-0.2l0.5,0l5.5,0.1
			l6.3,0.6l4,0.6l2.4,0.6l1.7,0.5l5.2,0.7l4.4,0.9l2.5,0.8l6.3,2.6l3.7,2l0.1,0l2.2,1l2.3,1.3l3.5,1.8l1.5,1.1l3.1,2.8l3.3,4.2
			l0.2,0.2l0.8,1.1l0.6,1.1l1.4,2.1l1.7,4.5l0.1,0.9l0,3.4l0,0.5l-0.8,4.6l-0.3,0.6l-1.1,3.1l-0.3,0.7l-0.2,0.3l-2.5,3.7l-1.2,1.4
			l-4.3,4.8l-4.9,4.3l-3.5,2.9l-5.3,3.6l-3.9,2.1l-5.5,3l-5.9,2.4l-3.8,1.2l-5.9,1.8l-6.1,1.2l-6.3,0.7l-2.9,0.1l-6,0.1l-6.1-0.4
			l-6.1-0.9l-6.1-1.4l-6-1.9l-5.9-2.4l-5.7-2.8l-5.5-3.2l-5.2-3.6l-4.9-4l-4.2-4l-0.2-0.2l-3-3.8l-1.2-1.9l-0.9-1.5l-0.1-0.3l-1-3.6
			l-0.1-0.9l-0.6-2.4l0-0.3l0.1-1.8L186.6,4754.3"/>
	</g>
	<g>
		<path class="st0" d="M70.8,4693.8L70.8,4693.8"/>
	</g>
	<g>
		<path class="st1" d="M70.8,4693.3c-0.3,0-0.5,0.2-0.5,0.4c0,0.3,0.2,0.5,0.4,0.6c0.3,0,0.5-0.2,0.6-0.4
			C71.3,4693.6,71.2,4693.3,70.8,4693.3L70.8,4693.3C70.8,4693.3,70.8,4693.3,70.8,4693.3z"/>
	</g>
	<g>
		<path class="st0" d="M172.1,4775.1L172.1,4775.1"/>
	</g>
	<g>
		<path class="st1" d="M172.1,4774.6c-0.3,0-0.5,0.2-0.5,0.5l0,0c0,0.3,0.2,0.5,0.5,0.5c0.3,0,0.5-0.2,0.5-0.5
			C172.6,4774.9,172.4,4774.7,172.1,4774.6C172.1,4774.6,172.1,4774.6,172.1,4774.6z"/>
	</g>
	<g>
		<path class="st2" d="M69.1,4694.3l0.1-0.1l1.7-0.4l0.3-0.1l2.5-0.2l1,0.2l3,1.2l1.4,0.7l3.3,1.1l2.8,1.2l2.3,1.3l4.2,2.7l1.1,0.9
			l0.4,0.4l2.4,1.3l2,1l2.1,1.2l2.4,1.6l4.2,2.9l1.8,1.3l0.5,0.3l1.4,1l3.3,2.6l2.9,2.3l0.6,0.5l1.9,1.4l0.2,0.2l0.3,0.2l1.9,1.4
			l2.1,1.7l1.4,1.2l0.6,0.4l1.8,1.4l1.8,1.4l1.7,1.4l1.3,1.2l0.3,0.2l1.6,1.3l1.6,1.4l1.6,1.4l1.6,1.5l0.1,0.1l1.5,1.3l1.7,1.6
			l1.8,1.7l1.7,1.6l0.2,0.2l0.8,0.7l0.2,0.2l1.2,1.1l2.3,2.2l2.4,2.3l0.2,0.1l2.9,2.6l0.2,0.3l2.8,3l1.8,2.1l1.4,1.4l0.3,0.3
			l2.4,3.2l1.2,1.8l1.2,1.2l0.8,0.9l2.7,3.7l0.2,0.3l0,0l1.5,3.4l0.2,0.9l1.1,2.1l0.2,0.7l-0.4,1.4l-0.7,0.8l-0.2,0.1l-0.1,0.1
			l-0.4,0.3l-0.9,0.2l-3.2,0.7l-4.1,0.9l-6.1,0.7l-6.3,0.1l-3.5,0l-6-0.4l-6-0.9l-6-1.4l-2.1-0.6l-5.5-1.8l-5.4-2.2l-5.3-2.6l-5.1-3
			l-4.9-3.4l-4.6-3.7l-4.3-4l-3.9-4.3l-1.1-1.4l-3.8-4.9l-3.4-5.1l-2.9-5.3l-2.4-5.4l-1.3-3.3l-2-5.9l-1.4-5.9l-0.7-4.2l-0.8-6.2
			l-0.2-6.2l0.1-4.1L69.1,4694.3"/>
	</g>
	<g>
		<path class="st2" d="M183.7,4568.9l7.3,3.1l3.4,2.1l3.9,2.1l6,4.4l0.9,0.6l6.4,5.6l1.6,1.9l3.4,3.5l0.8,0.8l0.4,0.5l3.2,4.1l1.7,2
			l4.6,7l0.2,0.4l3.7,6.8l1.3,3.3l1.9,4.3l1.7,5.8l0.6,1.8l0.2,0.9l0.9,6.5l0.1,0.4l0.1,0.6l1,6.7l0.1,2.4l0.3,4.8l-0.3,3.8
			l-0.1,3.2l-0.8,4.6l-0.3,2.2l-1.4,4.8l-0.4,1.6l0,0l-1.5,3.3l-0.4,1.3l-0.4,1.3l-1.7,3.8l-0.8,1.7l-1.6,2.7l-1.4,2.4l-1.1,1.4
			l-2.4,3.3l0,0l-2.6,2.8l-1.2,1.4l-1.2,1.1l-2.4,2.1l-0.6,0.6l-1.7,1.2l-2.2,1.6l-0.6,0.4l-1.7,1l-2.1,1.3l-0.9,0.6l-1.2,0.5
			l-2.1,1l-1.6,0.8l-0.4,0.2l-2.2,0.8l-2.2,0.8l-0.3,0.1l-1.9,0.5l-2.3,0.6l-1,0.3l-1.5,0.3l-2.6,0.5l-1.2,0.2l-1.6,0.1l-3.1,0.3
			l-0.9,0.1l-2.5,0l-3.2,0l-0.5-0.1l-4-0.4l-1.3-0.1l-3.2-0.6l-2.7-0.5l-2.1-0.6l-3.8-1l-1.5-0.5l-2.9-1.1l-1.5-0.5l-1.4-0.6
			l-0.4-0.2l-4-1.9l-1.7-1l-4-2.3l-2.3-1.6l-3.3-2.2l-3.3-2.6l-2.2-1.7l-4.3-4.1l-0.8-0.8l-1.7-1.9l-3.2-3.5l-0.7-0.9l-0.3-0.3
			l-3.4-4.5l-3.7-5.9l-0.5-0.8l-2.9-5.6l-0.6-1.2l-3-7l-0.5-1.5l-1.9-5.8l-0.4-1.8l-0.4-1.7l-0.2-0.9l-0.7-3.2l-1-7.7v0l-0.3-7.8
			l0.2-3.1l0.3-4.7l1-6.1l0.2-1.4l2-7.3l0.7-1.6l1.2-3.1l0.9-2.3l2.4-4.2l1.2-2.2l4.4-5.9l0.4-0.4l4.6-4.9l2.9-2.3l2.8-2.4l5.8-3.6
			l0.4-0.3l6.8-3.2l2.6-0.7l4.6-1.6l5.9-1l1.6-0.4l7.8-0.5l1.7,0.2l6.3,0.2l4.3,0.8l0.7,0.2l2.9,0.4l7.8,2.5L183.7,4568.9"/>
	</g>
	<g>
		<path class="st2" d="M309.5,4714.5l-3.7-1.3l-2.3-1l-2.9-1.2l-0.6-0.3l-0.9-0.4l-5.4-3l-2.8-1.8l-1.8-1.5l-1.6-1.6l-2-1.8
			l-2.7-2.7l-0.3-0.4l-2.3-3.4l-0.2-0.3l-1.7-2.6l-0.8-1.3l-0.9-1.3l-1.5-2.4l0,0l-0.3-0.7l-0.9-1.7l-1-2.3l-0.9-2.2l-0.7-2
			l-0.1-0.2l-0.7-2.1l-0.6-2.1l-0.5-2.2l-0.3-1.9l-0.1-0.3l-0.4-2.3l-0.3-2.4l-0.2-2.5l-0.1-1.6l-0.1-1.1l-0.1-2.1l0-0.8l0.2-3.1
			l0.1-0.9l0.1-2.4v-0.2l0.2-4.3l0.4-4.3l0.1-0.6l0.8-3.2l0.4-2l1.6-6.3l0.3-1.1l2.3-5.2l2-3.9l1.1-2.3l0.3-0.9l0.1-0.1l4.7-8.7
			l1.2-2l4.9-6l3.7-4l1.3-1.1l2.5-2.8l5-4.9l3.9-2.9l7-4.3l2.5-1.1l0.2-0.2l8.5-4.4l2.2-0.8l10-2.3l0.6-0.2l0.5-0.1l3.6-0.1l6.6-1.1
			l2.7-0.1l7.3,0.7l6.2,1.6l1.5,0.3l1.5,0.5l3.7,1.7l4.7,1.8l5,3l2.4,1.7l0.2,0.2l6.1,5.3l5.3,6.5l1.3,2.2l2,3l1.1,1.8l3.2,7.7
			l1.2,4.4l1.1,3.6l1.4,8.4l0.3,6.9l0.1,1.9l-0.5,8.8l0,0.1l-0.1,0.9l-1.6,8.2l-0.9,3.2l-2.3,7.8l-3.1,7.4l-2.1,4l-3.9,6.9l-4.5,6.3
			l-0.2,0.2l-2.8,3.3l-5.3,5.8l-2.8,2.5l-4.4,3.7l-1.9,1.5l-4.6,3.3l-2.5,1.6l-6.7,3.5l-2.3,1.2l-0.6,0.3l-7.9,2.7l-2.2,0.8
			l-0.2,0.1l-9.6,1.8l-1.8,0.2l-8.1,0l-0.6,0l-1.5,0l-6.5-0.9L309.5,4714.5"/>
	</g>
	<g>
		<path class="st2" d="M326.3,4775.8l0.8-1.5l0.1-0.2l0.3-1.2l2.3-3.6l1.4-1.6l1.7-1.8l0.6-0.9l0.2-0.3l1.9-2.2l1.5-1.7l1.2-1.4
			l0.4-0.5l0.2-0.2l0.4-0.4l1-1l0.7-0.7l0.2-0.3l0.8-1l0.8-0.9l0.8-0.9l0.8-0.9l0.8-0.9l0.9-0.9l1-1l1.1-1.1l1.3-1.2l0.2-0.2
			l1.5-1.3l1.7-1.8l2.2-2.3l2.4-2.4l0.8-0.8l5.7-5l0.5-0.5l0,0l6.8-6.2l7.1-5.5l4.6-3l1.3-1l1.2-1.2l6.5-5.5l6.5-4.5l5.3-2.9l1-0.9
			l5.6-3.8l1.9-1l3.4-1.6l2.2-0.6l2.3-1.5l3.1-1.4l0.7-0.2l3,0l1-0.1l0.9,0.3l0.8,1.4l0.1,0.5l0,0.1l0.2,5.6l-0.1,4.4l-0.5,7.1
			l-1.3,6.9l-0.9,4.4l-2.1,6.7l-1.7,4.2l-2.9,6.3l-3.6,5.9l-2.4,3.7l-4.2,5.4l-3,3.1l-4.7,4.8l-5.2,4.3l-3.3,2.2l-5.5,3.6l-5.9,3
			l-6.3,2.5l-2.9,1l-6.3,1.8l-6.5,1.3l-6.7,0.7l-6.8,0.1l-1.6,0l-6.4-0.4l-6.4-0.9l-6.1-1.4l-0.2-0.2l-1-0.8l0-1.5l0.2-0.4
			L326.3,4775.8"/>
	</g>
	<g>
		<path class="st2" d="M479.4,4615.7l-0.5,3.4l-1.5,6.9l-2.2,6.7l-1.2,3.2l-2.9,6.4l-3.6,6l-1.9,2.7l-4.2,5.5l-4.8,5.1l-5.3,4.6
			l-2.2,1.9l-5.6,3.9l-5.3,3l-2.3,1l-1.9-0.2l-0.2-0.2l-2.1-0.7l-1.8-2l-0.4-1.1l-0.2-0.7l-0.9-1.6l-0.9-2.9l-0.3-1.3l-0.3-0.6
			l-0.6-2.6l-0.6-3.8l0-0.4l0-0.5l-0.5-2.7l-0.4-3.2l-0.3-3l-0.1-2.8l0-2.8l0.2-2.8l0-0.1l-0.1-2.9l0-3l0.2-3.3l0.3-3.7l0.5-4.2
			l0.6-3.6l0-0.9l0-0.5l0.8-6.1l0.7-4.6l0.3-1.2l0.4-2.4l1.1-6.1l1-3.9l0.3-1.8l0.5-3l2-7.8l2.3-6l0.2-0.9l2.1-6.5l2.5-5.5l2.8-4.1
			l0.1-0.3l2.2-4l2.5-2.8l2.3-1.4l0.3-0.4l1-0.6l1-0.4l2.3,0.4l1.3,0.9l0.6,0.6l0.4,0.4l3.4,3.6l1.3,1.7l4.6,5.9l3.9,6.2l3.2,6.5
			l1,2.7l2.5,6.9l1.7,7l0.9,7.1l0.3,3.3l0.1,7.2L479.4,4615.7"/>
	</g>
	<g>
		<path class="st0" d="M168.2,4442.5L168.2,4442.5"/>
	</g>
	<g>
		<path class="st1" d="M168.2,4442.1c-0.3,0-0.5,0.2-0.5,0.4l0,0.1c0,0.3,0.2,0.5,0.5,0.5c0.3,0,0.5-0.2,0.5-0.5
			C168.7,4442.4,168.5,4442.1,168.2,4442.1C168.2,4442.1,168.2,4442.1,168.2,4442.1z"/>
	</g>
	<g>
		<path class="st2" d="M168.7,4454.6l-0.1,0.7l-1.8,7l0,0.5l-1.9,8.9l-0.3,0.8l-3.3,7.8l-3,5.1l-1.3,3.4l-3.6,6.2l-1.3,2.2l-0.3,0.3
			l-5.3,7.7l-6.5,7.2l-0.8,0.7l-2.1,2.1l-3.4,4.3l-6.8,6.3l-2.2,1.5l-2,1.7l-2.9,2.4l-0.7,0.4l-1.4,0.8l-0.9,0.6l-0.7,0.4l-0.5,0.3
			l-0.4,0.3l-0.4,0.2l-0.3,0.2l-0.3,0.2l-0.3,0.1l-0.3,0.1l-0.3,0.1l-0.3,0.1l-0.2,0.1l-0.2,0.2l-0.2,0.2l-0.3,0.2l-0.3,0.2
			l-0.3,0.2l-0.4,0.2l-0.4,0.2l-0.5,0.3l-0.7,0.4l-0.9,0.5l-1.3,0.7l-0.7,0.4l-3,1l-2.2,0.7l-1.9,0.9l-6.6,1.5l-3.8-0.1l-1.8,0.2
			l-0.7,0.2l-5.5-0.1l-5.2-1.6l-1.1-0.6l-3.4-2l-1.5-1.6l-2.2-1.8l-2.7-3.8l-0.3-0.5l-2.3-5.9l-0.1-0.4l-1.1-4.8l-0.1-0.6l-0.9-7
			l-0.2-7.3l0.5-7.2l0.2-3.5l1.2-7.4l2-7.1l1.2-3.7l2.8-7l3.5-6.6l2.1-3.6l4.3-6.3l5-5.8l2.9-3.2l5.7-5.2l6.3-4.6l3.5-2.5l6.8-3.8
			l3.8-1.6l7.2-3l7.6-2.3l8-1.4l-0.1,0l3.5-0.6l6-0.2l0.4,0.1l1,0.1l3.4,0.3l1.6,0.3l6,2.3l0.8,0.5l3.8,3.7l0.5,0.4l0.3,0.4l0.3,0.6
			l4.2,5.4l0.1,0.2l1.9,6.8l0.1,3.5l0.6,4L168.7,4454.6"/>
	</g>
	<g>
		<path class="st0" d="M410.3,4551.4L410.3,4551.4"/>
	</g>
	<g>
		<path class="st1" d="M410.4,4551c-0.2,0-0.4,0.1-0.5,0.3c-0.1,0.3,0,0.5,0.2,0.6l0.1,0c0.3,0.1,0.5,0,0.7-0.3s0-0.5-0.3-0.7
			C410.5,4551,410.4,4551,410.4,4551z"/>
	</g>
	<g>
		<path class="st2" d="M444.4,4525.4l-0.8,2.9l-2.3,8l-0.7,1.8l-2.4,4.3l-0.6,0.7l-2.6,3.4l-3.8,3l-4,1.5l-0.2,0.1l-5.1,1.4
			l-2.6-0.1l-2.9,0.2l-6-1.1l-6.5-1.4l-3.3-1.4l-3.6-1.8l-0.7-0.5l-4.9-2.6l-1.9-1.1l-3.8-2.8l-4.1-3.3l-0.7-0.7l-1.6-1.7l-0.7-0.6
			l-1.7-1.4l-1.4-1.1l-2.7-2.3l-2.3-2.1l-2-2.1l-1.8-2.1l-1.7-2.2l-0.6-0.9l-1.2-1.3l-1.9-2.2l-1.9-2.4l-1.9-2.7l-2.1-3.1l-0.8-1.4
			l-1.5-2.2l-1.6-2.5l-0.1-0.2l-1-1.5l-3.2-5l-2.3-3.9l-1.5-3.3l-2.5-6l-0.6-2l-1.9-4.6l-0.8-2.2l-1.8-8.3l-1.6-7.7l-0.3-7.3
			l0.2-1.3l0.5-5.4l0.1-0.3l0.5-5.6l1.9-5.3l2.5-3.6l0.4-1l3.1-3.7l1.4-1l3.1-1.8l2.6-0.8l2.5-1l0.3-0.1l3.6-0.6l1.2-0.1l7.7,0.2
			l8.6,1.1l8.5,2l8.3,2.8l8,3.6l7.6,4.3l7.1,5l6.5,5.7l5.9,6.3l5.2,6.8l4.5,7.2l3.7,7.6l0.8,2l2.9,8.1l2.1,8.3l1.2,8.4l0.3,8.4
			l0.1,2.8l-0.6,8.4L444.4,4525.4"/>
	</g>
	<g>
		<path class="st0" d="M327.1,4518.7L327.1,4518.7"/>
	</g>
	<g>
		<path class="st1" d="M327.1,4518.2c-0.3,0-0.5,0.2-0.5,0.5v0c0,0.3,0.2,0.5,0.5,0.5s0.5-0.2,0.5-0.5S327.4,4518.2,327.1,4518.2z"
			/>
	</g>
	<g>
		<path class="st0" d="M275.6,4575.1l-0.1,0"/>
	</g>
	<g>
		<path class="st1" d="M275.6,4574.6c-0.1,0-0.1,0-0.2,0l-0.1,0c-0.3,0.1-0.4,0.4-0.3,0.6c0.1,0.3,0.4,0.4,0.6,0.3l0.1,0
			c0.3-0.1,0.4-0.4,0.3-0.6C276,4574.7,275.8,4574.6,275.6,4574.6z"/>
	</g>
	<g>
		<path class="st2" d="M326,4525.9l-1.2,4.5l-2.8,7l-1.4,2.7l-2.1,2.9l-2.8,5.2l-0.6,0.9l-6.8,7.9l-0.9,0.8l-5.7,4.3l-1.3,1.3
			l-3.1,2.3l-5.7,3.7l-4.6,2.1l-4.8,1.9l-6.6,1.6l-0.9,0.3l-2.4,0.9l-4.9,1l-5.7,1l-1.5,0l-5.2,0l-1.2,0.1l-3.1,0.1l-1.7-0.2
			l-4.1-0.5l-3.3-0.5l-1.7-0.3l-1-0.1l-0.2,0l-2.1-0.5l-2-0.5l-1.7-0.5l-1.5-0.5l-1.4-0.5l-1.3-0.5l-1.2-0.5l-0.5-0.2l-0.7-0.2
			l-1.2-0.4l-1.2-0.5l-1.2-0.5l-1.2-0.5l-1.3-0.6l-1.3-0.7l-1.4-0.8l-1.6-0.9l-0.9-0.5l-0.9-0.4l-1.3-0.7l-0.8-0.5l-2.2-1.6l-2.7-2
			l-3.3-2.6l-0.2-0.2l-0.2-0.2l-3.2-3.1l-4.1-4.2l-0.3-0.4l-3.4-5.1l-0.6-0.8l-1.5-2.2l-1.4-2.9l-1.6-2.7l-1.5-2.8l-2.7-7.4
			l-0.5-1.7l-1-6.5l-0.4-2.6l-0.1-0.8l0.1-1.7l-0.5-7.7l0.2-2.3l1.2-7.5l1.2-4.1l1-2.6l1-3.4l2.5-5.5l0.1-0.1l2-3.7l4.3-6.1l2.8-3.3
			l0,0l5-5.3l3.4-3l5.2-3.8l3.7-2.1l3.2-2l2.1-1.1l4-1.5l5.5-2.3l3.9-1.1l5.6-1.3l0.7-0.1l8.7-1.2l9-0.2h0.1l5.7,0.7l3.2,0.3
			l8.6,1.9l8.2,2.8l1.7,0.8l6.2,2.8l7.4,4.5l4,3.2l1.3,1.1l1.5,1.2l6.3,6.4l5.6,7.4l1.3,2.2l0.4,0.8l2.9,5.4l1.1,2.8l2.6,6.3l0,0.1
			l2,10.1l0.1,0.9l0.2,2.1l0,7.8l-0.5,4L326,4525.9"/>
	</g>
	<g>
		<path class="st2" d="M323.1,4401.2l-0.1,0.2l-2.5,2.8l-0.3,0.2l-2.8,3.1l-4.4,2.8l-1.9,0.7l-3.3,1.1l-0.5,0.4l-6.5,2.5l-1.3,0.3
			l-6.2,2l-3.9,0.8l-5,0.8l-0.9,0.1l-6.4,1.1l-2.7,0.3l-3.6,0.1l-2.7,0.4l-5.5,0.6l-2,0.1l-6-0.1l-5.2-0.3l-2.9-0.3l-1.9,0.1l-1.3,0
			l-3.2-0.2l-4.2-0.4l-4.1-0.6l-4.1-0.7l-3-0.7l-0.2,0l-1-0.1l-4.2-0.7l-4.4-1l-4.8-1.4l-2.2-0.7l-3.1-1.4l-0.2,0l-5.6-1.9l-0.4-0.2
			l-5-3.1l-0.6-0.2l-1.6-1l-3-2.2l-0.5-0.6l-2.9-2.5l-1.5-2.7l-0.4-0.8l0-0.4l-1-2.6l0.3-3.2l1.4-3.2l0.1-0.2l1-1.3l1.8-2.4l5.4-6
			l6-5.4l2.4-1.8l6.5-4.7l7-4l7.5-3.3l2.6-0.9l7.7-2.4l8-1.6l8.2-0.8l2.3,0l8.1,0.1l8.2,1l8.1,1.8l7.9,2.6l7.7,3.4l7.3,4.2l0.7,0.4
			l6.7,4.7l6.2,5.4l5.7,6.1l0,0l3.6,4.5l1.5,2l1.2,1.9l1,3.2l-0.2,1l0.3,2.4L323.1,4401.2"/>
	</g>
	<g>
		<path class="st2" d="M210.2,4941.7c0-5.7-3-9.3-3.4-9.8c-0.1,0-0.1,0.1-0.2,0.1c-1.2,1.6-12.8,16.8-21,22.1
			c3.3-10.6-3.5-12-3.5-12s-9.3,13-19.1,16.7c5-4.1,1.5-9.8,0.1-11.7c-0.5,0.1-1,0.2-1.5,0.3c-3,2.9-12.9,11.9-23.8,14.8
			c8.1-6.8,4.7-10.8,3.3-12c-0.3,0-0.7,0-1,0.1c-2.4,1.7-12.7,8.5-28.3,10.9c9.2-5.2,8.6-9.7,7.8-11.5c-0.7-0.1-1.4-0.2-2.1-0.2
			c-4.6,1.8-18.6,6.9-26.9,6.3c7.8-3.1,7.3-7.8,6.6-10c-0.8-0.2-1.6-0.3-2.4-0.5c-5.1,1.9-20,6.7-31.9,3.4c2-1.1,5.1-4.2,8.4-7.9
			c-9.3-1.3-19.3-1.8-30.8-0.5c6.1-6.9,9.5-14.9,12.1-23.7c-6.1-0.2-11.2,0.1-13.7,1.1c2.8-7.4,13.1-15.5,18.3-19.2
			c0.2-1,0.5-2,0.8-3c-2.8-1-8.1-2.1-14.8,0.7c7-10.2,21.1-21.4,21.1-21.4s-2.1-3.8-12.9-1.5c8.1-8.9,19.2-15.9,23.2-18.2
			c0.3-0.4,0.5-0.8,0.8-1.2c-1.6-1-6.4-3.4-13.3-1.2c9.5-9,24.6-15.6,28.9-17.4c0.3-0.3,0.6-0.6,0.9-0.9c-1-1.1-4.3-4.1-12.5-3.2
			c5.9-4.9,24.5-9.8,29.7-11.1c0.4-0.3,0.8-0.5,1.2-0.8c-0.5-1.2-2.5-4.5-10.3-5.5c10.2-4.5,24.1-5.1,30.5-5.1
			c1.3-0.5,2.5-0.9,3.8-1.3c0-1.7-1.2-4.8-9-7.6c22.5-3.8,50.1,6.7,50.1,6.7l0.1,0.1c16.2,5.4,28.1,17.8,31.9,33.2
			c-28,32.6-92.1,67.9-120,80.7c30.7-9.2,91.2-34.5,130.2-68.7c20.9,9.4,25.3,26.8,20.4,43.5C237.3,4897.9,230.5,4924,210.2,4941.7"
			/>
	</g>
	<g>
		<path class="st2" d="M464.5,4895.9c-6.7-2.8-12-1.7-14.8-0.7c0.3,1,0.5,2,0.8,3c5.1,3.7,15.4,11.8,18.3,19.2
			c-2.5-1-7.6-1.3-13.7-1.1c2.6,8.8,6,16.8,12.1,23.7c-11.5-1.2-21.5-0.7-30.8,0.5c3.3,3.8,6.4,6.8,8.4,7.9
			c-11.9,3.3-26.8-1.5-31.9-3.4c-0.8,0.2-1.6,0.3-2.4,0.5c-0.7,2.2-1.1,6.9,6.6,10c-8.3,0.6-22.3-4.5-26.9-6.3
			c-0.7,0.1-1.4,0.2-2.1,0.2c-0.8,1.8-1.3,6.3,7.8,11.5c-15.6-2.4-25.9-9.1-28.3-10.9c-0.3,0-0.7,0-1-0.1c-1.4,1.1-4.8,5.2,3.3,12
			c-10.9-2.9-20.8-11.9-23.8-14.8c-0.5-0.1-1-0.2-1.5-0.3c-1.4,1.9-4.9,7.6,0.1,11.7c-9.8-3.7-19.1-16.7-19.1-16.7s-6.8,1.4-3.5,12
			c-8.3-5.3-19.8-20.5-21-22.1c-0.1,0-0.1-0.1-0.2-0.1c-0.4,0.5-3.4,4.1-3.4,9.8c-20.4-17.7-27.1-43.8-27.8-46.7
			c-4.9-16.6-0.5-34,20.4-43.5c39.1,34.1,99.6,59.5,130.2,68.7c-27.9-12.8-92-48.1-120-80.7c3.9-15.4,15.7-27.8,31.9-33.2l0.1-0.1
			c0,0,27.6-10.5,50.1-6.7c-7.9,2.8-9.1,5.9-9,7.6c1.2,0.4,2.5,0.8,3.8,1.3c6.4,0,20.3,0.7,30.5,5.1c-7.8,1-9.8,4.2-10.3,5.5
			c0.4,0.3,0.8,0.5,1.2,0.8c5.2,1.3,23.8,6.2,29.7,11.1c-8.2-1-11.6,2-12.5,3.2c0.3,0.3,0.6,0.6,0.9,0.9c4.3,1.8,19.4,8.4,28.9,17.4
			c-6.9-2.2-11.6,0.2-13.3,1.2c0.3,0.4,0.5,0.8,0.8,1.2c3.9,2.3,15.1,9.2,23.2,18.2c-10.8-2.4-12.9,1.5-12.9,1.5
			S457.5,4885.8,464.5,4895.9"/>
	</g>
</g>
</svg>
