<?xml version="1.0" encoding="ISO-8859-1" standalone="yes"?>
<!DOCTYPE svg PUBLIC "-//W3C//DTD SVG 20010904//EN"
  "http://www.w3.org/TR/2001/REC-SVG-20010904/DTD/svg10.dtd">
<svg width="17.6589cm" height="22.7885cm" viewBox="988.2422 874.3828 2502.8359 3229.8594" version="1.0"
    xmlns="http://www.w3.org/2000/svg"
    xmlns:xlink="http://www.w3.org/1999/xlink">
<desc>
  Exported by the ArtWorks SVGExport module.
  Source document: ADFS::HardDisc4.$.WebSite.PiLearn.WorkFiles.Logo.RPi.RPi-white/ArtWorks
</desc>
<g transform="matrix(1 0 0 -1 0 4978.625)" stroke-miterlimit="16" fill-rule="evenodd" clip-rule="evenodd" stroke-linejoin="bevel" stroke-linecap="butt">
<path d="M3490.6328 2263.9922 3487.2734 2299.375 C3487.1328 2300.7422 3486.9766 2302.1172 3486.7891 2303.4766 L3484.5078 2320.3438 C3484.1641 2322.7969 3483.7422 2325.2422 3483.2266 2327.6719 L3475.9219 2362.3438 C3475.1328 2366.1094 3474.1172 2369.8359 3472.9063 2373.4922 L3461.7813 2407.0078 C3461.2422 2408.6328 3460.6563 2410.2422 3460.0391 2411.8359 L3453.8828 2427.7188 C3453.1094 2429.6875 3452.2813 2431.6328 3451.3984 2433.5625 L3436.7266 2465.3438 C3435.1484 2468.7578 3433.3828 2472.0938 3431.4375 2475.3125 L3413.3359 2505.3438 C3412.1406 2507.3281 3410.8828 2509.2578 3409.5547 2511.1484 L3400.1406 2524.625 C3399.3359 2525.7813 3398.5078 2526.9141 3397.6484 2528.0313 L3376.7031 2555.5234 C3374.5078 2558.3984 3372.1641 2561.1563 3369.6797 2563.7891 L3345.8125 2589.0625 C3343.3672 2591.6406 3340.8047 2594.0938 3338.1172 2596.4063 L3311.25 2619.4922 3300.4063 2628.7422 C3297.8984 2630.8906 3295.2734 2632.9063 3292.5625 2634.8047 L3266.5078 2653 C3259.0781 2667.7656 3251.3359 2682.3438 3243.2969 2696.7266 L3243.6875 2705.4531 C3243.7813 2707.6016 3243.8047 2709.7578 3243.7656 2711.9063 L3243.3516 2733.8828 C3243.3281 2735.7188 3243.2422 2737.5469 3243.1094 2739.3672 L3240.5469 2774.8828 C3240.25 2778.9297 3239.7188 2782.9688 3238.9531 2786.9531 L3232.2734 2821.5078 C3232.1719 2822.0156 3227.3281 2845.1875 3227.3281 2845.1875 3226.6016 2848.6797 3225.6953 2852.1172 3224.6016 2855.5078 L3213.9375 2888.8125 C3213.0781 2891.4766 3212.1172 2894.1016 3211.0469 2896.6953 L3202.3516 2917.7344 C3201.8672 2918.9141 3201.3516 2920.0938 3200.8281 2921.2578 L3186.4375 2952.6719 C3184.75 2956.3516 3182.8516 2959.9297 3180.7422 2963.3828 L3162.7266 2992.9063 C3162.1328 2993.8828 3161.5234 2994.8516 3160.8984 2995.8125 L3148.7578 3014.2813 C3147.2109 3016.6484 3145.5625 3018.9453 3143.8203 3021.1719 L3122.8125 3048.0234 C3120.4297 3051.0625 3117.8906 3053.9688 3115.1875 3056.7266 L3076.5469 3096.0078 C3073.9063 3098.6875 3071.1328 3101.2188 3068.2188 3103.5859 L3042.0547 3124.8984 C3039.375 3127.0781 3036.6016 3129.1172 3033.7188 3131.0156 L3017.1875 3141.9063 C3017.0469 3142.0078 2989.2344 3160.1328 2989.2344 3160.1328 2986.2969 3162.0469 2983.2734 3163.8047 2980.1563 3165.4063 L2972.5313 3169.3281 C2974.3438 3172.6641 2975.9297 3176.1328 2977.2734 3179.7266 3004.7969 3184.6016 3033.3047 3192.0469 3059.1484 3203.3281 3084.3125 3214.3203 3101.7188 3236.8047 3106.8281 3262.6484 3140.6563 3275.6016 3165.9063 3289.0469 3182.3359 3302.8828 3201.5078 3319.0469 3211.7813 3342.5781 3211.5156 3366.5625 3232.7813 3380.2578 3253.9766 3395.9688 3272.4688 3413.4141 3293.1172 3432.9063 3301.7266 3461.0703 3296.8828 3487.7813 3308.5547 3498.1875 3320.0625 3509.4063 3330.7656 3521.3047 3351.3906 3544.2109 3357.1875 3576.3672 3346.7891 3604.5625 3358.2188 3617.3516 3369.1172 3630.7578 3378.3516 3644.1563 3395.3281 3668.7734 3397.3125 3700.1406 3384.8047 3726.2266 3395.2734 3740.6094 3403.2188 3754.8438 3408.5938 3768.8672 3420.3516 3799.4922 3412.7422 3834.1875 3389.2422 3857.0781 3388.625 3857.6719 3388 3858.2656 3387.3672 3858.8438 3408.3984 3884.0938 3412.3672 3919.5781 3397.25 3948.9297 3383.0781 3976.4453 3354.7891 3993.4219 3324.3125 3993.4219 3321.4375 3993.4219 3318.5469 3993.2734 3315.6484 3992.9688 3305.4531 3991.8828 3295.4531 3991.1016 3285.5078 3990.5938 3275.2891 4010.9688 3256.8203 4026.6016 3234.0313 4032.9063 3213.4375 4038.6172 3190.8594 4041.5078 3166.9219 4041.5078 3157.25 4041.5078 3147.6641 4041.0469 3138.2734 4040.2188 3124.4063 4057.8203 3103.5391 4069.5234 3079.9766 4071.3047 3075.5703 4071.6406 3070.9766 4071.8125 3066.3125 4071.8125 3055.1484 4071.8125 3043.3516 4070.7813 3031.3516 4069.0391 3015.9609 4087.7188 2992.7891 4098.9219 2968.0469 4098.9219 2963.9688 4098.9219 2959.8438 4098.6172 2955.7031 4097.9922 2932.8047 4094.5234 2911.6875 4089.4688 2892.5781 4083.6016 2877.6563 4096.8203 2858.2813 4104.2422 2838.1641 4104.2422 2831.0859 4104.2422 2823.9063 4103.3203 2816.8125 4101.3984 2794.5078 4095.3984 2773.3047 4086.1328 2753.9844 4075.5703 2741.3906 4083.0078 2726.9375 4087.0078 2712.1797 4087.0078 2702.4844 4087.0078 2692.6563 4085.2813 2683.125 4081.6719 2666.0234 4075.1953 2649.7891 4065.8438 2634.9219 4055.2422 2623.5625 4060.8125 2611.1953 4063.6172 2598.7891 4063.6172 2583.3438 4063.6172 2567.8516 4059.2578 2554.2578 4050.4766 2534.7266 4037.8594 2514.0313 4018.9688 2495.0156 3999.2266 2488.6797 4000.7578 2482.2266 4001.5078 2475.8047 4001.5078 2456.3984 4001.5078 2437.2109 3994.6328 2421.9844 3981.4141 2306.0391 3880.7578 2265.5 3739.6172 2257.4219 3707.0859 2257.4141 3707.0469 2257.4063 3707.0156 2257.3984 3706.9766 2257.3828 3707.0156 2257.375 3707.0469 2257.3672 3707.0859 2249.2891 3739.6172 2208.75 3880.7578 2092.8047 3981.4141 2077.5781 3994.6328 2058.3906 4001.5078 2038.9844 4001.5078 2032.5625 4001.5078 2026.1094 4000.7578 2019.7734 3999.2266 2000.7578 4018.9688 1980.0625 4037.8594 1960.5313 4050.4766 1946.9375 4059.2578 1931.4531 4063.6172 1916 4063.6172 1903.6016 4063.6172 1891.2266 4060.8125 1879.8672 4055.2422 1865 4065.8438 1848.7734 4075.1953 1831.6641 4081.6719 1822.1328 4085.2813 1812.3047 4087.0078 1802.6094 4087.0078 1787.8516 4087.0078 1773.3984 4083.0078 1760.8047 4075.5703 1741.4844 4086.1328 1720.2813 4095.3984 1697.9766 4101.3984 1690.8828 4103.3203 1683.7031 4104.2422 1676.625 4104.2422 1656.5156 4104.2422 1637.1328 4096.8125 1622.2109 4083.6016 1603.1016 4089.4688 1581.9844 4094.5234 1559.0859 4097.9922 1554.9453 4098.6172 1550.8281 4098.9219 1546.7422 4098.9219 1522.0078 4098.9219 1498.8281 4087.7188 1483.4375 4069.0391 1471.4375 4070.7813 1459.6406 4071.8125 1448.4766 4071.8125 1443.8125 4071.8125 1439.2188 4071.6406 1434.8125 4071.3047 1411.25 4069.5234 1390.3828 4057.8203 1376.5234 4040.2188 1367.125 4041.0469 1357.5391 4041.5078 1347.8672 4041.5078 1323.9297 4041.5078 1301.3516 4038.6172 1280.7578 4032.9063 1257.9688 4026.6016 1239.5 4010.9688 1229.2813 3990.5938 1219.3438 3991.1016 1209.3438 3991.8828 1199.1484 3992.9688 1196.2422 3993.2734 1193.3516 3993.4219 1190.4766 3993.4219 1160.0078 3993.4219 1131.7109 3976.4453 1117.5391 3948.9297 1102.4219 3919.5781 1106.3906 3884.0938 1127.4219 3858.8438 1126.7891 3858.2656 1126.1641 3857.6719 1125.5469 3857.0781 1102.0469 3834.1875 1094.4375 3799.4922 1106.1953 3768.8672 1111.5781 3754.8438 1119.5234 3740.6094 1129.9844 3726.2266 1117.4766 3700.1406 1119.4688 3668.7734 1136.4375 3644.1563 1145.6719 3630.7578 1156.5781 3617.3516 1168 3604.5625 1157.6094 3576.3672 1163.3984 3544.2109 1184.0234 3521.3047 1194.7266 3509.4063 1206.2344 3498.1875 1217.9063 3487.7813 1213.0625 3461.0703 1221.6719 3432.9063 1242.3281 3413.4141 1260.8125 3395.9688 1282.0078 3380.2578 1303.2734 3366.5625 1303.0078 3342.5781 1313.2813 3319.0469 1332.4609 3302.8828 1348.8828 3289.0469 1374.1328 3275.6016 1407.9609 3262.6484 1413.0703 3236.8047 1430.4766 3214.3203 1455.6484 3203.3281 1477.4297 3193.8203 1501.1016 3187.0625 1524.4844 3182.2422 L1498.9531 3169.5313 C1496.6875 3168.4063 1494.4766 3167.2109 1492.3125 3165.9219 L1466.8594 3150.8281 C1464.6953 3149.5469 1462.5781 3148.1875 1460.5156 3146.7422 L1436.2188 3129.7969 C1434.1484 3128.3594 1432.1328 3126.8438 1430.1797 3125.2578 L1407.2422 3106.6094 C1405.2813 3105.0156 1403.3828 3103.3516 1401.5469 3101.625 L1380.1484 3081.4375 C1378.2813 3079.6719 1376.4766 3077.8438 1374.7422 3075.9375 L1355.0938 3054.3906 C1353.3828 3052.5078 1351.7344 3050.5703 1350.1719 3048.5703 L1344.3438 3041.1406 1325.1563 3016.5078 C1323.4922 3014.3672 1321.9141 3012.1641 1320.4219 3009.9063 L1303.4922 2984.1875 C1301.9453 2981.8516 1300.5 2979.4531 1299.1563 2976.9922 L1284.6094 2950.4063 C1283.1953 2947.8047 1281.8828 2945.1484 1280.6953 2942.4375 L1268.7344 2915.2109 C1268.1094 2913.7891 1267.5234 2912.3594 1266.9688 2910.9063 L1260.5313 2894.2656 C1259.9922 2892.8672 1259.4766 2891.4453 1258.9922 2890.0156 L1249.0781 2860.5234 C1248.0469 2857.4688 1247.1563 2854.3672 1246.4297 2851.2266 L1239.4688 2821.5625 C1238.8828 2819.0781 1238.3984 2816.5703 1238 2814.0469 L1234.7031 2793.0469 C1234.5781 2792.2188 1234.4531 2791.3984 1234.3516 2790.5625 L1230.2266 2759.3828 C1229.7578 2755.8594 1229.4766 2752.3125 1229.3828 2748.7578 L1228.5391 2717.9141 C1228.4922 2716.0391 1228.4922 2714.1563 1228.5391 2712.2813 L1229.1094 2691.5703 C1229.1641 2689.4609 1229.3203 2687.3516 1229.5078 2685.2578 1220.6172 2668.8984 1212.1172 2652.3125 1204.0078 2635.4922 L1188.3906 2624.5703 C1186.2813 2623.0938 1184.2188 2621.5313 1182.2188 2619.8984 L1158.5156 2600.5078 C1156.5078 2598.8672 1154.5625 2597.1484 1152.6875 2595.3516 L1130.4922 2574.2031 C1128.6094 2572.4063 1126.7969 2570.5469 1125.0625 2568.6172 L1104.5859 2545.8906 C1102.8281 2543.9375 1101.1328 2541.9141 1099.5313 2539.8359 L1080.9609 2515.7266 C1079.3281 2513.6094 1077.7734 2511.4219 1076.3047 2509.1719 L1059.7969 2483.8672 C1058.3125 2481.5938 1056.9141 2479.2578 1055.6172 2476.8672 L1041.3203 2450.6172 C1039.9766 2448.1328 1038.7266 2445.5938 1037.5781 2443.0078 L1025.6563 2416.0078 C1024.5234 2413.4375 1023.4922 2410.8125 1022.5703 2408.1563 L1018.5078 2396.4531 1008.4297 2367.1016 C1007.4531 2364.2422 1006.5938 2361.3438 1005.8672 2358.4063 L998.5391 2328.7578 C997.7813 2325.7031 997.1641 2322.6016 996.6953 2319.4844 L992.2109 2289.8047 C991.8125 2287.2188 991.5234 2284.6172 991.3281 2282.0078 L990.0547 2264.7266 C990 2264.0234 989.9688 2263.3281 989.9219 2262.6328 L988.2734 2231.6172 C988.0938 2228.1641 988.0781 2224.7109 988.2422 2221.2578 L989.7031 2190.7578 C989.8438 2187.7188 990.1328 2184.6875 990.5469 2181.6719 L993.2734 2161.8438 C993.3516 2161.2891 998.2813 2129.2734 998.2813 2129.2734 998.8594 2125.5313 999.6484 2121.8359 1000.625 2118.1875 L1008.6641 2088.3984 C1009.2109 2086.3828 1009.8203 2084.3594 1010.4922 2082.375 L1017.5078 2061.5469 C1018.0781 2059.8438 1018.7031 2058.1563 1019.3672 2056.4844 L1030.9531 2027.2578 C1032.4375 2023.5234 1034.1328 2019.875 1036.0469 2016.3438 L1050.8672 1988.8906 C1050.9922 1988.6563 1062.4219 1967.875 1062.4219 1967.875 1064.2734 1964.4922 1066.3203 1961.2188 1068.5469 1958.0781 L1086.8594 1932.1719 C1088.0234 1930.5313 1089.2266 1928.9219 1090.4766 1927.3438 L1105.0469 1909.1172 C1106.3672 1907.4688 1107.7422 1905.8516 1109.1641 1904.2813 L1116.0625 1896.6563 C1132.6484 1818.9141 1157.0781 1744.0938 1188.5156 1673.0391 1188.7578 1670.3047 1189.0313 1667.5703 1189.4922 1664.8672 L1195.7266 1628.0469 C1196.3125 1624.5703 1197.0859 1621.1328 1198.0234 1617.7422 L1207.9219 1582.0781 C1208.3047 1580.7109 1208.7188 1579.3438 1209.1563 1577.9844 L1215.1797 1559.3203 C1215.8594 1557.2031 1216.6172 1555.1094 1217.4375 1553.0469 L1231.3516 1517.9375 C1232.7188 1514.4766 1234.2813 1511.0859 1236.0313 1507.7813 L1253.5859 1474.5781 C1254.3438 1473.1484 1255.1406 1471.7266 1255.9609 1470.3359 L1266.6172 1452.3047 C1267.7344 1450.4063 1268.9219 1448.5469 1270.1563 1446.7266 L1291.6328 1415.2188 C1293.8281 1412.0078 1296.1953 1408.9219 1298.7344 1405.9844 L1323.6328 1377.1094 C1324.375 1376.2578 1325.125 1375.4141 1325.8906 1374.5938 L1340.4609 1358.7813 C1342.3516 1356.7266 1344.3281 1354.7578 1346.3828 1352.8594 L1374.7422 1326.7422 C1377.6328 1324.0859 1380.6641 1321.5938 1383.8438 1319.2734 L1415.1875 1296.4453 C1415.5625 1296.1797 1433.6484 1283.3672 1433.6484 1283.3672 1436.4688 1281.3672 1439.3984 1279.5078 1442.4141 1277.8047 L1476.4063 1258.5781 C1479.7422 1256.6953 1483.1719 1255 1486.6875 1253.5 L1505.8516 1245.3359 1526.6016 1236.5313 C1622.9688 1160.1641 1731.8672 1098.9375 1849.7188 1056.4219 L1871.3047 1032.4922 C1873.7344 1029.8047 1876.2969 1027.25 1878.9922 1024.8281 L1908.9688 997.9609 C1911.2578 995.9063 1913.6328 993.9609 1916.1016 992.1172 L1928.1328 983.1484 C1928.5938 982.8047 1929.0469 982.4688 1929.5234 982.1328 L1962.2422 958.5625 C1965.2188 956.4219 1968.3047 954.4453 1971.4844 952.6328 L2006.7422 932.5938 C2009.9219 930.7813 2013.2031 929.1406 2016.5547 927.6719 L2053.9922 911.4219 C2056.1719 910.4688 2058.3828 909.5938 2060.6172 908.7969 L2073.625 904.1953 C2074.8281 903.7734 2076.0313 903.3672 2077.25 902.9922 L2115.9922 890.8594 C2119.4531 889.7734 2122.9766 888.8828 2126.5469 888.1641 L2166.6641 880.1563 C2170.2031 879.4531 2173.7656 878.9297 2177.3516 878.6016 L2218.4766 874.8203 C2221.6016 874.5313 2224.7422 874.3828 2227.8828 874.3828 2228.2578 874.3828 2240.5703 874.5234 2240.5703 874.5234 L2281.2422 875.0469 C2284.7734 875.0938 2288.2969 875.3203 2291.7969 875.7266 L2332.5625 880.4766 C2336.0391 880.8828 2339.4922 881.4688 2342.9141 882.2344 L2383.3047 891.2031 C2386.6797 891.9453 2390.0156 892.8672 2393.3047 893.9531 L2432.875 907.0469 C2436.1172 908.125 2439.3125 909.3594 2442.4375 910.7578 L2480.7734 927.8672 C2483.8828 929.25 2486.9141 930.7891 2489.8672 932.4766 L2526.5234 953.4219 C2528.8203 954.7344 2531.0625 956.1328 2533.2578 957.625 L2536.5156 959.8359 C2537.1016 960.2344 2537.6875 960.6328 2538.2656 961.0469 L2571.6563 984.75 C2574.3672 986.6719 2576.9766 988.7188 2579.4844 990.8984 L2610.5078 1017.7969 C2613.2656 1020.1875 2615.8906 1022.7266 2618.3828 1025.3984 2618.3828 1025.3984 2647.2969 1056.4688 2647.5859 1056.7813 2649.4688 1058.8516 2651.2578 1060.9844 2652.9453 1063.1641 L2655.2813 1066.0781 C2756.1719 1105.2578 2850.1484 1158.2813 2934.8984 1222.8047 L2974.5781 1236.125 C2977.7344 1237.1875 2980.8359 1238.3984 2983.875 1239.7578 L3023.7891 1257.6406 C3026.8438 1259.0078 3029.8281 1260.5234 3032.7266 1262.1797 L3070.6641 1283.8438 C3073.5859 1285.5078 3076.4297 1287.3203 3079.1719 1289.2734 L3114.7031 1314.4922 C3117.4688 1316.4531 3120.1328 1318.5469 3122.6875 1320.7813 L3155.3984 1349.2578 C3157.9531 1351.4844 3160.4063 1353.8438 3162.7344 1356.3125 L3192.3047 1387.7344 C3194.6563 1390.2344 3196.8828 1392.8516 3198.9766 1395.5781 L3225.0781 1429.5781 C3227.2031 1432.3359 3229.1797 1435.1953 3231.0078 1438.1563 L3253.3516 1474.3672 C3255.1953 1477.3438 3256.875 1480.4063 3258.3984 1483.5625 L3276.7969 1521.5625 C3277.7266 1523.4922 3278.6016 1525.4453 3279.4141 1527.4297 L3283.4063 1537.2031 C3283.9375 1538.4922 3284.4375 1539.7891 3284.9141 1541.1016 L3299.5156 1581.4297 C3300.7266 1584.7813 3301.7734 1588.1953 3302.625 1591.6563 L3312.8672 1632.9219 C3313.7266 1636.4063 3314.4063 1639.9219 3314.9063 1643.4766 L3320.7188 1685.2344 C3321.2188 1688.8125 3321.5234 1692.4219 3321.6484 1696.0313 L3323.0078 1737.8438 C3323.0234 1738.1328 3323.375 1752.6563 3323.375 1752.6563 3323.3984 1753.5156 3323.3125 1754.375 3323.3125 1755.2344 3341.3984 1806.5234 3355.9609 1859.4688 3366.6719 1913.7969 3368.0781 1915.3672 3369.5078 1916.9063 3370.7969 1918.5547 L3377.5313 1927.1172 C3377.6328 1927.2578 3400.7734 1956.9688 3400.7734 1956.9688 3402.9141 1959.7266 3404.9141 1962.5938 3406.7734 1965.5469 L3426.2969 1996.75 C3428.2031 1999.7734 3429.9375 2002.8984 3431.5078 2006.1016 L3447.4688 2038.7266 C3448.8281 2041.5078 3450.0625 2044.3438 3451.1563 2047.2422 L3456.25 2060.5938 C3456.4453 2061.0859 3469.3438 2096.5469 3469.3438 2096.5469 3470.6094 2100.0391 3471.6797 2103.6016 3472.5703 2107.2188 L3481.1641 2142.3516 C3482.0625 2146.0234 3482.7578 2149.7344 3483.2422 2153.4844 L3487.8672 2188.9375 C3487.9688 2189.75 3488.0625 2190.5469 3488.1484 2191.3516 L3489.875 2207.6172 C3490.1953 2210.6016 3490.3828 2213.6016 3490.4297 2216.6016 L3491.0781 2252.4375 C3491.1484 2256.2891 3491 2260.1563 3490.6328 2263.9922" fill="#000000" fill-rule="nonzero"/>
<path d="M1237.3516 1947.3984 1237.2734 1947.3672" fill="#ff0d40" fill-rule="nonzero"/>
<path d="M1237.3516 1947.3984 1237.2734 1947.3672" stroke="#fa0f45" stroke-width="1" stroke-linejoin="round" stroke-linecap="round" fill="none"/>
<path d="M1291.5781 2005.625 1307.3125 2038.2266 1309.0859 2043.625 1316.3281 2069.4531 1319.5469 2075.6719 1326.125 2093.3516 1329.9219 2105.0469 1334.0469 2116.6172 1340.7656 2142.6719 1344.8203 2160.2891 1349.2109 2190.8359 1350.5469 2195.4297 1353.2422 2205.7578 1357.7422 2233.3516 1358.4297 2236.3906 1361.8359 2253.2344 1363.75 2269.8047 1366.5547 2297.6719 1366.8438 2301.1641 1366.8438 2312.4141 1367.4844 2320.8594 1368.5547 2337.4688 1369.2266 2350.6875 1369.2266 2351.0938 1368.8281 2362.2031 1368.3828 2371.5234 1368.2266 2374.0234 1368.3594 2379.0313 1368.4688 2385.4922 1368.4922 2391.2578 1368.4375 2396.5313 1368.3281 2401.3984 1368.1484 2405.9766 1367.9141 2410.3359 1367.6328 2414.5625 1367.2891 2418.6953 1366.8828 2422.8125 1366.3984 2426.9531 1366.3672 2427.1484 1366.2188 2431.3672 1365.9609 2436.0313 1365.6172 2441.0391 1365.1719 2446.5 1364.5859 2452.6016 1363.8047 2459.5469 1362.7734 2467.6875 1362.1172 2472.3281 1361.4922 2474.8516 1361.2344 2476.7188 1359.4844 2487.5391 1356.9531 2501.2578 1355.9609 2506.0938 1352.4844 2515.1563 1351.1875 2518.2031 1347.2422 2531.9766 1346.7188 2532.9375 1337.5234 2547.5781 1335.2344 2550.7422 1329.9922 2554.4531 1328.3828 2556.6094 1325.7578 2561.6016 1324.3281 2563.9219 1312.6484 2571.1328 1311.4375 2571.25 1296.8672 2570.375 1293.4688 2569.1328 1283.4531 2564.6094 1272.1875 2557.9766 1247.1797 2540.4922 1223.4688 2521.1016 1201.2813 2499.9375 1180.8047 2477.2188 1162.2266 2453.1094 1145.7188 2427.8125 1131.4297 2401.5625 1119.5078 2374.5547 1115.5391 2363.125 1105.4609 2333.7813 1098.1328 2304.1406 1093.6484 2274.4609 1092.3672 2257.1797 1090.7188 2226.1641 1092.1797 2195.6563 1094.9063 2175.8359 1099.6797 2144.9063 1107.7188 2115.1328 1114.7266 2094.3125 1126.3203 2065.0781 1141.1484 2037.6328 1152.3203 2017.2969 1170.6328 1991.3828 1185.2031 1973.1484 1200.6797 1956.0625 1204.1328 1952.6484 1208.7422 1950.2344 1218.3125 1944.2969 1221.0547 1943.6641 1233.5625 1945.2656 1237.2734 1947.3672 1251.3594 1954.0469 1257.1406 1958.7422 1264.2031 1967.6484 1270.1172 1973.9766 1273.6172 1979.1328 1278.1484 1989.2734 1289.9375 2003.1563 1291.5781 2005.625" fill="#ffffff" fill-rule="nonzero"/>
<path d="M1921.2891 2982.5781 1924.1328 2966.8828 1926.4844 2959.9141 1930.3516 2952.7891 1935.8125 2945.2031 1938.0938 2939.6797 1942.0078 2932.8281 1945.3047 2926.6797 1953.6719 2914.7656 1955.7734 2912.3984 1963.3984 2905.25 1964.2266 2904.4063 1975.3828 2894.9063 1984.0625 2888.7422 1987.1016 2886.3516 1999.1328 2878.4063 2003.8906 2875.7344 2011.5234 2871.0078 2023.5469 2864.6875 2024.3984 2864.1875 2037.6328 2857.5781 2043.8203 2854.9844 2051.4531 2851.375 2065.1328 2845.8984 2065.8984 2845.5547 2081.0313 2839.8125 2088.6797 2837.3984 2097.0234 2834.375 2114.0313 2829.3438 2115.3672 2829.0234 2132.1797 2824.3672 2147.7188 2820.9766 2151.6484 2819.9766 2172.6172 2815.8672 2180.1406 2814.8203 2190.9219 2813.875 2195.0234 2813.4141 2218.8125 2812.2266 2242.6797 2812.4766 2244.0078 2812.2969 2264.9375 2810.5781 2273.2188 2809.6797 2275.7734 2809.5469 2303.3672 2810.2109 2334.8203 2812.9922 2354.5781 2816.1172 2366.4766 2818.8984 2374.8281 2821.5703 2400.625 2824.9688 2422.7344 2829.5859 2435.2266 2833.375 2466.5078 2846.1875 2484.8438 2856.1094 2485.1719 2856.3359 2496.4141 2861.0938 2507.8125 2867.6953 2525.3359 2876.8984 2532.9063 2882.2578 2548.1563 2896.1406 2564.4844 2917.1406 2565.4688 2917.9531 2569.6875 2923.2656 2572.6406 2928.5469 2579.7578 2938.9141 2588.3438 2961.2109 2588.8281 2965.6328 2588.7422 2982.6484 2588.8984 2984.9141 2584.9531 3007.9297 2583.6484 3011.1563 2578.2656 3026.5469 2576.7656 3029.8516 2575.625 3031.5313 2563.2969 3050.1172 2557.3203 3057.0781 2535.6172 3081.0156 2511.0625 3102.4375 2493.3281 3117.0078 2466.9844 3135.1875 2447.5625 3145.8672 2420.1328 3160.6875 2390.8281 3172.7734 2372.0156 3178.5391 2342.6719 3187.3281 2312.0859 3193.3672 2280.5078 3196.6641 2265.9766 3197.3359 2235.7578 3197.8125 2205.1484 3195.7344 2174.4375 3191.1016 2143.8906 3183.9766 2113.75 3174.4375 2084.2969 3162.5703 2055.7656 3148.4922 2028.4219 3132.3281 2002.4766 3114.2031 1978.1563 3094.2813 1957.1484 3074.1484 1955.9688 3072.9297 1940.8984 3053.9531 1934.9531 3044.375 1930.3281 3037.0313 1929.6172 3035.4688 1924.4844 3017.5234 1923.9766 3013.2188 1920.8359 3001.0703 1920.6641 2999.7031 1921.0469 2990.5781 1921.2891 2982.5781" fill="#ffffff" fill-rule="nonzero"/>
<path d="M1342.4297 2680.0313 1342.2422 2680.0078" fill="#ff0d40" fill-rule="nonzero"/>
<path d="M1342.4297 2680.0313 1342.2422 2680.0078" stroke="#fa0f45" stroke-width="1" stroke-linejoin="round" stroke-linecap="round" fill="none"/>
<path d="M1848.8672 3086.7813 1848.8594 3086.9141" fill="#ff0d40" fill-rule="nonzero"/>
<path d="M1848.8672 3086.7813 1848.8594 3086.9141" stroke="#fa0f45" stroke-width="1" stroke-linejoin="round" stroke-linecap="round" fill="none"/>
<path d="M1333.6484 2682.7578 1334.1484 2682.0391 1342.4297 2680.0313 1343.7422 2679.375 1356.4297 2678.4922 1361.3672 2679.3125 1376.5156 2685.4922 1383.2969 2688.9531 1399.6328 2694.3203 1413.4375 2700.1641 1424.7813 2706.6719 1445.9297 2720.0859 1451.5625 2724.4063 1453.7578 2726.2031 1465.6328 2732.7734 1475.5391 2737.7422 1486.0547 2743.5938 1497.9766 2751.4531 1518.7422 2765.9922 1527.7422 2772.6719 1530.2891 2774.3516 1537.2109 2779.5547 1553.8594 2792.5703 1568.3125 2804.3125 1571.5078 2807.0078 1581.0313 2814.1719 1582.1641 2815.0625 1583.4766 2816.1797 1592.7578 2823.1563 1603.4141 2831.5313 1610.4688 2837.3359 1613.2266 2839.3516 1622.4766 2846.4531 1631.2344 2853.4609 1639.5469 2860.4297 1646.2188 2866.2578 1647.5625 2867.3203 1655.6328 2873.9375 1663.5781 2880.7188 1671.4297 2887.7422 1679.2656 2895.0547 1679.9922 2895.7656 1687.6797 2902.4844 1696.3516 2910.3984 1705.3047 2918.9531 1713.5625 2927.1875 1714.7422 2928.2422 1718.6953 2931.9063 1719.8672 2932.875 1725.7969 2938.1484 1737.5 2949.0313 1749.5547 2960.7031 1750.3125 2961.3672 1764.8984 2974.3672 1766.1172 2975.625 1780.1328 2990.7031 1789.2734 3001.2109 1796.0469 3008.1484 1797.5078 3009.7422 1809.3828 3025.8281 1815.1563 3034.6406 1821.2813 3040.6641 1825.2109 3045.3828 1838.8594 3063.6719 1840.0078 3065.0625 1840.0625 3065.1016 1847.6328 3082.2188 1848.8594 3086.9141 1854.1953 3097.3047 1855.1719 3100.9922 1852.9297 3108.2266 1849.4297 3112.0469 1848.5156 3112.4766 1847.9688 3112.75 1845.9922 3114.4375 1841.4922 3115.4375 1825.7188 3118.8438 1805.2734 3123.2344 1774.8281 3126.7734 1743.5625 3127.4844 1726.1328 3127.4766 1696.3125 3125.5156 1666.2188 3120.9688 1636.1328 3113.8828 1625.6484 3110.6563 1598.1016 3101.8281 1571.0234 3090.7969 1544.6406 3077.6797 1519.1875 3062.5859 1494.8828 3045.6406 1471.9453 3026.9922 1450.5469 3006.8125 1430.8984 2985.2656 1425.2813 2978.1016 1406.1016 2953.4766 1389.1641 2927.7578 1374.6172 2901.1719 1362.6563 2873.9453 1356.2344 2857.2969 1346.3125 2827.8047 1339.3516 2798.1406 1336.0547 2777.1328 1331.9375 2745.9531 1331.0938 2715.1094 1331.6641 2694.3984 1333.6484 2682.7578" fill="#ffffff" fill-rule="nonzero"/>
<path d="M1906.5938 2055.8203 1943.0391 2071.1563 1960.0391 2081.5469 1979.7031 2091.9453 2009.8672 2114.1484 2014.125 2116.9063 2046.2344 2145.0234 2054.3828 2154.4922 2071.4922 2172.2188 2075.25 2176.4531 2077.0078 2179.1484 2093.1328 2199.5625 2101.7266 2209.4688 2124.8281 2244.3984 2125.9297 2246.6094 2144.4922 2280.6875 2150.8438 2296.9844 2160.1328 2318.2422 2168.6484 2347.4766 2171.6797 2356.5078 2172.5313 2360.8438 2177.2109 2393.2813 2177.7578 2395.4141 2178.125 2398.4219 2183.2969 2431.8672 2183.6328 2444.0234 2185 2467.7969 2183.6719 2486.5938 2183 2502.7969 2179.0625 2525.5938 2177.4844 2536.4922 2170.7031 2560.6875 2168.6953 2568.6016 2168.6172 2568.7891 2161.25 2585.1016 2159.1016 2591.6484 2157.0313 2598.3516 2148.4922 2617.1719 2144.6953 2625.8984 2136.6641 2639.3359 2129.7188 2651.4375 2124.375 2658.4531 2112.3438 2674.8047 2112.2188 2674.9453 2099.1797 2689.0313 2093 2695.9219 2086.8828 2701.2109 2075.0234 2711.7734 2071.875 2714.6797 2063.1953 2720.8516 2052.1172 2728.9609 2049.2969 2731.0938 2040.9375 2735.9219 2030.2734 2742.2578 2025.5938 2745.1563 2019.6563 2747.875 2009.0938 2752.8984 2000.9375 2756.9141 1998.7031 2757.6875 1987.8828 2761.6563 1977.1172 2765.7266 1975.4766 2766.3828 1965.7422 2768.9453 1954.0313 2772.1719 1949.2734 2773.5469 1941.6172 2774.8438 1928.4063 2777.1875 1922.2734 2778.3438 1914.2031 2778.9688 1898.7891 2780.2969 1894.5 2780.6953 1882.0234 2780.5625 1866.0313 2780.5078 1863.5234 2780.2422 1843.3516 2778.2969 1837.0078 2777.7031 1821.2266 2774.7578 1807.5469 2772.2344 1796.9375 2769.2891 1777.9141 2764.0781 1770.5313 2761.3438 1756.1016 2756.0625 1748.3906 2753.4531 1741.4609 2750.3828 1739.3438 2749.4531 1719.3281 2740.0078 1710.7969 2735.0859 1690.6641 2723.5313 1678.9219 2715.4766 1662.6484 2704.3672 1646.3828 2691.2578 1635.5625 2682.5781 1613.9063 2662.2031 1609.7578 2658.2969 1601.2734 2648.9922 1585.0234 2631.4219 1581.5938 2627.0547 1580.3281 2625.4453 1563.4922 2603.1484 1544.8203 2573.7266 1542.4219 2569.7422 1527.75 2541.8516 1524.7109 2536.0781 1509.6328 2500.8438 1507.25 2493.5781 1497.5234 2464.3438 1495.3984 2455.3047 1493.2734 2446.6094 1492.2813 2442.0938 1488.8281 2426.1563 1483.9219 2387.5 1483.9219 2387.3828 1482.5313 2348.4063 1483.5781 2333.0938 1484.9141 2309.8203 1490.125 2279.0781 1491.1875 2272.2266 1501.3125 2235.6719 1504.75 2227.5469 1510.8047 2212.2109 1515.5 2200.9453 1527.5313 2180.1172 1533.7188 2168.9063 1555.5 2139.5234 1557.6563 2137.3438 1580.7031 2112.7266 1595.0859 2101.3516 1609.0469 2089.4844 1638.2422 2071.5078 1640.2188 2070.1719 1674.0078 2054.3438 1686.9531 2050.6484 1709.9063 2042.8516 1739.4219 2037.7969 1747.4375 2036.0078 1786.25 2033.5078 1794.5625 2034.2813 1825.8516 2035.4375 1847.1563 2039.5078 1850.8359 2040.2969 1865.5625 2042.4766 1904.6875 2054.8828 1906.5938 2055.8203" fill="#ffffff" fill-rule="nonzero"/>
<path d="M2535.9609 2783.7578 2517.3047 2777.0859 2505.8438 2772.1328 2491.1172 2766.0703 2488.2188 2764.3203 2483.8906 2762.2656 2456.7188 2747.1563 2442.9688 2738.2969 2434.1094 2730.6016 2425.8672 2722.5781 2415.8125 2713.4922 2402.3828 2699.8672 2400.7969 2697.7422 2389.5234 2680.9922 2388.5469 2679.3672 2379.8984 2666.5703 2375.8828 2659.9141 2371.4922 2653.6172 2364.2422 2641.7578 2364.125 2641.5313 2362.6094 2637.9844 2358.3594 2629.3672 2353.3359 2617.8359 2349.0859 2606.6797 2345.8125 2596.6719 2345.4688 2595.7891 2341.9063 2585.125 2338.8828 2574.4297 2336.3984 2563.625 2334.6797 2554.1875 2334.3125 2552.625 2332.1484 2541.1641 2330.4297 2529.2031 2329.2344 2516.6016 2328.8281 2508.4609 2328.2578 2503.0547 2327.5859 2492.3203 2327.6563 2488.2188 2328.8125 2472.5781 2329.4063 2468.0078 2330.0781 2455.9063 2330.0781 2454.7266 2331.0391 2433.1563 2332.9141 2411.5391 2333.4922 2408.6328 2337.5078 2392.5 2339.5703 2382.2578 2347.5 2350.8672 2349.1875 2345.2813 2360.8828 2319.1797 2371.0859 2299.5469 2376.6016 2288.0625 2377.9375 2283.7969 2378.2969 2283.0469 2401.6172 2239.5 2407.8359 2229.3516 2432.3281 2199.1172 2450.8516 2179.3438 2457.4688 2173.7891 2469.9297 2159.8047 2495.0234 2135.4219 2514.5781 2120.75 2549.7969 2099.0156 2562.0938 2093.2656 2563.3281 2092.4688 2605.875 2070.3672 2616.8984 2066.3438 2667.0078 2054.6172 2669.9063 2053.8125 2672.1641 2053.4688 2689.9219 2052.7813 2723.0938 2047.3438 2736.4141 2047.0547 2773.0703 2050.7656 2804.0781 2058.9375 2811.3828 2060.3047 2819.0781 2062.5625 2837.5313 2071.1797 2860.8594 2080 2886.0547 2095.0781 2897.8047 2103.4297 2898.8516 2104.4766 2929.4531 2131.2188 2956.0781 2163.6641 2962.375 2174.4922 2972.3281 2189.6797 2977.7813 2198.7969 2994.0313 2237.2734 3000.1875 2259.5156 3005.5938 2277.6719 3012.3984 2319.4766 3013.9531 2353.7344 3014.4375 2363.125 3011.8047 2406.8984 3011.7734 2407.4609 3011.0391 2411.7188 3003.2578 2452.9219 2998.7188 2468.8047 2987.2734 2507.6484 2971.5781 2544.6953 2961.1016 2564.4688 2941.5234 2599.1016 2918.8594 2630.4141 2917.9766 2631.5781 2904.1484 2648.0625 2877.8125 2677.0469 2863.6016 2689.6172 2841.6094 2708.2969 2832.0234 2715.6172 2809.1719 2731.8828 2796.75 2739.7031 2763.4063 2757.2969 2751.8438 2763.4375 2748.7891 2764.7422 2709.2422 2778.3125 2698.0625 2782.3594 2696.875 2782.6953 2648.7969 2791.7266 2639.9453 2792.7344 2599.4688 2792.8125 2596.5078 2792.6016 2589.1094 2792.4297 2556.4063 2788.0078 2535.9609 2783.7578" fill="#ffffff" fill-rule="nonzero"/>
<path d="M2619.6484 3089.9531 2623.8281 3082.5625 2624.1797 3081.3359 2625.9219 3075.3828 2637.2891 3057.2891 2644.3516 3049.2813 2652.7031 3040.1484 2655.5859 3035.5781 2656.8281 3034.0703 2666.2422 3022.8984 2673.6563 3014.3672 2679.8672 3007.5 2682.0781 3005.1328 2683.2734 3003.9766 2685.5 3001.75 2690.7266 2996.6406 2694.4219 2993.1484 2695.4922 2991.8281 2699.5859 2986.8906 2703.5547 2982.2734 2707.5234 2977.8203 2711.5781 2973.4219 2715.8125 2968.9609 2720.3672 2964.3281 2725.3828 2959.3984 2731.0078 2953.9766 2737.5469 2947.8438 2738.7422 2946.7188 2746.2422 2940.1719 2754.75 2931.0938 2765.8516 2919.5625 2777.8203 2907.3828 2782.0234 2903.6328 2810.7031 2878.4688 2813.1016 2875.8906 2813.2969 2875.7031 2847.4219 2844.6719 2882.9297 2817.1484 2905.7344 2802.3047 2912.3281 2797.2969 2918.2266 2791.4922 2950.7734 2764.1875 2983.3438 2741.4688 3009.7031 2726.7891 3014.9297 2722.5156 3042.9766 2703.4531 3052.2969 2698.4688 3069.2031 2690.2813 3080.0078 2687.1016 3091.7422 2679.4531 3107.1797 2672.5781 3110.6172 2671.4219 3125.8359 2671.3125 3131 2670.6016 3135.3359 2671.8672 3139.5156 2679.0703 3139.8125 2681.3828 3139.9531 2682.1016 3141.1953 2710 3140.7813 2731.9766 3138.2188 2767.4922 3131.5391 2802.0391 3126.9063 2824.2031 3116.2422 2857.5078 3107.5391 2878.5469 3093.1563 2909.9609 3075.1484 2939.4844 3063.0078 2957.9609 3042.0078 2984.8125 3026.8438 3000.25 3003.4219 3024.0391 2977.2578 3045.3516 2960.7266 3056.25 2933.2188 3074.1797 2903.5859 3089.4219 2872.1563 3101.8984 2857.4453 3107.0938 2826.1484 3116.2031 2793.7188 3122.5469 2760.4219 3126.0625 2726.5781 3126.7813 2718.4609 3126.7734 2686.4688 3124.8203 2654.5313 3120.2734 2623.9063 3113.4141 2622.7266 3112.6172 2617.7422 3108.6797 2617.7188 3101.2734 2618.8594 3099.4453 2619.6484 3089.9531" fill="#ffffff" fill-rule="nonzero"/>
<path d="M3385.1328 2289.6563 3382.8438 2306.5234 3375.5391 2341.1719 3364.4063 2374.6875 3358.2422 2390.5703 3343.5781 2422.3438 3325.4688 2452.375 3316.0469 2465.8516 3295.1016 2493.3359 3271.2344 2518.6016 3244.6797 2541.4297 3233.8281 2550.6875 3205.7188 2570.3125 3179.0547 2585.2969 3167.4922 2590.3438 3158.1172 2589.5469 3157.2969 2588.7578 3146.8203 2585.2188 3137.6875 2574.9766 3135.6563 2569.5625 3134.6563 2566.0391 3129.9922 2558.1563 3125.4609 2543.7344 3123.9063 2537.4063 3122.6172 2534.5625 3119.5625 2521.3203 3116.4063 2502.2109 3116.2188 2500.2656 3116.2031 2497.8828 3113.6797 2484.5 3111.4766 2468.4375 3110.2109 2453.6094 3109.75 2439.4219 3109.9922 2425.3984 3110.9219 2411.4922 3110.8672 2411.1406 3110.2188 2396.7578 3110.2578 2381.6172 3111.0391 2365.2188 3112.6563 2346.9531 3115.2734 2325.8984 3118.0469 2308.1406 3118.1484 2303.8125 3118.3594 2301.3516 3122.1406 2271.1016 3125.75 2248.2734 3127.1719 2242.4922 3128.9219 2230.6719 3134.2188 2200.4063 3139.1172 2180.8828 3140.3828 2171.7188 3142.9141 2156.5703 3153.1328 2117.4297 3164.6563 2087.2422 3165.6172 2082.7578 3176.0391 2050.0313 3188.6563 2022.6719 3202.5469 2001.9922 3203 2000.7266 3213.9375 1980.8516 3226.4219 1966.7734 3237.9219 1959.8594 3239.3672 1957.8438 3244.1719 1954.7813 3249.4141 1952.5781 3261.0234 1954.7266 3267.7344 1959.1406 3270.9531 1962.1953 3273.0156 1963.9766 3290.1563 1981.9766 3296.8828 1990.5391 3319.8125 2019.9922 3339.3516 2051.1875 3355.3047 2083.8125 3360.3984 2097.1484 3372.9141 2131.5938 3381.5078 2166.7266 3386.125 2202.1875 3387.8516 2218.4531 3388.5 2254.2813 3385.1328 2289.6563" fill="#ffffff" fill-rule="nonzero"/>
<path d="M1829.0469 1423.7422 1829.0313 1424.1563" fill="#ff0d40" fill-rule="nonzero"/>
<path d="M1829.0469 1423.7422 1829.0313 1424.1563" stroke="#fa0f45" stroke-width="1" stroke-linejoin="round" stroke-linecap="round" fill="none"/>
<path d="M1831.5234 1484.2891 1830.8594 1487.5547 1821.7422 1522.6563 1821.6016 1524.9375 1811.9688 1569.4766 1810.4375 1573.4219 1793.8984 1612.3672 1778.6719 1637.8047 1772.1094 1654.6016 1754.2266 1685.6719 1747.7109 1696.5469 1746.3125 1698.2578 1719.7031 1736.6484 1687.3906 1772.4219 1683.2344 1775.9609 1672.8984 1786.6172 1655.7344 1807.8906 1621.6719 1839.1719 1610.6719 1846.4766 1600.5313 1854.9453 1586.2422 1866.8125 1582.5547 1868.9922 1575.5781 1873.1328 1570.8438 1875.9141 1567.3516 1877.9219 1564.6328 1879.4922 1562.4063 1880.7578 1560.5078 1881.8125 1558.8516 1882.7188 1557.3516 1883.5234 1555.9688 1884.2578 1554.6484 1884.9375 1553.3672 1885.5938 1551.8984 1886.3125 1550.9063 1886.9453 1549.7188 1887.7109 1548.4922 1888.4766 1547.1797 1889.2813 1545.7578 1890.1328 1544.1719 1891.0547 1542.3828 1892.1094 1540.2578 1893.3047 1537.6641 1894.7734 1534.3281 1896.6328 1529.7891 1899.1172 1523.1172 1902.7422 1519.6563 1904.6094 1504.6094 1909.4375 1493.8281 1912.8516 1484.4531 1917.1875 1451.2891 1924.5234 1432.2813 1923.9922 1423.1563 1924.8516 1419.8516 1925.6406 1392.1875 1924.9922 1366.2734 1917.0469 1360.8125 1914.0547 1343.7734 1903.8281 1336.3516 1895.9063 1325.1016 1886.9453 1311.5469 1868.1016 1309.9688 1865.6484 1298.7109 1836.1016 1298.2969 1834.2969 1292.8828 1810.4297 1292.3828 1807.5625 1288.0391 1772.4141 1286.9766 1735.7578 1289.4219 1699.5625 1290.6328 1682 1296.875 1645.1719 1306.7734 1609.5234 1312.8047 1590.8516 1326.7188 1555.7422 1344.2813 1522.5313 1354.9375 1504.5078 1376.4063 1473 1401.3203 1444.1328 1415.8906 1428.3203 1444.2422 1402.2031 1475.5938 1379.375 1492.9219 1367.1016 1526.9141 1347.8828 1545.8984 1339.7813 1581.8203 1324.5547 1619.7344 1313.2891 1659.5859 1306.1172 1659.2656 1306.1563 1676.9531 1302.9922 1706.9219 1301.9688 1709.0234 1302.25 1714.1328 1302.8281 1731.25 1304.3281 1739.25 1305.7188 1769.4688 1317.2656 1773.2266 1319.6328 1792.1797 1338.0938 1794.6328 1339.9922 1796.1641 1341.7969 1797.6094 1344.875 1818.4219 1371.75 1818.9141 1372.6719 1828.3047 1406.4922 1829.0313 1424.1563 1832.2344 1443.9219 1831.5234 1484.2891" fill="#ffffff" fill-rule="nonzero"/>
<path d="M3039.7422 1968.3125 3040.1484 1968.4766" fill="#ff0d40" fill-rule="nonzero"/>
<path d="M3039.7422 1968.3125 3040.1484 1968.4766" stroke="#fa0f45" stroke-width="1" stroke-linejoin="round" stroke-linecap="round" fill="none"/>
<path d="M3210.2813 1838.2656 3206.0938 1852.7109 3194.3672 1892.7188 3190.7188 1901.5547 3178.875 1922.9766 3175.75 1926.3438 3162.7109 1943.0938 3143.7969 1957.9688 3123.8516 1965.4531 3122.7188 1966.1484 3097.3438 1973.0078 3084.5469 1972.5938 3069.8672 1973.5781 3039.7422 1968.3125 3007.1172 1961.1172 2990.6953 1953.9219 2972.6406 1945.1563 2969.25 1942.7734 2944.5313 1929.9375 2934.7969 1924.4141 2916 1910.3359 2895.7422 1893.9609 2892.0313 1890.6875 2883.9375 1882.2422 2880.2266 1879.2734 2871.8594 1872.1016 2864.8984 1866.6172 2851.5938 1855.2344 2840.1328 1844.5234 2829.9922 1834.0781 2820.7734 1823.5781 2812.1484 1812.7344 2809.0625 1808.4375 2802.9922 1802.1484 2793.5625 1791.3516 2784.1875 1779.5 2774.5469 1766.125 2764.2891 1750.5938 2760.0859 1743.6719 2752.7734 1732.6172 2744.8828 1719.9219 2744.4688 1719.1172 2739.3594 1711.6875 2723.4063 1686.5938 2711.8203 1666.9766 2704.1797 1650.3047 2691.4766 1620.2734 2688.6953 1610.4688 2679.2188 1587.4688 2675.0234 1576.3516 2665.8984 1534.9063 2657.8594 1496.1641 2656.3906 1459.7344 2657.3438 1453.3906 2659.7188 1426.2266 2660.2188 1424.7578 2662.9141 1396.7422 2672.6484 1370.4453 2685.375 1352.5938 2687.375 1347.7578 2702.6484 1329.5 2709.7969 1324.5625 2725.4063 1315.7188 2738.2969 1311.7422 2750.7188 1306.7969 2752.2422 1306.5391 2770.1328 1303.3828 2776.2266 1302.8281 2814.8047 1304.0547 2857.9375 1309.6563 2900.4766 1319.4766 2941.9375 1333.3828 2981.8516 1351.2734 3019.7891 1372.9297 3055.3125 1398.1484 3088.0313 1426.6328 3117.6016 1458.0547 3143.7109 1492.0469 3166.0547 1528.2578 3184.4531 1566.2578 3188.4531 1576.0313 3203.0469 1616.3672 3213.2969 1657.6328 3219.1016 1699.3828 3220.4688 1741.2031 3220.8125 1755.1563 3217.7344 1797.1328 3210.2813 1838.2656" fill="#ffffff" fill-rule="nonzero"/>
<path d="M2623.625 1804.3984 2623.625 1804.4375" fill="#ff0d40" fill-rule="nonzero"/>
<path d="M2623.625 1804.3984 2623.625 1804.4375" stroke="#fa0f45" stroke-width="1" stroke-linejoin="round" stroke-linecap="round" fill="none"/>
<path d="M2366.0391 2086.4375 2365.5234 2086.6328" fill="#ff0d40" fill-rule="nonzero"/>
<path d="M2366.0391 2086.4375 2365.5234 2086.6328" stroke="#fa0f45" stroke-width="1" stroke-linejoin="round" stroke-linecap="round" fill="none"/>
<path d="M2618.2031 1840.8672 2612.3516 1863.2266 2598.3516 1898.0078 2591.3828 1911.5938 2580.9688 1926.2891 2566.75 1952.5313 2563.6172 1957.2813 2529.4219 1996.8594 2524.8047 2000.8281 2496.5313 2022.3828 2490 2028.7422 2474.2813 2040.2578 2445.9297 2058.5313 2422.9297 2069.0078 2399.0078 2078.6172 2366.0391 2086.4375 2361.7422 2087.8281 2349.5781 2092.1719 2325.1406 2097.25 2296.4609 2102.1016 2289.0625 2102.2578 2263.0625 2102.1094 2257.2109 2102.4063 2241.6953 2102.75 2233.2734 2101.8047 2212.7422 2099.0625 2196.3906 2096.4688 2188.0469 2094.9531 2183.1719 2094.3438 2182.1953 2094.1953 2171.8672 2091.5859 2162.1016 2088.9063 2153.5313 2086.3828 2145.8359 2083.9453 2138.8125 2081.5547 2132.2969 2079.1719 2126.1563 2076.7813 2123.6953 2075.7578 2120.2422 2074.5703 2114.4141 2072.4453 2108.6016 2070.1563 2102.7188 2067.6875 2096.6719 2064.9922 2090.3828 2062.0234 2083.7422 2058.6953 2076.6172 2054.9297 2068.7813 2050.5938 2064.1328 2047.9063 2059.6094 2045.6719 2053.0781 2042.3203 2048.9766 2039.6172 2037.7422 2031.6797 2024.4297 2021.7578 2008.1563 2008.9922 2007.0313 2008.0625 2005.8047 2007.2031 1989.8125 1991.6563 1969.2109 1970.4063 1967.7891 1968.4688 1950.8516 1943.1719 1948 1939.2969 1940.3828 1928.1563 1933.4609 1913.5313 1925.25 1899.8438 1917.5625 1885.9219 1904.2031 1849.0469 1901.5625 1840.5703 1896.5547 1807.9063 1894.3203 1794.8359 1893.8906 1790.9688 1894.25 1782.2891 1891.8438 1744.0156 1892.8125 1732.2734 1898.7578 1694.5469 1904.7891 1674.125 1909.7891 1661.3438 1914.7031 1644.5234 1927.1406 1616.7891 1927.4844 1616.1719 1937.5625 1597.4531 1958.875 1566.8125 1972.9531 1550.1719 1972.9922 1550.1484 1997.7969 1523.7891 2014.7734 1509.0234 2041 1490.0156 2059.6719 1479.3125 2075.8516 1469.4688 2086.5313 1464.0234 2106.4297 1456.3203 2134.0234 1444.9688 2153.3828 1439.4375 2181.1875 1433.1172 2184.9063 1432.6953 2228.5234 1426.8281 2273.7188 1425.9531 2274.3516 1425.9531 2302.7813 1429.3984 2318.5469 1431.0859 2361.625 1440.5469 2402.5859 1454.6328 2410.9297 1458.6484 2442.0859 1472.8359 2479.3125 1495.3984 2499.4531 1511.1641 2506.1172 1516.7813 2513.8281 1522.7266 2545.2969 1554.6563 2573.0938 1591.4219 2579.4063 1602.3594 2581.3438 1606.4766 2595.8672 1633.4922 2601.125 1647.5391 2614.3203 1678.8906 2614.4453 1679.3203 2624.2734 1730.0703 2624.6094 1734.7031 2625.7969 1745.4219 2625.8984 1784.6328 2623.625 1804.3984 2618.2031 1840.8672" fill="#ffffff" fill-rule="nonzero"/>
<path d="M2603.9688 1217.1172 2603.5469 1218.2422 2591.1172 1232.1406 2589.4219 1233.1328 2575.2422 1248.8516 2553.3359 1262.9297 2543.9219 1266.5078 2527.3984 1272.1406 2524.75 1273.9063 2492.375 1286.3594 2486.0391 1287.6328 2455.2188 1297.5938 2435.5781 1301.375 2410.7969 1305.1875 2406.2031 1305.4688 2374.2578 1310.7813 2360.7813 1312.3594 2342.5781 1312.6641 2328.8828 1314.6953 2301.1719 1317.6328 2291.1172 1317.9219 2261.0938 1317.5078 2234.8906 1315.8984 2220.1719 1314.2188 2210.7031 1314.5313 2204.2188 1314.4063 2188.0703 1313.6328 2166.8672 1311.7109 2146.3984 1308.9453 2126.0625 1305.2578 2111.1953 1301.8828 2110.4141 1301.6719 2105.3984 1301.2031 2084.2813 1297.8828 2062.0781 1293.0078 2037.8438 1286.1953 2026.9609 1282.4688 2011.5313 1275.2891 2010.5625 1275.0391 1982.7109 1265.6016 1980.6641 1264.5469 1955.7813 1249.1016 1952.8438 1247.875 1944.7969 1242.7188 1929.6563 1231.4688 1927.0547 1228.2969 1912.375 1215.8125 1904.7422 1202.1172 1902.8828 1198.2813 1902.7109 1196.2031 1897.9141 1183.1328 1899.2266 1166.9219 1906.2969 1150.875 1906.6641 1149.7578 1911.4531 1143.1719 1920.5938 1131.0234 1947.4766 1101.2188 1977.4453 1074.3516 1989.4766 1065.3828 2022.2031 1041.8125 2057.4453 1021.7734 2094.8828 1005.5078 2107.8906 1000.8984 2146.6328 988.7734 2186.7578 980.7656 2227.875 976.9766 2239.25 977.1016 2279.9141 977.6328 2320.6719 982.3828 2361.0625 991.3516 2400.6328 1004.4453 2438.9688 1021.5547 2475.625 1042.4922 2478.8828 1044.7109 2512.2734 1068.4063 2543.2969 1095.3047 2571.6328 1125.7422 2571.6719 1125.8047 2589.7266 1148.3594 2597.3281 1158.3828 2603.1719 1167.7266 2608.0625 1183.7813 2607.2578 1188.9609 2608.5469 1201.1719 2603.9688 1217.1172" fill="#ffffff" fill-rule="nonzero"/>
<path d="M2039 3919.4375 C2038.9844 3890.8125 2024.0313 3872.8984 2021.8828 3870.4609 2021.6094 3870.5938 2021.3438 3870.7422 2021.0547 3870.875 2015.0547 3878.8594 1957.3047 3954.8516 1915.9922 3981.5391 1932.5078 3928.4766 1898.2969 3921.3203 1898.2969 3921.3203 1898.2969 3921.3203 1851.6328 3986.3438 1802.5938 4004.9219 1827.7109 3984.6328 1810.1484 3956.0078 1803.1641 3946.5234 1800.7031 3947.0703 1798.2656 3947.5938 1795.8281 3948.1094 1780.6016 3962.8281 1731.1016 4007.4766 1676.6328 4022.1563 1717.3594 3988.0781 1700 3967.9297 1693.1797 3962.2266 1691.5156 3962.3203 1689.8359 3962.4453 1688.1875 3962.5234 1676.1875 3971.1016 1624.7578 4005.0313 1546.7891 4016.8438 1592.6094 3990.7734 1589.7969 3968.2891 1585.9609 3959.1563 1582.5234 3958.7734 1579.1016 3958.3594 1575.7031 3957.9219 1552.5 3967.0078 1482.6719 3992.625 1441.0313 3989.4688 1479.7813 3973.9219 1477.7188 3950.4375 1474.1016 3939.3672 1470.1406 3938.5 1466.1875 3937.6328 1462.2344 3936.7578 1436.6016 3946.2578 1362.1094 3970.2813 1302.6563 3953.8125 1312.7266 3948.2734 1328.0781 3932.8672 1344.5938 3914.0859 1298.0703 3907.7266 1248.0938 3905.2578 1190.5078 3911.3516 1221.0391 3876.875 1238.0703 3836.8438 1251.1484 3792.6797 1220.8828 3791.8984 1195.1875 3793.1563 1182.8125 3798.2813 1197.0078 3761.3203 1248.5391 3720.8281 1274.0781 3702.4688 1275.3047 3697.4297 1276.5469 3692.3672 1277.8359 3687.2578 1263.8672 3682.0234 1237.3281 3676.5078 1204.0078 3690.7422 1239.0625 3639.8984 1309.6172 3583.5391 1309.6172 3583.5391 1309.6172 3583.5391 1299.2031 3564.2969 1245.0234 3576.2188 1285.2969 3531.4766 1341.2578 3496.8438 1360.8906 3485.3984 1362.2422 3483.3359 1363.5859 3481.2734 1364.9844 3479.2031 1356.8984 3474.0156 1333.0156 3461.9609 1298.6641 3473.1016 1346.3516 3428.0938 1421.7422 3394.875 1443.4063 3385.8672 1444.9141 3384.3828 1446.4219 3382.8672 1447.9141 3381.4063 1443.1484 3375.8203 1426.2422 3360.8125 1385.3438 3365.6484 1414.7109 3340.9063 1507.9375 3316.5 1533.7969 3310.0703 1535.8125 3308.6797 1537.8125 3307.3281 1539.8281 3305.9766 1537.3906 3299.7969 1527.3984 3283.6641 1488.4922 3278.5469 1539.5 3256.2734 1609.0156 3253.0859 1640.7656 3252.8828 1647.0625 3250.4844 1653.3359 3248.2813 1659.5703 3246.2422 1659.7969 3237.5938 1653.7188 3222.1719 1614.4531 3208.3281 1726.8984 3189.4531 1865.1094 3241.8125 1865.1094 3241.8125 L1865.3672 3242.1719 C1946.6172 3269.1875 2005.6484 3331.1172 2025.0859 3408.2969 1885.2188 3571.3047 1564.4531 3747.8438 1425.1875 3811.8281 1578.4531 3765.9922 1880.9375 3639.1328 2076.1953 3468.5234 2180.6719 3515.7031 2202.6016 3602.7188 2178.0703 3685.8281 2174.5078 3700.6484 2140.8125 3831.0469 2039 3919.4375" fill="#ffffff" fill-rule="nonzero"/>
<path d="M3310.7813 3690.7422 C3277.4688 3676.5078 3250.9219 3682.0234 3236.9531 3687.2578 3238.2422 3692.3672 3239.4922 3697.4297 3240.7188 3702.4688 3266.25 3720.8281 3317.7813 3761.3203 3331.9766 3798.2813 3319.6016 3793.1563 3293.9063 3791.8984 3263.6484 3792.6797 3276.7188 3836.8438 3293.75 3876.875 3324.2891 3911.3516 3266.7031 3905.2578 3216.7188 3907.7266 3170.2031 3914.0859 3186.7109 3932.8672 3202.0625 3948.2734 3212.1328 3953.8125 3152.6797 3970.2813 3078.1875 3946.2578 3052.5547 3936.7578 3048.6016 3937.6328 3044.6484 3938.5 3040.6875 3939.3672 3037.0703 3950.4375 3035.0078 3973.9219 3073.7578 3989.4688 3032.1172 3992.625 2962.2891 3967.0078 2939.0859 3957.9219 2935.6875 3958.3594 2932.2734 3958.7734 2928.8281 3959.1563 2924.9922 3968.2891 2922.1797 3990.7734 2968 4016.8438 2890.0313 4005.0313 2838.6016 3971.1016 2826.6016 3962.5234 2824.9531 3962.4453 2823.2734 3962.3203 2821.6094 3962.2266 2814.7891 3967.9297 2797.4297 3988.0781 2838.1563 4022.1563 2783.6875 4007.4766 2734.1875 3962.8281 2718.9609 3948.1094 2716.5234 3947.5938 2714.0938 3947.0703 2711.625 3946.5234 2704.6406 3956.0078 2687.0859 3984.6328 2712.2031 4004.9219 2663.1563 3986.3438 2616.4922 3921.3203 2616.4922 3921.3203 2616.4922 3921.3203 2582.2813 3928.4766 2598.7969 3981.5391 2557.4844 3954.8516 2499.7344 3878.8594 2493.7344 3870.875 2493.4531 3870.7422 2493.1797 3870.5938 2492.9063 3870.4609 2490.7578 3872.8984 2475.8047 3890.8125 2475.7969 3919.4375 2373.9766 3831.0469 2340.2813 3700.6484 2336.7188 3685.8281 2312.1875 3602.7188 2334.1172 3515.7031 2438.5938 3468.5234 2633.8516 3639.1328 2936.3438 3765.9922 3089.6016 3811.8281 2950.3359 3747.8438 2629.5781 3571.3047 2489.7109 3408.2969 2509.1406 3331.1172 2568.1719 3269.1875 2649.4219 3242.1719 L2649.6797 3241.8125 C2649.6797 3241.8125 2787.8984 3189.4531 2900.3359 3208.3281 2861.0781 3222.1719 2854.9922 3237.5938 2855.2188 3246.2422 2861.4609 3248.2813 2867.7266 3250.4844 2874.0234 3252.8828 2905.7734 3253.0859 2975.2891 3256.2734 3026.2969 3278.5469 2987.3906 3283.6641 2977.3984 3299.7969 2974.9688 3305.9766 2976.9766 3307.3281 2978.9766 3308.6797 2980.9922 3310.0703 3006.8516 3316.5 3100.0781 3340.9063 3129.4453 3365.6484 3088.5469 3360.8125 3071.6484 3375.8203 3066.875 3381.4063 3068.3672 3382.8672 3069.875 3384.3828 3071.3828 3385.8672 3093.0547 3394.875 3168.4375 3428.0938 3216.125 3473.1016 3181.7734 3461.9609 3157.8984 3474.0156 3149.8047 3479.2031 3151.2031 3481.2734 3152.5469 3483.3359 3153.8984 3485.3984 3173.5313 3496.8438 3229.4922 3531.4766 3269.7734 3576.2188 3215.5938 3564.2969 3205.1719 3583.5391 3205.1719 3583.5391 3205.1719 3583.5391 3275.7266 3639.8984 3310.7813 3690.7422" fill="#ffffff" fill-rule="nonzero"/>
</g>
</svg>
