<?xml version="1.0" encoding="UTF-8" standalone="no"?>
<!-- Created with Inkscape (http://www.inkscape.org/) -->

<svg
   xmlns:dc="http://purl.org/dc/elements/1.1/"
   xmlns:cc="http://creativecommons.org/ns#"
   xmlns:rdf="http://www.w3.org/1999/02/22-rdf-syntax-ns#"
   xmlns:svg="http://www.w3.org/2000/svg"
   xmlns="http://www.w3.org/2000/svg"
   xmlns:sodipodi="http://sodipodi.sourceforge.net/DTD/sodipodi-0.dtd"
   xmlns:inkscape="http://www.inkscape.org/namespaces/inkscape"
   width="160mm"
   height="160mm"
   viewBox="0 0 566.92913 566.92913"
   id="svg2"
   version="1.1"
   inkscape:version="0.48.4 r9939"
   sodipodi:docname="sani_therme_on.svg">
  <defs
     id="defs4" />
  <sodipodi:namedview
     id="base"
     pagecolor="#ffffff"
     bordercolor="#666666"
     borderopacity="1.0"
     inkscape:pageopacity="0.0"
     inkscape:pageshadow="2"
     inkscape:zoom="1.4"
     inkscape:cx="255.18823"
     inkscape:cy="259.58067"
     inkscape:document-units="mm"
     inkscape:current-layer="layer1"
     showgrid="true"
     inkscape:window-width="1920"
     inkscape:window-height="1153"
     inkscape:window-x="-4"
     inkscape:window-y="-4"
     inkscape:window-maximized="1">
    <inkscape:grid
       type="xygrid"
       id="grid3336"
       dotted="false" />
  </sodipodi:namedview>
  <metadata
     id="metadata7">
    <rdf:RDF>
      <cc:Work
         rdf:about="">
        <dc:format>image/svg+xml</dc:format>
        <dc:type
           rdf:resource="http://purl.org/dc/dcmitype/StillImage" />
        <dc:title />
      </cc:Work>
    </rdf:RDF>
  </metadata>
  <g
     inkscape:label="Ebene 1"
     inkscape:groupmode="layer"
     id="layer1"
     transform="translate(0,-485.43307)">
    <path
       style="fill:#000000;stroke:none"
       inkscape:connector-curvature="0"
       id="path16"
       d="m 262.80033,710.53483 c -6.45757,2.83759 -11.8736,12.86373 -20.62256,38.21283 -9.58221,28.56504 -14.78992,38.21284 -30.20477,56.9409 -14.99824,18.16055 -21.03919,31.40262 -22.28905,49.18482 -3.33293,42.5638 26.66353,81.15502 72.90807,94.01872 20.20596,5.486 45.61963,4.3509 62.28433,-3.0268 24.16381,-10.4045 44.36976,-32.1593 53.74366,-57.88674 15.20654,-42.18545 0.41662,-103.85565 -33.53771,-138.85255 -13.12345,-13.62041 -22.91397,-12.86373 -32.70447,2.45924 l -5.83266,9.45862 -4.58279,-12.86372 c -5.83265,-16.07965 -19.37271,-35.56442 -26.66352,-38.02367 -6.24926,-2.27006 -6.87418,-2.27006 -12.49853,0.37835 z m 13.33175,47.29312 c 1.24987,4.54013 2.91634,11.16116 3.74958,14.75543 2.2914,11.72869 6.66587,18.5389 13.54006,21.75484 10.41544,4.91848 20.83089,1.3242 30.20478,-10.59366 4.16617,-5.10765 7.91572,-9.26945 8.33235,-9.26945 2.2914,0 16.03976,28.18669 19.78933,41.05042 6.45758,20.99813 6.24925,47.86062 -0.41662,65.832 l -4.79109,13.24207 -1.45817,-15.1338 c -1.66648,-20.24145 -8.54067,-38.21283 -19.58103,-51.83324 -9.37389,-11.53951 -16.6647,-15.13379 -23.9555,-11.53951 -6.04095,2.83758 -7.70744,2.27007 -10.41545,-3.78345 -6.24926,-13.62042 -20.41425,-19.48477 -29.37154,-12.10703 -2.08308,1.70254 -7.0825,12.2962 -11.24866,23.64654 -4.99941,13.24207 -10.20714,23.45739 -15.20654,29.5109 -4.16617,4.91847 -9.79051,12.86372 -12.08192,17.40386 l -4.37448,8.13441 -1.45815,-10.21531 c -1.45817,-10.2153 1.04154,-24.78157 5.41603,-32.53765 1.24984,-2.0809 7.2908,-10.02615 13.33176,-17.21469 13.33176,-15.89048 21.24749,-30.45676 29.16323,-52.58993 3.12463,-9.08028 6.45756,-16.458 7.2908,-16.458 0.62492,0 2.2914,3.59427 3.54123,7.94525 z m 5.83267,97.80212 c 6.66586,4.72931 12.91512,4.1618 22.08072,-1.70255 l 5.62434,-3.78345 3.12462,9.08028 c 8.54067,23.45738 5.41603,45.59055 -8.12403,57.88675 -12.0819,10.972 -30.20478,10.972 -44.78639,0 -8.95728,-6.9994 -12.49853,-14.1879 -12.49853,-25.53827 0,-8.51275 1.24987,-11.16116 9.58222,-21.75482 5.20771,-6.62104 10.83203,-15.32298 12.70683,-19.29559 2.91632,-6.43186 3.33293,-6.62102 4.79109,-3.02675 1.04155,2.27006 4.37449,5.86434 7.49913,8.1344 z" />
    <path
       style="color:#000000;font-style:normal;font-variant:normal;font-weight:normal;font-stretch:normal;font-size:medium;line-height:normal;font-family:sans-serif;text-indent:0;text-align:start;text-decoration:none;text-decoration-line:none;text-decoration-style:solid;text-decoration-color:#000000;letter-spacing:normal;word-spacing:normal;text-transform:none;direction:ltr;block-progression:tb;writing-mode:lr-tb;baseline-shift:baseline;text-anchor:start;white-space:normal;clip-rule:nonzero;display:inline;overflow:visible;visibility:visible;opacity:1;isolation:auto;mix-blend-mode:normal;color-interpolation:sRGB;color-interpolation-filters:linearRGB;solid-color:#000000;solid-opacity:1;fill:#000000;fill-opacity:1;fill-rule:nonzero;stroke:none;stroke-width:22.11040115;stroke-linecap:butt;stroke-linejoin:round;stroke-miterlimit:4;stroke-dasharray:none;stroke-dashoffset:0;stroke-opacity:1;color-rendering:auto;image-rendering:auto;shape-rendering:auto;text-rendering:auto;enable-background:accumulate"
       d="m 101.125,486.54384 a 13.820382,13.380803 0 0 0 -13.81836,13.37885 l 0,538.55761 a 13.820382,13.380803 0 0 0 13.81836,13.3789 l 365.625,0 a 13.820382,13.380803 0 0 0 13.81836,-13.3789 l 0,-538.55761 A 13.820382,13.380803 0 0 0 466.75,486.54384 l -365.625,0 z m 13.81836,26.75769 337.98828,0 0,511.79997 -337.98828,0 0,-511.79997 z"
       id="rect3356"
       inkscape:connector-curvature="0" />
    <path
       style="font-size:medium;font-style:normal;font-variant:normal;font-weight:normal;font-stretch:normal;text-indent:0;text-align:start;text-decoration:none;line-height:normal;letter-spacing:normal;word-spacing:normal;text-transform:none;direction:ltr;block-progression:tb;writing-mode:lr-tb;text-anchor:start;baseline-shift:baseline;color:#000000;fill:#000000;fill-opacity:1;fill-rule:nonzero;stroke:none;stroke-width:23.03149605;marker:none;visibility:visible;display:inline;overflow:visible;enable-background:accumulate;font-family:Sans;-inkscape-font-specification:Sans"
       d="m 170,970.83932 0,23.03125 230,0 0,-23.03125 -230,0 z"
       id="path2987"
       inkscape:connector-curvature="0" />
  </g>
</svg>
