<?xml version="1.0" encoding="UTF-8" standalone="no"?>
<svg
   version="1.0"
   width="468pt"
   height="468pt"
   viewBox="0 0 468 468"
   preserveAspectRatio="xMidYMid meet"
   id="svg14"
   sodipodi:docname="sani_buffer_electric_heater_top.svg"
   inkscape:version="1.1 (c68e22c387, 2021-05-23)"
   xmlns:inkscape="http://www.inkscape.org/namespaces/inkscape"
   xmlns:sodipodi="http://sodipodi.sourceforge.net/DTD/sodipodi-0.dtd"
   xmlns="http://www.w3.org/2000/svg"
   xmlns:svg="http://www.w3.org/2000/svg">
  <defs
     id="defs18" />
  <sodipodi:namedview
     id="namedview16"
     pagecolor="#ffffff"
     bordercolor="#666666"
     borderopacity="1.0"
     inkscape:pageshadow="2"
     inkscape:pageopacity="0.0"
     inkscape:pagecheckerboard="0"
     inkscape:document-units="pt"
     showgrid="false"
     inkscape:snap-bbox="false"
     inkscape:snap-global="true"
     inkscape:zoom="0.33333333"
     inkscape:cx="-564"
     inkscape:cy="490.5"
     inkscape:window-width="1920"
     inkscape:window-height="1017"
     inkscape:window-x="-8"
     inkscape:window-y="-8"
     inkscape:window-maximized="1"
     inkscape:current-layer="g12" />
  <metadata
     id="metadata2">
Created by potrace 1.8, written by Peter Selinger 2001-2007
</metadata>
  <g
     transform="translate(0,468) scale(0.158108,-0.158108)"
     fill="#000000"
     stroke="none"
     id="g12">
    <path
       d="m 500.29673,2720.924 c -164.86468,-12.8454 -263.57997,-40.371 -288.00438,-83.4946 -6.10611,-10.0928 -10.17684,-487.2048 -10.17684,-1269.852 V 113.32328 l 29.51282,-25.690649 c 65.13175,-59.639001 202.519,-73.401854 723.57262,-73.401854 521.05405,0 658.44125,13.762853 723.57285,73.401854 28.4953,24.773129 29.5129,30.278269 29.5129,109.185259 6.0911,502.05629 5.4378,1240.86081 0,1701.08781 0,804.6678 5.0884,750.5339 -67.167,781.7297 -83.45,35.7834 -176.0591,42.2061 -614.6809,45.8762 -232.03158,1.8351 -469.1518,0 -526.14207,-4.5876 z m 963.74607,-128.4532 c 41.7251,-5.5052 83.45,-11.9279 93.6269,-14.6804 7.3307,-651.3278 12.8671,-1524.8549 16.2828,-2354.36434 -3.053,-53.21635 -5.0883,-56.88643 -33.5835,-66.06167 -41.725,-12.84532 -1128.6107,-12.84532 -1170.33572,0 l -30.5305,9.17524 -3.05303,1203.79037 c -2.03538,1190.0274 -2.03538,1202.8727 18.31829,1208.3779 10.17683,2.7526 48.84879,9.1752 83.45002,12.8453 91.59149,11.0104 934.23324,11.0104 1025.82474,0.9176 z"
       id="path4"
       sodipodi:nodetypes="ccsccscccccccccccccscc"
       style="stroke-width:0.966306" />
    <path
       d="m 2584.7544,2435.7153 c -8.7218,-3.7325 -22.2009,-12.6906 -29.3368,-20.9022 -7.9289,-7.4651 -87.2176,-132.8782 -176.8138,-278.4471 -152.2343,-245.6009 -163.3347,-267.2496 -159.3703,-294.1238 6.3431,-47.7765 19.8222,-54.495 154.613,-79.1298 67.3953,-11.9441 122.8974,-23.1417 124.4832,-23.8882 0.7929,-1.493 -24.5795,-47.0299 -57.8807,-100.7784 l -61.0523,-98.539 -38.8515,18.6627 c -66.6025,32.0998 -64.2238,35.8323 -139.5481,-246.3473 -34.887,-133.6248 -64.2238,-251.5729 -64.2238,-262.024 0,-17.9162 19.1741,-31.1665 42.023,-33.5928 10.0681,-1.0692 258.6816,201.9885 411.5083,368.7745 11.8933,19.4091 0.7929,38.0718 -33.3013,55.988 -17.4435,8.9581 -31.7154,20.1557 -31.7154,24.6347 0,4.4791 41.2301,74.6507 91.1819,156.02 96.7322,156.7665 106.2469,184.3872 79.2887,220.9661 -14.2719,18.6627 -32.5083,23.8882 -168.092,47.7764 -53.9163,8.9581 -97.5251,18.6627 -97.5251,20.9022 0,2.2396 58.6737,100.032 130.8264,217.2336 90.3891,147.0619 130.8263,219.4731 130.8263,235.1497 0,29.8603 -19.8222,55.2416 -52.3305,67.9322 -30.1297,11.9441 -32.5084,11.9441 -54.7092,3.7325 z"
       id="path4-5"
       sodipodi:nodetypes="ccccccscccssccscccscscc"
       style="stroke-width:0.769348" />
    <path
       style="fill:#000000;stroke-width:2.38395"
       d="m 720.95418,2954.7505 v -150.4822 -38.9599 h 17.6142 17.6143 V 2122.334 c 0,-694.355 -0.4183,-660.3559 8.5633,-695.9103 5.5341,-21.9071 20.091,-49.0047 32.916,-61.2731 10.6476,-10.1854 12.5259,-10.8701 29.8164,-10.8701 17.167,0 19.213,0.7313 29.3571,10.4933 15.9845,15.3824 27.2213,37.4671 34.7825,68.3611 l 6.3174,25.8121 0.8388,456.4397 c 0.8362,455.0028 0.8498,456.47 4.313,466.0037 5.0437,13.8835 13.7056,22.0895 21.3324,20.2099 8.751,-2.1568 17.4242,-16.2885 19.569,-31.8848 1.1583,-8.4224 1.7414,-160.4664 1.7475,-455.7044 0.013,-438.8573 0.043,-443.2619 3.4767,-463.8507 10.5948,-63.5136 37.9202,-100.2376 72.12672,-96.9348 12.7867,1.2346 16.3283,3.0506 27.2935,13.9949 19.6983,19.6609 33.4262,54.6842 37.8178,96.4839 1.3586,12.9316 1.8862,197.4655 1.8862,659.7785 v 641.8255 c -48.6489,0 -48.6489,0 -48.6489,0 l -0.013,-641.1453 c -0.013,-629.9203 -0.064,-641.3354 -3.281,-651.9914 -8.7931,-29.1241 -31.7487,-27.8567 -39.43932,2.1777 -2.3465,9.1637 -2.6285,57.4846 -2.6305,450.6164 0,277.6562 -0.6185,446.9656 -1.6705,458.252 -3.5801,38.413 -18.4256,80.4733 -34.7285,98.3929 -34.3535,37.7596 -75.2098,17.3216 -95.968,-48.0073 -11.6524,-36.6726 -10.8372,-0.9715 -11.378,-498.3116 -0.3499,-321.7345 -1.0209,-451.5448 -2.3694,-458.2714 -3.1881,-15.9052 -10.755,-26.187 -19.2723,-26.187 -9.4191,0 -16.606,7.364 -20.8252,21.3383 -3.2173,10.656 -3.2747,22.0711 -3.2809,651.9914 l -0.01,641.1453 h 17.6143 331.87482 l 1.1183,98.17 -80.5222,92.4218 c -353.95662,-1.1497 0,0 -353.95662,-1.1497 z"
       id="path6340"
       sodipodi:nodetypes="cccccsssssscssssccssssccscscsssssssscccccc" />
  </g>
</svg>
