<?xml version="1.0" encoding="UTF-8" standalone="no"?>
<!-- Created with Inkscape (http://www.inkscape.org/) -->

<svg
   xmlns:dc="http://purl.org/dc/elements/1.1/"
   xmlns:cc="http://creativecommons.org/ns#"
   xmlns:rdf="http://www.w3.org/1999/02/22-rdf-syntax-ns#"
   xmlns:svg="http://www.w3.org/2000/svg"
   xmlns="http://www.w3.org/2000/svg"
   version="1.0"
   width="468pt"
   height="424pt"
   viewBox="0 0 468 424"
   id="svg2">
  <defs
     id="defs20" />
  <metadata
     id="metadata4">
Created by potrace 1.8, written by Peter Selinger 2001-2007
<rdf:RDF>
  <cc:Work
     rdf:about="">
    <dc:format>image/svg+xml</dc:format>
    <dc:type
       rdf:resource="http://purl.org/dc/dcmitype/StillImage" />
    <dc:title></dc:title>
  </cc:Work>
</rdf:RDF>
</metadata>
  <g
     transform="matrix(0.158644,0,0,-0.158644,0,424)"
     id="g6"
     fill="#000000" stroke="none">
    <path
       d="M 112,2649.5262 C 77,2638.0713 23,2544.7961 11,2472.7941 -4,2382.7917 -4,298.00782 11,199.82333 18,155.64032 35,106.54808 56,73.819914 L 91,18.18204 1469,13.272816 2847,10 l 34,37.637385 c 72,78.547585 69,19.636897 69,1286.216715 l 0,1134.0308 -22,63.8199 c -14,40.9102 -37,75.2748 -63,96.5481 -41,32.7282 -60,32.7282 -1386,31.0917 -739,-1.6364 -1354,-6.5456 -1367,-9.8184 z m 2703,-1322.2177 0,-1096.39341 -1335,0 -1335,0 -3,1101.30261 -2,1099.6662 1337,-3.2728 1338,-4.9092 0,-1096.3934 z"
       id="path14" />
    <path
       d="m 470,1404.3287 c -26,-29.9921 -26,-85.362 0,-115.3541 20,-23.0708 33,-23.0708 1005,-23.0708 1070,0 1028,2.307 1073,-63.4448 30,-42.6811 31,-144.1926 2,-190.3343 -45,-72.67308 12,-69.21245 -1084,-69.21245 -992,0 -995,0 -1052,-24.22438 C 183,818.32979 183,444.58245 414,344.22436 471,320 474,320 1470,320 l 999,0 15,25.37791 c 22,35.75977 20,81.90142 -5,108.43287 -20,20.76373 -56,21.91728 -1023,27.68499 -841,4.61416 -1004,8.07478 -1022,21.91727 -54,41.52749 -73,139.57849 -39,205.33034 36,71.51956 -32,66.90539 1080,72.67309 1011,5.76771 1020,5.76771 1066,29.99207 60,32.29916 115,89.97621 142,147.65327 31,66.90539 31,222.63349 0,289.53879 -29,62.2912 -78,114.2006 -138,146.4998 l -50,26.5315 -1002,3.4606 c -994,2.307 -1003,2.307 -1023,-20.7638 z"
       id="path16" />
    <path
       d="m 491.37244,2310.1773 c -26,-28.7637 -26,-81.8659 0,-110.6298 20,-22.1258 33,-22.1258 1004.99996,-22.1258 1070,0 1028,2.2125 1073,-60.8465 30,-40.933 31,-138.2873 2,-182.5391 -45,-69.6967 12,-66.3779 -1084,-66.3779 -991.99996,0 -994.99996,0 -1051.99996,-23.2323 -231,-96.2479 -231,-454.6883 0,-550.9362 57,-23.2323 60,-23.2323 1055.99996,-23.2323 l 999,0 15,24.3385 c 22,34.2952 20,78.5472 -5,103.9921 -20,19.9133 -56,21.0196 -1023,26.551 -840.99996,4.4253 -1003.99996,7.7442 -1021.99996,21.0198 -54,39.8267 -73,133.8619 -39,196.9208 36,68.5906 -32,64.1654 1079.99996,69.697 1011,5.5314 1020,5.5314 1066,28.7637 60,30.9763 115,86.2912 142,141.6061 31,64.1653 31,213.5154 0,277.6808 -29,59.74 -78,109.5234 -138,140.4996 l -50,25.445 -1002,3.3189 c -993.99996,2.2126 -1002.99996,2.2126 -1022.99996,-19.9134 z"
       id="path16-1" />
  </g>
</svg>
