<?xml version="1.0" encoding="UTF-8" standalone="no"?>
<svg
   version="1.0"
   width="468pt"
   height="590pt"
   viewBox="0 0 468 590"
   preserveAspectRatio="xMidYMid meet"
   id="svg32"
   sodipodi:docname="sani_heating_heatpump_buffer.svg"
   inkscape:version="1.1 (c68e22c387, 2021-05-23)"
   xmlns:inkscape="http://www.inkscape.org/namespaces/inkscape"
   xmlns:sodipodi="http://sodipodi.sourceforge.net/DTD/sodipodi-0.dtd"
   xmlns:xlink="http://www.w3.org/1999/xlink"
   xmlns="http://www.w3.org/2000/svg"
   xmlns:svg="http://www.w3.org/2000/svg">
  <defs
     id="defs36">
    <inkscape:path-effect
       effect="powerclip"
       id="path-effect52"
       is_visible="true"
       lpeversion="1"
       inverse="true"
       flatten="false"
       hide_clip="false"
       message="Füllregel Gerade-Ungerade im &lt;b&gt;Füllung und Kontur&lt;/b&gt;-Dialog verwenden, wenn das Anwenden des Ausschnitts mit nachfolgendem Umwandeln in Pfade kein Ergebnis bringt" />
    <clipPath
       clipPathUnits="userSpaceOnUse"
       id="clipPath4307">
      <use
         x="0"
         y="0"
         xlink:href="#g4303"
         id="use4309" />
    </clipPath>
    <clipPath
       clipPathUnits="userSpaceOnUse"
       id="clipPath32">
      <g
         id="g50"
         style="display:block">
        <path
           id="path34"
           style="fill:#ffffff;fill-rule:evenodd;stroke-width:0.75"
           d="m 309.53036,43.253143 h 93.94043 v 19.599083 h -93.94043 z" />
        <path
           id="path36"
           style="fill:#ffffff;fill-rule:evenodd;stroke-width:0.75"
           d="m 309.53036,68.852226 h 93.94043 v 19.599083 h -93.94043 z" />
        <path
           id="path38"
           style="fill:#ffffff;fill-rule:evenodd;stroke-width:0.75"
           d="m 309.53036,94.451309 h 93.94043 v 19.599081 h -93.94043 z" />
        <path
           id="path40"
           style="fill:#ffffff;fill-rule:evenodd;stroke-width:1.08836"
           d="m 338.13876,219.72575 h 58.91162 v 65.81261 h -58.91162 z" />
        <g
           id="g48"
           clip-path="url(#clipPath4307)"
           transform="matrix(1.3257576,0,0,1.2900763,-49.632576,-55.500641)">
          <g
             inkscape:label="Clip"
             id="g46">
            <g
               inkscape:label="Clip"
               id="g44">
              <path
                 id="path42"
                 style="fill:#ffffff;stroke-width:0.75"
                 d="M 258.16721,195.99083 A 89.209618,88.533791 0 0 1 168.9576,284.52462 89.209618,88.533791 0 0 1 79.747978,195.99083 89.209618,88.533791 0 0 1 168.9576,107.45704 89.209618,88.533791 0 0 1 258.16721,195.99083 Z" />
            </g>
          </g>
        </g>
      </g>
    </clipPath>
  </defs>
  <sodipodi:namedview
     id="namedview34"
     pagecolor="#ffffff"
     bordercolor="#666666"
     borderopacity="1.0"
     inkscape:pageshadow="2"
     inkscape:pageopacity="0.0"
     inkscape:pagecheckerboard="0"
     inkscape:document-units="pt"
     showgrid="false"
     inkscape:zoom="0.5548729"
     inkscape:cx="-400.09162"
     inkscape:cy="505.52117"
     inkscape:window-width="1920"
     inkscape:window-height="1017"
     inkscape:window-x="1912"
     inkscape:window-y="-8"
     inkscape:window-maximized="1"
     inkscape:current-layer="g4854" />
  <metadata
     id="metadata2">
Created by MadMax
</metadata>
  <g
     id="g4854">
    <g
       id="g4759"
       transform="matrix(0.64757922,0,0,0.69806696,173.22819,114.41173)">
      <path
         id="path4757"
         fill="#000000"
         stroke="#000000"
         stroke-width="0.549073"
         d="m 184.38064,294.67528 c 4.95248,1.24506 10.3537,1.9282 14.20623,5.63587 6.69817,6.45675 4.75001,13.34322 3.94558,21.43067 0,0 -4.01125,36.91143 -4.01125,36.91143 0,0 -1.9591,9.36559 -1.9591,9.36559 0.0766,2.13756 2.16706,4.12086 3.26701,7.71284 1.28599,4.209 0.74423,7.44839 1.29694,8.69347 0.73329,1.64723 3.02621,2.01635 4.59677,2.51218 0,0 13.13366,3.98312 13.13366,3.98312 0,0 24.62558,6.8479 24.62558,6.8479 3.94557,1.31118 8.87617,3.15124 11.78198,6.22536 3.72667,3.93906 4.69528,8.93036 4.63509,14.15856 -0.0383,2.96944 -0.5363,5.01885 -1.82229,7.71284 -1.38999,2.91436 -4.68434,6.37411 -6.89517,8.81467 -5.68578,6.28045 -8.91447,8.91934 -17.54984,8.81467 -7.75433,-0.0937 -16.31856,-8.09848 -22.43665,-12.58845 0,0 -22.98388,-17.10046 -22.98388,-17.10046 -4.59679,-3.58647 -4.71717,-5.60283 -6.62155,-6.66058 -1.58699,-0.88148 -5.0893,-0.44624 -7.05934,-0.6556 -4.00029,-0.42971 -7.40409,-2.21468 -8.0553,-2.34691 -1.7621,-0.35258 -3.34909,1.38832 -4.53111,2.49016 0,0 -8.20854,8.16458 -8.20854,8.16458 0,0 -14.77535,13.82801 -14.77535,13.82801 -6.17281,6.0656 -12.27449,13.22752 -21.88941,12.48928 -12.06656,-0.93104 -15.82059,-7.92218 -18.835846,-18.55487 -1.12184,-3.9611 -1.93722,-5.69097 -1.9591,-9.9165 -0.011,-1.98882 -0.10946,-4.13739 0.4323,-6.06008 2.71977,-9.63003 13.193856,-12.64906 21.457106,-15.9766 0,0 27.90901,-12.1973 27.90901,-12.1973 0,0 9.73531,-3.008 9.73531,-3.008 1.75116,-1.3167 2.2765,-3.93906 4.6734,-6.83137 2.6322,-3.17328 5.05098,-4.13739 6.15092,-5.60833 1.22034,-1.72438 0.49252,-3.5369 0,-5.41001 0,0 -2.57201,-11.01834 -2.57201,-11.01834 0,0 -3.56797,-14.87475 -3.56797,-14.87475 -2.87846,-12.616 -9.35772,-28.82397 5.82806,-36.46519 2.24366,-1.12939 3.60628,-1.40484 6.01958,-1.85659 4.356,-0.56194 7.84189,0.28647 12.03918,1.33873 z m 5.62559,54.61238 c 0,0 2.67598,-24.79125 2.67598,-24.79125 0.3174,-3.21185 1.82776,-11.14505 1.00691,-13.77292 -1.40092,-4.48446 -4.82662,-4.99681 -8.76124,-5.98847 -6.39718,-1.61418 -13.89977,-4.27512 -17.81799,3.23389 -2.30932,4.42936 0.32288,11.36541 1.47207,15.97658 0,0 5.88278,24.79126 5.88278,24.79126 0,0 2.80184,12.12017 2.80184,12.12017 5.20968,0.005 5.56539,0.26995 10.39748,2.20367 1.93721,-4.65525 1.76757,-8.94138 2.34217,-13.77293 z m -25.22208,35.25869 c 0.60743,7.3933 7.15784,13.56357 14.67137,12.50581 1.79494,-0.25342 3.91274,-0.88698 5.47236,-1.82353 12.22524,-7.36025 6.13998,-25.98125 -9.303,-25.3532 -6.03053,1.41035 -11.36607,8.32435 -10.84073,14.67092 z m -31.29639,10.07076 c 0,0 -17.51154,7.63571 -17.51154,7.63571 -2.96054,1.31668 -7.05934,2.83722 -9.1881,5.45407 -2.06854,2.85926 -1.00691,6.21434 0,9.34355 1.52678,5.76259 3.07548,13.40381 10.28258,14.21916 4.73359,0.53991 7.67771,-2.88129 10.9447,-5.72402 0,0 10.94471,-10.6933 10.94471,-10.6933 0,0 10.39747,-9.92201 10.39747,-9.92201 0,0 5.47236,-5.41551 5.47236,-5.41551 0.98502,-0.90902 2.65956,-2.12103 3.06451,-3.4212 0,0 -2.51728,-10.44538 -2.51728,-10.44538 -5.10571,1.04674 -16.37876,6.57795 -21.88941,8.96893 z m 59.28747,8.6549 c 0.48704,1.91168 7.26729,6.83137 9.11695,8.18662 0,0 23.53112,17.08944 23.53112,17.08944 2.65957,2.01085 6.86233,5.81218 10.39747,5.23923 3.14113,-0.51236 5.91562,-3.97211 7.89113,-6.26944 4.65698,-5.41 10.85168,-11.02384 3.03169,-17.33735 -3.23963,-2.61686 -10.56712,-4.12086 -14.75347,-5.32737 0,0 -21.88941,-6.53387 -21.88941,-6.53387 -3.01526,-0.87596 -8.00058,-2.78213 -10.92282,-2.79866 -1.84419,0.82637 -6.96631,5.55324 -6.40266,7.7514 z" />
    </g>
    <path
       style="fill:#000000;stroke-width:0.479092"
       d="m 227.20292,478.57095 v -6.656 H 213.93491 200.66689 V 363.69341 255.47186 H 331.48485 462.30279 V 363.69341 471.91495 H 449.7331 437.1634 v 6.656 6.65599 h -6.75039 -6.75039 v -6.65599 -6.656 H 332.18316 240.7037 v 6.656 6.65599 h -6.75039 -6.75039 z m 218.80582,-55.46662 v -24.1588 h -20.48395 -20.48395 v 24.1588 24.15878 h 20.48395 20.48395 z m -146.35828,22.41065 c 23.48671,-4.32908 42.68279,-22.84602 48.80654,-47.0798 7.3982,-29.27721 -5.47439,-60.22965 -30.81238,-74.08902 -5.18053,-2.83364 -12.49642,-5.46931 -17.99416,-6.48264 -5.39539,-0.99449 -16.13045,-0.99449 -21.52584,0 -35.37805,6.52088 -57.99035,43.71343 -48.84656,80.34246 6.0322,24.16428 25.14841,42.81368 48.43642,47.25356 5.14406,0.98073 16.75677,1.01007 21.93598,0.0555 z M 450.66418,314.63627 v -7.39556 h -32.58809 -32.58811 v 7.39556 7.39554 h 32.58811 32.58809 z m 0,-18.73539 v -7.39556 h -32.58809 -32.58811 v 7.39556 7.39554 h 32.58811 32.58809 z m 0,-18.48889 v -7.14903 h -32.58809 -32.58811 v 7.14903 7.14903 h 32.58811 32.58809 z"
       id="path100" />
    <path
       d="M 40.567249,73.950962 C 20.920047,75.866774 9.1559825,79.972085 6.2452855,86.40374 c -0.727674,1.505281 -1.21279,72.66402 -1.21279,189.39171 v 187.06538 l 3.517092,3.83162 c 7.7618565,8.89484 24.1345245,10.9475 86.2293845,10.9475 62.094858,0 78.467528,-2.05266 86.229388,-10.9475 3.3958,-3.69478 3.51709,-4.51584 3.51709,-16.2844 v -12.45278 h 15.76627 c 14.18965,0 16.00883,-0.27369 18.19185,-2.73688 3.51709,-3.96846 3.15326,-10.12643 -0.72767,-13.54752 -2.9107,-2.60003 -4.85116,-2.87372 -18.19186,-2.87372 h -15.03859 v -47.21109 -47.21108 h 15.76627 c 14.18965,0 16.00883,-0.27369 18.19185,-2.73688 3.15326,-3.55794 3.15326,-10.12643 0,-13.68437 -2.18302,-2.46318 -4.0022,-2.73687 -18.19185,-2.73687 H 184.52545 V 196.69979 c 0,-120.011954 0.60639,-111.938174 -8.00442,-116.590861 -9.94487,-5.336905 -20.98127,-6.294811 -73.25253,-6.842186 -27.651613,-0.273688 -55.909626,0 -62.701251,0.684219 z M 155.41848,93.109083 c 4.97244,0.821062 9.94489,1.778968 11.15768,2.1895 2.06173,0.684218 2.18301,6.021127 2.18301,105.369667 v 104.54861 h -13.58324 c -11.40024,0 -22.19407,1.64212 -63.307654,9.57906 -27.166501,5.20005 -50.209516,10.26328 -51.179748,11.08434 -2.183023,2.05266 -2.183023,12.72646 0,14.77912 0.970232,0.95791 24.255805,6.02112 51.664864,11.35803 l 50.088238,9.57906 3.15325,-2.73687 c 3.75965,-3.14741 4.97244,-11.08434 2.06175,-13.82122 -1.45536,-1.36844 -46.20731,-11.08434 -50.937193,-11.08434 -4.366045,0 3.031975,-1.77897 21.951503,-5.33691 15.76627,-3.01056 25.95371,-4.24215 36.01987,-4.24215 h 14.06836 v 47.21108 47.21109 h -13.34069 c -11.03638,0 -21.83022,-1.64213 -59.547997,-8.89485 -25.347315,-4.92637 -47.17754,-8.89484 -48.632888,-8.89484 -3.75965,0 -8.246973,5.33691 -8.246973,9.71591 0,3.1474 2.546859,8.07378 4.244765,8.07378 0.242558,0 21.345109,3.96846 46.934982,8.89484 56.030901,10.81065 50.937191,10.12643 66.218351,10.12643 l 12.49173,0.13685 -0.36383,8.48431 c -0.36384,7.93694 -0.60639,8.48431 -4.00221,9.85275 -4.97244,1.91581 -134.498436,1.91581 -139.470876,0 L 21.405163,454.92389 21.041326,275.38493 C 20.798768,97.898613 20.798768,95.982801 23.224348,95.161739 c 1.212791,-0.410531 5.821394,-1.368437 9.94488,-1.915812 10.915113,-1.642125 111.334142,-1.642125 122.249252,-0.136844 z"
       id="path4"
       style="stroke-width:0.128827;fill:#000000;fill-opacity:1" />
    <path
       d="m 41.416202,353.11216 c -2.910697,3.28425 -3.153255,9.85275 -0.485116,12.86331 0.970232,1.23159 2.183022,2.1895 2.668138,2.1895 0.363837,0 21.587667,3.96847 47.17754,8.89484 25.468596,4.92638 48.269046,8.89484 50.452076,8.89484 5.215,0 8.12569,-3.55794 8.12569,-10.12643 0,-3.83163 -0.60639,-5.3369 -2.66813,-6.29481 -3.27454,-1.50529 -94.718923,-19.15813 -99.570084,-19.15813 -1.819185,0 -4.366045,1.2316 -5.700114,2.73688 z"
       id="path6"
       style="stroke-width:0.128827;fill:#000000;fill-opacity:1" />
    <path
       d="m 42.022597,378.42825 c -4.002208,4.379 -4.123487,10.81065 -0.242558,13.41068 1.455348,1.09475 24.740921,6.15797 51.543585,11.22119 53.241496,9.98959 53.362776,9.98959 55.788356,2.1895 1.21279,-3.69478 0.12128,-8.758 -2.06175,-10.26328 -1.09151,-0.82106 -98.114729,-19.84234 -101.146704,-19.97918 -0.485116,0 -2.304302,1.50528 -3.880929,3.42109 z"
       id="path8"
       style="stroke-width:0.128827;fill:#000000;fill-opacity:1" />
  </g>
</svg>
