<?xml version="1.0" encoding="UTF-8" standalone="no"?>
<svg
   version="1.0"
   width="468pt"
   height="590pt"
   viewBox="0 0 468 590"
   preserveAspectRatio="xMidYMid meet"
   id="svg32"
   sodipodi:docname="sani_heating_heatpump.svg"
   inkscape:version="1.1 (c68e22c387, 2021-05-23)"
   xmlns:inkscape="http://www.inkscape.org/namespaces/inkscape"
   xmlns:sodipodi="http://sodipodi.sourceforge.net/DTD/sodipodi-0.dtd"
   xmlns:xlink="http://www.w3.org/1999/xlink"
   xmlns="http://www.w3.org/2000/svg"
   xmlns:svg="http://www.w3.org/2000/svg">
  <defs
     id="defs36">
    <inkscape:path-effect
       effect="powerclip"
       id="path-effect52"
       is_visible="true"
       lpeversion="1"
       inverse="true"
       flatten="false"
       hide_clip="false"
       message="Füllregel Gerade-Ungerade im &lt;b&gt;Füllung und Kontur&lt;/b&gt;-Dialog verwenden, wenn das Anwenden des Ausschnitts mit nachfolgendem Umwandeln in Pfade kein Ergebnis bringt" />
    <clipPath
       clipPathUnits="userSpaceOnUse"
       id="clipPath4307">
      <use
         x="0"
         y="0"
         xlink:href="#g4303"
         id="use4309" />
    </clipPath>
    <clipPath
       clipPathUnits="userSpaceOnUse"
       id="clipPath32">
      <g
         id="g50"
         style="display:block">
        <path
           id="path34"
           style="fill:#ffffff;fill-rule:evenodd;stroke-width:0.75"
           d="m 309.53036,43.253143 h 93.94043 v 19.599083 h -93.94043 z" />
        <path
           id="path36"
           style="fill:#ffffff;fill-rule:evenodd;stroke-width:0.75"
           d="m 309.53036,68.852226 h 93.94043 v 19.599083 h -93.94043 z" />
        <path
           id="path38"
           style="fill:#ffffff;fill-rule:evenodd;stroke-width:0.75"
           d="m 309.53036,94.451309 h 93.94043 v 19.599081 h -93.94043 z" />
        <path
           id="path40"
           style="fill:#ffffff;fill-rule:evenodd;stroke-width:1.08836"
           d="m 338.13876,219.72575 h 58.91162 v 65.81261 h -58.91162 z" />
        <g
           id="g48"
           clip-path="url(#clipPath4307)"
           transform="matrix(1.3257576,0,0,1.2900763,-49.632576,-55.500641)">
          <g
             inkscape:label="Clip"
             id="g46">
            <g
               inkscape:label="Clip"
               id="g44">
              <path
                 id="path42"
                 style="fill:#ffffff;stroke-width:0.75"
                 d="M 258.16721,195.99083 A 89.209618,88.533791 0 0 1 168.9576,284.52462 89.209618,88.533791 0 0 1 79.747978,195.99083 89.209618,88.533791 0 0 1 168.9576,107.45704 89.209618,88.533791 0 0 1 258.16721,195.99083 Z" />
            </g>
          </g>
        </g>
      </g>
    </clipPath>
  </defs>
  <sodipodi:namedview
     id="namedview34"
     pagecolor="#ffffff"
     bordercolor="#666666"
     borderopacity="1.0"
     inkscape:pageshadow="2"
     inkscape:pageopacity="0.0"
     inkscape:pagecheckerboard="0"
     inkscape:document-units="pt"
     showgrid="false"
     inkscape:zoom="1.1097458"
     inkscape:cx="142.8255"
     inkscape:cy="364.49789"
     inkscape:window-width="2560"
     inkscape:window-height="1377"
     inkscape:window-x="-8"
     inkscape:window-y="-8"
     inkscape:window-maximized="1"
     inkscape:current-layer="g4854" />
  <metadata
     id="metadata2">
Created by MadMax
</metadata>
  <g
     id="g4854">
    <g
       id="g4759"
       transform="matrix(1.127661,0,0,1.0984764,-41.521801,-178.71076)">
      <path
         id="path4757"
         fill="#000000"
         stroke="#000000"
         stroke-width="0.549073"
         d="m 184.38064,294.67528 c 4.95248,1.24506 10.3537,1.9282 14.20623,5.63587 6.69817,6.45675 4.75001,13.34322 3.94558,21.43067 0,0 -4.01125,36.91143 -4.01125,36.91143 0,0 -1.9591,9.36559 -1.9591,9.36559 0.0766,2.13756 2.16706,4.12086 3.26701,7.71284 1.28599,4.209 0.74423,7.44839 1.29694,8.69347 0.73329,1.64723 3.02621,2.01635 4.59677,2.51218 0,0 13.13366,3.98312 13.13366,3.98312 0,0 24.62558,6.8479 24.62558,6.8479 3.94557,1.31118 8.87617,3.15124 11.78198,6.22536 3.72667,3.93906 4.69528,8.93036 4.63509,14.15856 -0.0383,2.96944 -0.5363,5.01885 -1.82229,7.71284 -1.38999,2.91436 -4.68434,6.37411 -6.89517,8.81467 -5.68578,6.28045 -8.91447,8.91934 -17.54984,8.81467 -7.75433,-0.0937 -16.31856,-8.09848 -22.43665,-12.58845 0,0 -22.98388,-17.10046 -22.98388,-17.10046 -4.59679,-3.58647 -4.71717,-5.60283 -6.62155,-6.66058 -1.58699,-0.88148 -5.0893,-0.44624 -7.05934,-0.6556 -4.00029,-0.42971 -7.40409,-2.21468 -8.0553,-2.34691 -1.7621,-0.35258 -3.34909,1.38832 -4.53111,2.49016 0,0 -8.20854,8.16458 -8.20854,8.16458 0,0 -14.77535,13.82801 -14.77535,13.82801 -6.17281,6.0656 -12.27449,13.22752 -21.88941,12.48928 -12.06656,-0.93104 -15.82059,-7.92218 -18.835846,-18.55487 -1.12184,-3.9611 -1.93722,-5.69097 -1.9591,-9.9165 -0.011,-1.98882 -0.10946,-4.13739 0.4323,-6.06008 2.71977,-9.63003 13.193856,-12.64906 21.457106,-15.9766 0,0 27.90901,-12.1973 27.90901,-12.1973 0,0 9.73531,-3.008 9.73531,-3.008 1.75116,-1.3167 2.2765,-3.93906 4.6734,-6.83137 2.6322,-3.17328 5.05098,-4.13739 6.15092,-5.60833 1.22034,-1.72438 0.49252,-3.5369 0,-5.41001 0,0 -2.57201,-11.01834 -2.57201,-11.01834 0,0 -3.56797,-14.87475 -3.56797,-14.87475 -2.87846,-12.616 -9.35772,-28.82397 5.82806,-36.46519 2.24366,-1.12939 3.60628,-1.40484 6.01958,-1.85659 4.356,-0.56194 7.84189,0.28647 12.03918,1.33873 z m 5.62559,54.61238 c 0,0 2.67598,-24.79125 2.67598,-24.79125 0.3174,-3.21185 1.82776,-11.14505 1.00691,-13.77292 -1.40092,-4.48446 -4.82662,-4.99681 -8.76124,-5.98847 -6.39718,-1.61418 -13.89977,-4.27512 -17.81799,3.23389 -2.30932,4.42936 0.32288,11.36541 1.47207,15.97658 0,0 5.88278,24.79126 5.88278,24.79126 0,0 2.80184,12.12017 2.80184,12.12017 5.20968,0.005 5.56539,0.26995 10.39748,2.20367 1.93721,-4.65525 1.76757,-8.94138 2.34217,-13.77293 z m -25.22208,35.25869 c 0.60743,7.3933 7.15784,13.56357 14.67137,12.50581 1.79494,-0.25342 3.91274,-0.88698 5.47236,-1.82353 12.22524,-7.36025 6.13998,-25.98125 -9.303,-25.3532 -6.03053,1.41035 -11.36607,8.32435 -10.84073,14.67092 z m -31.29639,10.07076 c 0,0 -17.51154,7.63571 -17.51154,7.63571 -2.96054,1.31668 -7.05934,2.83722 -9.1881,5.45407 -2.06854,2.85926 -1.00691,6.21434 0,9.34355 1.52678,5.76259 3.07548,13.40381 10.28258,14.21916 4.73359,0.53991 7.67771,-2.88129 10.9447,-5.72402 0,0 10.94471,-10.6933 10.94471,-10.6933 0,0 10.39747,-9.92201 10.39747,-9.92201 0,0 5.47236,-5.41551 5.47236,-5.41551 0.98502,-0.90902 2.65956,-2.12103 3.06451,-3.4212 0,0 -2.51728,-10.44538 -2.51728,-10.44538 -5.10571,1.04674 -16.37876,6.57795 -21.88941,8.96893 z m 59.28747,8.6549 c 0.48704,1.91168 7.26729,6.83137 9.11695,8.18662 0,0 23.53112,17.08944 23.53112,17.08944 2.65957,2.01085 6.86233,5.81218 10.39747,5.23923 3.14113,-0.51236 5.91562,-3.97211 7.89113,-6.26944 4.65698,-5.41 10.85168,-11.02384 3.03169,-17.33735 -3.23963,-2.61686 -10.56712,-4.12086 -14.75347,-5.32737 0,0 -21.88941,-6.53387 -21.88941,-6.53387 -3.01526,-0.87596 -8.00058,-2.78213 -10.92282,-2.79866 -1.84419,0.82637 -6.96631,5.55324 -6.40266,7.7514 z" />
    </g>
    <path
       style="fill:#000000;stroke-width:0.793065"
       d="M 52.467003,394.32926 V 383.8554 H 29.362769 6.2585384 V 213.55826 43.261098 H 234.05816 461.85777 V 213.55826 383.8554 h -21.88821 -21.88823 v 10.47386 10.47386 H 406.32655 394.57177 V 394.32926 383.8554 H 235.27417 75.976572 v 10.47386 10.47386 H 64.221783 52.467003 Z M 433.48415,307.04713 V 269.0309 h -35.66969 -35.66969 v 38.01623 38.0162 h 35.66969 35.66969 z M 178.6234,342.31247 c 40.89854,-6.81223 74.3256,-35.95044 84.98918,-74.08465 12.88285,-46.07055 -9.53282,-94.77722 -53.65508,-116.5863 -9.02111,-4.45901 -21.76062,-8.60648 -31.3341,-10.20106 -9.39524,-1.56493 -28.08872,-1.56493 -37.48398,0 -61.605515,10.26124 -100.981407,68.78734 -85.058874,126.4267 10.504159,38.02485 43.79215,67.37149 84.344674,74.35808 8.9576,1.54327 29.17938,1.58944 38.19818,0.0874 z M 441.5909,136.36206 v -11.63762 h -56.74723 -56.74724 v 11.63762 11.63761 h 56.74724 56.74723 z m 0,-29.48196 V 95.242463 h -56.74723 -56.74724 v 11.637637 11.6376 h 56.74724 56.74723 z m 0,-29.094065 V 66.536337 h -56.74723 -56.74724 v 11.249698 11.249701 h 56.74724 56.74723 z"
       id="path100" />
  </g>
</svg>
