<?xml version="1.0" encoding="UTF-8" standalone="no"?>
<svg
   version="1.0"
   width="468pt"
   height="468pt"
   viewBox="0 0 468 468"
   preserveAspectRatio="xMidYMid meet"
   id="svg14"
   sodipodi:docname="sani_buffer_electric_heater_side.svg"
   inkscape:version="1.1 (c68e22c387, 2021-05-23)"
   xmlns:inkscape="http://www.inkscape.org/namespaces/inkscape"
   xmlns:sodipodi="http://sodipodi.sourceforge.net/DTD/sodipodi-0.dtd"
   xmlns="http://www.w3.org/2000/svg"
   xmlns:svg="http://www.w3.org/2000/svg">
  <defs
     id="defs18" />
  <sodipodi:namedview
     id="namedview16"
     pagecolor="#ffffff"
     bordercolor="#666666"
     borderopacity="1.0"
     inkscape:pageshadow="2"
     inkscape:pageopacity="0.0"
     inkscape:pagecheckerboard="0"
     inkscape:document-units="pt"
     showgrid="false"
     inkscape:snap-bbox="false"
     inkscape:snap-global="true"
     inkscape:zoom="0.33333333"
     inkscape:cx="-495"
     inkscape:cy="112.5"
     inkscape:window-width="1920"
     inkscape:window-height="1017"
     inkscape:window-x="-8"
     inkscape:window-y="-8"
     inkscape:window-maximized="1"
     inkscape:current-layer="g12" />
  <metadata
     id="metadata2">
Created by potrace 1.8, written by Peter Selinger 2001-2007
</metadata>
  <g
     transform="translate(0,468) scale(0.158108,-0.158108)"
     fill="#000000"
     stroke="none"
     id="g12">
    <path
       d="m 597.10289,2950 c -162,-14 -259.00002,-44 -283.00004,-91 -6,-11 -10,-531 -10,-1384 V 108 L 333.10286,80 C 397.10289,15 532.10289,0 1044.1029,0 c 512.0003,0 647.0003,15 711.0003,80 28,27 29,33 29,119 5.9852,547.18654 5.3433,1352.4028 0,1854 0,877 5,818 -66,852 -82,39 -173,46 -604.0002,50 -228.00011,2 -461.00011,0 -517.00011,-5 z m 947.00031,-140 c 41,-6 82,-13 92,-16 7.2033,-709.8762 12.6436,-1661.9253 16,-2566 -3,-58 -5,-62 -33,-72 -41,-14 -1109.00031,-14 -1150.00031,0 l -30,10 -3,1312 c -2,1297 -2,1311 18,1317 10,3 48,10 82,14 90,12 918.00031,12 1008.00031,1 z"
       id="path4"
       sodipodi:nodetypes="ccsccscccccccccccccscc" />
    <path
       d="m 2584.7544,2435.7153 c -8.7218,-3.7325 -22.2009,-12.6906 -29.3368,-20.9022 -7.9289,-7.4651 -87.2176,-132.8782 -176.8138,-278.4471 -152.2343,-245.6009 -163.3347,-267.2496 -159.3703,-294.1238 6.3431,-47.7765 19.8222,-54.495 154.613,-79.1298 67.3953,-11.9441 122.8974,-23.1417 124.4832,-23.8882 0.7929,-1.493 -24.5795,-47.0299 -57.8807,-100.7784 l -61.0523,-98.539 -38.8515,18.6627 c -66.6025,32.0998 -64.2238,35.8323 -139.5481,-246.3473 -34.887,-133.6248 -64.2238,-251.5729 -64.2238,-262.024 0,-17.9162 19.1741,-31.1665 42.023,-33.5928 10.0681,-1.0692 258.6816,201.9885 411.5083,368.7745 11.8933,19.4091 0.7929,38.0718 -33.3013,55.988 -17.4435,8.9581 -31.7154,20.1557 -31.7154,24.6347 0,4.4791 41.2301,74.6507 91.1819,156.02 96.7322,156.7665 106.2469,184.3872 79.2887,220.9661 -14.2719,18.6627 -32.5083,23.8882 -168.092,47.7764 -53.9163,8.9581 -97.5251,18.6627 -97.5251,20.9022 0,2.2396 58.6737,100.032 130.8264,217.2336 90.3891,147.0619 130.8263,219.4731 130.8263,235.1497 0,29.8603 -19.8222,55.2416 -52.3305,67.9322 -30.1297,11.9441 -32.5084,11.9441 -54.7092,3.7325 z"
       id="path4-5"
       sodipodi:nodetypes="ccccccscccssccscccscscc"
       style="stroke-width:0.769348" />
    <path
       style="fill:#000000;stroke-width:2.38395"
       d="m 2051.5526,364.71961 h -150.4822 -38.9599 v 17.61422 17.61428 h -642.9744 c -694.35503,0 -660.35585,-0.41837 -695.91033,8.56326 -21.9071,5.53412 -49.00464,20.09098 -61.27303,32.91602 -10.18542,10.64757 -10.87019,12.52588 -10.87019,29.81641 0,17.16696 0.73133,19.213 10.49338,29.3571 15.3824,15.98449 37.46705,27.22129 68.36107,34.78244 l 25.81209,6.31744 456.43971,0.83882 c 455.0028,0.83617 456.47,0.84974 466.0037,4.31302 13.8835,5.04369 22.0895,13.70558 20.2099,21.33236 -2.1568,8.75102 -16.2885,17.42422 -31.8848,19.56898 -8.4224,1.15831 -160.4664,1.74138 -455.7044,1.74754 -438.85731,0.0126 -443.26193,0.0428 -463.85064,3.47672 -63.51368,10.59476 -100.23762,37.92015 -96.93487,72.1267 1.23463,12.78666 3.0506,16.32826 13.99489,27.29345 19.66092,19.69836 54.68424,33.4262 96.48394,37.81782 12.9316,1.35862 197.46547,1.88622 659.77848,1.88622 h 641.8255 c 0,-48.64896 0,-48.64896 0,-48.64896 l -641.1453,-0.0126 c -629.92025,-0.0126 -641.33535,-0.0642 -651.9914,-3.28095 -29.12412,-8.79314 -27.85666,-31.74869 2.17771,-39.43934 9.16368,-2.34645 57.48456,-2.62847 450.61639,-2.63051 277.6562,0 446.9656,-0.6185 458.252,-1.67045 38.413,-3.58007 80.4733,-18.42562 98.3929,-34.72849 37.7596,-34.35352 17.3216,-75.20985 -48.0073,-95.96806 -36.6726,-11.65238 -0.9715,-10.8372 -498.3116,-11.37801 -321.73446,-0.34981 -451.54475,-1.02088 -458.27139,-2.36933 -15.90522,-3.18815 -26.18703,-10.75507 -26.18703,-19.27235 0,-9.41905 7.36399,-16.606 21.33832,-20.82516 10.65605,-3.21732 22.07115,-3.27475 651.9914,-3.2809 l 641.1453,-0.006 v 17.61424 331.87483 l 98.17,1.11835 92.4218,-80.52226 c -1.1497,-353.95659 0,0 -1.1497,-353.95659 z"
       id="path6340"
       sodipodi:nodetypes="cccccsssssscssssccssssccscscsssssssscccccc" />
  </g>
</svg>
