<?xml version="1.0" encoding="UTF-8" standalone="no"?>
<!-- Created with Inkscape (http://www.inkscape.org/) -->

<svg
   xmlns:dc="http://purl.org/dc/elements/1.1/"
   xmlns:cc="http://creativecommons.org/ns#"
   xmlns:rdf="http://www.w3.org/1999/02/22-rdf-syntax-ns#"
   xmlns:svg="http://www.w3.org/2000/svg"
   xmlns="http://www.w3.org/2000/svg"
   version="1.1"
   width="550"
   height="550"
   viewBox="0 0 550 550"
   id="svg2">
  <defs
     id="defs4" />
  <metadata
     id="metadata7">
    <rdf:RDF>
      <cc:Work
         rdf:about="">
        <dc:format>image/svg+xml</dc:format>
        <dc:type
           rdf:resource="http://purl.org/dc/dcmitype/StillImage" />
        <dc:title></dc:title>
      </cc:Work>
    </rdf:RDF>
  </metadata>
  <g
     transform="translate(0,-502.36218)"
     id="layer1">
    <path
       d="m 19.25,958.46875 c -5.341862,0.31647 -14.3179536,-2.128 -15.90625,5.15625 -0.9870436,7.64283 0.4334126,15.42771 -0.5,23.125 -0.2666466,5.11003 3.9654564,9.64281 9.340299,8.24244 26.07824,0.14304 52.17605,0.33195 78.25134,-0.0843 7.64024,1.34157 9.111746,-7.73334 7.922366,-13.24871 -1.114183,-7.0159 2.441295,-15.19739 -2.076505,-21.34693 -5.060446,-4.15566 -12.640727,-0.74484 -18.624983,-1.8661 -19.468719,-0.006 -38.937616,-0.0352 -58.406267,0.0223 z m -2.46875,13.5 c 22.182945,1.10995 44.830236,0.14432 67.1875,0.46875 3.370496,-0.35862 1.30894,5.49597 1.78125,7.78125 -0.438959,3.46049 -5.278599,-0.74198 -7.28125,0.90625 -20.769634,-0.20953 -42.376605,0.41827 -62.625,-0.3125 0.467339,-2.58635 -1.567706,-7.22499 0.8125,-8.875 l 0.125,0.0312 z"
       id="rect3755"
       style="font-size:medium;font-style:normal;font-variant:normal;font-weight:normal;font-stretch:normal;text-indent:0;text-align:start;text-decoration:none;line-height:normal;letter-spacing:normal;word-spacing:normal;text-transform:none;direction:ltr;block-progression:tb;writing-mode:lr-tb;text-anchor:start;baseline-shift:baseline;color:#000000;fill:#000000;fill-opacity:1;fill-rule:nonzero;stroke:none;stroke-width:10;marker:none;visibility:visible;display:inline;overflow:visible;enable-background:accumulate;font-family:Sans;-inkscape-font-specification:Sans" />
    <path
       d="m 194.71875,923.21875 c -14.12831,1.07114 -28.65856,-0.18612 -42.96875,0.28125 -12.98573,0.29043 -26.21423,-0.56584 -39.0625,0.46875 -7.04105,4.21305 -3.4709,13.86947 -4.23901,20.59369 0.52792,15.45553 -1.19164,31.19051 0.86401,46.46881 3.05769,6.8662 11.36862,3.19081 16.90623,4.02445 24.54473,-0.38772 49.31364,0.896 73.71877,-0.6807 7.03068,-5.36621 2.58037,-15.3566 3.78925,-22.74973 -0.52907,-14.64693 1.19081,-29.602 -0.85175,-44.06277 -1.4329,-3.22745 -4.79033,-4.69852 -8.15625,-4.34375 z M 191.0625,939.5 c 0,13.1875 0,26.375 0,39.5625 -23.3125,0 -46.625,0 -69.9375,0 0,-13.1875 0,-26.375 0,-39.5625 23.3125,0 46.625,0 69.9375,0 z"
       id="rect3755-1"
       style="font-size:medium;font-style:normal;font-variant:normal;font-weight:normal;font-stretch:normal;text-indent:0;text-align:start;text-decoration:none;line-height:normal;letter-spacing:normal;word-spacing:normal;text-transform:none;direction:ltr;block-progression:tb;writing-mode:lr-tb;text-anchor:start;baseline-shift:baseline;color:#000000;fill:#000000;fill-opacity:1;stroke:none;stroke-width:10;marker:none;visibility:visible;display:inline;overflow:visible;enable-background:accumulate;font-family:Sans;-inkscape-font-specification:Sans" />
    <path
       d="m 299.5625,872.40625 c -21.25305,0.69174 -42.72036,-0.0977 -64.06249,0.1943 -6.35596,1.06856 -13.98001,-2.05198 -19.62501,1.58695 -5.03081,5.93765 -1.35065,14.51709 -2.44362,21.56244 0.2029,31.65525 -0.53532,63.39986 0.41237,95.00006 3.49906,8.66212 14.15697,3.2645 21,4.75 23.60287,-0.2893 47.45971,0.85058 70.90625,-0.625 6.75235,-4.70382 2.63409,-13.90952 3.74485,-20.65624 -0.25571,-32.24807 0.54132,-64.59311 -0.43235,-96.78126 -1.25473,-4.11297 -5.55854,-5.61012 -9.5,-5.03125 z m -2.75,14.96875 c 0,31.13542 0,62.27083 0,93.40625 -23.5625,0 -47.125,0 -70.6875,0 0,-31.13542 0,-62.27083 0,-93.40625 23.5625,0 47.125,0 70.6875,0 z"
       id="rect3755-7"
       style="font-size:medium;font-style:normal;font-variant:normal;font-weight:normal;font-stretch:normal;text-indent:0;text-align:start;text-decoration:none;line-height:normal;letter-spacing:normal;word-spacing:normal;text-transform:none;direction:ltr;block-progression:tb;writing-mode:lr-tb;text-anchor:start;baseline-shift:baseline;color:#000000;fill:#000000;fill-opacity:1;stroke:none;stroke-width:10;marker:none;visibility:visible;display:inline;overflow:visible;enable-background:accumulate;font-family:Sans;-inkscape-font-specification:Sans" />
    <path
       d="m 405.15625,757.0625 c -12.71588,1.1217 -25.80327,-0.21576 -38.6875,0.28125 -14.31725,0.30497 -28.90924,-0.60479 -43.0625,0.46875 -6.89507,4.34211 -3.49001,13.89912 -4.25,20.59375 0.18281,70.26563 -0.35862,140.57283 0.28125,210.8125 1.22332,6.50078 8.74478,6.87828 13.875,5.59375 25.55207,0.25125 51.27277,0.67706 76.875,-0.1875 7.37931,-4.89361 3.35778,-15.13304 4.21875,-22.375 -0.005,-69.65525 0.40304,-139.3658 -0.21875,-209 -0.83488,-4.22002 -4.81611,-6.77809 -9.03125,-6.1875 z m -3.375,17 c 0,68.09375 0,136.1875 0,204.28125 -23.30208,0 -46.60417,0 -69.90625,0 0,-68.09375 0,-136.1875 0,-204.28125 23.30208,0 46.60417,0 69.90625,0 z"
       id="rect3755-4"
       style="font-size:medium;font-style:normal;font-variant:normal;font-weight:normal;font-stretch:normal;text-indent:0;text-align:start;text-decoration:none;line-height:normal;letter-spacing:normal;word-spacing:normal;text-transform:none;direction:ltr;block-progression:tb;writing-mode:lr-tb;text-anchor:start;baseline-shift:baseline;color:#000000;fill:#000000;fill-opacity:1;stroke:none;stroke-width:10;marker:none;visibility:visible;display:inline;overflow:visible;enable-background:accumulate;font-family:Sans;-inkscape-font-specification:Sans" />
    <path
       d="m 510.53125,613 c -13.4065,1.07821 -27.11923,-0.13396 -40.68748,0.28673 -13.64114,0.29186 -27.54753,-0.62097 -41.03127,0.52577 -6.87716,4.16507 -3.5863,13.90519 -4.25,20.46875 0.11091,118.26453 -0.37022,236.56988 0.25,354.8125 1.22317,6.70637 8.90208,7.05931 14.1875,5.6875 25.39958,0.33944 51.0973,0.66851 76.59375,-0.1875 7.36053,-5.11309 3.29807,-15.54891 4.1875,-23 -0.0169,-117.416 0.39956,-234.88612 -0.21875,-352.28125 -0.84413,-4.23931 -4.7468,-6.92603 -9.03125,-6.3125 z m -3.375,17.40625 c 0,115.84375 0,231.6875 0,347.53125 -23.3125,0 -46.625,0 -69.9375,0 0,-115.84375 0,-231.6875 0,-347.53125 23.3125,0 46.625,0 69.9375,0 z"
       id="rect3755-0"
       style="font-size:medium;font-style:normal;font-variant:normal;font-weight:normal;font-stretch:normal;text-indent:0;text-align:start;text-decoration:none;line-height:normal;letter-spacing:normal;word-spacing:normal;text-transform:none;direction:ltr;block-progression:tb;writing-mode:lr-tb;text-anchor:start;baseline-shift:baseline;color:#000000;fill:#000000;fill-opacity:1;stroke:none;stroke-width:10;marker:none;visibility:visible;display:inline;overflow:visible;enable-background:accumulate;font-family:Sans;-inkscape-font-specification:Sans" />
    <g
       transform="matrix(0.10987235,0,0,-0.10987235,14.924967,840.06996)"
       id="g3806"
       style="fill:#000000;stroke:none">
      <path
         d="m 340,2932 c -52,-26 -70,-70 -70,-174 l 0,-88 -112,0 C 96,2670 40,2666 34,2662 7,2644 0,2606 0,2467 0,2273 -3,2276 154,2272 l 116,-4 0,-804 0,-804 -114,0 C 44,660 41,659 21,634 2,610 0,594 0,458 0,313 1,308 25,285 48,261 56,260 160,260 l 110,0 0,-81 C 270,27 300,0 470,0 640,0 670,27 670,179 l 0,81 200,0 200,0 0,-87 c 0,-99 19,-146 66,-163 14,-6 76,-10 138,-10 101,0 116,2 141,22 39,31 55,77 55,163 l 0,75 190,0 190,0 0,-73 c 0,-56 5,-83 23,-117 28,-56 60,-69 180,-69 158,-1 197,34 197,182 l 0,87 90,0 c 83,0 93,2 115,25 24,23 25,28 25,170 0,141 -7,179 -34,197 -6,4 -53,8 -103,8 l -93,0 0,805 0,805 100,0 c 135,0 135,0 135,203 l 0,149 -28,24 c -25,21 -37,24 -118,24 l -89,0 0,93 c 0,74 -4,98 -20,125 -27,45 -53,52 -184,52 -101,0 -116,-2 -141,-22 -40,-31 -55,-77 -55,-168 l 0,-80 -189,0 -189,0 -4,93 c -6,149 -39,177 -206,177 -153,0 -192,-37 -192,-182 l 0,-88 -200,0 -200,0 0,83 c 0,150 -39,187 -200,187 -70,0 -104,-5 -130,-18 z m 1779,-1452 -2,-1340 -63,0 -64,0 0,1340 0,1340 65,0 66,0 -2,-1340 z m -1579,-10 0,-1340 -70,0 -70,0 0,1340 0,1340 70,0 70,0 0,-1340 z m 790,0 0,-1340 -65,0 -65,0 0,1340 0,1340 65,0 65,0 0,-1340 z m -260,5 0,-805 -200,0 -200,0 0,805 0,805 200,0 200,0 0,-805 z m 780,-10 0,-805 -190,0 -190,0 0,805 0,805 190,0 190,0 0,-805 z"
         id="path3808" />
      <path
         d="m 2602,2670 c -34,-14 -42,-50 -42,-199 0,-125 2,-141 21,-165 l 20,-26 154,0 155,0 17,27 c 15,23 18,50 18,176 l 0,149 -28,24 c -27,23 -35,24 -160,23 -73,0 -142,-4 -155,-9 z m 208,-195 0,-65 -60,0 -60,0 0,65 0,65 60,0 60,0 0,-65 z"
         id="path3810" />
    </g>
    <path
       d="m 15.421534,962.92656 c -3.635361,0.009 -6.9284313,1.79492 -6.9148276,3.75 l 0,22.78125 c -0.013574,1.95508 3.2794666,3.74096 6.9148276,3.75 l 64.79019,0 c 3.654737,0.007 6.986598,-1.78451 6.972935,-3.75 l 0,-22.78125 c 0.01357,-1.96549 -3.318198,-3.75735 -6.972935,-3.75 z"
       id="rect3984"
       style="font-size:medium;font-style:normal;font-variant:normal;font-weight:normal;font-stretch:normal;text-indent:0;text-align:start;text-decoration:none;line-height:normal;letter-spacing:normal;word-spacing:normal;text-transform:none;direction:ltr;block-progression:tb;writing-mode:lr-tb;text-anchor:start;baseline-shift:baseline;color:#000000;fill:#000000;fill-opacity:1;fill-rule:nonzero;stroke:none;stroke-width:7.47137117;marker:none;visibility:visible;display:inline;overflow:visible;enable-background:accumulate;font-family:Sans;-inkscape-font-specification:Sans" />
  </g>
</svg>
