<?xml version="1.0" encoding="UTF-8" standalone="no"?>
<!-- Created with Inkscape (http://www.inkscape.org/) -->

<svg
   xmlns:dc="http://purl.org/dc/elements/1.1/"
   xmlns:cc="http://creativecommons.org/ns#"
   xmlns:rdf="http://www.w3.org/1999/02/22-rdf-syntax-ns#"
   xmlns:svg="http://www.w3.org/2000/svg"
   xmlns="http://www.w3.org/2000/svg"
   version="1.0"
   width="468pt"
   height="429pt"
   viewBox="0 0 468 429"
   id="svg2">
  <defs
     id="defs28" />
  <metadata
     id="metadata4">
Created by potrace 1.8, written by Peter Selinger 2001-2007
<rdf:RDF>
  <cc:Work
     rdf:about="">
    <dc:format>image/svg+xml</dc:format>
    <dc:type
       rdf:resource="http://purl.org/dc/dcmitype/StillImage" />
    <dc:title></dc:title>
  </cc:Work>
</rdf:RDF>
</metadata>
  <g
     transform="matrix(0.158108,0,0,-0.15877883,0,430.81829)"
     id="g6"
     style="fill:#000000;stroke:none">
    <path
       d="M 358,2668 C 250,2552 155,2402 97,2254 -62,1856 -12,1424 233,1060 294,970 399,860 424,860 c 10,0 31,13 47,30 37,36 33,57 -22,117 -116,127 -222,321 -265,488 -32,124 -44,342 -24,462 36,224 135,438 277,593 60,67 67,83 48,119 -28,56 -74,55 -127,-1 z"
       id="path8" />
    <path
       d="m 2492,2687 c -35,-37 -28,-66 33,-136 140,-160 232,-345 271,-548 21,-106 23,-307 5,-413 -37,-208 -135,-411 -276,-569 -65,-73 -70,-109 -23,-144 40,-30 68,-16 140,68 305,362 396,837 243,1265 -58,161 -166,338 -276,452 -52,55 -83,61 -117,25 z"
       id="path10" />
    <path
       d="m 629,2533 c -39,-10 -170,-188 -224,-305 -138,-300 -133,-627 15,-924 57,-114 172,-264 213,-278 37,-13 81,19 85,62 3,25 -6,41 -45,84 -308,340 -306,871 3,1219 51,57 56,88 19,124 -24,24 -33,27 -66,18 z"
       id="path12" />
    <path
       d="m 2282,2530 c -20,-8 -42,-45 -42,-70 0,-5 22,-35 48,-67 162,-196 232,-380 232,-613 0,-232 -70,-418 -232,-613 -26,-32 -48,-68 -48,-78 0,-26 43,-69 69,-69 28,0 81,49 139,128 104,140 167,292 197,472 51,301 -53,647 -258,864 -54,57 -65,62 -105,46 z"
       id="path14" />
    <path
       d="m 803,2323 c -52,-56 -118,-161 -147,-234 -110,-278 -54,-603 141,-807 43,-45 55,-53 75,-47 59,18 79,83 37,121 -45,40 -119,167 -145,247 -22,67 -27,101 -27,187 0,166 40,283 142,410 57,71 64,107 29,140 -33,31 -65,25 -105,-17 z"
       id="path16" />
    <path
       d="m 2055,2335 c -36,-35 -31,-58 25,-128 165,-204 195,-461 81,-692 -22,-44 -60,-104 -85,-133 -25,-30 -46,-63 -46,-73 0,-53 52,-89 95,-66 33,17 107,110 148,187 60,109 89,226 90,360 1,175 -45,322 -148,465 -76,106 -115,126 -160,80 z"
       id="path18" />
    <path
       d="m 990,2073 c -131,-148 -132,-382 -3,-540 39,-49 79,-57 113,-23 28,28 25,63 -11,113 -46,63 -60,105 -61,177 0,76 11,107 58,172 37,53 42,82 18,116 -25,36 -75,30 -114,-15 z"
       id="path20" />
    <path
       d="m 1860,2088 c -26,-29 -25,-60 4,-95 62,-74 89,-178 67,-260 -6,-22 -29,-68 -51,-101 -46,-69 -49,-90 -17,-120 36,-34 69,-28 112,19 129,143 129,395 0,538 -43,48 -82,54 -115,19 z"
       id="path22" />
  </g>
  <path
     d="m 235.40068,104.16282 c -22.25672,0 -40.29116,18.67642 -40.29116,41.26358 0,22.58716 18.03444,41.25375 40.29116,41.25375 22.25672,0 40.30091,-18.66659 40.30091,-41.25375 0,-22.58716 -18.04419,-41.26358 -40.30091,-41.26358 z m 0,16.81582 c 13.02795,0 23.59673,10.74631 23.59673,24.44776 0,13.70145 -10.56878,24.44776 -23.59673,24.44776 -13.02795,0 -23.58697,-10.74631 -23.58697,-24.44776 0,-13.70145 10.55902,-24.44776 23.58697,-24.44776 z"
     id="path3005"
     style="font-size:medium;font-style:normal;font-variant:normal;font-weight:normal;font-stretch:normal;text-indent:0;text-align:start;text-decoration:none;line-height:normal;letter-spacing:normal;word-spacing:normal;text-transform:none;direction:ltr;block-progression:tb;writing-mode:lr-tb;text-anchor:start;baseline-shift:baseline;color:#000000;fill:#000000;fill-opacity:1;stroke:none;stroke-width:53.47190857;marker:none;visibility:visible;display:inline;overflow:visible;enable-background:accumulate;font-family:Sans;-inkscape-font-specification:Sans" />
  <path
     d="m 244.675,178 -16.725,0.275 1.825,107.25 L 246.5,285.25 244.675,178 z"
     id="path3775"
     style="font-size:medium;font-style:normal;font-variant:normal;font-weight:normal;font-stretch:normal;text-indent:0;text-align:start;text-decoration:none;line-height:normal;letter-spacing:normal;word-spacing:normal;text-transform:none;direction:ltr;block-progression:tb;writing-mode:lr-tb;text-anchor:start;baseline-shift:baseline;color:#000000;fill:#000000;fill-opacity:1;stroke:none;stroke-width:20.89999962;marker:none;visibility:visible;display:inline;overflow:visible;enable-background:accumulate;font-family:Sans;-inkscape-font-specification:Sans" />
  <g
     transform="scale(1.1222492,0.89106766)"
     id="text3777"
     style="font-size:181.25720215px;font-style:normal;font-weight:normal;line-height:125%;letter-spacing:0px;word-spacing:0px;fill:#000000;fill-opacity:1;font-family:Sans">
    <g
       transform="scale(0.78488821,1.2740668)"
       id="text3002"
       style="font-size:129.41357422px;font-weight:bold;fill:#000000;stroke:none;font-family:Sans;-inkscape-font-specification:Sans Bold">
      <path
         d="M 8.8455324,333.44722 27.044316,331.6779 c 1.095273,6.10841 3.317461,10.59491 6.666569,13.45951 3.349049,2.86464 7.867145,4.29695 13.554302,4.29694 6.024086,1e-5 10.563245,-1.27432 13.617493,-3.82301 3.054134,-2.54865 4.58123,-5.52912 4.581291,-8.94142 -6.1e-5,-2.19056 -0.642494,-4.05467 -1.927302,-5.59233 -1.284926,-1.5376 -3.528176,-2.87512 -6.729758,-4.01258 -2.190645,-0.75824 -7.182668,-2.1063 -14.976083,-4.04417 -10.026209,-2.48544 -17.06138,-5.53963 -21.105534,-9.16259 -5.687131,-5.09729 -8.530688,-11.31098 -8.53068,-18.64111 -8e-6,-4.71813 1.337517,-9.13091 4.012579,-13.23835 2.675038,-4.10728 6.529638,-7.23519 11.563811,-9.38375 5.034126,-2.14838 11.110912,-3.22261 18.230379,-3.2227 11.626947,9e-5 20.378784,2.54876 26.255537,7.64601 5.876617,5.09743 8.962403,11.9009 9.257367,20.41045 l -18.704305,0.82147 c -0.800467,-4.76026 -2.517133,-8.18306 -5.150003,-10.26841 -2.632977,-2.0852 -6.582362,-3.12784 -11.848167,-3.12792 -5.434395,8e-5 -9.689199,1.11644 -12.764425,3.34908 -1.979987,1.43239 -2.969966,3.34916 -2.96994,5.75031 -2.6e-5,2.19067 0.926763,4.06531 2.78037,5.62393 2.35907,1.98003 8.088311,4.04424 17.18774,6.19265 9.099337,2.14852 15.829089,4.37071 20.189276,6.66656 4.360055,2.29596 7.772323,5.43441 10.236816,9.41535 2.46434,3.98102 3.696548,8.89932 3.696628,14.75491 -8e-5,5.308 -1.474517,10.27896 -4.423316,14.9129 -2.948949,4.63395 -7.1195,8.07782 -12.511664,10.3316 -5.39229,2.25378 -12.11151,3.38067 -20.15768,3.38067 -11.711286,0 -20.705352,-2.70664 -26.982225,-8.11994 -6.276905,-5.41328 -10.026188,-13.30152 -11.2478596,-23.66474 z"
         id="path3007" />
      <path
         d="m 159.30145,329.52943 18.13559,5.75031 c -2.78045,10.11045 -7.40386,17.61955 -13.87025,22.52731 -6.46653,4.90778 -14.67072,7.36166 -24.61259,7.36166 -12.30107,0 -22.41149,-4.20214 -30.33131,-12.60644 -7.91985,-8.40429 -11.879767,-19.89436 -11.879761,-34.47027 -6e-6,-15.41835 3.980971,-27.39289 11.942951,-35.92364 7.96194,-8.53059 18.43045,-12.79593 31.40554,-12.79602 11.33205,9e-5 20.53675,3.34917 27.61413,10.04724 4.2126,3.96 7.37211,9.64712 9.47853,17.06136 l -18.51473,4.42332 c -1.09537,-4.80239 -3.38075,-8.5938 -6.85614,-11.37424 -3.47552,-2.78029 -7.69873,-4.17048 -12.66964,-4.17056 -6.86671,8e-5 -12.43798,2.4645 -16.71382,7.39326 -4.2759,4.9289 -6.41383,12.91193 -6.4138,23.94909 -3e-5,11.71129 2.10631,20.05239 6.31902,25.02333 4.21264,4.97098 9.68912,7.45646 16.42946,7.45645 4.97091,10e-6 9.24677,-1.57974 12.82761,-4.73927 3.58072,-3.15949 6.15045,-8.13045 7.70921,-14.91289 z"
         id="path3009" />
      <path
         d="m 252.82299,329.52943 18.13559,5.75031 c -2.78045,10.11045 -7.40387,17.61955 -13.87025,22.52731 -6.46654,4.90778 -14.67073,7.36166 -24.6126,7.36166 -12.30106,0 -22.41149,-4.20214 -30.3313,-12.60644 -7.91985,-8.40429 -11.87977,-19.89436 -11.87976,-34.47027 -1e-5,-15.41835 3.98097,-27.39289 11.94295,-35.92364 7.96194,-8.53059 18.43044,-12.79593 31.40554,-12.79602 11.33205,9e-5 20.53675,3.34917 27.61413,10.04724 4.2126,3.96 7.3721,9.64712 9.47853,17.06136 l -18.51474,4.42332 c -1.09536,-4.80239 -3.38074,-8.5938 -6.85613,-11.37424 -3.47552,-2.78029 -7.69873,-4.17048 -12.66964,-4.17056 -6.86672,8e-5 -12.43798,2.4645 -16.71382,7.39326 -4.2759,4.9289 -6.41383,12.91193 -6.41381,23.94909 -2e-5,11.71129 2.10632,20.05239 6.31903,25.02333 4.21264,4.97098 9.68912,7.45646 16.42945,7.45645 4.97092,10e-6 9.24678,-1.57974 12.82762,-4.73927 3.58071,-3.15949 6.15045,-8.13045 7.70921,-14.91289 z"
         id="path3011" />
      <path
         d="m 334.27518,313.60549 c -4.59184,-1.93778 -7.93038,-4.6023 -10.01565,-7.99356 -2.08528,-3.39115 -3.12792,-7.10883 -3.12791,-11.15307 -10e-6,-6.90873 2.41175,-12.6169 7.23528,-17.12455 4.8235,-4.50748 11.67963,-6.76126 20.56841,-6.76136 8.80446,1e-4 15.63953,2.25388 20.50523,6.76136 4.86559,4.50765 7.29841,10.21582 7.29847,17.12455 -6e-5,4.297 -1.11642,8.12 -3.34908,11.46902 -2.23278,3.34914 -5.37122,5.90834 -9.41534,7.67761 5.13941,2.06427 9.04667,5.07633 11.72178,9.03621 2.67499,3.95995 4.01252,8.53071 4.01258,13.71227 -6e-5,8.55177 -2.72777,15.50268 -8.18313,20.85278 -5.45548,5.3501 -12.71181,8.02515 -21.76903,8.02515 -8.42539,0 -15.4395,-2.21165 -21.04235,-6.63497 -6.61392,-5.22371 -9.92087,-12.38526 -9.92086,-21.48467 -1e-5,-5.01306 1.24273,-9.61541 3.72822,-13.80707 2.48547,-4.19157 6.40326,-7.4248 11.75338,-9.6997 z m 3.66504,-17.88283 c -3e-5,3.53872 1.00048,6.29802 3.00153,8.27792 2.00099,1.98002 4.66551,2.97 7.99356,2.96994 3.37011,6e-5 6.06622,-1.00045 8.08835,-3.00154 2.02204,-2.00096 3.03309,-4.77079 3.03313,-8.30951 -4e-5,-3.32795 -1.00055,-5.99247 -3.00153,-7.99356 -2.00107,-2.00095 -4.64452,-3.00146 -7.93038,-3.00154 -3.4123,8e-5 -6.12948,1.01112 -8.15153,3.03313 -2.02212,2.02216 -3.03316,4.69721 -3.03313,8.02516 z m -1.64295,39.68346 c -2e-5,4.88673 1.25325,8.69921 3.75982,11.43743 2.50651,2.73826 5.63443,4.10738 9.38375,4.10736 3.66499,2e-5 6.69812,-1.31644 9.09939,-3.94938 2.40118,-2.63291 3.60179,-6.43485 3.60184,-11.40584 -5e-5,-4.33903 -1.22172,-7.82502 -3.66503,-10.45798 -2.4434,-2.63289 -5.53972,-3.94935 -9.28897,-3.94939 -4.33909,4e-5 -7.57232,1.49554 -9.69969,4.48651 -2.12743,2.99103 -3.19113,6.2348 -3.19111,9.73129 z"
         id="path3013" />
      <path
         d="m 451.24026,293.63738 -17.18774,1.89571 c -0.42131,-3.53858 -1.51661,-6.15044 -3.28589,-7.83559 -1.76937,-1.68499 -4.06528,-2.52753 -6.88773,-2.52761 -3.74932,8e-5 -6.91936,1.68515 -9.51013,5.05522 -2.59083,3.37022 -4.22324,10.38432 -4.89724,21.04235 4.42329,-5.22367 9.92083,-7.83553 16.49265,-7.83559 7.41427,6e-5 13.76488,2.82255 19.05185,8.46749 5.28685,5.64504 7.9303,12.93297 7.93037,21.86381 -7e-5,9.47856 -2.78043,17.08244 -8.34111,22.81167 -5.56079,5.72925 -12.70128,8.59387 -21.42148,8.59387 -9.35218,0 -17.04032,-3.63343 -23.06443,-10.90031 -6.02415,-7.26686 -9.03621,-19.1782 -9.03621,-35.73407 0,-16.97704 3.13844,-29.21487 9.41535,-36.71352 6.27687,-7.49848 14.4284,-11.24776 24.45461,-11.24786 7.03513,1e-4 12.85916,1.96952 17.4721,5.90829 4.61282,3.93894 7.55117,9.65765 8.81503,17.15614 z m -40.25217,38.73561 c -2e-5,5.7714 1.32697,10.2263 3.98099,13.36473 2.65395,3.13846 5.68708,4.70769 9.09939,4.70767 3.28585,2e-5 6.02409,-1.28485 8.21473,-3.8546 2.19054,-2.56972 3.28584,-6.78239 3.28589,-12.63805 -5e-5,-6.02409 -1.1796,-10.43687 -3.53865,-13.23835 -2.35915,-2.80138 -5.30802,-4.2021 -8.84663,-4.20215 -3.41231,5e-5 -6.29799,1.33758 -8.65706,4.01258 -2.35913,2.6751 -3.53868,6.62448 -3.53866,11.84817 z"
         id="path3015" />
      <path
         d="m 478.34888,313.60549 c -4.59184,-1.93778 -7.93038,-4.6023 -10.01565,-7.99356 -2.08528,-3.39115 -3.12792,-7.10883 -3.12791,-11.15307 -10e-6,-6.90873 2.41175,-12.6169 7.23528,-17.12455 4.8235,-4.50748 11.67963,-6.76126 20.56841,-6.76136 8.80446,1e-4 15.63953,2.25388 20.50523,6.76136 4.86559,4.50765 7.29841,10.21582 7.29847,17.12455 -6e-5,4.297 -1.11642,8.12 -3.34908,11.46902 -2.23278,3.34914 -5.37122,5.90834 -9.41534,7.67761 5.13941,2.06427 9.04667,5.07633 11.72178,9.03621 2.67499,3.95995 4.01252,8.53071 4.01258,13.71227 -6e-5,8.55177 -2.72777,15.50268 -8.18313,20.85278 -5.45548,5.3501 -12.71181,8.02515 -21.76903,8.02515 -8.42539,0 -15.4395,-2.21165 -21.04235,-6.63497 -6.61392,-5.22371 -9.92087,-12.38526 -9.92086,-21.48467 -10e-6,-5.01306 1.24273,-9.61541 3.72822,-13.80707 2.48547,-4.19157 6.40326,-7.4248 11.75338,-9.6997 z m 3.66504,-17.88283 c -3e-5,3.53872 1.00048,6.29802 3.00153,8.27792 2.00099,1.98002 4.66551,2.97 7.99356,2.96994 3.37011,6e-5 6.06622,-1.00045 8.08835,-3.00154 2.02204,-2.00096 3.03309,-4.77079 3.03313,-8.30951 -4e-5,-3.32795 -1.00055,-5.99247 -3.00153,-7.99356 -2.00107,-2.00095 -4.64452,-3.00146 -7.93038,-3.00154 -3.4123,8e-5 -6.12948,1.01112 -8.15153,3.03313 -2.02212,2.02216 -3.03316,4.69721 -3.03313,8.02516 z m -1.64295,39.68346 c -2e-5,4.88673 1.25325,8.69921 3.75982,11.43743 2.50651,2.73826 5.63443,4.10738 9.38375,4.10736 3.66499,2e-5 6.69812,-1.31644 9.09939,-3.94938 2.40118,-2.63291 3.60179,-6.43485 3.60184,-11.40584 -5e-5,-4.33903 -1.22172,-7.82502 -3.66503,-10.45798 -2.4434,-2.63289 -5.53972,-3.94935 -9.28897,-3.94939 -4.33909,4e-5 -7.57232,1.49554 -9.69969,4.48651 -2.12743,2.99103 -3.19113,6.2348 -3.19111,9.73129 z"
         id="path3017" />
    </g>
  </g>
</svg>
