<?xml version="1.0" encoding="UTF-8" standalone="no"?>
<!-- Created with Inkscape (http://www.inkscape.org/) -->

<svg
   xmlns:dc="http://purl.org/dc/elements/1.1/"
   xmlns:cc="http://creativecommons.org/ns#"
   xmlns:rdf="http://www.w3.org/1999/02/22-rdf-syntax-ns#"
   xmlns:svg="http://www.w3.org/2000/svg"
   xmlns="http://www.w3.org/2000/svg"
   version="1.0"
   width="468pt"
   height="470pt"
   viewBox="0 0 468 470"
   id="svg8165">


  <g
     transform="matrix(1.4343826,0,0,1.4343826,-20.500454,-78.214914)"
     fill="#000000">
    <path
       d="m 67.428571,60.862183 c -7,0 -10.00001,3 -10,10 l 0,54.999997 c 0,10 -10e-6,10 10,10 l 0,65 c -10,0 -10.00001,0 -10,10 l 0,155 c 0,7 2.99999,10 10,10 l 219.999999,0 c 7,0 10.00003,-3 10,-10 l 0,-195 -5,0 0,-15 5,0 0,-55 -40,-39.999997 -189.999999,0 z m 30,39.999997 159.999999,0 c 15.00003,0 20,5 20,20 l 0,220 c 3e-5,15 -5,20 -20,20 l -159.999999,0 c -15.00001,0 -20,-5 -20,-20 l 0,-220 c -1e-5,-15 5,-20 20,-20 z"
       id="path2508" />
    <path
       d="m 170.29065,247.79415 c 2.64505,-11.5186 -7.41071,-16.91914 -19.35712,-20.4658 -8.09158,-2.39199 -22.78425,-5.72248 -22.78425,-8.60215 0,-3.68464 9.86258,-3.57888 16.72595,-3.76752 7.46592,-0.2024 36.428,-0.23917 36.428,-0.23917 l 3.69386,-10.46058 c 0,0 -20.85217,-0.55201 -41.52026,0.47847 -29.79937,1.47661 -35.3701,8.09613 -36.03708,14.42116 -0.92005,8.21578 10.14319,13.89693 16.84548,16.46378 6.39868,2.43343 16.52355,4.24586 16.52355,7.39226 0,2.57607 -3.82273,2.77848 -14.8031,2.57607 -17.02034,-0.31738 -31.312739,-2.01028 -31.312739,-2.01028 l -6.68852,18.44173 c 0,0 16.233709,1.11324 33.543769,1.11324 24.66568,-0.005 45.01638,0.94759 48.74246,-15.34121 m 50.03965,-24.32063 c 0.19785,0.42314 0.33582,0.86017 0.40948,1.28798 0.2805,1.71123 -0.43248,3.40869 -2.01951,5.01872 -1.6238,1.62836 -4.11244,3.16484 -7.28196,4.51725 -3.23383,1.36619 -7.13932,2.51619 -11.54615,3.39025 -4.4115,0.86484 -11.78544,1.58704 -16.88692,1.771 l -8.37675,23.56166 c 19.30658,-0.8464 72.74114,-0.67165 93.28048,-26.1745 2.5714,-4.06645 3.04065,-8.2571 0.81418,-12.28223 -2.49319,-4.57703 -7.25429,-8.14213 -12.96766,-10.94816 l -35.89899,9.04374 c 0.18863,0.27606 0.35427,0.56123 0.4738,0.81429 m -3.03598,-3.2385 c 0.16097,0.10576 0.30816,0.2254 0.4829,0.34038 l 30.36515,-10.0511 c -2.0746,-0.90172 -4.94506,-1.96885 -7.06566,-2.5393 l -26.2987,10.58933 c 0.7452,0.39571 1.9182,1.24666 2.51631,1.66069 m -8.6206,-3.54211 17.93106,-11.15056 c -4.35618,-0.61644 -7.96272,-0.91082 -10.06032,-0.97981 -8.39519,-0.19319 -11.71179,-0.34038 -21.02691,-0.31283 l -3.70775,10.47902 c 2.2909,0.0644 3.31204,-0.009 7.19453,0.35415 3.53289,0.32205 6.79894,0.8925 9.66939,1.61003"
       id="path2504"/>
  </g>
</svg>
