<svg id="Capa_1" enable-background="new 0 0 512 512" height="512" viewBox="0 0 512 512" width="512" xmlns="http://www.w3.org/2000/svg"><g><path d="m316 241h-30c-8.291 0-15 6.709-15 15s6.709 15 15 15h30c8.291 0 15-6.709 15-15s-6.709-15-15-15z"/><path d="m406 241h-30c-8.291 0-15 6.709-15 15s6.709 15 15 15h30c8.291 0 15-6.709 15-15s-6.709-15-15-15z"/><path d="m496 241h-30c-8.291 0-15 6.709-15 15s6.709 15 15 15h30c8.291 0 15-6.709 15-15s-6.709-15-15-15z"/><path d="m497 361c-8.438 0-12.041-3.252-19.395-10.605-8.188-8.189-20.394-19.395-41.605-19.395s-32.417 11.206-40.605 19.395c-7.354 7.353-10.957 10.605-19.395 10.605s-12.041-3.252-19.395-10.605c-8.188-8.189-19.394-19.395-40.605-19.395s-32.417 11.206-40.605 19.395c-7.354 7.353-10.957 10.605-19.395 10.605s-12.041-3.252-19.395-10.605c-8.188-8.189-20.394-19.395-41.605-19.395-5.715 0-10.602.899-15 2.249v75c4.398-1.349 9.285-2.249 15-2.249 21.211 0 33.417 11.206 41.605 19.395 7.354 7.353 10.958 10.605 19.395 10.605s12.041-3.252 19.395-10.605c8.188-8.189 19.394-19.395 40.605-19.395s32.417 11.206 40.605 19.395c7.354 7.353 10.958 10.605 19.395 10.605s12.041-3.252 19.395-10.605c8.188-8.189 19.394-19.395 40.605-19.395s33.417 11.206 41.605 19.395c8.225 8.214 14.453 14.013 34.395 8.015v-57.41c0-8.291-6.709-15-15-15z"/><path d="m455.395 446.606c-7.354-7.354-10.957-10.606-19.395-10.606s-12.041 3.252-19.395 10.605c-8.188 8.189-19.394 19.395-40.605 19.395s-32.417-11.206-40.605-19.395c-7.354-7.353-10.957-10.605-19.395-10.605s-12.041 3.252-19.395 10.605c-8.188 8.189-19.394 19.395-40.605 19.395s-32.417-11.206-40.605-19.395c-7.354-7.353-11.957-10.605-20.395-10.605-6.563 0-10.247 2.042-15 6.378v69.622h317c8.291 0 15-6.709 15-15v-32.838c-28.414 5.833-43.792-4.743-56.605-17.556z"/><path d="m226 241h-46v30h46c8.291 0 15-6.709 15-15s-6.709-15-15-15z"/><path d="m101.529 5.12c-5.713-6.826-17.344-6.826-23.057 0l-75 91.271c-3.721 4.482-4.526 10.708-2.051 15.967 2.461 5.273 7.764 8.642 13.579 8.642 6.442 0 78.964 0 75 0 8.291 0 15 6.709 15 15s-6.709 15-15 15h-60v30h30c8.291 0 15 6.709 15 15s-6.709 15-15 15h-30v30h60c8.291 0 15 6.709 15 15s-6.709 15-15 15h-60v30h30c8.291 0 15 6.709 15 15s-6.709 15-15 15h-30v30h60c8.291 0 15 6.709 15 15s-6.709 15-15 15h-60v30h30c8.291 0 15 6.709 15 15s-6.709 15-15 15h-30v46c0 8.291 6.709 15 15 15h90c8.291 0 15-6.709 15-15v-376h15c5.815 0 11.118-3.369 13.579-8.643 2.476-5.259 1.67-11.484-2.051-15.967z"/></g></svg>