<?xml version="1.0" encoding="UTF-8" standalone="no"?>
<!-- Created with Inkscape (http://www.inkscape.org/) -->

<svg
   xmlns:dc="http://purl.org/dc/elements/1.1/"
   xmlns:cc="http://creativecommons.org/ns#"
   xmlns:rdf="http://www.w3.org/1999/02/22-rdf-syntax-ns#"
   xmlns:svg="http://www.w3.org/2000/svg"
   xmlns="http://www.w3.org/2000/svg"
   version="1.0"
   width="468pt"
   height="467pt"
   viewBox="0 0 468 467"
   id="svg2">
  <defs
     id="defs14" />
  <metadata
     id="metadata4">
Created by potrace 1.8, written by Peter Selinger 2001-2007
<rdf:RDF>
  <cc:Work
     rdf:about="">
    <dc:format>image/svg+xml</dc:format>
    <dc:type
       rdf:resource="http://purl.org/dc/dcmitype/StillImage" />
    <dc:title></dc:title>
  </cc:Work>
</rdf:RDF>
</metadata>
  <g
     transform="matrix(0.157576,0,0,-0.157576,0,467)"
     id="g6"
     style="fill:#000000;stroke:none">
    <path
       d="m 2832.2799,2552.5752 c -1077.9819,0 -1260.3595,316.1571 -1261.9882,319.1219 -7.9085,15.4567 -27.4486,25.7925 -49.5497,26.1518 0,0 -0.4586,0 -0.9397,0 -21.4001,0 -41.1737,-10.3359 -49.781,-25.4333 -1.2829,-3.3244 -187.6104,-319.8404 -1261.52314,-319.8404 -30.00976,0 -53.73561,-18.7826 -53.73561,-41.4299 V 1094.4624 c 0,-579.91916 1289.20555,-1022.969679 1343.75665,-1041.572037 7.2097,-2.426868 14.0736,-3.326089 21.8651,-3.326089 7.0955,0 14.7726,0.902784 21.6339,3.326089 55.0163,18.602358 1343.9904,461.652877 1343.9904,1041.572037 v 1416.6829 c -0.2305,22.6473 -24.0762,41.4299 -53.7379,41.4299 z M 2589.4195,1176.8727 c 0,-453.74564 -1009.3572,-800.90622 -1052.2763,-815.28503 -5.2352,-2.06753 -11.3976,-2.78617 -16.8664,-2.78617 -5.9315,0 -11.3979,0.72576 -16.981,2.78617 -42.4547,14.37881 -1052.16204,361.53939 -1052.16204,815.28503 v 1108.883 c 0,17.884 18.72656,32.6219 42.10632,32.6219 840.82162,0 986.56162,247.6772 987.95672,250.1041 6.6301,11.9519 21.9825,20.0397 38.8485,20.0397 0.2307,0 0.6874,0 0.6874,0 17.2144,-0.1788 32.4519,-8.2665 38.6171,-20.5798 1.3972,-2.2461 144.2282,-249.564 987.9567,-249.564 23.3798,0 41.9895,-14.7379 41.9895,-32.6219 v -1108.883 z"
       id="path5"
       style="fill:#000000;stroke:none" />
    <g
       transform="matrix(26.145807,0,0,-26.856961,222.23987,2836.5704)"
       id="g3">
      <rect
         width="4.1479998"
         height="4.1479998"
         x="39.563999"
         y="56.884998"
         id="rect5" />
      <rect
         width="4.1479998"
         height="4.1479998"
         x="54.558998"
         y="56.884998"
         id="rect7" />
      <rect
         width="4.1479998"
         height="4.1479998"
         x="46.952999"
         y="49.352001"
         id="rect9" />
      <rect
         width="4.1500001"
         height="4.1479998"
         x="39.490002"
         y="49.352001"
         id="rect11" />
      <rect
         width="4.1479998"
         height="4.1479998"
         x="47.025002"
         y="56.884998"
         id="rect13" />
      <path
         d="m 49.137,23.823 c -14.701,0 -26.621,11.918 -26.621,26.62 0,14.702 11.92,26.62 26.621,26.62 14.701,0 26.619,-11.918 26.619,-26.62 0,-14.702 -11.918,-26.62 -26.619,-26.62 z m 17.25,38.848 c 0,1.204 -0.98,2.184 -2.184,2.184 H 34.07 c -1.205,0 -2.184,-0.979 -2.184,-2.184 V 38.216 c 0,-1.205 0.979,-2.184 2.184,-2.184 h 30.133 c 1.203,0 2.184,0.979 2.184,2.184 v 24.455 z"
         id="path15" />
      <rect
         width="22.709"
         height="6.1139998"
         x="37.672001"
         y="40.290001"
         id="rect17" />
      <rect
         width="4.1479998"
         height="4.1479998"
         x="54.486"
         y="49.352001"
         id="rect19" />
    </g>
  </g>
</svg>
