<?xml version="1.0" encoding="UTF-8" standalone="no"?>
<!-- Created with Inkscape (http://www.inkscape.org/) -->

<svg
   xmlns:dc="http://purl.org/dc/elements/1.1/"
   xmlns:cc="http://creativecommons.org/ns#"
   xmlns:rdf="http://www.w3.org/1999/02/22-rdf-syntax-ns#"
   xmlns:svg="http://www.w3.org/2000/svg"
   xmlns="http://www.w3.org/2000/svg"
   version="1.0"
   width="468pt"
   height="467pt"
   viewBox="0 0 468 467"
   id="svg2">
  <defs
     id="defs14" />
  <metadata
     id="metadata4">
Created by potrace 1.8, written by Peter Selinger 2001-2007
<rdf:RDF>
  <cc:Work
     rdf:about="">
    <dc:format>image/svg+xml</dc:format>
    <dc:type
       rdf:resource="http://purl.org/dc/dcmitype/StillImage" />
    <dc:title></dc:title>
  </cc:Work>
</rdf:RDF>
</metadata>
  <g
     transform="matrix(0.157576,0,0,-0.157576,0,467)"
     id="g6"
     style="fill:#000000;stroke:none">
    <path
       d="m 2626.4548,2470.0003 c -924.3338,0 -1080.7165,288.2789 -1082.1131,290.9823 -6.7813,14.0938 -23.5363,23.5181 -42.4873,23.8458 0,0 -0.3932,0 -0.8057,0 -18.3499,0 -35.3051,-9.4245 -42.6856,-23.1906 -1.1,-3.0313 -160.8697,-291.6375 -1081.71434,-291.6375 -25.73237,0 -46.07651,-17.1264 -46.07651,-37.7766 V 1140.4613 c 0,-528.78289 1105.45105,-932.766 1152.22685,-949.72803 6.1821,-2.21287 12.0677,-3.0328 18.7486,-3.0328 6.0842,0 12.667,0.82318 18.5504,3.0328 47.1747,16.96203 1152.4273,420.94514 1152.4273,949.72803 v 1291.7624 c -0.1977,20.6502 -20.6445,37.7766 -46.0785,37.7766 z M 2418.2101,1215.6049 c 0,-413.73522 -865.4904,-730.2838 -902.2921,-743.3947 -4.489,-1.88522 -9.7732,-2.5405 -14.4624,-2.5405 -5.0861,0 -9.7734,0.66176 -14.5607,2.5405 -36.4035,13.1109 -902.19414,329.65948 -902.19414,743.3947 v 1011.1036 c 0,16.307 16.05741,29.7453 36.10478,29.7453 720.97676,0 845.94396,225.8375 847.14016,228.0504 5.6851,10.898 18.8493,18.2727 33.3114,18.2727 0.1978,0 0.5894,0 0.5894,0 14.7607,-0.1631 27.8264,-7.5376 33.1128,-18.7651 1.1981,-2.0481 123.671,-227.558 847.1403,-227.558 20.0473,0 36.0045,-13.4383 36.0045,-29.7453 V 1215.6049 z"
       id="path5"
       style="fill:#000000;stroke:none" />
  </g>
</svg>
