<?xml version="1.0" encoding="UTF-8" standalone="no"?>
<svg
   xmlns:dc="http://purl.org/dc/elements/1.1/"
   xmlns:cc="http://creativecommons.org/ns#"
   xmlns:rdf="http://www.w3.org/1999/02/22-rdf-syntax-ns#"
   xmlns:svg="http://www.w3.org/2000/svg"
   xmlns="http://www.w3.org/2000/svg"
   version="1.1"
   id="svg2"
   viewBox="0 0 155.575 155.57501"
   height="588"
   width="588">
  <metadata
     id="metadata72">
    <rdf:RDF>
      <cc:Work
         rdf:about="">
        <dc:format>image/svg+xml</dc:format>
        <dc:type
           rdf:resource="http://purl.org/dc/dcmitype/StillImage" />
        <dc:title></dc:title>
      </cc:Work>
    </rdf:RDF>
  </metadata>
  <defs
     id="defs70" />
  <g
     transform="translate(0,3.5838649)"
     id="a90b3bda-94e3-4ce3-b416-76d571c4b2fb">
    <path
       transform="matrix(0.26458334,0,0,0.26458334,0,-3.5838649)"
       id="path98"
       d="m 334.69983,274.25937 c 0,-1.90044 -6.10957,-8.84286 -20.18486,-22.93644 l -20.18486,-20.21108 7.72198,-15.40736 7.72198,-15.40735 15.18301,15.21955 15.18301,15.21955 h 20.30825 20.30824 l 6.18119,15.69487 c 3.39965,8.63217 6.18118,16.82758 6.18118,18.21201 0,1.38443 -2.32764,4.71396 -5.17253,7.39894 -4.05569,3.82773 -6.12731,4.88836 -9.59457,4.91222 -3.4131,0.0235 -4.56728,-0.52494 -5.05858,-2.40369 -0.58351,-2.23132 -1.6601,-2.43414 -12.92114,-2.43414 -11.47321,0 -12.28459,0.16078 -12.28459,2.43414 0,2.13908 -0.81138,2.43413 -6.69386,2.43413 -6.1209,0 -6.69385,-0.23328 -6.69385,-2.72535 z"
       style="fill:#000000;fill-opacity:1;stroke-width:1.2170651" />
    <path
       transform="matrix(0.26458334,0,0,0.26458334,0,-3.5838649)"
       id="path100"
       d="m 357.01726,223.5111 c -9.78338,-0.75131 -10.0338,-0.85305 -16.43038,-6.6754 -8.85895,-8.06366 -16.73731,-16.81556 -16.79388,-18.65595 -0.0546,-1.77545 4.98256,-1.88513 33.07132,-0.72014 l 19.12184,0.79309 6.91576,6.95218 c 17.97714,18.07183 13.3819,21.32168 -25.88466,18.30622 z"
       style="fill:#000000;fill-opacity:1;stroke-width:1.2170651" />
    <path
       transform="matrix(0.26458334,0,0,0.26458334,0,-3.5838649)"
       id="path102"
       d="m 381.62363,182.05364 c -2.24737,-2.34285 -9.69465,-13.57028 -16.5495,-24.94984 -16.45042,-27.30887 -28.22722,-44.47142 -47.40571,-69.085174 -8.70615,-11.173501 -15.82935,-20.950614 -15.82935,-21.726917 0,-0.983974 1.9352,-1.190513 6.38959,-0.681943 3.51427,0.401235 12.96174,1.100358 20.99437,1.553609 13.81579,0.779571 15.00004,1.05587 21.92126,5.114457 6.78895,3.981024 8.98277,6.577835 30.42663,36.015878 32.06764,44.02231 49.20676,74.58109 43.03977,76.73925 -0.9205,0.32214 -10.04978,0.74201 -20.28729,0.93305 l -18.61364,0.34735 z"
       style="fill:#000000;fill-opacity:1;stroke-width:1.2170651" />
    <path
       transform="matrix(0.26458334,0,0,0.26458334,0,-3.5838649)"
       id="path104"
       d="M 384.9353,101.39199 C 372.31421,83.528981 359.93279,70.216925 351.64863,65.603353 c -6.63484,-3.695035 -8.18813,-3.990691 -34.03062,-6.477424 -24.00901,-2.310303 -27.28436,-2.399766 -28.8949,-0.789236 -1.61053,1.610531 0.33584,4.552122 17.17068,25.950467 22.29055,28.33298 22.32068,28.10769 -2.64797,19.80366 C 281.12952,96.735423 269.62276,91.505538 248.40096,79.163535 233.08724,70.257502 226.84122,65.722095 214.33373,54.426383 195.40755,37.333852 190.23557,29.508049 192.34058,21.148264 c 1.29769,-5.153582 1.50766,-5.324017 11.32499,-9.192937 l 10.00278,-3.9420047 h 23.30622 c 22.73029,0 23.69188,0.103568 38.91283,4.1911267 34.26626,9.202138 51.09785,16.58495 76.45793,33.536598 21.6633,14.480579 27.09242,19.824877 37.16541,36.584775 6.03127,10.035082 6.04234,10.073233 6.04234,20.812838 0,5.91763 -0.41076,10.74534 -0.9128,10.72825 -0.50204,-0.0171 -4.86928,-5.6308 -9.70498,-12.47492 z"
       style="fill:#000000;fill-opacity:1;stroke-width:1.2170651" />
    <path
       transform="matrix(0.26458334,0,0,0.26458334,0,-3.5838649)"
       id="path106"
       d="m 331.65716,187.31666 c -45.26651,-5.67297 -132.11051,-43.03943 -156.48846,-67.33245 -6.73635,-6.71287 -14.52465,-20.207152 -14.46797,-25.067691 0.0227,-1.94383 5.36925,-15.921433 11.88131,-31.061341 l 11.84009,-27.527107 13.98133,14.822092 c 12.81522,13.585869 15.90669,16.084757 37.06618,29.961236 12.69667,8.326529 27.66892,17.185756 33.27165,19.687171 12.4971,5.57949 36.28341,14.16945 50.0259,18.06587 9.4395,2.67639 10.54379,3.32826 14.22011,8.39417 5.93068,8.17234 17.65456,27.21593 24.10835,39.16022 5.56855,10.30591 5.66051,10.65223 4.28217,16.12611 l -1.40859,5.59402 -12.33043,-0.18235 c -6.78175,-0.1003 -13.97348,-0.38827 -15.98164,-0.63995 z"
       style="fill:#000000;fill-opacity:1;stroke-width:1.2170651" />
    <path
       transform="matrix(0.26458334,0,0,0.26458334,0,-3.5838649)"
       id="path108"
       d="m 122.37565,514.79722 -29.15588,-1.62652 -5.314269,-5.31428 -5.31427,-5.31427 -0.829729,-49.18706 c -0.761293,-45.1301 -0.61252,-51.39581 1.803745,-75.96609 8.568914,-87.13476 27.319103,-164.70289 61.738423,-255.40723 3.01204,-7.93755 5.75434,-14.70982 6.094,-15.04947 0.8184,-0.8184 5.55957,4.65936 11.85702,13.69912 13.23474,18.998 56.45786,42.47047 116.07117,63.03286 20.78701,7.17005 20.07908,6.83984 20.07908,9.36588 0,1.20816 -4.65528,12.57279 -10.34506,25.25473 -5.68978,12.68195 -10.34505,24.37781 -10.34505,25.99081 0,1.74429 2.25763,5.51354 5.57118,9.30142 l 5.57116,6.36868 h 10.61647 10.61647 l 7.24087,8.74839 c 3.98247,4.81162 7.91916,9.68741 8.74822,10.8351 1.24787,1.72749 0.0432,7.6592 -6.99813,34.45707 -5.55767,21.15148 -8.50548,34.68238 -8.50548,39.04138 0,7.90112 2.31453,6.96331 -25.1096,10.1741 -18.87131,2.20945 -19.99262,2.49722 -28.90928,7.41933 -5.10206,2.81639 -9.88554,6.25878 -10.62997,7.64975 -0.74441,1.39096 -1.61329,8.06068 -1.93082,14.8216 -0.5086,10.8294 -0.12973,14.09975 3.18307,27.47534 2.06822,8.35053 3.76041,16.06844 3.76041,17.15091 0,1.31739 -2.91742,3.09861 -8.82373,5.38733 -25.05447,9.70866 -37.88392,18.12925 -53.4639,35.09094 -10.5633,11.50012 -13.52232,15.65462 -18.59866,26.11273 l -6.03678,12.43678 -6.7424,-0.1614 c -3.70833,-0.0887 -19.86255,-0.89334 -35.89828,-1.78793 z"
       style="fill:#000000;fill-opacity:1;stroke-width:1.2170651" />
    <path
       transform="matrix(0.26458334,0,0,0.26458334,0,-3.5838649)"
       id="path110"
       d="m 287.84282,580.39668 c -27.478,-3.66275 -49.8873,-7.33225 -66.33005,-10.86147 -16.44759,-3.53026 -21.98161,-5.29117 -30.58125,-9.73087 -5.77482,-2.98134 -12.50349,-7.17991 -14.95261,-9.33016 l -4.45294,-3.90954 1.42504,-13.38772 c 1.3422,-12.60955 1.83423,-14.20125 8.46502,-27.38396 6.24259,-12.41093 8.25731,-15.18149 17.78731,-24.46036 9.60502,-9.35191 27.69988,-21.78812 31.70204,-21.78812 0.69726,0 3.24687,2.41525 5.66578,5.36722 9.14278,11.15755 36.3572,17.86661 91.43481,22.54103 26.23311,2.22639 27.40403,2.22533 57.81059,-0.0526 34.80846,-2.60769 39.83793,-3.32718 59.54821,-8.51861 17.97146,-4.73345 21.06564,-6.09378 24.34903,-10.70486 l 2.71571,-3.81388 -8.68087,-3.83426 c -7.75132,-3.42368 -8.64181,-4.16285 -8.31587,-6.90281 0.27178,-2.28467 1.3382,-3.31892 4.17463,-4.04867 3.28537,-0.84526 6.38368,0.25756 22.51571,8.01438 l 18.70611,8.99453 14.22511,14.43098 14.22512,14.43099 4.94366,13.24849 c 5.16447,13.84024 6.05947,21.47677 4.14992,35.4085 -0.7146,5.21357 -1.34642,6.14142 -6.33739,9.3066 -17.39799,11.03348 -75.04625,24.79288 -109.01297,26.01904 -21.85493,0.78895 -130.67454,1.56667 -135.17985,0.96614 z"
       style="fill:#000000;fill-opacity:1;stroke-width:1.2170651" />
    <path
       transform="matrix(0.26458334,0,0,0.26458334,0,-3.5838649)"
       id="path112"
       d="m 294.53668,475.86759 c -11.88153,-3.14647 -16.17101,-8.0746 -24.80122,-28.49376 -8.4145,-19.90877 -11.71074,-33.76557 -11.71074,-49.22986 v -12.99773 l 10.36713,-4.78962 10.36712,-4.78963 h 34.51234 34.51235 l 9.228,-4.20534 c 8.94354,-4.0757 9.93348,-4.24656 32.1132,-5.54256 22.3006,-1.30307 23.23787,-1.2611 36.69165,1.6432 12.94797,2.79511 14.13564,3.3035 19.10065,8.17628 4.75889,4.67051 6.0073,5.25067 12.34715,5.73794 6.06939,0.4665 7.68942,1.152 11.61695,4.91568 4.56229,4.37195 4.56399,4.37738 4.56399,14.56356 0,9.64728 -0.25299,10.6226 -4.75034,18.31324 -4.63436,7.92498 -5.07846,8.29547 -18.19256,15.17754 -11.87911,6.23398 -14.52841,8.25069 -22.7832,17.34318 l -9.34097,10.2889 h -20.07101 -20.07101 l -7.02438,-6.08532 c -3.86341,-3.34693 -7.49769,-6.08502 -8.07619,-6.08464 -0.57849,3.7e-4 -4.53899,2.14563 -8.80111,4.76724 -5.87512,3.61376 -8.61694,6.28574 -11.33677,11.04798 -4.34122,7.60121 -7.69358,9.22891 -22.50166,10.92545 -13.82776,1.58424 -17.79634,1.48002 -25.95937,-0.68173 z m 73.0413,-42.28342 c 5.59434,-4.39183 7.25702,-6.64422 9.99058,-13.53399 l 3.27932,-8.26531 -3.06906,-4.02374 c -2.74393,-3.59747 -3.54445,-3.95191 -7.55645,-3.34565 -2.46806,0.37295 -4.98194,1.1287 -5.5864,1.67945 -1.39026,1.26673 -6.9461,29.19211 -6.21491,31.23812 0.84353,2.3604 1.95401,1.90577 9.15692,-3.74888 z m 80.34236,-10.12145 c 1.65506,-1.10217 5.61371,-4.50756 8.79699,-7.56754 l 5.78779,-5.56359 -0.78167,-7.95004 c -0.42991,-4.37253 -0.97538,-8.173 -1.21212,-8.44549 -0.23676,-0.2725 -2.90245,-0.8706 -5.92377,-1.32912 l -5.4933,-0.83368 -1.14449,4.37178 c -4.78052,18.26101 -6.97815,28.08599 -6.40942,28.65473 1.16807,1.16807 3.28413,0.7246 6.37999,-1.33705 z M 339.97363,402.17441 c 7.72326,-1.55106 8.87521,-3.74352 4.15845,-7.9146 -7.11525,-6.29208 -8.17009,-6.52217 -29.90101,-6.52217 -28.41143,0 -34.44857,0.75328 -39.41385,4.91786 l -4.01331,3.36612 2.92543,3.13367 c 2.90718,3.11411 3.06288,3.13592 24.94984,3.49389 12.11342,0.19811 24.80837,0.48398 28.211,0.63526 3.40264,0.15128 9.29019,-0.34824 13.08345,-1.11003 z m 83.89111,-11.26864 c 4.52655,-0.86634 8.60676,-1.95184 9.06714,-2.41221 0.46038,-0.46038 -1.05245,-2.71144 -3.36183,-5.00236 l -4.19887,-4.1653 -21.29864,-1.06126 c -20.40707,-1.01682 -21.64244,-0.94572 -29.5114,1.69841 -4.51701,1.51782 -8.71011,3.06705 -9.31799,3.44274 -1.98551,1.22711 0.14401,5.70828 3.27909,6.90024 9.10492,3.46169 38.71265,3.78254 55.3425,0.59974 z"
       style="fill:#000000;fill-opacity:1;stroke-width:1.2170651" />
  </g>
</svg>
