<svg
    version="1.0"
    id="Layer_1"
    x="0px"
    y="0px"
    viewBox="0 0 860.4 238.2"
    style="enable-background:new 0 0 860.4 238.2;"
    fill="#000000">
<path
 d="M808.2,153.9l23.2-65.7h-45.6l-23.2,65.7h-25.7l23.6-65.7h-45.9l-22,60.8c-0.6,1.7-0.9,3.3-1.1,4.9H656  l47.1-132.2h-44.7l-46.9,132.2H572l47.1-132.2h-44.7l-46.9,132.2c0,0.3-0.1,0.5-0.2,0.7h-70.8c-10.8,0-16.1-3.3-16.1-10  s0.3-3,0.9-4.7l10.2-29.9h27l-16.2,44.6c0,0,32.7-12.5,43-18c9.4-5,13.2-13.2,12.8-22.1c-0.5-8.8-6-15.3-16.6-19.6  c-7.9-3.2-17.2-4.8-27.7-4.8h-18c-16.3,0-30.3,3.8-42.2,11.4c-13.7,8.8-20.6,21-20.6,36.6s1.4,11.8,4.1,16.5h-42.7l14.1-40.3  c1.5-4,3.8-10.5,3.8-13.6c0-8.4-8.2-10.4-16.5-10.4c-12.4,0-23.5,4-33.2,12L288.9,130l37.3-105.4h-44.6l-53.1,149.8h25.6  c6.4,0,12.6-2.5,18.3-7.6l47-38.7l-8.9,26.4c-1.2,3.8-1.9,7-1.9,9.7c0,6.8,4.7,10.2,14,10.2h270.7c6.1,0,11.8-1.6,17.1-4.1  c0.8-0.4,1.5-0.8,2.3-1.2c2.9,3.3,8.3,5,16,5h48.7c6.1,0,11.8-1.3,17.1-3.8c0.8-0.4,1.6-0.8,2.4-1.2c3.6,3.3,8.2,5,13.7,5h9.6  c-4.7,3.4-8.5,8.2-11.4,14.5s-4.4,12.8-4.4,19.6s2.5,15.5,7.5,20.8c5.7,6.1,13.9,9.2,24.4,9.2c16.8,0,30.8-6.7,42.1-20  c8.1-9.6,15.8-24.4,23.1-44.2h30.8c13.6,0,23-6.7,27.9-20.2H808L808.2,153.9z M739.3,219.1c-4.9-3.4-7.3-7.8-7.3-13.4  s2.4-12.5,7.1-18.8c4.8-6.3,9.9-9.4,15.5-9.4L739.3,219.1z M211.1,51.6L226,22h-19.7c0,0-7.2,0-8.2,0c-12.6,0-18.8,5.3-18.8,15.8  s3.7,17.4,11.1,36.1c7.4,18.7,11.1,33.3,11.1,43.9c0,22.7-12.5,39.6-37.6,51c-18.7,8.3-40.6,12.5-65.6,12.5s-43.2-3.2-60.9-9.6  C12.4,162.8,0,149.1,0,130.6c0-27,22.9-40.4,68.8-40.4h60c-1.7,6.4-5.7,11.4-11.9,15c-5.5,3.2-11.9,4.8-19,4.8h-9.7  c-9.3,0-17.3,1.6-24.2,4.8c-8.9,4.2-13.4,10.5-13.4,18.7s6.2,16.7,18.5,22c9.5,4,19.7,6.1,30.5,6.1s25.2-3,34.3-9.1  c10.7-6.9,16-16.9,16-29.9s-3.4-21.7-10.2-38.4s-10.2-29.7-10.2-38.9C129.7,16.1,153.7,1,201.8,0l0,0h4.9l0,0h8.6h6.4  c11.6,0,21.9,1.8,30.7,5.4c11.7,4.8,17.9,12,18.4,21.7c0.5,9.8-4.3,18-14.2,24.5H211.1L211.1,51.6z" />
</svg>
