<?xml version="1.0" encoding="UTF-8" standalone="no"?>
<svg
   width="600"
   height="600"
   viewBox="0 0 600 600"
   usvg:version="0.8.0"
   version="1.1"
   id="svg11"
   sodipodi:docname="Simple_Globe.mod.svg"
   inkscape:version="1.1.2 (0a00cf5339, 2022-02-04)"
   xmlns:inkscape="http://www.inkscape.org/namespaces/inkscape"
   xmlns:sodipodi="http://sodipodi.sourceforge.net/DTD/sodipodi-0.dtd"
   xmlns="http://www.w3.org/2000/svg"
   xmlns:svg="http://www.w3.org/2000/svg"
   xmlns:rdf="http://www.w3.org/1999/02/22-rdf-syntax-ns#"
   xmlns:cc="http://creativecommons.org/ns#"
   xmlns:dc="http://purl.org/dc/elements/1.1/"
   xmlns:usvg="https://github.com/RazrFalcon/usvg">
  <title
     id="title832">Simple Globe</title>
  <sodipodi:namedview
     id="namedview13"
     pagecolor="#ffffff"
     bordercolor="#666666"
     borderopacity="1.0"
     inkscape:pageshadow="2"
     inkscape:pageopacity="0.0"
     inkscape:pagecheckerboard="0"
     showgrid="false"
     inkscape:zoom="1.455"
     inkscape:cx="218.90034"
     inkscape:cy="300"
     inkscape:window-width="2127"
     inkscape:window-height="1345"
     inkscape:window-x="1709"
     inkscape:window-y="742"
     inkscape:window-maximized="0"
     inkscape:current-layer="svg11" />
  <defs
     id="defs5">
    <clipPath
       id="SVGID_4_">
      <path
         d="M 23.589 42.098 C 33.866 42.098 42.205 33.725 42.205 23.453 C 42.205 13.246 33.867 4.872 23.589 4.872 C 13.383 4.872 4.974 13.246 4.974 23.453 C 4.974 33.725 13.384 42.098 23.589 42.098 Z"
         id="path2" />
    </clipPath>
  </defs>
  <path
     id="path3502"
     transform="matrix(1.9140664 0 0 1.9140664 -1228.1565 -742.27974)"
     d="M 798.36657 387.8025 C 756.76995 387.8025 717.50218 404.14204 687.77282 433.8025 C 658.02048 463.47827 641.61657 502.72119 641.61657 544.3025 C 641.61657 630.8645 711.93473 701.27125 798.36657 701.27125 C 884.80607 701.27125 955.14782 630.8645 955.14782 544.3025 C 955.14782 458.01612 884.80607 387.8025 798.36657 387.8025 Z M 798.36657 394.27125 C 881.23824 394.27125 948.67907 461.58396 948.67907 544.3025 C 948.67907 627.30432 881.23824 694.83375 798.36657 694.83375 C 715.50256 694.83375 648.08532 627.29667 648.08532 544.3025 C 648.08532 504.45917 663.80799 466.85468 692.33532 438.39625 C 720.84734 409.95314 758.50028 394.27125 798.36657 394.27125 Z" />
  <g
     clip-path="url(#SVGID_4_)"
     transform="matrix(14.65464494936968 0 0 14.65464494936968 -45.69571841511197 -45.739722329567826)"
     id="g9">
    <path
       id="path3530"
       d="M 17.279 6.581 C 17.185 6.581 17.082 6.62 16.977 6.679 C 17.224 6.606 17.34 6.581 17.279 6.581 M 23.396 7.773 L 23.457 6.878 L 22.513 6.937 L 22.638 7.772 L 23.396 7.772 M 12.739 23.237 C 12.549 23.058 12.676 22.281 12.676 22.281 C 12.676 22.281 9.838 20.79 6.749 19.893 C 6.368 19.783 6.561 18.998 6.937 18.701 L 6.812 17.863 C 6.749 17.446 7.443 15.416 8.137 15.238 C 8.831 15.058 8.074 16.431 8.074 16.431 L 7.381 16.849 C 7.381 16.849 8.2 17.804 8.39 17.804 C 8.578 17.804 8.894 17.325 8.894 17.325 L 8.012 16.73 L 8.831 16.371 L 8.883 16.057 L 9.021 16.013 L 10.378 13.957 C 11.316 13.573 12.469 13.098 12.615 13.028 C 12.868 12.909 14.633 11.895 14.948 11.657 C 15.264 11.417 15.956 11.478 16.208 11.478 C 16.461 11.478 16.839 11.358 16.902 10.7 C 16.965 10.044 17.217 9.924 17.407 10.104 C 17.596 10.281 17.217 10.581 17.659 10.7 C 18.1 10.82 18.478 11.118 18.794 10.82 C 19.024 10.602 18.716 10.353 18.508 10.165 L 22.009 10.165 L 22.388 9.088 L 21.568 8.969 L 18.542 8.67 L 18.542 8.312 L 18.3 8.353 C 18.628 6.552 20.574 6.849 19.109 5.806 C 19.02 5.742 17.738 7.827 17.411 7.786 C 16.82 7.708 16.057 7.702 15.894 7.894 C 15.678 8.148 16.377 7.021 16.979 6.679 C 16.261 6.89 14.975 6.237 12.656 7.875 C 11.872 8.429 9.904 10.675 9.093 11.538 C 5.671 15.578 5.395 19.034 5.395 19.187 C 5.395 19.485 6.12 19.654 6.182 20.013 C 6.245 20.369 4.984 21.565 4.984 22.161 C 4.984 22.435 4.353 25.416 5.739 29.145 C 6.969 32.683 9.349 35.803 9.655 35.999 L 10.531 35.534 C 10.531 35.534 9.081 32.967 9.018 32.727 C 8.955 32.489 10.657 29.026 11.478 29.147 C 12.297 29.263 12.108 29.504 12.613 29.206 C 13.118 28.909 13.433 26.459 14 26.222 C 14.568 25.982 15.198 25.684 15.135 25.087 C 15.071 24.489 12.928 23.416 12.739 23.237 M 26.422 5.685 L 24.72 5.087 L 25.035 6.043 L 26.422 5.685 M 20.053 7.894 C 20.243 7.894 24.025 5.388 23.647 5.327 C 23.27 5.268 23.207 5.327 22.196 5.207 C 21.189 5.088 20.115 6.64 19.864 6.88 C 19.612 7.119 19.697 7.894 20.053 7.894 M 37.414 25.895 L 37.902 25.261 L 37.414 25.089 L 37.048 25.549 L 36.621 26.182 L 36.986 26.354 L 37.414 25.895 M 39.549 27.967 L 39.427 27.045 L 38.635 27.045 L 38.573 27.735 L 37.84 27.621 L 37.658 26.873 L 37.292 26.643 L 36.864 27.161 L 36.437 27.047 L 36.314 27.448 L 36.803 27.565 L 36.803 31.303 L 38.53 31.719 C 38.49 31.787 38.461 31.846 38.451 31.877 C 38.328 32.28 38.938 32.455 39.365 32.28 C 39.523 32.217 40.518 31.834 40.834 31.083 C 41.273 30.037 41.558 28.531 41.634 28.044 L 41.441 27.621 L 40.22 28.082 L 39.547 27.967 L 39.549 27.967 M 38.938 12.656 C 36.146 8.423 29.438 5.656 29.438 5.656 L 27.71 6.561 L 27.465 6.16 L 26.856 5.929 L 26.856 6.448 L 27.405 6.909 L 27.04 7.081 L 25.636 7.195 L 22.463 8.922 L 22.768 10.303 L 22.401 10.419 L 22.219 10.706 L 23.257 12.258 L 23.318 12.777 L 22.464 12.949 L 22.464 13.984 L 21.976 14.099 L 22.037 14.905 L 17.886 17.783 L 18.008 19.392 C 18.313 19.795 20.694 22.212 20.694 22.212 C 20.694 22.212 23.44 22.326 24.05 21.982 C 24.661 21.637 24.233 22.327 24.417 22.5 C 24.599 22.673 24.661 23.881 24.843 23.996 C 25.027 24.111 24.843 24.8 25.087 25.033 C 25.331 25.262 25.331 28.024 25.331 28.024 C 25.331 28.024 26.796 30.498 26.796 31.13 C 26.796 31.762 26.734 31.705 27.895 31.648 C 29.054 31.591 29.298 31.13 29.542 30.959 C 29.786 30.788 29.786 30.384 30.03 30.037 C 30.276 29.691 30.702 28.37 31.252 27.91 C 31.8 27.448 33.266 27.102 33.387 26.299 C 33.509 25.492 34.058 24.86 34.058 24.86 L 36.697 22.069 L 36.623 22.444 L 36.562 23.882 L 37.356 23.595 L 37.295 22.04 L 37.011 21.739 L 37.051 21.695 C 37.051 21.695 36.867 21.35 36.624 21.35 C 36.38 21.35 34.914 21.695 34.671 21.638 C 34.427 21.58 33.389 18.818 33.206 18.704 C 33.022 18.589 31.864 16.689 31.864 16.689 C 31.864 16.689 34.548 19.911 34.975 21.177 C 35.223 21.914 36.155 21.228 36.913 20.459 L 37.113 20.948 L 37.6 20.832 L 37.539 20.257 L 38.088 20.257 L 38.088 21.12 L 37.905 21.581 L 37.842 22.328 L 38.331 22.789 L 38.575 22.387 L 39.366 21.638 L 40.282 21.178 L 40.527 21.638 L 40.649 22.271 L 40.405 22.961 L 39.917 23.364 L 39.673 24.4 L 39.673 24.918 L 39.124 24.572 L 39.063 23.48 L 38.27 23.539 L 37.905 24.516 L 38.454 25.323 L 39.735 25.496 L 40.772 24.517 L 40.894 22.621 L 41.356 22.011 C 41.657 22.784 41.872 23.593 41.872 24.346 C 41.872 25.172 42.526 23.929 42.206 21.409 C 42.205 21.406 41.703 15.422 38.938 12.656 Z M 26.732 15.135 L 23.437 15.018 L 24.839 13.868 L 25.571 13.868 L 26.731 14.673 L 26.731 15.135 M 30.762 14.732 L 30.762 15.25 L 29.359 15.25 L 29.481 15.596 L 28.626 15.712 L 28.566 15.998 L 27.956 15.885 L 26.856 15.654 L 27.04 15.367 L 27.224 15.02 L 27.834 14.387 L 28.079 14.848 L 28.993 14.79 L 29.481 14.271 L 31.374 14.617 L 30.762 14.732 M 30.883 13.984 L 30.151 14.099 L 30.03 13.58 L 30.944 13.466 L 31.067 12.948 L 31.739 13.639 L 30.883 13.984 L 30.883 13.984 M 34.424 31.877 L 33.996 32.223 L 34.057 33.086 L 34.606 33.086 L 34.606 32.34 L 35.096 31.705 L 35.096 30.383 L 34.789 30.323 L 34.424 31.877 L 34.424 31.877 M 30.335 30.152 C 30.335 30.152 29.907 30.263 30.395 30.439 C 30.883 30.613 32.836 27.621 32.836 27.621 L 31.188 28.656 L 30.335 30.152 L 30.335 30.152 M 27.013 41.18 L 26.648 40.832 L 25.916 40.716 L 25.795 41.065 L 24.818 40.95 L 24.756 40.487 L 24.024 40.487 L 23.231 40.95 L 21.829 40.95 L 21.707 40.602 L 19.45 40.369 L 19.084 40.718 L 18.17 40.488 L 18.047 39.675 L 17.62 39.615 L 17.132 40.487 L 15.485 40.428 C 15.78 40.567 18.238 42.034 22.01 42.34 C 27.012 42.744 29.391 41.529 29.391 41.529 L 29.208 41.353 L 27.013 41.18 L 27.013 41.18 L 27.013 41.18 Z" />
  </g>
  <metadata
     id="metadata830">
    <rdf:RDF>
      <cc:Work
         rdf:about="">
        <dc:title>Simple Globe</dc:title>
        <dc:source>https://commons.wikimedia.org/wiki/File:Simple_Globe.svg</dc:source>
        <cc:license
           rdf:resource="http://creativecommons.org/licenses/by-sa/4.0/" />
        <dc:creator>
          <cc:Agent>
            <dc:title>https://commons.wikimedia.org/wiki/User:Tokyoship</dc:title>
          </cc:Agent>
        </dc:creator>
        <dc:description>A simple globe showing Africa at the center, South America to the left. Continents are drawn freehand to be easily recognizable and are not to scale. </dc:description>
        <dc:subject>
          <rdf:Bag>
            <rdf:li>globe</rdf:li>
            <rdf:li>simple svg</rdf:li>
          </rdf:Bag>
        </dc:subject>
        <dc:contributor>
          <cc:Agent>
            <dc:title>Arnulf Christl</dc:title>
          </cc:Agent>
        </dc:contributor>
      </cc:Work>
      <cc:License
         rdf:about="http://creativecommons.org/licenses/by-sa/4.0/">
        <cc:permits
           rdf:resource="http://creativecommons.org/ns#Reproduction" />
        <cc:permits
           rdf:resource="http://creativecommons.org/ns#Distribution" />
        <cc:requires
           rdf:resource="http://creativecommons.org/ns#Notice" />
        <cc:requires
           rdf:resource="http://creativecommons.org/ns#Attribution" />
        <cc:permits
           rdf:resource="http://creativecommons.org/ns#DerivativeWorks" />
        <cc:requires
           rdf:resource="http://creativecommons.org/ns#ShareAlike" />
      </cc:License>
    </rdf:RDF>
  </metadata>
</svg>
