<?xml version="1.0" encoding="UTF-8"?>
<svg xmlns="http://www.w3.org/2000/svg" xmlns:xlink="http://www.w3.org/1999/xlink" width="512px" height="468px" viewBox="0 0 512 468" version="1.1">
  <defs/>
  <g fill="#000000" id="layer1">
    <path d="M360.848358,0.5090694 L0,91.4565048 L85.1634369,467.490929 L512,335.773773 L360.848358,0.5090694 Z M465.567841,313.824036 L408.198578,331.175232 L392.364044,244.927216 L379.474426,248.199676 L315.894898,90.0912017 L363.665588,77.4202575 L465.567841,313.824036 Z M360.325348,69.671196 L312.693665,82.1305313 L296.74289,42.4642563 L343.439972,30.4987335 L360.325348,69.671196 Z M287.773773,44.7624741 L303.498505,84.5357666 L129.265564,130.111053 L125.887879,119.133606 L48.2759248,155.924301 L36.8061334,109.069611 L287.773773,44.7624741 Z M112.809601,420.59436 L73.4953613,259.904114 L233.887512,215.49585 L285.304535,368.178803 L112.809601,420.59436 Z M274.245575,147.82103 L60.4875565,205.80928 L48.4303246,156.555039 L134.883297,149.144699 L131.587689,138.977524 L306.662991,92.5398636 L369.504421,251.487648 L356.140835,255.724495 L407.016567,331.532692 L347.953701,349.396126 L274.245575,147.82103 Z M148.564941,356.207825 C115.45826,337.12146 117.218201,289.56308 151.725952,271.12381 C185.430313,253.113861 226.536652,269.806732 228.643997,311.953583 C230.617569,351.424896 181.671616,375.29419 148.564941,356.207825 Z M221.087494,310.581757 C218.083405,275.055145 184.308716,260.888 154.948914,276.576416 C124.889282,292.638824 125.083191,334.647797 154.196167,350.789642 C181.497208,365.926849 224.153336,346.838684 221.087494,310.581757 Z M161.266968,339.142364 L166.056091,292.55722 L175.895569,289.422516 L203.846649,325.471588 L196.267136,329.683594 L188.23143,319.512543 L170.755173,324.62616 L169.974472,336.617187 L161.266968,339.142364 Z M171.106445,317.460693 L184.285294,313.518402 L172.589035,297.807587 L171.106445,317.460693 Z" id="Shape"/>
  </g>
</svg>
