<?xml version="1.0" encoding="UTF-8" standalone="no"?>
<!-- Created with Inkscape (http://www.inkscape.org/) -->

<svg
   width="71mm"
   height="74mm"
   viewBox="0 0 71 74"
   version="1.1"
   id="svg1"
   xml:space="preserve"
   xmlns="http://www.w3.org/2000/svg"
   xmlns:svg="http://www.w3.org/2000/svg"><defs
     id="defs1" /><g
     id="layer3"
     style="display:inline"><path
       style="display:inline;fill:#000000;fill-opacity:1;stroke:none;stroke-opacity:1"
       d="m 38.538769,67.06352 c -3.19933,-2.151127 -2.95587,-15.248016 0.31385,-16.883469 0.88822,-0.444271 0.9589,-0.643188 0.9848,-2.771676 0.0902,-7.412752 8.06071,-10.914207 13.64837,-5.995752 1.92461,1.694108 2.5164,3.226716 2.40736,6.234524 -0.0717,1.979081 0.003,2.237407 0.79633,2.757308 1.5684,1.027659 1.99365,2.838075 1.99365,8.487667 0,8.866081 -0.13427,8.974182 -11.14853,8.976045 -7.53706,0.0013 -7.83711,-0.02556 -8.99583,-0.804647 z m 12.38325,-19.641403 c 0,-4.041311 -4.67771,-5.235855 -6.20348,-1.584177 -1.29658,3.103152 -0.84488,3.687101 2.85209,3.687101 3.35139,0 3.35139,0 3.35139,-2.102924 z"
       id="path2" /></g><g
     id="layer4"
     transform="translate(83.47417,41.645756)"
     style="display:inline" /><g
     id="layer2"
     style="display:inline"><path
       style="display:inline;fill:#000000;fill-opacity:1;stroke:none;stroke-opacity:1"
       d="m 6.0600735,70.632165 c -2.880304,-1.936686 -2.750693,-0.356533 -2.750693,-33.534927 0,-33.2546541 -0.135092,-31.641245 2.809311,-33.5514248 1.579279,-1.0245564 20.5067455,-1.0245564 22.0860145,0 2.049517,1.3296311 2.802113,3.2921992 2.821474,7.3576748 0.01219,2.557639 0.01219,2.557639 11.371225,2.557639 9.956352,0 11.412886,0.06846 11.795156,0.554365 0.648768,0.82466 0.648768,13.588831 0,14.413492 -0.38227,0.485908 -1.838804,0.554365 -11.795156,0.554365 -11.359039,0 -11.359039,0 -11.371225,18.432639 -0.01432,21.643461 0.01628,21.391678 -2.821474,23.232678 -1.559004,1.011406 -20.6370375,0.99719 -22.1446325,-0.0165 z M 26.962997,67.731281 c 1.306164,-0.884276 1.281894,-0.505812 1.291209,-20.138904 0.0088,-18.609028 0.0088,-18.609028 -6.582585,-18.616776 -7.525794,-0.0088 -8.072801,-0.164273 -9.846113,-2.797667 -2.0072145,-2.980749 -1.9942575,-7.145755 0.03108,-10.001369 1.8112,-2.55365 2.337713,-2.698902 9.814998,-2.707691 6.591419,-0.0077 6.591419,-0.0077 6.582593,-2.741775 -0.01542,-4.7837763 0.244342,-4.6743043 -11.092503,-4.6743043 -9.3736425,0 -9.9569915,0.07495 -10.7455955,1.3805404 -0.259475,0.4295817 -0.338092,7.3273119 -0.338092,29.6639029 0,30.618202 -0.03718,29.69369 1.231253,30.618353 0.786842,0.573594 18.8083945,0.587981 19.6537285,0.01569 z M 16.291032,59.089742 c -2.438979,-0.531399 -5.204911,-4.235623 -5.61868,-7.524705 -1.2048585,-9.57763 9.138357,-14.396878 13.048361,-6.079662 3.172581,6.748613 -1.300775,14.939719 -7.429681,13.604367 z M 51.853355,21.222238 c 0,-4.586111 0,-4.586111 -17.909809,-4.586111 -19.746095,0 -19.313045,-0.04639 -20.382661,2.183632 -0.713677,1.487932 -0.713906,3.316542 -6.14e-4,4.80368 1.059832,2.209616 0.55714,2.155914 20.322808,2.171101 17.970276,0.01381 17.970276,0.01381 17.970276,-4.572302 z"
       id="path1" /></g></svg>
