<?xml version="1.0" encoding="UTF-8" standalone="no"?>
<!-- Created with Inkscape (http://www.inkscape.org/) -->

<svg
   xmlns:dc="http://purl.org/dc/elements/1.1/"
   xmlns:cc="http://creativecommons.org/ns#"
   xmlns:rdf="http://www.w3.org/1999/02/22-rdf-syntax-ns#"
   xmlns:svg="http://www.w3.org/2000/svg"
   xmlns="http://www.w3.org/2000/svg"
   version="1.0"
   width="468pt"
   height="470pt"
   viewBox="0 0 468 470"
   id="svg2">
  <defs
     id="defs22" />
  <metadata
     id="metadata4">
Created by potrace 1.8, written by Peter Selinger 2001-2007
<rdf:RDF>
  <cc:Work
     rdf:about="">
    <dc:format>image/svg+xml</dc:format>
    <dc:type
       rdf:resource="http://purl.org/dc/dcmitype/StillImage" />
    <dc:title></dc:title>
  </cc:Work>
</rdf:RDF>
</metadata>
  <g
     transform="matrix(0.158108,0,0,-0.158108,0,470)"
     id="g6"
     style="fill:#000000;stroke:none">
    <path
       d="M 62,1953 C -3,1921 0,1971 0,991 0,437 4,92 10,76 15,62 34,41 52,30 84,10 103,10 980,10 c 870,0 896,1 927,20 21,12 36,32 43,57 8,27 10,300 8,925 l -3,888 -33,32 -32,33 -898,2 c -813,2 -900,1 -930,-14 z m 1758,-968 0,-845 -845,0 -845,0 0,845 0,845 845,0 845,0 0,-845 z"
       id="path12" />
    <path
       d="m 404,1620 c -55,-22 -54,-7 -54,-628 0,-374 4,-580 10,-593 27,-49 31,-49 620,-49 587,0 604,1 629,48 8,14 11,203 11,596 l 0,575 -24,28 -24,28 -574,2 c -315,1 -583,-2 -594,-7 z m 500,-145 c 27,-20 129,-20 146,0 10,12 38,15 129,15 l 116,0 97,-97 98,-98 0,-300 0,-300 -102,-102 -103,-103 -100,0 c -82,0 -108,4 -140,21 -46,23 -126,21 -155,-6 -12,-11 -41,-15 -116,-15 l -99,0 -97,97 -98,98 0,305 0,305 97,97 98,98 105,0 c 76,-1 110,-5 124,-15 z"
       id="path14" />
    <path
       d="m 650,1088 c -37,-20 -51,-56 -47,-115 5,-78 23,-93 112,-93 94,0 105,11 105,107 0,57 -4,73 -20,88 -26,23 -115,31 -150,13 z"
       id="path16" />
    <path
       d="m 1183,1090 c -32,-13 -43,-41 -43,-109 0,-85 17,-101 109,-101 63,0 71,2 90,26 24,30 29,106 10,148 -19,40 -108,59 -166,36 z"
       id="path18" />
  </g>
  <g
     transform="matrix(0.06221548,0,0,-0.06016596,295.85937,185.84038)"
     id="g2995"
     style="fill:#000000;fill-opacity:1">
    <path
       d="m 1223,2961 c -346,-6 -363,-7 -390,-27 -35,-26 -52,-73 -52,-149 -1,-115 36,-176 117,-191 20,-4 43,-15 50,-26 9,-12 26,-18 53,-18 35,0 39,-3 39,-25 0,-19 -6,-26 -27,-30 -79,-17 -237,-72 -307,-106 -79,-40 -181,-104 -191,-119 -3,-5 -21,0 -40,12 -22,12 -44,18 -58,14 -30,-7 -177,-159 -177,-182 0,-11 8,-32 18,-49 l 18,-30 -44,-60 C 146,1858 68,1669 33,1492 8,1364 11,1145 39,1013 153,470 562,87 1109,9 c 102,-14 315,-6 416,16 445,96 792,393 934,798 100,287 100,586 0,874 -34,97 -93,212 -146,286 l -35,47 26,31 c 43,51 36,73 -52,161 -89,88 -122,99 -167,54 l -24,-24 -53,37 c -113,80 -289,161 -413,190 -46,11 -50,14 -50,41 0,28 3,30 36,30 25,0 42,7 57,25 12,14 29,25 38,25 34,0 83,33 98,65 23,47 22,179 -2,224 -26,52 -60,72 -128,75 -32,2 -222,0 -421,-3 z m 163,-101 302,0 6,-26 c 4,-15 4,-51 0,-80 -8,-64 -33,-80 -63,-42 l -19,23 -316,3 -316,3 -26,-26 c -28,-28 -59,-33 -68,-9 -3,9 -6,45 -6,80 0,80 10,86 125,79 44,-3 216,-5 381,-5 z m -156,-658 c 0,-124 6,-142 45,-142 39,0 45,18 45,142 l 0,118 43,-5 c 104,-14 167,-26 216,-41 58,-17 57,-13 25,-97 -21,-55 -13,-80 28,-85 30,-4 50,18 73,81 10,26 21,47 24,47 14,0 144,-81 201,-125 l 61,-47 -85,-88 c -47,-48 -86,-92 -86,-96 0,-21 33,-54 53,-54 14,0 52,30 105,83 l 83,82 25,-30 c 70,-84 154,-226 138,-232 -5,-2 -34,-16 -64,-31 -44,-21 -56,-33 -58,-54 -2,-18 4,-31 18,-41 20,-14 27,-13 81,9 33,14 64,22 69,19 11,-7 47,-163 56,-242 l 7,-63 -120,0 c -126,0 -143,-6 -143,-46 0,-42 34,-54 154,-54 l 109,0 -7,-62 c -7,-63 -41,-222 -51,-239 -3,-5 -31,3 -62,16 -70,31 -91,31 -105,0 -16,-35 8,-66 71,-90 28,-11 51,-24 51,-29 0,-27 -151,-256 -169,-256 -3,0 -42,36 -86,80 -45,45 -88,80 -99,80 -24,0 -56,-28 -56,-48 0,-8 38,-54 85,-102 l 86,-87 -47,-38 c -46,-38 -200,-135 -214,-135 -4,0 -18,27 -30,60 -24,63 -47,85 -79,75 -41,-13 -43,-29 -15,-100 15,-38 23,-70 18,-75 -17,-15 -221,-57 -296,-60 -5,0 -8,56 -8,125 0,117 -1,125 -21,136 -16,8 -28,8 -45,0 -23,-10 -24,-14 -24,-136 l 0,-126 -52,6 c -122,14 -258,48 -258,64 0,4 11,34 24,67 25,62 22,87 -12,96 -37,10 -59,-9 -82,-71 -12,-34 -26,-61 -30,-61 -14,0 -168,97 -214,135 l -47,38 86,87 c 47,48 85,94 85,103 0,22 -28,47 -53,47 -14,0 -52,-30 -104,-82 -68,-67 -84,-79 -96,-69 -36,29 -157,223 -157,249 0,6 25,20 55,32 64,26 83,50 66,86 -13,30 -34,30 -105,3 -31,-12 -59,-20 -61,-17 -11,10 -44,160 -51,227 l -7,71 111,0 c 93,0 113,3 133,19 20,16 22,23 14,47 l -10,29 -124,3 -124,3 7,60 c 7,75 45,237 56,244 4,2 35,-6 68,-20 67,-27 89,-25 98,10 9,36 -10,58 -66,80 -29,11 -54,23 -56,27 -10,16 113,217 153,249 12,10 28,-2 96,-69 45,-45 91,-82 101,-82 24,0 56,28 56,48 0,8 -39,54 -86,102 l -85,88 60,46 c 33,25 93,64 134,86 l 74,40 18,-47 c 10,-27 25,-56 33,-65 28,-32 82,-17 82,23 0,9 -10,40 -22,69 -18,44 -19,53 -7,61 24,15 179,46 287,58 9,1 12,-29 12,-117 z"
       id="path8-1"
       style="fill:#000000;fill-opacity:1" />
    <path
       d="m 1215,1428 c -50,-18 -82,-46 -104,-91 -66,-137 37,-282 189,-264 l 47,6 199,-255 c 201,-256 220,-274 252,-242 31,31 12,63 -183,311 -190,243 -194,249 -181,275 22,45 26,89 11,139 -17,58 -55,97 -114,118 -50,17 -74,18 -116,3 z"
       id="path10"
       style="fill:#000000;fill-opacity:1" />
    <path
       d="M 173,2388 C -17,2199 -20,2193 54,2121 c 71,-70 73,-68 262,120 121,121 164,170 164,188 0,32 -89,121 -120,121 -17,0 -70,-46 -187,-162 z"
       id="path12-7"
       style="fill:#000000;fill-opacity:1" />
    <path
       d="m 2160,2494 c -78,-72 -78,-72 119,-268 147,-146 172,-167 193,-161 34,10 108,90 108,117 0,28 -325,358 -353,358 -10,0 -40,-21 -67,-46 z"
       id="path14-4"
       style="fill:#000000;fill-opacity:1" />
  </g>
</svg>
