<?xml version="1.0" encoding="utf-8"?>
<!DOCTYPE svg PUBLIC "-//W3C//DTD SVG 1.1//EN" "http://www.w3.org/Graphics/SVG/1.1/DTD/svg11.dtd">
<svg version="1.1" xmlns="http://www.w3.org/2000/svg" xmlns:xlink="http://www.w3.org/1999/xlink" x="0px" y="0px"
	 width="566.929px" height="566.93px" viewBox="0 0 566.929 566.93" enable-background="new 0 0 566.929 566.93"
	 xml:space="preserve">
<g id="Ebene_1">
	<path fill-rule="evenodd" clip-rule="evenodd" fill="#000000" d="M493.714,438.5c0,0.802-0.486,4.065-1.714,6.917
		c-0.942,2.188-2.514,3.954-3.478,5.268c-0.751,1.026-1.592,16.444-2.524,17.646C464.288,496.267,344.237,543,291,543
		s-174.358-46.564-195.48-75.011c-0.954-1.284-1.814-13.483-2.583-14.584c-2.536-3.641-4.063-6.222-4.649-7.364
		c-0.133-0.26-1.514-3.419-1.787-4.791S86,435,86,435V104.333v-2.646c0-0.855,0-1.633,0-2.332c0-0.918,0.311-1.407,0.908-2.2
		c13.532-17.979,174.403-65.292,206.967-65.292c34,0,199.845,47.085,199.839,62.136c0,0.997,0,16.667,0,16.667V427.25
		C493.714,427.25,493.714,437.083,493.714,438.5z M474.334,190.396c0.5,0.625,0.416,1.146,0.416,1.146l-0.008,242.7
		c0,0,0.037,1.944-0.242,3.758c-0.229,1.493-0.729,2.838-1.151,3.44C463.146,456.013,342.146,515,291.24,515
		c-50.907,0-173.983-56.307-184.24-73c-1.826-2.973-1.488-6.369-1.627-8.011l0.001-0.988L105.292,192.5c0,0-0.071-1.594,0.802-2.438
		c0.625-0.604,2.228-0.104,2.393-0.04C135.729,200.54,255.71,243.375,292,243.375c50.474,0,142.435-38.142,180.574-53.021
		c0.229-0.09,0.636-0.249,0.636-0.249S473.834,189.771,474.334,190.396z M292,223.421c-41.663,0-184.333-49.921-186.465-54.672
		c-0.861-1.918,0.03-46.373,0.03-46.373S106.05,121.199,107,122c12.051,10.158,150.283,57.757,183.158,57.757
		s164.541-45.834,181.348-59.82c0.91-0.758,2.057-0.586,2.557-0.187c0.582,0.468,0.438,1.25,0.438,1.25s1.502,44.843,0.243,47.167
		C470.5,176,333.662,223.421,292,223.421z M111,101c0,14,150.742,58.757,178.283,58.757c21.05,0,45.731-8.236,79.064-18.601
		c0.301-0.094,0.902-0.281,0.902-0.281S296,110.833,296,108.5S329.666,94,334.333,94s80.167,30.5,80.167,30.5
		s1.251-0.457,1.872-0.685C447.659,112.331,468,102.862,468,98c0-12-123.334-50.291-176-50.136C246,48,111,91,111,101z"/>
</g>
<g id="Ebene_2">
	<path fill-rule="evenodd" clip-rule="evenodd" fill="#000000" d="M126.542,219.167c0.708-0.417,0.62-0.085,2.754,0.665
		c19.669,6.905,123.991,45.502,162.112,45.502c39.606,0,146.965-39.641,160.538-44.199c0.097-0.032,0.549-0.28,1.007,0.053
		s0.381,0.729,0.381,0.729V229v192.5c0,0,0.25,6.792-0.521,7.75s-0.865,1.227-3.409,2.661
		c-19.71,11.118-108.854,59.756-159.995,59.756c-51.253,0-140.267-50.425-159.623-61.758c-2.451-1.435-2.722-1.921-3.223-3.284
		S126,421.5,126,421.5V231v-9.666C126,221.334,125.833,219.583,126.542,219.167z"/>
</g>
</svg>
