<?xml version="1.0" encoding="UTF-8" standalone="no"?>
<svg
   xmlns:dc="http://purl.org/dc/elements/1.1/"
   xmlns:cc="http://creativecommons.org/ns#"
   xmlns:rdf="http://www.w3.org/1999/02/22-rdf-syntax-ns#"
   xmlns:svg="http://www.w3.org/2000/svg"
   xmlns="http://www.w3.org/2000/svg"
   width="64.444977mm"
   height="51.73391mm"
   viewBox="0 0 64.444977 51.733909"
   version="1.1"
   id="svg8">
  <defs
     id="defs2" />
  <metadata
     id="metadata5">
    <rdf:RDF>
      <cc:Work
         rdf:about="">
        <dc:format>image/svg+xml</dc:format>
        <dc:type
           rdf:resource="http://purl.org/dc/dcmitype/StillImage" />
        <dc:title></dc:title>
      </cc:Work>
    </rdf:RDF>
  </metadata>
  <g
     id="layer1"
     transform="translate(-102.80479,-19.467259)"
     style="display:inline" />
  <g
     id="layer2"
     style="display:inline"
     transform="translate(-5.1171875,-4.5238242)">
    <path
       style="color:#000000;font-style:normal;font-variant:normal;font-weight:normal;font-stretch:normal;font-size:medium;line-height:normal;font-family:sans-serif;font-variant-ligatures:normal;font-variant-position:normal;font-variant-caps:normal;font-variant-numeric:normal;font-variant-alternates:normal;font-variant-east-asian:normal;font-feature-settings:normal;font-variation-settings:normal;text-indent:0;text-align:start;text-decoration:none;text-decoration-line:none;text-decoration-style:solid;text-decoration-color:#000000;letter-spacing:normal;word-spacing:normal;text-transform:none;writing-mode:lr-tb;direction:ltr;text-orientation:mixed;dominant-baseline:auto;baseline-shift:baseline;text-anchor:start;white-space:normal;shape-padding:0;shape-margin:0;inline-size:0;clip-rule:nonzero;display:inline;overflow:visible;visibility:visible;opacity:1;isolation:auto;mix-blend-mode:normal;color-interpolation:sRGB;color-interpolation-filters:linearRGB;solid-color:#000000;solid-opacity:1;vector-effect:none;fill:#000000;fill-opacity:1;fill-rule:nonzero;stroke:none;stroke-width:3;stroke-linecap:round;stroke-linejoin:miter;stroke-miterlimit:4;stroke-dasharray:none;stroke-dashoffset:0;stroke-opacity:1;color-rendering:auto;image-rendering:auto;shape-rendering:auto;text-rendering:auto;enable-background:accumulate;stop-color:#000000;stop-opacity:1"
       d="m 24.293639,4.537034 c 1.34845,-0.04172 2.53372,0.01429 3.77539,0.183593 1.2417,0.169305 2.58173,0.453063 3.93945,0.929688 1.35775,0.476634 2.67909,1.125819 3.87891,1.845703 1.19983,0.71989 2.33302,1.554148 3.45898,2.708985 1.12597,1.154836 2.2317,2.592077 3.07813,3.998046 0.84642,1.405953 1.40176,2.750149 1.76562,4.001954 0.36386,1.251765 0.54101,2.423053 0.59961,3.478515 0.0586,1.055404 -0.001,1.979533 -0.0684,2.839844 -0.0673,0.8603 -0.0956,1.580764 -0.008,1.945312 0.0878,0.364702 0.36364,0.804869 1,1.6875 0.63636,0.882633 1.53934,2.072265 2.07422,3.361329 0.53484,1.28896 0.64555,2.576775 0.0137,3.671874 -0.63158,1.094584 -1.62709,1.369896 -1.92773,1.529297 -0.30086,0.15952 -0.35575,0.262879 -0.34766,0.246094 0.008,-0.01624 -0.0556,0.254827 -0.0645,0.699219 -0.009,0.444415 0.0899,1.045659 -0.32617,1.876953 -0.41572,0.830488 -1.12226,1.15341 -1.66602,1.421875 -0.0549,0.0271 -0.094,0.0493 -0.14844,0.07617 0.14487,0.128342 0.25631,0.224036 0.42188,0.384766 0.32474,0.315245 0.70631,0.65249 0.94726,1.357421 0.24087,0.704678 0.0649,1.430018 -0.15625,1.873047 -0.22117,0.44303 -0.47086,0.721464 -0.63086,0.914063 -0.31998,0.385187 -0.22953,0.09428 -0.24218,0.49414 -0.0127,0.400239 0.30533,1.738647 -0.19922,3.19336 -0.50443,1.454364 -1.81327,2.282027 -3.09766,2.613281 -1.28419,0.331202 -2.50465,0.24162 -3.7207,0.232422 -1.21607,-0.0092 -2.55667,0.05625 -3.19531,0.21875 -0.63887,0.162554 -0.73861,0.315028 -0.89063,0.544922 -0.15221,0.230182 -0.23802,0.518811 -0.28711,0.857422 -0.0491,0.338766 -0.0508,0.639196 -0.0508,1.035156 a 1.5,1.5 0 0 1 -1.5,1.5 1.5,1.5 0 0 1 -1.5,-1.5 c 0,-0.39596 -0.002,-0.885883 0.082,-1.466797 0.0842,-0.58107 0.26489,-1.340556 0.75391,-2.080078 0.48921,-0.739811 1.4046,-1.4789 2.6543,-1.796875 1.24992,-0.318033 2.66971,-0.322237 3.95703,-0.3125 1.28732,0.0097 2.31307,0.02735 2.94921,-0.136719 0.63596,-0.164017 0.9221,-0.433014 1.01172,-0.691406 0.0895,-0.258045 -2.9e-4,-1.247685 0.0332,-2.306641 0.0335,-1.059331 0.62385,-1.941597 0.93359,-2.314453 0.0351,-0.04227 0.0299,-0.03949 0.0586,-0.07617 -0.20235,-0.196436 -0.49421,-0.441142 -0.79492,-0.724609 -0.30071,-0.283475 -0.60093,-0.569265 -0.84765,-1.06836 -0.24672,-0.499094 -0.30068,-1.420245 0.0801,-2.02539 0.38092,-0.605398 0.77451,-0.79607 1.125,-1.001953 0.35049,-0.205883 0.68481,-0.363446 0.92579,-0.482422 0.48191,-0.237931 0.40895,-0.270822 0.31054,-0.07422 -0.0988,0.197409 1.9e-4,-0.112386 0.01,-0.595703 0.01,-0.48334 -0.0158,-1.159071 0.36133,-1.941406 0.37736,-0.782877 1.02414,-1.26378 1.64648,-1.59375 0.62256,-0.330088 0.77135,-0.446376 0.73242,-0.378907 -0.0392,0.06799 0.11074,-0.307433 -0.18554,-1.021484 -0.29625,-0.713947 -1.0938,-1.866619 -1.73633,-2.757812 -0.64253,-0.891195 -1.22194,-1.658172 -1.48242,-2.740235 -0.26052,-1.082216 -0.13124,-2.049673 -0.0664,-2.878906 0.0648,-0.829222 0.10951,-1.594847 0.0625,-2.441406 -0.047,-0.846501 -0.18592,-1.788553 -0.48242,-2.808594 -0.29649,-1.020002 -0.74493,-2.106217 -1.45703,-3.289063 -0.7121,-1.182828 -1.71979,-2.4927 -2.6543,-3.451171 -0.93451,-0.958472 -1.80993,-1.605105 -2.85547,-2.232422 -1.04555,-0.627323 -2.20469,-1.192826 -3.33008,-1.587891 -1.12541,-0.395073 -2.26866,-0.639457 -3.35156,-0.787109 -1.08293,-0.147656 -2.06348,-0.195762 -3.27734,-0.158203 -1.21389,0.03756 -2.63258,0.165621 -3.89454,0.398437 -1.26199,0.232824 -2.38328,0.570479 -3.39062,1.027344 -1.00741,0.456895 -1.86502,1.001627 -2.91211,1.976562 -1.04713,0.974981 -2.27036,2.400918 -3.16406,3.710938 -0.89373,1.310062 -1.4814597,2.508717 -1.9433597,3.894531 -0.46192,1.385862 -0.78203,2.93649 -0.9043,4.501953 -0.12227,1.565502 -0.0482,3.181572 0.16211,4.666016 0.21032,1.48447 0.55525,2.836068 0.99414,4.042969 0.4389,1.206918 0.9872797,2.310497 1.5683597,3.472656 a 1.5,1.5 0 0 1 -0.66992,2.013672 1.5,1.5 0 0 1 -2.0117197,-0.671875 c -0.58108,-1.162159 -1.19497,-2.380938 -1.70703,-3.789063 -0.51207,-1.408143 -0.90576,-2.963128 -1.14453,-4.648437 -0.23878,-1.685335 -0.32345,-3.502751 -0.18164,-5.31836 0.14181,-1.815647 0.50705,-3.593274 1.04883,-5.21875 0.54179,-1.625523 1.27603,-3.1203 2.31054,-4.636718 1.03454,-1.51646 2.3467297,-3.050105 3.5976597,-4.214844 1.25098,-1.164784 2.45249,-1.940269 3.7168,-2.513672 1.26436,-0.573434 2.62712,-0.975007 4.08593,-1.244141 1.45886,-0.26914 2.99923,-0.405543 4.34766,-0.447265 z"
       id="path144766" />
  </g>
  <g
     id="layer3"
     transform="translate(-5.1171875,-4.5238242)">
    <path
       style="color:#000000;font-style:normal;font-variant:normal;font-weight:normal;font-stretch:normal;font-size:medium;line-height:normal;font-family:sans-serif;font-variant-ligatures:normal;font-variant-position:normal;font-variant-caps:normal;font-variant-numeric:normal;font-variant-alternates:normal;font-variant-east-asian:normal;font-feature-settings:normal;font-variation-settings:normal;text-indent:0;text-align:start;text-decoration:none;text-decoration-line:none;text-decoration-style:solid;text-decoration-color:#000000;letter-spacing:normal;word-spacing:normal;text-transform:none;writing-mode:lr-tb;direction:ltr;text-orientation:mixed;dominant-baseline:auto;baseline-shift:baseline;text-anchor:start;white-space:normal;shape-padding:0;shape-margin:0;inline-size:0;clip-rule:nonzero;display:inline;overflow:visible;visibility:visible;opacity:1;isolation:auto;mix-blend-mode:normal;color-interpolation:sRGB;color-interpolation-filters:linearRGB;solid-color:#000000;solid-opacity:1;vector-effect:none;fill:#000000;fill-opacity:1;fill-rule:nonzero;stroke:none;stroke-width:2;stroke-linecap:round;stroke-linejoin:miter;stroke-miterlimit:4;stroke-dasharray:none;stroke-dashoffset:0;stroke-opacity:1;color-rendering:auto;image-rendering:auto;shape-rendering:auto;text-rendering:auto;enable-background:accumulate;stop-color:#000000;stop-opacity:1"
       d="m 57.777006,20.519531 a 1,1 0 0 1 0.658203,0.277344 c 3.386095,3.247167 5.308594,7.990953 5.308594,12.978516 0,4.987562 -1.922499,9.731349 -5.308594,12.978515 a 1,1 0 0 1 -1.414062,-0.0293 1,1 0 0 1 0.0293,-1.414062 c 2.954149,-2.832943 4.693359,-7.063746 4.693359,-11.535156 0,-4.47141 -1.73921,-8.702213 -4.693359,-11.535157 a 1,1 0 0 1 -0.0293,-1.414062 1,1 0 0 1 0.755859,-0.306641 z"
       id="path144757" />
    <path
       style="color:#000000;font-style:normal;font-variant:normal;font-weight:normal;font-stretch:normal;font-size:medium;line-height:normal;font-family:sans-serif;font-variant-ligatures:normal;font-variant-position:normal;font-variant-caps:normal;font-variant-numeric:normal;font-variant-alternates:normal;font-variant-east-asian:normal;font-feature-settings:normal;font-variation-settings:normal;text-indent:0;text-align:start;text-decoration:none;text-decoration-line:none;text-decoration-style:solid;text-decoration-color:#000000;letter-spacing:normal;word-spacing:normal;text-transform:none;writing-mode:lr-tb;direction:ltr;text-orientation:mixed;dominant-baseline:auto;baseline-shift:baseline;text-anchor:start;white-space:normal;shape-padding:0;shape-margin:0;inline-size:0;clip-rule:nonzero;display:inline;overflow:visible;visibility:visible;opacity:1;isolation:auto;mix-blend-mode:normal;color-interpolation:sRGB;color-interpolation-filters:linearRGB;solid-color:#000000;solid-opacity:1;vector-effect:none;fill:#000000;fill-opacity:1;fill-rule:nonzero;stroke:none;stroke-width:2;stroke-linecap:round;stroke-linejoin:miter;stroke-miterlimit:4;stroke-dasharray:none;stroke-dashoffset:0;stroke-opacity:1;color-rendering:auto;image-rendering:auto;shape-rendering:auto;text-rendering:auto;enable-background:accumulate;stop-color:#000000;stop-opacity:1"
       d="m 53.80435,24.111328 a 1,1 0 0 1 0.732422,0.298828 c 2.361241,2.398437 3.681641,5.868751 3.68164,9.511719 10e-7,3.642968 -1.320399,7.111329 -3.68164,9.509766 a 1,1 0 0 1 -1.414063,0.01172 1,1 0 0 1 -0.01172,-1.414062 c 1.941066,-1.971643 3.107422,-4.951754 3.107421,-8.107422 1e-6,-3.155668 -1.166355,-6.137732 -3.107421,-8.109375 a 1,1 0 0 1 0.01172,-1.414064 1,1 0 0 1 0.681641,-0.28711 z"
       id="path144752" />
    <path
       style="color:#000000;font-style:normal;font-variant:normal;font-weight:normal;font-stretch:normal;font-size:medium;line-height:normal;font-family:sans-serif;font-variant-ligatures:normal;font-variant-position:normal;font-variant-caps:normal;font-variant-numeric:normal;font-variant-alternates:normal;font-variant-east-asian:normal;font-feature-settings:normal;font-variation-settings:normal;text-indent:0;text-align:start;text-decoration:none;text-decoration-line:none;text-decoration-style:solid;text-decoration-color:#000000;letter-spacing:normal;word-spacing:normal;text-transform:none;writing-mode:lr-tb;direction:ltr;text-orientation:mixed;dominant-baseline:auto;baseline-shift:baseline;text-anchor:start;white-space:normal;shape-padding:0;shape-margin:0;inline-size:0;clip-rule:nonzero;display:inline;overflow:visible;visibility:visible;opacity:1;isolation:auto;mix-blend-mode:normal;color-interpolation:sRGB;color-interpolation-filters:linearRGB;solid-color:#000000;solid-opacity:1;vector-effect:none;fill:#000000;fill-opacity:1;fill-rule:nonzero;stroke:none;stroke-width:2;stroke-linecap:round;stroke-linejoin:miter;stroke-miterlimit:4;stroke-dasharray:none;stroke-dashoffset:0;stroke-opacity:1;color-rendering:auto;image-rendering:auto;shape-rendering:auto;text-rendering:auto;enable-background:accumulate;stop-color:#000000;stop-opacity:1"
       d="m 61.972319,17.144531 a 1,1 0 0 1 0.662109,0.267578 c 4.407842,4.098469 6.927735,10.109724 6.927735,16.435547 0,6.325823 -2.519893,12.339031 -6.927735,16.4375 a 1,1 0 0 1 -1.412109,-0.05273 1,1 0 0 1 0.05078,-1.41211 c 3.970339,-3.691676 6.289064,-9.179175 6.289064,-14.97266 0,-5.793485 -2.318725,-11.279031 -6.289063,-14.970703 a 1,1 0 0 1 -0.05078,-1.414062 1,1 0 0 1 0.749999,-0.31836 z"
       id="path144762" />
  </g>
</svg>
