<?xml version="1.0" encoding="UTF-8" standalone="no"?>
<svg
   id="svg8"
   version="1.1"
   viewBox="0 0 155.575 155.575"
   height="588"
   width="588"
   sodipodi:docname="springbrunnen_icon.svg"
   inkscape:version="1.1.2 (0a00cf5339, 2022-02-04, custom)"
   xmlns:inkscape="http://www.inkscape.org/namespaces/inkscape"
   xmlns:sodipodi="http://sodipodi.sourceforge.net/DTD/sodipodi-0.dtd"
   xmlns="http://www.w3.org/2000/svg"
   xmlns:svg="http://www.w3.org/2000/svg"
   xmlns:rdf="http://www.w3.org/1999/02/22-rdf-syntax-ns#"
   xmlns:cc="http://creativecommons.org/ns#"
   xmlns:dc="http://purl.org/dc/elements/1.1/">
  <sodipodi:namedview
     id="namedview59"
     pagecolor="#ffffff"
     bordercolor="#666666"
     borderopacity="1.0"
     inkscape:pageshadow="2"
     inkscape:pageopacity="0.0"
     inkscape:pagecheckerboard="0"
     showgrid="false"
     inkscape:zoom="1.2227891"
     inkscape:cx="294"
     inkscape:cy="294"
     inkscape:window-width="1920"
     inkscape:window-height="1168"
     inkscape:window-x="0"
     inkscape:window-y="32"
     inkscape:window-maximized="1"
     inkscape:current-layer="svg8" />
  <defs
     id="defs2" />
  <metadata
     id="metadata5">
    <rdf:RDF>
      <cc:Work
         rdf:about="">
        <dc:format>image/svg+xml</dc:format>
        <dc:type
           rdf:resource="http://purl.org/dc/dcmitype/StillImage" />
        <dc:title />
      </cc:Work>
    </rdf:RDF>
  </metadata>
  <g
     transform="translate(0,-141.42498)"
     id="layer1">
    <g
       transform="translate(-0.37368168,141.51872)"
       id="22aa5019-b517-444c-b4e2-e6b5a3501f5c" />
    <path
       id="path1508"
       d="m 74.740885,204.61133 c 1.133531,-6.52198 -3.473161,-14.31058 -10.775137,-13.24721 -9.231143,-1.91284 -6.241561,15.47257 -13.837626,10.67187 -2.084009,-10.61348 10.447872,-19.66351 20.179035,-15.61482 8.402597,5.71824 2.100212,-9.60948 -1.516862,-11.72984 -7.493164,-7.86687 -21.42147,-6.79221 -27.862265,1.84601 -4.897996,2.76561 -2.30827,18.98452 -9.742133,12.46495 -0.940289,-13.19196 11.063407,-25.98625 24.471945,-25.15384 6.967466,-0.53023 13.623269,2.99716 18.431727,7.82124 -1.807454,-17.34821 -22.406089,-29.16335 -38.291511,-21.95479 -10.607462,4.23673 -17.687692,15.06603 -17.863887,26.39341 -5.10742,7.26131 -6.916047,-5.00591 -4.363936,-8.92077 4.195419,-17.8655 24.524298,-29.34113 42.03165,-24.01586 9.58152,2.61331 17.251368,9.97941 21.824699,18.60844 6.026269,-11.86591 18.630375,-20.7012 32.259136,-19.79676 17.87844,0.0442 33.86377,16.72488 32.58016,34.62731 -6.60235,6.22686 -5.30264,-7.97118 -7.73773,-11.73644 -5.47601,-13.72889 -22.58238,-21.03223 -36.225947,-15.30119 -9.051599,3.50577 -16.205192,12.11454 -17.472977,21.7616 7.173386,-6.50562 17.812472,-10.01211 27.128074,-6.0837 9.46602,3.4811 16.58989,13.5761 15.61905,23.75219 -6.81097,6.49413 -4.94558,-8.63393 -9.00307,-11.72378 -6.96671,-10.6645 -24.727541,-10.19065 -31.235691,0.72079 -2.615988,3.67449 -5.407495,13.72979 1.895444,8.20112 9.618887,-3.73891 21.525127,5.65667 19.536427,15.90332 -7.452391,4.90301 -4.59688,-12.05631 -13.480935,-10.72231 -7.755789,-1.38324 -12.417584,6.94459 -10.934975,13.74722 0.266906,2.85464 0.466222,5.64169 -3.244006,4.51919 -3.957987,1.09277 -1.84531,-2.76939 -2.368659,-5.03735 z"
       style="fill:#000000;fill-opacity:1;stroke-width:0.374176" />
    <path
       id="path1510"
       d="m 70.250758,249.81 c -16.215045,-2.54796 -32.900082,-11.08291 -40.543479,-26.21902 -0.683414,-3.5328 -8.455387,-9.15592 -1.447144,-10.20052 33.016192,0.11294 66.040933,-0.28001 99.050385,0.2924 6.76613,2.47133 -2.92054,6.42282 -2.5764,11.00284 -7.96776,14.46062 -24.2361,22.78779 -40.156812,25.01417 -4.761762,0.30368 -9.565423,0.50513 -14.32655,0.11013 z"
       style="fill:#000000;fill-opacity:1;stroke-width:0.374176" />
    <path
       id="path1512"
       d="m 62.018856,257.31265 c -0.0041,-3.26521 -1.025583,-7.62475 4.060394,-4.54101 8.70708,1.35918 17.739188,1.26023 26.323867,-0.65626 -0.32947,2.88948 1.530127,9.03963 -0.57707,10.66649 -9.935731,0 -19.871459,0 -29.807191,0 0,-1.82307 0,-3.64614 0,-5.46922 z"
       style="fill:#000000;fill-opacity:1;stroke-width:0.374176" />
    <path
       id="path1514"
       d="M 27.033275,295.55437 C 15.538608,293.00638 6.5944836,283.49016 3.2029617,272.48005 c -7.5695378,-3.46708 0.5694508,-7.98082 5.2755688,-6.10167 48.2837955,-0.25331 96.5831595,-0.5505 144.8603195,0.15635 4.14385,4.68713 -4.80809,7.51653 -4.69328,13.11133 -4.69413,8.67778 -13.73247,14.8401 -23.33065,16.61648 -31.774508,-0.0182 -63.586579,0.25962 -95.337655,0.0568 -0.981332,-0.25501 -1.962661,-0.51001 -2.94399,-0.76502 z"
       style="fill:#000000;fill-opacity:1;stroke-width:0.374176" />
    <path
       id="path1516"
       d="M 27.382552,295.50716 C 15.782316,293.10488 7.1040497,283.60803 3.2956844,272.7355 c -7.447871,-4.21092 1.4526265,-7.81134 6.3592386,-6.26681 47.783903,-0.25108 95.569237,-0.0854 143.353787,-0.13214 4.61126,4.70348 -5.02454,8.56244 -5.00361,14.07862 -4.68881,7.5464 -12.46785,13.33819 -21.08378,15.37237 -32.18688,0.52015 -64.380136,0.39535 -96.570252,0.54598 -0.989504,-0.27545 -1.979012,-0.55091 -2.968516,-0.82636 z"
       style="fill:#000000;fill-opacity:1;stroke-width:0.374176" />
    <path
       id="path1518"
       d="M 26.482778,295.33929 C 15.822192,292.54893 7.3721046,284.07788 3.7839634,273.75965 c -5.011928,-2.40784 -4.07654753,-8.90136 2.1667041,-7.22056 49.0173715,-0.39353 98.0387825,-0.12675 147.0579425,-0.20254 4.3779,4.72209 -4.94352,9.19785 -5.32927,14.62166 -4.77769,7.45117 -12.66921,13.09359 -21.24188,15.07516 -32.136924,0.13071 -64.273845,0.26142 -96.410766,0.39214 -1.181306,-0.36207 -2.36261,-0.72415 -3.543916,-1.08622 z"
       style="fill:#000000;fill-opacity:1;stroke-width:0.374176" />
    <path
       id="path1520"
       d="M 25.349477,295.0266 C 15.297468,292.16711 7.6858526,283.9958 3.9409412,274.44279 c -5.372212,-3.90282 -3.66790382,-9.71726 3.3318915,-7.94982 48.5773693,-0.30388 97.1570473,-0.0978 145.7354473,-0.15642 4.28884,5.00541 -5.02146,9.94316 -5.8213,15.42592 -4.73392,7.01312 -12.34843,12.21614 -20.45516,14.2891 -32.484491,0.13308 -64.968985,0.26615 -97.453481,0.39923 -1.309621,-0.47473 -2.61924,-0.94947 -3.928862,-1.4242 z"
       style="fill:#000000;fill-opacity:1;stroke-width:0.374176" />
    <path
       id="path1522"
       d="M 25.162389,295.02073 C 15.562095,292.04913 8.0218128,284.44221 4.2193858,275.2496 c -3.92565735,-3.44917 -5.8039401,-10.34475 1.9079657,-8.73826 48.9010015,-0.43105 97.8062385,-0.26514 146.7091585,-0.4105 4.52554,5.28072 -4.86453,10.95384 -6.22535,16.60367 -4.45171,6.34232 -11.4713,10.72389 -18.74559,13.04888 -32.374578,0.77294 -64.776498,0.42685 -97.163328,0.67316 -2.015792,0.33719 -3.687101,-0.82422 -5.539853,-1.40582 z"
       style="fill:#000000;fill-opacity:1;stroke-width:0.374176" />
    <path
       id="path1524"
       d="M 24.9753,295.02896 C 15.94341,291.964 8.5975853,285.16142 4.7859007,276.42382 c -2.5590468,-3.32037 -7.9622135,-10.88824 0.3466368,-9.88329 49.3635635,-0.48555 98.7328925,-0.27715 148.0990425,-0.43234 3.70524,5.66938 -5.0351,10.91077 -6.60723,16.53456 -4.45277,6.68892 -11.83379,10.89067 -19.21061,13.49233 -32.961248,0.11296 -65.922502,0.22592 -98.883754,0.33887 -1.184894,-0.48166 -2.369791,-0.96333 -3.554686,-1.44499 z"
       style="fill:#000000;fill-opacity:1;stroke-width:0.374176" />
    <path
       id="path1526"
       d="m 24.414034,294.85999 c -9.108425,-3.19813 -16.2311299,-10.5162 -20.1577142,-19.22178 -4.83320129,-4.17108 -4.97040266,-11.14374 3.0516393,-9.15333 48.6641629,-0.37671 97.3313809,-0.24381 145.9969409,-0.37526 3.67091,5.35174 -4.49207,10.11061 -5.87864,15.32439 -4.47751,7.18077 -12.20948,12.21705 -20.15698,14.52182 -33.035448,0.45758 -66.075614,0.37727 -99.113473,0.52749 -1.247256,-0.54111 -2.494515,-1.08222 -3.741773,-1.62333 z"
       style="fill:#000000;fill-opacity:1;stroke-width:0.374176" />
    <path
       id="path1528"
       d="M 23.850666,294.68088 C 14.265642,291.23797 7.5910513,283.0198 3.1889731,274.15757 c -5.1171907,-4.2524 -2.0659723,-9.38083 4.1268295,-7.67252 48.7389114,-0.37515 97.4808674,-0.24079 146.2211574,-0.37069 3.13537,6.2574 -5.53394,11.52068 -7.46216,17.29708 -4.3913,6.28626 -11.47627,10.18834 -18.45132,12.81771 -33.280616,0.0765 -66.561233,0.15298 -99.841849,0.22947 -1.310323,-0.59258 -2.620643,-1.18516 -3.930965,-1.77774 z"
       style="fill:#000000;fill-opacity:1;stroke-width:0.374176" />
    <path
       id="path1530"
       d="M 27.220365,296.21262 C 18.064316,293.07187 9.9549674,286.94531 5.5416455,278.20029 1.6514199,273.5779 -3.0337992,264.38103 7.3132632,266.48551 56.042461,266.11452 104.77465,266.25306 153.50521,266.12732 c 3.26662,5.9381 -5.14583,11.13058 -6.9254,16.67552 -4.4446,6.41805 -11.44869,10.68762 -18.70574,13.22173 -33.542252,0.47956 -67.110225,0.55169 -100.653705,0.18805 z"
       style="fill:#000000;fill-opacity:1;stroke-width:0.374176" />
    <path
       id="path1532"
       d="M 26.097832,295.74743 C 16.515598,292.37876 8.6670474,285.24337 4.2623102,276.10225 c -4.67438032,-4.26763 -5.20775208,-11.69966 3.0283993,-9.62264 48.5852335,-0.4034 97.1750605,-0.42623 145.7617705,-0.37613 4.11557,5.87162 -5.30811,12.65428 -7.7195,18.30451 -4.72089,5.70078 -11.48144,10.07463 -18.66362,11.71676 -32.496816,0.40974 -65.007382,0.46475 -97.503628,0.0719 -1.026652,-0.0795 -2.094661,-0.0623 -3.0679,-0.44923 z"
       style="fill:#000000;fill-opacity:1;stroke-width:0.374176" />
    <path
       id="path1534"
       d="m 62.018856,257.31626 c -2.097444,-9.76844 10.516807,-1.79207 16.024111,-3.97773 5.911213,1.20779 17.002922,-4.77244 14.615232,5.29713 0.798875,3.41015 -0.262242,5.00514 -3.837895,4.14621 -8.933815,0 -17.867633,0 -26.801448,0 0,-1.82187 0,-3.64374 0,-5.46561 z"
       style="fill:#000000;fill-opacity:1;stroke-width:0.374176" />
    <path
       id="path1536"
       d="m 62.018856,257.33108 c -2.27671,-9.8766 10.4217,-1.78807 15.715449,-4.1256 5.332306,1.72906 17.336243,-5.19609 14.961361,4.80563 0.30466,3.05836 0.409858,5.9175 -3.495661,4.77076 -9.060379,0 -18.12076,0 -27.181138,0 -3e-6,-1.81693 -8e-6,-3.63386 -1.1e-5,-5.45079 z"
       style="fill:#000000;fill-opacity:1;stroke-width:0.374176" />
    <path
       id="path1538"
       d="m 62.018856,257.31265 c -0.886219,-5.0769 0.593456,-6.61208 6.011712,-4.53599 8.014631,0.5824 16.132349,0.62463 24.089182,-0.25856 0.275522,2.66156 1.646074,8.71975 -0.293692,10.26377 -9.935731,0 -19.87146,0 -29.807191,0 -3e-6,-1.82308 -8e-6,-3.64615 -1.1e-5,-5.46922 z"
       style="fill:#000000;fill-opacity:1;stroke-width:0.374176" />
    <path
       id="path1540"
       d="m 62.018856,257.32656 c -0.495403,-4.23697 -0.202366,-7.26636 5.242023,-4.65553 8.403135,0.64459 16.84705,0.1512 25.253429,-0.17904 0.06941,3.42996 0.138808,6.85992 0.208208,10.28988 -10.234554,0 -20.469105,0 -30.70366,0 0,-1.81844 0,-3.63687 0,-5.45531 z"
       style="fill:#000000;fill-opacity:1;stroke-width:0.374176" />
    <path
       id="path1542"
       d="m 62.018856,257.31465 c -0.426048,-3.99065 -0.338291,-7.18029 4.815753,-4.77135 8.54152,0.77029 17.130276,0.35193 25.679699,-0.0513 0.06941,3.42996 0.138808,6.85992 0.208208,10.28988 -10.234554,0 -20.469105,0 -30.70366,0 0,-1.82241 0,-3.64481 0,-5.46722 z"
       style="fill:#000000;fill-opacity:1;stroke-width:0.374176" />
    <path
       id="path1544"
       d="m 62.018856,257.22693 c 0.308393,-2.35117 -1.308208,-7.04827 2.575523,-5.04229 9.262788,1.02455 18.623341,0.67496 27.919929,0.30735 0.06941,3.42996 0.138808,6.85992 0.208208,10.28988 -10.234554,0 -20.469105,0 -30.70366,0 0,-1.85165 0,-3.7033 0,-5.55494 z"
       style="fill:#000000;fill-opacity:1;stroke-width:0.374176" />
    <path
       id="path1546"
       d="m 62.018856,257.14399 c -2.390079,-9.99919 10.239084,-2.61718 15.703976,-4.38001 4.712401,0.56265 11.092786,-0.92154 14.978565,-0.0922 0,3.37002 0,6.74005 0,10.11008 -10.227513,0 -20.455027,0 -30.682541,0 0,-1.8793 0,-3.75859 0,-5.63788 z"
       style="fill:#000000;fill-opacity:1;stroke-width:0.374176" />
    <path
       id="path1548"
       d="m 62.018856,257.12556 c -0.608412,-4.59754 -3.46e-4,-7.11238 5.414553,-4.7578 8.413117,0.54801 16.846266,0.13891 25.267988,0.0682 0,3.44863 0,6.89727 0,10.34591 -10.227513,0 -20.455027,0 -30.682541,0 0,-1.88544 0,-3.77087 0,-5.65631 z"
       style="fill:#000000;fill-opacity:1;stroke-width:0.374176" />
    <path
       id="path1550"
       d="M 66.134807,248.90739 C 50.67505,245.44783 35.264994,236.3095 28.764669,221.27386 c -3.716217,-2.56904 -4.974699,-8.77812 1.36203,-7.77569 32.183072,-0.15722 64.378106,-0.18612 96.556981,0.31851 7.22451,1.63756 -3.02507,8.66219 -3.42043,13.1398 -9.01046,13.22931 -24.789981,21.45575 -40.624478,22.58943 -5.485101,0.0773 -11.089994,0.4345 -16.503965,-0.63852 z"
       style="fill:#000000;fill-opacity:1;stroke-width:0.374176" />
    <path
       id="path1552"
       d="m 68.379871,249.43834 c -16.631626,-3.0933 -32.934418,-12.82016 -40.137868,-28.65458 -5.056778,-2.85889 -2.644976,-9.13152 2.648371,-7.43011 32.207911,0.19619 64.427895,-0.15504 96.626146,0.53096 5.54111,3.05193 -4.08225,9.07012 -4.69752,13.73129 -8.72918,12.41834 -23.462435,20.27841 -38.42485,21.80598 -5.335233,0.0985 -10.681419,0.24204 -16.014279,0.0165 z"
       style="fill:#000000;fill-opacity:1;stroke-width:0.374176" />
    <path
       id="path1554"
       d="m 65.947718,248.95609 c -15.44809,-3.42916 -30.3095,-12.76502 -37.271272,-27.33373 -5.847041,-4.25614 -2.742623,-10.21982 4.432062,-8.10625 31.468631,-0.0556 62.953219,-0.29671 94.412572,0.36854 5.53446,3.11279 -4.171,9.82172 -5.18048,14.41617 -8.60347,11.75081 -22.620709,19.35303 -36.976831,21.07424 -6.452344,0.002 -13.035,0.764 -19.416051,-0.41897 z"
       style="fill:#000000;fill-opacity:1;stroke-width:0.374176" />
    <path
       id="path1556"
       d="M 66.321894,249.0715 C 51.014365,245.65265 36.199008,236.70792 28.9658,222.36238 c -4.299104,-2.95154 -5.051825,-10.61562 1.52087,-9.00121 32.34273,0.19392 64.697485,-0.16002 97.03059,0.52351 5.53951,3.35406 -4.48554,10.52633 -5.743,15.18202 -10.77175,13.98136 -28.931282,21.80074 -46.494839,20.59743 -2.988082,-0.0762 -6.00407,-0.0805 -8.957527,-0.59263 z"
       style="fill:#000000;fill-opacity:1;stroke-width:0.374176" />
    <path
       id="path1558"
       d="m 66.181766,249.10855 c -15.403754,-3.59534 -30.202783,-12.61259 -37.499637,-27.09522 -4.49455,-3.00188 -4.344485,-10.43437 1.918103,-8.797 32.302674,0.24164 64.618123,-0.0635 96.910498,0.66718 5.68155,3.15011 -4.02596,10.0068 -5.16521,14.50109 -8.25424,11.29809 -21.56246,18.45999 -35.182169,20.81789 -6.97188,0.40319 -14.032312,0.70928 -20.981585,-0.0939 z"
       style="fill:#000000;fill-opacity:1;stroke-width:0.374176" />
    <path
       id="path1560"
       d="m 66.061565,249.08655 c -15.669447,-3.52957 -30.468786,-13.04623 -37.791842,-27.67588 -4.081031,-2.56279 -3.869799,-9.71909 1.827247,-8.28205 32.468735,0.27067 64.950668,-0.005 97.40872,0.75419 5.62038,3.40112 -4.29118,10.7558 -5.80117,15.27706 -8.5877,11.41691 -22.418321,18.37665 -36.386257,20.31142 -6.407282,0.25723 -12.881446,0.40185 -19.256698,-0.38474 z"
       style="fill:#000000;fill-opacity:1;stroke-width:0.374176" />
    <path
       id="path1562"
       d="M 67.444429,249.43456 C 51.248918,246.09673 35.9044,236.51314 28.243141,221.49671 c -4.259783,-2.87208 -3.633673,-10.15581 2.199529,-8.49816 31.834756,0.25948 63.679796,0 95.50564,0.78313 9.09393,1.73264 -3.621,12.61495 -5.73799,17.30546 -8.26349,9.72286 -20.336667,15.9651 -32.792893,18.20121 -6.649079,0.29222 -13.320432,0.32401 -19.972998,0.14621 z"
       style="fill:#000000;fill-opacity:1;stroke-width:0.374176" />
    <path
       id="path1564"
       d="m 74.672771,203.94248 c 1.79151,-8.05857 -7.018628,-15.72131 -14.547117,-11.44847 -4.729382,1.46566 -5.002143,15.59769 -10.041874,8.47056 -0.751229,-10.07142 10.229421,-17.72266 19.52358,-14.58342 10.106277,6.21179 2.177873,-11.055 -2.264854,-12.93974 -7.843139,-6.82013 -20.73289,-4.81525 -26.711796,3.50454 -4.122185,2.90669 -3.187507,19.5267 -9.42267,11.27139 -0.129653,-13.07571 11.726953,-25.31579 25.057587,-24.17838 6.681213,-0.47866 12.762312,3.1807 17.631632,7.40714 -0.93046,-11.16819 -10.584892,-19.885 -20.764143,-23.1387 -15.51732,-4.08877 -32.685963,7.66763 -34.746783,23.49127 1.851613,6.55023 -7.259259,9.10975 -5.639385,1.39125 0.89962,-18.3687 19.076278,-33.3554 37.286366,-30.85831 12.038523,0.74854 21.50402,9.62018 27.553991,19.38747 3.734255,-7.14349 10.312529,-13.90955 18.14255,-17.10801 15.439665,-6.72972 34.996305,0.42236 42.655565,15.381 1.92519,4.96623 7.60523,16.26908 0.60504,18.25544 -4.0747,-5.1923 -2.28387,-14.04193 -7.73372,-19.15007 -5.93319,-7.6976 -15.50905,-12.53532 -25.3698,-11.256 -12.37691,0.63335 -23.40958,11.40947 -25.11859,23.50713 6.202699,-4.94401 13.98696,-8.71968 22.14247,-7.25207 11.6049,1.45994 20.91901,12.49641 20.66369,24.12477 -4.40474,7.58675 -6.08747,-5.08199 -7.4113,-8.33538 -3.32983,-6.64958 -10.59999,-11.25051 -18.14314,-10.01687 -5.738633,-0.80653 -10.962965,3.19552 -14.275051,7.53559 -2.619354,2.95161 -6.220495,14.03798 1.156602,9.06074 9.497285,-3.66941 21.162719,4.90734 19.845819,15.13851 -6.743314,5.63259 -5.06766,-11.27836 -13.150803,-10.08537 -7.438075,-1.54197 -12.662093,5.79423 -11.183924,12.6744 -0.366403,2.39249 1.135788,6.70514 -2.774627,5.45578 -3.751487,1.23934 -2.811838,-2.33577 -2.942132,-4.81281 -0.0077,-0.29779 -0.01545,-0.59559 -0.02318,-0.89338 z"
       style="fill:#000000;fill-opacity:1;stroke-width:0.374176" />
    <path
       id="path1566"
       d="m 74.63125,204.50375 c 1.422342,-7.12581 -4.728673,-15.06695 -12.396869,-12.57187 -6.517466,-0.45655 -6.924612,16.7908 -12.179866,8.92135 -0.63591,-10.06906 10.506863,-17.8809 19.822064,-14.37196 9.665242,4.32446 0.995908,-11.61092 -3.783541,-13.88449 -8.62257,-6.33825 -21.75678,-2.84102 -26.608863,6.54987 -2.131295,3.63947 -3.870105,17.25291 -8.457514,8.53818 0.549079,-12.48683 11.33852,-24.23852 24.241802,-23.64563 6.903632,-0.7558 13.198382,2.81136 18.349891,7.03922 -0.516266,-8.88734 -7.728469,-16.25812 -15.149843,-20.40578 -9.788329,-5.30205 -22.85261,-3.37709 -30.734616,4.5158 -6.513779,5.10168 -8.943681,13.1801 -10.117217,21.02975 -5.55525,7.08536 -5.974472,-7.0583 -3.428096,-10.56241 4.554443,-15.20216 20.888034,-25.70736 36.644292,-23.20893 11.111211,0.88856 20.005108,8.84279 25.847976,17.79215 4.979466,-2.26352 8.879332,-11.78477 15.906985,-14.06708 14.573535,-8.3924 34.907505,-3.32212 43.942525,10.85342 3.8764,5.90878 6.6347,13.29771 5.34041,20.38042 -7.50613,3.26282 -4.51842,-10.98782 -8.48527,-14.85768 -5.24732,-8.53133 -14.78512,-15.55961 -25.20721,-14.59698 -13.16281,-0.74318 -25.112907,10.38501 -27.370871,22.99332 6.304094,-4.23653 13.596223,-8.37492 21.566241,-6.99146 11.87985,1.37537 21.64936,12.57506 21.23109,24.50655 -6.40152,7.42371 -5.25795,-9.61081 -10.1614,-12.20681 -3.80384,-5.22568 -10.09132,-7.06196 -16.296985,-6.26185 -5.168585,-0.59904 -9.651827,3.32932 -12.967152,6.85006 -3.124284,3.76497 -6.794447,14.8575 1.868697,9.26586 9.349258,-2.92345 20.24944,6.02627 18.66637,15.76812 -7.151521,4.9064 -5.2992,-13.12649 -14.721044,-10.23607 -8.188888,-0.80604 -10.200553,7.90056 -9.555752,14.28319 0.732694,3.48707 -1.077034,4.30268 -4.211156,3.72666 -2.700875,0.87492 -0.981861,-3.73763 -1.595078,-5.14492 z"
       style="fill:#000000;fill-opacity:1;stroke-width:0.374176" />
    <path
       id="path1568"
       d="m 74.615738,204.50375 c 1.132678,-6.62614 -3.998643,-14.30319 -11.290546,-12.69684 -7.386725,-1.42202 -7.65936,16.82483 -13.270677,9.04632 -0.63128,-10.02987 10.399717,-17.8321 19.717916,-14.44273 9.309002,4.69927 1.59883,-10.44741 -2.431068,-12.57846 -7.16742,-6.64045 -19.249189,-5.39331 -25.403183,2.03367 -5.618686,2.89212 -2.655355,17.13717 -9.943391,13.9286 -2.598382,-7.27676 2.945559,-15.87614 8.51576,-20.64942 6.055561,-5.60782 14.823594,-5.63747 22.461072,-4.42611 4.140271,0.44081 13.773576,10.88731 9.45111,1.00277 -3.753787,-8.6087 -11.70649,-15.51378 -20.820748,-17.60838 -6.336744,0.0491 -13.091183,-0.73064 -18.540753,3.2747 -8.750638,4.67394 -13.945109,13.90568 -15.1101,23.56184 -2.278832,8.58518 -8.0587517,-1.70713 -4.702135,-6.07216 3.442103,-17.25037 21.754284,-29.88413 39.107373,-26.26739 10.631385,1.38382 18.754752,9.34565 24.583319,17.77143 5.062384,-3.67278 8.709689,-11.24786 15.266865,-14.11355 15.743898,-9.35858 38.220028,-2.5445 46.241908,13.90158 2.66906,5.22244 4.55947,11.37799 3.42948,17.22513 -7.4632,3.27639 -4.84902,-11.01114 -8.79877,-14.90519 -5.54773,-9.8234 -17.10038,-16.34344 -28.47824,-14.35244 -11.600392,1.28972 -21.077423,11.19781 -23.643008,22.30095 5.015227,-2.27277 10.852113,-7.072 17.381299,-6.5641 13.380179,-1.14822 25.944339,11.24555 25.193969,24.56295 -5.98084,7.24454 -5.62857,-8.29703 -9.54627,-11.4599 -3.72105,-5.38195 -10.07742,-7.58628 -16.413184,-6.98219 -4.880385,-0.79857 -9.099872,2.94186 -12.401322,6.06876 -3.222839,2.91329 -8.183065,15.04412 0.375216,10.18223 9.369012,-3.39891 20.81123,5.65217 19.16673,15.56444 -6.882838,4.7862 -5.799948,-12.65175 -14.856604,-10.15689 -9.074131,-0.36081 -9.740643,9.46435 -9.451038,16.16472 0.118851,3.1505 -7.643529,2.87505 -5.693108,-1.22976 -0.03263,-0.69486 -0.06525,-1.38972 -0.09787,-2.08458 z"
       style="fill:#000000;fill-opacity:1;stroke-width:0.374176" />
    <path
       id="path1570"
       d="m 74.590496,204.69083 c 1.359337,-7.77167 -6.157632,-16.2768 -14.035875,-11.96353 -4.314653,1.26964 -6.066648,15.75252 -10.500106,8.12595 -0.542097,-9.28414 8.783365,-16.7717 17.747876,-14.98332 3.607938,1.35485 8.740836,3.04668 5.640869,-2.8936 -3.0877,-10.91884 -17.336756,-17.43976 -27.028928,-10.65601 -6.775587,3.37799 -8.561067,11.00184 -10.642475,17.5566 -8.304012,2.52798 -3.3972,-11.45042 -0.361453,-15.20983 5.220242,-8.19618 15.322312,-12.08559 24.778687,-10.45543 5.164767,0.55647 9.345009,3.83288 13.529516,6.61305 -1.91874,-11.07603 -11.420171,-20.1062 -22.116624,-22.65167 -6.584074,-0.0361 -13.61672,-0.55179 -19.197687,3.66857 -8.323727,4.67288 -13.045871,13.58167 -14.314512,22.82149 -1.209675,7.86734 -8.168836,1.16113 -5.195643,-3.72568 2.104232,-16.6644 18.314907,-30.20482 35.159216,-28.73484 12.000717,-0.19024 21.977868,8.11026 28.454956,17.52208 5.786815,-2.4311 11.262833,-13.75054 20.039446,-15.55577 13.591381,-5.2507 30.240731,-0.56224 38.869961,11.27124 4.54356,6.2073 7.83397,14.2168 6.46022,21.95462 -7.62627,3.15469 -4.95842,-11.51815 -9.23505,-15.44096 -5.5316,-9.44024 -16.63493,-15.35558 -27.59901,-13.76756 -11.561658,1.23822 -21.418853,10.7793 -23.849352,22.00886 5.848546,-2.8253 12.070672,-7.2736 19.186722,-6.49045 12.61824,0.50594 23.8848,11.9597 23.1552,24.72943 -5.82163,7.42353 -5.83339,-8.26602 -9.51071,-11.21443 -3.99514,-5.88217 -10.9529,-7.77971 -17.674096,-7.25789 -4.991597,-0.13381 -9.069779,4.28064 -12.259066,7.65412 -3.383201,3.88154 -5.770949,13.59865 2.299504,8.3431 9.368377,-2.76854 19.909528,6.44016 18.374348,16.03077 -7.209275,4.73251 -5.39081,-12.16575 -14.00101,-10.20232 -10.3304,-1.26901 -10.449975,10.13683 -10.364139,17.27329 -2.193124,1.26127 -7.205353,1.41803 -5.735368,-2.90877 -0.02514,-0.48704 -0.05028,-0.97407 -0.07542,-1.46111 z"
       style="fill:#000000;fill-opacity:1;stroke-width:0.374176" />
    <path
       id="path1572"
       d="m 74.454093,204.0637 c 1.352344,-7.75472 -6.495034,-15.29133 -13.931947,-11.24809 -4.49983,1.5375 -5.746827,15.53954 -10.466345,8.05322 -0.667573,-9.85075 9.93676,-17.57056 19.19933,-14.65315 9.909948,4.71796 1.697898,-10.72835 -2.696734,-12.75115 -9.332819,-7.97732 -24.985728,-2.44159 -28.308609,9.07745 -0.153969,4.33669 -4.865275,12.67061 -7.253372,4.98781 0.613074,-13.04187 12.556328,-25.0706 26.001495,-23.51879 6.305066,-0.30834 11.725678,3.21859 16.650804,6.70433 -1.906045,-10.66983 -10.974771,-19.64479 -21.298376,-22.24459 -7.390659,0.0374 -15.466296,-0.92704 -21.443982,4.47184 -7.436374,4.82287 -11.526529,13.08384 -12.793338,21.64742 -3.784493,10.03163 -7.811211,-3.23603 -4.348683,-7.78477 4.017784,-15.47403 20.186507,-26.60614 36.106793,-24.51659 11.70205,0.60307 21.098756,9.0415 27.297806,18.34757 5.596914,-6.50232 11.293425,-13.73843 19.78824,-16.6259 16.762685,-6.51423 37.461115,3.04501 43.299745,20.11121 1.72123,3.55511 4.72091,17.0527 -2.49804,13.14308 -2.50841,-8.54412 -4.42673,-18.17093 -12.49368,-23.47679 -10.7049,-8.67913 -28.051252,-7.39796 -36.961127,3.29426 -2.869629,2.79936 -8.172924,11.28001 -5.963285,12.6874 8.042015,-5.79498 19.063082,-8.3762 28.123172,-3.28193 8.10876,4.02779 13.7034,13.32424 13.01171,22.3734 -6.03471,6.44288 -5.78264,-8.4192 -9.28939,-11.378 -3.92323,-5.95924 -10.88117,-8.00277 -17.640053,-7.52785 -5.013418,-0.13016 -9.290614,4.18274 -12.413763,7.6973 -2.578661,3.15329 -6.124517,12.98925 1.315953,8.57791 9.504436,-3.59558 21.014303,5.80598 19.310293,15.76501 -7.258835,4.52412 -5.864272,-12.65549 -14.953135,-10.21367 -9.176099,-0.3493 -9.371343,10.02857 -9.298109,16.65098 0.142721,1.94177 -5.518063,1.75797 -5.700609,0.34317 -0.117589,-1.5707 -0.235175,-3.14139 -0.352764,-4.71209 z"
       style="fill:#000000;fill-opacity:1;stroke-width:0.374176" />
    <path
       id="path1574"
       d="m 74.737687,208.6197 c 0.520485,-7.06376 -1.535417,-17.75018 -10.777395,-16.84509 -7.874807,-1.71898 -7.749931,16.65765 -13.903341,9.34217 -0.935638,-9.90297 9.615123,-17.62266 18.90013,-15.01506 9.876864,4.56105 2.331225,-9.64689 -1.695255,-12.07479 -8.568086,-7.80381 -23.765554,-4.2639 -28.088587,6.48789 -0.923414,4.01707 -4.833752,15.63462 -8.176823,7.01497 0.573984,-13.09639 12.674036,-25.20538 26.139616,-23.47231 5.922102,-1.56955 12.799353,5.53323 16.268485,5.40917 -3.102988,-12.09779 -15.067605,-22.45442 -27.935795,-20.99484 -10.466718,-0.73194 -19.971509,7.09287 -24.42122,16.07228 -1.872585,3.70626 -3.087478,19.2748 -8.392091,11.319 -0.904096,-18.78992 17.185199,-35.57821 35.833424,-33.69654 12.400296,-0.11147 22.103495,9.01196 28.90358,18.43188 6.159318,-8.57275 14.479019,-16.4993 25.351545,-18.13584 19.6386,-4.1747 40.29923,13.05509 39.4866,33.13759 -3.51256,8.14803 -7.17958,-5.04284 -7.59708,-8.76629 -3.92235,-12.4556 -17.59629,-20.64806 -30.44898,-18.34334 -11.124844,1.5353 -20.630696,10.97027 -22.810492,21.8951 6.325415,-4.17478 13.510633,-7.75726 21.338892,-6.47352 11.72715,1.52807 21.45145,12.78677 20.8654,24.62944 -5.93489,7.11988 -6.08284,-8.49984 -9.81859,-11.49298 -4.90255,-6.68791 -14.539413,-8.86607 -21.988159,-5.76051 -6.119799,3.07766 -10.8096,9.31495 -10.998107,16.27853 6.334908,-2.81685 14.312045,-3.11104 19.468336,2.20855 5.15505,2.24477 6.9885,17.87112 -0.32497,11.64162 -0.948677,-8.35959 -12.471146,-13.55533 -17.608667,-5.6004 -3.53891,4.14113 2.038644,15.71722 -6.518756,13.8323 -1.135557,0.10098 -1.127541,0.12044 -1.0517,-1.02898 z"
       style="fill:#000000;fill-opacity:1;stroke-width:0.374176" />
    <path
       id="path1576"
       d="m 74.564633,206.37463 c 0.640197,-6.86815 -2.931758,-16.12014 -11.398107,-14.37349 -7.19139,-0.63956 -7.132936,16.20828 -13.120796,8.98281 -0.796522,-9.41068 8.856922,-17.0676 17.899809,-15.04638 5.05596,2.48576 7.651599,0.25298 4.620895,-4.71349 -3.871249,-10.1055 -17.401,-14.67565 -26.427216,-8.56647 -6.293582,3.47518 -8.076945,10.7493 -10.171345,17.02798 -7.670974,3.94603 -4.410308,-10.13279 -1.457415,-13.55273 4.255646,-8.04632 13.589765,-13.12272 22.683433,-12.07828 5.514657,-2.33048 14.01327,7.21415 15.972528,4.66677 -3.577156,-13.0365 -17.350896,-22.62585 -30.88812,-20.1944 -11.856405,1.47231 -21.567219,11.79163 -23.449213,23.4455 1.640858,5.49549 -6.959443,9.21782 -6.197716,2.80416 -0.156113,-18.39537 17.501314,-34.40999 35.792134,-32.61266 12.048249,-0.21473 21.535525,8.50311 28.359086,17.51627 5.820992,-3.69009 11.321775,-13.46099 19.87745,-15.61263 14.97724,-5.89047 33.30675,0.71979 41.11333,14.78223 2.84381,5.51471 7.36959,15.10901 2.22433,19.74215 -6.06759,-3.85017 -3.70389,-14.03427 -9.20923,-19.15863 -6.14552,-8.56035 -17.11641,-12.68619 -27.41597,-10.80561 -10.576303,1.86142 -19.697689,10.9495 -21.76015,21.35816 6.178809,-3.72741 12.994627,-7.22662 20.46793,-6.10314 11.90478,1.0066 21.60056,12.2614 21.64747,24.04623 -4.80025,8.56456 -6.66081,-6.39411 -9.20356,-9.6996 -4.66686,-7.53126 -15.032756,-10.22912 -22.960594,-6.73907 -5.50119,2.59243 -11.83369,10.85697 -10.017368,15.77653 6.673543,-3.11883 15.202448,-2.21219 19.941162,3.80968 4.60688,2.71396 4.78117,16.79291 -1.71567,10.22551 -0.928349,-8.21025 -12.165613,-13.17903 -17.375566,-5.6782 -3.626638,3.99798 1.992514,15.4883 -6.135505,14.02485 -2.482087,0.70154 -1.208391,-1.84553 -1.696016,-3.27405 z"
       style="fill:#000000;fill-opacity:1;stroke-width:0.374176" />
    <path
       id="path1578"
       d="m 74.559233,206.74881 c 0.778785,-7.40159 -3.620238,-17.48336 -12.676706,-14.28741 -5.695899,0.25099 -6.629503,16.10778 -11.875722,8.38852 -0.688171,-9.41427 8.962205,-16.88053 17.959554,-14.93307 6.461067,3.28564 6.938013,-1.41985 3.898678,-6.1078 -5.034047,-10.2944 -20.182874,-13.29956 -28.392549,-5.06922 -6.423617,2.93887 -3.997049,17.69321 -11.567112,15.171 -2.437913,-6.01288 1.74403,-13.40695 5.653114,-18.19677 5.286036,-5.93039 13.339704,-8.67122 21.168175,-7.58253 5.206282,-1.48628 11.486258,6.00078 14.365657,4.79183 -3.169764,-12.13938 -15.509536,-21.99139 -28.311316,-20.32643 -10.891583,-0.32174 -21.012511,8.21895 -24.40148,18.25187 -1.329827,3.46957 -2.686265,16.21 -7.706041,9.47467 -1.342861,-19.30803 17.339845,-36.20048 36.304514,-34.22822 12.114424,0.31673 21.651256,9.04112 28.359071,18.34912 6.78688,-8.96253 15.923521,-17.73495 27.80157,-18.26835 16.70109,-2.14864 33.2815,10.24547 36.56007,26.62557 2.72662,4.37618 -1.40584,14.88556 -4.81301,6.3005 -1.66256,-7.64453 -4.34197,-15.47228 -10.84243,-20.38764 -7.10968,-6.67656 -18.01957,-7.79092 -26.999882,-4.87238 -8.545319,3.34822 -15.431256,11.05062 -17.469805,19.99187 6.513066,-3.71575 13.565862,-7.28698 21.341737,-5.91346 11.64782,1.54454 21.53995,12.94959 20.62335,24.77099 -6.40807,6.82688 -6.13649,-10.34787 -11.04393,-12.87753 -5.35565,-6.10869 -15.654209,-7.71809 -22.487568,-3.3036 -4.625645,2.53036 -10.687376,10.87669 -8.073631,14.47165 7.308421,-3.12378 16.624562,-1.3203 20.802819,5.82929 3.75139,3.03295 2.65099,14.62421 -2.840416,8.66166 -1.158787,-7.72658 -11.152909,-13.00648 -16.87069,-6.54961 -4.71905,3.75896 1.724499,16.14532 -6.766269,14.72535 -2.347645,0.67211 -1.279178,-1.5096 -1.699752,-2.89987 z"
       style="fill:#000000;fill-opacity:1;stroke-width:0.374176" />
    <path
       id="path1580"
       d="m 74.597526,207.49717 c 0.412279,-6.95826 -2.251969,-17.18593 -11.372757,-15.33352 -6.987098,-0.9667 -7.136873,15.86502 -13.155152,9.15388 -1.258139,-9.67941 8.921173,-17.38945 18.073632,-15.38445 10.730116,4.67675 2.942902,-9.50886 -1.673101,-12.24069 -9.050811,-7.75193 -24.310826,-2.6492 -27.762371,8.48096 -0.155906,4.9722 -6.45269,13.63123 -7.722521,4.28038 0.951905,-9.79428 7.787441,-18.18155 16.883337,-21.68337 3.61918,-1.28516 7.785193,-0.25178 11.629075,-0.58422 4.706594,-0.79051 8.234339,3.17117 12.251608,4.91788 3.596751,0.33809 -2.755019,-9.07786 -4.847984,-11.45821 -5.608775,-6.25972 -13.900639,-10.24321 -22.410152,-8.88663 -10.39495,-0.55338 -19.515118,7.64785 -23.628584,16.62681 -1.831923,3.70457 -2.540445,17.607 -8.187818,10.94063 -1.295453,-19.20585 17.367686,-36.49828 36.391066,-34.15601 11.905543,0.0411 21.090405,8.77487 27.872345,17.64306 4.5841,-2.89761 8.64439,-10.55368 14.680428,-13.2915 14.790983,-9.23822 35.954393,-3.96131 45.182913,10.70863 3.04652,5.21674 10.09709,18.63112 2.15517,21.16304 -4.52065,-5.44624 -3.30333,-14.19796 -8.7687,-19.41443 -9.20857,-12.95404 -30.308594,-14.47479 -40.899865,-2.47083 -2.967249,2.0945 -9.277181,12.53692 -6.706201,12.87714 8.221385,-5.85949 19.652166,-7.9134 28.666746,-2.62044 7.63153,4.46836 13.36466,13.63735 12.11821,22.58411 -7.10704,4.71908 -5.77112,-11.37933 -11.35639,-14.01729 -6.56303,-6.67761 -18.76804,-7.28038 -25.281566,-0.19043 -3.402705,2.51835 -10.020413,15.32643 -1.179049,10.8303 9.53911,-2.97388 20.259545,5.49906 19.424535,15.4432 -6.922978,6.40749 -6.499465,-12.42502 -15.488289,-9.39776 -9.124786,0.008 -8.523341,10.52961 -9.047083,17.04136 -1.074629,0.52845 -6.889502,2.01115 -5.841482,-1.5616 z"
       style="fill:#000000;fill-opacity:1;stroke-width:0.374176" />
    <path
       id="path1582"
       d="m 74.593232,207.69947 c 0.499144,-7.26039 -2.839304,-18.06455 -12.24951,-15.29268 -5.721802,0.0683 -7.316237,16.20084 -12.394758,8.54152 -0.788733,-9.72585 9.327444,-17.11309 18.474658,-14.98707 10.013368,4.04283 2.770638,-9.0906 -1.435703,-11.77064 -7.660746,-6.84142 -20.593071,-4.86733 -26.056531,3.77288 -3.619191,3.04593 -3.275981,17.29769 -9.670508,10.93419 -1.040288,-10.12164 6.422618,-19.80053 15.523774,-23.65438 3.806793,-2.31903 8.594685,-0.66369 12.810476,-1.18856 4.442701,-1.67892 12.587002,7.49275 13.476624,4.79834 -3.451448,-11.88413 -15.281299,-21.60888 -28.001905,-20.19329 -12.298693,-0.32184 -23.208275,10.05803 -25.681466,21.75412 0.254859,3.90084 -4.678772,12.33005 -6.732211,5.21639 -0.836904,-18.75744 17.32802,-35.54729 35.970699,-33.49139 9.711176,-0.2339 17.957728,5.77039 24.097109,12.74552 3.324143,4.64786 5.528842,7.0845 8.511066,0.80976 6.71703,-8.00269 16.364032,-14.25672 27.175504,-13.72445 18.35486,-0.7421 35.43649,16.58951 33.76373,34.94244 -7.16478,4.79321 -6.01235,-10.37143 -9.52228,-14.3119 -5.87456,-10.58076 -18.75256,-16.59625 -30.60992,-13.49558 -10.160751,2.29928 -17.907502,11.21068 -20.658304,21.01313 8.584065,-6.1141 20.684324,-9.22159 30.125904,-3.14307 7.51444,4.4578 13.38802,13.60888 11.79882,22.48353 -7.41534,4.22339 -5.80625,-12.20875 -12.08795,-14.77242 -6.2459,-5.51813 -17.048659,-6.41278 -23.362755,-0.46612 -4.853395,3.03437 -11.236442,16.83202 -0.533549,11.42861 9.253175,-2.00011 19.705504,7.46322 17.219514,16.90506 -7.422247,2.60672 -6.412441,-13.47943 -15.820553,-10.42663 -7.836167,0.60841 -7.695499,9.18308 -8.011668,15.0835 0.862304,3.67714 -3.513936,1.91332 -5.666121,2.45949 -0.574807,0.0608 -0.242721,-1.55171 -0.452186,-1.9703 z"
       style="fill:#000000;fill-opacity:1;stroke-width:0.374176" />
    <path
       id="path1584"
       d="m 74.587853,208.05843 c 0.180626,-6.82591 -1.983089,-17.47986 -11.1253,-15.85775 -6.910927,-0.66001 -8.478843,17.31811 -13.600525,8.03997 -0.0448,-8.622 8.43091,-16.0103 17.024349,-14.30813 4.344533,0.77716 9.388713,1.70446 5.584622,-4.13553 -3.902139,-11.78847 -20.821632,-15.7408 -29.308801,-6.54631 -5.896509,3.12796 -3.754961,17.40214 -11.282484,14.69906 -2.637274,-8.2336 3.550163,-17.54585 10.292781,-22.1676 3.400785,-2.02477 6.870957,-4.59459 11.026529,-3.76252 5.755145,-0.12615 11.708834,-0.0223 16.466132,3.73959 7.472045,5.63064 -0.339458,-7.78026 -2.754503,-9.78041 -5.594898,-6.74935 -14.25561,-10.34471 -22.970561,-9.26238 -9.922711,0.20812 -18.921559,7.63232 -22.810416,16.47109 -1.832084,3.45392 -2.850906,17.85957 -8.451834,11.31957 -1.459481,-18.74783 16.404539,-36.07001 35.062376,-34.38186 11.187667,-0.62818 20.369569,6.95144 27.175724,15.00519 2.84947,6.73611 4.932103,-1.29975 8.063293,-3.36295 7.08066,-8.38222 18.124745,-13.0157 29.074855,-11.63288 16.89581,1.2424 31.73333,17.76561 30.11865,34.77749 -6.77311,4.9024 -6.17533,-9.64013 -9.23069,-13.47429 -4.92999,-9.50154 -15.53969,-16.14732 -26.39757,-14.79523 -11.738023,0.0986 -21.555613,9.79829 -24.799457,20.59283 6.206127,-2.87897 14.380807,-7.21772 22.261997,-5.21284 11.04301,2.26046 20.54642,13.07363 19.54642,24.58106 -5.47069,7.01995 -6.65514,-8.14252 -9.86239,-11.15028 -4.37536,-6.484 -12.92067,-8.04059 -20.131426,-6.66295 -6.56335,2.84005 -12.036402,9.05226 -12.556059,16.38298 6.732119,-2.58944 15.157796,-2.52136 20.120675,3.42898 5.42884,2.81245 4.68409,18.24967 -1.635037,9.98602 -1.431634,-7.70362 -12.33628,-11.99498 -16.946925,-4.59812 -1.856639,4.271 -1.405681,9.10347 -1.96442,13.65845 -1.784643,-0.58739 -6.489424,1.43539 -5.990005,-1.59025 z"
       style="fill:#000000;fill-opacity:1;stroke-width:0.374176" />
    <path
       id="path1586"
       d="m 74.725873,209.55514 c -0.804466,-6.28262 -0.14659,-16.11542 -8.444442,-17.30139 -9.017253,-4.04744 -9.367165,15.1662 -16.188218,9.44173 -1.476047,-9.24947 8.053784,-17.69044 17.17626,-15.91227 5.929037,2.34431 8.076081,0.0222 4.616937,-5.25391 -4.729343,-10.80245 -20.659336,-14.06063 -28.725468,-5.12017 -5.809695,3.2828 -3.626874,15.37301 -10.492878,15.14614 -4.587383,-6.86938 2.191411,-16.62633 7.618868,-21.45229 3.672257,-2.37731 7.507443,-5.94356 12.203813,-5.0909 3.744965,0.32486 7.757787,-0.40449 11.335358,0.57918 3.99355,1.76082 12.554133,8.72453 7.46038,-0.0309 -4.811885,-10.03017 -15.67302,-17.35229 -27.016072,-15.78394 -9.903841,0.0302 -18.960019,7.3055 -22.93976,16.06203 -1.979751,3.61557 -2.926707,18.18373 -8.653984,11.65516 -1.401429,-18.51221 15.690389,-35.33191 34.061917,-34.49825 10.114759,-0.46515 19.406023,4.96185 25.759193,12.51867 3.396343,4.7175 5.695609,7.48006 8.864566,0.93574 6.865239,-8.15779 16.982762,-14.48267 28.006347,-13.33629 16.27241,-0.52186 30.99571,13.66113 32.90493,29.50409 2.42998,4.82713 -3.87784,10.4495 -5.44485,3.42337 -1.93937,-7.14563 -4.14633,-14.6895 -10.24909,-19.47279 -7.45716,-7.65082 -19.85795,-8.69902 -29.371704,-4.72917 -7.339946,3.66636 -13.246883,10.6045 -15.317263,18.50907 6.30365,-3.34445 13.410702,-6.76076 20.909877,-5.5352 11.76243,1.63166 21.68789,12.99214 20.81027,24.96154 -6.43403,6.80608 -6.57705,-10.37281 -11.41661,-12.92767 -6.81071,-7.47294 -20.580438,-7.62884 -26.644104,0.94223 -3.351463,3.29267 -7.422221,13.11237 0.961031,8.94855 9.263948,-2.29326 19.304343,5.98946 18.439463,15.56729 -6.512653,6.70757 -7.292555,-12.64841 -16.305512,-9.06159 -7.788655,0.70793 -7.42424,9.27663 -7.856246,15.12755 0.823479,4.13983 -3.674192,1.54068 -6.063009,2.18443 z"
       style="fill:#000000;fill-opacity:1;stroke-width:0.374176" />
    <path
       id="path1588"
       d="m 74.606303,208.6197 c -0.07009,-7.05289 -1.986352,-18.34882 -11.681198,-16.21943 -5.987074,-0.0361 -7.979574,16.33576 -13.047528,8.43333 -0.46332,-9.0597 8.509048,-16.70623 17.44671,-15.04815 4.283387,1.31332 8.45535,1.09077 4.995907,-4.04456 -3.729477,-10.6943 -18.474108,-15.35329 -27.264857,-7.83144 -7.439136,2.85663 -5.062172,16.38161 -12.38146,16.67163 -4.641432,-6.78374 2.068068,-16.58372 7.474013,-21.38455 3.752975,-2.61242 7.760431,-6.00508 12.619323,-5.19748 4.390303,0.40856 9.264492,-1.17117 13.07763,1.60896 3.656462,1.94508 9.837618,6.94311 5.498049,-0.73996 -4.78863,-10.59831 -16.462174,-17.94529 -28.218323,-16.005 -11.573785,0.92231 -21.477767,10.70263 -23.71834,21.94405 0.612379,5.16827 -6.824053,11.89735 -6.778781,3.27896 -0.01098,-18.45275 18.11977,-33.96111 36.2952,-32.02621 9.446181,-0.0885 17.519354,5.59414 23.531587,12.40526 3.09945,3.51913 5.299723,7.99738 8.156556,1.7751 6.770508,-7.77975 15.863549,-14.7168 26.708909,-14.28504 18.69261,-1.44032 36.71786,16.20953 34.85744,34.95231 -7.3153,4.7885 -6.201,-10.92098 -10.11428,-14.90902 -5.12834,-7.70743 -13.74479,-14.23248 -23.45893,-13.15214 -12.339421,-1.1359 -23.395538,9.02154 -26.68283,20.35423 6.902752,-3.5839 15.169092,-7.24151 23.34491,-4.95269 10.60691,2.94342 20.02892,13.92838 18.04294,25.27553 -7.30929,4.37086 -6.00118,-11.92898 -11.94279,-14.46689 -7.11311,-6.67317 -19.965954,-6.44357 -25.849925,1.83072 -3.293216,3.29496 -7.316311,13.04886 0.976794,8.79847 9.315032,-2.26338 19.239591,6.022 18.481891,15.60295 -6.503278,7.05716 -7.244238,-12.78238 -16.31783,-8.94183 -7.194677,0.33292 -7.578931,8.57654 -7.77713,14.09096 1.283218,4.59173 -4.336392,3.74426 -6.273657,2.18193 z"
       style="fill:#000000;fill-opacity:1;stroke-width:0.374176" />
    <path
       id="path1590"
       d="m 74.584255,208.80678 c -0.285263,-6.84056 -1.42884,-17.69985 -10.906011,-16.5368 -6.62001,-0.72993 -8.636257,16.76707 -13.842672,8.38913 -0.27291,-8.62425 8.093914,-16.40935 16.776708,-14.74513 4.062187,0.35638 9.745559,2.02789 5.84894,-3.96866 -3.618995,-9.16114 -14.884199,-14.55816 -24.011443,-10.06981 -7.796024,2.97321 -9.782103,11.45176 -12.670377,18.27792 -8.925258,1.94579 -3.24725,-12.97086 0.233196,-16.66317 3.418702,-4.29319 8.300675,-8.12376 13.598316,-9.48778 4.50361,0.13916 9.138086,-0.27403 13.564007,0.19304 3.050169,0.9166 8.599164,5.77636 9.628544,4.6158 -3.571472,-12.54991 -16.730559,-22.23401 -29.982477,-19.83869 -11.581524,0.97562 -21.220893,10.97221 -23.437977,22.13579 0.562193,5.39816 -7.199881,11.33247 -6.752939,2.71279 0.131408,-18.32246 18.199846,-33.77216 36.292578,-31.77538 9.590768,-0.19762 17.669605,5.70903 23.717213,12.60784 2.982817,3.39838 5.128789,7.68057 7.835437,1.72718 6.571996,-7.38824 14.948492,-14.39329 25.385362,-14.39404 19.02185,-2.18041 37.50399,15.0311 36.53336,34.15454 -5.39735,7.13568 -6.89724,-7.25408 -8.86109,-10.89904 -4.20779,-9.47307 -14.1578,-17.37405 -24.929,-16.36909 -12.368678,-1.12293 -23.216531,8.99652 -26.603203,20.26533 6.035209,-2.89964 12.426182,-6.27884 19.449863,-5.45546 12.12217,0.74737 22.98201,12.53275 22.15361,24.74829 -5.30482,7.6253 -7.04224,-8.28269 -10.49532,-11.37884 -6.36718,-8.48179 -20.952405,-9.16349 -27.387389,-0.30158 -3.037115,3.18164 -7.804034,13.06556 0.533357,8.97525 7.197151,-1.70367 14.634242,2.26214 17.562762,8.97948 4.10087,4.86007 -1.99012,13.13741 -4.917179,5.02729 -1.599279,-8.56911 -15.956663,-10.33544 -17.176152,-0.77269 -1.889604,3.02583 1.434812,11.06164 -3.264378,10.68839 -1.19202,-0.20104 -3.41792,0.62278 -3.875646,-0.8419 z"
       style="fill:#000000;fill-opacity:1;stroke-width:0.374176" />
    <path
       id="path1592"
       d="m 74.578368,208.80678 c 1.424133,-8.47553 -6.000435,-22.14251 -15.186271,-14.13334 -2.298491,3.01819 -6.986069,13.48981 -9.721093,5.4166 0.410821,-8.55476 8.484542,-15.68066 17.113337,-14.34781 3.88104,0.86808 9.079576,1.36844 5.50605,-3.83338 -3.751164,-10.89549 -18.865267,-15.37449 -27.610622,-7.59662 -7.077297,2.85494 -4.886341,18.00728 -12.799198,15.70915 -2.824186,-8.14302 3.354925,-17.43714 9.949416,-22.07603 5.74448,-5.50482 13.804709,-3.61576 20.961746,-3.9463 4.047125,1.42265 13.73233,9.55388 8.199417,0.43064 -4.78241,-9.44587 -14.781205,-16.78502 -25.738434,-15.56694 -9.984181,-0.31523 -18.931209,6.75503 -23.409197,15.23704 -2.950326,3.84099 -1.903347,16.46938 -8.718318,13.5123 -2.833664,-15.63578 9.936833,-30.94277 24.669549,-34.73465 10.755243,-2.25328 23.352307,-0.74814 30.982718,7.94013 4.08631,1.39146 7.633333,13.39995 11.008966,6.29231 6.79795,-7.85663 15.660941,-15.66455 26.759526,-15.07501 18.54347,-2.0419 36.43614,14.93594 35.85346,33.44188 -4.41379,8.62975 -7.37168,-6.28879 -8.88359,-10.00549 -4.10098,-9.54346 -14.10581,-17.55903 -24.91101,-16.4393 -12.440556,-1.33791 -22.963697,8.97112 -26.649533,20.06115 5.298675,-1.85983 10.118011,-6.17607 16.058298,-5.26759 11.731555,-1.54587 22.625885,7.97739 25.267585,19.04686 2.93278,4.9417 -3.16898,12.05961 -5.38503,4.46502 -2.29879,-7.59418 -7.14009,-16.10572 -16.03857,-16.55429 -8.455651,-2.01451 -16.716504,4.05184 -19.557314,11.81845 -3.618817,8.35817 10.246892,-0.76374 14.195245,4.28404 5.532499,2.12889 13.295229,15.06055 4.963689,16.28875 -3.555309,-5.1118 -7.912859,-13.99423 -15.889163,-9.84451 -5.375389,3.41922 -4.05652,10.79789 -4.920194,16.31884 -1.850681,-0.36472 -5.006599,0.91549 -6.071465,-0.8419 z"
       style="fill:#000000;fill-opacity:1;stroke-width:0.374176" />
    <path
       id="path1594"
       d="m 74.572536,208.80678 c -0.626091,-6.31924 -1.018098,-16.5115 -9.67654,-16.37025 -7.612506,-2.25501 -9.760529,17.29607 -15.182812,7.82188 0.0733,-9.43144 9.576916,-16.28911 18.594302,-14.31048 4.105259,0.94269 7.246012,1.03225 4.025929,-3.7299 -3.491179,-9.93682 -16.407667,-15.35357 -25.490032,-9.38837 -7.827015,3.20793 -7.221164,13.89016 -12.776623,18.13324 -7.293962,-4.21291 0.12359,-15.62259 4.324644,-20.27422 5.428509,-6.19205 13.530079,-7.49192 21.325556,-6.67108 4.868614,-1.70759 16.591955,10.35339 11.207703,0.27856 -4.639477,-8.32139 -13.168704,-15.95095 -23.311633,-15.17865 -12.529437,-1.55581 -24.472353,8.10969 -27.551441,19.97253 0.659099,5.45148 -7.66027,14.48069 -7.382808,4.61741 -0.265738,-14.41562 11.479104,-27.07056 24.87129,-30.85907 10.488607,-1.97473 22.763324,-1.2655 30.35645,7.24934 3.34817,3.14939 6.533512,6.46577 9.795438,9.70338 6.493783,-8.02095 14.585236,-16.82847 25.560651,-17.61807 8.70908,-0.56055 18.08692,-0.0249 24.99015,6.05216 8.53728,6.62901 15.54202,17.22203 13.89944,28.4183 -6.64121,5.52854 -6.52177,-10.10461 -9.9538,-13.93991 -4.99197,-7.8724 -13.58154,-14.78604 -23.43301,-13.67196 -12.168863,-1.28537 -22.906951,8.52798 -26.463689,19.52613 6.629148,-3.00417 14.395434,-6.38557 22.262749,-4.64613 10.68057,2.69916 19.97099,13.26978 19.04739,24.62109 -5.92108,7.02215 -6.84341,-8.51924 -10.88597,-11.7102 -6.16508,-7.94607 -19.925992,-8.64561 -26.351639,-0.6267 -2.948916,2.83592 -8.750996,13.43237 0.0205,9.40789 9.7023,-2.60757 20.403929,6.99131 18.302929,16.86617 -7.567402,2.66958 -8.581368,-15.46489 -18.711583,-9.23854 -8.622541,2.62396 0.244715,19.49626 -10.81254,16.28172 l -0.426614,-0.25249 z"
       style="fill:#000000;fill-opacity:1;stroke-width:0.374176" />
    <path
       id="path1596"
       d="m 67.257339,249.42779 c -15.377792,-3.29348 -30.154874,-11.98576 -37.934042,-26.03701 -3.69028,-2.89816 -6.35444,-11.77047 0.751419,-10.47495 32.243683,0.27429 64.503823,0.071 96.733504,0.86132 7.38115,2.592 -3.62525,10.92353 -5.05399,15.42905 -8.442,11.18095 -21.952295,18.13376 -35.636169,20.20467 -6.279144,0.21841 -12.585993,0.40031 -18.860722,0.0169 z"
       style="fill:#000000;fill-opacity:1;stroke-width:0.374176" />
    <path
       id="path1598"
       d="m 62.954299,248.40745 c -13.954017,-3.80475 -26.620152,-12.584 -33.85298,-25.25875 -3.296778,-2.82876 -6.156973,-11.17971 0.540756,-10.24087 32.285416,0.2379 64.57598,0.1744 96.856235,0.80239 7.93642,2.32085 -3.24317,11.25771 -4.99553,15.87389 -7.87088,10.53678 -20.44267,16.39731 -32.79371,19.84873 -7.345132,-0.004 -14.74457,0.36242 -22.056515,0.13213 -1.232752,-0.38584 -2.465504,-0.77168 -3.698256,-1.15752 z"
       style="fill:#000000;fill-opacity:1;stroke-width:0.374176" />
    <path
       id="path1600"
       d="m 65.386452,249.2595 c -14.200576,-4.03297 -28.021401,-11.808 -35.55111,-24.97931 -2.909374,-2.88232 -7.73319,-11.64463 -0.633465,-11.37176 32.556955,0.24065 65.119207,0.17449 97.670923,0.80558 7.3636,2.88009 -3.86413,11.41939 -5.47617,16.01685 -7.68491,10.31661 -19.89923,16.04287 -31.958815,19.52713 -7.987424,0.50407 -16.066368,0.51994 -24.051363,0.002 z"
       style="fill:#000000;fill-opacity:1;stroke-width:0.374176" />
    <path
       id="path1602"
       d="m 65.763586,249.40972 c -14.168651,-3.98725 -28.066094,-11.62853 -35.688349,-24.7133 -2.4184,-2.66589 -8.406305,-11.79767 -1.353814,-11.67816 32.907866,0.16126 65.835063,-0.36057 98.724807,0.83126 5.87257,3.70409 -4.48123,11.68823 -6.51001,16.51079 -7.81496,9.92331 -19.81622,15.91923 -31.8765,18.88439 -7.723923,0.7283 -15.550266,0.34281 -23.296134,0.16502 z"
       style="fill:#000000;fill-opacity:1;stroke-width:0.374176" />
    <path
       id="path1604"
       d="m 64.05759,248.97317 c -13.731777,-4.11931 -26.976623,-11.91149 -34.244631,-24.68224 -2.488052,-2.5907 -7.945928,-11.47553 -1.091536,-11.27283 32.933991,0.17881 65.890157,-0.41283 98.804017,0.82609 5.83796,3.88557 -4.76981,11.92562 -6.72519,16.68285 -7.61163,9.65385 -19.28942,15.37592 -30.885452,18.68071 -8.572828,0.23816 -17.356389,0.98322 -25.857208,-0.23458 z"
       style="fill:#000000;fill-opacity:1;stroke-width:0.374176" />
    <path
       id="path1606"
       d="m 63.515565,248.80439 c -14.818011,-4.13413 -28.197934,-13.65343 -35.608419,-27.30782 -3.56836,-2.88039 -3.736907,-10.15794 2.055265,-8.47785 32.538262,0.18743 65.101255,-0.45529 97.617319,0.82095 5.53768,4.03625 -4.45876,11.77911 -6.78952,16.60789 -7.61499,9.95589 -19.58771,15.59946 -31.3328,19.02318 -8.62579,-0.23454 -17.461804,0.97073 -25.941845,-0.66635 z"
       style="fill:#000000;fill-opacity:1;stroke-width:0.374176" />
    <path
       id="path1608"
       d="m 65.573541,249.44502 c -14.808107,-3.99871 -28.909816,-12.56897 -36.570432,-26.239 -2.798041,-2.55101 -6.478151,-11.13342 0.08395,-10.18853 32.452611,0.17018 64.924063,-0.42884 97.360131,0.70713 8.08326,2.42088 -3.21018,11.95276 -5.51903,16.54763 -7.30727,10.15479 -19.25889,15.13259 -30.658918,19.18032 -8.231071,0.0171 -16.467867,0.24271 -24.695703,-0.008 z"
       style="fill:#000000;fill-opacity:1;stroke-width:0.374176" />
    <path
       id="path1610"
       d="m 62.181379,248.43863 c -13.828207,-4.27304 -26.598747,-12.9753 -33.618849,-25.89822 -3.196865,-2.65207 -5.424352,-10.91652 0.962207,-9.52278 32.504377,0.18528 65.030786,-0.46646 97.516043,0.72527 6.79338,3.07906 -3.62008,11.89768 -6.0041,16.45719 -7.26015,10.12471 -19.1001,15.08729 -30.393257,19.26951 -8.362598,-0.0226 -16.78551,0.33899 -25.111114,0.0808 -1.116976,-0.37059 -2.233954,-0.74118 -3.35093,-1.11178 z"
       style="fill:#000000;fill-opacity:1;stroke-width:0.374176" />
  </g>
</svg>
