<?xml version="1.0" encoding="UTF-8" standalone="no"?>
<svg
   xmlns:dc="http://purl.org/dc/elements/1.1/"
   xmlns:cc="http://creativecommons.org/ns#"
   xmlns:rdf="http://www.w3.org/1999/02/22-rdf-syntax-ns#"
   xmlns:svg="http://www.w3.org/2000/svg"
   xmlns="http://www.w3.org/2000/svg"
   id="svg8"
   version="1.1"
   viewBox="0 0 155.575 155.575"
   height="588"
   width="588">
  <defs
     id="defs2" />
  <metadata
     id="metadata5">
    <rdf:RDF>
      <cc:Work
         rdf:about="">
        <dc:format>image/svg+xml</dc:format>
        <dc:type
           rdf:resource="http://purl.org/dc/dcmitype/StillImage" />
        <dc:title></dc:title>
      </cc:Work>
    </rdf:RDF>
  </metadata>
  <g
     transform="translate(0,-141.42498)"
     id="layer1">
    <g
       transform="translate(-0.37368168,141.51872)"
       id="22aa5019-b517-444c-b4e2-e6b5a3501f5c" />
    <path
       transform="matrix(0.26458333,0,0,0.26458333,0,141.42498)"
       id="path1508"
       d="m 282.48524,238.81454 c 0,-22.97553 -2.30077,-30.8581 -11.65374,-39.92645 -7.72454,-7.48946 -14.81823,-10.33892 -25.64207,-10.30012 -18.59585,0.0666 -32.3989,12.69669 -35.51387,32.49585 -1.53103,9.73146 -4.01723,12.72792 -10.5605,12.72792 -9.55241,0 -12.80408,-6.17756 -10.16602,-19.31347 2.5949,-12.92098 8.28178,-23.73704 16.63342,-31.63568 9.54438,-9.02668 20.35992,-14.03075 33.98003,-15.7217 12.3282,-1.53054 23.26281,0.62125 34.64936,6.81861 3.78035,2.05751 7.15947,3.45481 7.50918,3.1051 1.27104,-1.27104 -2.09641,-19.59735 -4.9149,-26.74794 -5.45747,-13.84568 -17.62891,-27.77736 -31.233,-35.74987 -7.73423,-4.53257 -26.05955,-9.45664 -35.08545,-9.42758 -18.1719,0.0585 -39.18111,9.27994 -51.52919,22.61734 -12.17062,13.14572 -17.95374,26.49845 -20.06278,46.32325 -1.0643,10.0044 -3.75192,13.0629 -11.47888,13.0629 -5.61802,0 -10.41644,-5.50008 -10.34524,-11.85799 0.21638,-19.32022 10.66429,-45.70584 23.99726,-60.60378 9.56097,-10.68318 26.20723,-21.468982 40.30012,-26.112103 9.6892,-3.192256 13.85201,-3.740573 28.99138,-3.818693 15.64547,-0.08074 18.99102,0.351442 29.10226,3.759387 12.32162,4.152941 26.29797,12.376299 35.07428,20.636899 l 5.48668,5.16428 -0.87023,-6.7672 c -0.47864,-3.72196 -2.84001,-11.498757 -5.24748,-17.281774 -12.64872,-30.383578 -37.95731,-53.004737 -70.61658,-63.11805 -15.31094,-4.741203 -41.44217,-4.754644 -56.56854,-0.0291 -31.24844,9.762154 -56.420226,31.627348 -69.199092,60.109032 -4.593193,10.23736 -8.546122,26.274752 -8.662477,35.144432 -0.175769,13.39896 -5.511509,19.84846 -14.545097,17.58117 -6.424315,-1.6124 -8.012795,-7.0096 -6.565463,-22.30758 4.199566,-44.388455 30.236611,-82.004408 70.901339,-102.431796 15.82292,-7.9484386 30.86367,-11.9131286 49.0536,-12.9303615 26.80895,-1.49923334 50.21058,4.109313 72.67426,17.4174635 15.89805,9.418479 36.23601,29.803108 45.41501,45.519228 l 6.84309,11.716653 8.00615,-13.00602 c 20.0994,-32.651606 52.78736,-54.7151437 89.94257,-60.7089214 15.8462,-2.5562677 39.61008,-1.0468625 54.94291,3.4897974 46.23513,13.679991 80.59958,50.868434 90.26101,97.678447 3.61077,17.49427 3.53628,28.96678 -0.21418,32.99244 -3.82597,4.1067 -10.44145,4.04082 -14.62795,-0.14569 -2.54264,-2.54264 -3.45075,-5.50003 -4.2155,-13.72834 -2.167,-23.31611 -8.79198,-40.838981 -22.06419,-58.359061 -13.63712,-18.001785 -35.08087,-32.301118 -58.03221,-38.697615 -12.75733,-3.555444 -41.1779,-3.510998 -53.03301,0.08293 -33.43771,10.136793 -56.74177,30.139466 -70.67511,60.662848 -4.62278,10.126975 -8.75994,24.520948 -7.43011,25.850768 0.38629,0.38631 4.29876,-2.44475 8.69434,-6.29123 21.78991,-19.067852 54.02763,-27.229227 81.34134,-20.592561 34.5005,8.382904 59.84885,32.965101 69.35104,67.254891 3.83222,13.82903 3.84758,27.08697 0.0358,30.89877 -7.04478,7.04478 -18.36154,1.05817 -18.40568,-9.73666 -0.0113,-2.81193 -0.982,-9.18993 -2.15668,-14.17335 -4.87008,-20.66075 -18.87859,-38.13172 -38.25351,-47.7086 -10.6069,-5.2429 -11.68651,-5.47556 -27.63701,-5.9558 -14.12336,-0.42524 -17.97118,-0.0431 -25.79998,2.56214 -25.75898,8.57204 -43.73449,29.60521 -47.83332,55.96983 -0.90006,5.78943 -1.30984,10.85287 -0.91064,11.25207 0.39921,0.39921 4.67139,-1.24579 9.49375,-3.65555 23.20791,-11.59712 47.12651,-7.93035 65.90711,10.10373 11.16195,10.71824 16.61564,21.85831 17.4537,35.65218 0.63018,10.3721 -0.53697,13.0709 -6.65943,15.39867 -4.78957,1.821 -10.85035,-0.88061 -12.64344,-5.63581 -0.7814,-2.07226 -1.80879,-6.53926 -2.28309,-9.92662 -3.26837,-23.34246 -29.19516,-36.83475 -50.98603,-26.53311 -8.70649,4.11598 -13.77841,9.39753 -17.58674,18.31353 -2.49863,5.84974 -2.91936,9.77316 -2.91936,27.22361 v 20.38884 h -10.6066 -10.6066 z"
       style="fill:#000000;fill-opacity:1;stroke-width:1.41421354" />
    <path
       transform="matrix(0.26458333,0,0,0.26458333,0,141.42498)"
       id="path1510"
       d="m 265.51468,409.64417 c -49.94899,-7.89855 -93.16561,-28.63548 -124.64161,-59.80763 -15.5968,-15.44624 -25.23933,-29.50166 -30.91021,-45.05619 -2.9037,-7.96451 -4.72988,-11.02339 -6.89863,-11.55531 -8.99321,-2.20576 -11.868835,-12.85071 -4.943141,-18.29846 l 3.726251,-2.93107 h 191.27854 c 180.09168,0 191.45288,0.14474 194.25939,2.47487 4.5478,3.77586 5.23474,10.22918 1.58304,14.87156 -1.77649,2.25844 -4.42773,3.86677 -6.37414,3.86677 -2.84359,0 -3.67498,1.19309 -5.66652,8.13173 -4.70979,16.40928 -20.79768,39.70357 -37.11846,53.74534 -33.41978,28.75305 -71.45623,46.48847 -114.78804,53.52272 -11.06423,1.79611 -50.3714,2.48022 -59.50647,1.03567 z"
       style="fill:#000000;fill-opacity:1;stroke-width:1.41421354" />
    <path
       transform="matrix(0.26458333,0,0,0.26458333,0,141.42498)"
       id="path1512"
       d="m 234.40198,438.00066 v -20.67104 l 3.18198,0.86288 c 29.72579,8.06098 83.24617,8.06727 110.30866,0.013 2.27747,-0.67782 2.47487,0.90666 2.47487,19.86483 v 20.6014 h -57.98276 -57.98275 z"
       style="fill:#000000;fill-opacity:1;stroke-width:1.41421354" />
    <path
       transform="matrix(0.26458333,0,0,0.26458333,0,141.42498)"
       id="path1514"
       d="M 102.17301,582.5363 C 86.97225,578.58628 73.669633,572.7521 62.374461,565.0817 51.084657,557.41494 34.503874,540.4596 28.284895,530.22206 22.294763,520.36123 13.826793,501.47668 13.80193,497.92337 13.79126,496.39823 11.387296,494.32884 7.5078609,492.5053 2.6794376,490.23567 1.013351,488.56363 0.28758668,485.25925 -0.86043285,480.03235 1.5155615,475.11736 6.2284045,472.97004 10.913191,470.83551 575.56324,470.72295 579.54842,472.85576 c 3.50765,1.87723 6.57711,8.26744 5.91021,12.30426 -0.59561,3.60526 -6.62679,8.86702 -10.16364,8.86702 -1.65797,0 -3.15333,2.46559 -4.93179,8.13173 -11.84766,37.74642 -42.04249,66.61278 -83.57493,79.8979 l -9.84867,3.15033 -181.01933,0.31837 -181.01934,0.31836 z"
       style="fill:#000000;fill-opacity:1;stroke-width:1.41421354" />
    <path
       transform="matrix(0.26458333,0,0,0.26458333,0,141.42498)"
       id="path1516"
       d="M 103.49311,582.35784 C 73.205884,573.92655 56.030398,563.26139 37.538598,541.40319 29.363756,531.74014 18.277623,511.93172 15.090151,501.29288 c -1.165848,-3.89125 -3.254111,-6.36292 -7.812293,-9.24664 -5.6091439,-3.54861 -6.2211162,-4.47626 -6.2211162,-9.43017 0,-4.41163 0.7541348,-5.98853 3.8268161,-8.00187 3.6315383,-2.37952 18.3595631,-2.50747 288.6219521,-2.50747 h 284.79513 l 3.41315,3.96795 c 4.73052,5.49944 4.36916,9.86677 -1.18304,14.29855 -7.86774,6.28004 -9.40953,8.1429 -11.09208,13.40196 -0.8976,2.8056 -4.54272,10.82865 -8.10027,17.82901 -5.38304,10.59249 -8.85345,15.10063 -20.68478,26.87006 -15.18847,15.10898 -23.37711,20.65977 -42.05033,28.50444 -6.47031,2.71819 -13.03698,5.49887 -14.59262,6.17928 -1.55563,0.6804 -85.28408,1.48146 -186.0632,1.78012 l -183.23477,0.54302 z"
       style="fill:#000000;fill-opacity:1;stroke-width:1.41421354" />
    <path
       transform="matrix(0.26458333,0,0,0.26458333,0,141.42498)"
       id="path1518"
       d="M 100.09239,581.72337 C 73.089804,573.447 53.29282,560.66924 37.048921,541.03259 29.934932,532.43276 18.427675,511.75771 14.301594,500.16254 c -0.965362,-2.71287 -3.882407,-5.91759 -7.4179347,-8.14947 -5.2279743,-3.30027 -5.8269175,-4.25466 -5.8269175,-9.28488 0,-4.53342 0.7324247,-6.08644 3.8266571,-8.11399 3.6313883,-2.37952 18.3593431,-2.50747 288.6217711,-2.50747 h 284.79511 l 3.41333,3.96795 c 5.18656,6.0293 4.42794,9.76442 -3.30418,16.26864 -5.18229,4.3593 -7.48107,7.70228 -10.05846,14.62738 -5.19749,13.96498 -13.7349,27.42643 -24.74545,39.01768 -15.22896,16.03214 -29.81568,25.55136 -53.23089,34.73824 l -9.19239,3.60661 -183.84776,0.74777 -183.84776,0.74778 z"
       style="fill:#000000;fill-opacity:1;stroke-width:1.41421354" />
    <path
       transform="matrix(0.26458333,0,0,0.26458333,0,141.42498)"
       id="path1520"
       d="M 95.80905,580.54156 C 78.031913,574.09739 70.996536,570.59914 59.746604,562.60996 42.181273,550.13588 29.18402,533.5194 18.111568,509.3812 13.361104,499.02509 10.776057,495.17312 6.526679,492.11861 1.834335,488.74569 1.0567418,487.42678 1.0567418,482.8408 c 0,-3.63855 0.9506799,-6.20639 2.9766228,-8.04001 2.906456,-2.63056 9.7100254,-2.69406 288.6211354,-2.69406 H 578.299 l 3.41397,3.96795 c 5.05645,5.87695 4.3528,9.43038 -3.3244,16.78792 -4.9098,4.70538 -7.99525,9.48136 -11.37004,17.59971 -5.85732,14.09029 -14.13772,26.36297 -25.78509,38.21698 -13.40708,13.64495 -26.90055,22.25348 -50.30253,32.09192 l -8.6361,3.63071 -185.81826,0.76122 -185.81826,0.76123 z"
       style="fill:#000000;fill-opacity:1;stroke-width:1.41421354" />
    <path
       transform="matrix(0.26458333,0,0,0.26458333,0,141.42498)"
       id="path1522"
       d="M 95.101943,580.51938 C 69.391378,570.81624 56.556447,562.51014 40.726289,545.3303 32.665258,536.58199 28.581703,530.36888 20.755165,514.94434 13.639916,500.92161 9.5524654,494.51448 5.9868631,491.79487 c -4.0758902,-3.10884 -4.9301213,-4.67348 -4.9301213,-9.03021 0,-3.56109 0.9651395,-6.14336 2.9765487,-7.96387 2.9028957,-2.6274 10.0366385,-2.70508 288.2965395,-3.1395 l 285.31999,-0.44543 3.73856,4.44303 c 5.18899,6.16677 4.74103,9.75289 -2.03785,16.31337 -3.62272,3.50601 -8.12672,10.52915 -12.0802,18.83683 -16.6676,35.02457 -34.92887,51.76448 -77.1758,70.74618 -6.62754,2.97778 -7.10953,2.98684 -193.74725,3.64327 l -187.1032,0.65807 z"
       style="fill:#000000;fill-opacity:1;stroke-width:1.41421354" />
    <path
       transform="matrix(0.26458333,0,0,0.26458333,0,141.42498)"
       id="path1524"
       d="M 94.394836,580.55047 C 55.777747,564.85241 38.8823,549.83088 20.596898,514.93762 13.648925,501.67909 8.7848762,494.12078 5.6731049,491.74731 c -3.7825096,-2.88506 -4.6163631,-4.49028 -4.6163631,-8.88677 0,-3.65856 0.9470116,-6.22283 2.9765459,-8.05975 2.9030641,-2.62755 10.0386683,-2.70472 289.0431223,-3.12561 l 286.06658,-0.43155 2.99197,4.84111 c 4.16032,6.73152 3.76973,9.57051 -2.08984,15.19 -2.795,2.68049 -8.28691,11.23758 -12.20424,19.01575 -17.93076,35.60297 -35.40396,52.27284 -72.12178,68.80599 l -12.50114,5.62895 -187.69405,0.64323 -187.69404,0.64322 z"
       style="fill:#000000;fill-opacity:1;stroke-width:1.41421354" />
    <path
       transform="matrix(0.26458333,0,0,0.26458333,0,141.42498)"
       id="path1526"
       d="M 92.273516,579.91187 C 66.325219,568.65448 60.655855,565.01589 45.553232,549.9269 32.796071,537.18125 30.434877,533.97038 22.218708,518.19542 17.191076,508.54241 10.372874,497.65768 7.0671494,494.00713 0.04050335,486.24751 -1.0420191,479.39442 4.0332897,474.80079 6.9363884,472.17321 14.07224,472.09614 293.21496,471.67788 l 286.20513,-0.42884 2.84813,4.67149 c 3.99162,6.54699 3.62042,8.89691 -2.59668,16.43858 -3.00047,3.63972 -9.43913,13.93623 -14.30814,22.88113 -11.26317,20.69172 -20.3997,32.14165 -34.65097,43.42474 -9.50002,7.52141 -33.59832,20.91466 -45.28755,25.16973 -1.55563,0.56627 -87.4691,1.29576 -190.91883,1.62108 l -188.0904,0.5915 z"
       style="fill:#000000;fill-opacity:1;stroke-width:1.41421354" />
    <path
       transform="matrix(0.26458333,0,0,0.26458333,0,141.42498)"
       id="path1528"
       d="M 90.144252,579.2349 C 65.76031,568.20751 59.245655,563.90664 44.897362,549.36366 33.374425,537.68437 29.956629,533.02915 20.882722,516.65445 15.063937,506.15392 8.2226786,495.25805 5.6799268,492.44142 0.0692727,486.22644 -0.60533906,478.99918 4.0333024,474.80079 6.9365196,472.17311 14.072859,472.09638 293.65352,471.68685 l 286.64367,-0.41988 2.41487,5.06406 c 3.42131,7.17453 3.06805,9.35275 -2.58854,15.96119 -2.75186,3.21494 -9.20284,13.35273 -14.33548,22.52842 -18.79056,33.59204 -33.44201,47.31029 -68.11107,63.7728 l -13.6663,6.4894 -189.50462,0.43554 -189.50461,0.43554 z"
       style="fill:#000000;fill-opacity:1;stroke-width:1.41421354" />
    <path
       transform="matrix(0.26458333,0,0,0.26458333,0,141.42498)"
       id="path1530"
       d="M 102.88012,585.02417 C 92.379131,581.07039 70.679213,570.30285 63.066547,565.26859 47.583856,555.02987 33.031598,538.33536 20.944802,516.94605 15.160159,506.7093 8.3311096,495.93287 5.7691358,492.99843 0.09310418,486.49719 -0.62077988,479.01315 4.0333082,474.80079 6.9367158,472.17294 14.053602,472.09701 293.59353,471.71133 l 286.58366,-0.3954 2.47488,4.39909 c 3.68217,6.54507 3.0587,10.22647 -2.96683,17.51818 -2.99292,3.62185 -8.80229,12.75979 -12.9097,20.30652 -13.82305,25.39769 -26.14392,39.53144 -45.28821,51.95186 -13.22007,8.57691 -30.80546,17.24523 -38.18377,18.82182 -6.77153,1.44694 -376.63286,2.13797 -380.42344,0.71077 z"
       style="fill:#000000;fill-opacity:1;stroke-width:1.41421354" />
    <path
       transform="matrix(0.26458333,0,0,0.26458333,0,141.42498)"
       id="path1532"
       d="M 98.637477,583.26597 C 60.216128,567.58485 40.179621,550.83266 22.269945,519.41634 17.214132,510.54767 10.372874,499.61421 7.0671494,495.11975 0.13056839,485.6888 -0.83696652,479.20883 4.0332922,474.80079 6.9340694,472.17531 14.25133,472.08873 291.4722,471.39962 c 156.45429,-0.38891 285.60153,-0.46712 286.99387,-0.1738 2.98492,0.62883 6.66087,7.14017 6.66087,11.79866 0,1.80401 -2.70468,6.89761 -6.01041,11.31911 -3.30572,4.42149 -7.26573,10.45473 -8.80004,13.4072 -13.05193,25.11605 -28.07191,43.58827 -44.84031,55.14652 -13.12951,9.05 -33.91378,19.63254 -42.17283,21.47274 -4.07165,0.90721 -73.34642,1.43149 -192.33283,1.4556 -177.25024,0.0359 -186.26745,-0.0841 -192.333043,-2.55968 z"
       style="fill:#000000;fill-opacity:1;stroke-width:1.41421354" />
    <path
       transform="matrix(0.26458333,0,0,0.26458333,0,141.42498)"
       id="path1534"
       d="m 234.40198,438.0143 c 0,-18.61065 0.23106,-20.56874 2.33202,-19.76252 1.28262,0.49218 7.86922,1.85044 14.63689,3.01835 15.39556,2.65684 80.50864,2.09969 90.20855,-0.77188 3.33366,-0.9869 6.51564,-1.34176 7.07107,-0.78859 0.55543,0.55318 1.21828,9.54594 1.473,19.98391 l 0.46313,18.97813 h -58.09233 -58.09233 z"
       style="fill:#000000;fill-opacity:1;stroke-width:1.41421354" />
    <path
       transform="matrix(0.26458333,0,0,0.26458333,0,141.42498)"
       id="path1536"
       d="m 234.40198,438.0703 c 0,-18.94614 0.19885,-20.54475 2.47487,-19.89638 12.55791,3.57734 22.41444,4.32254 56.9221,4.30356 25.36328,-0.014 40.16465,-0.61216 45.79284,-1.85075 6.92129,-1.52315 8.51883,-1.51037 9.52429,0.0762 0.66445,1.04848 1.21784,10.02037 1.22975,19.93755 l 0.0217,18.03122 h -57.98276 -57.98275 z"
       style="fill:#000000;fill-opacity:1;stroke-width:1.41421354" />
    <path
       transform="matrix(0.26458333,0,0,0.26458333,0,141.42498)"
       id="path1538"
       d="m 234.40198,438.00066 v -20.67104 l 3.18198,0.89565 c 15.01502,4.22636 82.64389,5.77578 101.32456,2.32141 7.35221,-1.35955 9.26898,-1.32305 10.23139,0.19481 0.65135,1.02727 1.19401,9.98181 1.20592,19.89899 l 0.0217,18.03122 h -57.98276 -57.98275 z"
       style="fill:#000000;fill-opacity:1;stroke-width:1.41421354" />
    <path
       transform="matrix(0.26458333,0,0,0.26458333,0,141.42498)"
       id="path1540"
       d="m 234.40198,438.05324 v -20.61847 l 3.88909,0.76203 c 15.71788,3.07979 34.41185,3.96945 66.43226,3.16158 19.27066,-0.4862 37.26494,-1.04005 39.98731,-1.23078 l 4.94974,-0.34677 0.39347,19.44543 0.39346,19.44544 h -58.02267 -58.02266 z"
       style="fill:#000000;fill-opacity:1;stroke-width:1.41421354" />
    <path
       transform="matrix(0.26458333,0,0,0.26458333,0,141.42498)"
       id="path1542"
       d="m 234.40198,438.00821 v -20.66348 l 4.59619,0.80187 c 22.14998,3.8644 54.64977,4.44313 105.71247,1.88244 l 4.94974,-0.24821 0.39347,19.44543 0.39346,19.44544 h -58.02267 -58.02266 z"
       style="fill:#000000;fill-opacity:1;stroke-width:1.41421354" />
    <path
       transform="matrix(0.26458333,0,0,0.26458333,0,141.42498)"
       id="path1544"
       d="m 234.40198,437.67665 v -20.99506 l 10.25305,2.04089 c 10.85961,2.16162 56.54056,3.07771 88.03479,1.76545 l 16.97056,-0.7071 0.39347,19.44543 0.39346,19.44544 h -58.02267 -58.02266 z"
       style="fill:#000000;fill-opacity:1;stroke-width:1.41421354" />
    <path
       transform="matrix(0.26458333,0,0,0.26458333,0,141.42498)"
       id="path1546"
       d="m 234.40198,437.36319 c 0,-19.63708 0.19413,-21.24959 2.47487,-20.55754 12.00933,3.64404 74.04812,5.40296 102.87115,2.9166 l 10.61949,-0.91607 v 19.93276 19.93276 h -57.98276 -57.98275 z"
       style="fill:#000000;fill-opacity:1;stroke-width:1.41421354" />
    <path
       transform="matrix(0.26458333,0,0,0.26458333,0,141.42498)"
       id="path1548"
       d="m 234.40198,437.29355 v -21.37814 l 3.18198,0.86718 c 10.75589,2.93131 33.35975,4.01883 71.29573,3.4302 l 41.4878,-0.64374 v 19.55132 19.55133 h -57.98276 -57.98275 z"
       style="fill:#000000;fill-opacity:1;stroke-width:1.41421354" />
    <path
       transform="matrix(0.26458333,0,0,0.26458333,0,141.42498)"
       id="path1550"
       d="m 249.95833,406.23275 c -42.06245,-9.45822 -79.11716,-28.52416 -106.28662,-54.68817 -15.54831,-14.97292 -22.91644,-25.02521 -31.59888,-43.1101 -4.95455,-10.31996 -7.74796,-14.43602 -11.27761,-16.61747 -7.49797,-4.634 -7.857203,-11.26239 -0.94919,-17.51406 2.78041,-2.51624 9.78707,-2.59239 193.72984,-2.1055 186.82146,0.49452 190.9093,0.56327 193.89053,3.26131 4.97088,4.49868 3.52689,11.7878 -3.24336,16.37208 -4.3232,2.92734 -6.2532,5.76518 -9.37138,13.77957 -14.8201,38.09085 -58.32413,74.32401 -111.3808,92.7656 -24.58742,8.54616 -40.0882,10.81604 -72.92568,10.67899 -22.66066,-0.0946 -31.05106,-0.67802 -40.58685,-2.82225 z"
       style="fill:#000000;fill-opacity:1;stroke-width:1.41421354" />
    <path
       transform="matrix(0.26458333,0,0,0.26458333,0,141.42498)"
       id="path1552"
       d="M 258.44361,408.23946 C 212.4236,399.24627 172.88634,379.67728 143.4339,351.31533 128.71084,337.1374 120.73415,326.45887 112.67398,310.13648 c -3.46379,-7.01439 -8.34005,-14.23363 -12.04888,-17.8382 -7.207131,-7.00453 -7.658284,-9.90337 -2.496077,-16.03831 l 3.734187,-4.43783 191.27934,0.44024 c 185.78472,0.42759 191.36484,0.51762 194.25571,3.13429 1.87248,1.69488 2.97637,4.41345 2.97637,7.32995 0,3.75882 -1.16962,5.59429 -6.18232,9.70182 -4.63111,3.79485 -6.96083,7.2011 -9.2851,13.57565 -7.01583,19.24156 -29.79419,46.31824 -52.41483,62.30562 -23.01075,16.2631 -48.17895,27.97651 -76.36753,35.54189 -15.76787,4.23185 -17.29773,4.37573 -50.20458,4.72181 -18.66762,0.19633 -35.53212,0.046 -37.47666,-0.33395 z"
       style="fill:#000000;fill-opacity:1;stroke-width:1.41421354" />
    <path
       transform="matrix(0.26458333,0,0,0.26458333,0,141.42498)"
       id="path1554"
       d="m 249.25122,406.41679 c -28.83032,-6.77496 -57.58239,-18.88323 -79.55274,-33.5018 -23.73445,-15.79235 -50.20806,-45.08301 -57.66073,-63.79638 -1.31652,-3.30572 -2.96097,-6.0104 -3.65433,-6.0104 -0.69337,0 -1.26066,-0.86224 -1.26066,-1.91609 0,-1.05385 -2.86378,-4.86265 -6.36396,-8.46399 -3.500181,-3.60134 -6.363964,-7.48213 -6.363964,-8.62397 0,-3.69923 3.064307,-8.92852 6.222454,-10.61871 2.31502,-1.23895 50.43686,-1.54146 193.44312,-1.21603 184.88739,0.42074 190.44707,0.51067 193.33785,3.12725 4.90604,4.4407 3.94709,10.80272 -2.53188,16.79728 -3.23862,2.99647 -7.65173,9.61223 -10.71032,16.05597 -21.03442,44.31472 -68.86747,80.01728 -128.73832,96.09021 -13.23793,3.55385 -16.40267,3.82661 -49.49747,4.26596 -30.74085,0.4081 -36.83198,0.12236 -46.66905,-2.1893 z"
       style="fill:#000000;fill-opacity:1;stroke-width:1.41421354" />
    <path
       transform="matrix(0.26458333,0,0,0.26458333,0,141.42498)"
       id="path1556"
       d="m 250.66543,406.85301 c -15.52151,-3.27791 -41.46062,-12.37041 -56.01009,-19.63337 -19.38122,-9.67492 -35.05982,-20.53902 -49.57372,-34.35088 -15.6328,-14.87663 -22.60416,-23.78952 -32.28412,-41.27527 -4.09064,-7.38927 -9.90468,-16.1255 -12.920094,-19.41384 -6.492012,-7.07962 -6.920997,-11.28895 -1.684188,-16.52576 l 3.798382,-3.79838 191.21513,0.42355 c 185.73411,0.41141 191.30046,0.50078 194.19152,3.11761 4.70496,4.25868 3.92061,10.68516 -2.0051,16.42858 -2.73981,2.65553 -7.60007,9.93983 -10.80059,16.18733 -13.50882,26.36964 -32.62586,47.51877 -58.52526,64.74632 -24.74515,16.45978 -56.74546,29.62361 -83.20917,34.22942 -16.83872,2.93065 -68.07421,2.8463 -82.1927,-0.13531 z"
       style="fill:#000000;fill-opacity:1;stroke-width:1.41421354" />
    <path
       transform="matrix(0.26458333,0,0,0.26458333,0,141.42498)"
       id="path1558"
       d="m 250.13581,406.99301 c -16.24272,-3.68931 -41.87364,-12.98491 -57.58669,-20.88504 -33.63879,-16.91276 -61.86987,-42.75225 -78.17478,-71.55223 -4.95654,-8.75492 -11.4796,-18.76925 -14.495694,-22.25407 -6.623136,-7.65244 -7.00173,-12.09632 -1.470791,-17.26389 l 4.013015,-3.74938 191.00054,0.70711 c 185.30958,0.68604 191.08921,0.78738 193.97688,3.40116 4.65859,4.21677 3.81329,10.41727 -2.36709,17.36307 -2.89474,3.25324 -8.44515,11.79624 -12.33424,18.98443 -9.167,16.94337 -17.4071,27.68275 -31.67687,41.28464 -24.66042,23.50625 -57.89417,41.04947 -99.84499,52.70553 -12.02855,3.34214 -77.85944,4.25229 -91.03929,1.25867 z"
       style="fill:#000000;fill-opacity:1;stroke-width:1.41421354" />
    <path
       transform="matrix(0.26458333,0,0,0.26458333,0,141.42498)"
       id="path1560"
       d="m 249.68151,406.90986 c -25.2802,-5.42961 -60.60965,-20.53581 -81.50176,-34.84859 -20.37092,-13.95572 -44.39042,-39.34604 -53.85849,-56.93225 -4.15201,-7.71203 -11.54532,-19.64171 -12.70846,-20.50609 -3.014629,-2.24031 -7.217964,-9.33863 -7.217964,-12.18923 0,-1.82737 1.75009,-5.15812 3.889088,-7.40165 l 3.889086,-4.07916 191.12457,0.87486 c 185.30495,0.84823 191.21519,0.9569 194.10081,3.56892 4.58118,4.14684 3.8682,10.45447 -1.93521,17.12039 -2.70129,3.10277 -7.63336,10.62982 -10.96015,16.72678 -13.40768,24.57207 -34.04592,47.45599 -56.32492,62.45372 -24.69313,16.62288 -63.87222,32.61738 -88.0655,35.95193 -16.26936,2.2424 -68.79579,1.75938 -80.4311,-0.73963 z"
       style="fill:#000000;fill-opacity:1;stroke-width:1.41421354" />
    <path
       transform="matrix(0.26458333,0,0,0.26458333,0,141.42498)"
       id="path1562"
       d="m 254.90808,408.2252 c -8.9114,-1.41068 -30.3446,-8.17906 -46.04436,-14.54034 -29.2921,-11.86866 -49.37701,-25.50097 -71.43489,-48.4853 -12.63359,-13.16422 -16.81999,-18.91161 -28.89186,-39.66474 -1.94454,-3.34293 -5.92202,-9.16637 -8.838833,-12.94098 -6.272137,-8.11669 -6.599423,-11.7699 -1.588014,-17.72562 l 3.715287,-4.41537 174.82917,0.81182 c 189.89965,0.8818 208.40671,1.27638 211.64266,4.51232 3.7509,3.75091 2.50833,10.58207 -3.22591,17.73471 -2.91681,3.63831 -8.11307,11.5816 -11.54724,17.65175 -25.72221,45.46596 -67.33876,76.04225 -127.1401,93.41166 -11.55493,3.35615 -14.49263,3.58902 -49.75661,3.94422 -20.61217,0.20761 -39.38585,0.0753 -41.7193,-0.29413 z"
       style="fill:#000000;fill-opacity:1;stroke-width:1.41421354" />
    <path
       transform="matrix(0.26458333,0,0,0.26458333,0,141.42498)"
       id="path1564"
       d="m 282.2278,236.28662 c -0.6324,-24.3688 -1.55688,-27.30915 -11.36003,-36.13094 -3.19942,-2.87914 -6.66587,-6.07432 -7.70322,-7.10037 -5.43755,-5.37841 -26.37691,-5.40081 -35.91798,-0.0385 -5.13459,2.88581 -14.01968,13.47814 -14.62433,17.43433 -0.12106,0.79211 -0.59558,2.07662 -1.05451,2.85443 -0.45891,0.77782 -1.62585,4.78723 -2.59318,8.90982 -2.07877,8.85924 -6.10563,12.34991 -12.60114,10.92326 -6.59322,-1.44812 -7.68962,-3.8195 -6.89576,-14.91467 1.22603,-17.13554 12.00903,-34.2471 27.18588,-43.14132 14.94846,-8.76037 37.12689,-9.98649 52.46404,-2.90042 14.84426,6.85835 14.6165,7.04828 11.20333,-9.34234 -2.99699,-14.39207 -7.77483,-23.40577 -18.54638,-34.98903 -9.04582,-9.72747 -21.14421,-17.36593 -30.21097,-19.07404 -1.94454,-0.36633 -5.75872,-1.33937 -8.47595,-2.16231 -13.95704,-4.227 -41.48061,1.58924 -50.57982,10.68846 -1.0766,1.07659 -2.57589,1.95743 -3.33176,1.95743 -1.74775,0 -18.22264,16.87337 -18.22264,18.66339 0,0.7357 -0.90871,2.24634 -2.01936,3.35699 -3.23579,3.2358 -8.01601,17.36127 -9.99501,29.53509 -2.57693,15.85202 -8.60131,20.35992 -17.2517,12.90906 -3.48965,-3.00575 -3.94423,-4.3269 -3.77116,-10.96016 0.27805,-10.65722 4.02616,-24.02651 10.53475,-37.57678 9.66898,-20.12991 27.95135,-36.488688 50.59578,-45.27232 7.89261,-3.061491 12.34793,-3.741398 28.04341,-4.279588 16.30737,-0.559171 19.96266,-0.248321 28.99138,2.465458 12.3518,3.712596 24.91171,10.462271 35.46463,19.05861 l 7.74063,6.30548 -0.36921,-5.44191 c -0.20307,-2.99306 -1.1678,-7.89409 -2.14385,-10.891198 -2.68395,-8.241485 -12.93385,-27.554544 -15.05606,-28.368912 -1.02839,-0.394626 -1.86979,-1.265581 -1.86979,-1.935453 0,-2.928579 -26.10928,-26.763711 -29.31728,-26.763711 -0.98748,0 -1.79542,-0.547834 -1.79542,-1.217409 0,-1.533278 -19.91368,-10.685224 -27.92704,-12.834732 -9.42569,-2.528351 -29.70243,-3.319533 -41.81927,-1.631751 -12.46042,1.735639 -29.02759,8.098662 -37.21071,14.291678 -3.01012,2.278074 -5.95576,4.159658 -6.54586,4.181297 -1.5997,0.05866 -9.13621,6.67628 -19.102316,16.773273 -15.174267,15.373552 -24.21533,35.154934 -27.295739,59.721668 -2.199753,17.54336 -6.262258,22.93964 -14.820224,19.68591 -5.443099,-2.06946 -6.76891,-6.37308 -5.846519,-18.97794 C 50.473312,88.682458 63.802698,60.566792 86.812529,38.563513 108.90959,17.433081 133.87421,5.8904698 162.7475,3.4543162 c 29.65511,-2.50211831 53.79686,2.7822449 77.94226,17.0606968 12.14431,7.181574 36.15558,30.886863 43.20969,42.659063 4.44578,7.419292 11.44993,16.994057 9.21667,12.599302 -0.49407,-0.972272 -0.29022,-1.767767 0.45299,-1.767767 0.74321,0 4.24294,-4.639452 7.77717,-10.309893 17.50287,-28.082221 46.1125,-49.249553 78.01259,-57.7189827 15.82693,-4.2020294 43.05812,-4.2139822 60.53025,-0.026569 36.28262,8.6955847 67.8323,33.7603557 84.77309,67.3483377 9.02322,17.890048 15.61944,49.585816 12.369,59.434766 -1.90428,5.77004 -6.63353,8.36967 -11.71292,6.43849 -5.21687,-1.98346 -6.53461,-4.65269 -8.14532,-16.49928 -2.96081,-21.77644 -8.80537,-38.383459 -18.43324,-52.377084 -5.71571,-8.307492 -23.39296,-25.98827 -25.98307,-25.98827 -0.42175,0 -2.0396,-1.272792 -3.59523,-2.828427 -1.55564,-1.555635 -3.78302,-2.828427 -4.94975,-2.828427 -1.16672,0 -2.12132,-0.549487 -2.12132,-1.221083 0,-1.590631 -13.95134,-7.77006 -24.74874,-10.961889 -12.77784,-3.777269 -44.96388,-3.274528 -57.38631,0.896367 -18.50778,6.21409 -30.86145,13.857347 -44.43706,27.4934 -13.53205,13.592286 -21.52874,26.463921 -27.4638,44.206223 -3.14888,9.41326 -4.03195,17.00132 -1.52758,13.12609 0.754,-1.16673 1.38065,-1.66954 1.39256,-1.11735 0.0113,0.55218 4.31733,-2.25472 9.56759,-6.23757 18.11945,-13.745388 36.32579,-20.00808 58.33631,-20.066749 35.53857,-0.09472 67.43108,20.539849 82.81966,53.584619 5.66144,12.15713 9.62555,30.31111 8.41028,38.51554 -1.44517,9.75663 -8.6645,13.04685 -15.56299,7.09284 -2.99958,-2.5889 -3.95779,-5.14533 -5.14105,-13.71579 -2.59246,-18.7775 -9.473,-32.63105 -22.26092,-44.8211 -4.37209,-4.16767 -8.74714,-7.57759 -9.72234,-7.57759 -0.9752,0 -1.77308,-0.51938 -1.77308,-1.15418 0,-0.6348 -3.75374,-2.94831 -8.34164,-5.14112 -7.942,-3.79593 -9.32268,-3.98921 -28.81909,-4.0344 l -20.47746,-0.0475 -10.96425,5.2069 c -19.46537,9.24406 -34.41891,28.05778 -38.72919,48.72694 -2.09914,10.06606 -1.98353,14.42608 0.38253,14.42608 1.06994,0 5.58002,-1.60743 10.02241,-3.57207 27.64366,-12.22533 58.99496,-1.55386 74.33279,25.30166 4.6364,8.11802 7.67416,23.5155 5.89684,29.8892 -1.43893,5.16021 -6.90658,7.55861 -12.64787,5.54803 -3.95441,-1.38481 -5.55106,-4.70673 -8.85148,-18.4159 -0.76755,-3.18825 -2.84574,-7.96122 -4.61819,-10.6066 -3.45383,-5.15487 -16.11305,-14.45916 -18.04678,-13.26405 -0.64271,0.39721 -1.52624,0.14351 -1.96338,-0.56381 -0.43715,-0.7073 -5.41318,-1.14411 -11.05787,-0.97067 -11.40278,0.35036 -19.00049,3.41677 -25.30443,10.21277 -7.78342,8.39097 -8.78634,12.23657 -9.43873,36.19196 l -0.60658,22.27386 h -10.28653 -10.28653 z"
       style="fill:#000000;fill-opacity:1;stroke-width:1.41421354" />
    <path
       transform="matrix(0.26458333,0,0,0.26458333,0,141.42498)"
       id="path1566"
       d="m 282.07087,238.40794 c -0.40443,-10.69499 -1.06436,-20.71823 -1.46649,-22.27387 -0.40213,-1.55563 -0.77986,-3.55887 -0.83937,-4.45164 -0.14736,-2.21063 -10.89149,-14.06994 -16.11947,-17.79261 -8.39265,-5.9761 -27.19451,-5.68744 -37.39516,0.5741 -6.38386,3.91865 -12.4079,13.1892 -16.04393,24.69038 -4.40724,13.94061 -10.17829,17.87578 -18.08926,12.33472 -3.07885,-2.15652 -3.26926,-3.0533 -2.66095,-12.53203 1.50353,-23.42838 18.10511,-43.49338 41.03687,-49.59796 10.68124,-2.84342 24.35541,-2.46403 33.60735,0.93246 14.15566,5.19669 16.96041,6.01905 17.76941,5.21005 0.4407,-0.4407 0.15306,-3.25198 -0.63918,-6.24732 -0.79226,-2.99533 -1.75176,-7.03704 -2.13224,-8.98158 -2.50413,-12.79786 -9.24314,-23.66786 -22.66141,-36.55274 -9.87937,-9.48666 -14.16728,-11.74686 -30.49254,-16.07296 -40.22464,-10.659294 -81.18549,20.32947 -87.24444,66.00443 -1.03036,7.76725 -5.44649,13.49133 -10.4086,13.49133 -1.65082,0 -4.92281,-1.92131 -7.27108,-4.26959 -4.1157,-4.1157 -4.23438,-4.5872 -3.29271,-13.08147 1.20541,-10.87335 6.52913,-27.27345 12.48327,-38.45563 9.2202,-17.316 30.07186,-34.977461 49.35415,-41.803224 11.14636,-3.945712 39.7133,-5.501289 51.86621,-2.82431 11.34811,2.499707 26.22735,9.733477 37.26536,18.117134 l 9.54594,7.25039 -0.0335,-5.24661 C 278.13509,95.273189 266.74525,74.294919 252.07965,58.703238 240.83358,46.747034 230.41886,39.212001 215.63358,32.334584 201.00111,25.528241 195.42232,24.387186 176.01142,24.23048 c -17.98591,-0.145203 -26.85584,1.281943 -37.16987,5.980525 -3.35927,1.530328 -6.4667,2.782413 -6.90539,2.782413 -0.43869,0 -6.04207,3.383766 -12.45195,7.519479 -15.28772,9.863765 -33.137988,28.972947 -39.794947,42.601539 -4.525127,9.264154 -8.335713,23.181494 -12.026499,43.924184 -2.318971,13.03292 -9.305935,17.12357 -16.669835,9.75967 -3.57176,-3.57177 -3.651338,-4.04017 -2.823092,-16.61701 C 49.606143,98.371106 57.452044,76.063963 70.401596,56.972848 77.658567,46.274125 97.521419,27.864987 109.37656,20.850369 131.12331,7.9829381 149.34325,3.0198047 175.00501,2.9730999 212.98045,2.9039844 241.2031,15.222191 268.21065,43.65411 c 5.62546,5.922145 13.10133,15.209099 16.61306,20.637677 3.51173,5.428577 7.12687,9.633497 8.03365,9.344265 0.90678,-0.289233 4.69427,-4.938276 8.41665,-10.331207 15.95253,-23.111805 31.09343,-36.747492 52.62901,-47.396997 20.31691,-10.0468512 32.58213,-12.9298565 55.15433,-12.9643198 29.4029,-0.044891 49.07975,5.8292551 72.90147,21.7633408 32.85294,21.974976 55.15751,61.765265 55.64725,99.272081 0.13096,10.03112 -0.17201,11.33919 -3.19393,13.78858 -4.37899,3.54934 -7.73192,3.41716 -12.07109,-0.47586 -2.96856,-2.66334 -4.02815,-5.93235 -6.50075,-20.05612 -4.92355,-28.123919 -11.96974,-42.648037 -28.90801,-59.587218 -12.061,-12.061676 -27.74211,-22.692288 -42.24815,-28.641077 -7.69666,-3.156326 -11.33157,-3.665124 -30.0264,-4.202961 -16.65508,-0.479154 -23.25179,-0.107636 -30.40559,1.712388 -10.43922,2.655876 -30.05859,11.952677 -35.29887,16.726649 -1.94455,1.771507 -5.8654,5.122055 -8.713,7.44566 -5.91194,4.824058 -18.25987,19.885379 -23.1862,28.281222 -3.73238,6.361013 -9.66277,21.575377 -11.20545,28.747507 -0.99137,4.60896 -0.93676,4.67882 2.30628,2.95104 1.82694,-0.97332 6.50369,-4.1412 10.39278,-7.03972 21.26868,-15.851494 48.71436,-22.51678 72.95714,-17.717915 23.65993,4.683492 44.96043,18.087075 57.80171,36.372375 12.15812,17.31255 20.28564,42.56047 17.86102,55.4848 -0.97284,5.18571 -5.24252,9.3744 -9.55565,9.3744 -5.69348,0 -9.59761,-5.92801 -11.64237,-17.67767 -1.08289,-6.22254 -3.17836,-14.3558 -4.65661,-18.07392 -3.80758,-9.57692 -13.89903,-22.88952 -22.27703,-29.38777 -3.93257,-3.05022 -7.958,-6.22464 -8.94541,-7.05427 -0.9874,-0.82962 -4.48758,-2.73056 -7.77817,-4.22431 -5.02269,-2.28003 -9.33571,-2.72089 -26.87393,-2.74696 l -20.89104,-0.0311 -10.92877,5.50113 c -9.56061,4.81245 -19.66931,12.91486 -25.46092,20.40765 -7.43362,9.61708 -16.09447,34.25801 -13.97888,39.77117 0.84983,2.21461 1.25328,2.13195 17.08333,-3.50024 21.05118,-7.4898 43.19775,-1.80469 59.91556,15.38055 11.26771,11.58275 18.4663,32.77726 14.59286,42.96515 -1.69035,4.44599 -7.2016,6.38917 -12.66828,4.46664 -3.74388,-1.31666 -4.8208,-3.50255 -9.49728,-19.27724 -1.82634,-6.16064 -3.92515,-9.52602 -8.66648,-13.89643 -8.09809,-7.46455 -14.47432,-10.02992 -24.80657,-9.9805 -14.2393,0.0682 -24.60293,5.04649 -30.55552,14.67801 -3.6958,5.97991 -4.00605,7.91829 -5.23337,32.69698 l -1.025,20.69376 h -10.2559 -10.25592 z"
       style="fill:#000000;fill-opacity:1;stroke-width:1.41421354" />
    <path
       transform="matrix(0.26458333,0,0,0.26458333,0,141.42498)"
       id="path1568"
       d="m 282.01224,238.40794 c -1.1181,-23.81461 -2.20357,-27.87468 -9.74206,-36.43886 -7.60519,-8.63994 -14.81437,-11.92694 -26.24636,-11.9669 -18.82766,-0.0658 -29.45369,9.14736 -36.27359,31.45058 -3.54931,11.60734 -10.08172,15.32541 -17.63304,10.03626 -3.07885,-2.15652 -3.26926,-3.0533 -2.66095,-12.53203 1.28536,-20.02886 13.46419,-37.6927 31.97196,-46.37129 7.06453,-3.31267 11.53484,-4.34275 21.25077,-4.89673 11.08815,-0.63221 13.54947,-0.27235 24.90275,3.64097 6.92917,2.38838 13.0381,4.07079 13.57543,3.73871 1.6427,-1.01524 -3.69657,-21.2477 -7.90071,-29.93869 -5.02114,-10.37993 -22.20644,-27.72431 -31.35602,-31.64628 -12.82216,-5.49622 -28.44101,-8.72506 -37.02152,-7.65335 -23.75773,2.96734 -45.38119,17.81826 -56.6193,38.88596 -3.87482,7.26398 -10.02414,27.26406 -10.02414,32.60254 0,4.00984 -5.56544,9.82387 -9.40382,9.82387 -5.338,0 -11.80939,-7.17864 -11.80939,-13.10002 0,-8.33235 5.40258,-26.71946 11.52552,-39.22589 9.7184,-19.85037 29.51607,-37.377054 51.50293,-45.595068 7.36177,-2.751602 11.16086,-3.139325 31.01675,-3.165486 22.59127,-0.02977 22.64506,-0.0222 33.67171,4.73338 6.07436,2.619754 15.81808,8.18822 21.6527,12.374364 5.8346,4.18615 10.96926,7.61118 11.41031,7.61118 1.47019,0 -1.03434,-11.634222 -4.07846,-18.94561 C 268.81535,80.040667 256.34923,62.288648 246.52609,53.09958 236.15319,43.396236 226.12733,37.144601 209.65324,30.107451 l -11.31371,-4.832816 -23.33452,0.02502 c -22.48926,0.02411 -23.69312,0.173332 -33.23402,4.119529 -23.86397,9.87034 -41.869114,24.117391 -55.020894,43.536754 -8.953468,13.220314 -12.035064,21.449135 -17.075684,45.597402 -2.66062,12.74631 -4.288085,17.5866 -6.538209,19.44543 -4.126965,3.40931 -7.843654,3.09913 -11.939162,-0.99637 -2.89595,-2.89595 -3.471252,-4.84515 -3.471252,-11.76108 0,-28.152133 12.950327,-59.28829 33.792787,-81.247182 C 111.23837,12.682392 148.1701,-1.2022374 189.62625,3.3506281 c 22.61319,2.4834633 40.22714,9.0961019 58.21076,21.8535289 10.38178,7.364746 27.96689,25.566518 35.69513,36.94686 9.16362,13.494024 8.64626,13.488958 18.14328,0.177635 31.43926,-44.06625 73.05115,-64.3178978 121.4496,-59.1070076 22.90197,2.4657752 39.58832,8.4564286 58.65074,21.0565016 32.30478,21.353147 54.99359,61.366163 55.72693,98.277614 0.2298,11.56652 10e-4,12.688 -3.09055,15.2028 -4.37479,3.5577 -7.72084,3.42867 -12.10783,-0.46689 -2.94872,-2.61841 -4.18852,-6.20924 -7.00005,-20.2742 -5.48104,-27.419504 -13.18013,-43.37306 -28.56525,-59.19111 -15.52225,-15.959034 -39.33298,-29.557202 -55.9662,-31.961969 -11.47333,-1.65877 -27.38756,-1.634337 -40.44785,0.0621 -7.59196,0.986141 -14.09074,3.180309 -25.08096,8.468023 -12.615,6.069441 -16.59566,8.878237 -26.61222,18.777851 -6.47809,6.402471 -14.2501,15.438187 -17.27111,20.079367 -7.82319,12.018745 -17.889,37.523428 -14.80919,37.523428 0.66595,0 5.36022,-2.84079 10.4317,-6.31286 21.42804,-14.670207 36.25365,-19.630022 58.84015,-19.684597 17.41248,-0.04207 26.39258,2.225501 43.06091,10.873368 16.09774,8.351829 29.61916,22.214859 38.00374,38.963879 13.59447,27.15625 14.07123,52.52775 0.98708,52.52775 -6.11976,0 -9.40889,-5.08266 -12.81251,-19.79899 -5.07885,-21.9596 -13.41915,-35.65861 -28.71138,-47.15873 -14.00411,-10.53142 -16.41876,-11.26596 -39.30126,-11.95537 l -20.69373,-0.62347 -9.01146,4.43633 c -23.40946,11.52444 -37.70768,29.71079 -42.18003,53.65008 -1.83748,9.83555 -1.18075,10.29381 9.30279,6.49127 5.04575,-1.83016 12.82456,-3.98954 17.28624,-4.79859 29.0625,-5.27004 61.25774,19.35502 64.6596,49.45595 1.09924,9.72649 -0.84953,15.16221 -5.88932,16.42712 -7.86646,1.97436 -10.76888,-0.62843 -15.54591,-13.94103 -5.47836,-15.26702 -9.73546,-20.96208 -19.19187,-25.67441 -10.49687,-5.23081 -21.54064,-5.08455 -33.21829,0.43995 -7.03379,3.32754 -9.45942,5.40218 -12.61828,10.79238 -3.53856,6.03809 -4.01406,8.50521 -4.99796,25.93149 -0.59803,10.59218 -1.12467,21.00861 -1.17029,23.14761 -0.0827,3.88208 -0.10168,3.88908 -10.46958,3.88908 H 282.9252 Z"
       style="fill:#000000;fill-opacity:1;stroke-width:1.41421354" />
    <path
       transform="matrix(0.26458333,0,0,0.26458333,0,141.42498)"
       id="path1570"
       d="m 281.91684,239.11504 c -1.20836,-23.41044 -3.42841,-30.65695 -12.00964,-39.20102 -7.07978,-7.04913 -14.19776,-9.9429 -24.45722,-9.9429 -16.78388,0 -28.04327,9.24923 -34.36413,28.22902 -2.02259,6.0733 -4.81346,12.07044 -6.20192,13.32698 -3.23907,2.93133 -8.54992,2.91548 -12.76674,-0.038 -3.07885,-2.15652 -3.26926,-3.0533 -2.66095,-12.53204 1.2913,-20.12127 13.38432,-37.67909 31.93397,-46.36478 7.96089,-3.72762 11.51156,-4.51513 22.20416,-4.92474 11.08804,-0.42475 14.32225,0.045 25.10229,3.64598 14.14512,4.72505 13.65604,5.18048 10.19679,-9.49497 -3.03155,-12.86094 -9.8285,-24.70849 -20.02515,-34.90514 -17.53024,-17.53029 -44.69293,-25.05801 -65.75979,-18.22436 -19.97509,6.47951 -37.05524,20.345 -44.87503,36.42911 -2.35059,4.8348 -5.84562,15.06646 -7.76674,22.73703 -3.75778,15.00393 -6.36772,19.28753 -11.75164,19.28753 -5.21845,0 -11.69285,-7.25356 -11.69285,-13.10002 0,-8.31138 5.39573,-26.70393 11.5075,-39.22589 8.08835,-16.57164 23.7156,-32.15403 40.8184,-40.701252 14.4173,-7.205117 22.20798,-8.796219 43.06986,-8.796219 22.54101,0 33.3338,3.630155 55.761,18.755221 l 10.4425,7.04251 -1.00512,-5.35781 C 274.93996,91.492644 264.34217,72.396912 250.79194,57.425347 242.17713,47.906884 226.88707,37.726802 210.96248,30.906968 l -12.62295,-5.405871 -22.62741,0.02325 c -19.53539,0.02007 -23.77425,0.437204 -31.01988,3.052582 -20.28371,7.321605 -39.9806,21.29476 -52.41012,37.180222 -12.804719,16.364987 -15.530568,23.189756 -23.911282,59.867259 -3.235721,14.16086 -8.950159,18.1863 -16.918796,11.91817 -3.38873,-2.66558 -3.726253,-3.82387 -3.726253,-12.78755 0,-22.52629 9.887142,-51.136414 24.380253,-70.548409 6.250186,-8.371467 22.372365,-23.488485 32.040708,-30.043086 22.93451,-15.5483254 42.82272,-21.4041348 72.27247,-21.2796276 14.81438,0.062633 21.62669,0.7564597 30.40559,3.0967835 12.72647,3.3926854 28.48617,10.4676971 38.52904,17.2968561 10.35801,7.043461 27.95526,24.723963 37.46934,37.646589 4.72441,6.416994 9.01191,11.667261 9.52776,11.667261 1.24924,0 4.89642,-4.332854 13.71022,-16.2878 18.79474,-25.49296 45.79329,-43.910618 75.00021,-51.1630313 14.19687,-3.5252474 45.47776,-3.0995265 60.52288,0.8236937 35.55919,9.2725366 66.73005,34.6004276 82.86783,67.3342446 8.66587,17.577862 12.72564,32.900736 13.0506,49.257256 0.2298,11.56652 10e-4,12.688 -3.09055,15.2028 -4.37456,3.55751 -7.71875,3.42865 -12.11729,-0.46689 -2.83639,-2.51204 -4.2161,-6.15951 -6.55307,-17.32412 C 508.99175,87.720097 500.64382,71.281916 482.23135,53.981114 470.1001,42.582286 456.72725,34.462212 441.58426,29.299946 c -10.01649,-3.414637 -13.50275,-3.869922 -30.40559,-3.970781 -16.26669,-0.09707 -20.66143,0.376168 -29.69848,3.197973 -33.35812,10.416021 -57.86879,33.61248 -70.71477,66.923189 -6.097,15.810083 -5.80565,16.418743 4.60028,9.610453 36.83717,-24.101434 67.27789,-27.221509 101.37438,-10.390538 18.274,9.020548 30.98221,21.635358 40.05644,39.762008 13.68378,27.33465 14.20299,52.71045 1.07854,52.71045 -6.16384,0 -9.39856,-5.09488 -13.46815,-21.21321 -2.06205,-8.16708 -5.44139,-18.03122 -7.50963,-21.92031 -5.88749,-11.0707 -20.94491,-25.39794 -32.3008,-30.73444 -9.12907,-4.29004 -10.77504,-4.58047 -28.85797,-5.09188 l -19.17671,-0.54234 -10.52178,5.29793 c -12.73234,6.41101 -28.84172,21.90193 -33.78184,32.48495 -5.68536,12.17951 -9.15253,28.99137 -5.97901,28.99137 0.64157,0 5.62511,-1.51646 11.07451,-3.36993 13.16644,-4.47819 22.18127,-5.54482 31.5996,-3.73884 25.00564,4.79487 45.29852,26.64787 47.59643,51.25566 0.76363,8.17754 0.5202,9.55985 -2.15457,12.23463 -3.35644,3.35643 -9.7062,3.95077 -13.33009,1.24769 -1.30348,-0.97228 -4.07261,-6.54074 -6.15364,-12.37437 -4.55182,-12.75983 -7.71567,-17.82694 -14.35563,-22.99138 -12.7268,-9.89869 -35.89162,-8.19854 -46.43887,3.40831 -6.68241,7.35377 -7.9568,12.24651 -9.14669,35.11692 -0.6279,12.06854 -1.17092,22.10191 -1.20671,22.29636 -0.0358,0.19445 -4.74831,0.35355 -10.47226,0.35355 h -10.4072 z"
       style="fill:#000000;fill-opacity:1;stroke-width:1.41421354" />
    <path
       transform="matrix(0.26458333,0,0,0.26458333,0,141.42498)"
       id="path1572"
       d="m 281.4013,236.74478 c -1.72438,-23.0334 -3.46262,-28.47522 -11.73944,-36.75205 -7.38271,-7.3827 -12.21159,-9.25537 -23.94617,-9.28643 -8.73052,-0.0231 -11.73225,0.60056 -16.97057,3.52599 -7.53051,4.20553 -14.21741,13.53213 -17.74652,24.75213 -4.4204,14.05358 -10.70744,18.22988 -18.85373,12.52398 -3.01815,-2.11398 -3.245,-3.13127 -2.75954,-12.37437 0.39858,-7.58883 1.62803,-12.40663 4.98821,-19.54726 12.75216,-27.09924 42.07923,-38.59636 73.18623,-28.69127 6.71125,2.13699 12.52804,3.55968 12.92621,3.16151 1.21198,-1.21199 -3.56788,-19.68983 -7.07757,-27.36031 -4.51777,-9.87362 -20.01467,-25.9649 -30.2699,-31.43088 -16.00811,-8.53223 -33.55761,-10.69096 -49.95305,-6.14464 -11.9533,3.31455 -21.05603,8.67434 -31.31706,18.43983 -9.81628,9.34223 -16.37691,21.92084 -21.36379,40.96048 -1.90135,7.25923 -4.56115,14.41869 -5.91069,15.9099 -3.81425,4.2147 -9.62562,3.45235 -14.08537,-1.84777 -3.51674,-4.17941 -3.76794,-5.26876 -3.01652,-13.08147 0.95754,-9.95577 5.71322,-24.5426 12.23046,-37.51378 6.25636,-12.45198 24.06932,-30.01365 37.63474,-37.103823 14.39837,-7.525537 23.72777,-9.565228 43.75067,-9.565228 23.77756,0 35.02433,3.691229 57.64613,18.919651 l 9.60332,6.46471 -0.94516,-5.26756 C 274.80397,90.900027 262.36467,69.433234 248.56301,55.650389 238.7553,45.856044 227.49216,38.355358 212.69497,31.764072 l -11.52701,-5.134615 -25.45584,0.0014 c -22.88309,0.0012 -26.30025,0.319928 -33.81071,3.153368 -13.35406,5.038034 -27.29441,14.098574 -39.21624,25.488623 -16.54029,15.802501 -25.213212,31.117021 -30.230751,53.381032 -6.262087,27.78636 -8.055789,31.81981 -14.150495,31.81981 -1.719096,0 -4.802443,-1.31898 -6.851882,-2.93107 -3.38873,-2.66558 -3.726253,-3.82387 -3.726253,-12.78755 0,-20.50707 8.056218,-46.173805 20.238264,-64.478148 C 81.407859,40.0767 104.60372,20.867943 126.62177,11.701809 142.8587,4.9423557 154.76072,2.8401606 176.41922,2.9063315 c 23.35491,0.071354 35.33957,2.8636858 56.00242,13.0481215 11.69111,5.762385 16.71593,9.342362 27.68896,19.727203 7.37321,6.977987 16.2193,16.384771 19.65801,20.903967 3.43868,4.519196 7.36586,9.452868 8.72704,10.963717 1.36118,1.51085 2.47487,3.263396 2.47487,3.894546 0,3.258415 3.5054,-0.124281 12.71361,-12.268609 30.57561,-40.324849 69.6994,-59.79262515 113.8585,-56.6553379 31.35981,2.2279593 57.36475,13.3122099 79.47291,33.8742289 23.65559,22.001241 38.44257,52.4785 40.78944,84.070672 0.9214,12.4033 -0.7299,17.06235 -6.8046,19.1987 -3.09429,1.0882 -4.63434,0.78334 -7.74813,-1.53376 -3.99297,-2.97133 -5.22875,-6.58289 -10.81173,-31.59722 -7.01366,-31.424476 -29.62451,-58.601449 -60.47553,-72.688217 -14.62091,-6.67599 -22.94079,-8.267126 -43.4013,-8.300274 -16.28851,-0.02639 -19.00097,0.354691 -30.28134,4.254298 -6.81462,2.355806 -16.00367,6.424925 -20.42011,9.042486 -11.483,6.805829 -28.06491,22.880824 -35.85477,34.758678 -6.0626,9.244174 -16.46092,33.838329 -14.94686,35.352389 0.34085,0.34085 6.30465,-2.84365 13.25289,-7.07666 16.70636,-10.177853 29.00841,-14.939104 43.66703,-16.900406 28.68303,-3.837754 60.26451,7.949174 79.76847,29.771416 18.19029,20.35245 29.64384,59.42297 20.41075,69.62543 -3.35149,3.70334 -9.37109,3.51337 -13.02167,-0.41095 -1.70098,-1.82853 -4.53703,-9.13553 -6.66759,-17.17886 -2.03915,-7.69828 -5.38025,-17.53267 -7.42466,-21.85421 -5.14321,-10.87183 -19.96068,-25.38886 -31.9275,-31.2801 -8.89789,-4.38042 -10.51435,-4.68374 -28.64818,-5.3757 l -19.2182,-0.73333 -10.76571,5.39272 c -14.37878,7.20256 -28.44013,20.93511 -34.33499,33.53212 -4.29148,9.17071 -8.32335,25.72387 -6.66862,27.3786 0.47567,0.47565 5.83728,-0.76905 11.91471,-2.76604 15.74466,-5.17354 23.63959,-5.88881 34.44479,-3.12066 24.21012,6.20236 42.95565,27.48519 44.83551,50.90424 0.62493,7.78527 0.32978,9.32452 -2.29029,11.94459 -1.91404,1.91404 -4.79561,3.00766 -7.92482,3.00766 -5.81834,0 -7.15095,-1.75074 -12.77182,-16.7792 -2.1425,-5.72839 -5.81997,-12.60714 -8.17214,-15.28611 -15.43452,-17.57894 -46.38195,-14.30314 -56.18498,5.94721 -2.67407,5.52387 -3.32106,9.59527 -3.78449,23.81516 -0.30745,9.4337 -0.87846,19.22047 -1.26891,21.74838 l -0.70992,4.59619 h -10.29434 -10.29436 z"
       style="fill:#000000;fill-opacity:1;stroke-width:1.41421354" />
    <path
       transform="matrix(0.26458333,0,0,0.26458333,0,141.42498)"
       id="path1574"
       d="m 282.47315,253.96429 c -0.0288,-9.29966 -2.99941,-36.83636 -4.45377,-41.28699 -0.87544,-2.67905 -4.46211,-7.93967 -7.97037,-11.69027 -4.88048,-5.21762 -8.20041,-7.34889 -14.13509,-9.07415 -20.07248,-5.83523 -35.66463,3.18026 -44.21206,25.56372 -2.38167,6.23694 -5.34744,12.4638 -6.59062,13.83751 -2.7933,3.08655 -8.64415,3.2217 -12.82099,0.29613 -6.45351,-4.52021 -3.34985,-24.73012 6.08175,-39.60228 13.09187,-20.64381 40.78254,-29.66074 67.22125,-21.8893 14.97318,4.40125 14.8251,4.4144 14.27014,-1.26745 -1.91964,-19.65365 -17.12323,-42.1501 -35.65115,-52.75231 -16.64187,-9.52297 -39.1936,-11.68213 -55.7722,-5.33978 -25.39937,9.71685 -39.42318,26.65313 -47.83468,57.769 -1.96336,7.26288 -4.6712,14.42234 -6.01744,15.90991 -3.80866,4.20851 -9.62204,3.44283 -14.07937,-1.85441 -3.51674,-4.17941 -3.76794,-5.26876 -3.01652,-13.08147 1.00838,-10.48436 6.11762,-25.71032 13.06166,-38.92486 10.27515,-19.55363 36.56467,-39.417393 58.08007,-43.883974 4.85424,-1.007735 15.79269,-1.469552 27.31345,-1.153163 19.17633,0.526632 19.24229,0.540054 31.45774,6.401445 6.73263,3.230537 16.18884,8.495842 21.01383,11.700692 4.82498,3.20484 9.00704,5.59264 9.29345,5.30622 0.94142,-0.94142 -3.95532,-15.707782 -7.6013,-22.922084 -12.96358,-25.651036 -32.4533,-43.46307 -60.44155,-55.238698 -9.62903,-4.05127 -10.50242,-4.158271 -33.94113,-4.158271 -21.82257,0 -24.90467,0.312064 -33.17321,3.358808 -15.4181,5.681176 -28.23295,14.190596 -41.79624,27.75389 -16.949455,16.949453 -21.952373,26.490278 -29.053149,55.405855 -2.962472,12.0637 -6.482537,23.1338 -7.829264,24.62192 -3.181584,3.51561 -7.772748,3.43159 -12.424345,-0.22735 -3.38873,-2.66558 -3.726253,-3.82387 -3.726253,-12.78755 0,-53.108776 41.011107,-104.139204 95.459411,-118.7808612 15.28229,-4.1095497 47.46452,-4.4187822 62.2254,-0.597911 21.71668,5.6213892 38.99121,15.1567832 54.87547,30.2907912 9.97868,9.507372 26.83906,28.90481 30.71221,35.333608 1.24673,2.069378 1.59806,2.016624 3.53358,-0.53058 1.18207,-1.555635 2.94032,-3.783021 3.90724,-4.949747 0.96691,-1.166727 4.69864,-5.939697 8.2927,-10.606602 34.26624,-44.494742 87.5529,-62.7579473 139.59732,-47.8448912 50.38645,14.4379732 90.33332,64.7161052 91.19466,114.7798832 0.21153,12.29575 -5e-4,13.37988 -3.11164,15.9099 -4.37529,3.55803 -7.72516,3.42863 -12.08847,-0.46695 -2.8627,-2.55583 -4.54053,-7.21716 -8.52648,-23.68808 -2.9533,-12.20378 -6.94789,-24.51411 -9.86635,-30.405591 -12.69972,-25.636933 -40.06983,-47.824615 -67.947,-55.081485 -13.06232,-3.400328 -41.71151,-2.988936 -54.00112,0.775437 -18.41828,5.641613 -31.13493,13.383706 -45.26638,27.558857 -11.14257,11.177038 -13.95464,15.024332 -20.20535,27.643811 -3.99371,8.062851 -7.64252,17.067971 -8.10848,20.011391 l -0.8472,5.35165 13.98147,-8.43968 c 7.6898,-4.641828 19.07264,-10.197385 25.29518,-12.345683 9.83884,-3.396807 13.526,-3.914162 28.28427,-3.968626 15.4511,-0.05702 18.06175,0.326746 29.1579,4.286209 24.41972,8.713747 41.89166,24.06621 52.95827,46.53402 13.57755,27.56563 13.87701,51.6188 0.64266,51.6188 -5.97561,0 -9.32613,-5.19198 -14.11917,-21.8791 -2.45103,-8.53334 -6.16972,-18.66423 -8.26377,-22.5131 -5.78347,-10.63009 -18.61483,-22.61597 -30.49916,-28.48952 -9.79535,-4.84113 -11.15921,-5.12006 -28.56687,-5.84247 -17.28824,-0.71745 -18.7026,-0.56808 -26.0586,2.7521 -18.90975,8.53503 -35.33264,25.57113 -40.85704,42.38259 -2.81501,8.56641 -5.31207,20.88352 -4.22499,20.84035 0.29387,-0.0113 5.62547,-1.60939 11.84801,-3.5505 16.08077,-5.01636 23.86043,-5.66698 34.66471,-2.89905 20.72693,5.30999 37.13623,20.70987 42.95756,40.31503 4.99426,16.81976 1.75973,26.15414 -8.75993,25.27973 -4.62252,-0.38423 -5.58299,-1.16548 -8.35747,-6.79808 -1.72413,-3.50018 -4.24727,-9.5183 -5.60701,-13.3736 -10.22332,-28.98653 -51.78155,-30.88218 -63.47256,-2.89525 -1.61466,3.8653 -2.55837,11.24023 -2.9859,23.33452 -0.9143,25.86392 0.0307,24.04702 -12.50797,24.04702 h -10.57966 l -0.0127,-3.88908 z"
       style="fill:#000000;fill-opacity:1;stroke-width:1.41421354" />
    <path
       transform="matrix(0.26458333,0,0,0.26458333,0,141.42498)"
       id="path1576"
       d="m 281.81909,245.479 c -1.89089,-25.43161 -3.39361,-33.29031 -7.47846,-39.1098 -6.01758,-8.57295 -12.87219,-13.33742 -21.55843,-14.98473 -20.14796,-3.82098 -34.71336,6.49461 -42.30929,29.96454 -3.6982,11.42665 -10.79822,15.43349 -18.18266,10.26123 -6.75965,-4.73465 -2.8481,-27.46221 7.11737,-41.35462 14.36132,-20.02047 39.84982,-27.49537 67.71555,-19.85864 6.12764,1.67929 11.58144,2.61297 12.11959,2.07483 1.67652,-1.67653 -2.19708,-16.74744 -6.58865,-25.6342 -8.33139,-16.85938 -23.45011,-30.11811 -41.15687,-36.09353 -7.63173,-2.57545 -11.55045,-2.99383 -24.06663,-2.56947 -14.04586,0.47621 -15.62909,0.84195 -26.16296,6.04391 -19.20123,9.48216 -31.59469,24.6816 -38.12862,46.76122 -5.16278,17.44624 -6.57912,21.27591 -8.76061,23.68808 -6.16936,6.82176 -17.35617,-0.99903 -17.35617,-12.13382 0,-13.80691 13.15896,-45.65264 23.32672,-56.45249 13.90488,-14.76931 32.94054,-26.341008 48.30345,-29.363475 5.02075,-0.987772 16.41596,-1.480157 27.51347,-1.188855 18.57874,0.487679 19.16087,0.601154 30.2569,5.897958 6.22254,2.970392 15.13209,7.789065 19.79899,10.708162 4.66691,2.9191 9.21202,5.73412 10.10026,6.25559 2.45567,1.44169 -0.2059,-8.857593 -5.04966,-19.540275 -10.99824,-24.256097 -29.95511,-43.02606 -55.89691,-55.345758 -15.32371,-7.277198 -35.41992,-9.322765 -60.16945,-6.124564 -24.63501,3.1834 -54.09188,24.11646 -70.586054,50.160852 -4.657303,7.35391 -10.912964,25.974375 -15.122178,45.012365 -3.798347,17.17965 -9.431825,21.76478 -18.23413,14.84088 l -3.914637,-3.07925 0.711263,-15.00615 C 50.4993,67.850863 90.630534,20.034917 143.1852,5.9686395 c 14.848,-3.9740722 47.32338,-4.3954962 61.9371,-0.8037405 13.14667,3.2311852 27.82479,9.673544 39.06479,17.145873 9.82831,6.533847 32.17608,28.705372 41.7712,41.441791 3.07638,4.083541 6.0427,7.424621 6.59179,7.424621 0.5491,0 5.46151,-5.568466 10.9165,-12.374369 21.57594,-26.919225 41.36347,-41.940657 66.51805,-50.4962842 28.52525,-9.7020599 64.86086,-7.88890212 92.43185,4.6123742 43.11419,19.548912 74.63605,65.401716 75.18249,109.363095 0.16717,13.44958 -2.04171,18.19165 -8.47378,18.19165 -6.4433,0 -10.27862,-5.44993 -13.43567,-19.09188 C 509.19582,93.321815 503.47739,79.644056 492.28217,65.394325 478.29852,47.595376 455.80123,33.02335 434.5132,27.976 c -11.23569,-2.663959 -37.15456,-2.585745 -48.79037,0.147233 -29.32949,6.888806 -56.04608,29.007054 -69.94116,57.903193 -5.68657,11.825768 -9.06006,21.920314 -7.32554,21.920314 0.40688,0 6.6623,-3.45858 13.90095,-7.68574 7.23864,-4.227153 18.25234,-9.449292 24.47488,-11.604752 10.0348,-3.476008 13.312,-3.917057 28.99137,-3.901689 16.41243,0.01609 18.52954,0.33964 29.57986,4.520634 24.45999,9.254669 40.86564,23.891387 51.83814,46.248707 10.56268,21.52227 13.53505,40.31534 7.57481,47.89254 -3.68749,4.68788 -9.60338,4.92323 -13.68115,0.54427 -1.62973,-1.75008 -4.67327,-9.22774 -6.76344,-16.617 -5.941,-21.00294 -10.51243,-29.38597 -21.86457,-40.09502 -13.50973,-12.74439 -21.04666,-16.33759 -38.0102,-18.12119 -18.96314,-1.99384 -27.54904,-0.98729 -38.42964,4.50523 -11.54929,5.83006 -26.58974,20.26663 -32.32507,31.02722 -3.95228,7.41523 -9.80962,27.63181 -8.41099,29.03045 0.3056,0.3056 4.35895,-0.70398 9.00744,-2.2435 14.66753,-4.85766 26.19222,-6.26994 35.02836,-4.2925 21.82015,4.88314 39.51373,20.8944 45.42352,41.10463 4.81269,16.45837 1.84877,25.55271 -8.32787,25.55271 -5.75061,0 -7.50441,-2.14437 -12.79515,-15.64472 -5.19105,-13.24596 -9.25094,-18.54209 -17.76695,-23.17709 -12.8458,-6.99156 -29.70117,-5.05283 -40.01147,4.60216 -7.15199,6.6974 -9.20883,13.53166 -10.1239,33.63831 -1.211,26.60976 -0.19649,24.62297 -12.57321,24.62297 h -10.4527 z"
       style="fill:#000000;fill-opacity:1;stroke-width:1.41421354" />
    <path
       transform="matrix(0.26458333,0,0,0.26458333,0,141.42498)"
       id="path1578"
       d="m 281.79868,246.89322 c -2.19258,-25.89906 -3.52558,-33.28701 -7.10925,-39.40208 -6.60547,-11.2714 -15.84984,-16.28258 -30.03725,-16.28258 -15.49539,0 -26.39793,8.96436 -33.03246,27.16018 -1.71643,4.70745 -4.33915,10.10791 -5.82826,12.001 -3.26331,4.14863 -9.31264,4.54447 -13.80894,0.90357 -6.49467,-5.25906 -2.53507,-27.13267 7.4251,-41.01769 14.34413,-19.9965 39.23117,-27.32399 68.0992,-20.05045 6.15151,1.54992 11.52876,2.47381 11.94946,2.05311 1.37815,-1.37815 -2.34575,-15.80703 -6.16097,-23.87174 -8.46961,-17.90329 -24.85436,-32.15555 -43.46564,-37.80855 -8.1003,-2.46039 -12.32416,-2.87678 -23.65013,-2.33139 -12.42547,0.59833 -14.86714,1.19689 -24.69873,6.05477 -20.89729,10.32555 -33.16968,26.74183 -40.45311,54.1125 -1.70897,6.42221 -4.35533,13.26347 -5.8808,15.2028 -3.75794,4.77743 -9.56041,4.63275 -14.55965,-0.36306 -3.63656,-3.63406 -3.84623,-4.49187 -3.19745,-13.08148 0.72905,-9.65215 4.58409,-22.54045 10.46514,-34.98742 8.07358,-17.08734 22.51079,-31.44149 41.49321,-41.254487 14.79843,-7.650076 22.41192,-9.005 46.66905,-8.305385 17.43836,0.502949 21.50497,1.060472 27.18303,3.726713 8.86166,4.161167 26.63361,14.276559 29.74774,16.931729 3.93247,3.35291 4.58219,0.83687 1.94458,-7.530551 -9.47808,-30.067951 -35.61989,-56.662027 -67.06919,-68.229525 -8.63369,-3.175595 -11.51216,-3.485072 -32.11124,-3.452399 -18.83482,0.02987 -24.16817,0.522953 -31.81981,2.941808 -23.81677,7.529017 -51.287557,31.186163 -62.199736,53.564846 -2.377419,4.875608 -6.796268,18.442061 -9.819665,30.147681 -3.023398,11.70562 -6.609998,22.5127 -7.970221,24.01573 -3.430636,3.7908 -9.350198,3.45321 -13.307291,-0.75892 -3.114428,-3.31516 -3.240791,-4.22683 -2.499234,-18.03122 C 49.937823,84.667496 66.469172,53.592918 95.042395,30.704181 115.67315,14.177803 135.48671,5.8591056 160.74315,3.1198064 c 38.10271,-4.132598 72.06897,6.6306977 98.02491,31.0623176 10.06121,9.470357 26.57474,27.61883 31.09823,34.177169 l 2.4313,3.524998 3.22555,-3.690023 c 1.77406,-2.029514 5.43958,-6.484286 8.14559,-9.899495 8.51255,-10.74349 23.04188,-25.333282 31.77421,-31.906433 10.55992,-7.948841 30.97343,-17.8010807 43.91593,-21.1952831 14.42236,-3.7823017 48.15999,-3.4598907 63.06457,0.6026717 48.21175,13.1411344 85.636,53.8246234 93.99939,102.1856814 3.75715,21.72572 1.16029,32.49224 -7.8371,32.49224 -6.68808,0 -9.52918,-5.0231 -14.84283,-26.24232 C 506.46749,85.178131 500.48257,73.863202 483.46463,56.98804 473.00581,46.616961 467.25791,42.170504 458.55483,37.718319 439.04299,27.736769 434.3541,26.656676 410.47157,26.642261 c -18.58786,-0.01117 -22.43837,0.400927 -31.1127,3.330197 -27.02835,9.127318 -50.26524,29.373376 -62.60954,54.551072 -5.94451,12.124525 -9.51033,21.77832 -8.43972,22.84893 0.35774,0.35773 6.18205,-2.6053 12.94293,-6.58453 6.76087,-3.979227 17.50943,-9.213035 23.8857,-11.630682 10.78734,-4.090166 12.87118,-4.397557 29.97799,-4.422077 16.36116,-0.02345 19.5265,0.385386 28.75746,3.714326 31.73739,11.445364 53.03998,35.067243 61.73743,68.458993 4.59769,17.65172 1.4267,30.23421 -7.61953,30.23421 -5.99094,0 -9.34354,-4.9778 -14.28736,-21.21321 -6.2102,-20.39409 -11.44919,-29.69164 -22.36884,-39.69752 -13.52233,-12.39075 -20.86378,-15.48412 -40.91078,-17.23801 -14.19051,-1.24152 -17.78523,-1.11607 -24.5732,0.85758 -15.87222,4.61495 -36.32929,22.15688 -43.13243,36.98607 -3.70867,8.08397 -8.22145,24.60501 -7.04289,25.78357 0.43436,0.43436 6.05376,-0.73447 12.48754,-2.59741 17.47412,-5.05976 31.37035,-4.67478 43.94411,1.21741 19.26951,9.02987 33.23802,28.07543 34.6107,47.19042 0.58794,8.18735 0.29379,9.7476 -2.33299,12.37437 -3.48951,3.48952 -11.67895,4.06608 -14.22247,1.00134 -0.91494,-1.10245 -3.85208,-7.2723 -6.52697,-13.71077 -7.99086,-19.23412 -17.54152,-26.62229 -34.48929,-26.68015 -10.93351,-0.0373 -19.40067,3.56395 -25.35048,10.78211 -5.51341,6.68872 -6.94659,12.50275 -7.9671,32.32035 -1.2956,25.15975 -0.30663,23.33452 -12.64358,23.33452 h -10.459 z"
       style="fill:#000000;fill-opacity:1;stroke-width:1.41421354" />
    <path
       transform="matrix(0.26458333,0,0,0.26458333,0,141.42498)"
       id="path1580"
       d="m 281.94341,249.72165 c -0.45074,-4.47246 -1.19733,-12.58651 -1.65908,-18.03123 -1.37947,-16.26604 -4.21365,-24.16666 -11.16182,-31.11485 -6.86064,-6.86061 -13.08087,-9.17039 -24.72809,-9.18234 -15.15937,-0.0156 -24.83832,7.9735 -32.51549,26.83853 -5.13163,12.60988 -7.71272,15.57998 -13.5394,15.57998 -9.60147,0 -12.32456,-10.67793 -7.02215,-27.53568 9.6231,-30.59432 39.84244,-44.93117 76.31248,-36.20461 6.21917,1.48813 11.57158,2.44167 11.89426,2.11899 1.3754,-1.37541 -3.28314,-16.95457 -7.72449,-25.83233 -5.29912,-10.5923 -18.08894,-24.00097 -28.91237,-30.3113 -12.47881,-7.27546 -32.83388,-10.07938 -47.92111,-6.60116 -15.63083,3.60355 -32.87575,16.16917 -42.22206,30.76538 -2.64682,4.13356 -7.31687,15.22549 -10.3779,24.64874 -3.06102,9.42324 -6.6141,18.29187 -7.89573,19.70805 -3.36889,3.72258 -9.34629,3.22003 -13.71982,-1.1535 -4.65835,-4.65835 -4.94447,-12.4462 -0.98253,-26.74334 8.56514,-30.90832 24.10083,-49.92961 52.27334,-64.001424 l 13.2999,-6.64313 h 26.29808 26.29808 l 12.02082,6.541115 c 10.7119,5.828875 14.96898,8.265409 24.60429,14.082219 2.47982,1.49706 2.61307,1.2584 1.75166,-3.13755 C 274.82947,95.934869 265.1045,76.920038 257.72194,67.159354 245.82508,51.430206 224.8032,36.342906 206.12628,30.129384 c -8.33535,-2.773036 -11.47116,-3.004322 -33.94113,-2.503376 -22.70512,0.506188 -25.47022,0.852509 -33.35781,4.17797 -25.84927,10.898234 -51.456426,35.984761 -59.976733,58.757322 -1.600103,4.27666 -5.063856,16.02931 -7.697229,26.11701 -2.633375,10.08769 -5.898524,19.56843 -7.255889,21.0683 -3.425891,3.78557 -9.347144,3.44519 -13.302092,-0.76466 -3.123864,-3.3252 -3.239995,-4.18501 -2.435429,-18.03122 C 49.204952,100.96704 51.784231,91.120515 59.811023,74.472255 75.894744,41.113224 108.37385,14.6177 144.59942,5.3043125 c 15.19578,-3.9067494 48.64102,-3.6175939 63.3405,0.5476193 14.71721,4.1702362 27.68401,10.1905102 38.36476,17.8121342 9.17303,6.545737 34.68329,32.33933 41.46002,41.920501 2.1521,3.042725 4.31376,5.545813 4.80367,5.562422 0.48991,0.0166 3.65249,-3.629083 7.02795,-8.101533 9.3137,-12.34059 27.80864,-31.070345 37.55744,-38.034264 10.41688,-7.441163 29.07876,-16.3700444 40.79089,-19.5166404 4.66691,-1.2538156 15.16744,-2.6638116 23.33453,-3.1333242 37.39445,-2.14974814 69.36406,9.2112076 95.73842,34.0223026 24.71169,23.246989 38.86505,52.146367 40.93495,83.58402 0.76795,11.66358 0.57901,13.05314 -2.25939,16.61701 -3.87059,4.85989 -9.70468,5.1448 -13.90026,0.67882 -1.90792,-2.03089 -4.81295,-9.95401 -7.90749,-21.56676 -2.69039,-10.09607 -6.23508,-21.941504 -7.8771,-26.323193 C 501.93156,78.494711 491.10536,63.48747 480.05912,53.40273 457.41371,32.728454 433.75491,24.49502 402.63853,26.459813 c -26.59123,1.679062 -44.65107,10.144569 -65.17171,30.54906 -12.16723,12.098366 -14.36091,15.099057 -20.722,28.345226 -3.91281,8.147955 -7.51925,16.615431 -8.01429,18.816621 l -0.90009,4.00216 8.89415,-5.17153 c 26.60302,-15.46838 41.59948,-19.825486 64.11611,-18.628422 38.49472,2.046517 69.61372,26.729772 82.58017,65.501702 7.33207,21.9242 5.09675,37.26807 -5.42928,37.26807 -6.03373,0 -9.22985,-4.91022 -14.96716,-22.99411 -6.15938,-19.41426 -12.57952,-30.18628 -23.60495,-39.6056 -11.60362,-9.91328 -21.13935,-13.73531 -38.30762,-15.35412 -7.9645,-0.75098 -17.0265,-0.94862 -20.13777,-0.43921 -13.50893,2.21184 -31.9022,14.75105 -42.24333,28.79847 -5.49739,7.46769 -10.14228,18.9052 -12.89072,31.74193 -0.9823,4.58791 -1.30782,4.58652 13.41475,0.0571 4.58453,-1.41043 13.00413,-2.45817 20.5061,-2.55176 11.57829,-0.14446 13.59674,0.25272 22.34685,4.39724 19.31264,9.14752 33.2404,28.15705 34.6107,47.23896 0.59271,8.25378 0.30551,9.73587 -2.41355,12.45494 -2.28823,2.28823 -4.4369,2.97408 -8.30908,2.65222 -5.6084,-0.46619 -5.87898,-0.84825 -15.71584,-22.19126 -8.01841,-17.39755 -27.9898,-24.8962 -45.3429,-17.02491 -14.12566,6.40733 -16.7276,11.95225 -19.13959,40.78788 -1.01377,12.11968 -1.90078,22.19489 -1.97114,22.38935 -0.0703,0.19445 -4.83839,0.35355 -10.59564,0.35355 h -10.46775 l -0.81954,-8.13173 z"
       style="fill:#000000;fill-opacity:1;stroke-width:1.41421354" />
    <path
       transform="matrix(0.26458333,0,0,0.26458333,0,141.42498)"
       id="path1582"
       d="m 281.92718,250.48628 c -3.17142,-30.57998 -3.99183,-35.7731 -6.39348,-40.46973 -5.99479,-11.72332 -16.61066,-18.54468 -28.94683,-18.60016 -16.37389,-0.0737 -25.04492,6.44033 -33.75207,25.35568 -6.80777,14.78912 -8.72228,17.03967 -14.49527,17.03967 -8.70739,0 -11.7833,-7.92046 -8.52763,-21.95863 3.77797,-16.29029 11.46429,-27.51609 24.51218,-35.79979 13.76831,-8.74107 30.27538,-10.75807 52.28644,-6.38888 6.43634,1.27762 12.03346,1.99192 12.43805,1.58735 0.40458,-0.40458 -0.0113,-3.8359 -0.92475,-7.62515 -10.56771,-43.8502 -57.77082,-67.992415 -96.03934,-49.11971 -19.38146,9.55827 -33.91736,27.9415 -39.54235,50.00835 -2.35468,9.23742 -5.63412,17.31676 -8.18002,20.15254 -3.26041,3.63166 -9.28073,3.07723 -13.61147,-1.2535 -4.4542,-4.45419 -4.94486,-12.22022 -1.58667,-25.11318 8.27528,-31.77094 24.64885,-51.76577 54.70107,-66.799039 l 11.67051,-5.838035 24.07966,-0.233253 c 16.71495,-0.161913 25.59733,0.326034 29.0418,1.595393 5.26534,1.940386 29.51666,15.129164 35.16529,19.124224 l 3.3579,2.37489 -1.00873,-4.88549 C 274.48274,95.460911 264.77752,76.667192 257.12283,66.752978 244.5073,50.41359 222.72403,35.360397 203.38381,29.616967 194.27808,26.91286 163.19126,26.479304 150.22835,28.875628 126.55493,33.251896 94.30783,59.047314 82.539852,83.021674 c -2.720182,5.5417 -7.432563,19.464456 -10.471959,30.939456 -3.039395,11.475 -6.67641,22.13464 -8.082256,23.68808 -3.290969,3.63648 -9.226631,3.60984 -13.164755,-0.0591 -2.700508,-2.51592 -3.09383,-4.36393 -3.085185,-14.4957 C 47.779567,71.6735 89.361075,20.108446 142.28626,5.8426394 c 14.7256,-3.9692366 50.23412,-4.3722136 63.66033,-0.7224645 12.12211,3.2952448 24.01196,8.1978511 33.7994,13.9366861 7.7184,4.52566 39.7313,35.216265 49.10321,47.075001 l 4.24264,5.368423 4.86266,-6.87908 c 7.59249,-10.740904 36.69364,-38.895924 45.59855,-44.11606 13.21943,-7.74935 30.32997,-14.5230234 41.89532,-16.5854136 13.887,-2.4763961 34.77325,-2.4816908 48.35772,-0.012259 55.78552,10.1408876 100.44975,59.9143736 104.14646,116.0600476 0.76795,11.66358 0.57901,13.05314 -2.25939,16.61701 -3.86046,4.84717 -9.7048,5.14468 -13.87447,0.70628 -1.87043,-1.99099 -4.9088,-10.2645 -8.11413,-22.09489 C 504.94962,82.88281 499.93712,73.399626 482.53039,56.217402 458.67874,32.673367 431.96526,23.531626 397.60741,27.15551 c -22.36502,2.358944 -38.03879,9.597575 -56.42075,26.056837 -14.33732,12.837673 -26.793,32.653697 -32.56086,51.801733 l -1.03357,3.4313 4.77062,-3.13839 c 10.7244,-7.055106 33.8749,-17.337485 43.78992,-19.449451 13.64087,-2.905595 35.46478,-1.922047 46.92995,2.115009 20.5866,7.248847 38.49344,21.010722 49.01361,37.668222 18.00996,28.51678 21.17176,61.50193 5.89526,61.50193 -5.89932,0 -9.33233,-4.90479 -14.35278,-20.5061 -6.33154,-19.67549 -11.7346,-29.746 -20.60685,-38.40809 -14.34392,-14.00413 -26.81274,-18.71304 -50.99442,-19.25825 -13.67946,-0.30843 -14.30775,-0.18101 -24.89012,5.04791 -14.01006,6.9226 -27.20389,19.68156 -33.31399,32.21594 -4.94752,10.1495 -8.95637,24.06745 -7.412,25.73318 0.55481,0.59843 3.51019,0.21472 6.5675,-0.85268 9.83879,-3.43506 24.69356,-5.57639 32.84674,-4.73492 11.68459,1.20596 26.68623,9.10912 35.41064,18.65501 9.97094,10.90981 14.66113,21.12778 15.46121,33.6835 0.78584,12.33243 -1.50571,15.5721 -10.49242,14.83362 -5.3858,-0.44256 -5.51508,-0.59541 -12.51391,-14.7953 -8.42724,-17.098 -10.17335,-19.18861 -20.07115,-24.03115 -15.37023,-7.51995 -35.27077,-1.69957 -42.54963,12.44464 -2.80929,5.45899 -3.65754,10.22928 -5.02719,28.27166 l -1.64767,21.7046 -10.8512,0.41108 -10.85121,0.41107 z"
       style="fill:#000000;fill-opacity:1;stroke-width:1.41421354" />
    <path
       transform="matrix(0.26458333,0,0,0.26458333,0,141.42498)"
       id="path1584"
       d="m 281.90685,251.84297 c -0.41344,-3.30573 -1.45529,-12.69257 -2.31525,-20.85965 -1.84774,-17.54819 -4.51267,-24.32544 -12.33604,-31.37214 -8.561,-7.71111 -19.78384,-10.07216 -31.89302,-6.70964 -8.61383,2.39193 -15.95647,10.195 -22.4065,23.81151 -7.10135,14.9915 -8.90265,17.09869 -14.61651,17.09869 -8.13836,0 -11.54513,-7.39302 -9.1723,-19.90484 3.44334,-18.15666 14.93221,-33.46845 30.96658,-41.27067 8.82195,-4.2927 10.18491,-4.53565 25.58188,-4.55985 9.3038,-0.0146 19.74668,0.82839 24.40311,1.96997 4.47681,1.09755 8.55645,1.57876 9.06585,1.06935 1.66973,-1.66974 -6.50589,-23.65864 -11.71349,-31.50422 -19.01887,-28.65313 -56.42292,-39.42131 -85.92952,-24.73808 -19.12313,9.51616 -30.26217,23.61283 -38.41734,48.61789 -7.33326,22.48495 -8.04487,23.59054 -15.20942,23.62975 -2.48167,0.0142 -5.24942,-1.3733 -7.42462,-3.72038 -4.48044,-4.83449 -4.64976,-14.7493 -0.48298,-28.28235 9.68663,-31.46068 24.99523,-49.46879 54.57557,-64.199389 l 11.59865,-5.775972 25.87801,0.441739 c 28.37512,0.484364 25.25975,-0.285067 47.09121,11.630511 5.44472,2.971721 11.64958,6.645361 13.78858,8.163631 4.6784,3.32077 4.78735,2.29012 0.88153,-8.339197 -10.43447,-28.396409 -34.85012,-53.33424 -63.77332,-65.137255 -7.59021,-3.097425 -11.65175,-3.716359 -27.97143,-4.262545 -24.12113,-0.807285 -35.976,1.005991 -49.156,7.518716 -20.07771,9.92114 -41.825745,30.609872 -50.238982,47.791941 -3.281485,6.701666 -8.680048,23.81516 -13.817388,43.80124 -3.344806,13.01248 -10.940141,17.45556 -18.229961,10.66406 -3.153011,-2.93748 -3.25237,-3.67518 -2.523813,-18.73833 0.504081,-10.42205 1.807515,-19.000251 3.886805,-25.579966 C 65.428377,50.59437 100.44039,17.133209 143.89231,5.272422 c 13.01546,-3.5527446 50.59851,-3.5568397 63.63961,-0.00693 13.03117,3.5472047 31.07727,12.297309 40.62846,19.699728 8.58227,6.651486 33.46414,31.765514 40.68882,41.068455 l 4.24264,5.463089 4.8587,-6.877303 c 7.14605,-10.114965 29.2255,-32.421807 38.98192,-39.383374 21.17897,-15.11198 40.55854,-21.8708384 65.76093,-22.9348964 38.77266,-1.63700184 67.63378,8.8807164 94.75357,34.5305854 24.66339,23.326588 38.58103,51.866627 40.54147,83.135774 0.72916,11.63011 0.53101,13.06337 -2.29735,16.61701 -3.86045,4.85041 -9.71707,5.15 -13.82277,0.70711 -1.7705,-1.9159 -5.25101,-11.34121 -8.74735,-23.68808 -3.19376,-11.27835 -7.99202,-24.960869 -10.66281,-30.405591 -11.8492,-24.15617 -39.30516,-46.78897 -65.26368,-53.798866 -11.29048,-3.048907 -41.97368,-3.021608 -53.59296,0.04768 -27.31954,7.216592 -52.79863,28.616794 -66.45589,55.817112 -6.787,13.517247 -9.55403,21.268595 -7.59235,21.268595 0.8177,0 3.38467,-1.35145 5.70437,-3.00324 5.43995,-3.873567 19.19814,-10.555622 30.86721,-14.991513 6.44953,-2.451733 13.20117,-3.71674 22.62742,-4.239545 19.18561,-1.064084 30.28109,1.062252 46.36084,8.884591 24.72705,12.029007 43.58198,35.338217 50.43052,62.344207 4.71891,18.60812 1.61179,31.61568 -7.55204,31.61568 -5.96528,0 -9.30959,-4.89409 -14.9789,-21.92031 -6.36091,-19.10322 -10.59527,-27.06498 -18.84406,-35.43196 -14.89461,-15.10802 -24.83797,-19.15009 -49.4505,-20.10209 -17.35462,-0.67126 -17.37636,-0.66805 -26.87006,3.97087 -14.15389,6.91602 -31.06986,24.31139 -36.1679,37.19288 -2.10516,5.31923 -4.20948,12.45768 -4.67626,15.86322 l -0.8487,6.1919 9.73177,-2.94017 c 6.57399,-1.98613 14.11169,-3.00347 23.22996,-3.13529 12.93437,-0.18701 13.94794,0.0269 24.26515,5.12113 19.57481,9.66525 32.08377,27.27597 33.33614,46.93226 0.77412,12.15006 -1.55466,15.40202 -10.50313,14.66668 -5.36838,-0.44113 -5.5377,-0.63789 -12.51309,-14.5405 -8.22219,-16.38762 -13.3843,-22.13645 -22.7396,-25.32411 -13.0755,-4.45527 -26.26461,-1.69143 -34.82015,7.29673 -6.81484,7.15944 -8.10999,11.83192 -9.98142,36.00978 l -1.6146,20.85965 h -10.94385 -10.94384 z"
       style="fill:#000000;fill-opacity:1;stroke-width:1.41421354" />
    <path
       transform="matrix(0.26458333,0,0,0.26458333,0,141.42498)"
       id="path1586"
       d="m 282.4285,257.49982 c -0.0312,-0.19445 -0.96705,-8.80849 -2.07966,-19.14229 -2.66087,-24.7141 -4.14449,-29.28362 -12.10272,-37.27618 -5.21702,-5.2395 -8.12105,-6.92143 -14.36235,-8.31816 -18.46401,-4.13206 -29.01131,1.9039 -39.98789,22.88411 -8.85619,16.92737 -9.91249,18.16444 -15.51033,18.16444 -9.0105,0 -12.26009,-8.50591 -8.64322,-22.62396 4.63275,-18.08337 15.85162,-32.01843 31.62333,-39.27963 10.6683,-4.91161 28.82583,-5.91959 45.55862,-2.52909 6.4013,1.29706 11.84904,2.14796 12.10612,1.8909 1.19504,-1.19505 -2.84472,-14.12566 -7.33373,-23.47409 -14.72118,-30.65705 -51.01771,-46.48593 -82.54953,-35.99977 -3.50017,1.16401 -10.69232,4.98127 -15.98255,8.4828 -14.55874,9.63623 -24.2788,24.07824 -30.74872,45.68626 -3.47242,11.5971 -6.55182,18.49274 -8.97394,20.09522 -3.43828,2.27478 -9.53976,1.02179 -12.95167,-2.65972 -4.97211,-5.365 -4.72261,-16.05741 0.75265,-32.25537 9.97178,-29.50045 25.18129,-46.51937 54.94969,-61.486868 l 8.96577,-4.507971 26.57068,0.437988 26.5707,0.437987 13.25391,6.919637 c 7.28965,3.8058 15.46993,8.419667 18.17839,10.253047 2.70847,1.83338 5.36186,3.33341 5.89642,3.33341 1.59635,0 -1.65661,-10.01821 -6.19924,-19.09188 -15.4977,-30.955929 -44.72357,-54.334682 -73.58202,-58.860724 -14.74168,-2.312025 -43.36456,-0.773693 -53.88905,2.896259 -21.6495,7.549315 -48.934848,31.010235 -58.508375,50.307611 -3.279871,6.611243 -8.821553,23.426794 -13.169436,39.961024 -1.688802,6.42222 -4.318661,13.26348 -5.84413,15.2028 -3.49829,4.44735 -9.900798,4.67882 -14.070924,0.50869 -2.822082,-2.82208 -2.968153,-4.03473 -2.257147,-18.73833 C 49.316213,93.735185 57.808623,71.910104 74.489652,50.918788 101.79969,16.551986 140.0586,-0.23632214 184.99627,2.4276227 c 19.17551,1.1367413 28.37016,3.5715539 46.1658,12.2250473 12.9937,6.318449 16.19552,8.719734 32.01186,24.007997 9.66575,9.343035 20.26597,20.476508 23.55604,24.741049 l 5.98194,7.75371 4.98496,-6.706635 c 6.95751,-9.360447 27.74369,-30.453741 37.46525,-38.018774 9.99784,-7.780025 26.57361,-16.15311 40.66121,-20.5395928 9.25293,-2.8811048 13.49443,-3.3025978 33.23402,-3.3025978 23.97829,0 31.08968,1.1287417 47.37616,7.5197036 16.93544,6.645622 28.28232,14.398757 43.84263,29.956956 20.57194,20.569155 31.09031,39.825546 36.18149,66.238884 4.25766,22.08895 1.51565,34.17028 -7.75536,34.17028 -6.58962,0 -9.47579,-4.93613 -15.71531,-26.87747 C 504.36286,83.269428 499.76495,74.788674 482.6596,57.657923 470.33453,45.314557 466.67606,42.564057 455.01929,36.877476 c -17.17595,-8.379033 -26.11359,-10.037542 -49.76167,-9.234 -14.65727,0.498044 -20.86384,1.345592 -28.02007,3.826328 -17.57796,6.093464 -34.91378,18.834719 -48.25353,35.464739 -7.24103,9.02704 -19.62872,32.631502 -19.62872,37.402077 0,2.16797 0.53236,2.09757 4.99508,-0.66054 7.16868,-4.430489 21.12014,-11.0853 31.77447,-15.156337 6.88605,-2.631172 12.91802,-3.691003 24.04163,-4.224171 19.20875,-0.920699 28.61834,0.950041 45.20715,8.987733 18.20944,8.822935 33.37562,23.780915 42.1116,41.533485 11.35845,23.08179 13.76518,45.69412 5.45408,51.24359 -3.08107,2.05729 -8.89872,1.01993 -11.77525,-2.09967 -1.61373,-1.75008 -5.60245,-10.81873 -8.86382,-20.15254 -6.91859,-19.80049 -11.35445,-27.35044 -21.96559,-37.38602 -13.25512,-12.53614 -30.06995,-17.84779 -53.3499,-16.85278 -9.51026,0.40648 -13.23479,1.28313 -20.1441,4.74133 -12.09562,6.05401 -27.80727,21.86493 -33.14582,33.35524 -4.81324,10.35965 -8.18099,21.96456 -6.78054,23.36502 0.52234,0.52235 4.94455,-0.20511 9.82709,-1.61658 5.75439,-1.66351 13.85245,-2.60351 23.01951,-2.67204 13.38817,-0.10013 14.6255,0.14651 23.2087,4.62576 20.07376,10.47578 32.49782,27.89023 33.73365,47.28349 0.79051,12.40522 -1.48637,15.63995 -10.48814,14.90023 -5.35346,-0.4399 -5.56076,-0.67732 -12.73909,-14.58932 -8.66425,-16.79179 -15.49793,-23.65868 -26.06766,-26.1943 -16.63929,-3.99171 -33.83211,4.83215 -38.03505,19.5207 -0.8277,2.89266 -2.22723,14.32803 -3.11008,25.41193 l -1.60519,20.15254 h -11.08639 c -6.09752,0 -11.11193,-0.1591 -11.14314,-0.35355 z"
       style="fill:#000000;fill-opacity:1;stroke-width:1.41421354" />
    <path
       transform="matrix(0.26458333,0,0,0.26458333,0,141.42498)"
       id="path1588"
       d="m 281.97658,253.96429 c -0.40338,-2.139 -1.12497,-8.34386 -1.60353,-13.78859 -2.29833,-26.14896 -6.3024,-36.21772 -17.13462,-43.08732 -12.73382,-8.07556 -28.76523,-6.85573 -38.55457,2.93361 -3.04816,3.04816 -8.24067,10.78413 -11.53891,17.19106 -7.59108,14.74586 -9.24373,16.59869 -14.80542,16.59869 -8.96176,0 -12.206,-8.53741 -8.5972,-22.62396 4.63165,-18.07908 15.84246,-32.00687 31.62333,-39.28735 10.19661,-4.70418 29.46951,-5.82642 45.56323,-2.65308 5.83363,1.15026 11.0623,1.65958 11.61928,1.1318 1.6533,-1.56661 -6.4884,-23.15512 -11.45479,-30.37353 -25.07696,-36.44813 -71.70646,-41.909973 -102.81036,-12.04247 -10.13409,9.73126 -16.97323,21.72321 -21.95333,38.49362 -3.26195,10.98459 -6.43339,17.9798 -8.88776,19.60361 -3.2824,2.17164 -9.54288,1.01661 -12.94843,-2.38894 -4.79743,-4.79744 -4.7411,-16.31925 0.1531,-31.3122 9.80219,-30.02822 25.06812,-47.30663 55.42703,-62.733919 l 8.47366,-4.306002 h 26.28071 26.2807 l 15.05365,7.788448 c 8.2795,4.283647 16.73913,9.120143 18.79918,10.747773 l 3.74553,2.95933 0.45677,-3.00663 c 0.63061,-4.150965 -9.5418,-24.669814 -17.43764,-35.173603 -10.986,-14.614624 -28.63758,-28.303824 -45.79356,-35.513963 -18.76671,-7.887083 -57.91516,-7.298623 -75.95165,1.141668 -12.08879,5.657027 -24.65061,14.633077 -35.14669,25.114077 -15.095627,15.073931 -20.254453,25.257728 -29.107977,57.460701 -5.182741,18.85121 -8.058338,23.63653 -14.203673,23.63653 -7.435071,0 -9.796851,-4.10556 -9.796851,-17.03018 0,-30.90335 12.89387,-59.995314 37.296155,-84.149944 C 112.5554,12.039502 144.66299,0.17979502 184.9045,2.3995163 c 23.61031,1.3023446 39.71546,6.4734654 57.98276,18.6173947 8.60461,5.720264 39.47878,35.777673 46.43904,45.210525 l 3.13055,4.242641 4.50906,-5.656854 C 307.88498,51.114681 335.8342,24.776239 345.41774,19.153751 367.25208,6.3439584 383.99558,1.918148 410.47157,1.9580721 c 35.03663,0.052834 62.04333,10.9300859 87.49904,35.2412249 13.54236,12.933439 21.79641,24.244218 29.08502,39.856037 7.16088,15.338271 9.83647,25.713426 10.88405,42.205106 0.78758,12.39879 0.61441,13.735 -2.24526,17.32412 -3.86282,4.84817 -9.71229,5.14672 -13.85431,0.70711 -1.68066,-1.80142 -5.12941,-10.54501 -7.94882,-20.15255 C 503.66462,82.290155 499.74841,74.870244 482.54167,57.742155 468.4777,43.742463 459.15991,37.56331 443.47167,31.832651 c -9.63727,-3.520344 -11.97696,-3.78859 -33.0001,-3.783478 -18.37249,0.0045 -24.09006,0.502597 -30.4056,2.649007 -29.30548,9.959811 -55.16982,34.703463 -67.1856,64.274476 -4.59174,11.300334 -4.45147,12.451674 1.07112,8.791094 5.89313,-3.906172 23.57029,-12.262507 33.58757,-15.87749 9.65333,-3.483639 33.99569,-4.939643 45.96194,-2.749149 4.66691,0.854304 14.53105,4.515835 21.92031,8.136735 24.31108,11.912954 43.2883,35.370314 50.15261,61.992614 3.66398,14.21026 2.54079,27.33821 -2.63461,30.79392 -3.08297,2.05855 -8.90072,1.01896 -11.84672,-2.11692 -1.65305,-1.75958 -5.32077,-9.87363 -8.1505,-18.03122 -7.12031,-20.52658 -12.47113,-29.95058 -22.03062,-38.80099 -14.299,-13.23836 -31.82387,-18.7997 -55.01157,-17.45739 -8.68745,0.50291 -12.34479,1.51186 -19.8109,5.46523 -12.4449,6.58968 -26.70165,20.99816 -32.20494,32.5477 -4.68399,9.83009 -8.25155,22.08238 -6.84066,23.49327 0.48377,0.48377 4.86113,-0.33422 9.72747,-1.81777 6.19343,-1.88813 13.12429,-2.69861 23.10217,-2.70152 13.06434,-0.004 14.94366,0.34999 22.51278,4.23847 20.14572,10.34945 33.07735,28.37757 34.32741,47.85622 0.78574,12.24354 -1,15.07628 -9.50403,15.07628 -6.36703,0 -6.88551,-0.54081 -13.62165,-14.20826 -10.29402,-20.88632 -18.42036,-27.31366 -34.53377,-27.31366 -10.93133,0 -19.14118,3.63875 -24.72387,10.95802 -5.04487,6.61417 -6.00774,10.75583 -7.95725,34.22713 l -1.6926,20.3784 h -10.98504 c -10.86309,0 -10.99319,-0.0431 -11.71844,-3.88908 z"
       style="fill:#000000;fill-opacity:1;stroke-width:1.41421354" />
    <path
       transform="matrix(0.26458333,0,0,0.26458333,0,141.42498)"
       id="path1590"
       d="m 281.89325,254.67139 c -0.35524,-1.75009 -1.34652,-9.99045 -2.20286,-18.31194 -2.13999,-20.7954 -4.47647,-27.87104 -11.53381,-34.92839 -9.66859,-9.6686 -25.12714,-12.34904 -36.79464,-6.38004 -5.49719,2.81231 -12.99676,12.17724 -18.96907,23.68719 -6.83402,13.17062 -8.60813,15.07353 -14.05334,15.07353 -9.0809,0 -12.5414,-9.5508 -8.51506,-23.50112 5.17677,-17.93627 16.0646,-31.21576 31.54119,-38.46963 7.2348,-3.39096 9.72514,-3.79018 23.64292,-3.79018 8.55599,0 19.62903,0.55084 24.60674,1.22407 l 9.0504,1.22408 -0.8048,-4.95941 c -2.49783,-15.3923 -17.34125,-36.81706 -31.95884,-46.12893 -21.50445,-13.69899 -49.61374,-13.61175 -71.13997,0.2208 -15.13099,9.72303 -23.46577,21.53788 -31.42185,44.54162 -5.43287,15.70828 -7.50248,20.27798 -9.91271,21.88734 -3.25592,2.17403 -9.52989,1.01523 -12.93405,-2.38894 -10.1359,-10.1359 2.89495,-50.82793 22.6917,-70.86041 9.67873,-9.79398 17.49412,-15.408998 31.32989,-22.509177 l 9.68231,-4.968724 26.5479,-0.0069 26.54788,-0.0069 11.63588,5.8453 c 6.39973,3.214916 15.06636,8.037175 19.25917,10.716131 l 7.62331,4.87083 -0.92975,-4.64871 C 271.9152,87.269885 254.73578,62.287474 238.75148,49.561956 215.65081,31.170921 193.6983,25.166631 161.8431,28.526548 137.88252,31.053783 123.90287,37.921012 103.75136,57.062979 87.137262,72.844742 80.579625,84.69999 73.258617,112.18938 c -6.195908,23.2648 -9.009179,28.28427 -15.852519,28.28427 -7.492856,0 -9.681571,-4.08103 -9.670401,-18.03122 C 47.759734,92.422756 60.52839,63.645081 84.334483,39.957007 112.81795,11.614751 143.36481,0.1910459 184.9045,2.3465215 c 25.0551,1.3000974 41.76954,6.8549378 59.95341,19.9247935 8.27558,5.948161 37.83361,35.106063 44.55757,43.954403 l 3.22272,4.240923 4.34174,-5.655136 c 9.22703,-12.01827 40.00746,-41.042333 49.14491,-46.340653 20.52539,-11.9015824 38.23188,-16.5648086 62.9325,-16.5740666 36.81457,-0.013798 63.20019,10.5707726 89.60336,35.9443246 24.201,23.257247 37.54551,50.877603 39.33701,81.41933 0.72405,12.34384 0.53668,13.75091 -2.30695,17.32412 -3.859,4.84909 -9.71112,5.14805 -13.84129,0.70711 -1.72049,-1.84994 -5.41936,-11.47026 -8.83586,-22.98097 -3.23212,-10.88945 -8.01677,-24.253765 -10.63257,-29.698487 -11.37475,-23.67626 -39.16838,-47.262916 -64.33232,-54.594668 -3.98474,-1.160996 -14.29467,-1.858882 -27.57716,-1.866721 -17.81505,-0.01046 -22.79901,0.479505 -31.1127,3.058976 -18.57242,5.76243 -39.8083,21.644614 -52.24594,39.074401 -7.2007,10.090869 -18.63494,33.013999 -17.18892,34.460009 0.52791,0.52791 2.6842,-0.16549 4.79175,-1.54088 5.37011,-3.504552 23.55284,-12.014317 32.8233,-15.361756 11.41578,-4.122082 38.94563,-5.14425 50.28302,-1.86698 31.8689,9.212279 57.13729,34.238426 66.95717,66.315286 4.55003,14.86277 3.72222,30.05654 -1.83994,33.7705 -3.07748,2.05488 -8.89845,1.02136 -11.83149,-2.10071 -1.64466,-1.75066 -4.99703,-8.91011 -7.4497,-15.9099 -10.29411,-29.37878 -20.08709,-42.56119 -38.1363,-51.33558 -18.14708,-8.82197 -42.78276,-9.64626 -58.34894,-1.95231 -9.38266,4.63759 -22.45439,16.42216 -29.3778,26.48499 -4.31574,6.27273 -12.37237,28.2925 -10.89299,29.7719 0.4561,0.45608 4.53572,-0.29529 9.06586,-1.66972 5.58679,-1.69502 13.24124,-2.53331 23.79294,-2.60572 14.72855,-0.10098 15.96633,0.11908 23.26083,4.13591 19.99115,11.00855 32.46374,28.72491 33.69151,47.85622 0.78451,12.22418 -1.00474,15.07628 -9.45802,15.07628 -6.31081,0 -8.05751,-1.74367 -13.4583,-13.43503 -9.86877,-21.36339 -19.13573,-28.24596 -36.82849,-27.35251 -8.85433,0.44712 -11.38337,1.17763 -16.43789,4.74808 -10.00605,7.06812 -12.31868,14.44028 -14.7438,46.99962 l -0.97434,13.08147 h -11.13663 c -10.41492,0 -11.17849,-0.2062 -11.78251,-3.18198 z"
       style="fill:#000000;fill-opacity:1;stroke-width:1.41421354" />
    <path
       transform="matrix(0.26458333,0,0,0.26458333,0,141.42498)"
       id="path1592"
       d="m 281.871,254.67139 c -0.36745,-1.75009 -1.37173,-9.71601 -2.23172,-17.70203 -0.85999,-7.98604 -2.50796,-17.70005 -3.66217,-21.5867 -4.91478,-16.54986 -20.81417,-25.87903 -38.0396,-22.32024 -5.65426,1.16819 -8.35189,2.80951 -13.46344,8.19161 -3.5158,3.70189 -8.23711,10.4735 -10.49179,15.04802 -6.78816,13.77241 -10.12041,17.50969 -15.61207,17.50969 -5.92246,0 -10.63728,-5.35673 -10.63728,-12.08553 0,-6.25304 4.51902,-20.37262 8.92843,-27.89672 4.97377,-8.4871 15.21206,-17.55411 24.765,-21.93185 9.9126,-4.54256 26.43711,-5.74182 43.70912,-3.17216 6.51653,0.9695 12.25207,1.35889 12.74565,0.86531 1.73635,-1.73636 -5.4745,-20.57778 -11.09868,-29.00006 -14.48903,-21.69748 -36.01012,-32.46078 -61.7003,-30.85802 -10.12106,0.63143 -13.63074,1.56963 -22.78815,6.09171 -19.82803,9.79142 -31.49736,25.02401 -40.40393,52.74139 -5.10049,15.87281 -7.00355,18.57689 -13.07393,18.57689 -3.26523,0 -5.9863,-1.13493 -8.32264,-3.47126 -9.70542,-9.70542 1.71053,-47.79124 20.71705,-69.11608 7.27601,-8.1635 25.52444,-21.252292 36.695,-26.319693 5.58555,-2.533824 9.2737,-2.857716 32.8547,-2.885289 l 26.56284,-0.03106 12.76228,6.351543 c 7.01925,3.493348 15.58975,8.296891 19.04554,10.674539 5.70834,3.92744 6.28326,4.0697 6.28326,1.55466 0,-1.52259 -3.19551,-9.151501 -7.10116,-16.953142 -11.73362,-23.4383 -35.34849,-45.639303 -57.27012,-53.841234 -17.83428,-6.672658 -52.11298,-6.759651 -70.83395,-0.179762 -12.00073,4.217919 -25.30441,13.453969 -38.76843,26.914914 -16.587679,16.583888 -18.880989,21.289299 -31.934081,65.522314 -3.28856,11.14395 -6.59891,15.1105 -12.610704,15.1105 -7.209864,0 -9.169936,-3.8586 -9.169936,-18.05196 0,-31.275153 13.935416,-61.606494 39.103006,-85.110249 C 115.79941,10.256083 142.82369,0.55355133 184.1974,2.3531777 c 26.35363,1.1463 44.80614,7.4512126 62.9325,21.5029643 8.28101,6.419538 38.90971,37.157805 42.92483,43.078401 l 2.39767,3.535534 3.77597,-4.949747 c 6.31261,-8.274934 31.72816,-33.849789 39.99698,-40.24768 11.01908,-8.525856 21.58423,-14.159516 34.64824,-18.4754905 9.39831,-3.1049313 14.78536,-3.8654333 31.8198,-4.4920651 24.79578,-0.912142 39.96892,1.3380965 56.12684,8.3238406 38.35722,16.583431 70.19267,54.911322 77.46871,93.267535 3.15418,16.62745 2.88538,28.21389 -0.76212,32.85092 -3.69336,4.69536 -9.63201,4.93336 -13.58083,0.54428 -1.57456,-1.75009 -6.4586,-14.32444 -10.85344,-27.94299 C 501.59251,79.910332 497.14143,72.349017 479.34293,55.413631 466.64725,43.333614 455.68943,36.432092 441.39865,31.515343 434.7182,29.21693 429.50393,28.750777 410.47493,28.750777 c -15.0444,0 -25.02519,0.647597 -29.12353,1.889661 -17.14444,5.19588 -36.60234,18.548457 -49.68974,34.09856 -7.72445,9.177984 -23.63603,38.106832 -21.90939,39.833472 0.44202,0.44203 4.82921,-1.43241 9.7493,-4.16542 4.92008,-2.733018 14.67317,-7.386394 21.67353,-10.340841 l 12.72792,-5.371719 21.92031,-0.04114 c 21.00984,-0.03943 22.29529,0.12445 30.9482,3.945459 29.37805,12.972951 49.11538,34.644061 58.00772,63.691071 3.50264,11.44143 3.85526,24.79216 0.81033,30.6804 -1.75407,3.392 -3.06636,4.17242 -7.01597,4.17242 -6.71378,0 -9.46596,-3.47641 -14.91035,-18.83401 -15.18177,-42.82475 -34.05458,-58.03908 -72.08257,-58.10943 -13.4725,-0.0249 -15.62235,0.34689 -23.18787,4.01033 -10.22517,4.95133 -27.2837,20.84383 -32.29054,30.08335 -4.44903,8.21018 -9.94233,24.14138 -8.90373,25.82186 0.41251,0.66747 4.08941,0.30585 8.1709,-0.80358 4.08148,-1.10943 13.50608,-2.41302 20.94356,-2.89686 15.78099,-1.02665 20.94709,0.2511 32.44114,8.02383 17.05311,11.53201 26.72907,26.69548 27.95336,43.80647 0.90678,12.67326 -0.70937,15.56708 -8.69394,15.56708 -7.30638,0 -8.73504,-1.40362 -15.04072,-14.77707 -6.14551,-13.03378 -15.06541,-22.51188 -23.37581,-24.83864 -9.51432,-2.66384 -22.22693,-1.0906 -28.97497,3.58579 -9.45229,6.55046 -12.26255,15.69661 -14.87272,48.40429 l -0.93108,11.66726 H 293.6787 c -10.41139,0 -11.18325,-0.208 -11.8077,-3.18198 z"
       style="fill:#000000;fill-opacity:1;stroke-width:1.41421354" />
    <path
       transform="matrix(0.26458333,0,0,0.26458333,0,141.42498)"
       id="path1594"
       d="m 281.84896,254.67139 c -0.37959,-1.75009 -1.36755,-9.13638 -2.19547,-16.414 -2.27645,-20.01043 -4.06956,-26.62412 -8.98607,-33.14427 -6.10185,-8.0921 -14.80673,-12.31357 -25.39121,-12.31357 -4.81448,0 -10.40372,0.9862 -13.25358,2.33854 -5.32285,2.52587 -13.78706,12.91384 -18.83619,23.1173 -5.74038,11.60042 -9.50811,15.55635 -14.81623,15.55635 -3.47423,0 -5.57366,-1.01515 -7.70621,-3.72625 -3.40708,-4.3314 -3.66455,-9.65638 -0.95834,-19.82013 4.5249,-16.9943 15.15597,-30.12513 30.52233,-37.69927 8.82781,-4.35127 9.8038,-4.51501 26.87006,-4.50801 9.74024,0.004 20.8293,0.56809 24.64239,1.25353 l 6.93286,1.24626 -0.91624,-4.78906 c -0.50393,-2.63399 -3.5108,-10.0703 -6.68192,-16.52516 -21.38728,-43.534 -73.97132,-53.363018 -107.34716,-20.06534 -9.06706,9.04582 -14.82331,19.36273 -21.29414,38.1654 -2.54298,7.38926 -5.55571,14.86692 -6.69496,16.617 -2.91651,4.48029 -10.62203,4.33409 -15.24538,-0.28927 -7.14515,-7.14515 -3.55831,-28.45514 8.72347,-51.82739 6.70367,-12.75711 15.94697,-22.9109 29.118,-31.986175 20.91919,-14.414031 21.36326,-14.538556 51.84654,-14.538556 26.49824,0 26.88297,0.04384 35.90575,4.092095 5.01627,2.250653 13.3788,6.781447 18.58337,10.068433 5.20458,3.286983 9.79954,5.639653 10.21105,5.228143 1.10912,-1.10912 -5.54871,-16.888144 -10.98683,-26.038726 -6.46003,-10.870122 -26.84194,-31.327163 -37.64273,-37.781498 -15.80179,-9.442816 -22.54846,-11.164359 -46.29736,-11.81365 -24.1432,-0.660072 -34.83368,1.116626 -48.6331,8.08255 -11.26035,5.684208 -28.48206,19.765931 -37.071403,30.312287 -9.359035,11.491409 -14.039867,21.648439 -20.915998,45.386037 -6.62742,22.87901 -8.896294,26.72837 -16.117809,27.34539 -4.161146,0.35554 -5.511066,-0.2277 -7.479206,-3.23146 -2.034531,-3.10509 -2.280748,-6.0895 -1.61089,-19.52573 0.434893,-8.72323 1.821476,-19.650593 3.081297,-24.283032 C 61.824691,54.120629 102.53403,14.727738 141.92153,5.379761 154.84887,2.3116687 182.83251,1.124928 196.92532,3.0471397 226.05397,7.0201904 238.8928,14.5198 270.04975,45.761696 l 23.62695,23.691366 2.4358,-3.734133 c 4.41209,-6.76384 33.56772,-35.676602 42.94128,-42.583578 11.4243,-8.418079 20.37882,-12.958559 33.97679,-17.2282844 9.53647,-2.9944197 13.13125,-3.3135984 36.73389,-3.2615877 27.37808,0.06033 31.08941,0.6295625 48.08326,7.3748841 28.78386,11.425097 59.23182,41.946662 72.1652,72.339647 8.42703,19.80322 11.20033,47.15826 5.5139,54.38738 -3.68879,4.68955 -9.60971,4.92548 -13.65881,0.54428 -1.61769,-1.75036 -5.882,-12.51675 -9.47803,-23.92983 C 502.75238,82.774135 498.18142,74.517783 481.9887,58.449262 467.34538,43.91825 456.89174,36.93506 442.37314,31.985478 c -8.0122,-2.731461 -12.2701,-3.166649 -31.29134,-3.19819 -16.22295,-0.0269 -24.03866,0.563599 -29.69849,2.243817 -26.6517,7.912021 -49.9557,28.644909 -64.92524,57.762077 -7.91793,15.401128 -7.40502,17.523848 2.79672,11.574528 4.278,-2.494786 13.50574,-6.99811 20.5061,-10.007383 12.28458,-5.280827 13.40356,-5.49385 32.12499,-6.115752 16.79957,-0.558058 20.68186,-0.251248 28.99138,2.291148 14.06543,4.303483 26.49608,12.161795 39.45497,24.942317 9.65655,9.52364 12.49092,13.44787 17.87842,24.75297 7.32793,15.37687 9.53657,23.39881 9.53657,34.63759 0,11.0728 -2.91726,16.2741 -9.12769,16.2741 -7.68768,0 -9.88724,-3.25724 -18.38788,-27.22989 -7.06715,-19.93008 -19.44584,-35.45999 -33.90995,-42.54238 -10.45656,-5.12007 -19.10768,-6.82944 -35.06411,-6.92829 -12.78808,-0.0792 -14.42514,0.24313 -23.21778,4.57174 -18.39435,9.0555 -33.02472,26.88375 -39.1716,47.73363 -2.59355,8.79723 -2.65377,8.77279 12.7737,5.18291 6.11126,-1.42205 14.02895,-2.06574 21.65451,-1.76044 14.8442,0.59428 21.49729,3.57811 34.45743,15.45373 11.91479,10.91773 17.94346,22.50196 18.93698,36.38787 0.9248,12.92526 -0.65406,15.80016 -8.67726,15.80016 -7.29907,0 -8.64062,-1.30554 -15.5523,-15.13488 -9.03654,-18.08088 -18.58145,-25.78953 -31.99327,-25.83836 -15.74972,-0.0573 -26.43528,7.32087 -30.14631,20.81561 -1.79013,6.50954 -5.1816,34.16126 -5.2042,42.4315 -0.003,1.26614 -3.20757,1.76776 -11.2916,1.76776 -10.55749,0 -11.33136,-0.2056 -11.97693,-3.18198 z"
       style="fill:#000000;fill-opacity:1;stroke-width:1.41421354" />
    <path
       transform="matrix(0.26458333,0,0,0.26458333,0,141.42498)"
       id="path1596"
       d="m 254.20097,408.19959 c -8.72684,-1.45496 -30.31152,-8.28717 -44.54773,-14.10073 -44.37751,-18.12218 -74.50849,-43.82668 -98.82503,-84.30687 -3.63223,-6.04664 -8.81565,-13.89124 -11.518715,-17.43244 -5.919916,-7.75551 -6.152762,-11.60456 -1.067602,-17.64793 l 3.847057,-4.57197 179.64715,0.96166 c 98.80594,0.52891 185.26522,1.35973 192.13173,1.84627 7.87125,0.55772 13.22774,1.62775 14.49569,2.89571 3.4191,3.4191 2.46005,11.09423 -2.03122,16.25555 -2.22328,2.55497 -8.68317,12.41481 -14.35531,21.91074 -15.21113,25.46549 -32.09165,43.3355 -55.90087,59.1776 -23.75741,15.80764 -61.75595,31.27813 -84.64448,34.46163 -10.26473,1.4277 -69.4397,1.84971 -77.23067,0.55078 z"
       style="fill:#000000;fill-opacity:1;stroke-width:1.41421354" />
    <path
       transform="matrix(0.26458333,0,0,0.26458333,0,141.42498)"
       id="path1598"
       d="m 237.93751,404.3432 c -32.4234,-10.14824 -56.2718,-21.69433 -76.54433,-37.05858 -15.65299,-11.86318 -32.39843,-29.58063 -42.61111,-45.08453 -5.12362,-7.77817 -12.70677,-19.25134 -16.85145,-25.49591 -4.144681,-6.24458 -7.535784,-12.71881 -7.535784,-14.38719 0,-1.66837 1.735451,-5.09587 3.856557,-7.61666 l 3.856557,-4.58326 183.17319,1.003 c 100.74525,0.55164 187.51547,1.48944 192.8227,2.084 5.86432,0.65696 10.15514,1.88013 10.93849,3.1182 2.60003,4.10926 1.39474,10.76211 -2.93738,16.21337 -2.34833,2.95498 -8.80655,12.84957 -14.35159,21.98796 -11.17365,18.41448 -21.83027,31.47609 -35.34578,43.32259 -19.97646,17.5096 -49.82219,33.72143 -81.79745,44.43136 l -17.67767,5.92104 -41.7193,0.5068 -41.7193,0.5068 z"
       style="fill:#000000;fill-opacity:1;stroke-width:1.41421354" />
    <path
       transform="matrix(0.26458333,0,0,0.26458333,0,141.42498)"
       id="path1600"
       d="m 247.1299,407.56355 c -14.97472,-4.31883 -39.41041,-13.70315 -53.23369,-20.44394 -31.71027,-15.46321 -57.52533,-38.03656 -76.45365,-66.853 -5.94339,-9.04821 -13.56198,-20.58787 -16.93021,-25.64368 -3.368223,-5.05582 -6.122574,-10.57546 -6.120778,-12.26587 0.0018,-1.69041 1.736566,-5.13338 3.855047,-7.65105 l 3.851781,-4.57759 184.59217,1.00969 c 101.5257,0.55533 188.29861,1.49145 192.82867,2.08026 4.60697,0.59881 8.80398,1.96743 9.52429,3.10583 2.71962,4.29819 1.35903,10.83147 -3.69991,17.76622 -2.76706,3.79306 -9.29012,13.71343 -14.49568,22.04528 -16.18114,25.89893 -30.84289,41.19511 -55.18963,57.57776 -17.97624,12.096 -58.14624,29.60992 -77.62562,33.84438 -8.21498,1.78578 -84.71406,1.79058 -90.90279,0.006 z"
       style="fill:#000000;fill-opacity:1;stroke-width:1.41421354" />
    <path
       transform="matrix(0.26458333,0,0,0.26458333,0,141.42498)"
       id="path1602"
       d="m 248.55529,408.1313 c -7.45463,-1.39124 -39.60206,-13.70938 -54.4584,-20.86719 -19.65905,-9.47176 -37.29302,-22.0151 -53.31338,-37.9227 -9.57181,-9.50444 -16.55544,-18.55129 -29.46682,-38.17243 -9.30702,-14.14368 -16.921854,-26.91855 -16.921854,-28.38861 0,-1.47006 1.324697,-4.81624 2.94377,-7.43596 l 2.943774,-4.76311 131.05296,0.11871 c 164.48114,0.149 251.47383,1.46981 255.85731,3.88469 4.71078,2.59518 4.33974,10.94031 -0.80288,18.05827 -2.19166,3.03352 -8.82793,13.15224 -14.74723,22.48605 -13.60233,21.4487 -24.79043,34.71196 -38.81005,46.0085 -19.04384,15.34488 -37.64519,25.88096 -64.55502,36.5649 -27.42974,10.89037 -31.54289,11.49703 -76.47251,11.27921 -21.84892,-0.10592 -41.31128,-0.48857 -43.24967,-0.85033 z"
       style="fill:#000000;fill-opacity:1;stroke-width:1.41421354" />
    <path
       transform="matrix(0.26458333,0,0,0.26458333,0,141.42498)"
       id="path1604"
       d="m 242.10743,406.48136 c -11.61627,-3.50638 -39.86328,-14.75507 -50.57641,-20.14083 -21.55851,-10.83801 -44.73948,-28.75817 -59.16623,-45.73875 -10.21484,-12.02309 -37.969954,-54.37458 -37.969954,-57.93831 0,-1.40577 1.324697,-4.69934 2.94377,-7.31906 l 2.943774,-4.76311 139.53824,0.11593 c 164.71532,0.13685 242.72792,1.3678 247.37203,3.90324 5.58878,3.05118 4.2998,10.34292 -4.14985,23.47602 -25.63288,39.84048 -35.14044,51.51771 -53.49553,65.70345 -21.08563,16.29604 -48.49147,30.44417 -79.17978,40.87614 -10.35846,3.52119 -11.64875,3.61493 -55.15433,4.00702 -39.80359,0.35874 -45.45912,0.12639 -53.10573,-2.18174 z"
       style="fill:#000000;fill-opacity:1;stroke-width:1.41421354" />
    <path
       transform="matrix(0.26458333,0,0,0.26458333,0,141.42498)"
       id="path1606"
       d="M 240.05883,405.84344 C 184.13281,388.51735 145.41269,361.93187 118.23742,322.20009 106.36348,304.83971 94.395284,284.87573 94.400123,282.43741 c 0.0029,-1.46505 1.266346,-4.73201 2.80764,-7.25992 l 2.802357,-4.59619 146.74544,0.10217 c 164.47214,0.11451 235.5045,1.27796 240.43709,3.93813 5.68012,3.06332 4.27835,10.43944 -4.60735,24.24397 -27.10261,42.10571 -40.79735,57.7441 -64.24498,73.36314 -17.86654,11.90133 -44.98801,24.99737 -66.55862,32.1389 l -12.02081,3.97981 -44.54773,0.39099 c -43.20032,0.37917 -44.86854,0.2916 -55.15433,-2.89497 z"
       style="fill:#000000;fill-opacity:1;stroke-width:1.41421354" />
    <path
       transform="matrix(0.26458333,0,0,0.26458333,0,141.42498)"
       id="path1608"
       d="m 247.83701,408.26473 c -13.41211,-3.24664 -38.74449,-13.135 -56.55731,-22.07685 -24.18912,-12.14268 -47.37702,-30.70915 -62.94378,-50.39884 -11.88378,-15.03126 -33.880168,-49.53349 -33.908543,-53.18693 -0.01208,-1.55563 1.239092,-4.89671 2.780386,-7.42462 l 2.802357,-4.59619 155.93783,0.0719 c 162.85366,0.075 226.00152,1.17549 231.33786,4.03141 5.6027,2.99848 4.17878,10.57687 -4.55486,24.24205 -25.1734,39.38774 -42.68186,59.52915 -63.7741,73.36454 -14.53502,9.53421 -45.18445,24.47476 -63.48183,30.94522 l -14.29992,5.05685 -45.25483,0.32809 c -24.89016,0.18045 -46.52763,0.02 -48.08326,-0.35659 z"
       style="fill:#000000;fill-opacity:1;stroke-width:1.41421354" />
    <path
       transform="matrix(0.26458333,0,0,0.26458333,0,141.42498)"
       id="path1610"
       d="m 235.01624,404.46106 c -46.60382,-15.46245 -81.70009,-37.7297 -105.66335,-67.03938 -10.45638,-12.78929 -34.959405,-51.19773 -34.952767,-54.78839 0.0029,-1.57278 1.266346,-4.92789 2.80764,-7.4558 l 2.802357,-4.59619 160.18047,0.0703 c 166.80646,0.0733 224.39956,1.13214 228.08828,4.1935 4.45143,3.69437 2.52653,11.51582 -6.28441,25.53546 -22.62903,36.00642 -42.58919,58.76422 -63.69665,72.62447 -12.65573,8.31041 -45.33147,24.23542 -62.98057,30.69452 l -12.72792,4.65807 -46.66905,0.41318 -46.66905,0.41317 z"
       style="fill:#000000;fill-opacity:1;stroke-width:1.41421354" />
  </g>
</svg>
