<?xml version="1.0" encoding="UTF-8" standalone="no"?>
<svg
   xmlns:dc="http://purl.org/dc/elements/1.1/"
   xmlns:cc="http://creativecommons.org/ns#"
   xmlns:rdf="http://www.w3.org/1999/02/22-rdf-syntax-ns#"
   xmlns:svg="http://www.w3.org/2000/svg"
   xmlns="http://www.w3.org/2000/svg"
   id="svg8"
   version="1.1"
   viewBox="0 0 155.575 155.575"
   height="588"
   width="588">
  <defs
     id="defs2" />
  <metadata
     id="metadata5">
    <rdf:RDF>
      <cc:Work
         rdf:about="">
        <dc:format>image/svg+xml</dc:format>
        <dc:type
           rdf:resource="http://purl.org/dc/dcmitype/StillImage" />
        <dc:title></dc:title>
      </cc:Work>
    </rdf:RDF>
  </metadata>
  <g
     id="layer3"
     style="display:inline">
    <path
       id="path438"
       d="m 44.172123,122.9643 c -0.447706,-0.51771 -0.7103,-1.50891 -0.7103,-2.68115 0,-0.97557 0.06891,-1.16462 0.701582,-1.92459 l 0.701583,-0.84275 1.403165,-0.0132 c 9.302001,-0.0875 28.103332,-0.40387 28.553965,-0.48054 0.77484,-0.13183 0.790448,-0.24719 0.942507,-6.96689 l 0.12383,-5.47235 H 69.123117 62.35778 v -6.239872 -6.23987 l 1.089766,-0.85617 c 1.657511,-1.302213 3.050386,-2.049328 5.981774,-3.20852 l 2.674958,-1.057789 9.579348,0.05543 9.579351,0.05543 1.6838,0.626301 c 3.761634,1.399167 6.245397,2.831388 7.105643,4.09735 l 0.47145,0.693801 v 6.03695 6.036949 h -6.735194 -6.735194 v 6.45456 6.45456 l 15.200958,0.004 c 14.38929,0.004 15.24167,0.0226 15.9635,0.35045 0.9491,0.43106 1.38897,1.28164 1.38897,2.68584 0,1.28949 -0.74235,2.44946 -1.68874,2.63873 -0.33171,0.0663 -16.99656,0.12061 -37.033003,0.12061 -34.462561,0 -36.445198,-0.0177 -36.713044,-0.3274 z"
       style="fill:#000000;fill-opacity:1;stroke-width:0.187089;stroke:none" />
    <path
       id="path462"
       d="m 53.786746,84.204409 c -0.354026,-0.09075 -0.975723,-0.530362 -1.449938,-1.025279 -0.718291,-0.749649 -0.830173,-0.974486 -0.830173,-1.668327 0,-0.661482 0.10804,-0.906629 0.616945,-1.399881 0.517409,-0.501492 0.759857,-0.597967 1.50272,-0.597967 1.621432,0 3.072971,0.95163 4.26507,2.796186 0.665972,1.03047 0.680738,1.461675 0.05816,1.698379 -0.675815,0.256945 -3.421804,0.386821 -4.162782,0.196889 z"
       style="fill:#000000;fill-opacity:1;stroke-width:0.187089;stroke:none" />
    <path
       id="path584"
       d="m 40.923895,78.785105 c -0.941859,-0.427791 -2.069738,-1.401299 -2.429478,-2.09696 -0.149091,-0.288311 -0.271077,-1.001334 -0.271077,-1.584492 0,-0.982197 0.0535,-1.113785 0.726345,-1.786633 0.721678,-0.721678 0.735804,-0.726319 2.198293,-0.722236 1.842881,0.0051 2.720959,0.377243 4.058349,1.719789 1.342604,1.347785 2.205085,2.655289 2.320848,3.518376 0.09226,0.687832 0.06502,0.733518 -0.604052,1.013074 -1.060257,0.443002 -4.977325,0.403227 -5.999228,-0.06092 z"
       style="fill:#000000;fill-opacity:1;stroke-width:0.187089;stroke:none" />
    <path
       id="path688"
       d="m 25.211434,74.195997 c -1.077648,-0.546256 -2.03588,-1.418158 -2.46006,-2.238433 -0.215181,-0.416113 -0.262271,-0.867635 -0.181119,-1.736667 0.133642,-1.431136 0.472285,-2.125223 1.372097,-2.812261 0.644649,-0.492212 0.81753,-0.528042 2.835965,-0.587761 l 2.149467,-0.0636 1.410883,0.716129 c 1.826096,0.926878 4.894924,3.807892 4.892691,4.593252 -0.0019,0.654881 -0.824386,1.288034 -2.538129,1.95377 -1.136359,0.441442 -1.625899,0.513845 -3.917866,0.579451 -2.514085,0.07196 -2.657168,0.05575 -3.563929,-0.403884 z"
       style="fill:#000000;fill-opacity:1;stroke-width:0.187089;stroke:none" />
    <path
       id="path800"
       d="M 4.0362708,73.90685 C 2.9934857,73.433484 1.4342465,71.959501 1.1907146,71.216882 0.68793716,69.683724 1.1077842,67.407427 2.1182694,66.187928 3.3996926,64.641446 6.8208328,63.688726 9.464682,64.142095 c 3.061675,0.525021 8.740172,3.58343 8.740172,4.707414 0,0.462227 -1.606505,1.889014 -4.290051,3.810124 l -2.255722,1.61484 -3.4155331,-0.0041 C 5.2799315,74.2668 4.7232567,74.218709 4.0362708,73.906858 Z"
       style="fill:#000000;fill-opacity:1;stroke-width:0.187089;stroke:none" />
    <path
       id="path842"
       d="m 98.793296,84.17176 c -0.942798,-0.366234 -0.633412,-1.540584 0.807164,-3.06378 1.19624,-1.264848 1.88887,-1.595025 3.346,-1.595025 0.9994,0 1.20924,0.06397 1.60276,0.488583 0.24904,0.268718 0.50559,0.654891 0.5701,0.858162 0.31454,0.991016 -0.48759,2.472553 -1.67109,3.086516 -0.71,0.368324 -3.890645,0.522435 -4.654934,0.225544 z"
       style="fill:#000000;fill-opacity:1;stroke-width:0.187089;stroke:none" />
    <path
       id="path874"
       d="m 110.53311,79.01134 c -0.2058,-0.04622 -0.65644,-0.17212 -1.00143,-0.279781 -0.57786,-0.180332 -0.61801,-0.241988 -0.50986,-0.782937 0.15633,-0.78196 1.2226,-2.361075 2.41443,-3.575687 1.11896,-1.140354 2.58519,-1.78226 4.07102,-1.78226 1.61932,0 2.66928,0.84442 2.89136,2.325357 0.21623,1.441971 -0.81128,2.855026 -2.72058,3.741396 -0.90059,0.418089 -1.26244,0.475215 -2.89988,0.457822 -1.02898,-0.01093 -2.03926,-0.05769 -2.24506,-0.10391 z"
       style="fill:#000000;fill-opacity:1;stroke-width:0.187089;stroke:none" />
    <path
       id="path898"
       d="m 124.81082,74.121165 c -1.85796,-0.687422 -3.14715,-1.355219 -3.4048,-1.763686 -0.31242,-0.495284 3.06031,-3.82034 4.83811,-4.769731 1.28933,-0.688536 1.35277,-0.701752 3.37202,-0.702508 2.63489,-0.0011 3.31314,0.294539 4.06918,1.772999 1.09921,2.149546 0.39943,4.024395 -1.9475,5.217716 -1.15675,0.588158 -1.39779,0.638643 -3.3676,0.705329 -1.96544,0.06654 -2.22754,0.03265 -3.55941,-0.460119 z"
       style="fill:#000000;fill-opacity:1;stroke-width:0.187089;stroke:none" />
    <path
       id="path924"
       d="m 146.36059,74.006352 c -2.31724,-0.855525 -6.14057,-3.246075 -7.46754,-4.66911 -0.4448,-0.476988 -0.44629,-0.490421 -0.0977,-0.875565 0.50964,-0.563147 3.40063,-2.31535 5.57252,-3.377456 l 1.86604,-0.912535 h 2.39762 c 2.04853,0 2.5515,0.06129 3.45454,0.42095 1.29715,0.516625 2.82086,1.840571 3.27901,2.849112 1.10165,2.425108 -0.53145,5.74089 -3.22089,6.539569 -1.22047,0.362439 -4.82739,0.378053 -5.78356,0.02503 z"
       style="fill:#000000;fill-opacity:1;stroke-width:0.187089;stroke:none" />
    <path
       id="path954"
       d="m 87.961136,78.71783 c -0.125426,-0.231524 -0.265042,-1.362184 -0.310256,-2.512579 -0.07339,-1.867236 -0.03843,-2.18208 0.325937,-2.934753 0.224483,-0.463717 0.740233,-1.14314 1.146112,-1.509829 0.673087,-0.608092 0.836618,-0.666702 1.860164,-0.666702 1.068937,0 1.157708,0.03659 1.870347,0.770914 0.852911,0.878866 0.936599,1.415679 0.445434,2.857169 -0.395528,1.160817 -1.93589,2.815169 -3.459155,3.715147 -1.384437,0.817954 -1.572291,0.846018 -1.878583,0.280633 z"
       style="fill:#000000;fill-opacity:1;stroke-width:0.187089;stroke:none" />
    <path
       id="path988"
       d="m 70.490121,78.678076 c -1.21118,-0.605586 -2.816113,-2.022951 -3.485046,-3.077747 -0.63223,-0.996926 -0.731565,-2.519431 -0.220792,-3.384103 0.372933,-0.631322 1.513792,-1.309349 2.203135,-1.309349 0.983945,0 2.298485,1.054733 3.031254,2.432153 0.620419,1.166231 0.313513,5.505567 -0.406019,5.740665 -0.106206,0.0347 -0.611346,-0.146026 -1.122532,-0.401619 z"
       style="fill:#000000;fill-opacity:1;stroke-width:0.187089;stroke:none" />
    <path
       id="path1012"
       d="m 64.484628,65.41567 c -2.501218,-1.34829 -3.909224,-2.651496 -4.679231,-4.330949 -0.685175,-1.494425 -0.794644,-2.962656 -0.294023,-3.943556 0.471919,-0.924663 0.863145,-1.275077 1.872276,-1.676958 1.117478,-0.445032 2.103054,-0.272333 3.351038,0.587187 0.851387,0.586372 1.133311,0.935577 1.711007,2.119333 l 0.691661,1.417286 -0.12241,2.525697 c -0.138342,2.854354 -0.324575,3.548276 -0.957535,3.567834 -0.404368,0.01249 -0.406929,0.02117 -0.0514,0.17394 l 0.374177,0.16079 -0.374177,0.0089 c -0.205798,0.0049 -0.890418,-0.26938 -1.52138,-0.609502 z"
       style="fill:#000000;fill-opacity:1;stroke-width:0.187089;stroke:none" />
    <path
       id="path1036"
       d="m 93.279858,65.528078 c -0.220204,-0.510495 -0.322027,-1.465934 -0.373843,-3.507912 l -0.07121,-2.806329 0.717045,-1.295475 c 2.760438,-4.987244 8.86803,-2.320271 6.70901,2.929591 -0.338211,0.822389 -0.778488,1.390185 -1.885934,2.432154 -1.312979,1.235347 -3.94621,2.941351 -4.549026,2.947193 -0.133874,0.0013 -0.379592,-0.313351 -0.546042,-0.699222 z"
       style="fill:#000000;fill-opacity:1;stroke-width:0.187089;stroke:none" />
    <path
       id="path1072"
       d="m 99.999502,48.409465 c 0.07251,-3.16534 0.08626,-3.257714 0.716438,-4.812953 0.50773,-1.253051 0.89128,-1.84939 1.82844,-2.842834 1.51821,-1.609384 2.68351,-2.213139 4.27151,-2.213139 1.47131,0 1.91629,0.172275 2.98179,1.154422 1.12985,1.041461 1.39024,1.593088 1.39024,2.94522 0,1.756224 -0.53052,2.900113 -2.15699,4.650859 -1.2311,1.32516 -1.63679,1.624282 -3.31781,2.446282 -2.12731,1.040233 -4.51838,1.899422 -5.28596,1.899422 h -0.501585 z"
       style="fill:#000000;fill-opacity:1;stroke-width:0.187089;stroke:none" />
    <path
       id="path1104"
       d="m 57.119297,50.912588 c -3.970779,-1.305312 -6.595475,-3.233698 -7.792376,-5.725123 -1.025999,-2.135691 -0.848646,-3.805434 0.563634,-5.306497 0.905124,-0.962022 1.423355,-1.153342 3.124084,-1.153342 1.356685,0 1.650817,0.06622 2.642859,0.594968 1.809504,0.964457 3.278134,2.961722 3.964752,5.39187 0.225999,0.79988 0.672187,5.086003 0.676794,6.501331 0.0013,0.397383 -1.477502,0.25637 -3.179747,-0.303207 z"
       style="fill:#000000;fill-opacity:1;stroke-width:0.187089;stroke:none" />
    <path
       id="path1158"
       d="m 39.401567,34.891006 c -1.573493,-0.341971 -4.08455,-1.386957 -5.348004,-2.22559 -1.364861,-0.905942 -3.324911,-2.99951 -3.886976,-4.151757 -0.536403,-1.099638 -0.711168,-3.228126 -0.353933,-4.310561 0.300181,-0.90956 1.922034,-2.639574 2.891571,-3.08441 0.584324,-0.268095 1.21508,-0.344256 2.877674,-0.347464 l 2.129316,-0.0041 1.518913,0.795126 c 2.890035,1.51289 5.169452,4.31608 6.655749,8.18513 0.500775,1.303594 1.317721,4.390001 1.317721,4.978331 v 0.447241 l -3.320826,-0.01487 c -2.029991,-0.0091 -3.771873,-0.112901 -4.481205,-0.267063 z"
       style="fill:#000000;fill-opacity:1;stroke-width:0.187089;stroke:none" />
    <path
       id="path1180"
       d="m 112.6851,35.032627 c 7.9e-4,-0.615376 0.95035,-3.874122 1.62084,-5.563047 1.4964,-3.769322 3.22011,-5.949344 6.00829,-7.598849 l 1.54922,-0.916528 h 2.58983 2.58983 l 0.95446,0.701583 c 0.72596,0.533629 1.11854,1.023553 1.63988,2.046532 0.64121,1.258178 0.67911,1.427163 0.5874,2.619242 -0.14041,1.825206 -0.68479,2.915914 -2.25575,4.51954 -1.53379,1.565685 -2.24057,2.064039 -3.86132,2.722605 -2.4385,0.990854 -6.81751,1.785427 -9.87967,1.792674 -1.34682,0.0032 -1.54342,-0.03806 -1.54301,-0.323752 z"
       style="fill:#000000;fill-opacity:1;stroke-width:0.187089;stroke:none" />
  </g>
</svg>
