<?xml version="1.0" encoding="UTF-8"?>
<svg xmlns="http://www.w3.org/2000/svg" xmlns:xlink="http://www.w3.org/1999/xlink" width="458px" height="512px" viewBox="0 0 458 512" version="1.1">
  <defs/>
  <g fill="#000000" id="layer1">
    <path d="M228.501572,233.071442 L214.074143,278.820862 C206.38118,307.22171 207.0354,316.178955 210.937058,322.787323 C211.900253,324.411041 214.534454,329.726746 218.215408,343.927185 C223.559479,364.480621 228.265106,395.514099 228.380188,396.999085 C227.606552,415.968201 228.024704,436.068024 229.558762,455.312012 L39.1473503,455.312012 C17.6163464,455.312012 0,437.695099 0,416.16626 L0,61.8800163 C0,40.3498039 17.6163464,22.7303047 39.1473503,22.7303047 L332.155041,22.7303047 C287.278961,70.3351669 242.813934,160.66626 228.501572,233.071442 Z M435.338165,11.1358538 C489.032501,59.0349779 435.713531,168.538213 386.773254,245.619069 C351.18692,257.056066 309.708557,282.31519 309.708557,282.31519 C309.708557,282.31519 313.159058,280.483037 325.964142,275.111577 C334.644806,271.463353 360.561737,265.300939 376.345154,261.701146 C349.996399,301.427648 327.449219,329.234441 327.449219,329.234441 C327.449219,329.234441 281.479156,347.915074 267.261597,391.373723 C275.50238,345.017491 289.17514,296.633702 308.469574,245.074269 C325.701752,199.03156 383.266235,74.6973467 425.797912,36.2860613 C379.133728,73.4785662 328.147369,151.358472 291.398773,248.423848 C269.646637,312.724218 257.874634,374.416326 255.957718,425.572576 C254.690521,459.040227 257.584076,488.060521 264.707001,510.204564 L261.41391,512 C254.427155,493.868408 248.01535,462.00293 249.549103,396.7052 C249.319092,393.791809 249.18187,391.898712 249.18187,391.898712 C249.18187,391.898712 244.940399,363.33075 238.838516,339.863892 C236.137451,329.447082 233.061478,320.027862 229.831757,314.568848 C228.168259,311.751587 230.01294,300.180573 234.655563,283.041992 C242.520035,296.734405 251.00383,311.556793 254.262772,323.685394 C254.262772,323.685394 247.979263,291.354218 237.668183,272.488373 C239.928146,264.861023 242.627991,256.430573 245.682984,247.418945 C253.287598,260.717468 261.043976,273.372589 264.13797,286.048157 C260.754273,269.854797 256.172516,253.727569 249.036575,237.74144 C262.007141,170.24527 303.75589,81.8646087 348.733185,34.1511535 C372.739685,8.533658 405.825165,-14.3931723 435.338165,11.1358538 Z" id="Shape"/>
  </g>
</svg>
