<?xml version="1.0" encoding="UTF-8" standalone="no"?>
<svg
   xmlns:dc="http://purl.org/dc/elements/1.1/"
   xmlns:cc="http://creativecommons.org/ns#"
   xmlns:rdf="http://www.w3.org/1999/02/22-rdf-syntax-ns#"
   xmlns:svg="http://www.w3.org/2000/svg"
   xmlns="http://www.w3.org/2000/svg"
   id="svg8"
   version="1.1"
   viewBox="0 0 147.6375 147.6375"
   height="558"
   width="558">
  <defs
     id="defs2" />
  <metadata
     id="metadata5">
    <rdf:RDF>
      <cc:Work
         rdf:about="">
        <dc:format>image/svg+xml</dc:format>
        <dc:type
           rdf:resource="http://purl.org/dc/dcmitype/StillImage" />
        <dc:title></dc:title>
      </cc:Work>
    </rdf:RDF>
  </metadata>
  <g
     transform="translate(0,-149.36248)"
     id="layer1">
    <g
       style="fill:none"
       transform="matrix(2.6431987,0,0,2.9483415,20.341547,150.98571)"
       id="81c1a040-eead-40fe-a931-c38b55893e18">
      <path
         style="fill:none;stroke:#000000;stroke-width:0.28;stroke-linecap:round;stroke-linejoin:round;stroke-opacity:1"
         d="m 17.441984,21.916889 v 0.12198 h 2.43539 l 0.05811,-0.05811 -1.234875,-2.458681 -0.06286,-4.59e-4 -1.195767,2.395272"
         id="path48" />
      <path
         style="fill:none;stroke:#000000;stroke-width:0.28;stroke-linecap:round;stroke-linejoin:round;stroke-opacity:1"
         d="m 10.074418,44.509944 v 4.604729 h 3.499594 v -4.604729 h -3.499594"
         id="path50" />
      <path
         style="fill:none;stroke:#000000;stroke-width:0.28;stroke-linecap:round;stroke-linejoin:round;stroke-opacity:1"
         d="m 23.765811,44.509944 v 4.604729 h 3.499594 v -4.604729 h -3.499594"
         id="path52" />
      <path
         style="fill:none;stroke:#000000;stroke-width:0.28;stroke-linecap:round;stroke-linejoin:round;stroke-opacity:1"
         d="m 16.889417,44.509944 v 4.604729 h 3.56099 v -4.604729 h -3.56099"
         id="path54" />
      <path
         style="fill:none;stroke:#000000;stroke-width:0.28;stroke-linecap:round;stroke-linejoin:round;stroke-opacity:1"
         d="m 15.994316,44.054445 0.189042,0.08231 4.924085,0.0048 0.1917,-0.06683 c 0.105435,-0.03675 0.248236,-0.158304 0.317335,-0.270109 l 0.125635,-0.203282 -0.03308,-2.716244 -6.078242,-2e-6 -0.03311,2.649553 0.103798,0.218738 c 0.06149,0.129573 0.180858,0.252292 0.29284,0.301052"
         id="path56" />
      <path
         style="fill:none;stroke:#000000;stroke-width:0.28;stroke-linecap:round;stroke-linejoin:round;stroke-opacity:1"
         d="m 7.802752,8.408872 -7.4e-5,4.942409 3.499668,-0.03438 V 8.408872 H 7.802752"
         id="path58" />
      <path
         style="fill:none;stroke:#000000;stroke-width:0.28;stroke-linecap:round;stroke-linejoin:round;stroke-opacity:1"
         d="m 9.176699,44.053344 0.191661,0.08341 4.884956,0.0048 0.204892,-0.08561 c 0.11269,-0.04709 0.249944,-0.149932 0.305009,-0.228549 l 0.100119,-0.142939 v -2.794651 l -6.078271,-0.03296 2.9e-5,2.82761 0.099972,0.14273 c 0.054985,0.0785 0.186219,0.180267 0.291633,0.226145"
         id="path60" />
      <path
         style="fill:none;stroke:#000000;stroke-width:0.28;stroke-linecap:round;stroke-linejoin:round;stroke-opacity:1"
         d="m 22.868092,44.053344 0.191661,0.08341 4.884956,0.0048 0.204892,-0.08561 c 0.11269,-0.04709 0.249944,-0.149932 0.305009,-0.228549 l 0.100119,-0.142939 v -2.82761 h -6.078242 v 2.82761 l 0.09997,0.14273 c 0.05498,0.0785 0.18622,0.180267 0.291633,0.226145"
         id="path62" />
      <path
         style="fill:none;stroke:#000000;stroke-width:0.28;stroke-linecap:round;stroke-linejoin:round;stroke-opacity:1"
         d="m 26.037477,13.31867 3.468896,0.03261 0.03208,-4.942409 h -3.500972 v 4.909798"
         id="path64" />
      <path
         style="fill:none;stroke:#000000;stroke-width:0.28;stroke-linecap:round;stroke-linejoin:round;stroke-opacity:1"
         d="m 12.346084,8.408872 v 4.91171 l 3.530292,4.3e-5 -0.03344,-4.911753 h -3.496855"
         id="path66" />
      <path
         style="fill:none;stroke:#000000;stroke-width:0.28;stroke-linecap:round;stroke-linejoin:round;stroke-opacity:1"
         d="m 16.889417,8.408872 v 4.91171 h 3.56099 v -4.91171 h -3.56099"
         id="path68" />
      <path
         style="fill:none;stroke:#000000;stroke-width:0.28;stroke-linecap:round;stroke-linejoin:round;stroke-opacity:1"
         d="m 21.496884,8.408872 -0.03344,4.911753 3.530292,-4.3e-5 v -4.91171 h -3.496855"
         id="path70" />
      <path
         style="fill:none;stroke:#000000;stroke-width:0.28;stroke-linecap:round;stroke-linejoin:round;stroke-opacity:1"
         d="m 29.997544,22.886379 0.218111,-0.05861 c 0.11996,-0.03223 0.352733,-0.16076 0.517272,-0.285613 0.394724,-0.299517 0.638193,-0.706492 0.712833,-1.191549 L 31.50518,20.964431 31.46869,7.58002 31.38403,7.365132 C 31.175728,6.836356 30.721676,6.409234 30.181733,6.234135 L 29.874751,6.134584 7.219487,6.167904 6.932614,6.31057 C 6.536543,6.507541 6.218715,6.833854 6.029054,7.238253 L 5.868766,7.580021 v 13.936978 l 0.152026,0.306982 c 0.183186,0.369901 0.557189,0.756701 0.891713,0.922223 l 0.245585,0.121516 22.839454,0.01866"
         id="path72" />
      <path
         style="fill:none;stroke:#000000;stroke-width:0.28;stroke-linecap:round;stroke-linejoin:round;stroke-opacity:1"
         d="m 7.802752,16.022023 v 2.578648 h 21.734319 l 8e-6,-1.074437 -18.910093,0.03209 V 16.635987 H 29.537071 V 16.022023 H 7.802752"
         id="path74" />
      <path
         style="fill:none;stroke:#000000;stroke-width:0.28;stroke-linecap:round;stroke-linejoin:round;stroke-opacity:1"
         d="m 2.3084,39.894799 0.306358,0.05876 32.417289,-0.01765 0.33768,-0.121581 c 0.774466,-0.278845 1.478624,-0.959967 1.789772,-1.73122 l 0.144214,-0.357469 V 2.299932 L 37.166408,1.93606 C 36.791052,0.941337 35.881927,0.205892 34.847858,0.060449 L 34.418083,0 H 2.92174 L 2.491965,0.060449 C 1.455442,0.206238 0.549562,0.943489 0.167832,1.951946 L 0.03611,2.299932 0,37.234473 0.069332,37.602851 c 0.211001,1.12111 1.150922,2.083229 2.239068,2.291948"
         id="path76" />
    </g>
    <path
       transform="matrix(0.26458333,0,0,0.26458333,0,149.36248)"
       id="path102"
       d="m 100.36853,448.88409 c -6.512142,-1.55465 -14.690119,-8.2928 -18.044165,-14.86727 -3.834785,-7.5168 -3.635783,3.76823 -3.647193,-206.82601 L 78.666614,32.319727 80.899789,26.955399 C 83.853064,19.861314 89.2184,14.006123 95.681111,10.824541 l 4.741179,-2.334075 h 162.87216 162.87216 l 4.1685,1.952857 c 8.06593,3.778724 12.95678,9.257093 16.11172,18.047143 l 1.53823,4.285714 -0.19493,197.5 -0.19494,197.5 -2.44021,4.86353 c -3.08674,6.1521 -8.6267,11.80885 -14.38131,14.68446 l -4.47808,2.23772 -161.8502,-0.0731 c -89.01762,-0.0402 -162.8522,-0.31232 -164.07686,-0.60469 z M 379.71785,262.11637 c 3.22258,-1.34648 8.74647,-6.50057 10.36301,-9.66925 3.10778,-6.09175 3.08048,-5.2871 2.91768,-86.02403 l -0.1554,-77.067367 -1.68285,-3.805221 c -2.24854,-5.084336 -7.20218,-9.792932 -12.33583,-11.72562 l -4.08642,-1.538427 -113.21428,0.513033 c -106.78697,0.483907 -113.35804,0.58563 -115.74639,1.791802 -3.58297,1.809475 -8.36419,7.253976 -10.38703,11.827976 l -1.72373,3.89765 0.007,78.015344 0.007,78.01535 1.68479,3.61814 c 2.11648,4.54524 5.59513,8.54754 9.6911,11.14995 l 3.17551,2.01762 h 114.52596 c 97.45867,0 114.88867,-0.15155 116.95988,-1.01695 z"
       style="fill:#000000;stroke-width:0.71428573" />
    <path
       transform="matrix(0.26458333,0,0,0.26458333,0,149.36248)"
       id="path104"
       d="m 156.52376,127.41904 v -25.71429 h 15.71428 15.71429 v 25.24801 25.24801 l -8.03572,0.46303 c -4.41964,0.25466 -11.49107,0.46449 -15.71428,0.46627 l -7.67857,0.003 z"
       style="fill:#000000;stroke-width:0.71428573" />
    <path
       transform="matrix(0.26458333,0,0,0.26458333,0,149.36248)"
       id="path106"
       d="m 202.23804,127.06189 v -25.35714 h 15.71429 15.71428 v 25.35714 25.35715 h -15.71428 -15.71429 z"
       style="fill:#000000;stroke-width:0.71428573" />
    <path
       transform="matrix(0.26458333,0,0,0.26458333,0,149.36248)"
       id="path108"
       d="m 247.23804,127.06189 v -25.35714 h 16.07143 16.07143 v 25.35714 25.35715 h -16.07143 -16.07143 z"
       style="fill:#000000;stroke-width:0.71428573" />
    <path
       transform="matrix(0.26458333,0,0,0.26458333,0,149.36248)"
       id="path110"
       d="m 292.95741,131.88332 c 0.003,-11.29464 0.20998,-22.70535 0.46043,-25.35714 l 0.45535,-4.82143 h 15.611 15.611 v 25.35714 25.35715 h -16.07143 -16.07143 z"
       style="fill:#000000;stroke-width:0.71428573" />
    <path
       transform="matrix(0.26458333,0,0,0.26458333,0,149.36248)"
       id="path112"
       d="m 343.48804,152.60364 -4.82143,-0.24987 v -25.32451 -25.32451 h 15.71429 15.71429 v 25.71429 25.71428 l -10.89286,-0.1399 c -5.99107,-0.0769 -13.0625,-0.25234 -15.71429,-0.38978 z"
       style="fill:#000000;stroke-width:0.71428573" />
    <path
       transform="matrix(0.26458333,0,0,0.26458333,0,149.36248)"
       id="path114"
       d="m 253.8643,248.66904 c 0.51308,-1.30695 9.26508,-20.85973 9.43521,-21.07915 0.19482,-0.25127 9.65663,20.75718 9.6545,21.43629 -9.2e-4,0.29464 -4.37536,0.53571 -9.72096,0.53571 -7.48618,0 -9.63874,-0.20514 -9.36875,-0.89285 z"
       style="fill:#000000;stroke-width:0.71428573" />
    <path
       transform="matrix(0.26458333,0,0,0.26458333,0,149.36248)"
       id="path116"
       d="m 156.52376,199.20475 v -12.5 h 106.78571 c 106.24374,0 106.78572,0.007 106.78572,1.42594 0,1.41692 -0.59468,1.42708 -94.10715,1.60714 l -94.10714,0.18121 v 6.78571 6.78572 l 94.10714,-0.23873 94.10715,-0.23873 v 4.34587 4.34587 H 263.30947 156.52376 Z"
       style="fill:#000000;stroke-width:0.71428573" />
    <path
       transform="matrix(0.26458333,0,0,0.26458333,0,149.36248)"
       id="path118"
       d="m 168.4058,494.51005 -1.88204,-1.48041 v -15.06323 -15.06324 l 20.89285,0.4709 c 11.49108,0.259 24.34822,0.4715 28.57143,0.47222 l 7.67857,10e-4 v 14.59101 14.59102 l -1.88204,1.48041 c -1.82195,1.43315 -2.67403,1.48042 -26.68938,1.48042 -24.01536,0 -24.86743,-0.0473 -26.68939,-1.48042 z"
       style="fill:#000000;stroke-width:0.71428573" />
    <path
       transform="matrix(0.26458333,0,0,0.26458333,0,149.36248)"
       id="path120"
       d="m 237.40159,495.5124 c -2.48227,-0.99873 -3.02069,-4.21748 -3.02069,-18.05789 v -13.6069 h 28.92857 28.92857 v 14.31818 c 0,14.24964 -0.008,14.32658 -1.75324,16.07143 l -1.75325,1.75325 -25.21104,-0.0564 c -13.86607,-0.031 -25.61959,-0.22077 -26.11892,-0.42168 z"
       style="fill:#000000;stroke-width:0.71428573" />
    <path
       transform="matrix(0.26458333,0,0,0.26458333,0,149.36248)"
       id="path122"
       d="m 304.84234,494.23886 -1.89001,-1.75161 v -14.67696 -14.67697 h 28.57143 28.57143 v 14.94816 14.94816 l -1.88205,1.48041 c -1.82193,1.43313 -2.67412,1.48042 -26.68141,1.48042 h -24.79937 z"
       style="fill:#000000;stroke-width:0.71428573" />
    <path
       transform="matrix(0.26458333,0,0,0.26458333,0,149.36248)"
       id="path124"
       d="m 315.80947,527.77618 v -23.92857 h 15.71429 15.71428 v 23.92857 23.92857 h -15.71428 -15.71429 z"
       style="fill:#000000;stroke-width:0.71428573" />
    <path
       transform="matrix(0.26458333,0,0,0.26458333,0,149.36248)"
       id="path126"
       d="m 247.23804,527.77618 v -23.92857 h 16.07143 16.07143 v 23.92857 23.92857 h -16.07143 -16.07143 z"
       style="fill:#000000;stroke-width:0.71428573" />
    <path
       transform="matrix(0.26458333,0,0,0.26458333,0,149.36248)"
       id="path128"
       d="m 179.3809,527.77618 v -23.92857 h 15.71429 15.71428 v 23.92857 23.92857 H 195.09519 179.3809 Z"
       style="fill:#000000;stroke-width:0.71428573" />
    <rect
       y="218.47543"
       x="37.372395"
       height="2.6930804"
       width="70.6343"
       id="rect130"
       style="fill:#000000;stroke-width:0.26458332" />
    <rect
       y="201.04128"
       x="33.781624"
       height="16.441963"
       width="2.0316219"
       id="rect132"
       style="fill:#000000;stroke-width:0.26458332" />
    <rect
       y="218.00294"
       x="100.46701"
       height="0.711146"
       width="2.1062758"
       id="rect134"
       style="fill:#000000;stroke-width:0.26458332" />
    <rect
       y="212.79601"
       x="103.61599"
       height="3.3170629"
       width="1.0834072"
       id="rect136"
       style="fill:#000000;stroke-width:0.26458332" />
    <rect
       y="215.16814"
       x="102.85677"
       height="1.7953868"
       width="2.0316219"
       id="rect141"
       style="fill:#000000;stroke-width:0.26458332" />
    <rect
       y="217.53049"
       x="101.39211"
       height="1.1836103"
       width="1.1811746"
       id="rect143"
       style="fill:#000000;stroke-width:0.26458332" />
    <rect
       y="216.96352"
       x="102.85677"
       height="2.2678623"
       width="1.9843727"
       id="rect151"
       style="fill:#000000;stroke-width:0.26458332" />
    <rect
       y="216.25482"
       x="34.679314"
       height="1.3701636"
       width="2.2678571"
       id="rect153"
       style="fill:#000000;stroke-width:0.26458332" />
    <rect
       y="214.54195"
       x="35.369659"
       height="2.9412949"
       width="0.44358671"
       id="rect155"
       style="fill:#000000;stroke-width:0.26458332" />
    <rect
       y="217.62498"
       x="36.94717"
       height="1.3581853"
       width="2.2725484"
       id="rect157"
       style="fill:#000000;stroke-width:0.26458332" />
    <rect
       y="172.74031"
       x="32.694939"
       height="28.300966"
       width="3.1183074"
       id="rect159"
       style="fill:#000000;stroke-width:0.26458332" />
    <rect
       y="175.77794"
       x="40.965767"
       height="14.470546"
       width="9.250123"
       id="rect161"
       style="fill:#000000;stroke-width:0.26458332" />
    <rect
       y="175.77794"
       x="52.974693"
       height="14.481524"
       width="9.3312712"
       id="rect163"
       style="fill:#000000;stroke-width:0.26458332" />
    <rect
       y="175.77794"
       x="64.983627"
       height="14.481399"
       width="9.4124041"
       id="rect165"
       style="fill:#000000;stroke-width:0.26458332" />
    <rect
       y="175.77794"
       x="77.162079"
       height="14.481399"
       width="9.2428827"
       id="rect167"
       style="fill:#000000;stroke-width:0.26458332" />
    <rect
       y="175.77794"
       x="89.16378"
       height="14.571909"
       width="9.1689701"
       id="rect169"
       style="fill:#000000;stroke-width:0.26458332" />
    <rect
       y="198.22411"
       x="40.965767"
       height="1.8101755"
       width="57.448124"
       id="rect171"
       style="fill:#000000;stroke-width:0.26458332" />
    <rect
       y="202.64767"
       x="47.341518"
       height="3.1791668"
       width="51.072376"
       id="rect173"
       style="fill:#000000;stroke-width:0.26458332" />
    <rect
       y="200.03429"
       x="40.965763"
       height="5.7925568"
       width="6.3757515"
       id="rect175"
       style="fill:#000000;stroke-width:0.26458332" />
    <rect
       y="215.15616"
       x="67.168266"
       height="0.63633132"
       width="5.8667302"
       id="rect180"
       style="fill:#000000;stroke-width:0.26458332" />
    <rect
       y="208.54211"
       x="69.60482"
       height="1.8540757"
       width="0.4625155"
       id="rect182"
       style="fill:#000000;stroke-width:0.26458332" />
    <rect
       y="210.39619"
       x="69.60482"
       height="1.8898717"
       width="0.13178703"
       id="rect184"
       style="fill:#000000;stroke-width:0.26458332" />
    <rect
       y="212.42781"
       x="67.799477"
       height="2.7403271"
       width="3.7797618"
       id="rect186"
       style="fill:#000000;stroke-width:0.26458332" />
    <rect
       y="209.9787"
       x="69.064117"
       height="2.1214519"
       width="1.5535041"
       id="rect190"
       style="fill:#000000;stroke-width:0.26458332" />
    <rect
       y="213.11076"
       x="67.585777"
       height="1.7121954"
       width="0.77675205"
       id="rect192"
       style="fill:#000000;stroke-width:0.26458332" />
    <rect
       y="211.51549"
       x="68.170433"
       height="1.4449259"
       width="1.252826"
       id="rect194"
       style="fill:#000000;stroke-width:0.26458332" />
    <rect
       y="210.78885"
       x="68.537926"
       height="1.497219"
       width="1.0668906"
       id="rect196"
       style="fill:#000000;stroke-width:0.26458332" />
    <rect
       y="210.45476"
       x="68.77179"
       height="0.77675205"
       width="0.56794775"
       id="rect198"
       style="fill:#000000;stroke-width:0.26458332" />
    <rect
       y="209.34393"
       x="69.272919"
       height="1.0522676"
       width="0.46368954"
       id="rect200"
       style="fill:#000000;stroke-width:0.26458332" />
    <rect
       y="211.08118"
       x="70.158249"
       height="1.5451519"
       width="1.0690781"
       id="rect202"
       style="fill:#000000;stroke-width:0.26458332" />
    <rect
       y="213.29449"
       x="71.269089"
       height="1.9711127"
       width="0.86862594"
       id="rect204"
       style="fill:#000000;stroke-width:0.26458332" />
    <rect
       y="213.96268"
       x="67.19323"
       height="1.6036172"
       width="1.4449259"
       id="rect206"
       style="fill:#000000;stroke-width:0.26458332" />
    <rect
       y="214.48886"
       x="71.669998"
       height="0.81016076"
       width="0.70993471"
       id="rect208"
       style="fill:#000000;stroke-width:0.26458332" />
    <rect
       y="214.71437"
       x="66.625282"
       height="1.0523738"
       width="1.1525998"
       id="rect210"
       style="fill:#000000;stroke-width:0.26458332" />
    <rect
       y="215.07352"
       x="35.271225"
       height="0.8769781"
       width="0.90203464"
       id="rect212"
       style="fill:#000000;stroke-width:0.26458332" />
    <rect
       y="215.75005"
       x="35.630367"
       height="0.73499119"
       width="0.76004773"
       id="rect214"
       style="fill:#000000;stroke-width:0.26458332" />
    <rect
       y="216.96111"
       x="36.78297"
       height="1.0022607"
       width="0.67652601"
       id="rect216"
       style="fill:#000000;stroke-width:0.26458332" />
    <rect
       y="219.94284"
       x="29.549986"
       height="0.40925646"
       width="0.28397387"
       id="rect218"
       style="fill:none;stroke-width:0.26458332" />
    <rect
       y="217.27849"
       x="39.012997"
       height="0.48442602"
       width="0.30903038"
       id="rect220"
       style="fill:#ffffff;stroke-width:0.26458332" />
    <rect
       y="217.46223"
       x="38.854305"
       height="0.30067012"
       width="0.15868899"
       id="rect222"
       style="fill:#ffffff;stroke-width:0.26458332" />
    <rect
       y="217.62498"
       x="39.219719"
       height="0.13792419"
       width="0.10230637"
       id="rect224"
       style="fill:#ffffff;stroke-width:0.26458332" />
    <path
       d="m 148.03516,256.68945 a 0.58399831,0.91544084 0 0 0 -0.58399,0.91602 0.58399831,0.91544084 0 0 0 0.15625,0.625 c 0.0148,0.008 0.0299,0.0149 0.0449,0.0254 0.002,0.002 0.004,0.004 0.006,0.008 0.005,0.005 0.007,0.007 0.0137,0.01 0.0136,0.003 0.0273,0.006 0.041,0.01 0.0208,0.0113 0.0416,0.0219 0.0625,0.0332 0.001,0.002 0.002,0.004 0.004,0.008 0.004,0.003 0.005,0.003 0.0117,0.006 0.0135,0.003 0.007,-0.004 0.0586,0.0195 0.0242,0.0113 0.0427,0.031 0.0644,0.0469 -0.034,-0.0102 -0.0186,-0.001 0.008,0.0254 0.006,-0.005 0.0347,0.0233 0.0508,0.0391 0.009,0.008 -0.0203,-0.0157 -0.0312,-0.0195 0.0268,0.0227 0.0531,0.0429 0.0801,0.0644 0.003,0.006 0.002,0.005 0.008,0.0156 a 0.58399831,0.91544084 0 0 0 0.006,0 0.58399831,0.91544084 0 0 0 0.58398,-0.91601 0.58399831,0.91544084 0 0 0 -0.58398,-0.91602 z"
       style="fill:#000000;stroke-width:0.99999994"
       transform="matrix(0.26458333,0,0,0.26458333,0,149.36248)"
       id="path226" />
    <rect
       y="171.14944"
       x="35.580257"
       height="1.5908697"
       width="0.23299174"
       id="rect238"
       style="fill:#000000;stroke-width:0.26458332" />
    <rect
       y="168.7106"
       x="37.51796"
       height="0.78510422"
       width="1.6370258"
       id="rect240"
       style="fill:#000000;stroke-width:0.26458332" />
    <rect
       y="169.32866"
       x="36.682739"
       height="0.71828681"
       width="1.6203215"
       id="rect242"
       style="fill:#000000;stroke-width:0.26458332" />
    <rect
       y="170.26411"
       x="35.329689"
       height="2.5724692"
       width="0.90203464"
       id="rect244"
       style="fill:#000000;stroke-width:0.26458332" />
    <rect
       y="169.32866"
       x="36.682735"
       height="1.2695384"
       width="0.76840335"
       id="rect246"
       style="fill:#000000;stroke-width:0.26458332" />
    <rect
       y="169.91331"
       x="35.864231"
       height="1.7873648"
       width="0.81851292"
       id="rect248"
       style="fill:#000000;stroke-width:0.26458332" />
    <rect
       y="170.26411"
       x="36.231724"
       height="0.95214391"
       width="0.90203625"
       id="rect250"
       style="fill:#000000;stroke-width:0.26458332" />
    <rect
       y="167.99232"
       x="45.636272"
       height="1.0690781"
       width="38.921127"
       id="rect252"
       style="fill:#000000;stroke-width:0.26458332" />
    <rect
       y="167.60812"
       x="84.123085"
       height="1.8207736"
       width="20.563049"
       id="rect254"
       style="fill:#000000;stroke-width:0.26458332" />
    <rect
       y="172.76976"
       x="103.39989"
       height="7.299799"
       width="1.8708867"
       id="rect256"
       style="fill:#000000;stroke-width:0.26458332" />
    <rect
       y="168.7106"
       x="101.02789"
       height="1.4365736"
       width="1.1024867"
       id="rect258"
       style="fill:#000000;stroke-width:0.26458332" />
    <rect
       y="170.1973"
       x="102.73172"
       height="1.7372519"
       width="1.1693041"
       id="rect260"
       style="fill:#000000;stroke-width:0.26458332" />
    <rect
       y="169.71286"
       x="102.06355"
       height="1.3029389"
       width="0.98555636"
       id="rect262"
       style="fill:#000000;stroke-width:0.26458332" />
    <rect
       y="171.56705"
       x="103.29967"
       height="1.4374652"
       width="0.64007348"
       id="rect264"
       style="fill:#000000;stroke-width:0.26458332" />
    <rect
       y="179.4348"
       x="103.45"
       height="12.912458"
       width="2.2383823"
       id="rect266"
       style="fill:#000000;stroke-width:0.26458332" />
    <rect
       y="192.01317"
       x="103.36649"
       height="12.411328"
       width="2.5390604"
       id="rect268"
       style="fill:#000000;stroke-width:0.26458332" />
    <rect
       y="203.85655"
       x="103.63376"
       height="6.8153729"
       width="1.837478"
       id="rect270"
       style="fill:#000000;stroke-width:0.26458332" />
    <rect
       y="214.74779"
       x="103.29967"
       height="1.4866868"
       width="1.0690781"
       id="rect272"
       style="fill:#000000;stroke-width:0.26458332" />
    <rect
       y="216.3681"
       x="102.31412"
       height="2.0713389"
       width="1.3697563"
       id="rect274"
       style="fill:#000000;stroke-width:0.26458332" />
    <rect
       y="216.98616"
       x="101.84639"
       height="1.252826"
       width="1.0356694"
       id="rect276"
       style="fill:#000000;stroke-width:0.26458332" />
    <rect
       y="206.7464"
       x="117.29791"
       height="13.296659"
       width="1.5702084"
       id="rect278"
       style="fill:#000000;stroke-width:0.26458332" />
    <rect
       y="169.85825"
       x="115.99144"
       height="36.888161"
       width="2.8766747"
       id="rect280"
       style="fill:#000000;stroke-width:0.26458332" />
    <rect
       y="156.53458"
       x="116.32217"
       height="13.323668"
       width="2.5459454"
       id="rect282"
       style="fill:#000000;stroke-width:0.26458332" />
    <rect
       y="150.9857"
       x="28.064285"
       height="4.7456684"
       width="85.23407"
       id="rect284"
       style="fill:#000000;stroke-width:0.26458332" />
    <rect
       y="157.76669"
       x="20.436993"
       height="28.297276"
       width="3.8479772"
       id="rect286"
       style="fill:#000000;stroke-width:0.26458332" />
    <rect
       y="185.07178"
       x="20.410715"
       height="38.695312"
       width="5.4334078"
       id="rect288"
       style="fill:#000000;stroke-width:0.26458332" />
    <rect
       y="221.12126"
       x="20.363468"
       height="36.710938"
       width="8.3627234"
       id="rect290"
       style="fill:#000000;stroke-width:0.26458332" />
    <rect
       y="267.23434"
       x="27.308779"
       height="1.4960529"
       width="85.629433"
       id="rect292"
       style="fill:#000000;stroke-width:0.26458332" />
    <rect
       y="151.95949"
       x="24.111052"
       height="1.5785606"
       width="1.9059658"
       id="rect294"
       style="fill:#000000;stroke-width:0.26458332" />
    <rect
       y="151.44499"
       x="25.420671"
       height="1.7656493"
       width="3.7885458"
       id="rect296"
       style="fill:#000000;stroke-width:0.26458332" />
    <rect
       y="151.15266"
       x="27.665739"
       height="1.0523738"
       width="1.0172946"
       id="rect298"
       style="fill:#000000;stroke-width:0.26458332" />
    <rect
       y="153.60822"
       x="22.427254"
       height="2.0696683"
       width="2.3619945"
       id="rect300"
       style="fill:#000000;stroke-width:0.26458332" />
    <rect
       y="152.94171"
       x="22.976828"
       height="0.8652851"
       width="3.1922002"
       id="rect302"
       style="fill:#000000;stroke-width:0.26458332" />
    <rect
       y="152.62599"
       x="23.771954"
       height="0.98222244"
       width="1.0172936"
       id="rect304"
       style="fill:#000000;stroke-width:0.26458332" />
    <rect
       y="154.39165"
       x="21.959532"
       height="1.2160764"
       width="0.98221546"
       id="rect306"
       style="fill:#000000;stroke-width:0.26458332" />
    <rect
       y="155.15169"
       x="21.538584"
       height="1.7305702"
       width="0.88867116"
       id="rect308"
       style="fill:#000000;stroke-width:0.26458332" />
    <rect
       y="156.13391"
       x="21.082556"
       height="1.4382441"
       width="0.9471364"
       id="rect310"
       style="fill:#000000;stroke-width:0.26458332" />
    <rect
       y="157.18628"
       x="20.614832"
       height="1.3446997"
       width="0.98221546"
       id="rect312"
       style="fill:#000000;stroke-width:0.26458332" />
    <rect
       y="156.92903"
       x="20.848692"
       height="0.77174073"
       width="0.53787994"
       id="rect314"
       style="fill:#000000;stroke-width:0.26458332" />
    <rect
       y="155.77142"
       x="21.187792"
       height="1.1108421"
       width="1.2394639"
       id="rect316"
       style="fill:#000000;stroke-width:0.26458332" />
    <rect
       y="154.81259"
       x="21.784138"
       height="0.95883167"
       width="0.64311874"
       id="rect318"
       style="fill:#000000;stroke-width:0.26458332" />
    <rect
       y="151.53854"
       x="113.06002"
       height="1.5317885"
       width="1.6370258"
       id="rect320"
       style="fill:#000000;stroke-width:0.26458332" />
    <rect
       y="152.90663"
       x="115.77281"
       height="1.9059658"
       width="0.67819637"
       id="rect322"
       style="fill:#000000;stroke-width:0.26458332" />
    <rect
       y="154.43842"
       x="117.09412"
       height="1.7890354"
       width="0.50280082"
       id="rect324"
       style="fill:#000000;stroke-width:0.26458332" />
    <rect
       y="155.7948"
       x="117.9711"
       height="1.3330069"
       width="0.31571212"
       id="rect326"
       style="fill:#000000;stroke-width:0.26458332" />
    <rect
       y="153.88884"
       x="116.04175"
       height="1.0757599"
       width="1.0640668"
       id="rect328"
       style="fill:#000000;stroke-width:0.26458332" />
    <rect
       y="152.74292"
       x="114.86074"
       height="1.1459165"
       width="1.1809983"
       id="rect330"
       style="fill:#000000;stroke-width:0.26458332" />
    <rect
       y="152.35706"
       x="114.04224"
       height="0.83020598"
       width="1.3797789"
       id="rect332"
       style="fill:#000000;stroke-width:0.26458332" />
    <rect
       y="153.6199"
       x="116.15868"
       height="0.63142425"
       width="0.52618688"
       id="rect334"
       style="fill:#000000;stroke-width:0.26458332" />
    <rect
       y="154.9646"
       x="117.10581"
       height="1.7071856"
       width="1.0874544"
       id="rect336"
       style="fill:#000000;stroke-width:0.26458332" />
    <rect
       y="257.29593"
       x="20.35638"
       height="5.2255206"
       width="2.6623697"
       id="rect338"
       style="fill:#000000;stroke-width:0.26458332" />
    <rect
       y="263.77823"
       x="22.340755"
       height="2.6789062"
       width="2.2158854"
       id="rect340"
       style="fill:#000000;stroke-width:0.26458332" />
    <rect
       y="266.7052"
       x="24.903906"
       height="1.4245416"
       width="1.6519337"
       id="rect342"
       style="fill:#000000;stroke-width:0.26458332" />
    <rect
       y="265.82877"
       x="23.217188"
       height="1.4221354"
       width="1.4552083"
       id="rect344"
       style="fill:#000000;stroke-width:0.26458332" />
    <rect
       y="263.16638"
       x="21.050911"
       height="1.3559896"
       width="1.6536458"
       id="rect346"
       style="fill:#000000;stroke-width:0.26458332" />
    <rect
       y="262.25687"
       x="20.620964"
       height="1.1079427"
       width="1.2071614"
       id="rect348"
       style="fill:#000000;stroke-width:0.26458332" />
    <rect
       y="266.45712"
       x="24.556641"
       height="1.4056176"
       width="0.64492178"
       id="rect350"
       style="fill:#000000;stroke-width:0.26458332" />
    <rect
       y="267.49893"
       x="25.995312"
       height="1.1575521"
       width="2.1001301"
       id="rect352"
       style="fill:#000000;stroke-width:0.26458332" />
    <rect
       y="266.77133"
       x="24.010937"
       height="1.3583961"
       width="0.89296842"
       id="rect354"
       style="fill:#000000;stroke-width:0.26458332" />
    <rect
       y="264.12549"
       x="21.596615"
       height="1.3559896"
       width="1.1410156"
       id="rect356"
       style="fill:#000000;stroke-width:0.26458332" />
    <rect
       y="264.75388"
       x="116.10247"
       height="1.4221354"
       width="0.80201823"
       id="rect358"
       style="fill:#000000;stroke-width:0.26458332" />
    <path
       transform="matrix(0.26458333,0,0,0.26458333,0,149.36248)"
       id="path360"
       d="m 426.87868,449.3802 c 0,-0.0901 0.0373,-0.11029 2.16406,-1.17369 2.82112,-1.41056 3.40681,-1.73758 4.82031,-2.6914 1.45982,-0.98508 2.87496,-2.13597 4.32811,-3.51992 0.31796,-0.30282 0.58281,-0.5365 0.58854,-0.51929 0.006,0.0185 0.15927,0.0313 0.3746,0.0313 h 0.36416 l -0.43708,0.43964 c -2.2572,2.27044 -4.7541,4.12198 -7.37458,5.46852 -0.88608,0.45531 -1.32112,0.64581 -3.21094,1.40599 l -1.61718,0.65051 z"
       style="fill:#000000;stroke-width:0.03125" />
    <path
       transform="matrix(0.26458333,0,0,0.26458333,0,149.36248)"
       id="path362"
       d="m 441.84743,438.35592 v -0.44502 l 0.27597,-0.36591 c 0.6345,-0.84126 1.40032,-1.98631 1.97946,-2.95967 0.50503,-0.84881 0.82012,-1.44885 2.04016,-3.8852 0.64833,-1.29468 1.1859,-2.34685 1.19458,-2.33816 0.0195,0.0195 -0.6455,1.85797 -0.91156,2.52024 -0.81103,2.01874 -1.86297,3.99999 -3.14421,5.92187 -0.41882,0.62825 -1.27555,1.82627 -1.40676,1.96719 -0.0161,0.0173 -0.0276,-0.15582 -0.0276,-0.41534 z"
       style="fill:#000000;stroke-width:0.03125" />
    <path
       transform="matrix(0.26458333,0,0,0.26458333,0,149.36248)"
       id="path364"
       d="m 447.61226,425.13484 c 0.009,-1.39932 0.0164,-3.89893 0.0164,-5.55468 v -3.01046 h 0.25 0.25 v 4.83142 4.83143 l -0.2387,0.66076 c -0.13128,0.36342 -0.25117,0.68889 -0.26641,0.72326 -0.0162,0.0366 -0.0209,-0.99126 -0.0113,-2.48173 z"
       style="fill:#000000;stroke-width:0.03125" />
    <rect
       y="266.13467"
       x="115.7552"
       height="0.51263022"
       width="0.61184895"
       id="rect366"
       style="fill:#000000;stroke-width:0.26458332" />
    <rect
       y="267.57336"
       x="112.63808"
       height="0.89296871"
       width="1.4469401"
       id="rect368"
       style="fill:#000000;stroke-width:0.26458332" />
    <rect
       y="267.09378"
       x="114.21732"
       height="0.57050782"
       width="1.2567708"
       id="rect370"
       style="fill:#000000;stroke-width:0.26458332" />
    <rect
       y="266.39099"
       x="114.99453"
       height="0.83509111"
       width="0.92604166"
       id="rect372"
       style="fill:#000000;stroke-width:0.26458332" />
    <rect
       y="263.18292"
       x="117.12773"
       height="1.4634765"
       width="1.1079427"
       id="rect374"
       style="fill:#000000;stroke-width:0.26458332" />
    <rect
       y="262.25687"
       x="117.54942"
       height="1.0996745"
       width="1.0996745"
       id="rect376"
       style="fill:#000000;stroke-width:0.26458332" />
    <rect
       y="267.10205"
       x="113.79564"
       height="0.90123695"
       width="0.72760415"
       id="rect378"
       style="fill:#000000;stroke-width:0.26458332" />
    <rect
       y="264.46451"
       x="116.20996"
       height="1.083138"
       width="1.2733073"
       id="rect380"
       style="fill:#000000;stroke-width:0.26458332" />
    <rect
       y="256.93213"
       x="117.6817"
       height="5.5231771"
       width="1.0252604"
       id="rect382"
       style="fill:#000000;stroke-width:0.26458332" />
    <rect
       y="251.54126"
       x="117.70651"
       height="5.5810547"
       width="1.0666015"
       id="rect384"
       style="fill:#000000;stroke-width:0.26458332" />
    <rect
       y="245.79483"
       x="117.85534"
       height="6.0771484"
       width="1.0169922"
       id="rect386"
       style="fill:#000000;stroke-width:0.26458332" />
    <rect
       y="240.66026"
       x="117.93802"
       height="5.4404945"
       width="1.1162109"
       id="rect388"
       style="fill:#000000;stroke-width:0.26458332" />
    <rect
       y="235.65799"
       x="117.83054"
       height="5.1593747"
       width="1.1244792"
       id="rect390"
       style="fill:#000000;stroke-width:0.26458332" />
    <rect
       y="230.20096"
       x="117.73132"
       height="5.6472006"
       width="1.2071614"
       id="rect392"
       style="fill:#000000;stroke-width:0.26458332" />
    <rect
       y="224.84314"
       x="117.68997"
       height="5.5231771"
       width="1.2815756"
       id="rect394"
       style="fill:#000000;stroke-width:0.26458332" />
    <rect
       y="219.60936"
       x="117.73958"
       height="5.6306639"
       width="1.3890625"
       id="rect396"
       style="fill:#000000;stroke-width:0.26458332" />
    <rect
       y="282.21622"
       x="46.970234"
       height="13.576313"
       width="9.250123"
       id="rect398"
       style="fill:#000000;stroke-width:0.26458332" />
    <rect
       y="282.21622"
       x="64.983627"
       height="13.576313"
       width="9.4124041"
       id="rect400"
       style="fill:#000000;stroke-width:0.26458332" />
    <rect
       y="282.21622"
       x="83.159302"
       height="13.576313"
       width="9.250123"
       id="rect402"
       style="fill:#000000;stroke-width:0.26458332" />
    <rect
       y="271.44565"
       x="43.562218"
       height="8.3367634"
       width="16.066078"
       id="rect404"
       style="fill:#000000;stroke-width:0.26458332" />
    <rect
       y="271.5289"
       x="61.656834"
       height="8.0084209"
       width="16.153439"
       id="rect406"
       style="fill:#000000;stroke-width:0.26458332" />
    <rect
       y="271.44565"
       x="79.751366"
       height="8.3367596"
       width="16.066"
       id="rect408"
       style="fill:#000000;stroke-width:0.26458332" />
    <rect
       y="279.6709"
       x="44.959747"
       height="1.1576111"
       width="14.370749"
       id="rect410"
       style="fill:#000000;stroke-width:0.26458332" />
    <rect
       y="279.44873"
       x="43.965836"
       height="1.1576111"
       width="1.134225"
       id="rect412"
       style="fill:#000000;stroke-width:0.26458332" />
    <rect
       y="279.10962"
       x="61.949734"
       height="1.7071841"
       width="1.9176589"
       id="rect414"
       style="fill:#000000;stroke-width:0.26458332" />
    <rect
       y="279.14471"
       x="75.513664"
       height="1.4967093"
       width="1.9527379"
       id="rect416"
       style="fill:#000000;stroke-width:0.26458332" />
    <rect
       y="279.96323"
       x="63.39967"
       height="0.91205722"
       width="13.201444"
       id="rect418"
       style="fill:#000000;stroke-width:0.26458332" />
    <rect
       y="279.43704"
       x="80.062256"
       height="1.3563927"
       width="1.7305702"
       id="rect420"
       style="fill:#000000;stroke-width:0.26458332" />
    <rect
       y="279.33179"
       x="93.322166"
       height="1.403165"
       width="2.1164405"
       id="rect422"
       style="fill:#000000;stroke-width:0.26458332" />
    <rect
       y="279.86966"
       x="81.430344"
       height="1.0640668"
       width="12.347852"
       id="rect424"
       style="fill:#000000;stroke-width:0.26458332" />
  </g>
</svg>
