<?xml version="1.0" encoding="UTF-8" standalone="no"?>
<!-- Created with Inkscape (http://www.inkscape.org/) -->

<svg
   xmlns:dc="http://purl.org/dc/elements/1.1/"
   xmlns:cc="http://creativecommons.org/ns#"
   xmlns:rdf="http://www.w3.org/1999/02/22-rdf-syntax-ns#"
   xmlns:svg="http://www.w3.org/2000/svg"
   xmlns="http://www.w3.org/2000/svg"
   version="1.0"
   width="468pt"
   height="468pt"
   viewBox="0 0 468 468"
   id="svg2">
  <defs
     id="defs20" />
  <metadata
     id="metadata4">
Created by potrace 1.8, written by Peter Selinger 2001-2007
<rdf:RDF>
  <cc:Work
     rdf:about="">
    <dc:format>image/svg+xml</dc:format>
    <dc:type
       rdf:resource="http://purl.org/dc/dcmitype/StillImage" />
    <dc:title></dc:title>
  </cc:Work>
</rdf:RDF>
</metadata>
  <path
     d="M 17.17781,1.3676265 C 10.696133,3.2581155 4.4845266,9.0646175 2.1889328,15.141189 0.16340883,20.407552 0.0283739,37.962093 0.29844376,202.02953 l 0.40510479,180.94681 3.64594315,5.53643 c 1.890489,2.97077 5.8065023,6.48168 8.7772703,7.96706 4.996293,2.43063 11.207899,2.56567 183.917578,2.97077 120.18108,0.13504 180.40666,-0.13503 183.91757,-1.08028 6.21161,-1.75545 12.55825,-6.88678 15.79909,-12.69328 2.16056,-3.91602 2.29559,-16.87937 2.29559,-185.80807 0,-166.768135 -0.13503,-181.892047 -2.29559,-185.673025 C 393.65519,8.5244778 387.71366,3.3931504 382.31226,1.5026614 376.77583,-0.25279266 23.254382,-0.38782759 17.17781,1.3676265 z M 59.713813,90.76075 c 0.405105,78.45529 0.27007,76.69984 8.237131,82.64138 3.780978,2.83573 4.321117,2.83573 134.359756,3.24084 145.02751,0.4051 139.35605,0.67517 144.89248,-8.37217 2.43063,-3.91601 2.56566,-7.69699 2.56566,-76.834875 l 0,-72.513758 13.9086,0 c 9.04734,0 14.44874,0.54014 15.52902,1.62042 2.29559,2.295593 2.29559,356.357183 0,358.652773 -1.08028,1.08028 -9.04734,1.62042 -27.00699,1.62042 l -25.38657,0 0,-70.21816 c 0,-68.05761 -0.13503,-70.48824 -2.70069,-75.7546 -1.62042,-2.97077 -4.72623,-6.61671 -7.15686,-7.96706 -4.18608,-2.56566 -7.56195,-2.7007 -117.07528,-2.7007 -109.513328,0 -112.889201,0.13504 -117.075284,2.7007 -9.452445,5.67147 -9.182375,3.51091 -9.182375,82.77641 l 0,71.16341 -27.006986,-0.27007 -27.006986,-0.4051 L 19.203334,222.0147 18.933264,63.888799 25.685011,62.943555 C 37.973189,61.323135 45.265075,51.60062 41.889202,41.473001 39.593608,34.181114 34.867386,30.670206 26.360185,29.995032 c -7.291886,-0.54014 -7.426921,-0.675175 -7.426921,-4.996293 0,-2.295594 0.405105,-4.726222 0.945245,-5.131327 0.405104,-0.54014 9.58748,-0.945245 20.120204,-0.945245 l 19.309995,0 0.405105,71.838583 z M 337.34563,89.680471 c 0.13503,50.638099 -0.13504,70.623269 -1.21532,71.838579 -2.16055,2.56567 -258.996991,2.83574 -261.562655,0.27007 -1.215314,-1.21531 -1.620419,-19.17496 -1.620419,-72.243684 l 0,-70.623269 132.064164,0.27007 131.92912,0.405105 0.40511,70.083129 z m -26.60188,149.213599 3.24084,2.56566 0.4051,65.35691 c 0.27007,35.78425 0,67.24739 -0.4051,69.67802 l -0.81021,4.32112 -113.02424,-0.27007 -113.024236,-0.4051 -0.405105,-69.13789 c -0.27007,-67.78753 -0.27007,-69.27292 2.430629,-71.97362 2.700698,-2.7007 4.321117,-2.7007 110.593612,-2.7007 104.11193,0 108.02794,0.13504 110.99871,2.56567 z"
     id="path8"
     style="fill:#000000;stroke:none" />
  <path
     d="m 93.202476,51.195516 c -1.890489,3.780978 -1.755454,5.131327 1.350349,8.23713 2.700698,2.700699 4.456153,2.700699 109.108225,2.700699 94.11934,0 106.67759,-0.27007 109.37829,-2.160559 3.24084,-2.295594 3.91601,-7.156851 1.35035,-9.722515 -1.21531,-1.215314 -27.68216,-1.620419 -110.72864,-1.620419 -106.407527,0 -109.108225,0 -110.458574,2.565664 z"
     id="path10"
     style="fill:#000000;stroke:none" />
  <path
     d="m 93.742615,95.216903 c -2.025524,3.105803 -2.025524,3.645943 0,6.751747 l 2.160559,3.37587 108.027946,0 c 96.2799,0 108.02794,-0.27007 109.91843,-2.16056 2.7007,-2.70069 2.7007,-6.481673 0,-9.182372 -1.89049,-1.890489 -13.63853,-2.160558 -109.91843,-2.160558 l -108.027946,0 -2.160559,3.375873 z"
     id="path12"
     style="fill:#000000;stroke:none" />
  <path
     d="m 94.552825,137.75291 c -3.375873,3.37587 -3.375873,5.67146 -0.27007,8.64223 2.295594,2.02553 11.477965,2.16056 111.133745,1.89049 l 108.56809,-0.4051 1.21531,-3.64595 c 1.08028,-2.97077 0.81021,-4.32112 -1.21531,-6.48167 -2.43063,-2.7007 -3.64595,-2.7007 -109.64837,-2.7007 -105.327242,0 -107.082697,0 -109.783395,2.7007 z"
     id="path14"
     style="fill:#000000;stroke:none" />
  <g
     transform="matrix(1.1329732,0,0,1.1329732,-62.063961,-62.250613)"
     id="g3778">
    <path
       d="m 466.74025,326.46893 c 0,78.24618 -63.42882,141.675 -141.675,141.675 -78.24618,0 -141.675,-63.42882 -141.675,-141.675 l 37.25,0 c 0,59.18622 46.74352,107.175 104.425,107.175 57.68148,0 104.45,-47.98878 104.45,-107.175 0,-59.18619 -46.76852,-107.15 -104.45,-107.15 l 0,29.5 -69.925,-46.775 69.925,-47.675 0,30.425 c 78.24618,0 141.675,63.42883 141.675,141.675 z"
       id="path3019"
       style="fill:#000000;fill-opacity:1;fill-rule:nonzero;stroke:none" />
    <path
       d="m 372.85913,295.05135 c 2.26641,-0.0168 4.34783,0.74081 5.83944,2.31607 l 1.23195,1.30586 c 3.40942,3.60059 2.38938,10.08009 -2.29142,14.51237 l -48.98232,46.34595 c -4.6808,4.43228 -11.17687,5.10356 -14.58629,1.50298 l -0.12319,-0.1232 c -0.83928,-0.41581 -1.67404,-0.92487 -2.4639,-1.52762 l -33.43511,-25.52599 c -5.12466,-3.91063 -6.82719,-10.22542 -3.81905,-14.16743 l 1.08412,-1.42906 c 3.00814,-3.942 9.56018,-3.9599 14.68484,-0.0493 l 29.71462,22.69251 44.37483,-42.03412 c 2.63295,-2.49317 5.85754,-3.79729 8.77148,-3.81905 z"
       id="rect4723"
       style="fill:#000000;fill-opacity:1;fill-rule:nonzero;stroke:none" />
  </g>
</svg>
