<?xml version="1.0" encoding="UTF-8" standalone="no"?>
<!-- Created with Inkscape (http://www.inkscape.org/) -->

<svg
   xmlns:dc="http://purl.org/dc/elements/1.1/"
   xmlns:cc="http://creativecommons.org/ns#"
   xmlns:rdf="http://www.w3.org/1999/02/22-rdf-syntax-ns#"
   xmlns:svg="http://www.w3.org/2000/svg"
   xmlns="http://www.w3.org/2000/svg"
   version="1.1"
   width="585"
   height="585"
   viewBox="0 0 468 468"
   id="svg2">
  <metadata
     id="metadata8">
    <rdf:RDF>
      <cc:Work
         rdf:about="">
        <dc:format>image/svg+xml</dc:format>
        <dc:type
           rdf:resource="http://purl.org/dc/dcmitype/StillImage" />
        <dc:title></dc:title>
      </cc:Work>
    </rdf:RDF>
  </metadata>
  <defs
     id="defs6" />
  <g
     transform="matrix(3.2863643,0,0,3.2863643,53.030163,-9.5024182)"
     id="g3070"
     style="fill:#000000">
    <path
       d="m 93.030303,94.980036 c 1.925,-15.466556 6.960627,-50.32222 6.960627,-51.233159 0,-0.936643 -10.473843,-9.566391 -19.730954,-17.030931 L 63.890775,13.516521 43.730224,22.280099 c -10.228712,4.446313 -22.473773,9.92038 -22.548923,10.679406 -0.236374,2.387394 -9.707819,60.060439 -6.505785,63.13935 2.408556,2.315944 69.415417,8.717305 73.472164,8.831285 3.912736,2.4389 4.616676,-7.887636 4.882623,-9.950104 z M 9.1227681,101.84922 c -1.011508,-0.38815 -1.493591,-1.992697 -1.493591,-4.971203 0,-3.897982 5.1313929,-48.630238 6.5620739,-57.204033 0.511591,-3.065866 0.403044,-3.235631 -1.438625,-2.25 -3.4790089,1.861909 -5.9814789,1.241288 -7.5977689,-1.884272 -0.839124,-1.622687 -1.510859,-3.535187 -1.492743,-4.25 C 3.6802441,30.574317 17.189728,23.729994 33.713114,16.064947 58.90481,4.378749 64.118186,2.288581 66.138212,3.064946 c 3.37336,1.296498 51.490968,40.513278 51.490968,41.966134 0,1.768415 -3.94892,6.458972 -5.43772,6.458972 -0.71091,0 -2.4053,-0.875283 -3.76532,-1.945073 l -2.47276,-1.945073 -3.83694,30.993048 c -2.11032,17.046177 -4.394334,31.755326 -5.075595,32.687006 -1.156345,1.5814 -3.105027,1.46148 -29.325161,-1.80471 -34.078626,-4.58574 1.062627,0.0415 -58.5929159,-7.62603 z"
       id="path3033"
       style="fill:#000000" />
    <path
       d="M 48.802493,87.065191 C 38.594933,83.740069 31.629177,75.085092 31.629177,65.727285 c 0,-4.169315 0.125305,-4.355541 2.727561,-4.053655 2.365191,0.274384 1.217395,0.893884 1.856286,4.662972 1.087427,6.415191 5.114448,11.734313 10.445047,14.477535 12.290687,6.325007 29.536269,1.207539 31.865676,-9.398182 0.55262,-2.516061 -0.250731,-3.925903 2.184885,-3.925903 3.448631,0 3.376917,1.967999 0.953325,7.768471 -3.470817,8.306835 -9.93913,12.053751 -21.102695,12.539903 -4.613773,0.200921 -9.095124,0.133799 -11.756769,-0.733235 z"
       id="path3031"
       style="fill:#000000" />
    <path
       d="m 72.92299,49.112463 c -4.834021,-2.555201 -5.759366,-2.284239 -4.686824,-5.099739 0.842117,-2.210618 1.8924,-1.038138 7.723123,1.938184 4.032134,2.058224 5.734069,2.043351 5.483038,3.820808 -0.436944,3.09384 -2.865237,2.329431 -8.519337,-0.659253 z"
       id="path3027"
       style="fill:#000000" />
    <path
       d="m 39.174276,47.107537 c -0.395938,-0.395937 -0.545099,-0.983474 -0.545099,-2.245608 0,-1.847124 1.164075,-1.605213 4.524806,-2.510164 7.50426,-2.020687 8.936149,-2.699932 9.286309,0.333286 0.273803,2.371791 -1.509296,2.115727 -4.863348,2.995443 -7.682456,2.01499 -7.69688,2.132831 -8.402668,1.427043 z"
       id="path3023"
       style="fill:#000000" />
  </g>
  <g
     transform="translate(0,3.2)"
     id="g3868">
    <path
       d="m 52.922064,378.98334 c -14.811183,0 -28.569368,11.31025 -28.569368,26.84618 l 0,23.64596 c 0,15.53593 13.758185,26.84618 28.569368,26.84618 l 224.944426,0 0,-26.34016 -224.944426,0 c -2.248571,0 -2.229213,-0.88504 -2.229213,-0.50602 l 0,-23.64596 c 0,0.37903 -0.01932,-0.50602 2.229213,-0.50602 l 364.727826,0 c 2.24856,0 2.2292,0.88504 2.2292,0.50602 l 0,23.64596 c 0,-0.37902 0.0191,0.50602 -2.2292,0.50602 l -139.78191,0.001 -10e-4,26.33764 139.78295,0.001 c 14.81116,1.5e-4 28.58304,-11.31026 28.58304,-26.84617 l 0,-23.64597 c 0,-15.53591 -13.77188,-26.84617 -28.58304,-26.84617 z"
       id="path3861"
       style="font-size:medium;font-style:normal;font-variant:normal;font-weight:normal;font-stretch:normal;text-indent:0;text-align:start;text-decoration:none;line-height:normal;letter-spacing:normal;word-spacing:normal;text-transform:none;direction:ltr;block-progression:tb;writing-mode:lr-tb;text-anchor:start;baseline-shift:baseline;color:#000000;fill:#000000;fill-opacity:1;stroke:none;stroke-width:60.20000076;marker:none;visibility:visible;display:inline;overflow:visible;enable-background:accumulate;font-family:Sans;-inkscape-font-specification:Sans" />
    <path
       d="m 47.111595,398.17331 145.576615,0 0,37.3609 -145.576615,-0.47529 z"
       id="rect3820"
       style="color:#000000;fill:#000000;stroke:none;stroke-width:17.29999924;marker:none;visibility:visible;display:inline;overflow:visible;enable-background:accumulate" />
  </g>
</svg>
