<?xml version="1.0" encoding="UTF-8" standalone="no"?>
<svg
   xmlns:dc="http://purl.org/dc/elements/1.1/"
   xmlns:cc="http://creativecommons.org/ns#"
   xmlns:rdf="http://www.w3.org/1999/02/22-rdf-syntax-ns#"
   xmlns:svg="http://www.w3.org/2000/svg"
   xmlns="http://www.w3.org/2000/svg"
   id="svg2027"
   version="1.1"
   viewBox="0 0 146.25154 102.62476"
   height="102.62476mm"
   width="146.25154mm">
  <defs
     id="defs2021" />
  <metadata
     id="metadata2024">
    <rdf:RDF>
      <cc:Work
         rdf:about="">
        <dc:format>image/svg+xml</dc:format>
        <dc:type
           rdf:resource="http://purl.org/dc/dcmitype/StillImage" />
        <dc:title></dc:title>
      </cc:Work>
    </rdf:RDF>
  </metadata>
  <g
     transform="translate(37.407165,-135.90277)"
     id="layer1">
    <path
       id="rect815-8-8"
       d="m -25.02239,135.90277 c -6.81827,0 -12.384775,5.56652 -12.384775,12.38478 v 77.85311 c 0,6.81829 5.566505,12.38687 12.384775,12.38687 H 96.458049 c 6.818281,0 12.386331,-5.56858 12.386331,-12.38687 v -77.85311 c 0,-6.81826 -5.56805,-12.38478 -12.386331,-12.38478 z m 0,4.9997 H 96.458049 c 4.134751,0 7.386631,3.25033 7.386631,7.38508 v 77.85311 c 0,4.13475 -3.25188,7.38664 -7.386631,7.38664 H -25.02239 c -4.13476,0 -7.385079,-3.25189 -7.385079,-7.38664 v -77.85311 c 0,-4.13475 3.250319,-7.38508 7.385079,-7.38508 z m 66.934416,0.39687 a 4.3361459,4.3361459 0 0 0 -4.336171,4.33618 4.3361459,4.3361459 0 0 0 4.336171,4.33615 4.3361459,4.3361459 0 0 0 4.336169,-4.33615 4.3361459,4.3361459 0 0 0 -4.336169,-4.33618 z m -12.42405,1.34205 a 2.5516269,2.5516269 0 0 0 -2.551263,2.55124 2.5516269,2.5516269 0 0 0 2.551263,2.55181 2.5516269,2.5516269 0 0 0 2.551785,-2.55181 2.5516269,2.5516269 0 0 0 -2.551785,-2.55124 z m -43.884659,7.85222 c -3.24407,0 -5.855457,2.61192 -5.855457,5.85597 v 61.71563 c 0,3.24405 2.611387,5.85544 5.855457,5.85544 H 85.811159 c 3.24406,0 5.85597,-2.61139 5.85597,-5.85544 v -61.71563 c 0,-3.24405 -2.61191,-5.85597 -5.85597,-5.85597 z m 25.274944,19.16317 h 57.050782 c 2.511438,0 4.611595,2.10092 4.611595,4.61161 v 26.57202 c 0,2.51071 -2.100898,4.61161 -4.611595,4.61161 H 10.878261 c -2.5106919,0 -4.6110889,-2.1009 -4.6110889,-4.61161 v -1.04489 h -2.509925 c -2.202709,0 -4.05660002,-1.85084 -4.05660002,-4.05453 v -17.3147 c 0,-2.20372 1.85291202,-4.05456 4.05660002,-4.05456 h 2.509925 v -0.10334 c 0,-2.51069 2.099659,-4.61161 4.6110889,-4.61161 z m 0.388607,5.00023 v 4.71495 H 4.7008601 v 15.42386 h 6.5660079 v 5.656 h 56.273568 v -25.79481 z m 8.215519,3.6282 29.759423,4.55319 -4.715991,6.66731 15.774231,7.3184 -31.38568,-2.27687 8.130768,-6.66779 z"
       style="color:#000000;font-style:normal;font-variant:normal;font-weight:normal;font-stretch:normal;font-size:medium;line-height:normal;font-family:sans-serif;font-variant-ligatures:normal;font-variant-position:normal;font-variant-caps:normal;font-variant-numeric:normal;font-variant-alternates:normal;font-feature-settings:normal;text-indent:0;text-align:start;text-decoration:none;text-decoration-line:none;text-decoration-style:solid;text-decoration-color:#000000;letter-spacing:normal;word-spacing:normal;text-transform:none;writing-mode:lr-tb;direction:ltr;text-orientation:mixed;dominant-baseline:auto;baseline-shift:baseline;text-anchor:start;white-space:normal;shape-padding:0;clip-rule:nonzero;display:inline;overflow:visible;visibility:visible;opacity:1;isolation:auto;mix-blend-mode:normal;color-interpolation:sRGB;color-interpolation-filters:linearRGB;solid-color:#000000;solid-opacity:1;vector-effect:none;fill:#000000;fill-opacity:1;fill-rule:evenodd;stroke:none;stroke-width:5;stroke-linecap:round;stroke-linejoin:miter;stroke-miterlimit:4;stroke-dasharray:none;stroke-dashoffset:0;stroke-opacity:1;color-rendering:auto;image-rendering:auto;shape-rendering:auto;text-rendering:auto;enable-background:accumulate" />
  </g>
</svg>
