<?xml version="1.0" encoding="UTF-8" standalone="no"?>
<svg
   xmlns:dc="http://purl.org/dc/elements/1.1/"
   xmlns:cc="http://creativecommons.org/ns#"
   xmlns:rdf="http://www.w3.org/1999/02/22-rdf-syntax-ns#"
   xmlns:svg="http://www.w3.org/2000/svg"
   xmlns="http://www.w3.org/2000/svg"
   id="svg2027"
   version="1.1"
   viewBox="0 0 146.25154 102.62474"
   height="102.62474mm"
   width="146.25154mm">
  <defs
     id="defs2021" />
  <metadata
     id="metadata2024">
    <rdf:RDF>
      <cc:Work
         rdf:about="">
        <dc:format>image/svg+xml</dc:format>
        <dc:type
           rdf:resource="http://purl.org/dc/dcmitype/StillImage" />
        <dc:title></dc:title>
      </cc:Work>
    </rdf:RDF>
  </metadata>
  <g
     transform="translate(13.437749,-207.21188)"
     id="layer1">
    <path
       id="rect815-8-38"
       d="m -1.0529761,207.21188 c -6.81827,0 -12.3847729,5.5665 -12.3847729,12.38477 v 77.85313 c 0,6.81828 5.5665029,12.38684 12.3847729,12.38684 H 120.42747 c 6.81828,0 12.38632,-5.56856 12.38632,-12.38684 v -77.85313 c 0,-6.81827 -5.56804,-12.38477 -12.38632,-12.38477 z m 0,4.99969 H 120.42747 c 4.13476,0 7.38663,3.25032 7.38663,7.38508 v 77.85313 c 0,4.13475 -3.25187,7.38663 -7.38663,7.38663 H -1.0529761 c -4.13476,0 -7.385079,-3.25188 -7.385079,-7.38663 v -77.85313 c 0,-4.13476 3.250319,-7.38508 7.385079,-7.38508 z m 66.9344161,0.39688 a 4.3361459,4.3361459 0 0 0 -4.336169,4.33617 4.3361459,4.3361459 0 0 0 4.336169,4.33617 4.3361459,4.3361459 0 0 0 4.336169,-4.33617 4.3361459,4.3361459 0 0 0 -4.336169,-4.33617 z m -12.424048,1.34204 a 2.5516269,2.5516269 0 0 0 -2.551266,2.55126 2.5516269,2.5516269 0 0 0 2.551266,2.55178 2.5516269,2.5516269 0 0 0 2.551782,-2.55178 2.5516269,2.5516269 0 0 0 -2.551782,-2.55126 z m -43.8846591,7.85223 c -3.24407,0 -5.855457,2.6119 -5.855457,5.85597 v 61.71562 c 0,3.24407 2.611387,5.85545 5.855457,5.85545 H 109.78057 c 3.24406,0 5.85597,-2.61138 5.85597,-5.85545 v -61.71562 c 0,-3.24407 -2.61191,-5.85597 -5.85597,-5.85597 z m 25.1333501,18.87327 h 57.050781 c 2.511433,0 4.611603,2.09883 4.611603,4.60953 v 26.57254 c 3e-6,2.51069 -2.100911,4.61109 -4.611603,4.61109 H 34.706083 c -2.5107,0 -4.609021,-2.10038 -4.609021,-4.61109 v -1.04489 h -2.511991 c -2.20269,0 -4.054533,-1.85136 -4.054533,-4.05505 v -17.31419 c 0,-2.20369 1.850843,-4.05505 4.054533,-4.05505 h 2.511991 v -0.10336 c 0,-2.51071 2.09758,-4.60953 4.609021,-4.60953 z m 0.390673,5.00021 v 4.71289 h -6.566524 v 15.42386 h 6.566524 v 5.65599 H 91.368258 V 245.6762 Z m 20.315039,1.66295 H 70.91731 v 22.46633 H 55.411795 Z m 17.622182,0 h 15.506028 v 22.46633 H 73.033977 Z"
       style="color:#000000;font-style:normal;font-variant:normal;font-weight:normal;font-stretch:normal;font-size:medium;line-height:normal;font-family:sans-serif;font-variant-ligatures:normal;font-variant-position:normal;font-variant-caps:normal;font-variant-numeric:normal;font-variant-alternates:normal;font-feature-settings:normal;text-indent:0;text-align:start;text-decoration:none;text-decoration-line:none;text-decoration-style:solid;text-decoration-color:#000000;letter-spacing:normal;word-spacing:normal;text-transform:none;writing-mode:lr-tb;direction:ltr;text-orientation:mixed;dominant-baseline:auto;baseline-shift:baseline;text-anchor:start;white-space:normal;shape-padding:0;clip-rule:nonzero;display:inline;overflow:visible;visibility:visible;opacity:1;isolation:auto;mix-blend-mode:normal;color-interpolation:sRGB;color-interpolation-filters:linearRGB;solid-color:#000000;solid-opacity:1;vector-effect:none;fill:#000000;fill-opacity:1;fill-rule:evenodd;stroke:none;stroke-width:5;stroke-linecap:round;stroke-linejoin:miter;stroke-miterlimit:4;stroke-dasharray:none;stroke-dashoffset:0;stroke-opacity:1;color-rendering:auto;image-rendering:auto;shape-rendering:auto;text-rendering:auto;enable-background:accumulate" />
  </g>
</svg>
