<?xml version="1.0" encoding="UTF-8" standalone="no"?>
<svg
   xmlns:dc="http://purl.org/dc/elements/1.1/"
   xmlns:cc="http://creativecommons.org/ns#"
   xmlns:rdf="http://www.w3.org/1999/02/22-rdf-syntax-ns#"
   xmlns:svg="http://www.w3.org/2000/svg"
   xmlns="http://www.w3.org/2000/svg"
   id="svg925"
   version="1.1"
   viewBox="0 0 146.25154 102.62474"
   height="102.62474mm"
   width="146.25154mm">
  <defs
     id="defs919" />
  <metadata
     id="metadata922">
    <rdf:RDF>
      <cc:Work
         rdf:about="">
        <dc:format>image/svg+xml</dc:format>
        <dc:type
           rdf:resource="http://purl.org/dc/dcmitype/StillImage" />
        <dc:title></dc:title>
      </cc:Work>
    </rdf:RDF>
  </metadata>
  <g
     transform="translate(47.843591,-8.4025873)"
     id="layer1">
    <path
       id="rect815-8"
       transform="matrix(0.26458333,0,0,0.26458333,-42.706954,73.917968)"
       d="m 27.394531,-247.61719 c -25.7698429,0 -46.808593,21.03876 -46.808593,46.8086 V 93.439453 c 0,25.769857 21.0387501,46.816407 46.808593,46.816407 H 486.5332 c 25.76985,0 46.81446,-21.04655 46.81446,-46.816407 V -200.80859 c 0,-25.76984 -21.04461,-46.8086 -46.81446,-46.8086 z m 0,18.89649 H 486.5332 c 15.62743,0 27.91797,12.28468 27.91797,27.91211 V 93.439453 c 0,15.627417 -12.29054,27.917967 -27.91797,27.917967 H 27.394531 c -15.627428,0 -27.91210912,-12.29055 -27.91210912,-27.917967 V -200.80859 c 0,-15.62743 12.28468112,-27.91211 27.91210912,-27.91211 z m 252.980469,1.5 a 16.388583,16.388583 0 0 0 -16.38867,16.38867 16.388583,16.388583 0 0 0 16.38867,16.38867 16.388583,16.388583 0 0 0 16.38867,-16.38867 16.388583,16.388583 0 0 0 -16.38867,-16.38867 z m -46.95703,5.07226 a 9.6439443,9.6439443 0 0 0 -9.64258,9.64258 9.6439443,9.6439443 0 0 0 9.64258,9.64453 9.6439443,9.6439443 0 0 0 9.64453,-9.64453 9.6439443,9.6439443 0 0 0 -9.64453,-9.64258 z M 67.554688,-192.4707 c -12.261032,0 -22.13086,9.87178 -22.13086,22.13281 V 62.917969 c 0,12.261032 9.869828,22.130859 22.13086,22.130859 H 446.29297 c 12.26103,0 22.13281,-9.869827 22.13281,-22.130859 V -170.33789 c 0,-12.26103 -9.87178,-22.13281 -22.13281,-22.13281 z"
       style="color:#000000;font-style:normal;font-variant:normal;font-weight:normal;font-stretch:normal;font-size:medium;line-height:normal;font-family:sans-serif;font-variant-ligatures:normal;font-variant-position:normal;font-variant-caps:normal;font-variant-numeric:normal;font-variant-alternates:normal;font-feature-settings:normal;text-indent:0;text-align:start;text-decoration:none;text-decoration-line:none;text-decoration-style:solid;text-decoration-color:#000000;letter-spacing:normal;word-spacing:normal;text-transform:none;writing-mode:lr-tb;direction:ltr;text-orientation:mixed;dominant-baseline:auto;baseline-shift:baseline;text-anchor:start;white-space:normal;shape-padding:0;clip-rule:nonzero;display:inline;overflow:visible;visibility:visible;opacity:1;isolation:auto;mix-blend-mode:normal;color-interpolation:sRGB;color-interpolation-filters:linearRGB;solid-color:#000000;solid-opacity:1;vector-effect:none;fill:#000000;fill-opacity:1;fill-rule:evenodd;stroke:none;stroke-width:18.89763832;stroke-linecap:round;stroke-linejoin:miter;stroke-miterlimit:4;stroke-dasharray:none;stroke-dashoffset:0;stroke-opacity:1;color-rendering:auto;image-rendering:auto;shape-rendering:auto;text-rendering:auto;enable-background:accumulate" />
  </g>
</svg>
