<?xml version="1.0" encoding="UTF-8" standalone="no"?>
<svg
   xmlns:dc="http://purl.org/dc/elements/1.1/"
   xmlns:cc="http://creativecommons.org/ns#"
   xmlns:rdf="http://www.w3.org/1999/02/22-rdf-syntax-ns#"
   xmlns:svg="http://www.w3.org/2000/svg"
   xmlns="http://www.w3.org/2000/svg"
   id="svg2027"
   version="1.1"
   viewBox="0 0 146.25154 102.62474"
   height="102.62474mm"
   width="146.25154mm">
  <defs
     id="defs2021" />
  <metadata
     id="metadata2024">
    <rdf:RDF>
      <cc:Work
         rdf:about="">
        <dc:format>image/svg+xml</dc:format>
        <dc:type
           rdf:resource="http://purl.org/dc/dcmitype/StillImage" />
        <dc:title></dc:title>
      </cc:Work>
    </rdf:RDF>
  </metadata>
  <g
     transform="translate(11.047007,-200.9656)"
     id="layer1">
    <path
       id="rect815-8-32"
       d="m 1.337763,200.9656 c -6.81827,0 -12.38477,5.5665 -12.38477,12.38477 v 77.85313 c 0,6.81827 5.5665,12.38684 12.38477,12.38684 H 122.81821 c 6.81828,0 12.38633,-5.56857 12.38633,-12.38684 v -77.85313 c 0,-6.81827 -5.56805,-12.38477 -12.38633,-12.38477 z m 0,4.99969 H 122.81821 c 4.13476,0 7.38663,3.25032 7.38663,7.38508 v 77.85313 c 0,4.13475 -3.25187,7.38663 -7.38663,7.38663 H 1.337763 c -4.13475,0 -7.38508,-3.25188 -7.38508,-7.38663 v -77.85313 c 0,-4.13476 3.25033,-7.38508 7.38508,-7.38508 z m 66.934419,0.39688 a 4.3361459,4.3361459 0 0 0 -4.336169,4.33617 4.3361459,4.3361459 0 0 0 4.336169,4.33616 4.3361459,4.3361459 0 0 0 4.336171,-4.33616 4.3361459,4.3361459 0 0 0 -4.336171,-4.33617 z m -12.424048,1.34203 a 2.5516269,2.5516269 0 0 0 -2.55126,2.55127 2.5516269,2.5516269 0 0 0 2.55126,2.55178 2.5516269,2.5516269 0 0 0 2.55178,-2.55178 2.5516269,2.5516269 0 0 0 -2.55178,-2.55127 z m -43.884661,7.85224 c -3.2440598,0 -5.85545,2.61191 -5.85545,5.85597 v 61.71561 c 0,3.24407 2.6113902,5.85546 5.85545,5.85546 H 112.17131 c 3.24406,0 5.85598,-2.61139 5.85598,-5.85546 v -61.71561 c 0,-3.24406 -2.61192,-5.85597 -5.85598,-5.85597 z"
       style="color:#000000;font-style:normal;font-variant:normal;font-weight:normal;font-stretch:normal;font-size:medium;line-height:normal;font-family:sans-serif;font-variant-ligatures:normal;font-variant-position:normal;font-variant-caps:normal;font-variant-numeric:normal;font-variant-alternates:normal;font-feature-settings:normal;text-indent:0;text-align:start;text-decoration:none;text-decoration-line:none;text-decoration-style:solid;text-decoration-color:#000000;letter-spacing:normal;word-spacing:normal;text-transform:none;writing-mode:lr-tb;direction:ltr;text-orientation:mixed;dominant-baseline:auto;baseline-shift:baseline;text-anchor:start;white-space:normal;shape-padding:0;clip-rule:nonzero;display:inline;overflow:visible;visibility:visible;opacity:1;isolation:auto;mix-blend-mode:normal;color-interpolation:sRGB;color-interpolation-filters:linearRGB;solid-color:#000000;solid-opacity:1;vector-effect:none;fill:#000000;fill-opacity:1;fill-rule:evenodd;stroke:none;stroke-width:5;stroke-linecap:round;stroke-linejoin:miter;stroke-miterlimit:4;stroke-dasharray:none;stroke-dashoffset:0;stroke-opacity:1;color-rendering:auto;image-rendering:auto;shape-rendering:auto;text-rendering:auto;enable-background:accumulate" />
    <g
       transform="matrix(1.7351785,0,0,1.7351785,30.044383,218.48801)"
       id="g2928">
      <g
         id="layer2"
         style="display:inline;opacity:1"
         transform="translate(-65.132766,-119.47023)">
        <rect
           style="opacity:1;fill:none;fill-opacity:1;fill-rule:evenodd;stroke:#e5e401;stroke-width:2.19962215;stroke-linecap:round;stroke-linejoin:miter;stroke-miterlimit:4;stroke-dasharray:none;stroke-opacity:1"
           id="rect886"
           width="29.760384"
           height="24.533136"
           x="85.657967"
           y="118.77311"
           ry="0.58945227"
           transform="matrix(0.99107106,0.13333475,-0.12138229,0.99260583,0,0)" />
        <path
           style="fill:none;stroke:#e5e401;stroke-width:2.79999995;stroke-linecap:butt;stroke-linejoin:miter;stroke-miterlimit:4;stroke-dasharray:none;stroke-opacity:1"
           d="m 65.752826,131.33382 20.653856,-10.20286 17.937738,15.09547"
           id="path888" />
      </g>
      <g
         id="layer3"
         style="display:inline;opacity:1"
         transform="translate(-65.132766,-119.47023)">
        <path
           style="display:inline;opacity:1;fill:#ffffd1;fill-opacity:1;stroke:#11d500;stroke-width:3.77952766;stroke-linecap:butt;stroke-linejoin:miter;stroke-miterlimit:4;stroke-dasharray:none;stroke-opacity:1"
           d="m 326.57617,463.5918 -54.81055,25.51562 c -0.22314,0.0588 -0.42739,0.15892 -0.61523,0.28516 l -19,8.8457 19,-8.8457 -10.73633,84.3457 c -0.13755,1.15885 0.68196,2.22065 1.83789,2.38086 l 98.17969,13.60742 c 1.15593,0.16022 2.19643,-0.64389 2.33398,-1.80273 l 10.8545,-85.49418 16.47558,12.49027 z"
           transform="scale(0.26458333)"
           id="path892" />
        <path
           style="fill:none;stroke:#11d500;stroke-width:1;stroke-linecap:butt;stroke-linejoin:miter;stroke-miterlimit:4;stroke-dasharray:none;stroke-opacity:1"
           d="m 77.749039,134.93795 4.13077,-1.01854"
           id="path919" />
        <path
           style="fill:none;stroke:#11d500;stroke-width:1;stroke-linecap:butt;stroke-linejoin:miter;stroke-miterlimit:4;stroke-dasharray:none;stroke-opacity:1"
           d="m 88.104259,134.54185 3.961014,2.20685"
           id="path921" />
        <path
           style="fill:none;stroke:#11d500;stroke-width:1;stroke-linecap:butt;stroke-linejoin:miter;stroke-miterlimit:4;stroke-dasharray:none;stroke-opacity:1"
           d="m 76.051462,140.99265 c -1.991865,8.65932 14.742864,12.12278 16.29674,2.15026"
           id="path923" />
      </g>
    </g>
  </g>
</svg>
