<?xml version="1.0" encoding="UTF-8" standalone="no"?>
<svg
   xmlns:dc="http://purl.org/dc/elements/1.1/"
   xmlns:cc="http://creativecommons.org/ns#"
   xmlns:rdf="http://www.w3.org/1999/02/22-rdf-syntax-ns#"
   xmlns:svg="http://www.w3.org/2000/svg"
   xmlns="http://www.w3.org/2000/svg"
   id="svg2027"
   version="1.1"
   viewBox="0 0 146.25154 102.62475"
   height="102.62475mm"
   width="146.25154mm">
  <defs
     id="defs2021" />
  <metadata
     id="metadata2024">
    <rdf:RDF>
      <cc:Work
         rdf:about="">
        <dc:format>image/svg+xml</dc:format>
        <dc:type
           rdf:resource="http://purl.org/dc/dcmitype/StillImage" />
        <dc:title></dc:title>
      </cc:Work>
    </rdf:RDF>
  </metadata>
  <g
     transform="translate(116.16772,-364.25951)"
     id="layer1">
    <path
       id="rect815-8-32-1"
       transform="matrix(0.26458333,0,0,0.26458333,-11.047007,200.9656)"
       d="m -350.49805,617.17383 c -25.76984,0 -46.80859,21.03875 -46.80859,46.80859 v 294.24805 c 0,25.76984 21.03875,46.81643 46.80859,46.81643 h 459.13867 c 25.76984,0 46.81446,-21.04659 46.81446,-46.81643 V 663.98242 c 0,-25.76984 -21.04462,-46.80859 -46.81446,-46.80859 z m 0,18.89648 h 459.13867 c 15.62744,0 27.91797,12.28467 27.91797,27.91211 v 294.24805 c 0,15.62744 -12.29053,27.91797 -27.91797,27.91797 h -459.13867 c -15.6274,0 -27.91211,-12.29053 -27.91211,-27.91797 V 663.98242 c 0,-15.62744 12.28471,-27.91211 27.91211,-27.91211 z m 252.980472,1.5 a 16.388583,16.388583 0 0 0 -16.388672,16.38867 16.388583,16.388583 0 0 0 16.388672,16.38868 16.388583,16.388583 0 0 0 16.388672,-16.38868 16.388583,16.388583 0 0 0 -16.388672,-16.38867 z m -46.957032,5.07227 a 9.6439442,9.6439442 0 0 0 -9.64258,9.64258 9.6439442,9.6439442 0 0 0 9.64258,9.64453 9.6439442,9.6439442 0 0 0 9.64453,-9.64453 9.6439442,9.6439442 0 0 0 -9.64453,-9.64258 z m -165.86328,29.67773 c -12.26101,0 -22.13086,9.8718 -22.13086,22.13281 v 233.25586 c 0,12.26109 9.86985,22.13086 22.13086,22.13086 H 68.400391 c 12.261052,0 22.132812,-9.86977 22.132812,-22.13086 V 694.45312 c 0,-12.26101 -9.87176,-22.13281 -22.132812,-22.13281 z m 92.5293,16.41211 c 8.74956,-0.12567 17.66999,8.25529 12.90234,18.98242 -17.66154,39.73588 -41.68321,59.09528 -41.3457,93.02735 0.32221,32.39418 22.33528,47.679 41.23047,88.00781 4.19585,8.6307 -1.76471,18.74595 -11.34766,19.25781 -5.52601,0.2942 -10.66425,-2.83441 -12.93945,-7.8789 -4.88925,-5.62318 -46.06648,-62.62518 -46.42969,-99.10352 -0.37822,-38.00988 40.70446,-94.56727 46.31445,-104.20703 2.49732,-5.61895 7.03211,-8.02017 11.61524,-8.08594 z m 189.787106,0.40039 c 5.12629,0.11978 9.777134,3.16536 11.910156,7.89453 4.889189,5.62326 46.066475,62.62522 46.429687,99.10352 0.378255,38.00991 -40.704466,94.56731 -46.314453,104.20703 -7.265011,16.34612 -31.784429,5.44768 -24.519531,-10.89844 C -22.854044,849.7035 1.1691651,830.34613 0.83203125,796.41406 0.50981897,764.02 -21.50521,748.73502 -40.400391,708.40625 c -4.195838,-8.63078 1.764736,-18.74794 11.347657,-19.25977 0.345411,-0.018 0.68958,-0.0212 1.03125,-0.0137 z m -39.94336,23.125 c 4.028901,0.0942 7.684836,2.48822 9.361328,6.20508 3.842638,4.41948 36.20488,49.2188 36.490235,77.88867 0.297339,29.8735 -31.991232,74.32606 -36.400391,81.90235 -5.709842,12.8471 -24.981364,4.28265 -19.271484,-8.56446 13.880878,-31.23012 32.763369,-46.44463 32.498047,-73.11328 -0.253191,-25.45984 -17.555689,-37.47386 -32.40625,-69.16992 -3.297638,-6.78331 1.388272,-14.73255 8.919921,-15.13477 0.271371,-0.0138 0.53987,-0.0193 0.808594,-0.0117 z m -109.812496,0.29102 c 6.87667,-0.0988 13.88772,6.48705 10.14062,14.91797 -13.88092,31.23012 -32.76142,46.44463 -32.49609,73.11328 0.25321,25.45992 17.55377,37.47187 32.40429,69.16797 3.29767,6.78319 -1.38439,14.7345 -8.91601,15.13672 -4.34313,0.23126 -8.38368,-2.22672 -10.17188,-6.19141 -3.84261,-4.41948 -36.20488,-49.22087 -36.49023,-77.89063 -0.29726,-29.87357 31.99123,-74.3241 36.40039,-81.90039 1.96271,-4.41619 5.52687,-6.30173 9.12891,-6.35351 z m 24.07617,26.7207 c 4.73098,-0.0679 9.55446,4.46342 6.97656,10.26367 -9.54973,21.48563 -22.53997,31.95149 -22.35742,50.29883 0.17423,17.51573 12.07814,25.78172 22.29492,47.58789 2.26874,4.6667 -0.95513,10.13545 -6.13672,10.41211 -2.98794,0.15908 -5.76589,-1.53219 -6.99609,-4.25976 -2.64363,-3.0406 -24.90894,-33.86176 -25.10547,-53.58594 -0.20451,-20.55228 22.00956,-51.13343 25.04297,-56.34571 1.35031,-3.03817 3.80313,-4.33707 6.28125,-4.37109 z m 61.761717,0.043 c 2.77183,0.0648 5.286134,1.71238 6.439453,4.26953 2.643591,3.04048 24.90698,33.86183 25.103516,53.58594 0.204551,20.55224 -22.007567,51.13336 -25.041016,56.3457 -3.928222,8.83846 -17.18603,2.94585 -13.257812,-5.89258 9.549728,-21.48555 22.539973,-31.95149 22.357421,-50.29882 -0.17424,-17.51581 -12.078103,-25.77981 -22.294921,-47.58594 -2.268738,-4.66674 0.953184,-10.1374 6.134765,-10.41406 0.18686,-0.009 0.373775,-0.0108 0.558594,-0.008 z m -31.304687,30.85742 a 29.008391,29.008391 0 0 1 29.009765,29.00781 29.008391,29.008391 0 0 1 -21.548825,28.01954 v 103.7109 a 7.25293,7.25293 0 1 1 -14.50586,0 V 827.28125 a 29.008391,29.008391 0 0 1 -21.96289,-28.10352 29.008391,29.008391 0 0 1 29.00781,-29.00781 z"
       style="color:#000000;font-style:normal;font-variant:normal;font-weight:normal;font-stretch:normal;font-size:medium;line-height:normal;font-family:sans-serif;font-variant-ligatures:normal;font-variant-position:normal;font-variant-caps:normal;font-variant-numeric:normal;font-variant-alternates:normal;font-feature-settings:normal;text-indent:0;text-align:start;text-decoration:none;text-decoration-line:none;text-decoration-style:solid;text-decoration-color:#000000;letter-spacing:normal;word-spacing:normal;text-transform:none;writing-mode:lr-tb;direction:ltr;text-orientation:mixed;dominant-baseline:auto;baseline-shift:baseline;text-anchor:start;white-space:normal;shape-padding:0;clip-rule:nonzero;display:inline;overflow:visible;visibility:visible;opacity:1;isolation:auto;mix-blend-mode:normal;color-interpolation:sRGB;color-interpolation-filters:linearRGB;solid-color:#000000;solid-opacity:1;vector-effect:none;fill:#000000;fill-opacity:1;fill-rule:evenodd;stroke:none;stroke-width:18.89763832;stroke-linecap:round;stroke-linejoin:miter;stroke-miterlimit:4;stroke-dasharray:none;stroke-dashoffset:0;stroke-opacity:1;color-rendering:auto;image-rendering:auto;shape-rendering:auto;text-rendering:auto;enable-background:accumulate" />
  </g>
</svg>
