<?xml version="1.0" encoding="UTF-8"?>
<svg xmlns="http://www.w3.org/2000/svg" xmlns:xlink="http://www.w3.org/1999/xlink" width="512px" height="512px" viewBox="0 0 512 512" version="1.1">
  <defs/>
  <g fill="#000000" id="layer1">
    <path d="M219.428574,0 L73.1428604,0 L0,73.1428604 L0,219.428566 L292.571442,512 L512,292.571442 L219.428574,0 Z M36.5714302,201.142853 L36.5714302,91.4285736 L91.4285736,36.5714302 L201.142853,36.5714302 L457.142853,292.57143 L292.571442,457.142853 L36.5714302,201.142853 Z M256,146.285721 L146.285721,256 L292.571442,402.285706 L402.285705,292.571442 L256,146.285721 Z M201.142853,256 L256,201.142853 L347.428558,292.571442 L292.571442,347.428558 L201.142853,256 Z M118.836617,143.824585 C106.673798,136.812592 106.673798,119.187409 118.836609,112.175415 C130.999435,105.163406 146.285507,113.975998 146.285507,128 C146.285507,142.024002 130.999435,150.836594 118.836617,143.824585 Z M182.856995,128 C182.856995,85.9276123 136.998367,59.4896088 100.509583,80.5258026 C64.0207977,101.561996 64.0208053,154.438019 100.509598,175.474197 C136.99839,196.510376 182.856995,170.072388 182.856995,128 Z" id="Shape"/>
  </g>
</svg>
