<?xml version="1.0" encoding="UTF-8" standalone="no"?>
<!-- Created with Inkscape (http://www.inkscape.org/) -->

<svg
   xmlns:dc="http://purl.org/dc/elements/1.1/"
   xmlns:cc="http://creativecommons.org/ns#"
   xmlns:rdf="http://www.w3.org/1999/02/22-rdf-syntax-ns#"
   xmlns:svg="http://www.w3.org/2000/svg"
   xmlns="http://www.w3.org/2000/svg"
   xmlns:sodipodi="http://sodipodi.sourceforge.net/DTD/sodipodi-0.dtd"
   xmlns:inkscape="http://www.inkscape.org/namespaces/inkscape"
   version="1.0"
   width="468pt"
   height="468pt"
   viewBox="0 0 468 468"
   id="svg2"
   inkscape:version="0.91pre3 r13670"
   sodipodi:docname="taster_ch6_5.svg">
  <sodipodi:namedview
     pagecolor="#ffffff"
     bordercolor="#666666"
     borderopacity="1"
     objecttolerance="10"
     gridtolerance="10"
     guidetolerance="10"
     inkscape:pageopacity="0"
     inkscape:pageshadow="2"
     inkscape:window-width="1050"
     inkscape:window-height="714"
     id="namedview8"
     showgrid="false"
     inkscape:zoom="0.4034188"
     inkscape:cx="-101.63136"
     inkscape:cy="391.65254"
     inkscape:window-x="811"
     inkscape:window-y="133"
     inkscape:window-maximized="0"
     inkscape:current-layer="svg2" />
  <defs
     id="defs12" />
  <metadata
     id="metadata4">
Created by potrace 1.8, written by Peter Selinger 2001-2007
<rdf:RDF>
  <cc:Work
     rdf:about="">
    <dc:format>image/svg+xml</dc:format>
    <dc:type
       rdf:resource="http://purl.org/dc/dcmitype/StillImage" />
    <dc:title></dc:title>
  </cc:Work>
</rdf:RDF>
</metadata>
  <g
     transform="matrix(0.258564,0,0,-0.258564,0,468)"
     id="g6"
     stroke="none"
     fill="#000000">
    <path
       d="M 97,1796 C 46,1777 22,1754 10,1711 4,1688 0,1385 0,897 0,55 -2,82 55,30 L 82,5 893,2 c 758,-2 814,-1 847,15 73,37 70,-6 70,888 0,775 -1,801 -20,832 -44,73 16,68 -865,70 -650,2 -797,0 -828,-11 z m 1573,-896 0,-770 -765,0 -765,0 0,770 0,770 765,0 765,0 0,-770 z"
       id="path8" />
  </g>
  <rect
     id="rect2987"
     width="405.61017"
     height="14.872881"
     x="29.603392"
     y="154.21364"
     style="fill:#000000" />
  <rect
     id="rect2987-6"
     width="403.62711"
     height="14.872881"
     x="34.169491"
     y="304.28558"
     style="fill:#000000" />
  <rect
     id="rect2987-9"
     width="14.949151"
     height="399.58475"
     x="152.85928"
     y="36.190678"
     style="fill:#000000" />
  <rect
     id="rect2987-9-5"
     width="14.949152"
     height="399.58475"
     x="292.4848"
     y="34.207626"
     style="fill:#000000" />
  <rect
     style="fill:#000000;fill-opacity:1;fill-rule:evenodd;stroke:none;stroke-width:0.80000001px;stroke-linecap:butt;stroke-linejoin:miter;stroke-opacity:1"
     id="rect3338"
     width="134.84746"
     height="140.79662"
     x="28.145758"
     y="313.32202" />
</svg>
