<?xml version="1.0" encoding="UTF-8" standalone="no"?>
<!-- Created with Inkscape (http://www.inkscape.org/) -->

<svg
   xmlns:dc="http://purl.org/dc/elements/1.1/"
   xmlns:cc="http://creativecommons.org/ns#"
   xmlns:rdf="http://www.w3.org/1999/02/22-rdf-syntax-ns#"
   xmlns:svg="http://www.w3.org/2000/svg"
   xmlns="http://www.w3.org/2000/svg"
   id="svg2"
   viewBox="0 0 468 468"
   height="468pt"
   width="468pt"
   version="1.0">
  <defs
     id="defs12" />
  <metadata
     id="metadata4">
Created by potrace 1.8, written by Peter Selinger 2001-2007
<rdf:RDF>
  <cc:Work
     rdf:about="">
    <dc:format>image/svg+xml</dc:format>
    <dc:type
       rdf:resource="http://purl.org/dc/dcmitype/StillImage" />
    <dc:title></dc:title>
  </cc:Work>
</rdf:RDF>
</metadata>
  <g
     fill="#000000"
     stroke="none"
     id="g6"
     transform="matrix(0.258564,0,0,-0.258564,0,468)">
    <path
       id="path8"
       d="M 97,1796 C 46,1777 22,1754 10,1711 4,1688 0,1385 0,897 0,55 -2,82 55,30 L 82,5 893,2 c 758,-2 814,-1 847,15 73,37 70,-6 70,888 0,775 -1,801 -20,832 -44,73 16,68 -865,70 -650,2 -797,0 -828,-11 z m 1573,-896 0,-770 -765,0 -765,0 0,770 0,770 765,0 765,0 0,-770 z" />
  </g>
  <rect
     fill="#000000"
     id="rect2989"
     y="209.12207"
     x="202.78989"
     height="49.576271"
     width="49.576271" />
  <rect
     fill="#000000"
     y="227"
     x="55"
     height="14.872881"
     width="360"
     id="rect2987" />
  <g
     id="flowRoot3336"
     style="font-style:normal;font-weight:normal;font-size:187.5px;line-height:125%;font-family:sans-serif;text-align:center;letter-spacing:0px;word-spacing:0px;text-anchor:middle;fill:#d40000;fill-opacity:1;stroke:none;stroke-width:1px;stroke-linecap:butt;stroke-linejoin:miter;stroke-opacity:1"
     transform="scale(0.8,0.8)">
    <path
       id="path3345"
       style="font-style:normal;font-variant:normal;font-weight:normal;font-stretch:normal;font-size:187.5px;font-family:Arial;-inkscape-font-specification:Arial;text-align:center;text-anchor:middle;fill:#d40000"
       d="m 128.0647,491.88738 51.54419,-134.21631 19.13452,0 54.93164,134.21631 -20.23316,0 -15.65551,-40.64942 -56.12183,0 -14.73999,40.64942 -18.85986,0 z m 38.7268,-55.11475 45.50171,0 -14.00757,-37.17041 q -6.40869,-16.93725 -9.52148,-27.83203 -2.56348,12.90894 -7.23267,25.63477 l -14.73999,39.36767 z" />
    <path
       id="path3347"
       style="font-style:normal;font-variant:normal;font-weight:normal;font-stretch:normal;font-size:187.5px;font-family:Arial;-inkscape-font-specification:Arial;text-align:center;text-anchor:middle;fill:#d40000"
       d="m 329.66382,491.88738 0,-14.28223 q -11.35254,16.47949 -30.85327,16.47949 -8.60596,0 -16.11328,-3.29589 -7.41578,-3.2959 -11.07789,-8.23975 -3.57055,-5.0354 -5.0354,-12.26807 -1.00708,-4.85229 -1.00708,-15.38086 l 0,-60.2417 16.4795,0 0,53.92456 q 0,12.90894 1.00708,17.39502 1.55639,6.50025 6.59179,10.25391 5.0354,3.66211 12.45118,3.66211 7.41577,0 13.91601,-3.75366 6.50025,-3.84522 9.15527,-10.34546 2.74659,-6.5918 2.74659,-19.04297 l 0,-52.09351 16.47949,0 0,97.22901 -14.73999,0 z" />
    <path
       id="path3349"
       style="font-style:normal;font-variant:normal;font-weight:normal;font-stretch:normal;font-size:187.5px;font-family:Arial;-inkscape-font-specification:Arial;text-align:center;text-anchor:middle;fill:#d40000"
       d="m 363.72144,462.86516 16.29638,-2.56348 q 1.37329,9.79615 7.59888,15.01465 6.31714,5.21851 17.57812,5.21851 11.35254,0 16.84571,-4.57764 5.49316,-4.66919 5.49316,-10.89477 0,-5.58472 -4.85229,-8.78907 -3.38745,-2.19726 -16.84571,-5.58471 -18.12744,-4.57764 -25.177,-7.87354 -6.95801,-3.38745 -10.62012,-9.24682 -3.57055,-5.95093 -3.57055,-13.09204 0,-6.50025 2.92969,-11.99341 3.02124,-5.58472 8.14819,-9.24683 3.84521,-2.83813 10.43701,-4.76074 6.68335,-2.01416 14.28223,-2.01416 11.44409,0 20.05005,3.2959 8.69751,3.2959 12.81738,8.97216 4.11987,5.58472 5.67627,15.01465 l -16.11328,2.19727 q -1.09864,-7.50733 -6.40869,-11.71875 -5.21851,-4.21143 -14.83155,-4.21143 -11.35254,0 -16.20483,3.75367 -4.8523,3.75366 -4.8523,8.78906 0,3.20434 2.01416,5.76782 2.01416,2.65503 6.31714,4.39453 2.47193,0.91553 14.55689,4.21143 17.48657,4.66919 24.35302,7.69043 6.95801,2.92968 10.89478,8.60595 3.93677,5.67627 3.93677,14.09912 0,8.23975 -4.8523,15.56397 -4.76074,7.23267 -13.82446,11.26099 -9.06372,3.93676 -20.50781,3.93676 -18.95142,0 -28.93067,-7.87353 -9.88769,-7.87354 -12.63427,-23.34595 z" />
  </g>
</svg>
