<?xml version="1.0" encoding="UTF-8" standalone="no"?>
<!-- Created with Inkscape (http://www.inkscape.org/) -->

<svg
   xmlns:dc="http://purl.org/dc/elements/1.1/"
   xmlns:cc="http://creativecommons.org/ns#"
   xmlns:rdf="http://www.w3.org/1999/02/22-rdf-syntax-ns#"
   xmlns:svg="http://www.w3.org/2000/svg"
   xmlns="http://www.w3.org/2000/svg"
   id="svg2"
   viewBox="0 0 468 468"
   height="468pt"
   width="468pt"
   version="1.0">
  <defs
     id="defs12" />
  <metadata
     id="metadata4">
Created by potrace 1.8, written by Peter Selinger 2001-2007
<rdf:RDF>
  <cc:Work
     rdf:about="">
    <dc:format>image/svg+xml</dc:format>
    <dc:type
       rdf:resource="http://purl.org/dc/dcmitype/StillImage" />
    <dc:title></dc:title>
  </cc:Work>
</rdf:RDF>
</metadata>
  <g
     fill="#000000"
     stroke="none"
     id="g6"
     transform="matrix(0.258564,0,0,-0.258564,0,468)">
    <path
       id="path8"
       d="M 97,1796 C 46,1777 22,1754 10,1711 4,1688 0,1385 0,897 0,55 -2,82 55,30 L 82,5 893,2 c 758,-2 814,-1 847,15 73,37 70,-6 70,888 0,775 -1,801 -20,832 -44,73 16,68 -865,70 -650,2 -797,0 -828,-11 z m 1573,-896 0,-770 -765,0 -765,0 0,770 0,770 765,0 765,0 0,-770 z" />
  </g>
  <rect
     fill="#000000"
     id="rect2989"
     y="209.12207"
     x="202.78989"
     height="49.576271"
     width="49.576271" />
  <rect
     fill="#000000"
     y="227"
     x="55"
     height="14.872881"
     width="360"
     id="rect2987" />
  <g
     id="flowRoot3351"
     style="font-style:normal;font-weight:normal;font-size:187.5px;line-height:125%;font-family:sans-serif;text-align:center;letter-spacing:0px;word-spacing:0px;text-anchor:middle;fill:#338000;fill-opacity:1;stroke:none;stroke-width:1px;stroke-linecap:butt;stroke-linejoin:miter;stroke-opacity:1"
     transform="scale(0.8,0.8)">
    <path
       id="path3360"
       style=""
       d="m 296.12061,226.10895 -19.31763,0 -13.3667,-37.99438 -58.95996,0 -13.3667,37.99438 -18.4021,0 49.62158,-136.322021 24.16992,0 49.62159,136.322021 z m -38.26905,-53.55835 -23.89526,-66.92505 -23.98682,66.92505 47.88208,0 z" />
    <path
       id="path3362"
       style=""
       d="m 400.94849,226.10895 -17.21192,0 0,-58.22754 q 0,-7.04956 -0.82397,-13.18359 -0.82398,-6.22559 -3.02124,-9.70459 -2.28882,-3.84522 -6.5918,-5.67627 -4.30298,-1.92261 -11.16943,-1.92261 -7.04956,0 -14.73999,3.479 -7.69043,3.47901 -14.73999,8.88062 l 0,76.35498 -17.21192,0 0,-102.2644 17.21192,0 0,11.35254 q 8.05664,-6.68335 16.66259,-10.43702 8.60596,-3.75366 17.66968,-3.75366 16.57105,0 25.26856,9.97925 8.69751,9.97925 8.69751,28.74756 l 0,66.37573 z" />
  </g>
</svg>
