<?xml version="1.0" encoding="UTF-8" standalone="no"?>
<!-- Created with Inkscape (http://www.inkscape.org/) -->

<svg
   xmlns:dc="http://purl.org/dc/elements/1.1/"
   xmlns:cc="http://creativecommons.org/ns#"
   xmlns:rdf="http://www.w3.org/1999/02/22-rdf-syntax-ns#"
   xmlns:svg="http://www.w3.org/2000/svg"
   xmlns="http://www.w3.org/2000/svg"
   xmlns:sodipodi="http://sodipodi.sourceforge.net/DTD/sodipodi-0.dtd"
   xmlns:inkscape="http://www.inkscape.org/namespaces/inkscape"
   version="1.0"
   width="468pt"
   height="468pt"
   viewBox="0 0 468 468"
   id="svg2"
   inkscape:version="0.91pre3 r13670"
   sodipodi:docname="taster_ch_1.svg">
  <sodipodi:namedview
     pagecolor="#ffffff"
     bordercolor="#666666"
     borderopacity="1"
     objecttolerance="10"
     gridtolerance="10"
     guidetolerance="10"
     inkscape:pageopacity="0"
     inkscape:pageshadow="2"
     inkscape:window-width="1858"
     inkscape:window-height="1057"
     id="namedview8"
     showgrid="false"
     inkscape:zoom="0.4034188"
     inkscape:cx="292.5"
     inkscape:cy="292.5"
     inkscape:window-x="1974"
     inkscape:window-y="-8"
     inkscape:window-maximized="1"
     inkscape:current-layer="svg2" />
  <defs
     id="defs12" />
  <metadata
     id="metadata4">
Created by potrace 1.8, written by Peter Selinger 2001-2007
<rdf:RDF>
  <cc:Work
     rdf:about="">
    <dc:format>image/svg+xml</dc:format>
    <dc:type
       rdf:resource="http://purl.org/dc/dcmitype/StillImage" />
    <dc:title></dc:title>
  </cc:Work>
</rdf:RDF>
</metadata>
  <g
     transform="matrix(0.258564,0,0,-0.258564,0,468)"
     id="g6"
     stroke="none"
     fill="#000000">
    <path
       d="M 97,1796 C 46,1777 22,1754 10,1711 4,1688 0,1385 0,897 0,55 -2,82 55,30 L 82,5 893,2 c 758,-2 814,-1 847,15 73,37 70,-6 70,888 0,775 -1,801 -20,832 -44,73 16,68 -865,70 -650,2 -797,0 -828,-11 z m 1573,-896 0,-770 -765,0 -765,0 0,770 0,770 765,0 765,0 0,-770 z"
       id="path8" />
  </g>
  <rect
     width="49.576271"
     height="49.576271"
     x="202.78989"
     y="209.12207"
     id="rect2989"
     fill="#000000" />
  <rect
     id="rect2987"
     width="360"
     height="14.872881"
     x="55"
     y="227"
     fill="#000000" />
  <g
     style="font-style:normal;font-weight:normal;font-size:32px;line-height:125%;font-family:sans-serif;letter-spacing:0px;word-spacing:0px;fill:#000000;fill-opacity:1;stroke:none;stroke-width:1px;stroke-linecap:butt;stroke-linejoin:miter;stroke-opacity:1"
     id="text3336">
    <path
       d="m 149.80257,138.59309 20.17968,6.39844 q -4.64062,16.875 -15.46875,25.10156 -10.75781,8.15625 -27.35156,8.15625 -20.53125,0 -33.749998,-13.99218 -13.21875,-14.0625 -13.21875,-38.39063 0,-25.73437 13.289062,-39.937499 13.289066,-14.273437 34.945316,-14.273437 18.91406,0 30.72656,11.179687 7.03125,6.609375 10.54687,18.984379 l -20.60156,4.92187 q -1.82812,-8.015624 -7.66406,-12.656249 -5.76563,-4.640625 -14.0625,-4.640625 -11.46094,0 -18.63281,8.226563 -7.10157,8.226561 -7.10157,26.648441 0,19.54687 7.03125,27.84375 7.03125,8.29687 18.28125,8.29687 8.29688,0 14.27344,-5.27344 5.97656,-5.27343 8.57813,-16.59375 z"
       style="font-style:normal;font-variant:normal;font-weight:bold;font-stretch:normal;font-size:144px;font-family:Arial;-inkscape-font-specification:'Arial Bold'"
       id="path3341" />
    <path
       d="m 187.98225,176.49153 0,-103.078124 20.8125,0 0,40.570314 40.78125,0 0,-40.570314 20.8125,0 0,103.078124 -20.8125,0 0,-45.07031 -40.78125,0 0,45.07031 -20.8125,0 z"
       style="font-style:normal;font-variant:normal;font-weight:bold;font-stretch:normal;font-size:144px;font-family:Arial;-inkscape-font-specification:'Arial Bold'"
       id="path3343" />
    <path
       d="m 378.10725,176.49153 -19.75781,0 0,-74.46094 q -10.82812,10.125 -25.52344,14.97657 l 0,-17.929691 q 7.73438,-2.53125 16.80469,-9.5625 9.07031,-7.101563 12.44531,-16.523438 l 16.03125,0 0,103.499999 z"
       style="font-style:normal;font-variant:normal;font-weight:bold;font-stretch:normal;font-size:144px;font-family:Arial;-inkscape-font-specification:'Arial Bold'"
       id="path3345" />
  </g>
</svg>
