<?xml version="1.0" encoding="UTF-8"?>
<svg xmlns="http://www.w3.org/2000/svg" xmlns:xlink="http://www.w3.org/1999/xlink" width="754px" height="730px" viewBox="0 0 754 730" version="1.1">
  <defs/>
  <g fill="#000000" id="layer1">
    <path d="M751.665,146.546 L688.336,12.239 C683.626,2.25 671.708,-2.032 661.717,2.679 L345.267,151.893 L425.645,322.384 L742.106,173.165 C746.903,170.902 750.606,166.827 752.399,161.835 C754.192,156.843 753.928,151.345 751.665,146.546 Z" id="Shape"></path>
    <path d="M148.854,285.106 L11.898,349.688 C1.908,354.4 -2.373,366.317 2.338,376.308 L34.343,444.181 C37.755,451.415 44.945,455.656 52.447,455.656 C55.304,455.656 58.208,455.041 60.963,453.741 L197.92,389.163 L148.854,285.106 Z" id="Shape"></path>
    <path d="M317.947,187.597 L178.176,253.503 L240.958,386.649 L380.729,320.742 L381.002,321.323 C381.007,321.333 381.012,321.342 381.017,321.351 L317.947,187.597 Z" id="Shape"></path>
    <path d="M553.271,700.54 L405.044,393.309 L456.132,393.309 C467.178,393.309 476.132,384.355 476.132,373.309 L476.132,358.5 L476.132,332.05 L348.96,393.309 L200.73,700.54 C195.931,710.488 200.105,722.443 210.052,727.243 C212.855,728.596 215.814,729.235 218.73,729.235 C226.166,729.235 233.308,725.068 236.757,717.921 L357.001,468.692 L357.001,709.23 C357.001,720.276 365.955,729.23 377.001,729.23 C388.047,729.23 397.001,720.276 397.001,709.23 L397.001,468.692 L517.245,717.921 C520.693,725.068 527.835,729.235 535.272,729.235 C538.186,729.235 541.147,728.594 543.948,727.243 C553.897,722.444 558.071,710.488 553.271,700.54 Z" id="Shape"></path>
  </g>
</svg>
