<?xml version="1.0" encoding="UTF-8"?>
<svg xmlns="http://www.w3.org/2000/svg" xmlns:xlink="http://www.w3.org/1999/xlink" width="512px" height="440px" viewBox="0 0 512 440" version="1.1">
  <defs/>
  <g fill="#000000" id="layer1">
    <path d="M475.428558,0.5714302 L36.5714302,0.5714302 C16.3714294,0.5714302 0,16.942852 0,37.1428604 L0,402.857155 C0,423.057137 16.3714275,439.428566 36.5714302,439.428566 L475.428547,439.428566 C495.628571,439.428558 512,423.057129 512,402.857147 L512,37.1428604 C512,16.942852 495.628571,0.5714302 475.428558,0.5714302 Z M73.1428604,256.571442 L146.285721,183.428574 L73.1428604,110.285721 L109.714287,73.7142869 L219.428574,183.428574 L109.714287,293.142853 L73.1428604,256.571442 Z M365.714294,293.142853 L219.428574,293.142853 L219.428574,256.571442 L365.714294,256.571442 L365.714294,293.142853 L365.714294,293.142853 Z" id="Shape"/>
  </g>
</svg>
