<?xml version="1.0" encoding="UTF-8" standalone="no"?>
<!-- Created with Inkscape (http://www.inkscape.org/) -->

<svg
   xmlns:dc="http://purl.org/dc/elements/1.1/"
   xmlns:cc="http://creativecommons.org/ns#"
   xmlns:rdf="http://www.w3.org/1999/02/22-rdf-syntax-ns#"
   xmlns:svg="http://www.w3.org/2000/svg"
   xmlns="http://www.w3.org/2000/svg"
   xmlns:sodipodi="http://sodipodi.sourceforge.net/DTD/sodipodi-0.dtd"
   xmlns:inkscape="http://www.inkscape.org/namespaces/inkscape"
   width="588"
   height="588"
   viewBox="0 0 155.575 155.575"
   version="1.1"
   id="svg8"
   inkscape:version="0.92.4 (5da689c313, 2019-01-14)"
   sodipodi:docname="terrasse_icon.svg">
  <defs
     id="defs2" />
  <sodipodi:namedview
     id="base"
     pagecolor="#ffffff"
     bordercolor="#666666"
     borderopacity="1.0"
     inkscape:pageopacity="0.0"
     inkscape:pageshadow="2"
     inkscape:zoom="0.5"
     inkscape:cx="3.3370848"
     inkscape:cy="354.78314"
     inkscape:document-units="mm"
     inkscape:current-layer="layer1"
     showgrid="false"
     units="px"
     inkscape:window-width="1366"
     inkscape:window-height="716"
     inkscape:window-x="-8"
     inkscape:window-y="-8"
     inkscape:window-maximized="1" />
  <metadata
     id="metadata5">
    <rdf:RDF>
      <cc:Work
         rdf:about="">
        <dc:format>image/svg+xml</dc:format>
        <dc:type
           rdf:resource="http://purl.org/dc/dcmitype/StillImage" />
        <dc:title></dc:title>
      </cc:Work>
    </rdf:RDF>
  </metadata>
  <g
     inkscape:label="Ebene 1"
     inkscape:groupmode="layer"
     id="layer1"
     transform="translate(0,-141.42498)">
    <g
       inkscape:label="Layer 1"
       id="22aa5019-b517-444c-b4e2-e6b5a3501f5c"
       transform="translate(-0.37368168,141.51872)" />
    <g
       inkscape:label="Layer 1"
       id="22aa5019-b517-444c-b4e2-e6b5a3501f5c-3"
       transform="translate(1.3413293,143.28111)" />
    <path
       style="fill:#000000;fill-opacity:1;stroke-width:0.70710677"
       d="m 26.199939,581.92905 c -1.458913,-1.5013 -2.65165,-3.4394 -2.65165,-4.30873 0,-0.86902 3.659277,-23.51873 8.131727,-50.33267 4.472451,-26.81395 8.131728,-49.23842 8.131728,-49.83217 0,-0.86926 -1.00425,-1.07952 -5.156075,-1.07952 -5.139058,0 -5.165897,-0.01 -8.131728,-3.03197 l -2.975652,-3.03197 V 450.33168 430.35135 L 14.709454,342.02567 C 9.8480947,293.44655 5.8706191,252.31642 5.8706191,250.62539 c 0,-2.54958 0.3981736,-3.46053 2.3317604,-5.33464 1.8798655,-1.82204 2.9144505,-2.26003 5.3384155,-2.26003 3.45516,0 6.797855,1.50199 7.891815,3.54608 0.754114,1.40907 17.672028,166.93384 17.672028,172.90302 v 3.15602 H 90.6478 c 58.01154,0 57.83235,-0.0132 69.01854,5.08871 5.14587,2.34698 7.42374,3.93107 11.90079,8.27608 7.4868,7.26601 11.05727,14.22306 12.77568,24.89338 1.15158,7.15063 1.14905,7.62197 -0.0544,10.14558 -2.27561,4.772 -4.43596,5.33637 -20.42695,5.33637 -12.94634,0 -13.85899,0.0843 -13.40184,1.23743 0.26981,0.68059 4.14379,23.03401 8.60883,49.67426 9.07054,54.11839 8.92805,52.1128 3.94319,55.50009 -3.58319,2.43484 -6.26411,2.27633 -9.62731,-0.5692 l -2.74644,-2.32371 -8.59489,-51.58266 -8.59489,-51.58266 -37.907373,-0.18289 -37.907375,-0.18287 -0.779199,3.36486 c -0.428553,1.85067 -4.286274,24.68413 -8.572707,50.74102 -4.322101,26.27369 -8.288726,48.36273 -8.90529,49.59107 -1.264591,2.51937 -2.995348,3.48389 -7.427255,4.13911 -2.91836,0.43146 -3.250587,0.30023 -5.749002,-2.27076 z"
       id="path1654"
       inkscape:connector-curvature="0"
       transform="matrix(0.26458333,0,0,0.26458333,0,141.42498)" />
    <path
       style="fill:#000000;fill-opacity:1;stroke-width:0.70710677"
       d="m 225.45188,582.36873 c -2.31225,-2.03019 -2.49948,-2.49651 -2.49948,-6.22526 0,-3.63106 0.23118,-4.25475 2.33176,-6.2907 l 2.33176,-2.26004 h 28.66564 28.66564 l 0.47562,-35.65627 c 0.26159,-19.61096 0.26118,-60.65851 -7.1e-4,-91.21678 l -0.47673,-55.5605 h -55.96007 -55.96007 l -2.39544,-2.47146 -2.39544,-2.47147 -0.39492,-15.38298 -0.39492,-15.38298 -15.18412,-0.1913 -15.18411,-0.1913 -2.31678,-2.24551 c -2.03619,-1.97355 -2.31678,-2.69348 -2.31678,-5.9444 0,-3.4104 0.2056,-3.86837 2.63599,-5.8717 l 2.63598,-2.1728 h 73.73423 73.73422 l -0.17945,-90.68644 -0.17946,-90.68645 -53.12731,-0.35355 -53.12732,-0.35355 22.16873,-27.93072 c 12.19279,-15.3619 25.51858,-32.226393 29.61286,-37.476661 44.16957,-56.640586 61.2901,-77.8948514 62.40156,-77.4683433 0.5643,0.2165375 1.77377,0.3937045 2.68773,0.3937045 1.33649,0 5.31722,4.6019338 20.33756,23.5113008 10.27169,12.931215 22.89682,29.079766 28.05584,35.885669 5.15903,6.805902 10.28532,13.328962 11.39177,14.495689 1.10645,1.166726 13.77052,17.076628 28.14239,35.355341 l 26.13067,33.23402 -53.14485,0.35355 -53.14485,0.35355 -0.17946,90.68645 -0.17945,90.68644 h 73.65181 73.65182 l 2.26122,1.72472 c 3.49918,2.66895 4.26986,5.22993 2.8554,9.48848 -0.64169,1.93194 -1.7072,3.77828 -2.36781,4.10297 -0.66061,0.32469 -8.20146,0.7502 -16.75746,0.94559 l -15.55635,0.35525 -0.35355,14.84924 c -0.33044,13.87845 -0.4585,15.01802 -1.95885,17.43074 -0.88292,1.41981 -2.10218,2.77215 -2.70948,3.0052 -0.60731,0.23304 -25.88642,0.42371 -56.1758,0.42371 -53.72401,0 -55.08953,0.0335 -55.80361,1.36773 -0.49356,0.92222 -0.73198,30.63378 -0.73198,91.21678 v 89.84904 h 28.85266 28.85267 l 2.26003,2.33176 c 1.99521,2.05854 2.26003,2.79566 2.26003,6.29072 0,3.64662 -0.19717,4.13207 -2.49948,6.15352 l -2.49947,2.19456 h -66.06528 -66.06527 z"
       id="path1656"
       inkscape:connector-curvature="0"
       transform="matrix(0.26458333,0,0,0.26458333,0,141.42498)" />
    <path
       style="fill:#000000;fill-opacity:1;stroke-width:0.70710677"
       d="m 425.10022,582.84118 c -4.96175,-3.3716 -5.15784,-0.57136 3.84829,-54.95425 4.46636,-26.96986 8.23094,-49.5134 8.36573,-50.09676 0.2093,-0.90585 -1.76746,-1.11226 -13.54351,-1.41421 -12.41945,-0.31845 -14.07438,-0.50652 -16.66675,-1.89411 -5.02974,-2.69219 -5.36435,-7.01952 -1.60038,-20.69739 3.95541,-14.3736 17.57914,-26.38538 33.82347,-29.82151 5.46432,-1.15585 10.71646,-1.2739 57.80598,-1.29923 l 51.79557,-0.0279 v -2.97569 c 0,-1.63662 3.82565,-41.00598 8.50143,-87.48745 l 8.50143,-84.51178 2.24388,-2.3151 c 1.9582,-2.02034 2.70372,-2.3151 5.85556,-2.3151 3.15709,0 3.89612,0.29348 5.87169,2.33176 1.90729,1.96783 2.26003,2.86407 2.26003,5.74229 0,1.8758 -3.97747,43.12106 -8.83883,91.65615 l -8.83884,88.2456 v 19.65275 19.65275 l -2.97565,3.03197 c -2.96583,3.02196 -2.99267,3.03197 -8.13173,3.03197 -4.15182,0 -5.15607,0.21026 -5.15607,1.07952 0,0.59375 3.65928,23.01822 8.13173,49.83217 4.47245,26.81394 8.13172,49.49204 8.13172,50.39576 0,0.97025 -1.09808,2.71537 -2.68146,4.2615 -2.29052,2.23664 -3.14658,2.61838 -5.8717,2.61838 -2.6944,0 -3.54929,-0.37046 -5.50052,-2.38361 l -2.31029,-2.38361 -8.36031,-50.21059 c -4.59818,-27.61582 -8.57535,-50.8881 -8.83817,-51.71617 l -0.47786,-1.50559 -37.92977,0.1829 -37.92978,0.18289 -8.59489,51.58266 -8.59489,51.58266 -2.74644,2.32371 c -3.34348,2.82886 -6.04288,3.00488 -9.54867,0.62264 z"
       id="path1658"
       inkscape:connector-curvature="0"
       transform="matrix(0.26458333,0,0,0.26458333,0,141.42498)" />
    <path
       style="fill:#000000;fill-opacity:1;stroke-width:0.70710677"
       d="M 426.38185,141.03057 C 421.98138,135.48862 406.61054,115.99899 392.22442,97.720278 377.83831,79.441567 359.30085,55.943297 351.03007,45.501899 342.75929,35.060501 336.11866,26.391167 336.27312,26.236713 c 0.32406,-0.324061 3.51655,1.092032 53.55648,23.75602 20.41771,9.247549 63.05625,28.495761 94.75231,42.773804 90.81914,40.911063 95.03533,42.856823 96.32757,44.454993 0.78994,0.97695 1.22728,2.77221 1.23744,5.07974 0.0141,3.20873 -0.25483,3.833 -2.66574,6.18719 l -2.68147,2.61838 h -71.2085 -71.2085 z"
       id="path1660"
       inkscape:connector-curvature="0"
       transform="matrix(0.26458333,0,0,0.26458333,0,141.42498)" />
    <path
       style="fill:#000000;fill-opacity:1;stroke-width:0.70710677"
       d="m 11.116247,150.42176 c -2.3651918,-0.95682 -5.2456279,-4.87366 -5.2456279,-7.13304 0,-1.12902 0.4822902,-3.25244 1.0717561,-4.71871 1.0615856,-2.64067 1.3350212,-2.78493 28.8146008,-15.20198 C 171.58433,61.992445 252.65088,25.471726 252.65088,25.656693 c 0,0.121748 -5.66741,7.317217 -12.59425,15.98993 -6.92684,8.672712 -23.68388,29.928382 -37.23788,47.23482 -13.554,17.306437 -30.0809,38.364357 -36.72645,46.795357 l -12.08281,15.32911 -70.710679,0.006 c -38.890872,0.003 -71.373027,-0.26231 -72.182564,-0.5898 z"
       id="path1662"
       inkscape:connector-curvature="0"
       transform="matrix(0.26458333,0,0,0.26458333,0,141.42498)" />
  </g>
</svg>
