<?xml version="1.0" encoding="UTF-8" standalone="no"?>
<!-- Created with Inkscape (http://www.inkscape.org/) -->

<svg
   xmlns:dc="http://purl.org/dc/elements/1.1/"
   xmlns:cc="http://creativecommons.org/ns#"
   xmlns:rdf="http://www.w3.org/1999/02/22-rdf-syntax-ns#"
   xmlns:svg="http://www.w3.org/2000/svg"
   xmlns="http://www.w3.org/2000/svg"
   xmlns:sodipodi="http://sodipodi.sourceforge.net/DTD/sodipodi-0.dtd"
   xmlns:inkscape="http://www.inkscape.org/namespaces/inkscape"
   width="368.75485"
   height="305.32147"
   viewBox="0 0 368.75486 305.32145"
   id="svg2"
   version="1.1"
   inkscape:version="0.48.4 r9939"
   sodipodi:docname="text_eco0.svg">
  <defs
     id="defs4" />
  <sodipodi:namedview
     id="base"
     pagecolor="#ffffff"
     bordercolor="#666666"
     borderopacity="1.0"
     inkscape:pageopacity="0.0"
     inkscape:pageshadow="2"
     inkscape:zoom="0.35"
     inkscape:cx="168.45405"
     inkscape:cy="-323.82968"
     inkscape:document-units="px"
     inkscape:current-layer="text3343"
     showgrid="false"
     fit-margin-top="1"
     fit-margin-left="1"
     fit-margin-right="1"
     fit-margin-bottom="1"
     showborder="false"
     units="px"
     inkscape:showpageshadow="false"
     inkscape:window-width="1920"
     inkscape:window-height="1153"
     inkscape:window-x="-4"
     inkscape:window-y="-4"
     inkscape:window-maximized="1" />
  <metadata
     id="metadata7">
    <rdf:RDF>
      <cc:Work
         rdf:about="">
        <dc:format>image/svg+xml</dc:format>
        <dc:type
           rdf:resource="http://purl.org/dc/dcmitype/StillImage" />
        <dc:title />
      </cc:Work>
    </rdf:RDF>
  </metadata>
  <g
     inkscape:label="Ebene 1"
     inkscape:groupmode="layer"
     id="layer1"
     transform="translate(1144.7418,88.448958)">
    <g
       style="font-size:180px;font-style:normal;font-variant:normal;font-weight:bold;font-stretch:normal;text-align:start;line-height:89.99999762%;letter-spacing:0px;word-spacing:0px;writing-mode:lr-tb;text-anchor:start;fill:#000000;fill-opacity:1;stroke:none;font-family:Sans;-inkscape-font-specification:'Sans, Bold'"
       id="text3341">
      <g
         style="font-size:180px;font-style:normal;font-variant:normal;font-weight:bold;font-stretch:normal;text-align:start;line-height:89.99999762%;letter-spacing:0px;word-spacing:0px;writing-mode:lr-tb;text-anchor:start;fill:#000000;fill-opacity:1;stroke:none;font-family:Sans;-inkscape-font-specification:'Sans, Bold'"
         id="text3343">
        <g
           style="font-size:182px;text-align:center;line-height:89.99999762%;text-anchor:middle;fill:#000000;font-family:Meiryo;-inkscape-font-specification:Meiryo Bold"
           id="text2998">
          <path
             d="m -1050.4313,49.22876 -93.3105,0 0,-133.922852 93.3105,0 0,22.216797 -64.1621,0 0,28.615234 59.6299,0 0,22.12793 -59.6299,0 0,38.746094 64.1621,0 z"
             style="line-height:89.99999762%;font-family:Meiryo;-inkscape-font-specification:Meiryo Bold"
             id="path2996"
             inkscape:connector-curvature="0" />
          <path
             d="m -921.04065,40.253174 c -11.25662,5.154301 -20.20257,8.383138 -26.83789,9.686523 -6.6355,1.303384 -13.03393,1.955076 -19.19531,1.955078 -20.49875,-2e-6 -36.64295,-6.10221 -48.43265,-18.30664 -11.7897,-12.204399 -17.6845,-29.23726 -17.6845,-51.098633 0,-21.446526 5.9689,-38.434953 17.9067,-50.965332 11.9378,-12.530143 28.03754,-18.795274 48.29931,-18.79541 15.69979,1.36e-4 31.01455,3.762177 45.94434,11.286133 l 0,27.459961 -3.11035,0 c -13.92263,-11.848849 -27.10458,-17.773322 -39.5459,-17.773438 -11.90827,1.16e-4 -21.32818,4.250925 -28.25977,12.752441 -6.93168,8.501722 -10.39753,20.543214 -10.39743,36.124512 -10e-5,15.462942 3.525,27.3859444 10.57517,35.769043 7.05007,8.383161 16.46999,12.574725 28.25976,12.574707 6.16138,1.8e-5 12.17472,-1.081198 18.04004,-3.243652 5.86514,-2.162411 13.06337,-6.976046 21.59473,-14.440918 l 2.84375,0 z"
             style="line-height:89.99999762%;font-family:Meiryo;-inkscape-font-specification:Meiryo Bold"
             id="path2998"
             inkscape:connector-curvature="0" />
          <path
             d="m -842.57092,52.07251 c -20.38026,-3e-6 -36.39115,-6.205889 -48.03272,-18.617676 -11.64161,-12.411756 -17.46241,-29.4298051 -17.4624,-51.054199 -10e-6,-21.74275 5.79117,-38.820044 17.37354,-51.231934 11.58232,-12.411653 27.62283,-18.617539 48.12158,-18.617676 20.43936,1.37e-4 36.47987,6.220834 48.12158,18.66211 11.64147,12.441512 17.46226,29.503995 17.4624,51.1875 -1.4e-4,21.5059045 -5.79131,38.494331 -17.37353,50.965332 -11.58247,12.471032 -27.6526,18.70654 -48.21045,18.706543 z m 0.0889,-118.371094 c -10.60488,1.16e-4 -19.04725,4.236114 -25.32714,12.708008 -6.27999,8.472099 -9.41996,20.469158 -9.41993,35.991211 -3e-5,15.4629418 3.13994,27.4155665 9.41993,35.85791 6.27989,8.442405 14.72226,12.663592 25.32714,12.663574 10.54549,1.8e-5 18.95825,-4.250791 25.23829,-12.752441 6.27984,-8.5015883 9.41981,-20.4542131 9.41992,-35.85791 -1.1e-4,-15.462809 -3.12527,-27.430245 -9.37549,-35.902344 -6.25042,-8.471894 -14.67798,-12.707892 -25.28272,-12.708008 z"
             style="line-height:89.99999762%;font-family:Meiryo;-inkscape-font-specification:Meiryo Bold"
             id="path3000"
             inkscape:connector-curvature="0" />
          <path
             d="m -964.76331,215.87251 c -18.18819,-1e-5 -31.53307,-5.52458 -40.03469,-16.57374 -8.5016,-11.04912 -12.7524,-28.77811 -12.7524,-53.18701 0,-24.17178 4.2656,-41.82671 12.7969,-52.964841 8.53118,-11.137889 21.86124,-16.706894 39.99019,-16.707031 18.12883,1.37e-4 31.4589,5.55433 39.99024,16.662598 8.53114,11.108504 12.79676,28.748624 12.79687,52.920414 -1.1e-4,24.58663 -4.23611,42.37486 -12.708,53.36474 -8.4721,10.98991 -21.83179,16.48486 -40.07911,16.48487 z m 0,-118.726567 c -8.29432,1.16e-4 -14.2336,3.895457 -17.81787,11.686037 -3.58435,7.79078 -5.3765,20.24699 -5.37646,37.36865 -4e-5,17.06255 1.83655,29.50394 5.50976,37.32422 3.67313,7.82033 9.56798,11.73049 17.68457,11.73047 8.11647,2e-5 14.01132,-3.96938 17.68457,-11.90821 3.6731,-7.93876 5.50969,-20.38015 5.50977,-37.32421 -8e-5,-17.06242 -1.79224,-29.47419 -5.37646,-37.23536 -3.58439,-7.76095 -9.52367,-11.641481 -17.81788,-11.641597 z"
             style="line-height:89.99999762%;font-family:Meiryo;-inkscape-font-specification:Meiryo Bold"
             id="path3002"
             inkscape:connector-curvature="0" />
        </g>
      </g>
      <flowRoot
         xml:space="preserve"
         id="flowRoot3351"
         style="font-size:14px;font-style:normal;font-variant:normal;font-weight:normal;font-stretch:normal;text-align:start;line-height:125%;letter-spacing:0px;word-spacing:0px;writing-mode:lr-tb;text-anchor:start;fill:#000000;fill-opacity:1;stroke:none;font-family:Sans;-inkscape-font-specification:Sans"
         transform="translate(-1512.585,-130.43451)"><flowRegion
           id="flowRegion3353"><rect
             id="rect3355"
             width="554.28571"
             height="491.42856"
             x="371.42856"
             y="-71.285995" /></flowRegion><flowPara
           id="flowPara3357" /></flowRoot>      <flowRoot
         xml:space="preserve"
         id="flowRoot3481"
         style="font-size:14px;font-style:normal;font-variant:normal;font-weight:normal;font-stretch:normal;text-align:start;line-height:125%;letter-spacing:0px;word-spacing:0px;writing-mode:lr-tb;text-anchor:start;fill:#000000;fill-opacity:1;stroke:none;font-family:Sans;-inkscape-font-specification:Sans"
         transform="translate(-1512.585,-130.43451)"><flowRegion
           id="flowRegion3483"><rect
             id="rect3485"
             width="734.28571"
             height="645.71429"
             x="-348.57144"
             y="-145.5717" /></flowRegion><flowPara
           id="flowPara3487" /></flowRoot>    </g>
  </g>
</svg>
