<?xml version="1.0" encoding="UTF-8" standalone="no"?>
<!-- Created with Inkscape (http://www.inkscape.org/) -->

<svg
   xmlns:dc="http://purl.org/dc/elements/1.1/"
   xmlns:cc="http://creativecommons.org/ns#"
   xmlns:rdf="http://www.w3.org/1999/02/22-rdf-syntax-ns#"
   xmlns:svg="http://www.w3.org/2000/svg"
   xmlns="http://www.w3.org/2000/svg"
   xmlns:sodipodi="http://sodipodi.sourceforge.net/DTD/sodipodi-0.dtd"
   xmlns:inkscape="http://www.inkscape.org/namespaces/inkscape"
   width="305.3985"
   height="300.14258"
   viewBox="0 0 305.39851 300.14256"
   id="svg2"
   version="1.1"
   inkscape:version="0.91 r13725"
   sodipodi:docname="text_saso.svg">
  <defs
     id="defs4" />
  <sodipodi:namedview
     id="base"
     pagecolor="#ffffff"
     bordercolor="#666666"
     borderopacity="1.0"
     inkscape:pageopacity="0.0"
     inkscape:pageshadow="2"
     inkscape:zoom="0.35"
     inkscape:cx="1213.1261"
     inkscape:cy="-365.59369"
     inkscape:document-units="px"
     inkscape:current-layer="layer1"
     showgrid="false"
     fit-margin-top="1"
     fit-margin-left="1"
     fit-margin-right="1"
     fit-margin-bottom="1"
     showborder="false"
     units="px" />
  <metadata
     id="metadata7">
    <rdf:RDF>
      <cc:Work
         rdf:about="">
        <dc:format>image/svg+xml</dc:format>
        <dc:type
           rdf:resource="http://purl.org/dc/dcmitype/StillImage" />
        <dc:title></dc:title>
      </cc:Work>
    </rdf:RDF>
  </metadata>
  <g
     inkscape:label="Ebene 1"
     inkscape:groupmode="layer"
     id="layer1"
     transform="translate(1512.585,130.43449)">
    <g
       style="font-style:normal;font-variant:normal;font-weight:bold;font-stretch:normal;font-size:180px;line-height:89.99999762%;font-family:Sans;-inkscape-font-specification:'Sans, Bold';text-align:start;letter-spacing:0px;word-spacing:0px;writing-mode:lr-tb;text-anchor:start;fill:#000000;fill-opacity:1;stroke:none;stroke-width:1px;stroke-linecap:butt;stroke-linejoin:miter;stroke-opacity:1"
       id="text3341">
      <path
         d="m -1416.6631,-122.9306 0,27.773434 q -10.8105,-4.833985 -21.0937,-7.294924 -10.2832,-2.46094 -19.4239,-2.46094 -12.1289,0 -17.9297,3.33985 -5.8007,3.339842 -5.8007,10.371092 0,5.273437 3.8672,8.261718 3.955,2.900391 14.2382,5.009766 l 14.4141,2.900391 q 21.8848,4.394531 31.1133,13.359375 9.2285,8.964843 9.2285,25.488281 0,21.708984 -12.9199,32.3437499 -12.8321,10.546875 -39.2871,10.546875 -12.4805,0 -25.0489,-2.3730469 -12.5683,-2.3730469 -25.1367,-7.03125 l 0,-28.564453 q 12.5684,6.679687 24.2578,10.107422 11.7774,3.339844 22.6758,3.339844 11.0742,0 16.9629,-3.691407 5.8887,-3.691406 5.8887,-10.546875 0,-6.152343 -4.043,-9.492187 -3.9551,-3.339844 -15.9082,-5.976563 l -13.0957,-2.90039 q -19.6875,-4.21875 -28.8281,-13.447266 -9.0528,-9.228516 -9.0528,-24.873047 0,-19.599609 12.6563,-30.146489 12.6562,-10.54687 36.3867,-10.54687 10.8106,0 22.2363,1.66992 11.4258,1.58203 23.6426,4.83399 z"
         id="path3348"
         inkscape:connector-curvature="0" />
      <path
         d="m -1335.54,-40.137635 q -9.8438,0 -14.8536,3.339844 -4.9218,3.339843 -4.9218,9.84375 0,5.976562 3.955,9.404296 4.043,3.339844 11.1622,3.339844 8.8769,0 14.9414,-6.328125 6.0644,-6.416015 6.0644,-15.996094 l 0,-3.603515 -16.3476,0 z m 48.0761,-11.865235 0,56.1621098 -31.7285,0 0,-14.5898438 q -6.3281,8.9648438 -14.2383,13.0957031 -7.9101,4.0429688 -19.248,4.0429688 -15.293,0 -24.8731,-8.8769531 -9.4921,-8.9648438 -9.4921,-23.2031248 0,-17.314453 11.8652,-25.400391 11.9531,-8.085937 37.4414,-8.085937 l 18.5449,0 0,-2.460938 q 0,-7.470703 -5.8887,-10.898437 -5.8886,-3.515625 -18.3691,-3.515625 -10.1074,0 -18.8086,2.021484 -8.7012,2.021484 -16.1719,6.064453 l 0,-23.99414 q 10.1075,-2.460938 20.3028,-3.691407 10.1953,-1.318359 20.3906,-1.318359 26.6309,0 38.4082,10.546875 11.8652,10.458984 11.8652,34.101562 z"
         id="path3350"
         inkscape:connector-curvature="0" />
      <path
         d="m -1263.3818,-60.44037 55.1953,0 0,25.576172 -55.1953,0 0,-25.576172 z"
         id="path3352"
         inkscape:connector-curvature="0" />
      <path
         d="m -1416.6631,39.069392 0,27.773437 q -10.8105,-4.833984 -21.0937,-7.294922 -10.2832,-2.460937 -19.4239,-2.460937 -12.1289,0 -17.9297,3.339844 -5.8007,3.339843 -5.8007,10.371093 0,5.273438 3.8672,8.261719 3.955,2.900391 14.2382,5.009766 l 14.4141,2.90039 q 21.8848,4.394532 31.1133,13.359378 9.2285,8.96484 9.2285,25.48828 0,21.70898 -12.9199,32.34375 -12.8321,10.54687 -39.2871,10.54687 -12.4805,0 -25.0489,-2.37304 -12.5683,-2.37305 -25.1367,-7.03125 l 0,-28.56446 q 12.5684,6.67969 24.2578,10.10743 11.7774,3.33984 22.6758,3.33984 11.0742,0 16.9629,-3.69141 5.8887,-3.6914 5.8887,-10.54687 0,-6.15235 -4.043,-9.49219 -3.9551,-3.33984 -15.9082,-5.97656 l -13.0957,-2.90039 q -19.6875,-4.21875 -28.8281,-13.447268 -9.0528,-9.228516 -9.0528,-24.873047 0,-19.59961 12.6563,-30.146485 12.6562,-10.546875 36.3867,-10.546875 10.8106,0 22.2363,1.669922 11.4258,1.582032 23.6426,4.833985 z"
         id="path3354"
         inkscape:connector-curvature="0" />
      <path
         d="m -1332.8154,87.848689 q -10.459,0 -15.9961,7.558593 -5.4492,7.470708 -5.4492,21.621098 0,14.15039 5.4492,21.70898 5.5371,7.4707 15.9961,7.4707 10.2832,0 15.7324,-7.4707 5.4492,-7.55859 5.4492,-21.70898 0,-14.15039 -5.4492,-21.621098 -5.4492,-7.558593 -15.7324,-7.558593 z m 0,-22.5 q 25.4004,0 39.6386,13.710937 14.3262,13.710938 14.3262,37.968754 0,24.25781 -14.3262,37.96875 -14.2382,13.71093 -39.6386,13.71093 -25.4883,0 -39.9024,-13.71093 -14.3261,-13.71094 -14.3261,-37.96875 0,-24.257816 14.3261,-37.968754 14.4141,-13.710937 39.9024,-13.710937 z"
         id="path3356"
         inkscape:connector-curvature="0" />
    </g>
  </g>
</svg>
