<?xml version="1.0" encoding="UTF-8" standalone="no"?>
<!-- Created with Inkscape (http://www.inkscape.org/) -->

<svg
   xmlns:dc="http://purl.org/dc/elements/1.1/"
   xmlns:cc="http://creativecommons.org/ns#"
   xmlns:rdf="http://www.w3.org/1999/02/22-rdf-syntax-ns#"
   xmlns:svg="http://www.w3.org/2000/svg"
   xmlns="http://www.w3.org/2000/svg"
   xmlns:sodipodi="http://sodipodi.sourceforge.net/DTD/sodipodi-0.dtd"
   xmlns:inkscape="http://www.inkscape.org/namespaces/inkscape"
   width="353.47461"
   height="313.2207"
   viewBox="0 0 353.47462 313.22068"
   id="svg2"
   version="1.1"
   inkscape:version="0.91 r13725"
   sodipodi:docname="text_mofr.svg">
  <defs
     id="defs4" />
  <sodipodi:namedview
     id="base"
     pagecolor="#ffffff"
     bordercolor="#666666"
     borderopacity="1.0"
     inkscape:pageopacity="0.0"
     inkscape:pageshadow="2"
     inkscape:zoom="0.45254834"
     inkscape:cx="-285.69099"
     inkscape:cy="-466.92588"
     inkscape:document-units="px"
     inkscape:current-layer="text3341"
     showgrid="false"
     fit-margin-top="1"
     fit-margin-left="1"
     fit-margin-right="1"
     fit-margin-bottom="1"
     showborder="false"
     units="px" />
  <metadata
     id="metadata7">
    <rdf:RDF>
      <cc:Work
         rdf:about="">
        <dc:format>image/svg+xml</dc:format>
        <dc:type
           rdf:resource="http://purl.org/dc/dcmitype/StillImage" />
        <dc:title></dc:title>
      </cc:Work>
    </rdf:RDF>
  </metadata>
  <g
     inkscape:label="Ebene 1"
     inkscape:groupmode="layer"
     id="layer1"
     transform="translate(371.3472,331.08404)">
    <g
       style="font-style:normal;font-variant:normal;font-weight:bold;font-stretch:normal;font-size:180px;line-height:89.99999762%;font-family:Sans;-inkscape-font-specification:'Sans, Bold';text-align:start;letter-spacing:0px;word-spacing:0px;writing-mode:lr-tb;text-anchor:start;fill:#000000;fill-opacity:1;stroke:none;stroke-width:1px;stroke-linecap:butt;stroke-linejoin:miter;stroke-opacity:1"
       id="text3341">
      <g
         style="font-style:normal;font-variant:normal;font-weight:bold;font-stretch:normal;font-size:180px;line-height:100%;font-family:Sans;-inkscape-font-specification:'Sans, Bold';text-align:start;letter-spacing:0px;word-spacing:0px;writing-mode:lr-tb;text-anchor:start;fill:#000000;fill-opacity:1;stroke:none;stroke-width:1px;stroke-linecap:butt;stroke-linejoin:miter;stroke-opacity:1"
         id="text3358">
        <path
           d="m -370.3472,-330.08406 43.06641,0 29.88281,70.22461 30.05859,-70.22461 42.97852,0 0,131.2207 -31.99219,0 0,-95.97656 -30.23437,70.75195 -21.44532,0 -30.23437,-70.75195 0,95.97656 -32.08008,0 0,-131.2207 z"
           id="path3365"
           inkscape:connector-curvature="0" />
        <path
           d="m -145.61087,-277.1739 q -10.45898,0 -15.99609,7.55859 -5.44922,7.4707 -5.44922,21.62109 0,14.15039 5.44922,21.70899 5.53711,7.4707 15.99609,7.4707 10.2832,0 15.73242,-7.4707 5.44922,-7.5586 5.44922,-21.70899 0,-14.15039 -5.44922,-21.62109 -5.44922,-7.55859 -15.73242,-7.55859 z m 0,-22.5 q 25.40039,0 39.63867,13.71093 14.326173,13.71094 14.326173,37.96875 0,24.25782 -14.326173,37.96875 -14.23828,13.71094 -39.63867,13.71094 -25.48828,0 -39.90234,-13.71094 -14.32618,-13.71093 -14.32618,-37.96875 0,-24.25781 14.32618,-37.96875 14.41406,-13.71093 39.90234,-13.71093 z"
           id="path3367"
           inkscape:connector-curvature="0" />
        <path
           d="m -74.067902,-263.46297 55.195313,0 0,25.57617 -55.195313,0 0,-25.57617 z"
           id="path3369"
           inkscape:connector-curvature="0" />
        <path
           d="m -370.3472,-150.08406 91.31836,0 0,25.57617 -57.48047,0 0,24.43359 54.05274,0 0,25.576177 -54.05274,0 0,55.634765 -33.83789,0 0,-131.220702 z"
           id="path3371"
           inkscape:connector-curvature="0" />
        <path
           d="m -187.18314,-90.494217 q -4.13086,-1.933594 -8.26171,-2.8125 -4.04297,-0.966797 -8.17383,-0.966797 -12.12891,0 -18.72071,7.822266 -6.5039,7.734375 -6.5039,22.236328 l 0,45.351562 -31.46485,0 0,-98.437502 31.46485,0 0,16.17188 q 6.06445,-9.66797 13.88672,-14.0625 7.91015,-4.48242 18.89648,-4.48242 1.58203,0 3.42774,0.17578 1.8457,0.0879 5.36132,0.52734 l 0.0879,28.476563 z"
           id="path3373"
           inkscape:connector-curvature="0" />
      </g>
    </g>
  </g>
</svg>
