<?xml version="1.0" encoding="UTF-8" standalone="no"?>
<!-- Created with Inkscape (http://www.inkscape.org/) -->

<svg
   xmlns:dc="http://purl.org/dc/elements/1.1/"
   xmlns:cc="http://creativecommons.org/ns#"
   xmlns:rdf="http://www.w3.org/1999/02/22-rdf-syntax-ns#"
   xmlns:svg="http://www.w3.org/2000/svg"
   xmlns="http://www.w3.org/2000/svg"
   xmlns:sodipodi="http://sodipodi.sourceforge.net/DTD/sodipodi-0.dtd"
   xmlns:inkscape="http://www.inkscape.org/namespaces/inkscape"
   width="371.12958"
   height="326.32864"
   viewBox="0 0 371.12959 326.32862"
   id="svg2"
   version="1.1"
   inkscape:version="0.91 r13725"
   sodipodi:docname="text_i2c.svg">
  <defs
     id="defs4" />
  <sodipodi:namedview
     id="base"
     pagecolor="#ffffff"
     bordercolor="#666666"
     borderopacity="1.0"
     inkscape:pageopacity="0.0"
     inkscape:pageshadow="2"
     inkscape:zoom="0.35"
     inkscape:cx="145.55485"
     inkscape:cy="-385.75913"
     inkscape:document-units="px"
     inkscape:current-layer="text3343"
     showgrid="false"
     fit-margin-top="1"
     fit-margin-left="1"
     fit-margin-right="1"
     fit-margin-bottom="1"
     showborder="false"
     units="px"
     inkscape:showpageshadow="false" />
  <metadata
     id="metadata7">
    <rdf:RDF>
      <cc:Work
         rdf:about="">
        <dc:format>image/svg+xml</dc:format>
        <dc:type
           rdf:resource="http://purl.org/dc/dcmitype/StillImage" />
        <dc:title></dc:title>
      </cc:Work>
    </rdf:RDF>
  </metadata>
  <g
     inkscape:label="Ebene 1"
     inkscape:groupmode="layer"
     id="layer1"
     transform="translate(1121.8426,171.38558)">
    <g
       style="font-style:normal;font-variant:normal;font-weight:bold;font-stretch:normal;font-size:180px;line-height:89.99999762%;font-family:Sans;-inkscape-font-specification:'Sans, Bold';text-align:start;letter-spacing:0px;word-spacing:0px;writing-mode:lr-tb;text-anchor:start;fill:#000000;fill-opacity:1;stroke:none;stroke-width:1px;stroke-linecap:butt;stroke-linejoin:miter;stroke-opacity:1"
       id="text3341">
      <g
         style="font-style:normal;font-variant:normal;font-weight:bold;font-stretch:normal;font-size:180px;line-height:89.99999762%;font-family:Sans;-inkscape-font-specification:'Sans, Bold';text-align:start;letter-spacing:0px;word-spacing:0px;writing-mode:lr-tb;text-anchor:start;fill:#000000;fill-opacity:1;stroke:none;stroke-width:1px;stroke-linecap:butt;stroke-linejoin:miter;stroke-opacity:1"
         id="text3343">
        <path
           d="m -1039.1978,-144.36978 33.8379,0 0,131.220703 -33.8379,0 0,-131.220703 z"
           style=""
           id="path3490" />
        <path
           d="m -968.40674,-125.562 22.45606,0 0,9.67286 -37.08496,0 0,-9.67286 18.62793,-16.44043 q 2.49511,-2.25585 3.6914,-4.40917 1.19629,-2.15333 1.19629,-4.47754 0,-3.58887 -2.42676,-5.77637 -2.39258,-2.1875 -6.3916,-2.1875 -3.07617,0 -6.7334,1.33301 -3.65722,1.29882 -7.82715,3.89648 l 0,-11.21094 q 4.44336,-1.46972 8.78418,-2.22168 4.34082,-0.78613 8.51075,-0.78613 9.16015,0 14.21875,4.0332 5.09277,4.03321 5.09277,11.24512 0,4.16992 -2.15332,7.79297 -2.15332,3.58887 -9.05762,9.63867 l -10.90332,9.57031 z"
           style="font-style:normal;font-variant:normal;font-weight:bold;font-stretch:normal;font-size:70px;line-height:89.99999762%;font-family:Sans;-inkscape-font-specification:'Sans, Bold';text-align:center;writing-mode:lr-tb;baseline-shift:super;text-anchor:middle"
           id="path3492" />
        <path
           d="m -814.14496,-20.356109 q -9.3164,4.833985 -19.42383,7.294922 -10.10742,2.460938 -21.09375,2.460938 -32.7832,0 -51.94336,-18.28125 -19.16015,-18.369141 -19.16015,-49.746094 0,-31.464847 19.16015,-49.746097 19.16016,-18.36914 51.94336,-18.36914 10.98633,0 21.09375,2.46094 10.10743,2.46094 19.42383,7.29492 l 0,27.15821 q -9.4043,-6.41602 -18.54492,-9.4043 -9.14063,-2.98828 -19.24805,-2.98828 -18.10547,0 -28.47656,11.60156 -10.37109,11.601562 -10.37109,31.992187 0,20.302734 10.37109,31.904297 10.37109,11.601562 28.47656,11.601562 10.10742,0 19.24805,-2.988281 9.14062,-2.988281 18.54492,-9.404297 l 0,27.158203 z"
           style=""
           id="path3494" />
        <path
           d="m -1049.2173,68.430996 q 7.9981,0 12.1289,-3.515625 4.1309,-3.515625 4.1309,-10.371093 0,-6.767578 -4.1309,-10.283203 -4.1308,-3.603516 -12.1289,-3.603516 l -18.7207,0 0,27.773437 18.7207,0 z m 1.1426,57.392574 q 10.1953,0 15.293,-4.30664 5.1855,-4.30664 5.1855,-13.00781 0,-8.525389 -5.0976,-12.744139 -5.0977,-4.306641 -15.3809,-4.306641 l -19.8633,0 0,34.36523 19.8633,0 z m 31.4648,-47.197261 q 10.8985,3.164062 16.87504,11.689453 5.97656,8.525391 5.97656,20.917968 0,18.98438 -12.832,28.30078 -12.8321,9.31641 -39.0235,9.31641 l -56.1621,0 0,-131.220705 50.8008,0 q 27.334,0 39.5508,8.261719 12.30467,8.261719 12.30467,26.455078 0,9.580078 -4.48247,16.347656 -4.4824,6.679688 -13.0078,9.931641 z"
           style=""
           id="path3496" />
        <path
           d="m -967.12744,110.53061 0,-60.117192 31.64062,0 0,9.84375 q 0,7.998047 -0.0879,20.126953 -0.0879,12.041016 -0.0879,16.083985 0,11.865234 0.61524,17.138674 0.61523,5.18554 2.10937,7.55859 1.9336,3.07617 5.00977,4.7461 3.16406,1.66992 7.20703,1.66992 9.84375,0 15.46875,-7.5586 5.625,-7.55859 5.625,-21.005856 l 0,-48.603516 31.46484,0 0,98.437502 -31.46484,0 0,-14.23828 q -7.11914,8.61328 -15.11719,12.74414 -7.91016,4.04297 -17.49023,4.04297 -17.05078,0 -26.01563,-10.45899 -8.87695,-10.45898 -8.87695,-30.41015 z"
           style=""
           id="path3498" />
        <path
           d="m -760.84814,53.48959 0,23.90625 q -10.10743,-4.21875 -19.51172,-6.328125 -9.4043,-2.109375 -17.75391,-2.109375 -8.96484,0 -13.35937,2.285156 -4.30665,2.197266 -4.30665,6.855469 0,3.779297 3.25196,5.800781 3.33984,2.021485 11.86523,2.988282 l 5.53711,0.791015 q 24.16992,3.076172 32.51953,10.107422 8.34961,7.031255 8.34961,22.060545 0,15.73242 -11.60156,23.64258 -11.60156,7.91016 -34.62891,7.91016 -9.75586,0 -20.21484,-1.58203 -10.37109,-1.49415 -21.35742,-4.57032 l 0,-23.90625 q 9.40429,4.57032 19.24804,6.85547 9.93165,2.28516 20.12696,2.28516 9.22851,0 13.88672,-2.54883 4.6582,-2.54883 4.6582,-7.55859 0,-4.21875 -3.25195,-6.24024 -3.16407,-2.10937 -12.74414,-3.25195 l -5.53711,-0.70313 q -21.00586,-2.63672 -29.44336,-9.75586 -8.4375,-7.119137 -8.4375,-21.62109 0,-15.644531 10.72265,-23.203125 10.72266,-7.558594 32.8711,-7.558594 8.70117,0 18.28125,1.31836 9.58008,1.318359 20.83008,4.130859 z"
           style=""
           id="path3500" />
      </g>
      <flowRoot
         xml:space="preserve"
         id="flowRoot3351"
         style="font-style:normal;font-variant:normal;font-weight:normal;font-stretch:normal;font-size:14px;line-height:125%;font-family:Sans;-inkscape-font-specification:Sans;text-align:start;letter-spacing:0px;word-spacing:0px;writing-mode:lr-tb;text-anchor:start;fill:#000000;fill-opacity:1;stroke:none;stroke-width:1px;stroke-linecap:butt;stroke-linejoin:miter;stroke-opacity:1"
         transform="translate(-1512.585,-130.43451)"><flowRegion
           id="flowRegion3353"><rect
             id="rect3355"
             width="554.28571"
             height="491.42856"
             x="371.42856"
             y="-71.285995" /></flowRegion><flowPara
           id="flowPara3357"></flowPara></flowRoot>      <flowRoot
         xml:space="preserve"
         id="flowRoot3481"
         style="font-style:normal;font-variant:normal;font-weight:normal;font-stretch:normal;font-size:14px;line-height:125%;font-family:Sans;-inkscape-font-specification:Sans;text-align:start;letter-spacing:0px;word-spacing:0px;writing-mode:lr-tb;text-anchor:start;fill:#000000;fill-opacity:1;stroke:none;stroke-width:1px;stroke-linecap:butt;stroke-linejoin:miter;stroke-opacity:1"
         transform="translate(-1512.585,-130.43451)"><flowRegion
           id="flowRegion3483"><rect
             id="rect3485"
             width="734.28571"
             height="645.71429"
             x="-348.57144"
             y="-145.5717" /></flowRegion><flowPara
           id="flowPara3487"></flowPara></flowRoot>    </g>
  </g>
</svg>
