<?xml version="1.0" encoding="UTF-8" standalone="no"?>
<svg
   xmlns:dc="http://purl.org/dc/elements/1.1/"
   xmlns:cc="http://creativecommons.org/ns#"
   xmlns:rdf="http://www.w3.org/1999/02/22-rdf-syntax-ns#"
   xmlns:svg="http://www.w3.org/2000/svg"
   xmlns="http://www.w3.org/2000/svg"
   xmlns:xlink="http://www.w3.org/1999/xlink"
   xmlns:sodipodi="http://sodipodi.sourceforge.net/DTD/sodipodi-0.dtd"
   xmlns:inkscape="http://www.inkscape.org/namespaces/inkscape"
   version="1.1"
   preserveAspectRatio="xMidYMid meet"
   viewBox="0 0 269.17999 261.47989"
   width="269.17999"
   height="261.47989"
   id="svg17"
   sodipodi:docname="todoist.svg"
   inkscape:version="0.92.1 r15371">
  <metadata
     id="metadata21">
    <rdf:RDF>
      <cc:Work
         rdf:about="">
        <dc:format>image/svg+xml</dc:format>
        <dc:type
           rdf:resource="http://purl.org/dc/dcmitype/StillImage" />
      </cc:Work>
    </rdf:RDF>
  </metadata>
  <sodipodi:namedview
     pagecolor="#ffffff"
     bordercolor="#666666"
     borderopacity="1"
     objecttolerance="10"
     gridtolerance="10"
     guidetolerance="10"
     inkscape:pageopacity="0"
     inkscape:pageshadow="2"
     inkscape:window-width="1280"
     inkscape:window-height="968"
     id="namedview19"
     showgrid="false"
     inkscape:zoom="1.1328125"
     inkscape:cx="320.5"
     inkscape:cy="-59.02"
     inkscape:window-x="0"
     inkscape:window-y="28"
     inkscape:window-maximized="1"
     inkscape:current-layer="svg17" />
  <defs
     id="defs3">
    <path
       d="m 237.39,0.11 1.35,0.13 1.33,0.19 1.31,0.23 1.3,0.29 1.28,0.34 1.26,0.38 1.23,0.43 1.22,0.47 1.19,0.52 1.17,0.56 1.14,0.6 1.11,0.65 1.08,0.68 1.06,0.72 1.03,0.77 0.99,0.79 0.96,0.84 0.93,0.87 0.89,0.9 0.86,0.93 0.83,0.97 0.78,0.99 0.74,1.03 0.71,1.05 0.66,1.08 0.62,1.11 0.58,1.13 0.53,1.16 0.49,1.18 0.44,1.2 0.4,1.22 0.34,1.24 0.3,1.26 0.24,1.28 0.19,1.29 0.14,1.31 0.08,1.32 0.03,1.34 v 195.35 l -0.03,1.33 -0.08,1.33 -0.14,1.31 -0.19,1.29 -0.24,1.28 -0.3,1.26 -0.34,1.24 -0.4,1.22 -0.44,1.2 -0.49,1.18 -0.53,1.16 -0.58,1.13 -0.62,1.11 -0.66,1.08 -0.71,1.05 -0.74,1.03 -0.79,0.99 -0.82,0.97 -0.86,0.93 -0.89,0.91 -0.93,0.87 -0.96,0.83 -1,0.8 -1.03,0.76 -1.05,0.72 -1.09,0.69 -1.11,0.64 -1.14,0.61 -1.17,0.56 -1.19,0.52 -1.21,0.47 -1.24,0.43 -1.25,0.38 -1.28,0.34 -1.3,0.28 -1.31,0.24 -1.34,0.19 -1.34,0.13 -1.37,0.08 -1.37,0.03 H 33.52 l -1.37,-0.03 -1.37,-0.08 -1.34,-0.13 -1.34,-0.19 -1.31,-0.24 -1.3,-0.28 -1.28,-0.34 -1.25,-0.38 -1.24,-0.43 -1.21,-0.47 -1.19,-0.52 -1.17,-0.56 -1.14,-0.6 -1.11,-0.65 -1.09,-0.68 -1.05,-0.73 -1.03,-0.76 -0.99,-0.8 -0.96,-0.83 -0.93,-0.87 -0.9,-0.9 -0.85,-0.94 -0.83,-0.96 -0.78,-1 -0.74,-1.02 -0.71,-1.06 -0.66,-1.08 -0.62,-1.11 -0.58,-1.13 -0.53,-1.16 -0.49,-1.18 -0.44,-1.2 -0.4,-1.22 -0.34,-1.24 -0.3,-1.26 L 0.44,233.17 0.25,231.88 0.11,230.57 0.03,229.24 0,227.91 v -43.75 l 0.87,0.49 0.92,0.52 0.98,0.56 1.03,0.58 1.08,0.61 1.13,0.64 1.16,0.66 1.21,0.68 1.23,0.7 1.27,0.71 1.3,0.74 1.31,0.74 1.34,0.76 1.35,0.76 1.37,0.77 1.38,0.78 1.38,0.78 1.38,0.78 1.38,0.78 1.38,0.78 1.37,0.77 1.36,0.77 1.34,0.75 1.33,0.75 1.3,0.73 1.27,0.72 1.25,0.7 1.21,0.68 1.18,0.66 1.13,0.64 1.09,0.61 1.05,0.59 1,0.56 0.94,0.52 0.88,0.5 0.82,0.46 0.76,0.42 0.69,0.38 0.62,0.34 0.54,0.3 0.3,0.16 0.3,0.15 0.3,0.15 0.3,0.13 0.3,0.13 0.29,0.12 0.3,0.11 0.3,0.1 0.29,0.09 0.3,0.09 0.29,0.08 0.3,0.06 0.29,0.06 0.3,0.06 0.29,0.04 0.29,0.04 0.3,0.02 0.29,0.02 0.29,0.01 0.29,0.01 0.29,-0.01 0.3,-0.01 0.29,-0.03 0.29,-0.03 0.29,-0.03 0.29,-0.05 0.29,-0.05 0.29,-0.07 0.29,-0.07 0.29,-0.07 0.29,-0.09 0.29,-0.1 0.29,-0.1 0.29,-0.11 0.29,-0.12 0.29,-0.12 0.28,-0.14 0.29,-0.14 0.29,-0.15 0.29,-0.16 108.53,-60.67 0.17,-0.1 0.16,-0.12 0.16,-0.12 0.14,-0.13 0.14,-0.14 0.13,-0.15 0.12,-0.15 0.11,-0.16 0.1,-0.17 0.09,-0.17 0.09,-0.18 0.07,-0.18 0.07,-0.18 0.06,-0.19 0.05,-0.2 0.04,-0.19 0.03,-0.2 0.02,-0.2 0.01,-0.2 0.01,-0.2 -0.01,-0.2 -0.01,-0.2 -0.02,-0.21 -0.04,-0.19 -0.04,-0.2 -0.05,-0.2 -0.06,-0.19 -0.07,-0.19 -0.08,-0.18 -0.09,-0.19 -0.1,-0.17 -0.11,-0.17 -0.12,-0.17 -0.13,-0.16 -0.14,-0.15 -0.15,-0.15 -0.16,-0.14 -0.17,-0.13 -0.18,-0.12 -0.18,-0.11 -0.21,-0.11 -0.2,-0.12 -0.22,-0.11 -0.22,-0.13 -0.23,-0.12 -0.24,-0.13 -0.24,-0.14 -0.25,-0.13 -0.25,-0.14 -0.26,-0.14 -0.26,-0.15 -0.26,-0.14 -0.27,-0.15 -0.26,-0.14 -0.27,-0.15 -0.27,-0.15 -0.27,-0.15 -0.27,-0.15 -0.27,-0.15 -0.27,-0.15 -0.27,-0.15 -0.27,-0.15 -0.26,-0.14 -0.26,-0.15 -0.26,-0.14 -0.25,-0.14 -0.25,-0.14 -0.24,-0.13 -0.24,-0.14 -0.23,-0.13 -0.23,-0.12 -0.21,-0.12 -0.22,-0.12 -0.2,-0.12 -0.19,-0.11 -0.19,-0.1 -0.17,-0.1 -0.17,-0.09 -0.15,-0.09 -0.15,-0.08 -0.14,-0.08 -0.15,-0.08 -0.15,-0.07 -0.16,-0.07 -0.16,-0.07 -0.17,-0.07 -0.17,-0.06 -0.18,-0.07 -0.18,-0.05 -0.19,-0.06 -0.19,-0.05 -0.19,-0.05 -0.2,-0.04 -0.2,-0.04 -0.21,-0.04 -0.2,-0.03 -0.21,-0.02 -0.22,-0.02 -0.21,-0.02 -0.22,-0.01 -0.22,-0.01 h -0.23 -0.22 l -0.23,0.01 -0.23,0.02 -0.23,0.02 -0.23,0.03 -0.23,0.04 -0.24,0.04 -0.23,0.05 -0.24,0.05 -0.23,0.07 -0.24,0.07 -0.24,0.08 -0.23,0.08 -0.24,0.09 -0.24,0.11 -0.23,0.11 -0.24,0.11 -0.23,0.13 -0.26,0.14 -0.56,0.32 -0.84,0.47 -1.12,0.62 -1.38,0.77 -1.62,0.91 -1.84,1.03 -2.06,1.14 -2.24,1.26 -2.43,1.35 -2.58,1.45 -2.73,1.52 -2.86,1.6 -2.98,1.66 -3.07,1.72 -3.16,1.76 -3.22,1.8 -3.27,1.83 -3.31,1.85 -3.33,1.85 -3.32,1.86 -3.32,1.85 -3.29,1.84 -3.24,1.81 -3.18,1.78 -3.11,1.73 -3.01,1.69 -2.91,1.62 -2.78,1.55 -2.65,1.48 -2.48,1.38 -2.32,1.3 -2.12,1.18 -1.93,1.08 -1.71,0.95 -1.47,0.82 -1.22,0.68 -0.95,0.53 -0.67,0.37 -0.37,0.2 -0.26,0.14 -0.27,0.14 -0.26,0.12 -0.27,0.12 -0.27,0.11 -0.28,0.11 -0.28,0.1 -0.27,0.09 -0.28,0.08 -0.29,0.08 -0.28,0.07 -0.29,0.06 -0.28,0.05 -0.29,0.05 -0.29,0.04 -0.29,0.03 -0.29,0.03 -0.29,0.02 -0.29,0.01 h -0.29 -0.29 l -0.29,-0.01 -0.29,-0.02 -0.29,-0.03 -0.29,-0.03 -0.29,-0.04 -0.29,-0.04 -0.28,-0.06 -0.29,-0.06 -0.28,-0.07 -0.28,-0.07 -0.28,-0.09 -0.28,-0.09 -0.28,-0.1 -0.27,-0.1 -0.28,-0.11 -0.27,-0.12 -0.26,-0.13 -0.27,-0.13 -0.26,-0.15 -0.28,-0.15 -0.42,-0.24 -0.55,-0.31 -0.69,-0.39 -0.8,-0.45 -0.92,-0.52 -1.02,-0.57 -1.12,-0.63 -1.2,-0.68 -1.29,-0.73 -1.36,-0.76 -1.42,-0.81 -1.48,-0.83 -1.53,-0.87 -1.58,-0.88 -1.6,-0.91 -1.64,-0.92 -1.65,-0.93 -1.66,-0.94 -1.66,-0.94 -1.66,-0.94 L 18.62,172.7 17,171.79 15.4,170.89 13.84,170 12.32,169.15 10.86,168.32 9.45,167.53 8.12,166.77 6.85,166.06 5.68,165.4 4.59,164.78 3.6,164.22 2.72,163.73 1.95,163.29 1.3,162.93 0.79,162.64 0.41,162.42 0.09,162.25 0.01,162.3 v -22.02 l 0.87,0.49 0.92,0.52 0.98,0.55 1.04,0.59 1.08,0.61 1.12,0.63 1.17,0.66 1.2,0.68 1.24,0.7 1.26,0.72 1.3,0.73 1.31,0.74 1.34,0.76 1.36,0.76 1.36,0.78 1.38,0.77 1.38,0.78 1.38,0.78 1.39,0.78 1.37,0.78 1.37,0.77 1.36,0.77 1.34,0.76 1.33,0.74 1.3,0.74 1.27,0.71 1.25,0.7 1.21,0.69 1.18,0.66 1.13,0.64 1.1,0.61 1.04,0.59 1,0.55 0.94,0.53 0.88,0.49 0.82,0.46 0.76,0.43 0.69,0.38 0.62,0.34 0.54,0.3 0.3,0.16 0.3,0.15 0.3,0.15 0.3,0.13 0.3,0.13 0.3,0.12 0.29,0.11 0.3,0.1 0.29,0.09 0.3,0.09 0.3,0.07 0.29,0.07 0.29,0.06 0.3,0.05 0.29,0.05 0.29,0.03 0.3,0.03 0.29,0.02 0.29,0.01 h 0.29 0.29 l 0.3,-0.02 0.29,-0.02 0.29,-0.03 0.29,-0.04 0.29,-0.04 0.29,-0.06 0.29,-0.06 0.29,-0.07 0.29,-0.08 0.29,-0.08 0.29,-0.1 0.29,-0.1 0.29,-0.11 0.29,-0.12 0.29,-0.13 0.29,-0.13 0.28,-0.14 0.29,-0.15 0.29,-0.16 108.53,-60.67 0.17,-0.1 0.17,-0.12 0.15,-0.12 0.14,-0.13 0.14,-0.14 0.13,-0.15 0.12,-0.15 0.11,-0.16 0.1,-0.17 0.09,-0.17 0.09,-0.18 0.07,-0.18 0.07,-0.19 0.06,-0.19 0.05,-0.19 0.04,-0.19 0.03,-0.2 0.02,-0.2 0.02,-0.2 v -0.2 l -0.01,-0.21 -0.01,-0.2 -0.02,-0.2 -0.04,-0.2 -0.04,-0.19 -0.05,-0.2 -0.06,-0.19 -0.07,-0.19 -0.08,-0.19 -0.09,-0.18 -0.1,-0.18 -0.11,-0.17 -0.12,-0.16 -0.13,-0.16 -0.14,-0.16 -0.15,-0.14 -0.16,-0.14 -0.17,-0.13 -0.18,-0.12 -0.18,-0.11 -0.2,-0.11 -0.21,-0.12 -0.22,-0.12 -0.45,-0.25 -0.24,-0.13 -0.24,-0.13 -0.25,-0.14 -0.25,-0.14 -0.26,-0.14 -0.26,-0.14 -0.26,-0.15 -0.26,-0.15 -0.27,-0.14 -0.27,-0.15 -0.27,-0.15 -0.27,-0.15 -0.27,-0.15 -0.27,-0.15 -0.27,-0.15 -0.27,-0.15 -0.27,-0.15 -0.26,-0.14 -0.26,-0.15 -0.26,-0.14 -0.25,-0.14 -0.25,-0.14 -0.24,-0.14 -0.24,-0.13 -0.23,-0.13 -0.23,-0.12 -0.21,-0.13 -0.21,-0.12 -0.21,-0.11 -0.19,-0.11 -0.19,-0.1 -0.17,-0.1 -0.17,-0.1 -0.15,-0.08 -0.14,-0.09 -0.15,-0.07 -0.15,-0.08 -0.15,-0.08 -0.16,-0.07 -0.16,-0.07 -0.17,-0.06 -0.17,-0.07 -0.18,-0.06 -0.18,-0.06 -0.19,-0.05 -0.19,-0.05 -0.19,-0.05 -0.2,-0.04 -0.2,-0.04 -0.21,-0.04 -0.2,-0.03 -0.21,-0.02 -0.22,-0.02 -0.21,-0.02 -0.22,-0.01 -0.22,-0.01 h -0.23 l -0.22,0.01 -0.23,0.01 -0.23,0.01 -0.23,0.02 -0.23,0.03 -0.23,0.04 -0.24,0.04 -0.23,0.05 -0.24,0.06 -0.23,0.06 -0.24,0.07 -0.24,0.08 -0.23,0.08 -0.24,0.09 -0.24,0.11 -0.23,0.1 -0.24,0.12 -0.23,0.13 -0.26,0.14 -0.56,0.31 -0.84,0.48 -1.12,0.62 -1.38,0.77 -1.62,0.9 -1.84,1.03 -2.06,1.15 -2.24,1.26 -2.43,1.35 -2.58,1.44 -2.73,1.53 -2.86,1.6 -2.98,1.66 -3.07,1.71 -3.16,1.77 -3.22,1.8 -3.27,1.83 -3.31,1.84 -3.32,1.86 -3.33,1.86 -3.32,1.85 -3.29,1.84 -3.24,1.81 -3.18,1.78 -3.11,1.73 -3.01,1.68 -2.91,1.63 -2.78,1.55 -2.64,1.47 -2.49,1.39 -2.32,1.29 -2.12,1.19 -1.93,1.07 -1.7,0.95 -1.48,0.82 -1.21,0.68 -0.96,0.53 -0.67,0.38 -0.37,0.2 -0.26,0.14 -0.27,0.14 -0.26,0.12 -0.27,0.12 -0.27,0.11 -0.28,0.11 -0.28,0.1 -0.27,0.09 -0.28,0.08 -0.29,0.08 -0.28,0.07 -0.29,0.06 -0.28,0.06 -0.29,0.04 -0.29,0.04 -0.29,0.04 -0.29,0.02 -0.29,0.02 -0.29,0.01 -0.29,0.01 -0.29,-0.01 -0.29,-0.01 -0.29,-0.02 -0.29,-0.02 -0.29,-0.03 -0.29,-0.04 -0.29,-0.05 -0.28,-0.05 -0.29,-0.07 -0.28,-0.06 -0.28,-0.08 -0.28,-0.08 -0.28,-0.1 -0.28,-0.09 -0.27,-0.11 -0.28,-0.11 -0.26,-0.12 -0.27,-0.13 -0.27,-0.14 -0.26,-0.14 -45.7,-25.78 -0.09,0.05 V 96.39 l 0.87,0.49 0.92,0.52 0.98,0.55 1.04,0.59 1.08,0.61 1.12,0.64 1.17,0.65 1.2,0.68 1.24,0.7 1.26,0.72 1.3,0.73 1.31,0.75 1.34,0.75 1.36,0.77 1.36,0.77 1.38,0.78 1.38,0.78 1.38,0.78 1.39,0.78 1.37,0.78 1.37,0.77 1.36,0.77 1.34,0.75 1.33,0.75 1.3,0.73 1.27,0.72 1.25,0.7 1.21,0.68 1.18,0.67 1.13,0.63 1.1,0.62 1.04,0.58 1,0.56 0.94,0.53 0.88,0.49 0.82,0.46 0.76,0.42 0.69,0.39 0.62,0.34 0.54,0.3 0.3,0.16 0.3,0.15 0.3,0.14 0.3,0.14 0.3,0.12 0.3,0.12 0.29,0.11 0.3,0.11 0.3,0.09 0.29,0.08 0.3,0.08 0.29,0.07 0.29,0.06 0.3,0.05 0.29,0.05 0.29,0.03 0.3,0.03 0.29,0.02 0.29,0.01 h 0.29 0.3 l 0.29,-0.02 0.29,-0.02 0.29,-0.03 0.29,-0.04 0.29,-0.04 0.29,-0.06 0.29,-0.06 0.29,-0.07 0.29,-0.08 0.29,-0.09 0.29,-0.09 0.29,-0.1 0.29,-0.11 0.29,-0.12 0.29,-0.13 0.29,-0.13 0.29,-0.15 0.28,-0.15 0.29,-0.15 108.53,-60.67 0.17,-0.11 0.17,-0.11 0.15,-0.12 0.14,-0.13 0.14,-0.14 0.13,-0.15 0.12,-0.15 0.11,-0.16 0.1,-0.17 0.09,-0.17 0.09,-0.17 0.07,-0.19 0.07,-0.18 0.06,-0.19 0.05,-0.19 0.04,-0.2 0.03,-0.2 0.02,-0.2 0.02,-0.2 v -0.2 l -0.01,-0.2 -0.01,-0.2 -0.02,-0.2 -0.04,-0.2 -0.04,-0.2 -0.05,-0.2 -0.06,-0.19 -0.07,-0.19 -0.08,-0.18 -0.09,-0.19 -0.1,-0.17 -0.11,-0.17 -0.12,-0.17 -0.13,-0.16 -0.14,-0.15 -0.15,-0.15 -0.16,-0.14 -0.17,-0.13 -0.17,-0.12 -0.19,-0.12 -0.2,-0.11 -0.21,-0.11 -0.22,-0.12 -0.22,-0.12 -0.23,-0.13 -0.24,-0.13 -0.24,-0.13 -0.25,-0.14 -0.25,-0.14 -0.26,-0.14 -0.26,-0.14 -0.26,-0.15 -0.26,-0.14 -0.27,-0.15 -0.27,-0.15 -0.27,-0.15 -0.27,-0.15 -0.27,-0.15 -0.27,-0.15 -0.27,-0.14 -0.27,-0.15 -0.27,-0.15 -0.26,-0.15 -0.26,-0.14 -0.26,-0.14 -0.25,-0.14 -0.25,-0.14 -0.24,-0.14 -0.24,-0.13 -0.23,-0.13 -0.23,-0.13 -0.21,-0.12 -0.21,-0.12 -0.21,-0.11 -0.19,-0.11 -0.19,-0.11 -0.17,-0.09 -0.17,-0.1 -0.15,-0.09 -0.14,-0.08 -0.15,-0.08 -0.15,-0.07 -0.15,-0.08 -0.16,-0.07 -0.16,-0.07 -0.17,-0.07 -0.17,-0.06 -0.18,-0.06 -0.18,-0.06 -0.19,-0.05 -0.19,-0.05 -0.19,-0.05 -0.2,-0.05 -0.2,-0.04 -0.21,-0.03 -0.2,-0.03 -0.21,-0.03 -0.22,-0.02 -0.21,-0.02 -0.22,-0.01 h -0.22 l -0.23,-0.01 -0.22,0.01 -0.23,0.01 -0.23,0.02 -0.23,0.02 -0.23,0.03 -0.23,0.03 -0.24,0.04 -0.23,0.05 -0.24,0.06 -0.23,0.06 -0.24,0.07 -0.23,0.08 -0.24,0.09 -0.24,0.09 -0.23,0.1 -0.24,0.11 -0.24,0.12 -0.23,0.13 -0.26,0.14 -0.55,0.31 -0.85,0.47 -1.12,0.63 -1.38,0.77 -1.62,0.9 -1.84,1.03 -2.06,1.15 -2.24,1.25 -2.42,1.36 -2.59,1.44 -2.73,1.53 -2.86,1.59 -2.98,1.67 -3.07,1.71 -3.16,1.77 -3.22,1.8 -3.27,1.82 -3.31,1.85 -3.32,1.86 -3.33,1.86 -3.32,1.85 -3.29,1.84 -3.24,1.81 -3.18,1.77 -3.11,1.74 -3.01,1.68 -2.91,1.62 -2.78,1.56 -2.64,1.47 -2.49,1.39 -2.32,1.29 -2.12,1.19 -1.93,1.07 -1.7,0.95 -1.47,0.82 -1.22,0.68 -0.96,0.53 -0.67,0.37 -0.37,0.21 -0.26,0.14 -0.27,0.13 -0.26,0.13 -0.27,0.12 -0.27,0.11 -0.28,0.1 -0.27,0.1 -0.28,0.09 -0.28,0.09 -0.29,0.07 -0.28,0.07 -0.28,0.06 -0.29,0.06 -0.29,0.04 -0.29,0.04 -0.29,0.04 -0.29,0.02 -0.29,0.02 -0.29,0.01 -0.29,0.01 -0.29,-0.01 -0.29,-0.01 -0.29,-0.02 -0.29,-0.02 -0.29,-0.03 -0.29,-0.04 -0.28,-0.05 -0.29,-0.05 -0.29,-0.06 -0.28,-0.07 -0.28,-0.08 -0.28,-0.08 -0.28,-0.09 -0.28,-0.1 -0.27,-0.11 -0.27,-0.11 -0.27,-0.12 -0.27,-0.13 -0.26,-0.13 -0.27,-0.14 -45.7,-25.8 -0.08,0.05 V 32.55 L 0.07,31.21 0.15,29.89 0.29,28.58 0.48,27.29 0.73,26.01 1.02,24.75 1.36,23.51 1.76,22.29 2.2,21.09 2.69,19.91 3.22,18.76 3.8,17.63 4.42,16.52 5.08,15.44 5.79,14.39 6.53,13.36 7.31,12.37 8.14,11.4 8.99,10.47 9.89,9.57 10.82,8.7 11.78,7.87 12.77,7.07 13.8,6.31 14.85,5.59 15.94,4.9 17.05,4.26 18.19,3.66 19.36,3.09 20.55,2.58 21.76,2.1 23,1.68 24.26,1.29 25.54,0.96 26.83,0.67 28.15,0.44 29.48,0.25 30.83,0.12 32.2,0.04 33.57,0.01 H 234.68 L 234.65,0 l 1.38,0.03 z"
       id="bdKF7C9G0"
       inkscape:connector-curvature="0" />
  </defs>
  <g
     id="g15"
     transform="translate(0.5,0.49988189)">
    <g
       id="g13">
      <g
         id="g11">
        <use
           xlink:href="#bdKF7C9G0"
           id="use5"
           style="opacity:1;fill:#000000;fill-opacity:1"
           x="0"
           y="0"
           width="100%"
           height="100%" />
        <g
           id="g9">
          <use
             xlink:href="#bdKF7C9G0"
             id="use7"
             style="opacity:1;fill-opacity:0;stroke:#000000;stroke-width:1;stroke-opacity:0"
             x="0"
             y="0"
             width="100%"
             height="100%" />
        </g>
      </g>
    </g>
  </g>
</svg>
