<?xml version="1.0" encoding="utf-8"?>
<!-- Generator: Adobe Illustrator 16.0.3, SVG Export Plug-In . SVG Version: 6.00 Build 0)  -->
<!DOCTYPE svg PUBLIC "-//W3C//DTD SVG 1.1//EN" "http://www.w3.org/Graphics/SVG/1.1/DTD/svg11.dtd">
<svg version="1.1" id="Ebene_4" xmlns="http://www.w3.org/2000/svg" xmlns:xlink="http://www.w3.org/1999/xlink" x="0px" y="0px"
	 width="7086.609px" height="7086.609px" viewBox="0 0 7086.609 7086.609" enable-background="new 0 0 7086.609 7086.609"
	 xml:space="preserve">
<g>
	<circle fill="#000000" cx="3580.498" cy="4924.823" r="372.802"/>
	<path fill="#000000" d="M6079.305,3455.304V2141.163c0-623.622-510.236-1133.858-1133.858-1133.858H2141.163
		c-623.622,0-1133.858,510.236-1133.858,1133.858v1314.141H6079.305z M3430.199,1687.723h226.211v951.744h-226.211V1687.723z"/>
	<path fill="#000000" d="M1007.305,3631.304v1314.142c0,623.622,510.236,1133.858,1133.858,1133.858h2804.283
		c623.622,0,1133.858-510.236,1133.858-1133.858V3631.304H1007.305z M3580.498,5496.844c-315.918,0-572.02-256.102-572.02-572.02
		c0-315.919,256.102-572.021,572.02-572.021c315.919,0,572.021,256.102,572.021,572.021
		C4152.519,5240.742,3896.417,5496.844,3580.498,5496.844z"/>
</g>
</svg>
