<?xml version="1.0" encoding="utf-8"?>
<!DOCTYPE svg PUBLIC "-//W3C//DTD SVG 1.1//EN" "http://www.w3.org/Graphics/SVG/1.1/DTD/svg11.dtd">
<svg version="1.1" xmlns="http://www.w3.org/2000/svg" xmlns:xlink="http://www.w3.org/1999/xlink" x="0px" y="0px"
	 width="566.929px" height="566.93px" viewBox="0 0 566.929 566.93" enable-background="new 0 0 566.929 566.93"
	 xml:space="preserve">
<g id="Ebene_1">
	<path fill-rule="evenodd" clip-rule="evenodd" fill="#000000" d="M52.191,200.127c15.689-29.854,71.96-64.36,230.255-64.36
		c156.6,0,214.061,32.78,230.672,62.679c3.81,6.86,5.591,15.702,5.588,22.499c-0.007,29.625-0.028,109.983-0.031,127.258
		c0,2.217-0.363,4.01-1.129,5.314c-0.688,1.179-0.833,1.858-3.051,4.884c-0.751,1.026-1.592,16.444-2.524,17.646
		c-21.71,27.937-85.7,70.937-224.858,70.937c-134.581,0-210.467-42.832-231.589-71.278c-0.954-1.284-1.814-13.483-2.583-14.584
		c-2.536-3.641-4.063-6.222-4.649-7.364c-0.633-1.236-1.162-4.122-1.162-6.49c-0.001-18.789-0.005-97.031,0.033-125.771
		C47.172,214.203,48.42,207.309,52.191,200.127z M59.938,247.521c12.051,10.158,98.969,54.121,222.408,54.121
		c119.172,0,205.346-41.004,222.152-54.991c0.91-0.758,2.012-1.124,2.511-0.725c0.582,0.468,0.482,1.788,0.482,1.788v94.601
		c0,0,0.037,1.944-0.242,3.758c-0.229,1.493-0.729,2.838-1.151,3.44c-10.203,14.572-69.739,68.871-219.982,68.871
		c-148.121,0-215.729-53.659-225.986-70.353c-1.826-2.973-1.488-6.369-1.627-8.011v-92.124
		C58.502,247.897,58.987,246.72,59.938,247.521z M62.814,218.014c0,22.42,107.625,65.987,219.531,65.987
		c112.587,0,221.569-51.371,221.569-68.187c0-16.814-51.843-66.48-221.469-66.48C112.819,149.334,62.814,195.594,62.814,218.014z
		 M133.215,200.415c-6.686,0-12.105,2.339-12.105,5.225s5.42,5.225,12.105,5.225c6.685,0,12.105-2.339,12.105-5.225
		S139.899,200.415,133.215,200.415z M169.897,200.415c-6.686,0-12.105,2.339-12.105,5.225s5.42,5.225,12.105,5.225
		s12.105-2.339,12.105-5.225S176.583,200.415,169.897,200.415z M205.846,200.415c-6.686,0-12.105,2.339-12.105,5.225
		s5.42,5.225,12.105,5.225s12.104-2.339,12.104-5.225S212.531,200.415,205.846,200.415z"/>
</g>
</svg>
