<?xml version="1.0" encoding="utf-8"?>
<!-- Generator: Adobe Illustrator 16.0.3, SVG Export Plug-In . SVG Version: 6.00 Build 0)  -->
<!DOCTYPE svg PUBLIC "-//W3C//DTD SVG 1.1//EN" "http://www.w3.org/Graphics/SVG/1.1/DTD/svg11.dtd">
<svg version="1.1" xmlns="http://www.w3.org/2000/svg" xmlns:xlink="http://www.w3.org/1999/xlink" x="0px" y="0px"
	 width="7086.609px" height="7086.609px" viewBox="0 0 7086.609 7086.609" enable-background="new 0 0 7086.609 7086.609"
	 xml:space="preserve">
<g id="Ebene_4">
	<g>
		<path fill="#000000" d="M3543.305,3469.765l2027.656-2027.656c-525.229-506.958-1240.024-818.805-2027.656-818.805
			S2040.877,935.151,1515.649,1442.11L3543.305,3469.765z"/>
		<path fill="#000000" d="M5644.5,5570.961c506.958-525.229,818.805-1240.023,818.805-2027.656S6151.458,2040.877,5644.5,1515.648
			L3616.844,3543.304L5644.5,5570.961z"/>
		<path fill="#000000" d="M3543.305,3616.844L1515.648,5644.5c525.229,506.958,1240.024,818.805,2027.656,818.805
			s1502.428-311.847,2027.656-818.805L3543.305,3616.844z"/>
		<path fill="#000000" d="M1442.11,1515.649c-506.958,525.228-818.805,1240.024-818.805,2027.656s311.847,1502.428,818.805,2027.656
			l2027.656-2027.656L1442.11,1515.649z"/>
	</g>
</g>
<g id="Ebene_2">
	<circle fill="#000000" stroke="#FFFFFF" stroke-width="120" stroke-miterlimit="10" cx="3543.305" cy="3543.304" r="2040"/>
</g>
<g id="Ebene_3">
	<circle fill="none" stroke="#FFFFFF" stroke-width="140" stroke-miterlimit="10" cx="3543.305" cy="3543.304" r="624.028"/>
	<rect x="3270.496" y="2730.329" width="545.618" height="818.697"/>
	<rect x="3442.841" y="2628.335" fill="#FFFFFF" width="200.926" height="581.883"/>
</g>
</svg>
