<svg xmlns="http://www.w3.org/2000/svg" width="80.33" height="122.88" viewBox="0 0 80.33 122.88"><path fill-rule="evenodd" d="M23.63,15h1.31L22.73,7.67l-.07-.24H18A3.72,3.72,0,0,1,18,0H62.33a3.72,3.72,0,0,1,0,7.43H57.67l-.06.24L55.39,15h.5c5.29,0,11.71,6.85,12.79,12L80.21,81.93c1.09,5.17-5.65,12.64-10.94,12.64H17.48C5,94.57-2.35,92,.69,76.93l10-49.39c1-5.2,7.7-12.52,13-12.52ZM30.4,7.43,32.69,15h15l2.29-7.59ZM8.56,122.88l8.93-20.72h11l-2.95,6.65H55.14l-3-6.84H62.93l8.84,20.53H61.12L58,115.66H22.34l-2.95,7.22Zm17.33-49A7.14,7.14,0,1,1,18.75,81a7.13,7.13,0,0,1,7.14-7.13Zm7.58-52.14H46.33a.6.6,0,0,1,.6.6v6a.6.6,0,0,1-.6.6H33.47a.6.6,0,0,1-.6-.6v-6a.6.6,0,0,1,.6-.6ZM9.35,67.23l7-31.43H63.87l6.58,31.43Zm44.56,6.65A7.14,7.14,0,1,1,46.78,81a7.13,7.13,0,0,1,7.13-7.13Z"/></svg>
