<?xml version="1.0" encoding="utf-8"?>
<!DOCTYPE svg PUBLIC "-//W3C//DTD SVG 1.1//EN" "http://www.w3.org/Graphics/SVG/1.1/DTD/svg11.dtd">
<svg version="1.1" id="Ebene_5" xmlns="http://www.w3.org/2000/svg" xmlns:xlink="http://www.w3.org/1999/xlink" x="0px" y="0px"
	 width="7086.609px" height="7086.609px" viewBox="0 0 7086.609 7086.609" enable-background="new 0 0 7086.609 7086.609"
	 xml:space="preserve">
<g>
	<g>
		<path fill="#000000" d="M5375.408,2682.949c75.115,0,136.01,52.135,136.01,116.447v3314.522c0,64.313-60.895,116.447-136.01,116.447H4111.221
			c-75.115,0-136.01-52.135-136.01-116.447V2799.396c0-64.312,60.895-116.447,136.01-116.447H5375.408 M5375.408,2432.949H4111.221
			c-95.914,0-187.813,33.455-258.764,94.2c-38.29,32.781-68.805,71.873-90.697,116.189c-11.746,23.774-20.809,48.831-26.938,74.474
			c-6.377,26.685-9.611,54.134-9.611,81.583v3314.522c0,27.45,3.234,54.899,9.611,81.584c6.129,25.643,15.191,50.699,26.938,74.475
			c21.893,44.314,52.407,83.407,90.697,116.188c70.951,60.745,162.85,94.2,258.764,94.2h1264.188
			c95.916,0,187.813-33.455,258.764-94.2c38.29-32.782,68.805-71.874,90.697-116.19c11.744-23.773,20.809-48.83,26.938-74.475
			c6.377-26.684,9.611-54.132,9.611-81.582V2799.396c0-27.45-3.234-54.898-9.611-81.582c-6.129-25.643-15.193-50.7-26.938-74.475
			c-21.893-44.315-52.407-83.408-90.697-116.19C5563.221,2466.404,5471.324,2432.949,5375.408,2432.949L5375.408,2432.949z"/>
	</g>
	<g>
		<g>
			<path fill="#000000" d="M3188.715,884.201c75.115,0,136.01,80.275,136.01,179.301v4987.563c0,99.025-60.895,179.301-136.01,179.301H1924.527
				c-75.115,0-136.01-80.275-136.01-179.301V1063.502c0-99.026,60.895-179.301,136.01-179.301H3188.715 M3188.715,634.201H1924.527
				c-114.701,0-222.353,55.192-295.351,151.426c-29.623,39.051-52.508,83.364-68.018,131.706
				c-15.024,46.824-22.641,96.003-22.641,146.169v4987.563c0,50.166,7.617,99.344,22.641,146.169
				c15.51,48.343,38.395,92.653,68.018,131.704c72.999,96.234,180.65,151.428,295.351,151.428h1264.188
				c114.701,0,222.353-55.193,295.352-151.428c29.622-39.051,52.507-83.361,68.018-131.704
				c15.023-46.825,22.641-96.003,22.641-146.169V1063.502c0-50.166-7.617-99.345-22.641-146.169
				c-15.511-48.342-38.396-92.655-68.018-131.706C3411.067,689.393,3303.416,634.201,3188.715,634.201L3188.715,634.201z"/>
		</g>
		<path fill-rule="evenodd" clip-rule="evenodd" stroke="#000000" stroke-miterlimit="10" fill="#000000" d="M3364.268,768.182H1748.977
			c-95.979,0-173.784,83.274-173.784,186v5178.246c0,102.725,77.806,186,173.784,186h1615.291c95.978,0,173.783-83.275,173.783-186
			V954.182C3538.051,851.456,3460.245,768.182,3364.268,768.182z M3211.211,5870.221H1902.032v-216.088h1309.179V5870.221z"/>
	</g>
	<path fill="#000000" d="M5237.504,5107.467v-200.936c0-272.318-221.732-493.49-494.05-493.49h-0.281c-272.317,0-494.051,221.172-494.051,493.49
		v200.936c-38.782,8.148-68.009,42.717-68.009,84.027v752.035c0,47.496,38.22,85.715,85.713,85.715H5219.8
		c47.493,0,85.714-38.5,85.714-85.715v-752.035C5305.514,5150.184,5276.286,5115.615,5237.504,5107.467z M5065.514,5105.779
		h-644.402v-199.248c0-177.611,144.449-321.781,322.062-321.781h0.281c177.329,0,322.06,144.17,322.06,321.781V5105.779z"/>
</g>
</svg>
