<?xml version="1.0" encoding="utf-8"?>
<!DOCTYPE svg PUBLIC "-//W3C//DTD SVG 1.1//EN" "http://www.w3.org/Graphics/SVG/1.1/DTD/svg11.dtd">
<svg version="1.1" id="Ebene_4" xmlns="http://www.w3.org/2000/svg" xmlns:xlink="http://www.w3.org/1999/xlink" x="0px" y="0px"
	 width="7086.609px" height="7086.609px" viewBox="0 0 7086.609 7086.609" enable-background="new 0 0 7086.609 7086.609"
	 xml:space="preserve">
<g>
	<g>
		<path fill="#000000" d="M6262.736,2682.948c75.116,0,136.011,52.136,136.011,116.448v3314.522c0,64.313-60.895,116.447-136.011,116.447H4998.551
			c-75.116,0-136.011-52.135-136.011-116.447V2799.396c0-64.312,60.895-116.448,136.011-116.448H6262.736 M6262.736,2432.948
			H4998.551c-95.916,0-187.813,33.455-258.766,94.201c-38.288,32.782-68.804,71.875-90.697,116.19
			c-11.744,23.773-20.807,48.83-26.936,74.473c-6.379,26.685-9.612,54.134-9.612,81.583v3314.522c0,27.45,3.235,54.899,9.612,81.584
			c6.129,25.643,15.191,50.699,26.937,74.475c21.894,44.314,52.408,83.407,90.698,116.188c70.951,60.745,162.849,94.2,258.764,94.2
			h1264.186c95.915,0,187.813-33.455,258.764-94.2c38.29-32.781,68.805-71.874,90.698-116.188
			c11.745-23.775,20.808-48.832,26.937-74.475c6.377-26.685,9.612-54.134,9.612-81.584V2799.396c0-27.45-3.233-54.899-9.612-81.583
			c-6.129-25.643-15.191-50.7-26.936-74.473c-21.894-44.315-52.409-83.408-90.697-116.19
			C6450.549,2466.403,6358.652,2432.948,6262.736,2432.948L6262.736,2432.948z"/>
	</g>
	<path fill="#000000" d="M6124.833,5107.467v-534.615c0-272.318-221.732-493.49-494.05-493.49h-0.282c-272.316,0-494.05,221.172-494.05,493.49
		v188.078c0,0-0.081,3.873,2.794,6.748s6.377,2.57,6.377,2.57h153.666c0,0,3.041,0.145,6.291-3.105s2.861-7.549,2.861-7.549
		v-186.742c0-177.611,144.449-321.781,322.061-321.781h0.282c177.329,0,322.06,144.17,322.06,321.781v532.928h-628.889v0.148
		h-187.503v1.539c-38.782,8.148-68.009,42.717-68.009,84.027v752.035c0,47.496,38.221,85.715,85.713,85.715h952.974
		c47.493,0,85.714-38.5,85.714-85.715v-752.035C6192.843,5150.184,6163.615,5115.615,6124.833,5107.467z"/>
	<g>
		<g>
			<path fill="#000000" d="M2301.385,884.2c75.115,0,136.01,80.275,136.01,179.302v4987.563c0,99.025-60.895,179.301-136.01,179.301H1037.197
				c-75.115,0-136.01-80.275-136.01-179.301V1063.502c0-99.026,60.895-179.302,136.01-179.302H2301.385 M2301.385,634.2H1037.197
				c-114.701,0-222.353,55.193-295.351,151.427c-29.623,39.051-52.508,83.363-68.018,131.706
				c-15.024,46.824-22.641,96.002-22.641,146.169v4987.563c0,50.166,7.617,99.345,22.641,146.168
				c15.51,48.344,38.395,92.656,68.018,131.707c72.999,96.233,180.65,151.426,295.351,151.426h1264.188
				c114.701,0,222.353-55.192,295.352-151.426c29.622-39.051,52.507-83.363,68.017-131.707
				c15.024-46.823,22.641-96.002,22.641-146.168V1063.502c0-50.167-7.617-99.345-22.641-146.169
				c-15.51-48.343-38.395-92.655-68.017-131.706C2523.737,689.393,2416.086,634.2,2301.385,634.2L2301.385,634.2z"/>
		</g>
		<path fill-rule="evenodd" clip-rule="evenodd" stroke="#000000" stroke-miterlimit="10" d="M2476.938,768.181H861.646
			c-95.978,0-173.784,83.275-173.784,186v5178.247c0,102.725,77.806,186,173.784,186h1615.292c95.978,0,173.783-83.275,173.783-186
			V954.181C2650.721,851.456,2572.915,768.181,2476.938,768.181z M2323.881,5870.221H1014.702v-216.088h1309.179V5870.221z"/>
	</g>
</g>
</svg>
