<?xml version="1.0" encoding="utf-8"?>
<!DOCTYPE svg PUBLIC "-//W3C//DTD SVG 1.1//EN" "http://www.w3.org/Graphics/SVG/1.1/DTD/svg11.dtd">
<svg version="1.1" id="Ebene_2" xmlns="http://www.w3.org/2000/svg" xmlns:xlink="http://www.w3.org/1999/xlink" x="0px" y="0px"
	 width="7086.609px" height="7086.609px" viewBox="0 0 7086.609 7086.609" enable-background="new 0 0 7086.609 7086.609"
	 xml:space="preserve">
<g>
	<g>
		<path fill="#000000" d="M5754.05,2682.947c75.116,0,136.009,52.136,136.009,116.448v3314.523c0,64.313-60.893,116.447-136.009,116.447H4489.862
			c-75.116,0-136.011-52.135-136.011-116.447V2799.395c0-64.312,60.895-116.448,136.011-116.448H5754.05 M5754.05,2432.947H4489.862
			c-95.915,0-187.813,33.455-258.765,94.201c-38.289,32.782-68.805,71.875-90.697,116.19c-11.744,23.773-20.807,48.83-26.936,74.473
			c-6.379,26.685-9.613,54.134-9.613,81.583v3314.523c0,27.451,3.235,54.898,9.613,81.584c6.129,25.643,15.191,50.699,26.936,74.475
			c21.895,44.314,52.408,83.406,90.699,116.188c70.95,60.746,162.848,94.201,258.763,94.201H5754.05
			c95.915,0,187.813-33.455,258.764-94.201c38.29-32.781,68.804-71.873,90.698-116.189c11.744-23.773,20.807-48.83,26.936-74.475
			c6.379-26.684,9.611-54.131,9.611-81.582V2799.395c0-27.45-3.232-54.898-9.611-81.582c-6.129-25.643-15.191-50.7-26.936-74.473
			c-21.893-44.316-52.407-83.408-90.697-116.19C5941.863,2466.401,5849.965,2432.947,5754.05,2432.947L5754.05,2432.947z"/>
	</g>
	<g>
		<g>
			<path fill="#000000" d="M2810.074,884.2c75.115,0,136.01,80.275,136.01,179.302v4987.563c0,99.025-60.895,179.301-136.01,179.301H1545.887
				c-75.115,0-136.01-80.275-136.01-179.301V1063.502c0-99.026,60.895-179.302,136.01-179.302H2810.074 M2810.074,634.2H1545.887
				c-114.701,0-222.353,55.193-295.351,151.427c-29.623,39.051-52.508,83.363-68.018,131.706
				c-15.024,46.824-22.641,96.002-22.641,146.169v4987.563c0,50.166,7.617,99.345,22.641,146.168
				c15.51,48.344,38.395,92.656,68.018,131.707c72.999,96.233,180.65,151.426,295.351,151.426h1264.188
				c114.701,0,222.353-55.192,295.352-151.426c29.622-39.051,52.507-83.363,68.017-131.707
				c15.024-46.823,22.641-96.002,22.641-146.168V1063.502c0-50.167-7.617-99.345-22.641-146.169
				c-15.51-48.343-38.395-92.655-68.017-131.706C3032.427,689.393,2924.775,634.2,2810.074,634.2L2810.074,634.2z"/>
		</g>
		<path fill-rule="evenodd" clip-rule="evenodd" stroke="#000000" stroke-miterlimit="10" d="M2985.627,768.181H1370.335
			c-95.978,0-173.784,83.275-173.784,186v5178.247c0,102.725,77.807,186,173.784,186h1615.292c95.977,0,173.783-83.275,173.783-186
			V954.181C3159.41,851.456,3081.604,768.181,2985.627,768.181z M2832.57,5870.221h-1309.18v-216.088h1309.18V5870.221z"/>
	</g>
</g>
</svg>
