<?xml version="1.0" encoding="UTF-8"?>
<svg xmlns="http://www.w3.org/2000/svg" xmlns:xlink="http://www.w3.org/1999/xlink" width="276px" height="276px" viewBox="0 0 276 276" version="1.1">
  <defs/>
  <g fill="#000000" id="layer1">
    <ellipse id="circle69" cx="28.1579358" cy="138.021972" rx="27.6579358" ry="26.752607"/>
    <ellipse id="circle71" cx="226.480251" cy="248.747396" rx="27.6579358" ry="26.752607"/>
    <path d="M160.369788,71.8236373 C194.80883,71.8236373 223.382231,96.558951 228.114151,128.627482 L275.500043,128.627482 C273.347792,103.428894 262.547131,79.9426609 244.489445,61.4204968 C232.924886,67.1175943 218.704875,67.2260825 206.624989,60.4822203 C194.536009,53.7295618 187.521491,41.7548082 186.848534,29.2053603 C178.266813,27.270165 169.400146,26.2673821 160.369788,26.2673821 C143.07903,26.2673821 126.370289,29.917864 111.174187,36.8405851 L134.897446,76.5853904 C142.775896,73.5183992 151.372773,71.8236373 160.369788,71.8236373 Z" id="path73"/>
    <path d="M228.117183,147.387147 C223.397388,179.467406 194.817924,204.217381 160.369788,204.217381 C151.366711,204.217381 142.766802,202.522619 134.888352,199.449763 L111.162062,239.197501 C126.355133,246.123154 143.069936,249.776568 160.366756,249.776568 C169.403178,249.776568 178.28197,248.767921 186.866722,246.832726 C187.527554,234.268617 194.545103,222.273339 206.643177,215.517748 C218.726095,208.768022 232.952169,208.87651 244.519758,214.585336 C262.562288,196.06024 273.350823,172.576939 275.497011,147.387147 L228.117183,147.387147 L228.117183,147.387147 Z" id="path75"/>
    <path d="M91.9342783,138.021975 C91.9342783,116.931279 102.183235,98.1159035 118.112922,85.9857479 L94.3957255,46.2468069 C88.8332185,50.005777 83.570814,54.2602744 78.6691388,58.9985706 C64.9432358,72.2751828 55.1004781,88.3050501 49.6834753,105.800974 C60.5962957,112.638664 67.8230079,124.507862 67.8230079,138.021975 C67.8230079,151.533156 60.5962957,163.405286 49.6834753,170.240044 C55.1004781,187.735968 64.9432358,203.765835 78.6691388,217.042447 C83.5677826,221.780744 88.8241244,226.029377 94.3836002,229.791279 L118.103828,190.049406 C102.177173,177.91925 91.9342783,159.103875 91.9342783,138.021975 Z" id="path77"/>
    <ellipse id="circle79" cx="226.456012" cy="27.2525735" rx="27.6579358" ry="26.752607"/>
  </g>
</svg>
