<?xml version="1.0" encoding="UTF-8" standalone="no"?>
<!-- Created with Inkscape (http://www.inkscape.org/) -->

<svg
   xmlns:dc="http://purl.org/dc/elements/1.1/"
   xmlns:cc="http://creativecommons.org/ns#"
   xmlns:rdf="http://www.w3.org/1999/02/22-rdf-syntax-ns#"
   xmlns:svg="http://www.w3.org/2000/svg"
   xmlns="http://www.w3.org/2000/svg"
   version="1.0"
   width="468pt"
   height="468pt"
   viewBox="0 0 468 468"
   id="svg2">
  <defs
     id="defs12" />
  <metadata
     id="metadata4">
Created by potrace 1.8, written by Peter Selinger 2001-2007
<rdf:RDF>
  <cc:Work
     rdf:about="">
    <dc:format>image/svg+xml</dc:format>
    <dc:type
       rdf:resource="http://purl.org/dc/dcmitype/StillImage" />
    <dc:title></dc:title>
  </cc:Work>
</rdf:RDF>
</metadata>
  <g fill="#000000"
     transform="matrix(0.258564,0,0,-0.258564,0,468)"
     id="g6"
	 stroke="none">
    <path
       d="M 97,1796 C 46,1777 22,1754 10,1711 4,1688 0,1385 0,897 0,55 -2,82 55,30 L 82,5 893,2 c 758,-2 814,-1 847,15 73,37 70,-6 70,888 0,775 -1,801 -20,832 -44,73 16,68 -865,70 -650,2 -797,0 -828,-11 z m 1573,-896 0,-770 -765,0 -765,0 0,770 0,770 765,0 765,0 0,-770 z"
       id="path8" />
  </g>
  <path
     d="m 414.1712,234.0072 -40.0296,-23.1168 0,16.4904 -204.6024,0 39.8384,-42.0896 c 3.3904,-2.7176 7.8264,-4.624 12.3896,-4.7296 18.46,0 29.4224,-0.005 33.4576,-0.0128 2.7352,7.7928 10.0824,13.4176 18.8168,13.4176 11.0496,0 20.0168,-8.9664 20.0168,-20.02 0,-11.0584 -8.9664,-20.0216 -20.0168,-20.0216 -8.7344,0 -16.0816,5.6216 -18.8168,13.408 l -33.0656,-0.006 c -8.9616,0 -18.352,4.9168 -24.3288,10.6808 0.1632,-0.1712 0.3328,-0.3536 -0.01,0.003 -0.1264,0.1424 -42.2672,44.6512 -42.2672,44.6512 -3.3832,2.7136 -7.8168,4.608 -12.3768,4.7168 l -23.1456,0 c -3.0676,-15.2904 -16.57,-26.8104 -32.7668,-26.8104 -18.4664,0 -33.4352,14.9688 -33.4352,33.4296 0,18.4664 14.9688,33.436 33.4352,33.436 16.2,0 29.7024,-11.5296 32.7704,-26.8328 l 22.74,0 c 0.0584,0 0.1168,0.003 0.176,0 l 50.2968,0 c 4.5512,0.116 8.9792,2.0128 12.3592,4.7296 0,0 42.1312,44.5056 42.2616,44.6496 0.3376,0.3576 0.1696,0.1712 0.003,0.003 5.9768,5.7632 15.3712,10.6768 24.3344,10.6768 l 31.8656,-0.007 0,13.4216 40.04,0 0,-40.036 -40.04,0 0,13.404 c 0,0 -8.3928,-0.0152 -32.256,-0.0152 -4.564,-0.1048 -9.0048,-2.0088 -12.3936,-4.7264 l -39.8472,-42.0976 154.5672,0 0,16.5168 40.0296,-23.1136 z"
     id="path1334" fill="#000000" />
</svg>
