<?xml version="1.0" encoding="UTF-8" standalone="no"?>
<!-- Created with Inkscape (http://www.inkscape.org/) -->

<svg
   xmlns:dc="http://purl.org/dc/elements/1.1/"
   xmlns:cc="http://creativecommons.org/ns#"
   xmlns:rdf="http://www.w3.org/1999/02/22-rdf-syntax-ns#"
   xmlns:svg="http://www.w3.org/2000/svg"
   xmlns="http://www.w3.org/2000/svg"
   xmlns:sodipodi="http://sodipodi.sourceforge.net/DTD/sodipodi-0.dtd"
   xmlns:inkscape="http://www.inkscape.org/namespaces/inkscape"
   version="1.0"
   width="585"
   height="585"
   viewBox="0 0 585 585"
   id="svg2421"
   inkscape:version="0.48.4 r9939"
   sodipodi:docname="usb-stick.svg">
  <metadata
     id="metadata25">
    <rdf:RDF>
      <cc:Work
         rdf:about="">
        <dc:format>image/svg+xml</dc:format>
        <dc:type
           rdf:resource="http://purl.org/dc/dcmitype/StillImage" />
        <dc:title />
      </cc:Work>
    </rdf:RDF>
  </metadata>
  <defs
     id="defs23" />
  <sodipodi:namedview
     pagecolor="#ffffff"
     bordercolor="#666666"
     borderopacity="1"
     objecttolerance="10"
     gridtolerance="10"
     guidetolerance="10"
     inkscape:pageopacity="0"
     inkscape:pageshadow="2"
     inkscape:window-width="1858"
     inkscape:window-height="1057"
     id="namedview21"
     showgrid="false"
     inkscape:zoom="0.8068376"
     inkscape:cx="-86.409193"
     inkscape:cy="410.50476"
     inkscape:window-x="1734"
     inkscape:window-y="-8"
     inkscape:window-maximized="1"
     inkscape:current-layer="svg2421" />
  <g fill="#000000"
     id="g3833"
     transform="translate(0,8)">
    <path
       style="font-size:medium;font-style:normal;font-variant:normal;font-weight:normal;font-stretch:normal;text-indent:0;text-align:start;text-decoration:none;line-height:normal;letter-spacing:normal;word-spacing:normal;text-transform:none;direction:ltr;block-progression:tb;writing-mode:lr-tb;text-anchor:start;baseline-shift:baseline;color:#000000;marker:none;visibility:visible;display:inline;overflow:visible;enable-background:accumulate;font-family:Sans;-inkscape-font-specification:Sans"
       d="m 232.8125,556.15625 c -4.43254,0 -8.0625,-3.71576 -8.0625,-8.125 l 0,-106.25 c 0,-4.40924 3.62996,-8.125 8.0625,-8.125 l 127.46875,0 c 4.43254,0 8.0625,3.71576 8.0625,8.125 l 0,106.25 c 0,4.40924 -3.62996,8.125 -8.0625,8.125 l -127.46875,0 z m 0,-7.625 127.46875,0 c 0.29411,0 0.4375,-0.1175 0.4375,-0.5 l 0,-106.25 c 0,-0.3825 -0.14339,-0.5 -0.4375,-0.5 l -127.46875,0 c -0.29411,0 -0.4375,0.1175 -0.4375,0.5 l 0,106.25 c 0,0.3825 0.14339,0.5 0.4375,0.5 z"
       id="rect3448"
       inkscape:connector-curvature="0" />
    <path
       style="font-size:medium;font-style:normal;font-variant:normal;font-weight:normal;font-stretch:normal;text-indent:0;text-align:start;text-decoration:none;line-height:normal;letter-spacing:normal;word-spacing:normal;text-transform:none;direction:ltr;block-progression:tb;writing-mode:lr-tb;text-anchor:start;baseline-shift:baseline;opacity:1;marker:none;visibility:visible;display:inline;overflow:visible;enable-background:accumulate;font-family:Sans;-inkscape-font-specification:Sans"
       d="m 307.84375,517.875 0,-3.5 0,-31.25 0,-3.5 3.5,0 30.84375,0 3.5,0 0,3.5 0,31.25 0,3.5 -3.5,0 -30.84375,0 -3.5,0 z m 7,-7 23.84375,0 0,-24.25 -23.84375,0 0,24.25 z"
       id="rect3502"
       inkscape:connector-curvature="0" />
    <path
       style="font-size:medium;font-style:normal;font-variant:normal;font-weight:normal;font-stretch:normal;text-indent:0;text-align:start;text-decoration:none;line-height:normal;letter-spacing:normal;word-spacing:normal;text-transform:none;direction:ltr;block-progression:tb;writing-mode:lr-tb;text-anchor:start;baseline-shift:baseline;opacity:1;color:#000000;fill:#000000;fill-opacity:1;stroke:none;marker:none;visibility:visible;display:inline;overflow:visible;enable-background:accumulate;font-family:Sans;-inkscape-font-specification:Sans"
       d="m 246.96875,517.09375 0,-3.5 0,-31.21875 0,-3.5 3.5,0 30.8125,0 3.5,0 0,3.5 0,31.21875 0,3.5 -3.5,0 -30.8125,0 -3.5,0 z m 6.96875,-7 23.84375,0 0,-24.25 -23.84375,0 0,24.25 z"
       id="rect3502-1"
       inkscape:connector-curvature="0" />
  </g>
  <path fill="#000000"
     style="font-size:medium;font-style:normal;font-variant:normal;font-weight:normal;font-stretch:normal;text-indent:0;text-align:start;text-decoration:none;line-height:normal;letter-spacing:normal;word-spacing:normal;text-transform:none;direction:ltr;block-progression:tb;writing-mode:lr-tb;text-anchor:start;baseline-shift:baseline;color:#000000;fill:#000000;fill-opacity:1;stroke:none;marker:none;visibility:visible;display:inline;overflow:visible;enable-background:accumulate;font-family:Sans;-inkscape-font-specification:Sans"
     d="m 236.25,24.8125 c -22.32144,0 -39.625,21.323896 -39.625,46.84375 l 0,331.75 c 0,25.51985 17.30356,46.84375 39.625,46.84375 l 116.6875,0 c 22.32144,0 39.65625,-21.3239 39.65625,-46.84375 l 0,-331.75 c 0,-25.519854 -17.33481,-46.84375 -39.65625,-46.84375 l -116.6875,0 z m 0,8 116.6875,0 c 17.15909,0 31.65625,16.894981 31.65625,38.84375 l 0,331.75 c 0,21.94877 -14.49716,38.84375 -31.65625,38.84375 l -116.6875,0 c -17.15909,0 -31.625,-16.89498 -31.625,-38.84375 l 0,-331.75 c 0,-21.948769 14.46591,-38.84375 31.625,-38.84375 z"
     id="rect3207"
     inkscape:connector-curvature="0" />
  <path fill="#000000"
     inkscape:connector-curvature="0"
     d="m 294.33586,106.32329 -16.64126,28.81639 11.87106,0 0,147.28862 -30.29935,-28.67875 c -1.95633,-2.44068 -3.32871,-5.63405 -3.40473,-8.919 0,-13.28893 -0.003,-21.18051 -0.009,-24.08536 5.60985,-1.96901 9.65902,-7.25809 9.65902,-13.54578 0,-7.95437 -6.4547,-14.40965 -14.41194,-14.40965 -7.96069,0 -14.41309,6.45471 -14.41309,14.40965 -1e-5,6.28769 4.04686,11.57677 9.65211,13.54578 l -0.004,23.80317 c 0,6.45125 3.53949,13.21119 7.68887,17.51376 -0.12324,-0.11749 -0.25455,-0.23958 0.002,0.007 0.10251,0.091 32.14339,30.42719 32.14339,30.42719 1.95346,2.43549 3.31719,5.62714 3.39551,8.90978 l 10e-6,16.66199 c -11.00725,2.2083 -19.30023,11.92837 -19.30023,23.58808 0,13.29354 10.7757,24.06924 24.06521,24.06924 13.29354,0 24.06981,-10.7757 24.06981,-24.06924 0,-11.66201 -8.29989,-21.38209 -19.31632,-23.59067 l 0,-16.37001 c 0,-0.042 0.002,-0.0841 2e-5,-0.12669 l 0,-36.20752 c 0.0835,-3.27631 1.44897,-6.46393 3.40474,-8.89711 0,0 32.03857,-30.3293 32.14223,-30.42317 0.25742,-0.24303 0.12324,-0.12209 0.002,-0.002 4.1488,-4.30256 7.68599,-11.06538 7.68599,-17.51778 l -0.005,-22.93932 9.6619,0 0,-28.82388 -28.82101,0 0,28.82388 9.64924,0 c 0,0 -0.0109,6.04179 -0.0109,23.22036 -0.0754,3.28552 -1.44609,6.48235 -3.40243,8.92187 l -30.30511,28.68509 0,-111.26941 11.89007,0 -16.63895,-28.8164 z"
     id="path1334" />
</svg>
