<?xml version="1.0" encoding="UTF-8" standalone="no"?>
<!-- Created with Inkscape (http://www.inkscape.org/) -->

<svg
   xmlns:dc="http://purl.org/dc/elements/1.1/"
   xmlns:cc="http://creativecommons.org/ns#"
   xmlns:rdf="http://www.w3.org/1999/02/22-rdf-syntax-ns#"
   xmlns:svg="http://www.w3.org/2000/svg"
   xmlns="http://www.w3.org/2000/svg"
   version="1.0"
   width="468pt"
   height="470pt"
   viewBox="0 0 468 470"
   id="svg2">
  <defs
     id="defs20" />
  <metadata
     id="metadata4">
Created by potrace 1.8, written by Peter Selinger 2001-2007
<rdf:RDF>
  <cc:Work
     rdf:about="">
    <dc:format>image/svg+xml</dc:format>
    <dc:type
       rdf:resource="http://purl.org/dc/dcmitype/StillImage" />
    <dc:title></dc:title>
  </cc:Work>
</rdf:RDF>
</metadata>
  <g
     id="g3011">
    <path
       d="m 333.94562,123.04557 c -11.8983,3.9661 -19.35457,8.88407 -28.07999,18.40271 -33.94981,36.64676 -13.48474,94.71046 36.48812,103.43588 16.34033,2.8556 37.1227,-3.17288 50.13151,-14.4366 33.79117,-29.82507 26.17626,-84.55725 -14.59525,-103.59453 -8.72542,-4.12475 -12.85017,-5.07661 -24.11389,-5.3939 -8.24949,-0.31729 -16.02304,0.31729 -19.8305,1.58644 z"
       id="path10"
       style="fill:#000000;stroke:none" />
    <path
       d="m 307.13478,257.73433 c -7.9322,2.22101 -17.13355,11.42237 -19.67185,19.67185 -2.53831,8.40814 -2.69695,160.23044 -0.31729,169.11451 2.22102,7.9322 8.72542,15.38847 16.65762,18.87863 5.55254,2.69695 10.94644,3.01424 48.06913,3.01424 38.23321,0 42.19931,-0.31729 47.75185,-3.17288 7.61491,-3.80746 13.80202,-11.10508 16.02304,-18.71999 1.26915,-3.9661 1.58644,-32.36338 1.26915,-87.88878 l -0.47593,-81.8603 -4.75932,-6.82169 c -8.88406,-12.69152 -11.73966,-13.3261 -57.90506,-13.64339 -24.43118,-0.15864 -42.83388,0.47593 -46.64134,1.4278 z"
       id="path12"
       style="fill:#000000;stroke:none" />
    <path
       d="m 243.3599,268.36348 c -2.69695,1.58644 -5.71119,5.39389 -6.8217,8.24948 -1.26915,3.49017 -1.74508,31.41152 -1.74508,91.69624 0,82.97081 0.15864,86.77826 3.17288,91.69623 5.23525,8.56677 14.75389,11.26372 25.2244,6.98033 9.83592,-4.12474 9.67728,-2.06237 9.67728,-100.73894 l 0,-89.7925 -4.44203,-4.91796 c -5.86983,-6.50441 -17.45084,-8.09085 -25.06575,-3.17288 z"
       id="path14"
       style="fill:#000000;stroke:none" />
    <path
       d="m 440.2371,266.77704 c -1.74508,0.79322 -4.60068,3.01423 -6.34576,4.91796 -3.01424,3.33152 -3.17288,6.02847 -3.64881,94.39318 l -0.31729,90.90301 3.9661,4.91797 c 7.61491,9.0427 21.41694,9.35999 29.50778,0.79322 l 3.80746,-4.12475 0.47593,-89.7925 c 0.31729,-87.73013 0.31729,-90.10979 -2.85559,-95.1864 -4.60068,-7.45627 -15.54711,-10.47051 -24.58982,-6.82169 z"
       id="path16"
       style="fill:#000000;stroke:none" />
    <g
       transform="matrix(0.8366252,0,0,0.86265449,-98.521805,-88.519026)"
       id="text2989"
       style="fill:#000000;stroke:none">
      <path
         d="m 216.47819,309.81169 c -0.12157,-4.37349 -0.18232,-7.65367 -0.18223,-9.84052 -9e-5,-12.87764 1.82223,-23.99378 5.46696,-33.34846 2.67264,-7.04619 6.98546,-14.15323 12.93847,-21.32114 4.37346,-5.22385 12.2398,-12.84721 23.59904,-22.87012 11.35899,-10.02259 18.73938,-18.01042 22.14119,-23.9635 3.40151,-5.95273 5.10234,-12.45233 5.1025,-19.49883 -1.6e-4,-12.75603 -4.98116,-23.96328 -14.94303,-33.6218 -9.96214,-9.65806 -22.17167,-14.4872 -36.62863,-14.48744 -13.97121,2.4e-4 -25.63404,4.3738 -34.98854,13.1207 -9.35463,8.74736 -15.48977,22.41474 -18.40543,41.0022 l -33.71292,-4.00911 c 3.03718,-24.90481 12.05766,-43.97841 27.06145,-57.22084 15.00371,-13.24193 34.83661,-19.86302 59.49875,-19.86329 26.11979,2.7e-4 46.95496,7.10731 62.50557,21.32114 15.55028,14.21434 23.32551,31.40487 23.3257,51.57166 -1.9e-4,11.66303 -2.73367,22.41471 -8.20044,32.25506 -5.46714,9.84069 -16.15807,21.80724 -32.07283,35.8997 -10.69109,9.47619 -17.67664,16.46174 -20.95668,20.95668 -3.2803,4.49516 -5.71006,9.6584 -7.28928,15.48972 -1.57947,5.83151 -2.49063,15.30757 -2.73348,28.42819 z m -2.00455,65.78575 0,-37.35756 37.35756,0 0,37.35756 z"
         id="path2994" />
    </g>
  </g>
</svg>
