<?xml version="1.0" encoding="UTF-8"?>
<svg xmlns="http://www.w3.org/2000/svg" xmlns:xlink="http://www.w3.org/1999/xlink" width="440px" height="512px" viewBox="0 0 440 512" version="1.1">
  <defs/>
  <g fill="#000000" id="layer1">
    <path d="M19.4693089,328.251434 L98.189684,389.475311 C87.9779149,411.343384 102.564409,509.027771 220.648974,511.940552 C338.739474,514.853333 354.776766,409.886994 346.021395,386.556976 L420.381319,328.245484 L439.799196,104.926209 C440.347506,98.6496049 436.098635,91.4764405 430.330263,88.951996 L231.123581,1.8847885 C225.349625,-0.6396566 215.966095,-0.6281533 210.180649,1.9189498 L9.5175848,90.3853836 C3.6805458,92.9554901 -0.5000219,100.105995 0.0483007,106.399681 L19.4693089,328.251434 Z M31.1315346,143.097031 L191.487843,245.153183 L190.031452,412.805694 L39.8726273,304.926636 L31.1315346,143.097031 Z M249.813431,246.603821 L408.719086,148.931107 L399.963715,303.464661 L248.348511,412.805695 L249.813431,246.603821 Z M41.2258644,105.349129 L146.390293,59.3220367 L167.149815,73.6092681 L108.621655,138.578323 L111.14201,139.418442 L223.530796,94.6968765 L185.129719,142.674698 L259.507145,113.888008 L223.511997,161.875229 L263.548405,187.438354 L222.254154,211.078918 L41.2258644,105.349129 Z M237.441635,105.349129 L273.436798,60.9896126 L165.460754,101.730797 L199.049957,65.7356644 L169.915527,46.7043038 L220.63765,23.6129075 L400.049439,105.311485 L287.891266,172.001144 L251.830277,152.133362 L306.997772,77.7559586 L237.432236,105.320877 L237.441635,105.349129 Z" id="Shape"/>
  </g>
</svg>
