<?xml version="1.0" encoding="UTF-8" standalone="no"?>
<!-- Created with Inkscape (http://www.inkscape.org/) -->

<svg
   xmlns:dc="http://purl.org/dc/elements/1.1/"
   xmlns:cc="http://creativecommons.org/ns#"
   xmlns:rdf="http://www.w3.org/1999/02/22-rdf-syntax-ns#"
   xmlns:svg="http://www.w3.org/2000/svg"
   xmlns="http://www.w3.org/2000/svg"
   xmlns:sodipodi="http://sodipodi.sourceforge.net/DTD/sodipodi-0.dtd"
   xmlns:inkscape="http://www.inkscape.org/namespaces/inkscape"
   version="1.0"
   width="452.5"
   height="820"
   viewBox="0 0 362 656"
   id="svg2"
   inkscape:version="0.48.4 r9939"
   sodipodi:docname="vitrine_door_transparent.svg">
  <sodipodi:namedview
     pagecolor="#ffffff"
     bordercolor="#666666"
     borderopacity="1"
     objecttolerance="10"
     gridtolerance="10"
     guidetolerance="10"
     inkscape:pageopacity="0"
     inkscape:pageshadow="2"
     inkscape:window-width="1858"
     inkscape:window-height="1057"
     id="namedview18"
     showgrid="false"
     inkscape:zoom="0.81403512"
     inkscape:cx="232.64343"
     inkscape:cy="311.34754"
     inkscape:window-x="1734"
     inkscape:window-y="-8"
     inkscape:window-maximized="1"
     inkscape:current-layer="svg2" />
  <defs
     id="defs12" />
  <metadata
     id="metadata4">
Created by potrace 1.8, written by Peter Selinger 2001-2007
<rdf:RDF>
  <cc:Work
     rdf:about="">
    <dc:format>image/svg+xml</dc:format>
    <dc:type
       rdf:resource="http://purl.org/dc/dcmitype/StillImage" />
    <dc:title />
  </cc:Work>
</rdf:RDF>
</metadata>
  <g
     transform="matrix(-0.17289216,0,0,-0.17289216,286.38991,519.76054)"
     id="g6"
     style="fill:#000000;stroke:none" />
  <path
     d="M 10.4375,2.1875 A 4.5237053,4.5237053 0 0 0 6.03125,6.78125 l 5.9375,560.25 a 4.5237053,4.5237053 0 0 0 1.65625,3.4375 l 42.25,34.9375 a 4.5237053,4.5237053 0 0 0 7.40625,-3.5 L 61.0625,43.28125 A 4.5237053,4.5237053 0 0 0 59.34375,39.75 L 13.375,3.1875 a 4.5237053,4.5237053 0 0 0 -2.9375,-1 z m 4.75,14 L 52.03125,45.5 54.21875,592.28125 21,564.84375 15.1875,16.1875 z"
     id="rect2984-1"
     style="font-size:medium;font-style:normal;font-variant:normal;font-weight:normal;font-stretch:normal;text-indent:0;text-align:start;text-decoration:none;line-height:normal;letter-spacing:normal;word-spacing:normal;text-transform:none;direction:ltr;block-progression:tb;writing-mode:lr-tb;text-anchor:start;baseline-shift:baseline;color:#000000;fill:#000000;fill-opacity:1;stroke:none;stroke-width:9.04650593;marker:none;visibility:visible;display:inline;overflow:visible;enable-background:accumulate;font-family:Sans;-inkscape-font-specification:Sans" />
  <path
     d="m 58.924759,39.285783 a 4.5237052,4.5237052 0 0 0 -4.532829,4.532829 l 0,558.609988 a 4.5237052,4.5237052 0 0 0 4.532829,4.53282 l 276.778241,0 a 4.5237052,4.5237052 0 0 0 4.53283,-4.53282 l 0,-558.609988 A 4.5237052,4.5237052 0 0 0 335.703,39.285783 l -276.778241,0 z m 4.502203,9.065659 267.743218,0 0,549.574948 -267.743218,0 0,-549.574948 z"
     id="rect2984"
     style="font-size:medium;font-style:normal;font-variant:normal;font-weight:normal;font-stretch:normal;text-indent:0;text-align:start;text-decoration:none;line-height:normal;letter-spacing:normal;word-spacing:normal;text-transform:none;direction:ltr;block-progression:tb;writing-mode:lr-tb;text-anchor:start;baseline-shift:baseline;color:#000000;fill:#000000;fill-opacity:1;fill-rule:nonzero;stroke:none;stroke-width:9.23045731;marker:none;visibility:visible;display:inline;overflow:visible;enable-background:accumulate;font-family:Sans;-inkscape-font-specification:Sans" />
  <path
     d="M 11.176913,1.093631 A 4.5237052,4.5237052 0 0 0 8.8492441,9.179219 L 57.025871,46.575063 a 4.5237052,4.5237052 0 0 0 2.787078,0.949444 l 275.767551,0 a 4.5237052,4.5237052 0 0 0 2.54206,-8.269352 L 283.26919,1.859312 a 4.5237052,4.5237052 0 0 0 -2.54206,-0.765681 l -269.090808,0 a 4.5237052,4.5237052 0 0 0 -0.459409,0 z m 13.629116,9.035032 254.542881,0 41.56114,28.330185 -259.56574,0 -36.538281,-28.330185 z"
     id="rect3773"
     style="font-size:medium;font-style:normal;font-variant:normal;font-weight:normal;font-stretch:normal;text-indent:0;text-align:start;text-decoration:none;line-height:normal;letter-spacing:normal;word-spacing:normal;text-transform:none;direction:ltr;block-progression:tb;writing-mode:lr-tb;text-anchor:start;baseline-shift:baseline;color:#000000;fill:#000000;fill-opacity:1;fill-rule:nonzero;stroke:none;stroke-width:9.23045731;marker:none;visibility:visible;display:inline;overflow:visible;enable-background:accumulate;font-family:Sans;-inkscape-font-specification:Sans" />
  <path
     d="m 54.921622,282.54045 c -1.792685,0.17284 1.163984,3.00726 0.665749,4.73796 -0.498235,1.73072 -2.100701,1.95075 -0.674314,3.0503 l 0.843113,31.68728 c 0.789844,0.61275 1.787425,0.95259 2.787079,0.94944 l 275.767541,0 c 1.92074,0.002 3.76515,-1.35852 4.32954,-3.19447 0.56438,-1.83594 -0.1971,-3.99788 -1.78748,-5.07488 l -54.85336,-37.39584 c -0.74614,-0.49999 -1.64389,-0.7704 -2.54206,-0.76568 l -224.314256,2.73535 c -0.153005,-0.008 13.370365,5.16561 -0.221552,3.27054 z m 5.720375,6.12128 217.437213,-3.09214 41.56114,28.33019 -259.56574,0 z"
     id="rect3773-1"
     style="font-size:medium;font-style:normal;font-variant:normal;font-weight:normal;font-stretch:normal;text-indent:0;text-align:start;text-decoration:none;line-height:normal;letter-spacing:normal;word-spacing:normal;text-transform:none;direction:ltr;block-progression:tb;writing-mode:lr-tb;text-anchor:start;baseline-shift:baseline;color:#000000;fill:#000000;fill-opacity:1;fill-rule:nonzero;stroke:none;stroke-width:9.23045731;marker:none;visibility:visible;display:inline;overflow:visible;enable-background:accumulate;font-family:Sans;-inkscape-font-specification:Sans" />
  <path
     d="m 58.783362,39.694965 a 3.6805083,4.2114044 0 0 0 -3.687931,4.219894 l 0,520.045501 a 3.6805083,4.2114044 0 0 0 3.687931,4.21988 l 225.188108,0 a 3.6805083,4.2114044 0 0 0 3.68793,-4.21988 l 0,-520.045501 a 3.6805083,4.2114044 0 0 0 -3.68793,-4.219894 l -225.188108,0 z m 3.663014,8.439791 217.837164,0 0,511.634204 -217.837164,0 0,-511.634204 z"
     id="rect2984-7"
     style="font-size:medium;font-style:normal;font-variant:normal;font-weight:normal;font-stretch:normal;text-indent:0;text-align:start;text-decoration:none;line-height:normal;letter-spacing:normal;word-spacing:normal;text-transform:none;direction:ltr;block-progression:tb;writing-mode:lr-tb;text-anchor:start;baseline-shift:baseline;color:#000000;fill:#000000;fill-opacity:1;fill-rule:nonzero;stroke:none;stroke-width:9.23045731;marker:none;visibility:visible;display:inline;overflow:visible;enable-background:accumulate;font-family:Sans;-inkscape-font-specification:Sans" />
  <path
     d="m 55.066651,421.6065 c -1.79268,0.17284 1.16399,3.00726 0.66575,4.73796 -0.49823,1.73072 -2.1007,1.95075 -0.67431,3.0503 l 0.84311,31.68728 c 0.78985,0.61275 1.78743,0.95259 2.78708,0.94944 l 275.767539,0 c 1.92075,0.002 3.76515,-1.35852 4.32955,-3.19447 0.56437,-1.83594 -0.19711,-3.99788 -1.78748,-5.07488 l -54.85336,-37.39584 c -0.74615,-0.49999 -1.64389,-0.7704 -2.54207,-0.76568 l -224.314249,2.73535 c -0.15301,-0.008 13.37036,5.16561 -0.22156,3.27054 z m 5.72038,6.12128 217.437219,-3.09214 41.56113,28.33019 -259.565739,0 z"
     id="rect3773-1-1"
     style="font-size:medium;font-style:normal;font-variant:normal;font-weight:normal;font-stretch:normal;text-indent:0;text-align:start;text-decoration:none;line-height:normal;letter-spacing:normal;word-spacing:normal;text-transform:none;direction:ltr;block-progression:tb;writing-mode:lr-tb;text-anchor:start;baseline-shift:baseline;color:#000000;fill:#000000;fill-opacity:1;fill-rule:nonzero;stroke:none;stroke-width:9.23045731;marker:none;visibility:visible;display:inline;overflow:visible;enable-background:accumulate;font-family:Sans;-inkscape-font-specification:Sans" />
  <path
     d="m 54.437424,157.55606 c -1.79268,0.17284 1.16399,3.00726 0.66575,4.73796 -0.49823,1.73072 -2.1007,1.95075 -0.67431,3.0503 l 0.84311,31.68728 c 0.78985,0.61275 1.78743,0.95259 2.78708,0.94944 l 275.767536,0 c 1.92075,0.002 3.76515,-1.35852 4.32955,-3.19447 0.56437,-1.83594 -0.19711,-3.99788 -1.78748,-5.07488 L 281.5153,152.31585 c -0.74615,-0.49999 -1.64389,-0.7704 -2.54207,-0.76568 l -224.314246,2.73535 c -0.15301,-0.008 13.37036,5.16561 -0.22156,3.27054 z m 5.72038,6.12128 217.437216,-3.09214 41.56113,28.33019 -259.565736,0 z"
     id="rect3773-1-7"
     style="font-size:medium;font-style:normal;font-variant:normal;font-weight:normal;font-stretch:normal;text-indent:0;text-align:start;text-decoration:none;line-height:normal;letter-spacing:normal;word-spacing:normal;text-transform:none;direction:ltr;block-progression:tb;writing-mode:lr-tb;text-anchor:start;baseline-shift:baseline;color:#000000;fill:#000000;fill-opacity:1;fill-rule:nonzero;stroke:none;stroke-width:9.23045731;marker:none;visibility:visible;display:inline;overflow:visible;enable-background:accumulate;font-family:Sans;-inkscape-font-specification:Sans" />
  <path
     d="m 55.695881,564.93947 c -1.792685,0.17284 1.163984,3.00726 0.665749,4.73796 -0.498235,1.73072 -2.100701,1.95075 -0.674314,3.0503 l 0.843113,31.68728 c 0.789844,0.61275 1.787425,0.95259 2.787079,0.94944 l 275.767542,0 c 1.92075,0.002 3.76515,-1.35852 4.32955,-3.19447 0.56437,-1.83594 -0.19711,-3.99788 -1.78748,-5.07488 l -54.85336,-37.39584 c -0.74615,-0.49999 -1.64389,-0.7704 -2.54207,-0.76568 l -224.314257,2.73535 c -0.153005,-0.008 13.370364,5.16561 -0.221552,3.27054 z m 5.720375,6.12128 217.437224,-3.09214 41.56113,28.33019 -259.565741,0 z"
     id="rect3773-1-4"
     style="font-size:medium;font-style:normal;font-variant:normal;font-weight:normal;font-stretch:normal;text-indent:0;text-align:start;text-decoration:none;line-height:normal;letter-spacing:normal;word-spacing:normal;text-transform:none;direction:ltr;block-progression:tb;writing-mode:lr-tb;text-anchor:start;baseline-shift:baseline;color:#000000;fill:#000000;fill-opacity:1;fill-rule:nonzero;stroke:none;stroke-width:9.23045731;marker:none;visibility:visible;display:inline;overflow:visible;enable-background:accumulate;font-family:Sans;-inkscape-font-specification:Sans" />
  <path
     d="m 56.786226,605.29972 13.501336,0 0,17.12868 -13.501336,0 z"
     id="rect3020"
     style="fill:#000000;fill-opacity:1;stroke:#000000;stroke-width:3.36270261;stroke-linecap:butt;stroke-linejoin:round;stroke-miterlimit:4;stroke-opacity:1" />
  <path
     d="m 323.65442,605.36108 13.50133,0 0,17.12868 -13.50133,0 z"
     id="rect3020-0"
     style="fill:#000000;fill-opacity:1;stroke:#000000;stroke-width:3.36270261;stroke-linecap:butt;stroke-linejoin:round;stroke-miterlimit:4;stroke-opacity:1" />
  <path
     d="m 13.670942,570.40812 10.589015,1.21347 2.912321,7.35087 0,8.56434 -13.501336,0 z"
     id="rect3020-9"
     style="fill:#000000;fill-opacity:1;stroke:#000000;stroke-width:3.36270261;stroke-linecap:butt;stroke-linejoin:round;stroke-miterlimit:4;stroke-opacity:1" />
  <path
     style="font-size:medium;font-style:normal;font-variant:normal;font-weight:normal;font-stretch:normal;text-indent:0;text-align:start;text-decoration:none;line-height:normal;letter-spacing:normal;word-spacing:normal;text-transform:none;direction:ltr;block-progression:tb;writing-mode:lr-tb;text-anchor:start;baseline-shift:baseline;color:#000000;fill:#000000;fill-opacity:1;stroke:none;stroke-width:8;marker:none;visibility:visible;display:inline;overflow:visible;enable-background:accumulate;font-family:Sans;-inkscape-font-specification:Sans"
     d="m 336.46875,39.03125 a 4.0004,4.0004 0 0 0 -0.5625,0.0625 l -259.5,45.3125 a 4.0004,4.0004 0 0 0 -3.3125,3.9375 l 1.375,562.875 a 4.0004,4.0004 0 0 0 4.78125,3.9375 l 258.09375,-50.8125 a 4.0004,4.0004 0 0 0 3.25,-3.90625 l 0,-557.40625 a 4.0004,4.0004 0 0 0 -4.125,-4 z m -3.875,8.75 0,549.34375 -250.125,49.21875 -1.375,-554.65625 251.5,-43.90625 z"
     id="rect3779"
     inkscape:connector-curvature="0" />
  <path
     style="font-size:medium;font-style:normal;font-variant:normal;font-weight:normal;font-stretch:normal;text-indent:0;text-align:start;text-decoration:none;line-height:normal;letter-spacing:normal;word-spacing:normal;text-transform:none;direction:ltr;block-progression:tb;writing-mode:lr-tb;text-anchor:start;baseline-shift:baseline;color:#000000;fill:#000000;fill-opacity:1;fill-rule:nonzero;stroke:none;stroke-width:10;marker:none;visibility:visible;display:inline;overflow:visible;enable-background:accumulate;font-family:Sans;-inkscape-font-specification:Sans"
     d="m 100.25,319.825 c -3.724816,0 -6.882568,2.19681 -8.85,5.025 -1.967432,2.82819 -3.025,6.4022 -3.025,10.275 0,3.8728 1.057568,7.44681 3.025,10.275 1.967432,2.82819 5.125184,5.025 8.85,5.025 3.72482,0 6.85757,-2.19681 8.825,-5.025 1.96743,-2.82819 3.025,-6.4022 3.025,-10.275 0,-3.8728 -1.05757,-7.44681 -3.025,-10.275 -1.96743,-2.82819 -5.10018,-5.025 -8.825,-5.025 z m 0,8 c 0.61729,0 1.39693,0.33777 2.275,1.6 0.87807,1.26223 1.575,3.33103 1.575,5.7 0,2.36897 -0.69693,4.43777 -1.575,5.7 -0.87807,1.26223 -1.65771,1.6 -2.275,1.6 -0.617288,0 -1.396928,-0.33777 -2.275,-1.6 -0.878072,-1.26223 -1.6,-3.33103 -1.6,-5.7 0,-2.36897 0.721928,-4.43777 1.6,-5.7 0.878072,-1.26223 1.657712,-1.6 2.275,-1.6 z"
     id="path2999"
     inkscape:connector-curvature="0" />
</svg>
