<?xml version="1.0" encoding="UTF-8" standalone="no"?>
<!-- Created with Inkscape (http://www.inkscape.org/) -->

<svg
   xmlns:dc="http://purl.org/dc/elements/1.1/"
   xmlns:cc="http://creativecommons.org/ns#"
   xmlns:rdf="http://www.w3.org/1999/02/22-rdf-syntax-ns#"
   xmlns:svg="http://www.w3.org/2000/svg"
   xmlns="http://www.w3.org/2000/svg"
   xmlns:sodipodi="http://sodipodi.sourceforge.net/DTD/sodipodi-0.dtd"
   xmlns:inkscape="http://www.inkscape.org/namespaces/inkscape"
   version="1.0"
   width="362pt"
   height="648pt"
   viewBox="0 0 362 648"
   id="svg2"
   inkscape:version="0.48.4 r9939"
   sodipodi:docname="vitrine.svg">
  <sodipodi:namedview
     pagecolor="#ffffff"
     bordercolor="#666666"
     borderopacity="1"
     objecttolerance="10"
     gridtolerance="10"
     guidetolerance="10"
     inkscape:pageopacity="0"
     inkscape:pageshadow="2"
     inkscape:window-width="1618"
     inkscape:window-height="1027"
     id="namedview7"
     showgrid="false"
     inkscape:zoom="0.82408494"
     inkscape:cx="-49.102258"
     inkscape:cy="401.87894"
     inkscape:window-x="54"
     inkscape:window-y="-8"
     inkscape:window-maximized="1"
     inkscape:current-layer="svg2" />
  <defs
     id="defs12" />
  <metadata
     id="metadata4">
Created by potrace 1.8, written by Peter Selinger 2001-2007
<rdf:RDF>
  <cc:Work
     rdf:about="">
    <dc:format>image/svg+xml</dc:format>
    <dc:type
       rdf:resource="http://purl.org/dc/dcmitype/StillImage" />
    <dc:title />
  </cc:Work>
</rdf:RDF>
</metadata>
  <g
     transform="matrix(-0.17289216,0,0,-0.17289216,286.38991,511.76054)"
     id="g6"
     style="fill:#000000;stroke:none" />
  <path
     style="font-size:medium;font-style:normal;font-variant:normal;font-weight:normal;font-stretch:normal;text-indent:0;text-align:start;text-decoration:none;line-height:normal;letter-spacing:normal;word-spacing:normal;text-transform:none;direction:ltr;block-progression:tb;writing-mode:lr-tb;text-anchor:start;baseline-shift:baseline;color:#000000;fill:#000000;fill-opacity:1;stroke:none;stroke-width:9.23045731;marker:none;visibility:visible;display:inline;overflow:visible;enable-background:accumulate;font-family:Sans;-inkscape-font-specification:Sans"
     d="m 10.53125,18.21875 a 4.6156902,4.6156902 0 0 0 -4.5,4.65625 l 6.0625,571.65625 a 4.6156902,4.6156902 0 0 0 1.6875,3.5 l 43.125,35.65625 a 4.6156902,4.6156902 0 0 0 7.5625,-3.5625 l -2.28125,-570 a 4.6156902,4.6156902 0 0 0 -1.75,-3.59375 L 13.53125,19.21875 a 4.6156902,4.6156902 0 0 0 -3,-1 z M 15.375,32.5 52.96875,62.375 55.1875,620.3125 21.28125,592.28125 15.375,32.5 z"
     id="rect2984-1"
     inkscape:connector-curvature="0" />
  <path
     style="font-size:medium;font-style:normal;font-variant:normal;font-weight:normal;font-stretch:normal;text-indent:0;text-align:start;text-decoration:none;line-height:normal;letter-spacing:normal;word-spacing:normal;text-transform:none;direction:ltr;block-progression:tb;writing-mode:lr-tb;text-anchor:start;baseline-shift:baseline;color:#000000;fill:#000000;fill-opacity:1;fill-rule:nonzero;stroke:none;stroke-width:9.23045731;marker:none;visibility:visible;display:inline;overflow:visible;enable-background:accumulate;font-family:Sans;-inkscape-font-specification:Sans"
     d="m 60,56.0625 a 4.6156902,4.6156902 0 0 0 -4.625,4.625 l 0,569.96875 a 4.6156902,4.6156902 0 0 0 4.625,4.625 l 282.40625,0 a 4.6156902,4.6156902 0 0 0 4.625,-4.625 l 0,-569.96875 a 4.6156902,4.6156902 0 0 0 -4.625,-4.625 L 60,56.0625 z m 4.59375,9.25 273.1875,0 0,560.75 -273.1875,0 0,-560.75 z"
     id="rect2984"
     inkscape:connector-curvature="0" />
  <path
     style="font-size:medium;font-style:normal;font-variant:normal;font-weight:normal;font-stretch:normal;text-indent:0;text-align:start;text-decoration:none;line-height:normal;letter-spacing:normal;word-spacing:normal;text-transform:none;direction:ltr;block-progression:tb;writing-mode:lr-tb;text-anchor:start;baseline-shift:baseline;color:#000000;fill:#000000;fill-opacity:1;fill-rule:nonzero;stroke:none;stroke-width:9.23045731;marker:none;visibility:visible;display:inline;overflow:visible;enable-background:accumulate;font-family:Sans;-inkscape-font-specification:Sans"
     d="m 11.28125,17.09375 a 4.6156902,4.6156902 0 0 0 -2.375,8.25 L 58.0625,63.5 a 4.6156902,4.6156902 0 0 0 2.84375,0.96875 l 281.375,0 a 4.6156902,4.6156902 0 0 0 2.59375,-8.4375 L 288.90625,17.875 a 4.6156902,4.6156902 0 0 0 -2.59375,-0.78125 l -274.5625,0 a 4.6156902,4.6156902 0 0 0 -0.46875,0 z m 13.90625,9.21875 259.71875,0 42.40625,28.90625 -264.84375,0 L 25.1875,26.3125 z"
     id="rect3773"
     inkscape:connector-curvature="0" />
  <path
     style="font-size:medium;font-style:normal;font-variant:normal;font-weight:normal;font-stretch:normal;text-indent:0;text-align:start;text-decoration:none;line-height:normal;letter-spacing:normal;word-spacing:normal;text-transform:none;direction:ltr;block-progression:tb;writing-mode:lr-tb;text-anchor:start;baseline-shift:baseline;color:#000000;fill:#000000;fill-opacity:1;fill-rule:nonzero;stroke:none;stroke-width:9.23045731;marker:none;visibility:visible;display:inline;overflow:visible;enable-background:accumulate;font-family:Sans;-inkscape-font-specification:Sans"
     d="m 55.915463,304.2635 c -1.829137,0.17636 1.187652,3.06841 0.679286,4.83431 -0.508366,1.76591 -2.143416,1.99041 -0.688025,3.11232 l 0.860257,32.33161 c 0.805904,0.62521 1.82377,0.97196 2.843751,0.96875 l 281.374998,0 c 1.95979,0.002 3.84171,-1.38615 4.41757,-3.25943 0.57586,-1.87327 -0.20111,-4.07917 -1.82382,-5.17807 l -55.96875,-38.15625 c -0.76131,-0.51016 -1.67732,-0.78607 -2.59375,-0.78125 l -228.87546,2.79097 c -0.156116,-0.008 13.642238,5.27065 -0.226057,3.33704 z m 5.836693,6.24575 221.858574,-3.15501 42.40625,28.90625 -264.843748,0 z"
     id="rect3773-1"
     inkscape:connector-curvature="0"
     sodipodi:nodetypes="csccccscccccccccc" />
  <path
     style="font-size:medium;font-style:normal;font-variant:normal;font-weight:normal;font-stretch:normal;text-indent:0;text-align:start;text-decoration:none;line-height:normal;letter-spacing:normal;word-spacing:normal;text-transform:none;direction:ltr;block-progression:tb;writing-mode:lr-tb;text-anchor:start;baseline-shift:baseline;color:#000000;fill:#000000;fill-opacity:1;fill-rule:nonzero;stroke:none;stroke-width:9.23045731;marker:none;visibility:visible;display:inline;overflow:visible;enable-background:accumulate;font-family:Sans;-inkscape-font-specification:Sans"
     d="m 59.855728,56.479998 a 3.7553477,2.0086848 0 0 0 -3.762922,2.012734 l 0,248.042548 a 3.7553477,2.0086848 0 0 0 3.762922,2.01273 l 229.767082,0 a 3.7553477,2.0086848 0 0 0 3.76292,-2.01273 l 0,-248.042548 a 3.7553477,2.0086848 0 0 0 -3.76292,-2.012734 l -229.767082,0 z m 3.737497,4.025469 222.266665,0 0,244.030673 -222.266665,0 0,-244.030673 z"
     id="rect2984-7"
     inkscape:connector-curvature="0" />
  <path
     style="fill:#000000;fill-opacity:1;stroke:none"
     d="m 311.61836,486.36618 c 0,5.09337 -4.12899,9.22236 -9.22235,9.22236 -5.09336,0 -9.22235,-4.12899 -9.22235,-9.22236 0,-5.09336 4.12899,-9.22235 9.22235,-9.22235 5.09336,0 9.22235,4.12899 9.22235,9.22235 z"
     id="path3039"
     inkscape:connector-curvature="0" />
</svg>
