<?xml version="1.0" encoding="UTF-8"?>
<svg xmlns="http://www.w3.org/2000/svg" xmlns:xlink="http://www.w3.org/1999/xlink" width="512px" height="496px" viewBox="0 0 512 496" version="1.1">
  <defs/>
  <g fill="#000000" id="layer1">
    <path d="M118.912781,0.3083162 C98.4535523,0.3083162 82.0446244,16.3849077 82.0446244,36.1379327 L82.0446244,158.685593 L36.8681526,158.685593 C16.408926,158.685593 0,174.824493 0,194.515213 L0,459.862076 C0,479.615128 16.408926,495.691696 36.8681526,495.691696 L311.042591,495.691696 C331.50182,495.691666 348.430012,479.615097 348.430012,459.862076 L348.430012,416.243423 L475.131824,416.243423 C495.570282,416.243439 512,400.104492 512,380.413788 L512,115.06694 C512,95.3554535 495.570282,79.7565918 475.131836,79.7565918 L429.955383,79.7565918 L429.955383,36.1379318 C429.955383,16.3849087 413.504913,0.3083153 393.087219,0.3083153 L118.912781,0.3083153 L118.912781,0.3083162 Z M118.912781,20.5598373 L393.087219,20.5598373 C402.039429,20.5598392 409.18457,27.455738 409.18457,36.1379318 L409.18457,79.7565918 L200.957398,79.7565918 C180.539719,79.7565918 163.569977,95.3554535 163.569977,115.06694 L163.569977,158.685593 L102.815414,158.685593 L102.815414,36.1379318 C102.815414,27.4557381 109.898254,20.5598373 118.912781,20.5598373 Z M200.957397,99.4888458 L409.18457,99.4888458 L409.18457,300.965515 C409.18457,309.647736 402.039429,317.062866 393.087219,317.062866 L348.430023,317.062866 L348.430023,194.515213 C348.430054,174.824493 331.501831,158.685593 311.042603,158.685593 L184.340775,158.685593 L184.340775,115.06694 C184.340774,106.40551 192.005203,99.4888458 200.957397,99.4888458 Z M429.955383,99.4888458 L475.131836,99.4888458 C484.104828,99.4888458 491.229218,106.405518 491.229218,115.06694 L491.229218,380.413803 C491.229218,389.075211 484.104828,395.991898 475.131836,395.991898 L348.430023,395.991898 L348.430023,337.314407 L393.087219,337.314407 C413.504883,337.314377 429.955383,320.718552 429.955383,300.96553 L429.955383,99.4888458 Z M36.8681526,178.937118 L82.0446243,178.937118 L82.0446243,300.965515 C82.0446243,320.718567 98.4535522,337.314392 118.912781,337.314392 L163.569977,337.314392 L163.569977,380.413788 C163.569977,400.104492 180.539719,416.243408 200.957397,416.243408 L327.659241,416.243408 L327.659241,459.862061 C327.659271,468.523529 320.057098,475.440155 311.042602,475.440155 L36.8681526,475.440155 C27.7913189,475.440125 20.770792,468.523499 20.770792,459.862061 L20.770792,194.515213 C20.7707939,185.874557 27.7913189,178.937118 36.8681526,178.937118 Z M102.815414,178.937118 L163.569977,178.937118 L163.569977,317.062866 L118.912781,317.062866 C109.898254,317.062866 102.815415,309.647705 102.815415,300.965515 L102.815415,178.937118 L102.815414,178.937118 Z M184.340774,178.937118 L311.042603,178.937118 C320.057098,178.937118 327.659241,185.874557 327.659241,194.515213 L327.659241,317.062866 L184.340774,317.062866 L184.340774,178.937118 Z M184.340775,337.314392 L327.659241,337.314392 L327.659241,395.991882 L200.957398,395.991882 C192.005203,395.991882 184.340775,389.075195 184.340775,380.413788 L184.340775,337.314392 L184.340775,337.314392 Z" id="Shape"/>
  </g>
</svg>
