<?xml version="1.0" encoding="UTF-8" standalone="no"?>
<svg
   version="1.0"
   width="468pt"
   height="440pt"
   viewBox="0 0 468 440"
   id="svg2"
   inkscape:version="1.1 (c68e22c387, 2021-05-23)"
   sodipodi:docname="wallbox.svg"
   xmlns:inkscape="http://www.inkscape.org/namespaces/inkscape"
   xmlns:sodipodi="http://sodipodi.sourceforge.net/DTD/sodipodi-0.dtd"
   xmlns="http://www.w3.org/2000/svg"
   xmlns:svg="http://www.w3.org/2000/svg"
   xmlns:rdf="http://www.w3.org/1999/02/22-rdf-syntax-ns#"
   xmlns:cc="http://creativecommons.org/ns#"
   xmlns:dc="http://purl.org/dc/elements/1.1/">
  <sodipodi:namedview
     pagecolor="#ffffff"
     bordercolor="#666666"
     borderopacity="1"
     objecttolerance="10"
     gridtolerance="10"
     guidetolerance="10"
     inkscape:pageopacity="0"
     inkscape:pageshadow="2"
     inkscape:window-width="1920"
     inkscape:window-height="1027"
     id="namedview9"
     showgrid="false"
     inkscape:zoom="1.1410407"
     inkscape:cx="430.74712"
     inkscape:cy="234.43511"
     inkscape:window-x="1912"
     inkscape:window-y="-8"
     inkscape:window-maximized="1"
     inkscape:current-layer="svg2"
     inkscape:pagecheckerboard="0"
     inkscape:document-units="pt" />
  <defs
     id="defs12" />
  <metadata
     id="metadata4">
Created by potrace 1.8, written by Peter Selinger 2001-2007
<rdf:RDF>
  <cc:Work
     rdf:about="">
    <dc:format>image/svg+xml</dc:format>
    <dc:type
       rdf:resource="http://purl.org/dc/dcmitype/StillImage" />
  </cc:Work>
</rdf:RDF>
</metadata>
  <path
     style="color:#000000;fill:#000000;fill-opacity:1;stroke:#000000;stroke-width:0.81459;stroke-opacity:1;-inkscape-stroke:none"
     d="m 207.69382,0.25 c -21.71653,-0.015405 -43.4142,1.1698964 -60.64942,3.6035156 -8.61761,1.2168096 -16.10636,2.7335423 -22.05681,4.6484375 -5.95045,1.9148949 -10.20544,3.1219349 -13.75845,8.5371089 -1.90598,2.904914 -2.61842,5.866549 -3.4137,9.439454 -0.79527,3.572904 -1.46315,7.770549 -2.08139,12.662109 -1.23648,9.783119 -2.2482,22.31153 -3.07673,36.824219 -1.65706,29.025376 -2.55453,65.905126 -2.62961,102.865236 -0.07507,36.96011 0.67146,73.94856 2.34578,103.21484 0.83716,14.63314 1.89795,27.31531 3.25688,37.30664 1.35893,9.99133 2.15989,17.05093 6.15346,22.71485 3.67677,5.2146 7.70407,5.94128 13.60812,7.60351 5.90404,1.66223 13.38735,2.9697 22.01793,3.9961 17.26115,2.05278 39.06196,2.94448 60.85937,2.67382 21.79743,-0.27065 43.55449,-1.70244 60.74534,-4.36523 8.59542,-1.33139 16.03543,-2.95525 21.91425,-4.99024 5.87882,-2.03498 10.13535,-3.15271 13.55627,-9.30273 3.23405,-5.81405 4.01331,-12.66932 5.23978,-22.61914 1.22646,-9.94982 2.21693,-22.5326 3.01582,-36.99805 1.59775,-28.93089 2.40699,-65.32198 2.43,-101.63867 0.023,-36.31668 -0.74018,-72.51032 -2.32762,-101.064452 -0.79373,-14.277065 -1.78651,-26.623376 -3.03656,-36.318359 -0.62502,-4.847492 -1.30676,-9.026719 -2.13065,-12.605469 -0.82387,-3.57875 -1.6137,-6.594071 -3.51607,-9.445313 -3.56414,-5.341876 -7.80037,-6.52957 -13.75066,-8.4316401 C 284.45884,6.6584767 276.9677,5.1423463 268.34844,3.921875 251.10992,1.4809325 229.41037,0.26540496 207.69382,0.25 Z m -0.005,16.035156 c 21.45471,0.01522 42.92928,1.231893 59.66445,3.601563 8.36759,1.184835 15.56324,2.669755 20.84893,4.359375 5.28568,1.68962 8.83518,4.684778 8.45518,4.115234 -0.30578,-0.458285 0.39888,0.864962 0.96682,3.332031 0.56796,2.46707 1.17484,6.04077 1.73795,10.408203 1.12625,8.734868 2.1042,20.672942 2.87845,34.59961 1.54847,27.853338 2.31284,63.744958 2.29005,99.710938 -0.0229,35.96598 -0.83267,72.05574 -2.39373,100.32226 -0.78054,14.13327 -1.75495,26.3279 -2.87327,35.4004 -1.08814,8.8277 -2.89896,14.90885 -2.87714,15.02343 -1.6e-4,-5e-5 -0.002,6e-5 -0.002,0 -0.2793,-0.0872 -3.32765,2.6359 -7.83827,4.19727 -5.15809,1.7855 -12.28714,3.37927 -20.61953,4.66992 -16.66482,2.58131 -38.1998,4.01177 -59.74482,4.2793 -21.54502,0.26752 -43.13755,-0.62717 -59.93662,-2.625 -8.39954,-0.99892 -15.61315,-2.28317 -20.89947,-3.77149 -5.28632,-1.48831 -8.94342,-4.47103 -8.27114,-3.51758 0.44882,0.63656 -1.80165,-5.29463 -3.021,-14.25976 -1.21936,-8.96513 -2.2636,-21.20445 -3.07933,-35.46289 -1.63144,-28.51687 -2.38124,-65.18936 -2.3069,-101.78906 0.0743,-36.59971 0.9717,-73.17975 2.59073,-101.539066 0.80951,-14.179656 1.80605,-26.324734 2.92769,-35.199219 0.56082,-4.437242 1.15982,-8.064157 1.71592,-10.5625 0.55609,-2.498343 1.28037,-3.85414 0.89295,-3.263672 -0.3816,0.581594 3.13771,-2.43301 8.4137,-4.130859 5.27599,-1.697849 12.46532,-3.184394 20.8282,-4.365235 16.72574,-2.36168 38.19678,-3.548422 59.65149,-3.533203 z"
     id="rect3885" />
  <path
     style="color:#000000;fill:#000000;fill-opacity:1;stroke:#000000;stroke-opacity:1;-inkscape-stroke:none"
     d="m 305.71142,63.448305 -2.10156,3.445313 54.41602,33.187502 19.34375,86.70117 h -21.94727 l -19.11719,-67.79687 -31.48633,-12.26367 -1.46484,3.75976 29.61328,11.53516 19.40039,68.80078 h 30.03711 L 361.59033,97.528384 Z"
     id="path958" />
  <path
     style="color:#000000;fill:#000000;fill-opacity:1;stroke:#000000;stroke-width:1.2261;stroke-miterlimit:4;stroke-dasharray:none;stroke-opacity:1"
     d="m 167.91792,144.02393 37.02772,-10.50456 -5.39345,55.35539 44.10054,-91.978489 -33.01198,8.111789 14.9414,-71.79811 z"
     id="polygon7085" />
  <path
     style="color:#000000;fill:#000000;fill-opacity:1;stroke:#000000;stroke-width:0.838048;stroke-opacity:1;-inkscape-stroke:none"
     d="m 372.57216,188.45504 -8.91317,2.36241 c 4.77629,32.86163 6.81675,76.72841 1.97757,116.54336 -4.83917,39.81495 -16.47693,75.07623 -38.1345,92.86606 -22.76008,18.69543 -45.33595,24.91096 -64.69373,17.19496 -19.35778,-7.716 -36.18995,-29.36966 -47.3491,-69.54636 l -8.50611,4.30825 c 11.85038,42.6653 30.82543,68.05091 53.28323,77.00258 22.45782,8.95166 47.70628,1.46572 71.98709,-18.47887 24.93817,-20.48456 37.30127,-59.59957 42.377,-101.36083 5.07574,-41.76126 2.94544,-86.67163 -2.02828,-120.89156 z"
     id="path970" />
  <path
     style="color:#000000;fill:#000000;fill-opacity:1;stroke:#000000;stroke-width:0.37;stroke-linecap:round;stroke-linejoin:round;stroke-miterlimit:4;stroke-dasharray:none;stroke-opacity:1"
     d="m 199.00445,280.29167 v 17.94656 h 18.98398 v -17.94656 z"
     id="path7613" />
  <path
     style="color:#000000;fill:#000000;stroke-linecap:round;-inkscape-stroke:none;stroke:#000000;stroke-opacity:1;fill-opacity:1"
     d="m 119.80664,22.890625 a 9.2918997,9.2918997 0 0 0 -8.05273,10.384766 l 38.78125,306.408199 a 9.2918997,9.2918997 0 0 0 10.38476,8.05274 9.2918997,9.2918997 0 0 0 8.05078,-10.38477 L 130.19141,30.943359 a 9.2918997,9.2918997 0 0 0 -10.38477,-8.052734 z"
     id="path8904" />
  <path
     style="color:#000000;fill:#000000;stroke-linecap:round;-inkscape-stroke:none;stroke:#000000;stroke-opacity:1;fill-opacity:1"
     d="m 294.41992,22.890625 a 9.2918997,9.2918997 0 0 0 -10.38476,8.052734 L 245.25391,337.35156 a 9.2918997,9.2918997 0 0 0 8.05273,10.38477 9.2918997,9.2918997 0 0 0 10.38477,-8.05274 L 302.4707,33.275391 a 9.2918997,9.2918997 0 0 0 -8.05078,-10.384766 z"
     id="path8904-6" />
</svg>
