<?xml version="1.0" encoding="UTF-8" standalone="no"?>
<svg
   xmlns:dc="http://purl.org/dc/elements/1.1/"
   xmlns:cc="http://creativecommons.org/ns#"
   xmlns:rdf="http://www.w3.org/1999/02/22-rdf-syntax-ns#"
   xmlns:svg="http://www.w3.org/2000/svg"
   xmlns="http://www.w3.org/2000/svg"
   version="1.1"
   id="svg2"
   viewBox="0 0 587.99998 588"
   height="588mm"
   width="588mm">
  <metadata
     id="metadata40">
    <rdf:RDF>
      <cc:Work
         rdf:about="">
        <dc:format>image/svg+xml</dc:format>
        <dc:type
           rdf:resource="http://purl.org/dc/dcmitype/StillImage" />
        <dc:title></dc:title>
      </cc:Work>
    </rdf:RDF>
  </metadata>
  <defs
     id="defs38" />
  <g
     transform="translate(0,432.51141)"
     id="1225e344-5bb9-48a9-b224-c0e0b57c8fd0">
    <path
       transform="matrix(0.26458332,0,0,0.26458332,0,-432.51141)"
       id="path50"
       d="M 386.70972,1485.3356 C 386.64153,992.52185 383.1057,864.37225 367.71928,797.0608 346.78287,705.46963 303.41978,632.0703 239.38357,579.83102 214.27718,559.34981 217.42982,539.1086 253.91356,486.54299 297.24597,424.10984 420.70191,303.23575 487.04095,258.29103 653.14972,145.75228 864.8581,75.964449 1149.4864,39.921649 c 40.1114,-5.079349 147.1415,-10.836394 237.8447,-12.793434 145.4153,-3.137524 170.2072,-2.276795 209.6731,7.27946 137.7353,33.351097 230.0012,113.608375 286.0419,248.812895 31.0283,74.85924 41.8465,131.24871 45.5283,237.31482 5.0947,146.76863 -14.4279,260.74018 -74.5977,435.49811 -27.6171,80.2114 -101.7584,241.495 -144.6783,314.7268 l -22.1846,37.8522 1.6343,133.1903 1.6342,133.1903 74.8356,-48.6272 c 41.1595,-26.7449 80.3111,-48.6272 87.0036,-48.6272 30.1255,0 49.0627,29.6897 35.318,55.3718 -3.7029,6.919 -50.2618,41.0345 -103.4643,75.8123 l -96.7316,63.2324 v 97.2712 97.2712 H 1037.053 386.7625 l -0.0529,-381.362 z m 691.29058,277.8824 c 42.4419,-21.2084 78.5818,-57.7389 103.0127,-104.1259 l 17.0933,-32.4551 V 1298.453 970.26902 l -16.1686,-34.49061 c -20.6874,-44.13024 -56.8536,-83.25463 -97.318,-105.27809 -44.4566,-24.19634 -108.83595,-28.02102 -158.18674,-9.39767 -70.67467,26.67036 -127.52023,100.94028 -136.26592,178.03441 l -3.96427,34.94554 H 896.4342 c 102.12813,0 111.1249,0.8935 122.3864,12.1549 14.5371,14.5371 15.8776,44.029 2.6046,57.302 -7.9911,7.9912 -27.8354,9.5503 -121.54962,9.5503 h -111.9993 v 69.8911 69.891 H 891.593 c 123.3961,0 139.0717,4.9588 139.2895,44.0618 0.049,9.1922 -5.3767,22.1828 -12.0619,28.868 -11.2546,11.2546 -20.25827,12.155 -121.54965,12.155 H 787.87628 v 69.891 69.891 h 110.4355 c 94.23269,0 112.06612,1.4758 121.54962,10.0582 14.6641,13.2708 14.1447,41.6086 -1.0408,56.7941 -11.2615,11.2615 -20.25827,12.155 -122.39989,12.155 H 786.17577 l 3.45175,33.4442 c 8.33462,80.7548 67.10408,155.7703 143.39288,183.0322 12.09267,4.3213 41.37756,7.977 65.07767,8.1237 36.12673,0.2236 49.04043,-2.7063 79.90223,-18.1281 z m 408.7455,-805.65389 c 83.9027,-78.48113 132.5206,-266.65418 126.7804,-490.6971 l -2.1512,-83.9587 -25.06,-23.36997 c -34.9741,-32.61548 -98.3761,-47.32312 -130.3153,-30.22979 -11.3972,6.0996 -11.7554,16.19259 -11.7554,331.22272 0,221.46835 2.0181,324.93146 6.3378,324.93146 3.4858,0 19.7595,-12.55438 36.1637,-27.89862 z"
       style="fill:#000000;fill-opacity:1;stroke-width:6.07748175" />
    <path
       transform="matrix(0.26458332,0,0,0.26458332,0,-432.51141)"
       id="path52"
       d="m 259.13539,2150.4035 c 0,-44.5331 3.33249,-80.0097 9.45112,-100.6133 12.19929,-41.0795 45.57651,-75.3769 82.26617,-84.5342 19.14614,-4.7787 226.07359,-5.6431 724.98972,-3.0286 l 698.1962,3.6588 24.4889,18.7773 c 41.7682,32.0266 49.5696,54.7416 51.848,150.9626 l 1.9788,83.5654 H 1055.7448 259.13539 Z"
       style="fill:#000000;fill-opacity:1;stroke-width:6.07748175" />
  </g>
</svg>
