<?xml version="1.0" encoding="UTF-8" standalone="no"?>
<svg
   xmlns:dc="http://purl.org/dc/elements/1.1/"
   xmlns:cc="http://creativecommons.org/ns#"
   xmlns:rdf="http://www.w3.org/1999/02/22-rdf-syntax-ns#"
   xmlns:svg="http://www.w3.org/2000/svg"
   xmlns="http://www.w3.org/2000/svg"
   id="svg8"
   version="1.1"
   viewBox="0 0 147.6375 147.6375"
   height="558"
   width="558">
  <defs
     id="defs2" />
  <metadata
     id="metadata5">
    <rdf:RDF>
      <cc:Work
         rdf:about="">
        <dc:format>image/svg+xml</dc:format>
        <dc:type
           rdf:resource="http://purl.org/dc/dcmitype/StillImage" />
        <dc:title></dc:title>
      </cc:Work>
    </rdf:RDF>
  </metadata>
  <g
     transform="translate(0,-149.36248)"
     id="layer1">
    <g
       transform="matrix(2.9256533,0,0,2.966741,0.74502087,170.8247)"
       id="81c1a040-eead-40fe-a931-c38b55893e18">
      <path
         style="fill:none;stroke:#000000;stroke-width:0.28;stroke-linecap:round;stroke-linejoin:round;stroke-opacity:1"
         d="m 17.227958,25.421453 c 0.09855,-0.02092 0.250647,-0.07554 0.337983,-0.121375 0.197638,-0.10372 0.46735,-0.406534 0.577177,-0.648014 l 0.08319,-0.182914 v -2.611073 l -0.119695,-0.243051 c -0.155842,-0.316449 -0.468138,-0.579285 -0.804468,-0.677059 -0.333551,-0.09697 -0.377998,-0.09697 -0.711549,0 -0.33633,0.09777 -0.648626,0.36061 -0.804468,0.677059 l -0.119695,0.243051 -0.03527,2.303888 0.05972,0.268853 c 0.0771,0.34709 0.394671,0.757057 0.684846,0.884096 0.259085,0.113427 0.611977,0.157543 0.852229,0.106539"
         id="path1287" />
      <path
         style="fill:none;stroke:#000000;stroke-width:0.28;stroke-linecap:round;stroke-linejoin:round;stroke-opacity:1"
         d="m 26.776291,25.433092 c 0.05632,-0.01239 0.171512,-0.04862 0.255987,-0.08052 0.288211,-0.108807 0.499507,-0.313225 0.647825,-0.626737 l 0.145656,-0.307886 -9.2e-4,-2.508677 -0.12014,-0.255988 c -0.317642,-0.676809 -1.028287,-0.943058 -1.712846,-0.641732 -0.30258,0.133188 -0.586067,0.45256 -0.678699,0.764614 l -0.05471,0.184303 0.03312,2.611395 0.153592,0.24326 c 0.291523,0.461716 0.85417,0.722918 1.331135,0.617965"
         id="path1289" />
      <path
         style="fill:none;stroke:#000000;stroke-width:0.28;stroke-linecap:round;stroke-linejoin:round;stroke-opacity:1"
         d="m 20.376604,25.435047 c 0.05632,-0.01398 0.179247,-0.04939 0.273178,-0.0787 0.249078,-0.07771 0.519518,-0.337779 0.655989,-0.63084 l 0.119381,-0.25636 v -2.611073 l -0.120177,-0.258079 c -0.485386,-1.042359 -2.038416,-0.913446 -2.360933,0.195975 l -0.08586,0.295335 0.03369,2.429039 0.09533,0.179192 c 0.131238,0.246694 0.380848,0.502489 0.601211,0.616107 0.192856,0.09944 0.612503,0.163007 0.788189,0.119401"
         id="path1291" />
      <path
         style="fill:none;stroke:#000000;stroke-width:0.28;stroke-linecap:round;stroke-linejoin:round;stroke-opacity:1"
         d="m 23.653244,25.417533 c 0.08448,-0.02172 0.21479,-0.06405 0.289587,-0.09406 0.195196,-0.07833 0.500095,-0.399793 0.61116,-0.644353 l 0.09536,-0.209967 0.0022,-2.588763 -0.07397,-0.177028 c -0.20774,-0.497191 -0.674054,-0.811269 -1.205971,-0.81226 -0.517502,-9.65e-4 -0.932201,0.274615 -1.162031,0.772205 l -0.122864,0.266005 0.03056,2.591038 0.126653,0.247962 c 0.158917,0.311127 0.448781,0.543859 0.786464,0.631453 0.286037,0.0742 0.391609,0.07721 0.622808,0.01777"
         id="path1293" />
      <path
         style="fill:none;stroke:#000000;stroke-width:0.28;stroke-linecap:round;stroke-linejoin:round;stroke-opacity:1"
         d="m 30.052931,25.422059 c 0.08448,-0.0219 0.222709,-0.07627 0.307185,-0.120816 0.193515,-0.102045 0.44636,-0.368842 0.57024,-0.601704 l 0.09533,-0.179192 V 21.80688 L 30.914199,21.598598 C 30.7466,21.285484 30.43436,21.03032 30.099789,20.933057 c -0.342286,-0.09951 -0.591819,-0.07224 -0.934243,0.102074 -0.298756,0.152086 -0.432428,0.294199 -0.582039,0.618794 l -0.117696,0.25535 v 2.508677 l 0.12166,0.26916 c 0.13025,0.288166 0.385019,0.546523 0.646786,0.655897 0.212881,0.08895 0.626476,0.128883 0.818677,0.07905"
         id="path1295" />
      <path
         style="fill:none;stroke:#000000;stroke-width:0.28;stroke-linecap:round;stroke-linejoin:round;stroke-opacity:1"
         d="m 33.356737,25.388864 c 0.127576,-0.03933 0.327141,-0.152978 0.443477,-0.252558 0.116337,-0.09958 0.265384,-0.290427 0.331216,-0.424105 l 0.119696,-0.243051 0.03503,-2.096834 -0.03443,-0.321491 c -0.06133,-0.572666 -0.479195,-1.028897 -1.051878,-1.148449 -0.536156,-0.111926 -1.09426,0.170105 -1.369566,0.692095 l -0.13903,0.263606 v 2.66227 l 0.138836,0.236167 c 0.190549,0.324132 0.44993,0.538222 0.765691,0.631993 0.318788,0.09467 0.454807,0.09473 0.760959,3.57e-4"
         id="path1297" />
      <path
         style="fill:none;stroke:#000000;stroke-width:0.28;stroke-linecap:round;stroke-linejoin:round;stroke-opacity:1"
         d="m 22.467391,30.785919 0.2131,0.103413 4.556577,0.0029 0.214204,-0.09725 c 0.693057,-0.314658 0.678368,-1.433937 -0.02266,-1.726846 l -0.171624,-0.07171 -4.609362,0.0054 -0.162757,0.06966 c -0.702877,0.300827 -0.713841,1.376538 -0.01748,1.714468"
         id="path1299" />
      <path
         style="fill:none;stroke:#000000;stroke-width:0.28;stroke-linecap:round;stroke-linejoin:round;stroke-opacity:1"
         d="m 16.803703,24.812479 c 0.07847,0.0097 0.202814,0.0024 0.276325,-0.0164 0.206893,-0.05279 0.345347,-0.140092 0.43205,-0.272418 l 0.07933,-0.121073 -0.03067,-2.570615 -0.14622,-0.125563 c -0.08042,-0.06906 -0.225224,-0.151637 -0.321784,-0.183505 -0.152144,-0.05021 -0.207766,-0.04196 -0.416953,0.06182 -0.132764,0.06587 -0.269847,0.177356 -0.304631,0.247753 l -0.06324,0.127993 -0.0015,2.479666 0.177316,0.177316 c 0.09752,0.09752 0.241517,0.185285 0.319984,0.195025"
         id="path1301" />
      <path
         style="fill:none;stroke:#000000;stroke-width:0.28;stroke-linecap:round;stroke-linejoin:round;stroke-opacity:1"
         d="m 23.199764,24.796197 c 0.08046,0.02175 0.215579,0.02411 0.30026,0.0052 0.230581,-0.05138 0.374612,-0.158723 0.463047,-0.345084 l 0.07941,-0.16734 -0.03085,-2.417216 -0.194078,-0.167681 c -0.106742,-0.09222 -0.256495,-0.180418 -0.332783,-0.195986 -0.211216,-0.0431 -0.580381,0.158117 -0.689,0.375548 l -0.08952,0.179191 -1.59e-4,2.179183 0.06973,0.164747 c 0.0861,0.203426 0.232115,0.337542 0.423944,0.3894"
         id="path1303" />
      <path
         style="fill:none;stroke:#000000;stroke-width:0.28;stroke-linecap:round;stroke-linejoin:round;stroke-opacity:1"
         d="m 19.947672,24.782269 c 0.09512,0.03413 0.219022,0.05098 0.275339,0.03743 0.255699,-0.06151 0.390628,-0.144428 0.485924,-0.298619 l 0.102848,-0.166411 v -2.310734 l -0.04806,-0.126411 c -0.06749,-0.177522 -0.248893,-0.333395 -0.453853,-0.389987 -0.216358,-0.05974 -0.527091,0.05094 -0.676586,0.240992 l -0.101437,0.128956 v 2.540356 l 0.121441,0.141184 c 0.06679,0.07765 0.199266,0.169111 0.294386,0.203244"
         id="path1305" />
      <path
         style="fill:none;stroke:#000000;stroke-width:0.28;stroke-linecap:round;stroke-linejoin:round;stroke-opacity:1"
         d="m 32.82852,24.815617 c 0.07847,0.01147 0.188746,0.01016 0.245063,-0.0029 0.179976,-0.04175 0.375382,-0.160384 0.45767,-0.277866 l 0.0799,-0.114079 v -2.541746 l -0.128484,-0.128484 c -0.212193,-0.212193 -0.46099,-0.292599 -0.680852,-0.220038 -0.199184,0.06574 -0.246361,0.102751 -0.383101,0.300571 l -0.0875,0.126586 v 2.482481 l 0.177317,0.177316 c 0.09752,0.09752 0.241517,0.186697 0.319984,0.198163"
         id="path1307" />
      <path
         style="fill:none;stroke:#000000;stroke-width:0.28;stroke-linecap:round;stroke-linejoin:round;stroke-opacity:1"
         d="m 29.614762,24.800292 c 0.07204,0.0195 0.21162,0.01755 0.310175,-0.0043 0.09875,-0.02192 0.242399,-0.110323 0.319984,-0.196904 0.155403,-0.173422 0.151598,-0.122663 0.147318,-1.96548 l -0.0016,-0.70923 -0.08355,-0.127518 c -0.100032,-0.152667 -0.487932,-0.335591 -0.620445,-0.292585 -0.315041,0.102245 -0.389442,0.153822 -0.48112,0.333527 l -0.0997,0.195421 v 2.266893 l 0.08347,0.1759 c 0.08514,0.179426 0.192481,0.261235 0.425515,0.32431"
         id="path1309" />
      <path
         style="fill:none;stroke:#000000;stroke-width:0.28;stroke-linecap:round;stroke-linejoin:round;stroke-opacity:1"
         d="m 26.17501,24.712093 c 0.07793,0.04832 0.245742,0.08772 0.376787,0.08848 0.265673,0.0015 0.458895,-0.117266 0.583899,-0.358998 l 0.07577,-0.14653 v -2.209866 l -0.06968,-0.166778 c -0.09377,-0.22442 -0.206246,-0.328465 -0.418419,-0.387049 -0.238877,-0.06596 -0.48014,0.007 -0.66675,0.201668 l -0.150682,0.157175 -0.03085,2.398818 0.07971,0.167983 c 0.04384,0.09239 0.14294,0.207185 0.220216,0.255099"
         id="path1311" />
      <path
         style="fill:none;stroke:#000000;stroke-width:0.28;stroke-linecap:round;stroke-linejoin:round;stroke-opacity:1"
         d="m 22.422322,6.326655 0.155774,0.094994 4.68786,3.83e-4 0.167138,-0.069835 C 27.639486,6.265961 27.848281,6.024326 27.929775,5.777395 28.065191,5.367083 27.842724,4.856148 27.451272,4.678422 L 27.237068,4.581171 h -4.556577 l -0.214203,0.097251 c -0.367446,0.166826 -0.586926,0.620752 -0.506759,1.048076 0.03873,0.206466 0.235373,0.461472 0.462793,0.600157"
         id="path1313" />
      <path
         style="fill:none;stroke:#000000;stroke-width:0.28;stroke-linecap:round;stroke-linejoin:round;stroke-opacity:1"
         d="m 15.333981,16.752048 0.229894,0.116116 7.842184,-0.02744 0.221337,-0.153403 c 0.379756,-0.2632 0.504442,-0.711873 0.313063,-1.126535 -0.110581,-0.239597 -0.277861,-0.405411 -0.490159,-0.485863 l -0.151746,-0.05751 -7.81684,0.006 -0.138029,0.07211 c -0.675688,0.353002 -0.681337,1.317265 -0.0097,1.656496"
         id="path1315" />
      <path
         style="fill:none;stroke:#000000;stroke-width:0.28;stroke-linecap:round;stroke-linejoin:round;stroke-opacity:1"
         d="m 1.407931,23.576424 c 0.070397,0.02154 0.260467,0.04115 0.42238,0.04357 l 0.294385,0.0044 v -11.78889 l -0.371182,0.02434 c -0.678237,0.04447 -1.254535,0.435487 -1.564651,1.061611 L 0,13.302765 v 8.867786 l 0.188863,0.381337 c 0.247678,0.50009 0.672814,0.857385 1.219068,1.024536"
         id="path1317" />
      <path
         style="fill:none;stroke:#000000;stroke-width:0.28;stroke-linecap:round;stroke-linejoin:round;stroke-opacity:1"
         d="m 47.792864,11.835501 v 11.78889 h 0.282865 c 0.373068,0 0.791774,-0.152447 1.125181,-0.409669 0.324348,-0.250233 0.497754,-0.499651 0.639112,-0.919264 l 0.105376,-0.312805 -0.02784,-8.679952 -0.193053,-0.390574 c -0.31396,-0.635186 -0.857722,-1.001274 -1.560462,-1.050582 l -0.371181,-0.02604"
         id="path1319" />
      <path
         style="fill:none;stroke:#000000;stroke-width:0.28;stroke-linecap:round;stroke-linejoin:round;stroke-opacity:1"
         d="m 3.969047,25.231834 0.280345,0.07534 4.183551,0.0067 -0.055724,-0.127993 -0.255213,-0.62036 C 6.555068,20.756728 6.368009,16.422846 7.596334,12.38654 7.804388,11.702869 8.051487,11.02821 8.287784,10.498662 8.361596,10.333246 8.421988,10.188321 8.421988,10.176606 v -0.0213 l -4.377386,0.02974 -0.294214,0.118809 c -0.410704,0.165849 -0.815247,0.550295 -1.022887,0.97207 l -0.167626,0.3405 V 23.85478 l 0.133629,0.281586 c 0.264345,0.557035 0.716303,0.945187 1.275543,1.095468"
         id="path1321" />
      <path
         style="fill:none;stroke:#000000;stroke-width:0.28;stroke-linecap:round;stroke-linejoin:round;stroke-opacity:1"
         d="m 41.495571,25.297364 v 0.02164 l 4.377386,-0.03089 0.294215,-0.11871 c 0.41067,-0.165698 0.815192,-0.550084 1.022886,-0.971972 l 0.167627,-0.340497 V 11.616425 L 47.192131,11.280138 C 46.979812,10.848857 46.58777,10.472859 46.178849,10.308325 l -0.305892,-0.123079 -4.377386,-0.03089 v 0.03863 l 0.408051,0.940809 0.2825,0.839075 c 1.249224,3.710426 1.256082,7.733681 0.01954,11.461876 l -0.30219,0.911104 -0.09729,0.215241 c -0.151083,0.334231 -0.310602,0.712365 -0.310602,0.73627"
         id="path1323" />
      <path
         style="fill:none;stroke:#000000;stroke-width:0.28;stroke-linecap:round;stroke-linejoin:round;stroke-opacity:1"
         d="m 16.076014,26.136632 0.153593,0.03715 17.421962,0.01048 0.325377,-0.100877 c 0.399502,-0.123857 0.766294,-0.453021 0.948644,-0.851326 l 0.123888,-0.270607 -0.03039,-3.717749 -0.117412,-0.219896 c -0.17976,-0.336666 -0.435742,-0.590306 -0.762969,-0.755989 L 33.841546,20.117363 H 16.076014 l -0.324276,0.175812 c -0.323548,0.175418 -0.575663,0.432209 -0.757295,0.771341 l -0.09597,0.179191 -0.03039,3.717749 0.125339,0.273777 c 0.200569,0.438101 0.623675,0.790392 1.082593,0.901399"
         id="path1325" />
      <path
         style="fill:none;stroke:#000000;stroke-width:0.28;stroke-linecap:round;stroke-linejoin:round;stroke-opacity:1"
         d="m 15.359249,11.021484 0.102395,0.05686 19.063568,-0.02294 0.144543,-0.107103 C 34.994789,10.707462 35.156374,10.296734 35.059854,9.956724 35.031554,9.857033 34.999285,9.7421 34.988145,9.701317 34.958737,9.593654 34.72361,9.401849 34.513334,9.31399 L 34.331211,9.237894 15.564039,9.240143 15.349836,9.337395 c -0.418052,0.189801 -0.639557,0.813653 -0.432362,1.21771 0.101466,0.197873 0.260411,0.36567 0.441775,0.466379"
         id="path1327" />
      <path
         style="fill:none;stroke:#000000;stroke-width:0.28;stroke-linecap:round;stroke-linejoin:round;stroke-opacity:1"
         d="m 15.326697,13.857382 0.274634,0.14188 h 18.678682 l 0.189648,-0.07924 c 0.388828,-0.162463 0.577155,-0.441184 0.582177,-0.861612 0.0051,-0.422772 -0.253757,-0.796785 -0.625037,-0.903267 l -0.174999,-0.05019 -18.585368,5.71e-4 -0.179191,0.05066 c -0.241657,0.06832 -0.547156,0.369223 -0.612034,0.602828 -0.08072,0.29064 -0.06473,0.479689 0.06166,0.72914 0.08885,0.17535 0.17801,0.259803 0.389827,0.36923"
         id="path1329" />
      <path
         style="fill:none;stroke:#000000;stroke-width:0.28;stroke-linecap:round;stroke-linejoin:round;stroke-opacity:1"
         d="m 23.550849,35.449434 0.40958,0.04312 2.559875,-0.04057 0.20479,-0.0285 c 0.112634,-0.01567 0.458217,-0.06239 0.767962,-0.103826 1.365485,-0.182648 2.979387,-0.629727 4.424012,-1.225527 l 0.328212,-0.135363 0.64454,-0.323452 c 3.457272,-1.734973 6.235432,-4.515822 7.975353,-7.98307 0.87818,-1.750003 1.491627,-3.801207 1.739516,-5.816474 l 0.09132,-0.742363 -0.0069,-2.764665 -0.08494,-0.684443 C 42.364998,13.717016 41.791982,11.714743 41.03794,10.171433 40.951734,9.994993 40.881201,9.842016 40.881201,9.831484 V 9.812335 L 40.52306,9.165127 C 39.172593,6.724657 37.215817,4.581379 34.942292,3.052451 L 34.199928,2.553218 33.841546,2.343464 C 31.867201,1.187923 29.445616,0.38387 27.057877,0.091042 L 26.315514,0 23.550849,0.001316 22.842324,0.092138 C 20.720828,0.364082 18.803157,0.943282 16.959738,1.868876 14.342977,3.18277 12.055827,5.180847 10.320446,7.669027 9.687039,8.577203 8.975782,9.875116 8.548878,10.901813 l -0.191593,0.460778 -0.297128,0.902936 c -0.32212,0.978887 -0.609065,2.274422 -0.747589,3.375317 L 7.22601,16.328748 7.2221,19.093413 7.313305,19.835776 c 0.201347,1.638857 0.631129,3.259657 1.288494,4.859191 l 0.134887,0.328212 0.323451,0.644541 c 0.832244,1.658407 1.889421,3.145507 3.166564,4.454314 2.875307,2.946595 6.654669,4.810133 10.653634,5.253123 l 0.670513,0.07428"
         id="path1331" />
      <path
         style="fill:none;stroke:#000000;stroke-width:0.28;stroke-linecap:round;stroke-linejoin:round;stroke-opacity:1"
         d="m 26.059526,32.97958 0.432277,-0.04163 c 0.237752,-0.0229 0.710049,-0.09015 1.049549,-0.149458 1.201854,-0.20994 2.434019,-0.568329 3.381936,-0.983674 0.539525,-0.236402 1.215276,-0.561398 1.43353,-0.689442 0.538128,-0.315707 0.713588,-0.424579 1.126345,-0.698887 0.799407,-0.531265 1.885508,-1.429636 2.432382,-2.011948 2.472415,-2.632635 3.844905,-5.554649 4.253259,-9.055139 l 0.0657,-0.563172 -0.0039,-2.150295 -0.06252,-0.537574 c -0.03439,-0.295666 -0.11811,-0.82556 -0.186053,-1.177542 L 39.858499,14.28085 39.813039,14.101659 C 39.512815,12.918401 38.99663,11.55913 38.492251,10.623648 37.964713,9.645215 37.169761,8.486307 36.488127,7.701969 36.059083,7.208279 34.891094,6.060455 34.891094,6.132507 c 0,0.012814 -0.07686,-0.049274 -0.17081,-0.137974 -0.09395,-0.0887 -0.260978,-0.232603 -0.371182,-0.319786 L 34.148731,5.516233 33.585558,5.131915 C 31.446664,3.672301 29.017182,2.793516 26.399685,2.532663 L 25.869486,2.479825 h -0.907239 c -1.058102,0 -1.74957,0.059675 -2.742533,0.236687 C 19.944,3.122194 17.7245,4.072483 15.923188,5.412395 L 15.770361,5.526076 15.283219,5.908842 C 14.059104,6.870676 12.671288,8.483058 11.8078,9.94663 c -1.108279,1.878479 -1.803088,3.953695 -2.059677,6.151729 l -0.062754,0.537574 v 2.201492 l 0.063417,0.537574 c 0.376491,3.191447 1.619527,6.018141 3.690268,8.391756 2.587336,2.96577 6.164714,4.805372 10.060597,5.17348 l 0.563173,0.05321 1.996702,-0.01387"
         id="path1333" />
    </g>
    <path
       transform="matrix(0.26458333,0,0,0.26458333,0,149.36248)"
       id="path1368"
       d="m 45.847059,361.67511 c -4.960283,-1.91128 -8.220392,-4.84444 -10.833377,-9.74689 l -2.248098,-4.21787 v -67.68429 -67.68429 l 2.248098,-4.21787 c 2.443401,-4.58429 5.563814,-7.54982 10.273631,-9.76369 2.822972,-1.32696 4.467411,-1.4192 25.300777,-1.4192 12.254864,0 22.28157,0.10209 22.28157,0.22688 0,0.12478 -1.311974,3.7045 -2.915499,7.95495 -17.653484,46.79387 -18.432347,96.74302 -2.236852,143.45134 1.760899,5.07849 3.640546,10.09286 4.176993,11.14305 0.536447,1.05019 0.975358,2.24343 0.975358,2.65165 0,0.50293 -7.01005,0.73034 -21.743533,0.70538 -19.719007,-0.0334 -22.072725,-0.16368 -25.279068,-1.39915 z"
       style="fill:#000000;stroke-width:0.70710677" />
    <path
       transform="matrix(0.26458333,0,0,0.26458333,0,149.36248)"
       id="path1370"
       d="m 257.97909,476.16993 c -64.71577,-7.92935 -119.1231,-44.86737 -149.864,-101.74512 -10.853137,-20.0808 -18.101759,-41.96991 -22.011027,-66.46803 -1.584469,-9.92937 -2.175119,-37.40802 -1.018343,-47.37616 5.560344,-47.91447 24.73691,-88.4022 57.27235,-120.91987 30.02785,-30.01145 66.94282,-48.489025 110.21849,-55.169233 11.60482,-1.791369 38.43706,-1.949904 50.45628,-0.298115 55.64182,7.646802 103.86304,37.395058 135.76686,83.756228 22.39916,32.54943 34.49341,71.86547 34.49341,112.13135 0,62.37208 -29.14566,120.876 -78.89961,158.37479 -26.123,19.68851 -54.38175,31.5121 -87.85423,36.75862 -9.59399,1.50378 -13.26919,1.72547 -27.34697,1.64963 -8.9449,-0.0481 -18.49085,-0.36053 -21.21321,-0.69409 z m 43.48707,-24.66768 c 19.51953,-2.87039 35.06129,-7.61835 51.97235,-15.87737 34.38294,-16.79195 61.52211,-44.23643 78.88161,-79.76903 7.56605,-15.48667 12.67194,-32.14513 15.54825,-50.7275 1.95304,-12.61767 1.9332,-37.67701 -0.04,-50.55814 -5.58148,-36.43549 -21.64589,-69.30007 -46.57087,-95.27467 -27.52725,-28.68644 -64.4695,-46.85206 -104.70819,-51.48817 -9.3826,-1.08102 -33.83214,-0.47937 -43.51994,1.07093 -43.23926,6.91941 -80.13383,28.52573 -107.5135,62.96241 -20.37968,25.63247 -32.28926,54.70272 -36.78977,89.80057 -1.41889,11.06547 -1.06735,31.22377 0.74605,42.77996 6.09055,38.81304 22.64686,71.81923 49.49052,98.66289 27.10473,27.10474 60.97391,43.77897 99.01644,48.74706 11.35783,1.48326 32.23762,1.32532 43.48707,-0.32894 z"
       style="fill:#000000;stroke-width:0.70710677" />
    <path
       transform="matrix(0.26458333,0,0,0.26458333,0,149.36248)"
       id="path1372"
       d="m 16.148575,342.33114 c -4.187497,-1.98301 -7.3364853,-5.15306 -9.841906,-9.90772 l -1.8253563,-3.46407 v -49.06678 c 0,-48.01803 0.030882,-49.12731 1.4448397,-51.89889 3.329166,-6.52571 10.5980716,-11.93747 16.0560526,-11.95388 l 2.298097,-0.007 v 63.99317 63.99316 l -2.298097,-0.007 c -1.263953,-0.004 -3.889087,-0.76032 -5.83363,-1.68117 z"
       style="fill:#000000;stroke-width:0.70710677" />
    <path
       transform="matrix(0.26458333,0,0,0.26458333,0,149.36248)"
       id="path1374"
       d="m 173.32311,234.98101 c -2.7699,-1.60567 -4.79302,-4.90372 -4.79302,-7.81348 0,-2.21873 2.71377,-6.25944 4.97097,-7.4016 2.21279,-1.11968 207.36553,-1.32955 210.29668,-0.21513 4.29073,1.63133 6.10741,9.27836 3.10962,13.08943 -3.23312,4.11024 2.64185,3.90016 -108.57624,3.88252 l -102.37641,-0.0162 z"
       style="fill:#000000;stroke-width:0.70710677" />
    <path
       transform="matrix(0.26458333,0,0,0.26458333,0,149.36248)"
       id="path1376"
       d="m 465.24988,360.45945 c 1.86069,-4.22372 5.67045,-15.44399 8.00931,-23.58855 8.93528,-31.11507 10.30442,-65.55517 3.88549,-97.7383 -2.52352,-12.65241 -7.88389,-30.47728 -11.89061,-39.53994 l -1.17233,-2.65165 h 23.01397 c 22.94974,0 23.0234,0.005 26.39408,1.71284 3.8271,1.93934 7.84274,6.06392 9.97727,10.24794 1.42553,2.79427 1.44484,3.74503 1.44484,71.12427 0,67.37923 -0.0193,68.33 -1.44484,71.12426 -2.13453,4.18403 -6.15017,8.30861 -9.97727,10.24795 -3.37068,1.70805 -3.44434,1.71283 -26.39408,1.71283 h -23.01397 z"
       style="fill:#000000;stroke-width:0.70710677" />
    <path
       transform="matrix(0.26458333,0,0,0.26458333,0,149.36248)"
       id="path1378"
       d="m 532.69008,280.02606 v -64.86085 l 3.35875,0.48223 c 6.75096,0.96926 12.41332,5.13821 15.60669,11.49052 1.27626,2.53875 1.37001,5.31326 1.7379,51.43229 0.38123,47.79295 0.36064,48.82418 -1.05027,52.59518 -2.62456,7.01476 -8.91393,12.11104 -16.31627,13.22109 l -3.3368,0.50038 z"
       style="fill:#000000;stroke-width:0.70710677" />
    <path
       transform="matrix(0.26458333,0,0,0.26458333,0,149.36248)"
       id="path1380"
       d="m 171.28517,201.27669 c -2.83395,-2.83395 -2.92185,-3.05851 -2.58193,-6.5961 0.29599,-3.0804 0.75792,-4.03436 2.90742,-6.00422 l 2.55551,-2.34196 h 104.49804 104.49805 l 2.60777,1.77203 c 4.28824,2.91393 4.56784,9.58041 0.56275,13.41754 l -2.0899,2.00225 -105.01194,0.34215 -105.01194,0.34214 z"
       style="fill:#000000;stroke-width:0.70710677" />
    <path
       transform="matrix(0.26458333,0,0,0.26458333,0,149.36248)"
       id="path1382"
       d="m 249.76418,148.94094 c -2.24435,-2.24434 -2.74476,-3.24424 -2.7426,-5.48008 0.001,-1.50416 0.62378,-3.75353 1.38294,-4.99861 2.68801,-4.40848 2.99949,-4.45374 30.64809,-4.45374 24.89277,0 25.04628,0.009 27.4355,1.61404 2.82662,1.89884 4.65031,6.27724 3.88487,9.32699 -0.2777,1.10642 -1.56802,3.07479 -2.86738,4.37415 l -2.36249,2.36249 h -26.31685 -26.31685 z"
       style="fill:#000000;stroke-width:0.70710677" />
    <path
       transform="matrix(0.26458333,0,0,0.26458333,0,149.36248)"
       id="path1384"
       d="m 172.83366,267.48031 c -2.83355,-1.79409 -4.30357,-4.62551 -4.30357,-8.28917 0,-2.27108 0.49421,-3.41321 2.35602,-5.44479 l 2.35602,-2.57087 43.09727,-0.34554 c 39.47093,-0.31646 43.29144,-0.24512 45.40495,0.84781 4.45562,2.30409 6.31556,7.98558 4.04906,12.36851 -2.19362,4.24201 -0.38223,4.07129 -47.50174,4.47701 -42.34813,0.36463 -43.2682,0.34352 -45.45801,-1.04296 z"
       style="fill:#000000;stroke-width:0.70710677" />
    <path
       transform="matrix(0.26458333,0,0,0.26458333,0,149.36248)"
       id="path1386"
       d="m 187.79266,364.46608 c -3.79388,-0.72595 -5.60982,-1.99752 -8.05761,-5.6422 -2.61183,-3.88892 -3.00858,-7.341 -2.42824,-21.12791 0.60163,-14.29261 1.45201,-16.39163 7.92349,-19.55783 3.69037,-1.80553 4.20271,-1.88326 7.17421,-1.08851 4.25488,1.13801 6.85938,3.09026 9.00331,6.7486 1.72993,2.9519 1.7705,3.34597 1.7705,17.198 v 14.17687 l -2.2981,3.41123 c -3.48699,5.17598 -7.45539,6.95944 -13.08756,5.88175 z m 5.7437,-4.45127 c 1.2834,-0.53623 3.02326,-1.85194 3.86638,-2.92379 1.7288,-2.19781 1.92137,-6.40347 1.06347,-23.22553 l -0.46374,-9.09306 -2.82147,-2.04387 c -3.34304,-2.42168 -5.61429,-2.56481 -8.97325,-0.56546 -4.28211,2.54884 -4.24264,2.3706 -4.24264,19.15841 v 15.41676 l 2.93452,2.12576 c 3.2468,2.35197 5.15377,2.60606 8.63673,1.15078 z"
       style="fill:#000000;stroke-width:0.70710677" />
    <path
       transform="matrix(0.26458333,0,0,0.26458333,0,149.36248)"
       id="path1388"
       d="m 224.74507,364.8849 c -0.3889,-0.12973 -1.57631,-0.42741 -2.63868,-0.6615 -2.36325,-0.52074 -6.61567,-4.1542 -8.00404,-6.839 -1.52531,-2.94962 -1.46979,-28.60842 0.0699,-32.29335 2.22968,-5.33636 6.04633,-7.94189 11.63351,-7.94189 5.39008,0 8.92978,2.31191 11.58455,7.56629 0.93717,1.85486 1.14338,4.76113 1.14338,16.11485 0,12.24242 -0.1568,14.15668 -1.34946,16.47534 -2.66832,5.1875 -8.66173,8.83933 -12.43913,7.57926 z m 4.14663,-4.87009 c 1.28339,-0.53623 3.04058,-1.87395 3.90485,-2.9727 1.5264,-1.9405 1.56525,-2.41687 1.35616,-16.63018 -0.19807,-13.46497 -0.32795,-14.75685 -1.62779,-16.19158 -3.76428,-4.15489 -8.44432,-4.37489 -12.74471,-0.5991 l -2.45976,2.1597 v 14.99083 14.99083 l 2.2981,2.17323 c 3.46021,3.27218 5.38475,3.70365 9.27315,2.07897 z"
       style="fill:#000000;stroke-width:0.70710677" />
    <path
       transform="matrix(0.26458333,0,0,0.26458333,0,149.36248)"
       id="path1390"
       d="m 251.47268,424.65802 c -5.27597,-3.21695 -5.94388,-10.46849 -1.35182,-14.6768 l 2.53416,-2.32239 H 278.733 c 25.37481,0 26.12859,0.0398 27.95523,1.47665 5.29992,4.16892 5.09094,12.12406 -0.40655,15.47579 -2.23162,1.36058 -3.50996,1.42705 -27.44294,1.42705 -23.65217,0 -25.23306,-0.0797 -27.36606,-1.3803 z"
       style="fill:#000000;stroke-width:0.70710677" />
    <path
       transform="matrix(0.26458333,0,0,0.26458333,0,149.36248)"
       id="path1392"
       d="m 256.25231,363.68556 c -1.72754,-0.89931 -4.11403,-2.85704 -5.3033,-4.35049 l -2.16231,-2.71538 -0.20881,-14.96229 -0.20881,-14.96229 2.13873,-3.36026 c 2.85539,-4.48622 5.75621,-6.1797 10.59114,-6.18304 4.85954,-0.003 9.00514,2.29441 11.20665,6.21148 1.4997,2.66834 1.5834,3.60001 1.5834,17.62577 v 14.80852 l -2.14068,3.23182 c -3.68223,5.55917 -10.07276,7.47936 -15.49601,4.65616 z m 9.63492,-4.48368 c 3.89838,-2.55431 4.13066,-3.68943 3.89666,-19.04165 l -0.21602,-14.17223 -2.40109,-2.27596 c -3.27885,-3.10798 -5.30843,-3.49104 -9.00789,-1.70017 -5.14568,2.49098 -5.48348,3.65807 -5.48045,18.93447 0.002,12.11378 0.1323,13.53861 1.42814,15.66402 2.51489,4.12491 7.6997,5.26547 11.78065,2.59152 z"
       style="fill:#000000;stroke-width:0.70710677" />
    <path
       transform="matrix(0.26458333,0,0,0.26458333,0,149.36248)"
       id="path1394"
       d="m 291.17517,363.46436 c -2.049,-1.03579 -4.31857,-2.93468 -5.47982,-4.58483 l -1.98223,-2.81675 0.21446,-15.8015 0.21446,-15.8015 1.90463,-2.49514 c 2.43352,-3.188 6.22567,-4.97865 10.54352,-4.97865 4.41568,0 7.44776,1.7872 10.35605,6.10416 l 2.29809,3.41123 v 14.09039 c 0,12.45954 -0.15572,14.39404 -1.3454,16.71387 -1.70107,3.31703 -3.96988,5.43946 -7.30359,6.83238 -3.60364,1.50569 -5.357,1.38031 -9.42017,-0.67366 z m 10.13769,-4.28527 c 3.29576,-2.30843 3.68901,-4.28033 3.68619,-18.48351 -0.002,-12.08592 -0.13226,-13.50597 -1.4297,-15.63402 -2.98277,-4.89232 -9.47575,-5.38828 -13.53557,-1.03389 -1.79355,1.92369 -1.83657,2.21417 -2.30164,15.54361 -0.51173,14.6664 -0.17788,16.58803 3.38053,19.45824 1.95714,1.57861 8.03275,1.66771 10.20019,0.14957 z"
       style="fill:#000000;stroke-width:0.70710677" />
    <path
       transform="matrix(0.26458333,0,0,0.26458333,0,149.36248)"
       id="path1396"
       d="m 329.39688,364.72708 c -3.47282,-0.83809 -6.1294,-2.70393 -8.11238,-5.69768 l -2.14067,-3.23182 v -14.84267 c 0,-14.53329 0.0366,-14.90517 1.75751,-17.84163 1.25495,-2.1414 2.81115,-3.52402 5.44214,-4.8351 2.02654,-1.00987 4.17899,-1.83435 4.78322,-1.83218 4.39739,0.0158 10.33506,3.75727 12.44843,7.84408 1.46509,2.83317 1.48518,30.23381 0.0242,33.02251 -2.91346,5.56119 -8.91,8.69172 -14.20247,7.41449 z m 5.50279,-4.70036 c 4.95815,-2.09856 5.07895,-2.52452 5.33053,-18.79496 l 0.22672,-14.66299 -1.86982,-2.22216 c -3.929,-4.66935 -10.67286,-4.31973 -13.79077,0.71495 -1.35525,2.18843 -1.43674,3.26716 -1.25292,16.58709 0.21711,15.73154 0.3586,16.23604 5.14636,18.34941 2.71355,1.19779 3.43974,1.20114 6.2099,0.0287 z"
       style="fill:#000000;stroke-width:0.70710677" />
    <path
       transform="matrix(0.26458333,0,0,0.26458333,0,149.36248)"
       id="path1398"
       d="m 362.28751,363.68692 c -1.7445,-0.90006 -4.21053,-3.01355 -5.48008,-4.69665 l -2.30826,-3.06017 v -14.46889 c 0,-16.06683 0.42195,-17.91877 4.95089,-21.72963 5.98689,-5.03764 15.04369,-3.19341 19.09834,3.88898 1.72539,3.01381 1.75844,3.35665 1.67299,17.35522 -0.0858,14.05423 -0.11653,14.33075 -1.93829,17.43935 -3.53658,6.03472 -10.23684,8.24297 -15.99559,5.27179 z m 9.18675,-4.11366 c 1.52714,-0.77909 3.10545,-2.03096 3.50736,-2.78194 0.43626,-0.81516 0.73075,-7.33877 0.73075,-16.1879 v -14.82247 l -2.48784,-2.18436 c -1.36831,-1.20139 -3.2606,-2.3783 -4.20509,-2.61535 -2.62785,-0.65955 -6.56151,0.97527 -8.51767,3.53993 -1.74273,2.28484 -1.75996,2.4491 -1.75996,16.78085 v 14.47343 l 1.94454,1.80542 c 4.0792,3.78734 6.42155,4.21994 10.78791,1.99239 z"
       style="fill:#000000;stroke-width:0.70710677" />
    <path
       transform="matrix(0.26458333,0,0,0.26458333,0,149.36248)"
       id="path1400"
       d="m 44.595621,364.93533 c -5.221955,-2.14739 -8.411315,-4.60054 -11.142894,-8.57075 -4.493671,-6.53134 -4.222677,-1.6095 -4.222677,-76.69287 v -68.63558 l 1.694118,-3.33525 c 2.647964,-5.21311 7.066851,-9.7268 11.874409,-12.12917 l 4.335024,-2.16623 h 24.947618 c 14.69487,0 25.115377,0.27144 25.355818,0.66048 0.22451,0.36326 -0.832369,3.78389 -2.348618,7.6014 -8.63203,21.7331 -13.31459,42.42175 -14.984672,66.20578 -2.100546,29.91439 3.410201,62.36332 15.568343,91.67106 1.202866,2.89956 2.028981,5.68379 1.835812,6.18718 -0.278118,0.72477 -5.396357,0.91177 -24.591816,0.89847 -23.873074,-0.0165 -24.302457,-0.0422 -28.320465,-1.69452 z"
       style="fill:#000000;stroke-width:0.70710677" />
    <path
       transform="matrix(0.26458333,0,0,0.26458333,0,149.36248)"
       id="path1402"
       d="M 16.21273,346.44229 C 10.893653,344.49342 6.3836775,340.23522 3.0862623,334.04864 L 0.94577878,330.03268 V 280.08369 230.1347 l 2.14187542,-4.24303 c 4.0155446,-7.95475 10.3602938,-12.48051 18.7079328,-13.34452 2.440904,-0.25265 4.794012,-0.34068 5.229128,-0.19565 0.576054,0.19202 0.791121,18.60546 0.791121,67.73348 v 67.46978 l -4.419417,-0.0499 c -2.43068,-0.0274 -5.66334,-0.50558 -7.183689,-1.06264 z m -3.953243,-6.1889 c 0,-0.12666 -0.875044,-1.0017 -1.944543,-1.94454 L 8.3704,336.5946 l 1.714249,1.94454 c 1.602224,1.81747 2.174838,2.26882 2.174838,1.71425 z M 10.845274,221.3362 c 0.913401,-0.97228 1.501631,-1.76777 1.307177,-1.76777 -0.194454,0 -1.100882,0.79549 -2.014284,1.76777 -0.9134017,0.97227 -1.5016319,1.76776 -1.3071775,1.76776 0.1944544,0 1.1008825,-0.79549 2.0142845,-1.76776 z"
       style="fill:#000000;stroke-width:0.70710677" />
    <path
       transform="matrix(0.26458333,0,0,0.26458333,0,149.36248)"
       id="path1404"
       d="M 254.44356,479.3754 C 210.01127,473.414 170.99232,454.10882 139.53871,422.52461 108.25815,391.11416 89.336613,353.03848 82.604749,307.95678 c -0.900149,-6.02809 -1.663471,-9.92392 -1.69627,-8.65741 -0.08336,3.21895 1.756008,15.05519 3.798079,24.44046 2.379929,10.93803 4.766913,18.87436 9.358484,31.11541 2.550922,6.80071 3.690068,10.72432 3.24331,11.17108 -0.428916,0.42892 -10.129423,0.60908 -25.721403,0.47769 l -25.032783,-0.21093 -3.990105,-1.96005 c -4.766418,-2.3414 -9.265447,-7.0088 -11.610024,-12.04449 l -1.710172,-3.67312 -0.0069,-68.78964 -0.0069,-68.78965 1.812004,-3.57582 c 2.53466,-5.00191 6.660301,-9.23135 11.543746,-11.83421 l 4.166324,-2.22062 h 25.138357 c 13.858527,0 25.312268,0.28139 25.525936,0.62712 0.213169,0.34491 -1.349886,5.39967 -3.473455,11.2328 -5.837059,16.03354 -10.299491,32.84002 -11.307717,42.5873 -0.221251,2.139 0.670835,-1.20208 1.982415,-7.42462 2.780872,-13.19333 7.200665,-28.06861 11.182612,-37.63626 19.647103,-47.20718 57.206833,-86.14893 102.700993,-106.479897 16.81038,-7.512422 39.60855,-13.776883 58.49963,-16.074476 10.96399,-1.333475 43.48059,-0.491738 53.65766,1.389002 17.16699,3.172489 33.91156,8.234431 48.21025,14.574131 38.80971,17.2073 73.69523,49.87496 94.18542,88.19757 19.81355,37.05711 27.89083,82.13195 21.98949,122.7112 -8.02982,55.2152 -35.61902,102.19705 -79.18468,134.84416 -25.6979,19.25741 -55.32674,31.57928 -88.39947,36.76304 -9.95363,1.56011 -13.35638,1.76093 -28.62082,1.68909 -10.006,-0.0471 -20.3111,-0.48228 -24.39518,-1.03024 z m 16.44023,-2.20043 c -0.68059,-0.17785 -1.79428,-0.17785 -2.47487,0 -0.68059,0.17786 -0.12375,0.32338 1.23743,0.32338 1.36119,0 1.91803,-0.14552 1.23744,-0.32338 z m 27.54095,-28.88378 c 17.91656,-2.33372 34.06919,-6.90871 49.71047,-14.07976 35.00878,-16.05046 63.32522,-43.87826 80.62328,-79.23205 7.90261,-16.15137 12.72893,-31.81373 15.55686,-50.48513 1.35904,-8.97311 1.50278,-12.24292 1.22739,-27.92233 -0.27176,-15.47338 -0.55253,-19.00125 -2.18149,-27.41042 -5.52446,-28.51893 -17.29034,-54.17911 -35.13032,-76.61567 -5.00447,-6.2939 -18.80782,-20.2399 -24.76552,-25.02145 -18.3035,-14.69009 -41.63177,-26.25975 -64.32158,-31.9003 -15.39191,-3.82633 -22.1864,-4.59817 -40.30509,-4.57855 -17.79169,0.0193 -24.96203,0.80522 -39.51201,4.33095 -66.2894,16.06317 -116.20993,71.82663 -126.27274,141.05225 -1.4873,10.23167 -1.4873,36.96299 0,47.19465 9.61317,66.13245 55.57461,120.04567 118.4086,138.89446 21.03064,6.30873 46.19511,8.47836 66.96215,5.77335 z m 105.6621,-17.12106 c 0.87955,-1.12151 0.85454,-1.14652 -0.26697,-0.26697 -0.68059,0.53376 -1.23744,1.0906 -1.23744,1.23743 0,0.58198 0.58067,0.2074 1.50441,-0.97046 z m 6.27376,-5.48008 c 0.91341,-0.97227 1.50164,-1.76776 1.30718,-1.76776 -0.19445,0 -1.10088,0.79549 -2.01428,1.76776 -0.91341,0.97228 -1.50164,1.76777 -1.30718,1.76777 0.19445,0 1.10088,-0.79549 2.01428,-1.76777 z m 10.29754,-10.42982 2.07683,-2.2981 -2.29809,2.07684 c -2.14216,1.9359 -2.62312,2.51936 -2.07684,2.51936 0.12169,0 1.15584,-1.03415 2.2981,-2.2981 z m 6.05612,-6.71752 c 0.87955,-1.12151 0.85454,-1.14652 -0.26698,-0.26697 -0.68059,0.53376 -1.23743,1.09061 -1.23743,1.23744 0,0.58197 0.58066,0.2074 1.50441,-0.97047 z M 84.871806,294.69852 c -0.177857,-0.68059 -0.323376,-0.12374 -0.323376,1.23744 0,1.36118 0.145519,1.91803 0.323376,1.23744 0.177856,-0.68059 0.177856,-1.79429 0,-2.47488 z m 388.204214,0.0134 c -0.17928,-0.688 -0.33776,-0.2963 -0.35217,0.87043 -0.0144,1.16672 0.13227,1.72962 0.32597,1.25089 0.19369,-0.47873 0.20548,-1.43333 0.0262,-2.12132 z M 80.670128,272.81811 c -0.123359,-4.59162 -0.224694,-1.02985 -0.22519,7.91505 -4.97e-4,8.94491 0.100432,12.70169 0.224287,8.3484 0.123855,-4.35328 0.124261,-11.67183 9.19e-4,-16.26345 z m 27.538792,4.2162 c -0.17928,-0.68799 -0.33776,-0.2963 -0.35217,0.87043 -0.0144,1.16672 0.13227,1.72962 0.32597,1.25089 0.19369,-0.47873 0.20548,-1.43333 0.0262,-2.12132 z m 364.8671,-13.43503 c -0.17928,-0.68799 -0.33776,-0.2963 -0.35217,0.87043 -0.0144,1.16672 0.13227,1.72962 0.32597,1.25089 0.19369,-0.47873 0.20548,-1.43332 0.0262,-2.12132 z m -391.727066,-4.6014 c -0.169135,-0.87958 -0.31394,-0.32645 -0.321789,1.22919 -0.0078,1.55563 0.130535,2.27529 0.307519,1.59923 0.176984,-0.67605 0.183405,-1.94885 0.01427,-2.82842 z m 0.707107,-5.65686 c -0.169135,-0.87958 -0.31394,-0.32644 -0.321789,1.22919 -0.0078,1.55564 0.130535,2.2753 0.307518,1.59924 0.176984,-0.67606 0.183406,-1.94885 0.01427,-2.82843 z M 149.79176,132.59429 c 0.70391,-0.77781 1.12075,-1.41421 0.92629,-1.41421 -0.19445,0 -0.92948,0.6364 -1.6334,1.41421 -0.70392,0.77782 -1.12075,1.41422 -0.9263,1.41422 0.19446,0 0.92949,-0.6364 1.63341,-1.41422 z M 260.96957,83.376716 c -0.23497,-0.234965 -0.84485,-0.260086 -1.35529,-0.05582 -0.56408,0.225728 -0.39653,0.393281 0.42721,0.427211 0.7454,0.0307 1.16304,-0.136421 0.92808,-0.371387 z"
       style="fill:#000000;stroke-width:0.70710677" />
    <path
       transform="matrix(0.26458333,0,0,0.26458333,0,149.36248)"
       id="path1406"
       d="m 249.34128,153.03439 c -8.27146,-5.29782 -6.78859,-17.624 2.5962,-21.58064 2.02001,-0.85165 6.87196,-0.99532 27.98678,-0.82874 l 25.54311,0.20152 2.65579,2.02645 c 3.75075,2.86193 5.35803,5.81577 5.36117,9.8527 0.004,4.09014 -1.20556,6.61806 -4.58203,9.58264 l -2.5356,2.22628 -27.37579,-0.0119 c -26.42194,-0.0115 -27.455,-0.0626 -29.64963,-1.4683 z"
       style="fill:#000000;stroke-width:0.70710677" />
    <path
       transform="matrix(0.26458333,0,0,0.26458333,0,149.36248)"
       id="path1408"
       d="m 169.27449,204.04938 c -6.24263,-6.24264 -4.86529,-15.93028 2.82251,-19.8523 2.69347,-1.37411 4.53305,-1.3982 106.74174,-1.3982 100.83727,0 104.08085,0.0409 106.62452,1.3454 3.71597,1.90565 5.58057,4.16964 6.51871,7.91497 1.15623,4.61601 -0.0149,8.44828 -3.66413,11.9897 l -2.8765,2.79156 H 278.75348 172.06562 Z"
       style="fill:#000000;stroke-width:0.70710677" />
    <path
       transform="matrix(0.26458333,0,0,0.26458333,0,149.36248)"
       id="path1410"
       d="m 171.6129,237.97659 c -6.79268,-3.8959 -8.5537,-11.86752 -3.9075,-17.68808 4.30644,-5.39492 -5.41289,-4.9604 110.97928,-4.96162 114.74837,-0.001 107.12252,-0.31052 110.78679,4.49359 4.86479,6.37806 2.48844,15.5729 -4.89101,18.92492 -2.73037,1.24024 -7.45671,1.29846 -106.09527,1.30696 l -103.23759,0.009 -3.6347,-2.08467 z m 208.87244,-1.94407 c -1.0695,-0.16201 -2.81959,-0.16201 -3.88909,0 -1.06949,0.16202 -0.19445,0.29458 1.94455,0.29458 2.139,0 3.01404,-0.13256 1.94454,-0.29458 z M 172.06562,234.1507 c 0,-0.14684 -0.55685,-0.70368 -1.23744,-1.23744 -1.12151,-0.87955 -1.14652,-0.85454 -0.26697,0.26697 0.92374,1.17787 1.50441,1.55244 1.50441,0.97047 z M 182.849,219.05068 c -1.65286,-0.14887 -4.35755,-0.14887 -6.01041,0 -1.65286,0.14887 -0.30052,0.27067 3.0052,0.27067 3.30573,0 4.65807,-0.1218 3.00521,-0.27067 z m 200.45004,0.0905 c -0.23496,-0.23497 -0.84485,-0.26009 -1.35529,-0.0558 -0.56408,0.22573 -0.39653,0.39328 0.42721,0.42721 0.74541,0.0307 1.16304,-0.13642 0.92808,-0.37138 z"
       style="fill:#000000;stroke-width:0.70710677" />
    <path
       transform="matrix(0.26458333,0,0,0.26458333,0,149.36248)"
       id="path1412"
       d="m 170.6961,269.7241 c -3.86753,-2.80163 -6.04158,-7.44026 -5.39176,-11.50404 0.60097,-3.75826 2.72424,-7.11364 5.64295,-8.9175 2.29961,-1.42124 3.21801,-1.44986 46.52883,-1.44986 h 44.18292 l 2.38584,1.60782 c 7.7094,5.19536 8.06288,14.53997 0.76068,20.10954 l -3.04732,2.32427 h -44.03311 -44.03311 z m 89.58109,-1.85273 c -0.68059,-0.17786 -1.79428,-0.17786 -2.47487,0 -0.68059,0.17786 -0.12375,0.32338 1.23743,0.32338 1.36118,0 1.91803,-0.14552 1.23744,-0.32338 z"
       style="fill:#000000;stroke-width:0.70710677" />
    <path
       transform="matrix(0.26458333,0,0,0.26458333,0,149.36248)"
       id="path1414"
       d="m 184.47139,366.93705 c -3.46102,-1.26727 -5.6255,-3.24573 -8.05364,-7.36148 -1.84816,-3.13266 -1.88076,-3.41373 -2.10355,-18.13378 -0.2228,-14.72042 -0.19926,-15.00493 1.52099,-18.38478 2.13281,-4.19041 4.09467,-6.08534 8.25124,-7.96975 5.63014,-2.55246 11.28558,-1.68138 16.15728,2.48862 5.46519,4.678 5.76303,5.88018 5.76303,23.26136 0,13.6401 -0.14347,15.53749 -1.35225,17.88262 -3.99074,7.74237 -12.27195,11.11392 -20.1831,8.21719 z m 9.3572,-10.58356 c 1.53636,-1.0761 1.57155,-1.42265 1.57155,-15.47502 0,-14.1336 -0.0266,-14.39132 -1.59099,-15.39234 -2.92434,-1.87128 -3.93306,-1.92155 -6.31831,-0.31488 l -2.34375,1.57872 -0.19244,13.6989 c -0.18638,13.2673 -0.14352,13.75098 1.36069,15.35214 1.8241,1.94165 5.17784,2.18827 7.51325,0.55248 z"
       style="fill:#000000;stroke-width:0.70710677" />
    <path
       transform="matrix(0.26458333,0,0,0.26458333,0,149.36248)"
       id="path1416"
       d="m 220.29707,367.21364 c -2.77236,-0.93892 -7.38413,-5.24552 -9.0342,-8.4364 -0.98813,-1.91083 -1.19754,-4.79197 -1.2747,-17.53785 l -0.0923,-15.25139 2.19633,-3.88909 c 6.16875,-10.92312 20.61011,-11.30203 26.97183,-0.70767 l 2.29809,3.82709 -0.007,15.58763 -0.007,15.58763 -2.12847,3.7114 c -2.92823,5.10595 -6.47709,7.34008 -12.1556,7.65238 -2.44254,0.13434 -5.48799,-0.11034 -6.76767,-0.54373 z m 9.47264,-11.53777 1.77838,-1.77837 -0.21953,-13.48829 c -0.2148,-13.19765 -0.25549,-13.51738 -1.88885,-14.83863 -2.32471,-1.8805 -5.44874,-1.72119 -7.5552,0.38528 -1.72079,1.72079 -1.73563,1.85029 -1.73563,15.15147 v 13.41585 l 1.86313,1.46553 c 2.54196,1.99952 5.56736,1.87751 7.7577,-0.31284 z"
       style="fill:#000000;stroke-width:0.70710677" />
    <path
       transform="matrix(0.26458333,0,0,0.26458333,0,149.36248)"
       id="path1418"
       d="m 253.99397,366.08559 c -2.92587,-1.52367 -4.31845,-2.85022 -6.09115,-5.80235 l -2.2981,-3.82709 v -15.1876 c 0,-17.22385 0.41047,-18.94191 5.6581,-23.68283 7.09749,-6.41216 18.36479,-4.45082 23.66814,4.11999 l 2.14002,3.45851 0.21846,14.51962 c 0.25148,16.71353 -0.20995,18.86276 -5.09755,23.74302 -5.00265,4.99515 -11.80337,5.98874 -18.19792,2.65873 z m 11.35842,-10.49447 c 1.36456,-1.73475 1.46554,-2.7787 1.46554,-15.15147 V 327.1513 l -1.86313,-1.46553 c -2.5818,-2.03085 -4.9438,-1.83846 -7.38365,0.60139 l -2.06693,2.06693 v 12.11032 c 0,15.15185 0.59587,16.79637 6.13586,16.93402 1.62591,0.0404 2.65176,-0.45903 3.71231,-1.80731 z"
       style="fill:#000000;stroke-width:0.70710677" />
    <path
       transform="matrix(0.26458333,0,0,0.26458333,0,149.36248)"
       id="path1420"
       d="m 289.52304,366.19937 c -2.4246,-1.20823 -4.55673,-2.99311 -6.07562,-5.08611 l -2.34011,-3.22462 -0.51437,-15.08968 c -0.45576,-13.37046 -0.37571,-15.45275 0.70263,-18.27634 1.69909,-4.44899 4.3129,-7.2975 8.47443,-9.23536 8.13975,-3.79036 16.90579,-0.44267 20.85814,7.96557 1.43337,3.04937 1.50782,4.1077 1.30556,18.55953 l -0.21449,15.32576 -2.3468,3.65462 c -4.4471,6.92538 -12.43528,9.10122 -19.84937,5.40663 z m 9.43657,-9.18436 c 2.62162,-1.00601 3.21366,-3.98636 3.21366,-16.17777 0,-14.60525 -0.75055,-16.61701 -6.19945,-16.61701 -1.01262,0 -2.57759,0.69186 -3.4777,1.53747 -1.60077,1.50385 -1.63656,1.83519 -1.63656,15.15148 v 13.614 l 1.86312,1.46553 c 1.87282,1.47316 4.11216,1.84165 6.23693,1.0263 z"
       style="fill:#000000;stroke-width:0.70710677" />
    <path
       transform="matrix(0.26458333,0,0,0.26458333,0,149.36248)"
       id="path1422"
       d="m 326.56845,367.31064 c -3.3975,-0.99727 -7.19342,-4.63501 -9.14813,-8.76694 -1.75295,-3.70544 -1.81202,-4.28267 -1.81202,-17.70718 0,-13.6662 0.0292,-13.93651 1.92277,-17.80371 4.9856,-10.18192 17.44248,-12.52618 25.2267,-4.74741 4.65375,4.6505 4.66479,4.70397 4.66769,22.62252 l 0.003,16.33414 -2.2432,3.09665 c -2.74737,3.79264 -4.46842,5.31063 -7.56587,6.67321 -2.60025,1.14386 -7.70154,1.28176 -11.05058,0.29872 z m 8.91202,-11.18768 c 1.62018,-1.31194 1.64407,-1.53409 1.64407,-15.28572 0,-13.75163 -0.0239,-13.97378 -1.64407,-15.28572 -0.90424,-0.73221 -2.37829,-1.33129 -3.27567,-1.33129 -5.26844,0 -5.9899,2.08628 -5.9899,17.32114 0,12.26682 0.0244,12.46601 1.73562,14.17725 2.09917,2.09917 5.22935,2.26725 7.52995,0.40434 z"
       style="fill:#000000;stroke-width:0.70710677" />
    <path
       transform="matrix(0.26458333,0,0,0.26458333,0,149.36248)"
       id="path1424"
       d="m 361.21668,366.75615 c -1.55563,-0.74307 -3.81448,-2.42403 -5.01966,-3.73548 -4.66472,-5.07602 -4.52628,-4.40774 -4.52628,-21.84877 v -15.96769 l 2.02169,-3.14364 c 5.25847,-8.17672 12.5904,-10.54095 20.48666,-6.60607 7.84178,3.90772 9.31146,8.13201 9.31146,26.76384 v 13.5307 l -2.2981,3.83028 c -3.27907,5.46527 -7.17486,8.00143 -12.74247,8.29533 -3.24904,0.17151 -5.14705,-0.12198 -7.2333,-1.1185 z m 9.80414,-10.76744 1.86312,-1.46553 V 340.83724 327.1513 l -1.86312,-1.46553 c -2.35841,-1.85513 -5.50344,-1.87715 -7.32926,-0.0513 -1.31967,1.31966 -1.41422,2.35702 -1.41422,15.51625 0,13.77106 0.0369,14.12787 1.57155,15.20279 2.16855,1.51891 4.95754,1.37706 7.17193,-0.36478 z"
       style="fill:#000000;stroke-width:0.70710677" />
    <path
       transform="matrix(0.26458333,0,0,0.26458333,0,149.36248)"
       id="path1426"
       d="m 249.79198,427.26422 c -3.85465,-2.59765 -5.60147,-5.7891 -5.60147,-10.23393 0,-4.82552 1.59047,-8.25264 4.8614,-10.4753 l 2.53796,-1.72459 h 27.15278 c 30.72713,0 29.99554,-0.12503 33.26072,5.68457 1.34961,2.4013 1.59017,3.67732 1.34148,7.11551 -0.33588,4.64346 -1.72374,7.07534 -5.50754,9.65056 -2.32216,1.58046 -2.51425,1.59099 -28.99857,1.59099 -26.56011,0 -26.66994,-0.006 -29.04676,-1.60781 z"
       style="fill:#000000;stroke-width:0.70710677" />
    <path
       transform="matrix(0.26458333,0,0,0.26458333,0,149.36248)"
       id="path1428"
       d="m 460.14238,365.66049 c -0.20813,-0.54238 0.88752,-3.96301 2.43479,-7.60139 3.46234,-8.14169 7.83804,-22.27298 10.30021,-33.26453 9.11938,-40.71033 5.65237,-83.29705 -9.9321,-122.00007 -1.75737,-4.3643 -2.99303,-8.26223 -2.74592,-8.66206 0.29388,-0.47551 9.02163,-0.72696 25.23198,-0.72696 h 24.78269 l 4.43323,2.11578 c 5.17211,2.46842 8.66856,6.06299 11.65812,11.98527 l 2.14206,4.2434 v 68.27613 68.27613 l -2.16085,4.28061 c -2.74226,5.43238 -7.08178,9.78034 -12.15829,12.18191 l -3.97806,1.88193 h -24.81472 c -20.57191,0 -24.87942,-0.16861 -25.19314,-0.98615 z m 64.54545,-18.23832 c -0.22573,-0.56408 -0.39328,-0.39653 -0.42721,0.42722 -0.0307,0.7454 0.13642,1.16304 0.37139,0.92807 0.23496,-0.23497 0.26008,-0.84485 0.0558,-1.35529 z m 0,-135.7645 c -0.22573,-0.56408 -0.39328,-0.39653 -0.42721,0.42721 -0.0307,0.74541 0.13642,1.16304 0.37139,0.92808 0.23496,-0.23497 0.26008,-0.84485 0.0558,-1.35529 z"
       style="fill:#000000;stroke-width:0.70710677" />
    <path
       transform="matrix(0.26458333,0,0,0.26458333,0,149.36248)"
       id="path1430"
       d="m 529.86165,280.11905 c 0,-53.59244 0.18338,-67.63473 0.88388,-67.68452 10.64071,-0.75643 18.65155,3.72837 23.70198,13.26936 l 2.31199,4.36769 -0.19067,50.07953 -0.19068,50.07953 -1.85249,3.95024 c -3.70597,7.90259 -10.71285,12.64512 -19.53749,13.22373 l -5.12652,0.33612 z m 23.09572,-49.41369 c -0.19616,-0.48614 -0.35666,-0.0884 -0.35666,0.88388 0,0.97228 0.1605,1.37002 0.35666,0.88389 0.19616,-0.48614 0.19616,-1.28163 0,-1.76777 z"
       style="fill:#000000;stroke-width:0.70710677" />
  </g>
</svg>
