<?xml version="1.0" encoding="UTF-8" standalone="no"?>
<svg
   xmlns:dc="http://purl.org/dc/elements/1.1/"
   xmlns:cc="http://creativecommons.org/ns#"
   xmlns:rdf="http://www.w3.org/1999/02/22-rdf-syntax-ns#"
   xmlns:svg="http://www.w3.org/2000/svg"
   xmlns="http://www.w3.org/2000/svg"
   version="1.0"
   width="468pt"
   height="463pt"
   viewBox="0 0 468 463"
   id="svg2">
  
  <defs
     id="defs34" />
  
  <g
     transform="matrix(0.11936031,0,0,-0.11936031,149.52335,314.68102)"
     id="g6"
     fill="#000000"
     stroke="none">
    <path
       d="M -423.25699,1519.4947 C -688.4798,1362 -905.02508,1125.418 -1030.5109,853.14228 c -61.374,-131.55637 -81.9901,-196.44489 -100.9511,-317.31578 -96.5591,-606.120277 220.17465,-1186.757 808.57222,-1481.7087 496.9463,-248.265 1080.71967,-251.0874 1584.98508,-7.30169 148.8701,71.63422 165.562,90.5793 127.7388,148.57053 -24.3748,37.37213 -46.4294,41.4951 -162.1632,27.42995 -283.87865,-35.36242 -705.84407,74.18691 -1043.88627,271.8118 -212.841357,124.4305 -421.0931,317.53767 -515.24595,478.225405 -121.81753,207.557645 -178.06928,470.469195 -166.61014,779.507435 6.93114,174.94553 76.57149,440.80087 153.49244,591.57307 63.51893,122.3292 67.16982,134.5465 42.11426,165.5393 -29.56239,36.4183 -70.30945,39.5095 -120.79223,10.0211 z M -652.74701,849.96293 c -75.0311,-780.16248 271.10034,-1303.43648 1086.37579,-1638.93457 107.85426,-45.11372 415.1123,-124.27982 483.17362,-126.19703 35.32757,-0.72014 35.32757,-0.72014 8.70938,-11.86883 -51.48309,-20.53171 -256.31701,-53.86731 -364.73352,-59.85192 -302.81869,-16.71518 -633.652486,61.48326 -888.02462,210.99062 -319.26205,186.64575 -545.92228,482.20624 -627.11599,817.504706 -46.26375,189.699184 -44.28806,360.365934 5.57662,560.044134 52.2986,207.82304 152.69228,387.92763 304.75969,548.18806 l 64.33344,67.6355 -31.53804,-134.2485 c -17.02209,-73.3682 -36.30287,-178.90331 -41.51637,-233.26217 z"
       id="path19"
       style="stroke-width:1" />
    <path
       style="stroke-width:1.32911861"
       d="m 605.1225,2479.0186 c -17.33771,-8.8122 -39.23803,-25.3351 -48.36314,-35.2489 -25.55037,-27.5382 -52.01321,-95.8328 -52.01321,-134.3863 v -33.0458 H 361.48163 c -170.6399,0 -206.2279,-13.2183 -250.02851,-96.9344 -23.725342,-44.0611 -26.462874,-60.584 -26.462874,-135.4879 v -84.8176 L 37.53955,1946.9808 c -57.488258,-15.4213 -102.201446,-53.9749 -125.926722,-111.2543 -25.550408,-60.584 -26.462908,-302.9202 -0.9125,-369.0119 32.850414,-87.0207 83.0386016,-115.6605 201.665302,-115.6605 h 82.12615 v -64.9902 c 0,-73.8023 19.16277,-148.7062 48.36318,-187.2597 23.72533,-30.8428 83.95119,-66.0917 114.06409,-67.1932 25.55036,0 25.55036,-7.7107 -2.73752,-35.2489 -36.50052,-34.14732 -25.55036,-96.9344 16.42521,-96.9344 10.03764,0 36.50049,12.11681 60.22583,28.63972 l 42.8881,27.53816 61.13837,-41.85802 c 33.76298,-23.13206 61.13839,-44.06108 61.13839,-47.36568 0,-4.4061 -93.98884,-71.59929 -120.45174,-85.91909 -2.73751,-2.20305 -22.8128,8.8122 -42.8881,24.23356 -40.15053,30.84277 -73.00099,36.35042 -90.33872,15.42141 -18.25027,-22.03057 -12.7752,-61.68553 11.86266,-81.51305 20.98778,-16.52291 21.90028,-19.82746 9.12512,-37.45191 -31.02543,-41.85803 0.91249,-105.74661 47.45067,-92.5283 18.25023,5.50765 20.98779,2.20304 20.98779,-25.33512 0,-38.55342 14.60018,-58.38093 41.97556,-58.38093 29.20041,0 39.23805,20.92901 41.97561,93.6298 l 2.73755,66.09164 59.31331,40.75651 c 32.85043,23.13207 62.05084,41.85803 65.70098,41.85803 4.5625,0 7.30007,-39.65498 7.30007,-87.02065 v -87.02064 l -50.18826,-34.14737 c -55.66324,-38.55343 -64.78835,-69.39619 -31.93791,-105.74661 17.33777,-18.72596 20.98777,-19.82746 50.18819,-2.20305 l 31.02541,17.62446 2.73757,-29.74127 c 4.56257,-52.87327 80.30117,-42.95952 80.30117,9.91376 0,19.82751 1.825,20.92901 27.37534,4.4061 33.76299,-20.92901 41.06306,-20.92901 58.40083,1.10155 29.20042,34.14732 18.25028,67.19314 -35.58798,105.74661 l -50.18819,36.35042 v 84.81759 c 0,47.36568 2.7375,85.9191 5.47507,85.9191 2.7375,0 33.76298,-19.82746 68.4384,-44.06107 l 62.96339,-45.16263 V 615.2337 c 0,-68.29469 10.03771,-90.32525 41.06316,-90.32525 26.46277,0 41.06296,20.92901 41.06296,57.27943 0,27.53816 2.7375,30.84276 22.81289,24.23356 44.71307,-13.2183 76.65097,49.56873 44.71307,89.22375 -13.6877,15.42136 -12.7752,18.72596 9.125,39.65497 37.4131,35.24887 27.3755,98.0359 -15.5127,98.0359 -9.1251,0 -36.50038,-13.2183 -61.13826,-29.74121 l -42.88806,-29.74127 -60.22583,42.95958 c -32.85049,23.13206 -58.40083,46.26417 -55.66326,50.67027 2.7375,5.50761 29.20041,26.43662 60.22582,47.36568 l 55.66327,37.45192 50.18816,-31.94432 c 44.71306,-28.63972 52.92566,-30.84276 69.35086,-16.52291 22.8129,17.62447 29.2005,56.17789 14.6003,79.31 -10.0377,13.2183 15.5127,15.42136 190.7151,15.42136 158.7772,0 208.053,3.30464 228.1283,15.42144 27.3753,17.6244 83.0386,88.1222 83.0386,105.7466 0,6.6092 87.6012,11.0153 228.1282,11.0153 209.8779,0 231.7783,2.2031 264.6287,22.0306 19.1628,12.1168 41.0631,30.8427 47.4507,42.9596 11.8627,19.8274 26.4628,22.0305 180.6775,25.3352 191.6277,3.3045 218.0906,12.1168 268.2787,89.2237 l 28.288,42.9596 2.7375,225.8133 c 2.7375,212.5948 1.825,228.0163 -17.3378,274.2805 -11.8626,30.8427 -33.7629,61.6855 -56.5757,79.31 -36.5006,28.6397 -41.0631,29.7412 -199.8403,33.0458 l -162.4273,3.3046 v 121.1681 c 0,128.8787 -10.9502,179.5489 -48.3632,228.0161 -46.5381,60.584 -53.8382,62.7871 -341.2798,66.0917 l -267.3662,3.3046 -19.1628,34.1473 c -10.9501,18.726 -36.5005,42.9596 -57.4883,53.9748 -34.6755,18.726 -65.7009,20.929 -397.85559,19.8275 -300.2166,0 -365.9175,-2.2031 -392.38041,-16.5229 z M 648.92319,996.3621 c 3.65,-38.55347 -0.91257,-38.55347 -57.48833,2.20306 l -45.62564,33.04584 50.18821,-2.2031 c 47.45069,-3.3046 50.18819,-5.5076 52.92576,-33.0458 z m 124.10165,-14.31985 c -22.81277,-20.92902 -40.15048,-20.92902 -40.15048,0 0,11.01525 9.12507,16.52291 29.20034,16.52291 27.37542,0 28.28792,-1.10151 10.95014,-16.52291 z"
       id="path987" />
  </g>
</svg>
