<?xml version="1.0" encoding="UTF-8" standalone="no"?>
<svg
   xmlns:dc="http://purl.org/dc/elements/1.1/"
   xmlns:cc="http://creativecommons.org/ns#"
   xmlns:rdf="http://www.w3.org/1999/02/22-rdf-syntax-ns#"
   xmlns:svg="http://www.w3.org/2000/svg"
   xmlns="http://www.w3.org/2000/svg"
   version="1.0"
   width="468pt"
   height="340pt"
   viewBox="0 0 468 340"
   preserveAspectRatio="xMidYMid meet"
   id="svg4247">
   
  <defs
     id="defs4251" />
  <g
     transform="translate(0,340) scale(0.158108,-0.158108)"
     fill="#000000"
     stroke="none"
     id="g4245">
    <path
       d="M367 2143 c-4 -3 -7 -12 -7 -20 0 -11 123 -13 698 -13 384 0 701 3 705 6 3 3 3 12 0 20 -4 12 -113 14 -697 14 -381 0 -696 -3 -699 -7z"
       id="path4195" />
    <path
       d="M151 2071 c-8 -5 -11 -16 -8 -25 6 -15 97 -16 981 -16 818 0 975 2 979 14 3 7 0 19 -6 25 -14 14 -1924 16 -1946 2z"
       id="path4197" />
    <path
       d="M43 1794 c-3 -9 0 -20 8 -25 18 -11 900 -11 918 0 8 5 11 16 8 25 -6 14 -54 16 -467 16 -413 0 -461 -2 -467 -16z"
       id="path4201" />
    <path
       d="M364 1715 c-3 -8 -3 -19 1 -25 10 -16 689 -14 704 3 27 34 -6 37 -356 37 -291 0 -344 -2 -349 -15z"
       id="path4203" />
    <path
       d="M92 1103 c3 -17 35 -18 472 -21 468 -2 498 0 480 30 -3 4 -219 8 -480 8 -447 0 -475 -1 -472 -17z"
       id="path4219" />
    <path
       d="M5 1040 c-3 -5 -3 -14 0 -20 4 -6 154 -10 416 -10 386 0 410 1 407 18 -3 16 -32 17 -410 20 -266 1 -409 -1 -413 -8z"
       id="path4221" />
    <path
       d="M2185 960 c-16 -27 16 -30 296 -30 282 0 289 0 289 20 0 20 -7 20 -289 20 -183 0 -292 -4 -296 -10z"
       id="path4223" />
    <path
       d="M2237 896 c-13 -33 14 -36 323 -36 168 0 311 4 319 9 8 5 11 16 8 25 -6 14 -42 16 -326 16 -262 0 -320 -2 -324 -14z"
       id="path4225" />
    <path
       d="M685 689 c-4 -6 -3 -15 2 -20 5 -5 257 -8 619 -7 533 3 609 5 609 18 0 13 -76 15 -612 18 -435 1 -614 -1 -618 -9z"
       id="path4233" />
    <path
       d="M1568 643 c-110 -3 -118 -5 -118 -24 0 -19 6 -19 168 -17 159 3 167 4 167 23 0 23 -11 24 -217 18z"
       id="path4235" />
    <path
       d="M445 629 c-4 -6 -3 -15 2 -20 5 -5 156 -8 364 -7 307 3 354 5 354 18 0 13 -47 15 -357 18 -251 1 -359 -1 -363 -9z"
       id="path4237" />
  </g>
  <path
     style="stroke-width:0.15810801"
     inkscape:connector-curvature="0"
     d="m 269.25885,94.23795 c 0.47432,2.68784 5.53378,2.84594 74.62697,3.32027 73.99454,0.31621 78.73778,0 75.89184,-4.74324 -0.47432,-0.63243 -34.62566,-1.26487 -75.89184,-1.26487 -70.67427,0 -75.1013,0.15811 -74.62697,2.68784 z"
     id="path4219-8" />
  <path
     style="stroke-width:0.15810801"
     d="m 244.1949,104.8199 c -0.63244,0.94865 -0.47433,2.37162 0.31621,3.16216 0.79054,0.79054 24.66485,1.26486 57.55131,1.10675 48.53916,-0.47432 55.97024,-0.79054 55.97024,-2.84594 0,-2.0554 -7.43108,-2.37162 -56.44456,-2.84594 -39.68511,-0.15811 -56.76077,0.1581 -57.3932,1.42297 z"
     id="path4237-2" />
  <path
     style="stroke-width:0.15810801"
     d="m 211.87497,307.64794 c -0.63243,0.47433 -1.10676,1.8973 -1.10676,3.16216 0,1.73919 19.44729,2.05541 110.35939,2.05541 60.71346,0 110.83371,-0.47433 111.46614,-0.94865 0.47432,-0.47432 0.47432,-1.8973 0,-3.16216 -0.63243,-1.8973 -17.86621,-2.21351 -110.20128,-2.21351 -60.23915,0 -110.04317,0.47432 -110.51749,1.10675 z"
     id="path4195-2" />
  <path
     style="stroke-width:0.15810801"
     d="m 152.52911,320.63842 c -1.26486,0.79054 -1.73919,2.52973 -1.26486,3.9527 0.94864,2.37162 15.33647,2.52973 155.10394,2.52973 129.33235,0 154.1553,-0.31622 154.78774,-2.21351 0.47432,-1.10676 0,-3.00406 -0.94866,-3.9527 -2.21351,-2.21352 -304.19978,-2.52973 -307.67816,-0.31622 z"
     id="path4197-2" />
  <path
     style="stroke-width:0.12309422"
     d="M 57.67566,48.347847 C 36.476722,74.02098 22.365979,107.51653 18.191317,142.61658 c -2.08948,16.98008 -2.178555,25.08614 -0.448722,39.64373 8.530486,73.04174 56.606879,131.60479 122.714815,149.4366 55.80818,14.96233 112.81583,-0.9833 154.76906,-43.33544 12.39547,-12.46421 13.46218,-15.12839 8.05702,-20.80486 -3.48332,-3.65816 -5.75595,-3.52192 -16.62478,1.33677 -26.63418,12.01775 -71.02382,11.06545 -109.8378,-2.44889 -24.43844,-8.50902 -50.4627,-25.11702 -64.40126,-41.14283 C 94.395781,204.60701 81.12636,175.65992 73.093743,139.47161 68.589815,118.97313 67.509041,86.17503 70.545589,66.531249 73.117439,50.562323 73.111708,49.042532 69.750885,46.143753 65.789969,42.740905 61.725175,43.517987 57.67566,48.347847 Z m -2.554216,84.107233 c 15.782725,92.64203 65.027306,143.72772 154.458746,159.94115 11.85266,2.22965 44.15753,2.85306 50.85101,1.17831 3.46613,-0.90121 3.46613,-0.90121 1.20066,1.13479 -4.41224,3.81819 -23.39872,13.39726 -33.79329,17.11405 -29.03313,10.38143 -63.60824,10.52752 -92.83884,0.26563 C 98.34208,299.32547 67.489352,271.33926 49.644587,234.6858 39.516759,213.95777 34.656306,194.09407 33.606571,169.52815 32.553016,143.94904 37.009927,120.24643 47.093125,97.4066 l 4.270643,-9.64354 0.899536,16.46087 c 0.512453,8.99007 1.757053,21.77659 2.85814,28.23115 z"
     id="path4331" />
  <g
     style="fill:#000000;stroke:none"
     transform="matrix(0.11936031,0,0,-0.11936031,171.79388,263.71195)"
     id="g6">
    <g
       style="fill:#000000;stroke:none;stroke-width:1.44357276"
       transform="matrix(0.83381747,0,0,1.0236008,-57.258847,-317.00505)"
       id="g1315">
      <path
         inkscape:connector-curvature="0"
         d="m 773,2421 c -50,-23 -89,-78 -99,-138 l -7,-43 H 513 c -171,0 -199,-7 -249,-61 -40,-43 -54,-86 -54,-164 v -62 l -56,-12 C 87,1926 27,1872 11,1813 5,1792 0,1725 0,1665 0,1536 18,1488 83,1436 l 39,-31 285,-3 285,-3 23,-26 c 18,-22 24,-44 29,-112 7,-95 18,-114 93,-157 24,-15 44,-35 47,-49 4,-14 19,-31 36,-40 38,-19 74,-6 95,35 l 16,30 h 319 c 176,0 320,-3 320,-6 0,-4 -36,-69 -81,-146 -88,-152 -93,-177 -47,-211 52,-39 70,-22 184,173 57,96 103,184 104,194 0,11 -9,29 -20,41 -17,18 -18,25 -7,48 l 12,27 h 173 174 l -20,-32 c -76,-123 -87,-162 -56,-192 21,-22 58,-30 81,-18 10,6 49,65 88,131 38,67 75,121 82,121 7,0 31,18 54,40 l 42,40 h 179 c 201,0 224,5 275,63 45,52 53,91 53,272 0,181 -8,220 -53,272 -50,57 -75,63 -266,63 h -169 l -4,128 c -3,120 -5,131 -30,169 -49,74 -64,78 -391,81 l -288,3 -32,36 c -56,63 -55,63 -494,63 -369,0 -401,-2 -440,-19 z"
         id="path1303"
         style="stroke-width:1.44357276" />
      <path
         inkscape:connector-curvature="0"
         d="m 1253,969 c -20,-7 -100,-133 -197,-310 -32,-58 -35,-70 -25,-92 14,-30 59,-52 88,-42 19,6 216,328 227,372 6,22 -28,68 -54,75 -10,3 -27,1 -39,-3 z"
         id="path1305"
         style="stroke-width:1.44357276" />
    </g>
  </g>
</svg>
