<?xml version="1.0" encoding="UTF-8" standalone="no"?>
<svg
   xmlns:dc="http://purl.org/dc/elements/1.1/"
   xmlns:cc="http://creativecommons.org/ns#"
   xmlns:rdf="http://www.w3.org/1999/02/22-rdf-syntax-ns#"
   xmlns:svg="http://www.w3.org/2000/svg"
   xmlns="http://www.w3.org/2000/svg"
   version="1.0"
   width="468pt"
   height="463pt"
   viewBox="0 0 468 463"
   id="svg2">
   
  <defs
     id="defs34" />
  <g
     transform="matrix(0.11936031,0,0,-0.11936031,209.52335,242.68102)"
     id="g6"
     style="fill:#000000;stroke:none">
    <path
       d="M -423.25699,1519.4947 C -688.4798,1362 -905.02508,1125.418 -1030.5109,853.14228 c -61.374,-131.55637 -81.9901,-196.44489 -100.9511,-317.31578 -96.5591,-606.120277 220.17465,-1186.757 808.57222,-1481.7087 496.9463,-248.265 1080.71967,-251.0874 1584.98508,-7.30169 148.8701,71.63422 165.562,90.5793 127.7388,148.57053 -24.3748,37.37213 -46.4294,41.4951 -162.1632,27.42995 -283.87865,-35.36242 -705.84407,74.18691 -1043.88627,271.8118 -212.841357,124.4305 -421.0931,317.53767 -515.24595,478.225405 -121.81753,207.557645 -178.06928,470.469195 -166.61014,779.507435 6.93114,174.94553 76.57149,440.80087 153.49244,591.57307 63.51893,122.3292 67.16982,134.5465 42.11426,165.5393 -29.56239,36.4183 -70.30945,39.5095 -120.79223,10.0211 z M -652.74701,849.96293 c -75.0311,-780.16248 271.10034,-1303.43648 1086.37579,-1638.93457 107.85426,-45.11372 415.1123,-124.27982 483.17362,-126.19703 35.32757,-0.72014 35.32757,-0.72014 8.70938,-11.86883 -51.48309,-20.53171 -256.31701,-53.86731 -364.73352,-59.85192 -302.81869,-16.71518 -633.652486,61.48326 -888.02462,210.99062 -319.26205,186.64575 -545.92228,482.20624 -627.11599,817.504706 -46.26375,189.699184 -44.28806,360.365934 5.57662,560.044134 52.2986,207.82304 152.69228,387.92763 304.75969,548.18806 l 64.33344,67.6355 -31.53804,-134.2485 c -17.02209,-73.3682 -36.30287,-178.90331 -41.51637,-233.26217 z"
       id="path19"
       style="stroke-width:1" />
  </g>
</svg>
