<?xml version="1.0" encoding="UTF-8" standalone="no"?>
<svg
   xmlns:dc="http://purl.org/dc/elements/1.1/"
   xmlns:cc="http://creativecommons.org/ns#"
   xmlns:rdf="http://www.w3.org/1999/02/22-rdf-syntax-ns#"
   xmlns:svg="http://www.w3.org/2000/svg"
   xmlns="http://www.w3.org/2000/svg"
   xmlns:sodipodi="http://sodipodi.sourceforge.net/DTD/sodipodi-0.dtd"
   xmlns:inkscape="http://www.inkscape.org/namespaces/inkscape"
   version="1.0"
   width="468pt"
   height="390pt"
   viewBox="0 0 468 390"
   preserveAspectRatio="xMidYMid meet"
   id="svg145"
   sodipodi:docname="weather_night_cloudy_light.svg"
   inkscape:version="0.92.1 r15371">
  <defs
     id="defs149" />
  <sodipodi:namedview
     pagecolor="#ffffff"
     bordercolor="#666666"
     borderopacity="1"
     objecttolerance="10"
     gridtolerance="10"
     guidetolerance="10"
     inkscape:pageopacity="0"
     inkscape:pageshadow="2"
     inkscape:window-width="1680"
     inkscape:window-height="953"
     id="namedview147"
     showgrid="false"
     inkscape:zoom="1.3807692"
     inkscape:cx="170.10435"
     inkscape:cy="260"
     inkscape:window-x="0"
     inkscape:window-y="27"
     inkscape:window-maximized="1"
     inkscape:current-layer="g143" />
  <metadata
     id="metadata117">
Created by potrace 1.8, written by Peter Selinger 2001-2007
<rdf:RDF>
  <cc:Work
     rdf:about="">
    <dc:format>image/svg+xml</dc:format>
    <dc:type
       rdf:resource="http://purl.org/dc/dcmitype/StillImage" />
    <dc:title></dc:title>
  </cc:Work>
</rdf:RDF>
</metadata>
  <g
     transform="translate(0,390) scale(0.157576,-0.157576)"
     fill="#000000"
     stroke="none"
     id="g143">
    <path
       d="m 1805,1058 c -116,-3 -137,-6 -161,-24 -54,-40 -68,-70 -72,-149 l -4,-73 -44,-7 c -51,-7 -105,-48 -123,-94 -9,-19 -11,-85 -9,-205 l 3,-177 41,-39 c 31,-28 54,-40 88,-45 40,-6 49,-12 60,-39 7,-17 26,-42 40,-56 27,-25 30,-25 227,-28 197,-3 200,-4 209,-26 12,-33 75,-84 112,-91 18,-3 137,-5 265,-3 217,3 233,4 260,24 51,38 73,81 73,145 0,54 2,59 23,60 72,2 148,64 166,134 14,55 14,337 1,387 -14,48 -55,97 -97,114 -23,10 -83,14 -211,14 h -179 l -7,38 c -8,53 -44,103 -89,125 -572,15 0,0 -572,15 z"
       id="path137"
       inkscape:connector-curvature="0"
       sodipodi:nodetypes="ccccccccccccsccccsccccscccc" />
    <path
       d="M285 916 c-37 -17 -80 -62 -94 -99 -6 -16 -11 -68 -11 -116 l0 -88 -40 -12 c-50 -15 -99 -56 -116 -98 -19 -45 -19 -262 0 -306 16 -39 61 -82 99 -96 16 -6 72 -11 126 -11 65 0 111 -5 134 -15 29 -12 89 -15 304 -15 156 0 284 4 306 11 59 16 104 68 118 138 11 51 17 61 38 66 40 10 80 44 101 85 29 57 29 273 0 330 -31 61 -72 84 -156 88 -69 4 -72 5 -77 32 -8 37 -49 84 -91 104 -29 14 -77 16 -323 16 -218 -1 -295 -4 -318 -14z"
       id="path141" />
    <g
       id="g290">
      <g
         id="g293">
        <path
           style="stroke-width:0.75747776"
           inkscape:connector-curvature="0"
           d="m 2095.3224,2427.8801 c -124.7192,-80.1766 -226.5482,-200.6144 -285.5571,-339.2231 -28.8606,-66.9721 -38.5552,-100.0052 -47.4715,-161.5376 -45.4063,-308.56 103.5356,-604.1468 380.2256,-754.2991 233.6857,-126.3855 508.2014,-127.8223 745.3294,-3.7171 70.0052,36.4671 77.8545,46.1116 60.0684,75.6334 -11.4621,19.0253 -21.8332,21.1242 -76.2564,13.964 -133.4923,-18.0022 -331.919,37.7666 -490.8812,138.3722 -100.0871,63.3443 -198.0161,161.65 -242.2909,243.4519 -57.2838,105.6622 -83.7359,239.5036 -78.3473,396.8272 3.2593,89.0603 36.0073,224.4005 72.1788,301.1548 29.8694,62.2747 31.5862,68.4942 19.8039,84.2719 -13.9014,18.5396 -33.0625,20.1134 -56.8017,5.1015 z m -107.9161,-340.8417 c -35.2829,-397.1607 127.4831,-663.5457 510.8609,-834.3389 50.7177,-22.9663 195.2041,-63.2677 227.2095,-64.2437 16.6126,-0.3667 16.6126,-0.3667 4.0955,-6.0422 -24.2096,-10.4521 -120.5316,-27.4224 -171.5138,-30.4691 -142.3984,-8.5092 -297.9708,31.2996 -417.5877,107.41 -150.1307,95.0164 -256.7162,245.4785 -294.897,416.1701 -21.7552,96.5709 -20.8261,183.4529 2.6224,285.104 24.5931,105.7975 71.8025,197.4842 143.3111,279.0687 l 30.2524,34.4315 -14.8305,-68.3425 c -8.0045,-37.3499 -17.0712,-91.0752 -19.5228,-118.7479 z"
           id="path19" />
      </g>
    </g>
  </g>
</svg>
