<?xml version="1.0" encoding="UTF-8" standalone="no"?>
<svg
   xmlns:dc="http://purl.org/dc/elements/1.1/"
   xmlns:cc="http://creativecommons.org/ns#"
   xmlns:rdf="http://www.w3.org/1999/02/22-rdf-syntax-ns#"
   xmlns:svg="http://www.w3.org/2000/svg"
   xmlns="http://www.w3.org/2000/svg"
   version="1.0"
   width="468pt"
   height="463pt"
   viewBox="0 0 468 463"
   id="svg2">
  <defs
     id="defs34" />
  
  <g
     transform="matrix(0.11936031,0,0,-0.11936031,149.52335,314.68102)"
     id="g6"
     fill="#000000"
     stroke="none">
    <path
       d="M -423.25699,1519.4947 C -688.4798,1362 -905.02508,1125.418 -1030.5109,853.14228 c -61.374,-131.55637 -81.9901,-196.44489 -100.9511,-317.31578 -96.5591,-606.120277 220.17465,-1186.757 808.57222,-1481.7087 496.9463,-248.265 1080.71967,-251.0874 1584.98508,-7.30169 148.8701,71.63422 165.562,90.5793 127.7388,148.57053 -24.3748,37.37213 -46.4294,41.4951 -162.1632,27.42995 -283.87865,-35.36242 -705.84407,74.18691 -1043.88627,271.8118 -212.841357,124.4305 -421.0931,317.53767 -515.24595,478.225405 -121.81753,207.557645 -178.06928,470.469195 -166.61014,779.507435 6.93114,174.94553 76.57149,440.80087 153.49244,591.57307 63.51893,122.3292 67.16982,134.5465 42.11426,165.5393 -29.56239,36.4183 -70.30945,39.5095 -120.79223,10.0211 z M -652.74701,849.96293 c -75.0311,-780.16248 271.10034,-1303.43648 1086.37579,-1638.93457 107.85426,-45.11372 415.1123,-124.27982 483.17362,-126.19703 35.32757,-0.72014 35.32757,-0.72014 8.70938,-11.86883 -51.48309,-20.53171 -256.31701,-53.86731 -364.73352,-59.85192 -302.81869,-16.71518 -633.652486,61.48326 -888.02462,210.99062 -319.26205,186.64575 -545.92228,482.20624 -627.11599,817.504706 -46.26375,189.699184 -44.28806,360.365934 5.57662,560.044134 52.2986,207.82304 152.69228,387.92763 304.75969,548.18806 l 64.33344,67.6355 -31.53804,-134.2485 c -17.02209,-73.3682 -36.30287,-178.90331 -41.51637,-233.26217 z"
       id="path19"
       style="stroke-width:1" />
    <g
       style="fill:#000000;stroke:none;stroke-width:1.44357276"
       transform="matrix(0.83381747,0,0,1.0236008,-57.258847,-317.00505)"
       id="g1315">
      <path
         d="m 773,2421 c -50,-23 -89,-78 -99,-138 l -7,-43 H 513 c -171,0 -199,-7 -249,-61 -40,-43 -54,-86 -54,-164 v -62 l -56,-12 C 87,1926 27,1872 11,1813 5,1792 0,1725 0,1665 0,1536 18,1488 83,1436 l 39,-31 285,-3 285,-3 23,-26 c 18,-22 24,-44 29,-112 7,-95 18,-114 93,-157 24,-15 44,-35 47,-49 4,-14 19,-31 36,-40 38,-19 74,-6 95,35 l 16,30 h 319 c 176,0 320,-3 320,-6 0,-4 -36,-69 -81,-146 -88,-152 -93,-177 -47,-211 52,-39 70,-22 184,173 57,96 103,184 104,194 0,11 -9,29 -20,41 -17,18 -18,25 -7,48 l 12,27 h 173 174 l -20,-32 c -76,-123 -87,-162 -56,-192 21,-22 58,-30 81,-18 10,6 49,65 88,131 38,67 75,121 82,121 7,0 31,18 54,40 l 42,40 h 179 c 201,0 224,5 275,63 45,52 53,91 53,272 0,181 -8,220 -53,272 -50,57 -75,63 -266,63 h -169 l -4,128 c -3,120 -5,131 -30,169 -49,74 -64,78 -391,81 l -288,3 -32,36 c -56,63 -55,63 -494,63 -369,0 -401,-2 -440,-19 z"
         id="path1303"
         style="stroke-width:1.44357276" />
      <path
         d="m 1253,969 c -20,-7 -100,-133 -197,-310 -32,-58 -35,-70 -25,-92 14,-30 59,-52 88,-42 19,6 216,328 227,372 6,22 -28,68 -54,75 -10,3 -27,1 -39,-3 z"
         id="path1305"
         style="stroke-width:1.44357276" />
      <path
         d="M 729,806 C 716,800 672,737 627,660 501,446 497,437 511,407 c 6,-14 25,-31 41,-38 25,-10 33,-9 55,7 25,19 223,347 223,370 0,18 -38,61 -59,67 -11,2 -30,0 -42,-7 z"
         id="path1307"
         style="stroke-width:1.44357276" />
      <path
         d="m 1897,743 c -32,-36 -207,-348 -207,-370 0,-26 44,-63 75,-63 12,0 31,10 42,23 37,41 203,338 203,363 0,53 -78,86 -113,47 z"
         id="path1309"
         style="stroke-width:1.44357276" />
      <path
         d="m 1338,493 c -25,-30 -208,-350 -208,-366 0,-8 9,-26 21,-41 22,-28 64,-35 91,-13 27,22 208,345 208,371 0,55 -77,88 -112,49 z"
         id="path1311"
         style="stroke-width:1.44357276" />
      <path
         d="M 857,312 C 826,278 720,85 720,63 c 0,-53 78,-84 113,-45 31,34 137,227 137,249 0,53 -78,84 -113,45 z"
         id="path1313"
         style="stroke-width:1.44357276" />
    </g>
  </g>
</svg>
