<?xml version="1.0" encoding="UTF-8" standalone="no"?>
<svg
   xmlns:dc="http://purl.org/dc/elements/1.1/"
   xmlns:cc="http://creativecommons.org/ns#"
   xmlns:rdf="http://www.w3.org/1999/02/22-rdf-syntax-ns#"
   xmlns:svg="http://www.w3.org/2000/svg"
   xmlns="http://www.w3.org/2000/svg"
   version="1.0"
   width="468pt"
   height="340pt"
   viewBox="0 0 468 340"
   preserveAspectRatio="xMidYMid meet"
   id="svg4247">
    
  <defs
     id="defs4251" />
  <g
     transform="translate(0,340) scale(0.158108,-0.158108)"
     fill="#000000"
     stroke="none"
     id="g4245">
    <path
       d="M367 2143 c-4 -3 -7 -12 -7 -20 0 -11 123 -13 698 -13 384 0 701 3 705 6 3 3 3 12 0 20 -4 12 -113 14 -697 14 -381 0 -696 -3 -699 -7z"
       id="path4195" />
    <path
       d="M151 2071 c-8 -5 -11 -16 -8 -25 6 -15 97 -16 981 -16 818 0 975 2 979 14 3 7 0 19 -6 25 -14 14 -1924 16 -1946 2z"
       id="path4197" />
    <path
       d="M43 1794 c-3 -9 0 -20 8 -25 18 -11 900 -11 918 0 8 5 11 16 8 25 -6 14 -54 16 -467 16 -413 0 -461 -2 -467 -16z"
       id="path4201" />
    <path
       d="M364 1715 c-3 -8 -3 -19 1 -25 10 -16 689 -14 704 3 27 34 -6 37 -356 37 -291 0 -344 -2 -349 -15z"
       id="path4203" />
    <path
       d="M92 1103 c3 -17 35 -18 472 -21 468 -2 498 0 480 30 -3 4 -219 8 -480 8 -447 0 -475 -1 -472 -17z"
       id="path4219" />
    <path
       d="M5 1040 c-3 -5 -3 -14 0 -20 4 -6 154 -10 416 -10 386 0 410 1 407 18 -3 16 -32 17 -410 20 -266 1 -409 -1 -413 -8z"
       id="path4221" />
    <path
       d="m 88.329778,447.69174 c -15.999986,-27 15.999972,-30 295.999672,-30 281.99971,0 288.9997,0 288.9997,20 0,20 -6.99999,20 -288.9997,20 -182.9998,0 -291.999686,-4 -295.999672,-10 z"
       id="path4223" />
    <path
       d="m 187.76566,383.69174 c -12.99999,-33 13.99999,-36 322.99966,-36 167.99982,0 310.99967,4 318.99966,9 8,5 10.99999,16 8,25 -6,14 -41.99996,16 -325.99966,16 -261.99972,0 -319.99966,-2 -323.99966,-14 z"
       id="path4225" />
    <path
       d="M685 689 c-4 -6 -3 -15 2 -20 5 -5 257 -8 619 -7 533 3 609 5 609 18 0 13 -76 15 -612 18 -435 1 -614 -1 -618 -9z"
       id="path4233" />
    <path
       d="m 2592.6176,529.15372 c -110,-3 -118,-5 -118,-24 0,-19 6,-19 168,-17 159,3 167,4 167,23 0,23 -11,24 -217,18 z"
       id="path4235" />
    <path
       d="M445 629 c-4 -6 -3 -15 2 -20 5 -5 156 -8 364 -7 307 3 354 5 354 18 0 13 -47 15 -357 18 -251 1 -359 -1 -363 -9z"
       id="path4237" />
    <path
       style="stroke-width:1"
       d="m 2476.4628,460.5251 c -110,-3 -118,-5 -118,-24 0,-19 6,-19 168,-17 159,3 167,4 167,23 0,23 -11,24 -217,18 z"
       id="path4235-9" />
  </g>
  <path
     style="stroke-width:0.15810801"
     d="m 269.25885,94.23795 c 0.47432,2.68784 5.53378,2.84594 74.62697,3.32027 73.99454,0.31621 78.73778,0 75.89184,-4.74324 -0.47432,-0.63243 -34.62566,-1.26487 -75.89184,-1.26487 -70.67427,0 -75.1013,0.15811 -74.62697,2.68784 z"
     id="path4219-8" />
  <path
     style="stroke-width:0.15810801"
     d="m 244.1949,104.8199 c -0.63244,0.94865 -0.47433,2.37162 0.31621,3.16216 0.79054,0.79054 24.66485,1.26486 57.55131,1.10675 48.53916,-0.47432 55.97024,-0.79054 55.97024,-2.84594 0,-2.0554 -7.43108,-2.37162 -56.44456,-2.84594 -39.68511,-0.15811 -56.76077,0.1581 -57.3932,1.42297 z"
     id="path4237-2" />
  <path
     style="stroke-width:0.15810801"
     d="m 211.87497,307.64794 c -0.63243,0.47433 -1.10676,1.8973 -1.10676,3.16216 0,1.73919 19.44729,2.05541 110.35939,2.05541 60.71346,0 110.83371,-0.47433 111.46614,-0.94865 0.47432,-0.47432 0.47432,-1.8973 0,-3.16216 -0.63243,-1.8973 -17.86621,-2.21351 -110.20128,-2.21351 -60.23915,0 -110.04317,0.47432 -110.51749,1.10675 z"
     id="path4195-2" />
  <path
     style="stroke-width:0.15810801"
     d="m 152.52911,320.63842 c -1.26486,0.79054 -1.73919,2.52973 -1.26486,3.9527 0.94864,2.37162 15.33647,2.52973 155.10394,2.52973 129.33235,0 154.1553,-0.31622 154.78774,-2.21351 0.47432,-1.10676 0,-3.00406 -0.94866,-3.9527 -2.21351,-2.21352 -304.19978,-2.52973 -307.67816,-0.31622 z"
     id="path4197-2" />
  <g
     style="fill:#000000;stroke:none"
     transform="matrix(0.11936031,0,0,-0.11936031,171.79388,263.71195)"
     id="g6">
    <g
       style="fill:#000000;stroke:none;stroke-width:1.44357276"
       transform="matrix(0.83381747,0,0,1.0236008,-57.258847,-317.00505)"
       id="g1315" />
  </g>
  <g
     style="fill:#000000;stroke:none"
     transform="matrix(0.10459216,0,0,-0.12106174,141.37452,318.22441)"
     id="g16">
    <path
       d="m 773,2421 c -50,-23 -89,-78 -99,-138 l -7,-43 H 513 c -171,0 -199,-7 -249,-61 -40,-43 -54,-86 -54,-164 v -62 l -56,-12 C 87,1926 27,1872 11,1813 5,1792 0,1725 0,1665 0,1536 18,1488 83,1436 l 39,-31 285,-3 285,-3 23,-26 c 18,-22 24,-44 29,-112 7,-95 18,-114 93,-157 24,-15 44,-35 47,-49 4,-14 19,-31 36,-40 38,-19 74,-6 95,35 l 16,30 h 319 c 176,0 320,-3 320,-6 0,-4 -36,-69 -81,-146 -88,-152 -93,-177 -47,-211 52,-39 70,-22 184,173 57,96 103,184 104,194 0,11 -9,29 -20,41 -17,18 -18,25 -7,48 l 12,27 h 173 174 l -20,-32 c -76,-123 -87,-162 -56,-192 21,-22 58,-30 81,-18 10,6 49,65 88,131 38,67 75,121 82,121 7,0 31,18 54,40 l 42,40 h 179 c 201,0 224,5 275,63 45,52 53,91 53,272 0,181 -8,220 -53,272 -50,57 -75,63 -266,63 h -169 l -4,128 c -3,120 -5,131 -30,169 -49,74 -64,78 -391,81 l -288,3 -32,36 c -56,63 -55,63 -494,63 -369,0 -401,-2 -440,-19 z"
       id="path4" />
    <path
       d="m 1253,969 c -20,-7 -100,-133 -197,-310 -32,-58 -35,-70 -25,-92 14,-30 59,-52 88,-42 19,6 216,328 227,372 6,22 -28,68 -54,75 -10,3 -27,1 -39,-3 z"
       id="path6" />
    <path
       d="M 729,806 C 716,800 672,737 627,660 501,446 497,437 511,407 c 6,-14 25,-31 41,-38 25,-10 33,-9 55,7 25,19 223,347 223,370 0,18 -38,61 -59,67 -11,2 -30,0 -42,-7 z"
       id="path8" />
    <path
       d="m 1897,743 c -32,-36 -207,-348 -207,-370 0,-26 44,-63 75,-63 12,0 31,10 42,23 37,41 203,338 203,363 0,53 -78,86 -113,47 z"
       id="path10" />
    <path
       d="m 1338,493 c -25,-30 -208,-350 -208,-366 0,-8 9,-26 21,-41 22,-28 64,-35 91,-13 27,22 208,345 208,371 0,55 -77,88 -112,49 z"
       id="path12" />
    <path
       d="M 857,312 C 826,278 720,85 720,63 c 0,-53 78,-84 113,-45 31,34 137,227 137,249 0,53 -78,84 -113,45 z"
       id="path14" />
  </g>
</svg>
