<?xml version="1.0" encoding="UTF-8" standalone="no"?>
<svg
   xmlns:dc="http://purl.org/dc/elements/1.1/"
   xmlns:cc="http://creativecommons.org/ns#"
   xmlns:rdf="http://www.w3.org/1999/02/22-rdf-syntax-ns#"
   xmlns:svg="http://www.w3.org/2000/svg"
   xmlns="http://www.w3.org/2000/svg"
   xmlns:sodipodi="http://sodipodi.sourceforge.net/DTD/sodipodi-0.dtd"
   xmlns:inkscape="http://www.inkscape.org/namespaces/inkscape"
   version="1.0"
   width="468pt"
   height="468pt"
   viewBox="0 0 468 468"
   preserveAspectRatio="xMidYMid meet"
   id="svg995"
   sodipodi:docname="weather_rain_snow3.svg"
   inkscape:version="0.92.1 r15371">
  <defs
     id="defs999" />
  <sodipodi:namedview
     pagecolor="#ffffff"
     bordercolor="#666666"
     borderopacity="1"
     objecttolerance="10"
     gridtolerance="10"
     guidetolerance="10"
     inkscape:pageopacity="0"
     inkscape:pageshadow="2"
     inkscape:window-width="640"
     inkscape:window-height="480"
     id="namedview997"
     showgrid="false"
     inkscape:zoom="0.37820513"
     inkscape:cx="265.72881"
     inkscape:cy="312"
     inkscape:window-x="0"
     inkscape:window-y="27"
     inkscape:window-maximized="0"
     inkscape:current-layer="g993" />
  <metadata
     id="metadata985">
Created by potrace 1.8, written by Peter Selinger 2001-2007
<rdf:RDF>
  <cc:Work
     rdf:about="">
    <dc:format>image/svg+xml</dc:format>
    <dc:type
       rdf:resource="http://purl.org/dc/dcmitype/StillImage" />
    <dc:title></dc:title>
  </cc:Work>
</rdf:RDF>
</metadata>
  <g
     transform="translate(0,468) scale(0.158644,-0.158644)"
     fill="#000000"
     stroke="none"
     id="g993">
    <path
       d="M790 2934 c-19 -8 -43 -23 -53 -32 -28 -25 -57 -87 -57 -122 l0 -30 -157 0 c-187 0 -226 -12 -274 -88 -26 -40 -29 -55 -29 -123 l0 -77 -52 -11 c-63 -14 -112 -49 -138 -101 -28 -55 -29 -275 -1 -335 36 -79 91 -105 221 -105 l90 0 0 -59 c0 -67 21 -135 53 -170 26 -28 92 -60 125 -61 28 0 28 -7 -3 -32 -40 -31 -28 -88 18 -88 11 0 40 11 66 26 l47 25 67 -38 c37 -21 67 -40 67 -43 0 -4 -103 -65 -132 -78 -3 -2 -25 8 -47 22 -44 28 -80 33 -99 14 -20 -20 -14 -56 13 -74 23 -15 24 -18 10 -34 -34 -38 1 -96 52 -84 20 5 23 2 23 -23 0 -35 16 -53 46 -53 32 0 43 19 46 85 l3 60 65 37 c36 21 68 38 72 38 5 0 8 -36 8 -79 l0 -79 -55 -31 c-61 -35 -71 -63 -35 -96 19 -17 23 -18 55 -2 l34 16 3 -27 c5 -48 88 -39 88 9 0 18 2 19 30 4 37 -19 45 -19 64 1 32 31 20 61 -39 96 l-55 33 0 77 c0 43 3 78 6 78 3 0 37 -18 75 -40 l69 -41 0 -57 c0 -62 11 -82 45 -82 29 0 45 19 45 52 0 25 3 28 25 22 49 -12 84 45 49 81 -15 14 -14 17 10 36 41 32 30 89 -17 89 -10 0 -40 -12 -67 -27 l-47 -27 -66 39 c-36 21 -64 42 -61 46 3 5 32 24 66 43 l61 34 55 -29 c49 -26 58 -28 76 -15 25 16 32 51 16 72 -11 12 17 14 209 14 174 0 228 3 250 14 30 16 91 80 91 96 0 6 96 10 250 10 230 0 254 2 290 20 21 11 45 28 52 39 13 18 29 20 198 23 210 3 239 11 294 81 l31 39 3 205 c3 193 2 207 -19 249 -13 28 -37 56 -62 72 -40 26 -45 27 -219 30 l-178 3 0 110 c0 117 -12 163 -53 207 -51 55 -59 57 -374 60 l-293 3 -21 31 c-12 17 -40 39 -63 49 -38 17 -72 19 -436 18 -329 0 -401 -2 -430 -15z m48 -1346 c4 -35 -1 -35 -63 2 l-50 30 55 -2 c52 -3 55 -5 58 -30z m136 -13 c-25 -19 -44 -19 -44 0 0 10 10 15 32 15 30 0 31 -1 12 -15z"
       id="path987" />
    <path
       style="stroke-width:1.26068437"
       inkscape:connector-curvature="0"
       d="m 2139.5266,1608.7675 c -49.3468,-32.5011 -95.952,-116.58 -161.0623,-294.629 -34.954,-95.3833 -36.3248,-101.7423 -37.0101,-169.5706 0,-85.492 12.3367,-117.9931 65.1103,-175.92992 154.2086,-168.15838 426.9866,-55.81731 426.3012,175.92992 0,39.5666 -5.483,65.7087 -28.1002,132.1239 -56.8858,167.4506 -104.1765,265.6604 -152.838,313.7055 -31.527,32.5011 -78.1323,40.2731 -112.4009,18.3702 z m 67.8518,-108.808 c 48.6614,-66.4153 135.0183,-296.7484 135.0183,-358.9243 0,-60.7629 -44.5492,-126.4717 -100.7497,-149.0812 -31.5271,-12.71784 -92.5252,-9.18511 -122.6815,6.35895 -61.6835,32.50105 -88.413,76.30695 -87.7277,146.25495 0,41.6862 5.4831,63.5891 32.8979,137.7762 54.1444,145.5478 102.1204,240.2249 120.6255,240.2249 3.4268,0 13.7074,-10.5983 22.6172,-22.6095 z"
       id="path1218" />
    <path
       style="stroke-width:1.26068437"
       inkscape:connector-curvature="0"
       d="m 1558.4552,1101.1438 c -49.3468,-32.5011 -95.952,-116.58006 -161.0623,-294.62963 -34.954,-95.3836 -36.3248,-101.74263 -37.0101,-169.57114 0,-85.49227 12.3367,-117.99346 65.1103,-175.93047 154.2086,-168.15891 426.9866,-55.81745 426.3012,175.93047 0,39.56672 -5.4829,65.70891 -28.1002,132.12432 -56.8858,167.45114 -104.1765,265.66115 -152.838,313.70625 -31.527,32.5011 -78.1323,40.2731 -112.4009,18.3702 z m 67.8518,-108.80803 c 48.6614,-66.41551 135.0183,-296.74936 135.0183,-358.92534 0,-60.76321 -44.5492,-126.47222 -100.7497,-149.08168 -31.5271,-12.71793 -92.5252,-9.18523 -122.6815,6.35893 -61.6835,32.50109 -88.413,76.30714 -87.7277,146.25535 0,41.68635 5.4831,63.58931 32.8979,137.77665 54.1444,145.54825 102.1204,240.22562 120.6255,240.22562 3.4268,0 13.7074,-10.5983 22.6172,-22.60953 z"
       id="path1218-3" />
    <path
       style="stroke-width:1"
       inkscape:connector-curvature="0"
       d="m 530.6559,970.12878 c -28.00009,-24.00006 -29.00009,-47.00015 0,-81.00024 58.00018,-68.00021 56.00018,-61.00021 36.00012,-137.00045 -10.00003,-39.00012 -21.00009,-70.00021 -24.00009,-70.00021 -3,0 -30.00009,25.00009 -60.00018,55.00018 l -54.00018,54.00015 16.00006,57.00018 c 19.00006,66.00021 15.00003,82.00027 -18.00006,90.0003 -35.00012,9.00003 -54.00018,-2 -66.00021,-36.00012 -10.00003,-29.00009 -11.00003,-30.00009 -28.00009,-15.00003 -36.00008,32.00009 -93.00008,-12.00006 -70.00008,-54.00018 14,-27.00009 14,-28.00009 -20,-40.00012 -36,-12.00006 -46,-34.00012 -32,-67.00021 13.00001,-27.00009 42,-31.00012 106.00002,-13.00006 l 39.00012,11.00003 59.00021,-59.00018 59.00018,-59.00018 -81.00027,-19.00006 -81.00024,-18.00006 -42.00002,41.00012 c -47,46.00015 -66,51.00018 -89.99999,24.00009 -22,-25.00009 -21,-45.00015 3,-67.00021 l 20.99999,-19.00006 -27.99999,-22.00009 c -24,-19.00006 -26,-25.00006 -18,-50.00015 8,-21.00006 18,-30.00009 37,-32.00009 24.99999,-3.00003 26.99999,-7.00003 24.99999,-39.00012 -1.99999,-30.00012 3,-39.00015 25.00001,-52.00018 23.99999,-14.00003 27.99999,-14.00003 44.99999,2 11,9.00003 25.00002,39.00012 32.00005,67.00021 12.00003,47.00015 15.00003,50.00008 54.00015,60.00021 23.00009,6 57.00018,15.00003 76.00027,19.99996 19.00006,5.0001 37.00009,8.00013 39.00012,6.0001 2,-2 -7.00003,-37.00009 -18.00006,-78.00024 l -22.00009,-74.00024 -62.00018,-20.00006 c -57.00018,-18.00006 -61.00021,-21.00006 -64.00021,-51.00015 -4,-37.00012 23.00009,-57.00018 63.00021,-47.00015 22.00006,5 25.00006,3 25.00006,-18.00006 0,-32.00009 18.00006,-48.00015 52.00018,-48.00015 17.00006,0 31.00009,7.00003 39.00012,21.00006 l 11.00003,21.00006 22.00006,-21.00006 c 27.00009,-25.00006 49.00018,-27.00009 70.00024,-5 25.00009,25.00006 19.00006,51.00015 -24.00009,98.0003 l -40.00012,43.00015 23.00009,76.00024 23.00006,77.00024 57.00018,-58.00018 58.00018,-59.00021 -17.00006,-61.00018 c -20.00006,-71.00024 -11.00003,-92.0003 37.00012,-92.0003 23.00009,0 32.00012,7.00003 41.00015,28.00009 7,15.00006 13.00003,28.00009 14.00003,30.00009 1,1 13.00003,-3 28.00009,-9.00003 22.00006,-10.00003 29.00009,-9.00003 46.00015,6.00003 22.00006,20.00006 27.00009,60.00018 8.00003,71.00021 -7.00003,5.00003 0,12.00006 22.00006,19.00009 43.00015,14.00003 55.00018,46.00012 31.00009,77.00024 -18.00006,22.00006 -21.00006,22.00006 -82.00024,9.00003 l -63.00021,-13.00006 -52.00015,59.00018 -52.00018,58.00021 36.00012,12.00003 c 20.00006,6.00003 56.00018,14.00003 79.00024,18.00006 40.00012,7.00003 44.00015,5 81.00027,-34.00012 45.00015,-47.00015 74.00024,-52.00015 98.0003,-15.00003 16.00006,24.00006 16.00006,26.00006 -5,54.00015 -20.00009,28.00009 -20.00009,30.00009 -2.00003,39.00012 10.00003,6.00003 22.00009,18.00006 25.00009,27.00009 10.00003,25.00009 -20.00006,64.00021 -49.00015,64.00021 -22.00006,0 -23.00009,3 -15.00006,31.00009 7.00003,24.00009 5.00003,34.00012 -11.00003,50.00018 -37.00012,37.00012 -73.00024,17.00003 -89.00027,-51.00018 -7.00003,-27.00009 -17.00006,-53.00015 -22.00009,-56.00018 -11.00003,-7 -151.00048,-44.00012 -154.00048,-41.00012 -1,1 9.00003,36.00012 22.00006,79.00024 l 24.00009,76.00024 52.00015,12.00006 c 29.00012,7 59.00021,17.00003 66.00021,23.00006 35.00012,28.00009 -8,90.0003 -57.00018,81.00027 -26.00006,-5.00003 -29.00009,-4.00003 -25.00006,13.00003 7,25.00009 -28.00009,56.00018 -57.00018,51.00015 -13.00006,-2 -29.00009,-13.00003 -35.00012,-25.00006 l -11.00003,-23.00009 -23.00009,25.00009 c -26.00006,28.00009 -39.00012,31.00009 -62.00018,13.00003 z"
       id="path1369" />
  </g>
</svg>
