<svg version="1.0" xmlns="http://www.w3.org/2000/svg"
 width="146pt" height="268pt" viewBox="0 0 146 268" preserveAspectRatio="xMidYMid meet">
<metadata>
Created by potrace 1.14, written by Peter Selinger 2001-2017
</metadata>
<g transform="translate(0,268) scale(0.1,-0.1)"
fill="#000000" stroke="none">
<path d="M914 2386 l-317 -294 -299 -813 c-278 -754 -299 -816 -286 -839 9
-17 55 -46 139 -90 118 -59 130 -63 164 -55 37 10 49 28 496 747 l458 737 24
318 25 318 1 -1183 1 -1183 25 -24 c13 -14 31 -25 40 -25 20 0 57 19 67 34 4
6 8 593 8 1304 0 1279 0 1292 -20 1312 -24 24 -57 26 -87 5 -21 -14 -24 -14
-43 5 -47 47 -56 41 -396 -274z m-13 -520 c107 -50 196 -91 198 -92 2 -2 -27
-52 -64 -112 l-68 -109 -121 57 c-121 57 -228 110 -234 115 -6 6 81 236 89
233 3 -2 94 -43 200 -92z m-258 -517 c78 -39 144 -73 146 -75 2 -2 -14 -31
-36 -66 -22 -35 -52 -82 -66 -105 l-27 -42 -117 55 c-65 31 -121 59 -126 63
-6 6 72 241 80 241 2 0 67 -32 146 -71z m-248 -521 c47 -23 85 -46 85 -50 0
-6 -93 -162 -105 -176 -2 -3 -143 64 -152 72 -6 5 70 196 78 196 5 0 47 -19
94 -42z"/>
</g>
</svg>
