<?xml version="1.0" encoding="UTF-8"?>
<svg xmlns="http://www.w3.org/2000/svg" xmlns:xlink="http://www.w3.org/1999/xlink" width="486px" height="505px" viewBox="0 0 486 505" version="1.1">
  <defs/>
  <g fill="#000000" id="layer1">
    <path d="M440.608,237.898 C440.601,267.523 440.58,388.212 440.577,405.486 C440.577,407.703 440.214,409.496 439.448,410.8 C438.76,411.979 438.615,412.658 436.397,415.684 C435.646,416.71 434.805,432.128 433.873,433.33 C412.163,461.267 379.27,504.268 240.112,504.268 C105.531,504.268 64.516,461.436 43.394,432.99 C42.44,431.706 41.58,419.507 40.811,418.406 C38.275,414.765 36.748,412.184 36.162,411.042 C35.529,409.806 35,406.92 35,404.552 C34.999,386.975 34.996,283.938 35.026,245.262 C35.034,229.347 71.072,181.262 231.87,181.262 C392.668,181.262 440.615,222.847 440.608,237.898 Z M47.809,264.473 C59.86,274.631 111.907,318.594 235.346,318.594 C354.518,318.594 409.594,277.59 426.401,263.603 C427.311,262.845 428.413,262.479 428.912,262.878 C429.494,263.346 429.394,264.666 429.394,264.666 L429.394,399.597 C429.394,399.597 429.431,401.541 429.152,403.355 C428.923,404.848 428.423,406.193 428.001,406.795 C417.798,421.367 389.359,475.666 239.116,475.666 C90.995,475.666 58.258,422.007 48.001,405.313 C46.175,402.34 46.513,398.944 46.374,397.302 L46.374,264.849 C46.373,264.849 46.858,263.672 47.809,264.473 Z M50.686,238.127 C38.745,257.103 123.44,300.953 235.346,300.953 C347.933,300.953 432.305,251.442 425.818,235.927 C419.334,220.422 342,193.755 238,193.755 C134,193.755 62.667,219.088 50.686,238.127 Z" id="Shape"/>
    <polygon id="Shape" points="68.634 0.777 0.709 109.077 332.667 128.333 412.534 0.777"/>
    <polygon id="Shape" points="357.75 94.25 473.334 98.152 414.909 0.777"/>
    <path d="M383.333,239.261 C398.666,250.594 325.908,287.928 235.333,287.928 C144.758,287.928 73.332,252.595 92.666,239.261 C112,225.927 144.758,207.928 235.333,207.928 C325.908,207.927 368,227.927 383.333,239.261 Z" id="Shape"/>
    <path d="M81.5,245.427 C81.5,245.427 76.749,246.927 71.75,246.927 C66.751,246.927 62.5,245.427 62.5,245.427 L62.5,117 L81.5,117.917 L81.5,245.427 Z" id="Shape"/>
    <path d="M413.749,244.927 C413.749,244.927 409.334,246.094 404.667,246.094 C400,246.094 394.749,244.927 394.749,244.927 L394.749,99.917 L413.749,100.5 L413.749,244.927 Z" id="Shape"/>
    <path d="M428.666,464.25 C428.666,464.25 436.642,430.26 451.249,417.918 C452.417,416.932 453.633,416.139 454.916,415.25 C472.249,403.25 485.582,421.917 485.582,421.917 C485.582,421.917 465.916,406.751 455.583,428.584 C453.836,432.273 451.89,439.311 451,446.25 C449.829,455.378 450,464.25 450,464.25 L428.666,464.25 L428.666,464.25 Z" id="Shape"/>
    <path d="M438.501,432.333 C438.501,432.333 438.945,424.567 440.166,418.292 C440.606,416.033 443.53,412.321 444.166,409.792 C444.521,408.382 444.271,406.836 444.666,405.417 C447.163,396.434 451.242,393.63 454.833,391.835 C462.833,387.835 477.833,388.334 477.833,388.334 C477.833,388.334 462.5,390.834 458.5,400.167 C454.5,409.5 454.001,413.333 454.001,413.333 C454.001,413.333 451.167,414.999 446.667,419.833 C442.167,424.667 438.501,432.333 438.501,432.333 Z" id="Shape"/>
    <path d="M451.707,464.25 C451.707,464.25 455.833,442.166 459.333,433.5 C462.833,424.834 465.062,419.834 465.062,419.834 C465.062,419.834 465.729,419.438 466.562,419.188 C467.395,418.938 467.875,418.875 467.875,418.875 C467.875,418.875 465.375,424.506 462.333,439.667 C459.291,454.828 459.334,464.25 459.334,464.25 L451.707,464.25 Z" id="Shape"/>
    <path d="M469.229,410.073 C469.229,410.073 469.104,410.24 471.229,407.365 C473.354,404.49 474.917,404.417 474.917,404.417 C474.917,404.417 473.792,405.542 472.917,406.792 C472.042,408.042 471,410.375 471,410.375 L469.229,410.073 Z" id="Shape"/>
    <path d="M301.098,433.12 C305.525,434.599 315.5,431.68 329.898,428.802 C344.298,425.92 356.15,423.741 356.15,415.099 C356.15,411.205 354.824,401.941 356.15,397.82 C357.764,392.799 362.088,393.615 362.088,398.361 C362.088,407 359.076,420.177 373.775,412.099 C383.949,406.507 387.5,405.5 397.25,399 C407,392.5 417.135,380.627 417.135,386.388 C417.135,392.147 411.5,396 404.5,401 C397.5,406 387.5,410.079 387.5,415.839 C387.5,415.839 387.097,434.447 387.5,436 C387.903,437.551 382.526,438.679 381.739,437.441 C380.95,436.202 381.557,420.338 378.856,418.72 C376.156,417.098 370.215,423.038 357.256,427.36 C344.297,431.679 339.977,433.12 339.977,433.12 C339.977,433.12 337.278,434.381 337.097,443.2 C336.864,454.72 337.526,457.667 337.097,458.25 C336.668,458.836 332.955,460.951 331.337,459.691 C329.715,458.428 331.876,440.86 329.176,438.16 C326.477,435.459 305.418,441.759 295.338,443.2 C289.215,444.075 291.754,426.175 295.399,422.973 C297.755,420.903 296.671,431.642 301.098,433.12 Z" id="Shape"/>
  </g>
</svg>
