<?xml version="1.0" encoding="utf-8"?>
<!DOCTYPE svg PUBLIC "-//W3C//DTD SVG 1.1//EN" "http://www.w3.org/Graphics/SVG/1.1/DTD/svg11.dtd">
<svg version="1.1" xmlns="http://www.w3.org/2000/svg" xmlns:xlink="http://www.w3.org/1999/xlink" x="0px" y="0px"
	 width="566.929px" height="566.93px" viewBox="0 0 566.929 566.93" enable-background="new 0 0 566.929 566.93"
	 xml:space="preserve">
<g id="Image">
	<path fill-rule="evenodd" clip-rule="evenodd" fill="#3C3C3B" d="M487.608,272.898c-0.007,29.625-0.028,150.314-0.031,167.588
		c0,2.217-0.363,4.01-1.129,5.314c-0.688,1.179-0.833,1.858-3.051,4.884c-0.751,1.026-1.592,16.444-2.524,17.646
		c-21.71,27.937-54.603,70.938-193.761,70.938c-134.581,0-175.596-42.832-196.718-71.278c-0.954-1.284-1.814-13.483-2.583-14.584
		c-2.536-3.641-4.063-6.222-4.649-7.364c-0.633-1.236-1.162-4.122-1.162-6.49c-0.001-17.577-0.004-120.614,0.026-159.29
		c0.008-15.915,36.046-64,196.844-64S487.615,257.847,487.608,272.898z M94.809,299.473c12.051,10.158,64.098,54.121,187.537,54.121
		c119.172,0,174.248-41.004,191.055-54.991c0.91-0.758,2.012-1.124,2.511-0.725c0.582,0.468,0.482,1.788,0.482,1.788v134.931
		c0,0,0.037,1.944-0.242,3.758c-0.229,1.493-0.729,2.838-1.151,3.44c-10.203,14.572-38.642,68.871-188.885,68.871
		c-148.121,0-180.858-53.659-191.115-70.353c-1.826-2.973-1.488-6.369-1.627-8.011V299.849
		C93.373,299.849,93.858,298.672,94.809,299.473z M97.686,273.127c-11.941,18.976,72.754,62.826,184.66,62.826
		c112.587,0,196.959-49.511,190.472-65.026C466.334,255.422,389,228.755,285,228.755S109.667,254.088,97.686,273.127z"/>
	<polygon fill-rule="evenodd" clip-rule="evenodd" fill="#3C3C3B" points="115.634,35.777 47.709,144.077 379.667,163.333 
		459.534,35.777 	"/>
	<polygon fill-rule="evenodd" clip-rule="evenodd" fill="#3C3C3B" points="404.75,129.25 520.334,133.152 461.909,35.777 	"/>
	<path fill-rule="evenodd" clip-rule="evenodd" fill="#3C3C3B" d="M430.333,274.261c15.333,11.333-57.425,48.667-148,48.667
		c-90.575,0-162.001-35.333-142.667-48.667s52.092-31.333,142.667-31.333C372.908,242.927,415,262.927,430.333,274.261z"/>
	<path fill-rule="evenodd" clip-rule="evenodd" fill="#3C3C3B" d="M128.5,280.427c0,0-4.751,1.5-9.75,1.5s-9.25-1.5-9.25-1.5V152
		l19,0.917V280.427z"/>
	<path fill-rule="evenodd" clip-rule="evenodd" fill="#3C3C3B" d="M460.749,279.927c0,0-4.415,1.167-9.082,1.167
		s-9.918-1.167-9.918-1.167V134.917l19,0.583V279.927z"/>
	<path fill-rule="evenodd" clip-rule="evenodd" fill="#3C3C3B" d="M475.666,499.25c0,0,7.976-33.99,22.583-46.332
		c1.168-0.986,2.384-1.779,3.667-2.668c17.333-12,30.666,6.667,30.666,6.667s-19.666-15.166-29.999,6.667
		c-1.747,3.689-3.693,10.727-4.583,17.666c-1.171,9.128-1,18-1,18H475.666z"/>
	<path fill-rule="evenodd" clip-rule="evenodd" fill="#3C3C3B" d="M485.501,467.333c0,0,0.444-7.766,1.665-14.041
		c0.44-2.259,3.364-5.971,4-8.5c0.355-1.41,0.105-2.956,0.5-4.375c2.497-8.983,6.576-11.787,10.167-13.582c8-4,23-3.501,23-3.501
		s-15.333,2.5-19.333,11.833s-4.499,13.166-4.499,13.166s-2.834,1.666-7.334,6.5S485.501,467.333,485.501,467.333z"/>
	<path fill-rule="evenodd" clip-rule="evenodd" fill="#3C3C3B" d="M498.707,499.25c0,0,4.126-22.084,7.626-30.75
		s5.729-13.666,5.729-13.666s0.667-0.396,1.5-0.646s1.313-0.313,1.313-0.313s-2.5,5.631-5.542,20.792s-2.999,24.583-2.999,24.583
		H498.707z"/>
	<path fill-rule="evenodd" clip-rule="evenodd" fill="#3C3C3B" d="M516.229,445.073c0,0-0.125,0.167,2-2.708
		s3.688-2.948,3.688-2.948s-1.125,1.125-2,2.375S518,445.375,518,445.375L516.229,445.073z"/>
	<path fill-rule="evenodd" clip-rule="evenodd" fill="#3C3C3B" d="M348.098,468.12c4.427,1.479,14.402-1.44,28.8-4.318
		c14.4-2.882,26.252-5.061,26.252-13.703c0-3.894-1.326-13.158,0-17.279c1.614-5.021,5.938-4.205,5.938,0.541
		c0,8.639-3.012,21.816,11.687,13.738C430.949,441.507,434.5,440.5,444.25,434s19.885-18.373,19.885-12.612
		c0,5.759-5.635,9.612-12.635,14.612s-17,9.079-17,14.839c0,0-0.403,18.608,0,20.161c0.403,1.551-4.974,2.679-5.761,1.441
		c-0.789-1.239-0.182-17.103-2.883-18.721c-2.7-1.622-8.641,4.318-21.6,8.64c-12.959,4.319-17.279,5.76-17.279,5.76
		s-2.699,1.261-2.88,10.08c-0.233,11.52,0.429,14.467,0,15.05c-0.429,0.586-4.142,2.701-5.76,1.441
		c-1.622-1.263,0.539-18.831-2.161-21.531c-2.699-2.701-23.758,3.599-33.838,5.04c-6.123,0.875-3.584-17.025,0.061-20.227
		C344.755,455.903,343.671,466.642,348.098,468.12z"/>
</g>
</svg>
