<?xml version="1.0" encoding="UTF-8" standalone="no"?>
<svg
   version="1.1"
   id="Layer_1"
   x="0px"
   y="0px"
   viewBox="0 0 122.88 122.87"
   style="enable-background:new 0 0 122.88 122.87"
   xml:space="preserve"
   fill="#000000"
   xmlns="http://www.w3.org/2000/svg"
   xmlns:svg="http://www.w3.org/2000/svg">
   <g>
    <path d="M23.04,53.31c-0.78,0.67-1.76,0.96-2.7,0.88c-0.91-0.07-1.8-0.48-2.46-1.21c-0.06-0.06-0.11-0.12-0.16-0.19 c-0.61-0.76-0.87-1.69-0.8-2.59c0.07-0.91,0.48-1.8,1.21-2.46c0.05-0.05,0.11-0.1,0.17-0.15c6.55-5.6,13.53-9.85,20.76-12.68 c7.31-2.87,14.86-4.3,22.48-4.23c6.18,0.05,12.37,1.09,18.48,3.15l-5.96,5.97c-4.18-1.09-8.39-1.65-12.57-1.69 c-6.67-0.06-13.33,1.22-19.79,3.77C35.2,44.42,28.94,48.25,23.04,53.31L23.04,53.31z M67.48,0.28c-0.96-0.09-1.95-0.16-2.97-0.21 C63.54,0.02,62.52,0,61.44,0c-1.08,0-2.1,0.02-3.06,0.07c-1.02,0.05-2.01,0.12-2.97,0.21c-0.95,0.09-1.93,0.21-2.95,0.36 c-1,0.15-2.01,0.32-3.02,0.52c-0.96,0.19-1.93,0.41-2.89,0.65c-1,0.25-1.96,0.52-2.88,0.8c-1.01,0.31-1.97,0.62-2.89,0.95 c-0.96,0.34-1.88,0.69-2.76,1.06l-0.14,0.06c-0.93,0.39-1.85,0.79-2.73,1.21c-0.92,0.43-1.8,0.88-2.64,1.33 c-0.87,0.46-1.74,0.96-2.62,1.49c-0.87,0.52-1.73,1.07-2.56,1.62c-0.8,0.53-1.6,1.1-2.41,1.7c-0.78,0.58-1.58,1.2-2.4,1.87 c-0.8,0.65-1.57,1.31-2.3,1.97c-0.75,0.68-1.47,1.36-2.15,2.04L18,17.98c-0.73,0.73-1.44,1.48-2.13,2.23 c-0.66,0.73-1.31,1.48-1.93,2.24c-0.63,0.77-1.25,1.56-1.86,2.38c-0.6,0.81-1.18,1.64-1.74,2.48c-0.56,0.83-1.1,1.69-1.62,2.56 c-0.52,0.87-1.02,1.75-1.48,2.61c-0.46,0.86-0.91,1.76-1.35,2.69c-0.43,0.91-0.84,1.83-1.22,2.74l-0.01,0.03 c-0.4,0.97-0.77,1.91-1.1,2.84c-0.34,0.94-0.65,1.89-0.94,2.83c-0.28,0.91-0.54,1.86-0.78,2.85c-0.24,0.96-0.46,1.95-0.66,2.97 c-0.2,1-0.38,2.01-0.52,3.01c-0.15,0.99-0.27,1.95-0.36,2.87L0.28,55.4c-0.09,0.96-0.17,1.95-0.21,2.97C0.02,59.33,0,60.35,0,61.43 c0,1.08,0.02,2.1,0.07,3.06c0.05,1.02,0.12,2,0.21,2.96c0.09,0.96,0.22,1.95,0.37,2.97c0.15,1,0.32,2,0.52,3 c0.2,1.02,0.42,2.01,0.66,2.97c0.25,0.99,0.51,1.94,0.79,2.85c0.28,0.92,0.59,1.87,0.95,2.85c0.33,0.93,0.69,1.87,1.09,2.83 c0.77,1.87,1.63,3.69,2.58,5.46c0.95,1.78,1.98,3.5,3.1,5.17c1.11,1.67,2.31,3.28,3.59,4.83c1.28,1.56,2.64,3.06,4.08,4.49 l0.62,0.63c0.53,0.51,1.05,1.01,1.58,1.48c0.71,0.64,1.47,1.3,2.28,1.96c0.77,0.63,1.56,1.25,2.38,1.86 c0.81,0.6,1.64,1.18,2.47,1.74c0.84,0.56,1.69,1.1,2.57,1.63c0.88,0.53,1.75,1.02,2.62,1.49c0.86,0.46,1.76,0.91,2.69,1.35 c0.71,0.34,1.43,0.66,2.15,0.96l0.62,0.26c0.97,0.4,1.92,0.77,2.85,1.1c0.9,0.32,1.84,0.63,2.82,0.93 c0.91,0.28,1.86,0.54,2.86,0.79c0.96,0.24,1.94,0.46,2.96,0.66c1,0.2,2,0.37,3,0.52c1.02,0.15,2,0.27,2.94,0.37 c0.96,0.09,1.95,0.17,2.97,0.21c0.97,0.05,2,0.07,3.08,0.07c1.08,0,2.11-0.02,3.07-0.07c1.02-0.05,2.01-0.12,2.97-0.21 c0.95-0.09,1.93-0.22,2.95-0.37c1-0.15,2-0.32,3-0.52c1.01-0.2,1.99-0.42,2.95-0.66c0.76-0.19,1.5-0.39,2.21-0.59v-0.01l0.63-0.19 c0.96-0.29,1.92-0.61,2.89-0.95c0.95-0.34,1.86-0.69,2.74-1.05l0.98-0.43l0.01,0.01c0.64-0.28,1.28-0.57,1.9-0.86 c0.91-0.43,1.8-0.88,2.65-1.33c0.87-0.46,1.74-0.96,2.61-1.48c0.87-0.52,1.73-1.07,2.57-1.63c0.84-0.56,1.67-1.14,2.48-1.75 c0.82-0.6,1.61-1.22,2.38-1.85c0.78-0.64,1.54-1.3,2.28-1.97c0.73-0.66,1.46-1.36,2.19-2.09s1.43-1.46,2.09-2.19 c0.64-0.71,1.29-1.47,1.96-2.28c0.63-0.77,1.25-1.56,1.86-2.38c0.6-0.82,1.19-1.65,1.75-2.49c0.56-0.84,1.1-1.69,1.63-2.57 c0.53-0.88,1.02-1.75,1.49-2.62c0.46-0.86,0.91-1.76,1.35-2.68c0.43-0.91,0.84-1.83,1.21-2.74l0.01-0.03 c0.4-0.97,0.77-1.92,1.1-2.84c0.34-0.94,0.65-1.89,0.94-2.83c0.28-0.91,0.54-1.86,0.79-2.85c0.24-0.96,0.46-1.95,0.66-2.96 c0.2-1,0.38-2.01,0.52-3.01c0.15-0.99,0.27-1.95,0.36-2.87l0.01-0.08c0.09-0.96,0.17-1.95,0.21-2.97c0.05-0.96,0.07-1.99,0.07-3.07 c0-1.08-0.02-2.1-0.07-3.06c-0.05-1.02-0.12-2.01-0.21-2.97l-0.01-0.08c-0.09-0.92-0.21-1.88-0.36-2.88 c-0.15-1-0.32-2.01-0.52-3.01c-0.2-1.02-0.42-2.01-0.66-2.96c-0.25-1-0.51-1.95-0.79-2.86c-0.29-0.95-0.61-1.9-0.94-2.85 c-0.34-0.94-0.7-1.89-1.09-2.83c-0.38-0.92-0.79-1.84-1.22-2.76c-0.44-0.93-0.89-1.83-1.35-2.69c-0.46-0.87-0.96-1.74-1.48-2.62 c-0.52-0.87-1.06-1.72-1.62-2.56c-0.56-0.84-1.15-1.67-1.75-2.49c-0.61-0.82-1.22-1.61-1.85-2.38c-0.6-0.74-1.25-1.49-1.94-2.24 c-0.66-0.73-1.37-1.47-2.12-2.21c-0.74-0.74-1.47-1.44-2.21-2.11c-0.74-0.67-1.5-1.33-2.29-1.97c-0.76-0.63-1.56-1.24-2.37-1.85 c-0.81-0.6-1.63-1.18-2.46-1.74c-0.83-0.56-1.69-1.1-2.56-1.62c-0.88-0.52-1.75-1.02-2.62-1.48c-0.86-0.46-1.75-0.91-2.68-1.35 c-0.9-0.43-1.8-0.82-2.7-1.2l-0.08-0.03c-0.97-0.4-1.91-0.77-2.84-1.1c-0.94-0.34-1.88-0.65-2.82-0.93 c-0.91-0.28-1.86-0.54-2.86-0.79c-0.96-0.24-1.95-0.46-2.96-0.66c-1-0.2-2.01-0.37-3-0.52C69.41,0.5,68.43,0.38,67.48,0.28 L67.48,0.28z M31.83,100.1l71.61-71.61L106,32.4c0.2,0.31,0.44,0.68,0.71,1.12l0.24,0.39l0.01-0.01l0.47,0.81 c0.2,0.34,0.41,0.71,0.64,1.14c0.23,0.43,0.46,0.85,0.67,1.25c0.29,0.56,0.57,1.12,0.83,1.68c0.27,0.58,0.52,1.12,0.74,1.64 c0.21,0.49,0.44,1.04,0.67,1.66c0.22,0.57,0.44,1.16,0.65,1.76c0.25,0.7,0.47,1.4,0.68,2.09c0.2,0.67,0.4,1.39,0.6,2.17 c0.2,0.78,0.37,1.51,0.52,2.2c0.15,0.72,0.29,1.45,0.42,2.17c0.13,0.77,0.24,1.51,0.33,2.24c0.09,0.73,0.17,1.46,0.23,2.2 c0.06,0.71,0.11,1.47,0.14,2.26c0.03,0.79,0.05,1.54,0.05,2.24c0,0.81-0.02,1.67-0.07,2.58c-0.04,0.87-0.11,1.75-0.2,2.65 c-0.09,0.92-0.2,1.79-0.31,2.62c-0.13,0.87-0.27,1.71-0.43,2.53c-0.16,0.83-0.35,1.67-0.56,2.51c-0.14,0.56-0.29,1.11-0.45,1.66 l0.02,0l-0.27,0.88c-0.23,0.77-0.51,1.59-0.81,2.44c-0.3,0.84-0.62,1.65-0.94,2.44c-0.33,0.79-0.68,1.59-1.05,2.37 c-0.36,0.76-0.76,1.54-1.17,2.32c-0.42,0.79-0.85,1.55-1.29,2.28c-0.45,0.74-0.91,1.48-1.4,2.2c-0.48,0.72-0.98,1.43-1.5,2.12 c-0.52,0.69-1.05,1.38-1.62,2.06c-0.57,0.69-1.15,1.37-1.75,2.03c-0.62,0.69-1.21,1.31-1.77,1.87c-1.17,1.17-2.48,2.35-3.9,3.52 c-0.68,0.56-1.37,1.1-2.06,1.61c-0.69,0.51-1.4,1.02-2.13,1.5c-0.72,0.48-1.45,0.94-2.18,1.39c-0.73,0.44-1.49,0.87-2.28,1.29 c-0.8,0.43-1.59,0.83-2.36,1.19c-0.79,0.37-1.57,0.72-2.36,1.05l-0.03,0.01c-0.81,0.33-1.63,0.65-2.45,0.95 c-0.85,0.31-1.66,0.58-2.42,0.81c-0.8,0.24-1.63,0.47-2.5,0.69c-0.84,0.21-1.69,0.4-2.55,0.57c-0.82,0.16-1.67,0.31-2.54,0.43 c-0.83,0.12-1.71,0.23-2.62,0.32c-0.9,0.09-1.79,0.15-2.65,0.2c-0.9,0.04-1.75,0.07-2.56,0.07c-0.7,0-1.44-0.02-2.23-0.05 s-1.54-0.08-2.26-0.14c-0.69-0.06-1.42-0.13-2.2-0.23c-0.77-0.1-1.51-0.21-2.23-0.33c-0.72-0.12-1.45-0.26-2.17-0.41 c-0.69-0.15-1.43-0.32-2.21-0.52c-0.78-0.2-1.5-0.4-2.16-0.6c-0.68-0.2-1.38-0.43-2.1-0.69c-0.6-0.21-1.18-0.42-1.75-0.64 c-0.61-0.24-1.17-0.46-1.66-0.67c-0.52-0.22-1.06-0.47-1.64-0.74c-0.56-0.26-1.12-0.54-1.69-0.83c-0.38-0.2-0.78-0.41-1.21-0.64 c-0.42-0.23-0.82-0.45-1.18-0.67c-0.45-0.26-0.85-0.5-1.2-0.72c-0.41-0.26-0.79-0.49-1.12-0.71l-3.92-2.56L31.83,100.1L31.83,100.1 z M94.84,25.41l-72.4,72.4l-2.65-3.34c-0.34-0.42-0.68-0.88-1.04-1.36c-0.34-0.46-0.68-0.94-1.03-1.43 c-0.34-0.49-0.66-0.96-0.96-1.43l-0.48-0.76l-0.01,0l-0.42-0.7c-0.37-0.61-0.73-1.24-1.08-1.87c-0.35-0.64-0.68-1.27-1-1.9 L13.79,85c-0.3-0.6-0.6-1.24-0.89-1.9c-0.29-0.64-0.57-1.31-0.84-1.99c-0.3-0.74-0.59-1.51-0.87-2.33 c-0.27-0.76-0.52-1.57-0.77-2.43c-0.23-0.8-0.45-1.62-0.65-2.45c-0.2-0.83-0.38-1.65-0.53-2.46c-0.15-0.81-0.29-1.64-0.41-2.47 c-0.11-0.8-0.21-1.64-0.29-2.52c-0.08-0.88-0.15-1.74-0.19-2.58c-0.04-0.87-0.06-1.7-0.06-2.47c0-0.81,0.02-1.67,0.07-2.57 c0.04-0.87,0.11-1.75,0.2-2.66c0.09-0.92,0.2-1.8,0.32-2.63c0.13-0.87,0.27-1.71,0.43-2.53c0.17-0.85,0.36-1.7,0.57-2.55 c0.22-0.87,0.45-1.7,0.69-2.5l0.19-0.63h0.02c0.2-0.64,0.41-1.26,0.62-1.85c0.28-0.79,0.59-1.59,0.93-2.41 c0.34-0.81,0.69-1.61,1.05-2.38c0.36-0.77,0.76-1.55,1.18-2.34c0.42-0.79,0.85-1.55,1.29-2.28c0.45-0.74,0.91-1.48,1.4-2.2 c0.48-0.72,0.98-1.43,1.5-2.12c0.51-0.69,1.05-1.38,1.62-2.07c0.55-0.67,1.12-1.34,1.72-1.99c0.51-0.57,1.03-1.11,1.54-1.63v-0.02 l0.26-0.26c0.56-0.56,1.18-1.15,1.87-1.77c0.65-0.59,1.33-1.17,2.02-1.74c0.68-0.56,1.38-1.1,2.07-1.62 c0.69-0.51,1.4-1.02,2.13-1.5c0.75-0.5,1.48-0.97,2.2-1.4c0.72-0.44,1.47-0.86,2.23-1.27c0.76-0.41,1.53-0.8,2.31-1.17 c0.53-0.25,1.06-0.49,1.59-0.72l0.84-0.35c0.79-0.33,1.59-0.64,2.4-0.93c0.77-0.28,1.6-0.55,2.5-0.82 c0.88-0.27,1.73-0.51,2.54-0.71c0.84-0.21,1.67-0.4,2.5-0.56c0.82-0.16,1.67-0.31,2.53-0.43c0.83-0.12,1.71-0.23,2.63-0.32 c0.9-0.09,1.79-0.15,2.65-0.2c0.9-0.05,1.76-0.07,2.56-0.07c0.78,0,1.61,0.02,2.49,0.06c0.83,0.04,1.69,0.1,2.58,0.19 c0.88,0.08,1.73,0.18,2.53,0.29c0.83,0.12,1.65,0.25,2.46,0.41c0.81,0.15,1.63,0.33,2.45,0.53c0.83,0.2,1.65,0.42,2.45,0.65 c0.84,0.24,1.63,0.5,2.39,0.76c0.75,0.26,1.54,0.55,2.36,0.88c0.68,0.27,1.35,0.56,2.02,0.85c0.71,0.32,1.34,0.61,1.9,0.89 c0.63,0.31,1.26,0.65,1.9,1c0.64,0.35,1.27,0.72,1.89,1.09c0.44,0.26,0.91,0.56,1.42,0.89c0.51,0.33,1,0.66,1.46,0.98 c0.49,0.34,0.96,0.68,1.42,1.02c0.44,0.33,0.9,0.68,1.35,1.04l3.34,2.65L94.84,25.41L94.84,25.41z M96.38,41.98 c2.82,1.89,5.6,4.03,8.32,6.41l0.11,0.1c0.71,0.67,1.1,1.55,1.15,2.45c0.06,0.95-0.24,1.92-0.91,2.69 c-0.04,0.04-0.06,0.07-0.1,0.11c-0.67,0.7-1.55,1.09-2.45,1.15c-0.95,0.06-1.92-0.24-2.69-0.91c-2.88-2.51-5.82-4.72-8.8-6.63 L96.38,41.98L96.38,41.98z M61.44,83.06c2.25,0,4.28,0.91,5.75,2.38c1.47,1.47,2.38,3.51,2.38,5.75c0,2.25-0.91,4.28-2.38,5.75 l-0.09,0.08c-1.46,1.42-3.46,2.3-5.66,2.3c-2.25,0-4.28-0.91-5.75-2.38l-0.08-0.09c-1.42-1.47-2.3-3.46-2.3-5.66 c0-2.24,0.91-4.27,2.39-5.75l0,0C57.16,83.97,59.19,83.06,61.44,83.06L61.44,83.06z M71.01,67.36l0.12,0.04 c3.09,1.19,6.12,2.98,9.05,5.37c0.8,0.65,1.26,1.56,1.35,2.5c0.1,0.94-0.17,1.93-0.81,2.72l-0.01,0.01 c-0.65,0.79-1.55,1.25-2.49,1.34c-0.94,0.1-1.93-0.17-2.72-0.81l-0.01,0c-2.28-1.86-4.6-3.24-6.93-4.16 c-1.18-0.46-2.36-0.81-3.53-1.03L71.01,67.36L71.01,67.36z M35.61,66.66c-0.06,0.06-0.12,0.12-0.19,0.16 c-0.75,0.61-1.66,0.88-2.56,0.82c-0.92-0.06-1.82-0.45-2.5-1.18l0,0c-0.06-0.06-0.12-0.13-0.16-0.19 c-0.61-0.75-0.88-1.66-0.82-2.56c0.06-0.92,0.45-1.82,1.18-2.5l0,0c0.05-0.05,0.11-0.1,0.17-0.14c4.91-4.33,9.97-7.6,15.14-9.78 c5.2-2.19,10.5-3.27,15.84-3.18c1.25,0.02,2.5,0.11,3.75,0.26l-7.31,7.31c-3.2,0.32-6.4,1.17-9.57,2.53 C44.19,60.08,39.85,62.91,35.61,66.66L35.61,66.66z M83.31,55.06c3.05,1.95,6.06,4.33,9.04,7.13c0.75,0.7,1.14,1.64,1.17,2.6 c0.03,0.95-0.3,1.91-1.01,2.65c-0.7,0.75-1.64,1.14-2.6,1.17c-0.95,0.03-1.91-0.3-2.66-1.01c-3.1-2.92-6.22-5.29-9.35-7.14 L83.31,55.06L83.31,55.06z" />
   </g>
</svg>
