<?xml version="1.0" encoding="UTF-8" standalone="no"?>
<svg
   version="1.1"
   id="Layer_1"
   x="0px"
   y="0px"
   viewBox="0 0 122.88 94.72"
   style="enable-background:new 0 0 122.88 94.72"
   xml:space="preserve"
   fill="#000000"
   xmlns="http://www.w3.org/2000/svg"
   xmlns:svg="http://www.w3.org/2000/svg">
   <g>
    <path d="M8.46,31.23c-1.08,0.92-2.42,1.32-3.72,1.22c-1.31-0.1-2.58-0.7-3.5-1.78l-0.02-0.03c-0.91-1.07-1.3-2.41-1.2-3.7 c0.1-1.31,0.7-2.58,1.78-3.5l0.01-0.01c9.06-7.77,18.73-13.65,28.73-17.58c10.08-3.96,20.5-5.93,31-5.84 c10.35,0.09,20.74,2.19,30.9,6.36c9.81,4.03,19.4,10,28.55,17.97c0.11,0.08,0.21,0.17,0.29,0.26c0.96,0.92,1.5,2.13,1.58,3.37 c0.08,1.24-0.29,2.51-1.12,3.55c-0.08,0.12-0.18,0.23-0.29,0.33c-0.92,0.96-2.13,1.5-3.37,1.58c-1.3,0.09-2.65-0.33-3.71-1.26 c-8.27-7.23-16.9-12.62-25.68-16.25c-8.99-3.72-18.14-5.58-27.23-5.66c-9.2-0.08-18.38,1.68-27.31,5.2 C25.25,18.97,16.6,24.25,8.46,31.23L8.46,31.23z M61.44,72.27c3.1,0,5.9,1.26,7.93,3.29c2.03,2.03,3.29,4.84,3.29,7.93 c0,3.1-1.26,5.9-3.29,7.93c-2.03,2.03-4.84,3.29-7.93,3.29c-3.1,0-5.9-1.26-7.94-3.29c-2.03-2.03-3.29-4.84-3.29-7.93 c0-3.09,1.26-5.9,3.29-7.93l0,0C55.54,73.53,58.34,72.27,61.44,72.27L61.44,72.27z M42.07,66.17c-1.1,0.89-2.46,1.26-3.76,1.12 c-1.24-0.13-2.44-0.71-3.32-1.71c-0.1-0.1-0.19-0.21-0.26-0.32c-0.8-1.07-1.12-2.35-0.99-3.59c0.13-1.24,0.71-2.44,1.71-3.32 c0.09-0.09,0.19-0.17,0.29-0.24c4-3.23,8.18-5.7,12.47-7.37c4.35-1.7,8.82-2.57,13.33-2.58c4.45-0.01,8.89,0.81,13.27,2.5 c4.25,1.64,8.44,4.11,12.48,7.41c1.1,0.89,1.73,2.15,1.87,3.45c0.13,1.3-0.23,2.66-1.12,3.76l-0.01,0.01 c-0.89,1.09-2.14,1.72-3.45,1.86c-1.3,0.13-2.66-0.23-3.76-1.12l0,0c-3.14-2.57-6.35-4.47-9.56-5.73c-3.25-1.28-6.5-1.9-9.72-1.89 c-3.25,0.01-6.52,0.67-9.77,1.96C48.46,61.67,45.21,63.62,42.07,66.17L42.07,66.17z M25.81,49.65c-0.08,0.08-0.17,0.16-0.26,0.22 c-1.03,0.84-2.3,1.21-3.53,1.14c-1.27-0.08-2.51-0.63-3.44-1.63c-0.09-0.08-0.16-0.17-0.23-0.26c-0.84-1.03-1.21-2.3-1.14-3.53 c0.08-1.31,0.66-2.59,1.72-3.53c6.81-6.03,13.85-10.59,21.01-13.61c7.18-3.02,14.49-4.51,21.85-4.38c7.27,0.12,14.53,1.8,21.69,5.1 c6.97,3.21,13.86,7.96,20.59,14.3l0.13,0.12c0.95,0.95,1.44,2.2,1.48,3.46c0.04,1.31-0.42,2.63-1.39,3.66l-0.12,0.13 c-0.96,0.95-2.2,1.45-3.46,1.49c-1.31,0.04-2.63-0.42-3.66-1.39c-5.83-5.5-11.73-9.59-17.62-12.35c-5.95-2.78-11.9-4.19-17.8-4.29 c-5.99-0.1-12,1.15-17.96,3.69C37.64,40.58,31.66,44.48,25.81,49.65L25.81,49.65z" />
   </g>
</svg>
