<?xml version="1.0" encoding="UTF-8" standalone="no"?>
<svg
   xmlns:dc="http://purl.org/dc/elements/1.1/"
   xmlns:cc="http://creativecommons.org/ns#"
   xmlns:rdf="http://www.w3.org/1999/02/22-rdf-syntax-ns#"
   xmlns:svg="http://www.w3.org/2000/svg"
   xmlns="http://www.w3.org/2000/svg"
   xmlns:sodipodi="http://sodipodi.sourceforge.net/DTD/sodipodi-0.dtd"
   xmlns:inkscape="http://www.inkscape.org/namespaces/inkscape"
   viewBox="0 0 470.5899 521.5473"
   id="svg3386"
   version="1.1"
   inkscape:version="0.91 r13725"
   sodipodi:docname="wuerfel.svg"
   width="470.5899"
   height="521.5473">
  <metadata
     id="metadata3396">
    <rdf:RDF>
      <cc:Work
         rdf:about="">
        <dc:format>image/svg+xml</dc:format>
        <dc:type
           rdf:resource="http://purl.org/dc/dcmitype/StillImage" />
        <dc:title></dc:title>
      </cc:Work>
    </rdf:RDF>
  </metadata>
  <defs
     id="defs3394" />
  <sodipodi:namedview
     pagecolor="#ffffff"
     bordercolor="#666666"
     borderopacity="1"
     objecttolerance="10"
     gridtolerance="10"
     guidetolerance="10"
     inkscape:pageopacity="0"
     inkscape:pageshadow="2"
     inkscape:window-width="1680"
     inkscape:window-height="1001"
     id="namedview3392"
     showgrid="false"
     inkscape:zoom="0.98375"
     inkscape:cx="252.82877"
     inkscape:cy="281.37343"
     inkscape:window-x="0"
     inkscape:window-y="25"
     inkscape:window-maximized="1"
     inkscape:current-layer="svg3386"
     fit-margin-top="0"
     fit-margin-left="0"
     fit-margin-right="0"
     fit-margin-bottom="0" />
  <path
     style="fill:#000000"
     inkscape:connector-curvature="0"
     id="path3390"
     d="m 221.23216,6.9436672 c -1.4191,0.2981655 -2.86334,1.0056098 -4.64433,2.1124264 L 16.97703,122.11644 c -1.685867,0.83428 -1.471014,1.29017 0.282551,2.09191 L 243.04581,231.59247 c 4.1822,2.08523 5.91553,2.06081 10.44427,-0.5925 L 449.54929,107.15902 c 4.47404,-2.94281 4.71165,-3.45946 -1.10404,-5.59852 L 229.15999,8.3716961 c -3.36617,-1.3608369 -5.57441,-1.9368 -7.93731,-1.4305128 z M 201.08425,31.074621 c 4.26093,-1.028803 8.8773,-1.613562 13.78769,-1.682322 19.63933,-0.27282 35.55959,8.044722 35.46532,18.523551 -0.0953,10.479082 -16.08978,19.180451 -35.72898,19.453836 -19.64027,0.273044 -35.53718,-7.948922 -35.44291,-18.427751 0.0699,-7.858099 9.13121,-14.809077 21.91901,-17.86674 z M 88.874795,96.054701 c 4.260933,-1.028802 8.974296,-1.63765 13.884135,-1.706274 19.63932,-0.27282 35.44021,7.970593 35.34405,18.449873 -0.094,10.47877 -16.06599,19.27793 -35.70541,19.55037 -19.640282,0.27304 -35.46284,-8.06735 -35.368568,-18.54618 0.06965,-7.85943 9.054969,-14.690213 21.844887,-17.747379 z M 274.1197,62.595462 c 4.26093,-1.028802 8.99727,-1.538996 13.90722,-1.607542 19.63933,-0.27282 35.44022,7.970605 35.34406,18.449882 -0.0939,10.478741 -16.08907,19.179272 -35.72849,19.451712 -19.63996,0.274369 -35.44021,-7.970595 -35.34594,-18.449433 0.0699,-7.858099 9.03257,-14.786001 21.82227,-17.844112 z M 6.4348573,137.63153 c -0.3671595,0.19125 -0.3507073,0.83272 -0.3227318,2.13072 l 8.2046375,253.00352 c 0.02406,2.64572 0.26831,3.24524 3.057438,4.72974 l 220.543219,115.2927 c 5.22362,3.08164 6.10814,2.81856 5.51976,-2.31856 L 239.59755,252.844 c 0.34012,-3.60121 -1.24405,-5.16932 -3.52081,-6.26625 L 8.6518511,138.3464 c -1.180944,-0.60103 -1.8532922,-0.90347 -2.2221369,-0.71316 z M 161.93729,130.34322 c 4.26223,-1.02921 8.9742,-1.63763 13.88444,-1.70495 19.63934,-0.27282 35.44022,7.97061 35.34595,18.44944 -0.0939,10.47874 -16.08906,19.17927 -35.72898,19.45383 -19.64028,0.27305 -35.44044,-7.97155 -35.34617,-18.45038 0.0713,-7.85841 9.05731,-14.68876 21.84489,-17.74737 z M 348.83075,95.164257 c 4.26093,-1.028803 8.97429,-1.63768 13.88413,-1.706275 19.63934,-0.272829 35.44022,7.970598 35.34595,18.449438 -0.0953,10.47905 -16.06693,19.27814 -35.70636,19.55058 -19.64027,0.27304 -35.46284,-8.06735 -35.36857,-18.54618 0.0696,-7.85952 9.05498,-14.690212 21.8449,-17.747378 z M 28.722308,179.37715 c 0.702973,-0.24034 1.499506,-0.39281 2.240702,-0.52403 8.90088,-1.59096 20.347057,4.42162 28.995114,16.33838 11.529168,15.88743 13.684026,36.24004 4.865339,45.40801 -8.818989,9.16754 -25.319641,3.74934 -36.848936,-12.13778 -11.5306,-15.8871 -13.68535,-36.23973 -4.865339,-45.40801 1.653255,-1.71932 3.503333,-2.95759 5.612779,-3.67589 z M 236.93494,164.18028 c 4.26083,-1.02879 8.97295,-1.63741 13.88318,-1.70606 19.64028,-0.27305 35.44022,7.9706 35.34595,18.44943 -0.0939,10.47874 -16.08883,19.18023 -35.72898,19.45384 -19.64029,0.27304 -35.44022,-7.9706 -35.34594,-18.44944 0.0709,-7.85983 9.05686,-14.69065 21.84584,-17.74759 z m 225.73725,-45.70276 c -0.38954,0.17963 -0.93169,0.45827 -1.54171,0.87365 L 259.80192,246.58224 c -4.03308,2.8804 -3.72432,3.59968 -3.67676,7.12703 l 3.75448,256.82526 c 0.6601,3.64 -0.28204,5.58667 3.50315,2.6742 L 460.40286,382.0555 c 3.72054,-2.98448 4.44075,-3.52405 3.95194,-7.70589 l -0.32674,-254.0256 c 0.0666,-1.80663 -0.18649,-2.38426 -1.35558,-1.84085 z m -26.28581,47.96652 c 6.19224,-1.34271 11.73511,0.52552 15.22504,5.78965 6.97913,10.52821 3.04672,30.91093 -8.87305,45.53885 -11.92053,14.6281 -27.25514,17.91724 -34.23492,7.38927 -6.98046,-10.5279 -3.04796,-30.91064 8.87138,-45.53745 5.96084,-7.31539 12.81726,-11.83744 19.01054,-13.1804 z M 175.75419,249.6933 c 8.95599,-1.85412 20.62629,4.24247 29.40802,16.34585 11.53049,15.88713 13.78257,36.21699 4.96265,45.38526 -8.81897,9.16763 -25.34238,3.65211 -36.87179,-12.23548 -11.52939,-15.88838 -13.6613,-36.14332 -4.84249,-45.31032 1.65326,-1.71932 3.50335,-2.95758 5.61389,-3.67755 0.57112,-0.19689 1.13353,-0.38321 1.73035,-0.50594 l -2.3e-4,-9.5e-4 z m -71.62285,46.54798 c 8.95599,-1.85409 20.62439,4.24293 29.40757,16.34396 11.52939,15.88839 13.78125,36.21731 4.96287,45.38621 -8.81898,9.16753 -25.34239,3.65201 -36.87177,-12.23548 -11.53073,-15.88808 -13.661537,-36.14426 -4.842938,-45.31222 1.653557,-1.71799 3.503648,-2.95626 5.612888,-3.67582 0.57111,-0.19678 1.13476,-0.38346 1.73169,-0.50622 l -2.3e-4,-9.4e-4 z m -70.521465,45.98331 c 0.702925,-0.24033 1.498786,-0.38994 2.240703,-0.52403 8.899457,-1.59066 20.271175,4.542 28.919096,16.45819 11.530601,15.88711 13.760043,36.12023 4.939808,45.28756 -8.818989,9.16754 -25.319612,3.74943 -36.848937,-12.13777 -11.529168,-15.88744 -13.684025,-36.24005 -4.865339,-45.40801 1.653256,-1.71933 3.503343,-2.9576 5.614221,-3.67614 z M 377.71593,286.40957 c 6.08275,-1.21588 11.59507,0.65391 15.02964,5.83535 6.98046,10.52791 2.95073,30.93338 -8.9698,45.56148 -11.91958,14.62788 -27.25419,17.91702 -34.23491,7.3893 -6.97922,-10.52819 -2.9494,-30.93368 8.97002,-45.56053 5.21611,-6.40034 11.06328,-10.65405 16.59664,-12.51322 0.89012,-0.29961 1.73984,-0.53763 2.60876,-0.71131 l -2.3e-4,-9.5e-4 z M 177.10099,415.83659 c 0.70299,-0.24032 1.49881,-0.38983 2.24071,-0.52402 8.90087,-1.59102 20.34706,4.42162 28.99467,16.33648 11.52939,15.88839 13.68438,36.24197 4.86557,45.40897 -8.81897,9.16763 -25.22191,3.72667 -36.7522,-12.16041 -11.5294,-15.88839 -13.78134,-36.21728 -4.96288,-45.3862 1.65357,-1.718 3.50508,-2.9566 5.61451,-3.6749 z m 135.59144,-4.99464 c 6.19315,-1.3444 11.7133,0.428 15.20225,5.69225 6.97901,10.52724 3.04783,30.90967 -8.87327,45.53789 -11.91936,14.62884 -27.23207,18.0159 -34.21186,7.4879 -6.97913,-10.52822 -3.04684,-30.9119 8.87305,-45.53885 5.95984,-7.31375 12.81757,-11.83611 19.00897,-13.17863 z" />
</svg>
