<?xml version="1.0" encoding="UTF-8" standalone="no"?>
<svg
   xmlns:dc="http://purl.org/dc/elements/1.1/"
   xmlns:cc="http://creativecommons.org/ns#"
   xmlns:rdf="http://www.w3.org/1999/02/22-rdf-syntax-ns#"
   xmlns:svg="http://www.w3.org/2000/svg"
   xmlns="http://www.w3.org/2000/svg"
   width="585"
   height="585"
   viewBox="0 0 154.78125 154.78125"
   version="1.1"
   id="svg8">
  <defs
     id="defs2">
    <clipPath
       clipPathUnits="userSpaceOnUse"
       id="clipPath178">
      <path
         style="fill:none;fill-rule:evenodd;stroke:#000000;stroke-width:0.26458332px;stroke-linecap:butt;stroke-linejoin:miter;stroke-opacity:1"
         d="m -34.744556,63.146511 10.95805,-0.200452 0.133635,24.722432 -11.024867,0.06682 z"
         id="path180" />
    </clipPath>
    <clipPath
       clipPathUnits="userSpaceOnUse"
       id="clipPath178-6">
      <path
         style="fill:none;fill-rule:evenodd;stroke:#000000;stroke-width:0.26458332px;stroke-linecap:butt;stroke-linejoin:miter;stroke-opacity:1"
         d="m -34.744556,63.146511 10.95805,-0.200452 0.133635,24.722432 -11.024867,0.06682 z"
         id="path180-7" />
    </clipPath>
  </defs>
  <metadata
     id="metadata5">
    <rdf:RDF>
      <cc:Work
         rdf:about="">
        <dc:format>image/svg+xml</dc:format>
        <dc:type
           rdf:resource="http://purl.org/dc/dcmitype/StillImage" />
        <dc:title></dc:title>
      </cc:Work>
    </rdf:RDF>
  </metadata>
  <g
     id="layer1"
     transform="matrix(0.93870541,0,0,0.93578894,162.19423,7.9131185)"
     style="display:inline">
    <path
       transform="matrix(4.5755583,0,0,4.5755583,42.925659,-265.62706)"
       id="use153"
       d="m -46.22465,102.32175 c -1.945656,-0.54139 -3.350154,-1.39396 -4.913874,-2.98286 -1.617989,-1.64405 -2.389109,-2.95348 -2.928547,-4.97292 -0.528372,-1.97799 -0.513336,-31.2248 0.01695,-32.97197 0.831609,-2.73996 2.516705,-5.01782 4.768401,-6.44578 2.793287,-1.77143 2.254577,-1.72495 19.990403,-1.72495 14.23758,0 16.192224,0.0494 17.349223,0.43844 3.6527708,1.22825 6.4358518,4.18724 7.4265308,7.89594 0.513249,1.9214 0.513249,30.88693 0,32.80832 -0.53944,2.01944 -1.310561,3.32887 -2.928551,4.97292 -1.602079,1.62789 -2.9870688,2.45177 -5.0461598,3.00181 -1.84826,0.49371 -31.952714,0.4768 -33.734377,-0.0189 z m 33.493857,-0.78011 c 2.56464,-0.68293 5.5212108,-3.06681 6.6697588,-5.3778 1.11334,-2.24015 1.0697295,-2.820714 0.9873015,-18.957974 L -5.2945738,61.893101 -5.7952422,60.30018 c -0.833009,-1.77751 -2.991728,-4.16448 -4.5579188,-5.03985 -2.437799,-1.36251 -2.617959,-1.3756 -18.938173,-1.3756 -16.320217,0 -16.500369,0.0131 -18.938177,1.3756 -1.566191,0.87537 -3.722971,3.091662 -4.368924,4.945356 l -0.571546,1.640168 -0.409799,15.454506 c -0.300851,11.34582 0.288382,15.866571 0.283135,16.739621 0.911184,3.44449 3.977327,6.562509 7.334469,7.489849 1.803303,0.49812 31.365649,0.50862 33.231366,0.0118 z M -29.772738,85.96546 c 0.0465,-0.32743 0.263141,-0.59531 0.481422,-0.59531 0.218282,0 0.434922,0.26788 0.481423,0.59531 0.06507,0.45818 -0.04583,0.59531 -0.481423,0.59531 -0.435594,0 -0.546494,-0.13713 -0.481422,-0.59531 z m -1.100805,-5.14552 c -2.263363,-1.17222 -2.816784,-4.14766 -1.092214,-5.87223 0.469412,-0.46941 0.530128,-0.96033 0.605879,-4.89871 0.07876,-4.09472 0.121636,-4.41443 0.6648,-4.95693 0.760586,-0.75966 2.046938,-0.75966 2.807525,0 0.543163,0.5425 0.586042,0.86221 0.6648,4.95693 0.07575,3.93838 0.136467,4.4293 0.605877,4.89871 2.833585,2.83359 -0.703146,7.71263 -4.256667,5.87223 z m 3.190775,-0.79599 c 1.158579,-0.68438 1.701027,-2.02483 1.325978,-3.27663 -0.165785,-0.55334 -0.59622,-1.23796 -0.956519,-1.52137 -0.594482,-0.46762 -0.65509,-0.70148 -0.65509,-2.52773 0,-1.98551 -0.0091,-2.01245 -0.680858,-2.01245 -0.868452,0 -0.791159,-0.88512 0.08825,-1.01059 0.80787,-0.11526 0.752776,-0.57691 -0.06885,-0.57691 -0.411576,0 -0.661459,-0.14993 -0.661459,-0.39687 0,-0.24695 0.249883,-0.39688 0.661459,-0.39688 0.411575,0 0.661458,-0.14993 0.661458,-0.39687 0,-0.24695 -0.249883,-0.39688 -0.661458,-0.39688 -0.411576,0 -0.661459,-0.14993 -0.661459,-0.39687 0,-0.24695 0.249883,-0.39688 0.661459,-0.39688 0.759304,0 0.873376,-0.54403 0.245684,-1.17172 -0.531027,-0.53103 -1.283258,-0.53103 -1.814285,0 -0.344448,0.34445 -0.415774,1.16626 -0.415774,4.79056 0,1.930615 -10e-4,3.010109 -0.05938,3.658672 -0.07282,0.809388 -0.234919,0.947628 -0.595709,1.231418 -0.360299,0.28341 -0.790734,0.96803 -0.956519,1.52137 -0.762983,2.5466 2.18255,4.67104 4.543072,3.27663 z m -3.101921,-0.96951 c -1.008321,-0.86733 -1.021348,-2.36505 -0.028,-3.21949 0.599321,-0.51551 0.712653,-0.84669 0.780521,-2.28082 0.07534,-1.59202 0.113189,-1.67773 0.740853,-1.67773 0.627667,0 0.665516,0.0857 0.740856,1.67773 0.06787,1.43413 0.1812,1.76531 0.78052,2.28082 1.483022,1.27564 0.46617,3.84666 -1.521376,3.84666 -0.422594,0 -1.090191,-0.28037 -1.493371,-0.62717 z"
       style="display:inline;fill:#000000;stroke-width:0.26458338"
       clip-path="url(#clipPath178-6)" />
    <g
       id="g261"
       transform="matrix(0.35277778,0,0,0.35277778,-173.21761,-8.4428025)">
      <g
         id="g6"
         transform="matrix(0.189474,0,0,-0.189474,0,468)"
         style="fill:#000000;stroke:none">
        <path
           id="path8"
           d="M 395,2455 C 244,2422 112,2322 57,2200 5,2083 6,2112 2,1260 0,702 2,446 10,400 43,208 198,52 398,11 c 71,-15 1628,-15 1692,0 174,40 322,190 365,370 22,94 22,1579 0,1683 -21,98 -66,187 -127,252 -61,64 -113,98 -201,128 -61,21 -75,21 -867,23 -640,1 -817,-1 -865,-12 z m 1737,-163 c 74,-36 132,-95 170,-170 l 23,-47 V 1235 395 l -28,-57 c -37,-76 -96,-134 -171,-169 l -63,-29 -839,2 -839,3 -50,27 C 273,204 196,285 167,348 l -22,47 v 840 840 l 27,52 c 53,100 128,162 227,189 35,10 236,12 856,11 l 810,-2 z" />
      </g>
    </g>
  </g>
</svg>
