<?xml version="1.0" standalone="no"?>
<!DOCTYPE svg PUBLIC "-//W3C//DTD SVG 20010904//EN"
 "http://www.w3.org/TR/2001/REC-SVG-20010904/DTD/svg10.dtd">
<svg version="1.0" xmlns="http://www.w3.org/2000/svg"
 width="468pt" height="464pt" viewBox="0 0 468 464"
 preserveAspectRatio="xMidYMid meet">
<metadata>
Created by potrace 1.8, written by Peter Selinger 2001-2007
</metadata>
<g transform="translate(0,464) scale(0.157576,-0.157576)"
fill="#000000" stroke="none">
<path d="M1963 2933 c-9 -3 -13 -36 -13 -114 l0 -109 -622 0 -623 0 -117 110
c-65 62 -125 110 -136 110 -22 0 -52 -30 -52 -51 0 -8 37 -49 82 -91 73 -69
80 -78 58 -78 -19 0 -42 18 -89 70 -34 39 -68 70 -75 70 -18 0 -46 -33 -46
-54 0 -10 12 -33 26 -52 l26 -34 -179 0 c-180 0 -208 -5 -196 -36 4 -11 31
-14 118 -14 l112 0 -4 -25 c-6 -27 17 -61 194 -297 57 -76 103 -140 103 -143
0 -3 -113 -5 -250 -5 -221 0 -251 -2 -257 -16 -3 -9 0 -20 8 -25 8 -5 133 -9
279 -9 l266 0 39 -41 c58 -59 250 -228 317 -278 32 -24 101 -67 155 -97 l98
-54 -580 -2 c-543 -3 -580 -4 -583 -20 -3 -17 32 -18 630 -18 l633 0 100 -29
c135 -39 264 -54 352 -41 104 15 116 13 167 -25 44 -34 46 -38 46 -85 0 -43 3
-50 20 -50 16 0 20 7 20 34 l0 34 53 -20 c66 -25 151 -27 197 -3 19 9 56 35
82 56 l47 39 3 -67 c3 -60 5 -68 23 -68 18 0 20 8 23 99 1 55 8 106 14 113 6
8 33 13 69 13 l59 0 0 -102 c0 -108 8 -135 34 -125 13 5 16 25 16 117 l0 110
175 0 c168 0 175 1 175 20 0 19 -7 20 -175 20 l-175 0 0 41 0 41 43 -5 c23 -2
56 -10 74 -18 29 -12 34 -11 52 6 41 36 19 72 -58 100 -24 8 -59 15 -77 15
l-34 0 0 115 c0 129 2 131 77 100 45 -19 68 -19 87 1 20 20 20 38 1 58 -14 14
-6 16 82 18 90 3 98 5 98 23 0 19 -8 20 -172 23 l-173 2 0 100 c0 113 2 115
70 80 51 -26 66 -25 85 4 13 20 14 29 5 46 -14 27 -84 59 -127 60 l-33 0 0 90
0 90 165 0 c143 0 166 2 172 16 11 28 -19 34 -179 34 l-158 0 0 109 c0 83 -3
110 -14 114 -28 11 -36 -17 -36 -120 l0 -103 -70 0 -70 0 0 103 c0 103 -8 131
-36 120 -11 -4 -14 -31 -14 -114 l0 -109 -190 0 -190 0 0 109 c0 109 -3 122
-27 114z m-1427 -400 c120 -140 213 -237 288 -301 l49 -42 -104 0 -104 1 -70
85 c-38 47 -118 152 -177 235 l-108 149 59 0 58 0 109 -127z m110 106 c34 -38
217 -181 309 -242 112 -74 224 -131 340 -173 l90 -33 -179 -1 -179 0 -56 42
c-77 57 -207 184 -305 298 -120 140 -115 130 -74 130 23 0 41 -7 54 -21z
m1304 -178 l0 -199 -44 16 c-39 14 -51 15 -93 3 -26 -8 -70 -20 -98 -28 -148
-41 -438 48 -695 215 -77 49 -250 180 -250 189 0 1 266 3 590 3 l590 0 0 -199z
m420 33 l0 -167 -70 -68 -70 -69 -77 0 c-55 0 -90 6 -120 20 l-43 19 0 216 0
215 190 0 190 0 0 -166z m190 72 c0 -89 -1 -95 -22 -102 -13 -3 -44 -22 -70
-40 l-48 -34 0 135 0 135 70 0 70 0 0 -94z m0 -286 l0 -90 -70 0 -70 0 0 28
c0 22 15 43 64 90 35 34 67 62 70 62 3 0 6 -40 6 -90z m-1573 -174 c139 -98
317 -179 496 -227 154 -40 226 -46 305 -24 63 18 63 18 113 -5 l49 -23 0 -79
0 -78 -229 0 c-215 0 -234 2 -317 25 -192 55 -425 194 -600 359 l-89 85 112 1
c112 0 113 0 160 -34z m963 -67 c0 -92 -2 -101 -17 -94 -67 25 -100 28 -148
12 -27 -10 -72 -17 -101 -17 -64 0 -252 48 -351 89 -59 24 -186 91 -202 107
-2 2 181 4 407 4 l412 0 0 -101z m420 21 l0 -81 -47 -50 c-67 -71 -93 -83
-172 -75 -36 3 -85 16 -110 28 l-46 23 -3 109 c-2 101 -1 108 15 101 100 -41
190 -47 251 -16 22 11 43 25 47 31 3 5 19 10 36 10 l29 0 0 -80z m130 77 c0
-2 -18 -21 -40 -42 l-40 -39 0 42 0 42 40 0 c22 0 40 -1 40 -3z m60 -196 c0
-106 -1 -109 -23 -115 -13 -3 -45 -22 -70 -41 l-47 -36 0 71 c0 67 2 74 41
128 51 69 80 102 91 102 4 0 8 -49 8 -109z m-194 -258 c-4 -10 -44 -13 -191
-13 l-185 0 0 64 0 65 47 -21 c101 -44 224 -34 298 26 l30 24 3 -65 c2 -36 1
-72 -2 -80z m194 17 c0 -29 -2 -30 -42 -30 l-43 1 35 29 c44 37 50 37 50 0z
m-261 -96 c-46 -49 -110 -84 -154 -84 -53 0 -149 55 -153 88 l-3 22 167 0 167
0 -24 -26z"/>
<path d="M1019 1437 c-155 -82 -427 -241 -441 -258 -17 -20 -18 -55 -18 -438
0 -310 3 -422 13 -440 16 -32 478 -291 518 -291 18 0 36 10 53 31 l26 31 0
658 c0 462 -3 666 -11 683 -12 26 -47 47 -78 47 -10 0 -37 -10 -62 -23z m49
-1012 l-3 -304 -202 112 -202 112 0 390 0 390 202 112 202 113 3 -311 c1 -171
1 -447 0 -614z"/>
<path d="M1722 1338 c-22 -22 -13 -48 39 -111 58 -72 132 -217 153 -299 60
-237 -3 -500 -161 -678 -47 -52 -53 -78 -25 -103 29 -27 47 -20 92 30 95 108
165 249 196 393 21 98 18 269 -6 368 -34 140 -106 278 -193 370 -41 42 -73 52
-95 30z"/>
<path d="M1577 1222 c-25 -28 -21 -42 27 -101 92 -112 136 -237 136 -384 0
-147 -43 -268 -135 -381 -46 -57 -54 -83 -33 -104 26 -26 63 -13 102 34 142
170 197 398 147 608 -25 105 -83 221 -147 294 -48 55 -71 63 -97 34z"/>
<path d="M55 1159 c-45 -25 -45 -24 -45 -424 0 -424 -1 -415 68 -435 51 -14
348 -12 392 3 60 21 60 23 58 434 -3 360 -4 372 -24 400 l-21 28 -204 2 c-134
2 -211 -1 -224 -8z m375 -424 l0 -345 -165 0 -165 0 0 345 0 345 165 0 165 0
0 -345z"/>
<path d="M1430 1101 c-15 -29 -13 -37 27 -88 20 -27 48 -73 62 -103 23 -48 26
-68 26 -160 0 -94 -3 -111 -28 -164 -15 -33 -44 -80 -64 -104 -31 -38 -35 -48
-27 -71 7 -19 17 -27 40 -29 28 -3 36 4 77 58 66 87 107 208 107 315 0 23 -9
77 -20 121 -42 162 -161 297 -200 225z"/>
</g>
</svg>
