<?xml version="1.0" encoding="UTF-8" standalone="no"?>
<!-- Generator: Adobe Illustrator 16.0.0, SVG Export Plug-In . SVG Version: 6.00 Build 0)  -->

<svg
   xmlns:dc="http://purl.org/dc/elements/1.1/"
   xmlns:cc="http://creativecommons.org/ns#"
   xmlns:rdf="http://www.w3.org/1999/02/22-rdf-syntax-ns#"
   xmlns:svg="http://www.w3.org/2000/svg"
   xmlns="http://www.w3.org/2000/svg"
   xmlns:sodipodi="http://sodipodi.sourceforge.net/DTD/sodipodi-0.dtd"
   xmlns:inkscape="http://www.inkscape.org/namespaces/inkscape"
   version="1.1"
   x="0px"
   y="0px"
   width="361px"
   height="361px"
   viewBox="0 0 361 361"
   style="enable-background:new 0 0 361 361;"
   xml:space="preserve"
   id="svg2"
   inkscape:version="0.48.2 r9819"
   sodipodi:docname="audio_mic_mute.svg"><metadata
   id="metadata44"><rdf:RDF><cc:Work
       rdf:about=""><dc:format>image/svg+xml</dc:format><dc:type
         rdf:resource="http://purl.org/dc/dcmitype/StillImage" /></cc:Work></rdf:RDF></metadata><defs
   id="defs42" /><sodipodi:namedview
   pagecolor="#ffffff"
   bordercolor="#666666"
   borderopacity="1"
   objecttolerance="10"
   gridtolerance="10"
   guidetolerance="10"
   inkscape:pageopacity="0"
   inkscape:pageshadow="2"
   inkscape:window-width="779"
   inkscape:window-height="480"
   id="namedview40"
   showgrid="false"
   inkscape:zoom="0.65373961"
   inkscape:cx="180.5"
   inkscape:cy="180.5"
   inkscape:window-x="0"
   inkscape:window-y="0"
   inkscape:window-maximized="0"
   inkscape:current-layer="audio_x5F_mic_x5F_mute" />
<g
   id="audio_x5F_mic_x5F_mute"
   transform="matrix(1.6226282,0,0,1.6226282,-117.24485,-110.68235)"
   style="fill:#000000">
	<g
   id="g5"
   style="fill:#000000">
		<g
   id="g7"
   style="fill:#000000">
			<path
   style="fill:#000000"
   d="m 138.736,260.167 c 0,8.833 0,17.667 0,26.5 0,6.448 10,6.448 10,0 0,-8.833 0,-17.667 0,-26.5 0,-6.448 -10,-6.448 -10,0 l 0,0 z"
   id="path9"
   inkscape:connector-curvature="0" />
		</g>
	</g>
	<g
   id="g11"
   style="fill:#000000">
		<g
   id="g13"
   style="fill:#000000">
			<path
   style="fill:#000000"
   d="m 102.486,291.667 c 27.5,0 55,0 82.5,0 6.448,0 6.448,-10 0,-10 -27.5,0 -55,0 -82.5,0 -6.449,0 -6.449,10 0,10 l 0,0 z"
   id="path15"
   inkscape:connector-curvature="0" />
		</g>
	</g>
	<g
   id="g17"
   style="fill:#000000">
		<g
   id="g19"
   style="fill:#000000">
			<path
   style="fill:#000000"
   d="m 174.358,251.793 c -5.708,3.928 -11.55,3.374 -18.193,3.374 -5.776,0 -11.552,0 -17.328,0 -4.396,0 -8.825,0.146 -13.211,-0.188 -8.758,-0.671 -17.07,-4.99 -23.375,-10.942 -10.115,-9.549 -12.043,-21.988 -12.043,-35.127 0,-9.62 0,-19.241 0,-28.861 0,-6.449 -10,-6.449 -10,0 0,10.581 0,21.162 0,31.743 0,15.837 4.769,30.275 16.874,41.061 12.025,10.715 26.442,12.315 41.755,12.315 5.928,0 11.855,0 17.783,0 8.281,0 15.694,0.141 22.785,-4.739 5.275,-3.631 0.281,-12.303 -5.047,-8.636 l 0,0 z"
   id="path21"
   inkscape:connector-curvature="0" />
		</g>
	</g>
	<path
   style="fill:#000000;stroke:none;stroke-width:10;stroke-miterlimit:10"
   d="m 169.359,227.578 c 0,-15.325 6.05,-29.228 15.877,-39.482 v -81.208 c 0,-17.795 -14.427,-32.22 -32.221,-32.22 h -18.56 c -17.795,0 -32.22,14.425 -32.22,32.22 v 104.561 c 0,17.794 14.425,32.221 32.22,32.221 h 18.56 c 6.415,0 12.387,-1.883 17.408,-5.115 -0.691,-3.554 -1.064,-7.221 -1.064,-10.977 z"
   id="path23"
   inkscape:connector-curvature="0" />
	<g
   id="g25"
   style="fill:#000000">
		<g
   id="g27"
   style="fill:#000000">
			<g
   id="g29"
   style="fill:#000000">
				<path
   style="fill:#000000"
   d="m 275.771,227.263 c -0.264,21.84 -14.327,41.069 -35.273,47.55 -20.997,6.497 -44.063,-2.393 -55.993,-20.61 -12.03,-18.37 -9.942,-43.151 4.398,-59.601 14.373,-16.484 38.712,-21.485 58.469,-12.159 17.335,8.182 28.17,25.79 28.399,44.82 0.117,9.678 15.12,9.774 15.004,0.107 -0.285,-23.601 -12.93,-45.153 -33.556,-56.708 -20.663,-11.576 -46.938,-10.132 -66.615,2.754 -19.622,12.85 -30.716,36.13 -28.74,59.426 1.966,23.186 16.774,44.002 38.044,53.441 20.026,8.887 43.534,6.933 61.857,-5.067 18.09,-11.847 28.75,-32.365 29.01,-53.846 0.118,-9.691 -14.886,-9.766 -15.004,-0.107 z"
   id="path31"
   inkscape:connector-curvature="0" />
			</g>
		</g>
		<g
   id="g33"
   style="fill:#000000">
			<g
   id="g35"
   style="fill:#000000">
				<path
   style="fill:#000000"
   d="m 191.149,272.959 c 26.912,-26.912 53.824,-53.824 80.735,-80.736 6.836,-6.835 -3.813,-17.403 -10.665,-10.551 -26.912,26.912 -53.824,53.824 -80.736,80.736 -6.835,6.835 3.814,17.404 10.666,10.551 l 0,0 z"
   id="path37"
   inkscape:connector-curvature="0" />
			</g>
		</g>
	</g>
</g>
<g
   id="Ebene_1"
   transform="matrix(1.6226282,0,0,1.6226282,-117.24485,-110.68235)">
</g>
</svg>