<?xml version="1.0" standalone="no"?>
<!DOCTYPE svg PUBLIC "-//W3C//DTD SVG 20010904//EN"
 "http://www.w3.org/TR/2001/REC-SVG-20010904/DTD/svg10.dtd">
<svg version="1.0" xmlns="http://www.w3.org/2000/svg"
 width="468pt" height="467pt" viewBox="0 0 468 467"
 preserveAspectRatio="xMidYMid meet">
<metadata>
Created by potrace 1.8, written by Peter Selinger 2001-2007
</metadata>
<g transform="translate(0,467) scale(0.157576,-0.157576)"
fill="#000000" stroke="none">
<path d="M1360 2720 c-194 -148 -319 -250 -324 -265 -6 -16 -6 -34 0 -50 10
-30 627 -505 655 -505 9 0 28 9 43 21 l26 20 0 205 0 205 433 -3 c429 -3 432
-3 479 -26 26 -13 66 -44 88 -69 72 -82 71 -68 68 -804 -3 -652 -3 -654 -25
-695 -61 -114 -114 -145 -265 -154 -61 -3 -112 -11 -121 -18 -32 -27 -28 -91
7 -114 17 -12 159 -9 218 3 163 34 286 162 318 329 13 70 13 1232 0 1324 -15
101 -52 175 -121 241 -31 30 -77 63 -101 74 -104 44 -132 46 -565 43 l-413 -4
0 219 c0 217 0 220 -23 241 -13 12 -32 22 -43 22 -10 0 -161 -108 -334 -240z
m260 -290 c0 -170 -3 -310 -6 -310 -8 0 -399 300 -401 308 -2 7 386 310 400
311 4 1 7 -138 7 -309z"/>
<path d="M358 2490 c-163 -28 -267 -112 -330 -268 l-23 -57 -3 -605 c-4 -674
1 -757 48 -857 55 -118 169 -200 310 -222 37 -6 237 -11 463 -11 l397 0 0
-210 c0 -211 0 -211 25 -235 13 -14 34 -25 47 -25 26 0 629 456 654 496 10 14
14 33 10 48 -4 17 -100 96 -318 263 -171 131 -320 242 -330 247 -24 12 -62 -8
-77 -41 -7 -15 -11 -96 -11 -214 l0 -190 -442 3 -443 3 -53 29 c-29 17 -66 48
-83 70 -60 82 -60 79 -57 792 3 725 -1 681 76 766 54 60 108 80 225 86 89 4
99 7 117 30 27 33 25 58 -5 87 -21 22 -33 25 -87 24 -35 -1 -84 -5 -110 -9z
m1216 -1806 l205 -156 -47 -37 c-26 -20 -114 -88 -197 -151 -82 -62 -156 -118
-162 -123 -10 -7 -13 55 -13 307 0 174 2 316 5 316 3 0 97 -70 209 -156z"/>
</g>
</svg>
