<?xml version="1.0" standalone="no"?>
<!DOCTYPE svg PUBLIC "-//W3C//DTD SVG 20010904//EN"
 "http://www.w3.org/TR/2001/REC-SVG-20010904/DTD/svg10.dtd">
<svg version="1.0" xmlns="http://www.w3.org/2000/svg"
 width="468pt" height="356pt" viewBox="0 0 468 356"
 preserveAspectRatio="xMidYMid meet">
<metadata>
Created by potrace 1.8, written by Peter Selinger 2001-2007
</metadata>
<g transform="translate(0,356) scale(0.181395,-0.181395)"
fill="#000000" stroke="none">
<path d="M1090 1777 c-227 -128 -329 -190 -337 -207 -10 -19 -13 -155 -13
-573 0 -471 2 -554 15 -581 13 -27 64 -59 340 -214 178 -100 334 -182 347
-182 13 0 37 9 55 20 66 40 63 -12 63 953 l0 874 -23 34 c-25 38 -60 59 -97
59 -14 0 -168 -81 -350 -183z m326 -1595 c-3 -2 -124 63 -270 145 l-265 148
-1 515 0 515 268 150 267 150 3 -809 c1 -445 0 -811 -2 -814z"/>
<path d="M2108 1926 c-12 -6 -29 -24 -36 -39 -16 -33 -18 -29 84 -152 266
-324 344 -757 208 -1163 -46 -138 -142 -301 -246 -417 -62 -69 -67 -88 -29
-125 16 -17 38 -30 48 -30 24 0 137 119 198 210 100 149 171 315 211 495 25
113 30 353 9 476 -42 251 -162 502 -329 685 -60 67 -82 78 -118 60z"/>
<path d="M1810 1680 c-31 -31 -25 -66 20 -117 287 -326 291 -798 11 -1128 -57
-67 -64 -99 -28 -133 36 -34 65 -28 115 25 137 147 227 351 251 566 30 266
-64 556 -243 755 -53 58 -90 68 -126 32z"/>
<path d="M84 1566 c-17 -8 -40 -26 -52 -41 -22 -28 -22 -30 -22 -536 l0 -509
34 -38 34 -37 261 -3 c304 -3 320 0 353 75 18 40 19 69 16 527 -3 472 -4 485
-24 513 -43 59 -65 63 -329 63 -178 -1 -248 -4 -271 -14z m486 -576 l0 -450
-215 0 -215 0 0 450 0 450 215 0 215 0 0 -450z"/>
</g>
</svg>
