<?xml version="1.0" standalone="no"?>
<!DOCTYPE svg PUBLIC "-//W3C//DTD SVG 20010904//EN"
 "http://www.w3.org/TR/2001/REC-SVG-20010904/DTD/svg10.dtd">
<svg version="1.0" xmlns="http://www.w3.org/2000/svg"
 width="468pt" height="590pt" viewBox="0 0 468 590"
 preserveAspectRatio="xMidYMid meet">
<metadata>
Created by potrace 1.8, written by Peter Selinger 2001-2007
</metadata>
<g transform="translate(0,590) scale(0.199149,-0.199149)"
fill="#000000" stroke="none">
<path d="M2015 2869 c-88 -50 -308 -174 -490 -275 -181 -102 -340 -196 -352
-210 l-23 -25 0 -871 c0 -984 -7 -902 84 -956 28 -17 253 -144 501 -282 407
-228 452 -251 484 -246 40 6 75 30 105 70 21 27 21 29 21 1406 0 1377 0 1379
-21 1406 -31 43 -67 65 -110 70 -35 4 -57 -6 -199 -87z m195 -1390 c0 -737 -3
-1338 -7 -1336 -105 58 -885 494 -900 504 l-23 13 0 823 0 823 53 26 c28 15
234 130 457 256 223 127 408 230 413 231 4 1 7 -602 7 -1340z"/>
<path d="M106 2350 c-16 -5 -40 -19 -53 -32 -55 -51 -53 -17 -53 -838 0 -842
-3 -805 64 -853 31 -22 36 -22 416 -25 212 -2 400 0 418 3 53 10 99 58 112
118 8 37 10 270 8 787 -3 717 -4 736 -23 770 -12 21 -39 44 -65 58 -44 22 -49
22 -420 21 -206 0 -388 -5 -404 -9z m772 -872 l-3 -743 -370 0 -370 0 -3 730
c-1 402 0 736 3 743 3 9 88 12 375 12 l370 0 -2 -742z"/>
</g>
</svg>
