<?xml version="1.0" standalone="no"?>
<!DOCTYPE svg PUBLIC "-//W3C//DTD SVG 20010904//EN"
 "http://www.w3.org/TR/2001/REC-SVG-20010904/DTD/svg10.dtd">
<svg version="1.0" xmlns="http://www.w3.org/2000/svg"
 width="468pt" height="513pt" viewBox="0 0 468 513"
 preserveAspectRatio="xMidYMid meet">
<metadata>
Created by potrace 1.8, written by Peter Selinger 2001-2007
</metadata>
<g transform="translate(0,513) scale(0.202597,-0.202597)"
fill="#000000" stroke="none">
<path d="M1455 2385 c-796 -182 -755 -171 -783 -198 -54 -50 -52 -15 -52 -865
l0 -790 -61 19 c-73 23 -154 24 -234 4 -246 -63 -384 -260 -292 -418 49 -84
142 -128 272 -129 197 -2 377 106 433 259 22 60 22 66 22 787 l0 726 37 0 c28
0 1252 270 1346 296 16 5 17 -29 17 -619 l0 -625 -47 14 c-25 8 -78 14 -117
14 -284 -1 -512 -233 -413 -421 97 -184 432 -188 623 -7 102 96 94 17 94 977
0 805 -1 843 -20 928 -33 144 -64 184 -149 189 -32 2 -242 -42 -676 -141z
m690 -60 c9 -41 15 -83 13 -92 -2 -14 -129 -45 -682 -170 -373 -85 -680 -152
-682 -150 -8 8 -38 167 -32 172 4 4 1313 306 1359 314 4 1 15 -33 24 -74z
m-35 -1620 c104 -54 62 -167 -89 -239 -58 -27 -77 -31 -151 -31 -94 0 -142 19
-169 66 -39 69 60 175 199 214 65 18 165 13 210 -10z m-1573 -286 c49 -18 73
-49 73 -91 0 -113 -226 -220 -379 -178 -150 40 -108 189 75 260 55 22 185 27
231 9z"/>
</g>
</svg>
