<?xml version="1.0" standalone="no"?>
<!DOCTYPE svg PUBLIC "-//W3C//DTD SVG 20010904//EN"
 "http://www.w3.org/TR/2001/REC-SVG-20010904/DTD/svg10.dtd">
<svg version="1.0" xmlns="http://www.w3.org/2000/svg"
 width="468pt" height="473pt" viewBox="0 0 468 473"
 preserveAspectRatio="xMidYMid meet">
<metadata>
Created by potrace 1.8, written by Peter Selinger 2001-2007
</metadata>
<g transform="translate(0,473) scale(0.202597,-0.202597)"
fill="#000000" stroke="none">
<path d="M1103 2298 c-25 -28 -1053 -1373 -1077 -1410 -18 -28 -13 -49 20 -82
14 -14 126 -16 1103 -16 1086 0 1088 0 1115 21 15 12 26 30 26 45 0 17 -160
235 -532 722 -293 383 -543 707 -555 720 -13 12 -34 22 -51 22 -17 0 -37 -9
-49 -22z m520 -768 l455 -595 -458 -3 c-252 -1 -668 -1 -924 0 l-466 3 461
603 c254 332 465 600 470 595 4 -4 212 -276 462 -603z"/>
<path d="M90 603 c-8 -3 -26 -15 -38 -27 -48 -43 -52 -63 -52 -269 0 -185 1
-196 23 -227 12 -18 35 -43 50 -54 28 -21 32 -21 1045 -24 725 -2 1032 0 1069
8 60 13 108 59 118 113 4 19 5 115 3 213 -3 199 -8 216 -71 254 -31 19 -58 20
-1082 19 -577 0 -1057 -3 -1065 -6z m2080 -293 l0 -170 -1017 2 -1018 3 -3
155 c-1 85 0 160 2 167 4 11 200 13 1021 13 l1015 0 0 -170z"/>
</g>
</svg>
