<?xml version="1.0" standalone="no"?>
<!DOCTYPE svg PUBLIC "-//W3C//DTD SVG 20010904//EN"
 "http://www.w3.org/TR/2001/REC-SVG-20010904/DTD/svg10.dtd">
<svg version="1.0" xmlns="http://www.w3.org/2000/svg"
 width="469pt" height="511pt" viewBox="0 0 469 511"
 preserveAspectRatio="xMidYMid meet">
<metadata>
Created by potrace 1.8, written by Peter Selinger 2001-2007
</metadata>
<g transform="translate(0,511) scale(0.223923,-0.223923)"
fill="#000000" stroke="none">
<path d="M25 2255 l-25 -24 0 -1091 0 -1091 25 -24 c13 -14 33 -25 43 -25 11
0 125 80 253 179 l234 178 5 -160 5 -160 27 -20 c22 -16 33 -19 52 -11 37 14
1423 1076 1436 1101 7 12 10 33 6 47 -5 19 -186 163 -709 562 -386 296 -714
545 -729 553 -25 15 -29 14 -55 -5 l-28 -21 -5 -163 -5 -162 -70 54 c-247 191
-407 308 -420 308 -9 0 -27 -11 -40 -25z m344 -365 l191 -145 0 -606 0 -607
-210 -161 -210 -160 0 926 c0 918 0 925 20 912 10 -8 105 -79 209 -159z m948
-299 l593 -453 -28 -22 c-62 -51 -1172 -896 -1177 -896 -3 0 -5 56 -5 124 l0
124 397 303 c219 167 406 312 415 321 29 29 23 72 -15 104 -18 16 -205 160
-415 319 l-381 290 -1 129 c0 101 3 126 13 119 6 -6 279 -214 604 -462z m-297
-199 c162 -123 303 -232 312 -241 17 -15 8 -23 -135 -132 -83 -64 -230 -176
-324 -248 l-173 -132 0 496 c0 394 3 495 13 489 6 -4 145 -109 307 -232z"/>
</g>
</svg>
