<?xml version="1.0" standalone="no"?>
<!DOCTYPE svg PUBLIC "-//W3C//DTD SVG 20010904//EN"
 "http://www.w3.org/TR/2001/REC-SVG-20010904/DTD/svg10.dtd">
<svg version="1.0" xmlns="http://www.w3.org/2000/svg"
 width="468pt" height="397pt" viewBox="0 0 468 397"
 preserveAspectRatio="xMidYMid meet">
<metadata>
Created by potrace 1.8, written by Peter Selinger 2001-2007
</metadata>
<g transform="translate(0,397) scale(0.158108,-0.158108)"
fill="#000000" stroke="none">
<path d="M2205 2496 c-116 -28 -222 -108 -313 -235 -26 -36 -129 -227 -228
-425 l-181 -359 -56 104 c-31 57 -107 210 -171 339 -63 130 -137 269 -164 311
-62 92 -151 178 -221 214 -96 48 -157 55 -504 55 -304 0 -318 -1 -337 -20 -25
-25 -26 -61 -1 -91 l19 -24 349 -5 c329 -5 351 -6 394 -26 61 -28 122 -84 172
-158 38 -56 437 -831 437 -850 0 -15 -435 -858 -490 -949 -64 -106 -119 -165
-185 -197 -49 -25 -56 -25 -367 -30 -281 -4 -319 -7 -334 -22 -25 -25 -22 -77
5 -100 21 -16 46 -18 295 -18 149 0 300 5 336 11 81 13 175 55 230 105 85 77
171 223 455 777 l137 269 120 -234 c198 -385 328 -629 374 -699 50 -76 124
-148 182 -178 93 -47 141 -53 452 -58 291 -5 295 -5 323 17 30 24 36 64 13 96
-14 18 -32 19 -333 24 -296 5 -321 7 -364 26 -57 27 -111 74 -152 133 -17 25
-145 266 -284 535 l-254 489 193 386 c203 407 258 501 333 570 92 85 94 85
487 91 300 4 349 7 363 21 22 22 22 75 0 99 -17 19 -30 20 -349 19 -224 0
-347 -5 -381 -13z"/>
</g>
</svg>
