<?xml version="1.0" standalone="no"?>
<!DOCTYPE svg PUBLIC "-//W3C//DTD SVG 20010904//EN"
 "http://www.w3.org/TR/2001/REC-SVG-20010904/DTD/svg10.dtd">
<svg version="1.0" xmlns="http://www.w3.org/2000/svg"
 width="468pt" height="509pt" viewBox="0 0 468 509"
 preserveAspectRatio="xMidYMid meet">
<metadata>
Created by potrace 1.8, written by Peter Selinger 2001-2007
</metadata>
<g transform="translate(0,509) scale(0.222857,-0.222857)"
fill="#000000" stroke="none">
<path d="M1445 2268 c-28 -17 -1375 -1046 -1407 -1076 -32 -30 -36 -70 -10
-100 9 -11 305 -239 657 -508 352 -268 668 -509 703 -536 35 -26 72 -48 83
-48 11 0 31 11 44 25 24 23 25 28 25 175 0 82 3 150 6 150 3 0 100 -72 215
-161 255 -195 258 -197 293 -181 15 6 31 23 36 38 6 16 10 422 10 1097 0 953
-2 1075 -16 1095 -20 29 -48 43 -69 36 -9 -4 -118 -85 -243 -180 l-227 -173
-5 160 c-5 154 -6 162 -29 180 -27 22 -38 23 -66 7z m-49 -453 c-2 -6 -165
-134 -362 -285 -478 -364 -466 -354 -462 -398 3 -35 17 -47 416 -351 l412
-315 0 -129 0 -128 -133 102 c-72 56 -345 264 -605 462 -447 342 -471 362
-455 378 10 9 281 218 603 464 l585 447 3 -118 c1 -65 1 -123 -2 -129z m564
-681 l0 -925 -167 127 c-93 70 -187 143 -210 162 l-43 34 0 607 0 607 203 156
c111 86 205 157 210 157 4 1 7 -416 7 -925z m-560 0 c0 -396 -3 -495 -12 -487
-7 5 -154 117 -325 248 -172 131 -313 241 -312 244 0 8 631 490 642 490 4 1 7
-222 7 -495z"/>
</g>
</svg>
