<?xml version="1.0" standalone="no"?>
<!DOCTYPE svg PUBLIC "-//W3C//DTD SVG 20010904//EN"
 "http://www.w3.org/TR/2001/REC-SVG-20010904/DTD/svg10.dtd">
<svg version="1.0" xmlns="http://www.w3.org/2000/svg"
 width="468pt" height="437pt" viewBox="0 0 468 437"
 preserveAspectRatio="xMidYMid meet">
<metadata>
Created by potrace 1.8, written by Peter Selinger 2001-2007
</metadata>
<g transform="translate(0,437) scale(0.158644,-0.158644)"
fill="#000000" stroke="none">
<path d="M1275 2734 c-358 -53 -608 -163 -812 -357 -212 -202 -355 -491 -412
-837 -31 -190 -40 -334 -43 -686 -3 -304 -2 -323 16 -343 24 -26 77 -28 99 -3
15 16 17 52 17 293 0 414 21 645 77 864 64 251 172 446 332 605 232 231 513
331 926 331 269 -1 449 -35 633 -121 323 -152 547 -449 641 -852 46 -196 53
-278 58 -678 2 -212 6 -395 8 -407 12 -52 77 -71 115 -33 19 19 20 33 20 319
0 324 -10 490 -40 676 -99 605 -408 1003 -901 1160 -167 53 -258 66 -489 70
-118 2 -228 1 -245 -1z"/>
<path d="M398 1071 l-33 -29 -3 -482 -3 -481 35 -35 34 -34 217 0 c129 0 224
4 236 10 48 26 49 38 49 534 0 339 -3 472 -12 491 -23 50 -49 55 -277 55
l-211 0 -32 -29z m402 -516 l0 -415 -155 0 -155 0 0 415 0 415 155 0 155 0 0
-415z"/>
<path d="M2071 1084 c-50 -35 -51 -50 -51 -534 0 -381 2 -456 15 -480 30 -58
39 -60 275 -60 239 0 249 2 276 66 21 49 21 909 0 958 -27 64 -37 66 -276 66
-183 0 -219 -2 -239 -16z m389 -529 l0 -415 -150 0 -150 0 0 415 0 415 150 0
150 0 0 -415z"/>
<path d="M202 894 c-22 -15 -22 -16 -22 -338 0 -300 1 -324 18 -339 25 -22 75
-21 95 1 15 17 17 55 17 340 0 320 0 321 -22 336 -12 9 -32 16 -43 16 -11 0
-31 -7 -43 -16z"/>
<path d="M2664 885 l-25 -25 3 -316 c3 -299 4 -316 22 -330 28 -20 73 -17 96
6 19 19 20 33 20 335 0 302 -1 316 -20 335 -27 27 -66 25 -96 -5z"/>
</g>
</svg>
