<?xml version="1.0" standalone="no"?>
<!DOCTYPE svg PUBLIC "-//W3C//DTD SVG 20010904//EN"
 "http://www.w3.org/TR/2001/REC-SVG-20010904/DTD/svg10.dtd">
<svg version="1.0" xmlns="http://www.w3.org/2000/svg"
 width="468pt" height="392pt" viewBox="0 0 468 392"
 preserveAspectRatio="xMidYMid meet">
<metadata>
Created by potrace 1.8, written by Peter Selinger 2001-2007
</metadata>
<g transform="translate(0,392) scale(0.159184,-0.159184)"
fill="#000000" stroke="none">
<path d="M1090 2277 c-227 -128 -329 -190 -337 -207 -10 -19 -13 -155 -13
-573 0 -471 2 -554 15 -581 13 -27 55 -55 257 -168 l242 -136 33 -77 c229
-536 894 -699 1348 -329 122 99 228 267 277 439 30 106 32 314 4 418 -46 173
-109 281 -235 408 -130 130 -256 200 -425 236 -113 24 -317 13 -426 -22 -94
-30 -163 -63 -227 -107 l-43 -29 0 409 0 409 -23 34 c-25 38 -60 59 -97 59
-14 0 -168 -81 -350 -183z m296 -906 c-93 -127 -154 -305 -163 -474 -3 -59 -9
-106 -13 -105 -3 2 -79 44 -168 93 l-162 90 0 515 0 515 268 150 267 150 3
-443 2 -444 -34 -47z m902 116 c41 -14 98 -40 128 -59 l54 -32 -457 -458
c-252 -252 -461 -458 -464 -458 -6 0 -47 79 -89 170 -40 87 -39 322 2 432 83
223 251 370 483 424 93 21 253 13 343 -19z m377 -328 c50 -97 68 -178 68 -294
0 -183 -62 -335 -193 -466 -124 -125 -279 -189 -455 -189 -133 0 -243 31 -345
95 l-43 27 459 459 c314 314 461 454 467 446 4 -7 23 -42 42 -78z"/>
<path d="M84 2066 c-17 -8 -40 -26 -52 -41 -22 -28 -22 -30 -22 -536 l0 -509
34 -38 34 -37 261 -3 c304 -3 320 0 353 75 18 40 19 69 16 527 -3 472 -4 485
-24 513 -43 59 -65 63 -329 63 -178 -1 -248 -4 -271 -14z m486 -576 l0 -450
-215 0 -215 0 0 450 0 450 215 0 215 0 0 -450z"/>
</g>
</svg>
