<?xml version="1.0" standalone="no"?>
<!DOCTYPE svg PUBLIC "-//W3C//DTD SVG 20010904//EN"
 "http://www.w3.org/TR/2001/REC-SVG-20010904/DTD/svg10.dtd">
<svg version="1.0" xmlns="http://www.w3.org/2000/svg"
 width="468pt" height="515pt" viewBox="0 0 468 515"
 preserveAspectRatio="xMidYMid meet">
<metadata>
Created by potrace 1.8, written by Peter Selinger 2001-2007
</metadata>
<g transform="translate(0,515) scale(0.173978,-0.173978)"
fill="#000000" stroke="none">
<path d="M355 2948 c-11 -6 -23 -16 -27 -22 -4 -6 -8 -192 -8 -413 l0 -403
-105 0 c-118 0 -159 -12 -193 -55 -19 -25 -22 -40 -22 -134 0 -120 9 -145 60
-175 28 -17 57 -22 148 -25 l112 -3 0 -838 c0 -798 1 -838 18 -853 23 -21 71
-22 98 -3 19 14 19 36 22 855 l2 841 98 0 c123 1 168 11 206 49 28 28 30 36
34 118 5 112 -8 165 -51 195 -29 21 -46 23 -159 26 l-127 4 -3 404 c-3 437 -2
426 -58 438 -14 3 -34 1 -45 -6z"/>
<path d="M1300 2940 c-20 -20 -20 -33 -20 -865 l0 -845 -115 0 c-183 0 -205
-21 -205 -193 0 -91 3 -108 21 -131 37 -47 68 -56 189 -56 l110 0 0 -400 c0
-387 1 -401 20 -420 29 -29 74 -26 99 6 20 26 21 37 21 420 l0 394 118 0 c193
0 226 31 220 208 -3 100 -4 103 -36 135 l-32 32 -135 3 -135 4 0 839 0 840
-25 24 c-29 30 -68 32 -95 5z"/>
<path d="M2253 2950 c-12 -5 -26 -18 -32 -29 -7 -13 -11 -191 -11 -539 l0
-520 -112 -4 c-176 -5 -208 -36 -208 -192 0 -162 37 -195 218 -196 l102 0 0
-702 c0 -545 3 -709 13 -728 16 -32 79 -40 108 -14 18 16 19 42 19 731 l0 713
115 0 c124 0 165 10 200 50 18 20 20 36 20 147 0 124 0 125 -28 148 -39 34
-88 45 -204 45 l-103 0 0 529 0 530 -26 20 c-29 23 -38 24 -71 11z"/>
</g>
</svg>
