<?xml version="1.0" standalone="no"?>
<!DOCTYPE svg PUBLIC "-//W3C//DTD SVG 20010904//EN"
 "http://www.w3.org/TR/2001/REC-SVG-20010904/DTD/svg10.dtd">
<svg version="1.0" xmlns="http://www.w3.org/2000/svg"
 width="468pt" height="254pt" viewBox="0 0 468 254"
 preserveAspectRatio="xMidYMid meet">
<metadata>
Created by potrace 1.8, written by Peter Selinger 2001-2007
</metadata>
<g transform="translate(0,254) scale(0.157576,-0.157576)"
fill="#000000" stroke="none">
<path d="M21 1574 c-31 -40 -30 -133 3 -171 l24 -28 141 0 c164 0 179 7 188
88 7 57 -2 92 -27 117 -18 18 -34 20 -164 20 -144 0 -145 0 -165 -26z"/>
<path d="M624 1590 c-58 -23 -75 -134 -30 -187 l24 -28 1152 0 1152 0 24 28
c34 40 34 124 0 164 l-24 28 -1139 2 c-629 1 -1148 -2 -1159 -7z"/>
<path d="M44 1128 c-30 -14 -44 -50 -44 -114 0 -45 4 -59 25 -79 23 -24 29
-25 159 -25 128 0 136 1 163 24 25 22 28 30 28 91 0 61 -3 69 -28 91 -27 23
-35 24 -155 23 -70 0 -137 -5 -148 -11z"/>
<path d="M609 1117 c-54 -42 -50 -179 6 -201 22 -8 2288 -8 2310 0 58 23 58
185 0 208 -9 3 -530 6 -1158 6 -882 -1 -1146 -3 -1158 -13z"/>
<path d="M54 680 c-37 -15 -54 -50 -54 -113 0 -48 4 -62 25 -82 23 -24 29 -25
165 -25 126 0 142 2 160 20 25 25 34 60 27 117 -9 79 -26 88 -175 90 -70 2
-137 -2 -148 -7z"/>
<path d="M599 651 c-23 -24 -29 -38 -29 -75 0 -65 15 -95 55 -111 52 -22 2238
-22 2290 0 40 16 55 46 55 111 0 37 -6 51 -29 75 l-29 29 -1142 0 -1142 0 -29
-29z"/>
<path d="M63 233 c-40 -8 -63 -49 -63 -114 0 -47 5 -63 24 -86 24 -27 27 -28
144 -31 174 -5 212 16 212 119 0 54 -23 95 -61 108 -30 10 -208 13 -256 4z"/>
<path d="M623 220 c-12 -5 -29 -20 -39 -35 -24 -36 -15 -128 15 -158 l22 -22
1150 0 1151 0 24 28 c19 22 24 39 24 83 0 48 -4 60 -29 85 l-29 29 -1134 -1
c-630 0 -1143 -4 -1155 -9z"/>
</g>
</svg>
