<?xml version="1.0" standalone="no"?>
<!DOCTYPE svg PUBLIC "-//W3C//DTD SVG 20010904//EN"
 "http://www.w3.org/TR/2001/REC-SVG-20010904/DTD/svg10.dtd">
<svg version="1.0" xmlns="http://www.w3.org/2000/svg"
 width="468pt" height="468pt" viewBox="0 0 468 468"
 preserveAspectRatio="xMidYMid meet">
<metadata>
Created by potrace 1.8, written by Peter Selinger 2001-2007
</metadata>
<g transform="translate(0,468) scale(0.158108,-0.158108)"
fill="#000000" stroke="none">
<path d="M2249 2931 l-29 -29 0 -204 0 -203 -92 3 c-234 9 -374 -47 -469 -185
-55 -80 -62 -111 -69 -343 -8 -231 -13 -256 -67 -320 -15 -19 -48 -46 -72 -62
l-45 -28 -180 0 c-100 0 -207 -4 -239 -10 -82 -13 -157 -50 -218 -107 -111
-103 -129 -161 -133 -420 -4 -215 -14 -264 -72 -331 -68 -79 -91 -86 -322 -92
-187 -5 -205 -7 -218 -24 -23 -32 -18 -83 11 -102 35 -23 398 -16 465 9 118
45 214 146 250 265 17 54 20 93 20 246 0 213 10 260 69 327 21 24 59 54 83 67
42 20 59 22 230 22 102 0 210 5 239 10 125 24 237 111 293 229 30 66 31 67 36
281 7 242 15 274 84 343 69 69 103 80 268 85 l147 4 3 -212 c3 -209 3 -212 27
-231 13 -10 33 -19 45 -19 27 1 635 466 655 502 29 51 40 41 -552 491 -48 37
-95 67 -103 67 -9 0 -29 -13 -45 -29z m359 -370 l172 -132 -197 -151 c-109
-83 -204 -155 -210 -161 -10 -7 -13 56 -13 313 l0 322 38 -30 c20 -16 115 -88
210 -161z"/>
<path d="M43 2490 c-41 -16 -55 -70 -29 -106 13 -17 32 -19 213 -25 228 -6
276 -19 338 -92 56 -66 67 -111 74 -310 7 -194 7 -197 67 -197 60 0 66 19 66
202 -1 118 -5 179 -17 222 -47 174 -163 276 -347 306 -76 12 -334 12 -365 0z"/>
<path d="M1610 1192 c-20 -16 -22 -26 -23 -177 -1 -227 25 -328 112 -427 81
-92 197 -131 393 -132 l127 -1 3 -208 c3 -206 3 -209 27 -228 13 -10 33 -19
45 -19 24 0 617 449 649 492 13 18 18 34 13 51 -4 18 -97 95 -323 267 -174
134 -325 245 -335 248 -10 2 -29 -8 -48 -26 l-30 -30 0 -208 0 -207 -139 5
c-132 4 -142 6 -205 37 -123 60 -156 143 -156 392 0 138 -2 158 -18 172 -24
22 -64 22 -92 -1z m965 -509 c113 -86 204 -157 203 -158 -22 -18 -397 -303
-406 -309 -9 -6 -12 62 -12 308 0 174 2 316 5 316 3 0 98 -70 210 -157z"/>
</g>
</svg>
