<?xml version="1.0" standalone="no"?>
<!DOCTYPE svg PUBLIC "-//W3C//DTD SVG 20010904//EN"
 "http://www.w3.org/TR/2001/REC-SVG-20010904/DTD/svg10.dtd">
<svg version="1.0" xmlns="http://www.w3.org/2000/svg"
 width="468pt" height="470pt" viewBox="0 0 468 470"
 preserveAspectRatio="xMidYMid meet">
<metadata>
Created by potrace 1.8, written by Peter Selinger 2001-2007
</metadata>
<g transform="translate(0,470) scale(0.159184,-0.159184)"
fill="#000000" stroke="none">
<path d="M1409 2922 c-19 -16 -263 -203 -544 -416 -280 -214 -525 -403 -543
-422 -66 -69 -27 -124 89 -124 l69 0 1 -922 c0 -688 3 -932 12 -957 7 -19 24
-43 38 -53 24 -18 57 -19 927 -18 667 0 909 4 928 12 56 26 54 -12 54 1002 l0
935 81 3 c76 3 83 5 102 30 33 44 16 71 -103 163 -445 343 -1034 786 -1054
791 -17 4 -33 -2 -57 -24z m921 -794 l35 -28 -903 0 -904 0 452 344 451 344
417 -316 c230 -175 433 -329 452 -344z m-20 -1078 l0 -910 -845 0 -845 0 0
910 0 910 845 0 845 0 0 -910z"/>
<path d="M1445 2749 c-11 -4 -182 -131 -380 -281 -367 -278 -386 -296 -355
-334 11 -12 120 -14 755 -14 801 0 771 -2 763 51 -2 16 -104 99 -358 291 -195
148 -366 275 -380 282 -16 9 -32 11 -45 5z m-76 -257 c49 -25 71 -60 78 -125
4 -42 1 -69 -12 -103 -23 -62 -61 -84 -142 -84 l-63 0 0 159 c0 144 2 160 18
164 39 10 89 6 121 -11z m324 6 c10 -8 15 -21 11 -34 -5 -19 -9 -20 -45 -10
-76 20 -125 -38 -113 -134 8 -65 27 -90 69 -90 l35 0 0 60 0 60 30 0 31 0 -3
-82 -3 -82 -38 -9 c-87 -21 -157 20 -177 103 -22 90 10 186 70 217 32 16 111
17 133 1z"/>
<path d="M1297 2453 c-4 -3 -7 -55 -7 -115 l0 -108 25 0 c53 0 87 80 66 158
-6 22 -17 44 -24 50 -18 14 -52 23 -60 15z"/>
<path d="M672 1934 c-22 -15 -22 -18 -22 -259 0 -241 0 -244 22 -259 20 -14
112 -16 793 -16 681 0 773 2 793 16 22 15 22 18 22 259 0 241 0 244 -22 259
-20 14 -112 16 -793 16 -681 0 -773 -2 -793 -16z m708 -109 c47 -24 65 -68 65
-160 0 -116 -35 -165 -118 -165 -71 0 -107 57 -107 169 0 84 20 134 64 155 39
20 60 20 96 1z m293 4 c28 -7 37 -15 33 -26 -3 -8 -6 -18 -6 -22 0 -3 -25 -6
-56 -6 -50 0 -59 -3 -77 -28 -16 -20 -21 -42 -21 -82 0 -68 26 -110 70 -110
28 0 29 1 32 58 3 56 4 57 32 57 l30 0 0 -79 c0 -73 -2 -79 -22 -85 -41 -11
-108 -6 -138 9 -81 42 -93 211 -20 284 40 39 80 48 143 30z"/>
<path d="M1292 1755 c-18 -38 -15 -156 4 -183 18 -27 45 -28 67 -4 23 25 32
118 15 167 -11 34 -18 40 -44 43 -24 2 -33 -2 -42 -23z"/>
<path d="M634 1375 c-3 -8 -3 -19 1 -25 8 -13 1633 -14 1654 -1 8 5 11 16 8
25 -6 14 -84 16 -832 16 -713 0 -826 -2 -831 -15z"/>
<path d="M667 1312 c-15 -16 -17 -49 -17 -258 0 -173 3 -243 12 -252 17 -17
1589 -17 1606 0 9 9 12 79 12 253 0 222 -2 243 -18 258 -17 16 -87 17 -799 17
-743 0 -781 -1 -796 -18z m1012 -93 c26 -9 30 -15 25 -33 -9 -28 -7 -28 -43
-15 -75 26 -132 -45 -116 -144 9 -48 46 -90 78 -85 19 3 22 10 25 61 3 56 4
57 32 57 l30 0 0 -79 0 -78 -31 -7 c-129 -25 -194 28 -194 159 0 84 23 131 75
157 40 21 74 23 119 7z m-249 -24 c0 -24 -2 -25 -65 -25 l-65 0 0 -40 0 -40
55 0 c52 0 55 -1 55 -25 0 -24 -3 -25 -55 -25 l-55 0 0 -45 0 -45 70 0 c68 0
70 -1 70 -25 0 -25 0 -25 -100 -25 l-100 0 0 160 0 160 95 0 c95 0 95 0 95
-25z"/>
<path d="M634 755 c-3 -8 -3 -19 1 -25 8 -13 1633 -14 1654 -1 8 5 11 16 8 25
-6 14 -84 16 -832 16 -713 0 -826 -2 -831 -15z"/>
<path d="M665 685 l-25 -24 0 -226 0 -226 25 -24 24 -25 773 0 c684 0 776 2
796 16 22 15 22 18 22 259 0 241 0 244 -22 259 -20 14 -112 16 -796 16 l-773
0 -24 -25z m1021 -108 c17 -9 20 -17 13 -34 -7 -20 -11 -21 -43 -11 -73 23
-123 -37 -113 -136 5 -54 39 -96 78 -96 17 0 19 7 19 65 l0 65 35 0 36 0 -3
-82 -3 -83 -48 -9 c-37 -7 -59 -6 -90 5 -116 40 -117 272 -2 319 30 13 97 11
121 -3z m-406 -63 c0 -60 2 -65 16 -53 9 7 30 37 46 66 27 48 33 53 65 53 l35
0 -23 -37 c-12 -21 -35 -54 -50 -73 l-27 -35 30 -35 c26 -31 78 -120 78 -135
0 -3 -15 -5 -34 -5 -28 0 -36 5 -46 30 -17 40 -67 110 -80 110 -6 0 -10 -30
-10 -70 l0 -70 -30 0 -30 0 0 160 0 160 30 0 30 0 0 -66z"/>
<path d="M3 755 c-3 -9 -1 -21 4 -26 5 -5 99 -8 229 -7 211 3 219 4 219 23 0
19 -8 20 -223 23 -195 2 -223 0 -229 -13z"/>
<path d="M2482 758 c-8 -8 -9 -15 -1 -25 9 -10 59 -13 223 -13 116 0 217 4
225 9 8 5 11 16 8 25 -6 14 -34 16 -225 16 -154 0 -221 -3 -230 -12z"/>
</g>
</svg>
