<?xml version="1.0" standalone="no"?>
<!DOCTYPE svg PUBLIC "-//W3C//DTD SVG 20010904//EN"
 "http://www.w3.org/TR/2001/REC-SVG-20010904/DTD/svg10.dtd">
<svg version="1.0" xmlns="http://www.w3.org/2000/svg"
 width="468pt" height="545pt" viewBox="0 0 468 545"
 preserveAspectRatio="xMidYMid meet">
<metadata>
Created by potrace 1.8, written by Peter Selinger 2001-2007
</metadata>
<g transform="translate(0,545) scale(0.237563,-0.237563)"
fill="#000000" stroke="none">
<path d="M451 2254 c-19 -24 -21 -40 -21 -150 l0 -124 -181 0 c-110 0 -188 -4
-201 -11 -48 -26 -48 -28 -48 -814 0 -786 0 -788 48 -814 13 -7 91 -11 201
-11 l181 0 0 -134 c0 -120 2 -136 21 -160 13 -17 30 -26 47 -26 20 0 212 142
742 548 703 537 715 548 718 584 4 44 94 -30 -798 652 -471 360 -642 486 -662
486 -17 0 -34 -10 -47 -26z m737 -654 c487 -371 591 -455 580 -465 -10 -10
-908 -697 -1160 -889 l-38 -28 0 927 c0 740 3 926 13 918 6 -5 279 -214 605
-463z m-768 -450 l0 -690 -145 0 -145 0 0 690 0 690 145 0 145 0 0 -690z"/>
</g>
</svg>
