<?xml version="1.0" standalone="no"?>
<!DOCTYPE svg PUBLIC "-//W3C//DTD SVG 20010904//EN"
 "http://www.w3.org/TR/2001/REC-SVG-20010904/DTD/svg10.dtd">
<svg version="1.0" xmlns="http://www.w3.org/2000/svg"
 width="468pt" height="470pt" viewBox="0 0 468 470"
 preserveAspectRatio="xMidYMid meet">
<metadata>
Created by potrace 1.8, written by Peter Selinger 2001-2007
</metadata>
<g transform="translate(0,470) scale(0.159184,-0.159184)"
fill="#000000" stroke="none">
<path d="M1409 2922 c-19 -16 -263 -203 -544 -416 -280 -214 -525 -403 -543
-422 -66 -69 -27 -124 89 -124 l69 0 1 -922 c0 -688 3 -932 12 -957 7 -19 24
-43 38 -53 24 -18 57 -19 927 -18 667 0 909 4 928 12 56 26 54 -12 54 1002 l0
935 81 3 c76 3 83 5 102 30 33 44 16 71 -103 163 -445 343 -1034 786 -1054
791 -17 4 -33 -2 -57 -24z m921 -794 l35 -28 -903 0 -904 0 452 344 451 344
417 -316 c230 -175 433 -329 452 -344z m-20 -1078 l0 -910 -845 0 -845 0 0
910 0 910 845 0 845 0 0 -910z"/>
<path d="M634 1375 c-3 -8 -3 -19 1 -25 8 -13 1633 -14 1654 -1 8 5 11 16 8
25 -6 14 -84 16 -832 16 -713 0 -826 -2 -831 -15z"/>
<path d="M634 755 c-3 -8 -3 -19 1 -25 8 -13 1633 -14 1654 -1 8 5 11 16 8 25
-6 14 -84 16 -832 16 -713 0 -826 -2 -831 -15z"/>
<path d="M665 685 l-25 -24 0 -226 0 -226 25 -24 24 -25 773 0 c684 0 776 2
796 16 22 15 22 18 22 259 0 241 0 244 -22 259 -20 14 -112 16 -796 16 l-773
0 -24 -25z m1021 -108 c17 -9 20 -17 13 -34 -7 -20 -11 -21 -43 -11 -73 23
-123 -37 -113 -136 5 -54 39 -96 78 -96 17 0 19 7 19 65 l0 65 35 0 36 0 -3
-82 -3 -83 -48 -9 c-37 -7 -59 -6 -90 5 -116 40 -117 272 -2 319 30 13 97 11
121 -3z m-406 -63 c0 -60 2 -65 16 -53 9 7 30 37 46 66 27 48 33 53 65 53 l35
0 -23 -37 c-12 -21 -35 -54 -50 -73 l-27 -35 30 -35 c26 -31 78 -120 78 -135
0 -3 -15 -5 -34 -5 -28 0 -36 5 -46 30 -17 40 -67 110 -80 110 -6 0 -10 -30
-10 -70 l0 -70 -30 0 -30 0 0 160 0 160 30 0 30 0 0 -66z"/>
<path d="M3 755 c-3 -9 -1 -21 4 -26 5 -5 99 -8 229 -7 211 3 219 4 219 23 0
19 -8 20 -223 23 -195 2 -223 0 -229 -13z"/>
<path d="M2482 758 c-8 -8 -9 -15 -1 -25 9 -10 59 -13 223 -13 116 0 217 4
225 9 8 5 11 16 8 25 -6 14 -34 16 -225 16 -154 0 -221 -3 -230 -12z"/>
</g>
</svg>
