<?xml version="1.0" standalone="no"?>
<!DOCTYPE svg PUBLIC "-//W3C//DTD SVG 20010904//EN"
 "http://www.w3.org/TR/2001/REC-SVG-20010904/DTD/svg10.dtd">
<svg version="1.0" xmlns="http://www.w3.org/2000/svg"
 width="468pt" height="464pt" viewBox="0 0 468 464"
 preserveAspectRatio="xMidYMid meet">
<metadata>
Created by potrace 1.8, written by Peter Selinger 2001-2007
</metadata>
<g transform="translate(0,464) scale(0.157576,-0.157576)"
fill="#000000" stroke="none">
<path d="M1435 2921 c-11 -10 -279 -216 -595 -456 -316 -240 -585 -448 -597
-462 -28 -30 -29 -67 -3 -93 18 -18 33 -20 140 -20 l120 0 0 -894 c0 -628 3
-902 11 -925 22 -63 -22 -60 966 -61 701 -1 906 2 927 11 58 27 56 -12 56 968
l0 900 126 3 c125 3 127 3 147 30 30 41 11 72 -91 150 -48 36 -298 227 -557
424 -595 453 -583 444 -609 444 -12 0 -30 -9 -41 -19z m525 -502 c261 -198
482 -367 490 -375 12 -12 -115 -14 -970 -14 -966 1 -985 1 -960 19 14 11 234
179 490 375 256 195 467 355 470 355 3 1 219 -162 480 -360z m370 -1409 l0
-870 -845 0 -845 0 0 870 0 870 845 0 845 0 0 -870z"/>
<path d="M650 1010 c0 -20 4 -20 833 -18 732 3 832 5 832 18 0 13 -100 15
-832 18 -829 2 -833 2 -833 -18z"/>
<path d="M676 948 c-14 -19 -16 -73 -16 -381 l0 -358 25 -24 24 -25 773 0
c684 0 776 2 796 16 l22 15 0 374 c0 326 -2 376 -16 389 -14 14 -100 16 -804
16 l-789 0 -15 -22z m624 -294 c0 -81 10 -80 59 4 32 55 39 61 69 62 17 0 32
-3 32 -7 0 -3 -22 -39 -49 -79 -48 -71 -49 -73 -30 -90 24 -21 75 -101 84
-131 6 -21 3 -23 -27 -23 -30 0 -36 5 -51 38 -9 21 -33 56 -52 78 l-34 39 -1
-77 0 -78 -30 0 -30 0 0 165 0 165 30 0 30 0 0 -66z m410 56 c12 -6 16 -17 13
-30 -5 -18 -11 -20 -52 -14 -41 5 -51 3 -76 -18 -23 -20 -29 -34 -32 -79 -6
-74 19 -123 65 -127 l32 -3 0 60 0 61 35 0 35 0 0 -79 c0 -44 -4 -83 -10 -86
-5 -3 -37 -7 -70 -8 -69 -2 -104 18 -132 74 -39 75 -10 211 50 244 31 16 115
20 142 5z"/>
<path d="M20 1015 c0 -9 10 -20 23 -25 12 -5 17 -9 10 -9 -22 -2 -36 -41 -24
-68 11 -23 12 -24 148 -21 l138 3 10 29 c8 24 6 31 -14 47 -23 19 -23 19 73
19 89 0 96 1 96 20 0 19 -7 20 -230 20 -200 0 -230 -2 -230 -15z"/>
<path d="M2495 1020 c-15 -25 13 -30 156 -30 l149 0 -6 -27 c-4 -16 -10 -29
-13 -31 -48 -21 -56 -30 -55 -60 2 -24 -2 -32 -15 -32 -23 0 -41 39 -30 66 5
14 2 29 -7 43 -13 18 -25 21 -78 21 -35 0 -67 -5 -74 -12 -15 -15 -15 -51 0
-66 8 -8 8 -15 -1 -26 -31 -37 14 -76 88 -76 31 0 40 -5 49 -25 11 -23 16 -25
88 -25 l76 0 -29 -23 c-15 -13 -36 -26 -45 -30 -11 -4 -18 -17 -18 -32 0 -22
-4 -25 -34 -25 -38 0 -66 -21 -66 -50 0 -42 25 -50 151 -50 106 0 121 2 139
20 25 25 25 31 -1 64 -17 21 -18 26 -5 26 26 0 49 45 36 69 -6 12 -15 21 -20
21 -6 0 -1 9 10 20 43 43 9 90 -65 90 -40 0 -41 1 -37 30 4 28 7 30 48 30 51
0 91 30 78 58 -4 9 -7 29 -6 45 l1 27 -229 0 c-142 0 -231 -4 -235 -10z"/>
<path d="M360 956 c-18 -22 -8 -59 20 -73 22 -11 13 -13 -71 -13 -80 0 -101
-3 -121 -19 -16 -13 -29 -17 -39 -10 -28 17 -68 10 -85 -16 -15 -23 -15 -27 0
-50 20 -31 67 -34 96 -5 11 11 22 15 25 10 7 -12 254 -13 271 -2 26 17 26 51
0 75 -24 22 -24 23 -5 35 21 14 25 52 7 70 -17 17 -83 15 -98 -2z"/>
<path d="M190 730 c-8 -5 -33 -10 -56 -10 -47 0 -80 -27 -71 -59 3 -14 -1 -22
-14 -26 -32 -10 -43 -42 -24 -71 14 -21 23 -24 80 -24 71 0 88 14 83 68 -3 26
-1 27 50 30 50 3 52 2 52 -22 0 -32 26 -46 87 -46 65 0 80 13 88 82 9 80 -5
88 -150 88 -60 0 -117 -5 -125 -10z"/>
<path d="M2524 730 c-24 -9 -36 -41 -23 -61 4 -8 6 -24 2 -37 -3 -14 1 -30 12
-42 32 -36 105 -19 105 23 0 13 9 26 23 32 31 14 35 58 5 79 -24 17 -89 20
-124 6z"/>
<path d="M91 498 c-5 -13 -5 -32 -1 -43 6 -18 18 -20 98 -23 84 -3 92 -1 102
19 9 16 9 28 1 45 -10 23 -16 24 -101 24 -85 0 -91 -1 -99 -22z"/>
<path d="M352 508 c-15 -15 -15 -51 0 -66 7 -7 28 -12 48 -12 41 0 60 14 60
45 0 31 -19 45 -60 45 -20 0 -41 -5 -48 -12z"/>
<path d="M2531 507 c-6 -7 -9 -36 -8 -62 2 -42 6 -51 27 -62 51 -26 133 -11
145 26 5 18 15 21 55 21 58 0 80 24 61 66 -10 23 -14 24 -140 24 -94 0 -131
-4 -140 -13z"/>
<path d="M185 385 c-14 -16 -26 -22 -30 -15 -8 13 -100 13 -126 0 -26 -14 -26
-66 0 -80 11 -5 40 -10 66 -10 36 0 51 5 70 25 14 16 26 22 30 15 3 -5 37 -10
75 -10 63 0 69 -2 72 -22 4 -33 49 -55 85 -42 25 8 29 16 36 69 12 86 -1 95
-145 95 -104 0 -110 -1 -133 -25z"/>
<path d="M2768 399 c-22 -12 -24 -62 -4 -78 9 -8 45 -11 97 -9 82 3 84 4 94
32 15 44 -19 66 -104 66 -36 0 -74 -5 -83 -11z"/>
<path d="M2508 326 c-14 -32 -5 -54 29 -67 39 -15 114 -5 130 17 34 46 2 74
-83 74 -59 0 -65 -2 -76 -24z"/>
<path d="M2809 271 c-16 -13 -33 -17 -55 -14 -39 6 -74 -11 -74 -37 0 -18 -7
-20 -78 -20 -83 0 -102 -9 -102 -46 0 -40 20 -45 161 -42 l134 3 3 40 3 40 65
-3 c41 -2 70 1 79 8 22 18 19 67 -4 80 -33 17 -106 12 -132 -9z"/>
<path d="M25 236 c-13 -19 -14 -29 -5 -45 15 -29 40 -33 167 -29 103 3 110 2
102 -14 -6 -12 -6 -25 1 -37 5 -11 7 -33 4 -50 -10 -48 8 -61 82 -61 53 0 65
3 78 21 10 15 12 28 6 45 -5 13 -7 37 -4 53 9 41 -28 64 -94 59 -47 -3 -48 -3
-44 25 8 51 -8 57 -149 57 -125 0 -129 -1 -144 -24z"/>
<path d="M138 120 c-9 -14 -24 -20 -48 -20 -44 0 -80 -24 -80 -54 0 -36 19
-46 87 -46 56 0 64 3 79 25 9 14 24 25 33 25 36 0 55 52 29 78 -20 20 -86 15
-100 -8z"/>
<path d="M2522 84 c-43 -30 -17 -84 42 -84 39 0 56 15 56 52 0 45 -54 63 -98
32z"/>
<path d="M2660 80 c-24 -24 -24 -29 -4 -58 14 -21 22 -22 143 -22 134 0 151 5
151 46 0 42 -34 54 -157 54 -100 0 -115 -2 -133 -20z"/>
</g>
</svg>
