<?xml version="1.0" standalone="no"?>
<!DOCTYPE svg PUBLIC "-//W3C//DTD SVG 20010904//EN"
 "http://www.w3.org/TR/2001/REC-SVG-20010904/DTD/svg10.dtd">
<svg version="1.0" xmlns="http://www.w3.org/2000/svg"
 width="468pt" height="474pt" viewBox="0 0 468 474"
 preserveAspectRatio="xMidYMid meet">
<metadata>
Created by potrace 1.8, written by Peter Selinger 2001-2007
</metadata>
<g transform="translate(0,474) scale(0.200000,-0.200000)"
fill="#000000" stroke="none">
<path d="M1002 2354 c-18 -9 -43 -31 -55 -48 -22 -31 -22 -35 -25 -458 l-3
-428 -397 0 c-444 0 -443 0 -490 -70 -22 -33 -23 -42 -20 -177 l3 -143 38 -37
37 -38 415 -3 415 -3 0 -422 c0 -403 1 -423 20 -455 37 -61 70 -72 210 -72
150 0 182 12 218 80 22 44 22 49 22 457 l0 413 424 0 c422 0 423 0 456 23 57
39 70 76 70 206 0 143 -19 192 -84 222 -38 17 -73 19 -453 19 l-413 0 0 418
c0 459 0 460 -63 506 -25 18 -45 21 -160 24 -107 2 -138 -1 -165 -14z m258
-599 l0 -475 470 0 470 0 0 -100 0 -100 -475 0 -475 0 0 -475 0 -476 -97 3
-98 3 0 473 0 472 -457 0 -458 0 0 100 0 100 457 2 458 3 -4 473 -3 472 106 0
106 0 0 -475z"/>
</g>
</svg>
