<?xml version="1.0" standalone="no"?>
<!DOCTYPE svg PUBLIC "-//W3C//DTD SVG 20010904//EN"
 "http://www.w3.org/TR/2001/REC-SVG-20010904/DTD/svg10.dtd">
<svg version="1.0" xmlns="http://www.w3.org/2000/svg"
 width="468pt" height="269pt" viewBox="0 0 468 269"
 preserveAspectRatio="xMidYMid meet">
<metadata>
Created by potrace 1.8, written by Peter Selinger 2001-2007
</metadata>
<g transform="translate(0,269) scale(0.158644,-0.158644)"
fill="#000000" stroke="none">
<path d="M965 1684 c-11 -3 -54 -16 -95 -29 -41 -13 -102 -29 -135 -35 -123
-24 -185 -67 -185 -128 0 -48 281 -689 316 -719 32 -29 75 -29 173 -2 174 49
169 30 125 440 -49 461 -51 468 -134 474 -25 2 -54 1 -65 -1z m29 -186 c6 -44
54 -499 59 -552 2 -27 -1 -30 -48 -42 -27 -7 -53 -10 -57 -6 -11 11 -251 562
-247 566 5 4 260 74 275 75 7 1 14 -18 18 -41z"/>
<path d="M1392 1655 c-20 -9 -38 -27 -46 -47 -13 -31 -86 -661 -86 -736 0 -43
14 -68 49 -86 37 -19 181 -56 220 -56 57 0 82 37 201 310 204 463 196 439 155
489 -28 32 -71 49 -205 80 -47 11 -104 27 -127 35 -67 24 -124 28 -161 11z
m219 -172 c76 -20 139 -41 139 -47 0 -9 -237 -556 -245 -564 -1 -1 -25 3 -54
10 -35 8 -51 16 -51 27 -1 31 64 611 68 611 2 0 66 -16 143 -37z"/>
<path d="M2685 1440 c-10 -4 -78 -66 -150 -139 l-131 -133 -98 96 c-105 103
-139 120 -192 94 -18 -8 -107 -120 -248 -313 -204 -278 -220 -303 -221 -342 0
-38 6 -48 58 -100 31 -32 57 -63 57 -68 0 -5 -59 -69 -131 -141 -113 -114
-130 -136 -124 -156 17 -57 -2 -53 710 -149 368 -49 677 -87 687 -83 10 3 25
16 34 28 13 21 7 83 -76 696 -67 498 -94 678 -106 691 -19 21 -43 28 -69 19z
m45 -759 c38 -288 68 -526 66 -528 -2 -2 -240 28 -529 67 -289 38 -531 70
-539 70 -7 0 198 211 457 469 259 259 471 465 472 458 2 -7 34 -248 73 -536z
m-495 459 l70 -70 -215 -215 c-118 -118 -220 -215 -225 -215 -6 0 -26 15 -44
34 l-33 34 184 251 c100 138 185 251 188 251 3 0 37 -32 75 -70z"/>
<path d="M245 1381 c-50 -31 -233 -225 -240 -254 -4 -15 -4 -39 0 -54 4 -18
99 -121 273 -295 250 -251 270 -268 303 -268 41 0 90 32 155 101 108 115 110
108 -93 386 -92 125 -186 256 -210 290 -78 111 -124 134 -188 94z m86 -188
c20 -27 102 -139 184 -251 l148 -204 -39 -39 -39 -39 -220 220 -220 220 70 70
c38 38 72 70 75 70 3 0 22 -21 41 -47z"/>
</g>
</svg>
