<?xml version="1.0" standalone="no"?>
<!DOCTYPE svg PUBLIC "-//W3C//DTD SVG 20010904//EN"
 "http://www.w3.org/TR/2001/REC-SVG-20010904/DTD/svg10.dtd">
<svg version="1.0" xmlns="http://www.w3.org/2000/svg"
 width="468pt" height="473pt" viewBox="0 0 468 473"
 preserveAspectRatio="xMidYMid meet">
<metadata>
Created by potrace 1.8, written by Peter Selinger 2001-2007
</metadata>
<g transform="translate(0,473) scale(0.240000,-0.240000)"
fill="#000000" stroke="none">
<path d="M20 1940 c-11 -11 -20 -23 -20 -27 0 -5 54 -408 119 -897 125 -931
123 -920 171 -926 38 -5 54 6 136 90 l88 91 125 -125 c70 -68 136 -129 149
-136 55 -27 70 -14 614 528 285 284 525 531 533 548 31 66 25 77 -117 221
l-132 133 98 99 c83 84 97 102 94 126 -7 59 11 56 -915 180 -474 63 -876 115
-893 115 -17 0 -39 -9 -50 -20z m1634 -330 c3 -3 -289 -300 -649 -660 -360
-360 -655 -649 -655 -641 0 13 -184 1396 -196 1472 l-5 35 750 -100 c412 -56
752 -103 755 -106z m51 -380 l100 -100 -485 -485 c-267 -267 -489 -485 -495
-485 -5 0 -54 44 -107 97 l-98 98 487 487 c269 269 490 488 493 488 3 0 50
-45 105 -100z"/>
</g>
</svg>
