<?xml version="1.0" standalone="no"?>
<!DOCTYPE svg PUBLIC "-//W3C//DTD SVG 20010904//EN"
 "http://www.w3.org/TR/2001/REC-SVG-20010904/DTD/svg10.dtd">
<svg version="1.0" xmlns="http://www.w3.org/2000/svg"
 width="296.000000pt" height="167.000000pt" viewBox="0 0 296.000000 167.000000"
 preserveAspectRatio="xMidYMid meet">
<metadata>
Created by potrace 1.14, written by Peter Selinger 2001-2017
</metadata>
<g transform="translate(0.000000,167.000000) scale(0.100000,-0.100000)"
fill="#000000" stroke="none">
<path d="M63 1655 c-39 -17 -53 -42 -53 -94 0 -28 7 -48 24 -68 l24 -28 1420
0 c1373 0 1421 1 1441 19 11 10 25 34 31 52 10 28 8 40 -7 71 -10 21 -29 43
-43 50 -39 20 -2792 18 -2837 -2z"/>
<path d="M64 940 c-34 -13 -54 -50 -54 -98 0 -60 30 -88 101 -97 30 -3 666 -5
1414 -3 1109 2 1364 5 1383 16 31 18 53 73 46 112 -4 17 -20 42 -36 55 l-30
25 -1401 -1 c-771 0 -1412 -4 -1423 -9z"/>
<path d="M49 187 c-48 -37 -53 -115 -10 -158 l29 -29 1410 0 1410 0 30 25 c16
13 32 38 36 55 7 38 -15 94 -42 109 -31 17 -2841 15 -2863 -2z"/>
</g>
</svg>
