<?xml version="1.0" standalone="no"?>
<!DOCTYPE svg PUBLIC "-//W3C//DTD SVG 20010904//EN"
 "http://www.w3.org/TR/2001/REC-SVG-20010904/DTD/svg10.dtd">
<svg version="1.0" xmlns="http://www.w3.org/2000/svg"
 width="468pt" height="468pt" viewBox="0 0 468 468"
 preserveAspectRatio="xMidYMid meet">
<metadata>
Created by potrace 1.8, written by Peter Selinger 2001-2007
</metadata>
<g transform="translate(0,468) scale(0.157576,-0.157576)"
fill="#000000" stroke="none">
<path d="M796 2665 c-242 -162 -447 -302 -458 -311 -38 -35 -11 -114 40 -114
15 0 47 14 72 30 l45 30 5 -1109 c5 -1091 5 -1109 25 -1131 11 -12 31 -27 45
-32 40 -15 1801 -12 1835 4 58 26 55 -31 55 1179 0 959 2 1110 14 1106 8 -3
62 -20 121 -37 98 -29 107 -31 129 -17 34 22 42 64 19 96 -17 21 -114 53 -746
240 l-726 216 24 23 c47 44 24 122 -36 122 -16 0 -183 -107 -463 -295z m892
-120 c301 -91 568 -173 595 -181 l47 -16 0 -76 c0 -42 -4 -71 -8 -64 -7 10
-181 12 -838 10 -729 -3 -829 -5 -829 -18 0 -13 100 -15 838 -15 l837 0 0
-245 0 -245 -837 0 c-738 0 -838 -2 -838 -15 0 -13 100 -15 829 -18 657 -2
831 0 838 10 4 7 8 -332 8 -754 l0 -768 -845 0 -845 0 0 1123 1 1122 237 157
c130 87 243 158 250 158 7 0 259 -74 560 -165z"/>
<path d="M676 1634 c-14 -13 -16 -47 -16 -213 0 -140 3 -200 12 -209 9 -9 203
-12 809 -12 712 0 799 2 813 16 13 13 16 46 16 208 0 174 -2 195 -18 209 -17
16 -88 17 -810 17 -705 0 -792 -2 -806 -16z m968 -68 c88 -37 89 -258 1 -300
-96 -46 -170 50 -151 192 7 52 31 91 67 109 31 16 42 16 83 -1z m279 3 c33 -9
37 -13 31 -32 -9 -30 -8 -29 -39 -17 -55 21 -101 -11 -111 -77 -9 -64 9 -118
45 -133 42 -17 51 -7 51 56 0 53 0 54 30 54 l30 0 0 -74 c0 -42 -5 -78 -11
-81 -5 -4 -37 -8 -71 -8 -57 -2 -61 0 -93 34 -75 82 -46 251 48 278 43 12 46
12 90 0z m-783 -129 l0 -130 30 0 c25 0 30 -4 30 -25 0 -25 0 -25 -95 -25 -95
0 -95 0 -95 25 0 22 4 25 35 25 l35 0 0 86 c0 78 -2 85 -17 79 -43 -17 -51
-17 -58 6 -5 14 -3 25 3 27 6 2 28 16 49 32 21 16 48 29 61 29 22 1 22 -1 22
-129z m240 -114 c6 -8 10 -25 8 -38 -2 -19 -9 -23 -38 -23 -31 0 -35 3 -38 29
-5 42 41 64 68 32z"/>
<path d="M1574 1516 c-16 -12 -19 -27 -19 -101 0 -74 3 -89 19 -101 26 -18 32
-18 56 6 16 16 20 33 20 95 0 62 -4 79 -20 95 -24 24 -30 24 -56 6z"/>
<path d="M661 1181 c-8 -5 -11 -16 -8 -25 6 -14 84 -16 832 -16 748 0 826 2
832 16 3 9 0 20 -8 25 -18 11 -1630 11 -1648 0z"/>
<path d="M650 650 c0 -20 4 -20 833 -18 732 3 832 5 832 18 0 13 -100 15 -832
18 -829 2 -833 2 -833 -18z"/>
<path d="M15 660 c-13 -22 9 -30 83 -31 70 -2 73 -2 29 -8 -53 -8 -70 -24 -62
-58 4 -16 1 -23 -9 -23 -14 0 -46 -36 -46 -52 0 -5 9 -17 20 -28 15 -15 33
-20 73 -20 67 0 93 22 82 69 l-7 31 56 0 c47 0 56 -3 56 -18 0 -10 5 -23 12
-30 17 -17 132 -16 147 1 6 8 12 41 13 75 2 34 6 62 11 62 4 0 7 9 7 20 0 19
-7 20 -229 20 -143 0 -232 -4 -236 -10z"/>
<path d="M2495 660 c-3 -5 -3 -15 1 -22 4 -7 7 -39 6 -72 -2 -71 8 -86 57 -86
40 0 61 14 61 41 0 10 9 21 20 24 21 7 36 45 26 70 -4 12 6 15 59 15 69 0 82
-11 38 -32 -19 -9 -29 -22 -31 -41 -3 -24 -7 -27 -41 -27 -42 0 -61 -14 -61
-45 0 -40 17 -45 157 -45 121 0 133 2 143 19 14 28 13 38 -9 60 -20 20 -20 20
0 26 27 9 42 40 30 63 -7 13 -7 22 1 30 27 27 -7 32 -227 32 -138 0 -226 -4
-230 -10z"/>
<path d="M100 410 c-24 -24 -24 -29 -4 -58 13 -20 24 -22 94 -22 83 0 110 12
110 50 0 33 -39 50 -112 50 -55 0 -72 -4 -88 -20z"/>
<path d="M357 412 c-34 -38 -15 -82 36 -82 41 0 67 17 67 45 0 47 -71 72 -103
37z"/>
<path d="M2538 413 c-21 -23 -21 -98 -2 -118 10 -10 35 -15 74 -15 51 0 61 3
78 25 15 19 29 25 60 25 31 0 45 5 56 22 20 29 20 34 -4 58 -18 18 -33 20
-133 20 -96 0 -116 -3 -129 -17z"/>
<path d="M189 291 c-10 -16 -21 -17 -80 -13 -75 5 -99 -5 -99 -42 0 -36 20
-46 87 -46 52 0 64 3 73 20 9 16 15 18 30 10 10 -5 45 -10 77 -10 56 0 59 -1
70 -30 10 -26 16 -30 51 -30 50 0 62 15 68 84 6 72 -2 76 -150 76 -102 0 -117
-2 -127 -19z"/>
<path d="M2762 298 c-19 -19 -15 -66 7 -78 11 -5 51 -10 90 -10 74 0 101 13
101 50 0 38 -27 50 -109 50 -46 0 -82 -5 -89 -12z"/>
<path d="M2522 244 c-26 -18 -28 -46 -6 -68 23 -24 126 -22 147 2 22 24 21 38
-3 62 -25 25 -105 27 -138 4z"/>
<path d="M2803 173 c-12 -12 -33 -18 -63 -18 -37 0 -47 -4 -55 -22 -9 -21 -17
-23 -78 -23 -83 0 -107 -11 -107 -48 0 -47 14 -52 150 -52 139 0 150 4 150 57
0 18 3 33 8 33 18 -1 32 -18 26 -34 -10 -26 24 -56 62 -56 42 0 72 37 55 69
-7 13 -8 22 -1 26 14 9 13 58 -2 73 -19 19 -125 15 -145 -5z"/>
<path d="M21 138 c-5 -13 -8 -25 -7 -28 3 -9 28 -64 36 -80 9 -19 76 -25 96
-9 8 6 14 20 14 30 0 17 8 19 65 19 56 0 65 -3 65 -18 0 -31 22 -42 85 -42 66
0 85 11 85 47 0 34 -41 56 -95 51 -36 -2 -45 0 -45 12 0 35 -22 40 -157 40
-129 0 -134 -1 -142 -22z"/>
</g>
</svg>
