<?xml version="1.0" standalone="no"?>
<!DOCTYPE svg PUBLIC "-//W3C//DTD SVG 20010904//EN"
 "http://www.w3.org/TR/2001/REC-SVG-20010904/DTD/svg10.dtd">
<svg version="1.0" xmlns="http://www.w3.org/2000/svg"
 width="469pt" height="471pt" viewBox="0 0 469 471"
 preserveAspectRatio="xMidYMid meet">
<metadata>
Created by potrace 1.8, written by Peter Selinger 2001-2007
</metadata>
<g transform="translate(0,471) scale(0.238776,-0.238776)"
fill="#000000" stroke="none">
<path d="M21 1933 c-15 -19 -20 -35 -16 -57 3 -17 57 -418 120 -891 114 -856
115 -860 141 -883 40 -35 65 -23 162 79 l85 90 126 -124 c69 -69 136 -130 149
-137 56 -28 61 -24 610 524 288 286 530 533 538 548 8 15 14 41 14 59 0 28
-18 50 -132 166 l-132 133 98 99 c83 84 97 102 94 126 -7 59 10 55 -919 179
-477 64 -878 116 -892 116 -16 0 -34 -10 -46 -27z m879 -218 c393 -52 726 -98
739 -101 22 -5 -44 -74 -630 -660 -360 -360 -655 -649 -656 -642 -2 7 -46 335
-98 728 -52 393 -97 727 -100 743 -3 21 -1 27 13 27 10 0 339 -43 732 -95z
m805 -485 l100 -100 -490 -490 -490 -490 -102 102 -103 103 487 487 c269 269
490 488 493 488 3 0 50 -45 105 -100z"/>
</g>
</svg>
