<?xml version="1.0" standalone="no"?>
<!DOCTYPE svg PUBLIC "-//W3C//DTD SVG 20010904//EN"
 "http://www.w3.org/TR/2001/REC-SVG-20010904/DTD/svg10.dtd">
<svg version="1.0" xmlns="http://www.w3.org/2000/svg"
 width="468pt" height="468pt" viewBox="0 0 468 468"
 preserveAspectRatio="xMidYMid meet">
<metadata>
Created by potrace 1.8, written by Peter Selinger 2001-2007
</metadata>
<g transform="translate(0,468) scale(0.157576,-0.157576)"
fill="#000000" stroke="none">
<path d="M2430 2961 c-301 -7 -311 -8 -363 -71 -42 -49 -48 -111 -45 -432 3
-281 4 -295 25 -335 51 -95 86 -103 458 -103 333 0 353 4 407 68 50 59 53 84
53 402 0 324 -3 344 -58 407 -60 68 -87 72 -477 64z m386 -113 c53 -29 55 -46
52 -370 -3 -280 -4 -297 -23 -318 -11 -12 -30 -26 -42 -31 -13 -5 -153 -9
-312 -9 -312 -2 -335 2 -363 53 -13 25 -12 594 2 631 8 23 36 50 60 59 8 3
146 5 305 4 252 -2 294 -4 321 -19z"/>
<path d="M2473 2779 l-23 -8 0 -274 c0 -288 1 -297 46 -297 43 0 44 13 42 300
-3 262 -4 273 -23 280 -11 4 -30 4 -42 -1z"/>
<path d="M31 2941 l-21 -21 0 -1402 c0 -1360 1 -1404 19 -1434 11 -18 40 -42
68 -55 l48 -24 515 0 515 0 48 24 c94 46 87 -25 87 898 l0 811 104 4 c85 2
108 6 125 22 26 23 27 67 4 94 -39 44 -1439 1096 -1465 1100 -17 3 -33 -3 -47
-17z m1149 -1995 c0 -715 -2 -794 -16 -800 -9 -3 -83 -6 -164 -6 l-149 0 -3
483 -3 482 -23 33 c-42 58 -60 62 -280 62 -190 0 -201 -1 -233 -23 -70 -46
-69 -38 -69 -564 l0 -473 -34 0 c-72 0 -66 -74 -66 806 l0 794 520 0 520 0 0
-794z m-470 -336 l0 -460 -165 0 -165 0 0 460 0 460 165 0 165 0 0 -460z"/>
<path d="M1570 820 c-14 -14 -20 -33 -20 -68 0 -42 -3 -50 -25 -60 -19 -9 -25
-19 -25 -42 0 -23 6 -33 25 -42 l25 -11 0 -169 c0 -162 -1 -168 -20 -168 -47
0 -47 -80 0 -95 16 -5 20 -15 20 -56 0 -36 5 -54 20 -69 43 -43 80 -13 80 66
0 51 1 54 25 54 22 0 25 -4 25 -39 0 -78 34 -116 80 -91 17 9 20 21 20 70 0
60 0 60 30 60 30 0 30 0 30 -60 0 -50 3 -61 21 -71 16 -8 28 -8 45 0 21 9 24
17 24 71 l0 60 30 0 30 0 0 -60 c0 -54 3 -62 24 -71 17 -8 29 -8 45 0 18 10
21 21 21 71 0 60 0 60 30 60 30 0 30 0 30 -60 0 -49 3 -61 20 -70 46 -25 80
13 80 91 0 35 3 39 25 39 24 0 25 -3 25 -60 0 -48 4 -61 19 -70 28 -14 38 -13
61 10 15 15 20 33 20 70 0 47 2 50 25 50 24 0 25 -3 25 -54 0 -79 37 -109 80
-66 15 15 20 33 20 70 0 47 2 50 25 50 24 0 25 -3 25 -53 0 -40 5 -58 18 -70
43 -39 82 -5 82 71 0 49 2 52 25 52 24 0 25 -3 25 -55 0 -47 3 -57 25 -71 23
-15 27 -15 50 0 22 14 25 24 25 71 0 51 2 55 23 55 26 0 52 17 60 41 9 27 -20
59 -54 59 l-29 0 0 170 c0 165 1 170 21 170 37 0 59 19 59 50 0 31 -22 50 -59
50 -19 0 -21 6 -21 55 0 47 -3 57 -25 71 -23 15 -27 15 -50 0 -22 -14 -25 -24
-25 -71 0 -52 -1 -55 -25 -55 -23 0 -25 3 -25 50 0 37 -5 55 -20 70 -24 24
-29 24 -58 4 -18 -12 -22 -25 -22 -70 0 -51 -1 -54 -25 -54 -23 0 -25 3 -25
50 0 37 -5 55 -20 70 -24 24 -29 24 -58 4 -18 -12 -22 -25 -22 -70 0 -51 -1
-54 -25 -54 -23 0 -25 3 -25 50 0 37 -5 55 -20 70 -24 24 -29 24 -58 4 -18
-12 -22 -25 -22 -70 0 -51 -1 -54 -25 -54 -22 0 -25 4 -25 39 0 78 -34 116
-80 91 -17 -9 -20 -21 -20 -70 0 -60 0 -60 -30 -60 -30 0 -30 0 -30 60 0 68
-18 88 -64 70 -24 -9 -26 -14 -26 -70 0 -60 0 -60 -30 -60 -29 0 -29 1 -32 61
-3 68 -20 85 -65 68 -20 -7 -23 -15 -23 -69 l0 -60 -30 0 -30 0 0 60 c0 55 -2
61 -25 70 -49 18 -75 -13 -75 -91 0 -35 -3 -39 -25 -39 -24 0 -25 3 -25 54 0
79 -37 109 -80 66z m130 -390 l0 -170 -25 0 -25 0 0 170 0 170 25 0 25 0 0
-170z m160 0 l0 -170 -30 0 -30 0 0 170 0 170 30 0 30 0 0 -170z m150 0 l0
-170 -30 0 -30 0 0 170 0 170 30 0 30 0 0 -170z m150 0 l0 -170 -30 0 -30 0 0
170 0 170 30 0 30 0 0 -170z m150 0 l0 -170 -25 0 -25 0 0 170 0 170 25 0 25
0 0 -170z m150 0 l0 -170 -25 0 -25 0 0 170 0 170 25 0 25 0 0 -170z m150 0
l0 -170 -25 0 -25 0 0 170 0 170 25 0 25 0 0 -170z m150 0 l0 -170 -25 0 -25
0 0 170 0 170 25 0 25 0 0 -170z"/>
</g>
</svg>
