<?xml version="1.0" standalone="no"?>
<!DOCTYPE svg PUBLIC "-//W3C//DTD SVG 20010904//EN"
 "http://www.w3.org/TR/2001/REC-SVG-20010904/DTD/svg10.dtd">
<svg version="1.0" xmlns="http://www.w3.org/2000/svg"
 width="468pt" height="607pt" viewBox="0 0 468 607"
 preserveAspectRatio="xMidYMid meet">
<metadata>
Created by potrace 1.8, written by Peter Selinger 2001-2007
</metadata>
<g transform="translate(0,607) scale(0.204367,-0.204367)"
fill="#000000" stroke="none">
<path d="M385 2955 c-22 -8 -45 -22 -52 -32 -17 -22 -18 -305 -2 -335 26 -48
28 -48 814 -48 786 0 788 0 814 48 15 28 14 294 0 326 -26 56 -24 56 -812 56
-597 -1 -729 -3 -762 -15z m1445 -200 l0 -75 -685 0 -685 0 0 75 0 75 685 0
685 0 0 -75z"/>
<path d="M380 2399 c-58 -24 -60 -29 -60 -199 0 -149 1 -157 23 -177 12 -12
40 -26 62 -32 57 -15 1419 -15 1481 0 77 20 84 38 84 210 0 142 -1 149 -24
176 l-24 28 -759 2 c-486 1 -767 -2 -783 -8z m1450 -199 l0 -80 -685 0 -685 0
0 80 0 80 685 0 685 0 0 -80z"/>
<path d="M380 1829 c-57 -23 -60 -32 -60 -166 l0 -123 -133 0 c-128 0 -134 -1
-156 -24 -14 -15 -21 -33 -19 -49 5 -39 1083 -1445 1113 -1453 13 -3 33 -3 44
1 21 6 1108 1421 1111 1446 4 27 0 39 -20 59 -18 18 -33 20 -155 20 l-135 0 0
116 c0 63 -5 124 -10 135 -27 50 -15 49 -812 48 -465 0 -752 -4 -768 -10z
m1450 -199 l0 -80 -685 0 -685 0 0 80 0 80 685 0 685 0 0 -80z m197 -287 c-24
-32 -227 -299 -452 -593 -224 -294 -413 -541 -420 -548 -9 -10 -99 102 -446
554 -239 313 -447 585 -462 606 l-29 38 927 0 926 0 -44 -57z"/>
</g>
</svg>
