<?xml version="1.0" standalone="no"?>
<!DOCTYPE svg PUBLIC "-//W3C//DTD SVG 20010904//EN"
 "http://www.w3.org/TR/2001/REC-SVG-20010904/DTD/svg10.dtd">
<svg version="1.0" xmlns="http://www.w3.org/2000/svg"
 width="469pt" height="405pt" viewBox="0 0 469 405"
 preserveAspectRatio="xMidYMid meet">
<metadata>
Created by potrace 1.8, written by Peter Selinger 2001-2007
</metadata>
<g transform="translate(0,405) scale(0.205263,-0.205263)"
fill="#000000" stroke="none">
<path d="M1097 1948 c-12 -13 -262 -337 -556 -722 -385 -504 -533 -705 -533
-724 0 -51 30 -62 173 -62 l129 0 0 -184 c0 -216 4 -227 91 -245 69 -15 1399
-15 1468 0 87 18 91 29 91 245 l0 184 138 0 c132 0 140 1 160 23 12 13 22 33
22 44 0 20 -1062 1423 -1098 1451 -24 19 -61 14 -85 -10z m525 -783 l444 -580
-464 -3 c-255 -1 -670 -1 -922 0 l-457 3 460 603 c461 603 461 604 478 580 10
-13 217 -284 461 -603z m208 -880 l0 -145 -695 0 -695 0 0 145 0 145 695 0
695 0 0 -145z"/>
</g>
</svg>
