<?xml version="1.0" standalone="no"?>
<!DOCTYPE svg PUBLIC "-//W3C//DTD SVG 20010904//EN"
 "http://www.w3.org/TR/2001/REC-SVG-20010904/DTD/svg10.dtd">
<svg version="1.0" xmlns="http://www.w3.org/2000/svg"
 width="468pt" height="268pt" viewBox="0 0 468 268"
 preserveAspectRatio="xMidYMid meet">
<metadata>
Created by potrace 1.8, written by Peter Selinger 2001-2007
</metadata>
<g transform="translate(0,268) scale(0.158108,-0.158108)"
fill="#000000" stroke="none">
<path d="M1878 1670 c-14 -10 -30 -39 -37 -62 -12 -46 -81 -653 -81 -716 0
-73 34 -98 182 -131 89 -21 99 -21 126 -7 36 18 36 20 208 411 88 199 128 302
128 328 1 66 -23 79 -254 142 -113 30 -215 55 -226 55 -12 0 -33 -9 -46 -20z
m234 -166 c76 -21 138 -42 138 -48 0 -10 -237 -555 -245 -564 -5 -6 -95 21
-101 29 -6 10 57 619 65 619 2 0 66 -16 143 -36z"/>
<path d="M1292 1612 c-235 -66 -248 -74 -239 -152 3 -25 47 -137 97 -250 50
-113 114 -257 141 -321 61 -141 82 -164 147 -163 53 2 209 49 233 71 9 8 19
26 22 41 9 41 -72 750 -88 782 -14 27 -61 51 -94 49 -9 -1 -108 -26 -219 -57z
m198 -95 c0 -1 13 -126 30 -277 16 -151 31 -290 32 -309 3 -32 1 -34 -46 -48
-27 -8 -52 -11 -56 -6 -12 12 -253 563 -249 567 6 4 262 74 277 75 6 1 12 0
12 -2z"/>
<path d="M223 1435 c-17 -7 -34 -22 -37 -32 -9 -30 -176 -1299 -176 -1337 0
-27 6 -40 25 -52 23 -15 65 -10 696 74 615 83 673 92 695 113 45 42 34 62
-106 204 l-130 131 46 44 c71 69 90 122 63 171 -24 46 -403 557 -434 587 -62
58 -100 44 -225 -82 l-85 -86 -135 134 c-74 73 -142 136 -151 139 -8 2 -29 -1
-46 -8z m1000 -1142 c-9 -3 -1052 -143 -1062 -143 -5 0 125 1009 138 1070 1 3
210 -204 466 -460 256 -256 462 -466 458 -467z m-248 676 c97 -133 179 -247
181 -253 2 -6 -11 -27 -31 -46 l-35 -34 -220 219 -220 220 67 67 c37 38 71 68
75 68 3 0 86 -109 183 -241z"/>
<path d="M2593 1373 c-16 -16 -40 -44 -54 -63 -14 -19 -105 -144 -202 -276
-97 -133 -181 -254 -187 -269 -18 -46 4 -85 94 -173 130 -127 104 -138 424
181 146 144 270 277 278 294 12 28 12 38 0 67 -14 34 -187 216 -235 248 -39
27 -84 23 -118 -9z m142 -203 l70 -70 -220 -220 -220 -220 -38 39 -39 38 184
251 c100 138 185 251 188 252 3 0 37 -32 75 -70z"/>
</g>
</svg>
