<?xml version="1.0" standalone="no"?>
<!DOCTYPE svg PUBLIC "-//W3C//DTD SVG 20010904//EN"
 "http://www.w3.org/TR/2001/REC-SVG-20010904/DTD/svg10.dtd">
<svg version="1.0" xmlns="http://www.w3.org/2000/svg"
 width="468pt" height="470pt" viewBox="0 0 468 470"
 preserveAspectRatio="xMidYMid meet">
<metadata>
Created by potrace 1.8, written by Peter Selinger 2001-2007
</metadata>
<g transform="translate(0,470) scale(0.159727,-0.159727)"
fill="#000000" stroke="none">
<path d="M1327 2929 c-110 -26 -209 -109 -260 -217 l-32 -67 -3 -630 -3 -630
-504 -505 c-277 -278 -509 -518 -514 -533 -16 -40 -13 -94 5 -132 8 -18 52
-69 97 -113 95 -92 137 -111 210 -92 37 10 101 70 552 521 l510 509 630 2 630
3 66 32 c80 39 150 111 187 191 l27 57 3 639 c3 705 3 699 -60 798 -40 63 -89
105 -168 142 l-65 31 -635 2 c-350 1 -652 -3 -673 -8z m1332 -154 c61 -30 107
-85 126 -149 23 -76 22 -1199 -1 -1275 -18 -61 -69 -123 -128 -154 -41 -22
-46 -22 -650 -25 -672 -3 -675 -3 -749 59 -21 17 -49 53 -62 80 l-25 48 0 626
c0 678 -2 657 55 731 13 18 48 44 77 58 l52 26 628 0 629 0 48 -25z m-1514
-1621 c22 -22 51 -48 65 -57 l25 -17 -470 -470 c-258 -259 -477 -470 -485
-470 -16 0 -150 129 -150 145 0 5 213 223 473 483 463 463 472 472 487 450 8
-13 32 -41 55 -64z"/>
<path d="M1940 2552 c-56 -28 -60 -45 -60 -264 l0 -198 -206 0 -206 0 -29 -29
c-41 -41 -41 -101 0 -142 l29 -29 206 0 206 0 0 -197 c0 -222 4 -238 63 -267
34 -16 42 -17 75 -4 64 24 72 53 72 276 l0 192 205 0 c204 0 206 0 230 24 45
45 45 107 0 152 -24 24 -26 24 -230 24 l-205 0 0 190 c0 239 -8 264 -91 283
-15 4 -39 0 -59 -11z"/>
</g>
</svg>
