<?xml version="1.0" standalone="no"?>
<!DOCTYPE svg PUBLIC "-//W3C//DTD SVG 20010904//EN"
 "http://www.w3.org/TR/2001/REC-SVG-20010904/DTD/svg10.dtd">
<svg version="1.0" xmlns="http://www.w3.org/2000/svg"
 width="468pt" height="470pt" viewBox="0 0 468 470"
 preserveAspectRatio="xMidYMid meet">
<metadata>
Created by potrace 1.8, written by Peter Selinger 2001-2007
</metadata>
<g transform="translate(0,470) scale(0.159184,-0.159184)"
fill="#000000" stroke="none">
<path d="M1409 2922 c-19 -16 -263 -203 -544 -416 -280 -214 -525 -403 -543
-422 -66 -69 -27 -124 89 -124 l69 0 1 -922 c0 -688 3 -932 12 -957 7 -19 24
-43 38 -53 24 -18 57 -19 927 -18 667 0 909 4 928 12 56 26 54 -12 54 1002 l0
935 81 3 c76 3 83 5 102 30 33 44 16 71 -103 163 -445 343 -1034 786 -1054
791 -17 4 -33 -2 -57 -24z m921 -794 l35 -28 -903 0 -904 0 452 344 451 344
417 -316 c230 -175 433 -329 452 -344z m-20 -1078 l0 -910 -845 0 -845 0 0
910 0 910 845 0 845 0 0 -910z"/>
<path d="M672 1934 c-22 -15 -22 -18 -22 -259 0 -241 0 -244 22 -259 20 -14
112 -16 793 -16 681 0 773 2 793 16 22 15 22 18 22 259 0 241 0 244 -22 259
-20 14 -112 16 -793 16 -681 0 -773 -2 -793 -16z m708 -109 c47 -24 65 -68 65
-160 0 -116 -35 -165 -118 -165 -71 0 -107 57 -107 169 0 84 20 134 64 155 39
20 60 20 96 1z m293 4 c28 -7 37 -15 33 -26 -3 -8 -6 -18 -6 -22 0 -3 -25 -6
-56 -6 -50 0 -59 -3 -77 -28 -16 -20 -21 -42 -21 -82 0 -68 26 -110 70 -110
28 0 29 1 32 58 3 56 4 57 32 57 l30 0 0 -79 c0 -73 -2 -79 -22 -85 -41 -11
-108 -6 -138 9 -81 42 -93 211 -20 284 40 39 80 48 143 30z"/>
<path d="M1292 1755 c-18 -38 -15 -156 4 -183 18 -27 45 -28 67 -4 23 25 32
118 15 167 -11 34 -18 40 -44 43 -24 2 -33 -2 -42 -23z"/>
<path d="M634 1375 c-3 -8 -3 -19 1 -25 8 -13 1633 -14 1654 -1 8 5 11 16 8
25 -6 14 -84 16 -832 16 -713 0 -826 -2 -831 -15z"/>
<path d="M634 755 c-3 -8 -3 -19 1 -25 8 -13 1633 -14 1654 -1 8 5 11 16 8 25
-6 14 -84 16 -832 16 -713 0 -826 -2 -831 -15z"/>
<path d="M3 755 c-3 -9 -1 -21 4 -26 5 -5 99 -8 229 -7 211 3 219 4 219 23 0
19 -8 20 -223 23 -195 2 -223 0 -229 -13z"/>
<path d="M2482 758 c-8 -8 -9 -15 -1 -25 9 -10 59 -13 223 -13 116 0 217 4
225 9 8 5 11 16 8 25 -6 14 -34 16 -225 16 -154 0 -221 -3 -230 -12z"/>
</g>
</svg>
