<?xml version="1.0" standalone="no"?>
<!DOCTYPE svg PUBLIC "-//W3C//DTD SVG 20010904//EN"
 "http://www.w3.org/TR/2001/REC-SVG-20010904/DTD/svg10.dtd">
<svg version="1.0" xmlns="http://www.w3.org/2000/svg"
 width="468pt" height="473pt" viewBox="0 0 468 473"
 preserveAspectRatio="xMidYMid meet">
<metadata>
Created by potrace 1.8, written by Peter Selinger 2001-2007
</metadata>
<g transform="translate(0,473) scale(0.240000,-0.240000)"
fill="#000000" stroke="none">
<path d="M995 1844 c-462 -62 -848 -113 -858 -114 -25 0 -67 -45 -67 -71 0
-14 35 -57 100 -123 l100 -102 -126 -124 c-69 -69 -130 -133 -135 -143 -28
-50 -16 -63 534 -615 357 -357 542 -535 563 -542 20 -7 40 -7 55 -1 13 5 80
66 149 135 l124 126 97 -95 c53 -52 102 -95 108 -95 23 0 70 30 75 47 2 10 58
415 122 900 113 846 117 882 100 907 -14 22 -24 26 -59 25 -23 0 -420 -52
-882 -115z m805 -46 c0 -16 -187 -1420 -196 -1467 l-6 -34 -653 653 c-360 360
-652 656 -649 659 5 6 1423 198 1472 200 19 1 32 -4 32 -11z m-950 -953 l485
-485 -105 -105 -105 -105 -487 487 -488 488 102 102 c57 57 105 103 108 103 3
0 223 -218 490 -485z"/>
</g>
</svg>
