<?xml version="1.0" standalone="no"?>
<!DOCTYPE svg PUBLIC "-//W3C//DTD SVG 20010904//EN"
 "http://www.w3.org/TR/2001/REC-SVG-20010904/DTD/svg10.dtd">
<svg version="1.0" xmlns="http://www.w3.org/2000/svg"
 width="469pt" height="471pt" viewBox="0 0 469 471"
 preserveAspectRatio="xMidYMid meet">
<metadata>
Created by potrace 1.8, written by Peter Selinger 2001-2007
</metadata>
<g transform="translate(0,471) scale(0.238776,-0.238776)"
fill="#000000" stroke="none">
<path d="M1025 1850 c-440 -60 -824 -111 -852 -115 -66 -8 -96 -31 -96 -74 0
-27 14 -47 96 -129 l97 -97 -126 -125 c-69 -69 -129 -134 -134 -146 -21 -54
-14 -63 519 -597 284 -285 529 -528 544 -539 15 -11 44 -20 63 -21 32 -1 46
10 167 131 l132 132 85 -86 c47 -47 95 -90 108 -95 28 -11 78 11 86 38 8 25
236 1741 236 1774 0 38 -29 59 -81 58 -24 -1 -404 -50 -844 -109z m775 -52 c1
-32 -194 -1474 -199 -1480 -4 -4 -299 285 -656 642 -357 357 -647 651 -645
653 7 5 1419 194 1463 196 23 1 37 -4 37 -11z m-950 -953 l485 -485 -103 -102
-102 -103 -487 487 -488 488 100 100 c55 55 102 100 105 100 3 0 223 -218 490
-485z"/>
</g>
</svg>
