<?xml version="1.0" standalone="no"?>
<!DOCTYPE svg PUBLIC "-//W3C//DTD SVG 20010904//EN"
 "http://www.w3.org/TR/2001/REC-SVG-20010904/DTD/svg10.dtd">
<svg version="1.0" xmlns="http://www.w3.org/2000/svg"
 width="468pt" height="473pt" viewBox="0 0 468 473"
 preserveAspectRatio="xMidYMid meet">
<metadata>
Created by potrace 1.8, written by Peter Selinger 2001-2007
</metadata>
<g transform="translate(0,473) scale(0.240000,-0.240000)"
fill="#000000" stroke="none">
<path d="M1085 1949 c-31 -17 -1054 -1041 -1071 -1071 -31 -58 -23 -73 118
-215 l132 -133 -97 -99 c-106 -107 -116 -130 -73 -170 23 -21 89 -32 912 -142
807 -108 890 -117 911 -104 12 9 25 25 28 38 3 12 -48 420 -114 906 -111 829
-120 886 -141 903 -43 35 -66 24 -167 -74 l-94 -92 -132 132 c-111 111 -137
132 -162 132 -17 0 -39 -5 -50 -11z m-242 -831 l-488 -488 -102 102 -103 103
487 487 488 488 102 -102 103 -103 -487 -487z m858 -213 c55 -411 98 -749 97
-751 -2 -1 -338 42 -747 97 -409 54 -749 99 -755 99 -6 0 284 295 644 655 360
360 656 653 657 651 2 -2 49 -340 104 -751z"/>
</g>
</svg>
