<?xml version="1.0" standalone="no"?>
<!DOCTYPE svg PUBLIC "-//W3C//DTD SVG 20010904//EN"
 "http://www.w3.org/TR/2001/REC-SVG-20010904/DTD/svg10.dtd">
<svg version="1.0" xmlns="http://www.w3.org/2000/svg"
 width="468pt" height="607pt" viewBox="0 0 468 607"
 preserveAspectRatio="xMidYMid meet">
<metadata>
Created by potrace 1.8, written by Peter Selinger 2001-2007
</metadata>
<g transform="translate(0,607) scale(0.204367,-0.204367)"
fill="#000000" stroke="none">
<path d="M1096 2938 c-19 -18 -271 -343 -560 -722 -396 -519 -526 -695 -526
-716 0 -54 28 -65 176 -68 l134 -4 0 -106 c0 -122 10 -149 60 -174 32 -17 90
-18 757 -18 644 0 727 2 763 16 59 24 70 52 70 178 l0 104 134 4 c117 3 137 6
156 23 15 14 21 28 18 50 -3 21 -161 236 -541 732 -295 386 -547 709 -559 717
-32 23 -44 20 -82 -16z m517 -764 l459 -599 -467 -3 c-257 -1 -674 -1 -927 0
l-460 3 458 602 c253 331 464 600 469 599 6 -1 216 -272 468 -602z m217 -829
l0 -75 -685 0 -685 0 0 75 0 75 685 0 685 0 0 -75z"/>
<path d="M383 979 c-56 -16 -63 -37 -63 -194 0 -158 7 -181 60 -207 32 -17 89
-18 755 -18 475 0 733 4 758 11 66 18 77 49 77 216 0 136 -1 143 -24 170 l-24
28 -754 2 c-444 1 -766 -2 -785 -8z m1447 -204 l0 -75 -685 0 -685 0 0 75 0
75 685 0 685 0 0 -75z"/>
<path d="M400 428 c-19 -5 -45 -19 -57 -31 -22 -19 -23 -28 -23 -163 0 -90 4
-153 12 -169 27 -60 3 -58 811 -56 406 1 748 6 760 10 12 5 31 19 42 31 18 19
20 39 23 162 2 90 -1 150 -8 168 -23 56 -3 55 -795 57 -464 1 -743 -2 -765 -9z
m1430 -208 l0 -80 -685 0 -685 0 0 80 0 80 685 0 685 0 0 -80z"/>
</g>
</svg>
