<?xml version="1.0" standalone="no"?>
<!DOCTYPE svg PUBLIC "-//W3C//DTD SVG 20010904//EN"
 "http://www.w3.org/TR/2001/REC-SVG-20010904/DTD/svg10.dtd">
<svg version="1.0" xmlns="http://www.w3.org/2000/svg"
 width="468pt" height="470pt" viewBox="0 0 468 470"
 preserveAspectRatio="xMidYMid meet">
<metadata>
Created by potrace 1.8, written by Peter Selinger 2001-2007
</metadata>
<g transform="translate(0,470) scale(0.159184,-0.159184)"
fill="#000000" stroke="none">
<path d="M1409 2922 c-19 -16 -263 -203 -544 -416 -280 -214 -525 -403 -543
-422 -66 -69 -27 -124 89 -124 l69 0 1 -922 c0 -688 3 -932 12 -957 7 -19 24
-43 38 -53 24 -18 57 -19 927 -18 667 0 909 4 928 12 56 26 54 -12 54 1002 l0
935 81 3 c76 3 83 5 102 30 33 44 16 71 -103 163 -445 343 -1034 786 -1054
791 -17 4 -33 -2 -57 -24z m921 -794 l35 -28 -903 0 -904 0 452 344 451 344
417 -316 c230 -175 433 -329 452 -344z m-20 -1078 l0 -910 -845 0 -845 0 0
910 0 910 845 0 845 0 0 -910z"/>
<path d="M1445 2749 c-11 -4 -182 -131 -380 -281 -367 -278 -386 -296 -355
-334 11 -12 120 -14 755 -14 801 0 771 -2 763 51 -2 16 -104 99 -358 291 -195
148 -366 275 -380 282 -16 9 -32 11 -45 5z m-76 -257 c49 -25 71 -60 78 -125
4 -42 1 -69 -12 -103 -23 -62 -61 -84 -142 -84 l-63 0 0 159 c0 144 2 160 18
164 39 10 89 6 121 -11z m324 6 c10 -8 15 -21 11 -34 -5 -19 -9 -20 -45 -10
-76 20 -125 -38 -113 -134 8 -65 27 -90 69 -90 l35 0 0 60 0 60 30 0 31 0 -3
-82 -3 -82 -38 -9 c-87 -21 -157 20 -177 103 -22 90 10 186 70 217 32 16 111
17 133 1z"/>
<path d="M1297 2453 c-4 -3 -7 -55 -7 -115 l0 -108 25 0 c53 0 87 80 66 158
-6 22 -17 44 -24 50 -18 14 -52 23 -60 15z"/>
<path d="M634 1375 c-3 -8 -3 -19 1 -25 8 -13 1633 -14 1654 -1 8 5 11 16 8
25 -6 14 -84 16 -832 16 -713 0 -826 -2 -831 -15z"/>
<path d="M634 755 c-3 -8 -3 -19 1 -25 8 -13 1633 -14 1654 -1 8 5 11 16 8 25
-6 14 -84 16 -832 16 -713 0 -826 -2 -831 -15z"/>
<path d="M3 755 c-3 -9 -1 -21 4 -26 5 -5 99 -8 229 -7 211 3 219 4 219 23 0
19 -8 20 -223 23 -195 2 -223 0 -229 -13z"/>
<path d="M2482 758 c-8 -8 -9 -15 -1 -25 9 -10 59 -13 223 -13 116 0 217 4
225 9 8 5 11 16 8 25 -6 14 -34 16 -225 16 -154 0 -221 -3 -230 -12z"/>
</g>
</svg>
