<?xml version="1.0" standalone="no"?>
<!DOCTYPE svg PUBLIC "-//W3C//DTD SVG 20010904//EN"
 "http://www.w3.org/TR/2001/REC-SVG-20010904/DTD/svg10.dtd">
<svg version="1.0" xmlns="http://www.w3.org/2000/svg"
 width="468pt" height="360pt" viewBox="0 0 468 360"
 preserveAspectRatio="xMidYMid meet">
<metadata>
Created by potrace 1.8, written by Peter Selinger 2001-2007
</metadata>
<g transform="translate(0,360) scale(0.157576,-0.157576)"
fill="#000000" stroke="none">
<path d="M1445 2268 c-26 -15 -1315 -999 -1381 -1054 -55 -46 -66 -67 -53
-100 10 -29 1432 -1114 1459 -1114 11 0 32 11 45 25 24 23 25 29 25 155 l0
130 100 0 c123 0 164 14 185 64 22 51 22 1469 1 1520 -24 57 -47 66 -172 66
l-112 0 -4 141 c-3 136 -4 141 -28 159 -29 23 -38 24 -65 8z m-47 -1591 l-3
-465 -600 459 c-330 252 -601 462 -602 466 -1 4 269 214 600 467 l602 459 3
-461 c1 -253 1 -670 0 -925z m302 463 l0 -690 -75 0 -75 0 0 690 0 690 75 0
75 0 0 -690z"/>
<path d="M2062 1959 c-85 -18 -82 16 -82 -811 0 -465 4 -736 10 -760 19 -68
44 -78 192 -78 89 0 139 4 163 14 68 29 65 -5 65 806 0 787 0 780 -52 813 -24
16 -240 28 -296 16z m208 -819 l0 -690 -75 0 -75 0 0 690 0 690 75 0 75 0 0
-690z"/>
<path d="M2633 1963 c-102 -22 -95 44 -93 -820 1 -797 1 -797 50 -823 14 -8
70 -10 167 -8 l145 3 28 32 c22 25 30 45 35 95 3 35 5 371 3 748 -3 755 -1
733 -65 758 -23 9 -243 21 -270 15z m197 -823 l0 -690 -80 0 -80 0 0 690 0
690 80 0 80 0 0 -690z"/>
</g>
</svg>
