<?xml version="1.0" encoding="UTF-8" standalone="no"?>
<!-- Generator: Adobe Illustrator 16.0.0, SVG Export Plug-In . SVG Version: 6.00 Build 0)  -->

<svg
   xmlns:dc="http://purl.org/dc/elements/1.1/"
   xmlns:cc="http://creativecommons.org/ns#"
   xmlns:rdf="http://www.w3.org/1999/02/22-rdf-syntax-ns#"
   xmlns:svg="http://www.w3.org/2000/svg"
   xmlns="http://www.w3.org/2000/svg"
   xmlns:sodipodi="http://sodipodi.sourceforge.net/DTD/sodipodi-0.dtd"
   xmlns:inkscape="http://www.inkscape.org/namespaces/inkscape"
   version="1.1"
   x="0px"
   y="0px"
   width="361px"
   height="361px"
   viewBox="0 0 361 361"
   style="enable-background:new 0 0 361 361;"
   xml:space="preserve"
   id="svg2"
   inkscape:version="0.48.2 r9819"
   sodipodi:docname="control_3.svg"><metadata
   id="metadata16"><rdf:RDF><cc:Work
       rdf:about=""><dc:format>image/svg+xml</dc:format><dc:type
         rdf:resource="http://purl.org/dc/dcmitype/StillImage" /></cc:Work></rdf:RDF></metadata><defs
   id="defs14" /><sodipodi:namedview
   pagecolor="#ffffff"
   bordercolor="#666666"
   borderopacity="1"
   objecttolerance="10"
   gridtolerance="10"
   guidetolerance="10"
   inkscape:pageopacity="0"
   inkscape:pageshadow="2"
   inkscape:window-width="779"
   inkscape:window-height="480"
   id="namedview12"
   showgrid="false"
   inkscape:zoom="0.65373961"
   inkscape:cx="180.5"
   inkscape:cy="180.5"
   inkscape:window-x="0"
   inkscape:window-y="0"
   inkscape:window-maximized="0"
   inkscape:current-layer="svg2" />
<g
   id="control_x5F_3"
   style="fill:#000000"
   transform="matrix(1.6851281,0,0,1.6851281,-124.96734,-123.00591)">
	<path
   style="fill:#000000;stroke:none"
   d="m 190.396,279.237 c 0,4.164 -3.379,7.541 -7.541,7.541 h -3.759 c -4.165,0 -7.542,-3.377 -7.542,-7.541 V 82.333 c 0,-4.166 3.377,-7.542 7.542,-7.542 h 3.759 c 4.162,0 7.541,3.376 7.541,7.542 v 196.904 z"
   id="path5"
   inkscape:connector-curvature="0" />
	<path
   style="fill:#000000;stroke:none"
   d="m 125.785,278.952 c 0,4.164 -3.378,7.541 -7.541,7.541 h -3.758 c -4.165,0 -7.542,-3.377 -7.542,-7.541 V 82.048 c 0,-4.166 3.377,-7.542 7.542,-7.542 h 3.758 c 4.163,0 7.541,3.376 7.541,7.542 v 196.904 z"
   id="path7"
   inkscape:connector-curvature="0" />
	<path
   style="fill:#000000;stroke:none"
   d="m 255.008,279.236 c 0,4.164 -3.379,7.541 -7.541,7.541 h -3.759 c -4.165,0 -7.542,-3.377 -7.542,-7.541 V 82.333 c 0,-4.166 3.377,-7.542 7.542,-7.542 h 3.759 c 4.162,0 7.541,3.376 7.541,7.542 v 196.903 z"
   id="path9"
   inkscape:connector-curvature="0" />
</g>
<g
   id="Ebene_1">
</g>
</svg>