<?xml version="1.0" standalone="no"?>
<!DOCTYPE svg PUBLIC "-//W3C//DTD SVG 20010904//EN"
 "http://www.w3.org/TR/2001/REC-SVG-20010904/DTD/svg10.dtd">
<svg version="1.0" xmlns="http://www.w3.org/2000/svg"
 width="468pt" height="470pt" viewBox="0 0 468 470"
 preserveAspectRatio="xMidYMid meet">
<metadata>
Created by potrace 1.8, written by Peter Selinger 2001-2007
</metadata>
<g transform="translate(0,470) scale(0.158108,-0.158108)"
fill="#000000" stroke="none">
<path d="M2695 2956 c-3 -9 -7 -23 -10 -31 -7 -24 -41 -17 -53 10 -13 29 -22
30 -62 10 -32 -17 -36 -26 -20 -55 15 -28 -13 -47 -47 -31 -28 13 -37 7 -64
-41 -9 -16 6 -41 31 -50 20 -7 -2 -47 -29 -50 -24 -3 -26 -7 -24 -42 3 -43 15
-56 43 -49 11 3 22 -3 29 -15 16 -30 -9 -46 -58 -37 -37 6 -41 5 -47 -19 -8
-35 -46 -35 -62 -1 -11 23 -13 24 -49 11 -36 -13 -38 -16 -35 -50 3 -42 -14
-54 -48 -36 -18 9 -25 8 -41 -6 -31 -28 -34 -55 -9 -74 29 -22 21 -45 -19 -53
-26 -6 -31 -11 -31 -36 0 -46 10 -61 40 -61 37 0 47 -27 19 -56 l-21 -22 23
-31 c26 -35 35 -38 61 -15 15 14 20 15 33 4 9 -7 15 -25 13 -39 -6 -47 84 -70
90 -23 4 28 48 31 57 3 8 -27 25 -30 63 -14 30 12 32 16 27 47 -8 38 12 53 45
36 28 -15 34 -13 53 20 10 17 22 30 28 30 15 0 10 -30 -6 -36 -21 -8 -19 -37
4 -65 18 -21 22 -23 42 -11 24 16 36 8 41 -28 2 -19 11 -26 33 -31 41 -7 55
-1 55 27 0 17 6 24 19 24 11 0 23 -4 26 -10 10 -16 40 -12 58 8 21 23 22 46 3
62 -21 16 -9 40 20 40 20 0 24 5 24 33 0 43 -13 61 -38 55 -25 -7 -36 15 -22
42 19 35 -52 78 -75 46 -17 -22 -46 -20 -52 4 -11 42 -87 12 -88 -34 0 -48
-23 -43 -27 6 -3 40 -5 43 -35 46 -17 2 -34 10 -38 19 -10 28 20 47 69 44 39
-2 44 1 50 24 8 31 41 34 56 5 12 -23 28 -25 65 -8 23 10 26 16 21 44 -7 37
16 66 36 46 20 -20 43 -13 61 17 23 39 22 49 -7 62 -32 15 -23 48 15 56 24 4
29 11 29 33 0 46 -10 60 -41 60 -36 0 -48 24 -25 49 22 24 20 33 -9 65 -24 26
-27 27 -50 12 -31 -21 -58 -11 -52 20 6 32 -3 41 -45 49 -30 6 -39 4 -43 -9z
m62 -146 c96 -58 76 -204 -33 -240 -64 -21 -138 16 -163 83 -15 39 -14 63 6
104 32 69 123 94 190 53z m-252 -328 c-6 -7 -35 18 -35 31 0 5 9 2 20 -8 11
-10 18 -20 15 -23z m78 26 c9 -7 13 -18 9 -24 -5 -8 -13 -4 -25 12 -19 26 -11
32 16 12z m-139 -89 c103 -81 53 -239 -77 -239 -60 0 -108 33 -127 88 -31 88
32 172 130 172 33 0 55 -6 74 -21z m149 -169 c-3 -11 -9 -20 -14 -20 -10 0
-12 24 -2 33 13 13 21 7 16 -13z m197 -24 c16 -20 9 -56 -12 -70 -40 -24 -80
44 -42 71 23 17 39 16 54 -1z"/>
<path d="M24 2935 l-25 -25 7 -1398 c7 -1577 -1 -1435 89 -1482 l49 -25 516 0
515 0 48 24 c94 46 87 -25 87 898 l0 811 105 4 c82 2 108 7 121 20 21 20 23
71 4 93 -31 38 -1451 1105 -1470 1105 -11 0 -32 -11 -46 -25z m1156 -1989 c0
-715 -2 -794 -16 -800 -9 -3 -85 -6 -170 -6 l-153 0 -3 490 -3 490 -38 37 -37
38 -208 3 c-233 3 -258 -3 -297 -69 -19 -33 -20 -52 -20 -511 l0 -478 -32 0
c-69 0 -63 -71 -63 806 l0 794 520 0 520 0 0 -794z m-472 -338 l2 -458 -170 0
-170 0 0 460 0 460 168 -2 167 -3 3 -457z"/>
<path d="M1570 820 c-14 -14 -20 -33 -20 -68 0 -42 -3 -50 -25 -60 -19 -9 -25
-19 -25 -42 0 -23 6 -33 25 -42 l25 -11 0 -169 c0 -162 -1 -168 -20 -168 -47
0 -47 -80 0 -95 16 -5 20 -15 20 -56 0 -59 27 -94 63 -83 31 10 37 22 37 82 0
49 2 52 25 52 23 0 25 -3 25 -50 0 -37 5 -55 20 -70 23 -23 33 -24 61 -10 15
9 19 22 19 70 0 57 1 60 25 60 22 0 25 -4 25 -39 0 -78 34 -116 80 -91 17 9
20 21 20 70 0 60 0 60 30 60 l30 0 0 -60 c0 -54 3 -62 24 -71 17 -8 29 -8 45
0 18 10 21 21 21 71 0 60 0 60 30 60 l30 0 0 -60 c0 -54 3 -62 24 -71 17 -8
29 -8 45 0 18 10 21 21 21 71 0 60 0 60 30 60 30 0 30 0 30 -60 0 -48 4 -61
19 -70 28 -14 38 -13 61 10 15 15 20 33 20 70 0 47 2 50 25 50 24 0 25 -3 25
-54 0 -79 37 -109 80 -66 15 15 20 33 20 70 0 47 2 50 25 50 24 0 25 -3 25
-54 0 -79 37 -109 80 -66 15 15 20 33 20 70 0 47 2 50 25 50 24 0 25 -3 25
-55 0 -47 3 -57 25 -71 23 -15 27 -15 50 0 21 14 25 24 25 69 0 53 0 54 36 63
44 11 60 41 38 73 -10 13 -26 21 -45 21 l-29 0 0 170 c0 165 1 170 21 170 37
0 59 19 59 50 0 31 -22 50 -59 50 -19 0 -21 6 -21 55 0 47 -3 57 -25 71 -23
15 -27 15 -50 0 -22 -14 -25 -24 -25 -71 0 -52 -1 -55 -25 -55 -23 0 -25 3
-25 50 0 37 -5 55 -20 70 -24 24 -29 24 -58 4 -18 -12 -22 -25 -22 -70 0 -51
-1 -54 -25 -54 -23 0 -25 3 -25 50 0 37 -5 55 -20 70 -24 24 -29 24 -58 4 -18
-12 -22 -25 -22 -70 0 -51 -1 -54 -25 -54 -23 0 -25 3 -25 50 0 60 -27 95 -63
84 -31 -10 -37 -22 -37 -81 0 -52 0 -53 -30 -53 l-30 0 0 60 c0 54 -3 62 -24
71 -17 8 -29 8 -45 0 -18 -10 -21 -21 -21 -71 0 -60 0 -60 -30 -60 l-30 0 0
60 c0 54 -3 62 -24 71 -17 8 -29 8 -45 0 -18 -10 -21 -21 -21 -71 0 -60 0 -60
-30 -60 -30 0 -30 0 -30 60 0 49 -3 61 -20 70 -46 25 -80 -13 -80 -91 0 -35
-3 -39 -25 -39 -23 0 -25 3 -25 53 0 59 -6 71 -37 81 -36 11 -63 -24 -63 -84
0 -47 -2 -50 -25 -50 -24 0 -25 3 -25 54 0 79 -37 109 -80 66z m130 -390 l0
-170 -25 0 -25 0 0 170 0 170 25 0 25 0 0 -170z m150 0 l0 -170 -25 0 -25 0 0
170 0 170 25 0 25 0 0 -170z m160 0 l0 -170 -30 0 -30 0 0 170 0 170 30 0 30
0 0 -170z m150 0 l0 -170 -30 0 -30 0 0 170 0 170 30 0 30 0 0 -170z m150 0
l0 -170 -30 0 -30 0 0 170 0 170 30 0 30 0 0 -170z m150 0 l0 -170 -25 0 -25
0 0 170 0 170 25 0 25 0 0 -170z m150 0 l0 -170 -25 0 -25 0 0 170 0 170 25 0
25 0 0 -170z m150 0 l0 -170 -25 0 -25 0 0 170 0 170 25 0 25 0 0 -170z"/>
</g>
</svg>
