<?xml version="1.0" standalone="no"?>
<!DOCTYPE svg PUBLIC "-//W3C//DTD SVG 20010904//EN"
 "http://www.w3.org/TR/2001/REC-SVG-20010904/DTD/svg10.dtd">
<svg version="1.0" xmlns="http://www.w3.org/2000/svg"
 width="468pt" height="470pt" viewBox="0 0 468 470"
 preserveAspectRatio="xMidYMid meet">
<metadata>
Created by potrace 1.8, written by Peter Selinger 2001-2007
</metadata>
<g transform="translate(0,470) scale(0.159184,-0.159184)"
fill="#000000" stroke="none">
<path d="M1409 2922 c-19 -16 -263 -203 -544 -416 -280 -214 -525 -403 -543
-422 -66 -69 -27 -124 89 -124 l69 0 1 -922 c0 -688 3 -932 12 -957 7 -19 24
-43 38 -53 24 -18 57 -19 927 -18 667 0 909 4 928 12 56 26 54 -12 54 1002 l0
935 81 3 c76 3 83 5 102 30 33 44 16 71 -103 163 -445 343 -1034 786 -1054
791 -17 4 -33 -2 -57 -24z m921 -794 l35 -28 -903 0 -904 0 452 344 451 344
417 -316 c230 -175 433 -329 452 -344z m-20 -1078 l0 -910 -845 0 -845 0 0
910 0 910 845 0 845 0 0 -910z"/>
<path d="M634 1375 c-3 -8 -3 -19 1 -25 8 -13 1633 -14 1654 -1 8 5 11 16 8
25 -6 14 -84 16 -832 16 -713 0 -826 -2 -831 -15z"/>
<path d="M667 1312 c-15 -16 -17 -49 -17 -258 0 -173 3 -243 12 -252 17 -17
1589 -17 1606 0 9 9 12 79 12 253 0 222 -2 243 -18 258 -17 16 -87 17 -799 17
-743 0 -781 -1 -796 -18z m1012 -93 c26 -9 30 -15 25 -33 -9 -28 -7 -28 -43
-15 -75 26 -132 -45 -116 -144 9 -48 46 -90 78 -85 19 3 22 10 25 61 3 56 4
57 32 57 l30 0 0 -79 0 -78 -31 -7 c-129 -25 -194 28 -194 159 0 84 23 131 75
157 40 21 74 23 119 7z m-249 -24 c0 -24 -2 -25 -65 -25 l-65 0 0 -40 0 -40
55 0 c52 0 55 -1 55 -25 0 -24 -3 -25 -55 -25 l-55 0 0 -45 0 -45 70 0 c68 0
70 -1 70 -25 0 -25 0 -25 -100 -25 l-100 0 0 160 0 160 95 0 c95 0 95 0 95
-25z"/>
<path d="M634 755 c-3 -8 -3 -19 1 -25 8 -13 1633 -14 1654 -1 8 5 11 16 8 25
-6 14 -84 16 -832 16 -713 0 -826 -2 -831 -15z"/>
<path d="M3 755 c-3 -9 -1 -21 4 -26 5 -5 99 -8 229 -7 211 3 219 4 219 23 0
19 -8 20 -223 23 -195 2 -223 0 -229 -13z"/>
<path d="M2482 758 c-8 -8 -9 -15 -1 -25 9 -10 59 -13 223 -13 116 0 217 4
225 9 8 5 11 16 8 25 -6 14 -34 16 -225 16 -154 0 -221 -3 -230 -12z"/>
</g>
</svg>
