<?xml version="1.0" standalone="no"?>
<!DOCTYPE svg PUBLIC "-//W3C//DTD SVG 20010904//EN"
 "http://www.w3.org/TR/2001/REC-SVG-20010904/DTD/svg10.dtd">
<svg version="1.0" xmlns="http://www.w3.org/2000/svg"
 width="468pt" height="465pt" viewBox="0 0 468 465"
 preserveAspectRatio="xMidYMid meet">
<metadata>
Created by potrace 1.8, written by Peter Selinger 2001-2007
</metadata>
<g transform="translate(0,465) scale(0.157047,-0.157047)"
fill="#000000" stroke="none">
<path d="M1470 2952 c-21 -8 -1421 -1070 -1448 -1098 -27 -30 -29 -75 -4 -97
15 -14 40 -17 130 -17 l112 0 2 -821 3 -820 41 -39 c23 -21 60 -44 82 -49 28
-8 368 -11 1124 -9 l1083 3 46 27 c84 49 79 -9 79 902 l0 806 108 0 c93 0 111
3 125 18 28 31 21 76 -16 108 -61 54 -1418 1079 -1435 1085 -9 3 -24 4 -32 1z
m1120 -2000 c0 -600 -3 -791 -12 -800 -17 -17 -2159 -17 -2176 0 -9 9 -12 200
-12 800 l0 788 1100 0 1100 0 0 -788z"/>
<path d="M1092 1421 c-70 -24 -119 -72 -137 -135 -22 -72 -22 -690 0 -762 19
-64 75 -120 140 -140 62 -18 695 -21 756 -3 50 16 105 61 132 112 21 41 22 52
25 394 2 232 -1 366 -8 393 -13 50 -60 104 -114 133 -40 21 -52 22 -391 24
-319 3 -355 1 -403 -16z m759 -97 c56 -29 59 -49 59 -427 0 -338 0 -345 -22
-372 -41 -53 -59 -55 -420 -55 -364 0 -366 1 -405 59 -23 34 -23 37 -23 368 0
362 2 380 55 421 27 22 34 22 377 22 297 0 353 -2 379 -16z"/>
<path d="M1451 1134 c-20 -15 -21 -22 -21 -244 0 -225 0 -229 22 -244 29 -20
34 -20 58 4 19 19 20 33 20 238 0 224 -3 242 -41 255 -9 3 -26 -1 -38 -9z"/>
</g>
</svg>
