<?xml version="1.0" standalone="no"?>
<!DOCTYPE svg PUBLIC "-//W3C//DTD SVG 20010904//EN"
 "http://www.w3.org/TR/2001/REC-SVG-20010904/DTD/svg10.dtd">
<svg version="1.0" xmlns="http://www.w3.org/2000/svg"
 width="468pt" height="467pt" viewBox="0 0 468 467"
 preserveAspectRatio="xMidYMid meet">
<metadata>
Created by potrace 1.8, written by Peter Selinger 2001-2007
</metadata>
<g transform="translate(0,467) scale(0.157576,-0.157576)"
fill="#000000" stroke="none">
<path d="M1435 2940 c-11 -10 -335 -259 -720 -553 l-700 -533 -3 -41 c-5 -61
18 -73 139 -73 l97 0 1 -812 c2 -774 3 -814 21 -855 12 -28 28 -47 45 -53 17
-7 427 -10 1161 -11 1079 -1 1136 0 1172 18 76 37 72 -12 72 901 l0 812 96 0
c104 0 130 8 144 46 17 43 -5 70 -147 177 -76 57 -396 300 -711 540 -315 240
-582 441 -592 447 -28 15 -53 12 -75 -10z m1145 -1995 l0 -795 -1095 0 -1095
0 0 795 0 795 1095 0 1095 0 0 -795z"/>
<path d="M1595 1435 c-3 -8 -7 -22 -10 -30 -5 -16 -45 -21 -45 -6 0 5 -7 16
-15 25 -14 14 -19 14 -51 -2 -32 -15 -35 -19 -30 -48 7 -36 -11 -59 -34 -44
-28 18 -46 10 -63 -24 -16 -34 -16 -35 9 -53 31 -23 24 -49 -17 -57 -32 -6
-37 -25 -19 -70 7 -19 17 -26 35 -26 31 0 44 -26 23 -46 -11 -12 -21 -12 -42
-4 -32 12 -44 7 -56 -26 -13 -33 -48 -32 -56 1 -7 28 -17 30 -63 14 -29 -10
-31 -14 -26 -41 4 -17 2 -35 -6 -44 -10 -13 -15 -12 -37 2 -25 16 -26 16 -49
-12 -28 -36 -29 -49 -2 -68 28 -20 17 -54 -19 -58 -24 -3 -27 -7 -27 -43 0
-38 2 -40 32 -43 39 -4 47 -28 19 -60 l-20 -22 21 -28 c13 -17 29 -26 42 -24
69 8 66 9 66 -27 0 -30 4 -36 35 -46 39 -14 60 -5 60 26 0 30 44 25 58 -6 13
-29 22 -31 63 -9 26 13 29 19 24 43 -7 33 18 62 37 43 20 -20 46 -13 65 18 9
16 21 30 25 30 15 0 8 -27 -12 -45 -21 -19 -17 -37 16 -70 12 -12 19 -13 30
-4 20 17 44 3 44 -25 0 -44 82 -51 88 -8 5 31 28 38 52 17 20 -18 21 -17 45 5
28 27 31 42 11 60 -20 16 -10 37 20 44 22 6 25 11 22 44 -3 32 -7 37 -31 40
-33 4 -43 22 -28 51 9 17 6 23 -18 40 -37 26 -45 26 -63 -1 l-15 -22 -25 27
c-23 24 -28 26 -56 16 -24 -8 -32 -17 -34 -42 -4 -44 -28 -48 -28 -4 0 38 -21
63 -45 53 -9 -3 -19 3 -26 15 -16 30 14 51 64 44 35 -5 39 -3 48 25 14 37 45
40 61 5 13 -29 19 -30 59 -10 26 14 29 21 27 53 -3 34 -1 37 22 36 14 0 31 -3
39 -5 8 -2 23 11 34 30 l21 34 -25 21 c-31 26 -27 54 9 58 22 2 28 9 30 36 4
42 -14 65 -44 58 -30 -8 -43 28 -20 53 21 24 20 34 -7 59 -27 26 -40 27 -57 7
-19 -23 -53 0 -47 31 5 28 -6 39 -51 47 -24 5 -34 3 -37 -8z m54 -145 c96 -48
92 -189 -6 -235 -120 -57 -241 81 -168 192 22 32 74 63 108 63 15 0 45 -9 66
-20z m-243 -327 c-8 -8 -36 10 -36 25 0 13 3 12 20 -3 11 -10 18 -20 16 -22z
m81 12 c9 -25 -2 -27 -22 -5 -17 18 -17 20 -1 20 9 0 19 -7 23 -15z m-152 -75
c61 -38 81 -118 45 -178 -57 -92 -174 -92 -230 1 -70 114 71 248 185 177z
m161 -166 c-3 -9 -6 -21 -6 -27 0 -8 -3 -8 -10 -1 -12 12 -3 44 12 44 6 0 7
-7 4 -16z m199 -64 c0 -33 -2 -35 -35 -35 -29 0 -36 4 -38 23 -6 40 5 54 40
50 30 -3 33 -6 33 -38z"/>
</g>
</svg>
