<?xml version="1.0" standalone="no"?>
<!DOCTYPE svg PUBLIC "-//W3C//DTD SVG 20010904//EN"
 "http://www.w3.org/TR/2001/REC-SVG-20010904/DTD/svg10.dtd">
<svg version="1.0" xmlns="http://www.w3.org/2000/svg"
 width="468pt" height="360pt" viewBox="0 0 468 360"
 preserveAspectRatio="xMidYMid meet">
<metadata>
Created by potrace 1.8, written by Peter Selinger 2001-2007
</metadata>
<g transform="translate(0,360) scale(0.157576,-0.157576)"
fill="#000000" stroke="none">
<path d="M1455 2255 c-24 -23 -25 -29 -25 -160 l0 -136 -113 2 c-73 1 -121 -2
-136 -10 -51 -28 -51 -25 -51 -808 0 -470 4 -741 10 -765 17 -60 38 -68 172
-68 l118 0 0 -130 c0 -126 1 -132 25 -155 13 -14 34 -25 47 -24 14 0 291 205
738 548 685 524 715 549 718 582 2 27 -3 40 -25 60 -37 35 -1383 1063 -1410
1078 -31 16 -41 14 -68 -14z m727 -657 c323 -247 590 -453 592 -457 5 -7 -222
-183 -1036 -804 l-168 -128 0 926 c0 738 3 925 13 919 6 -4 276 -210 599 -456z
m-762 -458 l0 -690 -75 0 -75 0 0 690 0 690 75 0 75 0 0 -690z"/>
<path d="M78 1958 c-37 -7 -54 -27 -68 -78 -14 -50 -13 -1413 1 -1479 18 -83
35 -91 200 -91 76 0 149 4 164 10 56 21 56 11 53 835 l-3 755 -25 24 c-24 23
-32 25 -157 28 -73 2 -147 0 -165 -4z m222 -818 l0 -690 -80 0 -80 0 0 690 0
690 80 0 80 0 0 -690z"/>
<path d="M634 1960 c-18 -3 -37 -18 -51 -39 l-23 -34 0 -736 c0 -476 4 -749
10 -773 18 -62 35 -68 201 -68 166 0 189 9 209 78 6 24 10 292 10 751 0 750
-2 779 -44 806 -22 14 -255 25 -312 15z m216 -820 l0 -690 -75 0 -75 0 0 690
0 690 75 0 75 0 0 -690z"/>
</g>
</svg>
