<?xml version="1.0" standalone="no"?>
<!DOCTYPE svg PUBLIC "-//W3C//DTD SVG 20010904//EN"
 "http://www.w3.org/TR/2001/REC-SVG-20010904/DTD/svg10.dtd">
<svg version="1.0" xmlns="http://www.w3.org/2000/svg"
 width="468pt" height="470pt" viewBox="0 0 468 470"
 preserveAspectRatio="xMidYMid meet">
<metadata>
Created by potrace 1.8, written by Peter Selinger 2001-2007
</metadata>
<g transform="translate(0,470) scale(0.189474,-0.189474)"
fill="#000000" stroke="none">
<path d="M351 2209 c-242 -184 -343 -267 -347 -285 -4 -14 0 -34 9 -48 16 -24
628 -498 675 -522 21 -11 30 -10 52 1 15 8 30 22 34 30 3 9 6 115 6 236 l0
220 593 -3 c541 -3 597 -5 647 -22 80 -27 133 -61 189 -122 58 -64 95 -136
110 -218 14 -76 14 -865 1 -961 -26 -176 -154 -318 -330 -365 -34 -9 -279 -12
-992 -11 l-948 2 -25 -25 c-14 -14 -25 -32 -25 -40 0 -29 23 -66 44 -72 12 -2
455 -3 986 -2 l965 3 67 23 c140 47 272 162 338 292 65 129 65 126 65 665 0
445 -2 496 -18 555 -54 192 -199 342 -392 408 l-80 27 -597 3 -598 3 0 223 c0
220 0 223 -23 244 -13 12 -33 22 -44 22 -12 0 -169 -113 -362 -261z m289 -300
l0 -350 -32 23 c-18 12 -122 91 -230 175 l-198 151 228 175 c125 96 228 176
230 176 1 1 2 -157 2 -350z"/>
</g>
</svg>
