<?xml version="1.0" standalone="no"?>
<!DOCTYPE svg PUBLIC "-//W3C//DTD SVG 20010904//EN"
 "http://www.w3.org/TR/2001/REC-SVG-20010904/DTD/svg10.dtd">
<svg version="1.0" xmlns="http://www.w3.org/2000/svg"
 width="468pt" height="467pt" viewBox="0 0 468 467"
 preserveAspectRatio="xMidYMid meet">
<metadata>
Created by potrace 1.8, written by Peter Selinger 2001-2007
</metadata>
<g transform="translate(0,467) scale(0.157576,-0.157576)"
fill="#000000" stroke="none">
<path d="M796 2655 c-242 -162 -447 -302 -458 -311 -38 -35 -11 -114 40 -114
15 0 47 14 72 30 l45 30 5 -1109 c5 -1091 5 -1109 25 -1131 11 -12 31 -27 45
-32 40 -15 1801 -12 1835 4 58 26 55 -31 55 1179 0 959 2 1110 14 1106 8 -3
62 -20 121 -37 98 -29 107 -31 129 -17 34 22 42 64 19 96 -17 21 -114 53 -746
240 l-726 216 24 23 c47 44 24 122 -36 122 -16 0 -183 -107 -463 -295z m892
-120 c301 -91 568 -173 595 -181 l47 -16 0 -169 0 -169 -837 3 c-832 2 -838 2
-838 -18 0 -20 8 -20 838 -23 l837 -2 0 -910 0 -910 -845 0 -845 0 0 1123 1
1122 237 157 c130 87 243 158 250 158 7 0 259 -74 560 -165z"/>
<path d="M654 1375 c-3 -8 -3 -19 1 -25 8 -13 1633 -14 1654 -1 8 5 11 16 8
25 -6 14 -84 16 -832 16 -713 0 -826 -2 -831 -15z"/>
<path d="M687 1312 c-15 -16 -17 -49 -17 -258 0 -173 3 -243 12 -252 17 -17
1589 -17 1606 0 9 9 12 79 12 253 0 222 -2 243 -18 258 -17 16 -87 17 -799 17
-743 0 -781 -1 -796 -18z m1012 -93 c26 -9 30 -15 25 -33 -9 -28 -7 -28 -43
-15 -75 26 -132 -45 -116 -144 9 -48 46 -90 78 -85 19 3 22 10 25 61 3 56 4
57 32 57 l30 0 0 -79 0 -78 -31 -7 c-129 -25 -194 28 -194 159 0 84 23 131 75
157 40 21 74 23 119 7z m-249 -24 c0 -24 -2 -25 -65 -25 l-65 0 0 -40 0 -40
55 0 c52 0 55 -1 55 -25 0 -24 -3 -25 -55 -25 l-55 0 0 -45 0 -45 70 0 c68 0
70 -1 70 -25 0 -25 0 -25 -100 -25 l-100 0 0 160 0 160 95 0 c95 0 95 0 95
-25z"/>
<path d="M654 755 c-3 -8 -3 -19 1 -25 8 -13 1633 -14 1654 -1 8 5 11 16 8 25
-6 14 -84 16 -832 16 -713 0 -826 -2 -831 -15z"/>
<path d="M24 755 c-9 -22 5 -35 38 -35 30 0 31 -1 13 -20 -10 -11 -15 -28 -12
-39 3 -14 -1 -22 -14 -26 -32 -10 -43 -42 -24 -71 14 -21 23 -24 80 -24 71 0
88 14 83 68 -3 26 -1 27 50 30 50 3 52 2 52 -22 0 -32 26 -46 87 -46 68 0 82
13 87 85 2 33 7 68 11 77 4 9 4 22 0 28 -4 6 -84 10 -226 10 -183 0 -221 -2
-225 -15z"/>
<path d="M2501 756 c-8 -9 -8 -16 -2 -20 6 -4 7 -15 1 -30 -4 -13 -4 -29 0
-37 5 -7 7 -24 3 -37 -3 -14 1 -30 12 -42 32 -36 105 -19 105 23 0 13 9 26 23
32 16 7 22 18 22 43 l0 32 63 0 c65 0 75 -12 26 -30 -17 -7 -24 -17 -24 -35 0
-22 -4 -25 -34 -25 -38 0 -66 -21 -66 -50 0 -42 25 -50 151 -50 106 0 121 2
139 20 25 25 25 31 -1 64 -17 21 -18 26 -5 26 23 0 43 40 42 85 l-1 40 -221 3
c-182 2 -223 0 -233 -12z"/>
<path d="M91 498 c-5 -13 -5 -32 -1 -43 6 -18 18 -20 98 -23 84 -3 92 -1 102
19 9 16 9 28 1 45 -10 23 -16 24 -101 24 -85 0 -91 -1 -99 -22z"/>
<path d="M352 508 c-15 -15 -15 -51 0 -66 7 -7 28 -12 48 -12 41 0 60 14 60
45 0 31 -19 45 -60 45 -20 0 -41 -5 -48 -12z"/>
<path d="M2531 507 c-6 -7 -9 -36 -8 -62 2 -42 6 -51 27 -62 51 -26 133 -11
145 26 5 18 15 21 55 21 58 0 80 24 61 66 -10 23 -14 24 -140 24 -94 0 -131
-4 -140 -13z"/>
<path d="M185 385 c-14 -16 -26 -22 -30 -15 -8 13 -100 13 -126 0 -26 -14 -26
-66 0 -80 11 -5 40 -10 66 -10 36 0 51 5 70 25 14 16 26 22 30 15 3 -5 37 -10
75 -10 63 0 69 -2 72 -22 4 -33 49 -55 85 -42 25 8 29 16 36 69 12 86 -1 95
-145 95 -104 0 -110 -1 -133 -25z"/>
<path d="M2768 399 c-22 -12 -24 -62 -4 -78 9 -8 45 -11 97 -9 82 3 84 4 94
32 15 44 -19 66 -104 66 -36 0 -74 -5 -83 -11z"/>
<path d="M2508 326 c-14 -32 -5 -54 29 -67 39 -15 114 -5 130 17 34 46 2 74
-83 74 -59 0 -65 -2 -76 -24z"/>
<path d="M2809 271 c-16 -13 -33 -17 -55 -14 -39 6 -74 -11 -74 -37 0 -18 -7
-20 -78 -20 -83 0 -102 -9 -102 -46 0 -40 20 -45 161 -42 l134 3 3 40 3 40 65
-3 c41 -2 70 1 79 8 22 18 19 67 -4 80 -33 17 -106 12 -132 -9z"/>
<path d="M25 236 c-13 -19 -14 -29 -5 -45 15 -29 40 -33 167 -29 103 3 110 2
102 -14 -6 -12 -6 -25 1 -37 5 -11 7 -33 4 -50 -10 -48 8 -61 82 -61 53 0 65
3 78 21 10 15 12 28 6 45 -5 13 -7 37 -4 53 9 41 -28 64 -94 59 -47 -3 -48 -3
-44 25 8 51 -8 57 -149 57 -125 0 -129 -1 -144 -24z"/>
<path d="M138 120 c-9 -14 -24 -20 -48 -20 -44 0 -80 -24 -80 -54 0 -36 19
-46 87 -46 56 0 64 3 79 25 9 14 24 25 33 25 36 0 55 52 29 78 -20 20 -86 15
-100 -8z"/>
<path d="M2522 84 c-43 -30 -17 -84 42 -84 39 0 56 15 56 52 0 45 -54 63 -98
32z"/>
<path d="M2660 80 c-24 -24 -24 -29 -4 -58 14 -21 22 -22 143 -22 134 0 151 5
151 46 0 42 -34 54 -157 54 -100 0 -115 -2 -133 -20z"/>
</g>
</svg>
