<?xml version="1.0" standalone="no"?>
<!DOCTYPE svg PUBLIC "-//W3C//DTD SVG 20010904//EN"
 "http://www.w3.org/TR/2001/REC-SVG-20010904/DTD/svg10.dtd">
<svg version="1.0" xmlns="http://www.w3.org/2000/svg"
 width="468pt" height="468pt" viewBox="0 0 468 468"
 preserveAspectRatio="xMidYMid meet">
<metadata>
Created by potrace 1.8, written by Peter Selinger 2001-2007
</metadata>
<g transform="translate(0,468) scale(0.157576,-0.157576)"
fill="#000000" stroke="none">
<path d="M564 2598 c-582 -392 -579 -390 -537 -446 31 -42 56 -39 134 12 l69
46 0 -820 c0 -904 -2 -872 62 -907 31 -17 90 -18 1073 -21 705 -2 1056 1 1091
8 32 7 60 20 75 36 l24 26 5 838 c3 461 7 840 10 843 3 3 64 -13 135 -34 72
-21 139 -39 151 -39 43 0 69 63 45 109 -7 12 -250 89 -900 282 l-891 264 40
33 c29 24 40 41 40 61 0 39 -26 71 -59 71 -20 0 -181 -103 -567 -362z m1133
-125 l723 -218 0 -827 0 -828 -1025 0 -1025 0 0 850 0 850 292 195 c161 107
297 195 303 195 5 0 335 -98 732 -217z"/>
<path d="M407 2074 c-3 -3 -3 -12 0 -20 4 -12 156 -14 999 -14 987 0 994 0
994 20 0 20 -7 20 -993 20 -547 0 -996 -3 -1000 -6z"/>
<path d="M445 2018 c-11 -6 -23 -16 -27 -22 -4 -6 -8 -139 -8 -296 0 -157 4
-290 8 -296 22 -33 45 -34 977 -34 932 0 955 1 977 34 4 6 8 140 8 298 l0 287
-26 20 c-27 21 -31 21 -958 21 -675 -1 -936 -4 -951 -12z m865 -146 c44 -32
62 -84 62 -175 0 -144 -41 -207 -137 -207 -60 0 -94 21 -118 72 -34 75 -28
223 11 278 43 59 125 73 182 32z m324 19 c51 -12 59 -22 46 -55 -8 -23 -13
-25 -29 -16 -65 34 -145 -9 -157 -85 -15 -105 22 -185 86 -185 l30 0 0 75 0
75 40 0 40 0 0 -99 c0 -114 3 -111 -105 -111 -113 0 -166 62 -167 196 0 113
39 180 121 204 35 11 49 11 95 1z"/>
<path d="M1194 1809 c-16 -18 -19 -37 -19 -119 0 -83 3 -101 19 -119 29 -32
67 -24 89 19 25 48 20 189 -8 220 -23 26 -57 26 -81 -1z"/>
<path d="M406 1342 c-19 -31 7 -32 999 -30 934 3 990 4 993 21 3 16 -49 17
-992 17 -547 0 -997 -4 -1000 -8z"/>
<path d="M17 593 c-4 -3 -7 -12 -7 -20 0 -10 21 -13 88 -13 93 0 104 3 95 26
-4 10 -26 14 -87 14 -46 0 -86 -3 -89 -7z"/>
<path d="M2593 583 c-4 -9 -1 -19 5 -21 9 -3 9 -9 1 -23 -8 -16 -7 -26 6 -45
15 -23 14 -24 -5 -24 -38 0 -60 -19 -60 -50 0 -45 63 -68 99 -36 14 13 19 12
38 -4 l23 -18 -34 -6 c-34 -7 -46 -21 -46 -57 0 -14 -7 -19 -25 -19 -15 0 -25
6 -25 15 0 7 -7 18 -16 23 -8 5 -21 20 -28 33 -11 22 -18 24 -81 24 -62 0 -71
-2 -79 -22 -7 -14 -22 -23 -48 -27 -30 -5 -39 -11 -44 -33 -13 -50 3 -58 121
-61 94 -2 109 -5 124 -23 10 -12 33 -23 59 -26 31 -4 40 -9 33 -16 -6 -6 -11
-21 -11 -34 0 -21 -5 -23 -49 -23 -73 0 -101 -13 -101 -48 0 -47 13 -52 151
-52 136 0 154 6 148 52 -2 13 4 34 13 46 30 43 -2 82 -68 82 -22 0 -23 2 -14
21 7 11 9 27 6 35 -4 11 10 14 79 14 47 0 85 -3 85 -6 0 -3 -11 -15 -25 -26
-51 -40 -22 -88 55 -88 61 0 78 20 74 87 -2 34 -9 53 -23 65 -12 9 -21 23 -21
32 0 8 -7 19 -16 24 -13 7 -9 11 20 16 43 8 65 41 48 73 -6 11 -9 29 -6 40 3
12 1 30 -5 42 -10 18 -21 21 -76 21 -57 0 -66 -3 -80 -24 -8 -13 -13 -31 -9
-40 5 -14 -2 -16 -49 -16 -39 0 -59 -4 -64 -15 -7 -13 -11 -12 -26 5 -16 20
-16 20 37 20 63 0 92 23 82 65 l-6 25 100 0 c93 0 100 1 100 20 0 19 -7 20
-180 20 -160 0 -181 -2 -187 -17z"/>
<path d="M30 530 c-24 -24 -24 -29 -4 -58 13 -18 25 -22 74 -22 62 0 90 15 90
50 0 48 -120 70 -160 30z"/>
<path d="M38 433 c-20 -5 -33 -44 -24 -69 3 -9 15 -18 25 -21 12 -3 17 -11 14
-23 -3 -10 0 -27 6 -39 14 -26 81 -30 101 -6 14 17 125 21 135 5 3 -5 35 -10
71 -10 53 0 66 3 76 20 11 17 24 20 75 20 50 0 67 4 83 20 25 25 25 42 2 63
-15 14 -41 17 -135 17 -110 0 -117 -1 -139 -24 -21 -23 -26 -24 -60 -13 -25 8
-38 18 -38 30 0 10 -11 22 -26 27 -25 10 -133 12 -166 3z"/>
<path d="M1353 430 c-16 -6 -23 -18 -23 -35 0 -25 -1 -25 -85 -25 -65 0 -85 3
-85 13 0 8 -8 21 -18 30 -15 14 -41 17 -139 17 -107 0 -122 -2 -138 -20 -11
-12 -15 -28 -12 -41 4 -16 3 -19 -6 -10 -6 6 -26 11 -44 11 -26 0 -33 4 -33
20 0 41 -85 55 -120 20 -11 -11 -20 -26 -20 -33 0 -16 32 -47 48 -47 7 0 12
-7 12 -15 0 -8 11 -22 25 -31 20 -13 22 -19 13 -34 -9 -14 -9 -25 0 -44 11
-25 15 -26 95 -26 88 0 107 8 107 47 0 12 12 34 26 48 14 14 23 32 20 40 -4
12 7 15 63 15 63 0 69 -2 79 -25 11 -24 14 -25 117 -25 100 0 106 1 114 23 5
12 7 25 4 30 -2 4 33 7 79 7 52 0 89 5 96 12 19 19 14 55 -10 72 -25 18 -127
21 -165 6z"/>
<path d="M1824 420 c-12 -4 -24 -15 -27 -24 -5 -13 -25 -16 -116 -16 -101 0
-111 -2 -121 -21 -7 -11 -9 -27 -6 -35 4 -11 -7 -14 -54 -14 -47 0 -64 -4 -80
-20 -24 -24 -24 -29 -4 -58 13 -20 24 -22 94 -22 73 0 81 2 95 24 8 13 13 31
9 40 -5 13 0 16 28 16 32 0 36 -3 47 -42 22 -75 19 -73 126 -76 63 -2 102 1
111 9 17 14 18 51 2 68 -11 10 -8 16 15 33 15 11 27 26 27 34 0 10 13 14 48
14 53 0 72 12 72 46 0 41 -35 54 -145 53 -55 0 -109 -4 -121 -9z"/>
<path d="M2208 419 c-25 -14 -24 -65 1 -79 35 -18 88 -12 105 12 20 29 20 34
-4 58 -22 22 -73 26 -102 9z"/>
<path d="M1987 269 c-30 -42 5 -79 75 -79 30 0 30 -1 15 -18 -38 -42 -5 -82
66 -82 42 0 47 -2 47 -22 0 -43 15 -52 89 -56 81 -5 121 12 121 51 0 38 -19
47 -98 47 -68 0 -73 1 -67 19 10 33 -27 61 -82 61 -46 0 -47 1 -25 16 24 17
29 53 10 72 -7 7 -39 12 -74 12 -52 0 -65 -4 -77 -21z"/>
<path d="M978 270 c-11 -6 -18 -23 -18 -40 0 -35 39 -60 95 -60 19 0 35 -4 35
-10 0 -23 41 -50 78 -51 30 0 33 -2 16 -9 -28 -11 -36 -43 -17 -69 13 -19 24
-21 142 -21 95 0 131 3 140 13 15 19 8 116 -10 128 -29 18 -78 10 -95 -16 -14
-21 -24 -25 -67 -25 -42 0 -48 2 -35 13 25 19 51 84 44 111 -7 30 -21 33 -171
41 -79 4 -126 2 -137 -5z"/>
<path d="M350 251 c-8 -5 -28 -13 -45 -17 -19 -6 -35 -20 -45 -41 -17 -37 -60
-47 -60 -15 0 33 -22 42 -97 42 -64 0 -74 -3 -84 -21 -8 -16 -8 -28 0 -45 9
-20 18 -24 56 -24 25 0 45 -4 45 -9 0 -5 -18 -7 -40 -4 -48 7 -70 -8 -70 -48
0 -50 64 -66 103 -26 28 27 50 24 71 -9 l16 -24 185 1 c195 1 215 5 215 48 0
35 -35 53 -97 51 -32 -2 -94 -2 -138 -1 -67 3 -74 4 -45 11 19 5 41 18 49 29
10 16 24 21 61 21 30 0 52 -6 60 -15 9 -11 34 -15 101 -15 77 0 90 2 99 19 7
13 7 28 0 45 -9 24 -14 26 -69 26 -40 0 -63 5 -71 15 -9 11 -34 15 -99 14 -47
0 -93 -4 -101 -8z"/>
<path d="M2388 209 c-25 -14 -24 -65 1 -79 44 -23 101 1 101 42 0 38 -62 61
-102 37z"/>
<path d="M1520 170 c-11 -11 -20 -23 -20 -28 0 -18 33 -52 50 -52 13 0 17 -5
13 -19 -3 -10 0 -28 6 -40 10 -18 21 -21 76 -21 57 0 66 3 80 24 20 30 7 61
-28 70 -19 4 -23 11 -20 29 7 38 -20 57 -83 57 -41 0 -59 -5 -74 -20z"/>
<path d="M759 137 c-7 -16 -24 -27 -51 -33 -50 -11 -66 -42 -40 -74 15 -18 26
-21 82 -18 57 3 66 6 75 26 9 22 15 24 68 20 45 -3 61 -9 73 -26 13 -19 25
-22 79 -22 54 0 66 3 79 21 23 33 6 62 -40 73 -49 11 -52 12 -89 35 -24 16
-49 20 -128 20 -93 1 -98 0 -108 -22z"/>
<path d="M1924 150 c-12 -4 -24 -15 -27 -24 -4 -11 -19 -16 -46 -16 -23 0 -48
-8 -62 -19 -20 -16 -22 -23 -14 -47 l10 -29 138 -3 c136 -3 137 -2 148 21 12
26 -2 67 -22 67 -5 0 -20 11 -32 24 -27 29 -63 39 -93 26z"/>
<path d="M2860 90 c-38 -38 -14 -80 45 -80 61 0 82 70 28 91 -36 13 -51 11
-73 -11z"/>
</g>
</svg>
