<?xml version="1.0" standalone="no"?>
<!DOCTYPE svg PUBLIC "-//W3C//DTD SVG 20010904//EN"
 "http://www.w3.org/TR/2001/REC-SVG-20010904/DTD/svg10.dtd">
<svg version="1.0" xmlns="http://www.w3.org/2000/svg"
 width="468pt" height="465pt" viewBox="0 0 468 465"
 preserveAspectRatio="xMidYMid meet">
<metadata>
Created by potrace 1.8, written by Peter Selinger 2001-2007
</metadata>
<g transform="translate(0,465) scale(0.157576,-0.157576)"
fill="#000000" stroke="none">
<path d="M1429 2922 c-19 -16 -263 -203 -544 -416 -280 -214 -525 -403 -543
-422 -66 -69 -27 -124 89 -124 l69 0 1 -922 c0 -688 3 -932 12 -957 7 -19 24
-43 38 -53 24 -18 57 -19 927 -18 667 0 909 4 928 12 56 26 54 -12 54 1002 l0
935 81 3 c76 3 83 5 102 30 33 44 16 71 -103 163 -445 343 -1034 786 -1054
791 -17 4 -33 -2 -57 -24z m921 -794 l35 -28 -903 0 -904 0 452 344 451 344
417 -316 c230 -175 433 -329 452 -344z m-20 -1078 l0 -910 -845 0 -845 0 0
910 0 910 845 0 845 0 0 -910z"/>
<path d="M654 1375 c-3 -8 -3 -19 1 -25 8 -13 1633 -14 1654 -1 8 5 11 16 8
25 -6 14 -84 16 -832 16 -713 0 -826 -2 -831 -15z"/>
<path d="M654 755 c-3 -8 -3 -19 1 -25 8 -13 1633 -14 1654 -1 8 5 11 16 8 25
-6 14 -84 16 -832 16 -713 0 -826 -2 -831 -15z"/>
<path d="M685 685 l-25 -24 0 -226 0 -226 25 -24 24 -25 773 0 c684 0 776 2
796 16 22 15 22 18 22 259 0 241 0 244 -22 259 -20 14 -112 16 -796 16 l-773
0 -24 -25z m1021 -108 c17 -9 20 -17 13 -34 -7 -20 -11 -21 -43 -11 -73 23
-123 -37 -113 -136 5 -54 39 -96 78 -96 17 0 19 7 19 65 l0 65 35 0 36 0 -3
-82 -3 -83 -48 -9 c-37 -7 -59 -6 -90 5 -116 40 -117 272 -2 319 30 13 97 11
121 -3z m-406 -63 c0 -60 2 -65 16 -53 9 7 30 37 46 66 27 48 33 53 65 53 l35
0 -23 -37 c-12 -21 -35 -54 -50 -73 l-27 -35 30 -35 c26 -31 78 -120 78 -135
0 -3 -15 -5 -34 -5 -28 0 -36 5 -46 30 -17 40 -67 110 -80 110 -6 0 -10 -30
-10 -70 l0 -70 -30 0 -30 0 0 160 0 160 30 0 30 0 0 -66z"/>
<path d="M24 755 c-9 -22 5 -35 38 -35 30 0 31 -1 13 -20 -10 -11 -15 -28 -12
-39 3 -14 -1 -22 -14 -26 -32 -10 -43 -42 -24 -71 14 -21 23 -24 80 -24 71 0
88 14 83 68 -3 26 -1 27 50 30 50 3 52 2 52 -22 0 -32 26 -46 87 -46 68 0 82
13 87 85 2 33 7 68 11 77 4 9 4 22 0 28 -4 6 -84 10 -226 10 -183 0 -221 -2
-225 -15z"/>
<path d="M2501 756 c-8 -9 -8 -16 -2 -20 6 -4 7 -15 1 -30 -4 -13 -4 -29 0
-37 5 -7 7 -24 3 -37 -3 -14 1 -30 12 -42 32 -36 105 -19 105 23 0 13 9 26 23
32 16 7 22 18 22 43 l0 32 63 0 c65 0 75 -12 26 -30 -17 -7 -24 -17 -24 -35 0
-22 -4 -25 -34 -25 -38 0 -66 -21 -66 -50 0 -42 25 -50 151 -50 106 0 121 2
139 20 25 25 25 31 -1 64 -17 21 -18 26 -5 26 23 0 43 40 42 85 l-1 40 -221 3
c-182 2 -223 0 -233 -12z"/>
<path d="M91 498 c-5 -13 -5 -32 -1 -43 6 -18 18 -20 98 -23 84 -3 92 -1 102
19 9 16 9 28 1 45 -10 23 -16 24 -101 24 -85 0 -91 -1 -99 -22z"/>
<path d="M352 508 c-15 -15 -15 -51 0 -66 7 -7 28 -12 48 -12 41 0 60 14 60
45 0 31 -19 45 -60 45 -20 0 -41 -5 -48 -12z"/>
<path d="M2531 507 c-6 -7 -9 -36 -8 -62 2 -42 6 -51 27 -62 51 -26 133 -11
145 26 5 18 15 21 55 21 58 0 80 24 61 66 -10 23 -14 24 -140 24 -94 0 -131
-4 -140 -13z"/>
<path d="M185 385 c-14 -16 -26 -22 -30 -15 -8 13 -100 13 -126 0 -26 -14 -26
-66 0 -80 11 -5 40 -10 66 -10 36 0 51 5 70 25 14 16 26 22 30 15 3 -5 37 -10
75 -10 63 0 69 -2 72 -22 4 -33 49 -55 85 -42 25 8 29 16 36 69 12 86 -1 95
-145 95 -104 0 -110 -1 -133 -25z"/>
<path d="M2768 399 c-22 -12 -24 -62 -4 -78 9 -8 45 -11 97 -9 82 3 84 4 94
32 15 44 -19 66 -104 66 -36 0 -74 -5 -83 -11z"/>
<path d="M2508 326 c-14 -32 -5 -54 29 -67 39 -15 114 -5 130 17 34 46 2 74
-83 74 -59 0 -65 -2 -76 -24z"/>
<path d="M2809 271 c-16 -13 -33 -17 -55 -14 -39 6 -74 -11 -74 -37 0 -18 -7
-20 -78 -20 -83 0 -102 -9 -102 -46 0 -40 20 -45 161 -42 l134 3 3 40 3 40 65
-3 c41 -2 70 1 79 8 22 18 19 67 -4 80 -33 17 -106 12 -132 -9z"/>
<path d="M25 236 c-13 -19 -14 -29 -5 -45 15 -29 40 -33 167 -29 103 3 110 2
102 -14 -6 -12 -6 -25 1 -37 5 -11 7 -33 4 -50 -10 -48 8 -61 82 -61 53 0 65
3 78 21 10 15 12 28 6 45 -5 13 -7 37 -4 53 9 41 -28 64 -94 59 -47 -3 -48 -3
-44 25 8 51 -8 57 -149 57 -125 0 -129 -1 -144 -24z"/>
<path d="M138 120 c-9 -14 -24 -20 -48 -20 -44 0 -80 -24 -80 -54 0 -36 19
-46 87 -46 56 0 64 3 79 25 9 14 24 25 33 25 36 0 55 52 29 78 -20 20 -86 15
-100 -8z"/>
<path d="M2522 84 c-43 -30 -17 -84 42 -84 39 0 56 15 56 52 0 45 -54 63 -98
32z"/>
<path d="M2660 80 c-24 -24 -24 -29 -4 -58 14 -21 22 -22 143 -22 134 0 151 5
151 46 0 42 -34 54 -157 54 -100 0 -115 -2 -133 -20z"/>
</g>
</svg>
