<?xml version="1.0" standalone="no"?>
<!DOCTYPE svg PUBLIC "-//W3C//DTD SVG 20010904//EN"
 "http://www.w3.org/TR/2001/REC-SVG-20010904/DTD/svg10.dtd">
<svg version="1.0" xmlns="http://www.w3.org/2000/svg"
 width="468pt" height="468pt" viewBox="0 0 468 468"
 preserveAspectRatio="xMidYMid meet">
<metadata>
Created by potrace 1.8, written by Peter Selinger 2001-2007
</metadata>
<g transform="translate(0,468) scale(0.158108,-0.158108)"
fill="#000000" stroke="none">
<path d="M189 2921 c-52 -33 -150 -134 -173 -178 -20 -39 -21 -93 -2 -136 8
-18 251 -268 565 -582 l551 -550 -549 -550 c-590 -591 -580 -580 -566 -668 6
-35 21 -56 94 -130 47 -49 98 -95 113 -103 32 -17 111 -18 141 -3 12 6 268
257 570 558 l547 546 548 -546 c301 -301 557 -552 569 -558 31 -15 109 -14
141 3 33 18 175 162 192 194 15 30 15 98 0 137 -7 18 -234 253 -555 575 l-545
545 554 555 c610 611 594 591 566 682 -14 50 -155 202 -207 224 -39 17 -91 18
-130 3 -15 -5 -277 -258 -580 -562 l-553 -552 -547 547 c-302 300 -562 553
-580 562 -51 25 -112 21 -164 -13z m698 -693 l593 -593 593 593 c325 325 596
592 602 592 16 0 145 -133 145 -150 0 -8 -266 -281 -591 -606 l-590 -591 585
-583 c322 -321 586 -591 586 -599 0 -20 -130 -151 -150 -151 -8 0 -278 263
-600 585 l-585 585 -585 -585 c-322 -322 -589 -585 -595 -585 -16 0 -145 133
-145 150 0 8 262 278 583 598 l584 583 -594 592 c-326 326 -593 598 -593 606
0 19 132 151 151 151 7 0 280 -267 606 -592z"/>
</g>
</svg>
