<?xml version="1.0" standalone="no"?>
<!DOCTYPE svg PUBLIC "-//W3C//DTD SVG 20010904//EN"
 "http://www.w3.org/TR/2001/REC-SVG-20010904/DTD/svg10.dtd">
<svg version="1.0" xmlns="http://www.w3.org/2000/svg"
 width="468pt" height="468pt" viewBox="0 0 468 468"
 preserveAspectRatio="xMidYMid meet">
<metadata>
Created by potrace 1.8, written by Peter Selinger 2001-2007
</metadata>
<g transform="translate(0,468) scale(0.185714,-0.185714)"
fill="#000000" stroke="none">
<path d="M371 2504 c-174 -47 -315 -191 -356 -365 -22 -96 -22 -1652 0 -1748
42 -178 179 -319 356 -366 45 -12 197 -15 890 -15 739 0 842 2 890 16 198 59
335 220 360 424 6 54 9 375 7 870 -4 862 -1 817 -65 945 -32 62 -132 162 -199
197 -110 59 -92 58 -999 57 -692 0 -839 -3 -884 -15z m1730 -128 c110 -25 197
-98 248 -205 l26 -56 0 -850 0 -850 -32 -66 c-39 -79 -102 -140 -181 -177
l-57 -27 -819 -3 c-912 -3 -893 -4 -993 64 -56 39 -87 74 -124 144 l-24 45 0
870 0 870 27 50 c51 98 151 175 252 195 22 4 397 8 831 9 625 0 802 -2 846
-13z"/>
<path d="M1217 2122 c-16 -17 -17 -91 -17 -855 l0 -836 22 -15 c28 -20 58 -20
86 0 l22 15 0 838 c0 799 -1 839 -18 854 -25 22 -75 21 -95 -1z"/>
</g>
</svg>
