<?xml version="1.0" standalone="no"?>
<!DOCTYPE svg PUBLIC "-//W3C//DTD SVG 20010904//EN"
 "http://www.w3.org/TR/2001/REC-SVG-20010904/DTD/svg10.dtd">
<svg version="1.0" xmlns="http://www.w3.org/2000/svg"
 width="296.000000pt" height="194.000000pt" viewBox="0 0 296.000000 194.000000"
 preserveAspectRatio="xMidYMid meet">
<metadata>
Created by potrace 1.14, written by Peter Selinger 2001-2017
</metadata>
<g transform="translate(0.000000,194.000000) scale(0.100000,-0.100000)"
fill="#000000" stroke="none">
<path d="M84 1926 c-17 -8 -42 -29 -55 -47 -22 -31 -24 -45 -27 -164 -3 -148
7 -182 67 -222 l34 -23 1371 0 c1350 0 1371 0 1404 20 61 38 72 69 72 215 0
146 -11 177 -72 215 -33 20 -53 20 -1398 20 -1124 -1 -1370 -3 -1396 -14z"/>
<path d="M90 1192 c-19 -9 -45 -33 -58 -52 -22 -33 -23 -42 -20 -177 l3 -143
38 -37 37 -38 1384 -3 1383 -2 34 23 c60 40 70 74 67 222 -3 116 -5 133 -25
161 -49 69 54 64 -1450 64 -1273 0 -1360 -1 -1393 -18z"/>
<path d="M82 460 c-64 -29 -82 -75 -82 -218 0 -156 25 -206 115 -231 50 -14
2660 -15 2719 -1 23 5 54 23 75 44 l36 36 3 143 c3 135 2 144 -20 176 -13 19
-39 42 -58 52 -33 18 -90 19 -1390 19 -1320 0 -1356 -1 -1398 -20z"/>
</g>
</svg>
