<?xml version="1.0" standalone="no"?>
<!DOCTYPE svg PUBLIC "-//W3C//DTD SVG 20010904//EN"
 "http://www.w3.org/TR/2001/REC-SVG-20010904/DTD/svg10.dtd">
<svg version="1.0" xmlns="http://www.w3.org/2000/svg"
 width="468pt" height="473pt" viewBox="0 0 468 473"
 preserveAspectRatio="xMidYMid meet">
<metadata>
Created by potrace 1.8, written by Peter Selinger 2001-2007
</metadata>
<g transform="translate(0,473) scale(0.240000,-0.240000)"
fill="#000000" stroke="none">
<path d="M1095 1956 c-16 -8 -267 -252 -557 -542 -545 -548 -557 -561 -529
-611 5 -10 66 -74 135 -143 l126 -124 -100 -102 c-65 -66 -100 -109 -100 -123
0 -23 41 -71 60 -71 7 0 399 -52 872 -115 473 -63 874 -115 889 -115 20 0 34
8 45 26 17 24 12 63 -100 907 -64 485 -120 890 -122 900 -8 26 -58 49 -86 38
-13 -5 -61 -48 -108 -95 l-85 -86 -130 129 c-74 74 -141 132 -155 135 -14 3
-38 -1 -55 -8z m-247 -833 l-488 -488 -105 105 -105 105 487 487 488 488 105
-105 105 -105 -487 -487z m858 -231 c53 -398 93 -726 90 -729 -5 -6 -1450 183
-1490 194 -15 4 120 144 635 659 628 628 654 653 661 627 5 -16 51 -353 104
-751z"/>
</g>
</svg>
