<?xml version="1.0" standalone="no"?>
<!DOCTYPE svg PUBLIC "-//W3C//DTD SVG 20010904//EN"
 "http://www.w3.org/TR/2001/REC-SVG-20010904/DTD/svg10.dtd">
<svg version="1.0" xmlns="http://www.w3.org/2000/svg"
 width="468pt" height="467pt" viewBox="0 0 468 467"
 preserveAspectRatio="xMidYMid meet">
<metadata>
Created by potrace 1.8, written by Peter Selinger 2001-2007
</metadata>
<g transform="translate(0,467) scale(0.158108,-0.158108)"
fill="#000000" stroke="none">
<path d="M205 2932 c-92 -32 -158 -99 -190 -193 -14 -39 -15 -115 -13 -545 l3
-499 27 -51 c35 -66 105 -128 171 -151 47 -16 95 -18 537 -18 552 0 542 -1
633 84 58 54 81 97 96 176 14 75 15 882 1 955 -22 114 -92 201 -196 240 -52
19 -76 20 -537 20 -431 -1 -487 -2 -532 -18z m1018 -126 c48 -18 74 -41 98
-88 18 -35 19 -66 19 -504 0 -454 -1 -469 -21 -511 -14 -29 -35 -52 -63 -68
l-43 -25 -471 0 c-309 0 -480 4 -499 11 -40 15 -73 48 -94 94 -17 37 -19 74
-19 490 0 283 4 464 11 488 12 46 68 103 112 116 17 5 234 9 482 10 355 0 458
-3 488 -13z"/>
<path d="M695 2645 l-25 -24 0 -404 c0 -378 1 -406 18 -428 26 -31 78 -31 104
0 17 22 18 50 18 428 l0 404 -25 24 c-31 32 -59 32 -90 0z"/>
<path d="M1730 2283 c-49 -19 -64 -68 -34 -111 l15 -22 364 0 c228 0 384 -4
417 -11 162 -34 291 -169 318 -333 5 -30 7 -243 5 -473 -3 -399 -4 -421 -25
-476 -43 -114 -136 -199 -261 -238 -57 -18 -102 -19 -765 -19 l-704 0 0 200
c0 200 0 201 -25 225 -13 14 -33 25 -43 25 -25 0 -633 -465 -651 -497 -9 -19
-10 -32 -3 -48 15 -32 630 -505 657 -505 9 0 27 11 40 25 25 24 25 25 25 230
l0 205 703 0 c668 0 708 1 781 20 43 11 101 32 129 47 71 38 176 146 215 219
58 112 60 129 63 615 3 397 2 451 -14 513 -37 146 -134 270 -264 338 -128 68
-147 70 -558 74 -203 2 -377 1 -385 -3z m-810 -1758 c0 -250 -2 -305 -13 -298
-37 22 -387 295 -387 301 1 8 381 301 393 301 4 1 7 -136 7 -304z"/>
</g>
</svg>
