<?xml version="1.0" standalone="no"?>
<!DOCTYPE svg PUBLIC "-//W3C//DTD SVG 20010904//EN"
 "http://www.w3.org/TR/2001/REC-SVG-20010904/DTD/svg10.dtd">
<svg version="1.0" xmlns="http://www.w3.org/2000/svg"
 width="468pt" height="505pt" viewBox="0 0 468 505"
 preserveAspectRatio="xMidYMid meet">
<metadata>
Created by potrace 1.8, written by Peter Selinger 2001-2007
</metadata>
<g transform="translate(0,505) scale(0.214679,-0.214679)"
fill="#000000" stroke="none">
<path d="M1062 2340 c-12 -5 -27 -21 -32 -35 -13 -35 -14 -1384 0 -1419 15
-40 77 -51 113 -19 16 15 17 63 17 728 0 665 -1 713 -17 727 -25 22 -54 28
-81 18z"/>
<path d="M418 2160 c-204 -26 -334 -129 -388 -309 -20 -64 -20 -88 -18 -796
l3 -730 32 -68 c60 -127 181 -222 313 -247 75 -14 1382 -13 1452 1 172 36 313
175 348 345 7 33 10 289 8 755 l-3 704 -23 57 c-53 131 -156 230 -278 268 -58
17 -93 20 -274 20 -176 0 -211 -2 -224 -16 -38 -37 -27 -96 20 -114 14 -6 107
-10 208 -10 208 0 256 -10 329 -65 30 -23 55 -54 74 -92 l28 -58 0 -720 0
-720 -28 -57 c-32 -64 -80 -111 -146 -142 -45 -21 -58 -21 -740 -24 -765 -3
-757 -3 -847 59 -50 34 -78 71 -101 131 -14 38 -16 119 -14 748 2 808 -2 769
86 856 75 76 111 84 357 84 198 0 199 0 223 25 53 52 19 115 -62 115 -27 0
-97 2 -158 4 -60 3 -140 1 -177 -4z"/>
</g>
</svg>
