<?xml version="1.0" standalone="no"?>
<!DOCTYPE svg PUBLIC "-//W3C//DTD SVG 20010904//EN"
 "http://www.w3.org/TR/2001/REC-SVG-20010904/DTD/svg10.dtd">
<svg version="1.0" xmlns="http://www.w3.org/2000/svg"
 width="468pt" height="467pt" viewBox="0 0 468 467"
 preserveAspectRatio="xMidYMid meet">
<metadata>
Created by potrace 1.8, written by Peter Selinger 2001-2007
</metadata>
<g transform="translate(0,467) scale(0.158108,-0.158108)"
fill="#000000" stroke="none">
<path d="M1030 2931 c-64 -34 -75 -66 -78 -238 l-4 -153 -415 0 c-403 0 -416
-1 -453 -21 -76 -43 -70 59 -70 -1249 0 -1158 0 -1173 20 -1205 42 -68 -8 -65
980 -65 966 0 916 -3 970 55 24 26 25 31 28 191 l3 164 422 0 c403 0 423 1
455 20 18 11 41 34 52 52 20 32 20 53 20 1199 l0 1166 -23 34 c-49 73 11 69
-982 69 -849 0 -892 -1 -925 -19z m1798 -1253 l-3 -1133 -867 -3 -868 -2 0
1135 0 1135 870 0 870 0 -2 -1132z m-1878 612 l0 -110 -310 0 c-297 0 -311 -1
-330 -20 -25 -25 -26 -61 -1 -91 l19 -24 311 -3 311 -3 0 -84 0 -85 -305 0
-306 0 -26 -26 c-20 -20 -24 -31 -19 -57 11 -57 12 -57 348 -57 l308 0 0 -90
0 -90 -314 0 c-314 0 -315 0 -330 -22 -20 -28 -20 -58 0 -86 15 -22 16 -22
330 -22 l314 0 0 -90 0 -90 -305 0 -306 0 -24 -25 c-32 -31 -32 -59 0 -90 l24
-25 306 0 305 0 0 -90 0 -90 -307 0 c-271 0 -309 -2 -325 -17 -22 -20 -23 -70
-1 -95 15 -17 38 -18 325 -18 l308 0 0 -90 0 -90 -305 0 c-292 0 -306 -1 -325
-20 -27 -27 -25 -66 5 -95 l24 -25 314 0 c281 0 316 -2 328 -17 34 -41 61 -43
484 -43 l406 0 -3 -138 -3 -137 -867 -3 -868 -2 0 1135 0 1135 405 0 405 0 0
-110z"/>
<path d="M1260 2570 c-26 -26 -26 -72 1 -96 20 -18 46 -19 700 -19 625 0 680
1 695 17 23 22 22 73 -1 98 -18 20 -29 20 -697 20 -665 0 -678 0 -698 -20z"/>
<path d="M1266 2259 c-32 -25 -35 -70 -6 -99 20 -20 33 -20 694 -20 640 0 675
1 697 18 15 13 22 30 22 52 0 22 -7 39 -22 52 -22 17 -57 18 -691 18 -660 0
-668 0 -694 -21z"/>
<path d="M1256 1938 c-9 -12 -16 -32 -16 -43 0 -11 7 -31 16 -43 l15 -22 682
0 c375 0 687 4 693 8 20 13 35 52 29 72 -17 52 16 50 -720 50 l-684 0 -15 -22z"/>
<path d="M1260 1630 c-11 -11 -20 -33 -20 -50 0 -17 9 -39 20 -50 20 -20 33
-20 694 -20 640 0 675 1 697 18 15 13 22 30 22 52 0 22 -7 39 -22 52 -22 17
-57 18 -697 18 -661 0 -674 0 -694 -20z"/>
<path d="M1267 1312 c-22 -25 -21 -75 1 -95 17 -16 79 -17 686 -17 422 0 674
4 686 10 27 14 35 65 16 95 l-16 25 -679 0 c-644 0 -679 -1 -694 -18z"/>
<path d="M1270 1000 c-29 -29 -26 -74 6 -99 26 -21 34 -21 684 -21 624 0 659
1 681 18 28 23 30 73 4 102 -18 20 -29 20 -687 20 -655 0 -668 0 -688 -20z"/>
</g>
</svg>
