<?xml version="1.0" standalone="no"?>
<!DOCTYPE svg PUBLIC "-//W3C//DTD SVG 20010904//EN"
 "http://www.w3.org/TR/2001/REC-SVG-20010904/DTD/svg10.dtd">
<svg version="1.0" xmlns="http://www.w3.org/2000/svg"
 width="468pt" height="470pt" viewBox="0 0 468 470"
 preserveAspectRatio="xMidYMid meet">
<metadata>
Created by potrace 1.8, written by Peter Selinger 2001-2007
</metadata>
<g transform="translate(0,470) scale(0.157576,-0.157576)"
fill="#000000" stroke="none">
<path d="M305 2956 c-104 -33 -210 -118 -254 -204 -50 -99 -51 -110 -51 -819
0 -445 4 -679 11 -715 36 -174 168 -306 339 -338 29 -5 205 -10 392 -10 l339
0 24 25 c30 29 32 55 6 86 l-19 24 -379 5 c-430 6 -421 4 -501 95 -73 83 -71
61 -73 810 -1 369 2 684 6 700 15 57 54 123 92 154 81 67 58 65 786 69 731 3
736 3 826 -61 33 -24 56 -52 81 -102 l35 -68 0 -464 0 -465 24 -19 c30 -25 66
-24 91 1 21 21 21 29 18 508 l-3 487 -32 67 c-54 115 -150 199 -262 232 -48
14 -143 16 -755 15 -537 0 -710 -3 -741 -13z"/>
<path d="M983 2526 l-28 -24 -3 -236 -3 -236 -215 0 c-246 0 -275 -6 -299 -64
-19 -44 -10 -88 22 -118 24 -23 30 -23 258 -26 l234 -3 3 -234 c3 -220 4 -236
23 -255 46 -45 130 -42 162 7 16 23 18 58 21 255 l3 228 220 0 c179 0 226 3
250 15 71 37 63 158 -12 184 -20 7 -115 11 -245 11 l-214 0 0 208 c0 114 -5
224 -11 244 -18 67 -111 91 -166 44z"/>
<path d="M1560 1470 c-62 -15 -70 -35 -70 -181 l0 -129 -89 0 c-93 0 -107 -5
-132 -51 -8 -16 -6 -27 7 -47 55 -84 790 -1035 810 -1048 14 -10 34 -14 47
-10 28 7 828 1045 835 1082 3 15 -5 32 -21 48 -24 24 -32 26 -122 26 l-95 0 0
129 c0 148 -7 166 -75 181 -49 12 -1046 11 -1095 0z m1040 -220 l0 -90 -490 0
-490 0 0 90 0 90 490 0 490 0 0 -90z m150 -236 c0 -6 -633 -835 -635 -831 -2
2 -609 799 -628 825 -8 9 119 12 627 12 350 0 636 -2 636 -6z"/>
</g>
</svg>
