<?xml version="1.0" standalone="no"?>
<!DOCTYPE svg PUBLIC "-//W3C//DTD SVG 20010904//EN"
 "http://www.w3.org/TR/2001/REC-SVG-20010904/DTD/svg10.dtd">
<svg version="1.0" xmlns="http://www.w3.org/2000/svg"
 width="468pt" height="387pt" viewBox="0 0 468 387"
 preserveAspectRatio="xMidYMid meet">
<metadata>
Created by potrace 1.8, written by Peter Selinger 2001-2007
</metadata>
<g transform="translate(0,387) scale(0.159184,-0.159184)"
fill="#000000" stroke="none">
<path d="M117 2416 c-50 -18 -76 -42 -98 -91 -18 -38 -19 -93 -19 -1100 0
-663 4 -1073 10 -1094 11 -39 51 -86 92 -107 40 -21 2302 -21 2351 0 44 18 84
67 97 119 7 23 97 295 201 604 104 309 189 573 189 588 0 66 -57 135 -128 155
-20 5 -85 10 -144 10 l-108 0 0 248 c0 139 -5 263 -10 284 -14 48 -55 97 -97
114 -26 11 -164 14 -737 14 -791 0 -730 -6 -741 78 -14 115 -36 149 -114 177
-60 21 -685 22 -744 1z m725 -194 c9 -85 44 -143 101 -171 43 -21 53 -21 748
-21 535 0 708 -3 717 -12 9 -9 12 -82 12 -265 l0 -253 -518 0 -519 0 -11 25
c-7 14 -12 43 -12 63 0 57 -38 123 -85 149 -39 22 -46 23 -398 23 -312 0 -363
-2 -394 -16 -45 -22 -79 -68 -92 -124 -5 -25 -63 -240 -128 -477 l-118 -433
-3 778 c-1 427 0 783 3 790 3 10 78 12 347 10 l343 -3 7 -63z m364 -600 c6 -4
14 -29 18 -57 15 -100 59 -166 129 -192 23 -8 223 -12 733 -12 504 -1 703 -4
711 -12 9 -9 -40 -165 -187 -602 -109 -324 -203 -594 -207 -598 -5 -5 -504 -8
-1127 -7 -1007 3 -1120 5 -1129 19 -7 11 41 202 182 720 106 387 196 714 201
727 l10 22 327 0 c181 0 333 -4 339 -8z"/>
</g>
</svg>
