<?xml version="1.0" standalone="no"?>
<!DOCTYPE svg PUBLIC "-//W3C//DTD SVG 20010904//EN"
 "http://www.w3.org/TR/2001/REC-SVG-20010904/DTD/svg10.dtd">
<svg version="1.0" xmlns="http://www.w3.org/2000/svg"
 width="468pt" height="467pt" viewBox="0 0 468 467"
 preserveAspectRatio="xMidYMid meet">
<metadata>
Created by potrace 1.8, written by Peter Selinger 2001-2007
</metadata>
<g transform="translate(0,467) scale(0.157047,-0.157047)"
fill="#000000" stroke="none">
<path d="M320 2941 c-156 -50 -248 -139 -291 -281 -19 -63 -20 -91 -17 -771
l3 -705 38 -76 c61 -124 170 -209 305 -237 34 -7 208 -11 493 -11 l440 0 24
25 c14 13 25 34 25 45 0 11 -11 32 -25 45 l-24 25 -449 0 c-525 0 -523 0 -607
84 -90 90 -86 50 -83 842 l3 689 27 51 c33 63 91 116 154 140 46 18 86 19 734
19 l685 0 53 -24 c59 -27 105 -74 136 -140 20 -44 21 -66 26 -473 5 -385 7
-429 22 -444 23 -23 75 -22 98 2 19 18 20 38 20 429 1 437 -2 471 -51 566 -27
54 -90 121 -147 158 -98 62 -87 61 -846 60 -634 0 -696 -2 -746 -18z"/>
<path d="M492 2005 c-63 -27 -77 -118 -25 -167 l25 -23 559 -3 c492 -2 563 -1
589 13 71 37 64 158 -11 184 -22 8 -201 11 -568 11 -442 -1 -542 -3 -569 -15z"/>
<path d="M2078 1458 c-32 -26 -802 -1044 -806 -1066 -3 -15 4 -32 18 -48 22
-22 30 -24 122 -24 l98 0 0 -134 c0 -145 4 -157 57 -177 14 -5 259 -9 559 -9
570 0 588 1 613 48 6 12 11 75 11 146 l0 126 90 0 c99 0 130 15 130 64 0 15
-132 197 -396 542 -218 286 -403 525 -412 532 -9 6 -28 12 -42 12 -14 0 -33
-6 -42 -12z m367 -588 l317 -415 -321 -3 c-177 -1 -465 -1 -642 0 l-321 3 319
417 c175 230 321 416 325 415 4 -1 149 -189 323 -417z m165 -645 l0 -85 -485
0 -485 0 0 85 0 85 485 0 485 0 0 -85z"/>
</g>
</svg>
