<?xml version="1.0" standalone="no"?>
<!DOCTYPE svg PUBLIC "-//W3C//DTD SVG 20010904//EN"
 "http://www.w3.org/TR/2001/REC-SVG-20010904/DTD/svg10.dtd">
<svg version="1.0" xmlns="http://www.w3.org/2000/svg"
 width="468pt" height="516pt" viewBox="0 0 468 516"
 preserveAspectRatio="xMidYMid meet">
<metadata>
Created by potrace 1.8, written by Peter Selinger 2001-2007
</metadata>
<g transform="translate(0,516) scale(0.174627,-0.174627)"
fill="#000000" stroke="none">
<path d="M1890 2940 c-30 -7 -46 -37 -61 -112 l-10 -58 -37 0 c-20 0 -47 -3
-59 -6 -19 -5 -26 2 -53 62 -17 38 -36 72 -43 76 -23 15 -55 8 -143 -31 -116
-51 -128 -69 -95 -143 39 -89 39 -88 -9 -129 l-44 -38 -61 35 c-34 19 -69 34
-77 34 -30 0 -63 -39 -108 -124 -43 -81 -44 -87 -30 -113 8 -15 40 -41 71 -60
l56 -32 -11 -52 c-7 -28 -18 -54 -26 -59 -8 -4 -41 -11 -72 -14 -72 -9 -102
-40 -94 -96 3 -19 8 -64 12 -99 10 -95 29 -111 126 -104 l74 6 23 -54 23 -53
-41 -39 c-23 -21 -47 -37 -54 -34 -7 2 -51 14 -99 27 -82 21 -89 22 -112 6
-18 -11 -31 -34 -41 -74 -9 -31 -18 -63 -20 -69 -3 -9 -25 -13 -64 -13 l-59 0
-22 58 c-29 72 -46 92 -80 92 -45 0 -191 -62 -212 -91 -19 -25 -19 -26 7 -94
28 -76 27 -81 -38 -127 l-28 -20 -60 37 c-78 48 -102 45 -151 -20 -20 -27 -49
-70 -63 -96 -33 -62 -24 -87 51 -135 54 -35 56 -37 49 -71 -14 -74 -21 -83
-67 -83 -62 0 -116 -18 -129 -42 -8 -15 -10 -54 -5 -122 5 -90 9 -103 30 -122
21 -19 33 -21 93 -17 l70 5 23 -57 23 -57 -34 -26 c-72 -56 -91 -81 -84 -109
8 -35 114 -170 140 -180 32 -11 57 -3 100 31 22 18 46 36 52 40 12 6 97 -36
108 -53 2 -4 -2 -29 -10 -56 -20 -64 -19 -109 3 -127 20 -18 165 -58 209 -58
39 0 50 14 72 92 l18 63 59 7 c32 3 60 3 62 0 1 -4 15 -36 30 -72 38 -90 52
-94 178 -44 127 50 135 63 99 158 -14 37 -25 68 -25 70 0 2 21 19 46 39 l45
36 61 -40 c63 -40 74 -44 103 -32 15 5 126 162 138 195 8 22 24 -4 32 -49 6
-40 5 -43 -32 -66 -49 -31 -65 -51 -65 -81 0 -24 76 -150 105 -175 26 -21 63
-16 107 13 47 31 49 31 90 9 31 -18 31 -18 25 -79 -9 -84 7 -102 100 -114 119
-16 142 -13 162 16 9 14 19 50 21 80 4 53 5 54 43 65 38 12 40 11 84 -29 66
-62 86 -58 173 32 44 45 72 82 72 95 0 12 -21 44 -46 71 -45 48 -45 49 -33 88
11 39 13 40 66 45 30 3 66 13 80 22 24 16 25 20 19 84 -12 113 -18 139 -38
161 -17 18 -26 20 -82 14 l-63 -6 -22 35 -22 36 31 54 c39 69 31 94 -42 141
-128 81 -152 82 -200 4 -30 -49 -31 -49 -72 -43 -49 8 -49 8 -71 69 -27 71
-46 76 -152 37 -128 -47 -141 -65 -107 -151 17 -41 17 -41 -12 -73 -16 -18
-30 -33 -31 -35 -1 -2 -11 -1 -22 3 -19 6 -21 14 -21 83 -1 100 -14 162 -37
180 -12 9 -41 12 -90 10 l-72 -3 -21 53 c-11 30 -18 57 -15 61 2 5 28 26 57
49 l53 41 85 -19 c47 -11 93 -20 103 -20 32 0 64 43 71 96 4 28 11 56 15 63 4
6 33 15 64 18 l56 6 33 -69 c31 -65 35 -69 69 -72 26 -2 61 9 123 37 110 51
117 64 82 151 -14 35 -26 68 -26 74 0 6 19 26 41 45 l42 34 57 -31 c63 -35
101 -40 123 -17 23 23 107 172 107 190 0 32 -21 54 -80 87 -41 22 -58 37 -55
48 2 8 7 32 11 53 7 42 27 57 77 57 46 0 95 18 107 40 11 21 -6 194 -24 230
-11 24 -15 25 -97 24 l-86 -2 -23 54 -22 54 56 53 c34 32 56 61 56 74 0 39
-141 193 -176 193 -20 0 -113 -65 -128 -89 -5 -8 -89 32 -113 53 -1 0 5 30 13
65 16 70 7 116 -25 125 -64 20 -190 41 -211 36z m112 -468 c40 -20 85 -53 117
-87 196 -208 140 -521 -117 -647 -62 -31 -73 -33 -172 -33 -97 0 -110 2 -173
32 -245 116 -312 437 -132 632 56 60 143 113 211 130 22 6 76 9 121 7 68 -2
92 -8 145 -34z m-768 -966 c25 -30 42 -57 37 -61 -15 -9 -112 58 -106 73 3 8
5 20 5 28 0 25 17 15 64 -40z m260 18 c25 -14 48 -29 50 -32 2 -4 -2 -24 -8
-44 l-11 -37 -52 63 c-66 82 -61 96 21 50z m-481 -242 c85 -40 154 -108 198
-197 32 -66 34 -75 34 -175 0 -93 -3 -111 -27 -163 -57 -121 -187 -219 -313
-235 -182 -23 -341 62 -422 226 -37 73 -38 80 -38 181 0 98 2 111 30 165 102
202 342 290 538 198z m525 -544 c-24 -74 -29 -80 -47 -69 -11 7 -11 18 -1 62
16 68 16 69 45 69 l24 0 -21 -62z m603 -34 c85 -44 112 -162 56 -245 -62 -94
-227 -91 -286 5 -29 46 -31 130 -5 175 46 78 153 108 235 65z"/>
</g>
</svg>
