<?xml version="1.0" standalone="no"?>
<!DOCTYPE svg PUBLIC "-//W3C//DTD SVG 20010904//EN"
 "http://www.w3.org/TR/2001/REC-SVG-20010904/DTD/svg10.dtd">
<svg version="1.0" xmlns="http://www.w3.org/2000/svg"
 width="436pt" height="648pt" viewBox="0 0 436 648"
 preserveAspectRatio="xMidYMid meet">
<metadata>
Created by potrace 1.8, written by Peter Selinger 2001-2007
</metadata>
<g transform="translate(0,648) scale(0.218919,-0.218919)"
fill="#000000" stroke="none">
<path d="M1072 2938 c-17 -22 -21 -77 -62 -818 -38 -698 -51 -874 -68 -921 -8
-20 -11 -17 -39 27 -18 27 -180 364 -362 750 -181 386 -340 718 -351 738 -17
28 -28 36 -51 36 -58 0 -139 -104 -139 -179 0 -19 117 -337 277 -749 211 -548
283 -724 306 -749 16 -17 56 -43 88 -57 33 -14 86 -38 119 -52 l60 -27 -18
-29 c-36 -61 -57 -73 -128 -70 -109 5 -166 -12 -229 -70 -31 -28 -66 -69 -80
-92 -36 -62 -155 -465 -155 -524 0 -105 65 -137 275 -137 132 0 142 1 174 24
21 15 44 47 62 85 26 57 159 501 159 532 0 18 76 170 88 178 12 7 157 -116
173 -146 13 -24 101 -139 246 -320 99 -123 160 -168 227 -168 16 0 85 25 153
56 148 68 183 100 183 170 0 25 -7 59 -16 77 -23 44 -278 360 -322 398 -40 35
-105 66 -173 80 -42 9 -54 7 -135 -25 -48 -20 -97 -36 -109 -36 -23 0 -115 54
-115 68 0 4 42 53 93 108 51 54 99 114 106 132 22 52 -3 1561 -26 1609 -37 79
-175 145 -211 101z m133 -196 c3 -26 5 -75 4 -108 -2 -32 1 -356 5 -719 l8
-660 -92 -98 c-109 -115 -123 -116 -96 -5 26 108 34 212 71 918 19 355 38 674
41 710 l6 65 23 -27 c13 -16 26 -47 30 -76z m-820 -662 c92 -195 194 -414 226
-487 86 -195 160 -337 228 -441 63 -95 68 -107 52 -117 -14 -8 -212 82 -237
108 -11 12 -114 264 -229 562 -114 297 -231 599 -261 672 -62 153 -70 187 -53
228 l12 30 48 -100 c26 -55 123 -260 214 -455z m1132 -1260 c42 -21 69 -44 93
-77 19 -27 80 -106 137 -176 l103 -129 -101 -49 c-55 -27 -106 -49 -114 -49
-31 0 -355 399 -355 438 0 9 136 70 161 71 9 1 43 -12 76 -29z m-753 -182
c-31 -134 -128 -451 -144 -471 -19 -23 -32 -24 -162 -13 l-87 8 15 46 c8 26
35 119 60 207 52 181 72 223 123 260 32 22 46 25 122 25 l87 0 -14 -62z"/>
</g>
</svg>
