<?xml version="1.0" standalone="no"?>
<!DOCTYPE svg PUBLIC "-//W3C//DTD SVG 20010904//EN"
 "http://www.w3.org/TR/2001/REC-SVG-20010904/DTD/svg10.dtd">
<svg version="1.0" xmlns="http://www.w3.org/2000/svg"
 width="468pt" height="468pt" viewBox="0 0 468 468"
 preserveAspectRatio="xMidYMid meet">
<metadata>
Created by potrace 1.8, written by Peter Selinger 2001-2007
</metadata>
<g transform="translate(0,468) scale(0.158108,-0.158108)"
fill="#000000" stroke="none">
<path d="M127 2950 c-48 -14 -94 -57 -111 -102 -15 -39 -16 -169 -14 -1384 l3
-1340 27 -41 c14 -22 43 -48 65 -59 37 -18 83 -19 1362 -22 890 -1 1336 1
1362 8 46 13 93 51 117 94 16 29 17 125 17 1376 0 1235 -1 1347 -17 1375 -23
42 -67 80 -107 94 -41 13 -2659 14 -2704 1z m315 -662 c3 -581 2 -568 61 -612
28 -21 32 -21 995 -24 1074 -3 1032 -5 1073 62 18 29 19 57 19 569 l0 537 103
0 c67 0 107 -4 115 -12 17 -17 17 -2639 0 -2656 -8 -8 -67 -12 -200 -12 l-188
0 0 520 c0 504 -1 522 -20 561 -12 22 -35 49 -53 59 -31 19 -56 20 -867 20
-811 0 -836 -1 -867 -20 -70 -42 -68 -26 -68 -613 l0 -527 -200 2 -200 3 -3
1171 -2 1171 50 7 c91 12 145 84 120 159 -17 54 -52 80 -115 85 -54 4 -55 5
-55 37 0 17 3 35 7 38 3 4 71 7 149 7 l143 0 3 -532z m2056 8 c1 -375 -1 -523
-9 -532 -16 -19 -1918 -21 -1937 -2 -9 9 -12 142 -12 535 l0 523 978 -2 977
-3 3 -519z m-197 -1105 l24 -19 3 -484 c2 -265 0 -498 -3 -516 l-6 -32 -837 2
-837 3 -3 512 c-2 502 -2 513 18 533 20 20 32 20 819 20 771 0 800 -1 822 -19z"/>
<path d="M690 2581 c-14 -28 -13 -38 10 -61 20 -20 33 -20 808 -20 697 0 790
2 810 16 24 17 29 53 10 72 -9 9 -205 12 -820 12 -788 0 -808 0 -818 -19z"/>
<path d="M694 2255 c-15 -23 -15 -27 0 -50 l16 -25 800 0 c713 0 800 2 814 16
20 20 20 48 0 68 -14 14 -101 16 -814 16 l-800 0 -16 -25z"/>
<path d="M700 1940 c-25 -25 -25 -42 -2 -64 17 -15 85 -16 823 -14 l804 3 9
27 c8 22 6 32 -9 48 -18 20 -27 20 -812 20 -780 0 -793 0 -813 -20z"/>
<path d="M810 1083 c-59 -31 -60 -33 -60 -426 l0 -359 34 -34 34 -34 121 0
c129 0 170 11 191 49 6 13 10 155 10 388 l0 369 -31 30 c-29 28 -33 29 -147
32 -97 2 -123 0 -152 -15z"/>
</g>
</svg>
