<?xml version="1.0" standalone="no"?>
<!DOCTYPE svg PUBLIC "-//W3C//DTD SVG 20010904//EN"
 "http://www.w3.org/TR/2001/REC-SVG-20010904/DTD/svg10.dtd">
<svg version="1.0" xmlns="http://www.w3.org/2000/svg"
 width="468pt" height="468pt" viewBox="0 0 468 468"
 preserveAspectRatio="xMidYMid meet">
<metadata>
Created by potrace 1.8, written by Peter Selinger 2001-2007
</metadata>
<g transform="translate(0,468) scale(0.158108,-0.158108)"
fill="#000000" stroke="none">
<path d="M492 2938 l3 -23 545 -2 c305 -2 551 1 559 6 8 5 11 16 8 25 -6 14
-62 16 -562 16 l-556 0 3 -22z"/>
<path d="M500 2875 c-10 -12 -42 -15 -164 -15 -180 0 -240 -13 -281 -62 -15
-18 -31 -43 -37 -57 -7 -17 -10 -460 -9 -1276 2 -1417 -6 -1293 86 -1350 l48
-30 599 -3 c582 -3 598 -3 608 -22 27 -51 15 -50 800 -50 l730 0 38 34 37 34
0 957 0 957 -37 34 -38 34 -395 0 -395 0 0 328 c0 297 -2 331 -19 368 -38 84
-95 104 -301 104 -128 0 -160 3 -170 15 -11 13 -84 15 -550 15 -466 0 -539 -2
-550 -15z m-109 -155 l79 0 0 -44 c0 -29 7 -52 21 -70 l20 -26 539 0 539 0 20
26 c14 18 21 41 21 70 l0 44 148 0 c102 0 152 -4 160 -12 9 -9 12 -96 12 -330
l0 -318 -265 0 c-218 0 -271 -3 -295 -15 -63 -32 -60 12 -60 -950 l0 -875
-575 0 c-562 0 -575 0 -595 20 -20 20 -20 33 -20 1228 0 951 3 1212 13 1225
17 24 64 37 116 32 24 -3 79 -5 122 -5z m2439 -1685 l0 -895 -685 0 -685 0 0
895 0 895 685 0 685 0 0 -895z"/>
<path d="M1583 1765 c-17 -12 -23 -26 -23 -55 0 -73 -24 -70 587 -70 530 0
543 0 563 20 23 23 26 68 6 96 -14 18 -33 19 -563 22 -486 2 -551 1 -570 -13z"/>
<path d="M1600 1523 c-41 -15 -55 -87 -22 -116 17 -15 71 -17 565 -17 534 0
547 0 567 20 29 29 26 74 -6 99 -26 21 -35 21 -558 20 -292 0 -538 -3 -546 -6z"/>
<path d="M1600 1269 c-31 -13 -40 -26 -40 -65 0 -66 -23 -64 588 -64 l551 0
15 22 c22 31 20 71 -5 94 -20 18 -45 19 -553 21 -335 1 -540 -2 -556 -8z"/>
<path d="M1577 1002 c-22 -25 -21 -75 1 -95 17 -15 71 -17 569 -17 520 0 551
1 566 18 22 25 21 75 -1 95 -17 15 -71 17 -569 17 -520 0 -551 -1 -566 -18z"/>
<path d="M1587 758 c-27 -21 -32 -70 -9 -98 l20 -25 509 -3 c279 -2 527 0 551
3 66 10 88 67 44 118 -14 16 -53 17 -557 17 -417 0 -545 -3 -558 -12z"/>
<path d="M1580 493 c-15 -19 -19 -35 -15 -53 14 -58 -12 -55 581 -55 529 0
546 1 560 19 20 28 18 80 -4 99 -17 15 -70 17 -560 17 l-541 0 -21 -27z"/>
</g>
</svg>
