<?xml version="1.0" standalone="no"?>
<!DOCTYPE svg PUBLIC "-//W3C//DTD SVG 20010904//EN"
 "http://www.w3.org/TR/2001/REC-SVG-20010904/DTD/svg10.dtd">
<svg version="1.0" xmlns="http://www.w3.org/2000/svg"
 width="468pt" height="467pt" viewBox="0 0 468 467"
 preserveAspectRatio="xMidYMid meet">
<metadata>
Created by potrace 1.8, written by Peter Selinger 2001-2007
</metadata>
<g transform="translate(0,467) scale(0.158108,-0.158108)"
fill="#000000" stroke="none">
<path d="M1835 2939 c-235 -30 -492 -166 -626 -333 l-44 -55 -530 -3 c-590 -3
-562 0 -605 -71 -19 -31 -20 -60 -20 -1202 0 -1143 1 -1171 20 -1202 40 -67
-15 -63 980 -63 995 0 940 -4 980 63 19 30 20 53 20 453 l0 421 63 7 c230 26
469 147 621 317 108 120 187 267 233 435 24 87 27 116 27 244 -1 123 -5 159
-26 241 -111 414 -443 700 -868 749 -97 11 -127 11 -225 -1z m350 -229 c68
-21 199 -85 240 -115 18 -15 -8 -43 -540 -575 l-559 -559 -24 36 c-43 63 -100
196 -118 278 -23 102 -23 264 0 360 23 97 95 236 165 321 104 125 255 222 412
264 103 28 321 23 424 -10z m433 -313 c154 -227 178 -537 62 -786 -139 -297
-449 -480 -771 -457 -144 11 -319 72 -404 140 l-30 25 555 555 c305 306 557
556 560 556 3 0 15 -15 28 -33z m-1564 -24 c-9 -21 -27 -71 -41 -110 l-25 -73
-324 0 -325 0 -24 -25 c-32 -31 -32 -59 0 -90 l24 -25 311 0 310 0 0 -90 0
-90 -319 0 c-319 0 -320 0 -335 -22 -22 -31 -20 -64 4 -88 19 -19 33 -20 345
-20 252 0 326 -3 329 -12 2 -7 15 -48 28 -90 l24 -78 -352 0 -353 0 -20 -26
c-27 -35 -26 -59 4 -89 l24 -25 384 0 384 0 28 -41 c15 -23 45 -61 67 -85 l40
-43 -457 -3 -457 -3 -20 -25 c-23 -28 -18 -77 9 -98 13 -9 139 -12 552 -12
l534 0 101 -50 c92 -46 220 -85 339 -105 l37 -6 0 -404 0 -405 -870 0 -870 0
0 1135 0 1135 465 0 465 0 -16 -37z"/>
<path d="M320 910 c-26 -26 -26 -72 1 -96 20 -18 46 -19 689 -19 643 0 669 1
689 19 27 24 27 70 1 96 -20 20 -33 20 -690 20 -657 0 -670 0 -690 -20z"/>
<path d="M325 595 c-14 -13 -25 -31 -25 -40 0 -20 19 -57 34 -67 14 -10 1338
-10 1352 0 15 10 34 47 34 67 0 9 -11 27 -25 40 l-24 25 -661 0 -661 0 -24
-25z"/>
</g>
</svg>
