<?xml version="1.0" standalone="no"?>
<!DOCTYPE svg PUBLIC "-//W3C//DTD SVG 20010904//EN"
 "http://www.w3.org/TR/2001/REC-SVG-20010904/DTD/svg10.dtd">
<svg version="1.0" xmlns="http://www.w3.org/2000/svg"
 width="468pt" height="468pt" viewBox="0 0 468 468"
 preserveAspectRatio="xMidYMid meet">
<metadata>
Created by potrace 1.8, written by Peter Selinger 2001-2007
</metadata>
<g transform="translate(0,468) scale(0.158108,-0.158108)"
fill="#000000" stroke="none">
<path d="M385 2808 c-117 -265 -365 -908 -365 -947 0 -7 44 -11 128 -11 l127
0 41 118 41 117 216 3 215 2 37 -112 c21 -62 41 -117 45 -121 3 -4 65 -6 137
-5 l131 3 -69 194 c-108 302 -229 603 -330 821 l-42 90 -122 0 -123 0 -67
-152z m243 -250 c28 -73 62 -163 75 -200 l25 -68 -155 0 c-120 0 -154 3 -151
13 31 93 145 387 149 387 3 0 29 -60 57 -132z"/>
<path d="M1554 2649 c-62 -18 -69 -36 -72 -193 -4 -170 4 -207 52 -230 30 -14
98 -16 570 -16 585 0 595 1 616 55 13 35 13 308 -1 338 -24 53 -12 52 -594 54
-302 1 -554 -2 -571 -8z m1036 -214 l0 -85 -485 0 -485 0 0 85 0 85 485 0 485
0 0 -85z"/>
<path d="M1543 2059 c-58 -17 -63 -35 -63 -219 0 -166 0 -167 26 -191 l26 -24
570 0 570 0 24 28 c23 27 24 33 24 190 0 184 -5 199 -68 217 -47 13 -1064 12
-1109 -1z m1047 -214 l0 -85 -490 0 -490 0 0 85 0 85 490 0 490 0 0 -85z"/>
<path d="M1525 1458 c-41 -22 -45 -37 -45 -170 l0 -128 -86 0 c-81 0 -87 -1
-115 -29 -16 -16 -29 -34 -29 -39 0 -15 40 -70 435 -586 204 -267 380 -490
392 -497 12 -6 33 -9 46 -5 18 4 135 151 424 528 219 288 403 529 407 536 12
20 -12 68 -40 81 -14 6 -63 11 -109 11 l-85 0 0 124 c0 68 -3 132 -6 141 -17
44 -32 45 -616 45 -381 -1 -559 -4 -573 -12z m1065 -208 l0 -90 -490 0 -490 0
0 90 0 90 490 0 490 0 0 -90z m150 -236 c0 -14 -635 -833 -640 -827 -17 21
-617 810 -624 821 -6 9 123 12 628 12 350 0 636 -2 636 -6z"/>
<path d="M30 1005 l0 -105 246 0 c241 0 246 0 233 -19 -8 -11 -62 -81 -120
-158 -111 -145 -252 -350 -338 -492 -49 -81 -51 -87 -51 -158 l0 -73 440 0
440 0 0 105 0 105 -281 2 -281 3 82 125 c108 162 229 325 357 477 l103 122 0
86 0 85 -415 0 -415 0 0 -105z"/>
</g>
</svg>
