<?xml version="1.0" standalone="no"?>
<!DOCTYPE svg PUBLIC "-//W3C//DTD SVG 20010904//EN"
 "http://www.w3.org/TR/2001/REC-SVG-20010904/DTD/svg10.dtd">
<svg version="1.0" xmlns="http://www.w3.org/2000/svg"
 width="468pt" height="470pt" viewBox="0 0 468 470"
 preserveAspectRatio="xMidYMid meet">
<metadata>
Created by potrace 1.8, written by Peter Selinger 2001-2007
</metadata>
<g transform="translate(0,470) scale(0.158644,-0.158644)"
fill="#000000" stroke="none">
<path d="M434 2941 c-22 -10 -56 -37 -75 -59 -31 -37 -40 -61 -78 -216 -43
-177 -44 -190 -16 -258 6 -16 1 -18 -34 -18 -31 0 -48 -6 -66 -25 -25 -24 -25
-24 -25 -239 0 -118 3 -222 6 -231 4 -8 19 -22 35 -31 l29 -15 0 -100 c0 -93
2 -102 25 -124 23 -24 31 -25 135 -25 110 0 112 0 141 29 28 28 29 33 29 125
l0 96 590 0 590 0 0 -100 c0 -94 2 -103 25 -125 23 -24 30 -25 140 -25 110 0
117 1 140 25 23 23 25 31 25 130 0 85 3 105 14 105 8 0 22 10 30 22 13 19 16
60 16 244 l0 223 -26 20 c-17 13 -41 21 -66 21 -34 0 -39 3 -33 18 27 64 25
90 -14 251 -43 174 -55 202 -98 243 -62 60 -43 58 -750 58 -608 0 -651 -2
-689 -19z m1349 -153 c20 -34 82 -291 74 -311 -6 -16 -57 -17 -732 -17 -674 0
-726 1 -732 17 -8 20 54 277 74 311 l13 22 645 0 645 0 13 -22z m-336 -510
c16 -17 1 -18 -325 -18 -188 0 -342 2 -342 5 0 2 12 11 28 20 23 12 74 14 324
12 268 -2 299 -4 315 -19z m-869 -8 c18 -17 22 -32 22 -80 0 -87 -7 -90 -200
-90 -195 0 -200 3 -200 95 0 92 5 95 200 95 143 0 158 -2 178 -20z m1450 0
c18 -17 22 -32 22 -80 0 -87 -7 -90 -200 -90 -195 0 -200 3 -200 95 0 92 5 95
200 95 143 0 158 -2 178 -20z m-538 -170 c0 -20 -7 -20 -365 -20 -358 0 -365
0 -365 20 0 20 7 20 365 20 358 0 365 0 365 -20z"/>
<path d="M2633 1590 c-32 -13 -53 -62 -53 -125 l0 -55 -978 0 -979 0 -19 -21
c-18 -20 -19 -45 -19 -639 0 -594 1 -619 19 -639 l19 -21 978 0 c968 0 978 0
989 -20 11 -20 8 -20 -1222 -20 l-1233 0 0 661 0 661 -24 19 c-30 25 -66 24
-91 -1 -20 -20 -20 -33 -20 -680 0 -647 0 -660 20 -680 20 -20 33 -20 1361
-20 900 0 1347 3 1360 10 10 6 26 24 34 40 15 28 19 30 75 30 47 0 64 4 80 20
20 20 20 30 18 639 -3 715 5 661 -100 661 l-58 0 0 49 c0 26 -5 62 -11 80 -18
51 -86 75 -146 51z m-1733 -845 l0 -525 -90 0 -90 0 0 525 0 525 90 0 90 0 0
-525z m320 0 l0 -525 -90 0 -90 0 0 525 0 525 90 0 90 0 0 -525z m320 0 l0
-525 -90 0 -90 0 0 525 0 525 90 0 90 0 0 -525z m320 0 l0 -525 -90 0 -90 0 0
525 0 525 90 0 90 0 0 -525z m310 0 l0 -525 -90 0 -90 0 0 525 0 525 90 0 90
0 0 -525z m320 0 l0 -525 -90 0 -90 0 0 525 0 525 90 0 90 0 0 -525z m320 0
c0 -343 -3 -525 -10 -525 -7 0 -10 182 -10 525 0 343 3 525 10 525 7 0 10
-182 10 -525z"/>
</g>
</svg>
