<?xml version="1.0" standalone="no"?>
<!DOCTYPE svg PUBLIC "-//W3C//DTD SVG 20010904//EN"
 "http://www.w3.org/TR/2001/REC-SVG-20010904/DTD/svg10.dtd">
<svg version="1.0" xmlns="http://www.w3.org/2000/svg"
 width="468pt" height="369pt" viewBox="0 0 468 369"
 preserveAspectRatio="xMidYMid meet">
<metadata>
Created by potrace 1.8, written by Peter Selinger 2001-2007
</metadata>
<g transform="translate(0,369) scale(0.158644,-0.158644)"
fill="#000000" stroke="none">
<path d="M106 2310 c-34 -11 -63 -36 -82 -72 -17 -33 -19 -219 -3 -251 21 -40
52 -67 88 -77 l36 -9 0 -932 c0 -910 0 -931 19 -945 11 -8 34 -14 52 -14 67 0
64 -49 64 897 l0 853 1195 0 1195 0 0 -858 c0 -819 1 -860 18 -875 23 -21 71
-22 98 -3 19 14 19 35 19 943 l0 928 49 20 c75 31 90 58 95 173 4 119 -8 163
-56 199 l-36 28 -1361 2 c-749 1 -1374 -2 -1390 -7z m2714 -200 l0 -70 -1340
0 -1340 0 0 70 0 70 1340 0 1340 0 0 -70z m-150 -230 c0 -20 -7 -20 -1195 -20
-1188 0 -1195 0 -1195 20 0 20 7 20 1195 20 1188 0 1195 0 1195 -20z"/>
</g>
</svg>
