<?xml version="1.0" standalone="no"?>
<!DOCTYPE svg PUBLIC "-//W3C//DTD SVG 20010904//EN"
 "http://www.w3.org/TR/2001/REC-SVG-20010904/DTD/svg10.dtd">
<svg version="1.0" xmlns="http://www.w3.org/2000/svg"
 width="468pt" height="371pt" viewBox="0 0 468 371"
 preserveAspectRatio="xMidYMid meet">
<metadata>
Created by potrace 1.8, written by Peter Selinger 2001-2007
</metadata>
<g transform="translate(0,371) scale(0.173333,-0.173333)"
fill="#000000" stroke="none">
<path d="M334 2126 c-17 -8 -40 -26 -52 -41 -21 -26 -22 -38 -22 -221 l0 -194
-75 0 c-43 0 -90 -6 -110 -14 -39 -17 -65 -60 -65 -110 0 -19 50 -351 110
-738 77 -486 116 -712 128 -732 10 -17 33 -39 52 -51 35 -20 49 -20 1150 -23
1259 -3 1181 -8 1223 71 l22 42 0 967 c0 962 0 967 -21 995 -11 15 -36 36 -55
45 -32 17 -107 18 -1144 18 -906 -1 -1116 -3 -1141 -14z m1076 -411 l0 -45
-42 0 c-53 0 -106 -31 -121 -70 l-11 -29 -24 36 c-42 62 -51 63 -457 63 l-365
0 0 45 0 45 510 0 510 0 0 -45z m1149 -347 c-1 -216 -4 -382 -6 -368 -3 14
-24 148 -48 297 -47 297 -57 328 -119 357 -30 14 -88 16 -440 16 l-406 0 0 45
0 45 510 0 510 0 -1 -392z m-2299 -190 c0 -193 -2 -349 -4 -347 -2 2 -27 153
-55 334 -29 182 -53 338 -55 348 -4 15 4 17 55 17 l59 0 0 -352z m953 -335
c60 -379 108 -691 107 -695 0 -5 -209 -8 -465 -8 l-465 0 0 695 0 695 358 0
358 0 107 -687z m196 570 l-1 -118 -13 80 c-28 165 -27 155 -5 155 19 0 20 -6
19 -117z m926 95 c5 -21 215 -1354 215 -1364 0 -2 -216 -4 -480 -4 l-480 0 -5
23 c-2 12 -14 79 -25 150 -18 116 -20 175 -20 672 l0 545 395 0 395 0 5 -22z"/>
</g>
</svg>
