<?xml version="1.0" standalone="no"?>
<!DOCTYPE svg PUBLIC "-//W3C//DTD SVG 20010904//EN"
 "http://www.w3.org/TR/2001/REC-SVG-20010904/DTD/svg10.dtd">
<svg version="1.0" xmlns="http://www.w3.org/2000/svg"
 width="468pt" height="534pt" viewBox="0 0 468 534"
 preserveAspectRatio="xMidYMid meet">
<metadata>
Created by potrace 1.8, written by Peter Selinger 2001-2007
</metadata>
<g transform="translate(0,534) scale(0.192593,-0.192593)"
fill="#000000" stroke="none">
<path d="M74 2741 c-69 -42 -64 59 -64 -1237 l0 -1171 22 -33 c13 -18 39 -41
58 -51 26 -14 263 -49 915 -135 986 -130 928 -127 989 -51 25 31 31 49 34 102
l4 64 148 3 c170 3 188 10 228 88 l22 44 0 1143 c0 1259 3 1193 -62 1233 -33
20 -47 20 -1148 20 -1080 0 -1116 -1 -1146 -19z m946 -466 c443 -58 820 -108
838 -111 l32 -5 0 -434 0 -435 -40 0 c-105 0 -107 -123 -2 -137 l42 -6 0 -393
0 -394 -863 0 c-658 0 -866 3 -875 12 -9 9 -12 247 -12 1008 0 548 3 1000 7
1004 4 4 21 5 38 2 16 -3 392 -53 835 -111z m1268 -897 l-3 -1013 -127 -3
-128 -3 0 913 c0 893 -1 914 -20 946 -24 40 -70 69 -124 78 -23 4 -183 26
-356 49 l-315 43 538 1 537 1 -2 -1012z m-400 -1190 c-3 -42 -4 -43 -42 -46
-21 -2 -95 6 -165 17 -69 12 -196 30 -281 41 -85 12 -159 22 -165 25 -5 2 140
4 323 4 l333 1 -3 -42z"/>
</g>
</svg>
