<?xml version="1.0" standalone="no"?>
<!DOCTYPE svg PUBLIC "-//W3C//DTD SVG 20010904//EN"
 "http://www.w3.org/TR/2001/REC-SVG-20010904/DTD/svg10.dtd">
<svg version="1.0" xmlns="http://www.w3.org/2000/svg"
 width="468pt" height="408pt" viewBox="0 0 468 408"
 preserveAspectRatio="xMidYMid meet">
<metadata>
Created by potrace 1.8, written by Peter Selinger 2001-2007
</metadata>
<g transform="translate(0,408) scale(0.158108,-0.158108)"
fill="#000000" stroke="none">
<path d="M1915 2570 c-781 -6 -727 -1 -801 -72 -35 -34 -91 -146 -430 -874
l-389 -836 -122 -145 c-151 -180 -169 -227 -112 -284 l21 -21 -36 -82 c-49
-112 -51 -127 -28 -178 36 -83 -18 -78 899 -78 l809 0 52 26 c29 14 66 43 83
63 28 33 1060 2228 1089 2316 14 44 6 87 -26 124 -31 37 -95 52 -212 49 -48
-2 -406 -5 -797 -8z m835 -290 c-11 -20 -21 -20 -559 -20 -611 0 -608 0 -693
-67 -26 -21 -224 -247 -439 -503 -215 -256 -400 -474 -411 -485 -14 -15 -10 0
15 55 61 134 449 964 468 1003 l19 37 806 0 c802 0 805 0 794 -20z m-99 -202
c-11 -24 -44 -95 -74 -158 -54 -114 -62 -123 -586 -755 -351 -423 -546 -651
-577 -672 l-46 -33 -244 0 -244 0 15 24 c35 53 -10 125 -67 111 -22 -6 -86
-73 -117 -123 -6 -9 -55 -12 -213 -10 l-205 3 56 123 56 122 582 688 c320 378
595 695 610 704 26 16 74 17 550 18 l522 0 -18 -42z m-354 -765 c-2 -5 -118
-253 -257 -553 -139 -300 -256 -548 -260 -553 -3 -4 -367 -6 -808 -5 l-802 3
30 63 29 62 581 0 c626 0 606 -2 688 53 18 12 204 228 414 480 332 400 403
482 385 450z"/>
</g>
</svg>
