<?xml version="1.0" standalone="no"?>
<!DOCTYPE svg PUBLIC "-//W3C//DTD SVG 20010904//EN"
 "http://www.w3.org/TR/2001/REC-SVG-20010904/DTD/svg10.dtd">
<svg version="1.0" xmlns="http://www.w3.org/2000/svg"
 width="468pt" height="425pt" viewBox="0 0 468 425"
 preserveAspectRatio="xMidYMid meet">
<metadata>
Created by potrace 1.8, written by Peter Selinger 2001-2007
</metadata>
<g transform="translate(0,425) scale(0.173333,-0.173333)"
fill="#000000" stroke="none">
<path d="M334 2436 c-17 -8 -40 -26 -52 -41 -21 -26 -22 -38 -22 -221 l0 -194
-75 0 c-43 0 -90 -6 -110 -14 -39 -17 -65 -60 -65 -110 0 -19 50 -351 110
-738 77 -486 116 -712 128 -732 10 -17 33 -39 52 -51 34 -20 51 -20 768 -23
l732 -3 0 -100 c0 -62 5 -112 14 -133 17 -42 61 -76 96 -76 15 0 185 70 376
155 380 169 386 172 404 260 8 34 10 348 8 997 -3 939 -3 947 -24 975 -11 15
-36 36 -55 45 -32 17 -107 18 -1144 18 -906 -1 -1116 -3 -1141 -14z m1075
-1003 c-1 -351 -3 -631 -5 -623 -2 8 -40 249 -85 535 -51 330 -87 533 -98 554
-10 19 -30 44 -45 55 -26 20 -42 21 -407 24 l-379 3 0 44 0 45 510 0 510 0 -1
-637z m831 628 c-8 -5 -94 -44 -190 -86 -187 -82 -221 -107 -239 -172 -7 -25
-11 -265 -11 -695 l0 -658 -130 0 -130 0 0 810 0 810 358 0 c208 0 351 -4 342
-9z m320 -811 l0 -800 -310 0 -310 0 0 214 0 215 27 13 c37 18 50 61 28 95 -9
14 -26 28 -36 30 -19 5 -19 19 -17 385 l3 379 300 134 c165 74 303 134 308
134 4 1 7 -359 7 -799z m-2300 238 c0 -193 -2 -349 -4 -347 -2 2 -27 153 -55
334 -29 182 -53 338 -55 348 -4 15 4 17 55 17 l59 0 0 -352z m953 -335 c60
-379 108 -691 107 -695 0 -5 -209 -8 -465 -8 l-465 0 0 695 0 695 358 0 358 0
107 -687z m1076 -847 c-5 -5 -340 -156 -346 -156 -2 0 -3 36 -3 80 l0 80 177
0 c97 0 174 -2 172 -4z"/>
</g>
</svg>
