<?xml version="1.0" standalone="no"?>
<!DOCTYPE svg PUBLIC "-//W3C//DTD SVG 20010904//EN"
 "http://www.w3.org/TR/2001/REC-SVG-20010904/DTD/svg10.dtd">
<svg version="1.0" xmlns="http://www.w3.org/2000/svg"
 width="468pt" height="468pt" viewBox="0 0 468 468"
 preserveAspectRatio="xMidYMid meet">
<metadata>
Created by potrace 1.8, written by Peter Selinger 2001-2007
</metadata>
<g transform="translate(0,468) scale(0.157576,-0.157576)"
fill="#000000" stroke="none">
<path d="M40 2932 c-50 -50 -53 -184 -5 -240 l23 -27 176 -3 176 -3 2 -1279
c3 -1274 3 -1279 24 -1306 11 -15 33 -37 48 -48 27 -20 39 -21 461 -21 422 0
434 1 461 21 15 11 37 33 48 48 21 27 21 32 24 1307 1 834 6 1279 12 1279 7 0
10 -435 10 -1256 0 -932 3 -1267 12 -1296 15 -52 66 -95 120 -103 24 -3 222
-5 440 -3 382 3 398 4 424 24 15 11 37 33 48 48 21 27 21 32 24 1307 l2 1279
156 0 c217 0 234 11 234 161 0 76 -2 82 -29 110 l-29 29 -1417 0 -1417 0 -28
-28z m2790 -117 c0 -13 -156 -15 -1345 -15 -1189 0 -1345 2 -1345 15 0 13 156
15 1345 15 1189 0 1345 -2 1345 -15z m-1490 -710 l0 -555 -59 0 c-62 0 -90
-15 -92 -48 -4 -61 19 -82 93 -82 l58 0 0 -640 0 -640 -395 0 -395 0 0 1260 0
1260 395 0 395 0 0 -555z m1090 -705 l0 -1260 -395 0 -395 0 0 640 0 640 59 0
c82 0 117 38 89 97 -12 26 -18 28 -81 31 l-67 3 0 548 c0 301 3 551 7 554 3 4
181 7 395 7 l388 0 0 -1260z"/>
</g>
</svg>
