<?xml version="1.0" standalone="no"?>
<!DOCTYPE svg PUBLIC "-//W3C//DTD SVG 20010904//EN"
 "http://www.w3.org/TR/2001/REC-SVG-20010904/DTD/svg10.dtd">
<svg version="1.0" xmlns="http://www.w3.org/2000/svg"
 width="468pt" height="468pt" viewBox="0 0 468 468"
 preserveAspectRatio="xMidYMid meet">
<metadata>
Created by potrace 1.8, written by Peter Selinger 2001-2007
</metadata>
<g transform="translate(0,468) scale(0.191020,-0.191020)"
fill="#000000" stroke="none">
<path d="M84 2436 c-17 -8 -40 -26 -52 -41 l-22 -28 0 -984 0 -985 22 -40 c26
-45 19 -42 449 -232 157 -69 297 -126 311 -126 33 0 77 35 94 76 9 21 14 71
14 134 l0 100 710 0 c803 0 772 -3 813 74 l22 41 0 967 c0 962 0 967 -21 995
-11 15 -36 36 -55 45 -32 17 -107 18 -1144 18 -906 -1 -1116 -3 -1141 -14z
m1076 -411 l0 -45 -42 0 c-56 0 -105 -31 -124 -76 -14 -34 -10 -67 76 -610 81
-515 90 -588 90 -709 l0 -135 -130 0 -130 0 0 668 c0 626 -2 669 -19 707 -10
22 -27 47 -37 57 -10 9 -102 53 -204 98 -102 45 -187 84 -189 86 -2 2 156 4
352 4 l357 0 0 -45z m1149 -347 c-1 -216 -4 -382 -6 -368 -3 14 -24 148 -48
297 -47 297 -57 328 -119 357 -30 14 -88 16 -440 16 l-406 0 0 45 0 45 510 0
510 0 -1 -392z m-1857 238 l303 -133 3 -379 2 -379 -22 -10 c-13 -6 -29 -22
-36 -37 -16 -34 1 -76 35 -84 l23 -6 0 -218 0 -218 -132 -7 c-73 -3 -212 -5
-308 -3 l-175 3 -3 803 c-1 441 0 802 2 802 3 0 141 -60 308 -134z m707 -193
l-1 -118 -13 80 c-28 165 -27 155 -5 155 19 0 20 -6 19 -117z m926 95 c5 -21
215 -1354 215 -1364 0 -2 -216 -4 -480 -4 l-480 0 -5 23 c-2 12 -14 79 -25
150 -18 116 -20 175 -20 672 l0 545 395 0 395 0 5 -22z m-1325 -1588 l0 -80
-32 14 c-87 36 -313 138 -317 142 -2 2 75 4 172 4 l177 0 0 -80z"/>
</g>
</svg>
