<?xml version="1.0" standalone="no"?>
<!DOCTYPE svg PUBLIC "-//W3C//DTD SVG 20010904//EN"
 "http://www.w3.org/TR/2001/REC-SVG-20010904/DTD/svg10.dtd">
<svg version="1.0" xmlns="http://www.w3.org/2000/svg"
 width="468pt" height="408pt" viewBox="0 0 468 408"
 preserveAspectRatio="xMidYMid meet">
<metadata>
Created by potrace 1.8, written by Peter Selinger 2001-2007
</metadata>
<g transform="translate(0,408) scale(0.158108,-0.158108)"
fill="#000000" stroke="none">
<path d="M1843 2570 l-641 -5 -43 -30 c-23 -16 -54 -46 -69 -65 -15 -19 -264
-544 -554 -1166 -421 -906 -526 -1138 -526 -1171 0 -52 35 -104 80 -120 26 -9
239 -12 821 -12 894 -1 854 -4 935 77 44 43 88 134 570 1169 287 617 527 1138
534 1158 25 75 -19 147 -101 164 -27 6 -121 10 -207 9 -86 -2 -446 -5 -799 -8z
m552 -1047 c-199 -428 -419 -899 -488 -1048 l-126 -270 -806 -3 c-444 -1 -804
1 -802 5 3 5 222 474 487 1043 265 569 484 1038 487 1043 2 4 366 7 807 7
l804 0 -363 -777z"/>
<path d="M1240 2257 c-19 -6 -55 -32 -79 -57 -38 -39 -94 -153 -447 -913 -429
-921 -428 -918 -388 -976 36 -51 37 -51 705 -51 461 0 632 3 662 12 94 28 89
18 527 958 425 912 432 930 395 986 -35 54 -31 54 -712 53 -430 -1 -639 -5
-663 -12z m1247 -134 c-2 -5 -181 -387 -397 -851 -244 -524 -400 -848 -413
-857 -18 -12 -69 -15 -284 -15 l-262 0 11 30 c14 41 4 73 -27 90 -43 23 -76 4
-109 -63 l-28 -57 -265 0 c-145 0 -262 3 -260 8 2 4 179 383 392 842 214 459
397 845 408 858 l20 22 609 0 c335 0 607 -3 605 -7z"/>
</g>
</svg>
