<?xml version="1.0" standalone="no"?>
<!DOCTYPE svg PUBLIC "-//W3C//DTD SVG 20010904//EN"
 "http://www.w3.org/TR/2001/REC-SVG-20010904/DTD/svg10.dtd">
<svg version="1.0" xmlns="http://www.w3.org/2000/svg"
 width="468pt" height="472pt" viewBox="0 0 468 472"
 preserveAspectRatio="xMidYMid meet">
<metadata>
Created by potrace 1.8, written by Peter Selinger 2001-2007
</metadata>
<g transform="translate(0,472) scale(0.158644,-0.158644)"
fill="#000000" stroke="none">
<path d="M41 2946 c-35 -19 -40 -37 -40 -154 -1 -96 1 -104 24 -127 13 -14 29
-25 35 -25 17 0 11 -25 -10 -38 -28 -17 -28 -72 0 -79 27 -7 27 -49 0 -56 -28
-7 -28 -62 0 -79 26 -16 26 -44 0 -58 -27 -14 -27 -65 0 -82 26 -16 26 -44 0
-58 -27 -14 -27 -64 0 -83 18 -13 19 -29 22 -383 3 -419 3 -419 81 -455 40
-18 81 -19 1042 -19 961 0 1002 1 1042 19 78 36 78 35 81 457 l3 371 24 11
c35 16 35 68 0 84 -31 14 -32 40 -2 53 15 7 23 20 25 42 3 27 -1 35 -22 45
-32 14 -34 40 -3 53 15 7 23 20 25 43 3 27 -1 34 -22 42 -32 12 -34 42 -3 55
16 7 22 18 22 40 0 22 -6 33 -22 40 -25 11 -31 35 -10 35 8 0 23 10 35 23 20
21 22 34 22 134 0 94 -3 114 -19 134 l-19 24 -1144 2 c-949 2 -1147 0 -1167
-11z m1089 -326 c0 -7 -160 -10 -460 -10 -300 0 -460 3 -460 10 0 7 160 10
460 10 300 0 460 -3 460 -10z m1050 0 c0 -7 -160 -10 -460 -10 -300 0 -460 3
-460 10 0 7 160 10 460 10 300 0 460 -3 460 -10z m-1050 -120 c0 -20 -7 -20
-460 -20 -453 0 -460 0 -460 20 0 20 7 20 460 20 453 0 460 0 460 -20z m1050
0 c0 -20 -7 -20 -460 -20 -453 0 -460 0 -460 20 0 20 7 20 460 20 453 0 460 0
460 -20z m-1050 -140 c0 -20 -7 -20 -460 -20 -453 0 -460 0 -460 20 0 20 7 20
460 20 453 0 460 0 460 -20z m1050 0 c0 -20 -7 -20 -460 -20 -453 0 -460 0
-460 20 0 20 7 20 460 20 453 0 460 0 460 -20z m-1050 -140 c0 -20 -7 -20
-460 -20 -453 0 -460 0 -460 20 0 20 7 20 460 20 453 0 460 0 460 -20z m1050
0 c0 -20 -7 -20 -460 -20 -453 0 -460 0 -460 20 0 20 7 20 460 20 453 0 460 0
460 -20z m-1070 -133 c-49 -25 -49 -111 0 -124 19 -5 20 -15 20 -289 l0 -284
-460 0 -460 0 0 355 0 355 463 0 c377 0 457 -3 437 -13z m1070 -342 l0 -355
-460 0 -460 0 0 280 0 280 24 10 c57 21 58 101 3 126 -28 11 30 13 431 14
l462 0 0 -355z"/>
<path d="M2625 1328 c-45 -24 -45 -22 -45 -430 0 -371 1 -389 19 -407 27 -27
71 -34 189 -29 90 3 103 6 126 27 l26 24 0 384 c0 232 -4 392 -10 403 -5 10
-24 23 -41 29 -41 14 -238 14 -264 -1z m225 -428 l0 -340 -85 0 -85 0 0 340 0
340 85 0 85 0 0 -340z"/>
<path d="M2239 1151 c-21 -17 -24 -30 -29 -112 -4 -70 -7 -86 -12 -62 -10 45
-38 56 -158 61 -165 7 -201 -18 -201 -134 l0 -51 -29 28 c-28 29 -29 29 -154
29 -188 0 -195 -10 -186 -262 6 -190 -1 -182 168 -186 136 -3 169 5 187 45 9
22 10 22 36 -10 l27 -32 117 -3 c134 -4 171 6 190 51 l12 29 11 -31 c15 -43
44 -51 183 -51 114 0 121 1 144 25 l25 24 0 306 0 306 -25 24 c-23 24 -29 25
-153 25 -113 0 -133 -3 -153 -19z m241 -331 l0 -260 -85 0 -85 0 0 260 0 260
85 0 85 0 0 -260z m-370 -70 l0 -190 -85 0 -85 0 0 190 0 190 85 0 85 0 0
-190z m-370 -65 l0 -125 -85 0 -85 0 0 125 0 125 85 0 85 0 0 -125z"/>
<path d="M1619 353 c-51 -133 -91 -242 -99 -275 -6 -21 -14 -46 -17 -54 -5
-12 3 -15 43 -12 48 3 48 3 57 46 l8 43 61 -3 61 -3 11 -40 c11 -39 13 -40 59
-43 48 -3 48 -3 41 25 -9 38 -83 248 -105 301 -18 41 -20 42 -64 42 -40 0 -47
-3 -56 -27z m59 -191 c-22 -2 -42 -1 -44 1 -2 2 6 35 17 73 l22 69 23 -70 22
-70 -40 -3z"/>
<path d="M1887 374 c-11 -11 -8 -234 3 -275 18 -63 50 -83 138 -87 68 -3 81
-1 112 20 50 34 61 77 58 222 l-3 121 -45 0 -45 0 -5 -145 -5 -145 -27 -9
c-18 -6 -38 -6 -55 0 l-28 9 -5 145 -5 145 -40 3 c-23 2 -44 0 -48 -4z"/>
<path d="M2240 345 l0 -35 60 0 60 0 0 -150 0 -150 45 0 45 0 0 150 0 150 60
0 60 0 0 35 0 35 -165 0 -165 0 0 -35z"/>
<path d="M2679 357 c-49 -33 -69 -79 -69 -162 0 -124 53 -185 160 -185 107 0
160 61 160 185 0 83 -20 129 -69 162 -47 32 -135 32 -182 0z m137 -58 c15 -17
19 -37 19 -104 0 -93 -16 -125 -65 -125 -49 0 -65 32 -65 125 0 67 4 87 19
104 24 27 68 27 92 0z"/>
</g>
</svg>
