<?xml version="1.0" encoding="UTF-8" standalone="no"?>
<svg
   xmlns:dc="http://purl.org/dc/elements/1.1/"
   xmlns:cc="http://creativecommons.org/ns#"
   xmlns:rdf="http://www.w3.org/1999/02/22-rdf-syntax-ns#"
   xmlns:svg="http://www.w3.org/2000/svg"
   xmlns="http://www.w3.org/2000/svg"
   version="1.0"
   width="468pt"
   height="369pt"
   viewBox="0 0 468 369"
   preserveAspectRatio="xMidYMid meet"
   id="svg8">
  <defs
     id="defs12" />
  <metadata
     id="metadata2">
Created by potrace 1.8, written by Peter Selinger 2001-2007
<rdf:RDF>
  <cc:Work
     rdf:about="">
    <dc:format>image/svg+xml</dc:format>
    <dc:type
       rdf:resource="http://purl.org/dc/dcmitype/StillImage" />
    <dc:title></dc:title>
  </cc:Work>
</rdf:RDF>
</metadata>
  <g
     transform="translate(0,369) scale(0.158644,-0.158644)"
     fill="#000000"
     stroke="none"
     id="g6">
    <path
       d="M 106,2310 C 72,2299 43,2274 24,2238 7,2205 5,2019 21,1987 c 21,-40 52,-67 88,-77 l 36,-9 V 969 c 0,-910 0,-931 19,-945 11,-8 34,-14 52,-14 67,0 64,-28 64,702 v 658 H 1475 2670 V 707 c 0,-630 1,-665 18,-680 23,-21 71,-22 98,-3 19,14 19,35 19,943 v 928 l 49,20 c 75,31 90,58 95,173 4,119 -8,163 -56,199 l -36,28 -1361,2 c -749,1 -1374,-2 -1390,-7 z m 2714,-200 v -70 H 1480 140 v 70 70 h 1340 1340 z m -150.963,-234.9279 c 0,-0.7603 -0.1951,-1.9414 -1.6954,-3.1754 -2.2066,-1.8149 -7.1636,-2.9384 -14.6167,-3.8676 C 2542.6525,1854.305 1946.5557,1860 1160,1860 c -873,0 -880,0 -880,20 0,20 7,20 880,20 784.3557,0 1380.0741,-0.4082 1492.6746,-15.5321 5.6178,-0.7545 9.5429,-2.4129 12.7187,-3.2343 4.0182,-1.0391 3.6437,-5.0272 3.6437,-6.1615 z M 2670,1708 v -48 H 1475 280 v 51 50 l 1195,-2 1195,-3 z m 0,-193 v -45 H 1475 280 v 45 45 h 1195 1195 z"
       id="path4" />
  </g>
  <path
     id="path6-2"
     d="m 252.15394,201.51939 c -3.79459,3.00405 -4.11081,4.1108 -4.11081,16.44323 v 13.12296 l -9.8027,0.63243 c -8.22161,0.63244 -10.27701,1.42298 -13.43917,5.21757 -2.21352,2.37162 -3.63649,5.69189 -3.16216,7.11486 1.10675,4.42702 86.32696,115.26073 90.75399,118.10667 2.84594,1.8973 4.90135,2.21352 7.9054,1.10676 5.69189,-2.0554 92.17696,-115.41884 92.17696,-120.95262 0,-6.16621 -5.05945,-9.8027 -15.02025,-10.59323 l -8.69595,-0.63244 v -10.90945 c 0,-12.49053 -1.8973,-17.7081 -7.43107,-20.23782 -2.52973,-1.10676 -23.39999,-1.73919 -64.34996,-1.73919 -58.97429,0 -60.71347,0.15811 -64.82428,3.32027 z m 114.47019,23.55809 v 6.32432 h -49.01348 -49.01348 v -6.32432 -6.32432 h 49.01348 49.01348 z m 11.54189,30.35674 c -0.79055,1.10675 -14.86216,19.60539 -31.30539,41.10808 -29.40809,38.89456 -29.7243,39.05267 -32.41214,35.5743 -1.42297,-1.8973 -15.49458,-20.39594 -31.30538,-41.10809 l -28.61755,-37.47159 h 62.61077 c 49.80402,0 62.13644,0.47432 61.02969,1.8973 z"
     style="stroke-width:0.15810801" />
</svg>
