<?xml version="1.0" standalone="no"?>
<!DOCTYPE svg PUBLIC "-//W3C//DTD SVG 20010904//EN"
 "http://www.w3.org/TR/2001/REC-SVG-20010904/DTD/svg10.dtd">
<svg version="1.0" xmlns="http://www.w3.org/2000/svg"
 width="403pt" height="648pt" viewBox="0 0 403 648"
 preserveAspectRatio="xMidYMid meet">
<metadata>
Created by potrace 1.8, written by Peter Selinger 2001-2007
</metadata>
<g transform="translate(0,648) scale(0.218919,-0.218919)"
fill="#000000" stroke="none">
<path d="M90 2938 c-87 -45 -80 86 -80 -1453 0 -1275 1 -1362 18 -1395 9 -19
32 -45 51 -57 l34 -23 820 2 819 3 33 37 c19 20 39 54 45 76 7 28 10 446 8
1379 l-3 1339 -27 41 c-51 77 0 73 -885 73 l-789 0 -44 -22z m1608 -1455 l-3
-1338 -775 0 -775 0 -3 1338 -2 1337 780 0 780 0 -2 -1337z"/>
<path d="M203 2800 c-48 -19 -54 -55 -51 -266 3 -194 3 -195 28 -214 13 -10
37 -21 53 -24 16 -3 332 -6 701 -6 516 0 677 3 696 13 49 24 60 67 60 237 0
183 -9 223 -53 250 -31 19 -56 20 -722 19 -379 0 -700 -4 -712 -9z m1425 -52
c8 -8 12 -65 12 -192 0 -153 -2 -182 -17 -198 -15 -17 -50 -18 -705 -18 -675
0 -688 0 -708 20 -18 18 -20 33 -20 191 0 98 4 178 10 190 10 18 29 19 713 19
534 0 706 -3 715 -12z"/>
<path d="M183 2246 l-28 -24 -3 -197 c-4 -216 1 -235 56 -257 36 -14 1408 -11
1435 3 37 21 47 69 47 239 0 173 -9 214 -51 244 -21 14 -93 16 -726 16 l-702
0 -28 -24z m1439 -33 c16 -14 18 -34 18 -195 0 -165 -1 -179 -20 -198 -20 -20
-33 -20 -700 -20 l-681 0 -24 25 c-25 24 -25 27 -25 195 0 157 2 172 20 190
20 20 33 20 707 20 625 0 688 -1 705 -17z"/>
<path d="M204 1726 c-20 -9 -35 -25 -43 -46 -15 -43 -15 -384 0 -412 26 -48
32 -48 767 -48 680 0 690 0 715 21 41 32 49 77 45 259 -3 183 -11 209 -70 229
-50 18 -1374 14 -1414 -3z m1420 -52 c24 -23 24 -365 0 -388 -14 -14 -92 -16
-709 -16 l-694 0 -15 22 c-23 33 -23 359 0 382 14 14 92 16 709 16 617 0 695
-2 709 -16z"/>
<path d="M183 1176 l-28 -24 -3 -199 c-3 -189 -2 -200 18 -226 11 -14 38 -31
58 -37 41 -11 1350 -13 1391 -1 13 3 34 19 45 34 19 26 21 44 24 205 3 195 -6
233 -58 259 -19 10 -185 13 -722 13 l-697 0 -28 -24z m1435 -32 c21 -15 22
-20 22 -196 0 -155 -2 -184 -17 -200 -15 -17 -50 -18 -705 -18 -675 0 -688 0
-708 20 -18 18 -20 33 -20 193 0 176 4 197 40 210 8 3 319 6 690 6 596 1 678
-1 698 -15z"/>
<path d="M187 648 c-9 -7 -21 -26 -27 -41 -13 -37 -13 -382 0 -408 27 -49 20
-49 757 -49 378 0 698 3 710 6 48 13 58 47 61 218 4 184 0 215 -34 256 l-26
30 -712 0 c-554 0 -716 -3 -729 -12z m1437 -44 c13 -13 16 -45 16 -195 0 -166
-1 -180 -20 -199 -20 -20 -30 -20 -706 -18 l-686 3 -19 24 c-17 21 -19 41 -19
190 0 135 3 171 16 189 l15 22 694 0 c617 0 695 -2 709 -16z"/>
</g>
</svg>
