<?xml version="1.0" standalone="no"?>
<!DOCTYPE svg PUBLIC "-//W3C//DTD SVG 20010904//EN"
 "http://www.w3.org/TR/2001/REC-SVG-20010904/DTD/svg10.dtd">
<svg version="1.0" xmlns="http://www.w3.org/2000/svg"
 width="468pt" height="369pt" viewBox="0 0 468 369"
 preserveAspectRatio="xMidYMid meet">
<metadata>
Created by potrace 1.8, written by Peter Selinger 2001-2007
</metadata>
<g transform="translate(0,369) scale(0.158644,-0.158644)"
fill="#000000" stroke="none">
<path d="M106 2310 c-34 -11 -63 -36 -82 -72 -17 -33 -19 -219 -3 -251 21 -40
52 -67 88 -77 l36 -9 0 -932 c0 -910 0 -931 19 -945 11 -8 34 -14 52 -14 67 0
64 -28 64 702 l0 658 1195 0 1195 0 0 -663 c0 -630 1 -665 18 -680 23 -21 71
-22 98 -3 19 14 19 35 19 943 l0 928 49 20 c75 31 90 58 95 173 4 119 -8 163
-56 199 l-36 28 -1361 2 c-749 1 -1374 -2 -1390 -7z m2714 -200 l0 -70 -1340
0 -1340 0 0 70 0 70 1340 0 1340 0 0 -70z m-780 -230 c0 -20 -7 -20 -880 -20
-873 0 -880 0 -880 20 0 20 7 20 880 20 873 0 880 0 880 -20z m180 10 c0 -15
177 -13 183 3 3 6 6 2 6 -10 1 -23 -1 -23 -129 -23 -123 0 -130 1 -130 20 0
16 7 20 35 20 19 0 35 -4 35 -10z m450 -10 c0 -18 -7 -20 -84 -20 -79 0 -84 1
-79 20 5 18 14 20 84 20 72 0 79 -2 79 -20z m0 -172 l0 -48 -1195 0 -1195 0 0
51 0 50 1195 -2 1195 -3 0 -48z m0 -193 l0 -45 -1195 0 -1195 0 0 45 0 45
1195 0 1195 0 0 -45z"/>
</g>
</svg>
