<?xml version="1.0" standalone="no"?>
<!DOCTYPE svg PUBLIC "-//W3C//DTD SVG 20010904//EN"
 "http://www.w3.org/TR/2001/REC-SVG-20010904/DTD/svg10.dtd">
<svg version="1.0" xmlns="http://www.w3.org/2000/svg"
 width="468pt" height="369pt" viewBox="0 0 468 369"
 preserveAspectRatio="xMidYMid meet">
<metadata>
Created by potrace 1.8, written by Peter Selinger 2001-2007
</metadata>
<g transform="translate(0,369) scale(0.158644,-0.158644)"
fill="#000000" stroke="none">
<path d="M106 2310 c-34 -11 -63 -36 -82 -72 -17 -33 -19 -219 -3 -251 21 -40
52 -67 88 -77 l36 -9 0 -932 c0 -910 0 -931 19 -945 11 -8 34 -14 52 -14 66 0
64 -18 64 602 l0 558 1195 0 1195 0 0 -563 c0 -534 1 -565 18 -580 23 -21 71
-22 98 -3 19 14 19 35 19 943 l0 928 49 20 c75 31 90 58 95 173 4 119 -8 163
-56 199 l-36 28 -1361 2 c-749 1 -1374 -2 -1390 -7z m2714 -200 l0 -70 -1340
0 -1340 0 0 70 0 70 1340 0 1340 0 0 -70z m-150 -234 l0 -23 -1195 -2 -1195
-2 0 26 0 25 1195 0 1195 0 0 -24z m-628 -171 l3 -45 -882 0 -883 0 0 45 0 45
879 0 879 0 4 -45z m368 0 l0 -45 -130 0 -130 0 0 45 0 45 130 0 130 0 0 -45z
m260 0 l0 -45 -86 0 c-74 0 -85 2 -80 16 3 9 6 29 6 45 l0 29 80 0 80 0 0 -45z
m0 -190 l0 -45 -1195 0 -1195 0 0 45 0 45 1195 0 1195 0 0 -45z m0 -195 l0
-50 -1195 0 -1195 0 0 50 0 50 1195 0 1195 0 0 -50z"/>
<path d="M2220 1710 c0 -19 6 -20 91 -20 81 0 90 2 87 18 -3 14 -17 17 -91 20
-82 3 -87 2 -87 -18z"/>
</g>
</svg>
