<?xml version="1.0" standalone="no"?>
<!DOCTYPE svg PUBLIC "-//W3C//DTD SVG 20010904//EN"
 "http://www.w3.org/TR/2001/REC-SVG-20010904/DTD/svg10.dtd">
<svg version="1.0" xmlns="http://www.w3.org/2000/svg"
 width="468pt" height="374pt" viewBox="0 0 468 374"
 preserveAspectRatio="xMidYMid meet">
<metadata>
Created by potrace 1.8, written by Peter Selinger 2001-2007
</metadata>
<g transform="translate(0,374) scale(0.158108,-0.158108)"
fill="#000000" stroke="none">
<path d="M2065 2344 c-298 -55 -627 -180 -977 -369 -327 -178 -549 -334 -733
-519 -127 -128 -164 -184 -170 -258 -2 -25 -9 -45 -19 -50 -32 -18 -35 -50
-14 -154 21 -102 37 -134 70 -134 22 0 23 -45 8 -245 -12 -156 -31 -240 -58
-265 -12 -12 -23 -39 -27 -72 -14 -102 -53 -158 -110 -158 -21 0 -39 -43 -31
-75 4 -15 17 -30 32 -35 17 -7 547 -9 1461 -8 1407 3 1435 3 1449 22 31 43 12
81 -50 101 -40 13 -63 55 -80 145 -7 41 -19 76 -25 78 -46 15 -68 136 -80 442
-12 315 -28 348 -177 358 -61 4 -74 8 -74 21 0 10 -16 231 -35 492 -19 260
-35 478 -35 483 0 5 24 -14 54 -43 61 -57 85 -62 121 -26 41 40 33 63 -54 154
-69 73 -82 83 -106 79 -18 -4 -42 3 -71 19 -56 31 -159 38 -269 17z m244 -54
c24 -12 23 -14 -60 -56 -46 -23 -518 -270 -1049 -547 -822 -431 -965 -502
-968 -486 -6 37 61 134 162 234 420 419 1391 886 1811 871 44 -1 91 -8 104
-16z m76 -685 c18 -247 32 -451 31 -453 -2 -1 -438 -1 -969 0 l-967 3 932 487
933 488 3 -38 c2 -20 18 -239 37 -487z m179 -667 c3 -40 10 -158 16 -263 5
-104 16 -218 24 -252 l14 -63 -1144 0 c-629 0 -1144 1 -1144 3 0 1 7 34 15 72
8 39 19 165 25 280 5 116 13 229 16 253 l5 42 1084 0 1083 0 6 -72z m99 -727
c9 -27 17 -50 17 -52 0 -5 -2402 0 -2407 4 -2 2 4 25 13 50 l16 47 1172 0
1171 0 18 -49z"/>
</g>
</svg>
