<?xml version="1.0" standalone="no"?>
<!DOCTYPE svg PUBLIC "-//W3C//DTD SVG 20010904//EN"
 "http://www.w3.org/TR/2001/REC-SVG-20010904/DTD/svg10.dtd">
<svg version="1.0" xmlns="http://www.w3.org/2000/svg"
 width="468pt" height="492pt" viewBox="0 0 468 492"
 preserveAspectRatio="xMidYMid meet">
<metadata>
Created by potrace 1.8, written by Peter Selinger 2001-2007
</metadata>
<g transform="translate(0,492) scale(0.192593,-0.192593)"
fill="#000000" stroke="none">
<path d="M73 2520 c-68 -41 -64 57 -61 -1241 3 -1145 3 -1175 22 -1200 11 -14
31 -34 45 -45 25 -19 52 -19 1138 -19 1106 0 1112 0 1140 21 15 11 38 40 51
64 l22 44 0 1143 c0 1259 3 1193 -62 1233 -33 20 -47 20 -1148 20 -1088 0
-1116 -1 -1147 -20z m2217 -765 l0 -415 -34 0 c-45 0 -86 -33 -86 -70 0 -41
34 -70 82 -70 l38 0 -2 -527 -3 -528 -1059 -3 c-774 -1 -1062 1 -1072 9 -12
10 -14 182 -14 1015 l0 1004 1075 0 1075 0 0 -415z"/>
</g>
</svg>
