<?xml version="1.0" standalone="no"?>
<!DOCTYPE svg PUBLIC "-//W3C//DTD SVG 20010904//EN"
 "http://www.w3.org/TR/2001/REC-SVG-20010904/DTD/svg10.dtd">
<svg version="1.0" xmlns="http://www.w3.org/2000/svg"
 width="468pt" height="369pt" viewBox="0 0 468 369"
 preserveAspectRatio="xMidYMid meet">
<metadata>
Created by potrace 1.8, written by Peter Selinger 2001-2007
</metadata>
<g transform="translate(0,369) scale(0.158644,-0.158644)"
fill="#000000" stroke="none">
<path d="M106 2310 c-34 -11 -63 -36 -82 -72 -17 -33 -19 -219 -3 -251 21 -40
52 -67 88 -77 l36 -9 0 -932 c0 -910 0 -931 19 -945 31 -22 82 -18 100 8 14
19 16 73 16 385 l0 363 1195 0 1195 0 0 -368 c0 -345 1 -370 18 -385 23 -21
71 -22 98 -3 19 14 19 35 19 943 l0 928 49 20 c75 31 90 58 95 173 4 119 -8
163 -56 199 l-36 28 -1361 2 c-749 1 -1374 -2 -1390 -7z m2714 -200 l0 -70
-1340 0 -1340 0 0 70 0 70 1340 0 1340 0 0 -70z m-150 -235 l0 -25 -1149 0
c-631 0 -1169 3 -1195 6 -36 5 -46 11 -46 25 0 18 36 19 1195 19 l1195 0 0
-25z m0 -170 l0 -45 -1195 0 -1195 0 0 45 0 45 1195 0 1195 0 0 -45z m0 -195
l0 -50 -788 0 c-434 0 -972 3 -1195 7 l-407 6 0 44 0 43 1195 0 1195 0 0 -50z
m-628 -190 l3 -50 -882 0 -883 0 0 50 0 50 879 0 879 0 4 -50z m368 0 l0 -50
-130 0 -130 0 0 50 0 50 130 0 130 0 0 -50z m260 0 l0 -50 -82 0 -83 0 3 50 4
50 79 0 79 0 0 -50z m0 -195 l0 -45 -1073 0 c-591 0 -1129 -3 -1195 -7 l-122
-6 0 51 0 52 1195 0 1195 0 0 -45z m0 -195 l0 -50 -1195 0 -1195 0 0 50 0 50
1195 0 1195 0 0 -50z"/>
<path d="M2220 1320 c0 -19 6 -20 91 -20 81 0 90 2 87 18 -3 14 -17 17 -91 20
-82 3 -87 2 -87 -18z"/>
</g>
</svg>
