<?xml version="1.0" standalone="no"?>
<!DOCTYPE svg PUBLIC "-//W3C//DTD SVG 20010904//EN"
 "http://www.w3.org/TR/2001/REC-SVG-20010904/DTD/svg10.dtd">
<svg version="1.0" xmlns="http://www.w3.org/2000/svg"
 width="468pt" height="470pt" viewBox="0 0 468 470"
 preserveAspectRatio="xMidYMid meet">
<metadata>
Created by potrace 1.8, written by Peter Selinger 2001-2007
</metadata>
<g transform="translate(0,470) scale(0.158108,-0.158108)"
fill="#000000" stroke="none">
<path d="M36 2931 c-56 -58 -45 -214 17 -251 31 -19 55 -20 615 -20 l582 0 0
-1270 c0 -1380 -3 -1296 55 -1350 l27 -25 756 -3 c841 -3 799 -6 842 63 18 30
19 68 21 1435 l1 1404 -26 23 -27 23 -1418 0 -1417 0 -28 -29z m2784 -116 c0
-13 -156 -15 -1340 -15 -1184 0 -1340 2 -1340 15 0 13 156 15 1340 15 1184 0
1340 -2 1340 -15z m-180 -704 l0 -549 -61 -4 c-69 -5 -89 -21 -89 -72 0 -48
24 -66 92 -66 l58 0 0 -640 0 -640 -627 2 -628 3 -3 1245 c-1 685 0 1251 3
1258 3 9 139 12 630 12 l625 0 0 -549z m180 -711 c0 -1253 0 -1260 -20 -1260
-20 0 -20 7 -20 1260 0 1253 0 1260 20 1260 20 0 20 -7 20 -1260z"/>
</g>
</svg>
