<?xml version="1.0" encoding="UTF-8" standalone="no"?>
<svg
   xmlns:dc="http://purl.org/dc/elements/1.1/"
   xmlns:cc="http://creativecommons.org/ns#"
   xmlns:rdf="http://www.w3.org/1999/02/22-rdf-syntax-ns#"
   xmlns:svg="http://www.w3.org/2000/svg"
   xmlns="http://www.w3.org/2000/svg"
   version="1.0"
   width="468pt"
   height="369pt"
   viewBox="0 0 468 369"
   preserveAspectRatio="xMidYMid meet"
   id="svg8">
  <defs
     id="defs12" />
  <metadata
     id="metadata2">
Created by potrace 1.8, written by Peter Selinger 2001-2007
<rdf:RDF>
  <cc:Work
     rdf:about="">
    <dc:format>image/svg+xml</dc:format>
    <dc:type
       rdf:resource="http://purl.org/dc/dcmitype/StillImage" />
    <dc:title></dc:title>
  </cc:Work>
</rdf:RDF>
</metadata>
  <g
     transform="translate(0,369) scale(0.158644,-0.158644)"
     fill="#000000"
     stroke="none"
     id="g6">
    <path
       d="M 106,2310 C 72,2299 43,2274 24,2238 7,2205 5,2019 21,1987 c 21,-40 52,-67 88,-77 l 36,-9 V 969 c 0,-910 0,-931 19,-945 11,-8 34,-14 52,-14 67,0 64,-28 64,702 v 658 H 1475 2670 V 707 c 0,-630 1,-665 18,-680 23,-21 71,-22 98,-3 19,14 19,35 19,943 v 928 l 49,20 c 75,31 90,58 95,173 4,119 -8,163 -56,199 l -36,28 -1361,2 c -749,1 -1374,-2 -1390,-7 z m 2714,-200 v -70 H 1480 140 v 70 70 h 1340 1340 z m -150.963,-234.9279 c 0,-0.7603 -0.1951,-1.9414 -1.6954,-3.1754 -2.2066,-1.8149 -7.1636,-2.9384 -14.6167,-3.8676 C 2542.6525,1854.305 1946.5557,1860 1160,1860 c -873,0 -880,0 -880,20 0,20 7,20 880,20 784.3557,0 1380.0741,-0.4082 1492.6746,-15.5321 5.6178,-0.7545 9.5429,-2.4129 12.7187,-3.2343 4.0182,-1.0391 3.6437,-5.0272 3.6437,-6.1615 z M 2670,1708 v -48 H 1475 280 v 51 50 l 1195,-2 1195,-3 z m 0,-193 v -45 H 1475 280 v 45 45 h 1195 1195 z"
       id="path4" />
  </g>
  <path
     id="path6"
     d="m 308.80448,156.42543 c -8.24949,2.06238 -13.00881,7.61492 -13.00881,14.7539 v 6.02847 h -8.40813 c -5.07661,0 -9.67729,0.95186 -12.05695,2.5383 -7.13898,5.07661 -8.09084,10.62915 -8.09084,47.75185 v 34.42575 l -3.49017,-6.98034 c -5.23525,-10.15322 -12.37423,-12.69152 -24.74846,-8.88407 -17.76813,5.55255 -20.14779,11.89831 -13.96068,35.37762 2.37966,8.56677 7.9322,29.82507 12.69152,47.11727 6.50441,24.43118 9.20136,32.20474 11.73966,33.94981 3.64881,2.37966 8.72542,0.63459 10.47051,-3.6488 0.47593,-1.4278 -4.44204,-23.32067 -10.94644,-48.70372 -7.29762,-28.07998 -11.42237,-46.79997 -10.47051,-47.75184 0.79323,-0.79322 3.64882,-1.58644 6.50441,-1.58644 l 5.07661,-0.31729 6.98033,19.83051 c 11.26373,32.04608 11.73966,33.15659 15.07118,34.10846 1.90373,0.63457 4.91797,0 7.29763,-1.58645 l 3.9661,-2.69695 -1.11051,-39.97828 c -0.63458,-22.05152 -0.63458,-48.38643 0,-58.53964 l 1.11051,-18.56135 h 6.18711 6.18712 v 46.00676 46.1654 l 3.64881,1.26916 c 1.90373,0.79322 4.91797,0.79322 6.66305,0.15864 3.01424,-1.11051 3.17288,-3.01423 3.9661,-58.0637 l 0.79322,-56.9532 6.82169,-0.47593 6.66305,-0.47593 v 52.19387 c 0,49.021 0.15865,52.51117 3.01424,56.00134 2.53831,3.17288 3.64881,3.49017 7.45627,2.22101 l 4.60068,-1.58644 0.47593,-46.48269 0.31728,-46.48269 5.23526,0.47593 5.0766,0.47593 0.79323,49.97286 c 0.47592,27.44542 1.42779,50.92473 2.06237,51.87659 1.58644,2.53831 9.35999,2.69695 11.8983,0.15865 1.42779,-1.4278 1.90372,-12.21559 1.90372,-38.86779 0,-35.85354 0.15865,-36.96405 3.17289,-36.96405 3.17287,0 3.17287,1.11051 3.17287,72.18302 0,70.12065 0.15865,72.34167 3.17288,75.35591 3.80746,3.80745 4.60068,3.80745 9.20136,0.63457 l 3.49017,-2.37966 v -73.29352 c 0,-66.63049 -0.31729,-73.76947 -2.8556,-78.84608 -3.01423,-6.02847 -8.24949,-9.51864 -14.91253,-9.51864 -4.12475,0 -4.44203,-0.47593 -4.44203,-7.13898 0,-5.55254 -0.95187,-8.24949 -4.44204,-12.05694 -3.80745,-4.28339 -5.86983,-5.23526 -13.32609,-5.86983 -8.09085,-0.63458 -8.72542,-0.95187 -10.15322,-5.55254 -0.79322,-2.69695 -3.17288,-6.02848 -5.39389,-7.61492 -4.60068,-3.33152 -17.60949,-4.91796 -25.06576,-3.17288 z"
     style="stroke-width:0.15864401" />
</svg>
