<?xml version="1.0" standalone="no"?>
<!DOCTYPE svg PUBLIC "-//W3C//DTD SVG 20010904//EN"
 "http://www.w3.org/TR/2001/REC-SVG-20010904/DTD/svg10.dtd">
<svg version="1.0" xmlns="http://www.w3.org/2000/svg"
 width="468pt" height="408pt" viewBox="0 0 468 408"
 preserveAspectRatio="xMidYMid meet">
<metadata>
Created by potrace 1.8, written by Peter Selinger 2001-2007
</metadata>
<g transform="translate(0,408) scale(0.158108,-0.158108)"
fill="#000000" stroke="none">
<path d="M1915 2570 c-781 -6 -727 -1 -801 -72 -35 -34 -82 -128 -345 -692
l-304 -653 -205 -119 c-113 -65 -215 -129 -227 -141 -32 -31 -31 -82 3 -114
22 -21 36 -24 130 -27 93 -4 104 -6 99 -21 -3 -10 -61 -136 -129 -282 -68
-145 -127 -278 -130 -296 -5 -22 -2 -45 12 -76 36 -82 -17 -77 899 -77 l809 0
52 26 c29 14 66 43 83 63 28 33 1060 2228 1089 2316 14 44 6 87 -26 124 -31
37 -95 52 -212 49 -48 -2 -406 -5 -797 -8z m741 -487 l-102 -218 -425 -5
c-381 -5 -429 -7 -474 -24 -27 -10 -258 -140 -513 -288 -255 -149 -465 -268
-466 -267 -3 3 175 387 408 882 l65 137 805 0 804 0 -102 -217z m-177 -375 c0
-7 -28 -69 -62 -137 l-62 -125 -455 -264 c-250 -145 -472 -271 -494 -278 -57
-21 -516 -20 -516 0 0 8 -12 24 -27 36 -32 25 -54 22 -122 -21 -47 -29 -53
-30 -149 -27 l-100 3 41 84 42 85 540 314 c297 173 556 320 575 327 50 19 790
21 789 3z m-254 -550 c-18 -40 -126 -271 -239 -513 l-205 -440 -806 -3 c-444
-1 -804 1 -802 5 2 5 59 128 127 275 l124 267 485 3 c465 3 488 4 541 24 30
11 222 118 425 237 204 119 373 217 377 217 4 0 -8 -33 -27 -72z m-1875 -248
c-7 -12 -21 -20 -38 -20 l-27 0 30 20 c38 25 49 25 35 0z"/>
</g>
</svg>
