<?xml version="1.0" standalone="no"?>
<!DOCTYPE svg PUBLIC "-//W3C//DTD SVG 20010904//EN"
 "http://www.w3.org/TR/2001/REC-SVG-20010904/DTD/svg10.dtd">
<svg version="1.0" xmlns="http://www.w3.org/2000/svg"
 width="468pt" height="468pt" viewBox="0 0 468 468"
 preserveAspectRatio="xMidYMid meet">
<metadata>
Created by potrace 1.8, written by Peter Selinger 2001-2007
</metadata>
<g transform="translate(0,468) scale(0.158108,-0.158108)"
fill="#000000" stroke="none">
<path d="M935 2950 c-11 -4 -47 -35 -79 -68 -48 -50 -59 -66 -58 -93 1 -37 16
-55 55 -65 25 -6 36 1 104 69 68 68 75 79 69 104 -12 47 -51 70 -91 53z"/>
<path d="M295 2720 c-11 -4 -31 -20 -45 -35 -25 -26 -25 -29 -28 -220 -5 -288
-8 -285 273 -285 278 0 275 -3 275 275 0 275 0 275 -277 274 -98 0 -187 -4
-198 -9z m345 -265 l0 -145 -145 0 -145 0 0 145 0 145 145 0 145 0 0 -145z"/>
<path d="M942 2520 c-42 -18 -49 -72 -14 -112 14 -16 39 -18 267 -18 231 0
253 1 268 18 24 26 21 75 -4 98 -19 17 -41 19 -258 21 -130 1 -246 -2 -259 -7z"/>
<path d="M67 2102 c-62 -63 -74 -104 -39 -135 36 -32 72 -22 134 40 63 63 75
104 40 136 -36 33 -73 22 -135 -41z"/>
<path d="M801 2134 c-12 -15 -21 -36 -21 -47 0 -27 333 -363 368 -372 37 -9
76 23 80 65 3 31 -8 44 -170 206 -151 152 -178 174 -205 174 -22 0 -38 -8 -52
-26z"/>
<path d="M2446 1855 l-419 -276 -161 2 -162 1 -415 -272 c-227 -150 -424 -282
-436 -293 -29 -26 -29 -66 -2 -101 26 -33 59 -33 97 -1 16 14 204 140 417 281
l388 255 156 -6 156 -6 402 265 c222 146 409 266 417 266 19 0 76 54 76 73 0
27 -45 82 -71 85 -19 2 -130 -67 -443 -273z"/>
<path d="M1880 1899 c0 -205 1 -220 18 -217 15 3 17 23 20 221 2 212 2 217
-18 217 -19 0 -20 -6 -20 -221z"/>
<path d="M454 2036 c-18 -14 -19 -29 -19 -271 0 -242 1 -257 19 -271 28 -20
80 -18 99 4 15 16 17 50 17 269 0 229 -1 251 -18 266 -23 21 -71 22 -98 3z"/>
<path d="M1887 1334 c-4 -4 -7 -121 -7 -261 0 -247 0 -253 20 -253 20 0 20 5
18 257 -3 243 -7 280 -31 257z"/>
<path d="M2450 975 l-415 -274 -167 -1 -166 0 -419 -276 c-230 -152 -426 -283
-435 -292 -26 -22 -23 -74 7 -106 13 -14 30 -26 37 -26 15 0 57 26 73 45 6 6
182 125 392 263 l383 252 164 0 164 0 293 193 c162 106 336 221 387 256 51 34
113 71 137 81 24 10 51 30 59 43 15 21 15 28 1 60 -15 35 -40 57 -67 57 -7 0
-200 -124 -428 -275z"/>
<path d="M1887 454 c-4 -4 -7 -103 -7 -221 0 -207 1 -213 20 -213 20 0 20 5
18 217 -3 204 -8 240 -31 217z"/>
</g>
</svg>
