<?xml version="1.0" standalone="no"?>
<!DOCTYPE svg PUBLIC "-//W3C//DTD SVG 20010904//EN"
 "http://www.w3.org/TR/2001/REC-SVG-20010904/DTD/svg10.dtd">
<svg version="1.0" xmlns="http://www.w3.org/2000/svg"
 width="468pt" height="369pt" viewBox="0 0 468 369"
 preserveAspectRatio="xMidYMid meet">
<metadata>
Created by potrace 1.8, written by Peter Selinger 2001-2007
</metadata>
<g transform="translate(0,369) scale(0.158644,-0.158644)"
fill="#000000" stroke="none">
<path d="M106 2310 c-34 -11 -63 -36 -82 -72 -17 -33 -19 -219 -3 -251 21 -40
52 -67 88 -77 l36 -9 0 -932 c0 -910 0 -931 19 -945 30 -21 2592 -21 2622 0
19 14 19 35 19 943 l0 928 49 20 c75 31 90 58 95 173 4 119 -8 163 -56 199
l-36 28 -1361 2 c-749 1 -1374 -2 -1390 -7z m2714 -200 l0 -70 -1340 0 -1340
0 0 70 0 70 1340 0 1340 0 0 -70z m-150 -235 l0 -25 -1149 0 c-631 0 -1169 3
-1195 6 -36 5 -46 11 -46 25 0 18 36 19 1195 19 l1195 0 0 -25z m0 -170 l0
-45 -1195 0 -1195 0 0 45 0 45 1195 0 1195 0 0 -45z m0 -190 l0 -45 -1195 0
-1195 0 0 45 0 45 1195 0 1195 0 0 -45z m0 -200 l0 -45 -1195 0 -1195 0 0 45
0 45 1195 0 1195 0 0 -45z m0 -190 l0 -45 -1195 0 -1195 0 0 45 0 45 1195 0
1195 0 0 -45z m0 -195 l0 -50 -788 0 c-434 0 -972 3 -1195 7 l-407 6 0 44 0
43 1195 0 1195 0 0 -50z m0 -195 l0 -45 -1195 0 -1195 0 0 45 0 45 1195 0
1195 0 0 -45z m-630 -179 c0 -19 3 -41 6 -50 6 -14 -40 -16 -473 -16 -264 0
-663 3 -886 7 l-407 6 0 44 0 43 880 0 880 0 0 -34z m370 -16 l0 -50 -130 0
-130 0 0 50 0 50 130 0 130 0 0 -50z m260 0 l0 -50 -86 0 c-74 0 -85 2 -80 16
3 9 6 31 6 50 l0 34 80 0 80 0 0 -50z m0 -190 l0 -50 -1195 0 -1195 0 0 50 0
50 1195 0 1195 0 0 -50z m0 -195 l0 -45 -1195 0 -1195 0 0 45 0 45 1195 0
1195 0 0 -45z"/>
<path d="M2233 563 c-7 -2 -13 -13 -13 -24 0 -17 8 -19 85 -19 69 0 87 3 92
16 3 9 0 20 -8 25 -15 9 -135 11 -156 2z"/>
</g>
</svg>
