<?xml version="1.0" standalone="no"?>
<!DOCTYPE svg PUBLIC "-//W3C//DTD SVG 20010904//EN"
 "http://www.w3.org/TR/2001/REC-SVG-20010904/DTD/svg10.dtd">
<svg version="1.0" xmlns="http://www.w3.org/2000/svg"
 width="468pt" height="468pt" viewBox="0 0 468 468"
 preserveAspectRatio="xMidYMid meet">
<metadata>
Created by potrace 1.8, written by Peter Selinger 2001-2007
</metadata>
<g transform="translate(0,468) scale(0.191020,-0.191020)"
fill="#000000" stroke="none">
<path d="M84 2436 c-17 -8 -40 -26 -52 -41 l-22 -28 0 -984 0 -985 22 -40 c26
-45 19 -42 449 -232 157 -69 297 -126 311 -126 33 0 77 35 94 76 9 21 14 71
14 134 l0 100 325 0 325 0 0 -100 c0 -63 5 -113 14 -134 17 -42 61 -76 96 -76
15 0 185 70 376 155 380 169 386 172 404 260 8 34 10 348 8 997 -3 939 -3 947
-24 975 -11 15 -36 36 -55 45 -32 17 -107 18 -1144 18 -906 -1 -1116 -3 -1141
-14z m1076 -1176 l0 -810 -130 0 -130 0 0 668 c0 626 -2 669 -19 707 -10 22
-27 47 -37 57 -10 9 -102 53 -204 98 -102 45 -187 84 -189 86 -2 2 156 4 352
4 l357 0 0 -810z m830 801 c-8 -5 -94 -44 -190 -86 -187 -82 -221 -107 -239
-172 -7 -25 -11 -265 -11 -695 l0 -658 -130 0 -130 0 0 810 0 810 358 0 c208
0 351 -4 342 -9z m-1538 -145 l303 -133 3 -379 2 -379 -22 -10 c-13 -6 -29
-22 -36 -37 -16 -34 1 -76 35 -84 l23 -6 0 -218 0 -218 -132 -7 c-73 -3 -212
-5 -308 -3 l-175 3 -3 803 c-1 441 0 802 2 802 3 0 141 -60 308 -134z m1858
-666 l0 -800 -310 0 -310 0 0 214 0 215 27 13 c37 18 50 61 28 95 -9 14 -26
28 -36 30 -19 5 -19 19 -17 385 l3 379 300 134 c165 74 303 134 308 134 4 1 7
-359 7 -799z m-1550 -1020 l0 -80 -32 14 c-87 36 -313 138 -317 142 -2 2 75 4
172 4 l177 0 0 -80z m1279 76 c-5 -5 -340 -156 -346 -156 -2 0 -3 36 -3 80 l0
80 177 0 c97 0 174 -2 172 -4z"/>
</g>
</svg>
