<?xml version="1.0" standalone="no"?>
<!DOCTYPE svg PUBLIC "-//W3C//DTD SVG 20010904//EN"
 "http://www.w3.org/TR/2001/REC-SVG-20010904/DTD/svg10.dtd">
<svg version="1.0" xmlns="http://www.w3.org/2000/svg"
 width="468pt" height="340pt" viewBox="0 0 468 340"
 preserveAspectRatio="xMidYMid meet">
<metadata>
Created by potrace 1.8, written by Peter Selinger 2001-2007
</metadata>
<g transform="translate(0,340) scale(0.158644,-0.158644)"
fill="#000000" stroke="none">
<path d="M74 2120 c-81 -40 -75 35 -72 -1052 3 -958 3 -967 24 -994 11 -15 33
-37 48 -48 27 -21 29 -21 1400 -21 l1373 0 37 29 c70 53 66 -6 66 1055 l0 959
-27 33 c-53 63 35 59 -1450 59 -1346 0 -1358 0 -1399 -20z m1336 -698 l0 -338
-32 -9 c-21 -6 -38 -21 -46 -37 -18 -39 2 -80 46 -93 l32 -9 0 -397 0 -396
-619 -8 c-456 -5 -624 -4 -640 4 l-21 12 0 804 0 805 640 0 640 0 0 -338z
m1408 -469 l-3 -808 -637 -3 -638 -2 0 400 c0 377 1 400 18 400 36 0 62 29 62
70 0 41 -26 70 -62 70 -17 0 -18 21 -18 340 l0 340 640 0 640 0 -2 -807z"/>
</g>
</svg>
