<?xml version="1.0" standalone="no"?>
<!DOCTYPE svg PUBLIC "-//W3C//DTD SVG 20010904//EN"
 "http://www.w3.org/TR/2001/REC-SVG-20010904/DTD/svg10.dtd">
<svg version="1.0" xmlns="http://www.w3.org/2000/svg"
 width="468pt" height="501pt" viewBox="0 0 468 501"
 preserveAspectRatio="xMidYMid meet">
<metadata>
Created by potrace 1.8, written by Peter Selinger 2001-2007
</metadata>
<g transform="translate(0,501) scale(0.168953,-0.168953)"
fill="#000000" stroke="none">
<path d="M866 2891 c-74 -74 -84 -104 -51 -141 35 -39 72 -26 147 48 73 74 80
94 47 136 -35 44 -65 35 -143 -43z"/>
<path d="M2167 2943 c-4 -3 -7 -73 -7 -155 0 -139 1 -148 19 -148 10 0 22 7
25 16 8 20 8 258 0 278 -6 16 -26 21 -37 9z"/>
<path d="M2585 2741 c-394 -104 -711 -398 -834 -773 -20 -61 -21 -69 -7 -96
39 -75 131 -44 143 48 19 149 196 394 377 521 132 94 310 169 399 169 59 0 97
29 97 75 0 24 -7 39 -26 54 -32 25 -58 26 -149 2z"/>
<path d="M300 2727 c-19 -7 -44 -27 -57 -46 -22 -32 -23 -43 -23 -220 0 -206
4 -221 60 -259 34 -23 39 -23 228 -20 l194 3 34 37 34 38 0 192 c0 208 -4 225
-53 262 -26 19 -43 21 -205 23 -121 2 -188 -1 -212 -10z m340 -267 l0 -140
-145 0 -145 0 0 140 0 140 145 0 145 0 0 -140z"/>
<path d="M925 2510 c-23 -25 -24 -76 -1 -98 15 -15 45 -17 272 -17 241 0 256
1 270 19 22 31 18 82 -8 100 -19 13 -62 16 -269 16 -234 0 -247 -1 -264 -20z"/>
<path d="M2173 2293 c-10 -4 -13 -66 -13 -264 0 -229 2 -260 16 -266 9 -3 20
0 25 8 5 8 9 125 9 260 0 250 -3 274 -37 262z"/>
<path d="M68 2112 c-62 -63 -75 -104 -43 -136 40 -40 85 -26 153 48 48 52 55
93 22 126 -35 35 -67 26 -132 -38z"/>
<path d="M805 2145 c-14 -13 -25 -34 -25 -46 0 -16 54 -77 177 -201 190 -191
209 -202 253 -158 44 44 33 63 -158 253 -124 123 -185 177 -201 177 -12 0 -33
-11 -46 -25z"/>
<path d="M455 2035 l-25 -24 0 -241 0 -241 26 -26 c20 -20 31 -24 57 -19 56
11 57 17 57 288 0 235 -1 249 -20 268 -27 27 -66 25 -95 -5z"/>
<path d="M2620 1886 c-343 -76 -640 -305 -799 -617 -27 -52 -59 -127 -72 -166
-21 -68 -22 -73 -6 -97 19 -29 55 -41 93 -32 28 7 54 56 54 103 0 38 78 189
140 273 60 81 174 191 251 242 119 79 340 171 368 153 18 -10 90 15 101 35 19
35 12 77 -16 99 -30 24 -37 24 -114 7z"/>
<path d="M2160 1180 c0 -230 2 -261 16 -267 9 -3 20 0 25 8 10 16 13 478 3
503 -3 9 -15 16 -25 16 -18 0 -19 -12 -19 -260z"/>
<path d="M2555 1006 c-202 -58 -366 -154 -516 -305 -137 -137 -243 -306 -295
-473 -16 -54 -16 -58 0 -83 37 -57 106 -52 131 10 8 19 15 45 15 58 0 30 68
171 120 246 148 219 443 411 652 425 49 3 66 9 80 26 22 27 23 68 2 98 -20 29
-81 29 -189 -2z"/>
<path d="M2160 305 c0 -253 2 -286 16 -292 9 -3 20 0 25 8 5 8 8 138 6 289
l-2 275 -22 3 -23 3 0 -286z"/>
</g>
</svg>
