<?xml version="1.0" standalone="no"?>
<!DOCTYPE svg PUBLIC "-//W3C//DTD SVG 20010904//EN"
 "http://www.w3.org/TR/2001/REC-SVG-20010904/DTD/svg10.dtd">
<svg version="1.0" xmlns="http://www.w3.org/2000/svg"
 width="468pt" height="388pt" viewBox="0 0 468 388"
 preserveAspectRatio="xMidYMid meet">
<metadata>
Created by potrace 1.8, written by Peter Selinger 2001-2007
</metadata>
<g transform="translate(0,388) scale(0.158108,-0.158108)"
fill="#000000" stroke="none">
<path d="M84 2430 c-81 -40 -75 35 -72 -1052 3 -958 3 -967 24 -994 11 -15 33
-37 48 -48 27 -21 37 -21 842 -24 l814 -2 0 -111 c0 -85 4 -117 16 -139 20
-33 63 -60 96 -60 39 0 1018 299 1048 320 62 44 60 4 60 1069 l0 969 -27 33
c-53 63 35 59 -1450 59 -1346 0 -1358 0 -1399 -20z m1336 -698 l0 -338 -32 -9
c-19 -6 -39 -22 -48 -37 -13 -25 -13 -31 0 -55 9 -16 29 -32 48 -38 l32 -9 0
-397 0 -396 -619 -8 c-456 -5 -624 -4 -640 4 l-21 12 0 804 0 805 640 0 640 0
0 -338z m945 332 c-5 -2 -129 -39 -274 -83 -145 -43 -275 -88 -290 -98 -14
-11 -34 -35 -43 -54 -17 -31 -18 -86 -18 -706 l0 -673 -95 0 -95 0 0 810 0
810 413 -1 c226 0 408 -2 402 -5z m463 -806 l-3 -803 -477 -3 -478 -2 0 214 0
214 34 12 c23 7 38 21 46 41 11 27 10 34 -7 57 -11 15 -32 28 -46 30 l-27 3 0
374 c0 257 3 376 11 380 13 9 920 284 937 284 10 1 12 -163 10 -801z m-653
-1028 c-143 -43 -270 -81 -282 -85 -23 -5 -23 -4 -23 80 l0 85 283 -1 282 0
-260 -79z"/>
</g>
</svg>
