<?xml version="1.0" standalone="no"?>
<!DOCTYPE svg PUBLIC "-//W3C//DTD SVG 20010904//EN"
 "http://www.w3.org/TR/2001/REC-SVG-20010904/DTD/svg10.dtd">
<svg version="1.0" xmlns="http://www.w3.org/2000/svg"
 width="468pt" height="470pt" viewBox="0 0 468 470"
 preserveAspectRatio="xMidYMid meet">
<metadata>
Created by potrace 1.8, written by Peter Selinger 2001-2007
</metadata>
<g transform="translate(0,470) scale(0.158108,-0.158108)"
fill="#000000" stroke="none">
<path d="M34 2929 c-27 -29 -29 -35 -29 -114 0 -71 3 -88 23 -114 l22 -30 0
-1268 c0 -1229 1 -1269 20 -1310 11 -25 33 -51 52 -63 32 -19 49 -20 463 -20
414 0 431 1 463 20 19 12 41 38 52 63 19 41 20 81 20 1305 l0 1262 185 0 185
0 0 -1270 c0 -1380 -3 -1296 55 -1350 l27 -25 440 -3 c428 -3 441 -2 473 18
69 43 65 -50 65 1358 l0 1271 176 3 176 3 30 34 c29 33 30 35 26 123 -3 84 -5
91 -31 114 l-28 24 -1418 0 -1417 0 -30 -31z m2796 -114 c0 -13 -156 -15
-1345 -15 -1189 0 -1345 2 -1345 15 0 13 156 15 1345 15 1189 0 1345 -2 1345
-15z m-1850 -704 l0 -549 -60 -4 c-69 -5 -93 -22 -93 -67 0 -51 27 -71 95 -71
l58 0 0 -640 0 -640 -395 0 -395 0 0 1260 0 1260 395 0 395 0 0 -549z m1438
-714 l2 -1257 -397 2 -398 3 -3 638 -2 637 60 0 c70 0 100 21 100 69 0 45 -40
71 -106 71 l-54 0 0 543 c0 299 3 547 7 550 4 4 182 6 397 5 l391 -3 3 -1258z"/>
</g>
</svg>
