<?xml version="1.0" standalone="no"?>
<!DOCTYPE svg PUBLIC "-//W3C//DTD SVG 20010904//EN"
 "http://www.w3.org/TR/2001/REC-SVG-20010904/DTD/svg10.dtd">
<svg version="1.0" xmlns="http://www.w3.org/2000/svg"
 width="468pt" height="334pt" viewBox="0 0 468 334"
 preserveAspectRatio="xMidYMid meet">
<metadata>
Created by potrace 1.8, written by Peter Selinger 2001-2007
</metadata>
<g transform="translate(0,334) scale(0.158108,-0.158108)"
fill="#000000" stroke="none">
<path d="M65 2103 c-51 -13 -55 -27 -55 -179 0 -156 4 -169 61 -181 38 -7 41
-43 5 -43 -28 0 -66 -42 -66 -72 0 -25 44 -68 70 -68 11 0 20 -7 20 -15 0 -8
-9 -15 -20 -15 -29 0 -70 -44 -70 -75 0 -32 33 -65 65 -65 18 0 25 -5 25 -20
0 -15 -7 -20 -29 -20 -33 0 -61 -30 -61 -65 0 -35 28 -65 61 -65 22 0 29 -5
29 -20 0 -15 -7 -20 -25 -20 -32 0 -65 -33 -65 -65 0 -31 41 -75 70 -75 11 0
20 -7 20 -15 0 -9 -9 -15 -24 -15 -28 0 -66 -42 -66 -72 0 -25 44 -68 70 -68
20 0 20 -4 20 -379 0 -376 0 -378 23 -412 49 -74 -55 -69 1357 -69 1412 0
1308 -5 1357 69 23 34 23 36 23 412 0 376 0 379 21 379 23 0 60 18 71 34 14
21 8 66 -12 86 -11 11 -33 20 -50 20 -20 0 -30 5 -30 15 0 9 9 15 25 15 33 0
75 42 75 75 0 34 -33 65 -70 65 -23 0 -30 4 -30 20 0 16 7 20 34 20 25 0 39 7
50 22 35 49 7 108 -50 108 -27 0 -34 4 -34 20 0 16 7 20 30 20 37 0 70 31 70
65 0 33 -42 75 -75 75 -16 0 -25 6 -25 15 0 9 9 15 24 15 13 0 35 9 50 21 51
40 21 119 -45 119 -41 0 -36 31 8 42 55 14 63 37 63 180 0 120 -1 128 -24 155
l-24 28 -1414 1 c-777 1 -1422 0 -1433 -3z m1355 -388 c0 -13 -73 -15 -595
-15 -522 0 -595 2 -595 15 0 13 73 15 595 15 522 0 595 -2 595 -15z m1310 0
c0 -13 -72 -15 -590 -15 -518 0 -590 2 -590 15 0 13 72 15 590 15 518 0 590
-2 590 -15z m-1310 -170 c0 -13 -73 -15 -595 -15 -522 0 -595 2 -595 15 0 13
73 15 595 15 522 0 595 -2 595 -15z m1310 0 c0 -13 -72 -15 -590 -15 -518 0
-590 2 -590 15 0 13 72 15 590 15 518 0 590 -2 590 -15z m-1310 -175 c0 -20
-7 -20 -595 -20 -588 0 -595 0 -595 20 0 20 7 20 595 20 588 0 595 0 595 -20z
m1310 0 c0 -20 -7 -20 -590 -20 -583 0 -590 0 -590 20 0 20 7 20 590 20 583 0
590 0 590 -20z m-1310 -170 c0 -20 -7 -20 -595 -20 -588 0 -595 0 -595 20 0
20 7 20 595 20 588 0 595 0 595 -20z m1310 0 c0 -20 -7 -20 -590 -20 -583 0
-590 0 -590 20 0 20 7 20 590 20 583 0 590 0 590 -20z m-1310 -169 c0 -18 -90
-21 -632 -21 -489 0 -558 2 -558 15 0 13 73 15 595 15 330 0 595 -4 595 -9z
m1310 -6 c0 -13 -68 -15 -552 -15 -304 0 -570 3 -590 6 -110 19 16 24 552 24
518 0 590 -2 590 -15z m-1310 -520 l0 -365 -592 2 -593 3 -3 363 -2 362 595 0
595 0 0 -365z m1308 3 l-3 -363 -587 -3 -588 -2 0 365 0 365 590 0 590 0 -2
-362z"/>
</g>
</svg>
