<?xml version="1.0" standalone="no"?>
<!DOCTYPE svg PUBLIC "-//W3C//DTD SVG 20010904//EN"
 "http://www.w3.org/TR/2001/REC-SVG-20010904/DTD/svg10.dtd">
<svg version="1.0" xmlns="http://www.w3.org/2000/svg"
 width="468pt" height="468pt" viewBox="0 0 468 468"
 preserveAspectRatio="xMidYMid meet">
<metadata>
Created by potrace 1.8, written by Peter Selinger 2001-2007
</metadata>
<g transform="translate(0,468) scale(0.158644,-0.158644)"
fill="#000000" stroke="none">
<path d="M43 2930 c-35 -14 -43 -42 -43 -150 0 -110 7 -132 47 -153 l26 -14
-25 -6 c-13 -4 -30 -19 -37 -33 -16 -36 2 -82 35 -90 26 -7 33 -34 9 -34 -24
0 -39 -43 -26 -69 7 -11 18 -21 26 -21 23 0 18 -30 -10 -56 -31 -29 -31 -39 0
-70 31 -31 31 -37 0 -68 -31 -31 -31 -41 0 -72 30 -30 32 -50 6 -59 -36 -11
-34 -74 4 -89 21 -8 19 -43 -3 -49 -35 -9 -32 -87 3 -87 20 0 20 -39 0 -46
-38 -15 -40 -78 -4 -89 26 -9 24 -33 -6 -61 -31 -29 -31 -39 -1 -69 21 -21 24
-35 28 -122 4 -106 16 -136 66 -170 26 -17 80 -18 1032 -21 667 -2 1017 0
1040 7 20 6 49 24 65 41 29 30 30 35 33 140 3 101 5 109 24 112 48 7 50 82 3
94 -30 7 -35 44 -7 44 49 0 58 62 12 88 -33 19 -41 52 -12 52 24 0 42 19 42
45 0 26 -18 45 -42 45 -29 0 -21 33 12 52 46 26 37 88 -12 88 -30 0 -21 34 12
47 22 8 30 18 30 36 0 28 -23 57 -46 57 -23 0 -17 38 7 42 49 7 51 82 4 94
-30 7 -35 44 -7 44 49 0 58 62 12 88 -36 21 -38 32 -6 32 28 0 56 33 56 65 0
30 -28 65 -53 65 -20 1 -20 2 5 16 41 22 48 43 48 157 0 88 -3 109 -19 128
l-19 24 -1144 2 c-647 1 -1152 -2 -1165 -7z m1087 -460 c0 -7 -160 -10 -460
-10 -300 0 -460 3 -460 10 0 7 160 10 460 10 300 0 460 -3 460 -10z m1050 0
c0 -7 -160 -10 -460 -10 -300 0 -460 3 -460 10 0 7 160 10 460 10 300 0 460
-3 460 -10z m-1050 -130 c0 -20 -7 -20 -460 -20 -453 0 -460 0 -460 20 0 20 7
20 460 20 453 0 460 0 460 -20z m1050 0 c0 -20 -7 -20 -460 -20 -453 0 -460 0
-460 20 0 20 7 20 460 20 453 0 460 0 460 -20z m-1050 -140 c0 -20 -7 -20
-460 -20 -453 0 -460 0 -460 20 0 20 7 20 460 20 453 0 460 0 460 -20z m1050
0 c0 -20 -7 -20 -460 -20 -453 0 -460 0 -460 20 0 20 7 20 460 20 453 0 460 0
460 -20z m-1066 -130 c-12 -5 -25 -13 -29 -19 -4 -8 -143 -11 -441 -11 -427 0
-434 0 -434 20 0 20 6 20 463 19 271 0 453 -4 441 -9z m1066 -10 c0 -20 -7
-20 -434 -20 -298 0 -437 3 -441 11 -4 6 -17 14 -29 19 -12 5 170 9 442 9 456
1 462 1 462 -19z m-1050 -140 c0 -20 -7 -20 -460 -20 -453 0 -460 0 -460 20 0
20 7 20 460 20 453 0 460 0 460 -20z m1050 0 c0 -20 -7 -20 -460 -20 -453 0
-460 0 -460 20 0 20 7 20 460 20 453 0 460 0 460 -20z m-1050 -130 c0 -20 -7
-20 -460 -20 -453 0 -460 0 -460 20 0 20 7 20 460 20 453 0 460 0 460 -20z
m1050 0 c0 -20 -7 -20 -460 -20 -453 0 -460 0 -460 20 0 20 7 20 460 20 453 0
460 0 460 -20z m-1050 -140 c0 -20 -7 -20 -460 -20 -453 0 -460 0 -460 20 0
20 7 20 460 20 453 0 460 0 460 -20z m1050 0 c0 -20 -7 -20 -460 -20 -453 0
-460 0 -460 20 0 20 7 20 460 20 453 0 460 0 460 -20z m-1050 -200 l0 -80
-460 0 -460 0 0 80 0 80 460 0 460 0 0 -80z m1050 0 l0 -80 -460 0 -460 0 0
80 0 80 460 0 460 0 0 -80z"/>
<path d="M2308 1038 c-22 -17 -547 -706 -561 -735 -8 -19 -7 -29 10 -51 17
-23 28 -27 82 -30 l61 -3 0 -84 c0 -96 13 -119 72 -130 18 -3 199 -5 401 -3
l369 3 24 28 c21 25 24 38 24 108 l0 79 58 0 c48 0 62 4 80 23 12 13 22 33 22
44 0 19 -477 658 -548 736 -28 29 -67 35 -94 15z m243 -431 l185 -242 -193 -3
c-106 -1 -281 -1 -389 0 l-195 3 193 252 c130 171 196 249 203 242 5 -5 94
-119 196 -252z m99 -427 l0 -40 -310 0 -310 0 0 40 0 40 310 0 310 0 0 -40z"/>
</g>
</svg>
