<?xml version="1.0" standalone="no"?>
<!DOCTYPE svg PUBLIC "-//W3C//DTD SVG 20010904//EN"
 "http://www.w3.org/TR/2001/REC-SVG-20010904/DTD/svg10.dtd">
<svg version="1.0" xmlns="http://www.w3.org/2000/svg"
 width="468pt" height="468pt" viewBox="0 0 468 468"
 preserveAspectRatio="xMidYMid meet">
<metadata>
Created by potrace 1.8, written by Peter Selinger 2001-2007
</metadata>
<g transform="translate(0,468) scale(0.158108,-0.158108)"
fill="#000000" stroke="none">
<path d="M866 2891 c-74 -74 -84 -104 -51 -141 35 -39 72 -26 147 48 73 74 80
94 47 136 -35 44 -65 35 -143 -43z"/>
<path d="M300 2727 c-19 -7 -44 -27 -57 -46 -22 -32 -23 -43 -23 -220 0 -206
4 -221 60 -259 34 -23 39 -23 228 -20 l194 3 34 37 34 38 0 192 c0 208 -4 225
-53 262 -26 19 -43 21 -205 23 -121 2 -188 -1 -212 -10z m340 -267 l0 -140
-145 0 -145 0 0 140 0 140 145 0 145 0 0 -140z"/>
<path d="M925 2510 c-23 -25 -24 -76 -1 -98 15 -15 45 -17 272 -17 241 0 256
1 270 19 22 31 18 82 -8 100 -19 13 -62 16 -269 16 -234 0 -247 -1 -264 -20z"/>
<path d="M68 2112 c-62 -63 -75 -104 -43 -136 40 -40 85 -26 153 48 48 52 55
93 22 126 -35 35 -67 26 -132 -38z"/>
<path d="M805 2145 c-14 -13 -25 -34 -25 -46 0 -16 54 -77 177 -201 190 -191
209 -202 253 -158 44 44 33 63 -158 253 -124 123 -185 177 -201 177 -12 0 -33
-11 -46 -25z"/>
<path d="M1850 1900 c0 -213 1 -220 20 -220 19 0 20 7 20 220 0 213 -1 220
-20 220 -19 0 -20 -7 -20 -220z"/>
<path d="M455 2035 l-25 -24 0 -241 0 -241 26 -26 c20 -20 31 -24 57 -19 56
11 57 17 57 288 0 235 -1 249 -20 268 -27 27 -66 25 -95 -5z"/>
<path d="M2170 1639 c-478 -29 -923 -226 -1273 -560 -76 -73 -83 -98 -41 -148
39 -47 63 -41 129 34 152 173 454 360 726 449 204 67 473 103 669 91 197 -12
393 -50 438 -86 15 -11 40 -19 63 -19 32 0 40 5 58 34 27 43 26 59 -1 90 -38
41 -291 101 -476 111 -53 3 -115 7 -137 9 -22 1 -92 -1 -155 -5z"/>
<path d="M1850 1075 c0 -225 2 -256 16 -262 9 -3 20 0 25 8 5 8 8 124 6 259
l-2 245 -22 3 -23 3 0 -256z"/>
<path d="M2175 749 c-476 -27 -923 -222 -1272 -555 -85 -80 -93 -111 -45 -157
43 -41 63 -35 127 38 152 173 454 360 726 449 204 67 473 103 669 91 197 -12
393 -50 438 -86 15 -11 40 -19 63 -19 32 0 40 5 58 34 27 43 26 59 -1 90 -39
43 -298 102 -488 112 -58 3 -116 6 -130 8 -14 1 -79 -1 -145 -5z"/>
<path d="M1854 437 c-2 -7 -3 -105 -2 -217 3 -197 4 -205 23 -205 19 0 20 8
23 195 1 107 0 205 -3 218 -6 24 -33 30 -41 9z"/>
</g>
</svg>
