<?xml version="1.0" standalone="no"?>
<!DOCTYPE svg PUBLIC "-//W3C//DTD SVG 20010904//EN"
 "http://www.w3.org/TR/2001/REC-SVG-20010904/DTD/svg10.dtd">
<svg version="1.0" xmlns="http://www.w3.org/2000/svg"
 width="468pt" height="468pt" viewBox="0 0 468 468"
 preserveAspectRatio="xMidYMid meet">
<metadata>
Created by potrace 1.8, written by Peter Selinger 2001-2007
</metadata>
<g transform="translate(0,468) scale(0.157576,-0.157576)"
fill="#000000" stroke="none">
<path d="M935 2960 c-11 -4 -47 -35 -79 -68 -48 -50 -59 -66 -58 -93 1 -37 16
-55 55 -65 25 -6 36 1 104 69 68 68 75 79 69 104 -12 47 -51 70 -91 53z"/>
<path d="M295 2730 c-11 -4 -31 -20 -45 -35 -25 -26 -25 -29 -28 -220 -5 -288
-8 -285 273 -285 278 0 275 -3 275 275 0 275 0 275 -277 274 -98 0 -187 -4
-198 -9z m345 -265 l0 -145 -145 0 -145 0 0 145 0 145 145 0 145 0 0 -145z"/>
<path d="M942 2530 c-42 -18 -49 -72 -14 -112 14 -16 39 -18 267 -18 231 0
253 1 268 18 24 26 21 75 -4 98 -19 17 -41 19 -258 21 -130 1 -246 -2 -259 -7z"/>
<path d="M1836 2185 c-3 -9 -6 -108 -6 -220 0 -170 2 -205 15 -215 31 -26 35
3 33 226 -3 193 -5 219 -19 222 -9 2 -19 -4 -23 -13z"/>
<path d="M67 2112 c-62 -63 -74 -104 -39 -135 36 -32 72 -22 134 40 63 63 75
104 40 136 -36 33 -73 22 -135 -41z"/>
<path d="M801 2144 c-12 -15 -21 -36 -21 -47 0 -27 333 -363 368 -372 37 -9
76 23 80 65 3 31 -8 44 -170 206 -151 152 -178 174 -205 174 -22 0 -38 -8 -52
-26z"/>
<path d="M2650 2014 c-120 -121 -201 -182 -315 -239 -120 -59 -227 -88 -479
-130 -116 -20 -254 -47 -306 -61 -120 -31 -271 -104 -380 -185 -103 -75 -378
-344 -387 -377 -8 -34 10 -67 50 -85 26 -12 42 -15 60 -8 30 12 77 67 77 91 0
28 212 224 320 296 166 110 280 149 558 189 401 59 622 149 824 334 36 34 69
58 71 54 3 -5 8 -23 12 -41 11 -53 63 -159 80 -166 9 -3 34 -6 55 -6 74 0 97
83 37 136 -29 25 -35 40 -51 119 -30 158 -40 175 -103 175 -23 0 -48 -20 -123
-96z"/>
<path d="M454 2046 c-18 -14 -19 -29 -19 -271 0 -242 1 -257 19 -271 28 -20
80 -18 99 4 15 16 17 50 17 269 0 229 -1 251 -18 266 -23 21 -71 22 -98 3z"/>
<path d="M1847 1384 c-4 -4 -7 -126 -7 -271 0 -247 1 -264 18 -261 16 3 17 24
17 267 0 251 -4 289 -28 265z"/>
<path d="M2730 1182 c-14 -9 -63 -56 -108 -104 -97 -101 -196 -172 -325 -233
-115 -54 -196 -76 -462 -120 -307 -52 -419 -86 -569 -174 -111 -65 -211 -149
-363 -303 -91 -92 -133 -142 -133 -157 0 -36 52 -81 93 -81 27 0 42 8 66 35
17 20 31 44 31 54 0 22 179 197 275 269 99 74 252 147 368 177 53 13 166 34
250 46 385 53 608 145 818 338 31 28 59 51 62 51 2 0 7 -16 10 -35 7 -45 56
-156 76 -172 8 -7 32 -13 53 -13 83 0 109 84 44 145 -28 26 -35 44 -54 133
-26 120 -34 140 -68 152 -33 13 -35 13 -64 -8z"/>
<path d="M1840 256 c0 -124 4 -227 8 -230 4 -2 13 -1 20 3 9 6 12 62 10 227
-3 199 -5 219 -20 222 -17 3 -18 -13 -18 -222z"/>
</g>
</svg>
