<?xml version="1.0" standalone="no"?>
<!DOCTYPE svg PUBLIC "-//W3C//DTD SVG 20010904//EN"
 "http://www.w3.org/TR/2001/REC-SVG-20010904/DTD/svg10.dtd">
<svg version="1.0" xmlns="http://www.w3.org/2000/svg"
 width="468pt" height="364pt" viewBox="0 0 468 364"
 preserveAspectRatio="xMidYMid meet">
<metadata>
Created by potrace 1.8, written by Peter Selinger 2001-2007
</metadata>
<g transform="translate(0,364) scale(0.158108,-0.158108)"
fill="#000000" stroke="none">
<path d="M22 2267 c-43 -46 -35 -58 174 -268 l196 -197 -123 -3 c-147 -5 -181
-18 -217 -89 l-22 -45 2 -775 c3 -754 4 -776 23 -809 11 -18 36 -42 55 -52 33
-18 83 -19 1236 -19 l1201 0 34 23 c71 47 69 31 69 625 l0 532 -70 0 -70 0 0
-525 0 -525 -550 0 -550 0 0 400 c0 382 1 400 18 400 20 0 45 24 55 53 10 28
-11 68 -43 80 -28 11 -30 15 -30 64 l0 53 -65 0 -65 0 0 -55 c0 -50 -2 -55
-25 -61 -32 -8 -46 -26 -47 -63 -1 -35 26 -71 54 -71 17 0 18 -18 18 -400 l0
-400 -555 0 -555 0 0 760 0 760 183 0 182 0 117 -117 117 -118 3 -98 c3 -90 5
-101 27 -118 30 -25 66 -24 91 1 18 18 20 33 20 147 l0 127 -403 403 c-353
353 -407 403 -433 403 -19 0 -39 -9 -52 -23z"/>
<path d="M438 2273 c-9 -10 -19 -29 -23 -42 -6 -21 35 -65 384 -415 l391 -391
0 -95 c0 -101 3 -111 37 -129 33 -17 51 -14 78 14 24 23 25 30 25 142 l0 117
-407 408 c-362 363 -411 408 -439 408 -17 0 -38 -8 -46 -17z"/>
<path d="M872 2267 c-45 -48 -46 -47 368 -462 l390 -390 0 -97 c0 -89 2 -98
22 -112 31 -22 64 -20 88 4 18 18 20 33 20 147 l0 128 -403 402 c-354 355
-406 403 -433 403 -19 0 -39 -9 -52 -23z"/>
<path d="M1271 2264 c-12 -15 -21 -36 -21 -48 0 -14 126 -147 390 -411 l390
-390 0 -97 c0 -89 2 -98 22 -112 12 -9 32 -16 43 -16 11 0 31 7 43 16 21 14
22 22 22 147 l0 132 -403 402 c-360 361 -406 403 -434 403 -22 0 -38 -8 -52
-26z"/>
<path d="M1667 2272 c-10 -10 -17 -32 -17 -48 0 -25 54 -83 385 -414 l385
-385 0 -93 c0 -85 2 -95 25 -117 31 -32 59 -32 90 0 24 23 25 30 25 142 l0
117 -407 408 c-362 363 -411 408 -439 408 -17 0 -38 -8 -47 -18z"/>
<path d="M2070 2270 c-47 -47 -47 -48 365 -460 l385 -385 0 -93 c0 -85 2 -95
25 -117 30 -30 54 -31 89 -4 26 20 26 23 26 142 l0 121 -407 408 c-436 436
-435 436 -483 388z"/>
</g>
</svg>
