<?xml version="1.0" standalone="no"?>
<!DOCTYPE svg PUBLIC "-//W3C//DTD SVG 20010904//EN"
 "http://www.w3.org/TR/2001/REC-SVG-20010904/DTD/svg10.dtd">
<svg version="1.0" xmlns="http://www.w3.org/2000/svg"
 width="362pt" height="648pt" viewBox="0 0 362 648"
 preserveAspectRatio="xMidYMid meet">
<metadata>
Created by potrace 1.8, written by Peter Selinger 2001-2007
</metadata>
<g transform="translate(0,648) scale(0.218919,-0.218919)"
fill="#000000" stroke="none">
<path d="M90 2938 c-24 -13 -53 -36 -64 -51 -21 -28 -21 -32 -21 -1295 0
-1256 0 -1267 20 -1302 28 -46 73 -71 145 -77 l60 -6 0 -63 c0 -53 4 -67 26
-93 51 -61 39 -62 693 53 400 71 604 111 625 124 17 10 41 36 53 58 l23 39 0
1260 c0 1425 7 1309 -80 1353 l-44 22 -696 0 -696 0 -44 -22z m480 -154 c-102
-18 -200 -36 -219 -39 -19 -4 -51 -23 -75 -45 l-41 -39 -3 -1155 -2 -1156 -45
0 -45 0 0 1235 0 1235 308 -1 307 -1 -185 -34z m948 -1201 l-3 -1228 -577 -3
-578 -2 0 479 0 479 52 7 c89 12 124 70 73 121 -23 23 -31 25 -75 19 l-50 -7
0 575 c0 450 3 578 13 584 13 8 1075 200 1120 202 l27 1 -2 -1227z m-948
-1409 c-102 -18 -191 -34 -197 -34 -8 0 -13 14 -13 35 l0 35 198 -1 197 -1
-185 -34z"/>
</g>
</svg>
