<?xml version="1.0" standalone="no"?>
<!DOCTYPE svg PUBLIC "-//W3C//DTD SVG 20010904//EN"
 "http://www.w3.org/TR/2001/REC-SVG-20010904/DTD/svg10.dtd">
<svg version="1.0" xmlns="http://www.w3.org/2000/svg"
 width="468pt" height="340pt" viewBox="0 0 468 340"
 preserveAspectRatio="xMidYMid meet">
<metadata>
Created by potrace 1.8, written by Peter Selinger 2001-2007
</metadata>
<g transform="translate(0,340) scale(0.158644,-0.158644)"
fill="#000000" stroke="none">
<path d="M74 2120 c-81 -40 -75 35 -72 -1052 3 -958 3 -967 24 -994 11 -15 33
-37 48 -48 27 -21 29 -21 1400 -21 l1373 0 37 29 c70 53 66 -6 66 1055 l0 959
-27 33 c-53 63 35 59 -1450 59 -1346 0 -1358 0 -1399 -20z m1336 -404 l0 -44
-114 -4 c-132 -4 -161 -17 -184 -84 -13 -37 -6 -76 127 -733 78 -382 141 -698
141 -701 0 -4 -272 -11 -604 -15 -446 -5 -609 -4 -625 4 l-21 12 0 804 0 805
640 0 640 0 0 -44z m1409 -468 c0 -311 -4 -501 -9 -484 -5 16 -44 203 -86 414
-81 401 -87 422 -147 466 -28 21 -39 21 -533 24 l-504 3 0 44 0 45 640 0 640
0 -1 -512z m-1409 58 l0 -224 -22 -5 c-13 -2 -30 -7 -39 -11 -14 -6 -22 24
-58 206 -23 117 -45 223 -48 236 -5 22 -3 22 81 22 l86 0 0 -224z m1112 189
c4 -16 68 -328 141 -692 l134 -663 -628 0 -629 0 0 695 0 695 487 -2 487 -3 8
-30z m-1112 -668 c0 -61 -2 -108 -4 -106 -4 4 -46 205 -46 219 0 4 11 5 25 2
25 -4 25 -5 25 -115z"/>
</g>
</svg>
