<?xml version="1.0" standalone="no"?>
<!DOCTYPE svg PUBLIC "-//W3C//DTD SVG 20010904//EN"
 "http://www.w3.org/TR/2001/REC-SVG-20010904/DTD/svg10.dtd">
<svg version="1.0" xmlns="http://www.w3.org/2000/svg"
 width="468pt" height="369pt" viewBox="0 0 468 369"
 preserveAspectRatio="xMidYMid meet">
<metadata>
Created by potrace 1.8, written by Peter Selinger 2001-2007
</metadata>
<g transform="translate(0,369) scale(0.158644,-0.158644)"
fill="#000000" stroke="none">
<path d="M106 2310 c-34 -11 -63 -36 -82 -72 -17 -33 -19 -219 -3 -251 21 -40
52 -67 88 -77 l36 -9 0 -932 c0 -910 0 -931 19 -945 11 -8 34 -14 52 -14 65 0
64 -8 64 507 l0 463 1195 0 1195 0 0 -468 c0 -442 1 -470 18 -485 23 -21 71
-22 98 -3 19 14 19 35 19 943 l0 928 49 20 c75 31 90 58 95 173 4 119 -8 163
-56 199 l-36 28 -1361 2 c-749 1 -1374 -2 -1390 -7z m2714 -200 l0 -70 -1340
0 -1340 0 0 70 0 70 1340 0 1340 0 0 -70z m-150 -235 l0 -25 -1149 0 c-631 0
-1169 3 -1195 6 -36 5 -46 11 -46 25 0 18 36 19 1195 19 l1195 0 0 -25z m0
-170 l0 -45 -1195 0 -1195 0 0 45 0 45 1195 0 1195 0 0 -45z m-630 -179 c0
-19 3 -41 6 -50 6 -14 -46 -16 -533 -16 -297 0 -696 3 -886 7 l-347 6 0 44 0
43 880 0 880 0 0 -34z m370 -16 l0 -50 -130 0 -130 0 0 50 0 50 130 0 130 0 0
-50z m260 0 l0 -50 -86 0 c-74 0 -85 2 -80 16 3 9 6 31 6 50 l0 34 80 0 80 0
0 -50z m0 -190 l0 -50 -1195 0 -1195 0 0 50 0 50 1195 0 1195 0 0 -50z m0
-195 l0 -45 -1195 0 -1195 0 0 45 0 45 1195 0 1195 0 0 -45z"/>
<path d="M2220 1510 c0 -20 5 -21 87 -18 74 3 88 6 91 21 3 15 -6 17 -87 17
-85 0 -91 -1 -91 -20z"/>
</g>
</svg>
