<?xml version="1.0" standalone="no"?>
<!DOCTYPE svg PUBLIC "-//W3C//DTD SVG 20010904//EN"
 "http://www.w3.org/TR/2001/REC-SVG-20010904/DTD/svg10.dtd">
<svg version="1.0" xmlns="http://www.w3.org/2000/svg"
 width="468pt" height="468pt" viewBox="0 0 468 468"
 preserveAspectRatio="xMidYMid meet">
<metadata>
Created by potrace 1.8, written by Peter Selinger 2001-2007
</metadata>
<g transform="translate(0,468) scale(0.158108,-0.158108)"
fill="#000000" stroke="none">
<path d="M43 2940 c-35 -14 -43 -43 -43 -158 0 -101 2 -110 23 -130 13 -12 29
-22 35 -22 7 0 12 -7 12 -15 0 -8 -7 -15 -15 -15 -24 0 -39 -43 -26 -69 7 -11
18 -21 26 -21 22 0 18 -38 -4 -50 -11 -5 -22 -19 -26 -30 -8 -24 11 -60 30
-60 13 0 15 -68 15 -507 0 -560 -1 -550 63 -597 28 -21 35 -21 1035 -24 669
-2 1019 0 1042 7 20 6 49 24 65 41 l30 31 3 525 c2 511 3 524 22 524 20 0 40
27 40 55 0 9 -13 24 -30 33 -33 19 -41 52 -12 52 24 0 42 19 42 45 0 26 -18
45 -42 45 -10 0 -18 7 -18 15 0 8 7 15 15 15 9 0 27 11 40 25 23 22 25 31 25
122 0 54 -3 108 -6 121 -15 54 29 52 -1191 51 -625 0 -1138 -4 -1150 -9z
m1087 -330 c0 -7 -160 -10 -460 -10 -300 0 -460 3 -460 10 0 7 160 10 460 10
300 0 460 -3 460 -10z m1050 0 c0 -7 -160 -10 -460 -10 -300 0 -460 3 -460 10
0 7 160 10 460 10 300 0 460 -3 460 -10z m-1050 -120 c0 -20 -7 -20 -460 -20
-453 0 -460 0 -460 20 0 20 7 20 460 20 453 0 460 0 460 -20z m1050 0 c0 -20
-7 -20 -460 -20 -453 0 -460 0 -460 20 0 20 7 20 460 20 453 0 460 0 460 -20z
m-1050 -265 c0 -104 -3 -145 -12 -145 -6 0 -20 -7 -30 -17 -35 -31 -15 -113
28 -113 12 0 14 -45 14 -285 l0 -285 -460 0 -460 0 0 495 0 495 460 0 460 0 0
-145z m1050 -350 l0 -495 -460 0 -460 0 0 285 c0 240 2 285 14 285 24 0 46 30
46 62 0 33 -24 68 -47 68 -10 0 -13 30 -13 145 l0 145 460 0 460 0 0 -495z"/>
<path d="M1936 1029 c-24 -19 -26 -26 -26 -104 l0 -83 -62 -4 c-52 -4 -65 -9
-85 -33 -14 -15 -23 -36 -20 -45 7 -28 546 -729 574 -747 18 -12 31 -14 50 -7
36 13 583 730 583 765 0 39 -32 62 -95 67 l-55 4 0 69 c0 79 -12 112 -47 128
-16 7 -148 11 -407 11 -373 0 -384 -1 -410 -21z m724 -149 l0 -40 -310 0 -310
0 0 40 0 40 310 0 310 0 0 -40z m73 -192 c-5 -7 -94 -124 -198 -260 -186 -246
-188 -247 -205 -225 -9 12 -98 129 -198 260 l-181 237 396 0 c315 0 393 -3
386 -12z"/>
</g>
</svg>
