<?xml version="1.0" encoding="UTF-8" standalone="no"?>
<svg
   xmlns:dc="http://purl.org/dc/elements/1.1/"
   xmlns:cc="http://creativecommons.org/ns#"
   xmlns:rdf="http://www.w3.org/1999/02/22-rdf-syntax-ns#"
   xmlns:svg="http://www.w3.org/2000/svg"
   xmlns="http://www.w3.org/2000/svg"
   id="svg8"
   preserveAspectRatio="xMidYMid meet"
   viewBox="0 0 468 369"
   height="369pt"
   width="468pt"
   version="1.0">
  <defs
     id="defs12" />
  <metadata
     id="metadata2">
Created by potrace 1.8, written by Peter Selinger 2001-2007
<rdf:RDF>
  <cc:Work
     rdf:about="">
    <dc:format>image/svg+xml</dc:format>
    <dc:type
       rdf:resource="http://purl.org/dc/dcmitype/StillImage" />
    <dc:title></dc:title>
  </cc:Work>
</rdf:RDF>
</metadata>
  <g
     id="g6"
     stroke="none"
     fill="#000000"
     transform="translate(0,369) scale(0.158644,-0.158644)">
    <path
       id="path4"
       d="M 106,2310 C 72,2299 43,2274 24,2238 7,2205 5,2019 21,1987 c 21,-40 52,-67 88,-77 l 36,-9 V 969 c 0,-910 0,-931 19,-945 11,-8 34,-14 52,-14 67,0 64,-28 64,702 v 658 H 1475 2670 V 707 c 0,-630 1,-665 18,-680 23,-21 71,-22 98,-3 19,14 19,35 19,943 v 928 l 49,20 c 75,31 90,58 95,173 4,119 -8,163 -56,199 l -36,28 -1361,2 c -749,1 -1374,-2 -1390,-7 z m 2714,-200 v -70 H 1480 140 v 70 70 h 1340 1340 z m -150.963,-234.9279 c 0,-0.7603 -0.1951,-1.9414 -1.6954,-3.1754 -2.2066,-1.8149 -7.1636,-2.9384 -14.6167,-3.8676 C 2542.6525,1854.305 1946.5557,1860 1160,1860 c -873,0 -880,0 -880,20 0,20 7,20 880,20 784.3557,0 1380.0741,-0.4082 1492.6746,-15.5321 5.6178,-0.7545 9.5429,-2.4129 12.7187,-3.2343 4.0182,-1.0391 3.6437,-5.0272 3.6437,-6.1615 z M 2670,1708 v -48 H 1475 280 v 51 50 l 1195,-2 1195,-3 z m 0,-193 v -45 H 1475 280 v 45 45 h 1195 1195 z" />
  </g>
  <path
     id="path6"
     d="m 311.26689,199.23954 c -3.49017,2.69695 -86.77826,112.00266 -88.99928,116.60334 -1.26915,3.01424 -1.11051,4.60067 1.58644,8.09084 2.69695,3.64881 4.44203,4.28339 13.00881,4.75932 l 9.67728,0.47593 v 13.3261 c 0,15.22982 2.06238,18.87864 11.42237,20.62372 2.85559,0.47593 31.57016,0.79322 63.61625,0.47593 l 58.53963,-0.47593 3.80745,-4.44203 c 3.33153,-3.96611 3.80746,-6.02848 3.80746,-17.13356 v -12.53287 h 9.20135 c 7.61491,0 9.83593,-0.63458 12.69153,-3.64881 1.90372,-2.06237 3.49016,-5.23526 3.49016,-6.98034 0,-3.01423 -75.67319,-104.38775 -86.93691,-116.76198 -4.44203,-4.60068 -10.62915,-5.55254 -14.91254,-2.37966 z m 38.5505,68.37556 29.34913,38.39185 -30.61829,0.47593 c -16.81626,0.15865 -44.57896,0.15865 -61.71251,0 l -30.93558,-0.47593 30.61829,-39.97829 c 20.62372,-27.12812 31.09422,-39.50235 32.20473,-38.39185 0.79322,0.79322 14.91254,18.87864 31.09423,39.97829 z m 15.70575,67.74099 v 6.34576 H 316.3435 267.16386 v -6.34576 -6.34576 h 49.17964 49.17964 z"
     style="stroke-width:0.15864401" />
</svg>
