<?xml version="1.0" standalone="no"?>
<!DOCTYPE svg PUBLIC "-//W3C//DTD SVG 20010904//EN"
 "http://www.w3.org/TR/2001/REC-SVG-20010904/DTD/svg10.dtd">
<svg version="1.0" xmlns="http://www.w3.org/2000/svg"
 width="468pt" height="468pt" viewBox="0 0 468 468"
 preserveAspectRatio="xMidYMid meet">
<metadata>
Created by potrace 1.8, written by Peter Selinger 2001-2007
</metadata>
<g transform="translate(0,468) scale(0.191020,-0.191020)"
fill="#000000" stroke="none">
<path d="M84 2436 c-17 -8 -40 -26 -52 -41 l-22 -28 0 -971 c0 -905 1 -973 18
-1005 9 -19 30 -44 45 -55 28 -21 38 -21 753 -24 l724 -2 0 -101 c0 -62 5
-112 14 -133 17 -42 61 -76 96 -76 15 0 185 70 376 155 380 169 386 172 404
260 8 34 10 348 8 997 -3 939 -3 947 -24 975 -11 15 -36 36 -55 45 -32 17
-107 18 -1144 18 -906 -1 -1116 -3 -1141 -14z m1076 -703 l-1 -338 -32 -20
c-41 -26 -48 -67 -16 -101 12 -13 28 -24 36 -24 11 0 13 -74 13 -399 l0 -398
-499 -8 c-275 -4 -504 -4 -510 0 -8 4 -11 250 -11 816 l0 809 510 0 510 0 0
-337z m830 328 c-8 -5 -94 -44 -190 -86 -187 -82 -221 -107 -239 -172 -7 -25
-11 -265 -11 -695 l0 -658 -130 0 -130 0 0 810 0 810 358 0 c208 0 351 -4 342
-9z m320 -811 l0 -800 -310 0 -310 0 0 214 0 215 27 13 c37 18 50 61 28 95 -9
14 -26 28 -36 30 -19 5 -19 19 -17 385 l3 379 300 134 c165 74 303 134 308
134 4 1 7 -359 7 -799z m-271 -944 c-5 -5 -340 -156 -346 -156 -2 0 -3 36 -3
80 l0 80 177 0 c97 0 174 -2 172 -4z"/>
</g>
</svg>
