<?xml version="1.0" standalone="no"?>
<!DOCTYPE svg PUBLIC "-//W3C//DTD SVG 20010904//EN"
 "http://www.w3.org/TR/2001/REC-SVG-20010904/DTD/svg10.dtd">
<svg version="1.0" xmlns="http://www.w3.org/2000/svg"
 width="468pt" height="468pt" viewBox="0 0 468 468"
 preserveAspectRatio="xMidYMid meet">
<metadata>
Created by potrace 1.8, written by Peter Selinger 2001-2007
</metadata>
<g transform="translate(0,468) scale(0.157576,-0.157576)"
fill="#000000" stroke="none">
<path d="M47 2940 c-15 -12 -30 -35 -34 -53 -4 -18 -6 -652 -3 -1409 5 -1371
5 -1377 26 -1404 11 -15 33 -37 48 -48 27 -21 36 -21 781 -21 745 0 754 0 781
21 15 11 37 33 48 48 21 27 21 32 24 1307 l2 1279 581 0 c629 0 622 -1 647 55
7 14 12 62 12 106 0 76 -2 82 -29 110 l-29 29 -1415 0 c-1410 0 -1414 0 -1440
-20z m2783 -125 c0 -13 -156 -15 -1340 -15 -1184 0 -1340 2 -1340 15 0 13 156
15 1340 15 1184 0 1340 -2 1340 -15z m-2640 -1415 c0 -1253 0 -1260 -20 -1260
-20 0 -20 7 -20 1260 0 1253 0 1260 20 1260 20 0 20 -7 20 -1260z m1390 0 l0
-1260 -630 0 -630 0 0 640 0 640 64 0 c56 0 67 3 80 22 20 28 20 58 0 86 -13
19 -24 22 -80 22 l-64 0 0 548 c0 302 3 552 7 555 3 4 287 7 630 7 l623 0 0
-1260z"/>
</g>
</svg>
