<?xml version="1.0" standalone="no"?>
<!DOCTYPE svg PUBLIC "-//W3C//DTD SVG 20010904//EN"
 "http://www.w3.org/TR/2001/REC-SVG-20010904/DTD/svg10.dtd">
<svg version="1.0" xmlns="http://www.w3.org/2000/svg"
 width="468pt" height="482pt" viewBox="0 0 468 482"
 preserveAspectRatio="xMidYMid meet">
<metadata>
Created by potrace 1.8, written by Peter Selinger 2001-2007
</metadata>
<g transform="translate(0,482) scale(0.163066,-0.163066)"
fill="#000000" stroke="none">
<path d="M866 2881 c-74 -74 -84 -104 -51 -141 35 -39 72 -26 147 48 73 74 80
94 47 136 -35 44 -65 35 -143 -43z"/>
<path d="M2173 2933 c-19 -7 -18 -266 0 -282 28 -23 37 9 37 140 0 127 -7 153
-37 142z"/>
<path d="M300 2717 c-19 -7 -44 -27 -57 -46 -22 -32 -23 -43 -23 -220 0 -206
4 -221 60 -259 34 -23 39 -23 228 -20 l194 3 34 37 34 38 0 192 c0 208 -4 225
-53 262 -26 19 -43 21 -205 23 -121 2 -188 -1 -212 -10z m340 -267 l0 -140
-145 0 -145 0 0 140 0 140 145 0 145 0 0 -140z"/>
<path d="M2290 2550 c-248 -25 -497 -132 -669 -286 -42 -38 -51 -52 -51 -80 0
-45 29 -74 75 -74 28 0 40 8 72 46 75 89 251 184 432 231 176 46 493 30 575
-29 41 -30 103 -29 127 1 48 59 9 109 -111 145 -150 44 -310 60 -450 46z"/>
<path d="M925 2500 c-23 -25 -24 -76 -1 -98 15 -15 45 -17 272 -17 241 0 256
1 270 19 22 31 18 82 -8 100 -19 13 -62 16 -269 16 -234 0 -247 -1 -264 -20z"/>
<path d="M2167 2304 c-4 -4 -7 -128 -7 -274 0 -214 3 -270 14 -279 32 -27 36
10 34 285 -3 233 -5 269 -18 272 -9 1 -19 0 -23 -4z"/>
<path d="M68 2102 c-62 -63 -75 -104 -43 -136 40 -40 85 -26 153 48 48 52 55
93 22 126 -35 35 -67 26 -132 -38z"/>
<path d="M805 2135 c-14 -13 -25 -34 -25 -46 0 -16 54 -77 177 -201 190 -191
209 -202 253 -158 44 44 33 63 -158 253 -124 123 -185 177 -201 177 -12 0 -33
-11 -46 -25z"/>
<path d="M455 2025 l-25 -24 0 -241 0 -241 26 -26 c20 -20 31 -24 57 -19 56
11 57 17 57 288 0 235 -1 249 -20 268 -27 27 -66 25 -95 -5z"/>
<path d="M2193 1675 c-207 -37 -427 -144 -582 -282 -36 -32 -44 -45 -43 -73 1
-43 31 -73 73 -73 25 0 41 10 78 50 82 89 251 181 411 225 75 20 107 23 270
23 192 0 292 -16 331 -51 9 -8 32 -17 52 -21 64 -10 109 61 72 114 -18 25
-141 69 -253 88 -96 18 -313 17 -409 0z"/>
<path d="M2165 1428 c-3 -7 -4 -130 -3 -273 3 -252 4 -260 23 -260 20 0 20 7
20 270 0 249 -1 270 -18 273 -9 2 -19 -3 -22 -10z"/>
<path d="M2205 814 c-222 -40 -433 -140 -599 -286 -32 -28 -39 -40 -38 -69 1
-36 38 -79 69 -79 24 0 81 39 88 60 9 27 157 124 254 166 129 56 219 75 376
81 162 6 289 -12 367 -53 63 -32 101 -31 127 2 47 60 18 103 -94 139 -167 54
-382 69 -550 39z"/>
<path d="M2167 584 c-4 -4 -7 -132 -7 -284 0 -223 3 -280 14 -289 32 -27 36 9
34 295 -3 242 -5 279 -18 282 -9 1 -19 0 -23 -4z"/>
</g>
</svg>
