<?xml version="1.0" standalone="no"?>
<!DOCTYPE svg PUBLIC "-//W3C//DTD SVG 20010904//EN"
 "http://www.w3.org/TR/2001/REC-SVG-20010904/DTD/svg10.dtd">
<svg version="1.0" xmlns="http://www.w3.org/2000/svg"
 width="468pt" height="470pt" viewBox="0 0 468 470"
 preserveAspectRatio="xMidYMid meet">
<metadata>
Created by potrace 1.8, written by Peter Selinger 2001-2007
</metadata>
<g transform="translate(0,470) scale(0.158644,-0.158644)"
fill="#000000" stroke="none">
<path d="M1452 2658 c3 -261 5 -303 18 -303 13 0 15 40 15 300 0 278 -1 300
-18 303 -16 3 -17 -15 -15 -300z"/>
<path d="M2270 2565 l-585 -385 -232 0 -232 0 -601 -397 c-423 -279 -604 -403
-611 -420 -13 -35 14 -88 53 -104 28 -12 36 -10 77 12 25 14 52 38 61 54 10
19 183 138 535 371 l520 343 234 1 233 0 554 365 c305 201 560 365 567 365 24
0 96 59 103 84 11 45 -29 96 -75 96 -9 0 -280 -173 -601 -385z"/>
<path d="M1450 1495 c0 -348 0 -355 20 -355 20 0 20 7 20 355 0 348 0 355 -20
355 -20 0 -20 -7 -20 -355z"/>
<path d="M2852 1713 c-7 -3 -275 -178 -595 -390 l-582 -385 -225 6 -226 5
-599 -394 c-330 -217 -606 -405 -614 -418 -29 -48 13 -117 72 -117 38 0 104
42 116 74 6 14 198 147 537 370 l529 349 219 -6 c152 -4 225 -3 240 5 12 6
262 169 556 363 294 194 546 355 560 358 14 4 42 20 63 37 37 31 47 63 31 105
-5 13 -56 47 -66 44 -2 0 -9 -3 -16 -6z"/>
<path d="M1450 310 c0 -293 0 -300 20 -300 20 0 20 7 20 300 0 293 0 300 -20
300 -20 0 -20 -7 -20 -300z"/>
</g>
</svg>
