<?xml version="1.0" standalone="no"?>
<!DOCTYPE svg PUBLIC "-//W3C//DTD SVG 20010904//EN"
 "http://www.w3.org/TR/2001/REC-SVG-20010904/DTD/svg10.dtd">
<svg version="1.0" xmlns="http://www.w3.org/2000/svg"
 width="468pt" height="534pt" viewBox="0 0 468 534"
 preserveAspectRatio="xMidYMid meet">
<metadata>
Created by potrace 1.8, written by Peter Selinger 2001-2007
</metadata>
<g transform="translate(0,534) scale(0.180695,-0.180695)"
fill="#000000" stroke="none">
<path d="M866 2881 c-74 -74 -84 -104 -51 -141 35 -39 72 -26 147 48 73 74 80
94 47 136 -35 44 -65 35 -143 -43z"/>
<path d="M2160 2857 c0 -64 3 -86 14 -90 27 -10 37 19 34 95 -3 67 -5 73 -25
76 -22 3 -23 1 -23 -81z"/>
<path d="M2434 2897 c-224 -165 -385 -402 -456 -672 -28 -109 -31 -135 -32
-282 -1 -149 1 -164 20 -190 28 -37 83 -44 114 -13 19 19 21 29 15 68 -30 221
-1 399 97 599 75 152 247 350 321 368 29 8 77 57 77 80 0 41 -43 85 -84 85 -8
0 -40 -19 -72 -43z"/>
<path d="M300 2717 c-19 -7 -44 -27 -57 -46 -22 -32 -23 -43 -23 -220 0 -206
4 -221 60 -259 34 -23 39 -23 228 -20 l194 3 34 37 34 38 0 192 c0 208 -4 225
-53 262 -26 19 -43 21 -205 23 -121 2 -188 -1 -212 -10z m340 -267 l0 -140
-145 0 -145 0 0 140 0 140 145 0 145 0 0 -140z"/>
<path d="M925 2500 c-23 -25 -24 -76 -1 -98 15 -15 45 -17 272 -17 241 0 256
1 270 19 22 31 18 82 -8 100 -19 13 -62 16 -269 16 -234 0 -247 -1 -264 -20z"/>
<path d="M2167 2293 c-4 -3 -7 -93 -7 -200 0 -168 2 -194 16 -200 9 -3 20 0
25 8 10 16 12 358 3 383 -6 16 -26 21 -37 9z"/>
<path d="M68 2102 c-62 -63 -75 -104 -43 -136 40 -40 85 -26 153 48 48 52 55
93 22 126 -35 35 -67 26 -132 -38z"/>
<path d="M805 2135 c-14 -13 -25 -34 -25 -46 0 -16 54 -77 177 -201 190 -191
209 -202 253 -158 44 44 33 63 -158 253 -124 123 -185 177 -201 177 -12 0 -33
-11 -46 -25z"/>
<path d="M2445 2046 c-136 -91 -280 -257 -366 -419 -96 -185 -132 -330 -133
-549 -1 -144 1 -159 20 -185 28 -38 77 -43 111 -11 22 20 24 28 17 68 -4 25
-7 99 -7 165 0 193 53 365 168 541 69 107 198 237 259 264 25 10 52 30 61 44
31 47 -5 116 -60 116 -11 0 -43 -15 -70 -34z"/>
<path d="M455 2025 l-25 -24 0 -241 0 -241 26 -26 c20 -20 31 -24 57 -19 56
11 57 17 57 288 0 235 -1 249 -20 268 -27 27 -66 25 -95 -5z"/>
<path d="M2167 1383 c-4 -3 -7 -82 -7 -175 0 -145 2 -169 16 -175 9 -3 20 0
25 8 14 22 11 323 -3 337 -14 14 -22 15 -31 5z"/>
<path d="M2405 1157 c-185 -147 -310 -318 -392 -537 -79 -207 -97 -550 -32
-603 30 -24 71 -21 98 7 20 21 22 31 16 68 -5 24 -8 99 -7 168 0 100 5 145 25
222 32 122 99 262 174 364 67 90 198 214 226 214 10 0 32 14 49 30 25 26 29
36 24 63 -3 18 -16 40 -27 50 -38 31 -69 21 -154 -46z"/>
<path d="M2167 493 c-4 -3 -7 -113 -7 -244 0 -192 3 -238 14 -242 32 -12 36
15 36 239 0 122 -3 229 -6 238 -6 16 -26 21 -37 9z"/>
</g>
</svg>
