<?xml version="1.0" standalone="no"?>
<!DOCTYPE svg PUBLIC "-//W3C//DTD SVG 20010904//EN"
 "http://www.w3.org/TR/2001/REC-SVG-20010904/DTD/svg10.dtd">
<svg version="1.0" xmlns="http://www.w3.org/2000/svg"
 width="468pt" height="238pt" viewBox="0 0 468 238"
 preserveAspectRatio="xMidYMid meet">
<metadata>
Created by potrace 1.8, written by Peter Selinger 2001-2007
</metadata>
<g transform="translate(0,238) scale(0.158108,-0.158108)"
fill="#000000" stroke="none">
<path d="M1170 1489 c-253 -17 -569 -77 -732 -139 -80 -30 -149 -80 -173 -123
-11 -20 -27 -37 -36 -37 -37 0 -60 -35 -89 -134 -33 -113 -29 -137 21 -155 29
-10 37 -9 59 7 l25 19 -3 -76 c-11 -308 -33 -467 -70 -501 -12 -12 -23 -39
-27 -72 -14 -102 -53 -158 -110 -158 -21 0 -39 -43 -31 -75 4 -15 17 -30 32
-35 17 -7 547 -9 1461 -8 1407 3 1435 3 1449 22 31 43 12 81 -50 101 -40 13
-63 55 -80 145 -7 41 -19 76 -25 78 -44 15 -67 130 -77 385 l-7 178 26 -10
c46 -18 97 14 96 58 0 14 -13 67 -27 116 -25 80 -31 92 -59 105 -18 8 -37 27
-44 43 -32 76 -199 150 -474 211 -255 55 -697 79 -1055 55z m670 -49 c286 -25
544 -79 685 -144 74 -34 135 -78 135 -98 0 -4 -531 -8 -1180 -8 -703 0 -1180
4 -1180 9 0 17 65 64 135 97 127 60 414 123 656 143 148 12 613 13 749 1z
m724 -502 c3 -40 10 -158 16 -263 5 -104 16 -218 24 -252 l14 -63 -1144 0
c-629 0 -1144 1 -1144 3 0 1 7 34 15 72 8 39 19 165 25 280 5 116 13 229 16
253 l5 42 1084 0 1083 0 6 -72z m99 -727 c9 -27 17 -50 17 -52 0 -5 -2402 0
-2407 4 -2 2 4 25 13 50 l16 47 1172 0 1171 0 18 -49z"/>
</g>
</svg>
