<?xml version="1.0" standalone="no"?>
<!DOCTYPE svg PUBLIC "-//W3C//DTD SVG 20010904//EN"
 "http://www.w3.org/TR/2001/REC-SVG-20010904/DTD/svg10.dtd">
<svg version="1.0" xmlns="http://www.w3.org/2000/svg"
 width="468pt" height="468pt" viewBox="0 0 468 468"
 preserveAspectRatio="xMidYMid meet">
<metadata>
Created by potrace 1.8, written by Peter Selinger 2001-2007
</metadata>
<g transform="translate(0,468) scale(0.191020,-0.191020)"
fill="#000000" stroke="none">
<path d="M84 2436 c-17 -8 -40 -26 -52 -41 l-22 -28 0 -984 0 -985 22 -40 c26
-45 19 -42 449 -232 157 -69 297 -126 311 -126 33 0 77 35 94 76 9 21 14 71
14 134 l0 100 719 0 718 0 33 23 c19 12 43 38 54 57 21 35 21 45 21 1002 0
962 0 967 -21 995 -11 15 -36 36 -55 45 -32 17 -107 18 -1144 18 -906 -1
-1116 -3 -1141 -14z m1076 -1176 l0 -810 -130 0 -130 0 0 668 c0 626 -2 669
-19 707 -10 22 -27 47 -37 57 -10 9 -102 53 -204 98 -102 45 -187 84 -189 86
-2 2 156 4 352 4 l357 0 0 -810z m1150 0 l0 -810 -510 0 -510 0 0 399 0 399
25 6 c55 14 60 88 8 121 l-32 20 -1 338 0 337 510 0 510 0 0 -810z m-1858 656
l303 -133 3 -379 2 -379 -22 -10 c-13 -6 -29 -22 -36 -37 -16 -34 1 -76 35
-84 l23 -6 0 -219 0 -219 -310 0 -310 0 0 800 c0 440 2 800 4 800 3 0 141 -60
308 -134z m308 -1686 l0 -80 -32 14 c-87 36 -313 138 -317 142 -2 2 75 4 172
4 l177 0 0 -80z"/>
</g>
</svg>
