<?xml version="1.0" standalone="no"?>
<!DOCTYPE svg PUBLIC "-//W3C//DTD SVG 20010904//EN"
 "http://www.w3.org/TR/2001/REC-SVG-20010904/DTD/svg10.dtd">
<svg version="1.0" xmlns="http://www.w3.org/2000/svg"
 width="468pt" height="371pt" viewBox="0 0 468 371"
 preserveAspectRatio="xMidYMid meet">
<metadata>
Created by potrace 1.8, written by Peter Selinger 2001-2007
</metadata>
<g transform="translate(0,371) scale(0.173333,-0.173333)"
fill="#000000" stroke="none">
<path d="M334 2126 c-17 -8 -40 -26 -52 -41 -21 -26 -22 -38 -22 -221 l0 -194
-75 0 c-43 0 -90 -6 -110 -14 -39 -17 -65 -60 -65 -110 0 -19 50 -351 110
-738 77 -486 116 -712 128 -732 10 -17 33 -39 52 -51 35 -20 49 -20 1161 -23
l1125 -2 34 22 c19 13 43 39 54 58 21 35 21 45 21 1002 0 962 0 967 -21 995
-11 15 -36 36 -55 45 -32 17 -107 18 -1144 18 -906 -1 -1116 -3 -1141 -14z
m1075 -1003 c-1 -351 -3 -631 -5 -623 -2 8 -40 249 -85 535 -51 330 -87 533
-98 554 -10 19 -30 44 -45 55 -26 20 -42 21 -407 24 l-379 3 0 44 0 45 510 0
510 0 -1 -637z m1151 -173 l0 -810 -510 0 -510 0 0 399 0 399 25 6 c55 14 60
88 8 121 l-32 20 -1 338 0 337 510 0 510 0 0 -810z m-2300 228 c0 -193 -2
-349 -4 -347 -2 2 -27 153 -55 334 -29 182 -53 338 -55 348 -4 15 4 17 55 17
l59 0 0 -352z m953 -335 c60 -379 108 -691 107 -695 0 -5 -209 -8 -465 -8
l-465 0 0 695 0 695 358 0 358 0 107 -687z"/>
</g>
</svg>
