<?xml version="1.0" standalone="no"?>
<!DOCTYPE svg PUBLIC "-//W3C//DTD SVG 20010904//EN"
 "http://www.w3.org/TR/2001/REC-SVG-20010904/DTD/svg10.dtd">
<svg version="1.0" xmlns="http://www.w3.org/2000/svg"
 width="468pt" height="470pt" viewBox="0 0 468 470"
 preserveAspectRatio="xMidYMid meet">
<metadata>
Created by potrace 1.8, written by Peter Selinger 2001-2007
</metadata>
<g transform="translate(0,470) scale(0.158644,-0.158644)"
fill="#000000" stroke="none">
<path d="M41 2936 c-35 -19 -40 -37 -40 -154 -1 -96 1 -104 24 -127 13 -14 29
-25 35 -25 17 0 11 -25 -10 -38 -28 -17 -28 -72 0 -79 27 -7 27 -49 0 -56 -28
-7 -28 -62 0 -79 26 -16 26 -44 0 -58 -27 -14 -27 -65 0 -82 26 -16 26 -44 0
-58 -27 -14 -27 -64 0 -83 18 -13 19 -29 22 -383 3 -419 3 -419 81 -455 40
-18 81 -19 1042 -19 961 0 1002 1 1042 19 78 36 78 35 81 457 l3 371 24 11
c35 16 35 68 0 84 -31 14 -32 40 -2 53 15 7 23 20 25 42 3 27 -1 35 -22 45
-32 14 -34 40 -3 53 15 7 23 20 25 43 3 27 -1 34 -22 42 -32 12 -34 42 -3 55
16 7 22 18 22 40 0 22 -6 33 -22 40 -25 11 -31 35 -10 35 8 0 23 10 35 23 20
21 22 34 22 134 0 94 -3 114 -19 134 l-19 24 -1144 2 c-949 2 -1147 0 -1167
-11z m1089 -326 c0 -7 -160 -10 -460 -10 -300 0 -460 3 -460 10 0 7 160 10
460 10 300 0 460 -3 460 -10z m1050 0 c0 -7 -160 -10 -460 -10 -300 0 -460 3
-460 10 0 7 160 10 460 10 300 0 460 -3 460 -10z m-1050 -120 c0 -20 -7 -20
-460 -20 -453 0 -460 0 -460 20 0 20 7 20 460 20 453 0 460 0 460 -20z m1050
0 c0 -20 -7 -20 -460 -20 -453 0 -460 0 -460 20 0 20 7 20 460 20 453 0 460 0
460 -20z m-1050 -140 c0 -20 -7 -20 -460 -20 -453 0 -460 0 -460 20 0 20 7 20
460 20 453 0 460 0 460 -20z m1050 0 c0 -20 -7 -20 -460 -20 -453 0 -460 0
-460 20 0 20 7 20 460 20 453 0 460 0 460 -20z m-1050 -140 c0 -20 -7 -20
-460 -20 -453 0 -460 0 -460 20 0 20 7 20 460 20 453 0 460 0 460 -20z m1050
0 c0 -20 -7 -20 -460 -20 -453 0 -460 0 -460 20 0 20 7 20 460 20 453 0 460 0
460 -20z m-1070 -133 c-49 -25 -49 -111 0 -124 19 -5 20 -15 20 -289 l0 -284
-460 0 -460 0 0 355 0 355 463 0 c377 0 457 -3 437 -13z m1070 -342 l0 -355
-460 0 -460 0 0 280 0 280 24 10 c57 21 58 101 3 126 -28 11 30 13 431 14
l462 0 0 -355z"/>
<path d="M2442 1311 c-52 -13 -82 -48 -82 -93 l0 -38 -53 0 c-32 0 -61 -6 -76
-16 -45 -32 -51 -67 -51 -301 l0 -217 -22 44 c-33 64 -78 80 -156 56 -112 -35
-127 -75 -88 -223 15 -54 50 -188 80 -297 41 -154 58 -203 74 -214 23 -15 55
-4 66 23 3 9 -28 147 -69 307 -46 177 -72 295 -66 301 5 5 23 10 41 10 l32 2
44 -125 c71 -202 74 -209 95 -215 12 -4 31 0 46 10 l25 17 -7 252 c-4 139 -4
305 0 369 l7 117 39 0 39 0 0 -290 0 -291 23 -8 c12 -5 31 -5 42 -1 19 7 20
19 25 366 l5 359 43 3 42 3 0 -329 c0 -309 1 -331 19 -353 16 -20 23 -22 47
-14 l29 10 3 293 2 293 33 -3 32 -3 5 -315 c3 -173 9 -321 13 -327 10 -16 59
-17 75 -1 9 9 12 77 12 245 0 226 1 233 20 233 20 0 20 -7 20 -455 0 -442 1
-456 20 -475 24 -24 29 -24 58 -4 l22 15 0 462 c0 420 -2 465 -18 497 -19 38
-52 60 -94 60 -26 0 -28 3 -28 45 0 35 -6 52 -28 76 -24 27 -37 33 -84 37 -51
4 -55 6 -64 35 -5 17 -20 38 -34 48 -29 21 -111 31 -158 20z"/>
</g>
</svg>
