<?xml version="1.0" standalone="no"?>
<!DOCTYPE svg PUBLIC "-//W3C//DTD SVG 20010904//EN"
 "http://www.w3.org/TR/2001/REC-SVG-20010904/DTD/svg10.dtd">
<svg version="1.0" xmlns="http://www.w3.org/2000/svg"
 width="468pt" height="470pt" viewBox="0 0 468 470"
 preserveAspectRatio="xMidYMid meet">
<metadata>
Created by potrace 1.8, written by Peter Selinger 2001-2007
</metadata>
<g transform="translate(0,470) scale(0.158644,-0.158644)"
fill="#000000" stroke="none">
<path d="M1442 2658 c3 -261 5 -303 18 -303 13 0 15 40 15 300 0 278 -1 300
-18 303 -16 3 -17 -15 -15 -300z"/>
<path d="M2532 2672 c-165 -167 -231 -217 -388 -295 -192 -97 -363 -145 -647
-183 -253 -33 -367 -57 -509 -104 -195 -65 -344 -145 -508 -273 -87 -68 -450
-426 -461 -455 -21 -54 40 -122 97 -108 28 7 94 81 94 104 0 26 273 291 384
374 116 87 227 149 356 199 147 58 253 82 510 118 361 51 552 104 771 218 132
68 237 146 356 264 l92 91 6 -38 c17 -101 62 -216 104 -266 16 -20 99 -25 131
-8 43 23 30 99 -21 120 -43 18 -49 30 -70 147 -36 200 -60 253 -115 253 -20 0
-61 -35 -182 -158z"/>
<path d="M1440 1495 c0 -348 0 -355 20 -355 20 0 20 7 20 355 0 348 0 355 -20
355 -20 0 -20 -7 -20 -355z"/>
<path d="M2680 1573 c-8 -3 -82 -74 -165 -158 -161 -163 -241 -223 -400 -300
-196 -94 -334 -131 -675 -180 -263 -37 -394 -67 -533 -121 -185 -71 -323 -153
-484 -287 -88 -73 -398 -381 -416 -412 -21 -39 30 -115 78 -115 33 0 102 62
110 100 4 19 54 75 153 172 212 207 349 305 546 390 162 71 293 101 640 148
451 62 760 198 1021 451 l111 108 17 -82 c9 -46 33 -115 54 -157 37 -72 40
-75 81 -82 44 -7 91 4 104 25 4 7 8 26 8 43 0 32 -20 57 -56 68 -29 9 -40 39
-65 176 -32 180 -66 236 -129 213z"/>
<path d="M1440 310 c0 -293 0 -300 20 -300 20 0 20 7 20 300 0 293 0 300 -20
300 -20 0 -20 -7 -20 -300z"/>
</g>
</svg>
