<?xml version="1.0" standalone="no"?>
<!DOCTYPE svg PUBLIC "-//W3C//DTD SVG 20010904//EN"
 "http://www.w3.org/TR/2001/REC-SVG-20010904/DTD/svg10.dtd">
<svg version="1.0" xmlns="http://www.w3.org/2000/svg"
 width="468pt" height="470pt" viewBox="0 0 468 470"
 preserveAspectRatio="xMidYMid meet">
<metadata>
Created by potrace 1.8, written by Peter Selinger 2001-2007
</metadata>
<g transform="translate(0,470) scale(0.158108,-0.158108)"
fill="#000000" stroke="none">
<path d="M36 2931 c-56 -58 -45 -214 17 -251 28 -18 51 -20 195 -20 l162 0 0
-1267 c0 -1415 -5 -1311 69 -1360 l34 -23 431 0 c415 0 432 1 464 20 19 12 41
38 52 63 19 41 20 81 20 1305 l0 1262 185 0 185 0 2 -1286 3 -1285 42 -40 42
-39 441 0 441 0 42 39 42 40 3 1291 2 1292 26 31 c24 29 26 36 22 120 -3 83
-5 90 -31 113 l-28 24 -1418 0 -1417 0 -28 -29z m2794 -116 c0 -13 -156 -15
-1345 -15 -1189 0 -1345 2 -1345 15 0 13 156 15 1345 15 1189 0 1345 -2 1345
-15z m-1490 -704 l0 -549 -60 -4 c-64 -5 -85 -17 -95 -58 -4 -18 0 -34 15 -53
19 -24 28 -27 81 -27 l59 0 0 -640 0 -640 -395 0 -395 0 0 1260 0 1260 395 0
395 0 0 -549z m1438 -713 l2 -1258 -400 0 -400 0 0 640 0 640 60 0 c70 0 100
21 100 69 0 45 -40 71 -106 71 l-54 0 0 543 c0 299 3 547 7 550 4 4 182 6 397
5 l391 -3 3 -1257z"/>
</g>
</svg>
