<?xml version="1.0" standalone="no"?>
<!DOCTYPE svg PUBLIC "-//W3C//DTD SVG 20010904//EN"
 "http://www.w3.org/TR/2001/REC-SVG-20010904/DTD/svg10.dtd">
<svg version="1.0" xmlns="http://www.w3.org/2000/svg"
 width="468pt" height="473pt" viewBox="0 0 468 473"
 preserveAspectRatio="xMidYMid meet">
<metadata>
Created by potrace 1.8, written by Peter Selinger 2001-2007
</metadata>
<g transform="translate(0,473) scale(0.159184,-0.159184)"
fill="#000000" stroke="none">
<path d="M1442 2668 c3 -261 5 -303 18 -303 13 0 15 40 15 300 0 278 -1 300
-18 303 -16 3 -17 -15 -15 -300z"/>
<path d="M1710 2224 c-595 -71 -1171 -339 -1590 -740 -60 -59 -113 -117 -116
-129 -8 -31 21 -84 53 -96 48 -18 123 34 139 96 9 36 168 171 339 287 487 331
1065 492 1645 458 257 -16 550 -71 577 -109 17 -25 103 -44 137 -31 49 18 61
82 24 124 -39 42 -321 111 -574 141 -159 18 -475 18 -634 -1z"/>
<path d="M1440 1505 c0 -348 0 -355 20 -355 20 0 20 7 20 355 0 348 0 355 -20
355 -20 0 -20 -7 -20 -355z"/>
<path d="M1748 980 c-519 -59 -1017 -258 -1420 -567 -126 -97 -316 -278 -324
-308 -8 -31 21 -84 53 -96 48 -18 123 34 139 96 5 21 58 72 180 172 83 68 291
205 404 265 567 302 1242 390 1859 243 71 -17 109 -32 118 -44 17 -25 103 -44
137 -31 49 18 61 82 24 124 -29 31 -216 84 -433 122 -130 23 -184 27 -405 29
-140 2 -290 0 -332 -5z"/>
<path d="M1440 320 c0 -293 0 -300 20 -300 20 0 20 7 20 300 0 293 0 300 -20
300 -20 0 -20 -7 -20 -300z"/>
</g>
</svg>
