<?xml version="1.0" standalone="no"?>
<!DOCTYPE svg PUBLIC "-//W3C//DTD SVG 20010904//EN"
 "http://www.w3.org/TR/2001/REC-SVG-20010904/DTD/svg10.dtd">
<svg version="1.0" xmlns="http://www.w3.org/2000/svg"
 width="403pt" height="648pt" viewBox="0 0 403 648"
 preserveAspectRatio="xMidYMid meet">
<metadata>
Created by potrace 1.8, written by Peter Selinger 2001-2007
</metadata>
<g transform="translate(0,648) scale(0.218919,-0.218919)"
fill="#000000" stroke="none">
<path d="M91 2943 c-18 -9 -45 -34 -60 -57 l-26 -40 0 -1360 c0 -1248 1 -1363
17 -1391 24 -44 58 -72 103 -84 53 -15 1544 -15 1597 -1 51 15 105 77 113 132
3 24 5 642 3 1373 -3 1309 -3 1331 -23 1364 -11 19 -33 43 -48 55 -28 21 -33
21 -835 23 -735 3 -810 1 -841 -14z m1608 -245 c0 -119 -1 -122 -17 -99 -37
54 -86 107 -125 136 l-41 30 -688 3 c-657 2 -688 3 -688 21 0 10 3 21 7 24 3
4 354 7 780 7 l773 0 -1 -122z m-196 18 c39 -17 89 -69 150 -159 40 -58 47
-75 47 -117 l0 -50 -667 0 c-427 0 -681 4 -705 10 -32 9 -52 30 -143 152 -58
77 -105 149 -105 159 0 18 23 19 695 19 570 0 701 -2 728 -14z m-1281 -280
c77 -91 30 -86 801 -86 l677 0 0 -157 0 -156 -31 44 c-48 67 -90 108 -134 132
-40 22 -45 22 -717 25 l-678 3 0 147 1 147 20 -25 c11 -14 38 -47 61 -74z
m1314 -275 c22 -15 68 -69 102 -119 54 -78 62 -96 62 -136 l0 -46 -637 -2
c-740 -2 -730 -2 -763 21 -34 24 -219 272 -220 294 0 16 40 17 708 17 l709 0
39 -29z m-1246 -321 l45 -25 683 -3 682 -3 0 -152 -1 -152 -22 30 c-47 65
-114 129 -152 146 -37 17 -82 19 -712 19 l-673 0 0 151 0 151 53 -68 c32 -41
71 -79 97 -94z m1188 -186 c46 -9 103 -63 166 -156 49 -72 56 -89 56 -130 l0
-48 -677 0 c-626 0 -681 1 -713 18 -30 15 -106 109 -207 254 -49 72 -91 68
665 68 374 0 693 -3 710 -6z m-1285 -258 c26 -36 62 -74 80 -85 62 -38 128
-41 789 -41 l638 0 -1 -152 c0 -147 -1 -152 -17 -128 -50 74 -102 127 -147
150 l-49 25 -673 3 -673 3 0 144 c0 80 1 145 3 145 2 0 24 -29 50 -64z m1331
-300 c42 -25 49 -32 129 -148 41 -58 47 -73 47 -118 l0 -51 -682 3 c-585 3
-687 5 -710 18 -32 18 -228 278 -228 302 0 17 38 18 702 18 l701 0 41 -24z
m-1273 -303 c58 -53 59 -53 780 -53 l669 0 0 -156 0 -156 -44 59 c-53 72 -109
120 -156 133 -21 6 -298 10 -697 10 l-663 0 0 151 0 151 44 -58 c24 -33 54
-69 67 -81z m1267 -227 c36 -19 68 -55 130 -147 44 -64 52 -82 52 -122 l0 -47
-682 0 c-530 0 -689 3 -708 13 -30 15 -229 275 -230 300 0 16 40 17 705 17
588 0 710 -2 733 -14z m-1303 -271 c17 -22 52 -51 80 -65 l50 -25 678 -3 678
-3 -3 -27 -3 -27 -775 0 -775 0 -2 125 -3 125 23 -30 c12 -16 36 -48 52 -70z"/>
</g>
</svg>
