<?xml version="1.0" standalone="no"?>
<!DOCTYPE svg PUBLIC "-//W3C//DTD SVG 20010904//EN"
 "http://www.w3.org/TR/2001/REC-SVG-20010904/DTD/svg10.dtd">
<svg version="1.0" xmlns="http://www.w3.org/2000/svg"
 width="468pt" height="369pt" viewBox="0 0 468 369"
 preserveAspectRatio="xMidYMid meet">
<metadata>
Created by potrace 1.8, written by Peter Selinger 2001-2007
</metadata>
<g transform="translate(0,369) scale(0.158644,-0.158644)"
fill="#000000" stroke="none">
<path d="M106 2310 c-34 -11 -63 -36 -82 -72 -17 -33 -19 -219 -3 -251 21 -40
52 -67 88 -77 l36 -9 0 -932 c0 -910 0 -931 19 -945 11 -8 34 -14 52 -14 67 0
64 -49 64 897 l0 853 1195 0 1195 0 0 -858 c0 -819 1 -860 18 -875 23 -21 71
-22 98 -3 19 14 19 35 19 943 l0 928 49 20 c75 31 90 58 95 173 4 119 -8 163
-56 199 l-36 28 -1361 2 c-749 1 -1374 -2 -1390 -7z m2714 -200 l0 -70 -1340
0 -1340 0 0 70 0 70 1340 0 1340 0 0 -70z m-150 -230 c0 -20 -7 -20 -1195 -20
-1188 0 -1195 0 -1195 20 0 20 7 20 1195 20 1188 0 1195 0 1195 -20z"/>
<path d="M815 1343 c-79 -41 -96 -71 -141 -256 -34 -138 -39 -201 -19 -249 6
-15 2 -18 -28 -18 -20 0 -45 -9 -61 -21 l-26 -20 0 -214 0 -214 30 -23 c29
-21 30 -24 30 -105 0 -87 15 -135 45 -147 30 -11 219 -6 236 7 30 23 39 56 39
141 l0 86 560 0 560 0 0 -95 c0 -88 2 -98 25 -120 22 -23 31 -25 128 -25 90 0
108 3 131 21 25 20 26 25 26 118 0 96 0 97 30 119 l30 23 0 214 0 214 -26 20
c-16 12 -41 21 -62 21 -31 0 -34 2 -28 23 19 64 17 91 -20 242 -43 178 -65
219 -136 254 -44 21 -51 21 -669 21 -549 -1 -628 -3 -654 -17z m1273 -131 c16
-11 84 -265 80 -300 l-3 -27 -687 -3 c-661 -2 -688 -1 -697 16 -7 14 -1 56 26
158 20 76 41 145 46 152 7 9 142 12 616 12 333 0 612 -4 619 -8z m-1149 -497
c34 -17 41 -33 41 -86 0 -29 -7 -47 -25 -64 -23 -24 -29 -25 -168 -25 -131 0
-147 2 -171 21 -45 35 -34 138 17 159 39 15 274 12 306 -5z m837 0 c17 -13
-18 -14 -306 -14 -288 0 -323 1 -306 14 16 12 70 15 306 15 236 0 290 -3 306
-15z m531 4 c38 -14 43 -25 43 -91 0 -83 -10 -88 -183 -88 -181 0 -197 8 -197
96 0 51 13 73 50 87 27 10 258 7 287 -4z m-487 -174 c0 -13 -46 -15 -350 -15
-304 0 -350 2 -350 15 0 13 46 15 350 15 304 0 350 -2 350 -15z"/>
</g>
</svg>
