<?xml version="1.0" standalone="no"?>
<!DOCTYPE svg PUBLIC "-//W3C//DTD SVG 20010904//EN"
 "http://www.w3.org/TR/2001/REC-SVG-20010904/DTD/svg10.dtd">
<svg version="1.0" xmlns="http://www.w3.org/2000/svg"
 width="468pt" height="442pt" viewBox="0 0 468 442"
 preserveAspectRatio="xMidYMid meet">
<metadata>
Created by potrace 1.8, written by Peter Selinger 2001-2007
</metadata>
<g transform="translate(0,442) scale(0.173333,-0.173333)"
fill="#000000" stroke="none">
<path d="M344 2521 c-62 -38 -64 -46 -64 -258 l0 -193 -87 0 c-107 0 -149 -18
-176 -73 l-19 -37 141 -903 c78 -496 144 -916 146 -933 7 -40 69 -102 109
-109 17 -3 520 -4 1118 -3 1079 3 1087 3 1115 24 15 11 38 40 51 64 l22 44 0
1143 c0 1259 3 1193 -62 1233 -33 20 -47 20 -1148 20 -1080 0 -1116 -1 -1146
-19z m2215 -998 l-1 -648 -83 520 c-45 286 -86 535 -90 553 -10 46 -59 99
-103 112 -24 6 -362 10 -954 10 l-918 0 0 50 0 50 1075 0 1075 0 -1 -647z
m-2280 -15 c0 -238 -2 -428 -5 -423 -4 10 -134 829 -134 846 0 5 32 9 70 9
l70 0 -1 -432z m1961 422 c11 -7 31 -112 76 -392 l60 -383 -30 -7 c-87 -19
-65 -138 25 -138 16 0 29 -3 29 -7 1 -5 31 -200 68 -435 l68 -428 -1053 0
c-1030 0 -1053 0 -1063 19 -7 13 -10 312 -10 900 l0 881 908 0 c547 0 913 -4
922 -10z"/>
</g>
</svg>
