<?xml version="1.0" encoding="UTF-8" standalone="no"?>
<svg width="320px" height="560px" viewBox="-160 -280 320 560" version="1.1" xmlns="http://www.w3.org/2000/svg" xmlns:xlink="http://www.w3.org/1999/xlink" stroke="none" fill="#000000">
<rect x="-160" y="-280" width="320" height="20" rx="10" ry="10"/>
<rect x="-160" y="260" width="320" height="20" rx="10" ry="10"/>
<rect x="-160" y="-280" width="20" height="560" rx="10" ry="10"/>
<rect x="140" y="-280" width="20" height="560" rx="10" ry="10"/>
<rect x="-160" y="-220" width="320" height="15"/>
<rect x="-160" y="165" width="320" height="15"/>
<rect x="-110" y="195" width="220" height="20" rx="10" ry="10"/>
<rect x="-110" y="225" width="220" height="20" rx="10" ry="10"/>
<rect x="-150" y="120" width="80" height="15"/>
<rect x="-150" y="0" width="80" height="15"/>
<rect x="-85" y="0" width="15" height="135"/>
<rect x="-122.5" y="30" width="20" height="75" rx="10" ry="10"/>
<g transform="translate(0,-100)">
<g id="gefrier_triple">
<rect x="-12.5" y="0" width="25" height="50"/>
<rect x="-10" y="-10" width="50" height="20" rx="10" ry="10" transform="translate(0,50) rotate(45)"/>
<rect x="-10" y="-10" width="50" height="20" rx="10" ry="10" transform="translate(0,50) rotate(135)"/>
</g>
<use xlink:href="#gefrier_triple" transform="rotate(60)"/>
<use xlink:href="#gefrier_triple" transform="rotate(120)"/>
<use xlink:href="#gefrier_triple" transform="rotate(180)"/>
<use xlink:href="#gefrier_triple" transform="rotate(-60)"/>
<use xlink:href="#gefrier_triple" transform="rotate(-120)"/>
</g>
</svg>
