<?xml version="1.0" encoding="UTF-8" standalone="no"?>
<svg width="400px" height="400px" viewBox="-200 -200 400 400" version="1.1" xmlns="http://www.w3.org/2000/svg" xmlns:xlink="http://www.w3.org/1999/xlink" stroke="none" fill="#000000">
<rect x="-200" y="180" width="400" height="20"/>
<rect x="-200" y="40" width="400" height="20"/>
<rect x="-200" y="40" width="20" height="160"/>
<rect x="180" y="40" width="20" height="160"/>
<polygon points="-200,40 -120,-200 120,-200 200,40 180,40 105,-180 -105,-180 -180,40"/>
<circle cx="120" cy="100" r="15"/>
<circle cx="60" cy="100" r="15"/>
<path d="M -80,-100 L 80,-100 L 80,-80 A 80,60 0 0 1 -80,-80 Z"/>
<rect x="-10" y="-60" height="80" width="20" rx="10" ry="10"/>
<rect x="-60" y="-160" height="80" width="20" rx="10" ry="10"/>
<rect x="40" y="-160" height="80" width="20" rx="10" ry="10"/>
</svg>
