<?xml version="1.0" standalone="no"?>
<!DOCTYPE svg PUBLIC "-//W3C//DTD SVG 20010904//EN"
 "http://www.w3.org/TR/2001/REC-SVG-20010904/DTD/svg10.dtd">
<svg version="1.0" xmlns="http://www.w3.org/2000/svg"
 width="468pt" height="470pt" viewBox="0 0 468 470"
 preserveAspectRatio="xMidYMid meet">
<metadata>
Created by potrace 1.8, written by Peter Selinger 2001-2007
</metadata>
<g transform="translate(0,470) scale(0.158108,-0.158108)"
fill="#000000" stroke="none">
<path d="M1367 2961 l-668 -6 -19 -25 c-10 -13 -21 -37 -24 -53 -3 -16 -6
-317 -6 -668 l0 -639 -236 0 c-158 0 -250 -4 -278 -12 -52 -16 -108 -72 -124
-124 -16 -54 -17 -1230 -1 -1287 13 -47 63 -106 106 -123 48 -21 2678 -21
2726 0 44 18 94 77 107 126 7 26 10 243 8 664 l-3 624 -30 43 c-56 79 -74 84
-366 87 l-256 3 -6 82 c-4 45 -7 341 -7 657 0 634 3 602 -62 636 -41 21 -62
22 -861 15z m831 -743 l2 -648 -725 0 -725 0 0 644 c0 605 1 645 18 649 9 3
334 4 722 3 l705 -1 3 -647z m610 -800 c9 -9 12 -163 12 -629 0 -548 -2 -619
-16 -633 -14 -14 -147 -16 -1321 -16 -1202 0 -1308 1 -1325 17 -17 15 -18 48
-18 633 0 466 3 619 12 628 17 17 2639 17 2656 0z"/>
<path d="M902 2628 c-19 -19 -15 -66 7 -78 13 -6 208 -10 565 -10 533 0 546 0
566 20 24 24 25 43 4 64 -14 14 -79 16 -573 16 -420 0 -560 -3 -569 -12z"/>
<path d="M902 2368 c-19 -19 -15 -66 7 -78 13 -6 208 -10 565 -10 533 0 546 0
566 20 23 23 24 33 10 61 -10 18 -27 19 -573 19 -425 0 -566 -3 -575 -12z"/>
<path d="M902 2108 c-7 -7 -12 -25 -12 -40 0 -21 6 -31 26 -38 15 -6 238 -10
565 -10 526 0 539 0 559 20 23 23 24 33 10 61 -10 18 -27 19 -573 19 -425 0
-566 -3 -575 -12z"/>
<path d="M902 1848 c-14 -14 -15 -47 -2 -68 8 -13 83 -15 552 -18 299 -1 553
0 565 3 32 8 48 41 34 71 l-11 24 -563 0 c-425 0 -566 -3 -575 -12z"/>
<path d="M940 1184 c-19 -2 -93 -9 -165 -15 -173 -14 -400 -47 -439 -63 -17
-7 -42 -26 -56 -40 l-25 -28 -3 -239 c-5 -361 -17 -348 363 -349 151 0 266 4
290 11 56 15 118 82 135 145 7 27 19 61 27 77 l14 27 397 -2 397 -3 28 -80
c32 -92 77 -146 136 -164 24 -7 131 -11 292 -11 279 0 300 4 343 63 20 27 21
41 21 277 l0 249 -29 30 c-35 37 -62 46 -186 65 -267 43 -382 49 -950 51 -305
2 -571 1 -590 -1z m960 -134 c232 -9 457 -29 588 -53 l67 -12 3 -198 2 -197
-239 0 c-132 0 -246 3 -255 6 -8 3 -27 41 -41 84 -15 44 -36 91 -47 106 -42
53 -53 54 -505 54 -378 0 -421 -2 -453 -18 -43 -21 -76 -69 -96 -141 -28 -96
-13 -91 -291 -91 l-243 0 0 198 0 199 113 16 c351 51 859 68 1397 47z"/>
</g>
</svg>
