<?xml version="1.0" standalone="no"?>
<!DOCTYPE svg PUBLIC "-//W3C//DTD SVG 20010904//EN"
 "http://www.w3.org/TR/2001/REC-SVG-20010904/DTD/svg10.dtd">
<svg version="1.0" xmlns="http://www.w3.org/2000/svg"
 width="468pt" height="367pt" viewBox="0 0 468 367"
 preserveAspectRatio="xMidYMid meet">
<metadata>
Created by potrace 1.8, written by Peter Selinger 2001-2007
</metadata>
<g transform="translate(0,367) scale(0.159184,-0.159184)"
fill="#000000" stroke="none">
<path d="M1860 2285 c-185 -39 -336 -120 -461 -244 -114 -114 -184 -234 -235
-406 -24 -79 -27 -107 -28 -235 -1 -122 3 -158 22 -225 39 -135 153 -344 197
-362 30 -11 66 7 80 39 15 37 12 47 -27 106 l-29 42 100 0 100 0 22 -49 c24
-57 59 -78 102 -62 35 14 50 43 37 76 -5 14 -10 28 -10 31 0 2 140 4 311 4
346 0 317 7 288 -67 -16 -40 -1 -79 38 -94 44 -17 66 1 104 85 l34 76 88 0 88
0 -18 -32 c-10 -17 -55 -69 -100 -116 -91 -93 -100 -117 -57 -151 48 -38 71
-29 164 66 174 177 260 388 260 637 0 247 -80 446 -248 619 -119 122 -239 195
-399 243 -109 33 -317 42 -423 19z m331 -183 c79 -99 169 -249 169 -282 0 -7
-101 -10 -300 -10 -165 0 -300 4 -300 8 0 15 97 172 133 216 19 22 53 60 76
84 40 41 42 42 108 42 l68 0 46 -58z m-411 12 c0 -3 -13 -23 -28 -43 -34 -42
-100 -158 -127 -218 l-18 -43 -110 0 -109 0 17 28 c65 100 161 182 284 244 76
38 91 43 91 32z m664 -68 c29 -18 70 -49 91 -67 45 -40 135 -146 135 -160 0
-5 -35 -9 -78 -9 l-79 0 -28 68 c-26 63 -40 90 -87 170 -11 17 -17 32 -13 32
3 0 30 -15 59 -34z m-884 -373 c0 -5 -7 -44 -16 -88 -19 -91 -22 -322 -6 -397
l9 -48 -118 0 -118 0 -11 38 c-38 136 -38 313 0 435 l21 67 119 0 c66 0 120
-3 120 -7z m862 -50 c17 -77 17 -329 -1 -416 l-13 -67 -361 2 -361 3 -9 35
c-16 64 -12 328 7 409 9 40 19 77 22 82 3 5 161 9 354 9 l349 0 13 -57z m343
5 c30 -98 39 -208 27 -305 -15 -120 -39 -196 -58 -189 -9 3 -54 6 -101 6 l-85
0 5 33 c23 128 29 254 18 355 -6 59 -14 117 -17 130 -6 22 -5 22 94 22 l101 0
16 -52z"/>
<path d="M0 742 c0 -33 39 -362 55 -459 9 -54 25 -139 37 -190 l21 -93 77 0
77 0 48 142 c27 79 52 154 57 167 7 20 16 3 57 -115 76 -217 58 -194 145 -194
l74 0 22 91 c46 199 107 643 90 662 -4 4 -42 7 -86 5 l-79 -3 -2 -65 c-5 -136
-25 -410 -32 -436 -7 -28 -25 27 -87 279 l-16 67 -72 0 -72 0 -17 -72 c-10
-40 -32 -124 -49 -187 -39 -141 -43 -134 -58 101 -6 95 -13 206 -16 246 l-6
72 -84 0 c-73 0 -84 -2 -84 -18z"/>
<path d="M800 732 c0 -99 55 -489 91 -644 l21 -88 73 0 c48 0 77 4 81 12 5 7
31 82 60 168 45 135 53 152 61 130 6 -14 32 -89 58 -167 l49 -143 78 0 c43 0
78 2 78 3 0 2 13 66 29 143 33 156 67 383 77 522 l7 93 -84 -3 -84 -3 -11
-200 c-14 -239 -24 -332 -34 -315 -4 6 -27 90 -51 186 l-44 174 -71 0 -72 0
-26 -107 c-38 -154 -68 -253 -76 -253 -9 0 -17 87 -30 317 -6 98 -13 184 -15
191 -3 8 -29 12 -85 12 l-80 0 0 -28z"/>
<path d="M1604 668 c14 -186 65 -520 96 -631 l11 -38 77 3 77 3 55 163 c51
153 56 162 66 135 6 -15 32 -90 59 -166 l48 -138 76 3 76 3 17 70 c37 150 98
561 98 658 l0 27 -80 0 c-56 0 -82 -4 -85 -12 -2 -7 -9 -103 -15 -213 -6 -110
-15 -225 -19 -255 l-7 -55 -22 70 c-12 39 -34 123 -49 187 l-28 118 -72 0 -72
0 -10 -37 c-62 -242 -83 -319 -90 -326 -10 -10 -18 63 -32 303 -6 107 -12 201
-14 208 -3 8 -29 12 -86 12 l-82 0 7 -92z"/>
</g>
</svg>
