<?xml version="1.0" standalone="no"?>
<!DOCTYPE svg PUBLIC "-//W3C//DTD SVG 20010904//EN"
 "http://www.w3.org/TR/2001/REC-SVG-20010904/DTD/svg10.dtd">
<svg version="1.0" xmlns="http://www.w3.org/2000/svg"
 width="468pt" height="442pt" viewBox="0 0 468 442"
 preserveAspectRatio="xMidYMid meet">
<metadata>
Created by potrace 1.8, written by Peter Selinger 2001-2007
</metadata>
<g transform="translate(0,442) scale(0.158108,-0.158108)"
fill="#000000" stroke="none">
<path d="M1275 2776 c-16 -7 -41 -26 -55 -41 -25 -26 -25 -30 -28 -220 -4
-218 3 -250 60 -285 24 -14 50 -20 96 -20 l62 0 0 -815 0 -815 -63 0 -62 0
-445 445 -445 445 39 0 c51 0 104 27 127 64 17 28 19 53 19 226 0 290 0 290
-285 290 -289 0 -294 -6 -295 -290 0 -147 3 -180 18 -209 26 -51 62 -74 129
-79 l58 -4 498 -496 497 -497 0 -188 c0 -282 -5 -277 285 -277 291 0 285 -6
285 287 l0 198 488 488 487 487 54 0 c65 0 117 23 142 64 17 28 19 53 19 224
0 214 -5 237 -63 272 -29 18 -51 20 -220 20 -221 0 -248 -7 -278 -74 -27 -59
-28 -373 -1 -425 23 -46 59 -71 111 -78 l43 -6 -443 -443 -444 -444 -57 0 -58
0 0 815 0 815 63 0 c45 0 71 6 95 20 55 33 62 66 62 273 0 175 -1 186 -23 218
-41 62 -70 69 -267 69 -123 -1 -184 -5 -205 -14z m355 -281 l0 -155 -150 0
-150 0 0 155 0 155 150 0 150 0 0 -155z m-1180 -730 l0 -155 -155 0 -155 0 0
155 0 155 155 0 155 0 0 -155z m2380 0 l0 -155 -155 0 -155 0 0 155 0 155 155
0 155 0 0 -155z"/>
</g>
</svg>
