<?xml version="1.0" standalone="no"?>
<!DOCTYPE svg PUBLIC "-//W3C//DTD SVG 20010904//EN"
 "http://www.w3.org/TR/2001/REC-SVG-20010904/DTD/svg10.dtd">
<svg version="1.0" xmlns="http://www.w3.org/2000/svg"
 width="468pt" height="467pt" viewBox="0 0 468 467"
 preserveAspectRatio="xMidYMid meet">
<metadata>
Created by potrace 1.8, written by Peter Selinger 2001-2007
</metadata>
<g transform="translate(0,467) scale(0.157576,-0.157576)"
fill="#000000" stroke="none">
<path d="M135 2945 c-59 -15 -108 -64 -124 -122 -8 -26 -11 -451 -11 -1353 0
-1254 1 -1317 19 -1355 22 -50 69 -91 119 -105 54 -15 1398 -14 1443 1 19 7
49 26 67 43 65 61 62 -4 62 1417 0 899 -3 1304 -11 1339 -15 70 -56 115 -122
135 -71 21 -1363 21 -1442 0z m1415 -145 c20 -20 20 -33 20 -1328 0 -1004 -3
-1311 -12 -1320 -9 -9 -179 -12 -705 -12 -674 0 -693 1 -703 19 -16 30 -14
2633 2 2649 9 9 177 12 695 12 670 0 683 0 703 -20z"/>
<path d="M1326 2728 c-35 -49 -13 -108 45 -123 61 -15 108 76 64 125 -26 29
-89 27 -109 -2z m79 -48 c0 -18 -6 -26 -23 -28 -13 -2 -25 3 -28 12 -10 26 4
48 28 44 17 -2 23 -10 23 -28z"/>
<path d="M300 2502 c-57 -28 -69 -65 -71 -232 -3 -160 4 -187 54 -224 28 -21
39 -21 555 -24 609 -3 599 -4 634 75 17 39 19 63 16 182 -2 115 -6 141 -23
171 -42 71 -29 70 -610 70 -475 0 -523 -2 -555 -18z m1078 -94 c16 -16 17
-274 0 -284 -13 -8 -1040 -6 -1048 3 -10 10 -11 239 -1 266 l11 27 513 0 c386
0 516 -3 525 -12z"/>
<path d="M301 1922 c-68 -34 -76 -55 -79 -225 -3 -134 -1 -156 16 -187 39 -72
23 -71 624 -68 526 3 537 3 565 24 49 36 56 66 57 219 1 126 -1 144 -21 181
-41 76 -24 74 -610 74 -473 0 -521 -2 -552 -18z m1069 -92 c12 -7 16 -37 18
-139 3 -125 3 -129 -19 -145 -21 -14 -79 -16 -517 -16 -321 0 -500 4 -513 10
-17 10 -19 22 -19 143 0 90 4 137 12 145 15 15 1014 17 1038 2z"/>
<path d="M305 1340 c-31 -12 -64 -53 -75 -91 -6 -19 -10 -93 -10 -165 0 -120
2 -134 23 -165 47 -71 31 -70 617 -67 580 3 566 2 604 67 17 29 20 53 20 175
1 159 -11 203 -68 237 -29 18 -59 19 -561 18 -291 0 -539 -4 -550 -9z m1075
-116 c6 -14 10 -76 10 -138 0 -87 -3 -116 -15 -126 -10 -9 -140 -11 -526 -10
-282 0 -516 3 -521 6 -9 6 -11 254 -2 278 5 14 61 16 525 16 l519 0 10 -26z"/>
<path d="M250 690 c-29 -29 -26 -74 6 -99 26 -21 35 -21 594 -21 527 0 569 1
589 18 31 24 31 79 1 104 -21 17 -54 18 -596 18 -561 0 -574 0 -594 -20z"/>
<path d="M256 519 c-32 -25 -35 -70 -6 -99 20 -20 33 -20 594 -20 543 0 575 1
597 18 31 26 31 78 0 104 -22 17 -54 18 -591 18 -559 0 -568 0 -594 -21z"/>
<path d="M255 346 c-30 -30 -32 -69 -5 -96 20 -20 33 -20 598 -20 566 0 579 0
597 20 22 24 22 77 0 99 -14 14 -80 16 -591 19 l-574 2 -25 -24z"/>
<path d="M2231 1167 c-66 -23 -76 -51 -76 -205 1 -112 4 -143 19 -170 20 -38
67 -62 121 -62 35 0 35 0 35 -45 l0 -45 -242 0 c-134 0 -253 -3 -266 -6 -26
-7 -40 -49 -25 -73 8 -12 30 -17 92 -19 l81 -3 0 -43 0 -44 -55 -4 c-104 -9
-130 -59 -123 -237 6 -174 27 -200 173 -209 111 -6 212 11 242 41 41 40 56
218 28 315 -19 62 -49 88 -115 97 l-50 7 0 39 0 39 310 0 310 0 0 -45 0 -45
-42 0 c-48 0 -100 -27 -120 -62 -19 -34 -14 -278 7 -318 29 -57 55 -65 200
-65 143 1 173 9 209 58 18 24 22 46 24 139 6 180 -24 239 -128 253 l-50 7 0
39 0 38 82 3 c81 3 83 4 93 32 8 24 6 31 -14 47 -21 18 -43 19 -272 19 l-249
0 0 45 c0 43 1 45 30 45 16 0 48 7 70 16 63 25 74 55 74 204 1 146 -14 193
-70 216 -42 18 -254 18 -303 1z m239 -212 l0 -85 -90 0 -90 0 0 85 0 85 90 0
90 0 0 -85z m-360 -725 l0 -90 -90 0 -90 0 0 90 0 90 90 0 90 0 0 -90z m720 0
l0 -90 -90 0 -90 0 0 90 0 90 90 0 90 0 0 -90z"/>
</g>
</svg>
