<?xml version="1.0" standalone="no"?>
<!DOCTYPE svg PUBLIC "-//W3C//DTD SVG 20010904//EN"
 "http://www.w3.org/TR/2001/REC-SVG-20010904/DTD/svg10.dtd">
<svg version="1.0" xmlns="http://www.w3.org/2000/svg"
 width="468pt" height="424pt" viewBox="0 0 468 424"
 preserveAspectRatio="xMidYMid meet">
<metadata>
Created by potrace 1.8, written by Peter Selinger 2001-2007
</metadata>
<g transform="translate(0,424) scale(0.158108,-0.158108)"
fill="#000000" stroke="none">
<path d="M1111 2670 c-18 -4 -50 -24 -70 -44 l-36 -36 -3 -378 -3 -378 23 -35
c40 -59 73 -69 241 -69 l147 0 0 -155 0 -155 -678 0 c-761 0 -722 4 -722 -70
0 -66 13 -70 247 -70 l203 0 0 -165 0 -165 -138 0 c-123 0 -142 -2 -182 -22
-26 -14 -53 -37 -65 -58 -19 -33 -20 -52 -20 -402 0 -355 1 -367 21 -394 11
-15 33 -37 48 -48 27 -20 39 -21 404 -21 374 0 377 0 408 22 63 45 64 53 64
451 0 356 0 359 -22 392 -47 69 -64 75 -229 78 l-149 4 0 164 0 164 870 0 870
0 0 -164 0 -164 -149 -4 c-163 -3 -178 -8 -225 -72 -20 -26 -21 -42 -24 -388
-3 -348 -2 -362 18 -403 16 -32 33 -49 64 -64 40 -20 59 -21 391 -21 332 0
351 1 391 21 31 15 48 32 64 64 20 41 21 55 18 403 -3 346 -4 362 -24 388 -48
65 -61 69 -235 72 l-159 4 0 164 0 164 219 0 c194 0 221 2 239 18 35 29 38 67
8 96 l-25 26 -686 0 -685 0 0 155 0 155 145 0 c157 0 179 5 225 55 l25 27 3
380 c3 372 2 380 -19 414 -42 68 -45 69 -429 71 -190 1 -360 -2 -379 -7z m697
-467 l-3 -338 -335 0 -335 0 -3 338 -2 337 340 0 340 0 -2 -337z m-940 -1730
l2 -333 -340 0 -340 0 0 335 0 335 338 -2 337 -3 3 -332z m1882 2 l0 -335
-335 0 -335 0 0 335 0 335 335 0 335 0 0 -335z"/>
</g>
</svg>
