<?xml version="1.0" standalone="no"?>
<!DOCTYPE svg PUBLIC "-//W3C//DTD SVG 20010904//EN"
 "http://www.w3.org/TR/2001/REC-SVG-20010904/DTD/svg10.dtd">
<svg version="1.0" xmlns="http://www.w3.org/2000/svg"
 width="469pt" height="405pt" viewBox="0 0 469 405"
 preserveAspectRatio="xMidYMid meet">
<metadata>
Created by potrace 1.8, written by Peter Selinger 2001-2007
</metadata>
<g transform="translate(0,405) scale(0.163636,-0.163636)"
fill="#000000" stroke="none">
<path d="M1927 2456 c-20 -8 -44 -20 -53 -27 -45 -37 -44 -1 -44 -1190 0
-1107 0 -1122 20 -1154 40 -64 44 -65 495 -65 447 0 442 -1 487 62 l23 33 0
1127 0 1127 -21 28 c-12 15 -36 37 -55 48 -32 19 -54 20 -424 22 -309 2 -398
0 -428 -11z m793 -1216 l0 -1090 -380 0 -380 0 0 1090 0 1090 380 0 380 0 0
-1090z"/>
<path d="M2016 2228 c-9 -12 -16 -32 -16 -43 0 -11 7 -31 16 -43 15 -22 16
-22 329 -22 313 0 314 0 329 22 9 12 16 32 16 43 0 11 -7 31 -16 43 -15 22
-16 22 -329 22 -313 0 -314 0 -329 -22z"/>
<path d="M2026 1929 c-32 -25 -35 -70 -6 -99 19 -19 33 -20 325 -20 292 0 306
1 325 20 20 20 26 65 12 86 -20 31 -55 34 -340 34 -278 0 -290 -1 -316 -21z"/>
<path d="M2270 1051 c-5 -11 -10 -32 -10 -46 0 -47 17 -65 60 -65 64 0 70 6
70 65 0 59 -6 65 -70 65 -29 0 -42 -5 -50 -19z"/>
<path d="M2031 836 c-48 -26 -50 -43 -51 -324 0 -286 4 -313 56 -332 14 -6
153 -10 309 -10 l285 0 32 29 33 29 0 282 0 282 -33 29 -32 29 -288 0 c-219
-1 -293 -4 -311 -14z"/>
<path d="M73 1471 c-71 -44 -68 -12 -68 -636 0 -630 -3 -605 75 -645 36 -18
59 -20 255 -20 184 0 215 -2 215 -15 0 -12 -15 -15 -75 -15 -62 0 -79 -4 -95
-20 -23 -23 -26 -68 -6 -96 14 -18 32 -19 470 -22 l456 -3 25 25 c30 31 32 55
4 90 -19 24 -26 26 -100 26 -64 0 -79 3 -79 15 0 13 33 15 241 15 267 0 289 4
332 64 l22 31 3 545 c2 355 0 557 -7 580 -6 20 -24 49 -41 65 l-31 30 -782 3
c-761 2 -783 2 -814 -17z m1537 -641 l0 -530 -732 2 -733 3 -3 528 -2 527 735
0 735 0 0 -530z"/>
</g>
</svg>
