<?xml version="1.0" standalone="no"?>
<!DOCTYPE svg PUBLIC "-//W3C//DTD SVG 20010904//EN"
 "http://www.w3.org/TR/2001/REC-SVG-20010904/DTD/svg10.dtd">
<svg version="1.0" xmlns="http://www.w3.org/2000/svg"
 width="468pt" height="467pt" viewBox="0 0 468 467"
 preserveAspectRatio="xMidYMid meet">
<metadata>
Created by potrace 1.8, written by Peter Selinger 2001-2007
</metadata>
<g transform="translate(0,467) scale(0.158108,-0.158108)"
fill="#000000" stroke="none">
<path d="M778 2939 c-421 -62 -743 -400 -774 -814 -7 -81 -6 -83 19 -100 20
-13 30 -14 46 -5 23 12 27 26 35 118 18 203 126 401 291 535 71 57 216 131
300 152 33 9 94 18 135 22 86 7 100 14 100 54 0 48 -32 56 -152 38z"/>
<path d="M750 2694 c-36 -7 -103 -32 -150 -55 -114 -56 -238 -178 -292 -289
-65 -132 -91 -307 -49 -330 13 -6 28 -7 44 -1 21 8 25 18 32 77 8 80 29 152
60 215 82 161 260 281 438 296 39 4 75 12 83 20 17 18 18 55 2 71 -16 16 -86
14 -168 -4z"/>
<path d="M800 2460 c-144 -34 -258 -140 -300 -278 -33 -108 -25 -162 26 -162
30 0 54 36 54 81 0 51 53 152 102 194 47 39 132 75 182 75 55 0 85 50 50 84
-17 17 -58 19 -114 6z"/>
<path d="M1154 2443 c-17 -10 -171 -160 -342 -334 -340 -345 -338 -342 -289
-405 38 -50 1681 -1681 1705 -1693 17 -9 32 -9 55 -2 40 14 651 622 667 665 6
16 8 38 4 50 -9 31 -1682 1705 -1721 1722 -41 18 -42 18 -79 -3z m1696 -1738
c0 -12 -571 -586 -588 -592 -4 -2 -380 368 -837 821 l-830 824 299 301 300
300 828 -821 c455 -451 828 -826 828 -833z"/>
<path d="M1057 2152 c-56 -57 -68 -87 -45 -110 23 -23 53 -11 110 45 60 60 69
81 42 107 -26 27 -47 18 -107 -42z"/>
<path d="M1210 2104 c-55 -52 -66 -74 -50 -104 19 -36 60 -26 113 28 52 53 62
93 28 112 -31 16 -39 13 -91 -36z"/>
<path d="M1322 1967 c-56 -57 -62 -75 -34 -100 29 -26 44 -21 100 36 52 52 63
82 40 105 -24 24 -54 12 -106 -41z"/>
<path d="M1040 1934 c-55 -52 -66 -74 -50 -104 19 -36 60 -26 113 28 52 53 62
93 28 112 -31 16 -39 13 -91 -36z"/>
<path d="M1487 1812 c-56 -57 -68 -87 -45 -110 23 -23 53 -11 110 45 58 57 70
87 46 111 -24 24 -54 12 -111 -46z"/>
<path d="M1152 1797 c-56 -57 -62 -75 -34 -100 29 -26 44 -21 100 36 52 52 63
82 40 105 -24 24 -54 12 -106 -41z"/>
<path d="M915 1800 c-30 -11 -105 -96 -105 -118 0 -21 29 -52 49 -52 7 0 37
23 67 52 42 39 54 58 52 76 -4 31 -36 53 -63 42z"/>
<path d="M982 1627 c-52 -52 -63 -82 -40 -105 24 -24 54 -12 106 41 52 52 63
82 40 105 -24 24 -54 12 -106 -41z"/>
<path d="M1549 1623 c-5 -16 -15 -41 -21 -56 -10 -26 -8 -31 28 -68 21 -22 46
-44 54 -49 22 -12 120 27 120 48 0 31 -46 94 -90 123 -54 37 -78 37 -91 2z
m105 -74 c28 -33 26 -42 -10 -53 -14 -4 -28 2 -49 24 -25 26 -27 33 -17 55 10
21 15 24 31 16 10 -6 31 -25 45 -42z"/>
<path d="M1404 1614 c-47 -30 -96 -99 -92 -129 2 -14 19 -26 56 -39 l53 -19
45 44 c49 48 54 72 26 129 -22 44 -37 47 -88 14z m60 -60 c9 -31 -43 -77 -78
-68 -35 8 -33 19 14 67 41 40 52 41 64 1z"/>
<path d="M1145 1469 c-65 -62 -78 -92 -53 -117 24 -24 54 -12 112 47 63 64 70
91 29 118 -21 14 -26 12 -88 -48z"/>
<path d="M1822 1486 c-48 -52 -50 -58 -22 -86 29 -29 42 -25 94 29 38 42 44
54 37 73 -5 16 -18 24 -38 26 -24 2 -37 -5 -71 -42z"/>
<path d="M1929 1382 c-46 -46 -57 -63 -52 -80 7 -28 37 -45 63 -37 24 8 110
102 110 121 0 17 -35 54 -52 54 -6 0 -37 -26 -69 -58z"/>
<path d="M1563 1389 c-25 -24 -43 -50 -43 -62 0 -24 35 -107 45 -107 3 0 23 9
44 20 59 30 129 122 112 148 -7 11 -83 42 -105 42 -6 0 -30 -19 -53 -41z m96
-18 c11 -7 10 -14 -8 -40 -20 -28 -50 -51 -66 -51 -3 0 -10 10 -14 23 -7 17
-3 28 17 50 27 28 47 33 71 18z"/>
<path d="M1338 1403 c-46 -19 -49 -42 -12 -96 28 -43 108 -99 129 -91 15 6 45
80 45 110 0 29 -70 94 -100 93 -14 0 -42 -7 -62 -16z m110 -109 c-15 -31 -20
-30 -62 10 -42 39 -45 53 -13 65 18 7 28 3 54 -21 27 -27 30 -33 21 -54z"/>
<path d="M2061 1236 c-28 -30 -51 -59 -51 -63 0 -5 7 -19 16 -31 25 -36 56
-28 113 32 28 30 51 59 51 63 0 5 -7 19 -16 31 -25 36 -56 28 -113 -32z"/>
<path d="M1751 1206 c-28 -30 -51 -60 -51 -65 0 -16 38 -51 55 -51 20 0 112
86 120 111 10 30 -12 59 -44 59 -21 0 -41 -14 -80 -54z"/>
<path d="M2219 1093 c-32 -31 -59 -62 -59 -70 0 -16 35 -53 51 -53 5 0 35 23
65 52 46 43 54 57 52 81 -2 21 -10 33 -26 38 -20 8 -32 1 -83 -48z"/>
<path d="M1891 1066 c-28 -30 -51 -59 -51 -63 0 -5 7 -19 16 -31 25 -36 56
-28 113 32 28 30 51 59 51 63 0 5 -7 19 -16 31 -25 36 -56 28 -113 -32z"/>
<path d="M1581 1036 c-56 -60 -60 -74 -33 -99 29 -26 49 -20 102 29 51 48 64
86 38 112 -24 24 -55 12 -107 -42z"/>
<path d="M2041 916 c-58 -59 -62 -81 -19 -106 27 -15 28 -14 83 40 55 54 67
84 43 108 -24 24 -54 12 -107 -42z"/>
<path d="M1730 904 c-55 -52 -66 -74 -50 -104 19 -36 60 -26 113 28 52 53 62
93 28 112 -31 16 -39 13 -91 -36z"/>
<path d="M2497 832 c-32 -33 -34 -53 -9 -75 27 -25 47 -21 76 14 31 37 32 43
6 69 -27 27 -41 25 -73 -8z"/>
<path d="M2187 772 c-48 -49 -60 -85 -35 -110 24 -24 55 -12 107 42 54 58 57
66 41 97 -19 35 -61 24 -113 -29z"/>
<path d="M1871 746 c-45 -46 -53 -58 -47 -80 4 -16 16 -28 32 -32 22 -6 34 2
80 47 54 53 66 83 42 107 -24 24 -54 12 -107 -42z"/>
<path d="M2380 714 c-31 -27 -39 -61 -18 -82 33 -33 102 12 96 63 -5 42 -40
51 -78 19z"/>
<path d="M2246 580 c-29 -35 -24 -68 12 -81 28 -10 82 33 82 65 0 52 -55 62
-94 16z"/>
<path d="M2126 459 c-31 -37 -32 -43 -6 -69 27 -27 41 -25 73 8 32 33 34 53 9
75 -27 25 -47 21 -76 -14z"/>
</g>
</svg>
