<?xml version="1.0" standalone="no"?>
<!DOCTYPE svg PUBLIC "-//W3C//DTD SVG 20010904//EN"
 "http://www.w3.org/TR/2001/REC-SVG-20010904/DTD/svg10.dtd">
<svg version="1.0" xmlns="http://www.w3.org/2000/svg"
 width="468pt" height="318pt" viewBox="0 0 468 318"
 preserveAspectRatio="xMidYMid meet">
<metadata>
Created by potrace 1.8, written by Peter Selinger 2001-2007
</metadata>
<g transform="translate(0,318) scale(0.161938,-0.161938)"
fill="#000000" stroke="none">
<path d="M245 1948 c-27 -15 -35 -28 -35 -58 0 -13 37 -192 82 -397 73 -332
80 -375 68 -397 -11 -22 -9 -46 24 -198 21 -95 40 -183 43 -195 5 -21 3 -21
-160 -25 -181 -3 -193 -7 -241 -72 -19 -25 -21 -44 -24 -219 -2 -168 0 -196
15 -227 24 -46 76 -80 124 -80 29 0 39 -4 39 -15 0 -9 11 -27 25 -40 l24 -25
221 0 c207 0 221 1 240 20 11 11 20 29 20 40 0 20 7 20 725 20 647 0 725 -2
725 -15 0 -9 11 -27 25 -40 l24 -25 218 0 c238 0 263 5 263 56 0 22 4 24 48
24 54 0 101 25 129 67 16 24 18 51 18 229 0 189 -1 204 -21 230 -48 65 -61 69
-235 72 -143 3 -159 5 -155 20 17 57 76 341 76 367 0 17 -5 36 -10 41 -8 8 16
132 75 403 81 369 85 394 71 417 -29 43 -99 44 -115 1 -5 -12 -45 -191 -91
-397 -63 -288 -86 -379 -101 -391 -26 -23 -31 -39 -79 -262 l-43 -197 -805 2
-805 3 -48 215 c-39 174 -52 218 -70 233 -18 15 -35 77 -106 405 -68 309 -89
391 -105 405 -23 20 -44 21 -73 5z m2505 -1573 l0 -165 -1305 0 -1305 0 0 165
0 165 1305 0 1305 0 0 -165z"/>
<path d="M390 430 c-25 -25 -26 -72 -1 -94 25 -23 93 -32 130 -17 54 23 61 94
12 120 -35 19 -118 14 -141 -9z"/>
<path d="M1615 415 c-14 -13 -25 -33 -25 -45 0 -11 11 -32 25 -45 35 -36 115
-36 150 0 14 13 25 34 25 45 0 12 -11 32 -25 45 -19 20 -34 25 -75 25 -41 0
-56 -5 -75 -25z"/>
<path d="M1882 430 c-46 -19 -48 -95 -3 -119 34 -19 106 -13 135 10 79 62 -27
150 -132 109z"/>
<path d="M2135 415 c-14 -13 -25 -33 -25 -45 0 -11 11 -32 25 -45 35 -36 115
-36 150 0 14 13 25 34 25 45 0 12 -11 32 -25 45 -19 20 -34 25 -75 25 -41 0
-56 -5 -75 -25z"/>
<path d="M2415 428 c-27 -15 -35 -28 -35 -60 0 -46 31 -68 95 -68 42 0 60 5
75 20 20 20 26 65 12 86 -21 32 -106 45 -147 22z"/>
</g>
</svg>
