<?xml version="1.0" standalone="no"?>
<!DOCTYPE svg PUBLIC "-//W3C//DTD SVG 20010904//EN"
 "http://www.w3.org/TR/2001/REC-SVG-20010904/DTD/svg10.dtd">
<svg version="1.0" xmlns="http://www.w3.org/2000/svg"
 width="468pt" height="527pt" viewBox="0 0 468 527"
 preserveAspectRatio="xMidYMid meet">
<metadata>
Created by potrace 1.8, written by Peter Selinger 2001-2007
</metadata>
<g transform="translate(0,527) scale(0.177947,-0.177947)"
fill="#000000" stroke="none">
<path d="M2513 2938 c-11 -13 -141 -326 -288 -695 l-267 -673 -539 0 c-463 0
-539 2 -539 14 0 31 -42 46 -130 46 -88 0 -130 -15 -130 -46 0 -10 -14 -14
-56 -14 -49 0 -59 4 -84 30 -27 29 -31 30 -115 30 -83 0 -88 -1 -117 -30 -26
-26 -37 -30 -86 -30 -67 0 -112 -23 -142 -72 -19 -32 -20 -52 -20 -708 0 -640
1 -677 19 -710 10 -19 34 -44 52 -55 33 -20 52 -20 1161 -20 l1127 0 28 21
c15 11 38 36 51 54 l22 33 0 671 c0 748 3 715 -69 763 -31 21 -46 23 -159 23
-114 0 -124 2 -119 18 2 9 120 306 261 660 141 354 256 652 256 662 0 24 -37
50 -70 50 -15 0 -36 -10 -47 -22z m-188 -2148 l0 -645 -1097 -3 -1098 -2 0
643 c0 354 3 647 7 650 3 4 497 6 1097 5 l1091 -3 0 -645z"/>
<path d="M255 1346 c-12 -9 -19 -26 -19 -49 0 -72 -80 -67 980 -67 853 0 954
2 968 16 25 24 24 68 -1 97 -15 16 -74 17 -963 17 -790 0 -949 -2 -965 -14z"/>
<path d="M1270 1010 c-29 -29 -26 -74 7 -100 26 -20 33 -21 396 -18 352 3 369
4 383 22 20 28 17 73 -6 96 -19 19 -33 20 -390 20 -357 0 -371 -1 -390 -20z"/>
<path d="M1116 818 c-9 -12 -16 -32 -16 -43 0 -11 7 -31 16 -43 l15 -22 517 0
c284 0 522 4 529 8 32 20 32 94 0 114 -7 4 -245 8 -529 8 l-517 0 -15 -22z"/>
<path d="M1126 639 c-32 -25 -35 -70 -6 -99 19 -19 33 -20 529 -20 480 0 510
1 532 18 31 26 31 78 0 104 -22 17 -52 18 -526 18 -493 0 -503 0 -529 -21z"/>
<path d="M1270 450 c-27 -27 -25 -66 5 -95 l24 -25 359 0 c348 0 360 1 386 21
32 25 35 70 6 99 -19 19 -33 20 -390 20 -357 0 -371 -1 -390 -20z"/>
</g>
</svg>
