<?xml version="1.0" encoding="UTF-8" standalone="no"?>
<svg width="400px" height="300px" viewBox="-200 -150 400 300" version="1.1" xmlns="http://www.w3.org/2000/svg" xmlns:xlink="http://www.w3.org/1999/xlink" stroke="none" fill="#000000">
<rect x="-180" y="-100" width="360" height="20" rx="10" ry="10"/>
<rect x="-180" y="80" width="360" height="20" rx="10" ry="10"/>
<rect x="-180" y="-100" width="20" height="200" rx="10" ry="10"/>
<rect x="160" y="-100" width="20" height="200" rx="10" ry="10"/>
<g id="it_swap_pins">
<rect id="it_swap_pin" x="-150" y="100" width="20" height="40"/>
<use xlink:href="#it_swap_pin" transform="translate(40,0)"/>
<use xlink:href="#it_swap_pin" transform="translate(80,0)"/>
<use xlink:href="#it_swap_pin" transform="translate(120,0)"/>
<use xlink:href="#it_swap_pin" transform="translate(160,0)"/>
<use xlink:href="#it_swap_pin" transform="translate(200,0)"/>
<use xlink:href="#it_swap_pin" transform="translate(240,0)"/>
<use xlink:href="#it_swap_pin" transform="translate(280,0)"/>
<rect x="70" y="-60" height="120" width="20" rx="10" ry="10"/>
<rect x="-10" y="-10" height="70" width="20" rx="10" ry="10" transform="translate(80,-50) rotate(45)"/>
<rect x="-10" y="-10" height="70" width="20" rx="10" ry="10" transform="translate(80,-50) rotate(-45)"/>
</g>
<use xlink:href="#it_swap_pins" transform="rotate(180)"/>
</svg>
