<?xml version="1.0" standalone="no"?>
<!DOCTYPE svg PUBLIC "-//W3C//DTD SVG 20010904//EN"
 "http://www.w3.org/TR/2001/REC-SVG-20010904/DTD/svg10.dtd">
<svg version="1.0" xmlns="http://www.w3.org/2000/svg"
 width="468pt" height="472pt" viewBox="0 0 468 472"
 preserveAspectRatio="xMidYMid meet">
<metadata>
Created by potrace 1.8, written by Peter Selinger 2001-2007
</metadata>
<g transform="translate(0,472) scale(0.157576,-0.157576)"
fill="#000000" stroke="none">
<path d="M2700 2981 c-96 -31 -161 -103 -246 -276 -150 -306 -259 -668 -373
-1240 -51 -257 -82 -457 -101 -650 -13 -128 -16 -450 -6 -513 l8 -42 -219 132
c-1152 700 -1073 650 -1073 685 0 31 2 33 33 33 55 0 77 23 77 81 0 81 -14 89
-159 85 -116 -2 -120 -1 -130 21 -13 29 -46 37 -113 26 -42 -7 -55 -13 -64
-33 -14 -31 8 -467 25 -499 10 -18 21 -21 80 -21 103 0 105 4 99 188 -3 87 -2
129 2 102 5 -25 9 -66 9 -91 1 -60 23 -81 82 -77 42 2 77 -18 764 -436 657
-401 724 -440 771 -444 67 -6 112 10 168 59 165 145 367 709 510 1419 173 866
165 1377 -23 1475 -36 18 -91 26 -121 16z m87 -181 c36 -72 46 -174 40 -380
-25 -776 -346 -2014 -581 -2239 -44 -42 -65 -42 -92 -3 -37 54 -48 131 -48
337 0 271 29 518 105 905 101 513 190 830 315 1118 78 182 176 319 222 310 10
-2 27 -23 39 -48z"/>
<path d="M466 2948 c-8 -18 -24 -65 -36 -103 l-23 -71 30 -132 30 -133 -30
-94 -30 -94 30 -131 30 -131 -30 -98 c-16 -55 -27 -106 -24 -115 9 -22 55 -32
73 -15 7 8 29 61 49 118 l34 103 -31 130 -30 131 29 97 30 96 -30 133 -30 133
28 89 c32 99 27 119 -27 119 -23 0 -32 -6 -42 -32z"/>
<path d="M231 2866 c-6 -7 -26 -60 -44 -117 l-33 -104 28 -115 c15 -63 28
-126 28 -139 0 -14 -12 -62 -27 -108 l-27 -83 18 -83 c9 -45 22 -106 29 -134
10 -48 9 -61 -16 -136 -35 -108 -35 -135 0 -143 14 -4 33 -3 42 3 9 5 31 54
49 109 37 109 37 108 -5 301 l-17 81 29 92 c26 83 28 95 18 143 -7 29 -20 89
-29 134 l-18 83 27 83 c30 92 33 117 15 135 -16 16 -53 15 -67 -2z"/>
<path d="M681 2862 c-7 -14 -1 -45 21 -116 l31 -98 -30 -130 -30 -130 30 -96
30 -97 -28 -120 c-15 -66 -27 -130 -27 -141 -1 -34 62 -211 78 -225 21 -17 68
0 72 27 2 12 -10 62 -26 111 l-29 91 30 132 30 133 -30 93 -31 92 31 133 30
132 -33 101 c-18 56 -37 107 -42 114 -16 19 -66 15 -77 -6z"/>
<path d="M27 1623 c-25 -29 -26 -73 -1 -97 14 -14 70 -16 472 -16 251 0 462 4
468 8 24 16 34 50 23 79 -5 15 -16 31 -22 35 -7 4 -217 8 -468 8 -422 0 -457
-1 -472 -17z"/>
</g>
</svg>
