<?xml version="1.0" standalone="no"?>
<!DOCTYPE svg PUBLIC "-//W3C//DTD SVG 20010904//EN"
 "http://www.w3.org/TR/2001/REC-SVG-20010904/DTD/svg10.dtd">
<svg version="1.0" xmlns="http://www.w3.org/2000/svg"
 width="468pt" height="210pt" viewBox="0 0 468 210"
 preserveAspectRatio="xMidYMid meet">
<metadata>
Created by potrace 1.8, written by Peter Selinger 2001-2007
</metadata>
<g transform="translate(0,210) scale(0.157576,-0.157576)"
fill="#000000" stroke="none">
<path d="M80 1311 c-19 -10 -45 -36 -57 -57 l-23 -39 0 -545 c0 -608 -2 -590
69 -637 l34 -23 1381 0 c1351 0 1382 0 1413 20 71 43 68 13 71 625 l3 551 -23
43 c-14 26 -38 51 -58 62 -33 18 -89 19 -1405 19 -1315 0 -1372 -1 -1405 -19z
m2748 -643 l2 -528 -1345 0 -1345 0 0 530 0 530 1343 -2 1342 -3 3 -527z"/>
<path d="M283 1070 c-45 -18 -47 -32 -39 -412 4 -197 9 -365 12 -372 10 -25
59 -39 86 -25 12 6 26 17 30 23 4 6 8 178 8 382 0 341 -1 372 -17 386 -25 22
-54 28 -80 18z"/>
<path d="M2622 1070 c-42 -17 -45 -44 -37 -419 3 -194 9 -359 11 -366 3 -7 18
-18 34 -25 29 -12 65 -2 82 24 4 6 8 178 8 382 0 341 -1 372 -17 386 -25 22
-54 28 -81 18z"/>
<path d="M1515 991 c-50 -21 -60 -47 -60 -153 l0 -100 33 -29 32 -29 460 0
460 0 32 29 33 29 0 102 0 102 -33 29 -32 29 -453 -1 c-248 0 -461 -4 -472 -8z"/>
<path d="M1171 827 c-49 -29 -64 -96 -37 -162 20 -46 77 -65 125 -41 17 9 37
29 42 44 16 40 5 120 -18 143 -25 25 -81 33 -112 16z m64 -102 c0 -33 -3 -40
-20 -40 -15 0 -21 8 -23 28 -5 39 5 59 25 55 14 -2 18 -13 18 -43z"/>
<path d="M1491 608 c-37 -20 -48 -64 -24 -97 l20 -26 499 -3 c499 -2 499 -2
517 19 23 29 22 72 -4 95 -20 18 -45 19 -503 22 -369 1 -487 -1 -505 -10z"/>
<path d="M1192 564 c-24 -17 -30 -62 -10 -82 30 -30 98 -1 98 41 0 20 -34 57
-53 57 -7 0 -23 -7 -35 -16z"/>
<path d="M1491 447 c-37 -19 -48 -63 -24 -96 l20 -26 496 -3 c486 -2 497 -2
517 18 29 29 26 74 -6 99 -26 21 -36 21 -503 21 -358 0 -482 -3 -500 -13z"/>
<path d="M1198 396 c-15 -8 -24 -22 -26 -43 -6 -65 88 -83 104 -19 12 50 -31
85 -78 62z"/>
</g>
</svg>
