<?xml version="1.0" standalone="no"?>
<!DOCTYPE svg PUBLIC "-//W3C//DTD SVG 20010904//EN"
 "http://www.w3.org/TR/2001/REC-SVG-20010904/DTD/svg10.dtd">
<svg version="1.0" xmlns="http://www.w3.org/2000/svg"
 width="468pt" height="529pt" viewBox="0 0 468 529"
 preserveAspectRatio="xMidYMid meet">
<metadata>
Created by potrace 1.8, written by Peter Selinger 2001-2007
</metadata>
<g transform="translate(0,529) scale(0.176604,-0.176604)"
fill="#000000" stroke="none">
<path d="M2380 2981 c-96 -31 -161 -103 -246 -276 -150 -306 -259 -668 -373
-1240 -51 -257 -82 -457 -101 -650 -13 -128 -16 -450 -6 -513 l8 -42 -219 132
c-1152 700 -1073 650 -1073 685 0 31 2 33 33 33 55 0 77 23 77 81 0 81 -14 89
-159 85 -116 -2 -120 -1 -130 21 -13 29 -46 37 -113 26 -42 -7 -55 -13 -64
-33 -14 -31 8 -467 25 -499 10 -18 21 -21 80 -21 103 0 105 4 99 188 -3 87 -2
129 2 102 5 -25 9 -66 9 -91 1 -60 23 -81 82 -77 42 2 77 -18 764 -436 657
-401 724 -440 771 -444 67 -6 112 10 168 59 165 145 367 709 510 1419 173 866
165 1377 -23 1475 -36 18 -91 26 -121 16z m87 -181 c36 -72 46 -174 40 -380
-25 -776 -346 -2014 -581 -2239 -44 -42 -65 -42 -92 -3 -37 54 -48 131 -48
337 0 271 29 518 105 905 101 513 190 830 315 1118 78 182 176 319 222 310 10
-2 27 -23 39 -48z"/>
</g>
</svg>
