<?xml version="1.0" standalone="no"?>
<!DOCTYPE svg PUBLIC "-//W3C//DTD SVG 20010904//EN"
 "http://www.w3.org/TR/2001/REC-SVG-20010904/DTD/svg10.dtd">
<svg version="1.0" xmlns="http://www.w3.org/2000/svg"
 width="468pt" height="399pt" viewBox="0 0 468 399"
 preserveAspectRatio="xMidYMid meet">
<metadata>
Created by potrace 1.8, written by Peter Selinger 2001-2007
</metadata>
<g transform="translate(0,399) scale(0.158108,-0.158108)"
fill="#000000" stroke="none">
<path d="M750 2499 c-359 -31 -605 -66 -667 -96 -71 -33 -73 -42 -73 -375 l0
-296 27 -33 c48 -57 62 -59 400 -59 192 0 323 4 348 11 81 22 135 88 165 199
7 25 18 57 26 73 l15 27 494 0 c477 0 495 -1 505 -19 5 -11 21 -56 36 -101 20
-65 34 -91 67 -124 64 -63 83 -66 436 -66 337 0 353 2 401 55 l25 27 3 301 c2
282 1 304 -17 333 -10 17 -34 38 -54 47 -65 31 -336 69 -691 97 -151 12 -1307
11 -1446 -1z m1570 -143 c189 -18 454 -54 487 -67 l23 -9 0 -250 0 -250 -312
0 c-277 0 -313 2 -330 17 -10 9 -30 53 -43 99 -30 97 -57 140 -105 168 -34 20
-48 21 -555 21 -507 0 -521 -1 -555 -21 -46 -26 -76 -73 -101 -154 -11 -36
-28 -80 -39 -98 l-20 -32 -315 0 -315 0 0 250 0 250 25 10 c59 22 529 74 755
84 47 2 344 2 660 0 424 -2 618 -7 740 -18z"/>
<path d="M1075 1760 c-27 -11 -61 -49 -74 -83 -6 -16 -11 -64 -11 -108 l0 -79
-173 0 c-166 0 -174 -1 -208 -24 -20 -14 -41 -37 -48 -53 -8 -21 -11 -200 -9
-680 l3 -653 38 -37 37 -38 858 -3 859 -2 34 23 c72 48 69 19 69 725 0 685 2
659 -55 712 -26 25 -30 25 -216 28 l-189 3 0 86 c0 99 -16 143 -65 173 -31 19
-48 20 -431 19 -220 0 -408 -4 -419 -9z m783 -192 l-3 -73 -362 -3 -363 -2 0
75 0 75 365 0 366 0 -3 -72z m452 -823 l0 -615 -812 2 -813 3 -3 613 -2 612
815 0 815 0 0 -615z"/>
<path d="M945 1185 l-25 -24 0 -414 c0 -404 1 -415 21 -441 l20 -26 525 0
c335 0 532 4 544 10 35 19 40 74 40 450 0 372 -5 435 -36 457 -14 10 -132 13
-541 13 l-524 0 -24 -25z m305 -180 l0 -65 -100 0 -100 0 0 65 0 65 100 0 100
0 0 -65z m340 0 l0 -65 -100 0 -100 0 0 65 0 65 100 0 100 0 0 -65z m340 0 l0
-65 -100 0 -100 0 0 65 0 65 100 0 100 0 0 -65z m-680 -260 l0 -65 -100 0
-100 0 0 65 0 65 100 0 100 0 0 -65z m340 0 l0 -65 -100 0 -100 0 0 65 0 65
100 0 100 0 0 -65z m340 0 l0 -65 -100 0 -100 0 0 65 0 65 100 0 100 0 0 -65z
m-680 -265 l0 -60 -100 0 -100 0 0 60 0 60 100 0 100 0 0 -60z m340 0 l0 -60
-100 0 -100 0 0 60 0 60 100 0 100 0 0 -60z m340 0 l0 -60 -100 0 -100 0 0 60
0 60 100 0 100 0 0 -60z"/>
</g>
</svg>
