<?xml version="1.0" standalone="no"?>
<!DOCTYPE svg PUBLIC "-//W3C//DTD SVG 20010904//EN"
 "http://www.w3.org/TR/2001/REC-SVG-20010904/DTD/svg10.dtd">
<svg version="1.0" xmlns="http://www.w3.org/2000/svg"
 width="468pt" height="429pt" viewBox="0 0 468 429"
 preserveAspectRatio="xMidYMid meet">
<metadata>
Created by potrace 1.8, written by Peter Selinger 2001-2007
</metadata>
<g transform="translate(0,429) scale(0.158108,-0.158108)"
fill="#000000" stroke="none">
<path d="M358 2668 c-108 -116 -203 -266 -261 -414 -159 -398 -109 -830 136
-1194 61 -90 166 -200 191 -200 10 0 31 13 47 30 37 36 33 57 -22 117 -116
127 -222 321 -265 488 -32 124 -44 342 -24 462 36 224 135 438 277 593 60 67
67 83 48 119 -28 56 -74 55 -127 -1z"/>
<path d="M2492 2687 c-35 -37 -28 -66 33 -136 140 -160 232 -345 271 -548 21
-106 23 -307 5 -413 -37 -208 -135 -411 -276 -569 -65 -73 -70 -109 -23 -144
40 -30 68 -16 140 68 305 362 396 837 243 1265 -58 161 -166 338 -276 452 -52
55 -83 61 -117 25z"/>
<path d="M629 2533 c-39 -10 -170 -188 -224 -305 -138 -300 -133 -627 15 -924
57 -114 172 -264 213 -278 37 -13 81 19 85 62 3 25 -6 41 -45 84 -308 340
-306 871 3 1219 51 57 56 88 19 124 -24 24 -33 27 -66 18z"/>
<path d="M2282 2530 c-20 -8 -42 -45 -42 -70 0 -5 22 -35 48 -67 162 -196 232
-380 232 -613 0 -232 -70 -418 -232 -613 -26 -32 -48 -68 -48 -78 0 -26 43
-69 69 -69 28 0 81 49 139 128 104 140 167 292 197 472 51 301 -53 647 -258
864 -54 57 -65 62 -105 46z"/>
<path d="M803 2323 c-52 -56 -118 -161 -147 -234 -110 -278 -54 -603 141 -807
43 -45 55 -53 75 -47 59 18 79 83 37 121 -45 40 -119 167 -145 247 -22 67 -27
101 -27 187 0 166 40 283 142 410 57 71 64 107 29 140 -33 31 -65 25 -105 -17z"/>
<path d="M2055 2335 c-36 -35 -31 -58 25 -128 165 -204 195 -461 81 -692 -22
-44 -60 -104 -85 -133 -25 -30 -46 -63 -46 -73 0 -53 52 -89 95 -66 33 17 107
110 148 187 60 109 89 226 90 360 1 175 -45 322 -148 465 -76 106 -115 126
-160 80z"/>
<path d="M990 2073 c-131 -148 -132 -382 -3 -540 39 -49 79 -57 113 -23 28 28
25 63 -11 113 -46 63 -60 105 -61 177 0 76 11 107 58 172 37 53 42 82 18 116
-25 36 -75 30 -114 -15z"/>
<path d="M1860 2088 c-26 -29 -25 -60 4 -95 62 -74 89 -178 67 -260 -6 -22
-29 -68 -51 -101 -46 -69 -49 -90 -17 -120 36 -34 69 -28 112 19 129 143 129
395 0 538 -43 48 -82 54 -115 19z"/>
<path d="M1319 1975 c-43 -24 -59 -71 -59 -179 0 -142 26 -189 113 -203 l37
-6 0 -777 c0 -740 1 -778 18 -793 23 -21 61 -22 90 -1 l22 15 0 778 0 778 41
7 c57 9 96 39 110 85 6 21 9 82 7 140 l-3 103 -37 34 -38 34 -137 0 c-100 -1
-145 -5 -164 -15z m241 -180 l0 -65 -80 0 -80 0 0 65 0 65 80 0 80 0 0 -65z"/>
</g>
</svg>
