<?xml version="1.0" standalone="no"?>
<!DOCTYPE svg PUBLIC "-//W3C//DTD SVG 20010904//EN"
 "http://www.w3.org/TR/2001/REC-SVG-20010904/DTD/svg10.dtd">
<svg version="1.0" xmlns="http://www.w3.org/2000/svg"
 width="435pt" height="648pt" viewBox="0 0 435 648"
 preserveAspectRatio="xMidYMid meet">
<metadata>
Created by potrace 1.8, written by Peter Selinger 2001-2007
</metadata>
<g transform="translate(0,648) scale(0.219661,-0.219661)"
fill="#000000" stroke="none">
<path d="M369 2881 c-84 -87 -165 -208 -228 -342 -151 -317 -176 -686 -66
-1014 58 -178 175 -376 298 -509 57 -61 99 -73 129 -38 40 45 34 61 -68 180
-112 130 -205 315 -250 496 -34 138 -43 358 -20 501 38 230 151 466 308 640
62 69 67 88 29 125 -16 17 -38 30 -48 30 -10 0 -48 -31 -84 -69z"/>
<path d="M572 2682 c-142 -166 -230 -361 -262 -587 -43 -305 61 -641 275 -882
38 -44 52 -53 79 -53 34 0 59 20 70 56 5 16 -11 43 -69 115 -88 110 -164 255
-197 379 -20 73 -23 108 -22 250 0 137 4 179 22 245 32 118 111 267 193 369
44 55 72 98 72 113 0 35 -31 63 -69 63 -28 0 -41 -10 -92 -68z"/>
<path d="M843 2537 c-70 -38 -194 -251 -228 -390 -64 -262 12 -556 192 -745
46 -48 73 -53 108 -17 37 36 31 63 -25 130 -174 206 -210 498 -90 739 22 45
62 107 90 139 53 63 61 92 33 125 -24 27 -53 34 -80 19z"/>
<path d="M1016 2293 c-78 -83 -126 -211 -126 -338 0 -91 18 -164 61 -245 65
-122 133 -162 178 -104 30 38 26 55 -19 110 -59 71 -83 142 -83 239 0 97 24
168 83 239 45 55 49 72 19 110 -30 39 -69 35 -113 -11z"/>
<path d="M1540 2317 c-14 -7 -31 -27 -39 -45 -13 -28 -19 -32 -52 -32 -53 0
-79 -35 -79 -105 0 -71 26 -105 81 -105 72 0 40 -17 -43 -23 -73 -5 -85 -8
-105 -32 -32 -37 -32 -113 0 -151 21 -24 32 -28 105 -32 61 -3 82 -8 82 -18 0
-11 -19 -14 -80 -14 -84 0 -132 -15 -144 -45 -3 -9 -6 -36 -6 -60 0 -24 3 -51
6 -60 12 -30 60 -45 144 -45 l81 0 -6 -32 c-14 -85 -185 -1396 -185 -1424 0
-36 36 -80 72 -89 13 -3 130 -5 260 -3 233 3 237 3 262 27 14 13 28 35 31 50
3 14 -37 349 -90 743 -52 393 -95 718 -95 721 0 3 45 7 99 9 127 4 141 14 141
103 0 89 -14 99 -141 103 -72 3 -99 7 -99 17 0 9 25 14 82 17 73 4 84 8 105
32 32 38 32 114 0 151 -20 24 -32 27 -105 32 -83 6 -115 23 -43 23 55 0 81 34
81 105 0 70 -26 105 -79 105 -33 0 -39 4 -52 32 -18 41 -51 58 -114 58 -27 0
-61 -6 -75 -13z"/>
</g>
</svg>
