<?xml version="1.0" standalone="no"?>
<!DOCTYPE svg PUBLIC "-//W3C//DTD SVG 20010904//EN"
 "http://www.w3.org/TR/2001/REC-SVG-20010904/DTD/svg10.dtd">
<svg version="1.0" xmlns="http://www.w3.org/2000/svg"
 width="468pt" height="470pt" viewBox="0 0 468 470"
 preserveAspectRatio="xMidYMid meet">
<metadata>
Created by potrace 1.8, written by Peter Selinger 2001-2007
</metadata>
<g transform="translate(0,470) scale(0.158108,-0.158108)"
fill="#000000" stroke="none">
<path d="M1163 2950 c-32 -13 -53 -51 -60 -108 l-6 -50 -87 -4 c-105 -4 -130
-19 -130 -78 0 -119 98 -234 271 -319 121 -59 280 -103 438 -121 151 -18 438
-8 574 19 299 60 510 185 565 334 47 126 25 160 -107 166 -49 2 -89 8 -93 15
-4 6 -8 26 -8 44 0 40 -23 88 -49 102 -25 13 -1276 13 -1308 0z m1265 -122 l3
-38 -615 0 -616 0 0 33 c0 19 3 37 7 40 3 4 279 6 612 5 l606 -3 3 -37z m153
-197 c-44 -82 -276 -183 -496 -216 -148 -22 -407 -22 -545 0 -121 19 -269 64
-353 107 -57 28 -147 102 -147 119 0 5 341 9 775 9 758 0 775 0 766 -19z"/>
<path d="M903 2313 c-7 -2 -63 -70 -124 -149 -112 -146 -124 -174 -88 -197 34
-21 64 3 164 135 130 172 131 172 105 198 -20 20 -33 23 -57 13z"/>
<path d="M2671 2304 c-13 -10 -21 -23 -18 -34 2 -9 55 -83 117 -163 95 -125
116 -147 139 -147 31 0 51 16 51 41 0 16 -198 283 -228 307 -21 16 -33 15 -61
-4z"/>
<path d="M1322 2171 c-18 -11 -113 -318 -110 -351 4 -32 51 -51 73 -29 8 7 37
90 65 182 49 161 51 170 34 188 -18 20 -41 24 -62 10z"/>
<path d="M2248 2169 c-10 -5 -18 -17 -18 -26 0 -34 94 -329 111 -347 20 -22
66 -15 76 11 7 18 -81 316 -103 351 -15 24 -38 28 -66 11z"/>
<path d="M1769 2113 c-6 -17 -9 -94 -7 -191 3 -173 6 -181 54 -182 40 0 44 16
44 200 0 190 -3 200 -52 200 -22 0 -31 -6 -39 -27z"/>
<path d="M210 1661 c-56 -12 -108 -41 -141 -79 -65 -73 -64 -69 -64 -482 0
-415 1 -423 63 -492 37 -41 98 -78 129 -78 12 0 8 -6 -15 -20 -39 -24 -44 -65
-9 -80 12 -5 105 -24 205 -41 175 -29 185 -30 203 -13 24 21 25 60 2 72 -10 5
-97 22 -193 38 l-174 29 174 5 c197 6 227 15 290 86 60 69 60 67 60 484 0 412
0 414 -57 488 -15 20 -50 46 -82 60 -52 24 -68 27 -206 29 -82 1 -166 -2 -185
-6z m340 -146 c60 -31 61 -39 58 -436 l-3 -361 -33 -29 -32 -29 -166 0 -166 0
-34 34 -34 34 0 365 c0 357 0 365 21 391 12 15 31 32 43 36 11 5 88 9 169 9
114 1 155 -3 177 -14z"/>
<path d="M166 368 c-20 -28 -20 -42 -1 -58 18 -15 389 -82 409 -74 33 13 39
79 8 88 -25 7 -368 66 -386 66 -8 0 -22 -10 -30 -22z"/>
<path d="M189 262 c-20 -4 -41 -46 -33 -67 8 -19 40 -27 246 -61 176 -29 189
-28 201 16 11 41 -12 50 -208 83 -105 18 -197 31 -206 29z"/>
<path d="M240 111 c-14 -27 -13 -46 4 -60 17 -14 231 -52 250 -45 7 3 18 16
24 29 19 42 -9 61 -119 79 -125 21 -146 20 -159 -3z"/>
</g>
</svg>
