<?xml version="1.0" standalone="no"?>
<!DOCTYPE svg PUBLIC "-//W3C//DTD SVG 20010904//EN"
 "http://www.w3.org/TR/2001/REC-SVG-20010904/DTD/svg10.dtd">
<svg version="1.0" xmlns="http://www.w3.org/2000/svg"
 width="468pt" height="470pt" viewBox="0 0 468 470"
 preserveAspectRatio="xMidYMid meet">
<metadata>
Created by potrace 1.8, written by Peter Selinger 2001-2007
</metadata>
  <g
     transform="translate(0,470) scale(0.158108,-0.158108)"
     fill="#000000"
     stroke="none"
     id="g6">
    <path
       d="M163 2949 c-62 -24 -124 -89 -141 -147 -8 -27 -12 -156 -12 -414 l0 -374 26 -53 c28 -56 80 -101 142 -123 25 -9 92 -13 207 -13 157 1 174 2 217 24 26 13 62 39 79 59 64 72 64 72 67 465 4 406 0 436 -65 508 -69 76 -94 84 -293 86 -156 3 -181 1 -227 -18z m413 -153 l34 -34 0 -364 c0 -398 1 -391 -60 -423 -42 -22 -309 -21 -350 0 -59 30 -60 40 -60 420 0 460 -14 435 238 435 l164 0 34 -34z"
       id="path8" />
    <path
       d="M166 1798 c-38 -53 -20 -63 180 -98 234 -41 254 -40 254 21 0 34 6 32 -206 69 -202 36 -209 36 -228 8z"
       id="path10" />
    <path
       d="M171 1676 c-7 -8 -11 -27 -9 -43 l3 -28 180 -32 c211 -38 234 -38 255 -1 25 46 4 55 -191 88 -199 34 -222 35 -238 16z"
       id="path12" />
    <path
       d="M178 1559 c-20 -11 -24 -64 -6 -75 26 -16 391 -73 409 -63 34 18 35 73 1 83 -22 7 -363 66 -377 66 -5 0 -18 -5 -27 -11z"
       id="path14" />
    <path
       d="M250 1420 c-49 -49 -18 -73 126 -96 l117 -18 18 23 c42 51 22 67 -122 91 -63 11 -115 20 -116 20 -2 0 -12 -9 -23 -20z"
       id="path16" />
  </g>
  <g
     id="g5"
     style="fill:#000000;stroke:#000000;stroke-opacity:1"
     transform="matrix(2.0364892,0,0,2.0364892,-118.90489,-111.44113)" />
  <g
     transform="matrix(2.0364892,0,0,2.0364892,-136.92779,-132.03873)"
     id="g289"
     style="fill:#000000">
    <g
       id="g291"
       style="fill:#000000">
      <path
         style="fill:#000000"
         d="m 289.346,72.354 c -29.072,29.072 -58.146,58.145 -87.218,87.218 -39.752,39.752 -79.504,79.504 -119.257,119.256 -3.364,3.364 -6.729,6.729 -10.092,10.093 -1.369,1.369 0.752,3.49 2.121,2.121 29.073,-29.072 58.145,-58.146 87.218,-87.218 39.752,-39.752 79.504,-79.504 119.257,-119.257 3.363,-3.364 6.728,-6.728 10.092,-10.092 1.369,-1.369 -0.752,-3.49 -2.121,-2.121 l 0,0 z"
         id="path293"
         inkscape:connector-curvature="0" />
    </g>
  </g>
  <g
     transform="matrix(2.0364892,0,0,2.0364892,-136.92779,-132.03873)"
     id="g295"
     style="fill:#000000">
    <g
       id="g297"
       style="fill:#000000">
      <path
         style="fill:#000000"
         d="m 289.348,122.516 c -33.274,33.275 -66.55,66.549 -99.824,99.825 -22.032,22.032 -44.064,44.064 -66.096,66.097 -1.369,1.369 0.752,3.49 2.121,2.121 33.275,-33.274 66.55,-66.55 99.824,-99.824 22.032,-22.033 44.063,-44.065 66.096,-66.097 1.369,-1.37 -0.752,-3.491 -2.121,-2.122 l 0,0 z"
         id="path299"
         inkscape:connector-curvature="0" />
    </g>
  </g>
  <g
     transform="matrix(2.0364892,0,0,2.0364892,-136.92779,-132.03873)"
     id="g301"
     style="fill:#000000">
    <g
       id="g303"
       style="fill:#000000">
      <path
         style="fill:#000000"
         d="m 291.204,93.918 c -0.553,-0.553 -1.105,-1.106 -1.658,-1.659 -0.381,-0.38 -0.761,-0.76 -1.141,-1.14 -0.395,-0.395 -0.509,-0.303 -0.229,-0.648 0.981,-1.208 2.255,-2.254 3.355,-3.355 1.369,-1.369 -0.752,-3.49 -2.121,-2.121 -1.356,1.356 -4.405,3.459 -4.405,5.601 0,2.254 2.62,3.985 4.078,5.443 1.369,1.369 3.49,-0.752 2.121,-2.121 l 0,0 z"
         id="path305"
         inkscape:connector-curvature="0" />
    </g>
  </g>
  <g
     transform="matrix(2.0364892,0,0,2.0364892,-136.92779,-132.03873)"
     id="g307"
     style="fill:#000000">
    <g
       id="g309"
       style="fill:#000000">
      <g
         id="g311"
         style="fill:#000000">
        <path
           style="fill:#000000"
           d="m 287,92.283 c -0.481,0.481 -0.963,0.963 -1.444,1.444 -0.578,0.578 -0.578,1.543 0,2.121 0.578,0.578 1.543,0.578 2.121,0 0.481,-0.481 0.963,-0.963 1.444,-1.444 0.578,-0.578 0.578,-1.543 0,-2.121 -0.578,-0.578 -1.543,-0.578 -2.121,0 l 0,0 z"
           id="path313"
           inkscape:connector-curvature="0" />
      </g>
    </g>
  </g>
  <g
     transform="matrix(2.0364892,0,0,2.0364892,-136.92779,-132.03873)"
     id="g315"
     style="fill:#000000">
    <g
       id="g317"
       style="fill:#000000">
      <g
         id="g319"
         style="fill:#000000">
        <path
           style="fill:#000000"
           d="m 260.997,137.899 c -1.162,0.76 -3.618,-2.663 -4.64,-3.684 -1.878,-1.878 -3.757,-3.757 -5.636,-5.635 -0.665,-0.666 2.538,-3.192 3.184,-3.837 1.896,-1.896 3.791,-3.791 5.687,-5.686 0.53,-0.53 9.005,8.479 10.246,9.72 0.22,0.219 -8.142,8.354 -9.145,9.358 -1.369,1.369 0.752,3.49 2.121,2.121 2.464,-2.463 4.928,-4.927 7.393,-7.391 1.521,-1.522 4.073,-3.889 1.891,-6.071 -2.575,-2.575 -5.15,-5.15 -7.725,-7.725 -1.957,-1.957 -3.638,-4.327 -6.544,-2.423 -2.67,1.749 -4.935,4.865 -7.183,7.113 -1.538,1.538 -4.795,4.193 -2.453,6.535 2.407,2.407 4.814,4.814 7.221,7.221 2.063,2.062 3.979,5.014 7.097,2.975 1.612,-1.054 0.11,-3.653 -1.514,-2.591 z"
           id="path321"
           inkscape:connector-curvature="0" />
      </g>
    </g>
    <g
       id="g323"
       style="fill:#000000">
      <g
         id="g325"
         style="fill:#000000">
        <g
           id="g327"
           style="fill:#000000">
          <path
             style="fill:#000000"
             d="m 249.428,129.854 c -0.481,0.481 -0.963,0.963 -1.444,1.445 -0.578,0.578 -0.578,1.543 0,2.121 0.578,0.578 1.543,0.578 2.121,0 0.481,-0.481 0.963,-0.963 1.444,-1.445 0.578,-0.578 0.578,-1.543 0,-2.121 -0.578,-0.578 -1.543,-0.578 -2.121,0 l 0,0 z"
             id="path329"
             inkscape:connector-curvature="0" />
        </g>
      </g>
      <g
         id="g331"
         style="fill:#000000">
        <g
           id="g333"
           style="fill:#000000">
          <path
             style="fill:#000000"
             d="m 256.763,137.19 c -0.481,0.481 -0.963,0.962 -1.444,1.444 -0.578,0.578 -0.578,1.543 0,2.121 0.578,0.578 1.543,0.578 2.121,0 0.481,-0.481 0.963,-0.962 1.444,-1.444 0.578,-0.578 0.578,-1.543 0,-2.121 -0.578,-0.578 -1.543,-0.578 -2.121,0 l 0,0 z"
             id="path335"
             inkscape:connector-curvature="0" />
        </g>
      </g>
    </g>
    <g
       id="g337"
       style="fill:#000000">
      <g
         id="g339"
         style="fill:#000000">
        <g
           id="g341"
           style="fill:#000000">
          <path
             style="fill:#000000"
             d="m 262.676,116.605 c -0.481,0.481 -0.962,0.963 -1.443,1.445 -0.578,0.578 -0.578,1.543 0,2.121 0.577,0.578 1.544,0.578 2.121,0 0.481,-0.481 0.962,-0.963 1.443,-1.445 0.578,-0.578 0.578,-1.543 0,-2.121 -0.577,-0.578 -1.544,-0.578 -2.121,0 l 0,0 z"
             id="path343"
             inkscape:connector-curvature="0" />
        </g>
      </g>
      <g
         id="g345"
         style="fill:#000000">
        <g
           id="g347"
           style="fill:#000000">
          <path
             style="fill:#000000"
             d="m 270.012,123.94 c -0.481,0.481 -0.963,0.963 -1.444,1.445 -0.578,0.578 -0.578,1.543 0,2.121 0.578,0.578 1.543,0.578 2.121,0 0.481,-0.481 0.963,-0.963 1.444,-1.445 0.578,-0.578 0.578,-1.543 0,-2.121 -0.578,-0.578 -1.543,-0.578 -2.121,0 l 0,0 z"
             id="path349"
             inkscape:connector-curvature="0" />
        </g>
      </g>
    </g>
  </g>
  <g
     transform="matrix(2.0364892,0,0,2.0364892,-136.92779,-132.03873)"
     id="g351"
     style="fill:#000000">
    <g
       id="g353"
       style="fill:#000000">
      <g
         id="g355"
         style="fill:#000000">
        <path
           style="fill:#000000"
           d="m 223.426,175.472 c -1.163,0.76 -3.619,-2.664 -4.64,-3.685 -1.878,-1.878 -3.757,-3.757 -5.635,-5.636 -0.667,-0.667 2.536,-3.192 3.182,-3.837 1.896,-1.896 3.791,-3.791 5.687,-5.686 0.531,-0.531 9.006,8.479 10.247,9.72 0.218,0.217 -8.142,8.354 -9.145,9.358 -1.369,1.369 0.752,3.49 2.121,2.121 2.464,-2.464 4.928,-4.928 7.392,-7.392 1.521,-1.522 4.073,-3.889 1.892,-6.07 -2.575,-2.575 -5.15,-5.15 -7.725,-7.725 -1.958,-1.958 -3.637,-4.325 -6.545,-2.423 -2.67,1.747 -4.936,4.866 -7.183,7.113 -1.539,1.54 -4.793,4.192 -2.451,6.535 2.406,2.407 4.813,4.814 7.22,7.221 2.063,2.063 3.978,5.015 7.097,2.976 1.612,-1.053 0.11,-3.652 -1.514,-2.59 z"
           id="path357"
           inkscape:connector-curvature="0" />
      </g>
    </g>
    <g
       id="g359"
       style="fill:#000000">
      <g
         id="g361"
         style="fill:#000000">
        <g
           id="g363"
           style="fill:#000000">
          <path
             style="fill:#000000"
             d="m 211.855,167.426 c -0.481,0.481 -0.964,0.963 -1.445,1.444 -0.578,0.578 -0.578,1.543 0,2.121 0.578,0.578 1.543,0.578 2.121,0 0.481,-0.481 0.964,-0.963 1.445,-1.444 0.578,-0.578 0.578,-1.543 0,-2.121 -0.578,-0.578 -1.542,-0.577 -2.121,0 l 0,0 z"
             id="path365"
             inkscape:connector-curvature="0" />
        </g>
      </g>
      <g
         id="g367"
         style="fill:#000000">
        <g
           id="g369"
           style="fill:#000000">
          <path
             style="fill:#000000"
             d="m 219.191,174.762 c -0.481,0.481 -0.964,0.963 -1.445,1.444 -0.578,0.578 -0.578,1.543 0,2.121 0.578,0.578 1.543,0.578 2.121,0 0.481,-0.481 0.964,-0.963 1.445,-1.444 0.578,-0.578 0.578,-1.543 0,-2.121 -0.578,-0.578 -1.542,-0.578 -2.121,0 l 0,0 z"
             id="path371"
             inkscape:connector-curvature="0" />
        </g>
      </g>
    </g>
    <g
       id="g373"
       style="fill:#000000">
      <g
         id="g375"
         style="fill:#000000">
        <g
           id="g377"
           style="fill:#000000">
          <path
             style="fill:#000000"
             d="m 225.104,154.177 c -0.481,0.481 -0.963,0.962 -1.444,1.444 -0.578,0.578 -0.578,1.543 0,2.121 0.578,0.578 1.543,0.578 2.121,0 0.481,-0.481 0.963,-0.962 1.444,-1.444 0.578,-0.578 0.578,-1.543 0,-2.121 -0.578,-0.578 -1.542,-0.578 -2.121,0 l 0,0 z"
             id="path379"
             inkscape:connector-curvature="0" />
        </g>
      </g>
      <g
         id="g381"
         style="fill:#000000">
        <g
           id="g383"
           style="fill:#000000">
          <path
             style="fill:#000000"
             d="m 232.44,161.513 c -0.481,0.481 -0.963,0.962 -1.444,1.444 -0.578,0.578 -0.578,1.543 0,2.121 0.578,0.578 1.543,0.578 2.121,0 0.481,-0.481 0.963,-0.962 1.444,-1.444 0.578,-0.578 0.578,-1.543 0,-2.121 -0.578,-0.578 -1.542,-0.578 -2.121,0 l 0,0 z"
             id="path385"
             inkscape:connector-curvature="0" />
        </g>
      </g>
    </g>
  </g>
  <g
     transform="matrix(2.0364892,0,0,2.0364892,-136.92779,-132.03873)"
     id="g387"
     style="fill:#000000">
    <g
       id="g389"
       style="fill:#000000">
      <g
         id="g391"
         style="fill:#000000">
        <path
           style="fill:#000000"
           d="m 185.854,213.044 c -1.162,0.759 -3.618,-2.663 -4.64,-3.685 -1.878,-1.879 -3.757,-3.757 -5.635,-5.636 -0.666,-0.666 2.537,-3.192 3.182,-3.838 1.896,-1.896 3.791,-3.791 5.686,-5.687 0.53,-0.53 9.007,8.48 10.247,9.721 0.218,0.218 -8.141,8.354 -9.144,9.358 -1.369,1.369 0.752,3.49 2.121,2.121 2.464,-2.464 4.928,-4.929 7.392,-7.393 1.521,-1.521 4.072,-3.888 1.891,-6.069 -2.575,-2.575 -5.15,-5.15 -7.725,-7.726 -1.958,-1.958 -3.636,-4.324 -6.545,-2.423 -2.67,1.744 -4.935,4.866 -7.182,7.113 -1.539,1.539 -4.794,4.193 -2.452,6.535 2.407,2.407 4.814,4.814 7.221,7.222 2.063,2.063 3.977,5.013 7.096,2.975 1.613,-1.051 0.112,-3.65 -1.513,-2.588 z"
           id="path393"
           inkscape:connector-curvature="0" />
      </g>
    </g>
    <g
       id="g395"
       style="fill:#000000">
      <g
         id="g397"
         style="fill:#000000">
        <g
           id="g399"
           style="fill:#000000">
          <path
             style="fill:#000000"
             d="m 174.284,204.998 c -0.481,0.481 -0.963,0.963 -1.444,1.444 -0.578,0.578 -0.578,1.543 0,2.121 0.578,0.578 1.543,0.578 2.121,0 0.481,-0.481 0.963,-0.963 1.444,-1.444 0.578,-0.578 0.578,-1.543 0,-2.121 -0.578,-0.578 -1.544,-0.578 -2.121,0 l 0,0 z"
             id="path401"
             inkscape:connector-curvature="0" />
        </g>
      </g>
      <g
         id="g403"
         style="fill:#000000">
        <g
           id="g405"
           style="fill:#000000">
          <path
             style="fill:#000000"
             d="m 181.619,212.333 c -0.481,0.481 -0.962,0.963 -1.443,1.444 -0.578,0.578 -0.578,1.543 0,2.121 0.578,0.578 1.544,0.578 2.121,0 0.481,-0.481 0.962,-0.963 1.443,-1.444 0.578,-0.578 0.578,-1.543 0,-2.121 -0.578,-0.578 -1.544,-0.578 -2.121,0 l 0,0 z"
             id="path407"
             inkscape:connector-curvature="0" />
        </g>
      </g>
    </g>
    <g
       id="g409"
       style="fill:#000000">
      <g
         id="g411"
         style="fill:#000000">
        <g
           id="g413"
           style="fill:#000000">
          <path
             style="fill:#000000"
             d="m 187.533,191.749 c -0.481,0.481 -0.963,0.963 -1.444,1.444 -0.578,0.578 -0.578,1.543 0,2.121 0.578,0.578 1.543,0.578 2.121,0 0.481,-0.481 0.963,-0.963 1.444,-1.444 0.578,-0.578 0.578,-1.543 0,-2.121 -0.578,-0.578 -1.543,-0.578 -2.121,0 l 0,0 z"
             id="path415"
             inkscape:connector-curvature="0" />
        </g>
      </g>
      <g
         id="g417"
         style="fill:#000000">
        <g
           id="g419"
           style="fill:#000000">
          <path
             style="fill:#000000"
             d="m 194.869,199.084 c -0.481,0.481 -0.964,0.963 -1.445,1.444 -0.578,0.577 -0.578,1.544 0,2.121 0.578,0.578 1.543,0.578 2.121,0 0.481,-0.481 0.964,-0.963 1.445,-1.444 0.578,-0.577 0.578,-1.543 0,-2.121 -0.578,-0.578 -1.543,-0.578 -2.121,0 l 0,0 z"
             id="path421"
             inkscape:connector-curvature="0" />
        </g>
      </g>
    </g>
  </g>
  <g
     transform="matrix(2.0364892,0,0,2.0364892,-136.92779,-132.03873)"
     id="g423"
     style="fill:#000000">
    <g
       id="g425"
       style="fill:#000000">
      <g
         id="g427"
         style="fill:#000000">
        <path
           style="fill:#000000"
           d="m 148.282,250.615 c -1.163,0.761 -3.619,-2.663 -4.64,-3.685 -1.878,-1.879 -3.757,-3.757 -5.635,-5.636 -0.666,-0.666 2.537,-3.192 3.183,-3.838 1.896,-1.896 3.791,-3.79 5.687,-5.686 0.53,-0.53 9.005,8.479 10.246,9.72 0.218,0.219 -8.141,8.354 -9.144,9.358 -1.369,1.369 0.752,3.49 2.121,2.121 2.464,-2.464 4.928,-4.928 7.391,-7.392 1.522,-1.522 4.074,-3.889 1.892,-6.07 -2.575,-2.575 -5.15,-5.149 -7.725,-7.725 -1.957,-1.957 -3.637,-4.326 -6.544,-2.423 -2.67,1.747 -4.935,4.864 -7.183,7.112 -1.539,1.538 -4.794,4.193 -2.453,6.535 2.407,2.407 4.814,4.814 7.221,7.222 2.062,2.062 3.979,5.016 7.097,2.975 1.612,-1.052 0.11,-3.651 -1.514,-2.588 z"
           id="path429"
           inkscape:connector-curvature="0" />
      </g>
    </g>
    <g
       id="g431"
       style="fill:#000000">
      <g
         id="g433"
         style="fill:#000000">
        <g
           id="g435"
           style="fill:#000000">
          <path
             style="fill:#000000"
             d="m 136.712,242.57 c -0.481,0.481 -0.963,0.962 -1.444,1.443 -0.578,0.577 -0.578,1.543 0,2.121 0.578,0.578 1.543,0.578 2.121,0 0.481,-0.481 0.963,-0.962 1.444,-1.443 0.578,-0.577 0.578,-1.543 0,-2.121 -0.578,-0.578 -1.543,-0.578 -2.121,0 l 0,0 z"
             id="path437"
             inkscape:connector-curvature="0" />
        </g>
      </g>
      <g
         id="g439"
         style="fill:#000000">
        <g
           id="g441"
           style="fill:#000000">
          <path
             style="fill:#000000"
             d="m 144.048,249.905 c -0.482,0.481 -0.963,0.963 -1.445,1.444 -0.578,0.578 -0.578,1.543 0,2.121 0.578,0.578 1.543,0.578 2.121,0 0.482,-0.481 0.963,-0.963 1.445,-1.444 0.578,-0.578 0.578,-1.543 0,-2.121 -0.578,-0.578 -1.543,-0.578 -2.121,0 l 0,0 z"
             id="path443"
             inkscape:connector-curvature="0" />
        </g>
      </g>
    </g>
    <g
       id="g445"
       style="fill:#000000">
      <g
         id="g447"
         style="fill:#000000">
        <g
           id="g449"
           style="fill:#000000">
          <path
             style="fill:#000000"
             d="m 149.961,229.32 c -0.482,0.481 -0.963,0.963 -1.445,1.444 -0.578,0.578 -0.578,1.543 0,2.121 0.578,0.578 1.543,0.578 2.121,0 0.482,-0.481 0.963,-0.963 1.445,-1.444 0.578,-0.578 0.578,-1.543 0,-2.121 -0.577,-0.578 -1.543,-0.578 -2.121,0 l 0,0 z"
             id="path451"
             inkscape:connector-curvature="0" />
        </g>
      </g>
      <g
         id="g453"
         style="fill:#000000">
        <g
           id="g455"
           style="fill:#000000">
          <path
             style="fill:#000000"
             d="m 157.297,236.656 c -0.482,0.481 -0.963,0.962 -1.445,1.443 -0.578,0.577 -0.578,1.544 0,2.121 0.578,0.578 1.543,0.578 2.121,0 0.482,-0.481 0.963,-0.962 1.445,-1.443 0.578,-0.577 0.578,-1.544 0,-2.121 -0.578,-0.578 -1.543,-0.578 -2.121,0 l 0,0 z"
             id="path457"
             inkscape:connector-curvature="0" />
        </g>
      </g>
    </g>
  </g>
  <g
     transform="matrix(2.0364892,0,0,2.0364892,-136.92779,-132.03873)"
     id="g459"
     style="fill:#000000;fill-opacity:1">
    <g
       id="g461"
       style="fill:#000000;fill-opacity:1">
      <g
         id="g463"
         style="fill:#000000;fill-opacity:1">
        <path
           style="fill:#000000;fill-opacity:1"
           d="m 110.711,288.188 c -1.164,0.761 -3.618,-2.661 -4.641,-3.685 -1.878,-1.879 -3.757,-3.758 -5.636,-5.637 -0.665,-0.665 2.538,-3.19 3.184,-3.837 1.896,-1.896 3.791,-3.79 5.686,-5.686 0.53,-0.53 9.005,8.479 10.246,9.72 0.22,0.221 -8.139,8.354 -9.143,9.358 -1.369,1.369 0.752,3.49 2.121,2.121 2.464,-2.464 4.928,-4.928 7.392,-7.392 1.522,-1.522 4.072,-3.889 1.89,-6.07 -2.575,-2.575 -5.149,-5.149 -7.724,-7.725 -1.957,-1.957 -3.637,-4.326 -6.544,-2.423 -2.67,1.747 -4.934,4.864 -7.182,7.112 -1.538,1.538 -4.794,4.192 -2.453,6.534 2.407,2.407 4.814,4.815 7.221,7.223 2.063,2.063 3.979,5.016 7.098,2.975 1.61,-1.052 0.109,-3.651 -1.515,-2.588 z"
           id="path465"
           inkscape:connector-curvature="0" />
      </g>
    </g>
    <g
       id="g467"
       style="fill:#000000;fill-opacity:1">
      <g
         id="g469"
         style="fill:#000000;fill-opacity:1">
        <g
           id="g471"
           style="fill:#000000;fill-opacity:1">
          <path
             style="fill:#000000;fill-opacity:1"
             d="m 99.14,280.143 c -0.482,0.481 -0.963,0.962 -1.445,1.443 -0.578,0.577 -0.578,1.544 0,2.121 0.578,0.578 1.543,0.578 2.121,0 0.482,-0.481 0.963,-0.962 1.445,-1.443 0.578,-0.577 0.578,-1.544 0,-2.121 -0.578,-0.579 -1.543,-0.579 -2.121,0 l 0,0 z"
             id="path473"
             inkscape:connector-curvature="0" />
        </g>
      </g>
      <g
         id="g475"
         style="fill:#000000;fill-opacity:1">
        <g
           id="g477"
           style="fill:#000000;fill-opacity:1">
          <path
             style="fill:#000000;fill-opacity:1"
             d="m 106.476,287.479 c -0.481,0.48 -0.963,0.962 -1.444,1.442 -0.579,0.577 -0.578,1.544 0,2.121 0.578,0.578 1.543,0.577 2.121,0 0.481,-0.48 0.963,-0.962 1.444,-1.442 0.579,-0.577 0.578,-1.544 0,-2.121 -0.578,-0.579 -1.543,-0.578 -2.121,0 l 0,0 z"
             id="path479"
             inkscape:connector-curvature="0" />
        </g>
      </g>
    </g>
    <g
       id="g481"
       style="fill:#000000;fill-opacity:1">
      <g
         id="g483"
         style="fill:#000000;fill-opacity:1">
        <g
           id="g485"
           style="fill:#000000;fill-opacity:1">
          <path
             style="fill:#000000;fill-opacity:1"
             d="m 112.389,266.893 c -0.481,0.481 -0.963,0.963 -1.444,1.444 -0.578,0.578 -0.578,1.543 0,2.121 0.578,0.578 1.543,0.578 2.121,0 0.481,-0.481 0.963,-0.963 1.444,-1.444 0.578,-0.578 0.578,-1.543 0,-2.121 -0.577,-0.579 -1.543,-0.579 -2.121,0 l 0,0 z"
             id="path487"
             inkscape:connector-curvature="0" />
        </g>
      </g>
      <g
         id="g489"
         style="fill:#000000;fill-opacity:1">
        <g
           id="g491"
           style="fill:#000000;fill-opacity:1">
          <path
             style="fill:#000000;fill-opacity:1"
             d="m 119.724,274.229 c -0.481,0.481 -0.962,0.962 -1.443,1.443 -0.578,0.578 -0.578,1.543 0,2.121 0.578,0.578 1.543,0.578 2.121,0 0.481,-0.481 0.962,-0.962 1.443,-1.443 0.578,-0.578 0.578,-1.543 0,-2.121 -0.577,-0.579 -1.543,-0.579 -2.121,0 l 0,0 z"
             id="path493"
             inkscape:connector-curvature="0" />
        </g>
      </g>
    </g>
  </g>
  <g
     transform="matrix(2.0364892,0,0,2.0364892,-136.92779,-132.03873)"
     id="g495"
     style="fill:#000000">
    <g
       id="g497"
       style="fill:#000000">
      <path
         style="fill:#000000"
         d="m 275.035,108.659 c 1.681,1.681 3.362,3.362 5.043,5.043 1.369,1.369 3.49,-0.752 2.121,-2.121 -1.681,-1.681 -3.362,-3.362 -5.043,-5.043 -1.369,-1.369 -3.49,0.752 -2.121,2.121 l 0,0 z"
         id="path499"
         inkscape:connector-curvature="0" />
    </g>
  </g>
  <g
     transform="matrix(2.0364892,0,0,2.0364892,-136.92779,-132.03873)"
     id="g501"
     style="fill:#000000">
    <g
       id="g503"
       style="fill:#000000">
      <path
         style="fill:#000000"
         d="m 199.042,184.653 c 1.681,1.681 3.362,3.362 5.043,5.043 1.369,1.369 3.49,-0.752 2.121,-2.121 -1.681,-1.681 -3.362,-3.362 -5.043,-5.043 -1.369,-1.369 -3.49,0.752 -2.121,2.121 l 0,0 z"
         id="path505"
         inkscape:connector-curvature="0" />
    </g>
  </g>
  <g
     transform="matrix(2.0364892,0,0,2.0364892,-136.92779,-132.03873)"
     id="g507"
     style="fill:#000000">
    <g
       id="g509"
       style="fill:#000000">
      <path
         style="fill:#000000"
         d="m 123.912,259.784 c 1.681,1.681 3.362,3.361 5.043,5.042 1.369,1.369 3.491,-0.752 2.121,-2.121 -1.681,-1.681 -3.362,-3.361 -5.043,-5.042 -1.369,-1.369 -3.491,0.752 -2.121,2.121 l 0,0 z"
         id="path511"
         inkscape:connector-curvature="0" />
    </g>
  </g>
</svg>
