<?xml version="1.0" standalone="no"?>
<!DOCTYPE svg PUBLIC "-//W3C//DTD SVG 20010904//EN"
 "http://www.w3.org/TR/2001/REC-SVG-20010904/DTD/svg10.dtd">
<svg version="1.0" xmlns="http://www.w3.org/2000/svg"
 width="468pt" height="470pt" viewBox="0 0 468 470"
 preserveAspectRatio="xMidYMid meet">
<metadata>
Created by potrace 1.8, written by Peter Selinger 2001-2007
</metadata>
<g transform="translate(0,470) scale(0.158108,-0.158108)"
fill="#000000" stroke="none">
<path d="M163 2949 c-62 -24 -124 -89 -141 -147 -8 -27 -12 -156 -12 -414 l0
-374 26 -53 c28 -56 80 -101 142 -123 25 -9 92 -13 207 -13 157 1 174 2 217
24 26 13 62 39 79 59 64 72 64 72 67 465 4 406 0 436 -65 508 -69 76 -94 84
-293 86 -156 3 -181 1 -227 -18z m413 -153 l34 -34 0 -364 c0 -398 1 -391 -60
-423 -42 -22 -309 -21 -350 0 -59 30 -60 40 -60 420 0 460 -14 435 238 435
l164 0 34 -34z"/>
<path d="M166 1798 c-38 -53 -20 -63 180 -98 234 -41 254 -40 254 21 0 34 6
32 -206 69 -202 36 -209 36 -228 8z"/>
<path d="M171 1676 c-7 -8 -11 -27 -9 -43 l3 -28 180 -32 c211 -38 234 -38
255 -1 25 46 4 55 -191 88 -199 34 -222 35 -238 16z"/>
<path d="M178 1559 c-20 -11 -24 -64 -6 -75 26 -16 391 -73 409 -63 34 18 35
73 1 83 -22 7 -363 66 -377 66 -5 0 -18 -5 -27 -11z"/>
<path d="M250 1420 c-49 -49 -18 -73 126 -96 l117 -18 18 23 c42 51 22 67
-122 91 -63 11 -115 20 -116 20 -2 0 -12 -9 -23 -20z"/>
<path d="M2265 1025 c-11 -2 -46 -7 -78 -10 l-57 -6 2 -492 3 -491 35 -9 c19
-4 107 -9 195 -10 127 -1 173 2 225 17 181 50 290 149 343 309 27 85 29 266 3
352 -50 167 -162 273 -341 320 -56 15 -283 29 -330 20z m341 -159 c115 -52
181 -153 193 -295 19 -232 -72 -384 -258 -427 -31 -8 -104 -14 -163 -14 l-108
0 0 386 0 386 138 -4 c124 -4 143 -7 198 -32z"/>
<path d="M550 515 l0 -505 305 0 306 0 -3 62 -3 63 -232 3 -233 2 0 440 0 440
-70 0 -70 0 0 -505z"/>
<path d="M1300 515 l0 -505 330 0 330 0 0 60 0 60 -255 0 -255 0 0 175 0 175
210 0 210 0 0 60 0 60 -210 0 -210 0 0 145 0 145 233 2 232 3 3 63 3 62 -311
0 -310 0 0 -505z"/>
</g>
</svg>
