<?xml version="1.0" encoding="UTF-8" standalone="no"?>
<svg
   xmlns:dc="http://purl.org/dc/elements/1.1/"
   xmlns:cc="http://creativecommons.org/ns#"
   xmlns:rdf="http://www.w3.org/1999/02/22-rdf-syntax-ns#"
   xmlns:svg="http://www.w3.org/2000/svg"
   xmlns="http://www.w3.org/2000/svg"
   xmlns:sodipodi="http://sodipodi.sourceforge.net/DTD/sodipodi-0.dtd"
   xmlns:inkscape="http://www.inkscape.org/namespaces/inkscape"
   version="1.0"
   width="468pt"
   height="470pt"
   viewBox="0 0 468 470"
   preserveAspectRatio="xMidYMid meet"
   id="svg7360"
   sodipodi:docname="light_led.svg"
   inkscape:version="0.92.2 5c3e80d, 2017-08-06">
  <defs
     id="defs7364" />
  <sodipodi:namedview
     pagecolor="#ffffff"
     bordercolor="#666666"
     borderopacity="1"
     objecttolerance="10"
     gridtolerance="10"
     guidetolerance="10"
     inkscape:pageopacity="0"
     inkscape:pageshadow="2"
     inkscape:window-width="1291"
     inkscape:window-height="626"
     id="namedview7362"
     showgrid="false"
     inkscape:zoom="0.37659574"
     inkscape:cx="277.48023"
     inkscape:cy="313.33333"
     inkscape:window-x="0"
     inkscape:window-y="0"
     inkscape:window-maximized="0"
     inkscape:current-layer="svg7360" />
  <metadata
     id="metadata7340">
Created by potrace 1.8, written by Peter Selinger 2001-2007
<rdf:RDF>
  <cc:Work
     rdf:about="">
    <dc:format>image/svg+xml</dc:format>
    <dc:type
       rdf:resource="http://purl.org/dc/dcmitype/StillImage" />
  </cc:Work>
</rdf:RDF>
</metadata>
  <path
     style="fill:#000000;stroke:none;stroke-width:0.158108"
     inkscape:connector-curvature="0"
     id="path7344"
     d="m 26.245928,185.72182 c -6.008104,8.37972 -3.16216,9.9608 28.45944,15.49458 36.997272,6.48243 40.159432,6.32432 40.159432,-3.32027 0,-5.37567 0.948648,-5.05945 -32.570248,-10.90945 -31.937816,-5.69189 -33.044572,-5.69189 -36.048624,-1.26486 z" />
  <path
     style="fill:#000000;stroke:none;stroke-width:0.158108"
     inkscape:connector-curvature="0"
     id="path7346"
     d="m 27.036468,205.01099 c -1.106756,1.26487 -1.739188,4.26892 -1.422972,6.79865 l 0.474324,4.42702 28.45944,5.05946 c 33.360788,6.0081 36.997272,6.0081 40.31754,0.1581 3.9527,-7.27296 0.632432,-8.69594 -30.198628,-13.9135 -31.463492,-5.37567 -35.099976,-5.53378 -37.629704,-2.52973 z" />
  <path
     style="fill:#000000;stroke:none;stroke-width:0.158108"
     inkscape:connector-curvature="0"
     id="path7342"
     d="M 25.771604,3.739508 C 15.968908,7.5341 6.166212,17.81112 3.478376,26.981384 2.213512,31.2503 1.58108,51.646232 1.58108,92.438096 v 59.132394 l 4.110808,8.37972 c 4.427024,8.85405 12.64864,15.96891 22.451336,19.44729 3.9527,1.42297 14.545936,2.0554 32.728356,2.0554 24.822956,-0.15811 27.510792,-0.31622 34.309436,-3.79459 4.110808,-2.05541 9.802694,-6.16621 12.490534,-9.32837 10.11891,-11.38378 10.11891,-11.38378 10.59323,-73.520224 0.63244,-64.191848 0,-68.935088 -10.27702,-80.318864 C 97.078312,2.474644 93.125612,1.20978 61.66212,0.893564 36.997272,0.41924 33.044572,0.735456 25.771604,3.739508 Z m 65.298604,24.190524 5.375672,5.375672 v 57.551312 c 0,62.926984 0.158108,61.820224 -9.48648,66.879684 -6.640536,3.47838 -48.855372,3.32027 -55.3378,0 -9.328372,-4.74324 -9.48648,-6.32432 -9.48648,-66.40536 0,-72.72968 -2.213512,-68.77698 37.629704,-68.77698 h 25.929712 z" />
  <path
     style="fill:#000000;stroke:none;stroke-width:0.158108"
     inkscape:connector-curvature="0"
     id="path7348"
     d="m 28.143224,223.50963 c -3.16216,1.73919 -3.794592,10.11891 -0.948648,11.8581 4.110808,2.52973 61.820228,11.54188 64.666172,9.9608 5.375672,-2.84594 5.53378,-11.54188 0.158108,-13.12296 -3.478376,-1.10676 -57.393204,-10.43513 -59.606716,-10.43513 -0.79054,0 -2.845944,0.79054 -4.268916,1.73919 z" />
  <path
     style="fill:#000000;stroke:none;stroke-width:0.158108"
     inkscape:connector-curvature="0"
     id="path7350"
     d="m 39.527,245.48664 c -7.747292,7.74729 -2.845944,11.54188 19.921608,15.17837 l 18.498636,2.84594 2.845944,-3.63648 c 6.640536,-8.06351 3.478376,-10.59324 -19.289176,-14.38783 -9.960804,-1.73919 -18.18242,-3.16216 -18.340528,-3.16216 -0.316216,0 -1.897296,1.42297 -3.636484,3.16216 z" />
  <path
     style="fill:#000000;stroke:none;stroke-width:0.158108"
     inkscape:connector-curvature="0"
     id="path7352"
     d="m 358.11462,307.9393 c -1.73919,0.31622 -7.27297,1.10676 -12.33242,1.58108 l -9.01216,0.94865 0.31622,77.78913 0.47432,77.63103 5.53378,1.42297 c 3.00405,0.63244 16.91756,1.42298 30.83106,1.58108 20.07972,0.15811 27.35268,-0.31621 35.5743,-2.68783 28.61755,-7.9054 45.85132,-23.55809 54.23104,-48.85537 4.26892,-13.43918 4.58514,-42.05673 0.47433,-55.65402 -7.9054,-26.40404 -25.6135,-43.16348 -53.91483,-50.59456 -8.85405,-2.37162 -44.74456,-4.58513 -52.17564,-3.16216 z m 53.91483,25.13917 c 18.18242,8.22162 28.61755,24.19053 30.51484,46.64186 3.00405,36.68106 -11.38377,60.71347 -40.79186,67.51212 -4.90135,1.26486 -16.44323,2.21351 -25.77161,2.21351 h -17.07566 v -61.02969 -61.02969 l 21.8189,0.63244 c 19.6054,0.63243 22.60945,1.10675 31.30539,5.05945 z" />
  <path
     style="fill:#000000;stroke:none;stroke-width:0.158108"
     inkscape:connector-curvature="0"
     id="path7354"
     d="m 86.9594,388.57438 v 79.84454 h 48.22294 48.38105 l -0.47433,-9.8027 -0.47432,-9.9608 -36.68106,-0.47432 -36.83916,-0.31622 V 378.29736 308.72984 H 98.02696 86.9594 Z" />
  <path
     style="fill:#000000;stroke:none;stroke-width:0.158108"
     inkscape:connector-curvature="0"
     id="path7356"
     d="m 205.5404,388.57438 v 79.84454 h 52.17564 52.17564 v -9.48648 -9.48648 H 269.57414 229.2566 v -27.6689 -27.6689 h 33.20268 33.20268 v -9.48648 -9.48648 H 262.45928 229.2566 v -22.92566 -22.92566 l 36.83916,-0.31622 36.68106,-0.47432 0.47432,-9.9608 0.47433,-9.8027 H 254.55388 205.5404 Z" />
</svg>
