<?xml version="1.0" standalone="no"?>
<!DOCTYPE svg PUBLIC "-//W3C//DTD SVG 20010904//EN"
 "http://www.w3.org/TR/2001/REC-SVG-20010904/DTD/svg10.dtd">
<svg version="1.0" xmlns="http://www.w3.org/2000/svg"
 width="468pt" height="468pt" viewBox="0 0 468 468"
 preserveAspectRatio="xMidYMid meet">
<metadata>
Created by potrace 1.8, written by Peter Selinger 2001-2007
</metadata>
<g transform="translate(0,468) scale(0.158108,-0.158108)"
fill="#000000" stroke="none">
<path d="M1510 2953 c-56 -21 -70 -96 -24 -132 15 -12 37 -21 50 -21 l24 0 -2
-817 -3 -817 -611 -391 c-336 -214 -619 -396 -628 -404 -20 -17 -21 -70 -2
-97 14 -18 32 -19 494 -22 l479 -3 12 -51 c17 -78 54 -133 109 -165 45 -27 54
-28 193 -31 170 -4 214 5 270 55 48 43 65 74 80 143 l11 50 467 0 c459 0 469
0 495 21 34 27 36 81 4 105 -13 9 -295 190 -628 403 l-605 386 -3 818 -2 817
24 0 c67 0 113 59 85 109 -24 42 -54 51 -169 50 -58 0 -112 -3 -120 -6z m634
-2238 l509 -325 -1029 0 -1029 0 70 45 c39 24 266 170 505 323 239 154 442
280 450 281 9 1 244 -145 524 -324z m-284 -480 c0 -32 -34 -96 -60 -115 -25
-18 -44 -20 -177 -20 -119 0 -153 3 -171 16 -26 18 -62 84 -62 114 0 20 5 20
235 20 201 0 235 -2 235 -15z"/>
<path d="M219 2941 c-86 -16 -156 -69 -190 -146 -17 -36 -19 -73 -19 -420 0
-361 1 -382 21 -425 11 -25 32 -58 47 -73 30 -32 92 -67 119 -67 13 -1 11 -4
-9 -15 -42 -23 -48 -78 -10 -89 10 -3 99 -19 199 -36 192 -33 215 -32 226 9
11 43 -12 53 -204 87 l-184 32 155 1 c85 1 173 6 195 12 63 18 118 62 150 121
l30 53 3 363 c3 409 0 436 -63 509 -61 71 -105 86 -274 89 -80 2 -167 -1 -192
-5z m362 -169 l29 -32 0 -361 c0 -246 -4 -367 -11 -382 -27 -53 -42 -57 -219
-57 -254 0 -240 -25 -240 428 0 226 4 350 11 371 22 63 53 72 237 69 l164 -3
29 -33z"/>
<path d="M176 1654 c-24 -23 -20 -63 7 -74 48 -20 379 -70 397 -60 35 19 36
74 2 84 -21 6 -366 66 -380 66 -6 0 -18 -7 -26 -16z"/>
<path d="M172 1528 c-16 -16 -15 -53 1 -66 7 -6 100 -26 205 -43 186 -31 193
-32 212 -14 23 21 26 48 6 64 -15 13 -329 71 -381 71 -17 0 -36 -5 -43 -12z"/>
<path d="M246 1388 c-20 -28 -20 -42 -2 -57 17 -15 231 -52 252 -44 37 14 41
77 6 87 -29 9 -196 36 -219 36 -12 0 -29 -10 -37 -22z"/>
</g>
</svg>
