<?xml version="1.0" standalone="no"?>
<!DOCTYPE svg PUBLIC "-//W3C//DTD SVG 20010904//EN"
 "http://www.w3.org/TR/2001/REC-SVG-20010904/DTD/svg10.dtd">
<svg version="1.0" xmlns="http://www.w3.org/2000/svg"
 width="468pt" height="468pt" viewBox="0 0 468 468"
 preserveAspectRatio="xMidYMid meet">
<metadata>
Created by potrace 1.8, written by Peter Selinger 2001-2007
</metadata>
<g transform="translate(0,468) scale(0.157576,-0.157576)"
fill="#000000" stroke="none">
<path d="M200 2955 c-63 -20 -123 -74 -149 -135 -21 -49 -22 -59 -19 -438 l3
-389 30 -49 c33 -53 119 -113 165 -115 23 -1 23 -2 -5 -8 -17 -4 -35 -17 -45
-33 -26 -47 -3 -57 187 -89 92 -16 178 -31 191 -34 30 -7 73 34 65 64 -6 25
-2 24 -208 60 l-160 28 160 4 c184 5 224 17 287 87 66 73 70 101 66 514 -3
350 -4 364 -25 403 -25 47 -74 95 -123 121 -30 16 -61 19 -205 21 -125 2 -182
-1 -215 -12z m396 -159 l34 -34 0 -367 0 -367 -34 -34 -34 -34 -156 0 c-121 0
-164 4 -186 15 -59 30 -60 40 -60 420 0 460 -14 435 238 435 l164 0 34 -34z"/>
<path d="M192 1678 c-13 -13 -16 -64 -4 -72 17 -10 366 -67 395 -64 39 4 61
48 36 73 -8 8 -90 27 -193 44 -199 35 -217 36 -234 19z"/>
<path d="M197 1552 c-24 -26 -21 -61 6 -72 12 -5 102 -23 200 -40 186 -31 209
-30 222 9 8 26 -4 50 -29 56 -24 6 -368 65 -377 65 -3 0 -13 -8 -22 -18z"/>
<path d="M282 1429 c-25 -10 -36 -42 -23 -67 8 -15 34 -23 118 -37 60 -9 120
-15 133 -13 32 4 51 51 29 73 -18 18 -229 54 -257 44z"/>
<path d="M2302 1388 c-9 -9 -12 -99 -12 -344 0 -289 2 -335 16 -348 21 -21 47
-20 67 2 15 17 17 55 17 345 0 283 -2 328 -16 341 -18 19 -55 21 -72 4z"/>
<path d="M1889 1297 c-7 -16 1 -98 36 -327 25 -168 48 -315 50 -326 9 -40 65
-42 85 -4 7 14 -2 103 -35 327 -26 169 -50 318 -55 331 -13 31 -66 31 -81 -1z"/>
<path d="M2713 1308 c-13 -17 -107 -643 -99 -663 3 -8 17 -20 31 -27 48 -22
53 -5 106 342 46 302 48 325 32 342 -19 21 -56 24 -70 6z"/>
<path d="M1922 408 c-15 -15 -15 -51 0 -66 9 -9 -202 -12 -949 -12 -815 0
-962 -2 -966 -14 -7 -18 1 -26 29 -26 18 0 22 -5 20 -32 0 -21 -7 -36 -18 -40
-10 -4 -20 -19 -24 -34 -5 -21 -2 -31 15 -45 21 -17 21 -18 3 -28 -28 -15 -35
-40 -17 -67 22 -34 78 -33 100 0 19 29 48 25 64 -10 l11 -24 195 0 195 0 11
24 c24 51 -23 81 -116 75 -60 -4 -207 4 -162 8 25 3 42 12 52 27 14 20 21 22
68 18 28 -2 59 -11 68 -18 19 -17 141 -19 170 -4 22 12 26 59 7 78 -7 7 -35
12 -64 12 -33 0 -56 5 -64 14 -6 8 -28 16 -47 18 -20 2 -38 9 -41 16 -3 9 27
12 126 12 l129 0 1 -41 c1 -23 7 -48 13 -55 14 -17 174 -20 184 -4 10 15 37
12 80 -10 22 -11 50 -20 63 -20 14 0 33 -11 44 -25 16 -21 28 -25 69 -25 66 0
82 10 104 64 18 44 21 46 60 46 23 0 47 6 54 13 10 10 14 9 22 -5 8 -15 24
-18 94 -18 73 0 86 3 98 21 8 11 13 29 10 40 -5 17 0 19 48 19 l54 0 0 -35 c0
-32 -3 -35 -28 -35 -15 0 -30 -7 -33 -15 -4 -10 -20 -15 -49 -15 -57 0 -92
-14 -100 -40 -8 -25 19 -60 45 -60 13 0 16 -6 12 -25 -8 -42 13 -55 90 -55 62
0 69 2 77 23 11 28 -8 61 -38 65 -11 2 -21 8 -21 13 0 5 39 9 86 9 101 0 124
9 124 50 0 22 5 30 18 30 9 0 29 7 45 14 25 14 27 13 27 -5 0 -11 5 -29 10
-40 10 -17 7 -19 -30 -19 -33 0 -42 -4 -52 -25 -10 -21 -18 -25 -58 -25 -51 0
-70 -13 -70 -46 0 -41 35 -54 147 -54 56 0 113 4 126 9 30 12 42 43 27 71 -10
18 -8 20 17 20 15 0 45 -3 66 -6 33 -6 37 -10 37 -35 0 -38 24 -49 109 -49 82
0 106 16 97 62 -5 26 -4 28 29 28 32 0 34 -2 26 -22 -5 -13 -5 -33 0 -45 8
-22 13 -23 144 -23 124 0 136 2 147 20 18 28 93 28 108 0 8 -15 21 -20 48 -20
20 0 42 4 48 8 36 24 12 82 -34 82 -16 0 -32 8 -40 20 -11 19 -10 20 21 20 47
0 65 24 61 82 -1 26 -5 52 -8 57 -4 5 -1 11 6 13 6 2 9 12 5 21 -5 15 -22 17
-113 17 -91 0 -105 2 -95 14 7 8 11 27 9 43 l-3 28 -410 3 c-311 2 -414 -1
-423 -10z m688 -127 c0 -87 20 -81 -271 -81 -293 0 -279 -4 -279 84 l0 46 275
0 275 0 0 -49z m-2320 -17 c0 -14 -9 -37 -20 -51 -11 -14 -20 -34 -20 -44 0
-14 -7 -19 -25 -19 -17 0 -25 5 -25 18 0 10 -6 26 -14 37 -7 11 -15 35 -18 53
l-5 32 64 0 c61 0 63 -1 63 -26z m870 10 c0 -12 -5 -14 -17 -9 -10 4 -47 11
-83 15 l-65 7 83 2 c69 1 82 -1 82 -15z m1698 4 c-3 -9 -30 -14 -76 -16 -60
-2 -72 0 -72 13 0 12 14 15 76 15 56 0 75 -3 72 -12z m-48 -124 c12 -12 8 -14
-31 -14 -33 0 -51 -6 -64 -20 -11 -13 -31 -20 -52 -20 l-35 0 31 26 c17 14 31
31 31 38 0 18 100 9 120 -10z m-2690 -44 c0 -5 -7 -7 -15 -4 -8 4 -15 8 -15
10 0 2 7 4 15 4 8 0 15 -4 15 -10z m1921 -8 c-7 -2 -18 1 -23 6 -8 8 -4 9 13
5 13 -4 18 -8 10 -11z"/>
<path d="M766 144 c-9 -8 -16 -22 -16 -30 0 -10 -12 -14 -40 -14 -48 0 -69
-27 -51 -67 10 -22 15 -24 83 -21 65 3 74 6 83 26 14 32 80 31 129 -3 29 -20
50 -25 94 -25 62 0 82 11 82 45 0 31 -19 45 -62 45 -21 0 -41 6 -45 14 -4 7
-22 21 -40 30 -44 22 -195 23 -217 0z"/>
<path d="M1342 130 c-17 -29 -19 -30 -94 -30 -68 0 -79 -3 -88 -20 -15 -28 -3
-59 27 -71 13 -5 70 -9 126 -9 132 0 149 10 144 81 -5 60 -20 79 -64 79 -27 0
-37 -6 -51 -30z"/>
</g>
</svg>
