<?xml version="1.0" standalone="no"?>
<!DOCTYPE svg PUBLIC "-//W3C//DTD SVG 20010904//EN"
 "http://www.w3.org/TR/2001/REC-SVG-20010904/DTD/svg10.dtd">
<svg version="1.0" xmlns="http://www.w3.org/2000/svg"
 width="468pt" height="472pt" viewBox="0 0 468 472"
 preserveAspectRatio="xMidYMid meet">
<metadata>
Created by potrace 1.8, written by Peter Selinger 2001-2007
</metadata>
<g transform="translate(0,472) scale(0.158644,-0.158644)"
fill="#000000" stroke="none">
<path d="M12 2943 c3 -15 20 -20 94 -27 l92 -9 52 -114 c49 -105 69 -129 85
-103 4 6 -14 55 -39 108 -25 54 -46 100 -46 103 0 2 55 1 123 -3 293 -16 780
-38 988 -44 l227 -7 43 -94 c23 -52 49 -97 56 -100 33 -13 30 17 -12 107 l-43
95 211 7 c117 4 290 12 385 17 231 15 292 14 293 -1 1 -23 84 -181 97 -186 27
-9 21 31 -17 114 -23 48 -40 88 -39 89 2 2 86 8 186 14 101 6 188 14 193 17 5
3 9 12 9 20 0 18 -10 18 -435 -6 -957 -53 -1151 -53 -2072 0 -429 25 -435 25
-431 3z"/>
<path d="M2686 2694 c-23 -22 -20 -42 14 -117 31 -69 54 -86 90 -67 28 15 25
46 -10 122 -35 78 -61 95 -94 62z"/>
<path d="M379 2679 c-23 -23 -21 -35 22 -121 29 -57 52 -74 83 -62 29 11 29
48 -2 117 -26 55 -53 87 -76 87 -3 0 -15 -9 -27 -21z"/>
<path d="M2503 2654 l-52 -25 -21 21 c-11 11 -26 20 -33 20 -20 0 -47 -33 -46
-56 0 -10 33 -89 73 -174 64 -138 75 -155 98 -158 30 -4 63 34 53 59 -4 10 15
25 60 47 98 48 101 72 27 219 -42 83 -67 90 -159 47z"/>
<path d="M201 2645 l-54 -26 -23 22 c-26 24 -58 19 -75 -12 -8 -16 3 -49 62
-177 39 -86 76 -163 81 -169 25 -31 78 -2 78 43 0 21 10 29 64 53 90 41 96 68
42 181 -58 121 -78 130 -175 85z"/>
<path d="M1756 2644 c-22 -22 -21 -30 19 -112 31 -66 37 -72 65 -72 22 0 33 6
41 23 9 19 5 36 -20 92 -18 38 -37 73 -44 77 -19 12 -44 9 -61 -8z"/>
<path d="M1583 2610 c-61 -28 -63 -28 -73 -9 -15 27 -56 24 -76 -6 -15 -24
-14 -30 58 -185 40 -89 81 -166 91 -171 28 -16 67 14 67 50 0 25 6 31 55 51
59 24 85 50 85 86 0 34 -70 172 -98 194 -31 25 -34 25 -109 -10z"/>
<path d="M2733 2444 c-3 -8 14 -56 37 -105 24 -51 39 -94 34 -98 -9 -9 -834
-56 -853 -50 -7 3 -34 51 -61 109 -45 97 -69 126 -84 101 -4 -6 14 -54 39
-107 30 -64 42 -100 35 -104 -33 -20 -647 -17 -1151 6 l-156 7 -56 121 c-53
114 -78 145 -90 113 -3 -7 17 -60 44 -118 40 -85 46 -105 33 -107 -9 -2 -98 1
-198 7 -268 16 -296 15 -296 -9 0 -11 3 -20 8 -20 4 0 171 -9 372 -20 798 -43
1092 -49 1507 -30 378 18 1032 58 1043 65 5 3 10 13 10 21 0 10 -12 14 -43 14
l-42 0 -52 110 c-50 107 -67 127 -80 94z"/>
<path d="M170 1650 c-72 -25 -133 -88 -154 -160 -23 -79 -23 -711 0 -790 21
-72 82 -135 154 -160 30 -11 46 -19 34 -20 -40 0 -73 -67 -43 -86 6 -4 98 -22
203 -40 170 -29 193 -31 214 -18 24 16 30 55 10 72 -7 5 -92 23 -188 40 l-175
30 137 1 c75 1 160 6 188 12 68 14 128 62 162 128 l28 53 0 383 0 383 -28 53
c-34 66 -94 114 -162 128 -28 6 -113 11 -188 11 -108 -1 -149 -5 -192 -20z
m388 -136 c50 -35 52 -48 52 -419 0 -374 -1 -384 -54 -419 -21 -13 -54 -16
-187 -16 l-161 0 -34 34 -34 34 0 367 0 367 34 34 34 34 164 0 c132 0 168 -3
186 -16z"/>
<path d="M165 366 c-12 -19 -14 -30 -6 -44 13 -24 11 -23 229 -58 193 -32 207
-30 207 27 l0 34 -180 32 c-221 39 -230 40 -250 9z"/>
<path d="M170 250 c-22 -22 -25 -37 -11 -59 13 -21 388 -85 419 -71 31 14 31
67 0 80 -17 7 -362 70 -384 70 -2 0 -13 -9 -24 -20z"/>
<path d="M252 124 c-24 -17 -29 -56 -9 -71 14 -11 180 -43 224 -43 36 0 53 16
53 51 0 32 -4 34 -123 54 -50 9 -99 18 -107 20 -9 3 -26 -2 -38 -11z"/>
</g>
</svg>
