<?xml version="1.0" encoding="UTF-8" standalone="no"?>
<!-- Generator: Adobe Illustrator 16.0.0, SVG Export Plug-In . SVG Version: 6.00 Build 0)  -->

<svg
   xmlns:dc="http://purl.org/dc/elements/1.1/"
   xmlns:cc="http://creativecommons.org/ns#"
   xmlns:rdf="http://www.w3.org/1999/02/22-rdf-syntax-ns#"
   xmlns:svg="http://www.w3.org/2000/svg"
   xmlns="http://www.w3.org/2000/svg"
   xmlns:sodipodi="http://sodipodi.sourceforge.net/DTD/sodipodi-0.dtd"
   xmlns:inkscape="http://www.inkscape.org/namespaces/inkscape"
   version="1.1"
   x="0px"
   y="0px"
   width="361px"
   height="361px"
   viewBox="0 0 361 361"
   style="enable-background:new 0 0 361 361;"
   xml:space="preserve"
   id="svg2"
   inkscape:version="0.48.2 r9819"
   sodipodi:docname="light_led_stripe_rgb.svg"><metadata
   id="metadata634"><rdf:RDF><cc:Work
       rdf:about=""><dc:format>image/svg+xml</dc:format><dc:type
         rdf:resource="http://purl.org/dc/dcmitype/StillImage" /></cc:Work></rdf:RDF></metadata><defs
   id="defs632" /><sodipodi:namedview
   pagecolor="#ffffff"
   bordercolor="#666666"
   borderopacity="1"
   objecttolerance="10"
   gridtolerance="10"
   guidetolerance="10"
   inkscape:pageopacity="0"
   inkscape:pageshadow="2"
   inkscape:window-width="779"
   inkscape:window-height="480"
   id="namedview630"
   showgrid="false"
   showguides="true"
   inkscape:guide-bbox="true"
   inkscape:zoom="0.65373961"
   inkscape:cx="-108.12884"
   inkscape:cy="180.5"
   inkscape:window-x="0"
   inkscape:window-y="0"
   inkscape:window-maximized="0"
   inkscape:current-layer="g5" />
<g
   id="light_x5F_led_x5F_stripe_x5F_rgb"
   transform="matrix(1.581924,0,0,1.581924,-105.27141,-106.12836)">
	<g
   id="g5"
   style="fill:#000000;stroke:#000000;stroke-opacity:1"
   transform="translate(8.8499824,10.114266)">
		<g
   id="g7"
   style="fill:#000000;fill-opacity:1;stroke:none">
			<g
   id="g9"
   style="fill:#000000;fill-opacity:1;stroke:none">
				<path
   style="fill:#000000;fill-opacity:1;stroke:none"
   d="m 84.09,162.513 c 8.917,1.522 17.833,3.045 26.749,4.567 4.414,0.754 6.304,-5.991 1.861,-6.75 -8.917,-1.522 -17.833,-3.045 -26.749,-4.567 -4.414,-0.754 -6.304,5.991 -1.861,6.75 l 0,0 z"
   id="path11"
   inkscape:connector-curvature="0" />
			</g>
		</g>
		<g
   id="g13"
   style="fill:#000000;fill-opacity:1;stroke:none">
			<g
   id="g15"
   style="fill:#000000;fill-opacity:1;stroke:none">
				<path
   style="fill:#000000;fill-opacity:1;stroke:none"
   d="m 84.364,172.128 c 8.917,1.522 17.833,3.045 26.749,4.567 4.414,0.753 6.304,-5.991 1.861,-6.75 -8.917,-1.522 -17.833,-3.045 -26.749,-4.567 -4.413,-0.753 -6.304,5.992 -1.861,6.75 l 0,0 z"
   id="path17"
   inkscape:connector-curvature="0" />
			</g>
		</g>
		<g
   id="g19"
   style="fill:#000000;fill-opacity:1;stroke:none">
			<g
   id="g21"
   style="fill:#000000;fill-opacity:1;stroke:none">
				<path
   style="fill:#000000;fill-opacity:1;stroke:none"
   d="m 84.364,181.47 c 8.917,1.522 17.833,3.045 26.749,4.567 4.414,0.754 6.304,-5.991 1.861,-6.75 -8.917,-1.522 -17.833,-3.045 -26.749,-4.567 -4.413,-0.754 -6.304,5.991 -1.861,6.75 l 0,0 z"
   id="path23"
   inkscape:connector-curvature="0" />
			</g>
		</g>
		<g
   id="g25"
   style="fill:#000000;fill-opacity:1;stroke:none">
			<g
   id="g27"
   style="fill:#000000;fill-opacity:1;stroke:none">
				<path
   style="fill:#000000;fill-opacity:1;stroke:none"
   d="m 90.058,191.441 c 5.004,0.854 10.008,1.708 15.012,2.563 4.414,0.754 6.304,-5.991 1.861,-6.75 -5.004,-0.854 -10.008,-1.708 -15.012,-2.563 -4.414,-0.753 -6.304,5.992 -1.861,6.75 l 0,0 z"
   id="path29"
   inkscape:connector-curvature="0" />
			</g>
		</g>
		<path
   style="fill:none;stroke-width:10.00048043;stroke-miterlimit:4;stroke-dasharray:none"
   d="m 121.034,136.573 c 0,7.544 -6.116,13.66 -13.66,13.66 H 89.16 c -7.544,0 -13.66,-6.116 -13.66,-13.66 V 88.004 c 0,-7.544 6.116,-13.66 13.66,-13.66 h 18.213 c 7.544,0 13.66,6.116 13.66,13.66 v 48.569 z"
   id="path31"
   inkscape:connector-curvature="0" />
	</g>
	<g
   style="display:none"
   id="g33">
		<path
   style="fill:#ffffff;display:inline"
   d="m 156.801,282.51 v 9.157 H 111.34 v -75.551 h 10.575 v 66.394 h 34.886 z"
   id="path35"
   inkscape:connector-curvature="0" />
		<path
   style="fill:#ffffff;display:inline"
   d="m 167.921,291.667 v -75.551 h 46.116 v 9.049 h -35.541 v 22.458 h 31.615 v 8.83 h -31.615 v 26.165 h 38.266 v 9.049 h -48.841 z"
   id="path37"
   inkscape:connector-curvature="0" />
		<path
   style="fill:#ffffff;display:inline"
   d="m 292.203,253.837 c 0,6.542 -1.019,12.229 -3.053,17.062 -2.035,4.834 -4.905,8.831 -8.612,11.992 -3.706,3.162 -8.141,5.524 -13.3,7.086 -5.162,1.564 -10.831,2.345 -17.008,2.345 -3.053,0 -6.415,-0.128 -10.084,-0.382 -3.671,-0.256 -6.996,-0.744 -9.976,-1.472 v -73.261 c 2.979,-0.727 6.305,-1.217 9.976,-1.473 3.669,-0.254 7.031,-0.381 10.084,-0.381 6.177,0 11.846,0.781 17.008,2.344 5.159,1.563 9.594,3.925 13.3,7.086 3.707,3.162 6.577,7.16 8.612,11.992 2.035,4.834 3.053,10.521 3.053,17.062 z m -41.099,29.218 c 10.029,0 17.514,-2.563 22.457,-7.686 4.941,-5.125 7.414,-12.301 7.414,-21.532 0,-9.229 -2.473,-16.407 -7.414,-21.531 -4.943,-5.124 -12.428,-7.687 -22.457,-7.687 -2.981,0 -5.288,0.038 -6.924,0.109 -1.635,0.074 -2.779,0.146 -3.434,0.219 v 57.78 c 0.654,0.073 1.799,0.146 3.434,0.218 1.635,0.074 3.942,0.11 6.924,0.11 z"
   id="path39"
   inkscape:connector-curvature="0" />
	</g>
	<g
   style="display:none"
   id="g41">
		<g
   style="display:inline"
   id="g43">
			<g
   id="g45">
				<path
   style="fill:#ffffff"
   d="m 221.833,71.042 c 0,48.049 0,96.098 0,144.146 0,25.118 0,50.235 0,75.354 0,1.935 3,1.935 3,0 0,-48.049 0,-96.098 0,-144.146 0,-25.118 0,-50.236 0,-75.354 0,-1.935 -3,-1.935 -3,0 l 0,0 z"
   id="path47"
   inkscape:connector-curvature="0" />
			</g>
		</g>
		<g
   style="display:inline"
   id="g49">
			<g
   id="g51">
				<path
   style="fill:#ffffff"
   d="m 248.333,71.042 c 0,48.049 0,96.098 0,144.146 0,25.118 0,50.235 0,75.354 0,1.935 3,1.935 3,0 0,-48.049 0,-96.098 0,-144.146 0,-25.118 0,-50.236 0,-75.354 0,-1.935 -3,-1.935 -3,0 l 0,0 z"
   id="path53"
   inkscape:connector-curvature="0" />
			</g>
		</g>
		<g
   style="display:inline"
   id="g55">
			<g
   id="g57">
				<g
   id="g59">
					<path
   style="fill:#ffffff"
   d="m 241.501,85.839 c -0.055,0.263 0.692,0.24 0.142,0.24 -0.354,0 -0.707,0 -1.061,0 -1.025,0 -2.051,0 -3.076,0 -2.053,0 -4.104,0 -6.157,0 -0.554,0 0.196,-0.02 0.196,0.124 0,-0.256 0,-0.513 0,-0.77 0,-0.985 0,-1.97 0,-2.955 0,-1.919 0,-3.838 0,-5.758 0,0.144 -0.75,0.124 -0.196,0.124 0.354,0 0.707,0 1.061,0 1.025,0 2.051,0 3.076,0 2.053,0 4.104,0 6.157,0 0.553,0 -0.195,0.02 -0.195,-0.124 0,0.256 0,0.513 0,0.77 0,1.153 0,2.307 0,3.461 0,1.762 0,3.525 0,5.288 0,1.935 3,1.935 3,0 0,-2.409 0,-4.818 0,-7.227 0,-1.915 0.237,-5.167 -2.568,-5.167 -2.457,0 -4.914,0 -7.371,0 -2.37,0 -5.28,-0.567 -5.909,2.442 -0.466,2.229 -0.054,4.903 -0.054,7.167 0,1.971 -0.403,5.626 2.567,5.626 2.457,0 4.914,0 7.371,0 2.371,0 5.28,0.567 5.91,-2.442 0.395,-1.888 -2.497,-2.692 -2.893,-0.799 z"
   id="path61"
   inkscape:connector-curvature="0" />
				</g>
			</g>
			<g
   id="g63">
				<g
   id="g65">
					<g
   id="g67">
						<path
   style="fill:#ffffff"
   d="m 231.121,87.816 c 0,0.509 0,1.017 0,1.526 0,1.935 3,1.935 3,0 0,-0.509 0,-1.017 0,-1.526 0,-1.935 -3,-1.935 -3,0 l 0,0 z"
   id="path69"
   inkscape:connector-curvature="0" />
					</g>
				</g>
				<g
   id="g71">
					<g
   id="g73">
						<path
   style="fill:#ffffff"
   d="m 238.871,87.816 c 0,0.509 0,1.017 0,1.526 0,1.935 3,1.935 3,0 0,-0.509 0,-1.017 0,-1.526 0,-1.935 -3,-1.935 -3,0 l 0,0 z"
   id="path75"
   inkscape:connector-curvature="0" />
					</g>
				</g>
			</g>
			<g
   id="g77">
				<g
   id="g79">
					<g
   id="g81">
						<path
   style="fill:#ffffff"
   d="m 231.121,73.818 c 0,0.509 0,1.017 0,1.526 0,1.935 3,1.935 3,0 0,-0.509 0,-1.017 0,-1.526 0,-1.935 -3,-1.935 -3,0 l 0,0 z"
   id="path83"
   inkscape:connector-curvature="0" />
					</g>
				</g>
				<g
   id="g85">
					<g
   id="g87">
						<path
   style="fill:#ffffff"
   d="m 238.871,73.818 c 0,0.509 0,1.017 0,1.526 0,1.935 3,1.935 3,0 0,-0.509 0,-1.017 0,-1.526 0,-1.935 -3,-1.935 -3,0 l 0,0 z"
   id="path89"
   inkscape:connector-curvature="0" />
					</g>
				</g>
			</g>
		</g>
		<g
   style="display:inline"
   id="g91">
			<g
   id="g93">
				<g
   id="g95">
					<path
   style="fill:#ffffff"
   d="m 241.501,125.535 c -0.055,0.263 0.692,0.24 0.142,0.24 -0.354,0 -0.707,0 -1.061,0 -1.025,0 -2.051,0 -3.076,0 -2.053,0 -4.104,0 -6.157,0 -0.554,0 0.196,-0.02 0.196,0.124 0,-0.256 0,-0.513 0,-0.77 0,-0.985 0,-1.97 0,-2.955 0,-1.919 0,-3.838 0,-5.758 0,0.144 -0.75,0.124 -0.196,0.124 0.354,0 0.707,0 1.061,0 1.025,0 2.051,0 3.076,0 2.053,0 4.104,0 6.157,0 0.553,0 -0.195,0.02 -0.195,-0.124 0,0.256 0,0.513 0,0.77 0,1.153 0,2.307 0,3.461 0,1.762 0,3.525 0,5.288 0,1.935 3,1.935 3,0 0,-2.409 0,-4.818 0,-7.227 0,-1.915 0.237,-5.167 -2.568,-5.167 -2.457,0 -4.914,0 -7.371,0 -2.37,0 -5.28,-0.567 -5.909,2.442 -0.466,2.229 -0.054,4.903 -0.054,7.167 0,1.971 -0.403,5.626 2.567,5.626 2.457,0 4.914,0 7.371,0 2.371,0 5.28,0.567 5.91,-2.442 0.395,-1.889 -2.497,-2.692 -2.893,-0.799 z"
   id="path97"
   inkscape:connector-curvature="0" />
				</g>
			</g>
			<g
   id="g99">
				<g
   id="g101">
					<g
   id="g103">
						<path
   style="fill:#ffffff"
   d="m 231.121,127.512 c 0,0.509 0,1.017 0,1.526 0,1.935 3,1.935 3,0 0,-0.509 0,-1.017 0,-1.526 0,-1.935 -3,-1.935 -3,0 l 0,0 z"
   id="path105"
   inkscape:connector-curvature="0" />
					</g>
				</g>
				<g
   id="g107">
					<g
   id="g109">
						<path
   style="fill:#ffffff"
   d="m 238.871,127.512 c 0,0.509 0,1.017 0,1.526 0,1.935 3,1.935 3,0 0,-0.509 0,-1.017 0,-1.526 0,-1.935 -3,-1.935 -3,0 l 0,0 z"
   id="path111"
   inkscape:connector-curvature="0" />
					</g>
				</g>
			</g>
			<g
   id="g113">
				<g
   id="g115">
					<g
   id="g117">
						<path
   style="fill:#ffffff"
   d="m 231.121,113.514 c 0,0.509 0,1.017 0,1.526 0,1.935 3,1.935 3,0 0,-0.509 0,-1.017 0,-1.526 0,-1.935 -3,-1.935 -3,0 l 0,0 z"
   id="path119"
   inkscape:connector-curvature="0" />
					</g>
				</g>
				<g
   id="g121">
					<g
   id="g123">
						<path
   style="fill:#ffffff"
   d="m 238.871,113.514 c 0,0.509 0,1.017 0,1.526 0,1.935 3,1.935 3,0 0,-0.509 0,-1.017 0,-1.526 0,-1.935 -3,-1.935 -3,0 l 0,0 z"
   id="path125"
   inkscape:connector-curvature="0" />
					</g>
				</g>
			</g>
		</g>
		<g
   style="display:inline"
   id="g127">
			<g
   id="g129">
				<g
   id="g131">
					<path
   style="fill:#ffffff"
   d="m 241.501,165.231 c -0.055,0.263 0.692,0.24 0.142,0.24 -0.354,0 -0.707,0 -1.061,0 -1.025,0 -2.051,0 -3.076,0 -2.053,0 -4.104,0 -6.157,0 -0.554,0 0.196,-0.02 0.196,0.124 0,-0.256 0,-0.513 0,-0.77 0,-0.985 0,-1.97 0,-2.955 0,-1.919 0,-3.838 0,-5.758 0,0.144 -0.75,0.124 -0.196,0.124 0.354,0 0.707,0 1.061,0 1.025,0 2.051,0 3.076,0 2.053,0 4.104,0 6.157,0 0.553,0 -0.195,0.02 -0.195,-0.124 0,0.256 0,0.513 0,0.77 0,1.153 0,2.307 0,3.461 0,1.762 0,3.525 0,5.288 0,1.935 3,1.935 3,0 0,-2.409 0,-4.818 0,-7.227 0,-1.915 0.237,-5.167 -2.568,-5.167 -2.457,0 -4.914,0 -7.371,0 -2.37,0 -5.28,-0.567 -5.909,2.442 -0.466,2.229 -0.054,4.903 -0.054,7.167 0,1.971 -0.403,5.626 2.567,5.626 2.457,0 4.914,0 7.371,0 2.371,0 5.28,0.567 5.91,-2.442 0.395,-1.889 -2.497,-2.692 -2.893,-0.799 z"
   id="path133"
   inkscape:connector-curvature="0" />
				</g>
			</g>
			<g
   id="g135">
				<g
   id="g137">
					<g
   id="g139">
						<path
   style="fill:#ffffff"
   d="m 231.121,167.208 c 0,0.509 0,1.017 0,1.526 0,1.935 3,1.935 3,0 0,-0.509 0,-1.017 0,-1.526 0,-1.935 -3,-1.935 -3,0 l 0,0 z"
   id="path141"
   inkscape:connector-curvature="0" />
					</g>
				</g>
				<g
   id="g143">
					<g
   id="g145">
						<path
   style="fill:#ffffff"
   d="m 238.871,167.208 c 0,0.509 0,1.017 0,1.526 0,1.935 3,1.935 3,0 0,-0.509 0,-1.017 0,-1.526 0,-1.935 -3,-1.935 -3,0 l 0,0 z"
   id="path147"
   inkscape:connector-curvature="0" />
					</g>
				</g>
			</g>
			<g
   id="g149">
				<g
   id="g151">
					<g
   id="g153">
						<path
   style="fill:#ffffff"
   d="m 231.121,153.209 c 0,0.509 0,1.017 0,1.526 0,1.935 3,1.935 3,0 0,-0.509 0,-1.017 0,-1.526 0,-1.934 -3,-1.934 -3,0 l 0,0 z"
   id="path155"
   inkscape:connector-curvature="0" />
					</g>
				</g>
				<g
   id="g157">
					<g
   id="g159">
						<path
   style="fill:#ffffff"
   d="m 238.871,153.209 c 0,0.509 0,1.017 0,1.526 0,1.935 3,1.935 3,0 0,-0.509 0,-1.017 0,-1.526 0,-1.934 -3,-1.934 -3,0 l 0,0 z"
   id="path161"
   inkscape:connector-curvature="0" />
					</g>
				</g>
			</g>
		</g>
		<g
   style="display:inline"
   id="g163">
			<g
   id="g165">
				<g
   id="g167">
					<path
   style="fill:#ffffff"
   d="m 241.501,204.927 c -0.055,0.262 0.692,0.239 0.142,0.239 -0.354,0 -0.707,0 -1.061,0 -1.025,0 -2.051,0 -3.076,0 -2.053,0 -4.104,0 -6.157,0 -0.554,0 0.196,-0.02 0.196,0.123 0,-0.256 0,-0.513 0,-0.769 0,-0.985 0,-1.971 0,-2.955 0,-1.92 0,-3.839 0,-5.758 0,0.143 -0.75,0.123 -0.196,0.123 0.354,0 0.707,0 1.061,0 1.025,0 2.051,0 3.076,0 2.053,0 4.104,0 6.157,0 0.553,0 -0.195,0.02 -0.195,-0.123 0,0.256 0,0.513 0,0.769 0,1.154 0,2.308 0,3.461 0,1.763 0,3.525 0,5.288 0,1.935 3,1.935 3,0 0,-2.409 0,-4.818 0,-7.228 0,-1.915 0.237,-5.167 -2.568,-5.167 -2.457,0 -4.914,0 -7.371,0 -2.37,0 -5.28,-0.567 -5.909,2.442 -0.466,2.228 -0.054,4.902 -0.054,7.167 0,1.971 -0.403,5.626 2.567,5.626 2.457,0 4.914,0 7.371,0 2.371,0 5.28,0.567 5.91,-2.442 0.395,-1.886 -2.497,-2.69 -2.893,-0.796 z"
   id="path169"
   inkscape:connector-curvature="0" />
				</g>
			</g>
			<g
   id="g171">
				<g
   id="g173">
					<g
   id="g175">
						<path
   style="fill:#ffffff"
   d="m 231.121,206.902 c 0,0.509 0,1.018 0,1.526 0,1.935 3,1.935 3,0 0,-0.509 0,-1.018 0,-1.526 0,-1.934 -3,-1.934 -3,0 l 0,0 z"
   id="path177"
   inkscape:connector-curvature="0" />
					</g>
				</g>
				<g
   id="g179">
					<g
   id="g181">
						<path
   style="fill:#ffffff"
   d="m 238.871,206.902 c 0,0.509 0,1.018 0,1.526 0,1.935 3,1.935 3,0 0,-0.509 0,-1.018 0,-1.526 0,-1.934 -3,-1.934 -3,0 l 0,0 z"
   id="path183"
   inkscape:connector-curvature="0" />
					</g>
				</g>
			</g>
			<g
   id="g185">
				<g
   id="g187">
					<g
   id="g189">
						<path
   style="fill:#ffffff"
   d="m 231.121,192.904 c 0,0.509 0,1.018 0,1.526 0,1.935 3,1.935 3,0 0,-0.509 0,-1.018 0,-1.526 0,-1.934 -3,-1.934 -3,0 l 0,0 z"
   id="path191"
   inkscape:connector-curvature="0" />
					</g>
				</g>
				<g
   id="g193">
					<g
   id="g195">
						<path
   style="fill:#ffffff"
   d="m 238.871,192.904 c 0,0.509 0,1.018 0,1.526 0,1.935 3,1.935 3,0 0,-0.509 0,-1.018 0,-1.526 0,-1.934 -3,-1.934 -3,0 l 0,0 z"
   id="path197"
   inkscape:connector-curvature="0" />
					</g>
				</g>
			</g>
		</g>
		<g
   style="display:inline"
   id="g199">
			<g
   id="g201">
				<g
   id="g203">
					<path
   style="fill:#ffffff"
   d="m 241.501,244.623 c -0.055,0.261 0.692,0.238 0.142,0.238 -0.354,0 -0.707,0 -1.061,0 -1.025,0 -2.051,0 -3.076,0 -2.053,0 -4.104,0 -6.157,0 -0.554,0 0.196,-0.02 0.196,0.124 0,-0.256 0,-0.513 0,-0.77 0,-0.984 0,-1.97 0,-2.955 0,-1.919 0,-3.839 0,-5.758 0,0.144 -0.75,0.124 -0.196,0.124 0.354,0 0.707,0 1.061,0 1.025,0 2.051,0 3.076,0 2.053,0 4.104,0 6.157,0 0.553,0 -0.195,0.02 -0.195,-0.124 0,0.256 0,0.513 0,0.77 0,1.153 0,2.307 0,3.461 0,1.763 0,3.525 0,5.288 0,1.935 3,1.935 3,0 0,-2.409 0,-4.818 0,-7.228 0,-1.916 0.237,-5.167 -2.568,-5.167 -2.457,0 -4.914,0 -7.371,0 -2.37,0 -5.28,-0.567 -5.909,2.441 -0.466,2.229 -0.054,4.903 -0.054,7.168 0,1.971 -0.403,5.625 2.567,5.625 2.457,0 4.914,0 7.371,0 2.37,0 5.28,0.567 5.91,-2.441 0.395,-1.886 -2.497,-2.69 -2.893,-0.796 z"
   id="path205"
   inkscape:connector-curvature="0" />
				</g>
			</g>
			<g
   id="g207">
				<g
   id="g209">
					<g
   id="g211">
						<path
   style="fill:#ffffff"
   d="m 231.121,246.599 c 0,0.509 0,1.018 0,1.526 0,1.935 3,1.935 3,0 0,-0.509 0,-1.018 0,-1.526 0,-1.935 -3,-1.935 -3,0 l 0,0 z"
   id="path213"
   inkscape:connector-curvature="0" />
					</g>
				</g>
				<g
   id="g215">
					<g
   id="g217">
						<path
   style="fill:#ffffff"
   d="m 238.871,246.599 c 0,0.509 0,1.018 0,1.526 0,1.935 3,1.935 3,0 0,-0.509 0,-1.018 0,-1.526 0,-1.935 -3,-1.935 -3,0 l 0,0 z"
   id="path219"
   inkscape:connector-curvature="0" />
					</g>
				</g>
			</g>
			<g
   id="g221">
				<g
   id="g223">
					<g
   id="g225">
						<path
   style="fill:#ffffff"
   d="m 231.121,232.601 c 0,0.509 0,1.018 0,1.526 0,1.935 3,1.935 3,0 0,-0.509 0,-1.018 0,-1.526 0,-1.935 -3,-1.935 -3,0 l 0,0 z"
   id="path227"
   inkscape:connector-curvature="0" />
					</g>
				</g>
				<g
   id="g229">
					<g
   id="g231">
						<path
   style="fill:#ffffff"
   d="m 238.871,232.601 c 0,0.509 0,1.018 0,1.526 0,1.935 3,1.935 3,0 0,-0.509 0,-1.018 0,-1.526 0,-1.935 -3,-1.935 -3,0 l 0,0 z"
   id="path233"
   inkscape:connector-curvature="0" />
					</g>
				</g>
			</g>
		</g>
		<g
   style="display:inline"
   id="g235">
			<g
   id="g237">
				<g
   id="g239">
					<path
   style="fill:#ffffff"
   d="m 241.501,284.318 c -0.055,0.262 0.692,0.239 0.142,0.239 -0.354,0 -0.707,0 -1.061,0 -1.025,0 -2.051,0 -3.076,0 -2.053,0 -4.104,0 -6.157,0 -0.554,0 0.196,-0.02 0.196,0.123 0,-0.256 0,-0.513 0,-0.769 0,-0.985 0,-1.971 0,-2.955 0,-1.92 0,-3.839 0,-5.758 0,0.143 -0.75,0.123 -0.196,0.123 0.354,0 0.707,0 1.061,0 1.025,0 2.051,0 3.076,0 2.053,0 4.104,0 6.157,0 0.553,0 -0.195,0.02 -0.195,-0.123 0,0.256 0,0.513 0,0.769 0,1.154 0,2.308 0,3.461 0,1.763 0,3.525 0,5.288 0,1.935 3,1.935 3,0 0,-2.409 0,-4.818 0,-7.228 0,-1.915 0.237,-5.167 -2.568,-5.167 -2.457,0 -4.914,0 -7.371,0 -2.37,0 -5.28,-0.567 -5.909,2.442 -0.466,2.228 -0.054,4.902 -0.054,7.167 0,1.971 -0.403,5.626 2.567,5.626 2.457,0 4.914,0 7.371,0 2.371,0 5.28,0.567 5.91,-2.442 0.395,-1.885 -2.497,-2.689 -2.893,-0.796 z"
   id="path241"
   inkscape:connector-curvature="0" />
				</g>
			</g>
			<g
   id="g243">
				<g
   id="g245">
					<g
   id="g247">
						<path
   style="fill:#ffffff"
   d="m 231.121,286.295 c 0,0.509 0,1.017 0,1.525 0,1.935 3,1.935 3,0 0,-0.509 0,-1.017 0,-1.525 0,-1.935 -3,-1.935 -3,0 l 0,0 z"
   id="path249"
   inkscape:connector-curvature="0" />
					</g>
				</g>
				<g
   id="g251">
					<g
   id="g253">
						<path
   style="fill:#ffffff"
   d="m 238.871,286.295 c 0,0.509 0,1.017 0,1.525 0,1.935 3,1.935 3,0 0,-0.509 0,-1.017 0,-1.525 0,-1.935 -3,-1.935 -3,0 l 0,0 z"
   id="path255"
   inkscape:connector-curvature="0" />
					</g>
				</g>
			</g>
			<g
   id="g257">
				<g
   id="g259">
					<g
   id="g261">
						<path
   style="fill:#ffffff"
   d="m 231.121,272.297 c 0,0.509 0,1.017 0,1.525 0,1.935 3,1.935 3,0 0,-0.509 0,-1.017 0,-1.525 0,-1.935 -3,-1.935 -3,0 l 0,0 z"
   id="path263"
   inkscape:connector-curvature="0" />
					</g>
				</g>
				<g
   id="g265">
					<g
   id="g267">
						<path
   style="fill:#ffffff"
   d="m 238.871,272.297 c 0,0.509 0,1.017 0,1.525 0,1.935 3,1.935 3,0 0,-0.509 0,-1.017 0,-1.525 0,-1.935 -3,-1.935 -3,0 l 0,0 z"
   id="path269"
   inkscape:connector-curvature="0" />
					</g>
				</g>
			</g>
		</g>
		<g
   style="display:inline"
   id="g271">
			<g
   id="g273">
				<path
   style="fill:#ffffff"
   d="m 233.832,103.167 c 1.776,0 3.552,0 5.328,0 1.935,0 1.935,-3 0,-3 -1.776,0 -3.552,0 -5.328,0 -1.935,0 -1.935,3 0,3 l 0,0 z"
   id="path275"
   inkscape:connector-curvature="0" />
			</g>
		</g>
		<g
   style="display:inline"
   id="g277">
			<g
   id="g279">
				<path
   style="fill:#ffffff"
   d="m 233.832,183.456 c 1.776,0 3.552,0 5.328,0 1.935,0 1.935,-3 0,-3 -1.776,0 -3.552,0 -5.328,0 -1.935,0 -1.935,3 0,3 l 0,0 z"
   id="path281"
   inkscape:connector-curvature="0" />
			</g>
		</g>
		<g
   style="display:inline"
   id="g283">
			<g
   id="g285">
				<path
   style="fill:#ffffff"
   d="m 233.832,262.834 c 1.776,0 3.552,0 5.328,0 1.935,0 1.935,-3 0,-3 -1.776,0 -3.552,0 -5.328,0 -1.935,0 -1.935,3 0,3 l 0,0 z"
   id="path287"
   inkscape:connector-curvature="0" />
			</g>
		</g>
	</g>
	<g
   id="g289"
   style="fill:#000000">
		<g
   id="g291"
   style="fill:#000000">
			<path
   style="fill:#000000"
   d="m 289.346,72.354 c -29.072,29.072 -58.146,58.145 -87.218,87.218 -39.752,39.752 -79.504,79.504 -119.257,119.256 -3.364,3.364 -6.729,6.729 -10.092,10.093 -1.369,1.369 0.752,3.49 2.121,2.121 29.073,-29.072 58.145,-58.146 87.218,-87.218 39.752,-39.752 79.504,-79.504 119.257,-119.257 3.363,-3.364 6.728,-6.728 10.092,-10.092 1.369,-1.369 -0.752,-3.49 -2.121,-2.121 l 0,0 z"
   id="path293"
   inkscape:connector-curvature="0" />
		</g>
	</g>
	<g
   id="g295"
   style="fill:#000000">
		<g
   id="g297"
   style="fill:#000000">
			<path
   style="fill:#000000"
   d="m 289.348,122.516 c -33.274,33.275 -66.55,66.549 -99.824,99.825 -22.032,22.032 -44.064,44.064 -66.096,66.097 -1.369,1.369 0.752,3.49 2.121,2.121 33.275,-33.274 66.55,-66.55 99.824,-99.824 22.032,-22.033 44.063,-44.065 66.096,-66.097 1.369,-1.37 -0.752,-3.491 -2.121,-2.122 l 0,0 z"
   id="path299"
   inkscape:connector-curvature="0" />
		</g>
	</g>
	<g
   id="g301"
   style="fill:#000000">
		<g
   id="g303"
   style="fill:#000000">
			<path
   style="fill:#000000"
   d="m 291.204,93.918 c -0.553,-0.553 -1.105,-1.106 -1.658,-1.659 -0.381,-0.38 -0.761,-0.76 -1.141,-1.14 -0.395,-0.395 -0.509,-0.303 -0.229,-0.648 0.981,-1.208 2.255,-2.254 3.355,-3.355 1.369,-1.369 -0.752,-3.49 -2.121,-2.121 -1.356,1.356 -4.405,3.459 -4.405,5.601 0,2.254 2.62,3.985 4.078,5.443 1.369,1.369 3.49,-0.752 2.121,-2.121 l 0,0 z"
   id="path305"
   inkscape:connector-curvature="0" />
		</g>
	</g>
	<g
   id="g307"
   style="fill:#000000">
		<g
   id="g309"
   style="fill:#000000">
			<g
   id="g311"
   style="fill:#000000">
				<path
   style="fill:#000000"
   d="m 287,92.283 c -0.481,0.481 -0.963,0.963 -1.444,1.444 -0.578,0.578 -0.578,1.543 0,2.121 0.578,0.578 1.543,0.578 2.121,0 0.481,-0.481 0.963,-0.963 1.444,-1.444 0.578,-0.578 0.578,-1.543 0,-2.121 -0.578,-0.578 -1.543,-0.578 -2.121,0 l 0,0 z"
   id="path313"
   inkscape:connector-curvature="0" />
			</g>
		</g>
	</g>
	<g
   id="g315"
   style="fill:#000000">
		<g
   id="g317"
   style="fill:#000000">
			<g
   id="g319"
   style="fill:#000000">
				<path
   style="fill:#000000"
   d="m 260.997,137.899 c -1.162,0.76 -3.618,-2.663 -4.64,-3.684 -1.878,-1.878 -3.757,-3.757 -5.636,-5.635 -0.665,-0.666 2.538,-3.192 3.184,-3.837 1.896,-1.896 3.791,-3.791 5.687,-5.686 0.53,-0.53 9.005,8.479 10.246,9.72 0.22,0.219 -8.142,8.354 -9.145,9.358 -1.369,1.369 0.752,3.49 2.121,2.121 2.464,-2.463 4.928,-4.927 7.393,-7.391 1.521,-1.522 4.073,-3.889 1.891,-6.071 -2.575,-2.575 -5.15,-5.15 -7.725,-7.725 -1.957,-1.957 -3.638,-4.327 -6.544,-2.423 -2.67,1.749 -4.935,4.865 -7.183,7.113 -1.538,1.538 -4.795,4.193 -2.453,6.535 2.407,2.407 4.814,4.814 7.221,7.221 2.063,2.062 3.979,5.014 7.097,2.975 1.612,-1.054 0.11,-3.653 -1.514,-2.591 z"
   id="path321"
   inkscape:connector-curvature="0" />
			</g>
		</g>
		<g
   id="g323"
   style="fill:#000000">
			<g
   id="g325"
   style="fill:#000000">
				<g
   id="g327"
   style="fill:#000000">
					<path
   style="fill:#000000"
   d="m 249.428,129.854 c -0.481,0.481 -0.963,0.963 -1.444,1.445 -0.578,0.578 -0.578,1.543 0,2.121 0.578,0.578 1.543,0.578 2.121,0 0.481,-0.481 0.963,-0.963 1.444,-1.445 0.578,-0.578 0.578,-1.543 0,-2.121 -0.578,-0.578 -1.543,-0.578 -2.121,0 l 0,0 z"
   id="path329"
   inkscape:connector-curvature="0" />
				</g>
			</g>
			<g
   id="g331"
   style="fill:#000000">
				<g
   id="g333"
   style="fill:#000000">
					<path
   style="fill:#000000"
   d="m 256.763,137.19 c -0.481,0.481 -0.963,0.962 -1.444,1.444 -0.578,0.578 -0.578,1.543 0,2.121 0.578,0.578 1.543,0.578 2.121,0 0.481,-0.481 0.963,-0.962 1.444,-1.444 0.578,-0.578 0.578,-1.543 0,-2.121 -0.578,-0.578 -1.543,-0.578 -2.121,0 l 0,0 z"
   id="path335"
   inkscape:connector-curvature="0" />
				</g>
			</g>
		</g>
		<g
   id="g337"
   style="fill:#000000">
			<g
   id="g339"
   style="fill:#000000">
				<g
   id="g341"
   style="fill:#000000">
					<path
   style="fill:#000000"
   d="m 262.676,116.605 c -0.481,0.481 -0.962,0.963 -1.443,1.445 -0.578,0.578 -0.578,1.543 0,2.121 0.577,0.578 1.544,0.578 2.121,0 0.481,-0.481 0.962,-0.963 1.443,-1.445 0.578,-0.578 0.578,-1.543 0,-2.121 -0.577,-0.578 -1.544,-0.578 -2.121,0 l 0,0 z"
   id="path343"
   inkscape:connector-curvature="0" />
				</g>
			</g>
			<g
   id="g345"
   style="fill:#000000">
				<g
   id="g347"
   style="fill:#000000">
					<path
   style="fill:#000000"
   d="m 270.012,123.94 c -0.481,0.481 -0.963,0.963 -1.444,1.445 -0.578,0.578 -0.578,1.543 0,2.121 0.578,0.578 1.543,0.578 2.121,0 0.481,-0.481 0.963,-0.963 1.444,-1.445 0.578,-0.578 0.578,-1.543 0,-2.121 -0.578,-0.578 -1.543,-0.578 -2.121,0 l 0,0 z"
   id="path349"
   inkscape:connector-curvature="0" />
				</g>
			</g>
		</g>
	</g>
	<g
   id="g351"
   style="fill:#000000">
		<g
   id="g353"
   style="fill:#000000">
			<g
   id="g355"
   style="fill:#000000">
				<path
   style="fill:#000000"
   d="m 223.426,175.472 c -1.163,0.76 -3.619,-2.664 -4.64,-3.685 -1.878,-1.878 -3.757,-3.757 -5.635,-5.636 -0.667,-0.667 2.536,-3.192 3.182,-3.837 1.896,-1.896 3.791,-3.791 5.687,-5.686 0.531,-0.531 9.006,8.479 10.247,9.72 0.218,0.217 -8.142,8.354 -9.145,9.358 -1.369,1.369 0.752,3.49 2.121,2.121 2.464,-2.464 4.928,-4.928 7.392,-7.392 1.521,-1.522 4.073,-3.889 1.892,-6.07 -2.575,-2.575 -5.15,-5.15 -7.725,-7.725 -1.958,-1.958 -3.637,-4.325 -6.545,-2.423 -2.67,1.747 -4.936,4.866 -7.183,7.113 -1.539,1.54 -4.793,4.192 -2.451,6.535 2.406,2.407 4.813,4.814 7.22,7.221 2.063,2.063 3.978,5.015 7.097,2.976 1.612,-1.053 0.11,-3.652 -1.514,-2.59 z"
   id="path357"
   inkscape:connector-curvature="0" />
			</g>
		</g>
		<g
   id="g359"
   style="fill:#000000">
			<g
   id="g361"
   style="fill:#000000">
				<g
   id="g363"
   style="fill:#000000">
					<path
   style="fill:#000000"
   d="m 211.855,167.426 c -0.481,0.481 -0.964,0.963 -1.445,1.444 -0.578,0.578 -0.578,1.543 0,2.121 0.578,0.578 1.543,0.578 2.121,0 0.481,-0.481 0.964,-0.963 1.445,-1.444 0.578,-0.578 0.578,-1.543 0,-2.121 -0.578,-0.578 -1.542,-0.577 -2.121,0 l 0,0 z"
   id="path365"
   inkscape:connector-curvature="0" />
				</g>
			</g>
			<g
   id="g367"
   style="fill:#000000">
				<g
   id="g369"
   style="fill:#000000">
					<path
   style="fill:#000000"
   d="m 219.191,174.762 c -0.481,0.481 -0.964,0.963 -1.445,1.444 -0.578,0.578 -0.578,1.543 0,2.121 0.578,0.578 1.543,0.578 2.121,0 0.481,-0.481 0.964,-0.963 1.445,-1.444 0.578,-0.578 0.578,-1.543 0,-2.121 -0.578,-0.578 -1.542,-0.578 -2.121,0 l 0,0 z"
   id="path371"
   inkscape:connector-curvature="0" />
				</g>
			</g>
		</g>
		<g
   id="g373"
   style="fill:#000000">
			<g
   id="g375"
   style="fill:#000000">
				<g
   id="g377"
   style="fill:#000000">
					<path
   style="fill:#000000"
   d="m 225.104,154.177 c -0.481,0.481 -0.963,0.962 -1.444,1.444 -0.578,0.578 -0.578,1.543 0,2.121 0.578,0.578 1.543,0.578 2.121,0 0.481,-0.481 0.963,-0.962 1.444,-1.444 0.578,-0.578 0.578,-1.543 0,-2.121 -0.578,-0.578 -1.542,-0.578 -2.121,0 l 0,0 z"
   id="path379"
   inkscape:connector-curvature="0" />
				</g>
			</g>
			<g
   id="g381"
   style="fill:#000000">
				<g
   id="g383"
   style="fill:#000000">
					<path
   style="fill:#000000"
   d="m 232.44,161.513 c -0.481,0.481 -0.963,0.962 -1.444,1.444 -0.578,0.578 -0.578,1.543 0,2.121 0.578,0.578 1.543,0.578 2.121,0 0.481,-0.481 0.963,-0.962 1.444,-1.444 0.578,-0.578 0.578,-1.543 0,-2.121 -0.578,-0.578 -1.542,-0.578 -2.121,0 l 0,0 z"
   id="path385"
   inkscape:connector-curvature="0" />
				</g>
			</g>
		</g>
	</g>
	<g
   id="g387"
   style="fill:#000000">
		<g
   id="g389"
   style="fill:#000000">
			<g
   id="g391"
   style="fill:#000000">
				<path
   style="fill:#000000"
   d="m 185.854,213.044 c -1.162,0.759 -3.618,-2.663 -4.64,-3.685 -1.878,-1.879 -3.757,-3.757 -5.635,-5.636 -0.666,-0.666 2.537,-3.192 3.182,-3.838 1.896,-1.896 3.791,-3.791 5.686,-5.687 0.53,-0.53 9.007,8.48 10.247,9.721 0.218,0.218 -8.141,8.354 -9.144,9.358 -1.369,1.369 0.752,3.49 2.121,2.121 2.464,-2.464 4.928,-4.929 7.392,-7.393 1.521,-1.521 4.072,-3.888 1.891,-6.069 -2.575,-2.575 -5.15,-5.15 -7.725,-7.726 -1.958,-1.958 -3.636,-4.324 -6.545,-2.423 -2.67,1.744 -4.935,4.866 -7.182,7.113 -1.539,1.539 -4.794,4.193 -2.452,6.535 2.407,2.407 4.814,4.814 7.221,7.222 2.063,2.063 3.977,5.013 7.096,2.975 1.613,-1.051 0.112,-3.65 -1.513,-2.588 z"
   id="path393"
   inkscape:connector-curvature="0" />
			</g>
		</g>
		<g
   id="g395"
   style="fill:#000000">
			<g
   id="g397"
   style="fill:#000000">
				<g
   id="g399"
   style="fill:#000000">
					<path
   style="fill:#000000"
   d="m 174.284,204.998 c -0.481,0.481 -0.963,0.963 -1.444,1.444 -0.578,0.578 -0.578,1.543 0,2.121 0.578,0.578 1.543,0.578 2.121,0 0.481,-0.481 0.963,-0.963 1.444,-1.444 0.578,-0.578 0.578,-1.543 0,-2.121 -0.578,-0.578 -1.544,-0.578 -2.121,0 l 0,0 z"
   id="path401"
   inkscape:connector-curvature="0" />
				</g>
			</g>
			<g
   id="g403"
   style="fill:#000000">
				<g
   id="g405"
   style="fill:#000000">
					<path
   style="fill:#000000"
   d="m 181.619,212.333 c -0.481,0.481 -0.962,0.963 -1.443,1.444 -0.578,0.578 -0.578,1.543 0,2.121 0.578,0.578 1.544,0.578 2.121,0 0.481,-0.481 0.962,-0.963 1.443,-1.444 0.578,-0.578 0.578,-1.543 0,-2.121 -0.578,-0.578 -1.544,-0.578 -2.121,0 l 0,0 z"
   id="path407"
   inkscape:connector-curvature="0" />
				</g>
			</g>
		</g>
		<g
   id="g409"
   style="fill:#000000">
			<g
   id="g411"
   style="fill:#000000">
				<g
   id="g413"
   style="fill:#000000">
					<path
   style="fill:#000000"
   d="m 187.533,191.749 c -0.481,0.481 -0.963,0.963 -1.444,1.444 -0.578,0.578 -0.578,1.543 0,2.121 0.578,0.578 1.543,0.578 2.121,0 0.481,-0.481 0.963,-0.963 1.444,-1.444 0.578,-0.578 0.578,-1.543 0,-2.121 -0.578,-0.578 -1.543,-0.578 -2.121,0 l 0,0 z"
   id="path415"
   inkscape:connector-curvature="0" />
				</g>
			</g>
			<g
   id="g417"
   style="fill:#000000">
				<g
   id="g419"
   style="fill:#000000">
					<path
   style="fill:#000000"
   d="m 194.869,199.084 c -0.481,0.481 -0.964,0.963 -1.445,1.444 -0.578,0.577 -0.578,1.544 0,2.121 0.578,0.578 1.543,0.578 2.121,0 0.481,-0.481 0.964,-0.963 1.445,-1.444 0.578,-0.577 0.578,-1.543 0,-2.121 -0.578,-0.578 -1.543,-0.578 -2.121,0 l 0,0 z"
   id="path421"
   inkscape:connector-curvature="0" />
				</g>
			</g>
		</g>
	</g>
	<g
   id="g423"
   style="fill:#000000">
		<g
   id="g425"
   style="fill:#000000">
			<g
   id="g427"
   style="fill:#000000">
				<path
   style="fill:#000000"
   d="m 148.282,250.615 c -1.163,0.761 -3.619,-2.663 -4.64,-3.685 -1.878,-1.879 -3.757,-3.757 -5.635,-5.636 -0.666,-0.666 2.537,-3.192 3.183,-3.838 1.896,-1.896 3.791,-3.79 5.687,-5.686 0.53,-0.53 9.005,8.479 10.246,9.72 0.218,0.219 -8.141,8.354 -9.144,9.358 -1.369,1.369 0.752,3.49 2.121,2.121 2.464,-2.464 4.928,-4.928 7.391,-7.392 1.522,-1.522 4.074,-3.889 1.892,-6.07 -2.575,-2.575 -5.15,-5.149 -7.725,-7.725 -1.957,-1.957 -3.637,-4.326 -6.544,-2.423 -2.67,1.747 -4.935,4.864 -7.183,7.112 -1.539,1.538 -4.794,4.193 -2.453,6.535 2.407,2.407 4.814,4.814 7.221,7.222 2.062,2.062 3.979,5.016 7.097,2.975 1.612,-1.052 0.11,-3.651 -1.514,-2.588 z"
   id="path429"
   inkscape:connector-curvature="0" />
			</g>
		</g>
		<g
   id="g431"
   style="fill:#000000">
			<g
   id="g433"
   style="fill:#000000">
				<g
   id="g435"
   style="fill:#000000">
					<path
   style="fill:#000000"
   d="m 136.712,242.57 c -0.481,0.481 -0.963,0.962 -1.444,1.443 -0.578,0.577 -0.578,1.543 0,2.121 0.578,0.578 1.543,0.578 2.121,0 0.481,-0.481 0.963,-0.962 1.444,-1.443 0.578,-0.577 0.578,-1.543 0,-2.121 -0.578,-0.578 -1.543,-0.578 -2.121,0 l 0,0 z"
   id="path437"
   inkscape:connector-curvature="0" />
				</g>
			</g>
			<g
   id="g439"
   style="fill:#000000">
				<g
   id="g441"
   style="fill:#000000">
					<path
   style="fill:#000000"
   d="m 144.048,249.905 c -0.482,0.481 -0.963,0.963 -1.445,1.444 -0.578,0.578 -0.578,1.543 0,2.121 0.578,0.578 1.543,0.578 2.121,0 0.482,-0.481 0.963,-0.963 1.445,-1.444 0.578,-0.578 0.578,-1.543 0,-2.121 -0.578,-0.578 -1.543,-0.578 -2.121,0 l 0,0 z"
   id="path443"
   inkscape:connector-curvature="0" />
				</g>
			</g>
		</g>
		<g
   id="g445"
   style="fill:#000000">
			<g
   id="g447"
   style="fill:#000000">
				<g
   id="g449"
   style="fill:#000000">
					<path
   style="fill:#000000"
   d="m 149.961,229.32 c -0.482,0.481 -0.963,0.963 -1.445,1.444 -0.578,0.578 -0.578,1.543 0,2.121 0.578,0.578 1.543,0.578 2.121,0 0.482,-0.481 0.963,-0.963 1.445,-1.444 0.578,-0.578 0.578,-1.543 0,-2.121 -0.577,-0.578 -1.543,-0.578 -2.121,0 l 0,0 z"
   id="path451"
   inkscape:connector-curvature="0" />
				</g>
			</g>
			<g
   id="g453"
   style="fill:#000000">
				<g
   id="g455"
   style="fill:#000000">
					<path
   style="fill:#000000"
   d="m 157.297,236.656 c -0.482,0.481 -0.963,0.962 -1.445,1.443 -0.578,0.577 -0.578,1.544 0,2.121 0.578,0.578 1.543,0.578 2.121,0 0.482,-0.481 0.963,-0.962 1.445,-1.443 0.578,-0.577 0.578,-1.544 0,-2.121 -0.578,-0.578 -1.543,-0.578 -2.121,0 l 0,0 z"
   id="path457"
   inkscape:connector-curvature="0" />
				</g>
			</g>
		</g>
	</g>
	<g
   id="g459"
   style="fill:#000000;fill-opacity:1">
		<g
   id="g461"
   style="fill:#000000;fill-opacity:1">
			<g
   id="g463"
   style="fill:#000000;fill-opacity:1">
				<path
   style="fill:#000000;fill-opacity:1"
   d="m 110.711,288.188 c -1.164,0.761 -3.618,-2.661 -4.641,-3.685 -1.878,-1.879 -3.757,-3.758 -5.636,-5.637 -0.665,-0.665 2.538,-3.19 3.184,-3.837 1.896,-1.896 3.791,-3.79 5.686,-5.686 0.53,-0.53 9.005,8.479 10.246,9.72 0.22,0.221 -8.139,8.354 -9.143,9.358 -1.369,1.369 0.752,3.49 2.121,2.121 2.464,-2.464 4.928,-4.928 7.392,-7.392 1.522,-1.522 4.072,-3.889 1.89,-6.07 -2.575,-2.575 -5.149,-5.149 -7.724,-7.725 -1.957,-1.957 -3.637,-4.326 -6.544,-2.423 -2.67,1.747 -4.934,4.864 -7.182,7.112 -1.538,1.538 -4.794,4.192 -2.453,6.534 2.407,2.407 4.814,4.815 7.221,7.223 2.063,2.063 3.979,5.016 7.098,2.975 1.61,-1.052 0.109,-3.651 -1.515,-2.588 z"
   id="path465"
   inkscape:connector-curvature="0" />
			</g>
		</g>
		<g
   id="g467"
   style="fill:#000000;fill-opacity:1">
			<g
   id="g469"
   style="fill:#000000;fill-opacity:1">
				<g
   id="g471"
   style="fill:#000000;fill-opacity:1">
					<path
   style="fill:#000000;fill-opacity:1"
   d="m 99.14,280.143 c -0.482,0.481 -0.963,0.962 -1.445,1.443 -0.578,0.577 -0.578,1.544 0,2.121 0.578,0.578 1.543,0.578 2.121,0 0.482,-0.481 0.963,-0.962 1.445,-1.443 0.578,-0.577 0.578,-1.544 0,-2.121 -0.578,-0.579 -1.543,-0.579 -2.121,0 l 0,0 z"
   id="path473"
   inkscape:connector-curvature="0" />
				</g>
			</g>
			<g
   id="g475"
   style="fill:#000000;fill-opacity:1">
				<g
   id="g477"
   style="fill:#000000;fill-opacity:1">
					<path
   style="fill:#000000;fill-opacity:1"
   d="m 106.476,287.479 c -0.481,0.48 -0.963,0.962 -1.444,1.442 -0.579,0.577 -0.578,1.544 0,2.121 0.578,0.578 1.543,0.577 2.121,0 0.481,-0.48 0.963,-0.962 1.444,-1.442 0.579,-0.577 0.578,-1.544 0,-2.121 -0.578,-0.579 -1.543,-0.578 -2.121,0 l 0,0 z"
   id="path479"
   inkscape:connector-curvature="0" />
				</g>
			</g>
		</g>
		<g
   id="g481"
   style="fill:#000000;fill-opacity:1">
			<g
   id="g483"
   style="fill:#000000;fill-opacity:1">
				<g
   id="g485"
   style="fill:#000000;fill-opacity:1">
					<path
   style="fill:#000000;fill-opacity:1"
   d="m 112.389,266.893 c -0.481,0.481 -0.963,0.963 -1.444,1.444 -0.578,0.578 -0.578,1.543 0,2.121 0.578,0.578 1.543,0.578 2.121,0 0.481,-0.481 0.963,-0.963 1.444,-1.444 0.578,-0.578 0.578,-1.543 0,-2.121 -0.577,-0.579 -1.543,-0.579 -2.121,0 l 0,0 z"
   id="path487"
   inkscape:connector-curvature="0" />
				</g>
			</g>
			<g
   id="g489"
   style="fill:#000000;fill-opacity:1">
				<g
   id="g491"
   style="fill:#000000;fill-opacity:1">
					<path
   style="fill:#000000;fill-opacity:1"
   d="m 119.724,274.229 c -0.481,0.481 -0.962,0.962 -1.443,1.443 -0.578,0.578 -0.578,1.543 0,2.121 0.578,0.578 1.543,0.578 2.121,0 0.481,-0.481 0.962,-0.962 1.443,-1.443 0.578,-0.578 0.578,-1.543 0,-2.121 -0.577,-0.579 -1.543,-0.579 -2.121,0 l 0,0 z"
   id="path493"
   inkscape:connector-curvature="0" />
				</g>
			</g>
		</g>
	</g>
	<g
   id="g495"
   style="fill:#000000">
		<g
   id="g497"
   style="fill:#000000">
			<path
   style="fill:#000000"
   d="m 275.035,108.659 c 1.681,1.681 3.362,3.362 5.043,5.043 1.369,1.369 3.49,-0.752 2.121,-2.121 -1.681,-1.681 -3.362,-3.362 -5.043,-5.043 -1.369,-1.369 -3.49,0.752 -2.121,2.121 l 0,0 z"
   id="path499"
   inkscape:connector-curvature="0" />
		</g>
	</g>
	<g
   id="g501"
   style="fill:#000000">
		<g
   id="g503"
   style="fill:#000000">
			<path
   style="fill:#000000"
   d="m 199.042,184.653 c 1.681,1.681 3.362,3.362 5.043,5.043 1.369,1.369 3.49,-0.752 2.121,-2.121 -1.681,-1.681 -3.362,-3.362 -5.043,-5.043 -1.369,-1.369 -3.49,0.752 -2.121,2.121 l 0,0 z"
   id="path505"
   inkscape:connector-curvature="0" />
		</g>
	</g>
	<g
   id="g507"
   style="fill:#000000">
		<g
   id="g509"
   style="fill:#000000">
			<path
   style="fill:#000000"
   d="m 123.912,259.784 c 1.681,1.681 3.362,3.361 5.043,5.042 1.369,1.369 3.491,-0.752 2.121,-2.121 -1.681,-1.681 -3.362,-3.361 -5.043,-5.042 -1.369,-1.369 -3.491,0.752 -2.121,2.121 l 0,0 z"
   id="path511"
   inkscape:connector-curvature="0" />
		</g>
	</g>
	<g
   style="display:none"
   id="g513">
		<g
   style="display:inline"
   id="g515">
			<g
   id="g517">
				<path
   style="fill:#ffffff"
   d="m 208.066,120.018 c -3.514,0 -7.028,0 -10.542,0 -1.935,0 -1.935,3 0,3 3.514,0 7.028,0 10.542,0 1.935,0 1.935,-3 0,-3 l 0,0 z"
   id="path519"
   inkscape:connector-curvature="0" />
			</g>
		</g>
		<g
   style="display:inline"
   id="g521">
			<g
   id="g523">
				<path
   style="fill:#ffffff"
   d="m 207.461,123.934 c -2.484,2.118 -4.969,4.235 -7.453,6.354 -1.475,1.257 0.658,3.369 2.121,2.121 2.484,-2.118 4.969,-4.235 7.453,-6.354 1.475,-1.257 -0.658,-3.369 -2.121,-2.121 l 0,0 z"
   id="path525"
   inkscape:connector-curvature="0" />
			</g>
		</g>
		<g
   style="display:inline"
   id="g527">
			<g
   id="g529">
				<path
   style="fill:#ffffff"
   d="m 209.582,116.63 c -2.484,-2.118 -4.969,-4.236 -7.453,-6.354 -1.463,-1.248 -3.596,0.864 -2.121,2.121 2.484,2.118 4.969,4.236 7.453,6.354 1.463,1.248 3.596,-0.864 2.121,-2.121 l 0,0 z"
   id="path531"
   inkscape:connector-curvature="0" />
			</g>
		</g>
		<g
   style="display:inline"
   id="g533">
			<g
   id="g535">
				<path
   style="fill:#ffffff"
   d="m 208.066,80.147 c -3.514,0 -7.028,0 -10.542,0 -1.935,0 -1.935,3 0,3 3.514,0 7.028,0 10.542,0 1.935,0 1.935,-3 0,-3 l 0,0 z"
   id="path537"
   inkscape:connector-curvature="0" />
			</g>
		</g>
		<g
   style="display:inline"
   id="g539">
			<g
   id="g541">
				<path
   style="fill:#ffffff"
   d="m 207.461,84.063 c -2.484,2.118 -4.969,4.235 -7.453,6.354 -1.475,1.257 0.658,3.369 2.121,2.121 2.484,-2.118 4.969,-4.235 7.453,-6.354 1.475,-1.256 -0.658,-3.368 -2.121,-2.121 l 0,0 z"
   id="path543"
   inkscape:connector-curvature="0" />
			</g>
		</g>
		<g
   style="display:inline"
   id="g545">
			<g
   id="g547">
				<path
   style="fill:#ffffff"
   d="m 209.582,76.76 c -2.484,-2.118 -4.969,-4.236 -7.453,-6.354 -1.463,-1.248 -3.596,0.864 -2.121,2.121 2.484,2.118 4.969,4.236 7.453,6.354 1.463,1.248 3.596,-0.864 2.121,-2.121 l 0,0 z"
   id="path549"
   inkscape:connector-curvature="0" />
			</g>
		</g>
		<g
   style="display:inline"
   id="g551">
			<g
   id="g553">
				<path
   style="fill:#ffffff"
   d="m 207.838,198.999 c -3.514,0 -7.027,0 -10.541,0 -1.935,0 -1.935,3 0,3 3.514,0 7.027,0 10.541,0 1.934,0 1.934,-3 0,-3 l 0,0 z"
   id="path555"
   inkscape:connector-curvature="0" />
			</g>
		</g>
		<g
   style="display:inline"
   id="g557">
			<g
   id="g559">
				<path
   style="fill:#ffffff"
   d="m 207.233,202.915 c -2.484,2.118 -4.97,4.235 -7.454,6.354 -1.475,1.257 0.658,3.368 2.121,2.121 2.484,-2.118 4.97,-4.235 7.454,-6.354 1.475,-1.257 -0.658,-3.368 -2.121,-2.121 l 0,0 z"
   id="path561"
   inkscape:connector-curvature="0" />
			</g>
		</g>
		<g
   style="display:inline"
   id="g563">
			<g
   id="g565">
				<path
   style="fill:#ffffff"
   d="m 209.354,195.611 c -2.484,-2.118 -4.97,-4.235 -7.454,-6.354 -1.463,-1.247 -3.596,0.864 -2.121,2.121 2.484,2.118 4.97,4.235 7.454,6.354 1.463,1.247 3.596,-0.864 2.121,-2.121 l 0,0 z"
   id="path567"
   inkscape:connector-curvature="0" />
			</g>
		</g>
		<g
   style="display:inline"
   id="g569">
			<g
   id="g571">
				<path
   style="fill:#ffffff"
   d="m 207.838,161.129 c -3.514,0 -7.027,0 -10.541,0 -1.935,0 -1.935,3 0,3 3.514,0 7.027,0 10.541,0 1.934,0 1.934,-3 0,-3 l 0,0 z"
   id="path573"
   inkscape:connector-curvature="0" />
			</g>
		</g>
		<g
   style="display:inline"
   id="g575">
			<g
   id="g577">
				<path
   style="fill:#ffffff"
   d="m 207.233,165.045 c -2.484,2.118 -4.97,4.235 -7.454,6.354 -1.475,1.257 0.658,3.368 2.121,2.121 2.484,-2.118 4.97,-4.235 7.454,-6.354 1.475,-1.257 -0.658,-3.368 -2.121,-2.121 l 0,0 z"
   id="path579"
   inkscape:connector-curvature="0" />
			</g>
		</g>
		<g
   style="display:inline"
   id="g581">
			<g
   id="g583">
				<path
   style="fill:#ffffff"
   d="m 209.354,157.742 c -2.484,-2.118 -4.97,-4.236 -7.454,-6.354 -1.463,-1.248 -3.596,0.864 -2.121,2.121 2.484,2.118 4.97,4.236 7.454,6.354 1.463,1.247 3.596,-0.864 2.121,-2.121 l 0,0 z"
   id="path585"
   inkscape:connector-curvature="0" />
			</g>
		</g>
		<g
   style="display:inline"
   id="g587">
			<g
   id="g589">
				<path
   style="fill:#ffffff"
   d="m 207.838,278.371 c -3.514,0 -7.027,0 -10.541,0 -1.935,0 -1.935,3 0,3 3.514,0 7.027,0 10.541,0 1.934,0 1.934,-3 0,-3 l 0,0 z"
   id="path591"
   inkscape:connector-curvature="0" />
			</g>
		</g>
		<g
   style="display:inline"
   id="g593">
			<g
   id="g595">
				<path
   style="fill:#ffffff"
   d="m 207.233,282.287 c -2.484,2.118 -4.97,4.235 -7.454,6.354 -1.475,1.257 0.658,3.368 2.121,2.121 2.484,-2.118 4.97,-4.235 7.454,-6.354 1.475,-1.257 -0.658,-3.368 -2.121,-2.121 l 0,0 z"
   id="path597"
   inkscape:connector-curvature="0" />
			</g>
		</g>
		<g
   style="display:inline"
   id="g599">
			<g
   id="g601">
				<path
   style="fill:#ffffff"
   d="m 209.354,274.984 c -2.484,-2.118 -4.97,-4.235 -7.454,-6.354 -1.463,-1.247 -3.596,0.864 -2.121,2.121 2.484,2.118 4.97,4.235 7.454,6.354 1.463,1.248 3.596,-0.864 2.121,-2.121 l 0,0 z"
   id="path603"
   inkscape:connector-curvature="0" />
			</g>
		</g>
		<g
   style="display:inline"
   id="g605">
			<g
   id="g607">
				<path
   style="fill:#ffffff"
   d="m 207.838,238.501 c -3.514,0 -7.027,0 -10.541,0 -1.935,0 -1.935,3 0,3 3.514,0 7.027,0 10.541,0 1.934,0 1.934,-3 0,-3 l 0,0 z"
   id="path609"
   inkscape:connector-curvature="0" />
			</g>
		</g>
		<g
   style="display:inline"
   id="g611">
			<g
   id="g613">
				<path
   style="fill:#ffffff"
   d="m 207.233,242.417 c -2.484,2.118 -4.97,4.235 -7.454,6.354 -1.475,1.257 0.658,3.368 2.121,2.121 2.484,-2.118 4.97,-4.235 7.454,-6.354 1.475,-1.257 -0.658,-3.368 -2.121,-2.121 l 0,0 z"
   id="path615"
   inkscape:connector-curvature="0" />
			</g>
		</g>
		<g
   style="display:inline"
   id="g617">
			<g
   id="g619">
				<path
   style="fill:#ffffff"
   d="m 209.354,235.113 c -2.484,-2.118 -4.97,-4.235 -7.454,-6.354 -1.463,-1.247 -3.596,0.864 -2.121,2.121 2.484,2.118 4.97,4.235 7.454,6.354 1.463,1.247 3.596,-0.864 2.121,-2.121 l 0,0 z"
   id="path621"
   inkscape:connector-curvature="0" />
			</g>
		</g>
	</g>
	<path
   style="fill:#000000"
   d="m 188.53116,245.08064 c 6.24,0 11.02,1.109 14.34,3.33 3.32,2.22 4.98,5.67 4.98,10.35 0,2.92 -0.67,5.29 -2.01,7.109 -1.342,1.821 -3.271,3.251 -5.791,4.291 0.84,1.04 1.72,2.23 2.641,3.569 0.92,1.341 1.83,2.74 2.73,4.2 0.899,1.461 1.77,2.98 2.609,4.561 0.839,1.581 1.62,3.13 2.34,4.649 h -10.463 c -0.764,-1.359 -1.537,-2.739 -2.32,-4.14 -0.782,-1.4 -1.585,-2.76 -2.408,-4.08 -0.822,-1.32 -1.637,-2.57 -2.439,-3.75 -0.802,-1.18 -1.606,-2.25 -2.409,-3.211 h -4.62 v 15.181 h -9.36 v -40.979 c 2.04,-0.4 4.149,-0.68 6.331,-0.84 2.179,-0.159 4.129,-0.24 5.849,-0.24 z m 0.54,7.98 c -0.681,0 -1.29,0.021 -1.83,0.06 -0.54,0.041 -1.05,0.081 -1.53,0.121 v 11.279 h 2.641 c 3.52,0 6.039,-0.439 7.56,-1.32 1.521,-0.879 2.28,-2.379 2.28,-4.5 0,-2.039 -0.771,-3.488 -2.311,-4.35 -1.54,-0.859 -3.81,-1.29 -6.81,-1.29 z"
   id="path623"
   inkscape:connector-curvature="0" />
	<path
   style="fill:#000000"
   d="m 234.57116,252.22988 c -4.36,0 -7.511,1.21 -9.45,3.63 -1.94,2.421 -2.91,5.729 -2.91,9.931 0,2.039 0.24,3.891 0.721,5.549 0.479,1.66 1.199,3.09 2.16,4.291 0.959,1.199 2.159,2.129 3.6,2.789 1.439,0.66 3.119,0.99 5.04,0.99 1.04,0 1.929,-0.02 2.67,-0.06 0.739,-0.04 1.39,-0.12 1.95,-0.24 v -14.46 h 9.359 v 20.58 c -1.12,0.44 -2.92,0.91 -5.4,1.41 -2.48,0.5 -5.54,0.75 -9.18,0.75 -3.119,0 -5.95,-0.48 -8.49,-1.44 -2.54,-0.96 -4.709,-2.359 -6.51,-4.2 -1.8,-1.839 -3.189,-4.1 -4.17,-6.779 -0.981,-2.679 -1.47,-5.74 -1.47,-9.18 0,-3.48 0.54,-6.561 1.62,-9.24 1.08,-2.679 2.559,-4.95 4.439,-6.811 1.88,-1.859 4.09,-3.27 6.631,-4.23 2.539,-0.959 5.25,-1.439 8.129,-1.439 1.96,0 3.73,0.131 5.311,0.391 1.581,0.26 2.939,0.561 4.08,0.899 1.141,0.341 2.08,0.69 2.82,1.05 0.739,0.36 1.27,0.641 1.59,0.84 l -2.7,7.5 c -1.28,-0.68 -2.751,-1.27 -4.41,-1.77 -1.66,-0.501 -3.47,-0.751 -5.43,-0.751 z"
   id="path625"
   inkscape:connector-curvature="0" />
	<path
   style="fill:#000000"
   d="m 268.27116,287.14988 c -2.28,0 -4.551,-0.07 -6.811,-0.21 -2.26,-0.141 -4.61,-0.47 -7.05,-0.99 v -40.319 c 1.921,-0.36 4.021,-0.631 6.3,-0.811 2.28,-0.18 4.4,-0.27 6.36,-0.27 2.64,0 5.069,0.189 7.29,0.569 2.221,0.381 4.13,1.03 5.73,1.95 1.6,0.921 2.85,2.13 3.75,3.63 0.899,1.5 1.35,3.351 1.35,5.55 0,3.32 -1.601,5.94 -4.801,7.86 2.641,1.001 4.441,2.36 5.4,4.08 0.961,1.72 1.44,3.66 1.44,5.819 0,4.361 -1.591,7.641 -4.771,9.841 -3.18,2.2 -7.907,3.301 -14.187,3.301 z m -4.74,-25.8 h 4.561 c 2.879,0 4.939,-0.37 6.18,-1.11 1.239,-0.74 1.859,-1.93 1.859,-3.57 0,-1.68 -0.64,-2.859 -1.92,-3.539 -1.28,-0.68 -3.16,-1.021 -5.64,-1.021 -0.801,0 -1.66,0.011 -2.58,0.03 -0.921,0.021 -1.739,0.07 -2.46,0.15 v 9.06 z m 0,7.14 v 10.74 c 0.68,0.08 1.42,0.141 2.221,0.18 0.799,0.041 1.68,0.061 2.639,0.061 2.801,0 5.061,-0.4 6.781,-1.2 1.719,-0.8 2.58,-2.28 2.58,-4.44 0,-1.92 -0.721,-3.289 -2.16,-4.109 -1.44,-0.82 -3.501,-1.23 -6.181,-1.23 h -5.88 z"
   id="path627"
   inkscape:connector-curvature="0" />
</g>
<g
   id="Ebene_1">
</g>
</svg>