<?xml version="1.0" standalone="no"?>
<!DOCTYPE svg PUBLIC "-//W3C//DTD SVG 20010904//EN"
 "http://www.w3.org/TR/2001/REC-SVG-20010904/DTD/svg10.dtd">
<svg version="1.0" xmlns="http://www.w3.org/2000/svg"
 width="468pt" height="468pt" viewBox="0 0 468 468"
 preserveAspectRatio="xMidYMid meet">
<metadata>
Created by potrace 1.8, written by Peter Selinger 2001-2007
</metadata>
<g transform="translate(0,468) scale(0.158108,-0.158108)"
fill="#000000" stroke="none">
<path d="M2019 2949 c-38 -14 -55 -60 -39 -99 10 -24 23 -33 54 -42 l41 -11
-3 -440 c-2 -368 -5 -443 -17 -460 -11 -16 -15 -53 -15 -153 l0 -131 -86 -21
c-156 -38 -283 -111 -390 -223 -154 -163 -228 -346 -227 -564 2 -360 232 -666
583 -777 65 -20 95 -23 225 -22 141 0 156 2 245 32 255 84 438 267 522 522 30
89 32 104 32 245 1 130 -2 160 -22 225 -46 144 -109 248 -214 351 -110 109
-281 201 -415 224 l-43 7 0 122 c0 102 -3 128 -20 161 -19 37 -20 59 -20 471
l0 432 34 6 c66 13 92 84 47 129 -19 20 -33 22 -134 24 -61 1 -124 -2 -138 -8z
m264 -1485 c244 -54 450 -250 512 -489 25 -94 22 -252 -7 -350 -53 -181 -180
-336 -338 -413 -126 -62 -191 -75 -335 -69 -101 4 -133 9 -201 35 -255 94
-419 313 -440 585 -17 216 95 457 270 581 168 120 353 161 539 120z"/>
<path d="M219 2941 c-86 -16 -156 -69 -190 -146 -17 -36 -19 -73 -19 -420 0
-361 1 -382 21 -425 11 -25 32 -58 47 -73 30 -32 92 -67 119 -67 13 -1 11 -4
-9 -15 -42 -23 -48 -78 -10 -89 10 -3 99 -19 199 -36 192 -33 215 -32 226 9
11 43 -12 53 -204 87 l-184 32 155 1 c85 1 173 6 195 12 63 18 118 62 150 121
l30 53 3 363 c3 409 0 436 -63 509 -61 71 -105 86 -274 89 -80 2 -167 -1 -192
-5z m362 -169 l29 -32 0 -361 c0 -246 -4 -367 -11 -382 -27 -53 -42 -57 -219
-57 -254 0 -240 -25 -240 428 0 226 4 350 11 371 22 63 53 72 237 69 l164 -3
29 -33z"/>
<path d="M176 1654 c-24 -23 -20 -63 7 -74 48 -20 379 -70 397 -60 35 19 36
74 2 84 -21 6 -366 66 -380 66 -6 0 -18 -7 -26 -16z"/>
<path d="M172 1528 c-16 -16 -15 -53 1 -66 7 -6 100 -26 205 -43 186 -31 193
-32 212 -14 23 21 26 48 6 64 -15 13 -329 71 -381 71 -17 0 -36 -5 -43 -12z"/>
<path d="M246 1388 c-20 -28 -20 -42 -2 -57 17 -15 231 -52 252 -44 37 14 41
77 6 87 -29 9 -196 36 -219 36 -12 0 -29 -10 -37 -22z"/>
</g>
</svg>
