<?xml version="1.0" standalone="no"?>
<!DOCTYPE svg PUBLIC "-//W3C//DTD SVG 20010904//EN"
 "http://www.w3.org/TR/2001/REC-SVG-20010904/DTD/svg10.dtd">
<svg version="1.0" xmlns="http://www.w3.org/2000/svg"
 width="468pt" height="525pt" viewBox="0 0 468 525"
 preserveAspectRatio="xMidYMid meet">
<metadata>
Created by potrace 1.8, written by Peter Selinger 2001-2007
</metadata>
<g transform="translate(0,525) scale(0.176604,-0.176604)"
fill="#000000" stroke="none">
<path d="M1905 2958 c-3 -7 -4 -672 -3 -1478 3 -1294 5 -1465 18 -1465 13 0
16 36 20 246 l5 247 84 -39 c90 -42 121 -48 121 -24 0 10 -38 34 -105 65
l-105 49 0 556 c0 305 3 555 8 555 4 0 49 -19 100 -42 78 -35 95 -40 102 -28
13 21 -1 31 -100 75 -47 22 -91 43 -97 48 -10 7 -13 129 -13 548 0 313 4 539
9 539 5 0 49 -18 97 -40 48 -23 94 -38 101 -36 32 13 6 35 -96 83 l-110 51 -3
48 c-3 46 -22 71 -33 42z"/>
<path d="M142 2934 c-53 -26 -83 -58 -118 -124 -18 -32 -19 -63 -19 -420 l0
-385 30 -54 c32 -57 92 -109 138 -118 33 -7 34 -15 4 -28 -25 -11 -35 -56 -15
-72 12 -10 351 -73 390 -73 45 0 66 74 26 89 -13 4 -102 21 -198 37 l-175 29
180 5 c149 4 186 8 218 24 49 24 114 99 127 145 6 21 10 190 10 411 0 427 0
423 -83 496 -64 57 -98 64 -294 64 -162 0 -171 -1 -221 -26z m430 -142 l33
-32 0 -370 0 -370 -33 -32 -32 -33 -143 -3 c-167 -4 -209 5 -237 51 -19 30
-20 53 -20 385 0 301 2 357 16 383 26 51 60 59 231 56 l153 -2 32 -33z"/>
<path d="M2606 2944 c-3 -9 -6 -98 -6 -200 l0 -183 -77 36 c-82 38 -123 46
-130 25 -3 -7 35 -31 101 -62 l106 -49 0 -545 0 -545 -37 16 c-21 8 -59 26
-85 39 -55 28 -88 31 -88 8 0 -10 37 -33 105 -64 l105 -50 0 -559 0 -560 -95
45 c-105 49 -110 50 -119 29 -6 -18 9 -28 126 -81 l87 -39 3 -95 c3 -87 5 -95
23 -95 20 0 20 8 23 1450 1 798 0 1460 -3 1473 -6 25 -30 29 -39 6z"/>
<path d="M2234 2810 c-25 -10 -35 -40 -22 -64 12 -22 124 -76 156 -76 25 0 49
39 39 64 -6 14 -77 55 -130 75 -12 5 -32 5 -43 1z"/>
<path d="M2142 2710 c-14 -6 -33 -33 -52 -74 -24 -53 -32 -64 -48 -59 -24 6
-65 -31 -60 -55 3 -19 299 -170 334 -171 24 -1 54 28 54 52 0 9 -9 22 -20 30
-20 14 -20 14 6 72 47 103 36 124 -91 179 -91 39 -90 39 -123 26z"/>
<path d="M171 1671 c-24 -24 -27 -44 -7 -64 8 -8 94 -27 205 -45 212 -36 231
-34 231 19 0 39 -10 42 -200 74 -85 14 -167 28 -182 31 -19 4 -33 -1 -47 -15z"/>
<path d="M2216 1664 c-9 -8 -16 -27 -16 -40 0 -21 11 -30 76 -61 64 -30 79
-34 100 -25 18 9 24 19 24 42 0 29 -5 34 -74 66 -85 39 -89 40 -110 18z"/>
<path d="M2130 1571 c-9 -5 -29 -37 -45 -70 -22 -48 -34 -61 -51 -61 -31 0
-56 -27 -52 -57 3 -21 26 -35 163 -99 128 -60 165 -74 184 -67 35 12 45 49 21
73 -25 25 -25 21 6 91 38 83 27 105 -74 154 -84 40 -128 51 -152 36z"/>
<path d="M165 1536 c-27 -40 -7 -62 67 -75 275 -48 329 -55 346 -45 18 12 29
61 15 75 -9 8 -349 69 -389 69 -14 0 -30 -10 -39 -24z"/>
<path d="M246 1414 c-18 -17 -21 -59 -7 -69 6 -3 61 -15 123 -26 131 -23 158
-18 158 30 0 16 -5 33 -12 37 -12 7 -201 44 -230 44 -9 0 -24 -7 -32 -16z"/>
<path d="M2207 489 c-25 -35 -9 -59 60 -90 72 -32 105 -36 123 -14 25 30 4 61
-66 94 -78 36 -98 38 -117 10z"/>
<path d="M2118 393 c-9 -10 -28 -42 -42 -70 -21 -42 -31 -53 -51 -53 -28 0
-59 -39 -50 -62 7 -19 305 -158 337 -158 48 0 66 55 27 81 -20 14 -20 14 9 77
44 92 35 113 -73 163 -91 43 -134 48 -157 22z"/>
</g>
</svg>
