<?xml version="1.0" standalone="no"?>
<!DOCTYPE svg PUBLIC "-//W3C//DTD SVG 20010904//EN"
 "http://www.w3.org/TR/2001/REC-SVG-20010904/DTD/svg10.dtd">
<svg version="1.0" xmlns="http://www.w3.org/2000/svg"
 width="468pt" height="472pt" viewBox="0 0 468 472"
 preserveAspectRatio="xMidYMid meet">
<metadata>
Created by potrace 1.8, written by Peter Selinger 2001-2007
</metadata>
<g transform="translate(0,472) scale(0.158644,-0.158644)"
fill="#000000" stroke="none">
<path d="M180 2955 c-63 -20 -123 -74 -149 -135 -21 -49 -22 -59 -19 -438 l3
-389 30 -49 c33 -53 119 -113 165 -115 23 -1 23 -2 -5 -8 -17 -4 -35 -17 -45
-33 -26 -47 -3 -57 187 -89 92 -16 178 -31 191 -34 30 -7 73 34 65 64 -6 25
-2 24 -208 60 l-160 28 160 4 c184 5 224 17 287 87 66 73 70 101 66 514 -3
350 -4 364 -25 403 -25 47 -74 95 -123 121 -30 16 -61 19 -205 21 -125 2 -182
-1 -215 -12z m396 -159 l34 -34 0 -367 0 -367 -34 -34 -34 -34 -156 0 c-121 0
-164 4 -186 15 -59 30 -60 40 -60 420 0 460 -14 435 238 435 l164 0 34 -34z"/>
<path d="M2795 2395 c-14 -13 -25 -28 -25 -34 0 -26 52 -247 61 -257 27 -33
104 -13 115 30 9 37 -42 258 -63 274 -26 19 -62 14 -88 -13z"/>
<path d="M2797 2016 c-26 -20 -31 -47 -73 -388 -37 -302 -38 -309 -25 -437 16
-161 20 -180 54 -205 21 -16 33 -18 53 -10 47 16 49 30 32 191 l-16 148 39
305 c48 370 48 379 24 396 -24 18 -65 17 -88 0z"/>
<path d="M172 1678 c-13 -13 -16 -64 -4 -72 17 -10 366 -67 395 -64 39 4 61
48 36 73 -8 8 -90 27 -193 44 -199 35 -217 36 -234 19z"/>
<path d="M177 1552 c-24 -26 -21 -61 6 -72 12 -5 102 -23 200 -40 186 -31 209
-30 222 9 8 26 -4 50 -29 56 -24 6 -368 65 -377 65 -3 0 -13 -8 -22 -18z"/>
<path d="M262 1429 c-25 -10 -36 -42 -23 -67 8 -15 34 -23 118 -37 60 -9 120
-15 133 -13 32 4 51 51 29 73 -18 18 -229 54 -257 44z"/>
<path d="M700 1240 c-30 -30 -26 -75 10 -102 l30 -22 0 -487 c0 -476 0 -487
-20 -492 -28 -7 -46 -51 -34 -85 18 -51 28 -52 440 -50 360 3 383 4 403 22 26
24 28 77 3 99 -16 14 -44 17 -185 17 l-167 0 0 490 0 490 365 0 c352 0 366 1
385 20 11 11 20 33 20 50 0 17 -9 39 -20 50 -20 20 -33 20 -615 20 -582 0
-595 0 -615 -20z m340 -610 l0 -490 -80 0 -80 0 0 490 0 490 80 0 80 0 0 -490z"/>
<path d="M2188 1249 c-25 -14 -24 -65 1 -79 11 -5 82 -10 159 -10 163 0 152
10 152 -132 l0 -88 -218 0 c-181 0 -221 -3 -240 -16 -29 -20 -30 -76 -2 -104
18 -18 33 -20 180 -20 l160 0 0 -240 c0 -139 -4 -240 -9 -240 -5 0 -86 -28
-180 -61 -152 -54 -172 -64 -178 -87 -7 -28 6 -55 30 -60 8 -2 105 29 214 68
l200 72 202 -73 c222 -79 236 -81 236 -18 0 38 15 30 -257 129 l-118 42 0 233
0 234 151 3 c135 3 152 5 165 22 20 28 17 73 -6 96 -18 18 -33 20 -155 20
l-135 0 0 110 0 110 58 0 c64 0 82 11 82 50 0 14 -5 31 -12 38 -15 15 -454 16
-480 1z"/>
<path d="M1996 78 c-13 -19 -14 -25 -2 -43 20 -30 80 -33 99 -4 16 22 12 48
-7 61 -24 16 -75 8 -90 -14z"/>
<path d="M2812 88 c-7 -7 -12 -21 -12 -33 0 -31 19 -45 62 -45 31 0 41 5 49
24 18 38 -3 66 -49 66 -21 0 -43 -5 -50 -12z"/>
</g>
</svg>
