<?xml version="1.0" standalone="no"?>
<!DOCTYPE svg PUBLIC "-//W3C//DTD SVG 20010904//EN"
 "http://www.w3.org/TR/2001/REC-SVG-20010904/DTD/svg10.dtd">
<svg version="1.0" xmlns="http://www.w3.org/2000/svg"
 width="468pt" height="468pt" viewBox="0 0 468 468"
 preserveAspectRatio="xMidYMid meet">
<metadata>
Created by potrace 1.8, written by Peter Selinger 2001-2007
</metadata>
<g transform="translate(0,468) scale(0.158108,-0.158108)"
fill="#000000" stroke="none">
<path d="M163 2939 c-62 -24 -124 -89 -141 -147 -8 -27 -12 -156 -12 -414 l0
-374 26 -53 c28 -56 80 -101 142 -123 25 -9 92 -13 207 -13 157 1 174 2 217
24 26 13 62 39 79 59 64 72 64 72 67 465 4 406 0 436 -65 508 -69 76 -94 84
-293 86 -156 3 -181 1 -227 -18z m413 -153 l34 -34 0 -364 c0 -398 1 -391 -60
-423 -42 -22 -309 -21 -350 0 -59 30 -60 40 -60 420 0 460 -14 435 238 435
l164 0 34 -34z"/>
<path d="M1388 2774 c-63 -33 -59 48 -59 -1334 1 -745 5 -1268 10 -1282 5 -14
22 -36 38 -49 15 -13 29 -36 31 -49 5 -47 24 -55 140 -58 97 -3 110 -2 135 18
15 12 27 30 27 41 0 18 12 19 434 19 l434 0 11 -30 c14 -40 44 -50 155 -50 79
0 97 3 120 21 19 15 26 30 26 55 0 19 5 34 10 34 6 0 19 15 30 33 20 31 20 54
20 1285 0 1360 3 1295 -55 1340 l-28 22 -726 0 c-623 -1 -730 -3 -753 -16z
m702 -329 l0 -255 -335 0 -335 0 0 233 c0 238 3 257 40 270 8 3 153 6 323 6
l307 1 0 -255z m744 249 c14 -5 16 -37 16 -255 l0 -249 -330 0 -330 0 0 255 0
255 314 0 c173 0 321 -3 330 -6z m-744 -768 c0 -215 -1 -224 -20 -229 -17 -4
-20 -14 -20 -61 l0 -56 -315 0 -315 0 0 285 0 285 335 0 335 0 0 -224z m760
-61 l0 -285 -310 0 -310 0 0 50 c0 39 -4 53 -20 62 -19 12 -20 24 -20 235 l0
223 330 0 330 0 0 -285z m-800 -380 c0 -44 4 -57 20 -67 19 -12 20 -24 20
-215 l0 -203 -335 0 -335 0 0 270 0 270 315 0 315 0 0 -55z m800 -215 l0 -270
-330 0 -330 0 0 205 c0 194 1 205 20 215 16 9 20 21 20 65 l0 55 310 0 310 0
0 -270z m0 -525 l0 -155 -715 0 -715 0 0 155 0 155 715 0 715 0 0 -155z m-2
-407 l-3 -153 -700 -3 c-649 -2 -701 -1 -712 15 -9 11 -13 60 -13 155 l0 138
715 0 716 0 -3 -152z"/>
<path d="M1524 805 c-12 -30 7 -35 129 -35 127 0 154 7 144 34 -9 23 -265 24
-273 1z"/>
<path d="M2483 805 c-11 -30 12 -36 143 -33 121 3 129 4 129 23 0 19 -8 20
-133 23 -114 2 -133 0 -139 -13z"/>
<path d="M1527 394 c-4 -4 -7 -13 -7 -21 0 -11 27 -13 138 -11 114 3 137 6
137 18 0 12 -22 15 -131 18 -71 1 -133 -1 -137 -4z"/>
<path d="M2487 394 c-4 -4 -7 -13 -7 -21 0 -10 30 -13 141 -13 128 0 140 2
137 18 -3 15 -19 17 -134 20 -71 1 -133 -1 -137 -4z"/>
<path d="M166 1788 c-38 -53 -20 -63 180 -98 234 -41 254 -40 254 21 0 34 6
32 -206 69 -202 36 -209 36 -228 8z"/>
<path d="M171 1666 c-7 -8 -11 -27 -9 -43 l3 -28 180 -32 c211 -38 234 -38
255 -1 25 46 4 55 -191 88 -199 34 -222 35 -238 16z"/>
<path d="M178 1549 c-20 -11 -24 -64 -6 -75 26 -16 391 -73 409 -63 34 18 35
73 1 83 -22 7 -363 66 -377 66 -5 0 -18 -5 -27 -11z"/>
<path d="M250 1410 c-49 -49 -18 -73 126 -96 l117 -18 18 23 c42 51 22 67
-122 91 -63 11 -115 20 -116 20 -2 0 -12 -9 -23 -20z"/>
</g>
</svg>
