<?xml version="1.0" standalone="no"?>
<!DOCTYPE svg PUBLIC "-//W3C//DTD SVG 20010904//EN"
 "http://www.w3.org/TR/2001/REC-SVG-20010904/DTD/svg10.dtd">
<svg version="1.0" xmlns="http://www.w3.org/2000/svg"
 width="273pt" height="648pt" viewBox="0 0 273 648"
 preserveAspectRatio="xMidYMid meet">
<metadata>
Created by potrace 1.8, written by Peter Selinger 2001-2007
</metadata>
<g transform="translate(0,648) scale(0.219661,-0.219661)"
fill="#000000" stroke="none">
<path d="M307 2939 c-148 -36 -268 -165 -297 -319 -13 -71 -13 -1239 0 -1310
25 -131 99 -229 218 -287 l76 -38 293 -3 c250 -3 303 -1 351 13 145 42 251
156 283 303 6 30 9 282 7 697 -3 621 -4 652 -23 698 -41 100 -133 192 -232
232 -43 17 -77 19 -343 21 -162 2 -312 -1 -333 -7z m643 -148 c61 -32 97 -67
126 -123 l24 -47 0 -656 c0 -644 0 -656 -21 -700 -11 -24 -39 -61 -61 -81 -76
-68 -81 -69 -398 -69 l-285 0 -51 27 c-58 30 -98 73 -125 133 -17 37 -19 82
-19 688 0 703 -2 678 56 754 31 41 98 81 155 93 24 5 159 8 299 7 246 -2 257
-3 300 -26z"/>
<path d="M274 890 c-11 -4 -27 -22 -34 -39 -10 -26 -10 -35 4 -56 20 -30 -11
-23 385 -90 300 -50 327 -54 348 -39 35 22 47 61 29 90 -9 12 -23 25 -33 28
-18 5 -669 117 -675 115 -2 0 -12 -4 -24 -9z"/>
<path d="M285 658 c-50 -26 -62 -87 -22 -112 12 -8 174 -40 360 -71 l339 -58
26 20 c31 23 42 82 19 102 -8 6 -160 36 -338 66 -178 30 -333 57 -344 60 -11
2 -29 -1 -40 -7z"/>
<path d="M265 415 c-27 -26 -32 -62 -12 -88 9 -13 91 -30 337 -73 179 -30 340
-56 359 -57 62 -2 99 85 49 117 -19 11 -651 126 -696 126 -7 0 -24 -11 -37
-25z"/>
<path d="M406 179 c-30 -23 -36 -78 -11 -99 8 -7 104 -27 212 -46 219 -38 241
-36 263 17 10 24 10 33 -4 54 -9 13 -26 27 -39 30 -30 6 -377 65 -387 65 -4 0
-19 -9 -34 -21z"/>
</g>
</svg>
