<?xml version="1.0" standalone="no"?>
<!DOCTYPE svg PUBLIC "-//W3C//DTD SVG 20010904//EN"
 "http://www.w3.org/TR/2001/REC-SVG-20010904/DTD/svg10.dtd">
<svg version="1.0" xmlns="http://www.w3.org/2000/svg"
 width="468pt" height="470pt" viewBox="0 0 468 470"
 preserveAspectRatio="xMidYMid meet">
<metadata>
Created by potrace 1.8, written by Peter Selinger 2001-2007
</metadata>
<g transform="translate(0,470) scale(0.159184,-0.159184)"
fill="#000000" stroke="none">
<path d="M1930 2937 c-83 -43 -45 -157 51 -157 l39 0 0 -358 0 -357 -279 -178
c-154 -98 -282 -185 -285 -193 -3 -8 -1 -25 4 -39 l10 -25 603 0 c456 0 606 3
615 12 22 22 13 56 -20 81 -18 13 -149 97 -290 187 l-258 164 0 353 0 353 35
0 c42 0 90 22 99 45 13 35 6 72 -20 96 -24 22 -34 24 -152 27 -90 2 -134 -1
-152 -11z m346 -1078 c104 -66 191 -123 193 -125 2 -2 -175 -4 -394 -4 l-399
0 195 125 c107 68 199 125 205 125 6 0 96 -54 200 -121z"/>
<path d="M197 2926 c-72 -20 -127 -63 -159 -125 l-28 -53 0 -382 c0 -379 0
-381 24 -432 28 -60 84 -110 146 -128 42 -12 43 -13 17 -20 -50 -12 -61 -80
-14 -91 99 -21 379 -64 391 -59 20 8 32 52 19 73 -7 11 -63 25 -189 47 l-179
31 170 4 c193 5 220 13 288 88 65 72 69 102 65 508 -3 351 -3 359 -26 405 -26
53 -78 103 -131 126 -50 21 -326 27 -394 8z m379 -160 l34 -34 0 -367 0 -367
-34 -34 -34 -34 -164 0 c-252 0 -238 -25 -238 435 0 289 2 351 15 375 27 52
54 59 229 60 l158 0 34 -34z"/>
<path d="M172 1648 c-15 -15 -16 -64 -2 -73 23 -14 387 -71 407 -64 26 9 38
42 24 67 -8 15 -45 24 -203 51 -220 36 -210 35 -226 19z"/>
<path d="M182 1524 c-24 -17 -29 -56 -9 -72 6 -5 99 -24 206 -42 l194 -33 19
23 c44 55 16 70 -192 104 -91 15 -172 30 -180 32 -9 2 -26 -3 -38 -12z"/>
<path d="M246 1384 c-19 -19 -21 -48 -3 -62 19 -16 231 -50 254 -41 38 14 41
72 4 84 -31 9 -185 35 -213 35 -15 0 -34 -7 -42 -16z"/>
<path d="M1262 1065 c-39 -17 -66 -72 -57 -116 4 -16 20 -40 37 -54 l30 -25
254 0 254 0 0 -335 0 -335 -35 0 c-19 0 -45 -5 -58 -11 -67 -30 -67 -148 0
-178 34 -16 716 -15 746 1 47 25 65 80 43 133 -18 42 -42 55 -100 55 l-46 0 0
335 0 334 275 3 275 3 27 28 c40 39 40 105 0 144 l-27 28 -793 2 c-671 2 -797
0 -825 -12z m868 -530 l0 -335 -75 0 -75 0 0 335 0 335 75 0 75 0 0 -335z"/>
</g>
</svg>
