<?xml version="1.0" standalone="no"?>
<!DOCTYPE svg PUBLIC "-//W3C//DTD SVG 20010904//EN"
 "http://www.w3.org/TR/2001/REC-SVG-20010904/DTD/svg10.dtd">
<svg version="1.0" xmlns="http://www.w3.org/2000/svg"
 width="468pt" height="465pt" viewBox="0 0 468 465"
 preserveAspectRatio="xMidYMid meet">
<metadata>
Created by potrace 1.8, written by Peter Selinger 2001-2007
</metadata>
<g transform="translate(0,465) scale(0.157576,-0.157576)"
fill="#000000" stroke="none">
<path d="M142 2924 c-53 -26 -83 -58 -118 -124 -18 -32 -19 -63 -19 -420 l0
-385 30 -54 c32 -57 92 -109 138 -118 33 -7 34 -15 4 -28 -25 -11 -35 -56 -15
-72 12 -10 351 -73 390 -73 45 0 66 74 26 89 -13 4 -102 21 -198 37 l-175 29
180 5 c149 4 186 8 218 24 49 24 114 99 127 145 6 21 10 190 10 411 0 427 0
423 -83 496 -64 57 -98 64 -294 64 -162 0 -171 -1 -221 -26z m430 -142 l33
-32 0 -370 0 -370 -33 -32 -32 -33 -143 -3 c-167 -4 -209 5 -237 51 -19 30
-20 53 -20 385 0 301 2 357 16 383 26 51 60 59 231 56 l153 -2 32 -33z"/>
<path d="M2364 2265 c-280 -212 -517 -395 -526 -406 -24 -28 -23 -64 2 -89 17
-17 33 -20 120 -20 l100 0 0 -214 0 -215 -78 -29 c-95 -37 -320 -103 -467
-136 -350 -80 -726 -122 -1187 -135 -257 -7 -290 -10 -308 -26 -24 -22 -26
-62 -4 -93 13 -19 24 -22 90 -22 l74 0 0 -55 c0 -30 -5 -55 -10 -55 -6 0 -19
-9 -30 -20 -18 -18 -20 -33 -20 -127 1 -73 5 -114 14 -125 34 -46 130 -46 166
-1 17 22 20 41 20 124 0 89 -2 100 -25 127 -19 23 -25 41 -25 79 l0 50 142 7
c79 3 189 9 245 13 l103 6 0 -41 c0 -32 -6 -47 -30 -70 -29 -30 -30 -33 -30
-130 0 -84 3 -103 20 -125 42 -54 150 -42 176 19 28 68 10 244 -26 244 -7 0
-10 21 -8 58 l3 57 70 7 c78 8 285 37 328 45 26 5 27 4 27 -33 0 -30 -6 -43
-27 -60 -27 -21 -28 -27 -31 -121 -3 -118 6 -142 65 -162 35 -13 46 -13 79 0
56 21 65 47 62 162 -3 89 -5 101 -25 117 -18 15 -23 28 -23 69 0 44 3 51 23
56 12 3 65 14 117 25 88 19 268 66 297 77 9 4 13 -7 13 -35 0 -32 -7 -47 -30
-70 -29 -30 -30 -32 -30 -134 0 -99 1 -106 26 -129 36 -34 112 -34 148 0 25
23 26 30 26 126 0 88 -3 106 -20 128 -17 21 -20 38 -18 88 l3 61 50 19 c28 10
53 19 58 19 4 0 7 -236 7 -525 0 -599 -4 -567 82 -608 53 -25 55 -25 431 -31
l377 -6 0 70 0 70 -120 0 -120 0 0 460 0 460 125 0 125 0 0 65 0 65 -138 0
c-156 0 -192 -11 -227 -71 -19 -33 -20 -55 -23 -507 l-3 -472 -170 0 c-98 0
-178 4 -190 10 -18 10 -19 27 -19 546 l0 534 23 9 c12 5 51 25 85 45 35 20 66
36 68 36 2 0 4 -13 4 -29 0 -19 -10 -40 -30 -59 -29 -30 -30 -33 -30 -130 0
-85 3 -103 20 -125 35 -45 119 -48 160 -7 17 17 20 34 20 127 0 92 -3 110 -19
127 -15 16 -20 38 -22 93 l-2 72 63 67 c71 76 118 165 127 243 l6 51 128 0
c116 0 131 2 149 20 19 19 20 33 20 428 l0 409 -23 21 c-13 12 -33 22 -44 22
-11 0 -243 -169 -529 -385z m156 -547 c-1 -95 -104 -209 -282 -312 l-48 -27 0
186 0 185 165 0 165 0 0 -32z"/>
<path d="M171 1661 c-24 -24 -27 -44 -7 -64 8 -8 94 -27 205 -45 212 -36 231
-34 231 19 0 39 -10 42 -200 74 -85 14 -167 28 -182 31 -19 4 -33 -1 -47 -15z"/>
<path d="M165 1526 c-27 -40 -7 -62 67 -75 275 -48 329 -55 346 -45 18 12 29
61 15 75 -9 8 -349 69 -389 69 -14 0 -30 -10 -39 -24z"/>
<path d="M246 1404 c-18 -17 -21 -59 -7 -69 6 -3 61 -15 123 -26 131 -23 158
-18 158 30 0 16 -5 33 -12 37 -12 7 -201 44 -230 44 -9 0 -24 -7 -32 -16z"/>
</g>
</svg>
