<?xml version="1.0" standalone="no"?>
<!DOCTYPE svg PUBLIC "-//W3C//DTD SVG 20010904//EN"
 "http://www.w3.org/TR/2001/REC-SVG-20010904/DTD/svg10.dtd">
<svg version="1.0" xmlns="http://www.w3.org/2000/svg"
 width="468pt" height="470pt" viewBox="0 0 468 470"
 preserveAspectRatio="xMidYMid meet">
<metadata>
Created by potrace 1.8, written by Peter Selinger 2001-2007
</metadata>
<g transform="translate(0,470) scale(0.158108,-0.158108)"
fill="#000000" stroke="none">
<path d="M163 2949 c-62 -24 -124 -89 -141 -147 -8 -27 -12 -156 -12 -414 l0
-374 26 -53 c28 -56 80 -101 142 -123 25 -9 92 -13 207 -13 157 1 174 2 217
24 26 13 62 39 79 59 64 72 64 72 67 465 4 406 0 436 -65 508 -69 76 -94 84
-293 86 -156 3 -181 1 -227 -18z m413 -153 l34 -34 0 -364 c0 -398 1 -391 -60
-423 -42 -22 -309 -21 -350 0 -59 30 -60 40 -60 420 0 460 -14 435 238 435
l164 0 34 -34z"/>
<path d="M1511 2944 c-26 -33 -26 -55 -3 -82 9 -11 155 -106 325 -212 l307
-191 0 -437 c-1 -347 -3 -433 -13 -417 -6 11 -70 130 -142 264 -71 134 -138
249 -147 255 -13 7 -50 0 -155 -33 -122 -38 -153 -44 -269 -50 -184 -9 -187
-14 -128 -155 49 -116 58 -117 183 -11 81 69 93 76 204 111 64 21 118 36 120
33 3 -2 81 -149 176 -326 l171 -322 0 -581 0 -580 -55 0 c-31 0 -69 -7 -84
-15 -55 -28 -65 -113 -19 -162 21 -23 25 -23 239 -23 192 0 219 2 238 18 46
37 43 123 -5 161 -22 17 -41 21 -100 21 l-74 0 0 1118 1 1117 329 204 c181
113 332 211 335 219 11 28 4 63 -15 82 -20 20 -33 20 -709 20 l-690 0 -20 -26z
m1119 -118 c0 -2 -92 -61 -204 -130 l-204 -127 -204 127 c-111 69 -205 128
-207 130 -2 2 181 4 407 4 227 0 412 -2 412 -4z"/>
<path d="M166 1798 c-38 -53 -20 -63 180 -98 234 -41 254 -40 254 21 0 34 6
32 -206 69 -202 36 -209 36 -228 8z"/>
<path d="M171 1676 c-7 -8 -11 -27 -9 -43 l3 -28 180 -32 c211 -38 234 -38
255 -1 25 46 4 55 -191 88 -199 34 -222 35 -238 16z"/>
<path d="M178 1559 c-20 -11 -24 -64 -6 -75 26 -16 391 -73 409 -63 34 18 35
73 1 83 -22 7 -363 66 -377 66 -5 0 -18 -5 -27 -11z"/>
<path d="M250 1420 c-49 -49 -18 -73 126 -96 l117 -18 18 23 c42 51 22 67
-122 91 -63 11 -115 20 -116 20 -2 0 -12 -9 -23 -20z"/>
</g>
</svg>
