<?xml version="1.0" standalone="no"?>
<!DOCTYPE svg PUBLIC "-//W3C//DTD SVG 20010904//EN"
 "http://www.w3.org/TR/2001/REC-SVG-20010904/DTD/svg10.dtd">
<svg version="1.0" xmlns="http://www.w3.org/2000/svg"
 width="468pt" height="467pt" viewBox="0 0 468 467"
 preserveAspectRatio="xMidYMid meet">
<metadata>
Created by potrace 1.8, written by Peter Selinger 2001-2007
</metadata>
<g transform="translate(0,467) scale(0.158108,-0.158108)"
fill="#000000" stroke="none">
<path d="M142 2924 c-53 -26 -83 -58 -118 -124 -18 -32 -19 -63 -19 -420 l0
-385 30 -54 c32 -57 92 -109 138 -118 33 -7 34 -15 4 -28 -25 -11 -35 -56 -15
-72 12 -10 351 -73 390 -73 45 0 66 74 26 89 -13 4 -102 21 -198 37 l-175 29
180 5 c149 4 186 8 218 24 49 24 114 99 127 145 6 21 10 190 10 411 0 427 0
423 -83 496 -64 57 -98 64 -294 64 -162 0 -171 -1 -221 -26z m430 -142 l33
-32 0 -370 0 -370 -33 -32 -32 -33 -143 -3 c-167 -4 -209 5 -237 51 -19 30
-20 53 -20 385 0 301 2 357 16 383 26 51 60 59 231 56 l153 -2 32 -33z"/>
<path d="M1103 2425 c-25 -18 -39 -67 -25 -91 5 -10 112 -97 237 -193 l228
-176 58 -165 c32 -91 59 -166 59 -167 0 -2 -38 -3 -84 -3 -101 0 -133 -10
-147 -47 -14 -36 -19 -26 245 -482 l216 -373 0 -257 0 -257 -217 -41 c-184
-36 -221 -46 -236 -64 -22 -27 -16 -66 15 -92 19 -16 58 -17 514 -17 481 0
495 1 514 20 23 23 27 82 6 99 -8 7 -114 31 -235 53 l-221 42 0 251 0 252 235
407 c236 408 254 448 220 476 -12 10 -9 23 25 90 l40 79 160 -76 c163 -77 182
-81 224 -50 37 27 23 60 -119 264 -75 109 -145 207 -156 217 -18 19 -21 19
-261 -3 -134 -12 -255 -27 -270 -32 -14 -6 -32 -24 -39 -40 -21 -52 -3 -67
164 -143 84 -38 156 -73 160 -76 5 -4 -13 -51 -40 -104 l-48 -96 -260 0 -260
0 -17 48 c-9 26 -43 120 -74 210 l-58 162 -205 159 c-299 229 -301 231 -315
231 -6 0 -21 -7 -33 -15z m1457 -495 c0 -5 -4 -10 -10 -10 -5 0 -10 5 -10 10
0 6 5 10 10 10 6 0 10 -4 10 -10z m-845 -457 c24 -61 135 -387 132 -389 -3 -3
-47 72 -205 348 l-33 58 49 0 c38 0 52 -4 57 -17z m595 11 c0 -11 -274 -484
-280 -484 -5 0 -171 469 -170 483 0 9 450 10 450 1z"/>
<path d="M171 1661 c-24 -24 -27 -44 -7 -64 8 -8 94 -27 205 -45 212 -36 231
-34 231 19 0 39 -10 42 -200 74 -85 14 -167 28 -182 31 -19 4 -33 -1 -47 -15z"/>
<path d="M165 1526 c-27 -40 -7 -62 67 -75 275 -48 329 -55 346 -45 18 12 29
61 15 75 -9 8 -349 69 -389 69 -14 0 -30 -10 -39 -24z"/>
<path d="M246 1404 c-18 -17 -21 -59 -7 -69 6 -3 61 -15 123 -26 131 -23 158
-18 158 30 0 16 -5 33 -12 37 -12 7 -201 44 -230 44 -9 0 -24 -7 -32 -16z"/>
</g>
</svg>
