<?xml version="1.0" standalone="no"?>
<!DOCTYPE svg PUBLIC "-//W3C//DTD SVG 20010904//EN"
 "http://www.w3.org/TR/2001/REC-SVG-20010904/DTD/svg10.dtd">
<svg version="1.0" xmlns="http://www.w3.org/2000/svg"
 width="468pt" height="361pt" viewBox="0 0 468 361"
 preserveAspectRatio="xMidYMid meet">
<metadata>
Created by potrace 1.8, written by Peter Selinger 2001-2007
</metadata>
<g transform="translate(0,361) scale(0.158108,-0.158108)"
fill="#000000" stroke="none">
<path d="M163 2259 c-62 -24 -124 -89 -141 -147 -8 -27 -12 -156 -12 -414 l0
-374 26 -53 c28 -56 80 -101 142 -123 25 -9 92 -13 207 -13 157 1 174 2 217
24 26 13 62 39 79 59 64 72 64 72 67 465 4 406 0 436 -65 508 -69 76 -94 84
-293 86 -156 3 -181 1 -227 -18z m413 -153 l34 -34 0 -364 c0 -398 1 -391 -60
-423 -42 -22 -309 -21 -350 0 -59 30 -60 40 -60 420 0 460 -14 435 238 435
l164 0 34 -34z"/>
<path d="M1372 1738 c-19 -19 -15 -66 7 -78 11 -5 53 -10 95 -10 66 0 77 -3
90 -22 31 -44 24 -48 -96 -48 -137 -1 -186 -11 -215 -45 l-23 -26 0 -719 0
-720 29 -32 29 -33 802 0 802 0 29 33 29 32 0 718 c0 557 -3 723 -13 742 -19
37 -68 49 -209 49 l-126 1 -11 31 c-6 18 -11 36 -11 40 0 5 41 9 90 9 85 0 91
1 99 23 9 24 4 48 -13 59 -14 10 -488 10 -502 0 -17 -11 -22 -35 -13 -59 8
-22 13 -23 136 -23 70 0 133 -4 139 -8 13 -8 34 -46 34 -61 0 -8 -141 -11
-459 -11 l-459 0 -11 31 c-6 18 -11 34 -11 35 0 2 56 4 125 4 112 0 127 2 145
20 24 24 25 43 4 64 -13 14 -51 16 -258 16 -175 0 -245 -3 -254 -12z m1522
-230 c14 -20 16 -104 16 -714 0 -684 0 -692 -21 -718 l-20 -26 -784 0 -784 0
-15 22 c-14 20 -16 105 -16 722 0 637 1 701 17 718 15 17 53 18 804 18 l788 0
15 -22z"/>
<path d="M2364 645 c-247 -234 -449 -433 -449 -442 0 -9 5 -18 11 -20 14 -5
909 846 909 865 0 8 -5 17 -11 19 -7 2 -214 -188 -460 -422z"/>
<path d="M2301 785 c-168 -159 -248 -241 -244 -251 3 -8 12 -14 19 -12 13 3
347 314 452 421 46 46 51 55 38 66 -13 11 -54 -25 -265 -224z"/>
<path d="M2410 470 c-146 -138 -265 -258 -265 -267 0 -9 5 -18 11 -20 15 -5
539 494 539 514 0 9 -5 18 -10 20 -6 2 -130 -109 -275 -247z"/>
<path d="M166 1108 c-38 -53 -20 -63 180 -98 234 -41 254 -40 254 21 0 34 6
32 -206 69 -202 36 -209 36 -228 8z"/>
<path d="M171 986 c-7 -8 -11 -27 -9 -43 l3 -28 180 -32 c211 -38 234 -38 255
-1 25 46 4 55 -191 88 -199 34 -222 35 -238 16z"/>
<path d="M178 869 c-20 -11 -24 -64 -6 -75 26 -16 391 -73 409 -63 34 18 35
73 1 83 -22 7 -363 66 -377 66 -5 0 -18 -5 -27 -11z"/>
<path d="M250 730 c-49 -49 -18 -73 126 -96 l117 -18 18 23 c42 51 22 67 -122
91 -63 11 -115 20 -116 20 -2 0 -12 -9 -23 -20z"/>
</g>
</svg>
