<?xml version="1.0" standalone="no"?>
<!DOCTYPE svg PUBLIC "-//W3C//DTD SVG 20010904//EN"
 "http://www.w3.org/TR/2001/REC-SVG-20010904/DTD/svg10.dtd">
<svg version="1.0" xmlns="http://www.w3.org/2000/svg"
 width="468pt" height="467pt" viewBox="0 0 468 467"
 preserveAspectRatio="xMidYMid meet">
<metadata>
Created by potrace 1.8, written by Peter Selinger 2001-2007
</metadata>
<g transform="translate(0,467) scale(0.157576,-0.157576)"
fill="#000000" stroke="none">
<path d="M173 2939 c-62 -24 -124 -89 -141 -147 -8 -27 -12 -156 -12 -414 l0
-374 26 -53 c28 -56 80 -101 142 -123 25 -9 92 -13 207 -13 157 1 174 2 217
24 26 13 62 39 79 59 64 72 64 72 67 465 4 406 0 436 -65 508 -69 76 -94 84
-293 86 -156 3 -181 1 -227 -18z m413 -153 l34 -34 0 -364 c0 -398 1 -391 -60
-423 -42 -22 -309 -21 -350 0 -59 30 -60 40 -60 420 0 460 -14 435 238 435
l164 0 34 -34z"/>
<path d="M176 1788 c-38 -53 -20 -63 180 -98 234 -41 254 -40 254 21 0 34 6
32 -206 69 -202 36 -209 36 -228 8z"/>
<path d="M181 1666 c-7 -8 -11 -27 -9 -43 l3 -28 180 -32 c211 -38 234 -38
255 -1 25 46 4 55 -191 88 -199 34 -222 35 -238 16z"/>
<path d="M2276 1644 c-47 -48 -36 -137 21 -163 16 -7 124 -11 318 -11 l294 0
28 24 c24 21 28 32 28 76 0 44 -4 55 -28 76 l-28 24 -303 0 -303 0 -27 -26z"/>
<path d="M188 1549 c-20 -11 -24 -64 -6 -75 26 -16 391 -73 409 -63 34 18 35
73 1 83 -22 7 -363 66 -377 66 -5 0 -18 -5 -27 -11z"/>
<path d="M260 1410 c-49 -49 -18 -73 126 -96 l117 -18 18 23 c42 51 22 67
-122 91 -63 11 -115 20 -116 20 -2 0 -12 -9 -23 -20z"/>
<path d="M1829 1351 c-43 -43 -38 -121 10 -158 12 -9 97 -12 323 -13 l306 0
26 31 c37 44 36 101 -3 140 l-29 29 -302 0 -302 0 -29 -29z"/>
<path d="M1405 1076 c-60 -26 -73 -106 -26 -158 l29 -33 289 -3 c259 -2 292
-1 323 15 50 25 68 81 43 132 -10 20 -29 41 -43 48 -37 18 -573 17 -615 -1z"/>
<path d="M960 783 c-68 -35 -77 -118 -19 -167 l31 -26 294 0 294 0 32 29 c28
25 33 36 33 75 0 36 -6 51 -28 73 l-27 28 -288 3 c-259 2 -290 1 -322 -15z"/>
<path d="M486 474 c-41 -42 -39 -106 4 -146 l30 -28 300 0 c297 0 299 0 325
23 20 16 28 35 32 69 5 42 3 50 -25 78 l-30 30 -305 0 -304 0 -27 -26z"/>
<path d="M39 181 c-39 -39 -40 -96 -3 -140 l26 -31 308 0 308 0 26 31 c37 44
36 101 -3 140 l-29 29 -302 0 -302 0 -29 -29z"/>
</g>
</svg>
