<?xml version="1.0" standalone="no"?>
<!DOCTYPE svg PUBLIC "-//W3C//DTD SVG 20010904//EN"
 "http://www.w3.org/TR/2001/REC-SVG-20010904/DTD/svg10.dtd">
<svg version="1.0" xmlns="http://www.w3.org/2000/svg"
 width="468pt" height="472pt" viewBox="0 0 468 472"
 preserveAspectRatio="xMidYMid meet">
<metadata>
Created by potrace 1.8, written by Peter Selinger 2001-2007
</metadata>
<g transform="translate(0,472) scale(0.158644,-0.158644)"
fill="#000000" stroke="none">
<path d="M51 2934 c-18 -15 -35 -42 -42 -67 -14 -53 -6 -144 16 -186 31 -61
30 -61 608 -61 350 0 526 -3 533 -10 7 -7 46 -10 95 -8 70 3 84 6 87 21 3 14
-4 17 -42 17 l-45 0 15 35 c7 19 14 53 14 75 l0 40 628 -2 627 -3 6 -55 c4
-30 10 -63 14 -72 6 -15 2 -18 -27 -18 -39 0 -49 -6 -41 -26 7 -18 183 -21
183 -3 0 8 14 10 44 6 74 -10 156 8 190 43 28 27 31 37 34 104 5 89 -9 137
-49 171 l-31 25 -1393 0 -1393 0 -31 -26z m1169 -68 c0 -2 -7 -17 -15 -32 -8
-16 -15 -48 -15 -71 l0 -41 -517 -4 c-285 -2 -529 -1 -543 3 -23 5 -25 11 -28
64 -3 47 0 62 14 72 14 10 136 13 561 13 299 0 543 -2 543 -4z m1617 -4 c16
-10 25 -72 15 -106 -10 -38 -35 -45 -135 -38 l-77 5 0 44 c0 24 -7 57 -15 73
l-16 30 108 0 c60 0 113 -4 120 -8z"/>
<path d="M1494 2760 c-29 -11 -52 -46 -60 -89 -4 -19 -17 -44 -30 -55 -13 -12
-26 -33 -30 -49 -14 -59 105 -125 257 -142 65 -8 134 8 167 38 23 21 31 80 12
92 -5 3 -10 32 -10 63 0 93 -20 111 -160 138 -84 16 -115 17 -146 4z m220
-190 c67 -34 79 -55 46 -82 -22 -18 -34 -20 -115 -15 -108 7 -154 19 -195 53
-63 54 -29 75 115 71 83 -2 108 -7 149 -27z"/>
<path d="M2149 2755 c-26 -14 -42 -43 -55 -97 -3 -14 -17 -36 -30 -49 -57 -54
-7 -122 119 -161 184 -57 343 -5 295 96 -11 22 -15 47 -11 74 10 78 -32 114
-158 137 -103 18 -127 18 -160 0z m234 -184 c55 -27 73 -64 41 -88 -32 -25
-197 -12 -266 19 -60 28 -87 59 -65 76 24 19 44 21 142 19 81 -2 109 -7 148
-26z"/>
<path d="M1830 2620 c0 -20 5 -21 93 -18 74 2 92 6 92 18 0 12 -18 16 -92 18
-88 3 -93 2 -93 -18z"/>
<path d="M1131 2210 c-50 -66 -91 -125 -91 -130 0 -19 34 -41 59 -38 19 2 47
30 113 116 49 63 88 121 88 131 0 25 -20 41 -51 41 -23 0 -41 -19 -118 -120z"/>
<path d="M2556 2315 c-9 -9 -16 -20 -16 -25 0 -5 41 -64 91 -130 77 -102 94
-120 118 -120 31 0 51 16 51 41 0 9 -40 68 -88 130 -92 120 -121 139 -156 104z"/>
<path d="M1548 2219 c-15 -8 -98 -244 -98 -277 0 -7 11 -19 25 -28 46 -30 65
-5 110 146 l39 132 -23 19 c-26 22 -30 22 -53 8z"/>
<path d="M2239 2209 c-11 -11 -18 -27 -15 -36 3 -8 22 -67 41 -131 41 -134 59
-157 106 -132 26 15 24 36 -17 174 -44 147 -68 172 -115 125z"/>
<path d="M1886 2184 c-13 -12 -16 -40 -16 -144 0 -111 3 -131 19 -151 16 -20
23 -22 47 -14 l29 10 3 144 c2 97 -1 148 -9 157 -15 19 -54 18 -73 -2z"/>
<path d="M210 1661 c-56 -12 -108 -41 -141 -79 -65 -73 -64 -69 -64 -482 0
-415 1 -423 63 -492 37 -41 98 -78 129 -78 12 0 8 -6 -15 -20 -39 -24 -44 -65
-9 -80 12 -5 105 -24 205 -41 175 -29 185 -30 203 -13 24 21 25 60 2 72 -10 5
-97 22 -193 38 l-174 29 174 5 c197 6 227 15 290 86 60 69 60 67 60 484 0 412
0 414 -57 488 -15 20 -50 46 -82 60 -52 24 -68 27 -206 29 -82 1 -166 -2 -185
-6z m340 -146 c60 -31 61 -39 58 -436 l-3 -361 -33 -29 -32 -29 -166 0 -166 0
-34 34 -34 34 0 365 c0 357 0 365 21 391 12 15 31 32 43 36 11 5 88 9 169 9
114 1 155 -3 177 -14z"/>
<path d="M166 368 c-20 -28 -20 -42 -1 -58 18 -15 389 -82 409 -74 33 13 39
79 8 88 -25 7 -368 66 -386 66 -8 0 -22 -10 -30 -22z"/>
<path d="M189 262 c-20 -4 -41 -46 -33 -67 8 -19 40 -27 246 -61 176 -29 189
-28 201 16 11 41 -12 50 -208 83 -105 18 -197 31 -206 29z"/>
<path d="M240 111 c-14 -27 -13 -46 4 -60 17 -14 231 -52 250 -45 7 3 18 16
24 29 19 42 -9 61 -119 79 -125 21 -146 20 -159 -3z"/>
</g>
</svg>
