<?xml version="1.0" standalone="no"?>
<!DOCTYPE svg PUBLIC "-//W3C//DTD SVG 20010904//EN"
 "http://www.w3.org/TR/2001/REC-SVG-20010904/DTD/svg10.dtd">
<svg version="1.0" xmlns="http://www.w3.org/2000/svg"
 width="468pt" height="472pt" viewBox="0 0 468 472"
 preserveAspectRatio="xMidYMid meet">
<metadata>
Created by potrace 1.8, written by Peter Selinger 2001-2007
</metadata>
<g transform="translate(0,472) scale(0.158644,-0.158644)"
fill="#000000" stroke="none">
<path d="M180 2955 c-63 -20 -123 -74 -149 -135 -21 -49 -22 -59 -19 -438 l3
-389 30 -49 c33 -53 119 -113 165 -115 23 -1 23 -2 -5 -8 -17 -4 -35 -17 -45
-33 -26 -47 -3 -57 187 -89 92 -16 178 -31 191 -34 30 -7 73 34 65 64 -6 25
-2 24 -208 60 l-160 28 160 4 c184 5 224 17 287 87 66 73 70 101 66 514 -3
350 -4 364 -25 403 -25 47 -74 95 -123 121 -30 16 -61 19 -205 21 -125 2 -182
-1 -215 -12z m396 -159 l34 -34 0 -367 0 -367 -34 -34 -34 -34 -156 0 c-121 0
-164 4 -186 15 -59 30 -60 40 -60 420 0 460 -14 435 238 435 l164 0 34 -34z"/>
<path d="M1424 2334 c-18 -17 -24 -32 -21 -46 4 -13 -64 -196 -184 -498 -183
-461 -190 -478 -218 -483 -18 -4 -32 -15 -36 -27 -5 -17 -15 -20 -56 -20 -40
0 -55 -5 -74 -25 -33 -32 -31 -61 5 -95 l30 -28 0 -485 c0 -468 -1 -486 -19
-492 -49 -15 -46 -106 4 -125 34 -13 755 -13 789 0 40 15 51 77 19 113 -14 15
-37 17 -185 17 l-168 0 0 490 0 490 363 0 c411 0 407 -1 407 70 0 70 0 70
-371 70 l-327 0 -16 25 c-16 24 -20 25 -125 25 l-109 0 180 452 c99 249 181
455 184 457 3 3 14 0 24 -7 14 -8 76 -12 199 -12 165 0 183 2 216 21 60 36 70
75 30 114 l-24 25 -246 0 -246 0 -25 -26z m-244 -1704 l0 -490 -85 0 -85 0 0
490 0 490 85 0 85 0 0 -490z"/>
<path d="M2795 2275 c-14 -13 -25 -28 -25 -34 0 -27 52 -247 62 -258 16 -20
75 -16 98 7 25 25 25 40 -5 175 -16 72 -30 114 -41 122 -27 20 -63 15 -89 -12z"/>
<path d="M2797 1896 c-26 -20 -31 -47 -73 -388 -37 -302 -38 -309 -25 -437 16
-161 20 -180 54 -205 21 -16 33 -18 53 -10 47 16 50 30 32 191 l-16 149 42
332 c47 370 47 375 -14 379 -19 2 -43 -3 -53 -11z"/>
<path d="M172 1678 c-13 -13 -16 -64 -4 -72 17 -10 366 -67 395 -64 39 4 61
48 36 73 -8 8 -90 27 -193 44 -199 35 -217 36 -234 19z"/>
<path d="M177 1552 c-24 -26 -21 -61 6 -72 12 -5 102 -23 200 -40 186 -31 209
-30 222 9 8 26 -4 50 -29 56 -24 6 -368 65 -377 65 -3 0 -13 -8 -22 -18z"/>
<path d="M262 1429 c-25 -10 -36 -42 -23 -67 8 -15 34 -23 118 -37 60 -9 120
-15 133 -13 32 4 51 51 29 73 -18 18 -229 54 -257 44z"/>
<path d="M2188 1129 c-25 -14 -24 -65 1 -79 11 -5 82 -10 159 -10 163 0 152
10 152 -132 l0 -88 -218 0 c-181 0 -221 -3 -240 -16 -29 -20 -30 -76 -2 -104
18 -18 33 -20 180 -20 l160 0 0 -180 c0 -103 -4 -180 -9 -180 -5 0 -86 -28
-180 -61 -152 -54 -172 -64 -178 -87 -7 -28 6 -55 30 -60 8 -2 105 29 214 68
l200 72 202 -73 c222 -79 236 -81 236 -18 0 38 15 30 -257 129 l-118 42 0 174
0 174 136 0 c165 0 194 11 194 73 0 15 -9 36 -20 47 -18 18 -33 20 -155 20
l-135 0 0 110 0 110 51 0 c28 0 59 5 70 10 22 12 26 59 7 78 -15 15 -454 16
-480 1z"/>
<path d="M1996 78 c-13 -19 -14 -25 -2 -43 20 -30 80 -33 99 -4 16 22 12 48
-7 61 -24 16 -75 8 -90 -14z"/>
<path d="M2812 88 c-7 -7 -12 -21 -12 -33 0 -31 19 -45 62 -45 31 0 41 5 49
24 18 38 -3 66 -49 66 -21 0 -43 -5 -50 -12z"/>
</g>
</svg>
