<?xml version="1.0" standalone="no"?>
<!DOCTYPE svg PUBLIC "-//W3C//DTD SVG 20010904//EN"
 "http://www.w3.org/TR/2001/REC-SVG-20010904/DTD/svg10.dtd">
<svg version="1.0" xmlns="http://www.w3.org/2000/svg"
 width="468pt" height="537pt" viewBox="0 0 468 537"
 preserveAspectRatio="xMidYMid meet">
<metadata>
Created by potrace 1.8, written by Peter Selinger 2001-2007
</metadata>
<g transform="translate(0,537) scale(0.181395,-0.181395)"
fill="#000000" stroke="none">
<path d="M957 2932 c-14 -16 -17 -43 -17 -174 0 -135 2 -157 18 -171 28 -25
72 -26 96 -1 13 13 16 43 16 173 0 140 -2 160 -18 174 -25 22 -75 21 -95 -1z"/>
<path d="M1506 2928 c-13 -18 -16 -53 -16 -174 0 -138 2 -152 20 -169 24 -22
77 -22 99 0 13 12 17 44 19 151 4 147 1 174 -24 198 -24 24 -80 20 -98 -6z"/>
<path d="M278 2834 c-29 -15 -44 -50 -34 -81 3 -11 73 -85 154 -166 127 -126
153 -147 180 -147 34 0 72 38 72 73 0 34 -312 341 -342 337 -2 -1 -15 -7 -30
-16z"/>
<path d="M2235 2840 c-34 -14 -315 -305 -315 -327 0 -35 38 -73 72 -73 27 0
53 21 180 148 82 81 151 157 155 170 12 51 -44 100 -92 82z"/>
<path d="M1039 2257 c-70 -20 -136 -63 -174 -115 -65 -87 -65 -91 -65 -643 0
-479 1 -500 21 -553 25 -67 87 -134 160 -173 l54 -28 250 0 c235 0 253 1 296
21 63 29 125 94 158 163 l26 56 0 520 0 520 -28 56 c-32 66 -99 132 -165 162
-43 20 -65 22 -267 24 -153 2 -234 -2 -266 -10z m486 -146 c48 -22 69 -44 90
-94 13 -31 15 -107 15 -517 0 -526 0 -523 -59 -573 -48 -40 -90 -47 -299 -47
-205 0 -226 4 -280 54 -51 46 -50 40 -53 567 l-3 495 23 40 c24 43 64 72 115
85 17 4 117 7 221 8 164 0 195 -2 230 -18z"/>
<path d="M2110 2123 c-49 -19 -64 -68 -34 -111 15 -22 19 -22 238 -22 211 0
224 1 241 20 23 25 24 76 1 98 -14 15 -44 17 -224 19 -114 1 -214 -1 -222 -4z"/>
<path d="M16 2098 c-22 -31 -20 -71 5 -94 19 -17 39 -19 240 -19 236 0 241 1
254 55 4 18 0 34 -15 53 l-21 27 -224 0 c-220 0 -224 0 -239 -22z"/>
<path d="M26 1559 c-32 -25 -35 -70 -6 -99 19 -19 33 -20 238 -20 207 0 220 1
237 20 26 29 24 79 -4 102 -21 16 -44 18 -231 18 -195 0 -209 -1 -234 -21z"/>
<path d="M2106 1522 c-2 -4 -1 -14 3 -20 5 -9 38 -12 117 -10 89 2 109 6 109
18 0 12 -20 16 -112 18 -61 1 -114 -1 -117 -6z"/>
<path d="M20 1010 c-29 -29 -26 -74 7 -100 26 -20 36 -21 240 -18 184 3 215 5
229 20 23 22 22 73 -1 98 -17 19 -30 20 -237 20 -205 0 -219 -1 -238 -20z"/>
<path d="M2112 978 c-8 -8 -9 -15 -1 -25 8 -9 40 -13 108 -13 101 0 128 8 118
34 -5 13 -24 16 -110 16 -66 0 -107 -4 -115 -12z"/>
<path d="M998 693 c-36 -41 -30 -95 11 -108 60 -19 520 -91 539 -84 53 20 66
99 19 119 -28 12 -482 90 -524 90 -16 0 -37 -8 -45 -17z"/>
<path d="M1023 530 c-41 -17 -58 -85 -28 -110 15 -12 492 -100 543 -100 33 0
62 34 62 74 0 18 -6 38 -13 44 -6 6 -120 29 -252 51 -132 23 -251 43 -265 46
-14 2 -35 0 -47 -5z"/>
<path d="M1023 360 c-46 -18 -59 -90 -20 -114 21 -13 478 -96 531 -96 14 0 35
9 46 20 26 26 27 85 2 99 -10 5 -126 28 -258 51 -131 22 -248 42 -259 44 -11
2 -30 0 -42 -4z"/>
<path d="M1101 154 c-26 -33 -27 -55 -3 -82 13 -16 51 -26 176 -47 158 -27
159 -27 185 -7 31 22 41 81 18 101 -16 13 -271 61 -323 61 -23 0 -39 -8 -53
-26z"/>
</g>
</svg>
