<?xml version="1.0" standalone="no"?>
<!DOCTYPE svg PUBLIC "-//W3C//DTD SVG 20010904//EN"
 "http://www.w3.org/TR/2001/REC-SVG-20010904/DTD/svg10.dtd">
<svg version="1.0" xmlns="http://www.w3.org/2000/svg"
 width="468pt" height="470pt" viewBox="0 0 468 470"
 preserveAspectRatio="xMidYMid meet">
<metadata>
Created by potrace 1.8, written by Peter Selinger 2001-2007
</metadata>
<g transform="translate(0,470) scale(0.158108,-0.158108)"
fill="#000000" stroke="none">
<path d="M2801 2957 c-52 -30 -50 -2 -51 -887 l0 -825 -36 -1 c-56 -1 -64 -20
-64 -146 l0 -108 -260 0 -260 0 0 24 c0 22 5 23 75 29 129 10 230 71 279 169
l26 52 0 435 0 436 -24 50 c-33 72 -103 131 -187 156 -62 19 -89 20 -301 17
-227 -3 -234 -4 -289 -29 -68 -32 -124 -87 -153 -148 -20 -45 -21 -59 -21
-476 0 -499 -1 -490 90 -574 63 -57 121 -80 223 -88 68 -6 72 -7 72 -30 0 -16
-8 -27 -25 -33 -59 -22 -71 -128 -18 -170 25 -19 38 -20 399 -20 l374 0 0
-120 c0 -109 2 -122 21 -141 15 -15 30 -20 50 -17 l29 5 0 -223 0 -222 25 -30
c34 -40 75 -49 123 -25 26 13 41 28 49 53 15 46 18 2765 3 2821 -6 20 -19 44
-29 53 -26 23 -90 30 -120 13z m-488 -770 c69 -53 68 -41 65 -496 -3 -398 -4
-410 -24 -438 -11 -15 -38 -38 -60 -50 -37 -22 -50 -23 -267 -23 -254 0 -272
3 -325 64 l-32 37 0 417 c0 469 -3 450 77 499 37 23 42 23 284 21 l246 -3 36
-28z"/>
<path d="M142 2934 c-53 -26 -83 -58 -118 -124 -18 -32 -19 -63 -19 -420 l0
-385 30 -54 c32 -57 92 -109 138 -118 33 -7 34 -15 4 -28 -25 -11 -35 -56 -15
-72 12 -10 351 -73 390 -73 45 0 66 74 26 89 -13 4 -102 21 -198 37 l-175 29
180 5 c149 4 186 8 218 24 49 24 114 99 127 145 6 21 10 190 10 411 0 427 0
423 -83 496 -64 57 -98 64 -294 64 -162 0 -171 -1 -221 -26z m430 -142 l33
-32 0 -370 0 -370 -33 -32 -32 -33 -143 -3 c-167 -4 -209 5 -237 51 -19 30
-20 53 -20 385 0 301 2 357 16 383 26 51 60 59 231 56 l153 -2 32 -33z"/>
<path d="M171 1671 c-24 -24 -27 -44 -7 -64 8 -8 94 -27 205 -45 212 -36 231
-34 231 19 0 39 -10 42 -200 74 -85 14 -167 28 -182 31 -19 4 -33 -1 -47 -15z"/>
<path d="M165 1536 c-27 -40 -7 -62 67 -75 275 -48 329 -55 346 -45 18 12 29
61 15 75 -9 8 -349 69 -389 69 -14 0 -30 -10 -39 -24z"/>
<path d="M246 1414 c-18 -17 -21 -59 -7 -69 6 -3 61 -15 123 -26 131 -23 158
-18 158 30 0 16 -5 33 -12 37 -12 7 -201 44 -230 44 -9 0 -24 -7 -32 -16z"/>
</g>
</svg>
