<?xml version="1.0" standalone="no"?>
<!DOCTYPE svg PUBLIC "-//W3C//DTD SVG 20010904//EN"
 "http://www.w3.org/TR/2001/REC-SVG-20010904/DTD/svg10.dtd">
<svg version="1.0" xmlns="http://www.w3.org/2000/svg"
 width="468pt" height="465pt" viewBox="0 0 468 465"
 preserveAspectRatio="xMidYMid meet">
<metadata>
Created by potrace 1.8, written by Peter Selinger 2001-2007
</metadata>
<g transform="translate(0,465) scale(0.157576,-0.157576)"
fill="#000000" stroke="none">
<path d="M1630 2940 c-625 -76 -1123 -370 -1453 -859 -76 -113 -167 -294 -160
-320 7 -26 49 -61 74 -61 10 0 35 16 56 36 209 199 472 361 723 444 668 221
1359 77 1905 -399 71 -61 101 -81 123 -81 63 0 61 -13 62 514 1 345 -2 481
-10 491 -15 17 -178 81 -327 128 -124 40 -251 69 -400 92 -116 19 -484 28
-593 15z m505 -141 c183 -19 427 -78 613 -149 l82 -32 0 -350 0 -350 -65 51
c-226 178 -506 315 -787 386 -517 132 -1076 51 -1530 -219 l-107 -63 32 45
c49 70 223 241 312 309 407 307 886 430 1450 372z"/>
<path d="M1240 1891 c-50 -16 -89 -41 -129 -87 -69 -79 -71 -93 -71 -554 0
-478 1 -482 85 -566 77 -78 116 -86 358 -82 191 3 192 3 245 32 57 32 102 81
130 143 15 34 17 81 17 473 l0 435 -28 57 c-16 32 -46 73 -69 92 -68 58 -107
66 -322 65 -105 0 -202 -4 -216 -8z m438 -149 c63 -45 62 -39 62 -493 0 -401
-1 -413 -21 -446 -35 -56 -67 -67 -218 -71 -195 -6 -237 1 -283 48 l-38 38 0
430 0 430 27 33 c46 54 69 59 263 57 165 -3 177 -4 208 -26z"/>
<path d="M22 1578 c-17 -17 -17 -349 0 -366 17 -17 239 -17 256 0 17 17 17
349 0 366 -8 8 -51 12 -128 12 -77 0 -120 -4 -128 -12z m178 -188 l0 -100 -50
0 -50 0 0 100 0 100 50 0 50 0 0 -100z"/>
<path d="M2282 1568 c-8 -8 -12 -65 -12 -190 0 -178 0 -178 24 -189 17 -8 29
-8 45 0 20 11 21 18 21 189 0 187 -3 202 -45 202 -12 0 -26 -5 -33 -12z"/>
<path d="M2396 1564 c-13 -13 -16 -43 -16 -175 0 -92 4 -169 10 -180 10 -17
22 -19 135 -19 113 0 125 2 135 19 5 11 10 86 10 173 0 205 5 198 -145 198
-90 0 -117 -3 -129 -16z m174 -184 l0 -100 -45 0 -45 0 0 100 0 100 45 0 45 0
0 -100z"/>
<path d="M2696 1558 c-13 -18 -16 -53 -16 -173 0 -202 -5 -195 149 -195 78 0
121 4 129 12 8 8 12 64 12 185 0 160 -1 173 -19 183 -11 5 -69 10 -130 10
-102 0 -111 -2 -125 -22z m174 -178 l0 -100 -45 0 -45 0 0 100 0 100 45 0 45
0 0 -100z"/>
<path d="M1226 564 c-24 -23 -20 -63 7 -74 12 -5 116 -26 231 -45 197 -34 209
-35 227 -19 26 24 24 62 -3 74 -18 8 -417 80 -441 80 -3 0 -13 -7 -21 -16z"/>
<path d="M1227 412 c-19 -20 -21 -40 -9 -60 11 -17 441 -91 469 -81 39 14 41
72 3 84 -21 7 -417 75 -435 75 -7 0 -19 -8 -28 -18z"/>
<path d="M1231 271 c-26 -26 -27 -57 -2 -70 10 -6 117 -27 237 -47 l218 -36
18 22 c46 56 16 71 -222 110 -107 17 -203 34 -212 36 -9 3 -26 -4 -37 -15z"/>
<path d="M1312 118 c-7 -7 -12 -24 -12 -39 0 -34 19 -41 177 -65 119 -19 135
-16 146 26 10 37 -14 50 -133 70 -134 23 -162 24 -178 8z"/>
</g>
</svg>
