<?xml version="1.0" standalone="no"?>
<!DOCTYPE svg PUBLIC "-//W3C//DTD SVG 20010904//EN"
 "http://www.w3.org/TR/2001/REC-SVG-20010904/DTD/svg10.dtd">
<svg version="1.0" xmlns="http://www.w3.org/2000/svg"
 width="468pt" height="470pt" viewBox="0 0 468 470"
 preserveAspectRatio="xMidYMid meet">
<metadata>
Created by potrace 1.8, written by Peter Selinger 2001-2007
</metadata>
<g transform="translate(0,470) scale(0.158108,-0.158108)"
fill="#000000" stroke="none">
<path d="M161 2947 c-51 -19 -106 -71 -132 -124 -24 -47 -24 -53 -27 -406 -4
-406 0 -436 65 -508 38 -42 99 -79 130 -79 12 0 8 -6 -15 -20 -39 -24 -44 -65
-9 -80 12 -5 104 -24 205 -41 175 -30 184 -30 203 -13 21 19 25 59 7 70 -7 4
-93 22 -193 40 l-180 32 157 1 c133 1 166 4 212 22 67 24 128 88 145 151 9 31
11 154 9 424 l-3 381 -30 49 c-19 30 -49 60 -79 79 l-49 30 -191 2 c-133 1
-201 -2 -225 -10z m389 -132 c59 -30 60 -40 60 -420 0 -459 13 -435 -232 -435
-170 0 -195 6 -221 50 -15 25 -17 70 -17 385 0 233 4 363 11 376 5 11 25 29
42 39 28 17 51 20 180 20 113 0 155 -4 177 -15z"/>
<path d="M2143 2412 c-500 -379 -726 -556 -734 -575 -15 -36 0 -73 37 -87 14
-6 63 -10 109 -10 l85 0 2 -814 c3 -803 3 -815 24 -843 11 -15 42 -39 70 -53
l49 -25 484 -3 c329 -2 502 1 538 8 57 12 118 56 133 94 4 12 9 650 11 1419
l4 1399 -24 19 c-13 10 -33 19 -45 19 -12 0 -320 -227 -743 -548z m665 -1469
l-3 -798 -42 -3 -42 -3 -3 490 -3 491 -38 37 -37 38 -205 3 c-230 4 -258 -2
-295 -63 -19 -31 -20 -49 -20 -514 l0 -481 -154 0 c-85 0 -161 3 -170 6 -14 6
-16 85 -16 800 l0 794 515 0 515 0 -2 -797z m-220 -335 l2 -458 -170 0 -170 0
0 460 0 460 168 -2 167 -3 3 -457z"/>
<path d="M166 1668 c-39 -55 -18 -65 202 -104 167 -29 189 -31 210 -18 24 16
30 55 10 72 -11 8 -360 72 -395 72 -6 0 -19 -10 -27 -22z"/>
<path d="M183 1559 c-26 -9 -38 -42 -24 -67 14 -26 402 -92 426 -72 17 14 20
66 5 75 -23 14 -387 71 -407 64z"/>
<path d="M242 1418 c-16 -16 -15 -53 2 -67 8 -7 63 -20 123 -31 95 -16 111
-17 131 -4 24 16 30 55 10 72 -13 10 -187 42 -230 42 -13 0 -29 -5 -36 -12z"/>
<path d="M116 824 c-11 -10 -16 -34 -16 -70 0 -48 -2 -54 -21 -54 -36 0 -59
-19 -59 -48 0 -36 17 -52 52 -52 l28 0 0 -170 0 -170 -35 0 c-33 0 -55 -20
-55 -49 0 -20 40 -51 65 -51 23 0 25 -3 25 -52 0 -60 6 -72 37 -82 36 -11 63
24 63 84 0 47 2 50 25 50 24 0 25 -3 25 -53 0 -54 19 -87 48 -87 29 0 52 40
52 90 0 47 2 50 25 50 24 0 25 -3 25 -53 0 -42 5 -58 21 -73 19 -17 23 -17 47
-3 24 13 27 22 30 72 3 53 5 57 27 57 22 0 24 -4 27 -57 3 -50 6 -59 30 -72
24 -14 28 -14 47 3 16 15 21 31 21 73 0 50 1 53 25 53 23 0 25 -3 25 -50 0
-37 5 -55 20 -70 24 -24 29 -24 58 -4 18 12 22 25 22 70 0 51 1 54 25 54 23 0
25 -3 25 -50 0 -37 5 -55 20 -70 43 -43 80 -13 80 66 0 51 1 54 25 54 23 0 25
-3 25 -50 0 -37 5 -55 20 -70 23 -23 33 -24 61 -10 15 9 19 22 19 70 0 60 0
60 30 60 l30 0 0 -60 c0 -54 3 -62 24 -71 17 -8 29 -8 45 0 18 10 21 21 21 71
0 60 0 60 30 60 l30 0 0 -60 c0 -54 3 -62 24 -71 17 -8 29 -8 45 0 18 10 21
21 21 70 0 56 2 60 29 69 15 5 31 19 33 30 7 27 -17 62 -43 62 -18 0 -19 8
-19 169 l0 169 24 6 c27 7 41 35 31 66 -3 11 -17 23 -31 26 -22 6 -24 11 -24
65 0 53 -3 61 -24 70 -17 8 -29 8 -45 0 -18 -10 -21 -21 -21 -71 0 -60 0 -60
-30 -60 l-30 0 0 60 c0 54 -3 62 -24 71 -17 8 -29 8 -45 0 -18 -10 -21 -21
-21 -71 0 -60 0 -60 -30 -60 l-30 0 0 60 c0 56 -2 61 -26 70 -29 11 -58 0 -68
-26 -3 -8 -6 -36 -6 -60 0 -40 -2 -44 -25 -44 -23 0 -25 3 -25 53 0 59 -6 71
-37 81 -36 11 -63 -24 -63 -84 0 -47 -2 -50 -25 -50 -24 0 -25 3 -25 53 0 54
-19 87 -48 87 -29 0 -52 -40 -52 -90 0 -47 -2 -50 -25 -50 -24 0 -25 3 -25 55
0 47 -3 57 -25 71 -23 15 -27 15 -50 0 -22 -14 -25 -24 -25 -71 0 -52 -1 -55
-25 -55 -24 0 -25 3 -25 55 0 47 -3 57 -25 71 -23 15 -27 15 -50 0 -22 -14
-25 -24 -25 -71 0 -52 -1 -55 -25 -55 -23 0 -25 3 -25 50 0 37 -5 55 -20 70
-24 24 -29 24 -58 4 -18 -12 -22 -25 -22 -70 0 -51 -1 -54 -25 -54 -23 0 -25
3 -25 50 0 73 -45 113 -84 74z m134 -394 l0 -170 -25 0 -25 0 0 170 0 170 25
0 25 0 0 -170z m150 0 l0 -170 -25 0 -25 0 0 170 0 170 25 0 25 0 0 -170z
m150 0 l0 -170 -25 0 -25 0 0 170 0 170 25 0 25 0 0 -170z m150 0 l0 -170 -25
0 -25 0 0 170 0 170 25 0 25 0 0 -170z m150 0 l0 -170 -25 0 -25 0 0 170 0
170 25 0 25 0 0 -170z m150 0 l0 -170 -25 0 -25 0 0 170 0 170 25 0 25 0 0
-170z m160 0 l0 -170 -30 0 -30 0 0 170 0 170 30 0 30 0 0 -170z m150 0 l0
-170 -30 0 -30 0 0 170 0 170 30 0 30 0 0 -170z"/>
</g>
</svg>
