<?xml version="1.0" standalone="no"?>
<!DOCTYPE svg PUBLIC "-//W3C//DTD SVG 20010904//EN"
 "http://www.w3.org/TR/2001/REC-SVG-20010904/DTD/svg10.dtd">
<svg version="1.0" xmlns="http://www.w3.org/2000/svg"
 width="468pt" height="468pt" viewBox="0 0 468 468"
 preserveAspectRatio="xMidYMid meet">
<metadata>
Created by potrace 1.8, written by Peter Selinger 2001-2007
</metadata>
<g transform="translate(0,468) scale(0.159184,-0.159184)"
fill="#000000" stroke="none">
<path d="M65 2931 c-33 -14 -56 -47 -62 -89 -4 -33 -1 -44 25 -73 l30 -34 756
-5 756 -5 -675 -675 c-484 -483 -675 -681 -675 -697 0 -21 33 -53 55 -53 5 0
306 296 667 657 l658 658 27 -28 28 -27 -598 -598 c-406 -406 -597 -604 -597
-618 0 -23 29 -54 51 -54 8 0 282 268 609 595 327 327 599 595 604 595 5 0 18
-8 28 -17 18 -16 -3 -39 -527 -563 -300 -300 -545 -551 -545 -558 0 -18 37
-52 57 -52 10 0 262 244 560 542 l543 543 98 -98 c96 -96 124 -111 150 -85 26
26 11 54 -85 150 l-98 98 23 22 22 22 163 -162 c90 -89 168 -162 173 -162 21
0 54 32 54 53 0 15 -50 72 -160 182 l-159 159 21 23 22 23 221 -220 c122 -121
226 -220 233 -220 18 0 54 39 50 55 -5 23 -489 505 -506 505 -9 0 -38 -21 -65
-47 l-48 -48 -45 48 c-25 26 -55 47 -65 47 -11 0 -43 -21 -71 -47 l-50 -48
-46 50 -45 50 624 5 c343 3 632 9 642 14 23 11 47 58 47 91 0 41 -26 82 -61
94 -38 13 -2782 15 -2814 2z m1793 -398 c-20 -21 -23 -22 -40 -6 -22 20 -23
31 -1 55 16 18 17 18 40 -4 l23 -22 -22 -23z"/>
<path d="M1765 1946 c-13 -13 -26 -39 -30 -57 -3 -19 -5 -438 -3 -932 l3 -899
33 -29 c52 -47 136 -32 161 28 8 21 11 268 9 946 l-3 919 -28 24 c-39 33 -108
34 -142 0z"/>
<path d="M2303 1960 c-83 -17 -151 -71 -184 -145 -17 -36 -19 -73 -19 -420 0
-379 0 -380 24 -431 27 -58 84 -109 139 -126 l39 -12 -26 -13 c-43 -23 -45
-78 -2 -88 11 -3 101 -19 198 -35 188 -33 210 -31 221 10 11 42 -20 55 -204
86 l-174 29 170 5 c139 4 176 9 205 24 49 25 98 74 123 121 21 39 22 53 25
403 4 408 0 436 -63 509 -61 72 -105 86 -279 89 -83 2 -170 -1 -193 -6z m368
-168 l29 -32 0 -361 c0 -391 -2 -403 -55 -427 -16 -8 -83 -12 -183 -12 -245 0
-232 -23 -232 428 0 226 4 350 11 371 22 63 53 72 237 69 l164 -3 29 -33z"/>
<path d="M2266 674 c-24 -23 -20 -63 7 -74 12 -5 96 -21 187 -35 91 -15 173
-29 182 -31 21 -6 58 29 58 56 0 10 -8 23 -17 29 -16 8 -361 71 -390 71 -6 0
-19 -7 -27 -16z"/>
<path d="M2272 554 c-24 -17 -29 -56 -9 -72 16 -13 383 -76 402 -68 8 3 20 17
27 31 20 44 -3 55 -189 86 -92 16 -177 31 -189 34 -11 2 -30 -2 -42 -11z"/>
<path d="M2335 406 c-13 -19 -14 -29 -5 -45 6 -12 14 -21 19 -21 4 0 56 -9
115 -19 59 -11 114 -17 122 -14 37 14 41 77 6 87 -37 11 -186 36 -213 36 -19
0 -34 -8 -44 -24z"/>
</g>
</svg>
