<?xml version="1.0" standalone="no"?>
<!DOCTYPE svg PUBLIC "-//W3C//DTD SVG 20010904//EN"
 "http://www.w3.org/TR/2001/REC-SVG-20010904/DTD/svg10.dtd">
<svg version="1.0" xmlns="http://www.w3.org/2000/svg"
 width="468pt" height="470pt" viewBox="0 0 468 470"
 preserveAspectRatio="xMidYMid meet">
<metadata>
Created by potrace 1.8, written by Peter Selinger 2001-2007
</metadata>
<g transform="translate(0,470) scale(0.158108,-0.158108)"
fill="#000000" stroke="none">
<path d="M2801 2957 c-50 -30 -50 -28 -51 -552 l0 -490 -35 -1 -35 -1 0 130
c0 71 -5 147 -11 168 -16 52 -61 103 -112 128 -41 20 -59 21 -376 21 -377 0
-394 -2 -457 -66 -69 -69 -78 -147 -34 -309 11 -38 81 -338 155 -665 75 -327
144 -610 152 -629 22 -44 82 -87 144 -100 80 -17 337 -14 392 5 56 19 118 84
135 142 7 22 12 101 12 178 l0 139 35 0 35 0 0 -492 0 -491 25 -30 c34 -40 75
-49 123 -25 26 13 41 28 49 53 15 46 18 2765 3 2821 -6 20 -19 44 -29 53 -26
23 -90 30 -120 13z m-280 -756 c18 -22 19 -49 19 -727 0 -688 0 -704 -20 -724
-28 -28 -49 -31 -219 -28 -151 3 -154 3 -172 28 -28 37 -341 1408 -327 1433
23 43 55 47 386 44 l314 -2 19 -24z"/>
<path d="M142 2934 c-53 -26 -83 -58 -118 -124 -18 -32 -19 -63 -19 -420 l0
-385 30 -54 c32 -57 92 -109 138 -118 33 -7 34 -15 4 -28 -25 -11 -35 -56 -15
-72 12 -10 351 -73 390 -73 45 0 66 74 26 89 -13 4 -102 21 -198 37 l-175 29
180 5 c149 4 186 8 218 24 49 24 114 99 127 145 6 21 10 190 10 411 0 427 0
423 -83 496 -64 57 -98 64 -294 64 -162 0 -171 -1 -221 -26z m430 -142 l33
-32 0 -370 0 -370 -33 -32 -32 -33 -143 -3 c-167 -4 -209 5 -237 51 -19 30
-20 53 -20 385 0 301 2 357 16 383 26 51 60 59 231 56 l153 -2 32 -33z"/>
<path d="M1750 2925 c-11 -13 -7 -38 24 -143 45 -151 57 -174 93 -170 48 6 50
27 14 150 -48 166 -54 178 -89 178 -16 0 -35 -7 -42 -15z"/>
<path d="M2093 2933 c-17 -6 -16 -54 2 -194 12 -93 19 -117 36 -131 27 -23 35
-22 57 0 18 18 18 23 1 163 -14 109 -23 147 -36 157 -17 12 -38 14 -60 5z"/>
<path d="M2410 2921 c-5 -11 -10 -81 -10 -155 0 -123 2 -138 20 -156 24 -24
43 -25 64 -4 13 13 16 42 16 163 0 101 -4 151 -12 159 -19 19 -66 15 -78 -7z"/>
<path d="M171 1671 c-24 -24 -27 -44 -7 -64 8 -8 94 -27 205 -45 212 -36 231
-34 231 19 0 39 -10 42 -200 74 -85 14 -167 28 -182 31 -19 4 -33 -1 -47 -15z"/>
<path d="M165 1536 c-27 -40 -7 -62 67 -75 275 -48 329 -55 346 -45 18 12 29
61 15 75 -9 8 -349 69 -389 69 -14 0 -30 -10 -39 -24z"/>
<path d="M246 1414 c-18 -17 -21 -59 -7 -69 6 -3 61 -15 123 -26 131 -23 158
-18 158 30 0 16 -5 33 -12 37 -12 7 -201 44 -230 44 -9 0 -24 -7 -32 -16z"/>
<path d="M2128 333 c-18 -20 -53 -278 -42 -306 8 -21 57 -23 77 -3 20 21 52
293 36 312 -16 19 -53 18 -71 -3z"/>
<path d="M2422 338 c-8 -8 -12 -59 -12 -165 0 -149 1 -154 22 -162 32 -12 58
-2 69 26 12 32 12 255 -1 287 -7 20 -17 26 -38 26 -15 0 -33 -5 -40 -12z"/>
</g>
</svg>
