<?xml version="1.0" encoding="UTF-8" standalone="no"?>
<svg
   xmlns:svg="http://www.w3.org/2000/svg"
   xmlns="http://www.w3.org/2000/svg"
   viewBox="0 0 350 300">
   <g
    transform="matrix(0.158108,0,0,-0.158108,-62.790233,429.80974)"
    style="fill:#000000">
    <path d="m 803,2323 c -52,-56 -118,-161 -147,-234 -110,-278 -54,-603 141,-807 43,-45 55,-53 75,-47 59,18 79,83 37,121 -45,40 -119,167 -145,247 -22,67 -27,101 -27,187 0,166 40,283 142,410 57,71 64,107 29,140 -33,31 -65,25 -105,-17 z"/>
    <path d="m 2055,2335 c -36,-35 -31,-58 25,-128 165,-204 195,-461 81,-692 -22,-44 -60,-104 -85,-133 -25,-30 -46,-63 -46,-73 0,-53 52,-89 95,-66 33,17 107,110 148,187 60,109 89,226 90,360 1,175 -45,322 -148,465 -76,106 -115,126 -160,80 z"/>
    <path d="m 990,2073 c -131,-148 -132,-382 -3,-540 39,-49 79,-57 113,-23 28,28 25,63 -11,113 -46,63 -60,105 -61,177 0,76 11,107 58,172 37,53 42,82 18,116 -25,36 -75,30 -114,-15 z"/>
    <path d="m 1860,2088 c -26,-29 -25,-60 4,-95 62,-74 89,-178 67,-260 -6,-22 -29,-68 -51,-101 -46,-69 -49,-90 -17,-120 36,-34 69,-28 112,19 129,143 129,395 0,538 -43,48 -82,54 -115,19 z"/>
    <path d="M 1326.558,1963.6629 C 1241.1186,1850.3303 1256.8637,1642.3843 1373,1593 l 108.8013,-13.558 -215.9212,-737.92594 411.1927,-3.89509 -195.2715,741.82103 115.8801,15.2064 c 152.6513,59.7831 117.4505,339.6191 45.2025,365.1306 -90.8658,70.1686 -213.1031,59.1159 -316.3259,3.8839 z"/>
  </g>
</svg>
