<?xml version="1.0" standalone="no"?>
<!DOCTYPE svg PUBLIC "-//W3C//DTD SVG 20010904//EN"
 "http://www.w3.org/TR/2001/REC-SVG-20010904/DTD/svg10.dtd">
<svg version="1.0" xmlns="http://www.w3.org/2000/svg"
 width="468pt" height="470pt" viewBox="0 0 468 470"
 preserveAspectRatio="xMidYMid meet">
<metadata>
Created by potrace 1.8, written by Peter Selinger 2001-2007
</metadata>
<g transform="translate(0,470) scale(0.158108,-0.158108)"
fill="#000000" stroke="none">
<path d="M575 2951 c-11 -5 -28 -17 -37 -28 -10 -10 -110 -178 -223 -373 -192
-329 -206 -358 -201 -394 8 -64 25 -73 195 -106 85 -16 155 -31 157 -32 1 -2
-31 -63 -73 -135 l-77 -132 -49 25 c-84 43 -81 48 -176 -330 -44 -179 -81
-337 -81 -351 0 -24 24 -45 53 -45 14 0 503 465 519 494 15 26 1 51 -42 75
-22 12 -40 27 -40 33 0 6 52 100 115 209 122 210 134 247 100 296 -18 25 -41
32 -212 64 -68 12 -123 25 -123 28 0 3 74 134 165 291 114 197 165 294 165
315 0 40 -25 74 -66 91 -38 16 -41 16 -69 5z"/>
<path d="M1866 2938 c-30 -43 -20 -67 57 -145 79 -78 98 -86 141 -52 45 35 36
65 -47 147 -59 59 -78 72 -104 72 -22 0 -37 -7 -47 -22z"/>
<path d="M2225 2713 c-35 -9 -68 -37 -81 -70 -10 -24 -14 -86 -14 -230 0 -294
0 -293 300 -293 207 0 228 5 269 56 20 25 21 39 21 245 l0 217 -26 31 c-14 17
-42 35 -62 41 -37 10 -369 12 -407 3z m365 -293 l0 -160 -165 0 -165 0 0 160
0 160 165 0 165 0 0 -160z"/>
<path d="M1370 2470 c-29 -29 -26 -74 6 -99 25 -20 39 -21 284 -21 245 0 259
1 284 21 32 25 35 70 6 99 -19 19 -33 20 -290 20 -257 0 -271 -1 -290 -20z"/>
<path d="M1811 1896 c-180 -181 -193 -197 -187 -223 8 -34 40 -63 69 -63 14 0
87 66 220 199 176 176 198 201 192 222 -12 39 -36 59 -69 59 -28 0 -56 -25
-225 -194z"/>
<path d="M2764 2082 c-13 -9 -34 -46 -34 -62 0 -7 30 -43 67 -81 74 -77 98
-85 139 -43 36 35 26 66 -44 137 -44 45 -63 57 -87 57 -16 0 -35 -4 -41 -8z"/>
<path d="M2366 1948 c-14 -19 -16 -64 -16 -286 l0 -263 25 -24 c13 -14 34 -25
45 -25 12 0 32 11 45 25 l25 24 0 263 c0 301 -2 308 -70 308 -29 0 -43 -6 -54
-22z"/>
<path d="M1191 1364 l-21 -27 2 -643 c3 -616 4 -643 22 -663 l19 -21 856 2
855 3 15 26 c8 15 11 36 8 51 -9 34 -1664 1291 -1706 1296 -21 2 -34 -4 -50
-24z m809 -704 c366 -277 669 -507 675 -512 5 -4 -300 -8 -678 -8 l-687 0 0
521 c0 416 3 519 13 512 6 -6 311 -236 677 -513z"/>
<path d="M1535 1360 c-22 -24 -24 -72 -5 -95 8 -9 267 -212 577 -451 378 -292
570 -434 586 -434 49 0 81 80 46 115 -8 8 -268 210 -579 450 -332 256 -574
435 -586 435 -11 0 -29 -9 -39 -20z"/>
</g>
</svg>
