<?xml version="1.0" standalone="no"?>
<!DOCTYPE svg PUBLIC "-//W3C//DTD SVG 20010904//EN"
 "http://www.w3.org/TR/2001/REC-SVG-20010904/DTD/svg10.dtd">
<svg version="1.0" xmlns="http://www.w3.org/2000/svg"
 width="468pt" height="467pt" viewBox="0 0 468 467"
 preserveAspectRatio="xMidYMid meet">
<metadata>
Created by potrace 1.8, written by Peter Selinger 2001-2007
</metadata>
<g transform="translate(0,467) scale(0.158108,-0.158108)"
fill="#000000" stroke="none">
<path d="M15 2938 c-3 -7 -4 -670 -3 -1473 3 -1290 5 -1460 18 -1460 12 0 16
25 20 145 l5 145 45 3 c97 5 216 93 335 246 l31 39 32 -44 c62 -84 165 -179
229 -211 150 -73 311 -9 459 184 63 81 173 269 244 414 46 96 180 418 213 517
6 15 20 17 102 17 78 0 97 3 102 16 9 25 -16 34 -99 34 -43 0 -78 3 -78 6 0
35 212 513 276 622 l26 45 27 -48 c34 -63 51 -74 85 -52 14 10 26 25 26 34 0
9 -18 50 -41 91 l-41 74 36 53 c48 69 151 167 205 194 48 25 109 29 156 11 87
-33 204 -161 302 -328 83 -143 93 -152 134 -111 25 25 22 35 -43 147 -113 196
-222 318 -331 372 -62 30 -73 32 -140 28 -56 -4 -86 -12 -127 -34 -67 -36
-146 -108 -204 -184 l-44 -59 -41 54 c-64 85 -150 163 -215 195 -129 65 -268
27 -397 -107 -36 -38 -76 -83 -90 -101 l-25 -32 -38 49 c-55 73 -157 165 -212
192 -39 19 -65 24 -129 24 -69 0 -87 -4 -131 -28 -148 -82 -288 -270 -454
-612 -62 -127 -177 -401 -182 -436 -2 -8 -5 298 -8 680 -4 543 -8 695 -17 698
-7 3 -15 -1 -18 -9z m915 -415 c49 -29 149 -127 193 -190 l28 -40 -32 -54
c-67 -115 -171 -334 -243 -516 -42 -105 -76 -196 -76 -202 0 -8 -97 -11 -330
-11 -181 0 -330 2 -330 6 0 20 136 338 205 479 187 382 367 581 505 559 19 -3
55 -17 80 -31z m787 -18 c56 -39 154 -146 183 -199 13 -25 11 -31 -24 -94 -64
-114 -160 -320 -221 -472 -31 -80 -58 -146 -59 -147 -1 -1 -21 51 -45 115 -54
144 -134 319 -197 432 -26 47 -57 101 -68 121 l-20 36 47 60 c55 71 141 153
188 176 24 13 52 17 96 14 54 -2 71 -9 120 -42z m-472 -368 c65 -118 275 -593
275 -624 0 -1 -139 -3 -310 -3 -170 0 -310 3 -310 6 0 38 288 684 305 684 2 0
20 -29 40 -63z m-475 -688 c0 -27 -122 -315 -207 -488 -88 -180 -96 -193 -110
-175 -46 63 -205 410 -281 617 l-22 57 310 0 c212 0 310 -3 310 -11z m770 -3
c0 -49 -195 -488 -293 -660 -180 -314 -334 -438 -471 -378 -59 27 -145 108
-207 196 l-48 68 30 52 c79 133 240 492 322 719 6 16 31 17 337 17 278 0 330
-2 330 -14z m-1434 -146 c90 -241 163 -400 249 -545 25 -42 45 -80 45 -85 0
-15 -87 -126 -140 -179 -56 -57 -137 -101 -182 -101 l-28 0 0 522 c0 287 2
519 5 517 2 -3 25 -61 51 -129z"/>
<path d="M114 2925 c-15 -23 -15 -27 0 -50 l16 -25 1400 0 c1258 0 1400 2
1414 16 20 20 20 48 0 68 -14 14 -156 16 -1414 16 l-1400 0 -16 -25z"/>
<path d="M116 2808 c-20 -29 -20 -34 4 -58 18 -18 33 -20 166 -20 81 0 154 5
165 10 22 12 26 59 7 78 -8 8 -60 12 -169 12 -152 0 -158 -1 -173 -22z"/>
<path d="M616 2814 c-21 -21 -20 -47 2 -67 16 -14 43 -17 170 -17 160 0 182 6
182 50 0 44 -22 50 -185 50 -126 0 -156 -3 -169 -16z"/>
<path d="M1118 2819 c-25 -14 -24 -65 1 -79 11 -5 85 -10 169 -10 132 0 151 2
165 18 22 24 21 45 -1 65 -16 14 -43 17 -168 17 -82 0 -157 -5 -166 -11z"/>
<path d="M1612 2818 c-19 -19 -15 -66 7 -78 29 -15 303 -13 323 3 24 19 28 43
12 66 -14 20 -24 21 -173 21 -109 0 -161 -4 -169 -12z"/>
<path d="M2104 2805 c-15 -23 -15 -27 0 -50 16 -25 17 -25 167 -25 84 0 159 5
170 10 22 12 26 59 7 78 -8 8 -60 12 -170 12 -157 0 -158 0 -174 -25z"/>
<path d="M2606 2814 c-9 -8 -16 -24 -16 -34 0 -44 22 -50 185 -50 163 0 185 6
185 50 0 44 -22 50 -185 50 -126 0 -156 -3 -169 -16z"/>
<path d="M1903 1183 c4 -587 7 -720 20 -778 57 -261 197 -380 462 -392 354
-16 533 145 565 510 5 62 10 394 10 740 l0 627 -125 0 -125 0 0 -672 c0 -423
-4 -697 -11 -738 -15 -94 -55 -177 -102 -211 -104 -76 -302 -56 -373 37 -14
18 -36 62 -47 96 -21 62 -22 78 -25 776 l-3 712 -125 0 -126 0 5 -707z"/>
</g>
</svg>
