<?xml version="1.0" standalone="no"?>
<!DOCTYPE svg PUBLIC "-//W3C//DTD SVG 20010904//EN"
 "http://www.w3.org/TR/2001/REC-SVG-20010904/DTD/svg10.dtd">
<svg version="1.0" xmlns="http://www.w3.org/2000/svg"
 width="468pt" height="467pt" viewBox="0 0 468 467"
 preserveAspectRatio="xMidYMid meet">
<metadata>
Created by potrace 1.8, written by Peter Selinger 2001-2007
</metadata>
<g transform="translate(0,467) scale(0.157576,-0.157576)"
fill="#000000" stroke="none">
<path d="M1095 2945 c-52 -19 -72 -44 -80 -105 -17 -125 39 -200 153 -200 21
0 22 -4 22 -75 l0 -75 -115 0 c-76 0 -127 -5 -148 -14 -50 -21 -79 -59 -84
-110 l-5 -45 -304 -3 c-287 -3 -304 -4 -330 -24 -68 -50 -69 -55 -69 -282 0
-189 2 -210 20 -241 40 -68 54 -71 386 -71 l296 0 11 -38 c7 -21 23 -49 38
-63 l26 -24 418 -3 419 -3 35 31 c22 20 38 44 42 66 l6 34 174 0 174 0 0 -211
c0 -238 7 -275 57 -319 l34 -30 172 -2 c285 -4 303 -1 357 57 l25 27 5 466 c6
500 3 537 -42 580 -55 51 -66 52 -522 52 l-424 0 -7 38 c-9 55 -40 101 -80
118 -24 10 -73 14 -160 14 l-125 0 0 75 0 75 450 0 c481 0 492 1 535 50 17 19
20 36 20 112 0 86 -1 91 -28 113 -15 13 -44 29 -65 34 -24 7 -252 11 -642 11
-496 -1 -612 -3 -645 -15z m1271 -93 c16 -10 23 -62 13 -89 l-9 -23 -618 0
c-467 0 -621 3 -630 12 -7 7 -12 28 -12 48 0 20 5 41 12 48 9 9 161 12 623 12
335 0 615 -4 621 -8z m-996 -287 l0 -75 -40 0 -40 0 0 75 0 75 40 0 40 0 0
-75z m330 -275 c0 -52 4 -65 26 -87 l25 -25 464 3 c255 2 467 0 472 -4 10 -10
4 -889 -6 -900 -4 -4 -86 -6 -182 -5 l-174 3 -5 256 c-5 235 -7 259 -24 278
-19 20 -27 21 -288 21 -255 0 -269 -1 -288 -20 -14 -14 -20 -33 -20 -65 l0
-45 -362 2 -363 3 -3 45 c-6 83 8 80 -357 80 -285 0 -324 2 -336 16 -10 12
-13 54 -13 164 1 81 4 152 8 158 5 9 95 12 322 12 380 0 374 -2 374 101 0 31
3 59 7 62 3 4 168 7 365 7 l358 0 0 -60z"/>
<path d="M94 939 c-87 -25 -96 -75 -92 -498 3 -302 4 -329 23 -366 24 -49 52
-62 130 -66 33 -2 660 -2 1393 -1 l1332 2 38 34 37 34 6 349 c4 191 2 371 -2
398 -11 62 -36 96 -80 112 -41 14 -2735 17 -2785 2z m151 -154 l100 0 3 33 3
32 104 0 104 0 3 -32 3 -33 94 -3 c100 -3 111 1 111 46 0 19 5 22 45 22 38 0
45 -3 45 -19 0 -48 7 -51 111 -51 l98 0 7 35 c6 34 8 35 49 35 42 0 44 -1 47
-32 l3 -33 100 0 100 0 3 33 3 32 84 0 84 0 3 -32 3 -33 94 -3 c100 -3 111 1
111 46 0 19 5 22 45 22 38 0 45 -3 45 -19 0 -48 7 -51 111 -51 l99 0 0 35 0
35 49 0 c49 0 50 -1 53 -32 l3 -33 100 0 100 0 3 33 3 32 119 0 119 0 3 -32 3
-33 100 0 100 0 3 33 c4 36 25 43 42 13 6 -13 10 -144 10 -360 l0 -340 -22
-16 c-23 -15 -23 -15 -28 22 l-5 38 -88 3 c-99 3 -117 -4 -117 -49 l0 -29
-119 0 -120 0 -3 38 -3 37 -88 3 c-99 3 -117 -4 -117 -49 0 -28 -2 -29 -45
-29 -43 0 -45 1 -45 29 0 45 -18 52 -117 49 l-88 -3 -3 -37 -3 -38 -49 0 -49
0 -3 38 -3 37 -100 0 -100 0 -3 -37 -3 -38 -80 0 c-73 0 -79 2 -79 21 0 51
-15 59 -108 59 -96 0 -112 -7 -112 -52 0 -27 -2 -28 -45 -28 -43 0 -45 1 -45
29 0 45 -18 52 -117 49 l-88 -3 -3 -38 -3 -37 -49 0 -49 0 -3 38 -3 37 -100 0
-100 0 -3 -37 -3 -38 -100 0 c-93 0 -99 1 -99 21 0 51 -15 59 -110 59 -94 0
-99 -2 -109 -53 -6 -29 -7 -29 -24 -13 -15 16 -17 49 -17 361 0 314 2 345 18
361 16 17 17 16 22 -17 l5 -34 100 0z"/>
<path d="M203 720 c-44 -18 -57 -64 -61 -211 -5 -196 15 -255 93 -266 52 -6
90 22 107 80 15 54 15 270 0 324 -20 69 -76 98 -139 73z m74 -67 c26 -39 26
-297 0 -337 -22 -32 -46 -31 -64 4 -19 35 -14 320 6 343 19 24 38 21 58 -10z"/>
<path d="M910 718 c-36 -19 -60 -74 -60 -136 0 -101 46 -160 116 -149 36 6 36
6 30 -24 -9 -49 -43 -87 -87 -100 -26 -8 -39 -18 -39 -30 0 -28 18 -32 64 -15
89 34 129 114 130 256 0 101 -13 157 -43 184 -25 23 -81 30 -111 14z m68 -46
c32 -21 46 -175 16 -186 -59 -23 -88 16 -82 110 5 75 27 100 66 76z"/>
<path d="M1184 723 c-12 -2 -29 -12 -38 -22 -14 -16 -15 -20 -2 -30 11 -9 20
-10 35 -2 29 16 67 13 85 -5 28 -27 20 -84 -21 -150 -73 -118 -94 -164 -100
-213 l-6 -51 107 0 106 0 0 25 c0 24 -2 25 -75 25 -41 0 -75 2 -75 4 0 20 37
97 70 146 52 76 70 119 70 165 0 86 -59 127 -156 108z"/>
<path d="M1614 723 c-12 -2 -29 -12 -38 -22 -14 -16 -15 -20 -2 -30 11 -9 20
-10 35 -2 29 16 67 13 85 -5 28 -27 20 -84 -21 -150 -73 -118 -94 -164 -100
-213 l-6 -51 107 0 106 0 0 25 c0 24 -2 25 -75 25 -41 0 -75 2 -75 4 0 20 37
97 70 146 52 76 70 119 70 165 0 86 -59 127 -156 108z"/>
<path d="M1923 720 c-44 -18 -57 -64 -61 -211 -5 -196 15 -255 93 -266 52 -6
90 22 107 80 15 54 15 270 0 324 -20 69 -76 98 -139 73z m74 -67 c26 -39 26
-297 0 -337 -22 -32 -46 -31 -64 4 -19 35 -14 320 6 343 19 24 38 21 58 -10z"/>
<path d="M2213 720 c-44 -18 -57 -64 -61 -211 -5 -196 15 -255 93 -266 52 -6
90 22 107 80 15 54 15 270 0 324 -20 69 -76 98 -139 73z m74 -67 c26 -39 26
-297 0 -337 -22 -32 -46 -31 -64 4 -19 35 -14 320 6 343 19 24 38 21 58 -10z"/>
<path d="M696 710 c-42 -13 -81 -55 -107 -114 -32 -71 -34 -231 -4 -291 25
-50 65 -71 113 -59 51 13 75 52 80 127 7 109 -39 176 -113 164 -40 -7 -44 3
-21 58 15 35 67 75 97 75 12 0 15 7 11 25 -5 27 -11 28 -56 15z m8 -242 c23
-32 21 -129 -2 -158 -26 -32 -58 -19 -72 28 -14 52 -13 139 3 145 28 12 57 6
71 -15z"/>
<path d="M2736 710 c-42 -13 -81 -55 -107 -114 -32 -71 -34 -231 -4 -291 25
-50 65 -71 113 -59 51 13 75 52 80 127 7 109 -39 176 -113 164 -40 -7 -44 3
-21 58 15 35 67 75 97 75 12 0 15 7 11 25 -5 27 -11 28 -56 15z m8 -242 c23
-32 21 -129 -2 -158 -26 -32 -58 -19 -72 28 -14 52 -13 139 3 145 28 12 57 6
71 -15z"/>
<path d="M2450 276 c0 -30 -5 -67 -10 -82 -10 -26 -2 -43 21 -44 14 0 49 101
49 139 0 39 -2 41 -30 41 -30 0 -30 -1 -30 -54z"/>
</g>
</svg>
