<?xml version="1.0" standalone="no"?>
<!DOCTYPE svg PUBLIC "-//W3C//DTD SVG 20010904//EN"
 "http://www.w3.org/TR/2001/REC-SVG-20010904/DTD/svg10.dtd">
<svg version="1.0" xmlns="http://www.w3.org/2000/svg"
 width="468pt" height="467pt" viewBox="0 0 468 467"
 preserveAspectRatio="xMidYMid meet">
<metadata>
Created by potrace 1.8, written by Peter Selinger 2001-2007
</metadata>
<g transform="translate(0,467) scale(0.157576,-0.157576)"
fill="#000000" stroke="none">
<path d="M17 2954 c-4 -4 -7 -419 -7 -921 0 -866 1 -914 18 -911 16 3 17 30
20 371 1 250 6 366 13 362 5 -4 21 0 34 9 21 14 68 16 334 16 l310 0 16 -57
c84 -302 182 -538 254 -610 55 -55 103 -77 149 -68 60 11 140 102 201 226 47
97 131 335 162 457 l13 52 315 -2 316 -3 18 -60 c53 -177 124 -379 157 -450
81 -170 177 -242 273 -206 80 31 189 222 276 486 63 192 80 268 62 289 -15 18
-56 21 -66 6 -4 -6 -122 -10 -320 -10 l-314 0 -16 58 c-35 126 -109 332 -149
417 -86 180 -177 267 -262 250 -48 -9 -116 -73 -164 -154 -50 -84 -128 -280
-176 -444 l-38 -127 -312 0 -311 0 -28 98 c-89 316 -213 554 -316 607 -126 66
-245 -75 -374 -445 l-54 -155 -3 459 c-3 440 -6 485 -31 460z m454 -424 c58
-58 209 -410 244 -567 l7 -33 -296 0 c-235 0 -296 3 -296 13 0 22 61 208 102
312 78 196 147 305 195 305 8 0 28 -13 44 -30z m1435 -17 c50 -55 115 -194
178 -386 31 -92 56 -174 56 -182 0 -13 -40 -15 -294 -15 l-295 0 19 68 c57
205 160 448 219 515 43 48 71 48 117 0z m-481 -665 c-18 -83 -100 -313 -148
-413 -60 -123 -107 -185 -142 -185 -47 0 -110 94 -180 269 -40 102 -115 329
-115 352 0 5 133 9 296 9 l296 0 -7 -32z m1413 -40 c-48 -173 -132 -380 -188
-467 -47 -72 -80 -97 -108 -82 -69 37 -161 228 -247 514 l-33 107 298 0 298 0
-20 -72z"/>
<path d="M114 2935 c-15 -23 -15 -27 0 -50 l16 -25 1400 0 c1258 0 1400 2
1414 16 20 20 20 48 0 68 -14 14 -156 16 -1414 16 l-1400 0 -16 -25z"/>
<path d="M116 2818 c-20 -29 -20 -34 4 -58 18 -18 33 -20 166 -20 81 0 154 5
165 10 22 12 26 59 7 78 -8 8 -60 12 -169 12 -152 0 -158 -1 -173 -22z"/>
<path d="M616 2824 c-21 -21 -20 -47 2 -67 16 -14 43 -17 170 -17 160 0 182 6
182 50 0 44 -22 50 -185 50 -126 0 -156 -3 -169 -16z"/>
<path d="M1118 2829 c-25 -14 -24 -65 1 -79 11 -5 85 -10 169 -10 132 0 151 2
165 18 22 24 21 45 -1 65 -16 14 -43 17 -168 17 -82 0 -157 -5 -166 -11z"/>
<path d="M1612 2828 c-19 -19 -15 -66 7 -78 29 -15 303 -13 323 3 24 19 28 43
12 66 -14 20 -24 21 -173 21 -109 0 -161 -4 -169 -12z"/>
<path d="M2104 2815 c-15 -23 -15 -27 0 -50 16 -25 17 -25 167 -25 84 0 159 5
170 10 22 12 26 59 7 78 -8 8 -60 12 -170 12 -157 0 -158 0 -174 -25z"/>
<path d="M2606 2824 c-9 -8 -16 -24 -16 -34 0 -44 22 -50 185 -50 163 0 185 6
185 50 0 44 -22 50 -185 50 -126 0 -156 -3 -169 -16z"/>
<path d="M94 939 c-87 -25 -96 -75 -92 -498 3 -302 4 -329 23 -366 24 -49 52
-62 130 -66 33 -2 660 -2 1393 -1 l1332 2 38 34 37 34 6 349 c4 191 2 371 -2
398 -11 62 -36 96 -80 112 -41 14 -2735 17 -2785 2z m151 -154 l100 0 3 33 3
32 104 0 104 0 3 -32 3 -33 94 -3 c100 -3 111 1 111 46 0 19 5 22 45 22 38 0
45 -3 45 -19 0 -48 7 -51 111 -51 l98 0 7 35 c6 34 8 35 49 35 42 0 44 -1 47
-32 l3 -33 100 0 100 0 3 33 3 32 84 0 84 0 3 -32 3 -33 94 -3 c100 -3 111 1
111 46 0 19 5 22 45 22 38 0 45 -3 45 -19 0 -48 7 -51 111 -51 l99 0 0 35 0
35 49 0 c49 0 50 -1 53 -32 l3 -33 100 0 100 0 3 33 3 32 119 0 119 0 3 -32 3
-33 100 0 100 0 3 33 c4 36 25 43 42 13 6 -13 10 -144 10 -360 l0 -340 -22
-16 c-23 -15 -23 -15 -28 22 l-5 38 -88 3 c-99 3 -117 -4 -117 -49 l0 -29
-119 0 -120 0 -3 38 -3 37 -88 3 c-99 3 -117 -4 -117 -49 0 -28 -2 -29 -45
-29 -43 0 -45 1 -45 29 0 45 -18 52 -117 49 l-88 -3 -3 -37 -3 -38 -49 0 -49
0 -3 38 -3 37 -100 0 -100 0 -3 -37 -3 -38 -80 0 c-73 0 -79 2 -79 21 0 51
-15 59 -108 59 -96 0 -112 -7 -112 -52 0 -27 -2 -28 -45 -28 -43 0 -45 1 -45
29 0 45 -18 52 -117 49 l-88 -3 -3 -38 -3 -37 -49 0 -49 0 -3 38 -3 37 -100 0
-100 0 -3 -37 -3 -38 -100 0 c-93 0 -99 1 -99 21 0 51 -15 59 -110 59 -94 0
-99 -2 -109 -53 -6 -29 -7 -29 -24 -13 -15 16 -17 49 -17 361 0 314 2 345 18
361 16 17 17 16 22 -17 l5 -34 100 0z"/>
<path d="M1203 720 c-29 -12 -63 -67 -63 -103 0 -35 22 -88 43 -106 15 -12 15
-16 -8 -43 -37 -44 -51 -99 -36 -148 15 -49 51 -75 106 -75 54 0 91 26 106 74
15 52 5 100 -29 137 l-27 30 27 44 c36 57 39 127 5 165 -25 29 -86 42 -124 25z
m74 -52 c27 -34 19 -112 -13 -139 -40 -33 -87 96 -49 134 19 20 49 22 62 5z
m7 -249 c32 -54 10 -129 -39 -129 -52 0 -72 86 -35 148 17 28 22 31 39 20 10
-6 26 -24 35 -39z"/>
<path d="M1633 720 c-44 -18 -57 -64 -61 -211 -5 -196 15 -255 93 -266 52 -6
90 22 107 80 15 54 15 270 0 324 -20 69 -76 98 -139 73z m74 -67 c26 -39 26
-297 0 -337 -22 -32 -46 -31 -64 4 -19 35 -14 320 6 343 19 24 38 21 58 -10z"/>
<path d="M1888 718 c-29 -10 -34 -23 -19 -46 6 -10 13 -11 34 -1 40 18 75 4
85 -34 16 -61 -15 -117 -65 -117 -18 0 -23 -6 -23 -25 0 -20 5 -25 26 -25 39
0 61 -16 74 -55 29 -87 -37 -154 -112 -114 -16 9 -23 8 -29 -2 -17 -26 -9 -38
32 -49 54 -15 111 -4 139 25 45 48 44 160 -2 200 l-24 20 23 34 c27 40 31 107
8 150 -22 44 -87 61 -147 39z"/>
<path d="M2178 718 c-29 -10 -34 -23 -19 -46 6 -10 13 -11 34 -1 40 18 75 4
85 -34 16 -61 -15 -117 -65 -117 -18 0 -23 -6 -23 -25 0 -20 5 -25 26 -25 39
0 61 -16 74 -55 29 -87 -37 -154 -112 -114 -16 9 -23 8 -29 -2 -17 -26 -9 -38
32 -49 54 -15 111 -4 139 25 45 48 44 160 -2 200 l-24 20 23 34 c27 40 31 107
8 150 -22 44 -87 61 -147 39z"/>
<path d="M2660 718 c-36 -19 -60 -74 -60 -136 0 -101 46 -160 116 -149 36 6
36 6 30 -24 -9 -49 -43 -87 -87 -100 -26 -8 -39 -18 -39 -30 0 -28 18 -32 64
-15 89 34 129 114 130 256 0 101 -13 157 -43 184 -25 23 -81 30 -111 14z m68
-46 c32 -21 46 -175 16 -186 -59 -23 -88 16 -82 110 5 75 27 100 66 76z"/>
<path d="M197 668 c-40 -42 -46 -52 -37 -69 11 -19 11 -19 41 1 l29 21 0 -185
0 -186 30 0 30 0 0 235 0 235 -22 -1 c-14 -1 -43 -22 -71 -51z"/>
<path d="M696 710 c-42 -13 -81 -55 -107 -114 -32 -71 -34 -231 -4 -291 25
-50 65 -71 113 -59 51 13 75 52 80 127 7 109 -39 176 -113 164 -40 -7 -44 3
-21 58 15 35 67 75 97 75 12 0 15 7 11 25 -5 27 -11 28 -56 15z m8 -242 c23
-32 21 -129 -2 -158 -26 -32 -58 -19 -72 28 -14 52 -13 139 3 145 28 12 57 6
71 -15z"/>
<path d="M907 668 c-40 -42 -46 -52 -37 -69 11 -19 11 -19 41 1 l29 21 0 -185
0 -186 30 0 30 0 0 235 0 235 -22 -1 c-14 -1 -43 -22 -71 -51z"/>
<path d="M2450 276 c0 -30 -5 -67 -10 -82 -10 -26 -2 -43 21 -44 14 0 49 101
49 139 0 39 -2 41 -30 41 -30 0 -30 -1 -30 -54z"/>
</g>
</svg>
