<?xml version="1.0" encoding="UTF-8" standalone="no"?>
<!-- Generator: Adobe Illustrator 16.0.0, SVG Export Plug-In . SVG Version: 6.00 Build 0)  -->

<svg
   xmlns:dc="http://purl.org/dc/elements/1.1/"
   xmlns:cc="http://creativecommons.org/ns#"
   xmlns:rdf="http://www.w3.org/1999/02/22-rdf-syntax-ns#"
   xmlns:svg="http://www.w3.org/2000/svg"
   xmlns="http://www.w3.org/2000/svg"
   xmlns:sodipodi="http://sodipodi.sourceforge.net/DTD/sodipodi-0.dtd"
   xmlns:inkscape="http://www.inkscape.org/namespaces/inkscape"
   version="1.1"
   x="0px"
   y="0px"
   width="361px"
   height="361px"
   viewBox="0 0 361 361"
   style="enable-background:new 0 0 361 361;"
   xml:space="preserve"
   id="svg2"
   inkscape:version="0.48.2 r9819"
   sodipodi:docname="measure_battery_75.svg"><metadata
   id="metadata34"><rdf:RDF><cc:Work
       rdf:about=""><dc:format>image/svg+xml</dc:format><dc:type
         rdf:resource="http://purl.org/dc/dcmitype/StillImage" /></cc:Work></rdf:RDF></metadata><defs
   id="defs32" /><sodipodi:namedview
   pagecolor="#ffffff"
   bordercolor="#666666"
   borderopacity="1"
   objecttolerance="10"
   gridtolerance="10"
   guidetolerance="10"
   inkscape:pageopacity="0"
   inkscape:pageshadow="2"
   inkscape:window-width="779"
   inkscape:window-height="480"
   id="namedview30"
   showgrid="false"
   inkscape:zoom="0.65373961"
   inkscape:cx="180.5"
   inkscape:cy="180.5"
   inkscape:window-x="0"
   inkscape:window-y="0"
   inkscape:window-maximized="0"
   inkscape:current-layer="measure_x5F_battery_x5F_75" />
<g
   id="measure_x5F_battery_x5F_75"
   style="stroke:#000000;stroke-opacity:1">
	<g
   id="g5"
   style="stroke:#000000;stroke-opacity:1"
   transform="matrix(1.6077208,0,0,1.6077208,-111.65426,-108.11351)">
		<path
   style="fill:none;stroke:#000000;stroke-width:10;stroke-opacity:1"
   d="m 236.141,280.167 c 0,3.313 -2.688,6 -6,6 h -95.5 c -3.313,0 -6,-2.687 -6,-6 v -180 c 0,-3.313 2.687,-6 6,-6 h 95.5 c 3.313,0 6,2.687 6,6 v 180 z"
   id="path7"
   inkscape:connector-curvature="0" />
		<path
   style="fill:none;stroke:#000000;stroke-width:10;stroke-opacity:1"
   d="m 163.64,94.667 v -14 c 0,-3.313 2.687,-6 6,-6 h 25.5 c 3.313,0 6,2.687 6,6 v 14"
   id="path9"
   inkscape:connector-curvature="0" />
	</g>
	<g
   style="display:none;stroke:#000000;stroke-opacity:1"
   id="g11">
		<path
   style="display:inline;fill:none;stroke:#000000;stroke-width:10;stroke-opacity:1"
   d="M221.141,266.334c0,3.313-2.688,6-6,6h-65.5    c-3.313,0-6-2.688-6-6v-6c0-3.314,2.687-6,6-6l65.5-20c3.313,0,6,2.686,6,6V266.334z"
   id="path13" />
		<path
   style="display:inline;fill:none;stroke:#000000;stroke-width:10;stroke-opacity:1"
   d="M221.141,166.667c0,3.313-2.688,6-6,6l-65.5,20    c-3.313,0-6-2.687-6-6v-20c0-3.313,2.687-6,6-6l65.5-20c3.313,0,6,2.687,6,6V166.667z"
   id="path15" />
		<path
   style="display:inline;fill:none;stroke:#000000;stroke-width:10;stroke-opacity:1"
   d="M221.141,120c0,3.313-2.688,6-6,6l-65.5,20    c-3.313,0-6-2.687-6-6v-26c0-3.313,2.687-6,6-6h65.5c3.313,0,6,2.687,6,6V120z"
   id="path17" />
		<path
   style="display:inline;fill:none;stroke:#000000;stroke-width:10;stroke-opacity:1"
   d="M221.141,213.667c0,3.313-2.688,6-6,6l-65.5,20    c-3.313,0-6-2.687-6-6v-20c0-3.313,2.687-6,6-6l65.5-20c3.313,0,6,2.687,6,6V213.667z"
   id="path19" />
	</g>
	<path
   style="fill:#000000;fill-opacity:1;stroke:none"
   d="m 243.87874,320.07722 c 0,5.32637 -4.32156,9.64632 -9.64633,9.64632 H 128.9267 c -5.32638,0 -9.64633,-4.32156 -9.64633,-9.64632 v -9.64632 c 0,-5.32799 4.31995,-9.64633 9.64633,-9.64633 l 105.30571,-32.15442 c 5.32638,0 9.64633,4.31834 9.64633,9.64632 v 41.80075 z"
   id="path21"
   inkscape:connector-curvature="0" />
	<path
   style="fill:#000000;fill-opacity:1;stroke:none"
   d="m 243.87874,159.84051 c 0,5.32636 -4.32156,9.64631 -9.64633,9.64631 L 128.9267,201.64124 c -5.32638,0 -9.64633,-4.31994 -9.64633,-9.64632 v -32.15441 c 0,-5.32638 4.31995,-9.64633 9.64633,-9.64633 l 105.30571,-32.15442 c 5.32638,0 9.64633,4.31994 9.64633,9.64633 v 32.15442 z"
   id="path23"
   inkscape:connector-curvature="0" />
	<path
   style="display:none;fill:#FFFFFF;stroke:#000000;stroke-width:3;stroke-opacity:1"
   d="M221.141,120c0,3.313-2.688,6-6,6l-65.5,20   c-3.313,0-6-2.687-6-6v-26c0-3.313,2.687-6,6-6h65.5c3.313,0,6,2.687,6,6V120z"
   id="path25" />
	<path
   style="fill:#000000;fill-opacity:1;stroke:none"
   d="m 243.87874,235.40338 c 0,5.32638 -4.32156,9.64632 -9.64633,9.64632 L 128.9267,277.20413 c -5.32638,0 -9.64633,-4.31995 -9.64633,-9.64633 v -32.15442 c 0,-5.32638 4.31995,-9.64632 9.64633,-9.64632 l 105.30571,-32.15442 c 5.32638,0 9.64633,4.31995 9.64633,9.64633 v 32.15441 z"
   id="path27"
   inkscape:connector-curvature="0" />
</g>
<g
   id="Ebene_1"
   style="stroke:#000000;stroke-opacity:1">
</g>
</svg>