<?xml version="1.0" standalone="no"?>
<!DOCTYPE svg PUBLIC "-//W3C//DTD SVG 20010904//EN"
 "http://www.w3.org/TR/2001/REC-SVG-20010904/DTD/svg10.dtd">
<svg version="1.0" xmlns="http://www.w3.org/2000/svg"
 width="468pt" height="470pt" viewBox="0 0 468 470"
 preserveAspectRatio="xMidYMid meet">
<metadata>
Created by potrace 1.8, written by Peter Selinger 2001-2007
</metadata>
<g transform="translate(0,470) scale(0.158108,-0.158108)"
fill="#000000" stroke="none">
<path d="M75 2941 c-16 -10 -39 -28 -50 -41 -20 -22 -20 -36 -20 -1415 l0
-1393 25 -27 c55 -59 -38 -55 1445 -55 1483 0 1390 -4 1445 55 l25 27 0 1394
0 1394 -38 37 -37 38 -1383 3 c-1332 2 -1383 1 -1412 -17z m2743 -1453 l-3
-1343 -1340 0 -1340 0 -3 1330 c-1 732 0 1336 3 1343 3 9 282 12 1345 12
l1340 0 -2 -1342z"/>
<path d="M1015 2596 c-58 -25 -375 -380 -375 -420 0 -27 17 -50 119 -166 124
-140 214 -231 243 -246 22 -11 110 -14 477 -14 l449 0 54 44 c57 46 281 289
312 337 11 17 16 38 12 52 -7 29 -196 255 -279 335 -36 34 -82 69 -101 77 -49
21 -864 21 -911 1z m951 -218 c49 -51 111 -119 138 -151 l49 -58 -39 -42 c-21
-23 -84 -88 -139 -144 l-100 -103 -401 0 -402 0 -136 142 c-75 78 -136 144
-136 148 0 11 214 254 245 278 27 22 33 22 430 22 l402 0 89 -92z"/>
<path d="M1122 2260 c-44 -18 -56 -100 -21 -144 17 -22 28 -26 70 -26 66 0 89
23 89 88 0 36 -5 54 -19 66 -23 21 -87 30 -119 16z"/>
<path d="M1750 2263 c-37 -14 -50 -36 -50 -85 0 -65 23 -88 89 -88 42 0 53 4
70 26 21 27 26 60 15 102 -11 38 -77 62 -124 45z"/>
<path d="M1410 2070 c-15 -15 -20 -33 -20 -69 0 -42 4 -53 26 -70 34 -27 94
-28 125 -2 20 16 24 29 24 71 0 42 -4 55 -24 71 -32 26 -104 26 -131 -1z"/>
<path d="M457 1858 c-18 -15 -104 -233 -143 -366 -14 -48 -26 -112 -27 -142
-2 -55 0 -58 212 -425 117 -203 220 -378 229 -388 21 -24 112 -50 315 -92 187
-38 248 -43 266 -21 28 34 161 458 161 514 0 25 -409 750 -448 795 -20 23
-136 58 -339 102 -178 39 -201 41 -226 23z m318 -186 l150 -37 203 -350 c172
-297 202 -355 197 -380 -7 -39 -95 -328 -104 -344 -5 -8 -53 -2 -177 23 -93
19 -181 39 -195 44 -20 8 -70 87 -228 361 l-202 350 11 43 c12 48 100 318 108
331 6 12 65 2 237 -41z"/>
<path d="M656 1466 c-38 -35 -43 -54 -25 -89 35 -68 77 -82 136 -46 46 29 58
61 37 102 -40 79 -88 90 -148 33z"/>
<path d="M980 1304 c-53 -36 -63 -73 -33 -122 36 -58 69 -66 127 -31 56 33 61
90 12 142 -29 31 -69 35 -106 11z"/>
<path d="M995 958 c-64 -35 -79 -75 -48 -126 35 -57 74 -67 130 -32 53 32 56
92 9 143 -26 28 -58 34 -91 15z"/>
<path d="M2270 1836 c-226 -52 -310 -77 -335 -100 -33 -30 -445 -751 -451
-789 -8 -49 123 -483 159 -526 32 -38 531 63 581 118 8 9 111 185 230 391 158
273 216 383 216 406 0 62 -149 501 -177 522 -25 18 -62 14 -223 -22z m202
-296 c31 -96 57 -182 57 -190 1 -23 -395 -703 -417 -718 -16 -11 -373 -86
-378 -79 -5 7 -86 263 -99 315 l-16 63 203 350 c131 228 210 354 223 359 45
17 322 79 345 77 22 -2 29 -16 82 -177z"/>
<path d="M2178 1483 c-25 -29 -38 -60 -38 -92 0 -24 8 -36 37 -56 51 -34 85
-32 116 5 14 16 29 39 32 51 16 48 -43 109 -104 109 -15 0 -35 -8 -43 -17z"/>
<path d="M1879 1308 c-43 -36 -61 -99 -36 -129 20 -26 65 -49 92 -49 48 0 94
71 81 124 -12 48 -102 83 -137 54z"/>
<path d="M1879 958 c-25 -21 -49 -66 -49 -91 0 -43 54 -87 107 -87 26 0 37 7
58 37 41 61 33 103 -26 133 -44 23 -69 25 -90 8z"/>
</g>
</svg>
