<?xml version="1.0" standalone="no"?>
<!DOCTYPE svg PUBLIC "-//W3C//DTD SVG 20010904//EN"
 "http://www.w3.org/TR/2001/REC-SVG-20010904/DTD/svg10.dtd">
<svg version="1.0" xmlns="http://www.w3.org/2000/svg"
 width="468pt" height="438pt" viewBox="0 0 468 438"
 preserveAspectRatio="xMidYMid meet">
<metadata>
Created by potrace 1.8, written by Peter Selinger 2001-2007
</metadata>
<g transform="translate(0,438) scale(0.158108,-0.158108)"
fill="#000000" stroke="none">
<path d="M765 2350 c-380 -230 -698 -424 -708 -430 -10 -6 -27 -31 -38 -55
-19 -42 -19 -72 -17 -907 l3 -863 24 -34 c46 -65 -43 -61 1451 -61 1478 0
1385 -4 1440 55 l25 27 3 882 2 883 -22 33 c-18 25 -192 136 -727 462 -387
235 -714 428 -726 428 -11 0 -331 -189 -710 -420z m1261 -62 l546 -333 -545
-3 c-300 -1 -793 -1 -1096 0 l-551 3 542 332 c299 182 546 332 550 332 4 1
253 -149 554 -331z m-1117 -997 c299 -182 554 -331 567 -331 12 0 317 179 680
400 361 220 658 400 660 400 2 0 3 -366 2 -812 l-3 -813 -1337 -3 -1338 -2 0
815 0 815 113 -69 c61 -38 357 -218 656 -400z"/>
</g>
</svg>
