<?xml version="1.0" standalone="no"?>
<!DOCTYPE svg PUBLIC "-//W3C//DTD SVG 20010904//EN"
 "http://www.w3.org/TR/2001/REC-SVG-20010904/DTD/svg10.dtd">
<svg version="1.0" xmlns="http://www.w3.org/2000/svg"
 width="468pt" height="468pt" viewBox="0 0 468 468"
 preserveAspectRatio="xMidYMid meet">
<metadata>
Created by potrace 1.8, written by Peter Selinger 2001-2007
</metadata>
<g transform="translate(0,468) scale(0.158108,-0.158108)"
fill="#000000" stroke="none">
<path d="M2250 2869 c-355 -48 -653 -90 -663 -94 -21 -9 -37 -36 -37 -65 0
-13 26 -49 67 -91 l66 -69 -91 -94 c-102 -103 -111 -128 -70 -182 33 -45 708
-723 752 -755 69 -51 94 -44 200 61 l92 90 54 -56 c30 -31 64 -59 75 -64 30
-11 72 8 84 38 6 15 49 317 96 670 78 584 85 646 71 667 -8 12 -23 24 -33 27
-10 2 -308 -35 -663 -83z m560 -65 c0 -14 -131 -992 -136 -1013 -5 -22 -52 22
-455 425 -324 323 -444 450 -432 453 10 2 241 34 513 71 272 37 498 68 503 69
4 0 7 -2 7 -5z m-408 -1106 l-62 -63 -345 345 -345 345 62 62 63 63 345 -345
345 -345 -63 -62z"/>
<path d="M27 1462 c-16 -17 -17 -81 -17 -720 0 -689 0 -702 20 -722 20 -20 33
-20 1444 -20 l1425 0 21 27 c25 32 20 69 -12 96 -19 16 -100 17 -1389 17
l-1369 0 0 216 0 215 394 195 c216 107 399 194 405 194 6 0 101 -56 212 -125
241 -150 253 -157 276 -148 10 3 60 33 112 66 51 32 97 55 101 50 5 -4 31 -68
59 -142 27 -74 57 -141 65 -149 32 -32 61 -16 348 197 l287 211 232 -56 c251
-59 268 -60 290 -10 16 35 4 72 -28 85 -37 14 -493 123 -515 123 -10 0 -133
-86 -275 -191 -142 -105 -260 -191 -263 -191 -3 0 -27 61 -54 135 -48 133 -75
175 -111 175 -10 0 -71 -34 -136 -75 -65 -41 -123 -75 -128 -75 -5 0 -106 60
-223 133 -118 74 -222 136 -231 140 -10 4 -165 -67 -411 -189 -218 -106 -398
-194 -400 -194 -3 0 -7 159 -8 354 -3 332 -4 355 -22 375 -24 26 -77 28 -99 3z"/>
</g>
</svg>
