<?xml version="1.0" standalone="no"?>
<!DOCTYPE svg PUBLIC "-//W3C//DTD SVG 20010904//EN"
 "http://www.w3.org/TR/2001/REC-SVG-20010904/DTD/svg10.dtd">
<svg version="1.0" xmlns="http://www.w3.org/2000/svg"
 width="386pt" height="648pt" viewBox="0 0 386 648"
 preserveAspectRatio="xMidYMid meet">
<metadata>
Created by potrace 1.8, written by Peter Selinger 2001-2007
</metadata>
<g transform="translate(0,648) scale(0.218919,-0.218919)"
fill="#000000" stroke="none">
<path d="M184 2951 c-12 -5 -31 -22 -43 -37 -21 -27 -22 -36 -19 -200 3 -147
6 -175 20 -191 17 -18 18 -60 18 -580 l0 -561 -40 -7 c-22 -4 -51 -16 -66 -28
-54 -42 -54 -40 -54 -651 0 -629 0 -626 65 -666 28 -18 49 -20 175 -20 l142 0
39 39 39 39 0 597 c0 582 -1 598 -20 630 -21 34 -80 65 -125 65 l-25 0 0 562
c0 521 1 563 18 581 14 16 17 44 20 192 l3 173 -28 31 c-30 34 -82 48 -119 32z
m146 -2261 l0 -550 -95 0 -95 0 0 550 0 550 95 0 95 0 0 -550z"/>
<path d="M953 2722 c-133 -131 -246 -250 -252 -265 -15 -39 -14 -83 3 -115 8
-15 78 -90 155 -167 l141 -140 0 -940 c0 -629 4 -953 11 -978 5 -21 23 -52 39
-70 l28 -32 147 0 147 0 28 32 c16 18 34 49 39 70 7 25 11 347 11 973 l0 934
155 156 c165 166 175 183 137 231 -13 15 -30 22 -51 22 -28 0 -49 -16 -152
-119 l-119 -119 -200 200 -200 199 136 138 c125 126 136 139 130 165 -8 34
-41 63 -70 62 -14 0 -104 -81 -263 -237z m357 -1585 l0 -723 -85 0 -85 1 0
723 0 722 85 0 85 0 0 -723z m-35 -912 l0 -50 -55 0 -55 0 -3 39 c-5 61 1 67
60 64 l53 -3 0 -50z"/>
</g>
</svg>
