<?xml version="1.0" standalone="no"?>
<!DOCTYPE svg PUBLIC "-//W3C//DTD SVG 20010904//EN"
 "http://www.w3.org/TR/2001/REC-SVG-20010904/DTD/svg10.dtd">
<svg version="1.0" xmlns="http://www.w3.org/2000/svg"
 width="468pt" height="378pt" viewBox="0 0 468 378"
 preserveAspectRatio="xMidYMid meet">
<metadata>
Created by potrace 1.8, written by Peter Selinger 2001-2007
</metadata>
<g transform="translate(0,378) scale(0.158644,-0.158644)"
fill="#000000" stroke="none">
<path d="M1135 2373 c-34 -9 -63 -33 -79 -68 -12 -26 -16 -67 -16 -184 l0
-150 -462 -3 c-461 -3 -463 -3 -499 -26 -73 -45 -69 9 -69 -957 0 -966 -4
-912 69 -957 l36 -23 1340 -3 c1000 -2 1351 0 1383 9 50 14 98 64 107 111 3
18 4 419 3 890 -3 847 -3 857 -24 884 -11 15 -33 37 -48 48 -27 20 -41 21
-497 24 l-469 3 0 158 c0 148 -1 160 -23 192 -37 55 -58 58 -412 57 -176 0
-329 -3 -340 -5z m645 -268 l0 -135 -300 0 -300 0 0 135 0 135 300 0 300 0 0
-135z m1030 -1120 l0 -845 -1335 0 -1335 0 0 845 0 845 1335 0 1335 0 0 -845z"/>
<path d="M1361 1646 c-47 -26 -50 -46 -51 -278 l0 -217 -212 -3 c-232 -3 -243
-6 -274 -63 -12 -24 -15 -50 -13 -113 4 -73 7 -84 32 -109 l27 -28 220 -3 220
-3 0 -222 c0 -247 2 -256 66 -283 43 -18 135 -18 179 0 60 25 65 48 65 291 l0
215 215 0 c239 0 261 5 291 62 23 45 17 177 -11 208 -39 45 -71 50 -290 50
l-205 0 0 215 c0 232 -5 256 -51 281 -36 18 -175 18 -208 0z"/>
</g>
</svg>
