<?xml version="1.0" standalone="no"?>
<!DOCTYPE svg PUBLIC "-//W3C//DTD SVG 20010904//EN"
 "http://www.w3.org/TR/2001/REC-SVG-20010904/DTD/svg10.dtd">
<svg version="1.0" xmlns="http://www.w3.org/2000/svg"
 width="468pt" height="472pt" viewBox="0 0 468 472"
 preserveAspectRatio="xMidYMid meet">
<metadata>
Created by potrace 1.8, written by Peter Selinger 2001-2007
</metadata>
<g transform="translate(0,472) scale(0.158644,-0.158644)"
fill="#000000" stroke="none">
<path d="M2776 2938 c-19 -18 -440 -621 -935 -1340 -496 -719 -909 -1315 -919
-1326 -17 -19 -26 -13 -397 254 -340 245 -384 274 -418 274 -82 0 -129 -102
-74 -161 12 -13 212 -161 445 -328 449 -321 458 -326 512 -288 32 22 1953
2808 1958 2840 6 36 -12 69 -48 90 -45 27 -85 22 -124 -15z"/>
</g>
</svg>
