<?xml version="1.0" standalone="no"?>
<!DOCTYPE svg PUBLIC "-//W3C//DTD SVG 20010904//EN"
 "http://www.w3.org/TR/2001/REC-SVG-20010904/DTD/svg10.dtd">
<svg version="1.0" xmlns="http://www.w3.org/2000/svg"
 width="468pt" height="470pt" viewBox="0 0 468 470"
 preserveAspectRatio="xMidYMid meet">
<metadata>
Created by potrace 1.8, written by Peter Selinger 2001-2007
</metadata>
<g transform="translate(0,470) scale(0.158108,-0.158108)"
fill="#000000" stroke="none">
<path d="M75 2941 c-16 -10 -39 -28 -50 -41 -20 -22 -20 -36 -20 -1415 l0
-1393 25 -27 c55 -59 -38 -55 1445 -55 1483 0 1390 -4 1445 55 l25 27 0 1394
0 1394 -38 37 -37 38 -1383 3 c-1332 2 -1383 1 -1412 -17z m2743 -1453 l-3
-1343 -1340 0 -1340 0 -3 1330 c-1 732 0 1336 3 1343 3 9 282 12 1345 12
l1340 0 -2 -1342z"/>
<path d="M589 2417 c-19 -13 -39 -38 -46 -57 -15 -45 -18 -1676 -3 -1731 6
-19 22 -46 36 -60 l26 -24 885 0 885 0 29 33 29 32 0 878 c0 964 4 904 -60
937 -25 13 -145 15 -888 15 l-859 0 -34 -23z m785 -142 c22 -22 33 -25 101
-25 68 0 79 3 101 25 25 25 25 25 216 25 l192 0 158 -157 158 -157 0 -490 0
-491 -167 -167 -168 -168 -187 0 c-137 0 -188 3 -188 12 0 6 -7 20 -17 30 -13
15 -31 18 -101 18 -87 0 -122 -13 -122 -47 0 -10 -35 -13 -172 -13 l-173 0
-167 167 -168 168 0 480 0 480 167 167 168 168 172 0 c170 0 172 0 197 -25z"/>
<path d="M954 1589 c-16 -18 -19 -37 -19 -111 0 -118 10 -128 132 -128 76 0
86 2 108 25 22 21 25 33 25 100 0 73 -10 112 -34 127 -6 4 -52 8 -102 8 -80 0
-93 -3 -110 -21z"/>
<path d="M1780 1590 c-17 -17 -20 -33 -20 -108 0 -80 2 -91 23 -110 20 -19 35
-22 110 -22 120 0 127 8 127 133 0 123 -4 127 -128 127 -79 0 -95 -3 -112 -20z"/>
</g>
</svg>
