<?xml version="1.0" standalone="no"?>
<!DOCTYPE svg PUBLIC "-//W3C//DTD SVG 20010904//EN"
 "http://www.w3.org/TR/2001/REC-SVG-20010904/DTD/svg10.dtd">
<svg version="1.0" xmlns="http://www.w3.org/2000/svg"
 width="468pt" height="470pt" viewBox="0 0 468 470"
 preserveAspectRatio="xMidYMid meet">
<metadata>
Created by potrace 1.8, written by Peter Selinger 2001-2007
</metadata>
<g transform="translate(0,470) scale(0.158108,-0.158108)"
fill="#000000" stroke="none">
<path d="M2425 2961 c-304 -6 -319 -9 -364 -66 -43 -55 -46 -85 -46 -410 l0
-310 25 -50 c18 -37 37 -57 70 -75 45 -25 46 -25 355 -28 356 -4 375 -1 434
63 58 63 63 101 59 435 -4 311 -6 326 -64 384 -61 61 -89 64 -469 57z m345
-100 c28 -6 53 -19 67 -36 23 -26 23 -28 23 -325 0 -322 -3 -341 -51 -365 -42
-22 -605 -23 -647 -1 -51 26 -53 46 -50 369 3 282 4 297 24 324 11 15 32 31
45 34 35 10 537 10 589 0z"/>
<path d="M2461 2774 c-20 -15 -21 -22 -21 -283 0 -282 1 -291 46 -291 52 0 54
11 54 289 0 265 -2 280 -41 294 -9 3 -26 -1 -38 -9z"/>
<path d="M62 1953 c-65 -32 -62 18 -62 -962 0 -554 4 -899 10 -915 5 -14 24
-35 42 -46 32 -20 51 -20 928 -20 870 0 896 1 927 20 21 12 36 32 43 57 8 27
10 300 8 925 l-3 888 -33 32 -32 33 -898 2 c-813 2 -900 1 -930 -14z m1758
-968 l0 -845 -845 0 -845 0 0 845 0 845 845 0 845 0 0 -845z"/>
<path d="M404 1620 c-55 -22 -54 -7 -54 -628 0 -374 4 -580 10 -593 27 -49 31
-49 620 -49 587 0 604 1 629 48 8 14 11 203 11 596 l0 575 -24 28 -24 28 -574
2 c-315 1 -583 -2 -594 -7z m500 -145 c27 -20 129 -20 146 0 10 12 38 15 129
15 l116 0 97 -97 98 -98 0 -300 0 -300 -102 -102 -103 -103 -100 0 c-82 0
-108 4 -140 21 -46 23 -126 21 -155 -6 -12 -11 -41 -15 -116 -15 l-99 0 -97
97 -98 98 0 305 0 305 97 97 98 98 105 0 c76 -1 110 -5 124 -15z"/>
<path d="M650 1088 c-37 -20 -51 -56 -47 -115 5 -78 23 -93 112 -93 94 0 105
11 105 107 0 57 -4 73 -20 88 -26 23 -115 31 -150 13z"/>
<path d="M1183 1090 c-32 -13 -43 -41 -43 -109 0 -85 17 -101 109 -101 63 0
71 2 90 26 24 30 29 106 10 148 -19 40 -108 59 -166 36z"/>
</g>
</svg>
