<?xml version="1.0" standalone="no"?>
<!DOCTYPE svg PUBLIC "-//W3C//DTD SVG 20010904//EN"
 "http://www.w3.org/TR/2001/REC-SVG-20010904/DTD/svg10.dtd">
<svg version="1.0" xmlns="http://www.w3.org/2000/svg"
 width="468pt" height="409pt" viewBox="0 0 468 409"
 preserveAspectRatio="xMidYMid meet">
<metadata>
Created by potrace 1.8, written by Peter Selinger 2001-2007
</metadata>
<g transform="translate(0,409) scale(0.157576,-0.157576)"
fill="#000000" stroke="none">
<path d="M1430 2575 c-18 -9 -231 -370 -719 -1217 -382 -662 -699 -1216 -705
-1231 -9 -23 -7 -35 9 -65 11 -20 31 -42 45 -49 20 -10 319 -13 1423 -13 1287
0 1401 1 1427 17 32 19 50 51 50 92 0 33 -1377 2424 -1416 2459 -29 25 -76 28
-114 7z m655 -1332 l594 -1028 -1191 -3 c-655 -1 -1193 0 -1196 2 -3 4 1158
2024 1181 2054 5 7 12 10 14 8 3 -2 272 -467 598 -1033z"/>
<path d="M1433 1880 c-52 -21 -53 -34 -53 -510 0 -470 1 -484 49 -510 26 -13
87 -13 113 1 45 24 48 51 48 507 0 288 -4 439 -11 461 -18 51 -86 75 -146 51z"/>
<path d="M1450 656 c-46 -15 -70 -62 -70 -139 0 -99 32 -147 101 -149 69 -2
109 51 109 147 0 86 -25 128 -90 148 -8 2 -31 -1 -50 -7z"/>
</g>
</svg>
