<?xml version="1.0" standalone="no"?>
<!DOCTYPE svg PUBLIC "-//W3C//DTD SVG 20010904//EN"
 "http://www.w3.org/TR/2001/REC-SVG-20010904/DTD/svg10.dtd">
<svg version="1.0" xmlns="http://www.w3.org/2000/svg"
 width="468pt" height="475pt" viewBox="0 0 468 475"
 preserveAspectRatio="xMidYMid meet">
<metadata>
Created by potrace 1.8, written by Peter Selinger 2001-2007
</metadata>
<g transform="translate(0,475) scale(0.159727,-0.159727)"
fill="#000000" stroke="none">
<path d="M919 2931 c-29 -29 -29 -30 -29 -150 0 -72 5 -131 12 -146 15 -34 56
-55 106 -55 37 0 40 -2 46 -32 20 -104 123 -232 228 -281 31 -15 88 -32 127
-39 198 -34 393 92 457 295 l18 57 44 0 c37 0 50 6 78 34 l34 34 0 116 c0 124
-11 165 -49 186 -13 6 -199 10 -531 10 l-512 0 -29 -29z m991 -161 l0 -60
-445 0 -445 0 0 60 0 60 445 0 445 0 0 -60z m-656 -233 c9 -59 50 -144 87
-178 l32 -30 -28 11 c-70 27 -132 87 -174 167 -32 64 -29 73 28 73 l49 0 6
-43z m186 -72 c0 -105 -1 -114 -17 -108 -61 22 -105 85 -122 176 l-8 47 73 0
74 0 0 -115z m186 73 c-10 -66 -52 -144 -90 -167 -18 -12 -36 -21 -40 -21 -3
0 -6 52 -6 115 l0 115 71 0 72 0 -7 -42z m154 30 c-1 -52 -78 -154 -149 -200
-57 -35 -67 -36 -34 0 35 37 63 101 70 162 l6 50 53 0 c37 0 54 -4 54 -12z"/>
<path d="M555 1390 c-297 -412 -541 -758 -543 -768 -2 -11 22 -40 67 -80 353
-316 774 -495 1253 -534 539 -43 1119 162 1529 541 l73 67 -24 35 c-186 262
-1095 1485 -1106 1487 -8 2 -31 -11 -51 -28 -52 -46 -143 -87 -226 -100 -124
-22 -266 16 -363 95 -23 19 -48 35 -56 35 -7 0 -256 -338 -553 -750z m723 603
c160 -59 362 -30 484 67 l36 29 536 -728 c295 -401 536 -734 536 -739 0 -6
-44 -47 -97 -92 -376 -314 -823 -479 -1303 -480 -169 0 -271 10 -424 41 -325
67 -696 259 -936 483 -30 28 -48 52 -43 59 3 7 240 337 526 734 l519 721 50
-35 c27 -20 80 -47 116 -60z"/>
</g>
</svg>
