<?xml version="1.0" standalone="no"?>
<!DOCTYPE svg PUBLIC "-//W3C//DTD SVG 20010904//EN"
 "http://www.w3.org/TR/2001/REC-SVG-20010904/DTD/svg10.dtd">
<svg version="1.0" xmlns="http://www.w3.org/2000/svg"
 width="468pt" height="465pt" viewBox="0 0 468 465"
 preserveAspectRatio="xMidYMid meet">
<metadata>
Created by potrace 1.8, written by Peter Selinger 2001-2007
</metadata>
<g transform="translate(0,465) scale(0.157576,-0.157576)"
fill="#000000" stroke="none">
<path d="M1420 2930 c-19 -19 -20 -33 -20 -200 0 -167 1 -181 20 -200 11 -11
33 -20 50 -20 17 0 39 9 50 20 19 19 20 33 20 200 0 167 -1 181 -20 200 -11
11 -33 20 -50 20 -17 0 -39 -9 -50 -20z"/>
<path d="M737 2749 c-29 -17 -39 -56 -23 -87 8 -15 66 -78 129 -139 97 -96
119 -113 145 -113 39 0 72 31 72 67 0 21 -27 54 -128 155 -131 131 -150 143
-195 117z"/>
<path d="M2008 2632 c-101 -101 -128 -134 -128 -155 0 -36 33 -67 72 -67 26 0
48 17 145 113 63 61 121 124 129 139 25 47 -10 98 -67 98 -16 0 -62 -39 -151
-128z"/>
<path d="M1266 2354 c-33 -10 -64 -31 -97 -64 -70 -70 -82 -119 -77 -318 3
-154 4 -158 34 -212 38 -68 102 -114 181 -130 34 -7 113 -11 198 -8 134 3 145
5 201 33 64 33 115 95 134 163 16 60 13 310 -6 371 -21 73 -92 144 -165 165
-71 21 -333 21 -403 0z m410 -158 l34 -34 0 -156 c0 -239 -7 -246 -240 -246
-233 0 -240 7 -240 246 l0 156 34 34 34 34 172 0 172 0 34 -34z"/>
<path d="M560 2061 c-47 -13 -59 -72 -22 -113 13 -16 36 -18 198 -18 193 0
204 2 219 50 9 28 -16 73 -45 81 -33 9 -318 9 -350 0z"/>
<path d="M2030 2061 c-29 -8 -54 -53 -45 -81 15 -48 26 -50 219 -50 171 0 184
1 201 20 23 25 24 76 1 98 -14 14 -41 17 -184 19 -92 1 -178 -1 -192 -6z"/>
<path d="M970 1583 c-24 -8 -251 -235 -261 -261 -12 -31 13 -80 47 -88 38 -10
61 7 188 136 87 87 116 123 116 142 0 45 -51 85 -90 71z"/>
<path d="M1923 1580 c-25 -10 -43 -39 -43 -71 0 -23 210 -245 255 -269 52 -28
117 28 96 82 -12 30 -240 254 -266 261 -11 3 -30 2 -42 -3z"/>
<path d="M1420 1460 c-18 -18 -20 -33 -20 -195 0 -173 0 -176 25 -200 31 -32
59 -32 90 0 25 24 25 27 25 200 0 162 -2 177 -20 195 -11 11 -33 20 -50 20
-17 0 -39 -9 -50 -20z"/>
<path d="M59 655 c-48 -26 -51 -50 -50 -318 1 -136 6 -258 10 -270 5 -12 19
-31 31 -42 22 -20 36 -20 1435 -20 l1413 0 26 24 c42 40 46 76 39 341 l-6 245
-28 27 -27 28 -1409 0 c-1183 -1 -1412 -3 -1434 -15z m2842 -54 c18 -21 19
-42 19 -265 0 -202 -3 -245 -16 -264 l-15 -22 -1403 0 c-1293 0 -1405 1 -1417
17 -11 12 -15 71 -17 259 -3 256 0 277 41 294 13 5 620 8 1405 7 l1384 -2 19
-24z"/>
<path d="M156 549 l-26 -20 0 -189 c0 -168 2 -190 18 -211 26 -31 78 -31 104
0 16 21 18 43 18 208 0 182 0 184 -25 208 -30 30 -54 31 -89 4z"/>
<path d="M352 554 c-21 -15 -22 -20 -22 -212 0 -108 4 -202 8 -209 20 -32 94
-32 114 0 4 7 8 101 8 209 0 192 -1 197 -22 212 -12 9 -32 16 -43 16 -11 0
-31 -7 -43 -16z"/>
<path d="M545 545 c-25 -24 -25 -26 -25 -208 0 -165 2 -187 18 -208 26 -31 78
-31 104 0 16 21 18 43 18 210 0 102 -4 191 -8 197 -10 15 -47 34 -67 34 -9 0
-27 -11 -40 -25z"/>
<path d="M740 550 c-19 -19 -20 -33 -20 -213 0 -181 1 -195 20 -212 24 -22 77
-22 99 0 14 13 16 45 16 211 0 194 0 196 -24 215 -30 25 -66 24 -91 -1z"/>
<path d="M939 551 c-24 -19 -24 -21 -24 -215 0 -166 2 -198 16 -211 22 -22 75
-22 99 0 19 17 20 31 20 212 0 180 -1 194 -20 213 -25 25 -61 26 -91 1z"/>
<path d="M1136 549 l-26 -20 0 -189 c0 -168 2 -190 18 -211 26 -31 78 -31 104
0 16 21 18 43 18 208 0 182 0 184 -25 208 -30 30 -54 31 -89 4z"/>
<path d="M1332 554 c-21 -15 -22 -20 -22 -212 0 -108 4 -202 8 -209 20 -32 94
-32 114 0 4 7 8 101 8 209 0 192 -1 197 -22 212 -12 9 -32 16 -43 16 -11 0
-31 -7 -43 -16z"/>
<path d="M1525 545 c-25 -24 -25 -26 -25 -208 0 -165 2 -187 18 -208 26 -31
78 -31 104 0 16 21 18 43 18 211 l0 189 -26 20 c-35 27 -59 26 -89 -4z"/>
<path d="M1720 550 c-19 -19 -20 -33 -20 -213 0 -181 1 -195 20 -212 24 -22
77 -22 99 0 14 13 16 45 16 211 0 194 0 196 -24 215 -30 25 -66 24 -91 -1z"/>
</g>
</svg>
