<?xml version="1.0" standalone="no"?>
<!DOCTYPE svg PUBLIC "-//W3C//DTD SVG 20010904//EN"
 "http://www.w3.org/TR/2001/REC-SVG-20010904/DTD/svg10.dtd">
<svg version="1.0" xmlns="http://www.w3.org/2000/svg"
 width="389pt" height="648pt" viewBox="0 0 389 648"
 preserveAspectRatio="xMidYMid meet">
<metadata>
Created by potrace 1.8, written by Peter Selinger 2001-2007
</metadata>
<g transform="translate(0,648) scale(0.219661,-0.219661)"
fill="#000000" stroke="none">
<path d="M806 2891 c-263 -54 -280 -59 -304 -86 -22 -26 -24 -35 -18 -89 3
-34 9 -75 12 -91 l6 -31 -222 -46 c-254 -53 -270 -61 -270 -134 0 -50 35 -99
77 -107 16 -3 365 66 825 162 877 184 848 176 848 248 0 41 -23 89 -49 103
-32 17 -79 12 -276 -30 -104 -22 -192 -36 -196 -32 -3 4 -11 34 -18 66 -13 70
-32 103 -67 116 -37 14 -43 13 -348 -49z m313 -103 c7 -28 8 -55 4 -59 -5 -3
-120 -30 -257 -58 -188 -39 -251 -49 -257 -40 -8 13 -23 99 -17 103 3 3 483
102 505 105 6 0 16 -22 22 -51z"/>
<path d="M112 2113 c-18 -9 -45 -32 -60 -51 -26 -35 -27 -39 -26 -176 1 -198
112 -1655 135 -1769 15 -73 47 -103 121 -112 29 -3 322 -5 650 -3 l596 3 26
24 c39 36 55 103 66 261 6 80 12 165 15 190 15 129 105 1374 105 1448 0 76
-17 125 -57 164 l-34 33 -752 2 c-681 3 -755 1 -785 -14z m1424 -245 c-4 -35
-22 -283 -41 -553 -19 -269 -46 -621 -60 -781 -14 -161 -25 -299 -25 -308 0
-14 -50 -16 -530 -16 -446 0 -530 2 -530 14 0 8 -13 173 -30 367 -16 195 -43
548 -59 784 -17 237 -33 458 -37 493 l-6 62 662 0 662 0 -6 -62z"/>
<path d="M435 1821 c-50 -22 -59 -45 -57 -154 8 -372 44 -1301 52 -1321 22
-59 120 -77 165 -31 23 22 25 32 25 107 0 183 -43 1324 -51 1345 -16 42 -91
72 -134 54z"/>
<path d="M833 1815 c-17 -7 -36 -23 -42 -34 -8 -14 -11 -229 -9 -732 l3 -711
28 -24 c31 -26 92 -33 128 -13 46 24 47 30 42 758 -3 464 -8 695 -15 715 -7
17 -24 34 -44 42 -41 17 -50 17 -91 -1z"/>
<path d="M1243 1815 c-17 -7 -37 -24 -44 -37 -15 -28 -61 -1400 -48 -1434 21
-57 120 -74 164 -30 13 13 26 35 29 48 3 12 15 330 26 705 23 757 25 729 -41
752 -40 14 -47 13 -86 -4z"/>
</g>
</svg>
