<?xml version="1.0" standalone="no"?>
<!DOCTYPE svg PUBLIC "-//W3C//DTD SVG 20010904//EN"
 "http://www.w3.org/TR/2001/REC-SVG-20010904/DTD/svg10.dtd">
<svg version="1.0" xmlns="http://www.w3.org/2000/svg"
 width="468pt" height="309pt" viewBox="0 0 468 309"
 preserveAspectRatio="xMidYMid meet">
<metadata>
Created by potrace 1.8, written by Peter Selinger 2001-2007
</metadata>
<g transform="translate(0,309) scale(0.158108,-0.158108)"
fill="#000000" stroke="none">
<path d="M95 1938 c-43 -15 -62 -35 -80 -82 -14 -36 -15 -141 -13 -901 l3
-860 24 -34 c46 -65 -43 -61 1451 -61 1478 0 1385 -4 1440 55 l25 27 3 882 2
883 -23 34 c-12 19 -38 42 -57 51 -33 17 -119 18 -1390 17 -920 0 -1365 -4
-1385 -11z m2499 -147 c-10 -10 -1093 -671 -1110 -678 -10 -3 -1101 652 -1128
678 -6 5 458 9 1119 9 676 0 1125 -4 1119 -9z m-1685 -500 c299 -182 554 -331
567 -331 12 0 317 179 680 400 361 220 658 400 660 400 2 0 3 -366 2 -812 l-3
-813 -1337 -3 -1338 -2 0 815 0 815 113 -69 c61 -38 357 -218 656 -400z"/>
</g>
</svg>
