<?xml version="1.0" standalone="no"?>
<!DOCTYPE svg PUBLIC "-//W3C//DTD SVG 20010904//EN"
 "http://www.w3.org/TR/2001/REC-SVG-20010904/DTD/svg10.dtd">
<svg version="1.0" xmlns="http://www.w3.org/2000/svg"
 width="468pt" height="470pt" viewBox="0 0 468 470"
 preserveAspectRatio="xMidYMid meet">
<metadata>
Created by potrace 1.8, written by Peter Selinger 2001-2007
</metadata>
<g transform="translate(0,470) scale(0.159184,-0.159184)"
fill="#000000" stroke="none">
<path d="M1809 2931 c-22 -17 -24 -29 -27 -114 l-4 -95 -129 -4 c-118 -3 -130
-5 -151 -26 l-23 -23 0 -575 0 -576 28 -24 c26 -23 35 -24 152 -24 l123 0 4
-89 c4 -102 21 -134 69 -129 35 4 1066 790 1082 825 9 20 8 30 -3 51 -20 35
-1049 821 -1076 822 -12 0 -32 -9 -45 -19z m539 -515 c221 -169 402 -311 402
-316 0 -6 -684 -536 -812 -628 -17 -13 -18 12 -18 629 0 512 3 639 13 632 6
-6 193 -148 415 -317z m-568 -321 l0 -485 -90 0 -90 0 0 485 0 485 90 0 90 0
0 -485z"/>
<path d="M27 1462 c-16 -17 -17 -81 -17 -720 0 -689 0 -702 20 -722 20 -20 33
-20 1444 -20 l1425 0 21 27 c25 32 20 69 -12 96 -19 16 -100 17 -1392 17
l-1371 0 3 216 3 216 393 194 c217 107 399 194 405 194 6 0 101 -56 212 -125
241 -150 253 -157 276 -148 10 3 60 33 112 66 51 32 97 55 101 50 5 -4 31 -68
59 -142 27 -74 57 -141 65 -149 32 -32 61 -16 348 197 l287 211 232 -56 c251
-59 268 -60 290 -10 16 35 4 72 -28 85 -37 14 -493 123 -515 123 -10 0 -133
-86 -275 -191 -142 -105 -260 -191 -263 -191 -3 0 -27 61 -54 135 -48 133 -75
175 -111 175 -10 0 -71 -34 -136 -75 -65 -41 -123 -75 -128 -75 -5 0 -106 60
-223 133 -118 74 -222 136 -231 140 -10 4 -165 -67 -411 -189 -218 -106 -398
-194 -400 -194 -3 0 -7 159 -8 354 -3 332 -4 355 -22 375 -24 26 -77 28 -99 3z"/>
</g>
</svg>
