<?xml version="1.0" standalone="no"?>
<!DOCTYPE svg PUBLIC "-//W3C//DTD SVG 20010904//EN"
 "http://www.w3.org/TR/2001/REC-SVG-20010904/DTD/svg10.dtd">
<svg version="1.0" xmlns="http://www.w3.org/2000/svg"
 width="468pt" height="470pt" viewBox="0 0 468 470"
 preserveAspectRatio="xMidYMid meet">
<metadata>
Created by potrace 1.8, written by Peter Selinger 2001-2007
</metadata>
<g transform="translate(0,470) scale(0.158108,-0.158108)"
fill="#000000" stroke="none">
<path d="M75 2941 c-16 -10 -39 -28 -50 -41 -20 -22 -20 -36 -20 -1415 l0
-1393 25 -27 c55 -59 -38 -55 1445 -55 1483 0 1390 -4 1445 55 l25 27 0 1394
0 1394 -38 37 -37 38 -1383 3 c-1332 2 -1383 1 -1412 -17z m2743 -1453 l-3
-1343 -1340 0 -1340 0 -3 1330 c-1 732 0 1336 3 1343 3 9 282 12 1345 12
l1340 0 -2 -1342z"/>
<path d="M803 2075 c-58 -30 -248 -228 -466 -488 -80 -96 -79 -104 31 -230
166 -191 344 -378 399 -420 l56 -42 626 -3 c455 -2 637 0 666 9 31 9 72 43
185 158 172 172 354 377 364 408 10 33 -2 51 -163 238 -207 241 -338 370 -387
384 -26 7 -241 11 -650 11 l-610 0 -51 -25z m1333 -172 c60 -58 283 -307 342
-381 l31 -39 -106 -119 c-59 -65 -155 -167 -214 -226 l-107 -108 -610 0 -610
0 -104 102 c-113 110 -318 342 -318 358 0 17 314 369 395 442 l30 27 606 1
605 0 60 -57z"/>
<path d="M924 1607 c-28 -24 -29 -29 -29 -112 0 -83 1 -88 29 -112 27 -23 36
-25 114 -21 111 4 122 16 122 133 0 117 -11 129 -122 133 -78 4 -87 2 -114
-21z"/>
<path d="M1843 1620 c-34 -14 -43 -42 -43 -130 0 -73 3 -83 25 -105 21 -22 33
-25 103 -25 65 0 84 4 106 21 25 19 26 25 26 114 0 89 -1 95 -26 114 -22 17
-40 21 -98 20 -39 0 -81 -4 -93 -9z"/>
<path d="M1369 1351 c-21 -17 -24 -29 -27 -103 -4 -78 -2 -87 21 -113 21 -25
33 -29 90 -33 131 -8 162 22 155 154 -5 102 -18 114 -133 114 -67 0 -87 -4
-106 -19z"/>
</g>
</svg>
