<?xml version="1.0" standalone="no"?>
<!DOCTYPE svg PUBLIC "-//W3C//DTD SVG 20010904//EN"
 "http://www.w3.org/TR/2001/REC-SVG-20010904/DTD/svg10.dtd">
<svg version="1.0" xmlns="http://www.w3.org/2000/svg"
 width="468pt" height="465pt" viewBox="0 0 468 465"
 preserveAspectRatio="xMidYMid meet">
<metadata>
Created by potrace 1.8, written by Peter Selinger 2001-2007
</metadata>
<g transform="translate(0,465) scale(0.157576,-0.157576)"
fill="#000000" stroke="none">
<path d="M2300 2939 c-30 -12 -739 -717 -777 -772 -46 -66 -39 -86 65 -190
l92 -93 -56 -54 c-31 -30 -60 -65 -65 -77 -11 -28 3 -68 29 -82 10 -5 312 -49
670 -97 619 -82 653 -86 677 -70 18 12 25 25 25 49 0 18 -38 318 -85 666 -77
577 -86 636 -106 657 -37 39 -64 31 -140 -43 l-70 -67 -87 87 c-91 91 -123
107 -172 86z m103 -207 l57 -57 -345 -345 -345 -345 -62 63 -63 62 340 340
c187 187 345 340 350 340 6 0 36 -26 68 -58z m343 -569 c37 -282 65 -515 62
-518 -5 -6 -1018 125 -1028 132 -2 2 198 206 445 453 247 247 450 448 451 447
1 -1 32 -233 70 -514z"/>
<path d="M27 1462 c-16 -17 -17 -81 -17 -720 0 -689 0 -702 20 -722 20 -20 33
-20 1444 -20 l1425 0 21 27 c25 32 20 69 -12 96 -19 16 -100 17 -1389 17
l-1369 0 0 216 0 215 394 195 c216 107 399 194 405 194 6 0 101 -56 212 -125
241 -150 253 -157 276 -148 10 3 60 33 112 66 51 32 97 55 101 50 5 -4 31 -68
59 -142 27 -74 57 -141 65 -149 32 -32 61 -16 348 197 l287 211 232 -56 c251
-59 268 -60 290 -10 16 35 4 72 -28 85 -37 14 -493 123 -515 123 -10 0 -133
-86 -275 -191 -142 -105 -260 -191 -263 -191 -3 0 -27 61 -54 135 -48 133 -75
175 -111 175 -10 0 -71 -34 -136 -75 -65 -41 -123 -75 -128 -75 -5 0 -106 60
-223 133 -118 74 -222 136 -231 140 -10 4 -165 -67 -411 -189 -218 -106 -398
-194 -400 -194 -3 0 -7 159 -8 354 -3 332 -4 355 -22 375 -24 26 -77 28 -99 3z"/>
</g>
</svg>
