<?xml version="1.0" standalone="no"?>
<!DOCTYPE svg PUBLIC "-//W3C//DTD SVG 20010904//EN"
 "http://www.w3.org/TR/2001/REC-SVG-20010904/DTD/svg10.dtd">
<svg version="1.0" xmlns="http://www.w3.org/2000/svg"
 width="468pt" height="475pt" viewBox="0 0 468 475"
 preserveAspectRatio="xMidYMid meet">
<metadata>
Created by potrace 1.8, written by Peter Selinger 2001-2007
</metadata>
<g transform="translate(0,475) scale(0.159727,-0.159727)"
fill="#000000" stroke="none">
<path d="M919 2931 c-29 -29 -29 -30 -29 -150 0 -72 5 -131 12 -146 15 -34 56
-55 106 -55 37 0 40 -2 46 -32 20 -104 123 -232 228 -281 31 -15 88 -32 127
-39 198 -34 393 92 457 295 l18 57 44 0 c37 0 50 6 78 34 l34 34 0 116 c0 124
-11 165 -49 186 -13 6 -199 10 -531 10 l-512 0 -29 -29z m991 -161 l0 -60
-445 0 -445 0 0 60 0 60 445 0 445 0 0 -60z m-656 -233 c9 -59 50 -144 87
-178 l32 -30 -28 11 c-70 27 -132 87 -174 167 -32 64 -29 73 28 73 l49 0 6
-43z m186 -72 c0 -105 -1 -114 -17 -108 -61 22 -105 85 -122 176 l-8 47 73 0
74 0 0 -115z m186 73 c-10 -66 -52 -144 -90 -167 -18 -12 -36 -21 -40 -21 -3
0 -6 52 -6 115 l0 115 71 0 72 0 -7 -42z m154 30 c-1 -52 -78 -154 -149 -200
-57 -35 -67 -36 -34 0 35 37 63 101 70 162 l6 50 53 0 c37 0 54 -4 54 -12z"/>
<path d="M555 1390 c-297 -412 -541 -758 -543 -768 -5 -32 221 -218 391 -321
360 -217 813 -326 1216 -292 80 6 162 15 181 20 19 4 49 4 65 0 81 -22 207
-29 297 -18 296 35 551 211 674 466 21 43 51 92 67 110 25 27 28 35 17 48 -10
12 -10 30 0 96 30 192 -10 394 -113 573 -43 74 -162 206 -236 260 -99 73 -256
136 -373 151 l-56 7 -163 209 c-90 115 -170 209 -178 209 -7 0 -29 -14 -49
-31 -51 -45 -143 -86 -225 -99 -124 -22 -266 16 -363 95 -23 19 -48 35 -56 35
-7 0 -256 -338 -553 -750z m723 603 c160 -59 362 -30 484 67 l37 30 140 -179
c78 -99 141 -181 141 -184 0 -2 -39 -7 -87 -10 -94 -6 -222 -41 -308 -85 -150
-75 -294 -216 -368 -359 -124 -240 -139 -493 -42 -730 75 -187 237 -364 403
-443 29 -14 52 -28 52 -31 0 -20 -359 -26 -500 -8 -129 15 -271 47 -389 86
-133 43 -358 152 -476 230 -165 110 -311 235 -298 256 3 7 240 337 526 734
l519 721 50 -35 c27 -20 80 -47 116 -60z m1000 -506 c41 -14 98 -40 128 -59
l54 -32 -457 -458 c-252 -252 -461 -458 -464 -458 -14 0 -88 158 -104 220 -26
98 -17 291 17 382 84 223 251 370 483 424 93 21 253 13 343 -19z m377 -328
c50 -97 68 -178 68 -294 0 -183 -62 -335 -193 -466 -124 -125 -279 -189 -455
-189 -133 0 -243 31 -345 95 l-43 27 459 459 c314 314 461 454 467 446 4 -7
23 -42 42 -78z"/>
</g>
</svg>
