<?xml version="1.0" standalone="no"?>
<!DOCTYPE svg PUBLIC "-//W3C//DTD SVG 20010904//EN"
 "http://www.w3.org/TR/2001/REC-SVG-20010904/DTD/svg10.dtd">
<svg version="1.0" xmlns="http://www.w3.org/2000/svg"
 width="468pt" height="190pt" viewBox="0 0 468 190"
 preserveAspectRatio="xMidYMid meet">
<metadata>
Created by potrace 1.8, written by Peter Selinger 2001-2007
</metadata>
<g transform="translate(0,190) scale(0.158108,-0.158108)"
fill="#000000" stroke="none">
<path d="M26 1178 c-22 -31 -20 -71 5 -94 21 -18 59 -19 1456 -19 l1435 0 19
24 c25 30 24 66 -1 91 -20 20 -33 20 -1459 20 l-1440 0 -15 -22z"/>
<path d="M940 870 c-212 -8 -344 -19 -560 -46 -240 -30 -303 -47 -345 -94 -19
-21 -20 -36 -20 -337 l0 -315 32 -28 c53 -48 88 -52 421 -48 299 3 308 4 355
27 59 29 89 71 123 176 15 44 33 87 41 95 12 13 80 15 473 18 253 1 474 -1
492 -6 34 -9 38 -15 83 -144 25 -71 55 -109 110 -137 l49 -26 331 0 c367 0
375 1 415 68 19 30 20 52 20 322 0 270 -1 292 -20 322 -25 41 -57 57 -155 76
-282 56 -583 77 -1150 81 -269 2 -582 1 -695 -4z m1410 -154 c186 -19 368 -44
433 -57 l47 -11 0 -254 0 -254 -304 0 c-167 0 -312 3 -321 6 -19 8 -42 50 -62
118 -31 104 -68 153 -132 175 -45 15 -999 15 -1053 1 -55 -16 -98 -73 -132
-175 -44 -135 -14 -125 -376 -125 l-310 0 0 254 0 255 53 10 c131 27 283 44
657 75 25 2 338 2 695 1 521 -2 681 -5 805 -19z"/>
</g>
</svg>
