<?xml version="1.0" standalone="no"?>
<!DOCTYPE svg PUBLIC "-//W3C//DTD SVG 20010904//EN"
 "http://www.w3.org/TR/2001/REC-SVG-20010904/DTD/svg10.dtd">
<svg version="1.0" xmlns="http://www.w3.org/2000/svg"
 width="468pt" height="465pt" viewBox="0 0 468 465"
 preserveAspectRatio="xMidYMid meet">
<metadata>
Created by potrace 1.8, written by Peter Selinger 2001-2007
</metadata>
<g transform="translate(0,465) scale(0.157047,-0.157047)"
fill="#000000" stroke="none">
<path d="M2405 2890 c-496 -67 -499 -68 -523 -95 -16 -19 -22 -35 -18 -51 4
-13 66 -82 139 -153 l132 -130 -107 -108 c-58 -60 -109 -120 -113 -135 -11
-44 19 -88 144 -211 114 -113 119 -117 161 -117 41 0 47 4 150 105 58 58 110
105 116 105 5 0 63 -54 129 -121 66 -66 128 -125 137 -130 22 -12 64 4 78 31
10 19 140 954 140 1011 0 25 -40 71 -59 68 -3 -1 -231 -32 -506 -69z m369
-466 l-48 -365 -323 323 c-235 234 -318 324 -306 327 80 17 719 95 722 88 2
-5 -18 -173 -45 -373z m-364 -249 c0 -13 -172 -185 -185 -185 -5 0 -56 46
-112 102 l-103 103 97 97 98 98 102 -102 c57 -57 103 -107 103 -113z"/>
<path d="M331 2830 c-139 -60 -264 -116 -278 -125 -28 -19 -53 -71 -53 -112 0
-97 177 -647 315 -978 257 -615 459 -1040 643 -1348 123 -205 179 -267 241
-267 23 0 153 53 463 189 76 34 102 50 118 76 38 61 30 92 -100 392 -67 153
-132 295 -146 315 -47 73 -113 90 -292 78 -56 -4 -65 -2 -75 15 -15 25 -371
842 -381 873 -6 19 5 35 78 104 72 67 88 89 101 131 9 31 13 65 9 87 -12 60
-251 601 -281 632 -22 23 -75 48 -103 48 -3 0 -119 -49 -259 -110z m393 -312
c64 -146 116 -278 116 -292 0 -18 -15 -40 -52 -73 -139 -128 -159 -171 -124
-269 28 -80 370 -860 393 -897 40 -64 90 -80 226 -72 86 5 116 4 129 -7 22
-16 260 -560 250 -570 -8 -7 -446 -198 -456 -198 -19 0 -251 392 -361 610 -57
114 -292 643 -405 915 -136 325 -308 853 -298 918 2 17 48 40 228 118 124 54
228 95 232 91 4 -4 59 -127 122 -274z"/>
<path d="M1711 2019 c-13 -5 -80 -65 -148 -132 -164 -163 -164 -165 13 -347
110 -113 148 -137 198 -120 47 15 286 259 286 291 0 40 -50 107 -162 217 -110
107 -127 115 -187 91z m149 -194 l105 -105 -100 -100 c-55 -55 -107 -100 -115
-100 -8 0 -60 45 -115 100 l-100 100 105 105 c58 58 107 105 110 105 3 0 52
-47 110 -105z"/>
</g>
</svg>
