<?xml version="1.0" encoding="UTF-8" standalone="no"?>
<!-- Created with Inkscape (http://www.inkscape.org/) -->

<svg
   xmlns:dc="http://purl.org/dc/elements/1.1/"
   xmlns:cc="http://creativecommons.org/ns#"
   xmlns:rdf="http://www.w3.org/1999/02/22-rdf-syntax-ns#"
   xmlns:svg="http://www.w3.org/2000/svg"
   xmlns="http://www.w3.org/2000/svg"
   version="1.0"
   width="468pt"
   height="468pt"
   viewBox="0 0 468 468"
   id="svg3007">
  <defs
     id="defs3027" />
  <metadata
     id="metadata3009">
Created by potrace 1.8, written by Peter Selinger 2001-2007
<rdf:RDF>
  <cc:Work
     rdf:about="">
    <dc:format>image/svg+xml</dc:format>
    <dc:type
       rdf:resource="http://purl.org/dc/dcmitype/StillImage" />
    <dc:title></dc:title>
  </cc:Work>
</rdf:RDF>
</metadata>
  <g
     transform="matrix(0.158108,0,0,-0.158108,0,468)"
     id="g3011">
    <g
       transform="matrix(-1,0,0,1,3013.0018,-6.5473606)"
       id="g3146"
       style="fill:#000000">
      <path
         d="m 83.730384,2553.1836 c -12,-6 -26,-18 -31,-27 -11,-18 117.000006,-1009 135.000006,-1042 12,-22 52,-38 75,-30 10,3 74,61 143,129 l 125,123 112,-104 c 106,-99 115,-105 155,-105 41,0 47,5 169,128 80.00001,79 130.00001,138 135.00001,156 11,44 -17,87 -121.00001,188 l -95,92 135.00001,136 c 87,88 135,144 135,157 0,33 -10,52 -34,65 -11,6 -245.00001,41 -519.00001,78 -377,50 -504.000006,64 -519.000006,56 z m 502.000006,-192 c 190,-25 346,-46 347,-48 1,-1 -141,-145 -317,-321 -176,-176 -321,-317 -323,-315 -3,5 -98,716 -97,731 0,3 10,5 23,3 12,-3 177,-25 367,-50 z m 291,-421 c 28,-26 69,-69 91,-95 l 39.00001,-48 -97.00001,-100 c -53,-55 -104,-100 -113,-100 -9,0 -57,41 -106,90 l -90,90 105,105 c 58,58 108,105 113,105 4,0 31,-21 58,-47 z"
         id="path3013"
         style="fill:#000000" />
      <path
         d="m 1184.9304,1645.1836 c -62,-45 -214.00002,-208 -230.00002,-247 -14,-33 -13,-39 6,-78 23,-48 221.00002,-239 265.00002,-256 49,-19 85,3 207,128 64,65 119,128 123,141 17,54 -2,86 -120,203 -63,62 -125,118 -137,125 -37,20 -72,15 -114,-16 z m 137,-130 c 35,-32 82,-80 103,-106 l 39,-47 -99,-99 c -54,-54 -106,-99 -114,-99 -8,0 -60,45 -115,100 l -99,99 104,106 c 57,58 106,105 110,105 3,0 35,-26 71,-59 z"
         id="path3017"
         style="fill:#000000" />
    </g>
    <path
       d="M 995,869 C 725,862 417,834 221,800 101,778 67,766 35,730 16,709 15,694 15,395 L 15,81 43,52 C 91,2 125,-2 470,2 l 315,3 47,28 c 55,32 88,82 117,177 35,112 -23,102 536,101 434,-1 491,-3 502,-17 6,-9 23,-53 38,-97 31,-96 61,-139 118,-170 41,-22 49,-22 377,-22 371,0 374,1 417,64 23,33 23,38 23,325 0,274 -1,293 -20,324 -26,42 -68,59 -195,82 -360,65 -986,90 -1750,69 z M 2135,730 c 263,-17 515,-45 668,-76 l 27,-6 0,-254 0,-254 -304,0 c -167,0 -312,3 -321,6 -20,8 -41,48 -65,128 -25,78 -55,124 -100,150 -34,20 -52,21 -525,24 -340,2 -506,0 -542,-8 C 901,425 864,379 826,265 782,130 812,140 450,140 l -310,0 0,254 0,255 53,10 c 116,24 468,62 677,74 145,8 1124,6 1265,-3 z"
       id="path3023"
       style="fill:#000000" />
    <g
       transform="matrix(-1.127015,0,0,1.1206366,3333.7602,-367.58832)"
       id="g3107"
       style="fill:#000000">
      <path
         d="m 2008.2009,2964.5974 c -21.9256,-0.9829 -44.1327,-10.6286 -61.6647,-28.6773 l -114.1994,-117.534 c -35.0642,-36.0972 -37.3352,-91.7953 -5.1972,-124.88 l 298.6319,-307.3968 -331.0798,-325.1964 c -32.8972,-32.321 -30.4144,-86.7906 5.4783,-122.0546 l 116.8681,-114.7087 c 35.8927,-35.264 91.2753,-37.6892 124.1725,-5.3682 l 325.1802,319.5457 319.421,-328.8693 c 32.1378,-33.0847 86.2989,-30.729 121.3631,5.3682 l 114.0589,117.534 c 35.0641,36.0972 37.4756,91.7953 5.3377,124.88 l -313.8024,323.0774 307.4814,302.1699 c 32.8972,32.321 30.4145,86.7906 -5.4782,122.0547 l -116.7277,114.7087 c -35.8927,35.2639 -91.2753,37.6891 -124.1725,5.3682 l -301.8627,-296.5193 -304.2506,313.1887 c -16.069,16.5424 -37.6322,24.2919 -59.5579,23.3091 z"
         id="rect3069-4"
         style="fill:#000000;fill-opacity:1" />
      <rect
         width="10.2375"
         height="9.5062504"
         rx="93.447189"
         ry="9.5062504"
         x="388.29376"
         y="49.724998"
         transform="matrix(5.0598325,0,0,-5.0598325,0,2960.002)"
         id="rect3125"
         style="fill:#000000;fill-opacity:1" />
    </g>
  </g>
</svg>
