<?xml version="1.0" standalone="no"?>
<!DOCTYPE svg PUBLIC "-//W3C//DTD SVG 20010904//EN"
 "http://www.w3.org/TR/2001/REC-SVG-20010904/DTD/svg10.dtd">
<svg version="1.0" xmlns="http://www.w3.org/2000/svg"
 width="468pt" height="467pt" viewBox="0 0 468 467"
 preserveAspectRatio="xMidYMid meet">
<metadata>
Created by potrace 1.8, written by Peter Selinger 2001-2007
</metadata>
<g transform="translate(0,467) scale(0.158644,-0.158644)"
fill="#000000" stroke="none">
<path d="M2315 2930 c-17 -5 -43 -22 -57 -37 -15 -16 -80 -152 -152 -319 -108
-249 -126 -299 -126 -343 0 -71 26 -117 110 -192 38 -35 72 -71 75 -80 6 -16
-364 -882 -385 -903 -6 -6 -37 -8 -73 -6 -109 8 -182 3 -212 -13 -66 -34 -91
-76 -220 -376 -116 -266 -127 -298 -122 -338 3 -32 13 -54 33 -74 33 -31 525
-249 565 -249 74 0 153 100 334 425 143 255 222 424 447 945 202 468 302 743
384 1055 44 167 43 221 -2 264 -28 27 -488 233 -544 245 -14 2 -39 1 -55 -4z
m270 -230 c125 -55 230 -101 232 -103 7 -8 -66 -273 -122 -447 -66 -203 -130
-365 -283 -720 -224 -519 -329 -739 -473 -990 -86 -150 -181 -300 -191 -300
-10 0 -452 191 -459 199 -8 8 222 535 245 563 17 19 25 20 132 14 100 -7 118
-5 158 12 28 13 54 34 70 59 13 21 109 232 212 468 201 462 213 499 179 566
-10 19 -53 68 -96 109 -50 47 -79 83 -79 96 0 11 50 135 111 275 61 140 115
264 120 277 4 12 10 22 12 22 2 0 106 -45 232 -100z"/>
<path d="M148 2813 c-66 -65 -126 -131 -135 -147 -29 -56 -12 -90 105 -204
123 -120 154 -142 200 -142 29 0 49 15 152 116 110 107 150 160 150 197 0 29
-59 101 -164 197 -100 93 -111 100 -148 100 -39 0 -47 -6 -160 -117z m206 -15
c18 -18 63 -65 100 -104 l67 -72 -102 -101 c-56 -55 -106 -101 -111 -101 -13
0 -208 191 -208 203 0 15 192 207 207 207 7 0 28 -15 47 -32z"/>
<path d="M1180 2375 c-69 -69 -127 -125 -130 -125 -3 0 -50 42 -105 93 -112
105 -130 117 -177 117 -29 0 -48 -15 -159 -127 -139 -141 -153 -166 -123 -225
9 -18 60 -75 113 -126 l96 -92 -137 -136 c-95 -93 -138 -142 -138 -157 0 -33
26 -65 58 -71 15 -4 245 -35 512 -71 476 -64 485 -64 510 -46 14 10 26 27 28
39 5 35 -129 1006 -141 1022 -44 56 -67 45 -207 -95z m-298 -107 c48 -51 88
-95 88 -98 0 -3 -47 -52 -104 -109 l-105 -105 -86 85 c-48 46 -91 92 -96 101
-8 14 9 36 91 118 56 55 106 100 113 100 6 0 51 -42 99 -92z m452 -353 c27
-201 47 -368 45 -370 -4 -3 -617 75 -708 91 l-34 6 319 319 c175 175 321 319
324 319 3 0 28 -164 54 -365z"/>
</g>
</svg>
