<?xml version="1.0" standalone="no"?>
<!DOCTYPE svg PUBLIC "-//W3C//DTD SVG 20010904//EN"
 "http://www.w3.org/TR/2001/REC-SVG-20010904/DTD/svg10.dtd">
<svg version="1.0" xmlns="http://www.w3.org/2000/svg"
 width="468pt" height="467pt" viewBox="0 0 468 467"
 preserveAspectRatio="xMidYMid meet">
<metadata>
Created by potrace 1.8, written by Peter Selinger 2001-2007
</metadata>
<g transform="translate(0,467) scale(0.157576,-0.157576)"
fill="#000000" stroke="none">
<path d="M2381 2924 c-12 -15 -21 -33 -21 -40 0 -7 24 -41 53 -75 205 -241
322 -467 382 -739 26 -117 32 -413 10 -542 -44 -272 -188 -570 -371 -767 -76
-82 -86 -119 -45 -153 42 -33 70 -24 135 48 230 249 383 584 426 928 17 134 8
381 -19 508 -62 289 -192 550 -385 771 -68 77 -81 87 -111 87 -24 0 -39 -7
-54 -26z"/>
<path d="M331 2830 c-139 -60 -264 -116 -278 -125 -28 -19 -53 -71 -53 -112 0
-97 177 -647 315 -978 257 -615 459 -1040 643 -1348 123 -205 179 -267 241
-267 23 0 153 53 463 189 76 34 102 50 118 76 38 61 30 92 -100 392 -67 153
-132 295 -146 315 -47 73 -113 90 -292 78 -56 -4 -65 -2 -75 15 -15 25 -371
842 -381 873 -6 19 5 35 78 104 72 67 88 89 101 131 9 31 13 65 9 87 -12 60
-251 601 -281 632 -22 23 -75 48 -103 48 -3 0 -119 -49 -259 -110z m393 -312
c64 -146 116 -278 116 -292 0 -18 -15 -40 -52 -73 -139 -128 -159 -171 -124
-269 28 -80 370 -860 393 -897 40 -64 90 -80 226 -72 86 5 116 4 129 -7 22
-16 260 -560 250 -570 -8 -7 -446 -198 -456 -198 -19 0 -251 392 -361 610 -57
114 -292 643 -405 915 -136 325 -308 853 -298 918 2 17 48 40 228 118 124 54
228 95 232 91 4 -4 59 -127 122 -274z"/>
<path d="M2095 2705 c-14 -13 -25 -34 -25 -46 0 -12 30 -57 69 -103 200 -237
292 -486 292 -796 1 -312 -102 -579 -314 -818 -52 -58 -59 -90 -27 -122 38
-38 72 -27 140 47 158 168 278 411 326 660 24 120 24 358 1 475 -49 247 -173
494 -335 666 -64 69 -89 76 -127 37z"/>
<path d="M1832 2490 c-19 -8 -42 -45 -42 -69 0 -4 30 -45 66 -91 75 -95 131
-201 166 -310 20 -66 23 -95 23 -235 0 -140 -3 -169 -23 -235 -35 -109 -92
-215 -166 -309 -36 -45 -66 -87 -66 -91 0 -48 60 -91 98 -71 54 29 172 198
222 317 61 147 73 213 73 389 0 132 -3 174 -21 237 -46 168 -130 324 -230 427
-49 52 -60 56 -100 41z"/>
</g>
</svg>
