<?xml version="1.0" standalone="no"?>
<!DOCTYPE svg PUBLIC "-//W3C//DTD SVG 20010904//EN"
 "http://www.w3.org/TR/2001/REC-SVG-20010904/DTD/svg10.dtd">
<svg version="1.0" xmlns="http://www.w3.org/2000/svg"
 width="468pt" height="397pt" viewBox="0 0 468 397"
 preserveAspectRatio="xMidYMid meet">
<metadata>
Created by potrace 1.8, written by Peter Selinger 2001-2007
</metadata>
<g transform="translate(0,397) scale(0.158108,-0.158108)"
fill="#000000" stroke="none">
<path d="M633 2495 c-191 -52 -346 -212 -397 -411 -70 -273 86 -542 374 -646
l65 -23 810 0 c768 0 813 1 865 19 99 34 154 68 226 140 168 168 214 398 121
606 -51 116 -151 219 -262 271 -226 106 -450 68 -620 -105 -208 -212 -221
-525 -29 -744 l46 -52 -352 0 -353 0 40 43 c285 309 132 797 -282 902 -73 18
-183 18 -252 0z m300 -157 c164 -77 270 -272 239 -440 -31 -167 -148 -292
-312 -334 -185 -47 -373 44 -462 223 -31 64 -33 73 -33 178 0 101 2 115 29
170 35 70 114 153 177 186 77 39 120 49 214 46 73 -2 101 -7 148 -29z m1430 0
c31 -15 81 -50 111 -78 172 -162 178 -420 13 -584 -205 -205 -531 -149 -660
113 -30 62 -32 72 -32 176 0 101 2 115 29 170 35 70 114 153 177 186 77 39
120 49 214 46 73 -2 101 -7 148 -29z"/>
<path d="M825 863 c-338 -28 -433 -38 -562 -59 -92 -14 -168 -31 -193 -44 -69
-35 -70 -42 -70 -374 l0 -294 27 -33 c48 -57 61 -59 405 -59 196 0 328 4 353
11 67 19 116 80 156 195 l34 99 497 3 497 2 14 -27 c8 -16 22 -53 31 -83 23
-80 55 -130 104 -165 l44 -30 339 -3 c484 -4 449 -35 449 388 0 383 7 370
-225 409 -346 58 -595 71 -1273 69 -323 -1 -605 -3 -627 -5z m1470 -148 c207
-18 391 -42 465 -58 l55 -12 0 -255 0 -255 -308 0 -309 0 -18 23 c-10 12 -30
58 -45 102 -33 100 -60 140 -110 165 -38 19 -60 20 -550 20 -482 0 -512 -1
-548 -19 -49 -24 -79 -70 -112 -172 -40 -127 -15 -119 -374 -119 l-306 0 0
254 0 255 30 8 c94 25 483 67 730 78 281 13 1204 3 1400 -15z"/>
</g>
</svg>
