<?xml version="1.0" standalone="no"?>
<!DOCTYPE svg PUBLIC "-//W3C//DTD SVG 20010904//EN"
 "http://www.w3.org/TR/2001/REC-SVG-20010904/DTD/svg10.dtd">
<svg version="1.0" xmlns="http://www.w3.org/2000/svg"
 width="468pt" height="468pt" viewBox="0 0 468 468"
 preserveAspectRatio="xMidYMid meet">
<metadata>
Created by potrace 1.8, written by Peter Selinger 2001-2007
</metadata>
<g transform="translate(0,468) scale(0.158108,-0.158108)"
fill="#000000" stroke="none">
<path d="M48 2946 c-12 -6 -26 -18 -31 -27 -11 -18 117 -1009 135 -1042 12
-22 52 -38 75 -30 10 3 74 61 143 129 l125 123 112 -104 c106 -99 115 -105
155 -105 41 0 47 5 169 128 80 79 130 138 135 156 11 44 -17 87 -121 188 l-95
92 135 136 c87 88 135 144 135 157 0 33 -10 52 -34 65 -11 6 -245 41 -519 78
-377 50 -504 64 -519 56z m502 -192 c190 -25 346 -46 347 -48 1 -1 -141 -145
-317 -321 -176 -176 -321 -317 -323 -315 -3 5 -98 716 -97 731 0 3 10 5 23 3
12 -3 177 -25 367 -50z m291 -421 c28 -26 69 -69 91 -95 l39 -48 -97 -100
c-53 -55 -104 -100 -113 -100 -9 0 -57 41 -106 90 l-90 90 105 105 c58 58 108
105 113 105 4 0 31 -21 58 -47z"/>
<path d="M2610 2492 c-39 -18 -76 -52 -169 -153 -89 -96 -101 -113 -101 -145
0 -52 25 -86 143 -196 110 -102 145 -123 186 -113 29 7 245 216 267 257 35 67
14 104 -142 251 -104 99 -141 118 -184 99z m141 -191 c54 -54 99 -104 99 -111
0 -18 -189 -200 -208 -200 -20 0 -202 179 -202 199 0 15 188 211 203 211 5 0
54 -45 108 -99z"/>
<path d="M1164 2001 c-62 -45 -214 -208 -230 -247 -14 -33 -13 -39 6 -78 23
-48 221 -239 265 -256 49 -19 85 3 207 128 64 65 119 128 123 141 17 54 -2 86
-120 203 -63 62 -125 118 -137 125 -37 20 -72 15 -114 -16z m137 -130 c35 -32
82 -80 103 -106 l39 -47 -99 -99 c-54 -54 -106 -99 -114 -99 -8 0 -60 45 -115
100 l-99 99 104 106 c57 58 106 105 110 105 3 0 35 -26 71 -59z"/>
<path d="M2140 2022 c-39 -18 -76 -52 -169 -153 -89 -96 -101 -113 -101 -145
0 -52 25 -86 143 -196 110 -102 145 -123 186 -113 14 4 77 57 139 118 186 183
186 186 25 350 -132 133 -175 160 -223 139z m107 -157 c93 -85 137 -140 126
-159 -4 -8 -52 -56 -105 -106 l-98 -91 -100 97 c-55 53 -100 104 -100 112 0
14 187 212 200 212 3 0 38 -29 77 -65z"/>
<path d="M1660 1549 c-38 -15 -249 -239 -259 -274 -14 -52 7 -85 123 -198 116
-114 161 -143 205 -132 14 4 77 57 139 118 186 183 186 186 25 350 -138 140
-172 160 -233 136z m111 -148 c89 -81 142 -147 132 -165 -4 -8 -52 -56 -105
-106 l-98 -91 -100 97 c-55 53 -100 104 -100 112 0 14 187 212 200 212 3 0 35
-26 71 -59z"/>
<path d="M995 869 c-270 -7 -578 -35 -774 -69 -120 -22 -154 -34 -186 -70 -19
-21 -20 -36 -20 -335 l0 -314 28 -29 c48 -50 82 -54 427 -50 l315 3 47 28 c55
32 88 82 117 177 35 112 -23 102 536 101 434 -1 491 -3 502 -17 6 -9 23 -53
38 -97 31 -96 61 -139 118 -170 41 -22 49 -22 377 -22 371 0 374 1 417 64 23
33 23 38 23 325 0 274 -1 293 -20 324 -26 42 -68 59 -195 82 -360 65 -986 90
-1750 69z m1140 -139 c263 -17 515 -45 668 -76 l27 -6 0 -254 0 -254 -304 0
c-167 0 -312 3 -321 6 -20 8 -41 48 -65 128 -25 78 -55 124 -100 150 -34 20
-52 21 -525 24 -340 2 -506 0 -542 -8 -72 -15 -109 -61 -147 -175 -44 -135
-14 -125 -376 -125 l-310 0 0 254 0 255 53 10 c116 24 468 62 677 74 145 8
1124 6 1265 -3z"/>
</g>
</svg>
