<?xml version="1.0" standalone="no"?>
<!DOCTYPE svg PUBLIC "-//W3C//DTD SVG 20010904//EN"
 "http://www.w3.org/TR/2001/REC-SVG-20010904/DTD/svg10.dtd">
<svg version="1.0" xmlns="http://www.w3.org/2000/svg"
 width="468pt" height="465pt" viewBox="0 0 468 465"
 preserveAspectRatio="xMidYMid meet">
<metadata>
Created by potrace 1.8, written by Peter Selinger 2001-2007
</metadata>
<g transform="translate(0,465) scale(0.157047,-0.157047)"
fill="#000000" stroke="none">
<path d="M2405 2890 c-496 -67 -499 -68 -523 -95 -16 -19 -22 -35 -18 -51 4
-13 66 -82 139 -153 l132 -130 -107 -108 c-58 -60 -109 -120 -113 -135 -11
-44 19 -88 144 -211 114 -113 119 -117 161 -117 41 0 47 4 150 105 58 58 110
105 116 105 5 0 63 -54 129 -121 66 -66 128 -125 137 -130 22 -12 64 4 78 31
10 19 140 954 140 1011 0 25 -40 71 -59 68 -3 -1 -231 -32 -506 -69z m369
-466 l-48 -365 -323 323 c-235 234 -318 324 -306 327 80 17 719 95 722 88 2
-5 -18 -173 -45 -373z m-364 -249 c0 -13 -172 -185 -185 -185 -5 0 -56 46
-112 102 l-103 103 97 97 98 98 102 -102 c57 -57 103 -107 103 -113z"/>
<path d="M1711 2019 c-13 -5 -80 -65 -148 -132 -164 -163 -164 -165 13 -347
110 -113 148 -137 198 -120 47 15 286 259 286 291 0 40 -50 107 -162 217 -110
107 -127 115 -187 91z m149 -194 l105 -105 -100 -100 c-55 -55 -107 -100 -115
-100 -8 0 -60 45 -115 100 l-100 100 105 105 c58 58 107 105 110 105 3 0 52
-47 110 -105z"/>
<path d="M30 1180 c-29 -29 -26 -74 6 -99 l27 -21 1424 0 1424 0 24 25 c30 29
32 68 5 95 -20 20 -33 20 -1455 20 -1422 0 -1435 0 -1455 -20z"/>
<path d="M995 869 c-270 -7 -578 -35 -774 -69 -120 -22 -154 -34 -186 -70 -19
-21 -20 -36 -20 -335 l0 -314 28 -29 c48 -50 82 -54 427 -50 l315 3 47 28 c55
32 88 82 117 177 35 112 -23 102 536 101 434 -1 491 -3 502 -17 6 -9 23 -53
38 -97 31 -96 61 -139 118 -170 41 -22 49 -22 377 -22 371 0 374 1 417 64 23
33 23 38 23 325 0 274 -1 293 -20 324 -26 42 -68 59 -195 82 -360 65 -986 90
-1750 69z m1140 -139 c263 -17 515 -45 668 -76 l27 -6 0 -254 0 -254 -304 0
c-167 0 -312 3 -321 6 -20 8 -41 48 -65 128 -25 78 -55 124 -100 150 -34 20
-52 21 -525 24 -340 2 -506 0 -542 -8 -72 -15 -109 -61 -147 -175 -44 -135
-14 -125 -376 -125 l-310 0 0 254 0 255 53 10 c116 24 468 62 677 74 145 8
1124 6 1265 -3z"/>
</g>
</svg>
