<?xml version="1.0" standalone="no"?>
<!DOCTYPE svg PUBLIC "-//W3C//DTD SVG 20010904//EN"
 "http://www.w3.org/TR/2001/REC-SVG-20010904/DTD/svg10.dtd">
<svg version="1.0" xmlns="http://www.w3.org/2000/svg"
 width="399pt" height="648pt" viewBox="0 0 399 648"
 preserveAspectRatio="xMidYMid meet">
<metadata>
Created by potrace 1.8, written by Peter Selinger 2001-2007
</metadata>
<g transform="translate(0,648) scale(0.220408,-0.220408)"
fill="#000000" stroke="none">
<path d="M331 2830 c-139 -60 -264 -116 -278 -125 -28 -19 -53 -71 -53 -112 0
-97 177 -647 315 -978 257 -615 459 -1040 643 -1348 123 -205 179 -267 241
-267 23 0 153 53 463 189 76 34 102 50 118 76 38 61 30 92 -100 392 -67 153
-132 295 -146 315 -47 73 -113 90 -292 78 -56 -4 -65 -2 -75 15 -15 25 -371
842 -381 873 -6 19 5 35 78 104 72 67 88 89 101 131 9 31 13 65 9 87 -12 60
-251 601 -281 632 -22 23 -75 48 -103 48 -3 0 -119 -49 -259 -110z m393 -312
c64 -146 116 -278 116 -292 0 -18 -15 -40 -52 -73 -139 -128 -159 -171 -124
-269 28 -80 370 -860 393 -897 40 -64 90 -80 226 -72 86 5 116 4 129 -7 22
-16 260 -560 250 -570 -8 -7 -446 -198 -456 -198 -19 0 -251 392 -361 610 -57
114 -292 643 -405 915 -136 325 -308 853 -298 918 2 17 48 40 228 118 124 54
228 95 232 91 4 -4 59 -127 122 -274z"/>
</g>
</svg>
