<?xml version="1.0" standalone="no"?>
<!DOCTYPE svg PUBLIC "-//W3C//DTD SVG 20010904//EN"
 "http://www.w3.org/TR/2001/REC-SVG-20010904/DTD/svg10.dtd">
<svg version="1.0" xmlns="http://www.w3.org/2000/svg"
 width="468pt" height="465pt" viewBox="0 0 468 465"
 preserveAspectRatio="xMidYMid meet">
<metadata>
Created by potrace 1.8, written by Peter Selinger 2001-2007
</metadata>
<g transform="translate(0,465) scale(0.157047,-0.157047)"
fill="#000000" stroke="none">
<path d="M1734 2940 c-12 -4 -31 -21 -43 -36 l-21 -27 0 -849 c0 -906 0 -901
48 -927 13 -7 215 -11 595 -11 630 -2 621 -2 646 57 8 21 11 253 9 886 l-3
859 -33 29 -32 29 -573 -1 c-314 0 -582 -4 -593 -9z m308 -40 l38 0 0 -205 0
-205 -180 0 -180 0 0 179 c0 99 3 187 6 196 14 35 62 46 173 40 57 -3 121 -5
143 -5z m846 -1 c17 -6 32 -20 36 -32 3 -12 6 -102 6 -199 l0 -178 -180 0
-180 0 0 205 0 204 128 4 c70 1 134 4 143 5 9 1 30 -3 47 -9z m-358 -204 l0
-205 -205 0 -205 0 0 205 0 205 205 0 205 0 0 -205z m-450 -455 l0 -200 -180
0 -180 0 0 200 0 200 180 0 180 0 0 -200z m450 0 l0 -200 -205 0 -205 0 0 200
0 200 205 0 205 0 0 -200z m400 0 l0 -200 -180 0 -180 0 0 200 0 200 180 0
180 0 0 -200z m-850 -455 l0 -215 -180 0 -180 0 0 215 0 215 180 0 180 0 0
-215z m450 0 l0 -215 -205 0 -205 0 0 215 0 215 205 0 205 0 0 -215z m400 0
l0 -215 -180 0 -180 0 0 215 0 215 180 0 180 0 0 -215z m-850 -460 l0 -195
-163 0 c-116 0 -168 4 -180 13 -20 14 -22 35 -19 235 l2 142 180 0 180 0 0
-195z m450 0 l0 -195 -205 0 -205 0 0 195 0 195 205 0 205 0 0 -195z m400 33
c0 -90 -3 -173 -6 -184 -10 -36 -46 -44 -204 -44 l-150 0 0 195 0 195 180 0
180 0 0 -162z"/>
<path d="M1896 2831 c-10 -11 -31 -25 -47 -31 -27 -12 -37 -29 -23 -43 4 -3
19 0 35 8 15 8 30 15 34 15 3 0 5 -56 5 -125 0 -118 1 -125 20 -125 19 0 20 7
20 160 0 169 -5 184 -44 141z"/>
<path d="M2673 2840 c-42 -17 -17 -37 45 -36 55 1 57 0 60 -27 4 -37 -13 -57
-49 -57 -22 0 -29 -5 -29 -20 0 -16 7 -20 30 -20 33 0 70 -30 70 -58 0 -42
-25 -57 -90 -55 -52 1 -61 -1 -58 -15 4 -19 58 -32 105 -25 78 13 112 103 59
154 l-24 23 20 27 c24 33 17 81 -15 104 -23 16 -89 19 -124 5z"/>
<path d="M2247 2834 c-23 -12 -26 -18 -17 -29 9 -11 17 -12 32 -4 26 14 79 7
91 -12 16 -26 0 -64 -51 -121 -55 -60 -72 -87 -72 -117 0 -20 6 -21 95 -21 88
0 95 2 95 20 0 17 -8 19 -76 22 l-77 3 61 67 c33 37 66 77 72 89 16 29 4 85
-23 104 -27 19 -94 19 -130 -1z"/>
<path d="M1875 2328 c-51 -69 -85 -129 -85 -153 0 -12 14 -15 70 -15 l70 0 0
-40 c0 -33 3 -40 20 -40 17 0 20 7 20 40 0 33 3 40 20 40 12 0 20 7 20 16 0 9
-9 18 -20 21 -18 5 -20 14 -20 99 0 93 0 94 -24 94 -18 0 -36 -16 -71 -62z
m55 -58 l0 -70 -45 0 c-25 0 -45 4 -45 9 0 10 79 131 86 131 2 0 4 -31 4 -70z"/>
<path d="M2256 2368 c-3 -13 -6 -46 -6 -75 l0 -51 43 -7 c55 -9 77 -30 77 -71
0 -43 -27 -58 -92 -51 -38 5 -48 3 -48 -9 0 -36 105 -43 155 -10 30 20 42 75
24 117 -13 32 -58 59 -99 59 -19 0 -21 5 -18 43 l3 42 58 3 c42 2 57 7 57 17
0 12 -16 15 -74 15 -68 0 -74 -2 -80 -22z"/>
<path d="M2781 2390 c-104 -25 -163 -161 -113 -260 50 -100 189 -61 186 52 -2
60 -39 91 -106 86 -26 -1 -48 -2 -48 0 0 2 7 17 16 33 15 30 65 59 103 59 14
0 18 5 14 20 -3 11 -8 20 -12 19 -3 -1 -21 -5 -40 -9z m7 -166 c15 -10 22 -25
22 -49 0 -58 -51 -85 -92 -48 -25 22 -25 100 0 106 33 9 48 7 70 -9z"/>
<path d="M1800 1920 c0 -18 7 -20 75 -20 l75 0 -24 -37 c-27 -41 -76 -179 -76
-212 0 -33 38 -27 46 7 19 86 29 114 65 180 21 41 39 80 39 88 0 11 -20 14
-100 14 -93 0 -100 -1 -100 -20z"/>
<path d="M2284 1941 c-52 -22 -69 -90 -35 -132 19 -23 19 -24 -5 -52 -32 -38
-30 -72 5 -108 22 -22 39 -29 68 -29 97 1 145 88 82 151 l-20 20 21 26 c26 33
25 66 -2 98 -25 28 -79 40 -114 26z m80 -47 c9 -8 16 -21 16 -28 0 -17 -38
-66 -51 -66 -15 0 -59 47 -59 64 0 22 28 46 55 46 13 0 31 -7 39 -16z m-9
-140 c16 -11 25 -26 25 -43 0 -35 -17 -51 -55 -51 -37 0 -55 16 -55 48 0 58
37 78 85 46z"/>
<path d="M2700 1938 c-14 -7 -33 -30 -44 -51 -16 -34 -17 -42 -4 -75 17 -46
50 -64 106 -59 48 5 47 6 28 -31 -16 -30 -44 -47 -93 -57 -20 -4 -33 -13 -33
-22 0 -13 9 -15 46 -10 81 9 132 63 141 149 6 61 -8 117 -36 142 -25 23 -80
30 -111 14z m82 -45 c12 -11 18 -30 18 -60 l0 -43 -43 0 c-51 0 -67 13 -67 56
0 57 52 84 92 47z"/>
<path d="M1863 1455 c7 -40 6 -40 -32 -20 -27 13 -29 13 -34 -5 -6 -25 0 -30
36 -30 l30 0 -23 -24 c-13 -15 -20 -32 -17 -40 10 -25 25 -19 43 16 l16 32 16
-30 c20 -39 19 -39 37 -24 14 12 13 16 -11 42 l-28 28 32 0 c34 0 45 10 36 34
-5 14 -9 14 -34 1 -38 -20 -37 -20 -32 20 4 31 2 35 -18 35 -20 0 -22 -4 -17
-35z"/>
<path d="M2233 1476 c-75 -63 -66 -259 14 -295 84 -38 143 26 143 154 0 104
-27 151 -92 161 -27 5 -41 1 -65 -20z m94 -43 c24 -37 24 -159 0 -196 -24 -37
-62 -36 -82 3 -18 35 -20 151 -4 183 24 45 60 49 86 10z"/>
<path d="M2686 1474 c-3 -9 -6 -26 -6 -39 0 -20 -6 -24 -37 -27 -49 -4 -53
-32 -6 -36 19 -2 30 -8 28 -15 -2 -7 -6 -24 -9 -39 -5 -21 -12 -28 -31 -28
-16 0 -25 -6 -25 -15 0 -9 9 -15 21 -15 20 0 21 -4 15 -40 -6 -35 -4 -40 14
-40 15 0 21 9 26 40 6 38 8 40 42 40 l35 0 -7 -40 c-6 -35 -4 -40 14 -40 15 0
21 9 26 40 6 37 9 40 40 40 24 0 34 5 34 15 0 10 -10 15 -31 15 -28 0 -31 3
-25 23 3 12 6 30 6 40 0 11 8 17 25 17 18 0 25 5 25 20 0 13 -7 20 -20 20 -11
0 -18 5 -16 13 17 53 16 67 -4 67 -13 0 -22 -9 -26 -27 -11 -50 -13 -53 -48
-53 -24 0 -34 4 -32 13 17 52 16 67 -3 67 -10 0 -22 -7 -25 -16z m84 -128 c0
-44 -10 -56 -47 -56 -32 0 -35 2 -29 23 3 12 6 30 6 40 0 13 8 17 35 17 30 0
35 -3 35 -24z"/>
<path d="M331 2830 c-139 -60 -264 -116 -278 -125 -28 -19 -53 -71 -53 -112 0
-97 177 -647 315 -978 257 -615 459 -1040 643 -1348 123 -205 179 -267 241
-267 23 0 153 53 463 189 76 34 102 50 118 76 38 61 30 92 -100 392 -67 153
-132 295 -146 315 -47 73 -113 90 -292 78 -56 -4 -65 -2 -75 15 -15 25 -371
842 -381 873 -6 19 5 35 78 104 72 67 88 89 101 131 9 31 13 65 9 87 -12 60
-251 601 -281 632 -22 23 -75 48 -103 48 -3 0 -119 -49 -259 -110z m393 -312
c64 -146 116 -278 116 -292 0 -18 -15 -40 -52 -73 -139 -128 -159 -171 -124
-269 28 -80 370 -860 393 -897 40 -64 90 -80 226 -72 86 5 116 4 129 -7 22
-16 260 -560 250 -570 -8 -7 -446 -198 -456 -198 -19 0 -251 392 -361 610 -57
114 -292 643 -405 915 -136 325 -308 853 -298 918 2 17 48 40 228 118 124 54
228 95 232 91 4 -4 59 -127 122 -274z"/>
</g>
</svg>
