<?xml version="1.0" standalone="no"?>
<!DOCTYPE svg PUBLIC "-//W3C//DTD SVG 20010904//EN"
 "http://www.w3.org/TR/2001/REC-SVG-20010904/DTD/svg10.dtd">
<svg version="1.0" xmlns="http://www.w3.org/2000/svg"
 width="468pt" height="465pt" viewBox="0 0 468 465"
 preserveAspectRatio="xMidYMid meet">
<metadata>
Created by potrace 1.8, written by Peter Selinger 2001-2007
</metadata>
<g transform="translate(0,465) scale(0.158108,-0.158108)"
fill="#000000" stroke="none">
<path d="M168 2813 c-66 -65 -126 -131 -135 -147 -29 -56 -12 -90 105 -204
123 -120 154 -142 200 -142 29 0 49 15 152 116 110 107 150 160 150 197 0 29
-59 101 -164 197 -100 93 -111 100 -148 100 -39 0 -47 -6 -160 -117z m206 -15
c18 -18 63 -65 100 -104 l67 -72 -102 -101 c-56 -55 -106 -101 -111 -101 -13
0 -208 191 -208 203 0 15 192 207 207 207 7 0 28 -15 47 -32z"/>
<path d="M1200 2375 c-69 -69 -127 -125 -130 -125 -3 0 -50 42 -105 93 -112
105 -130 117 -177 117 -29 0 -48 -15 -159 -127 -139 -141 -153 -166 -123 -225
9 -18 60 -75 113 -126 l96 -92 -137 -136 c-95 -93 -138 -142 -138 -157 0 -33
26 -65 58 -71 15 -4 245 -35 512 -71 476 -64 485 -64 510 -46 14 10 26 27 28
39 5 35 -129 1006 -141 1022 -44 56 -67 45 -207 -95z m-298 -107 c48 -51 88
-95 88 -98 0 -3 -47 -52 -104 -109 l-105 -105 -86 85 c-48 46 -91 92 -96 101
-8 14 9 36 91 118 56 55 106 100 113 100 6 0 51 -42 99 -92z m452 -353 c27
-201 47 -368 45 -370 -4 -3 -617 75 -708 91 l-34 6 319 319 c175 175 321 319
324 319 3 0 28 -164 54 -365z"/>
<path d="M30 1180 c-29 -29 -26 -74 6 -99 l27 -21 1424 0 1424 0 24 25 c30 29
32 68 5 95 -20 20 -33 20 -1455 20 -1422 0 -1435 0 -1455 -20z"/>
<path d="M995 869 c-270 -7 -578 -35 -774 -69 -120 -22 -154 -34 -186 -70 -19
-21 -20 -36 -20 -335 l0 -314 28 -29 c48 -50 82 -54 427 -50 l315 3 47 28 c55
32 88 82 117 177 35 112 -23 102 536 101 434 -1 491 -3 502 -17 6 -9 23 -53
38 -97 31 -96 61 -139 118 -170 41 -22 49 -22 377 -22 371 0 374 1 417 64 23
33 23 38 23 325 0 274 -1 293 -20 324 -26 42 -68 59 -195 82 -360 65 -986 90
-1750 69z m1140 -139 c263 -17 515 -45 668 -76 l27 -6 0 -254 0 -254 -304 0
c-167 0 -312 3 -321 6 -20 8 -41 48 -65 128 -25 78 -55 124 -100 150 -34 20
-52 21 -525 24 -340 2 -506 0 -542 -8 -72 -15 -109 -61 -147 -175 -44 -135
-14 -125 -376 -125 l-310 0 0 254 0 255 53 10 c116 24 468 62 677 74 145 8
1124 6 1265 -3z"/>
</g>
</svg>
