<?xml version="1.0" standalone="no"?>
<!DOCTYPE svg PUBLIC "-//W3C//DTD SVG 20010904//EN"
 "http://www.w3.org/TR/2001/REC-SVG-20010904/DTD/svg10.dtd">
<svg version="1.0" xmlns="http://www.w3.org/2000/svg"
 width="468pt" height="465pt" viewBox="0 0 468 465"
 preserveAspectRatio="xMidYMid meet">
<metadata>
Created by potrace 1.8, written by Peter Selinger 2001-2007
</metadata>
<g transform="translate(0,465) scale(0.158108,-0.158108)"
fill="#000000" stroke="none">
<path d="M273 2924 c-18 -9 -82 -67 -142 -129 -120 -124 -136 -156 -108 -211
17 -33 215 -232 249 -251 59 -32 95 -14 224 119 172 175 172 184 5 347 -101
98 -159 142 -188 141 -4 0 -23 -8 -40 -16z m162 -194 l99 -99 -106 -108 -106
-107 -55 47 c-30 25 -78 74 -107 107 l-52 60 98 100 c54 55 105 100 114 100 8
0 60 -45 115 -100z"/>
<path d="M2325 2930 c-17 -5 -43 -22 -57 -37 -15 -16 -80 -152 -152 -319 -108
-249 -126 -299 -126 -343 0 -71 26 -117 110 -192 38 -35 72 -71 75 -80 6 -16
-364 -882 -385 -903 -6 -6 -37 -8 -73 -6 -109 8 -182 3 -212 -13 -66 -34 -91
-76 -220 -376 -116 -266 -127 -298 -122 -338 3 -32 13 -54 33 -74 33 -31 525
-249 565 -249 74 0 153 100 334 425 143 255 222 424 447 945 202 468 302 743
384 1055 44 167 43 221 -2 264 -28 27 -488 233 -544 245 -14 2 -39 1 -55 -4z
m270 -230 c125 -55 230 -101 232 -103 7 -8 -66 -273 -122 -447 -66 -203 -130
-365 -283 -720 -224 -519 -329 -739 -473 -990 -86 -150 -181 -300 -191 -300
-10 0 -452 191 -459 199 -8 8 222 535 245 563 17 19 25 20 132 14 100 -7 118
-5 158 12 28 13 54 34 70 59 13 21 109 232 212 468 201 462 213 499 179 566
-10 19 -53 68 -96 109 -50 47 -79 83 -79 96 0 11 50 135 111 275 61 140 115
264 120 277 4 12 10 22 12 22 2 0 106 -45 232 -100z"/>
<path d="M1315 2499 c-11 -6 -74 -65 -140 -130 l-120 -118 -112 105 c-106 97
-115 104 -154 104 -40 0 -47 -5 -166 -122 -181 -180 -182 -187 -19 -348 l96
-94 -135 -136 c-92 -94 -135 -144 -135 -159 0 -30 15 -57 37 -66 10 -4 243
-38 518 -76 485 -65 501 -67 525 -50 14 10 26 27 28 38 2 12 -27 243 -63 514
-63 471 -76 539 -104 539 -5 0 -15 2 -23 5 -7 2 -22 0 -33 -6z m-420 -229 l90
-90 -107 -107 -107 -106 -34 25 c-18 15 -62 58 -96 97 l-62 70 98 101 c54 55
105 100 113 100 9 0 56 -41 105 -90z m449 -355 c27 -201 47 -367 45 -369 -2
-2 -164 18 -359 45 -195 26 -362 48 -370 49 -13 0 617 640 630 640 3 0 28
-164 54 -365z"/>
<path d="M224 1178 c-58 -61 -87 -103 -127 -183 -138 -277 -117 -603 56 -855
81 -118 130 -146 163 -94 16 24 16 26 -2 49 -163 200 -207 312 -208 520 0 186
45 316 163 469 34 43 61 83 61 87 0 14 -38 49 -53 49 -7 0 -31 -19 -53 -42z"/>
<path d="M467 1058 c-64 -68 -131 -207 -153 -318 -40 -202 22 -429 158 -579
40 -45 66 -51 91 -23 24 26 22 32 -29 98 -93 119 -134 234 -134 376 0 143 47
274 136 378 24 29 44 58 44 66 0 17 -35 54 -52 54 -7 0 -34 -23 -61 -52z"/>
<path d="M717 950 c-88 -96 -136 -258 -117 -392 13 -88 44 -163 97 -235 36
-50 52 -63 73 -63 61 0 65 40 10 112 -122 160 -117 358 12 518 32 39 35 62 12
84 -25 25 -49 19 -87 -24z"/>
</g>
</svg>
