<?xml version="1.0" standalone="no"?>
<!DOCTYPE svg PUBLIC "-//W3C//DTD SVG 20010904//EN"
 "http://www.w3.org/TR/2001/REC-SVG-20010904/DTD/svg10.dtd">
<svg version="1.0" xmlns="http://www.w3.org/2000/svg"
 width="468pt" height="465pt" viewBox="0 0 468 465"
 preserveAspectRatio="xMidYMid meet">
<metadata>
Created by potrace 1.8, written by Peter Selinger 2001-2007
</metadata>
<g transform="translate(0,465) scale(0.157047,-0.157047)"
fill="#000000" stroke="none">
<path d="M2397 2890 c-381 -51 -502 -71 -515 -83 -9 -9 -16 -31 -16 -49 0 -29
16 -49 135 -165 l134 -132 -107 -108 c-60 -61 -110 -120 -113 -135 -11 -44 19
-88 144 -211 159 -157 168 -157 326 2 49 50 94 91 100 91 6 0 66 -56 135 -125
100 -100 130 -125 152 -125 37 0 65 29 72 76 17 107 126 946 126 967 0 26 -41
68 -64 66 -6 -1 -235 -31 -509 -69z m423 -97 c0 -28 -92 -718 -97 -723 -2 -2
-148 140 -323 315 -176 176 -315 322 -308 324 10 3 672 96 716 100 6 0 12 -7
12 -16z m-410 -619 c0 -12 -173 -184 -186 -184 -5 0 -56 47 -113 104 l-103
104 96 98 97 97 105 -104 c57 -57 104 -109 104 -115z"/>
<path d="M331 2830 c-139 -60 -264 -116 -278 -125 -28 -19 -53 -71 -53 -112 0
-97 177 -647 315 -978 257 -615 459 -1040 643 -1348 123 -205 179 -267 241
-267 23 0 153 53 463 189 76 34 102 50 118 76 38 61 30 92 -100 392 -67 153
-132 295 -146 315 -47 73 -113 90 -292 78 -56 -4 -65 -2 -75 15 -15 25 -371
842 -381 873 -6 19 5 35 78 104 72 67 88 89 101 131 9 31 13 65 9 87 -12 60
-251 601 -281 632 -22 23 -75 48 -103 48 -3 0 -119 -49 -259 -110z m393 -312
c64 -146 116 -278 116 -292 0 -18 -15 -40 -52 -73 -139 -128 -159 -171 -124
-269 28 -80 370 -860 393 -897 40 -64 90 -80 226 -72 86 5 116 4 129 -7 22
-16 260 -560 250 -570 -8 -7 -446 -198 -456 -198 -19 0 -251 392 -361 610 -57
114 -292 643 -405 915 -136 325 -308 853 -298 918 2 17 48 40 228 118 124 54
228 95 232 91 4 -4 59 -127 122 -274z"/>
<path d="M1684 2001 c-21 -16 -85 -76 -141 -133 -110 -112 -118 -130 -89 -186
21 -38 236 -249 266 -260 49 -17 82 4 213 136 87 89 127 136 127 151 0 45 -33
90 -149 204 -105 105 -122 117 -153 117 -23 0 -49 -10 -74 -29z m115 -111 c26
-22 74 -70 105 -106 l58 -65 -98 -99 c-54 -55 -105 -100 -114 -100 -8 0 -60
45 -114 99 l-99 99 39 47 c33 41 163 165 172 165 2 0 25 -18 51 -40z"/>
<path d="M2656 1204 c-26 -26 -19 -51 35 -116 28 -35 70 -103 94 -153 127
-261 91 -556 -96 -791 -50 -63 -59 -90 -37 -112 23 -23 55 -12 97 33 84 91
149 218 186 361 22 84 25 271 6 359 -30 139 -113 301 -204 398 -38 40 -57 45
-81 21z"/>
<path d="M2419 1103 c-9 -2 -21 -15 -27 -28 -10 -21 -5 -32 39 -92 97 -131
129 -222 130 -368 1 -148 -39 -261 -131 -377 -28 -34 -50 -64 -50 -67 0 -19
34 -51 55 -51 53 0 169 185 206 328 50 198 -4 445 -132 595 -44 52 -65 65 -90
60z"/>
<path d="M2157 972 c-24 -26 -21 -38 18 -86 83 -101 116 -250 81 -366 -16 -55
-57 -131 -98 -182 -18 -23 -20 -31 -10 -53 9 -19 19 -25 42 -25 25 0 37 10 74
60 146 198 135 458 -27 640 -31 34 -57 38 -80 12z"/>
</g>
</svg>
