<?xml version="1.0" standalone="no"?>
<!DOCTYPE svg PUBLIC "-//W3C//DTD SVG 20010904//EN"
 "http://www.w3.org/TR/2001/REC-SVG-20010904/DTD/svg10.dtd">
<svg version="1.0" xmlns="http://www.w3.org/2000/svg"
 width="468pt" height="292pt" viewBox="0 0 468 292"
 preserveAspectRatio="xMidYMid meet">
<metadata>
Created by potrace 1.8, written by Peter Selinger 2001-2007
</metadata>
<g transform="translate(0,292) scale(0.157576,-0.157576)"
fill="#000000" stroke="none">
<path d="M2348 1811 l-33 -29 -3 -635 -2 -635 -35 -35 -35 -35 0 -187 0 -187
34 -34 34 -34 206 0 206 0 32 29 33 29 3 192 3 191 -35 35 c-32 32 -36 42 -36
85 l0 49 109 0 c102 0 111 2 125 22 21 30 20 61 -3 89 -18 23 -26 24 -125 24
l-106 0 0 105 0 105 106 0 c99 0 107 1 125 24 25 30 24 66 -2 92 -18 18 -30
20 -125 17 l-104 -3 0 103 0 102 109 0 c102 0 111 2 125 22 9 12 16 32 16 43
0 11 -7 31 -16 43 -14 20 -23 22 -125 22 l-109 0 0 98 0 97 102 -3 c116 -3
134 4 144 55 5 26 1 37 -20 58 -26 26 -30 27 -125 23 l-99 -3 -18 35 c-29 52
-53 60 -196 60 -127 0 -128 0 -160 -29z m232 -201 l0 -100 -70 0 -70 0 0 100
0 100 70 0 70 0 0 -100z"/>
<path d="M542 1685 c-38 -17 -62 -64 -62 -125 0 -74 29 -106 113 -124 24 -6
27 -11 27 -46 l0 -40 -73 0 c-121 0 -180 -29 -193 -96 l-6 -32 -127 -4 c-201
-5 -216 -23 -216 -258 0 -234 14 -250 218 -250 l125 0 12 -31 c8 -17 27 -40
44 -50 29 -17 55 -19 336 -19 281 0 307 2 336 19 17 10 36 33 44 50 l12 31
119 0 118 0 3 -179 c3 -162 5 -181 23 -201 40 -45 79 -53 243 -51 162 1 200 9
237 51 19 21 20 36 20 410 l0 389 -34 35 c-49 51 -89 56 -430 56 l-299 0 -6
33 c-13 69 -71 97 -198 97 l-78 0 0 40 0 40 326 0 c432 0 449 5 449 125 0 69
-20 109 -66 132 -38 20 -972 17 -1017 -2z m986 -117 l-3 -33 -470 0 -470 0 -3
33 -3 32 476 0 476 0 -3 -32z m-768 -178 c0 -33 -3 -40 -20 -40 -17 0 -20 7
-20 40 0 33 3 40 20 40 17 0 20 -7 20 -40z m240 -219 c0 -24 8 -48 21 -65 l20
-26 359 0 358 0 4 -22 c2 -13 2 -161 0 -330 l-4 -308 -123 0 -124 0 -3 189
c-3 169 -5 191 -22 210 -18 20 -28 21 -233 21 -200 0 -214 -1 -233 -20 -11
-11 -20 -33 -20 -50 l0 -30 -260 0 c-256 0 -260 0 -260 21 0 23 -18 60 -34 71
-6 4 -77 8 -158 8 l-148 0 0 120 0 120 148 0 c171 0 180 4 189 85 l6 45 258 0
259 0 0 -39z"/>
</g>
</svg>
