<?xml version="1.0" standalone="no"?>
<!DOCTYPE svg PUBLIC "-//W3C//DTD SVG 20010904//EN"
 "http://www.w3.org/TR/2001/REC-SVG-20010904/DTD/svg10.dtd">
<svg version="1.0" xmlns="http://www.w3.org/2000/svg"
 width="468pt" height="472pt" viewBox="0 0 468 472"
 preserveAspectRatio="xMidYMid meet">
<metadata>
Created by potrace 1.8, written by Peter Selinger 2001-2007
</metadata>
<g transform="translate(0,472) scale(0.159184,-0.159184)"
fill="#000000" stroke="none">
<path d="M1257 2951 c-57 -12 -70 -31 -75 -106 l-4 -65 -114 0 -114 0 0 45 c0
63 -22 113 -54 121 -15 3 -58 4 -96 2 -91 -5 -110 -22 -117 -107 l-6 -61 -112
0 -113 0 -7 62 c-11 89 -32 108 -125 108 -74 0 -123 -16 -134 -45 -3 -9 -6
-41 -6 -71 l0 -54 -68 0 c-96 0 -102 -8 -102 -137 0 -125 6 -133 103 -133 l67
0 0 -505 0 -505 -75 0 c-92 0 -95 -4 -95 -130 0 -124 4 -130 89 -130 l67 0 12
-62 c7 -38 20 -70 34 -85 21 -23 29 -25 105 -21 105 4 122 18 130 107 l6 61
113 0 114 0 0 -32 c0 -52 19 -106 43 -123 13 -9 44 -15 83 -15 114 0 144 25
144 120 l0 50 115 0 115 0 0 -41 c0 -52 24 -103 56 -118 32 -14 109 -13 154 2
42 15 60 47 60 110 l0 47 48 0 c27 0 57 7 70 16 20 14 22 23 22 119 0 125 -6
135 -86 135 l-54 0 0 500 0 500 49 0 c69 0 90 20 98 91 7 71 -3 144 -23 164
-10 10 -35 15 -70 15 l-54 0 0 38 c0 47 -16 107 -33 120 -17 14 -115 21 -160
13z m93 -936 l-1 -845 -34 0 -35 0 0 845 0 845 35 0 35 0 0 -845z m-1000 -5
l0 -840 -35 0 -35 0 0 840 0 840 35 0 35 0 0 -840z m500 0 l0 -840 -35 0 -35
0 0 840 0 840 35 0 35 0 0 -840z m-170 0 l0 -500 -115 0 -115 0 0 500 0 500
115 0 115 0 0 -500z m498 -2 l-3 -503 -112 -3 -113 -3 0 506 0 505 115 0 115
0 -2 -502z"/>
<path d="M1644 2755 c-20 -31 -17 -206 4 -227 8 -8 46 -14 100 -16 117 -5 134
7 140 101 2 37 1 82 -2 101 -11 59 -26 66 -131 66 -90 0 -95 -1 -111 -25z
m146 -110 c0 -32 -2 -35 -30 -35 -28 0 -30 3 -30 35 0 32 2 35 30 35 28 0 30
-3 30 -35z"/>
<path d="M2665 1502 c-33 -4 -65 -11 -72 -15 -20 -13 -33 -77 -34 -172 -1 -49
-4 -80 -6 -68 -2 13 -16 32 -30 43 -23 18 -40 20 -158 20 -128 0 -132 -1 -156
-26 l-24 -26 0 -339 0 -339 28 -27 c27 -28 29 -28 156 -28 122 0 131 1 155 24
14 13 27 33 28 45 3 18 7 15 20 -16 9 -20 25 -41 36 -47 31 -16 236 -14 277 3
55 23 57 41 53 501 -3 424 -5 444 -45 459 -27 11 -162 15 -228 8z m175 -487
l0 -395 -90 0 -90 0 0 395 0 395 90 0 90 0 0 -395z m-380 -95 l0 -300 -90 0
-90 0 0 300 0 300 90 0 90 0 0 -300z"/>
<path d="M1854 1150 c-41 -17 -54 -49 -55 -140 -1 -47 -4 -75 -6 -64 -2 12
-15 32 -29 45 -22 21 -37 24 -131 27 -123 5 -175 -7 -201 -45 -15 -24 -17 -50
-14 -208 2 -99 5 -188 8 -198 11 -35 57 -47 179 -47 120 0 166 12 179 45 3 9
7 71 8 138 l2 122 5 -126 c4 -85 10 -131 20 -142 23 -28 82 -39 193 -35 96 3
109 5 132 27 l26 24 0 267 0 267 -26 24 c-24 22 -34 24 -147 26 -67 2 -132 -2
-143 -7z m226 -310 l0 -220 -90 0 -90 0 0 220 0 220 90 0 90 0 0 -220z m-390
-70 l0 -150 -85 0 -85 0 0 150 0 150 85 0 85 0 0 -150z"/>
<path d="M2694 416 c-69 -30 -104 -99 -104 -203 0 -108 46 -182 125 -202 93
-23 173 22 200 113 57 192 -68 358 -221 292z m91 -62 c28 -11 45 -60 45 -133
0 -71 -12 -120 -33 -133 -7 -4 -26 -8 -44 -8 -50 0 -63 28 -63 138 0 85 2 95
25 117 25 26 41 30 70 19z"/>
<path d="M1577 413 c-8 -15 -127 -381 -127 -393 0 -7 16 -10 47 -8 47 3 47 3
58 48 l11 45 61 3 61 3 7 -33 c14 -69 13 -68 66 -68 59 0 61 -21 -20 230 l-57
175 -51 3 c-28 2 -53 -1 -56 -5z m78 -162 c9 -35 14 -65 12 -68 -3 -2 -23 -3
-44 -1 l-40 3 20 73 c11 41 23 70 27 65 5 -4 16 -37 25 -72z"/>
<path d="M1842 263 c4 -177 12 -205 67 -237 44 -26 142 -27 189 -2 53 27 62
63 62 241 l0 155 -45 0 -45 0 0 -144 c0 -182 -5 -196 -64 -196 -35 0 -48 5
-56 19 -5 11 -10 86 -10 170 l0 151 -51 0 -51 0 4 -157z"/>
<path d="M2210 385 l0 -35 60 0 60 0 2 -167 3 -168 48 -3 47 -3 0 170 0 171
60 0 60 0 0 35 0 35 -170 0 -170 0 0 -35z"/>
</g>
</svg>
