<?xml version="1.0" standalone="no"?>
<!DOCTYPE svg PUBLIC "-//W3C//DTD SVG 20010904//EN"
 "http://www.w3.org/TR/2001/REC-SVG-20010904/DTD/svg10.dtd">
<svg version="1.0" xmlns="http://www.w3.org/2000/svg"
 width="468pt" height="468pt" viewBox="0 0 468 468"
 preserveAspectRatio="xMidYMid meet">
<metadata>
Created by potrace 1.8, written by Peter Selinger 2001-2007
</metadata>
<g transform="translate(0,468) scale(0.158108,-0.158108)"
fill="#000000" stroke="none">
<path d="M303 2950 c-162 -14 -259 -44 -283 -91 -6 -11 -10 -531 -10 -1384 l0
-1367 29 -28 c64 -65 199 -80 711 -80 512 0 647 15 711 80 l29 28 0 731 0 731
124 0 c110 0 126 2 150 21 32 25 35 70 6 99 -18 18 -33 20 -150 20 l-130 0 0
344 0 344 129 4 c110 3 132 6 150 22 25 23 27 63 5 94 -14 21 -22 22 -150 22
l-134 0 0 153 c0 170 -4 182 -66 212 -82 39 -173 46 -604 50 -228 2 -461 0
-517 -5z m947 -140 c120 -16 110 -3 110 -146 l0 -124 -121 0 c-104 0 -179 -10
-513 -66 -215 -36 -401 -73 -413 -80 -18 -11 -23 -24 -23 -54 0 -33 19 -70 37
-70 2 0 176 -30 386 -66 210 -36 396 -66 414 -67 19 0 41 7 53 18 25 23 27 76
3 97 -11 10 -95 28 -220 49 -111 18 -200 35 -198 38 3 2 91 18 197 35 149 24
216 31 296 28 l102 -3 0 -345 0 -344 -100 0 c-79 0 -185 14 -483 66 -210 36
-397 66 -416 67 -62 2 -99 -85 -48 -117 37 -23 782 -147 925 -153 l122 -6 -2
-700 -3 -701 -30 -10 c-41 -14 -1109 -14 -1150 0 l-30 10 -3 1312 c-2 1297 -2
1311 18 1317 10 3 48 10 82 14 90 12 918 12 1008 1z"/>
<path d="M333 2210 c-46 -18 -59 -90 -20 -114 29 -18 810 -150 843 -142 43 11
63 88 30 115 -7 6 -187 40 -401 76 -215 36 -399 67 -410 69 -11 2 -30 0 -42
-4z"/>
<path d="M312 2007 c-24 -26 -29 -78 -9 -95 7 -6 199 -43 427 -81 409 -70 415
-71 440 -52 35 26 40 84 8 104 -20 13 -775 147 -826 147 -10 0 -28 -10 -40
-23z"/>
<path d="M2338 2331 l-33 -29 -3 -635 -2 -635 -35 -35 -35 -35 0 -187 0 -187
34 -34 34 -34 206 0 206 0 32 29 33 29 3 192 3 191 -35 35 c-32 32 -36 42 -36
85 l0 49 109 0 c102 0 111 2 125 22 21 30 20 61 -3 89 -18 23 -26 24 -125 24
l-106 0 0 105 0 105 106 0 c99 0 107 1 125 24 25 30 24 66 -2 92 -18 18 -30
20 -125 17 l-104 -3 0 103 0 102 109 0 c102 0 111 2 125 22 9 12 16 32 16 43
0 11 -7 31 -16 43 -14 20 -23 22 -125 22 l-109 0 0 98 0 97 102 -3 c116 -3
134 4 144 55 5 26 1 37 -20 58 -26 26 -30 27 -125 23 l-99 -3 -18 35 c-29 52
-53 60 -196 60 -127 0 -128 0 -160 -29z m232 -476 l0 -375 -70 0 -70 0 0 375
0 375 70 0 70 0 0 -375z"/>
</g>
</svg>
