<?xml version="1.0" standalone="no"?>
<!DOCTYPE svg PUBLIC "-//W3C//DTD SVG 20010904//EN"
 "http://www.w3.org/TR/2001/REC-SVG-20010904/DTD/svg10.dtd">
<svg version="1.0" xmlns="http://www.w3.org/2000/svg"
 width="468pt" height="317pt" viewBox="0 0 468 317"
 preserveAspectRatio="xMidYMid meet">
<metadata>
Created by potrace 1.8, written by Peter Selinger 2001-2007
</metadata>
<g transform="translate(0,317) scale(0.158108,-0.158108)"
fill="#000000" stroke="none">
<path d="M1075 1991 c-80 -20 -105 -60 -105 -168 0 -109 37 -147 163 -168 l37
-6 0 -84 0 -85 -137 0 c-111 0 -145 -3 -173 -18 -44 -22 -76 -69 -84 -127 l-7
-45 -328 0 c-324 0 -328 0 -361 -23 -68 -45 -75 -69 -78 -291 -4 -220 3 -259
56 -308 48 -45 75 -48 407 -48 l312 0 11 -38 c6 -21 25 -51 42 -67 l31 -30
447 -3 c436 -2 448 -2 481 18 22 14 40 38 54 71 l21 49 193 0 193 0 0 -234 c0
-254 4 -282 53 -333 41 -44 91 -52 322 -51 196 0 234 6 279 46 44 39 45 52 47
600 2 600 5 576 -87 622 -47 24 -56 25 -244 25 -107 0 -322 1 -477 3 l-283 2
0 28 c0 15 -10 48 -22 72 -36 70 -65 80 -235 80 l-143 0 0 90 0 90 498 0 c467
0 500 2 539 19 56 26 73 61 73 155 0 69 -2 78 -30 109 -16 18 -47 39 -68 45
-44 13 -1343 16 -1397 3z m1386 -107 c15 -18 16 -101 1 -116 -5 -5 -305 -9
-690 -10 -536 -1 -685 2 -697 12 -20 17 -20 94 1 114 14 14 90 16 693 16 618
0 680 -1 692 -16z m-1101 -314 l0 -90 -50 0 -50 0 0 90 0 90 50 0 50 0 0 -90z
m362 -299 c6 -121 -42 -111 550 -111 332 0 516 -4 529 -10 18 -10 19 -26 19
-498 0 -366 -3 -491 -12 -500 -13 -13 -371 -18 -402 -6 -14 5 -16 40 -16 286
l0 279 -25 24 -24 25 -284 0 c-263 0 -287 -1 -308 -19 -18 -15 -23 -29 -24
-67 l0 -49 -407 -3 -408 -2 0 50 c0 37 -5 55 -20 70 -19 19 -33 20 -380 20
l-360 0 -10 24 c-15 39 -8 340 9 359 12 15 51 17 372 17 l358 0 15 22 c11 15
16 45 16 90 l0 68 404 0 404 0 4 -69z"/>
</g>
</svg>
