<?xml version="1.0" standalone="no"?>
<!DOCTYPE svg PUBLIC "-//W3C//DTD SVG 20010904//EN"
 "http://www.w3.org/TR/2001/REC-SVG-20010904/DTD/svg10.dtd">
<svg version="1.0" xmlns="http://www.w3.org/2000/svg"
 width="468pt" height="310pt" viewBox="0 0 468 310"
 preserveAspectRatio="xMidYMid meet">
<metadata>
Created by potrace 1.8, written by Peter Selinger 2001-2007
</metadata>
<g transform="translate(0,310) scale(0.158108,-0.158108)"
fill="#000000" stroke="none">
<path d="M2170 1942 c-19 -10 -135 -97 -257 -195 -236 -187 -250 -204 -232
-270 4 -15 66 -100 136 -190 71 -89 132 -167 136 -174 4 -6 -16 -55 -45 -107
l-53 -96 -42 0 c-23 0 -164 9 -315 20 l-273 20 -50 58 c-108 125 -152 164
-177 157 -56 -17 -57 -22 -64 -270 -6 -227 -6 -230 15 -257 39 -49 70 -39 155
49 41 43 83 89 93 102 l20 24 518 -37 c501 -36 520 -38 534 -59 63 -90 126
-129 178 -110 29 11 469 359 488 386 8 12 15 38 15 59 0 37 -31 86 -143 220
l-39 48 31 39 c51 64 65 107 65 201 1 75 -3 93 -31 152 -17 37 -50 87 -73 112
-48 52 -140 102 -207 112 -57 8 -141 -10 -187 -41 l-35 -24 -22 31 c-19 26
-72 58 -97 58 -4 0 -23 -8 -42 -18z m428 -161 c79 -41 131 -128 132 -219 0
-49 -21 -115 -40 -127 -4 -2 -67 71 -140 162 l-132 167 22 18 c30 24 110 24
158 -1z"/>
<path d="M550 1100 c-23 -23 -24 -33 -10 -61 10 -17 23 -19 165 -19 142 0 155
2 165 19 14 28 13 38 -10 61 -18 18 -33 20 -155 20 -122 0 -137 -2 -155 -20z"/>
<path d="M293 1039 c-50 -23 -94 -48 -98 -57 -8 -22 22 -62 47 -62 30 0 209
80 215 97 3 8 1 25 -5 39 -16 34 -50 31 -159 -17z"/>
<path d="M485 977 c-40 -10 -51 -17 -59 -39 -16 -46 7 -62 77 -54 75 8 111 25
115 54 7 51 -32 62 -133 39z"/>
<path d="M685 973 c-43 -11 -61 -53 -33 -81 14 -14 155 -16 191 -3 30 12 42
43 27 71 -9 18 -20 20 -88 19 -42 -1 -86 -4 -97 -6z"/>
<path d="M61 909 c-62 -51 -75 -81 -49 -107 22 -22 55 -12 111 34 65 53 73 69
52 100 -23 35 -46 30 -114 -27z"/>
<path d="M252 885 c-50 -24 -95 -51 -98 -59 -8 -22 22 -66 45 -66 31 0 206 93
209 112 4 19 -31 58 -50 58 -7 -1 -55 -21 -106 -45z"/>
<path d="M425 823 c-96 -40 -117 -70 -75 -108 19 -18 22 -17 93 10 39 15 78
32 85 38 27 21 3 89 -31 86 -7 0 -39 -12 -72 -26z"/>
<path d="M755 820 c-33 -10 -79 -24 -102 -30 -51 -13 -70 -41 -54 -76 14 -31
32 -30 160 5 119 34 140 48 125 88 -12 35 -46 39 -129 13z"/>
<path d="M62 689 c-58 -68 -63 -91 -28 -114 31 -21 49 -12 102 52 56 67 58 71
40 98 -27 42 -57 32 -114 -36z"/>
<path d="M437 657 c-69 -43 -83 -62 -72 -97 12 -37 47 -34 118 11 78 48 95 81
57 111 -12 10 -25 18 -29 18 -3 0 -36 -19 -74 -43z"/>
<path d="M712 635 c-68 -29 -131 -59 -139 -68 -20 -19 -9 -51 22 -65 21 -10
43 -3 157 44 121 51 158 73 158 96 0 15 -40 48 -57 47 -10 0 -74 -24 -141 -54z"/>
<path d="M201 630 c-63 -52 -73 -76 -45 -104 24 -25 41 -20 105 30 47 38 59
53 59 75 0 27 -22 49 -49 49 -5 0 -37 -23 -70 -50z"/>
<path d="M425 479 c-65 -61 -79 -91 -53 -117 26 -26 59 -12 124 51 35 35 64
68 64 75 0 17 -37 52 -55 52 -8 0 -44 -28 -80 -61z"/>
<path d="M197 464 c-50 -60 -57 -83 -31 -108 28 -28 52 -18 104 45 51 61 60
85 38 107 -27 27 -62 13 -111 -44z"/>
<path d="M44 474 c-41 -43 -46 -90 -11 -103 27 -11 54 4 84 48 23 34 21 57 -5
79 -23 18 -31 15 -68 -24z"/>
<path d="M282 332 c-34 -34 -82 -110 -82 -130 0 -26 24 -44 51 -40 31 4 108
105 109 140 0 44 -46 62 -78 30z"/>
<path d="M23 287 c-26 -53 -21 -85 15 -94 35 -8 53 6 71 56 19 51 8 75 -35 79
-26 3 -32 -2 -51 -41z"/>
<path d="M128 133 c-24 -28 -40 -80 -33 -102 7 -22 46 -38 65 -26 14 8 50 80
50 99 0 20 -28 46 -49 46 -10 0 -25 -8 -33 -17z"/>
</g>
</svg>
