<?xml version="1.0" standalone="no"?>
<!DOCTYPE svg PUBLIC "-//W3C//DTD SVG 20010904//EN"
 "http://www.w3.org/TR/2001/REC-SVG-20010904/DTD/svg10.dtd">
<svg version="1.0" xmlns="http://www.w3.org/2000/svg"
 width="468pt" height="468pt" viewBox="0 0 468 468"
 preserveAspectRatio="xMidYMid meet">
<metadata>
Created by potrace 1.8, written by Peter Selinger 2001-2007
</metadata>
<g transform="translate(0,468) scale(0.158644,-0.158644)"
fill="#000000" stroke="none">
<path d="M340 2932 c-52 -26 -70 -70 -70 -174 l0 -88 -112 0 c-62 0 -118 -4
-124 -8 -27 -18 -34 -56 -34 -195 0 -194 -3 -191 154 -195 l116 -4 0 -804 0
-804 -114 0 c-112 0 -115 -1 -135 -26 -19 -24 -21 -40 -21 -176 0 -145 1 -150
25 -173 23 -24 31 -25 135 -25 l110 0 0 -81 c0 -152 30 -179 200 -179 170 0
200 27 200 179 l0 81 200 0 200 0 0 -87 c0 -99 19 -146 66 -163 14 -6 76 -10
138 -10 101 0 116 2 141 22 39 31 55 77 55 163 l0 75 190 0 190 0 0 -73 c0
-56 5 -83 23 -117 28 -56 60 -69 180 -69 158 -1 197 34 197 182 l0 87 90 0
c83 0 93 2 115 25 24 23 25 28 25 170 0 141 -7 179 -34 197 -6 4 -53 8 -103 8
l-93 0 0 805 0 805 100 0 c135 0 135 0 135 203 l0 149 -28 24 c-25 21 -37 24
-118 24 l-89 0 0 93 c0 74 -4 98 -20 125 -27 45 -53 52 -184 52 -101 0 -116
-2 -141 -22 -40 -31 -55 -77 -55 -168 l0 -80 -189 0 -189 0 -4 93 c-6 149 -39
177 -206 177 -153 0 -192 -37 -192 -182 l0 -88 -200 0 -200 0 0 83 c0 150 -39
187 -200 187 -70 0 -104 -5 -130 -18z m1779 -1452 l-2 -1340 -63 0 -64 0 0
1340 0 1340 65 0 66 0 -2 -1340z m-1579 -10 l0 -1340 -70 0 -70 0 0 1340 0
1340 70 0 70 0 0 -1340z m790 0 l0 -1340 -65 0 -65 0 0 1340 0 1340 65 0 65 0
0 -1340z m-260 5 l0 -805 -200 0 -200 0 0 805 0 805 200 0 200 0 0 -805z m780
-10 l0 -805 -190 0 -190 0 0 805 0 805 190 0 190 0 0 -805z"/>
<path d="M2602 2670 c-34 -14 -42 -50 -42 -199 0 -125 2 -141 21 -165 l20 -26
154 0 155 0 17 27 c15 23 18 50 18 176 l0 149 -28 24 c-27 23 -35 24 -160 23
-73 0 -142 -4 -155 -9z m208 -195 l0 -65 -60 0 -60 0 0 65 0 65 60 0 60 0 0
-65z"/>
</g>
</svg>
