<?xml version="1.0" standalone="no"?>
<!DOCTYPE svg PUBLIC "-//W3C//DTD SVG 20010904//EN"
 "http://www.w3.org/TR/2001/REC-SVG-20010904/DTD/svg10.dtd">
<svg version="1.0" xmlns="http://www.w3.org/2000/svg"
 width="468pt" height="470pt" viewBox="0 0 468 470"
 preserveAspectRatio="xMidYMid meet">
<metadata>
Created by potrace 1.8, written by Peter Selinger 2001-2007
</metadata>
<g transform="translate(0,470) scale(0.158108,-0.158108)"
fill="#000000" stroke="none">
<path d="M942 2887 c-53 -53 -72 -79 -72 -99 0 -30 41 -68 73 -68 30 0 167
140 167 171 0 40 -27 69 -63 69 -27 0 -45 -12 -105 -73z"/>
<path d="M324 2710 c-16 -5 -41 -21 -55 -36 -24 -25 -24 -28 -27 -246 -3 -243
-2 -250 61 -288 29 -18 51 -20 225 -20 217 0 248 7 282 62 18 30 20 50 20 236
0 301 5 296 -280 299 -107 1 -209 -2 -226 -7z m376 -290 l0 -160 -165 0 -165
0 0 160 0 160 165 0 165 0 0 -160z"/>
<path d="M1010 2470 c-27 -27 -25 -66 5 -95 l24 -25 259 0 c247 0 261 1 286
21 32 25 35 70 6 99 -19 19 -33 20 -290 20 -257 0 -271 -1 -290 -20z"/>
<path d="M68 2033 c-70 -71 -80 -102 -44 -137 41 -42 65 -34 140 44 60 62 67
74 62 98 -9 35 -32 52 -71 52 -24 0 -43 -12 -87 -57z"/>
<path d="M875 2070 c-40 -45 -29 -61 177 -266 136 -137 201 -194 216 -194 29
0 72 43 72 71 0 16 -57 81 -192 216 -168 169 -196 193 -224 193 -18 0 -38 -8
-49 -20z"/>
<path d="M486 1948 c-14 -19 -16 -64 -16 -286 l0 -263 25 -24 c30 -30 54 -31
89 -4 l26 20 0 268 c0 305 -1 311 -70 311 -29 0 -43 -6 -54 -22z"/>
<path d="M1692 1013 c-847 -642 -1174 -896 -1183 -917 -10 -24 -10 -33 2 -55
l15 -26 1195 -3 c1129 -2 1197 -1 1211 15 14 16 17 123 23 918 l7 900 -22 28
c-14 18 -31 27 -49 27 -22 0 -296 -203 -1199 -887z m1128 -30 c0 -390 -3 -738
-7 -775 l-6 -68 -1015 0 c-813 0 -1014 3 -1004 12 21 21 2016 1536 2025 1537
4 1 7 -317 7 -706z"/>
<path d="M1655 1284 c-418 -322 -781 -603 -806 -624 -53 -45 -61 -65 -43 -108
14 -33 55 -52 77 -35 6 6 359 277 782 603 424 326 782 604 798 618 19 18 27
36 27 59 0 36 -29 73 -57 73 -10 0 -360 -264 -778 -586z"/>
</g>
</svg>
