<?xml version="1.0" standalone="no"?>
<!DOCTYPE svg PUBLIC "-//W3C//DTD SVG 20010904//EN"
 "http://www.w3.org/TR/2001/REC-SVG-20010904/DTD/svg10.dtd">
<svg version="1.0" xmlns="http://www.w3.org/2000/svg"
 width="468pt" height="438pt" viewBox="0 0 468 438"
 preserveAspectRatio="xMidYMid meet">
<metadata>
Created by potrace 1.8, written by Peter Selinger 2001-2007
</metadata>
<g transform="translate(0,438) scale(0.159727,-0.159727)"
fill="#000000" stroke="none">
<path d="M1633 2706 c-27 -24 -28 -27 -31 -145 l-4 -121 -639 0 c-518 0 -646
-3 -672 -14 -42 -17 -83 -66 -97 -114 -14 -51 -14 -1653 0 -1704 14 -48 55
-97 97 -114 26 -11 154 -14 673 -14 l640 0 0 -107 0 -108 -30 -17 c-40 -23
-53 -59 -48 -137 4 -55 8 -67 32 -87 l27 -24 350 0 c221 0 357 4 370 10 67 37
64 214 -6 240 l-25 10 0 134 0 134 85 40 c321 154 520 433 566 791 28 227 -47
505 -189 691 -104 138 -278 274 -414 325 l-48 18 0 139 0 140 -29 29 -29 29
-276 0 -275 0 -28 -24z m-292 -456 c-417 -314 -513 -898 -222 -1340 50 -77
164 -194 241 -249 l65 -46 -539 -3 c-390 -1 -543 1 -552 9 -19 16 -21 1658 -2
1677 9 9 145 12 551 12 l538 0 -80 -60z m792 44 c77 -17 249 -95 307 -138 171
-129 295 -323 335 -525 21 -101 16 -291 -9 -386 -24 -91 -108 -252 -170 -327
-106 -127 -267 -232 -426 -278 -97 -28 -264 -37 -367 -20 -334 53 -606 302
-694 635 -25 95 -30 285 -10 380 67 315 314 574 625 655 93 25 307 27 409 4z"/>
<path d="M1702 2203 c-12 -10 -24 -30 -28 -45 -5 -23 2 -35 46 -83 l53 -55
-31 0 c-45 0 -170 -42 -220 -74 -144 -91 -239 -249 -245 -408 -2 -68 12 -88
63 -88 49 0 66 21 74 95 17 164 145 304 304 333 l52 9 -44 -47 c-24 -25 -47
-57 -51 -69 -10 -34 23 -75 64 -79 30 -3 43 7 149 111 153 152 154 141 -5 298
-124 123 -143 134 -181 102z"/>
<path d="M17 2422 c-16 -17 -17 -98 -17 -960 0 -929 0 -942 20 -962 29 -29 74
-26 99 6 21 27 21 31 21 954 0 923 0 927 -21 954 -25 32 -77 36 -102 8z"/>
</g>
</svg>
