<?xml version="1.0" standalone="no"?>
<!DOCTYPE svg PUBLIC "-//W3C//DTD SVG 20010904//EN"
 "http://www.w3.org/TR/2001/REC-SVG-20010904/DTD/svg10.dtd">
<svg version="1.0" xmlns="http://www.w3.org/2000/svg"
 width="468pt" height="424pt" viewBox="0 0 468 424"
 preserveAspectRatio="xMidYMid meet">
<metadata>
Created by potrace 1.8, written by Peter Selinger 2001-2007
</metadata>
<g transform="translate(0,424) scale(0.158644,-0.158644)"
fill="#000000" stroke="none">
<path d="M436 2648 c-40 -36 -436 -561 -436 -578 1 -31 35 -61 78 -67 l42 -6
0 -52 c0 -37 6 -60 19 -76 l19 -24 309 -3 c302 -3 310 -2 336 18 24 19 27 28
27 81 l0 59 36 0 c46 0 99 48 89 81 -10 29 -423 567 -445 579 -28 15 -46 12
-74 -12z m178 -333 c69 -91 126 -167 126 -170 0 -3 -117 -5 -260 -5 -143 0
-260 2 -260 5 0 10 253 335 260 335 4 0 65 -74 134 -165z m86 -330 c0 -13 -31
-15 -220 -15 -189 0 -220 2 -220 15 0 13 31 15 220 15 189 0 220 -2 220 -15z"/>
<path d="M1426 2638 c-56 -54 -426 -548 -426 -569 0 -33 45 -69 85 -69 l35 0
0 -55 c0 -46 4 -60 25 -81 l25 -25 311 3 311 3 19 24 c13 16 19 39 19 77 l0
54 34 0 c44 0 86 33 86 68 0 20 -57 102 -205 297 -113 149 -215 278 -226 288
-31 25 -55 21 -93 -15z m189 -328 l127 -165 -131 -3 c-71 -1 -190 -1 -264 0
l-134 3 131 171 c72 95 134 169 138 165 4 -3 64 -80 133 -171z m75 -325 c0
-13 -31 -15 -220 -15 -189 0 -220 2 -220 15 0 13 31 15 220 15 189 0 220 -2
220 -15z"/>
<path d="M2438 2658 c-9 -7 -111 -137 -227 -288 -151 -197 -210 -283 -211
-302 0 -35 42 -68 86 -68 l34 0 0 -59 c0 -52 3 -62 26 -80 26 -20 38 -21 320
-21 193 0 301 4 317 11 32 14 47 49 47 104 0 45 0 45 35 45 41 0 85 36 85 70
0 18 -380 530 -432 582 -21 21 -57 23 -80 6z m170 -343 l130 -170 -128 -3
c-71 -1 -190 -1 -264 0 l-135 3 132 172 c72 95 132 171 133 170 1 -1 61 -78
132 -172z m82 -330 c0 -13 -31 -15 -220 -15 -189 0 -220 2 -220 15 0 13 31 15
220 15 189 0 220 -2 220 -15z"/>
<path d="M112 1623 c-35 -7 -89 -64 -101 -108 -15 -55 -15 -1329 0 -1389 7
-27 24 -57 45 -77 l35 -34 1378 -3 1378 -2 34 23 c72 48 69 12 69 786 l0 693
-22 39 c-14 25 -37 46 -63 59 -41 20 -60 20 -1386 19 -739 -1 -1354 -4 -1367
-6z m2703 -808 l0 -670 -1335 0 -1335 0 -3 673 -2 672 1337 -2 1338 -3 0 -670z"/>
<path d="M470 1260 c-26 -26 -26 -74 0 -100 20 -20 33 -20 1005 -20 1070 0
1028 2 1073 -55 30 -37 31 -125 2 -165 -45 -63 12 -60 -1084 -60 -992 0 -995
0 -1052 -21 -231 -87 -231 -411 0 -498 57 -21 60 -21 1056 -21 l999 0 15 22
c22 31 20 71 -5 94 -20 18 -56 19 -1023 24 -841 4 -1004 7 -1022 19 -54 36
-73 121 -39 178 36 62 -32 58 1080 63 1011 5 1020 5 1066 26 60 28 115 78 142
128 31 58 31 193 0 251 -29 54 -78 99 -138 127 l-50 23 -1002 3 c-994 2 -1003
2 -1023 -18z"/>
</g>
</svg>
