<?xml version="1.0" standalone="no"?>
<!DOCTYPE svg PUBLIC "-//W3C//DTD SVG 20010904//EN"
 "http://www.w3.org/TR/2001/REC-SVG-20010904/DTD/svg10.dtd">
<svg version="1.0" xmlns="http://www.w3.org/2000/svg"
 width="468pt" height="261pt" viewBox="0 0 468 261"
 preserveAspectRatio="xMidYMid meet">
<metadata>
Created by potrace 1.8, written by Peter Selinger 2001-2007
</metadata>
<g transform="translate(0,261) scale(0.158108,-0.158108)"
fill="#000000" stroke="none">
<path d="M390 1631 c-5 -11 -10 -56 -10 -101 0 -131 -31 -120 338 -120 234 0
321 3 330 12 16 16 16 200 0 216 -9 9 -96 12 -330 12 -303 0 -318 -1 -328 -19z"/>
<path d="M1919 1534 c-20 -24 -17 -93 4 -109 13 -9 17 -27 17 -79 l0 -66 -119
0 -118 0 -5 75 c-3 41 -11 81 -18 90 -9 11 -32 15 -81 15 -74 0 -89 -11 -89
-64 0 -23 -2 -24 -32 -15 -46 13 -1253 12 -1300 -1 -52 -15 -117 -67 -142
-115 -20 -38 -21 -57 -24 -403 -2 -227 1 -377 8 -401 16 -62 51 -104 109 -133
l55 -28 603 0 603 0 0 -30 0 -30 -305 0 c-353 0 -325 10 -325 -115 0 -126 -38
-115 395 -115 433 0 395 -11 395 114 l0 76 49 0 c78 0 93 19 99 123 l5 87 511
0 c474 0 514 1 545 18 31 17 62 60 75 105 4 13 16 17 50 17 70 0 76 12 76 145
0 133 -6 145 -76 145 l-44 0 0 153 c0 139 -2 157 -22 197 -17 33 -35 51 -68
68 -42 21 -56 22 -262 22 l-218 0 0 63 c0 51 4 68 20 82 22 20 27 73 10 106
-10 18 -23 19 -189 19 -153 0 -181 -2 -192 -16z m-449 -299 c22 -13 -45 -14
-537 -15 -546 0 -563 -1 -573 -19 -14 -28 -13 -38 10 -61 20 -20 33 -20 580
-20 491 0 560 -2 560 -15 0 -13 -72 -15 -587 -15 -532 0 -588 -2 -605 -17 -22
-20 -23 -41 -1 -65 15 -17 47 -18 605 -18 516 0 588 -2 588 -15 0 -13 -72 -15
-585 -15 -572 0 -585 0 -605 -20 -23 -23 -24 -33 -10 -61 10 -18 28 -19 605
-19 588 0 595 0 595 -20 0 -20 -7 -20 -595 -20 -577 0 -595 -1 -605 -19 -14
-28 -13 -38 10 -61 20 -20 33 -20 605 -20 513 0 585 -2 585 -15 0 -13 -72 -15
-587 -15 -532 0 -588 -2 -605 -17 -22 -20 -23 -41 -1 -65 15 -17 47 -18 605
-18 516 0 588 -2 588 -15 0 -13 -69 -15 -560 -15 -547 0 -560 0 -580 -20 -23
-23 -24 -33 -10 -61 10 -18 27 -19 567 -19 446 0 555 -3 545 -12 -10 -10 -152
-13 -642 -13 l-630 0 -27 28 -28 27 -3 335 c-3 361 1 395 50 415 13 5 287 9
638 9 515 0 619 -2 640 -14z"/>
</g>
</svg>
