<?xml version="1.0" standalone="no"?>
<!DOCTYPE svg PUBLIC "-//W3C//DTD SVG 20010904//EN"
 "http://www.w3.org/TR/2001/REC-SVG-20010904/DTD/svg10.dtd">
<svg version="1.0" xmlns="http://www.w3.org/2000/svg"
 width="468pt" height="468pt" viewBox="0 0 468 468"
 preserveAspectRatio="xMidYMid meet">
<metadata>
Created by potrace 1.8, written by Peter Selinger 2001-2007
</metadata>
<g transform="translate(0,468) scale(0.158108,-0.158108)"
fill="#000000" stroke="none">
<path d="M273 2945 c-60 -26 -68 -51 -71 -232 l-4 -163 -54 0 c-30 0 -68 -7
-84 -15 -64 -33 -60 43 -60 -1263 l0 -1189 22 -28 c44 -57 18 -55 895 -55 504
0 821 4 844 10 19 6 46 22 60 36 l24 26 3 764 2 764 74 0 c89 0 119 18 119 70
0 52 -30 70 -119 70 l-74 0 0 210 0 210 79 0 c83 0 103 9 116 50 3 11 0 32 -7
47 -13 27 -16 28 -101 31 l-87 3 0 85 c0 56 -5 95 -15 114 -29 55 -52 60 -294
60 l-220 0 -3 169 c-3 187 -7 199 -75 227 -48 20 -923 20 -970 -1z m917 -260
l0 -135 -425 0 -425 0 0 135 0 135 425 0 425 0 0 -135z m530 -330 l0 -65 -262
0 -261 0 -331 -56 c-182 -30 -341 -62 -353 -70 -29 -18 -32 -83 -6 -106 17
-15 642 -128 716 -130 44 -2 73 37 68 89 -3 29 -37 41 -175 64 -80 12 -143 26
-139 29 5 4 67 17 138 28 108 19 170 22 368 22 l237 0 0 -210 0 -210 -240 0
-240 0 -322 55 c-178 30 -340 55 -360 55 -27 0 -41 -6 -52 -22 -23 -33 -20
-75 7 -92 12 -8 171 -40 352 -72 l330 -57 263 -5 262 -4 0 -729 0 -729 -795 0
-795 0 0 1140 0 1140 795 0 795 0 0 -65z"/>
<path d="M423 2750 c-44 -18 -56 -77 -23 -110 18 -18 33 -20 183 -20 146 0
166 2 180 18 10 10 17 32 17 48 0 64 -28 74 -197 73 -76 0 -148 -4 -160 -9z"/>
<path d="M1004 2749 c-43 -22 -50 -71 -16 -111 20 -23 108 -24 140 -2 29 20
30 74 2 99 -23 21 -96 29 -126 14z"/>
<path d="M506 1988 c-21 -30 -20 -71 2 -90 17 -16 646 -128 715 -128 21 0 41
7 51 19 22 24 24 80 3 96 -17 12 -672 126 -724 125 -21 0 -37 -7 -47 -22z"/>
<path d="M774 1528 c-31 -15 -57 -68 -99 -202 -46 -151 -71 -202 -145 -301
-72 -96 -101 -166 -107 -260 -16 -225 128 -429 350 -497 97 -29 219 -23 299
16 116 55 213 170 258 306 73 223 2 549 -161 734 -63 72 -110 68 -157 -13
l-28 -50 -22 68 c-28 85 -93 188 -128 201 -30 12 -33 12 -60 -2z m64 -250 c6
-24 14 -59 18 -78 11 -62 32 -98 65 -115 50 -26 100 -7 145 56 20 27 38 49 40
49 11 0 77 -149 95 -217 31 -111 30 -253 -2 -348 l-23 -70 -7 80 c-8 107 -41
202 -94 274 -45 61 -80 80 -115 61 -29 -15 -37 -12 -50 20 -30 72 -98 103
-141 64 -10 -9 -34 -65 -54 -125 -24 -70 -49 -124 -73 -156 -20 -26 -47 -68
-58 -92 l-21 -43 -7 54 c-7 54 5 131 26 172 6 11 35 53 64 91 64 84 102 161
140 278 15 48 31 87 35 87 3 0 11 -19 17 -42z m28 -517 c32 -25 62 -22 106 9
l27 20 15 -48 c41 -124 26 -241 -39 -306 -58 -58 -145 -58 -215 0 -43 37 -60
75 -60 135 0 45 6 59 46 115 25 35 52 81 61 102 14 34 16 35 23 16 5 -12 21
-31 36 -43z"/>
<path d="M2338 2341 l-33 -29 -3 -635 -2 -635 -35 -35 -35 -35 0 -187 0 -187
34 -34 34 -34 206 0 206 0 32 29 33 29 3 192 3 191 -35 35 c-32 32 -36 42 -36
85 l0 49 109 0 c102 0 111 2 125 22 21 30 20 61 -3 89 -18 23 -26 24 -125 24
l-106 0 0 105 0 105 106 0 c99 0 107 1 125 24 25 30 24 66 -2 92 -18 18 -30
20 -125 17 l-104 -3 0 103 0 102 109 0 c102 0 111 2 125 22 9 12 16 32 16 43
0 11 -7 31 -16 43 -14 20 -23 22 -125 22 l-109 0 0 98 0 97 102 -3 c116 -3
134 4 144 55 5 26 1 37 -20 58 -26 26 -30 27 -125 23 l-99 -3 -18 35 c-29 52
-53 60 -196 60 -127 0 -128 0 -160 -29z m232 -476 l0 -375 -70 0 -70 0 0 375
0 375 70 0 70 0 0 -375z"/>
</g>
</svg>
