<?xml version="1.0" standalone="no"?>
<!DOCTYPE svg PUBLIC "-//W3C//DTD SVG 20010904//EN"
 "http://www.w3.org/TR/2001/REC-SVG-20010904/DTD/svg10.dtd">
<svg version="1.0" xmlns="http://www.w3.org/2000/svg"
 width="468pt" height="413pt" viewBox="0 0 468 413"
 preserveAspectRatio="xMidYMid meet">
<metadata>
Created by potrace 1.8, written by Peter Selinger 2001-2007
</metadata>
<g transform="translate(0,413) scale(0.157576,-0.157576)"
fill="#000000" stroke="none">
<path d="M2375 2586 c-28 -43 7 -81 65 -69 39 7 57 40 41 72 -17 31 -85 30
-106 -3z"/>
<path d="M2570 2597 c-49 -25 -34 -87 22 -87 45 0 68 17 68 50 0 45 -41 62
-90 37z"/>
<path d="M2214 2590 c-30 -12 -37 -39 -19 -66 19 -30 67 -32 95 -4 25 25 25
42 2 63 -20 18 -45 21 -78 7z"/>
<path d="M2055 2548 c-65 -23 -84 -65 -42 -93 28 -18 81 -5 110 27 22 26 21
34 -3 58 -22 22 -23 23 -65 8z"/>
<path d="M1849 2440 c-65 -49 -75 -64 -60 -96 16 -35 53 -30 112 13 60 45 72
78 39 105 -12 10 -25 18 -29 18 -4 0 -32 -18 -62 -40z"/>
<path d="M2442 2464 c-24 -17 -29 -53 -10 -72 7 -7 33 -12 59 -12 37 0 51 5
62 21 22 31 10 57 -32 69 -48 13 -53 13 -79 -6z"/>
<path d="M2255 2437 c-57 -21 -60 -24 -60 -56 0 -52 19 -58 106 -30 67 22 74
27 77 52 4 34 -13 57 -42 56 -11 0 -48 -10 -81 -22z"/>
<path d="M2637 2445 c-35 -35 -6 -85 49 -85 35 0 54 16 54 46 0 42 -73 70
-103 39z"/>
<path d="M2772 2388 c-7 -7 -12 -24 -12 -40 0 -31 24 -48 69 -48 55 0 67 71
14 91 -33 12 -57 11 -71 -3z"/>
<path d="M2056 2345 c-103 -70 -115 -87 -89 -124 19 -28 47 -26 91 6 93 68
109 95 74 126 -24 22 -33 21 -76 -8z"/>
<path d="M1693 2288 c-45 -50 -113 -151 -113 -169 0 -23 42 -52 64 -43 9 3 44
45 78 91 54 75 60 89 52 112 -13 35 -52 40 -81 9z"/>
<path d="M1823 2164 c-63 -54 -71 -98 -22 -116 32 -12 139 75 139 113 0 62
-48 63 -117 3z"/>
<path d="M1532 2031 c-12 -7 -102 -238 -102 -261 0 -15 31 -40 50 -40 31 0 45
23 90 151 l42 123 -22 18 c-24 20 -38 22 -58 9z"/>
<path d="M1718 2028 c-9 -7 -47 -77 -83 -156 -65 -138 -66 -143 -51 -167 16
-25 40 -31 62 -17 16 10 144 280 144 303 0 10 -10 25 -22 33 -27 19 -30 19
-50 4z"/>
<path d="M442 1854 c-24 -17 -29 -56 -9 -72 20 -17 142 -19 161 -3 19 16 21
55 4 68 -7 6 -40 13 -74 16 -46 5 -66 3 -82 -9z"/>
<path d="M288 1849 c-43 -16 -48 -68 -8 -89 27 -14 101 10 111 36 18 50 -36
77 -103 53z"/>
<path d="M687 1832 c-37 -40 -19 -67 67 -98 72 -26 99 -22 109 16 8 30 -20 55
-86 79 -70 25 -70 25 -90 3z"/>
<path d="M117 1782 c-72 -44 -28 -128 45 -85 48 28 61 54 42 81 -18 26 -49 28
-87 4z"/>
<path d="M885 1720 c-9 -10 -15 -26 -12 -34 3 -8 45 -48 94 -90 90 -77 127
-92 153 -62 22 28 5 56 -85 131 -93 78 -120 88 -150 55z"/>
<path d="M510 1611 c-14 -28 -13 -38 10 -61 16 -16 33 -20 86 -20 80 0 104 11
104 48 0 44 -16 52 -107 52 -71 0 -84 -3 -93 -19z"/>
<path d="M350 1596 c-46 -18 -56 -27 -58 -50 -4 -32 13 -56 39 -56 10 0 43 11
74 24 45 21 55 29 55 50 0 26 -23 56 -43 56 -7 -1 -37 -11 -67 -24z"/>
<path d="M765 1580 c-15 -16 -17 -26 -9 -47 7 -21 30 -34 133 -74 69 -27 132
-49 142 -49 26 0 44 37 31 65 -8 17 -44 36 -141 74 -72 28 -133 51 -135 51 -1
0 -11 -9 -21 -20z"/>
<path d="M1383 1566 c-26 -31 -33 -34 -80 -33 -39 1 -60 -5 -81 -20 -19 -14
-34 -18 -49 -12 -28 10 -63 -15 -63 -46 0 -17 11 -32 35 -47 l35 -23 0 -267 0
-268 -94 0 c-111 0 -139 -14 -139 -70 0 -22 7 -39 22 -52 21 -17 47 -18 335
-18 348 0 356 1 356 64 0 62 -15 71 -139 74 -106 4 -111 5 -111 25 0 21 4 22
77 19 47 -2 85 1 99 9 36 19 210 6 349 -27 86 -20 147 -28 215 -29 106 0 139
12 232 86 61 48 89 55 263 69 216 16 294 46 316 119 23 79 -25 143 -157 209
-78 39 -105 71 -97 116 4 27 1 36 -22 54 -36 28 -60 28 -90 -3 -20 -19 -25
-34 -25 -75 0 -87 37 -133 171 -211 51 -29 68 -44 58 -49 -8 -5 -66 -13 -129
-19 -223 -22 -311 -47 -382 -110 -18 -15 -43 -33 -55 -40 -39 -20 -152 -12
-283 19 -82 20 -165 33 -243 37 -65 3 -120 10 -123 15 -3 4 -43 8 -90 8 l-84
0 0 180 0 180 35 54 c39 61 42 77 19 100 -24 25 -50 19 -81 -18z m-73 -421 c0
-256 -2 -295 -15 -295 -13 0 -15 39 -15 295 0 256 2 295 15 295 13 0 15 -39
15 -295z"/>
<path d="M157 1500 c-39 -25 -47 -35 -47 -60 0 -46 37 -60 84 -30 34 21 66 56
66 72 0 10 -38 48 -48 48 -4 0 -29 -13 -55 -30z"/>
<path d="M57 1368 c-9 -5 -27 -27 -38 -50 -27 -53 -15 -88 30 -88 57 0 97 122
45 140 -11 5 -28 4 -37 -2z"/>
<path d="M22 679 c3 -21 10 -25 55 -30 176 -22 273 -208 273 -525 0 -104 10
-133 39 -114 24 14 -1 312 -34 415 -3 11 1 8 9 -7 26 -44 56 -186 63 -296 6
-102 11 -115 46 -117 24 -2 33 18 41 90 4 33 13 85 20 115 12 52 13 49 8 -71
-4 -111 -3 -127 12 -132 22 -9 23 -2 30 125 8 138 26 196 76 248 44 45 46 52
27 68 -9 8 -30 -4 -80 -44 -78 -64 -88 -81 -113 -188 l-18 -79 -13 79 c-45
292 -177 455 -389 480 -55 7 -56 6 -52 -17z"/>
<path d="M37 548 c-2 -7 13 -33 33 -58 74 -89 90 -151 90 -338 0 -128 7 -156
36 -145 24 9 17 234 -12 372 -5 25 -5 25 12 -4 29 -49 44 -134 44 -246 0 -78
4 -110 14 -118 10 -9 16 -8 26 4 10 12 11 43 6 130 -12 206 -44 282 -151 362
-72 55 -90 62 -98 41z"/>
<path d="M2070 513 c-118 -20 -202 -85 -256 -197 -18 -38 -36 -88 -40 -112 -9
-62 -21 -63 -29 -4 -11 79 -52 148 -123 208 -35 29 -67 50 -73 46 -5 -3 -16 0
-24 6 -11 9 -31 3 -95 -30 -92 -48 -149 -106 -170 -172 -7 -24 -15 -46 -16
-49 -2 -3 -26 16 -55 43 -28 26 -59 48 -67 48 -11 0 -7 9 16 29 34 32 42 61
16 61 -22 0 -129 -75 -152 -107 -25 -36 -39 -81 -56 -179 -12 -63 -12 -82 -2
-92 19 -20 31 2 44 83 13 75 31 149 37 143 1 -1 -1 -25 -5 -53 -14 -84 -12
-172 4 -178 25 -10 34 16 38 118 2 62 10 110 19 128 15 28 15 28 33 8 24 -27
35 -81 36 -172 0 -58 4 -78 15 -82 22 -9 27 7 28 95 1 89 9 81 28 -27 11 -64
23 -85 39 -69 4 5 13 55 19 112 7 63 19 119 32 147 32 68 37 62 17 -18 -23
-90 -22 -242 2 -242 12 0 17 25 26 120 16 167 37 211 131 276 l43 30 30 -33
c65 -70 90 -156 90 -310 0 -73 1 -78 21 -78 21 0 22 3 17 120 -3 66 -4 119 -2
117 2 -1 12 -53 23 -115 11 -62 23 -117 25 -121 4 -6 20 -7 57 -2 3 1 9 38 12
84 10 135 25 157 19 30 -5 -108 -4 -113 15 -113 18 0 21 9 27 100 16 228 74
329 206 356 44 8 55 15 55 30 0 20 -14 24 -55 17z"/>
<path d="M959 445 c-76 -46 -114 -93 -135 -162 -26 -89 -26 -89 -31 -76 -6 17
-100 83 -118 83 -24 0 -17 -38 9 -55 33 -22 47 -62 55 -152 5 -60 10 -78 21
-78 9 0 17 13 20 30 l6 30 7 -33 c5 -25 11 -33 24 -30 15 3 19 19 25 108 8
110 27 191 52 225 13 18 13 13 0 -40 -15 -64 -19 -280 -6 -289 21 -13 30 18
35 129 7 168 20 208 79 268 46 46 57 78 26 76 -7 0 -38 -16 -69 -34z"/>
<path d="M2145 469 c-4 -5 16 -34 43 -63 60 -63 72 -99 78 -226 4 -92 4 -94
-9 -48 -7 25 -21 58 -31 72 -19 30 -92 86 -112 86 -27 0 -25 -23 4 -53 44 -47
52 -69 52 -144 0 -38 5 -74 11 -80 18 -18 39 -4 40 26 1 25 2 25 8 -4 5 -25
11 -30 36 -30 55 0 57 7 50 134 -4 64 -13 137 -20 164 -7 26 -10 47 -8 47 2 0
16 -25 30 -56 21 -47 27 -76 31 -170 3 -63 8 -114 11 -115 3 0 14 -2 23 -4 24
-4 26 0 43 98 23 135 32 141 27 19 -4 -106 -4 -112 15 -112 18 0 21 9 26 99 3
55 13 116 22 137 l15 37 21 -27 c21 -27 46 -167 33 -188 -12 -19 6 -58 26 -58
18 0 20 7 21 83 l1 82 15 -65 c21 -90 30 -111 46 -104 10 4 16 32 20 99 4 72
12 108 31 151 30 66 41 68 22 4 -21 -71 -30 -234 -14 -248 26 -21 35 4 41 108
9 161 30 206 143 297 32 26 37 33 26 44 -11 12 -26 7 -90 -26 -100 -51 -155
-106 -177 -177 l-18 -55 -44 44 c-25 23 -48 43 -51 43 -4 0 -13 4 -20 9 -10 6
-6 15 18 39 31 31 33 52 4 52 -7 0 -41 -19 -73 -42 -59 -42 -110 -113 -112
-154 -1 -21 -3 -14 -33 89 -21 71 -66 124 -141 166 -59 34 -70 36 -80 20z"/>
<path d="M2029 376 c-61 -45 -86 -78 -104 -139 -16 -53 -21 -222 -7 -231 20
-12 29 16 35 104 8 145 24 164 19 22 -4 -104 -2 -120 12 -125 21 -8 23 -2 31
118 8 137 19 172 67 222 65 67 27 87 -53 29z"/>
<path d="M1459 265 c-26 -20 -53 -51 -62 -72 -19 -45 -40 -159 -32 -173 8 -14
35 -13 35 1 0 8 5 8 15 -1 31 -26 45 -5 45 69 0 80 11 115 47 153 15 16 23 33
20 42 -9 22 -16 20 -68 -19z"/>
<path d="M2889 260 c-54 -46 -76 -93 -85 -184 -6 -62 -6 -66 14 -66 15 0 22 8
25 27 l4 28 2 -27 c1 -21 6 -28 21 -28 17 0 20 7 20 50 0 80 18 143 51 179 16
18 28 38 26 45 -8 23 -33 15 -78 -24z"/>
</g>
</svg>
