<?xml version="1.0" standalone="no"?>
<!DOCTYPE svg PUBLIC "-//W3C//DTD SVG 20010904//EN"
 "http://www.w3.org/TR/2001/REC-SVG-20010904/DTD/svg10.dtd">
<svg version="1.0" xmlns="http://www.w3.org/2000/svg"
 width="468pt" height="467pt" viewBox="0 0 468 467"
 preserveAspectRatio="xMidYMid meet">
<metadata>
Created by potrace 1.8, written by Peter Selinger 2001-2007
</metadata>
<g transform="translate(0,467) scale(0.157576,-0.157576)"
fill="#000000" stroke="none">
<path d="M313 2950 c-162 -14 -259 -44 -283 -91 -6 -11 -10 -315 -10 -786 l0
-769 21 -23 c63 -67 176 -81 650 -81 l389 0 0 -150 c0 -82 -3 -150 -7 -150
-42 0 -734 -125 -750 -136 -17 -11 -23 -24 -23 -53 0 -21 6 -44 14 -50 8 -7
200 -43 427 -82 411 -70 413 -70 438 -51 36 27 41 85 9 105 -13 8 -99 26 -193
41 -93 15 -179 30 -190 33 -18 6 50 20 307 63 107 18 102 8 108 237 l5 198 60
7 c91 12 159 35 188 64 l27 27 0 548 0 549 495 0 495 0 0 -65 c0 -50 -3 -65
-14 -65 -24 0 -46 -29 -46 -60 l0 -29 -250 -3 c-244 -3 -250 -3 -272 -26 -23
-23 -23 -23 -23 -352 0 -319 1 -329 21 -357 l21 -28 252 -3 251 -2 0 -29 c0
-16 -7 -34 -15 -41 -37 -30 -6 -90 46 -90 l29 0 0 -490 0 -490 -667 0 -668 0
-393 67 c-422 71 -438 72 -456 22 -12 -36 0 -76 25 -84 11 -4 199 -37 417 -75
l397 -68 716 -1 c693 -1 717 -1 740 18 l24 19 3 541 3 541 27 0 c16 0 33 5 40
12 17 17 15 77 -3 84 -10 4 -15 19 -15 43 0 33 4 38 35 50 20 7 63 38 97 69
67 63 110 138 129 230 31 149 -68 338 -211 404 -47 22 -49 24 -52 68 -2 35 -8
47 -25 55 -20 8 -22 17 -25 121 -5 172 62 154 -585 154 l-543 0 0 153 c0 170
-4 182 -66 212 -82 39 -173 46 -604 50 -228 2 -461 0 -517 -5z m947 -140 c120
-16 110 -3 110 -146 l0 -124 -121 0 c-104 0 -179 -10 -513 -66 -215 -36 -401
-73 -413 -80 -18 -11 -23 -24 -23 -54 0 -33 19 -70 37 -70 2 0 176 -30 386
-66 210 -36 396 -66 414 -67 19 0 41 7 53 18 25 23 27 76 3 97 -11 10 -95 28
-221 49 -120 20 -196 37 -185 41 55 22 341 58 457 58 l126 0 0 -515 0 -515
-25 -10 c-13 -5 -47 -12 -75 -16 l-50 -7 0 156 c0 161 -6 200 -35 211 -25 9
-774 137 -814 139 -62 2 -99 -85 -48 -117 17 -11 704 -136 747 -136 6 0 10
-54 10 -131 l0 -131 -407 4 c-283 4 -426 9 -465 18 l-58 13 0 713 c0 700 0
713 20 719 10 3 48 10 82 14 90 12 918 12 1008 1z m1426 -751 c142 -72 201
-253 129 -394 -70 -136 -244 -198 -378 -135 -60 28 -130 106 -151 167 -23 68
-21 167 5 221 70 144 255 210 395 141z m-436 -31 c-108 -142 -104 -352 10
-481 l32 -37 -156 0 -156 0 0 285 0 285 155 0 155 0 -40 -52z"/>
<path d="M343 2210 c-46 -18 -59 -90 -20 -114 29 -18 810 -150 843 -142 43 11
63 88 30 115 -7 6 -187 40 -401 76 -215 36 -399 67 -410 69 -11 2 -30 0 -42
-4z"/>
<path d="M322 2007 c-24 -26 -29 -78 -9 -95 7 -6 199 -43 427 -81 409 -70 415
-71 440 -52 35 26 40 84 8 104 -20 13 -775 147 -826 147 -10 0 -28 -10 -40
-23z"/>
<path d="M1780 2170 c-23 -14 -28 -701 -5 -736 17 -26 53 -32 73 -12 17 17 17
729 0 746 -14 14 -47 15 -68 2z"/>
<path d="M13 874 c-9 -23 15 -34 75 -34 39 0 52 -4 52 -15 0 -11 -11 -15 -43
-15 -51 0 -87 -22 -87 -54 0 -34 19 -46 71 -46 26 0 51 -4 54 -10 3 -5 22 -10
40 -10 44 0 73 37 55 69 -10 19 -8 21 15 21 37 0 65 17 65 40 0 18 7 20 78 20
78 0 105 10 95 36 -4 11 -49 14 -234 14 -201 0 -230 -2 -236 -16z"/>
<path d="M1290 871 c-24 -47 0 -91 50 -91 19 0 29 -6 33 -20 4 -17 0 -20 -29
-20 -21 0 -42 -8 -54 -20 -24 -24 -24 -29 -4 -58 14 -20 23 -22 108 -22 81 0
95 3 112 21 18 19 18 22 2 50 -10 16 -15 36 -12 44 4 8 0 25 -8 38 -26 39 -13
47 76 47 l83 0 -5 -25 c-6 -36 14 -55 60 -55 33 0 39 -3 34 -16 -4 -9 1 -27 9
-40 15 -23 20 -24 135 -24 94 0 122 3 134 16 9 8 16 18 16 22 0 4 29 5 65 4
72 -4 95 6 95 42 0 36 -20 46 -93 46 -60 0 -70 -2 -74 -20 -9 -32 -23 -23 -23
15 l0 35 109 0 108 0 -5 -25 c-8 -44 12 -55 103 -55 54 0 86 4 93 13 5 6 10
36 10 65 l0 52 -559 0 c-542 0 -559 -1 -569 -19z"/>
<path d="M2675 880 c-12 -19 17 -40 55 -40 34 0 37 -2 32 -25 -7 -41 13 -55
83 -55 70 0 90 14 82 56 -3 16 0 27 9 31 8 3 14 14 14 24 0 18 -9 19 -134 19
-83 0 -137 -4 -141 -10z"/>
<path d="M2747 732 c-10 -10 -17 -23 -17 -28 0 -5 -15 -16 -33 -24 -60 -28
-45 -90 22 -90 40 0 61 14 61 42 0 29 28 21 32 -9 2 -17 13 -33 31 -43 24 -13
30 -13 55 0 32 18 40 54 18 79 -9 10 -14 25 -10 34 3 9 -3 24 -15 36 -28 28
-120 30 -144 3z"/>
<path d="M1558 729 c-25 -14 -24 -65 1 -79 44 -23 101 1 101 42 0 38 -62 61
-102 37z"/>
<path d="M2212 698 c-17 -17 -15 -67 3 -74 8 -4 15 -14 15 -24 0 -31 25 -41
91 -38 l62 3 30 48 c25 41 28 52 18 73 -10 23 -14 24 -109 24 -63 0 -102 -4
-110 -12z"/>
<path d="M100 630 c-6 -12 -8 -30 -5 -40 5 -15 2 -20 -13 -20 -22 0 -52 -30
-52 -52 0 -9 7 -21 15 -28 14 -11 13 -14 -7 -24 -30 -15 -37 -65 -12 -83 10
-7 30 -13 46 -13 15 0 28 -4 28 -9 0 -41 121 -59 153 -23 21 23 21 41 0 64 -9
10 -21 28 -27 41 -6 12 -21 23 -33 25 l-22 3 20 20 c15 15 19 28 15 45 -6 21
-3 24 18 24 33 0 52 34 37 66 -10 22 -17 24 -80 24 -60 0 -72 -3 -81 -20z"/>
<path d="M1650 630 c-10 -19 -21 -20 -165 -20 l-155 0 -6 -27 c-14 -54 -2 -58
175 -61 156 -2 163 -2 168 18 4 16 14 20 47 20 46 0 66 13 66 45 0 33 -20 45
-72 45 -37 0 -50 -4 -58 -20z"/>
<path d="M2019 629 c-8 -16 -8 -28 0 -45 10 -22 17 -24 80 -24 61 0 72 3 82
21 8 16 8 28 0 45 -10 22 -17 24 -80 24 -61 0 -72 -3 -82 -21z"/>
<path d="M1860 626 c-18 -23 -8 -59 23 -76 24 -13 30 -13 55 0 30 17 40 53 22
76 -7 7 -29 14 -50 14 -21 0 -43 -7 -50 -14z"/>
<path d="M324 565 c-33 -34 -30 -85 6 -101 14 -7 206 -42 428 -80 l403 -68 26
26 c28 29 34 72 11 94 -9 9 -161 40 -424 84 -225 39 -413 70 -417 70 -4 0 -19
-11 -33 -25z"/>
<path d="M2799 519 c-13 -13 -18 -27 -14 -40 5 -16 2 -19 -25 -19 -46 0 -70
-16 -70 -48 0 -47 14 -52 137 -52 108 0 113 1 128 24 13 19 14 29 6 45 -6 10
-8 33 -5 49 5 23 1 33 -17 46 -34 24 -114 21 -140 -5z"/>
<path d="M1756 508 c-9 -12 -16 -26 -16 -30 0 -19 43 -48 70 -48 17 0 30 -4
30 -10 0 -6 -35 -10 -84 -10 -47 0 -88 5 -91 10 -3 6 -17 10 -30 10 -17 0 -23
4 -19 14 3 8 -4 24 -15 35 -18 18 -33 21 -96 21 -68 0 -76 -2 -91 -25 -9 -14
-13 -32 -9 -45 6 -17 2 -20 -28 -20 -19 0 -45 -9 -58 -19 -20 -16 -22 -23 -14
-47 10 -28 12 -29 95 -32 77 -3 87 -1 102 18 11 14 22 19 30 14 20 -13 112
-25 218 -31 87 -4 97 -2 114 16 23 26 110 30 119 7 8 -19 67 -30 112 -22 43 8
63 42 46 75 -10 18 -21 21 -71 21 -62 0 -73 9 -45 36 21 22 19 61 -4 74 -11 5
-71 10 -135 10 -107 0 -116 -1 -130 -22z"/>
<path d="M2084 499 c-17 -19 -17 -23 -3 -47 10 -19 24 -28 47 -30 23 -2 32 -8
32 -21 0 -25 32 -51 62 -51 14 0 31 -7 38 -15 19 -23 122 -20 143 3 10 10 17
25 17 34 0 20 -32 48 -55 48 -17 0 -17 1 -2 18 21 23 22 46 1 66 -12 13 -40
16 -138 16 -112 0 -125 -2 -142 -21z"/>
<path d="M2702 338 c-19 -19 -15 -66 7 -78 11 -5 47 -10 80 -10 64 0 77 -8 39
-25 -13 -6 -24 -19 -26 -30 -2 -18 -9 -20 -68 -17 -76 4 -98 -8 -92 -50 l5
-28 -88 0 c-78 0 -90 -2 -103 -21 -8 -12 -12 -29 -9 -38 12 -35 35 -41 154
-41 127 0 149 8 149 54 0 15 9 25 30 33 22 8 30 18 30 35 0 22 3 23 64 20 77
-4 86 6 78 87 -4 47 -8 55 -32 64 -14 6 -31 20 -36 31 -8 18 -19 21 -89 24
-54 2 -84 -1 -93 -10z"/>
<path d="M60 280 c-6 -12 -8 -30 -5 -40 4 -11 2 -20 -4 -20 -6 0 -18 -11 -27
-26 -16 -24 -16 -26 4 -53 21 -28 21 -29 2 -34 -14 -4 -20 -14 -20 -34 0 -37
16 -53 54 -53 36 0 49 7 63 35 11 18 13 18 41 -13 l30 -32 189 0 c196 0 213 3
213 42 0 13 8 18 30 18 21 0 28 -4 24 -14 -11 -28 32 -56 85 -56 66 0 100 26
86 66 -9 26 -15 29 -63 32 -43 3 -52 6 -52 22 0 34 -38 50 -120 50 -82 0 -120
-16 -120 -51 0 -17 -8 -19 -90 -19 -53 0 -90 4 -90 10 0 6 13 10 28 10 33 0
52 16 52 45 0 31 -19 45 -60 45 -40 0 -60 -14 -60 -42 0 -12 -8 -18 -24 -18
-29 0 -42 46 -20 71 17 19 18 51 2 67 -7 7 -39 12 -75 12 -52 0 -64 -3 -73
-20z m60 -170 c0 -5 -7 -7 -15 -4 -8 4 -15 8 -15 10 0 2 7 4 15 4 8 0 15 -4
15 -10z"/>
<path d="M870 110 c-24 -24 -24 -29 -4 -58 13 -18 24 -23 53 -21 22 2 47 -4
61 -14 27 -19 101 -23 131 -7 23 13 26 62 5 79 -9 7 -40 11 -78 9 -49 -2 -67
1 -80 15 -24 23 -63 22 -88 -3z"/>
<path d="M2208 99 c-21 -12 -24 -59 -6 -77 7 -7 43 -12 89 -12 82 0 109 12
109 50 0 37 -27 50 -103 50 -40 0 -80 -5 -89 -11z"/>
<path d="M1166 78 c-20 -29 -20 -34 4 -58 18 -18 33 -20 139 -20 129 0 151 8
151 54 0 41 -17 46 -151 46 -121 0 -129 -1 -143 -22z"/>
<path d="M1572 88 c-19 -19 -14 -55 10 -72 33 -23 113 -21 138 4 24 24 24 29
4 58 -13 19 -24 22 -78 22 -35 0 -67 -5 -74 -12z"/>
<path d="M1780 81 c-15 -28 -12 -46 8 -64 15 -14 41 -17 135 -17 104 0 119 2
137 20 24 24 25 43 4 64 -12 13 -40 16 -144 16 -118 0 -130 -2 -140 -19z"/>
<path d="M2855 84 c-38 -38 16 -98 71 -79 60 22 44 95 -21 95 -18 0 -41 -7
-50 -16z"/>
</g>
</svg>
