<?xml version="1.0" standalone="no"?>
<!DOCTYPE svg PUBLIC "-//W3C//DTD SVG 20010904//EN"
 "http://www.w3.org/TR/2001/REC-SVG-20010904/DTD/svg10.dtd">
<svg version="1.0" xmlns="http://www.w3.org/2000/svg"
 width="468pt" height="468pt" viewBox="0 0 468 468"
 preserveAspectRatio="xMidYMid meet">
<metadata>
Created by potrace 1.8, written by Peter Selinger 2001-2007
</metadata>
<g transform="translate(0,468) scale(0.158108,-0.158108)"
fill="#000000" stroke="none">
<path d="M303 2950 c-162 -14 -259 -44 -283 -91 -6 -11 -10 -531 -10 -1384 l0
-1367 29 -28 c64 -65 199 -80 711 -80 512 0 647 15 711 80 28 27 29 33 29 119
l0 91 130 0 c117 0 132 2 150 20 29 29 26 74 -6 99 -24 19 -40 21 -150 21
l-124 0 0 345 0 345 130 0 c117 0 132 2 150 20 26 26 26 74 0 100 -18 18 -33
20 -150 20 l-130 0 0 155 0 155 124 0 c110 0 126 2 150 21 32 25 35 70 6 99
-18 18 -33 20 -150 20 l-130 0 0 344 0 344 129 4 c110 3 132 6 150 22 25 23
27 63 5 94 -14 21 -22 22 -150 22 l-134 0 0 153 c0 170 -4 182 -66 212 -82 39
-173 46 -604 50 -228 2 -461 0 -517 -5z m947 -140 c120 -16 110 -3 110 -146
l0 -124 -121 0 c-104 0 -179 -10 -513 -66 -215 -36 -401 -73 -413 -80 -18 -11
-23 -24 -23 -54 0 -33 19 -70 37 -70 2 0 176 -30 386 -66 210 -36 396 -66 414
-67 19 0 41 7 53 18 25 23 27 76 3 97 -11 10 -95 28 -220 49 -111 18 -200 35
-198 38 3 2 91 18 197 35 149 24 216 31 296 28 l102 -3 0 -345 0 -344 -100 0
c-79 0 -185 14 -483 66 -210 36 -397 66 -416 67 -62 2 -99 -85 -48 -117 37
-23 782 -147 925 -153 l122 -6 0 -153 0 -154 -112 0 c-94 0 -183 -12 -522 -70
-224 -38 -414 -75 -422 -81 -18 -15 -18 -93 0 -108 8 -7 200 -44 426 -83 l413
-70 26 20 c31 23 41 81 17 101 -12 10 -381 81 -420 81 -36 0 25 13 181 39 130
22 214 31 297 31 l116 0 0 -345 0 -345 -110 0 c-91 0 -180 12 -491 65 -209 36
-389 65 -401 65 -31 0 -68 -39 -68 -71 0 -23 21 -59 35 -59 2 0 176 -29 387
-65 462 -79 420 -74 546 -74 l103 -1 -3 -62 c-3 -58 -5 -62 -33 -72 -41 -14
-1109 -14 -1150 0 l-30 10 -3 1312 c-2 1297 -2 1311 18 1317 10 3 48 10 82 14
90 12 918 12 1008 1z"/>
<path d="M333 2210 c-46 -18 -59 -90 -20 -114 29 -18 810 -150 843 -142 43 11
63 88 30 115 -7 6 -187 40 -401 76 -215 36 -399 67 -410 69 -11 2 -30 0 -42
-4z"/>
<path d="M312 2007 c-24 -26 -29 -78 -9 -95 7 -6 199 -43 427 -81 409 -70 415
-71 440 -52 35 26 40 84 8 104 -20 13 -775 147 -826 147 -10 0 -28 -10 -40
-23z"/>
<path d="M310 910 c-24 -24 -26 -72 -4 -94 8 -9 18 -16 22 -16 3 0 178 -29
389 -65 210 -36 398 -65 416 -65 43 0 67 26 67 74 0 28 -5 39 -22 46 -27 11
-781 140 -821 140 -15 0 -36 -9 -47 -20z"/>
<path d="M315 725 c-33 -32 -34 -79 -2 -98 12 -8 204 -45 425 -82 439 -73 440
-73 460 -16 10 27 1 64 -17 75 -9 6 -809 145 -834 146 -4 0 -19 -11 -32 -25z"/>
<path d="M2338 2331 l-33 -29 -3 -635 -2 -635 -35 -35 -35 -35 0 -187 0 -187
34 -34 34 -34 206 0 206 0 32 29 33 29 3 192 3 191 -35 35 c-32 32 -36 42 -36
85 l0 49 109 0 c102 0 111 2 125 22 21 30 20 61 -3 89 -18 23 -26 24 -125 24
l-106 0 0 105 0 105 106 0 c99 0 107 1 125 24 25 30 24 66 -2 92 -18 18 -30
20 -125 17 l-104 -3 0 103 0 102 109 0 c102 0 111 2 125 22 9 12 16 32 16 43
0 11 -7 31 -16 43 -14 20 -23 22 -125 22 l-109 0 0 98 0 97 102 -3 c116 -3
134 4 144 55 5 26 1 37 -20 58 -26 26 -30 27 -125 23 l-99 -3 -18 35 c-29 52
-53 60 -196 60 -127 0 -128 0 -160 -29z m232 -476 l0 -375 -70 0 -70 0 0 375
0 375 70 0 70 0 0 -375z"/>
</g>
</svg>
