<?xml version="1.0" standalone="no"?>
<!DOCTYPE svg PUBLIC "-//W3C//DTD SVG 20010904//EN"
 "http://www.w3.org/TR/2001/REC-SVG-20010904/DTD/svg10.dtd">
<svg version="1.0" xmlns="http://www.w3.org/2000/svg"
 width="468pt" height="470pt" viewBox="0 0 468 470"
 preserveAspectRatio="xMidYMid meet">
<metadata>
Created by potrace 1.8, written by Peter Selinger 2001-2007
</metadata>
<g transform="translate(0,470) scale(0.159184,-0.159184)"
fill="#000000" stroke="none">
<path d="M493 2943 c-9 -3 -13 -33 -13 -99 l0 -94 274 0 c313 0 286 -9 286
100 0 105 13 100 -283 99 -139 0 -258 -3 -264 -6z"/>
<path d="M1740 2834 c-12 -30 -3 -73 16 -81 10 -3 14 -23 14 -58 l0 -54 -105
-3 -105 -3 0 58 c0 84 -10 97 -73 97 -57 0 -77 -12 -77 -44 0 -21 -1 -21 -530
-18 -376 2 -542 0 -572 -9 -57 -15 -122 -80 -138 -138 -8 -30 -10 -133 -8
-330 3 -284 3 -286 28 -331 17 -29 41 -53 70 -70 l45 -25 503 -3 c491 -3 502
-3 502 -22 0 -19 -8 -20 -248 -20 -264 0 -272 -1 -272 -48 l0 -25 -138 8
c-287 14 -435 -38 -535 -188 -56 -84 -77 -160 -77 -277 0 -79 -4 -106 -17
-127 -27 -41 -32 -290 -8 -353 10 -26 21 -92 25 -155 11 -167 46 -251 144
-343 31 -29 82 -65 113 -80 l58 -27 890 0 890 0 68 33 c122 60 208 175 237
315 7 36 21 67 36 82 22 22 24 32 24 118 l0 94 58 22 c223 81 330 323 358 804
3 64 10 120 15 123 15 9 11 160 -5 173 -8 7 -17 28 -21 48 -23 124 -127 234
-250 264 -27 7 -59 18 -70 26 -11 7 -32 13 -47 13 l-28 0 0 123 c0 135 -11
173 -63 211 -26 19 -45 21 -218 24 l-189 4 0 49 c0 32 6 56 15 65 15 16 20 60
9 88 -5 14 -29 16 -160 16 l-154 0 -10 -26z m-363 -231 c10 -5 -191 -10 -446
-13 -428 -5 -465 -6 -475 -22 -8 -13 -8 -23 0 -35 10 -17 46 -18 483 -21 409
-2 471 -4 471 -17 0 -13 -62 -15 -489 -15 -527 0 -517 1 -509 -52 l3 -23 498
-3 c433 -2 497 -4 497 -17 0 -13 -62 -15 -489 -15 -527 0 -517 1 -509 -52 l3
-23 498 -3 c433 -2 497 -4 497 -17 0 -13 -62 -15 -489 -15 -527 0 -517 1 -509
-52 l3 -23 498 -3 c433 -2 497 -4 497 -17 0 -13 -62 -15 -489 -15 -527 0 -517
1 -509 -52 l3 -23 498 -3 c433 -2 497 -4 497 -17 0 -13 -59 -15 -463 -15 -499
0 -503 0 -495 -51 l3 -24 463 -3 c302 -1 461 -6 457 -12 -4 -6 -195 -10 -531
-10 -511 0 -525 1 -544 20 -11 11 -20 28 -21 38 -1 15 0 488 1 550 0 12 9 31
20 42 19 19 33 20 539 20 286 0 528 -3 538 -7z m1279 -581 c12 -9 29 -32 38
-50 15 -29 15 -35 1 -54 -21 -31 -20 -126 1 -157 15 -20 16 -42 11 -155 -13
-276 -72 -475 -164 -556 l-38 -34 -5 123 c-5 117 -6 124 -31 144 -19 16 -28
38 -36 84 -16 89 -57 165 -124 228 -110 105 -160 115 -559 115 -303 0 -310 0
-310 20 0 17 7 20 48 20 26 0 53 5 60 12 7 7 12 41 12 82 l0 71 429 0 c419 0
430 1 458 21 15 11 36 36 45 55 14 27 25 35 55 40 66 11 87 9 109 -9z m-525
-468 c63 -30 123 -86 151 -142 23 -47 23 -48 23 -477 l0 -430 -27 -51 c-31
-59 -84 -108 -147 -138 -46 -21 -53 -21 -891 -21 l-845 0 -51 27 c-61 32 -119
94 -147 157 -20 44 -21 61 -18 451 2 456 3 466 73 545 46 52 101 84 167 95 25
4 411 7 856 6 805 -1 810 -1 856 -22z"/>
<path d="M540 120 c-29 -29 -26 -74 6 -99 25 -19 40 -21 196 -21 166 0 169 0
193 25 30 29 32 68 5 95 -19 19 -33 20 -200 20 -167 0 -181 -1 -200 -20z"/>
<path d="M1640 122 c-29 -23 -31 -73 -5 -102 17 -19 30 -20 195 -20 158 0 180
2 200 18 16 13 23 29 22 52 -2 61 -13 65 -210 68 -163 3 -180 2 -202 -16z"/>
</g>
</svg>
