<?xml version="1.0" standalone="no"?>
<!DOCTYPE svg PUBLIC "-//W3C//DTD SVG 20010904//EN"
 "http://www.w3.org/TR/2001/REC-SVG-20010904/DTD/svg10.dtd">
<svg version="1.0" xmlns="http://www.w3.org/2000/svg"
 width="468pt" height="304pt" viewBox="0 0 468 304"
 preserveAspectRatio="xMidYMid meet">
<metadata>
Created by potrace 1.8, written by Peter Selinger 2001-2007
</metadata>
<g transform="translate(0,304) scale(0.158644,-0.158644)"
fill="#000000" stroke="none">
<path d="M234 1890 c-36 -14 -54 -50 -54 -107 l0 -53 -63 0 c-99 0 -107 -9
-107 -134 0 -128 6 -136 103 -136 l67 0 0 -505 0 -505 -75 0 c-92 0 -95 -4
-95 -132 0 -121 6 -131 93 -136 l65 -4 11 -56 c6 -31 21 -66 33 -79 19 -20 31
-23 99 -23 105 0 128 18 136 108 l6 62 113 0 114 0 0 -32 c0 -52 19 -106 43
-123 29 -20 148 -20 187 0 31 16 38 33 42 105 l3 45 113 3 112 3 0 -41 c0 -51
22 -105 48 -119 29 -16 127 -14 167 4 40 16 55 46 55 111 l0 44 53 0 c79 0 87
13 87 137 0 120 -8 133 -88 133 l-52 0 0 500 0 500 53 0 c28 0 58 4 65 8 42
27 42 227 0 254 -7 4 -37 8 -65 8 l-53 0 0 38 c0 55 -18 110 -40 122 -25 13
-153 13 -183 -1 -32 -15 -47 -49 -47 -109 l0 -50 -115 0 -115 0 0 44 c0 60
-17 101 -46 115 -38 17 -134 14 -174 -7 -37 -18 -47 -41 -49 -109 l-1 -43
-114 0 -114 0 -7 62 c-10 88 -33 108 -122 107 -37 0 -78 -4 -89 -9z m116 -930
l0 -840 -35 0 -35 0 0 840 0 840 35 0 35 0 0 -840z m500 0 l0 -840 -35 0 -35
0 0 840 0 840 35 0 35 0 0 -840z m500 0 l-1 -840 -34 0 -35 0 0 840 0 840 35
0 35 0 0 -840z m-670 -5 l0 -505 -115 0 -115 0 0 505 0 505 115 0 115 0 0
-505z m500 0 l0 -505 -115 0 -115 0 0 505 0 505 115 0 115 0 0 -505z"/>
<path d="M2328 1811 l-33 -29 -3 -635 -2 -635 -35 -35 -35 -35 0 -187 0 -187
34 -34 34 -34 206 0 206 0 32 29 33 29 3 192 3 191 -35 35 c-32 32 -36 42 -36
85 l0 49 109 0 c102 0 111 2 125 22 21 30 20 61 -3 89 -18 23 -26 24 -125 24
l-106 0 0 105 0 105 106 0 c99 0 107 1 125 24 25 30 24 66 -2 92 -18 18 -30
20 -125 17 l-104 -3 0 103 0 102 109 0 c102 0 111 2 125 22 9 12 16 32 16 43
0 11 -7 31 -16 43 -14 20 -23 22 -125 22 l-109 0 0 98 0 97 102 -3 c116 -3
134 4 144 55 5 26 1 37 -20 58 -26 26 -30 27 -125 23 l-99 -3 -18 35 c-29 52
-53 60 -196 60 -127 0 -128 0 -160 -29z m232 -476 l0 -375 -70 0 -70 0 0 375
0 375 70 0 70 0 0 -375z"/>
<path d="M1650 1710 c-17 -17 -20 -33 -20 -115 0 -128 7 -135 129 -135 101 0
116 8 127 66 11 60 0 161 -20 183 -17 18 -31 21 -108 21 -75 0 -91 -3 -108
-20z m140 -115 c0 -32 -2 -35 -30 -35 -28 0 -30 3 -30 35 0 32 2 35 30 35 28
0 30 -3 30 -35z"/>
</g>
</svg>
