<?xml version="1.0" standalone="no"?>
<!DOCTYPE svg PUBLIC "-//W3C//DTD SVG 20010904//EN"
 "http://www.w3.org/TR/2001/REC-SVG-20010904/DTD/svg10.dtd">
<svg version="1.0" xmlns="http://www.w3.org/2000/svg"
 width="468pt" height="470pt" viewBox="0 0 468 470"
 preserveAspectRatio="xMidYMid meet">
<metadata>
Created by potrace 1.8, written by Peter Selinger 2001-2007
</metadata>
<g transform="translate(0,470) scale(0.158108,-0.158108)"
fill="#000000" stroke="none">
<path d="M942 2886 c-79 -81 -86 -103 -47 -141 38 -39 60 -32 141 47 61 59 74
77 74 103 0 39 -26 65 -67 65 -24 0 -44 -14 -101 -74z"/>
<path d="M335 2713 c-32 -9 -65 -34 -81 -64 -11 -22 -14 -73 -14 -231 0 -299
0 -298 295 -298 203 0 235 6 273 55 21 26 22 37 22 240 0 204 -1 213 -23 246
-13 19 -38 39 -57 46 -35 12 -372 16 -415 6z m365 -293 l0 -160 -165 0 -165 0
0 160 0 160 165 0 165 0 0 -160z"/>
<path d="M1016 2474 c-43 -42 -22 -108 36 -119 18 -3 145 -5 281 -3 233 3 250
4 263 22 20 28 18 80 -4 99 -16 15 -51 17 -290 17 -232 0 -273 -2 -286 -16z"/>
<path d="M2338 2341 l-33 -29 -3 -635 -2 -635 -35 -35 -35 -35 0 -187 0 -187
34 -34 34 -34 206 0 206 0 32 29 33 29 3 192 3 191 -35 35 c-32 32 -36 42 -36
85 l0 49 109 0 c102 0 111 2 125 22 21 30 20 61 -3 89 -18 23 -26 24 -125 24
l-106 0 0 105 0 105 106 0 c99 0 107 1 125 24 25 30 24 66 -2 92 -18 18 -30
20 -125 17 l-104 -3 0 103 0 102 109 0 c102 0 111 2 125 22 9 12 16 32 16 43
0 11 -7 31 -16 43 -14 20 -23 22 -125 22 l-109 0 0 98 0 97 102 -3 c116 -3
134 4 144 55 5 26 1 37 -20 58 -26 26 -30 27 -125 23 l-99 -3 -18 35 c-29 52
-53 60 -196 60 -127 0 -128 0 -160 -29z m232 -476 l0 -375 -70 0 -70 0 0 375
0 375 70 0 70 0 0 -375z"/>
<path d="M68 2032 c-49 -50 -58 -64 -58 -95 0 -40 27 -67 69 -67 34 0 151 117
151 151 0 42 -27 69 -67 69 -31 0 -45 -9 -95 -58z"/>
<path d="M876 2068 c-35 -50 -27 -63 177 -266 135 -135 200 -192 216 -192 29
0 71 43 71 72 0 17 -54 77 -193 216 -169 169 -196 192 -224 192 -22 0 -37 -7
-47 -22z"/>
<path d="M496 1954 c-26 -25 -27 -46 -24 -313 l3 -253 25 -20 c28 -23 77 -18
98 9 9 13 12 87 12 288 0 251 -1 273 -18 288 -23 21 -76 22 -96 1z"/>
<path d="M863 757 c-595 -452 -835 -640 -844 -661 -10 -24 -10 -33 2 -55 l15
-26 855 -3 c727 -2 858 0 875 12 18 14 19 33 22 667 l2 652 -22 24 c-12 13
-32 23 -47 22 -18 0 -278 -192 -858 -632z m787 -97 l0 -520 -682 0 c-593 0
-680 2 -668 14 14 14 1342 1024 1348 1025 1 1 2 -233 2 -519z"/>
<path d="M795 940 c-313 -242 -573 -446 -577 -453 -25 -40 6 -107 50 -107 20
0 174 114 597 441 616 475 611 470 568 527 -11 15 -31 28 -44 29 -18 2 -162
-104 -594 -437z"/>
</g>
</svg>
