<?xml version="1.0" standalone="no"?>
<!DOCTYPE svg PUBLIC "-//W3C//DTD SVG 20010904//EN"
 "http://www.w3.org/TR/2001/REC-SVG-20010904/DTD/svg10.dtd">
<svg version="1.0" xmlns="http://www.w3.org/2000/svg"
 width="469pt" height="487pt" viewBox="0 0 469 487"
 preserveAspectRatio="xMidYMid meet">
<metadata>
Created by potrace 1.8, written by Peter Selinger 2001-2007
</metadata>
<g transform="translate(0,487) scale(0.163636,-0.163636)"
fill="#000000" stroke="none">
<path d="M1257 2961 c-57 -12 -70 -31 -75 -106 l-4 -65 -114 0 -114 0 0 45 c0
63 -22 113 -54 121 -15 3 -58 4 -96 2 -91 -5 -110 -22 -117 -107 l-6 -61 -112
0 -113 0 -7 62 c-11 89 -32 108 -125 108 -74 0 -123 -16 -134 -45 -3 -9 -6
-41 -6 -71 l0 -54 -68 0 c-96 0 -102 -8 -102 -137 0 -125 6 -133 103 -133 l67
0 0 -505 0 -505 -75 0 c-92 0 -95 -4 -95 -130 0 -124 4 -130 89 -130 l67 0 12
-62 c7 -38 20 -70 34 -85 21 -23 29 -25 105 -21 105 4 122 18 130 107 l6 61
113 0 114 0 0 -32 c0 -52 19 -106 43 -123 13 -9 44 -15 83 -15 114 0 144 25
144 120 l0 50 115 0 115 0 0 -41 c0 -52 24 -103 56 -118 32 -14 109 -13 154 2
42 15 60 47 60 110 l0 47 48 0 c27 0 57 7 70 16 20 14 22 23 22 119 0 125 -6
135 -86 135 l-54 0 0 500 0 500 49 0 c69 0 90 20 98 91 7 71 -3 144 -23 164
-10 10 -35 15 -70 15 l-54 0 0 38 c0 47 -16 107 -33 120 -17 14 -115 21 -160
13z m93 -936 l-1 -845 -34 0 -35 0 0 845 0 845 35 0 35 0 0 -845z m-1000 -5
l0 -840 -35 0 -35 0 0 840 0 840 35 0 35 0 0 -840z m500 0 l0 -840 -35 0 -35
0 0 840 0 840 35 0 35 0 0 -840z m-170 0 l0 -500 -115 0 -115 0 0 500 0 500
115 0 115 0 0 -500z m498 -2 l-3 -503 -112 -3 -113 -3 0 506 0 505 115 0 115
0 -2 -502z"/>
<path d="M1644 2765 c-20 -31 -17 -206 4 -227 8 -8 46 -14 100 -16 117 -5 134
7 140 101 2 37 1 82 -2 101 -11 59 -26 66 -131 66 -90 0 -95 -1 -111 -25z
m146 -110 c0 -32 -2 -35 -30 -35 -28 0 -30 3 -30 35 0 32 2 35 30 35 28 0 30
-3 30 -35z"/>
<path d="M2254 1659 c-50 -14 -77 -51 -82 -114 l-4 -55 -65 0 c-76 0 -97 -9
-120 -53 -16 -28 -19 -71 -23 -347 -5 -292 -6 -311 -19 -266 -28 95 -85 132
-177 115 -62 -12 -117 -48 -134 -89 -12 -29 -6 -64 80 -428 51 -218 97 -403
103 -409 15 -21 55 -15 71 9 13 21 7 57 -74 400 -49 208 -87 384 -84 392 7 17
66 39 90 34 12 -2 36 -63 85 -217 38 -118 75 -218 81 -223 19 -12 52 -10 66 4
9 9 12 130 12 483 0 369 3 475 13 489 9 13 23 17 52 14 l40 -3 3 -372 2 -373
25 -16 c23 -15 27 -15 50 0 l25 16 0 460 0 460 60 0 60 0 0 -422 c0 -451 2
-470 48 -476 52 -8 52 -8 52 394 l0 374 38 0 c71 0 66 25 72 -431 5 -400 6
-412 25 -419 11 -4 30 -4 43 1 l22 8 0 316 0 315 23 0 c13 0 28 -5 35 -12 9
-9 12 -154 12 -593 0 -439 3 -584 12 -593 19 -19 66 -15 78 7 14 28 14 1142
-1 1195 -15 53 -48 83 -101 91 l-45 7 -11 61 c-7 34 -20 73 -30 87 -26 35 -79
60 -129 60 -37 0 -43 3 -43 20 0 36 -28 77 -64 94 -37 17 -121 20 -172 5z"/>
</g>
</svg>
