<?xml version="1.0" standalone="no"?>
<!DOCTYPE svg PUBLIC "-//W3C//DTD SVG 20010904//EN"
 "http://www.w3.org/TR/2001/REC-SVG-20010904/DTD/svg10.dtd">
<svg version="1.0" xmlns="http://www.w3.org/2000/svg"
 width="468pt" height="468pt" viewBox="0 0 468 468"
 preserveAspectRatio="xMidYMid meet">
<metadata>
Created by potrace 1.8, written by Peter Selinger 2001-2007
</metadata>
<g transform="translate(0,468) scale(0.158108,-0.158108)"
fill="#000000" stroke="none">
<path d="M1549 2929 c-8 -16 -8 -28 0 -45 l11 -24 400 0 400 0 0 -120 c0 -100
-2 -120 -15 -120 -12 0 -15 16 -15 80 0 127 21 120 -349 120 l-310 0 -20 -26
c-17 -22 -21 -41 -21 -100 0 -43 -4 -74 -10 -74 -5 0 -10 10 -10 23 0 29 -18
47 -45 47 -38 0 -45 -19 -45 -117 0 -89 1 -94 24 -104 30 -14 66 3 66 31 0 11
5 20 10 20 6 0 10 -30 10 -70 0 -62 3 -74 25 -95 l24 -25 306 0 c364 0 345 -6
345 115 l0 75 45 0 c32 0 51 6 65 20 18 18 20 33 20 196 0 102 -4 183 -10 195
-10 18 -26 19 -450 19 -438 0 -439 0 -451 -21z"/>
<path d="M24 2916 c-18 -14 -19 -36 -22 -845 l-2 -832 24 -24 c31 -30 55 -32
90 -4 l26 20 0 828 c0 917 3 871 -64 871 -18 0 -41 -6 -52 -14z"/>
<path d="M220 2533 c-41 -15 -55 -87 -22 -116 17 -15 68 -17 534 -17 503 0
515 0 533 20 23 25 24 76 1 98 -15 16 -61 17 -524 19 -279 1 -514 -1 -522 -4z"/>
<path d="M265 2365 c-88 -31 -97 -68 -93 -393 3 -237 5 -260 23 -292 12 -19
36 -43 55 -55 33 -19 55 -20 326 -23 317 -4 346 0 413 48 123 90 281 408 281
568 0 78 -21 119 -72 142 -40 18 -68 20 -468 19 -341 0 -433 -3 -465 -14z
m867 -160 c-12 -135 -145 -394 -227 -445 -31 -19 -48 -20 -311 -18 l-279 3 -3
248 -2 247 412 -2 413 -3 -3 -30z"/>
<path d="M2478 1650 c-15 -11 -30 -38 -37 -65 -6 -25 -12 -45 -14 -45 -1 0
-36 9 -77 20 -92 24 -118 15 -138 -45 -20 -59 -18 -94 5 -117 27 -27 68 -26
97 1 l24 22 121 -32 c96 -25 121 -35 121 -49 0 -29 39 -70 66 -70 44 0 63 18
80 76 23 81 10 109 -65 130 -80 22 -108 32 -92 33 8 1 68 -13 133 -30 l118
-32 0 -363 0 -364 -145 0 c-80 0 -145 2 -145 4 0 1 5 17 11 34 14 42 -2 72
-40 72 -36 0 -48 -15 -57 -68 -4 -26 -12 -42 -20 -42 -18 0 -18 0 11 105 29
105 31 133 9 142 -12 4 -11 8 8 17 29 15 77 169 60 196 -8 13 -6 19 8 28 18
11 40 68 40 104 0 27 -44 52 -69 39 -22 -12 -44 -78 -39 -116 1 -13 -4 -31
-13 -42 -17 -20 -49 -129 -49 -167 0 -14 8 -30 18 -35 15 -9 15 -10 1 -11 -9
0 -22 -6 -28 -14 -15 -18 -69 -217 -64 -233 4 -10 -20 -13 -95 -13 l-99 0 26
99 c21 84 23 101 12 115 -15 18 -66 22 -76 6 -13 -21 -56 -194 -51 -207 4 -10
-104 -13 -534 -15 -530 -3 -539 -3 -567 -24 -15 -12 -34 -38 -42 -58 -17 -45
-8 -72 108 -336 85 -194 125 -250 174 -250 13 0 34 -11 47 -25 21 -23 31 -25
107 -25 77 0 86 2 107 25 l23 25 518 0 518 0 23 -25 c21 -23 30 -25 109 -25
78 0 88 2 108 24 12 13 37 27 55 31 44 9 88 48 101 88 5 18 14 70 21 117 6 47
20 131 31 188 17 93 19 149 19 586 0 446 -1 485 -17 505 -14 16 -68 35 -223
76 -113 30 -208 55 -211 55 -4 0 -18 -9 -31 -20z m337 -1102 c-3 -18 -14 -91
-25 -163 -11 -71 -22 -145 -25 -163 l-6 -32 -782 2 -782 3 -81 185 c-46 102
-83 188 -83 193 -1 4 402 7 894 7 l896 0 -6 -32z"/>
<path d="M2352 1391 c-19 -12 -41 -92 -32 -117 10 -27 43 -36 68 -18 11 7 25
34 31 60 10 40 10 49 -5 65 -18 20 -41 24 -62 10z"/>
<path d="M2196 1318 c-18 -26 -21 -79 -5 -95 7 -7 3 -12 -15 -17 -27 -7 -34
-25 -58 -138 -13 -64 -3 -88 37 -88 33 0 43 17 68 114 20 81 21 88 5 100 -15
11 -14 13 12 23 22 8 30 19 36 49 8 45 -4 68 -39 72 -17 2 -30 -4 -41 -20z"/>
<path d="M2303 1234 c-6 -3 -19 -38 -29 -79 -20 -85 -13 -105 37 -105 33 0 43
17 62 107 8 40 8 55 -2 67 -13 15 -43 20 -68 10z"/>
<path d="M2576 1217 c-25 -19 -33 -89 -11 -110 15 -16 15 -17 -3 -17 -28 0
-36 -15 -60 -105 -20 -71 -20 -81 -7 -102 16 -24 40 -29 63 -14 22 13 64 178
52 200 -7 15 -5 22 11 32 30 20 39 97 14 116 -23 16 -36 16 -59 0z"/>
<path d="M2243 1028 c-11 -14 -63 -199 -63 -223 0 -8 11 -22 24 -30 38 -25 62
-6 81 63 9 31 23 79 30 107 12 43 12 53 -1 72 -16 25 -56 31 -71 11z"/>
</g>
</svg>
