<?xml version="1.0" standalone="no"?>
<!DOCTYPE svg PUBLIC "-//W3C//DTD SVG 20010904//EN"
 "http://www.w3.org/TR/2001/REC-SVG-20010904/DTD/svg10.dtd">
<svg version="1.0" xmlns="http://www.w3.org/2000/svg"
 width="468pt" height="462pt" viewBox="0 0 468 462"
 preserveAspectRatio="xMidYMid meet">
<metadata>
Created by potrace 1.8, written by Peter Selinger 2001-2007
</metadata>
<g transform="translate(0,462) scale(0.157576,-0.157576)"
fill="#000000" stroke="none">
<path d="M186 2915 c-86 -17 -136 -66 -166 -160 -10 -30 -13 -178 -12 -625 0
-504 2 -591 16 -628 21 -58 49 -96 91 -122 23 -14 35 -29 35 -43 0 -47 24
-103 56 -134 l34 -32 0 -523 c0 -504 1 -524 20 -555 16 -27 26 -33 56 -33 36
0 108 35 137 68 10 11 17 43 20 87 2 39 12 91 22 116 18 45 18 46 -3 89 -21
43 -21 43 -1 81 24 47 24 74 -1 119 l-18 35 44 42 c42 40 44 46 44 98 0 37 -7
70 -21 96 l-20 41 21 15 c34 24 50 75 50 158 l0 75 65 0 c101 0 159 41 171
122 l7 38 407 0 408 0 15 -47 16 -48 -30 -30 c-33 -35 -35 -53 -13 -118 l16
-47 -31 -47 c-36 -53 -37 -64 -15 -124 13 -37 14 -52 3 -95 -13 -56 -4 -99 30
-143 23 -30 56 -24 105 19 27 24 35 40 40 81 5 38 17 63 46 101 44 55 45 59
29 123 -11 44 -11 45 32 94 49 55 66 62 73 28 11 -50 98 -538 137 -757 23
-132 48 -248 58 -265 26 -47 75 -67 146 -62 34 2 76 12 93 21 41 21 72 71 72
114 0 19 -31 212 -69 430 -86 492 -101 578 -101 596 0 7 12 16 28 19 43 9 80
44 92 89 6 22 9 46 6 53 -3 10 35 13 173 17 173 4 179 5 237 33 64 33 97 72
115 139 18 64 13 1189 -5 1249 -20 67 -50 103 -110 132 l-53 26 -1273 2 c-838
1 -1290 -2 -1324 -8z m2587 -136 c14 -6 30 -22 36 -36 15 -33 16 -1186 0
-1215 -21 -39 -68 -48 -243 -48 -163 0 -166 0 -171 23 -3 12 -21 113 -39 223
-19 111 -42 218 -51 238 -23 47 -60 66 -130 66 l-55 0 0 48 c0 26 -3 63 -6 83
l-6 36 113 50 c131 58 155 82 125 127 -35 54 -52 54 -191 -8 -107 -46 -134
-55 -165 -50 -44 7 -86 -13 -114 -55 -10 -14 -46 -40 -79 -56 -51 -25 -63 -35
-65 -57 -4 -32 36 -78 66 -78 18 0 32 -18 32 -41 0 -5 -18 -9 -40 -9 -52 0
-104 -22 -124 -52 -21 -33 -98 -414 -92 -455 l5 -33 -375 0 -374 0 0 134 c0
144 -12 200 -53 245 -37 40 -78 51 -194 51 l-108 0 0 130 0 129 144 63 c160
70 185 92 160 136 -8 15 -26 33 -40 41 -24 13 -35 10 -177 -53 -122 -53 -156
-65 -171 -56 -27 14 -63 -1 -89 -37 -11 -15 -47 -41 -79 -58 -47 -24 -59 -35
-61 -57 -4 -33 36 -78 68 -78 17 0 20 -6 20 -44 0 -24 3 -63 6 -88 6 -43 5
-45 -25 -58 -59 -24 -75 -61 -82 -190 -3 -63 -6 142 -5 455 1 533 2 573 19
598 10 16 28 32 40 37 34 14 2540 13 2570 -1z m-699 -640 c10 -51 7 -106 -6
-117 -20 -15 -125 -30 -161 -23 -30 6 -32 9 -32 51 l0 43 85 38 c47 21 90 39
96 39 6 0 14 -14 18 -31z m-1639 -155 l-7 -75 -61 3 -62 3 -3 88 -3 88 63 28
63 28 9 -44 c4 -24 5 -77 1 -119z m1807 -11 c30 -35 39 -65 63 -206 13 -78 35
-209 49 -290 14 -82 26 -161 26 -178 0 -39 -29 -66 -86 -80 -46 -12 -46 -12
-41 -48 3 -20 24 -144 46 -276 23 -132 41 -243 41 -248 0 -4 -13 2 -28 13 -27
20 -30 32 -57 183 -15 89 -30 168 -32 175 -6 14 -29 16 -37 4 -3 -5 8 -84 25
-177 28 -156 31 -225 10 -185 -5 8 -18 80 -31 160 -27 178 -34 194 -82 198
-28 2 -40 -2 -52 -20 -9 -12 -16 -30 -16 -39 0 -28 34 -62 63 -62 30 0 25 17
77 -275 l31 -174 -26 -20 c-42 -33 -30 -97 23 -116 24 -8 30 -17 36 -51 3 -23
3 -53 0 -67 -4 -17 -1 -31 11 -44 10 -11 21 -38 25 -60 7 -39 6 -40 -20 -40
-65 0 -66 5 -135 390 -91 510 -116 651 -121 689 -5 33 -6 33 -45 28 -32 -4
-41 -2 -50 15 -9 17 -5 27 21 60 18 21 36 54 41 71 8 30 12 32 55 33 91 3 105
28 163 286 48 213 38 289 -44 324 -58 24 -41 39 46 43 23 1 41 -5 51 -16z
m-329 -19 c121 -26 126 -28 111 -45 -12 -13 -21 -16 -34 -9 -9 5 -40 12 -68
16 -48 6 -53 5 -83 -25 -28 -28 -31 -37 -26 -72 3 -22 11 -46 17 -54 18 -21
113 -47 144 -39 37 9 66 50 66 93 0 24 9 47 28 69 l27 32 35 -17 c58 -30 59
-47 12 -275 -48 -238 -54 -248 -147 -248 l-53 0 -7 -41 c-4 -22 -19 -55 -34
-72 -46 -53 -49 -64 -32 -113 l16 -43 -45 -46 -44 -45 12 -45 c18 -66 16 -74
-28 -126 -33 -39 -40 -55 -40 -89 0 -30 -6 -47 -25 -65 -31 -31 -40 -31 -62 1
-16 24 -15 29 2 79 17 50 17 56 1 94 -23 59 -20 89 14 128 17 18 30 37 30 42
0 4 -9 33 -19 63 l-19 56 30 37 c31 36 31 37 18 90 -7 31 -10 73 -7 100 6 43
5 46 -21 56 -75 28 -78 64 -28 307 41 199 41 199 75 217 35 19 38 19 184 -11z
m-1505 -101 c-2 -12 -16 -20 -43 -24 -88 -12 -119 -55 -113 -155 4 -72 27
-106 83 -124 44 -15 110 11 130 51 23 44 20 150 -6 183 -18 24 -20 30 -9 56
l12 30 102 -1 c122 0 163 -13 193 -58 22 -33 23 -40 23 -283 l0 -250 -29 -29
c-28 -27 -34 -29 -114 -29 l-84 0 -7 -52 c-3 -29 -6 -75 -6 -103 0 -43 -4 -54
-37 -87 l-37 -38 27 -55 c40 -81 36 -112 -18 -165 -49 -48 -53 -68 -26 -120
19 -34 19 -35 -5 -88 l-24 -54 23 -39 c22 -38 22 -38 3 -86 -10 -26 -21 -77
-25 -112 -5 -57 -10 -66 -38 -89 l-33 -25 0 540 c0 297 -3 542 -6 546 -3 3
-12 3 -20 0 -12 -4 -14 -92 -14 -552 -1 -478 -2 -543 -15 -521 -12 21 -14 114
-15 556 l0 531 -26 13 c-55 30 -59 51 -55 324 2 203 6 254 18 273 15 22 58 39
118 46 69 9 77 8 73 -10z m1517 -3 c22 -11 47 -17 57 -14 21 6 24 -16 8 -47
-11 -20 -36 -23 -90 -13 -39 8 -58 41 -41 73 14 26 17 26 66 1z m-1494 -101
c5 -8 9 -38 9 -66 0 -40 -5 -58 -20 -73 -24 -24 -67 -26 -98 -4 -19 13 -22 24
-22 83 0 37 2 70 4 72 11 11 118 1 127 -12z m1694 -789 c0 -8 -8 -16 -17 -18
-13 -2 -18 3 -18 18 0 15 5 20 18 18 9 -2 17 -10 17 -18z m173 -353 c4 -20
-25 -34 -40 -19 -15 15 -1 44 19 40 10 -2 19 -11 21 -21z m118 -417 c6 -70 4
-88 -9 -98 -18 -15 -17 -17 -67 272 -28 162 -30 180 -16 195 9 10 16 31 17 47
2 46 68 -321 75 -416z m-153 343 c3 -5 8 -30 12 -58 6 -45 6 -48 -8 -35 -18
18 -33 100 -18 100 5 0 12 -3 14 -7z m-13 -153 c0 -21 -33 -29 -45 -10 -9 15
4 30 26 30 12 0 19 -7 19 -20z m64 -117 c4 -25 2 -33 -9 -33 -17 0 -30 77 -19
112 8 25 9 23 28 -79z m29 -160 c2 -21 2 -42 -1 -48 -7 -11 -19 28 -21 63 -2
37 16 25 22 -15z"/>
<path d="M1230 2305 c-140 -62 -262 -123 -272 -135 -32 -39 7 -101 64 -99 13
0 140 53 283 117 l260 117 3 36 c2 24 -3 40 -15 51 -40 36 -59 31 -323 -87z"/>
</g>
</svg>
