<?xml version="1.0" standalone="no"?>
<!DOCTYPE svg PUBLIC "-//W3C//DTD SVG 20010904//EN"
 "http://www.w3.org/TR/2001/REC-SVG-20010904/DTD/svg10.dtd">
<svg version="1.0" xmlns="http://www.w3.org/2000/svg"
 width="468pt" height="361pt" viewBox="0 0 468 361"
 preserveAspectRatio="xMidYMid meet">
<metadata>
Created by potrace 1.8, written by Peter Selinger 2001-2007
</metadata>
<g transform="translate(0,361) scale(0.158644,-0.158644)"
fill="#000000" stroke="none">
<path d="M2005 2144 c-879 -163 -1191 -231 -1350 -293 -222 -86 -428 -289
-494 -487 -19 -55 -24 -98 -29 -215 -7 -219 15 -266 140 -293 26 -6 28 -10 28
-52 0 -99 68 -168 164 -168 58 0 114 28 135 68 12 22 19 24 75 22 33 0 274 0
534 2 l473 2 24 25 c18 17 25 35 25 63 0 36 3 40 30 44 23 4 33 -1 45 -19 9
-13 21 -23 29 -23 19 0 91 -70 91 -89 0 -8 21 -28 47 -44 37 -23 51 -27 61
-18 16 13 107 -14 120 -36 11 -18 113 -18 124 0 10 17 98 40 122 32 20 -6 111
49 111 67 1 19 68 88 85 88 23 0 68 76 62 102 -6 23 19 127 31 129 4 0 28 2
54 3 37 1 54 8 79 31 17 17 36 41 41 55 10 25 12 196 2 236 -4 17 1 24 24 32
59 20 66 45 59 214 -7 167 -15 190 -72 214 -38 15 -38 17 -50 219 -10 154 -51
206 -162 204 -26 -1 -322 -52 -658 -115z m619 -141 c3 -27 8 -109 11 -183 3
-74 8 -151 11 -170 l5 -35 -223 -2 c-261 -3 -495 -17 -628 -39 -190 -31 -414
-121 -538 -216 -92 -71 -173 -185 -188 -264 l-6 -34 -364 0 -364 0 0 104 c0
126 18 181 91 278 98 131 234 210 463 269 178 45 697 149 1236 249 212 39 403
75 425 79 22 5 45 9 52 10 6 1 14 -19 17 -46z m-798 -564 c-55 -61 -106 -165
-141 -285 -14 -48 -27 -89 -29 -91 -2 -2 -114 -2 -249 -1 l-247 3 24 52 c73
157 297 293 584 353 48 10 91 19 95 19 5 1 -12 -22 -37 -50z m495 -130 c156
-79 156 -310 0 -391 -114 -60 -247 -18 -309 97 -26 49 -22 150 8 205 28 49 90
98 141 110 45 12 115 2 160 -21z m-691 -469 c0 -20 -7 -20 -480 -20 -473 0
-480 0 -480 20 0 20 7 20 480 20 473 0 480 0 480 -20z"/>
<path d="M2165 1294 c-97 -24 -160 -130 -136 -224 41 -155 232 -201 334 -81
48 57 58 130 28 196 -16 36 -81 105 -99 105 -4 0 -23 4 -42 9 -23 5 -54 3 -85
-5z"/>
<path d="M12 679 c3 -21 10 -25 55 -30 176 -22 273 -208 273 -525 0 -104 10
-133 39 -114 24 14 -1 312 -34 415 -3 11 1 8 9 -7 26 -44 56 -186 63 -296 6
-102 11 -115 46 -117 24 -2 33 18 41 90 4 33 13 85 20 115 12 52 13 49 8 -71
-4 -111 -3 -127 12 -132 22 -9 23 -2 30 125 8 138 26 196 76 248 44 45 46 52
27 68 -9 8 -30 -4 -80 -44 -78 -64 -88 -81 -113 -188 l-18 -79 -13 79 c-45
292 -177 455 -389 480 -55 7 -56 6 -52 -17z"/>
<path d="M27 548 c-2 -7 13 -33 33 -58 74 -89 90 -151 90 -338 0 -128 7 -156
36 -145 24 9 17 234 -12 372 -5 25 -5 25 12 -4 29 -49 44 -134 44 -246 0 -78
4 -110 14 -118 10 -9 16 -8 26 4 10 12 11 43 6 130 -12 206 -44 282 -151 362
-72 55 -90 62 -98 41z"/>
<path d="M949 445 c-76 -46 -114 -93 -135 -162 -26 -89 -26 -89 -31 -76 -6 17
-100 83 -118 83 -24 0 -17 -38 9 -55 33 -22 47 -62 55 -152 5 -60 10 -78 21
-78 9 0 17 13 20 30 l6 30 7 -33 c5 -25 11 -33 24 -30 15 3 19 19 25 108 8
110 27 191 52 225 13 18 13 13 0 -40 -15 -64 -19 -280 -6 -289 21 -13 30 18
35 129 7 168 20 208 79 268 46 46 57 78 26 76 -7 0 -38 -16 -69 -34z"/>
<path d="M1420 430 c-87 -46 -150 -109 -170 -171 -7 -24 -15 -47 -16 -50 -2
-3 -26 16 -55 43 -28 26 -59 48 -67 48 -11 0 -7 9 16 29 34 32 42 61 16 61
-22 0 -129 -75 -152 -107 -25 -36 -39 -81 -56 -179 -12 -63 -12 -82 -2 -92 19
-20 31 2 44 83 13 75 31 149 37 143 1 -1 -1 -25 -5 -53 -14 -84 -12 -172 4
-178 25 -10 34 16 38 118 2 62 10 110 19 128 15 28 15 28 33 8 24 -27 35 -81
36 -172 0 -58 4 -78 15 -82 22 -9 27 7 28 95 1 89 9 81 28 -27 11 -64 23 -85
39 -69 4 5 13 55 19 112 7 63 19 119 32 147 32 68 37 62 17 -18 -23 -90 -22
-242 2 -242 12 0 17 25 26 120 16 167 37 211 132 277 40 28 52 57 27 64 -5 2
-44 -14 -85 -36z"/>
<path d="M1449 265 c-26 -20 -53 -51 -62 -72 -19 -45 -40 -159 -32 -173 8 -14
35 -13 35 1 0 8 5 8 15 -1 31 -26 45 -5 45 69 0 80 11 115 47 153 15 16 23 33
20 42 -9 22 -16 20 -68 -19z"/>
</g>
</svg>
