<?xml version="1.0" standalone="no"?>
<!DOCTYPE svg PUBLIC "-//W3C//DTD SVG 20010904//EN"
 "http://www.w3.org/TR/2001/REC-SVG-20010904/DTD/svg10.dtd">
<svg version="1.0" xmlns="http://www.w3.org/2000/svg"
 width="468pt" height="465pt" viewBox="0 0 468 465"
 preserveAspectRatio="xMidYMid meet">
<metadata>
Created by potrace 1.8, written by Peter Selinger 2001-2007
</metadata>
<g transform="translate(0,465) scale(0.157576,-0.157576)"
fill="#000000" stroke="none">
<path d="M1806 2506 c-1063 -436 -1116 -460 -1116 -502 0 -27 24 -65 45 -70
15 -4 303 110 876 344 470 193 882 361 917 375 l62 26 0 -1180 0 -1179 -145 0
-145 0 0 138 c0 123 5 162 44 357 48 239 48 254 -6 276 -35 14 -73 1 -83 -31
-4 -11 -21 -96 -39 -188 l-32 -167 -183 -5 -184 -5 -20 -27 c-18 -25 -19 -31
-8 -66 12 -37 6 -146 -15 -255 l-6 -27 -131 0 -132 0 3 205 3 205 99 0 c87 0
103 3 120 20 29 29 26 74 -6 99 -26 20 -37 21 -408 21 -432 0 -426 1 -426 -70
0 -59 23 -70 142 -70 l98 0 0 -204 0 -204 -91 -4 c-114 -4 -129 -17 -129 -114
l0 -64 -433 0 c-422 0 -434 -1 -452 -20 -23 -25 -24 -76 -1 -98 16 -16 110
-17 1352 -20 l1335 -2 30 29 c28 29 29 32 29 129 0 84 -3 103 -20 125 -20 25
-20 42 -20 1238 l0 1214 107 45 c115 49 139 71 127 120 -8 36 -23 50 -53 49
-14 0 -512 -200 -1105 -443z m-434 -1981 l3 -205 -52 0 -53 0 0 205 0 205 50
0 49 0 3 -205z m788 -85 l0 -120 -125 0 c-70 0 -125 4 -125 9 0 12 18 155 26
199 l5 32 109 0 110 0 0 -120z"/>
</g>
</svg>
