<?xml version="1.0" standalone="no"?>
<!DOCTYPE svg PUBLIC "-//W3C//DTD SVG 20010904//EN"
 "http://www.w3.org/TR/2001/REC-SVG-20010904/DTD/svg10.dtd">
<svg version="1.0" xmlns="http://www.w3.org/2000/svg"
 width="468pt" height="359pt" viewBox="0 0 468 359"
 preserveAspectRatio="xMidYMid meet">
<metadata>
Created by potrace 1.8, written by Peter Selinger 2001-2007
</metadata>
<g transform="translate(0,359) scale(0.158644,-0.158644)"
fill="#000000" stroke="none">
<path d="M1124 2249 c-16 -5 -41 -20 -55 -35 -22 -23 -24 -35 -27 -134 l-4
-109 -461 -3 c-460 -3 -462 -3 -498 -26 -73 -45 -69 9 -69 -957 0 -966 -4
-912 69 -957 l36 -23 1340 -3 c1000 -2 1351 0 1383 9 50 14 98 64 107 111 3
18 4 419 3 890 -3 847 -3 857 -24 884 -11 15 -33 37 -48 48 -27 20 -41 21
-497 24 l-469 3 0 100 c0 190 1 189 -433 188 -177 0 -336 -5 -353 -10z m656
-204 l0 -75 -300 0 -300 0 0 75 0 75 300 0 300 0 0 -75z m-1420 -1060 l0 -845
-110 0 -110 0 0 845 0 845 110 0 110 0 0 -845z m2040 0 l0 -845 -915 0 -915 0
0 845 0 845 915 0 915 0 0 -845z m410 0 l0 -845 -105 0 -105 0 0 845 0 845
105 0 105 0 0 -845z"/>
<path d="M943 1656 c-105 -35 -205 -73 -222 -86 -76 -53 -78 -128 -10 -310 31
-85 52 -125 79 -152 60 -60 78 -59 308 16 205 68 242 87 267 136 22 43 19 82
-21 209 -40 130 -71 190 -112 219 -55 40 -83 37 -289 -32z m245 -48 c14 -18
92 -260 92 -287 0 -32 -37 -50 -230 -110 -129 -41 -176 -52 -188 -45 -20 12
-100 235 -101 280 -1 18 7 38 17 47 20 18 334 125 373 126 15 1 31 -5 37 -11z"/>
</g>
</svg>
