<?xml version="1.0" standalone="no"?>
<!DOCTYPE svg PUBLIC "-//W3C//DTD SVG 20010904//EN"
 "http://www.w3.org/TR/2001/REC-SVG-20010904/DTD/svg10.dtd">
<svg version="1.0" xmlns="http://www.w3.org/2000/svg"
 width="468pt" height="468pt" viewBox="0 0 468 468"
 preserveAspectRatio="xMidYMid meet">
<metadata>
Created by potrace 1.8, written by Peter Selinger 2001-2007
</metadata>
<g transform="translate(0,468) scale(0.158644,-0.158644)"
fill="#000000" stroke="none">
<path d="M356 2934 c-23 -23 -24 -685 -1 -704 13 -11 15 -91 15 -611 l0 -599
-153 0 c-161 0 -177 -4 -177 -45 0 -41 16 -45 177 -45 95 0 153 -4 153 -10 0
-6 -60 -10 -161 -10 -91 0 -169 -4 -180 -10 -22 -12 -26 -59 -7 -78 8 -8 63
-12 180 -12 105 0 168 -4 168 -10 0 -6 -63 -10 -168 -10 -117 0 -172 -4 -180
-12 -16 -16 -15 -65 0 -75 7 -4 89 -11 183 -14 l170 -5 -163 -2 c-90 -1 -172
-7 -183 -12 -22 -12 -26 -59 -7 -78 8 -8 63 -12 180 -12 105 0 168 -4 168 -10
0 -6 -61 -10 -164 -10 -136 0 -167 -3 -180 -16 -21 -21 -20 -40 4 -64 18 -18
35 -20 182 -22 l163 -2 -146 -5 c-155 -6 -179 -14 -179 -55 0 -42 16 -46 172
-46 92 0 148 -4 148 -10 0 -6 -48 -10 -124 -10 -116 0 -126 -2 -140 -21 -8
-12 -12 -29 -9 -38 12 -35 35 -41 155 -41 72 0 118 -4 118 -10 0 -6 -36 -10
-88 -10 -93 0 -112 -8 -112 -45 0 -37 19 -45 112 -45 52 0 88 -4 88 -10 0 -5
-12 -10 -26 -10 -41 0 -64 -18 -64 -48 0 -48 13 -52 166 -52 136 0 144 1 158
22 20 29 20 34 -4 58 -12 12 -33 20 -55 20 -19 0 -35 5 -35 10 0 6 40 10 100
10 96 0 101 1 111 24 8 17 8 29 0 45 -11 19 -20 21 -111 21 -60 0 -100 4 -100
10 0 6 49 10 128 10 112 0 131 2 145 18 21 23 22 46 1 66 -12 13 -41 16 -145
16 -79 0 -129 4 -129 10 0 6 58 10 153 10 106 0 157 4 165 12 16 16 15 65 0
75 -7 4 -83 11 -168 14 l-155 5 172 2 c184 2 203 7 203 56 0 43 -14 46 -197
46 -109 0 -173 4 -173 10 0 6 65 10 174 10 145 0 177 3 190 16 21 21 20 40 -4
64 -18 18 -35 20 -192 22 l-173 2 178 6 c162 4 180 7 193 24 17 24 17 31 4 57
-10 18 -23 19 -190 19 -113 0 -180 4 -180 10 0 6 64 10 173 10 156 0 176 2
190 18 22 24 21 45 -1 65 -16 14 -45 17 -190 17 -108 0 -172 4 -172 10 0 6 59
10 158 10 166 0 182 4 182 45 0 41 -16 45 -182 45 l-158 0 0 599 c0 520 2 600
15 611 13 11 15 63 15 354 0 253 -3 345 -12 354 -19 19 -153 16 -172 -4z"/>
<path d="M1397 2648 c-27 -21 -32 -70 -9 -98 l20 -25 701 -3 701 -2 0 -295 c0
-288 0 -295 -20 -295 -19 0 -20 7 -20 128 0 70 -5 143 -10 162 -11 41 -61 94
-103 109 -19 7 -204 11 -542 11 -338 0 -523 -4 -542 -11 -42 -15 -92 -68 -103
-109 -5 -19 -10 -92 -10 -162 0 -79 -4 -128 -10 -128 -5 0 -10 15 -10 33 0 48
-24 77 -65 77 -37 0 -62 -19 -71 -55 -3 -13 -4 -77 -2 -144 3 -134 12 -154 67
-154 42 0 71 28 71 70 0 18 4 33 9 33 5 0 11 -64 13 -142 4 -159 13 -189 70
-230 l33 -23 550 0 550 0 33 23 c57 41 66 71 70 230 l4 142 62 0 c39 0 69 6
84 16 l22 15 0 403 c0 378 -1 404 -18 419 -17 16 -84 17 -763 17 -581 0 -749
-3 -762 -12z"/>
</g>
</svg>
