<?xml version="1.0" standalone="no"?>
<!DOCTYPE svg PUBLIC "-//W3C//DTD SVG 20010904//EN"
 "http://www.w3.org/TR/2001/REC-SVG-20010904/DTD/svg10.dtd">
<svg version="1.0" xmlns="http://www.w3.org/2000/svg"
 width="468pt" height="508pt" viewBox="0 0 468 508"
 preserveAspectRatio="xMidYMid meet">
<metadata>
Created by potrace 1.8, written by Peter Selinger 2001-2007
</metadata>
<g transform="translate(0,508) scale(0.170803,-0.170803)"
fill="#000000" stroke="none">
<path d="M126 2959 c-50 -12 -91 -42 -105 -76 -8 -21 -11 -187 -9 -611 l3
-584 32 -28 c33 -29 88 -50 134 -50 24 0 27 -4 32 -52 18 -160 100 -258 255
-310 57 -18 96 -22 259 -26 l192 -4 20 -61 c12 -34 24 -83 27 -109 l6 -46
-105 -4 c-119 -3 -148 -16 -179 -79 -26 -51 -26 -387 0 -438 34 -69 54 -75
240 -81 l167 -5 0 -135 c0 -161 14 -202 80 -235 38 -19 64 -20 435 -23 217 -2
418 -1 447 3 69 8 112 39 143 100 24 48 25 58 25 240 1 173 3 194 22 230 31
60 91 123 213 225 151 127 199 204 234 373 18 85 20 238 6 337 -8 57 -14 69
-48 101 -27 26 -54 40 -91 48 -71 15 -1493 15 -1577 0 -115 -20 -173 -91 -162
-194 l6 -45 -67 0 c-98 0 -231 19 -271 38 -39 19 -65 59 -75 113 l-7 36 63 6
c66 6 97 23 133 71 20 26 21 42 24 364 l4 337 41 30 c62 45 69 77 65 282 -3
194 -9 210 -84 248 -35 18 -61 20 -264 22 -124 1 -242 -2 -264 -8z m474 -283
l0 -154 -35 -21 c-22 -13 -43 -37 -55 -63 -18 -40 -20 -68 -20 -364 l0 -321
-42 -5 c-62 -7 -283 -2 -297 6 -8 5 -11 148 -11 526 0 285 3 525 6 534 5 14
35 16 230 16 l224 0 0 -154z m1347 -1216 l552 0 7 -57 c10 -86 -10 -224 -44
-298 -26 -54 -45 -75 -148 -162 -254 -214 -302 -302 -291 -540 3 -68 3 -139 0
-158 l-6 -35 -364 0 -365 0 7 108 c15 225 -38 275 -302 289 l-123 6 0 94 0 93
68 0 c90 0 141 16 178 55 80 85 71 238 -30 484 -25 62 -46 114 -46 116 0 6
273 12 320 8 19 -1 283 -3 587 -3z"/>
<path d="M890 1887 c-56 -28 -67 -111 -21 -158 l29 -29 891 0 890 0 28 24 c24
21 28 32 28 75 0 39 -5 56 -23 73 l-23 23 -887 2 c-699 2 -892 0 -912 -10z"/>
</g>
</svg>
