<?xml version="1.0" standalone="no"?>
<!DOCTYPE svg PUBLIC "-//W3C//DTD SVG 20010904//EN"
 "http://www.w3.org/TR/2001/REC-SVG-20010904/DTD/svg10.dtd">
<svg version="1.0" xmlns="http://www.w3.org/2000/svg"
 width="468pt" height="468pt" viewBox="0 0 468 468"
 preserveAspectRatio="xMidYMid meet">
<metadata>
Created by potrace 1.8, written by Peter Selinger 2001-2007
</metadata>
<g transform="translate(0,468) scale(0.172059,-0.172059)"
fill="#000000" stroke="none">
<path d="M1181 2702 c-59 -32 -71 -69 -71 -214 l0 -127 -502 -3 c-485 -3 -504
-4 -538 -23 -49 -29 -70 -76 -70 -155 0 -74 20 -122 63 -154 28 -21 32 -21
1275 -24 858 -2 1258 0 1284 8 20 6 50 26 68 47 32 36 32 36 28 129 -3 86 -5
95 -31 122 -15 16 -45 34 -66 41 -27 7 -189 11 -525 11 l-486 0 0 113 c0 133
-10 173 -51 213 l-30 29 -157 3 c-138 2 -161 1 -191 -16z m289 -227 l0 -115
-110 0 -110 0 0 115 0 115 110 0 110 0 0 -115z m1120 -295 l0 -40 -1225 0
-1225 0 0 40 0 40 1225 0 1225 0 0 -40z"/>
<path d="M185 1888 c-43 -15 -84 -56 -95 -97 -6 -23 -10 -343 -10 -846 0 -777
1 -812 20 -852 11 -25 33 -51 52 -63 33 -20 47 -20 1208 -20 1161 0 1175 0
1208 20 19 12 41 38 52 63 19 40 20 75 20 852 0 503 -4 823 -10 846 -12 42
-52 82 -99 98 -46 15 -2302 14 -2346 -1z m2315 -938 l0 -810 -1140 0 -1140 0
0 810 0 810 1140 0 1140 0 0 -810z"/>
</g>
</svg>
