<?xml version="1.0" standalone="no"?>
<!DOCTYPE svg PUBLIC "-//W3C//DTD SVG 20010904//EN"
 "http://www.w3.org/TR/2001/REC-SVG-20010904/DTD/svg10.dtd">
<svg version="1.0" xmlns="http://www.w3.org/2000/svg"
 width="468pt" height="380pt" viewBox="0 0 468 380"
 preserveAspectRatio="xMidYMid meet">
<metadata>
Created by potrace 1.8, written by Peter Selinger 2001-2007
</metadata>
<g transform="translate(0,380) scale(0.158644,-0.158644)"
fill="#000000" stroke="none">
<path d="M1404 2382 c-59 -9 -77 -88 -29 -130 65 -56 160 27 108 95 -21 29
-47 41 -79 35z"/>
<path d="M510 2113 c-518 -354 -664 -1079 -319 -1592 174 -259 451 -437 774
-497 129 -24 345 -15 476 19 106 28 231 77 281 111 41 27 50 74 19 105 -27 27
-56 26 -116 0 -144 -64 -373 -17 -613 126 -288 171 -473 387 -552 643 -49 160
-68 446 -40 612 27 160 103 310 187 370 59 42 73 59 73 88 0 33 -36 72 -66 72
-11 0 -58 -26 -104 -57z m-230 -499 c-15 -88 -12 -327 5 -429 20 -127 59 -255
109 -360 115 -241 365 -472 681 -627 l120 -59 -90 6 c-320 23 -593 169 -775
415 -217 293 -250 707 -83 1048 20 40 37 71 39 69 2 -2 -1 -30 -6 -63z"/>
<path d="M1670 1790 c-31 -31 -27 -93 6 -119 15 -12 37 -21 49 -21 12 0 34 9
49 21 20 16 26 29 26 60 0 50 -27 79 -75 79 -22 0 -43 -8 -55 -20z"/>
<path d="M1134 1786 c-3 -8 -4 -25 -2 -38 2 -18 10 -24 35 -26 28 -3 33 1 39
23 4 15 1 31 -6 40 -16 19 -59 19 -66 1z"/>
<path d="M1984 1621 c-52 -24 -81 -65 -95 -135 l-12 -55 -178 -3 c-161 -3
-180 -5 -205 -24 -59 -43 -69 -68 -72 -174 l-4 -98 -54 -4 c-126 -11 -174
-102 -162 -303 6 -94 23 -132 75 -172 l36 -28 293 -3 293 -3 22 -31 c12 -16
40 -39 63 -49 38 -17 72 -19 433 -19 254 0 402 4 420 11 40 15 73 48 94 94 17
37 19 72 18 450 0 430 -2 459 -46 507 -10 11 -36 29 -58 39 -37 17 -73 19
-430 19 -359 0 -393 -2 -431 -19z"/>
</g>
</svg>
