<?xml version="1.0" standalone="no"?>
<!DOCTYPE svg PUBLIC "-//W3C//DTD SVG 20010904//EN"
 "http://www.w3.org/TR/2001/REC-SVG-20010904/DTD/svg10.dtd">
<svg version="1.0" xmlns="http://www.w3.org/2000/svg"
 width="336pt" height="648pt" viewBox="0 0 336 648"
 preserveAspectRatio="xMidYMid meet">
<metadata>
Created by potrace 1.8, written by Peter Selinger 2001-2007
</metadata>
<g transform="translate(0,648) scale(0.218182,-0.218182)"
fill="#000000" stroke="none">
<path d="M1416 2938 c-10 -14 -16 -44 -16 -80 0 -39 -4 -58 -12 -58 -7 0 -112
27 -235 60 -122 33 -233 60 -246 60 -35 0 -53 -26 -76 -109 -11 -41 -22 -76
-24 -78 -3 -2 -54 10 -116 27 -134 36 -144 37 -168 6 -25 -31 -48 -126 -39
-160 15 -58 97 -58 126 0 l15 31 210 -57 210 -56 0 -43 c0 -67 53 -101 102
-66 23 16 53 103 53 152 0 49 -19 62 -140 94 -63 17 -116 32 -117 33 -1 1 2
19 8 39 8 31 13 36 32 32 12 -3 110 -30 217 -59 l195 -52 3 -1227 2 -1227
-174 0 c-183 0 -225 -7 -233 -40 -5 -19 -14 -20 -343 -20 -321 0 -339 1 -345
18 -9 31 -51 42 -156 42 -93 0 -102 -2 -124 -25 -32 -31 -35 -110 -6 -146 l19
-24 731 0 c688 0 731 1 748 18 17 17 18 90 21 1454 3 1606 8 1483 -68 1483
-29 0 -43 -6 -54 -22z"/>
<path d="M615 2526 c-37 -87 -28 -146 20 -146 30 0 44 18 61 82 17 66 17 63
-2 82 -28 28 -63 20 -79 -18z"/>
<path d="M926 2458 c-8 -12 -21 -45 -27 -74 -15 -65 -3 -87 45 -82 33 3 45 26
61 110 11 60 -46 93 -79 46z"/>
<path d="M432 2448 c-5 -7 -15 -31 -21 -53 -18 -68 31 -112 73 -66 23 25 33
96 16 116 -15 18 -54 20 -68 3z"/>
<path d="M742 2413 c-5 -10 -20 -60 -33 -111 l-24 -94 24 -19 c13 -10 27 -19
32 -19 24 0 46 44 68 132 21 80 23 99 12 112 -18 22 -68 21 -79 -1z"/>
<path d="M567 2338 c-10 -8 -30 -60 -48 -127 -28 -107 -29 -114 -13 -132 20
-22 57 -25 71 -6 6 6 23 63 39 125 l29 114 -24 19 c-27 22 -32 23 -54 7z"/>
<path d="M1053 2282 c-16 -10 -33 -57 -33 -92 0 -37 32 -57 65 -42 15 7 26 25
34 57 10 41 10 50 -5 66 -18 20 -41 24 -61 11z"/>
<path d="M377 2258 c-23 -18 -79 -235 -67 -259 15 -28 49 -34 70 -13 19 19 70
196 70 240 0 13 -9 28 -19 34 -25 13 -34 13 -54 -2z"/>
<path d="M860 2238 c-5 -13 -21 -67 -35 -120 -30 -112 -25 -138 26 -138 35 0
44 16 80 157 19 76 21 94 10 107 -21 25 -69 21 -81 -6z"/>
<path d="M662 2098 c-5 -7 -28 -80 -51 -162 -42 -155 -42 -178 -1 -189 38 -10
57 23 94 161 39 144 42 172 24 190 -16 16 -53 15 -66 0z"/>
<path d="M998 2088 c-9 -7 -28 -58 -43 -113 -14 -55 -28 -108 -31 -117 -5 -18
28 -58 49 -58 28 1 40 22 68 121 34 123 36 155 10 169 -25 13 -34 13 -53 -2z"/>
<path d="M462 1983 c-5 -10 -26 -83 -47 -162 -42 -157 -41 -174 13 -179 39 -4
39 -3 87 177 42 157 41 174 -13 179 -22 2 -33 -2 -40 -15z"/>
<path d="M783 1918 c-14 -17 -83 -280 -83 -312 0 -19 7 -29 26 -36 47 -18 58
-2 102 166 40 148 41 158 26 176 -20 21 -57 24 -71 6z"/>
<path d="M266 1868 c-7 -13 -31 -88 -52 -167 l-38 -144 23 -18 c29 -23 34 -23
59 -1 13 11 32 64 56 157 20 77 36 147 36 156 0 41 -61 53 -84 17z"/>
<path d="M887 1698 c-8 -13 -31 -88 -52 -167 l-39 -144 23 -18 c51 -42 68 -20
114 152 42 157 44 174 18 189 -30 16 -49 12 -64 -12z"/>
<path d="M532 1658 c-5 -7 -23 -64 -38 -126 -22 -86 -26 -116 -18 -130 14 -21
57 -27 72 -10 8 11 72 224 72 242 0 3 -7 12 -16 20 -19 19 -58 21 -72 4z"/>
</g>
</svg>
