<?xml version="1.0" standalone="no"?>
<!DOCTYPE svg PUBLIC "-//W3C//DTD SVG 20010904//EN"
 "http://www.w3.org/TR/2001/REC-SVG-20010904/DTD/svg10.dtd">
<svg version="1.0" xmlns="http://www.w3.org/2000/svg"
 width="468pt" height="571pt" viewBox="0 0 468 571"
 preserveAspectRatio="xMidYMid meet">
<metadata>
Created by potrace 1.8, written by Peter Selinger 2001-2007
</metadata>
<g transform="translate(0,571) scale(0.193388,-0.193388)"
fill="#000000" stroke="none">
<path d="M1188 2938 c-24 -19 -648 -1105 -648 -1129 0 -30 44 -69 80 -69 16 0
30 -2 30 -5 0 -3 -90 -161 -200 -351 -110 -191 -200 -356 -200 -368 0 -38 28
-66 66 -66 19 0 34 -3 34 -6 0 -3 -76 -137 -168 -297 -93 -161 -172 -300 -175
-310 -9 -25 18 -73 45 -81 13 -3 222 -6 466 -6 l442 0 0 -63 c0 -80 30 -143
80 -169 29 -15 59 -18 173 -18 123 0 144 2 177 21 52 30 72 69 78 156 l5 73
447 0 c437 0 448 0 474 21 16 13 26 30 26 47 0 17 -67 142 -170 321 -94 161
-170 297 -170 302 0 5 20 9 43 9 51 0 77 22 77 64 0 19 -71 150 -200 375 -184
318 -199 346 -178 349 67 9 98 42 85 91 -8 33 -618 1085 -639 1104 -24 20 -58
22 -80 5z m291 -632 c133 -230 240 -420 238 -422 -2 -2 -225 -3 -495 -2 l-491
3 247 427 c135 235 249 424 253 420 4 -4 116 -195 248 -426z m343 -883 c101
-174 184 -323 186 -330 3 -11 -145 -13 -782 -13 -432 0 -786 3 -786 6 0 3 84
151 187 330 l187 324 412 0 412 0 184 -317z m250 -752 c87 -150 157 -275 155
-277 -2 -2 -460 -3 -1018 -2 l-1015 3 161 278 160 277 699 -2 700 -3 158 -274z
m-744 -478 l-3 -58 -112 -3 -113 -3 0 61 0 60 115 0 116 0 -3 -57z"/>
</g>
</svg>
