<?xml version="1.0" standalone="no"?>
<!DOCTYPE svg PUBLIC "-//W3C//DTD SVG 20010904//EN"
 "http://www.w3.org/TR/2001/REC-SVG-20010904/DTD/svg10.dtd">
<svg version="1.0" xmlns="http://www.w3.org/2000/svg"
 width="468pt" height="465pt" viewBox="0 0 468 465"
 preserveAspectRatio="xMidYMid meet">
<metadata>
Created by potrace 1.8, written by Peter Selinger 2001-2007
</metadata>
<g transform="translate(0,465) scale(0.158108,-0.158108)"
fill="#000000" stroke="none">
<path d="M2878 2929 c-16 -9 -18 -29 -19 -177 -1 -164 -1 -166 -14 -106 -16
76 -44 130 -85 169 l-31 30 -614 3 c-727 3 -670 10 -1091 -129 -304 -99 -440
-135 -553 -145 -42 -4 -85 -10 -95 -14 -11 -4 -37 -1 -58 7 -43 15 -110 4
-125 -21 -4 -7 -16 -15 -25 -19 -14 -5 -18 -18 -18 -64 1 -56 2 -59 38 -83 29
-19 49 -24 92 -23 248 7 372 -16 715 -134 255 -87 374 -122 475 -138 76 -12
21 -13 -543 -14 -613 -1 -627 -1 -647 -21 -24 -24 -24 -29 -4 -58 l15 -22
1285 0 1284 0 0 -445 0 -445 -76 0 -77 0 27 21 c62 48 90 154 91 334 0 161
-23 250 -80 305 l-36 35 -582 0 -582 0 -105 -27 c-58 -14 -193 -56 -300 -92
-234 -78 -328 -103 -479 -126 -83 -13 -123 -15 -144 -8 -38 14 -89 4 -126 -23
-28 -20 -31 -28 -31 -75 0 -50 2 -54 37 -75 27 -17 51 -23 83 -22 208 10 312
-10 645 -122 138 -47 286 -93 330 -104 l80 -20 -618 0 c-603 -1 -617 -1 -637
-21 -24 -24 -24 -29 -4 -58 l15 -22 1285 0 1284 0 0 -440 0 -440 -76 0 -76 0
30 25 c88 74 127 336 83 553 -22 105 -57 174 -104 203 -31 18 -57 19 -634 19
-783 0 -758 3 -1208 -150 -114 -38 -262 -83 -329 -100 -147 -36 -334 -61 -358
-49 -34 18 -99 10 -144 -19 -43 -27 -43 -27 -43 -87 0 -60 0 -60 43 -88 45
-28 109 -36 144 -19 25 13 201 -5 332 -34 113 -26 225 -60 536 -167 88 -31
192 -62 230 -71 64 -13 33 -14 -462 -15 -501 -1 -532 -2 -547 -19 -21 -23 -22
-46 -1 -66 14 -14 149 -16 1334 -16 l1320 0 15 23 c13 21 15 183 13 1456 -3
1405 -3 1433 -22 1447 -23 16 -35 17 -58 3z m-1119 -138 c50 -50 81 -272 62
-436 -14 -124 -34 -195 -61 -220 -18 -16 -34 -17 -167 -12 -180 7 -206 13
-558 132 -265 89 -410 126 -600 152 l-60 8 -3 41 c-2 25 2 45 10 51 7 5 54 16
103 23 142 20 269 54 560 150 333 109 407 125 598 128 84 2 100 -1 116 -17z
m727 -18 c35 -52 49 -143 49 -318 -1 -164 -16 -260 -51 -312 l-14 -23 -330 0
c-182 0 -330 1 -330 3 0 1 9 25 19 52 32 84 44 193 38 337 -4 123 -17 187 -54
284 -4 12 45 14 323 12 l328 -3 22 -32z m224 24 c13 -7 35 -27 47 -46 90 -134
72 -521 -28 -606 -28 -23 -39 -25 -118 -25 l-87 0 23 70 c52 154 51 401 -1
551 l-24 69 82 0 c45 0 92 -6 106 -13z m-2391 -281 c7 -8 11 -36 9 -62 -3 -42
-6 -48 -31 -57 -19 -6 -37 -6 -53 2 -21 9 -24 18 -24 59 0 26 5 53 12 60 17
17 73 15 87 -2z m2541 -311 l0 -135 -87 1 c-71 1 -82 3 -57 10 18 5 46 25 63
44 30 34 71 144 71 191 0 13 2 24 5 24 3 0 5 -61 5 -135z m-1165 -497 c5 -26
15 -212 15 -295 0 -10 89 -13 409 -13 l410 0 7 46 c6 45 0 177 -12 256 l-7 38
81 0 c71 0 84 -3 111 -25 98 -83 99 -486 0 -569 l-31 -26 -553 0 c-632 0 -605
-3 -860 86 -316 110 -465 150 -628 169 -63 7 -82 26 -71 69 7 28 15 32 97 41
99 11 252 52 502 135 219 72 340 103 435 113 87 9 87 9 95 -25z m285 0 c26
-71 31 -79 43 -75 13 4 15 50 3 85 -6 19 -4 22 22 22 28 0 30 -3 41 -57 6 -31
11 -81 11 -110 0 -47 3 -54 18 -51 14 3 17 15 17 83 0 44 -3 92 -8 108 -7 27
-7 27 37 27 51 0 52 -2 62 -123 6 -64 10 -77 23 -75 14 3 16 19 14 101 l-2 97
104 0 c88 0 104 -2 110 -17 4 -10 10 -78 13 -150 l5 -133 -371 0 -370 0 -4
133 c-3 72 -8 140 -13 150 -7 16 2 17 113 17 l120 0 12 -32z m-1472 -227 c9
-5 12 -25 10 -57 l-3 -49 -40 0 -40 0 -3 49 c-3 52 6 66 43 66 11 0 26 -4 33
-9z m2176 -631 c68 -25 109 -158 109 -350 1 -187 -39 -322 -103 -355 -25 -13
-90 -21 -90 -12 0 2 9 29 19 60 31 88 44 207 39 341 -3 68 -8 128 -12 134 -5
9 -108 12 -382 12 l-374 0 6 -137 c9 -191 -15 -352 -58 -395 -20 -20 -27 -20
-237 -15 -143 4 -240 11 -286 22 -38 9 -205 60 -370 115 -335 111 -420 134
-550 150 -166 22 -160 19 -163 71 -2 29 2 49 10 56 7 5 56 15 109 21 132 16
285 57 582 156 253 85 347 110 467 125 93 12 1253 13 1284 1z m-71 -283 c8
-88 -8 -288 -28 -353 -21 -69 -39 -84 -101 -84 -29 0 -56 5 -59 10 -4 7 -12 7
-25 0 -20 -11 -90 -14 -90 -4 0 3 7 30 16 60 16 58 14 84 -9 84 -8 0 -22 -30
-35 -75 -21 -70 -24 -75 -50 -75 -24 0 -28 4 -27 27 0 38 -24 41 -38 4 l-11
-31 -136 0 -136 0 22 68 c39 116 53 333 28 425 -5 16 16 17 334 17 l339 0 6
-73z m-2449 -3 c12 -5 16 -21 16 -70 0 -60 -1 -64 -26 -70 -15 -4 -39 -3 -53
2 -23 8 -26 15 -29 64 -3 43 1 57 14 67 19 14 52 17 78 7z"/>
<path d="M2225 2677 c-11 -26 20 -162 36 -162 19 0 23 68 7 124 -14 46 -34 64
-43 38z"/>
<path d="M2005 2648 c-3 -8 0 -41 7 -74 9 -41 19 -60 31 -62 14 -3 17 4 16 35
-1 71 -39 141 -54 101z"/>
<path d="M2110 2573 c0 -53 10 -83 26 -83 22 0 28 26 18 73 -6 27 -15 43 -27
45 -14 3 -17 -4 -17 -35z"/>
<path d="M2246 2485 c-15 -39 -3 -95 20 -95 29 0 32 102 3 108 -9 2 -19 -4
-23 -13z"/>
<path d="M2026 2475 c-3 -9 -6 -41 -6 -71 0 -47 3 -54 19 -54 35 0 44 131 10
138 -9 2 -19 -4 -23 -13z"/>
<path d="M2125 2438 c-10 -29 -36 -210 -31 -215 13 -14 34 9 46 52 18 63 19
167 3 172 -7 3 -15 -1 -18 -9z"/>
<path d="M2396 2422 c-3 -5 -12 -53 -20 -108 -8 -55 -19 -112 -25 -127 -20
-53 12 -76 36 -26 16 32 45 202 41 236 -3 27 -22 41 -32 25z"/>
<path d="M2243 2338 c-12 -16 -37 -147 -30 -155 22 -22 57 50 60 127 2 35 -13
49 -30 28z"/>
<path d="M2007 2308 c-7 -25 -1 -38 18 -38 13 0 25 21 25 46 0 23 -37 16 -43
-8z"/>
<path d="M2011 1606 c-17 -20 -10 -60 11 -64 24 -5 36 44 16 64 -13 13 -16 13
-27 0z"/>
<path d="M2219 513 c-5 -35 5 -139 14 -145 21 -13 28 8 25 78 -2 56 -6 69 -20
72 -10 2 -19 0 -19 -5z"/>
<path d="M2445 477 c-3 -7 -5 -49 -3 -93 2 -62 6 -79 18 -79 18 0 34 103 22
149 -9 33 -29 46 -37 23z"/>
<path d="M2317 443 c-4 -3 -7 -30 -7 -60 0 -39 4 -55 15 -60 21 -7 25 -2 32
40 10 62 -13 107 -40 80z"/>
<path d="M2215 328 c-7 -20 -24 -102 -25 -115 0 -7 8 -13 19 -13 14 0 22 12
30 44 16 63 14 96 -4 96 -9 0 -18 -6 -20 -12z"/>
<path d="M2430 264 c-6 -14 -10 -39 -10 -55 0 -45 32 -35 43 14 15 61 -13 95
-33 41z"/>
</g>
</svg>
