<?xml version="1.0" standalone="no"?>
<!DOCTYPE svg PUBLIC "-//W3C//DTD SVG 20010904//EN"
 "http://www.w3.org/TR/2001/REC-SVG-20010904/DTD/svg10.dtd">
<svg version="1.0" xmlns="http://www.w3.org/2000/svg"
 width="468pt" height="234pt" viewBox="0 0 468 234"
 preserveAspectRatio="xMidYMid meet">
<metadata>
Created by potrace 1.8, written by Peter Selinger 2001-2007
</metadata>
<g transform="translate(0,234) scale(0.161938,-0.161938)"
fill="#000000" stroke="none">
<path d="M1851 1424 c-126 -34 -211 -143 -211 -270 0 -85 24 -146 79 -203 92
-95 220 -115 338 -55 105 54 160 155 151 277 -7 79 -34 132 -96 189 -74 66
-168 88 -261 62z"/>
<path d="M865 1169 c-272 -115 -407 -178 -422 -195 -26 -29 -30 -72 -8 -113
34 -68 67 -60 455 104 188 80 346 145 351 145 5 0 18 -18 29 -40 l20 -39 -218
-178 c-238 -196 -247 -208 -198 -258 l25 -25 539 0 c530 0 540 0 566 21 26 20
35 61 18 85 -7 12 -487 406 -535 439 -16 11 -47 58 -72 107 -48 94 -73 118
-120 117 -16 0 -210 -77 -430 -170z"/>
<path d="M321 459 c-68 -16 -130 -34 -137 -40 -23 -19 -17 -73 11 -99 l25 -24
123 28 123 27 99 -31 98 -32 27 21 c28 20 28 20 45 0 23 -25 48 -24 173 5
l103 24 86 -29 c100 -33 120 -35 145 -12 16 14 20 14 36 1 30 -26 46 -27 148
-2 124 29 134 29 224 -1 92 -31 124 -32 145 -3 10 15 18 19 23 12 21 -32 47
-33 165 -6 l117 26 83 -27 c95 -31 129 -33 151 -12 14 14 18 14 38 1 21 -13
34 -12 140 11 l118 26 88 -26 c103 -31 134 -33 153 -11 16 20 17 80 1 96 -6 6
-62 28 -124 48 l-112 36 -131 -29 c-71 -17 -138 -37 -147 -45 -13 -11 -21 -12
-30 -4 -18 14 -208 75 -233 74 -49 -2 -270 -62 -280 -76 -10 -13 -14 -13 -26
-1 -8 7 -63 29 -123 47 l-109 35 -134 -32 c-74 -18 -139 -37 -146 -44 -8 -8
-15 -7 -26 3 -9 8 -66 31 -127 50 l-111 36 -134 -31 c-74 -17 -141 -38 -150
-46 -14 -12 -17 -12 -22 1 -6 15 -214 87 -246 85 -9 0 -72 -14 -140 -30z"/>
<path d="M288 225 c-2 -3 -56 -16 -119 -31 -63 -14 -124 -32 -136 -40 -48 -31
-15 -118 43 -116 16 0 69 10 117 21 111 26 118 26 207 -4 92 -31 124 -32 144
-3 9 12 16 17 16 10 0 -6 11 -19 25 -28 23 -15 32 -15 144 10 l120 27 101 -31
c101 -31 131 -31 142 2 3 8 12 4 26 -10 28 -28 40 -27 171 3 l108 25 88 -30
c105 -36 119 -36 146 -9 19 19 22 19 38 5 23 -21 43 -20 165 8 l103 25 94 -29
c110 -35 117 -35 141 -13 14 13 21 14 30 5 17 -17 42 -15 163 12 l108 25 99
-32 c108 -34 120 -32 148 16 13 24 13 30 0 54 -13 23 -35 34 -130 66 l-114 38
-136 -32 c-74 -17 -139 -35 -145 -39 -5 -4 -64 10 -130 31 l-119 39 -136 -30
c-94 -22 -140 -37 -151 -50 -14 -17 -19 -17 -29 -5 -6 7 -61 30 -121 50 l-109
37 -135 -32 c-74 -18 -140 -39 -146 -46 -10 -13 -15 -12 -33 5 -12 10 -68 34
-126 51 l-105 32 -129 -28 c-71 -15 -138 -36 -149 -45 -20 -15 -22 -15 -36 2
-9 9 -67 34 -128 53 -124 40 -118 38 -125 31z"/>
</g>
</svg>
