<?xml version="1.0" standalone="no"?>
<!DOCTYPE svg PUBLIC "-//W3C//DTD SVG 20010904//EN"
 "http://www.w3.org/TR/2001/REC-SVG-20010904/DTD/svg10.dtd">
<svg version="1.0" xmlns="http://www.w3.org/2000/svg"
 width="468pt" height="467pt" viewBox="0 0 468 467"
 preserveAspectRatio="xMidYMid meet">
<metadata>
Created by potrace 1.8, written by Peter Selinger 2001-2007
</metadata>
<g transform="translate(0,467) scale(0.157576,-0.157576)"
fill="#000000" stroke="none">
<path d="M25 2936 c-8 -13 -13 -31 -9 -39 9 -24 87 -79 167 -118 68 -34 82
-54 52 -79 -12 -10 -15 -44 -15 -183 l0 -171 55 -53 c96 -93 154 -114 195 -73
41 41 24 101 -56 192 -37 42 -42 64 -46 199 l-3 95 73 -23 c40 -13 78 -23 85
-23 7 0 18 -4 26 -9 11 -7 11 -13 -3 -32 -13 -19 -16 -52 -16 -183 l0 -160 74
-73 c40 -39 86 -75 101 -79 61 -15 113 35 100 94 -3 16 -29 57 -58 92 l-52 63
-5 121 c-3 67 -5 122 -4 124 0 1 43 -6 95 -17 52 -10 127 -24 167 -31 l74 -12
-4 -66 -3 -67 45 -8 c91 -17 122 -29 162 -65 47 -42 77 -101 78 -149 0 -31 28
-73 48 -73 23 0 42 31 51 85 6 32 22 76 36 97 32 48 120 101 157 94 15 -3 44
2 64 10 31 13 35 19 31 41 -5 25 -4 25 47 19 28 -3 75 -6 104 -6 60 0 66 -12
29 -61 -20 -27 -22 -42 -22 -142 0 -62 -4 -141 -9 -177 -12 -98 -4 -104 129
-108 124 -4 150 6 161 63 6 35 8 36 48 33 38 -3 41 -5 44 -35 5 -51 32 -63
142 -63 57 0 105 5 120 13 l25 13 -4 184 c-3 182 -9 213 -40 237 -13 10 34 12
227 13 l242 0 11 24 c8 16 8 29 1 43 -10 18 -26 20 -178 26 -92 4 -200 7 -240
7 l-72 0 -7 31 c-14 62 -95 61 -95 -1 l0 -30 -137 6 c-208 8 -223 10 -223 40
0 54 -82 53 -96 -1 -5 -22 -10 -23 -52 -20 -26 3 -77 7 -114 11 -64 5 -68 7
-68 30 0 51 -79 54 -95 3 -6 -19 -12 -20 -68 -14 -216 23 -373 47 -376 56 -6
20 -40 49 -56 49 -8 0 -24 -9 -36 -21 -23 -23 -8 -24 -230 17 l-137 26 -5 45
c-5 47 -18 63 -53 63 -28 0 -44 -19 -44 -53 0 -22 -4 -27 -17 -23 -183 51
-193 55 -193 86 0 29 -30 70 -51 70 -23 0 -49 -22 -49 -41 0 -19 0 -19 -38 0
-22 11 -60 36 -86 55 -54 42 -80 45 -101 12z m305 -361 c0 -111 10 -146 54
-195 53 -59 68 -87 61 -110 -11 -35 -52 -25 -109 27 -28 26 -56 56 -63 68 -8
13 -12 69 -13 161 l0 141 35 -1 35 -1 0 -90z m310 -54 c0 -119 14 -167 70
-235 58 -70 64 -109 20 -114 -20 -2 -41 11 -88 55 l-62 58 0 153 0 152 30 0
30 0 0 -69z m705 -6 c115 -14 210 -27 213 -30 3 -3 -94 -5 -216 -5 l-222 0 0
30 c0 17 4 30 9 30 4 0 102 -11 216 -25z m708 -62 c-13 -2 -33 -2 -45 0 -13 2
-3 4 22 4 25 0 35 -2 23 -4z m-576 -43 c-52 -33 -101 -101 -118 -165 l-11 -40
-13 47 c-16 63 -58 121 -113 158 l-45 30 173 0 174 0 -47 -30z m882 -22 c13
-17 1 -18 -223 -18 -139 0 -235 4 -232 9 3 5 15 7 27 4 11 -3 30 -1 42 6 17 9
187 16 372 16 1 0 7 -8 14 -17z m86 -8 c3 -5 -1 -10 -10 -10 -9 0 -13 5 -10
10 3 6 8 10 10 10 2 0 7 -4 10 -10z m-381 -162 c2 -57 7 -121 11 -144 l7 -41
-69 -5 c-38 -3 -84 -3 -103 0 l-33 5 7 90 c3 49 6 114 6 144 l0 53 84 0 85 0
5 -102z m171 7 l0 -90 -65 0 -65 0 -3 78 c-4 100 3 109 77 105 l56 -3 0 -90z
m219 -22 c4 -65 8 -129 9 -143 2 -25 2 -25 -100 -28 l-103 -3 0 35 c0 19 5 38
10 41 6 3 10 52 10 111 l0 104 83 0 84 0 7 -117z"/>
<path d="M1710 1793 c-32 -12 -61 -49 -75 -97 -13 -42 -15 -165 -15 -795 1
-677 2 -751 18 -795 10 -29 29 -58 45 -70 28 -21 37 -21 612 -21 l584 0 32 30
c61 58 59 22 59 863 l0 768 -22 44 c-43 83 -16 80 -658 79 -311 0 -572 -3
-580 -6z m1118 -221 l3 -92 -536 0 -535 0 0 90 0 90 518 3 c284 1 524 2 532 2
12 0 16 -19 18 -93z m2 -801 l0 -619 -27 -5 c-14 -3 -247 -3 -517 -1 -270 3
-499 5 -508 4 -17 0 -18 36 -18 620 l0 620 535 0 535 0 0 -619z"/>
<path d="M2222 1618 c-19 -19 -15 -66 7 -78 11 -5 56 -10 101 -10 96 0 120 10
120 48 0 45 -15 52 -120 52 -61 0 -100 -4 -108 -12z"/>
<path d="M2546 1608 c-20 -29 -20 -34 4 -58 28 -28 139 -29 163 -2 44 48 9 82
-83 82 -60 0 -71 -3 -84 -22z"/>
<path d="M2215 1160 c-168 -34 -309 -155 -367 -317 -32 -89 -36 -221 -8 -302
59 -176 210 -302 398 -332 287 -47 562 211 539 506 -17 220 -172 393 -392 440
-77 16 -109 17 -170 5z m251 -130 c74 -36 140 -105 181 -188 25 -51 28 -68 28
-157 0 -87 -3 -107 -26 -156 -140 -297 -547 -303 -692 -10 -30 61 -32 72 -32
171 0 96 2 110 29 163 48 95 156 180 263 207 71 17 179 5 249 -30z"/>
<path d="M2205 1017 c-69 -23 -100 -44 -153 -102 -141 -154 -123 -381 39 -501
59 -43 151 -74 220 -74 114 0 241 85 296 199 24 49 28 68 28 146 0 108 -20
159 -89 233 -83 89 -237 133 -341 99z m221 -123 c82 -50 132 -156 117 -247 -9
-61 -62 -138 -117 -171 -67 -42 -164 -48 -231 -16 -128 62 -180 226 -110 346
70 119 227 159 341 88z"/>
<path d="M880 830 c-19 -19 -35 -20 -412 -20 -426 0 -431 -1 -457 -55 -12 -24
-12 -39 -2 -85 6 -30 32 -163 56 -295 53 -281 68 -341 95 -355 12 -6 220 -10
593 -10 534 0 575 1 589 18 22 25 25 37 68 256 58 300 81 446 75 467 -10 32
-55 59 -96 59 -26 0 -46 7 -59 20 -13 13 -33 20 -59 20 -23 0 -48 -8 -64 -20
-20 -16 -40 -20 -107 -20 -48 0 -92 5 -108 14 -51 25 -91 27 -112 6z m79 -39
c11 -7 11 -20 -3 -79 -23 -102 -20 -131 19 -213 40 -83 41 -91 20 -109 -11 -9
-22 -10 -38 -3 -27 13 -107 128 -107 155 0 17 45 218 55 246 5 14 34 16 54 3z
m341 -68 l0 -77 -60 -58 c-45 -44 -66 -58 -89 -58 -16 0 -31 6 -34 14 -7 17
16 63 52 101 47 50 61 78 61 117 0 37 1 38 35 38 l35 0 0 -77z m-1016 -45 c3
-18 10 -121 16 -228 5 -107 13 -230 16 -272 l7 -78 -51 0 -50 0 -16 68 c-8 37
-31 155 -51 262 -20 107 -40 214 -44 238 l-9 42 89 0 88 0 5 -32z m216 -190
c0 -123 3 -260 7 -305 l6 -83 -46 0 -46 0 -5 53 c-3 28 -10 138 -16 242 -6
105 -13 218 -16 253 l-6 62 61 0 61 0 0 -222z m194 145 c3 -42 6 -179 6 -305
l0 -228 -50 0 -50 0 0 305 0 305 44 0 43 0 7 -77z m141 55 c-39 -170 -40 -160
19 -253 l35 -54 3 -140 3 -141 -46 0 -46 0 -6 137 c-4 75 -7 212 -7 305 l0
168 25 0 c21 0 25 -4 20 -22z m278 -15 c-3 -21 -14 -49 -25 -62 -22 -29 -23
-66 -2 -106 16 -30 15 -136 -3 -337 l-6 -68 -43 0 -44 0 0 109 c0 108 0 110
30 139 40 41 39 79 -6 172 -31 64 -35 82 -30 123 3 26 8 52 11 57 3 6 33 10
65 10 l59 0 -6 -37z m273 15 c-3 -13 -21 -113 -41 -223 -20 -110 -44 -236 -54
-280 l-17 -80 -47 -3 c-56 -4 -52 -25 -37 218 l11 165 65 63 c66 64 84 94 84
138 0 17 5 24 20 24 16 0 19 -5 16 -22z"/>
</g>
</svg>
