<?xml version="1.0" standalone="no"?>
<!DOCTYPE svg PUBLIC "-//W3C//DTD SVG 20010904//EN"
 "http://www.w3.org/TR/2001/REC-SVG-20010904/DTD/svg10.dtd">
<svg version="1.0" xmlns="http://www.w3.org/2000/svg"
 width="468pt" height="468pt" viewBox="0 0 468 468"
 preserveAspectRatio="xMidYMid meet">
<metadata>
Created by potrace 1.8, written by Peter Selinger 2001-2007
</metadata>
<g transform="translate(0,468) scale(0.157576,-0.157576)"
fill="#000000" stroke="none">
<path d="M766 2954 c-9 -8 -16 -22 -16 -29 0 -7 7 -21 16 -29 30 -30 74 -13
74 29 0 42 -44 59 -74 29z"/>
<path d="M305 2834 c-265 -175 -362 -538 -219 -823 42 -85 135 -187 217 -239
192 -122 442 -136 638 -37 53 27 65 58 33 89 -19 20 -21 20 -74 1 -82 -29
-181 -10 -302 58 -247 140 -345 315 -336 597 4 103 7 122 35 181 19 41 44 76
66 93 44 34 52 53 32 82 -20 31 -41 30 -90 -2z m-147 -412 c3 -86 30 -213 61
-285 47 -109 162 -235 290 -319 81 -53 76 -58 -21 -28 -170 52 -317 208 -359
380 -18 74 -16 202 5 273 9 31 18 57 19 57 1 0 3 -35 5 -78z"/>
<path d="M931 2646 c-7 -8 -11 -27 -9 -43 2 -23 9 -29 33 -31 46 -6 71 40 39
72 -19 20 -48 20 -63 2z"/>
<path d="M636 2641 c-9 -13 4 -41 18 -41 18 0 35 21 29 36 -6 16 -39 19 -47 5z"/>
<path d="M1073 2571 c-18 -11 -37 -35 -44 -55 l-13 -36 -81 0 c-63 0 -87 -4
-113 -20 -34 -21 -62 -72 -62 -113 0 -18 -8 -28 -29 -37 -16 -6 -40 -23 -53
-37 -21 -22 -23 -33 -23 -124 0 -98 0 -99 33 -131 l32 -33 157 -3 c149 -3 158
-5 186 -28 28 -24 29 -24 272 -24 l243 0 30 25 c25 21 41 25 89 25 73 0 122
28 140 80 15 45 15 205 0 250 -17 50 -67 80 -132 80 l-53 0 -4 70 c-3 60 -8
74 -31 98 l-27 27 -243 3 c-225 2 -244 1 -274 -17z"/>
<path d="M2850 1362 c-25 -20 -25 -23 -28 -201 l-4 -182 -33 30 c-45 39 -78
43 -330 39 -190 -3 -213 -5 -245 -23 -56 -33 -72 -73 -78 -186 l-5 -99 -68 0
-68 0 -3 189 c-3 186 -3 190 -28 217 -52 56 -21 54 -913 54 l-824 0 -43 -23
c-50 -26 -80 -75 -80 -129 0 -33 -3 -38 -23 -38 -12 0 -33 -7 -45 -16 l-22
-15 0 -463 c0 -436 1 -464 18 -479 25 -22 75 -21 95 1 14 15 17 41 17 140 l0
122 1339 0 1339 0 4 -124 c3 -141 15 -166 73 -166 68 0 65 -34 65 681 0 501
-3 649 -12 662 -21 27 -70 32 -98 9z"/>
</g>
</svg>
