<?xml version="1.0" standalone="no"?>
<!DOCTYPE svg PUBLIC "-//W3C//DTD SVG 20010904//EN"
 "http://www.w3.org/TR/2001/REC-SVG-20010904/DTD/svg10.dtd">
<svg version="1.0" xmlns="http://www.w3.org/2000/svg"
 width="468pt" height="218pt" viewBox="0 0 468 218"
 preserveAspectRatio="xMidYMid meet">
<metadata>
Created by potrace 1.8, written by Peter Selinger 2001-2007
</metadata>
<g transform="translate(0,218) scale(0.157576,-0.157576)"
fill="#000000" stroke="none">
<path d="M2844 1349 c-18 -20 -19 -42 -22 -315 l-3 -294 -77 0 -77 0 3 45 c4
39 0 49 -26 75 l-30 30 -186 0 -186 0 0 140 c0 108 -4 148 -15 171 -25 48 -89
63 -145 34 -45 -24 -52 -63 -48 -293 l3 -202 -22 0 c-22 0 -22 1 -25 219 -3
218 -3 220 -28 247 -52 56 -21 54 -917 54 l-828 0 -39 -23 c-56 -32 -76 -76
-76 -164 l0 -73 -28 0 c-63 0 -62 10 -62 -491 0 -507 -2 -493 65 -493 58 0 65
18 65 158 l0 121 1339 -3 1339 -2 3 -126 c4 -118 5 -127 28 -145 30 -25 66
-24 91 1 20 20 20 33 20 668 0 616 -1 650 -18 665 -26 24 -75 21 -98 -4z"/>
<path d="M2385 1266 c-37 -17 -80 -62 -94 -99 -28 -73 -1 -174 56 -215 37 -27
106 -44 140 -36 147 34 204 202 105 308 -51 54 -140 72 -207 42z"/>
</g>
</svg>
