<?xml version="1.0" standalone="no"?>
<!DOCTYPE svg PUBLIC "-//W3C//DTD SVG 20010904//EN"
 "http://www.w3.org/TR/2001/REC-SVG-20010904/DTD/svg10.dtd">
<svg version="1.0" xmlns="http://www.w3.org/2000/svg"
 width="468pt" height="473pt" viewBox="0 0 468 473"
 preserveAspectRatio="xMidYMid meet">
<metadata>
Created by potrace 1.8, written by Peter Selinger 2001-2007
</metadata>
<g transform="translate(0,473) scale(0.158644,-0.158644)"
fill="#000000" stroke="none">
<path d="M1663 2868 c-151 -150 -152 -156 -54 -263 l71 -78 0 -419 c0 -471 0
-471 66 -484 50 -9 123 1 143 20 14 15 17 66 21 456 l5 439 68 68 c66 68 79
97 55 121 -23 23 -54 12 -98 -33 -24 -25 -49 -45 -56 -45 -6 0 -42 34 -79 76
l-68 75 52 52 c30 31 51 62 51 74 0 21 -33 53 -54 53 -5 0 -60 -51 -123 -112z
m157 -723 c0 -298 0 -305 -20 -305 -20 0 -20 7 -20 305 0 298 0 305 20 305 20
0 20 -7 20 -305z"/>
<path d="M1119 2939 c-19 -19 -20 -28 -14 -132 3 -62 8 -208 11 -325 5 -210 4
-214 -16 -219 -45 -12 -50 -45 -50 -317 0 -270 4 -295 47 -315 29 -13 123 -14
156 -2 41 16 47 55 47 318 0 265 -4 288 -55 311 l-26 12 5 212 c3 117 8 263
11 325 6 104 5 113 -14 132 -12 12 -34 21 -51 21 -17 0 -39 -9 -51 -21z m81
-994 l0 -225 -25 0 -25 0 0 225 0 225 25 0 25 0 0 -225z"/>
<path d="M2480 2949 c-60 -6 -109 -29 -212 -95 -56 -36 -69 -49 -79 -84 -24
-79 25 -115 176 -126 l85 -7 0 -469 c0 -514 1 -527 57 -549 15 -6 55 -9 88 -6
48 5 64 10 82 32 l23 26 0 490 0 489 75 0 c138 0 175 31 175 150 0 100 -19
133 -87 148 -50 12 -288 12 -383 1z m368 -145 c2 -43 0 -52 -15 -55 -10 -2
-135 -2 -277 1 l-260 5 40 26 c112 74 128 78 334 76 l175 -2 3 -51z m-238
-629 l0 -465 -30 0 -30 0 0 465 0 465 30 0 30 0 0 -465z"/>
<path d="M16 1338 c-21 -30 -20 -71 2 -91 15 -13 39 -17 110 -17 l92 0 0 -234
0 -234 -26 -16 c-32 -22 -30 -66 4 -81 22 -10 22 -10 22 -267 0 -241 -1 -258
-18 -258 -34 0 -62 -29 -62 -64 0 -62 16 -71 135 -74 114 -4 147 6 160 48 11
35 -14 80 -46 87 l-29 6 0 258 0 259 685 0 685 0 0 -214 c0 -201 1 -215 21
-240 l20 -26 405 0 c397 0 404 0 404 -20 0 -14 -7 -20 -22 -20 -31 0 -45 -11
-56 -40 -10 -27 1 -69 21 -82 7 -4 67 -8 134 -8 115 0 123 1 137 22 33 46 7
108 -45 108 l-29 0 0 259 c0 247 1 260 19 266 37 12 38 65 0 85 -18 10 -19 24
-19 245 l0 235 93 0 c78 0 97 3 110 18 21 23 22 61 1 90 l-15 22 -1439 0
-1439 0 -15 -22z m1714 -345 l0 -238 -685 3 -685 2 0 219 c0 121 -3 226 -6
235 -6 15 59 16 685 16 l691 0 0 -237z m849 175 c-1 -58 -2 -60 -9 -24 -13 67
-6 66 -385 66 -279 0 -345 -3 -361 -14 -16 -12 -19 -29 -22 -128 -5 -171 -40
-156 374 -160 410 -3 391 -8 397 104 1 40 3 3 4 -82 0 -92 -2 -137 -7 -112 -7
45 -21 61 -55 62 -11 1 -168 1 -350 0 -397 -1 -365 12 -365 -149 0 -80 4 -112
16 -129 l15 -22 348 0 c284 0 351 3 367 14 15 11 20 31 25 88 4 52 6 28 6 -82
0 -93 -2 -138 -7 -112 -3 24 -13 48 -21 53 -17 11 10 10 -389 9 -392 0 -360
13 -360 -149 0 -80 4 -112 16 -129 l15 -22 348 0 c284 0 351 3 367 14 15 11
20 31 25 88 l6 73 1 -96 c2 -70 -2 -98 -10 -101 -7 -2 -186 -2 -398 1 l-385 6
-3 498 -2 497 400 0 400 0 -1 -62z m-59 -17 c11 -21 14 -159 4 -185 -5 -14
-45 -16 -339 -16 l-333 0 -6 23 c-3 12 -6 59 -6 104 l0 82 33 4 c17 2 168 5
334 5 290 2 303 1 313 -17z m4 -333 c11 -41 7 -173 -6 -186 -9 -9 -97 -12
-335 -12 -308 0 -323 1 -333 19 -15 29 -13 188 3 194 6 3 159 6 338 6 l327 1
6 -22z m0 -330 c11 -41 7 -173 -6 -186 -9 -9 -97 -12 -335 -12 -308 0 -323 1
-333 19 -15 29 -13 188 3 194 6 3 159 6 338 6 l327 1 6 -22z"/>
<path d="M2020 1100 c0 -19 7 -20 165 -20 158 0 165 1 165 20 0 19 -7 20 -165
20 -158 0 -165 -1 -165 -20z"/>
<path d="M2023 785 c-11 -31 13 -36 168 -33 146 3 154 4 154 23 0 19 -8 20
-158 23 -136 2 -158 0 -164 -13z"/>
<path d="M2023 465 c-11 -31 13 -36 168 -33 146 3 154 4 154 23 0 19 -8 20
-158 23 -136 2 -158 0 -164 -13z"/>
</g>
</svg>
