<?xml version="1.0" standalone="no"?>
<!DOCTYPE svg PUBLIC "-//W3C//DTD SVG 20010904//EN"
 "http://www.w3.org/TR/2001/REC-SVG-20010904/DTD/svg10.dtd">
<svg version="1.0" xmlns="http://www.w3.org/2000/svg"
 width="468pt" height="453pt" viewBox="0 0 468 453"
 preserveAspectRatio="xMidYMid meet">
<metadata>
Created by potrace 1.8, written by Peter Selinger 2001-2007
</metadata>
<g transform="translate(0,453) scale(0.158108,-0.158108)"
fill="#000000" stroke="none">
<path d="M10 2831 c-14 -27 -14 -2775 0 -2802 12 -22 59 -26 78 -7 8 8 12 50
12 125 l0 113 615 0 615 0 0 -113 c0 -75 4 -117 12 -125 19 -19 66 -15 78 7
14 27 14 2775 0 2802 -7 12 -21 19 -40 19 -31 0 -50 -22 -50 -59 0 -21 0 -21
-615 -21 l-615 0 0 28 c0 15 -5 33 -12 40 -19 19 -66 15 -78 -7z m1320 -476
l0 -315 -50 0 -50 0 16 25 c13 20 15 51 12 192 -3 153 -5 172 -27 212 -12 24
-28 71 -35 105 -12 58 -14 61 -42 61 -28 0 -29 -2 -36 -57 -4 -31 -20 -81 -35
-110 -26 -50 -28 -61 -31 -210 -3 -126 -1 -164 11 -188 l15 -30 -45 0 c-44 0
-45 1 -30 18 14 16 17 44 17 183 0 154 -2 168 -26 224 -14 33 -31 85 -38 115
-10 49 -15 55 -39 58 -15 2 -27 2 -28 0 0 -2 -2 -23 -5 -48 -3 -25 -17 -72
-31 -105 -13 -33 -29 -78 -35 -100 -14 -58 -6 -308 11 -329 12 -15 -1 -16
-168 -16 -176 0 -181 1 -171 19 5 11 10 66 11 123 1 88 -3 116 -26 188 -15 47
-29 91 -31 98 -2 7 -14 12 -25 10 -17 -2 -25 -16 -39 -68 -10 -36 -22 -78 -29
-93 -14 -35 -15 -232 -1 -258 9 -16 7 -19 -15 -19 -22 0 -24 3 -15 19 5 11 10
68 10 127 0 88 -5 121 -26 188 -15 44 -28 87 -30 94 -2 7 -13 12 -25 10 -35
-5 -70 -136 -76 -280 -3 -75 -1 -124 7 -137 10 -20 8 -21 -35 -21 l-45 0 0
315 0 315 615 0 615 0 0 -315z m-125 -100 l0 -170 -52 -3 -53 -3 0 158 c0 147
2 162 25 211 14 30 25 61 26 70 0 10 12 -8 27 -38 26 -53 27 -61 27 -225z
m-255 202 c22 -54 25 -80 28 -205 4 -167 1 -174 -67 -170 l-46 3 -3 145 c-2
138 -1 149 25 217 15 40 30 73 33 73 3 0 16 -28 30 -63z m-500 -263 l0 -114
-30 0 -30 0 0 110 c0 82 4 118 17 145 l17 35 13 -31 c8 -20 13 -74 13 -145z
m-170 4 l0 -118 -30 0 -30 0 0 110 c0 83 4 119 16 142 l16 32 14 -25 c9 -16
13 -62 14 -141z m1050 -573 l0 -315 -152 2 c-84 1 -126 3 -93 5 32 2 65 9 72
15 17 14 18 229 1 246 -16 16 -200 16 -216 0 -8 -8 -12 -51 -12 -130 0 -101 2
-118 18 -127 12 -8 -9 -10 -78 -11 -83 0 -92 2 -70 13 25 12 25 15 31 162 9
211 18 199 -157 203 -107 2 -144 -1 -152 -11 -14 -16 -19 -334 -6 -347 5 -5
54 -11 109 -13 71 -2 55 -3 -55 -4 -85 -1 -148 1 -140 4 35 13 40 35 40 186 0
83 -5 157 -10 168 -10 17 -23 19 -149 19 -104 0 -141 -3 -150 -14 -14 -17 -23
-313 -10 -338 8 -14 26 -18 112 -21 99 -3 98 -3 -30 -5 l-133 -2 0 315 0 315
615 0 615 0 0 -315z m-910 -120 l0 -145 -115 0 -115 0 0 145 0 145 115 0 115
0 0 -145z m370 0 l0 -145 -115 0 -115 0 0 145 0 145 115 0 115 0 0 -145z m333
38 c2 -5 2 -47 -1 -95 l-5 -88 -72 0 -72 0 -1 95 0 95 73 0 c41 0 76 -3 78 -7z
m207 -753 l0 -430 -45 0 c-45 0 -45 0 -31 23 12 17 16 58 17 162 2 115 6 144
20 165 14 20 18 48 20 130 2 153 1 159 -26 185 l-24 25 -224 0 c-282 0 -261
15 -264 -187 -1 -80 -6 -149 -11 -152 -24 -16 -32 -57 -32 -173 0 -87 4 -131
14 -150 l15 -28 -70 0 -70 0 15 22 c14 19 16 69 16 346 0 212 -4 330 -11 344
-21 39 -67 48 -253 48 -96 0 -186 -4 -200 -10 -56 -21 -58 -30 -59 -384 -1
-303 0 -327 18 -346 18 -20 18 -20 -13 -20 l-32 0 0 430 0 430 615 0 615 0 0
-430z m-746 267 l26 -17 0 -308 c0 -250 -3 -312 -14 -328 -13 -17 -30 -19
-167 -22 -173 -4 -212 1 -240 29 -18 18 -19 35 -19 317 0 241 3 302 14 318 12
16 31 20 113 25 157 10 257 5 287 -14z m676 -66 c14 -28 13 -248 -2 -257 -6
-4 -103 -9 -214 -11 l-203 -3 -17 25 c-14 22 -16 42 -9 138 4 66 12 115 18
119 7 4 103 8 214 8 190 0 203 -1 213 -19z m-39 -333 c5 -10 8 -71 7 -135 l-3
-118 -218 -3 -217 -2 -11 27 c-10 27 -4 227 8 246 3 5 100 7 215 6 189 -3 210
-5 219 -21z"/>
<path d="M150 1740 c0 -19 7 -20 155 -20 148 0 155 1 155 20 0 19 -7 20 -155
20 -148 0 -155 -1 -155 -20z"/>
<path d="M515 1749 c-15 -24 17 -29 161 -27 125 3 149 5 149 18 0 13 -25 15
-152 18 -103 2 -154 -1 -158 -9z"/>
<path d="M935 1640 c-14 -23 11 -30 115 -30 83 0 109 3 113 14 3 8 3 17 0 20
-11 10 -221 7 -228 -4z"/>
<path d="M2344 2162 c-16 -10 -34 -48 -34 -70 0 -10 11 -29 24 -41 22 -21 23
-25 10 -49 -17 -32 -20 -395 -4 -437 5 -14 20 -30 32 -35 16 -7 -52 -9 -206
-8 -214 2 -229 1 -242 -17 -12 -16 -14 -140 -14 -731 0 -439 4 -723 10 -738 7
-20 17 -26 38 -26 39 0 52 17 52 67 l0 43 425 0 425 0 0 -44 c0 -50 16 -69 57
-64 l28 3 3 744 c1 557 -1 747 -10 758 -8 11 -25 12 -67 7 l-55 -7 26 24 27
24 5 197 c3 172 2 202 -13 231 -17 33 -16 34 6 51 30 22 31 78 3 106 -19 19
-33 20 -267 20 -137 0 -253 -4 -259 -8z m436 -382 l0 -160 -175 0 c-133 0
-175 3 -175 13 0 6 -2 76 -3 155 -2 79 -1 145 2 147 2 3 82 5 178 5 l173 0 0
-160z m80 -422 c0 -59 -1 -61 -16 -40 -21 30 -66 52 -108 52 -65 0 -120 -74
-108 -147 5 -33 45 -70 89 -83 34 -10 46 -10 74 4 19 9 42 28 51 44 l17 27 1
-47 0 -48 -425 0 -425 0 0 150 0 150 425 0 425 0 0 -62z m-60 -58 c11 -11 20
-31 20 -45 0 -34 -42 -75 -76 -75 -60 0 -97 78 -57 122 23 25 87 24 113 -2z
m-726 -234 c-17 -8 -39 -24 -48 -37 l-16 -23 0 37 0 37 48 0 47 -1 -31 -13z
m252 -1 c-79 -41 -93 -141 -27 -199 12 -11 41 -21 69 -24 44 -4 53 -1 82 25
26 24 33 39 37 79 4 40 1 54 -18 78 -12 15 -36 34 -53 42 -28 12 -22 13 79 13
68 0 102 -3 90 -9 -57 -23 -93 -117 -65 -169 30 -58 125 -79 175 -39 74 58 64
161 -20 199 l-40 19 113 0 112 0 0 -125 0 -125 -425 0 -425 0 0 38 c1 31 3 34
13 22 45 -57 126 -67 175 -22 69 64 44 175 -44 202 -20 6 6 9 86 9 109 1 113
0 86 -14z m-171 -41 c8 -4 23 -20 31 -36 12 -24 13 -36 4 -58 -32 -76 -140
-52 -140 31 0 55 49 84 105 63z m270 -19 c49 -48 19 -119 -50 -119 -45 0 -75
30 -75 75 0 64 78 92 125 44z m249 4 c63 -50 1 -150 -75 -119 -27 12 -49 47
-49 80 0 23 46 60 75 60 12 0 34 -9 49 -21z m186 -256 c-1 -31 -3 -35 -11 -20
-29 50 -120 62 -168 22 -77 -66 -53 -184 44 -208 11 -2 -32 -5 -95 -6 l-115
-1 35 18 c45 22 75 79 66 127 -9 47 -66 95 -112 95 -50 0 -89 -23 -109 -66
-31 -65 -6 -131 60 -160 27 -12 20 -13 -80 -13 -104 0 -108 1 -77 14 45 20 75
87 62 136 -14 50 -50 80 -103 86 -53 6 -81 -7 -107 -50 -40 -65 -16 -142 54
-173 28 -12 21 -13 -81 -14 l-113 0 0 125 0 125 425 0 425 0 0 -37z m-589 -23
c20 0 49 -41 49 -69 0 -35 -40 -71 -77 -71 -30 0 -73 42 -73 70 0 45 43 86 78
74 8 -2 18 -4 23 -4z m282 -18 c24 -21 22 -77 -3 -102 -39 -39 -112 -16 -125
40 -15 70 70 112 128 62z m255 -8 c29 -32 28 -59 -3 -89 -48 -48 -125 -19
-125 48 0 40 9 53 40 66 33 13 60 5 88 -25z m52 -134 c0 -29 -2 -30 -42 -29
-33 0 -38 2 -23 8 11 5 29 18 39 30 25 27 26 27 26 -9z m0 -210 l0 -140 -425
0 -425 0 0 58 c1 56 1 57 16 30 32 -59 121 -76 172 -33 62 52 64 138 6 184
-59 46 -129 35 -171 -28 l-23 -34 0 52 0 51 425 0 425 0 0 -140z m-697 69 c30
-16 37 -28 37 -65 0 -66 -82 -92 -127 -40 -30 35 -29 61 2 91 26 27 54 31 88
14z"/>
<path d="M2179 1356 c-32 -18 -59 -72 -59 -116 0 -42 53 -96 103 -105 48 -9
96 18 121 69 16 32 17 44 7 75 -6 20 -22 48 -35 60 -31 29 -100 37 -137 17z
m113 -53 c24 -22 24 -77 -2 -103 -60 -60 -162 24 -116 95 13 20 25 25 58 25
25 0 49 -7 60 -17z"/>
<path d="M2415 1337 c-65 -65 -52 -151 28 -191 48 -23 94 -15 131 23 54 56 42
152 -24 186 -50 26 -97 20 -135 -18z m135 -44 c25 -32 20 -69 -12 -95 -48 -41
-118 -8 -118 56 0 45 22 66 70 66 30 0 43 -6 60 -27z"/>
<path d="M2330 472 c-73 -36 -89 -131 -31 -186 84 -81 216 -13 198 100 -7 44
-31 72 -74 90 -42 18 -51 18 -93 -4z m91 -43 c51 -27 43 -109 -12 -128 -54
-19 -99 13 -99 70 0 58 57 88 111 58z"/>
<path d="M2584 474 c-56 -27 -83 -109 -54 -163 33 -62 129 -80 181 -33 43 39
52 113 18 156 -21 27 -74 56 -101 56 -7 0 -27 -7 -44 -16z m101 -59 c55 -55
14 -123 -70 -116 -28 3 -55 38 -55 72 0 64 78 92 125 44z"/>
</g>
</svg>
