<?xml version="1.0" standalone="no"?>
<!DOCTYPE svg PUBLIC "-//W3C//DTD SVG 20010904//EN"
 "http://www.w3.org/TR/2001/REC-SVG-20010904/DTD/svg10.dtd">
<svg version="1.0" xmlns="http://www.w3.org/2000/svg"
 width="468pt" height="512pt" viewBox="0 0 468 512"
 preserveAspectRatio="xMidYMid meet">
<metadata>
Created by potrace 1.8, written by Peter Selinger 2001-2007
</metadata>
<g transform="translate(0,512) scale(0.174627,-0.174627)"
fill="#000000" stroke="none">
<path d="M156 2887 c-37 -40 -76 -145 -76 -205 0 -36 6 -50 33 -76 28 -29 89
-51 527 -195 272 -90 758 -250 1080 -356 l585 -193 -1093 -1 c-1222 -1 -1143
4 -1184 -73 l-23 -43 0 -810 c0 -780 1 -811 19 -849 14 -28 32 -44 62 -57 41
-18 90 -19 1215 -20 l1172 0 46 23 c28 14 53 37 66 58 20 34 20 51 20 850 0
766 -1 818 -18 843 -17 27 -17 28 8 50 33 28 75 144 75 206 0 58 -22 90 -77
114 -104 45 -2333 767 -2367 767 -31 0 -45 -7 -70 -33z m145 -79 c22 -6 39
-14 39 -17 0 -6 -143 -102 -162 -109 -11 -5 -1 41 23 96 20 46 33 51 100 30z
m295 -98 c32 -11 66 -23 74 -26 9 -3 -19 -27 -79 -65 l-93 -60 -80 27 -80 26
88 59 c49 32 94 58 100 59 6 0 37 -9 70 -20z m346 -112 c37 -12 68 -24 68 -27
0 -4 -41 -32 -91 -64 l-92 -58 -69 23 c-38 13 -69 27 -69 31 0 10 161 117 175
117 5 0 40 -10 78 -22z m330 -110 c37 -12 68 -24 68 -27 0 -4 -40 -32 -88 -63
l-88 -58 -78 26 -78 26 89 59 c48 32 92 59 97 59 5 0 40 -10 78 -22z m337
-109 c34 -12 59 -25 54 -29 -32 -28 -166 -110 -181 -110 -10 0 -47 10 -81 21
l-63 22 88 58 c49 32 96 58 105 58 8 1 43 -9 78 -20z m393 -140 c-4 -4 -45
-31 -92 -61 l-85 -55 -80 27 -80 27 93 60 93 61 79 -26 c44 -14 76 -29 72 -33z
m327 -97 l53 -18 -94 -62 -94 -62 -93 31 c-59 20 -89 35 -83 41 5 5 45 33 88
62 l79 53 45 -13 c25 -7 69 -22 99 -32z m244 -122 c-1 -19 -9 -52 -18 -74
l-16 -38 -57 4 c-31 3 -70 11 -87 17 l-29 12 89 59 c50 32 97 58 105 56 10 -1
14 -12 13 -36z m-2405 -331 c-18 -24 -24 -27 -26 -14 -6 26 6 45 28 45 20 0
20 0 -2 -31z m366 19 c-4 -7 -34 -46 -66 -85 l-59 -73 -85 0 -84 0 67 85 68
85 83 0 c64 0 81 -3 76 -12z m350 0 c-4 -7 -34 -46 -66 -85 l-59 -73 -80 0
c-92 0 -91 -7 -7 98 l59 72 80 0 c61 0 78 -3 73 -12z m350 0 c-4 -7 -34 -46
-66 -85 l-59 -73 -80 0 c-92 0 -91 -7 -7 98 l59 72 80 0 c61 0 78 -3 73 -12z
m344 4 c-1 -5 -30 -43 -63 -85 l-60 -76 -78 -1 c-90 0 -90 -7 -4 98 l60 72 74
0 c41 0 73 -4 71 -8z m355 -4 c-5 -7 -36 -46 -67 -85 l-58 -73 -85 0 c-67 0
-83 3 -76 13 5 6 36 45 67 85 l58 72 85 0 c67 0 83 -3 76 -12z m365 -30 c-19
-24 -49 -62 -68 -85 l-33 -43 -100 0 c-54 0 -97 4 -95 8 2 5 30 43 63 85 l60
76 104 1 103 0 -34 -42z m172 -78 l0 -50 -46 0 -45 0 42 50 c23 28 44 50 46
50 1 0 3 -22 3 -50z m0 -799 c0 -610 -1 -649 -18 -652 -9 -2 -533 -3 -1164 -1
l-1148 3 0 650 0 649 1165 0 1165 0 0 -649z"/>
</g>
</svg>
