<?xml version="1.0" standalone="no"?>
<!DOCTYPE svg PUBLIC "-//W3C//DTD SVG 20010904//EN"
 "http://www.w3.org/TR/2001/REC-SVG-20010904/DTD/svg10.dtd">
<svg version="1.0" xmlns="http://www.w3.org/2000/svg"
 width="468pt" height="467pt" viewBox="0 0 468 467"
 preserveAspectRatio="xMidYMid meet">
<metadata>
Created by potrace 1.8, written by Peter Selinger 2001-2007
</metadata>
<g transform="translate(0,467) scale(0.157576,-0.157576)"
fill="#000000" stroke="none">
<path d="M92 2943 c-41 -20 -68 -57 -82 -114 -8 -31 -10 -430 -8 -1369 3
-1456 -1 -1362 63 -1420 l27 -25 1361 -3 c997 -2 1373 0 1404 9 45 12 86 49
102 92 8 20 11 449 11 1380 0 1267 -1 1354 -18 1387 -9 19 -33 43 -52 55 -35
20 -48 20 -1405 22 -1248 2 -1373 1 -1403 -14z m296 -83 l82 0 0 -155 0 -155
-185 0 -185 0 0 138 c0 176 7 185 140 177 36 -3 102 -5 148 -5z m1612 -505 l0
-505 -517 1 c-455 1 -510 2 -453 14 94 19 178 53 196 80 30 47 -7 102 -90 134
l-46 17 56 18 c57 18 94 45 94 70 0 8 -12 28 -26 45 -76 91 -426 103 -563 20
-25 -15 -31 -25 -31 -52 0 -39 16 -56 80 -85 l45 -20 -43 -17 c-69 -28 -99
-84 -72 -134 12 -24 114 -69 181 -80 45 -7 30 -9 -93 -10 l-148 -1 0 505 0
505 715 0 715 0 0 -505z m854 489 c13 -12 16 -41 16 -155 l0 -139 -385 0 -385
0 0 155 0 155 369 0 c323 0 372 -2 385 -16z m-2384 -604 l0 -210 -185 0 -185
0 0 210 0 210 185 0 185 0 0 -210z m2400 0 l0 -210 -77 1 c-57 0 -72 3 -55 9
29 12 44 52 32 84 -5 15 -5 37 0 56 6 19 5 41 -1 57 -7 18 -6 30 1 37 13 13
13 72 0 97 -10 17 -22 19 -128 19 -64 0 -124 -5 -132 -10 -10 -6 -15 -27 -16
-62 0 -29 -4 -65 -8 -80 -5 -16 -3 -41 3 -58 7 -22 7 -38 -1 -55 -14 -32 2
-72 34 -85 16 -6 -3 -9 -67 -9 -64 0 -83 3 -67 9 29 12 44 52 32 84 -5 15 -5
37 2 59 8 27 7 41 -5 65 -13 27 -13 33 -1 43 16 13 19 72 4 100 -10 17 -22 19
-130 19 -112 0 -120 -1 -134 -22 -20 -28 -20 -68 -3 -93 12 -15 11 -21 -5 -37
-20 -20 -23 -44 -8 -82 6 -18 6 -34 -1 -50 -15 -32 7 -78 41 -87 18 -5 11 -7
-27 -8 l-53 -1 0 210 0 210 385 0 385 0 0 -210z m-482 106 c6 -28 -15 -36
-104 -36 -86 0 -111 11 -98 44 5 14 20 16 103 14 85 -3 96 -5 99 -22z m350
-22 c4 -27 -19 -34 -109 -34 -72 0 -107 16 -96 44 6 14 20 16 104 14 91 -3 98
-4 101 -24z m-1626 -83 c20 -6 47 -20 60 -31 l23 -20 -23 -19 c-34 -30 -124
-45 -262 -45 -103 0 -136 3 -185 21 -33 12 -60 27 -60 34 0 20 50 51 107 65
62 16 283 12 340 -5z m1266 -34 l3 -28 -98 3 c-86 3 -98 5 -101 22 -6 29 17
36 108 34 85 -3 85 -3 88 -31z m340 24 c8 -5 12 -17 10 -27 -3 -17 -13 -19
-98 -19 -85 0 -95 2 -98 19 -6 28 15 36 98 36 41 0 81 -4 88 -9z m-350 -119
c6 -1 12 -9 12 -17 0 -13 -15 -15 -97 -13 -62 2 -98 7 -100 15 -2 6 6 13 19
15 23 3 141 3 166 0z m340 2 c12 -4 22 -13 22 -20 0 -11 -22 -14 -100 -14 -81
0 -100 3 -100 15 0 10 16 15 63 18 34 2 69 4 77 5 8 1 25 -1 38 -4z m-1665
-59 c95 -17 142 -42 142 -76 0 -20 -8 -27 -50 -40 -87 -29 -186 -42 -270 -36
-77 5 -188 37 -200 58 -30 47 107 104 260 107 22 1 75 -5 118 -13z m-573 -340
l0 -215 -185 0 -185 0 0 215 0 215 185 0 185 0 0 -215z m2400 -240 l0 -455
-385 0 -385 0 0 455 0 455 385 0 385 0 0 -455z m-870 215 l0 -70 -60 0 c-52 0
-60 3 -60 18 0 11 -8 26 -18 35 -16 15 -20 15 -40 1 -12 -8 -22 -24 -22 -35 0
-12 -7 -19 -20 -19 -13 0 -20 7 -20 18 0 11 -9 27 -20 37 -19 17 -21 17 -40 0
-11 -10 -20 -26 -20 -37 0 -13 -8 -18 -30 -18 -23 0 -31 5 -36 25 -10 39 -39
50 -64 25 -11 -11 -20 -28 -20 -37 -1 -11 -6 -6 -14 13 -8 17 -21 34 -30 37
-19 7 -56 -25 -56 -48 0 -8 -9 -15 -20 -15 -13 0 -20 7 -20 18 0 11 -9 27 -20
37 -19 17 -21 17 -40 0 -11 -10 -20 -26 -20 -37 0 -10 -7 -18 -15 -18 -8 0
-15 9 -15 19 0 23 -36 52 -55 44 -8 -2 -18 -18 -24 -34 -11 -31 -51 -42 -51
-14 0 22 -37 55 -54 49 -8 -3 -20 -19 -26 -35 -11 -25 -18 -29 -51 -29 -32 0
-41 4 -48 23 -15 39 -34 49 -59 31 -12 -8 -22 -24 -22 -35 0 -15 -7 -19 -39
-19 -33 0 -40 4 -51 29 -6 16 -18 32 -26 35 -17 6 -54 -27 -54 -49 0 -8 -4
-15 -10 -15 -5 0 -10 7 -10 15 0 8 -9 24 -20 35 -25 25 -54 14 -64 -25 -4 -16
-13 -25 -26 -25 -18 0 -20 7 -20 70 l0 70 715 0 715 0 0 -70z m-1388 -165 c2
-38 -1 -60 -11 -69 -26 -27 -2 -36 99 -36 99 0 130 11 98 34 -23 17 -38 52
-38 88 l0 33 59 3 58 3 6 -58 c4 -34 2 -59 -3 -61 -6 -2 -10 -12 -10 -23 0
-16 7 -19 49 -19 60 0 71 13 37 45 -20 19 -26 34 -26 67 l0 43 64 3 65 3 3
-53 c2 -41 -1 -58 -16 -75 -17 -21 -21 -58 -37 -370 -23 -441 -23 -426 0 -454
16 -20 21 -21 35 -10 9 7 16 22 16 32 0 15 8 19 39 19 34 0 40 -4 50 -30 5
-16 14 -30 20 -30 14 0 41 29 41 44 0 8 17 12 48 13 43 1 50 -3 65 -28 20 -36
31 -36 62 -3 18 19 25 22 25 12 0 -22 24 -39 44 -32 9 4 24 20 33 37 l15 31
13 -31 c13 -31 73 -62 94 -48 6 3 15 -4 21 -15 14 -26 40 -26 47 0 4 16 9 18
19 9 19 -16 72 -1 90 26 10 15 28 24 56 28 22 3 45 11 49 19 5 7 9 47 9 89 0
44 5 80 12 87 13 13 13 66 -2 361 -11 206 -23 265 -55 277 -10 4 -15 19 -15
48 l0 41 80 3 80 4 0 -531 0 -531 -715 0 -715 0 0 530 c0 515 1 530 19 530 16
0 20 -9 23 -55z m98 31 c0 -12 3 -38 6 -58 6 -33 4 -38 -13 -38 -28 0 -42 20
-49 71 -6 44 -6 44 25 45 25 1 31 -3 31 -20z m482 -29 c3 -38 0 -55 -12 -64
-19 -16 -21 -16 -46 5 -14 11 -24 33 -27 62 l-6 46 44 2 43 1 4 -52z m110 0
c2 -29 3 -54 2 -56 -2 -1 -15 1 -31 6 -24 8 -28 15 -31 54 -3 42 -2 44 27 46
28 2 29 1 33 -50z m128 4 c0 -47 -2 -50 -30 -56 -42 -9 -50 0 -50 53 l0 47 40
2 40 3 0 -49z m98 -12 l2 -60 -24 16 c-24 16 -36 42 -36 81 0 16 6 21 28 22
26 0 27 -1 30 -59z m142 18 c0 -60 -18 -75 -65 -53 -31 15 -35 21 -35 54 l0
37 50 3 50 3 0 -44z m120 3 c0 -29 -6 -41 -24 -53 -31 -21 -46 -5 -46 48 0 39
1 40 35 42 34 2 35 1 35 -37z m60 -115 c0 -2 -14 0 -31 5 -18 5 -37 7 -43 4
-6 -3 -3 1 8 10 16 13 21 13 42 -1 13 -8 24 -17 24 -18z m-145 19 c8 -4 22
-18 29 -33 18 -35 32 -236 17 -246 -8 -5 -10 -79 -5 -264 l7 -258 -29 -6 c-16
-3 -32 -2 -35 1 -10 11 -29 293 -38 547 -7 225 -7 230 13 247 25 21 21 19 41
12z m-426 -23 c19 -19 21 -33 35 -198 2 -30 0 -43 -9 -43 -7 0 -15 -6 -18 -14
-3 -8 -1 -107 5 -220 6 -113 8 -212 4 -221 -3 -9 -18 -15 -40 -15 -30 0 -35 4
-40 28 -3 15 -13 171 -22 347 l-16 319 22 18 c29 23 55 23 79 -1z m95 -3 c8
-13 18 -54 21 -93 3 -38 8 -87 11 -107 3 -29 1 -38 -10 -38 -8 0 -18 -12 -24
-27 -6 -21 -10 3 -16 102 -3 72 -9 142 -12 158 -8 33 10 36 30 5z m126 3 c13
-25 13 -222 0 -257 -7 -18 -7 -79 0 -193 10 -164 6 -256 -11 -245 -5 3 -9 33
-9 67 -1 89 -46 609 -55 630 -11 26 60 24 75 -2z m-379 -7 c20 -24 29 -227 11
-244 -11 -10 -12 -50 -6 -198 12 -285 14 -257 -21 -257 l-30 0 0 115 c1 63 3
163 5 222 2 78 0 111 -10 123 -10 12 -11 41 -6 123 9 126 24 156 57 116z m480
-123 c4 -80 3 -131 -4 -141 -7 -12 -7 -95 -1 -258 8 -218 7 -242 -7 -242 -14
0 -17 33 -23 273 -3 149 -9 323 -13 385 l-6 114 24 -4 c23 -3 24 -6 30 -127z
m-1131 -206 l0 -325 -185 0 -185 0 0 325 0 325 185 0 185 0 0 -325z m1368 283
c16 -18 21 -38 23 -93 1 -39 -3 -80 -9 -90 -7 -14 -7 -89 -1 -249 10 -240 10
-245 -32 -246 -23 0 -32 86 -13 115 12 19 13 62 2 304 -9 200 -10 281 -2 281
6 0 20 -10 32 -22z m-461 -335 c-2 -16 -4 -5 -4 22 0 28 2 40 4 28 2 -13 2
-35 0 -50z m1493 -501 c0 -358 -1 -390 -17 -404 -29 -25 -66 -29 -206 -22
l-133 7 13 115 c12 100 11 118 -1 130 -12 13 -16 12 -27 -6 -13 -20 -14 -20
-32 -5 -25 24 -45 9 -82 -60 -17 -30 -34 -59 -38 -64 -5 -4 -5 27 -1 70 6 73
6 77 -14 77 -11 0 -23 -7 -26 -16 -6 -15 -8 -15 -26 1 -19 17 -21 17 -41 -1
-12 -10 -30 -38 -40 -61 -9 -23 -33 -59 -53 -80 -21 -24 -36 -52 -39 -73 -2
-19 -5 148 -5 373 l-2 407 385 0 385 0 0 -388z m-2400 -147 l0 -275 -34 0 -34
0 8 38 c5 20 10 64 12 97 3 60 3 60 -27 63 -34 4 -55 -18 -55 -59 0 -14 -12
-43 -26 -64 -14 -21 -23 -46 -21 -57 4 -16 -1 -18 -41 -18 -29 0 -42 3 -34 9
7 4 24 6 36 4 26 -5 29 4 42 124 6 60 6 62 -19 68 -36 10 -67 -10 -67 -43 0
-25 -9 -43 -54 -106 -15 -21 -16 -29 -6 -41 10 -12 10 -15 -3 -15 -9 0 -23 10
-31 22 -14 19 -16 63 -16 275 l0 253 185 0 185 0 0 -275z m1530 -120 l0 -155
-715 0 -715 0 0 155 0 155 715 0 715 0 0 -155z m258 -9 c-13 -11 -31 -40 -42
-63 -10 -24 -27 -44 -39 -47 -32 -8 -31 -2 5 41 18 21 42 56 53 76 15 28 22
34 32 25 11 -8 9 -15 -9 -32z m198 22 c4 -6 0 -16 -8 -22 -8 -6 -27 -35 -42
-64 -19 -37 -32 -52 -47 -52 -16 0 -18 4 -10 18 5 9 18 25 29 35 10 10 27 35
37 57 19 41 29 48 41 28z m-164 -125 l4 -43 -40 0 c-36 0 -38 1 -24 18 8 9 21
32 28 50 16 40 27 31 32 -25z m180 5 l6 -48 -36 0 c-32 0 -34 1 -20 18 8 9 21
32 28 50 7 18 14 31 15 30 1 -2 5 -24 7 -50z"/>
<path d="M1549 2661 c-110 -4 -161 -10 -173 -20 -20 -17 -21 -64 -1 -81 13
-11 13 -15 0 -33 -21 -29 -19 -73 4 -96 18 -18 18 -19 -5 -30 -13 -5 -26 -21
-30 -35 -7 -29 20 -86 41 -86 20 0 19 -7 -4 -36 -20 -26 -18 -56 5 -75 12 -10
12 -15 -2 -30 -23 -25 -20 -80 4 -99 19 -16 19 -17 -9 -33 -35 -19 -39 -62
-10 -98 19 -24 20 -24 274 -27 l255 -3 27 24 c35 30 38 84 5 106 -21 14 -21
14 9 27 23 10 31 19 31 39 0 28 -16 66 -33 76 -5 4 0 12 12 18 13 7 21 21 21
36 0 27 -32 65 -55 65 -10 0 -6 8 10 25 30 30 32 68 4 96 -11 11 -19 21 -17
22 36 18 43 28 46 60 2 25 -3 42 -16 55 -18 18 -18 19 -1 31 12 7 19 23 19 41
0 66 -60 75 -411 61z m371 -51 c12 -7 9 -11 -13 -19 -35 -14 -466 -15 -487 -1
-22 14 -2 28 45 32 75 6 440 -4 455 -12z m-19 -111 c26 -13 24 -35 -3 -43 -13
-3 -125 -6 -249 -6 -189 0 -229 2 -239 15 -10 12 -10 18 0 30 20 24 446 29
491 4z m-4 -145 c14 -38 -20 -44 -243 -44 -140 0 -222 4 -239 12 -24 11 -32
28 -18 41 3 4 116 7 250 7 217 0 244 -2 250 -16z m26 -133 c22 -22 -48 -31
-253 -31 -233 0 -324 16 -218 40 51 11 459 3 471 -9z m-12 -117 c37 -34 9 -39
-240 -42 -206 -3 -239 -1 -250 12 -11 13 -11 19 -1 31 9 11 45 15 159 18 236
6 309 2 332 -19z m-11 -129 c18 -11 10 -35 -16 -45 -35 -14 -413 -13 -453 1
-17 6 -31 15 -31 20 0 5 0 12 0 17 0 4 21 9 47 12 64 7 440 3 453 -5z"/>
<path d="M198 2408 c-22 -18 -29 -70 -13 -101 11 -22 11 -28 -1 -38 -16 -13
-19 -72 -4 -99 7 -13 7 -21 0 -25 -17 -10 -11 -71 8 -88 14 -13 39 -17 105
-17 75 0 90 3 108 21 16 16 20 28 15 52 -7 38 -7 39 0 95 4 26 2 48 -6 57 -9
11 -8 19 6 39 17 28 14 77 -7 103 -15 18 -188 18 -211 1z m182 -63 c0 -25 -1
-25 -80 -25 -79 0 -80 0 -80 25 0 25 1 25 80 25 79 0 80 0 80 -25z m-42 -105
c39 0 43 -2 40 -22 -3 -22 -8 -23 -83 -23 -75 0 -80 1 -83 22 -3 23 23 34 63
27 11 -2 39 -4 63 -4z m40 -137 c3 -10 -18 -13 -82 -13 -79 0 -97 5 -79 24 13
12 156 2 161 -11z"/>
<path d="M2180 1697 c-14 -7 -31 -25 -38 -41 -18 -35 -2 -78 35 -95 l26 -12
-21 -22 c-45 -48 -36 -125 17 -147 19 -7 119 -10 320 -8 l293 3 25 29 c20 24
24 37 19 64 -6 38 -41 82 -65 82 -10 1 -6 6 11 15 50 28 49 104 -2 130 -39 20
-581 22 -620 2z m591 -37 c28 -15 24 -49 -7 -60 -35 -14 -540 -13 -565 0 -24
13 -25 46 -1 59 23 14 547 14 573 1z m27 -162 c19 -19 15 -66 -7 -78 -12 -6
-122 -10 -286 -10 -164 0 -274 4 -286 10 -22 12 -26 59 -7 78 17 17 569 17
586 0z"/>
<path d="M2190 1353 c-50 -18 -71 -74 -46 -124 14 -27 14 -34 -1 -63 -13 -29
-14 -37 -2 -62 24 -50 62 -55 364 -52 239 3 274 5 298 21 34 22 45 63 25 97
-13 23 -13 31 -2 51 22 40 17 78 -15 110 l-29 29 -289 -1 c-158 0 -295 -3
-303 -6z m581 -43 c22 -12 26 -59 7 -78 -17 -17 -569 -17 -586 0 -19 19 -14
55 10 72 19 14 64 16 286 16 162 0 271 -4 283 -10z m7 -149 c8 -4 12 -19 10
-32 l-3 -24 -300 0 c-281 0 -300 1 -303 18 -9 45 4 47 302 47 154 0 287 -4
294 -9z"/>
<path d="M152 1154 c-24 -16 -30 -62 -11 -81 8 -8 8 -13 0 -17 -14 -9 -14 -73
0 -81 7 -5 5 -13 -7 -26 -12 -13 -15 -27 -10 -51 6 -30 11 -61 15 -94 3 -25
60 -36 171 -32 98 3 113 5 126 23 9 12 13 30 9 45 -4 14 -9 41 -12 60 -3 19
-9 40 -14 46 -6 7 -4 16 6 24 17 14 20 53 5 80 -7 13 -7 21 0 25 5 3 10 19 10
35 0 49 -29 60 -155 60 -84 0 -116 -4 -133 -16z m233 -31 c36 -13 -5 -23 -100
-23 -94 0 -125 7 -109 23 8 8 190 8 209 0z m5 -98 c7 -9 11 -17 9 -20 -2 -2
-50 -5 -106 -7 -74 -2 -106 1 -115 10 -22 22 10 32 108 32 70 0 95 -4 104 -15z
m-27 -101 c15 -3 27 -12 27 -20 0 -12 -19 -14 -112 -12 -74 2 -113 7 -115 15
-2 6 6 13 19 16 34 6 149 6 181 1z m37 -94 c0 -6 -43 -10 -110 -10 -67 0 -110
4 -110 10 0 6 43 10 110 10 67 0 110 -4 110 -10z"/>
<path d="M2634 612 c-23 -15 -34 -53 -34 -120 0 -82 -14 -164 -41 -249 -26
-78 -23 -117 9 -121 13 -2 32 4 42 13 12 11 20 13 25 5 4 -6 15 -10 24 -8 10
2 26 -3 35 -11 13 -11 22 -11 40 -3 13 6 33 8 45 5 28 -7 30 7 33 262 l3 220
-23 3 c-41 6 -49 -12 -56 -128 -6 -112 -26 -235 -45 -280 -13 -34 -14 104 -1
264 6 66 8 128 4 138 -5 18 -39 24 -60 10z"/>
<path d="M1353 359 c-40 -12 -63 -52 -63 -111 0 -85 44 -112 174 -107 73 4 88
7 110 28 53 50 37 154 -29 185 -37 18 -139 20 -192 5z m195 -51 c6 -6 12 -30
12 -54 0 -60 -23 -74 -117 -74 -85 0 -113 18 -113 73 0 40 8 53 40 66 29 12
159 4 178 -11z"/>
<path d="M1695 362 c-52 -18 -75 -50 -75 -107 0 -47 22 -88 55 -103 38 -17
179 -15 215 3 67 35 61 162 -10 197 -35 18 -142 23 -185 10z m183 -54 c6 -6
12 -30 12 -54 0 -60 -23 -74 -117 -74 -85 0 -113 18 -113 73 0 41 10 56 46 67
34 10 154 2 172 -12z"/>
</g>
</svg>
