<?xml version="1.0" standalone="no"?>
<!DOCTYPE svg PUBLIC "-//W3C//DTD SVG 20010904//EN"
 "http://www.w3.org/TR/2001/REC-SVG-20010904/DTD/svg10.dtd">
<svg version="1.0" xmlns="http://www.w3.org/2000/svg"
 width="468pt" height="396pt" viewBox="0 0 468 396"
 preserveAspectRatio="xMidYMid meet">
<metadata>
Created by potrace 1.8, written by Peter Selinger 2001-2007
</metadata>
<g transform="translate(0,396) scale(0.158108,-0.158108)"
fill="#000000" stroke="none">
<path d="M471 2483 c-5 -10 -23 -62 -40 -115 l-31 -98 30 -130 31 -131 -30
-96 -30 -96 30 -132 30 -132 -31 -96 c-36 -113 -32 -140 23 -135 31 3 33 6 70
113 l38 110 -30 136 -30 137 30 91 31 91 -31 132 -30 132 31 102 c26 86 29
105 19 118 -18 22 -68 20 -80 -1z"/>
<path d="M2234 2392 c-84 -30 -143 -88 -175 -173 -41 -107 -13 -224 72 -304
65 -61 108 -78 194 -79 58 -1 80 4 127 27 211 104 213 410 3 512 -71 35 -153
42 -221 17z"/>
<path d="M233 2355 c-11 -7 -33 -57 -52 -117 l-33 -103 30 -132 30 -132 -30
-95 -30 -96 30 -131 30 -130 -30 -99 c-17 -54 -28 -105 -25 -114 9 -22 56 -32
73 -15 7 8 29 61 48 118 l35 102 -30 133 -31 133 30 94 30 94 -30 132 -29 132
30 97 c31 102 30 127 -8 137 -11 2 -28 -1 -38 -8z"/>
<path d="M688 2359 c-25 -14 -23 -42 10 -140 l29 -84 -31 -133 -30 -134 30
-91 30 -92 -29 -133 -30 -132 32 -103 c33 -106 56 -139 91 -130 40 11 41 35 8
134 -34 102 -34 107 12 292 l17 69 -30 95 -31 96 30 131 30 132 -32 102 c-41
132 -57 150 -106 121z"/>
<path d="M2276 1768 c-65 -9 -133 -45 -166 -88 -16 -19 -99 -173 -185 -342
-155 -303 -158 -308 -188 -308 -33 0 -288 -83 -322 -104 -13 -8 -68 -15 -145
-18 -69 -3 -139 -11 -155 -17 -32 -12 -576 -580 -627 -654 -32 -46 -36 -92
-12 -144 35 -73 129 -112 191 -79 17 8 109 98 205 199 95 101 174 183 176 182
1 -1 -18 -44 -43 -95 -36 -76 -45 -104 -45 -147 0 -49 4 -58 39 -96 38 -41 41
-42 103 -42 102 0 104 3 253 315 71 150 134 274 140 275 5 2 36 5 68 8 l57 4
0 -34 c0 -26 -4 -33 -20 -33 -29 0 -60 -36 -60 -70 0 -38 31 -70 69 -70 32 0
34 -3 47 -110 3 -30 12 -58 18 -62 20 -14 651 -9 664 4 7 7 12 43 12 90 l0 78
279 0 c256 0 281 2 302 18 31 26 31 78 0 104 -21 17 -46 18 -307 18 l-284 0
-1 78 c0 42 -8 108 -18 145 l-18 69 105 205 c82 162 107 202 114 189 5 -9 63
-143 128 -298 66 -155 129 -291 141 -304 29 -30 62 -37 103 -20 44 18 60 48
53 100 -7 55 -370 912 -406 956 -61 76 -162 114 -265 98z m-256 -872 l245 -93
14 -39 c10 -27 16 -105 19 -261 l4 -223 -299 0 -300 0 -17 128 c-9 70 -19 150
-23 178 -5 46 -16 66 -103 180 -83 109 -96 130 -82 138 31 18 247 85 272 85
14 0 135 -42 270 -93z"/>
<path d="M35 1118 c-11 -6 -23 -16 -27 -22 -14 -21 -8 -66 12 -86 19 -19 33
-20 473 -20 248 0 457 4 463 8 15 10 34 47 34 67 0 9 -11 27 -25 40 l-24 25
-443 0 c-311 -1 -449 -4 -463 -12z"/>
</g>
</svg>
