<?xml version="1.0" standalone="no"?>
<!DOCTYPE svg PUBLIC "-//W3C//DTD SVG 20010904//EN"
 "http://www.w3.org/TR/2001/REC-SVG-20010904/DTD/svg10.dtd">
<svg version="1.0" xmlns="http://www.w3.org/2000/svg"
 width="468pt" height="426pt" viewBox="0 0 468 426"
 preserveAspectRatio="xMidYMid meet">
<metadata>
Created by potrace 1.8, written by Peter Selinger 2001-2007
</metadata>
<g transform="translate(0,426) scale(0.157576,-0.157576)"
fill="#000000" stroke="none">
<path d="M1414 2690 c-151 -22 -278 -100 -364 -222 -126 -179 -134 -401 -22
-631 l37 -75 -24 -36 -23 -36 -29 39 c-65 90 -165 167 -263 201 -203 72 -405
27 -555 -122 -169 -169 -207 -410 -104 -658 46 -110 115 -217 314 -486 236
-319 287 -382 413 -512 150 -154 220 -181 313 -118 93 64 295 295 527 606 76
102 140 186 141 188 2 2 28 -17 59 -42 58 -47 106 -63 152 -52 109 28 347 299
742 847 143 197 211 344 234 504 42 296 -165 560 -475 606 -90 13 -188 -5
-292 -54 -75 -36 -179 -124 -216 -183 l-21 -35 -39 55 c-107 150 -325 243
-505 216z m-709 -899 c130 -60 225 -188 240 -323 9 -82 26 -108 69 -108 49 0
67 26 77 115 41 373 552 479 742 154 31 -52 57 -147 57 -204 0 -69 -28 -177
-65 -250 -128 -258 -737 -1035 -811 -1035 -48 0 -333 339 -598 710 -225 315
-266 400 -266 555 0 176 76 307 219 380 72 36 115 45 199 40 54 -3 89 -11 137
-34z"/>
</g>
</svg>
