<?xml version="1.0" standalone="no"?>
<!DOCTYPE svg PUBLIC "-//W3C//DTD SVG 20010904//EN"
 "http://www.w3.org/TR/2001/REC-SVG-20010904/DTD/svg10.dtd">
<svg version="1.0" xmlns="http://www.w3.org/2000/svg"
 width="468pt" height="571pt" viewBox="0 0 468 571"
 preserveAspectRatio="xMidYMid meet">
<metadata>
Created by potrace 1.8, written by Peter Selinger 2001-2007
</metadata>
<g transform="translate(0,571) scale(0.192593,-0.192593)"
fill="#000000" stroke="none">
<path d="M484 2936 c-19 -14 -19 -40 -22 -1220 l-2 -1206 -193 0 c-217 0 -228
-3 -248 -68 -9 -31 -8 -45 4 -74 14 -33 14 -50 -4 -175 -23 -173 -23 -173 0
-173 22 0 25 11 41 140 16 136 20 150 35 150 13 0 14 -21 9 -143 -7 -142 -3
-165 24 -148 9 5 15 53 19 149 5 109 9 142 20 142 10 0 13 -29 13 -139 0 -103
3 -141 13 -150 29 -23 37 9 37 151 0 116 2 138 15 138 13 0 15 -23 15 -143 0
-79 3 -146 6 -150 3 -3 12 -3 20 0 11 4 14 35 14 149 0 121 2 144 15 144 13 0
15 -23 15 -144 0 -114 3 -145 14 -149 8 -3 17 -3 20 0 3 4 6 71 6 150 0 120 2
143 15 143 13 0 15 -22 15 -138 0 -142 8 -174 37 -151 10 9 13 47 13 150 0 86
4 139 10 139 6 0 10 -53 10 -138 0 -139 7 -167 36 -155 11 4 14 36 14 149 0
121 2 144 15 144 13 0 15 -23 15 -145 0 -138 1 -145 20 -145 19 0 20 7 20 145
0 122 2 145 15 145 13 0 15 -23 15 -144 0 -113 3 -145 14 -149 29 -12 36 16
36 155 0 85 4 138 10 138 6 0 10 -53 10 -138 0 -139 7 -167 36 -155 11 4 14
36 14 149 0 121 2 144 15 144 13 0 15 -23 15 -143 0 -79 3 -146 6 -150 3 -3
12 -3 20 0 11 4 14 35 14 149 0 121 2 144 15 144 13 0 15 -23 15 -144 0 -114
3 -145 14 -149 8 -3 17 -3 20 0 3 4 6 71 6 150 0 115 3 143 14 143 19 0 26
-45 26 -162 0 -105 10 -141 36 -131 14 5 15 24 8 149 -6 123 -5 144 8 144 11
0 19 -32 32 -141 18 -135 27 -162 54 -145 5 3 0 71 -11 153 -15 115 -17 154
-8 178 19 55 14 94 -18 126 l-29 29 -196 0 -196 0 0 1203 c0 1154 -1 1205 -18
1220 -23 21 -71 22 -98 3z"/>
<path d="M1610 1887 c-30 -7 -72 -21 -93 -31 -51 -25 -113 -97 -131 -154 -10
-29 -23 -155 -36 -330 -24 -335 -23 -322 -7 -322 16 0 20 -60 37 -575 13 -384
15 -398 45 -433 l23 -27 408 -3 c438 -3 453 -1 479 47 9 19 17 135 29 426 21
535 23 562 45 568 16 4 15 23 -5 308 -13 167 -27 319 -33 338 -24 78 -89 142
-181 178 -37 14 -85 17 -285 20 -165 1 -257 -2 -295 -10z m460 -37 c150 -16
229 -65 258 -160 9 -28 42 -415 42 -490 0 -20 -1 -20 -26 -4 -23 15 -70 17
-467 16 -281 0 -452 -4 -469 -11 l-27 -10 5 62 c3 34 11 144 18 244 12 166 15
185 40 227 24 41 80 89 131 111 11 5 92 12 180 15 88 3 174 7 190 8 17 1 73
-3 125 -8z m220 -787 c-1 -132 -39 -943 -45 -953 -7 -11 -691 -15 -731 -4 -20
5 -21 16 -37 477 -10 260 -17 487 -17 505 l0 32 415 0 415 0 0 -57z"/>
</g>
</svg>
