<?xml version="1.0" standalone="no"?>
<!DOCTYPE svg PUBLIC "-//W3C//DTD SVG 20010904//EN"
 "http://www.w3.org/TR/2001/REC-SVG-20010904/DTD/svg10.dtd">
<svg version="1.0" xmlns="http://www.w3.org/2000/svg"
 width="468pt" height="374pt" viewBox="0 0 468 374"
 preserveAspectRatio="xMidYMid meet">
<metadata>
Created by potrace 1.8, written by Peter Selinger 2001-2007
</metadata>
<g transform="translate(0,374) scale(0.157576,-0.157576)"
fill="#000000" stroke="none">
<path d="M2317 2350 c-13 -11 -28 -32 -32 -47 -3 -16 -13 -51 -21 -79 l-15
-51 -107 29 c-132 37 -150 37 -177 6 -29 -34 -51 -138 -35 -167 27 -51 98 -45
121 10 6 16 13 29 16 29 2 0 97 -25 209 -55 113 -30 208 -55 211 -55 3 0 2
-15 -1 -33 -12 -63 48 -107 104 -77 22 12 50 96 50 150 0 51 -19 64 -135 95
-55 14 -105 28 -112 30 -14 5 5 75 21 75 10 0 325 -83 384 -101 l32 -11 0
-556 0 -557 -1343 0 c-1061 0 -1350 -3 -1378 -13 -51 -18 -90 -62 -96 -111 -5
-36 10 -76 137 -368 78 -181 151 -340 162 -356 26 -36 68 -57 116 -57 34 0 40
-4 53 -32 17 -39 38 -46 140 -47 97 -1 134 11 148 50 l10 29 788 0 788 0 15
-32 c19 -41 56 -51 166 -46 87 3 124 21 124 60 0 15 8 18 53 18 33 0 63 7 83
19 60 37 69 65 121 386 l48 300 3 692 2 691 -22 25 c-19 20 -74 38 -309 101
-158 42 -289 76 -291 76 -3 0 -17 -9 -31 -20z m513 -1509 c0 -39 -94 -609
-102 -618 -8 -10 -248 -13 -1154 -13 -1025 0 -1144 2 -1158 16 -9 8 -16 19
-16 24 0 5 -56 138 -125 296 -69 158 -125 291 -125 296 0 4 603 8 1340 8 775
0 1340 -4 1340 -9z"/>
<path d="M2071 1991 c-11 -11 -25 -45 -32 -76 -12 -56 -12 -58 10 -76 13 -11
27 -19 32 -19 21 0 46 40 58 95 13 57 13 60 -9 77 -28 23 -35 23 -59 -1z"/>
<path d="M2367 1913 c-3 -4 -13 -37 -23 -72 l-17 -64 22 -19 c29 -23 44 -23
63 0 24 26 44 120 32 140 -12 18 -69 29 -77 15z"/>
<path d="M1881 1892 c-25 -21 -41 -80 -30 -110 9 -25 59 -31 77 -9 17 21 30
81 21 103 -10 29 -44 36 -68 16z"/>
<path d="M2197 1868 c-20 -15 -70 -193 -62 -219 7 -20 46 -35 69 -26 14 6 39
78 59 175 11 49 10 55 -8 68 -23 17 -36 18 -58 2z"/>
<path d="M2002 1778 c-19 -24 -69 -224 -61 -246 9 -25 42 -36 67 -23 26 14 82
233 66 259 -14 21 -57 27 -72 10z"/>
<path d="M2491 1721 c-24 -24 -37 -96 -21 -116 7 -8 26 -15 41 -15 31 0 45 21
56 86 4 25 0 35 -18 48 -30 20 -35 20 -58 -3z"/>
<path d="M1812 1698 c-5 -7 -23 -63 -40 -125 -27 -100 -28 -114 -15 -132 16
-23 55 -28 71 -8 5 6 23 62 40 124 27 100 28 114 15 132 -16 23 -55 28 -71 9z"/>
<path d="M2311 1696 c-7 -8 -25 -63 -41 -123 -26 -98 -28 -110 -14 -130 15
-24 39 -29 63 -14 14 9 71 199 71 237 0 37 -56 58 -79 30z"/>
<path d="M2111 1551 c-15 -9 -90 -269 -91 -311 0 -15 5 -31 12 -38 16 -16 53
-15 66 1 5 6 26 73 47 147 20 74 38 143 41 152 5 18 -28 58 -48 58 -7 0 -19
-4 -27 -9z"/>
<path d="M2432 1528 c-5 -7 -23 -63 -40 -125 -26 -100 -28 -115 -15 -133 16
-22 55 -27 71 -7 6 6 24 62 40 124 27 100 29 113 15 132 -16 23 -55 28 -71 9z"/>
<path d="M1907 1428 c-8 -13 -31 -88 -52 -167 l-38 -144 23 -19 c51 -41 65
-23 111 143 44 164 47 184 20 199 -30 16 -49 12 -64 -12z"/>
<path d="M2228 1363 c-14 -17 -89 -281 -88 -313 0 -42 61 -54 84 -17 7 12 31
87 52 166 l38 144 -23 18 c-29 24 -44 24 -63 2z"/>
<path d="M1718 1328 c-10 -8 -32 -70 -51 -145 -31 -118 -34 -133 -20 -152 16
-23 55 -28 71 -8 13 16 72 238 72 272 0 18 -7 28 -26 35 -31 12 -27 12 -46 -2z"/>
<path d="M2341 1154 c-28 -20 -46 -90 -32 -121 12 -27 51 -31 74 -8 18 17 31
86 22 113 -8 26 -39 33 -64 16z"/>
<path d="M1985 1127 c-22 -34 -30 -84 -15 -102 17 -21 67 -19 79 3 18 33 24
92 11 107 -19 23 -57 18 -75 -8z"/>
</g>
</svg>
