<?xml version="1.0" standalone="no"?>
<!DOCTYPE svg PUBLIC "-//W3C//DTD SVG 20010904//EN"
 "http://www.w3.org/TR/2001/REC-SVG-20010904/DTD/svg10.dtd">
<svg version="1.0" xmlns="http://www.w3.org/2000/svg"
 width="448pt" height="648pt" viewBox="0 0 448 648"
 preserveAspectRatio="xMidYMid meet">
<metadata>
Created by potrace 1.8, written by Peter Selinger 2001-2007
</metadata>
<g transform="translate(0,648) scale(0.218182,-0.218182)"
fill="#000000" stroke="none">
<path d="M762 2958 c-8 -8 -12 -53 -12 -135 l0 -123 -297 0 c-337 0 -354 -4
-409 -76 l-29 -37 -3 -1225 -2 -1224 22 -40 c13 -22 41 -51 64 -64 l41 -24
881 0 c598 0 890 3 909 11 38 14 83 57 99 96 12 27 14 237 14 1238 0 1163 -1
1207 -19 1243 -23 46 -46 67 -94 87 -30 12 -89 15 -337 15 l-300 0 0 123 c0
82 -4 127 -12 135 -17 17 -499 17 -516 0z m1138 -417 c7 -13 10 -403 10 -1192
0 -1077 -1 -1174 -17 -1191 -14 -16 -33 -18 -157 -18 l-141 0 0 188 c0 182 -1
188 -24 221 -13 18 -45 43 -70 55 -45 20 -57 20 -486 17 -478 -3 -476 -3 -530
-60 l-30 -32 0 -195 0 -194 -142 0 c-115 0 -144 3 -157 16 -14 14 -16 136 -16
1198 0 906 3 1185 12 1194 9 9 217 12 875 12 842 0 863 0 873 -19z m-440
-2029 l35 -17 3 -155 c1 -85 0 -165 -3 -177 l-5 -23 -465 0 -464 0 -11 39 c-5
21 -8 96 -6 170 4 136 9 155 51 171 11 5 202 9 425 9 366 1 408 -1 440 -17z"/>
<path d="M341 2370 c-58 -9 -90 -46 -93 -103 0 -23 0 -292 1 -597 3 -502 5
-558 20 -585 9 -16 28 -36 42 -42 19 -10 181 -12 726 -10 l703 2 27 28 28 27
0 604 c0 598 0 605 -21 633 -11 15 -36 33 -55 40 -38 13 -1298 16 -1378 3z
m1357 -352 l2 -257 -42 -3 -43 -3 0 -140 c0 -133 1 -140 20 -140 19 0 20 8 23
123 2 114 4 122 22 122 19 0 20 -8 20 -294 0 -271 -1 -294 -17 -298 -10 -2
-68 -2 -130 0 l-112 4 29 52 c60 107 74 222 45 361 -29 137 -130 295 -173 269
-9 -6 -30 -34 -45 -62 -16 -29 -32 -50 -36 -48 -4 3 -13 31 -20 63 -17 75 -57
160 -82 174 -27 14 -41 1 -69 -63 l-22 -52 -18 35 c-10 19 -29 73 -43 120 -14
47 -32 100 -41 117 -41 79 -97 8 -146 -186 -6 -24 -16 -42 -23 -39 -6 2 -26
31 -45 66 -45 82 -60 80 -128 -21 -58 -85 -97 -192 -108 -295 -4 -35 -13 -78
-21 -97 -8 -18 -19 -63 -25 -100 -15 -98 0 -176 58 -288 2 -5 -37 -8 -86 -8
l-90 0 -5 33 c-3 17 -2 276 1 575 l5 542 671 -2 671 -3 3 -257z m-734 -40 c15
-51 41 -123 58 -160 35 -77 34 -84 -29 -190 -26 -44 -40 -58 -58 -58 -30 0
-68 45 -91 107 -41 111 -42 115 -66 111 -26 -3 -73 -89 -83 -150 -4 -21 -10
-38 -14 -38 -4 0 -17 20 -29 45 -22 46 -46 57 -70 33 -37 -37 17 121 69 202
21 33 41 60 44 60 2 0 12 -15 21 -32 37 -73 94 -109 122 -75 6 7 18 43 26 81
18 78 50 156 64 156 5 0 21 -42 36 -92z m204 -125 c11 -21 27 -71 37 -111 20
-84 41 -104 81 -77 22 14 58 62 67 90 7 19 39 -19 71 -84 91 -182 83 -371 -22
-508 -34 -45 -59 -45 -35 0 24 43 24 164 0 232 -19 56 -71 125 -93 125 -8 0
-23 -14 -33 -31 l-19 -30 -12 50 c-14 58 -53 99 -76 80 -7 -6 -22 -40 -34 -77
-12 -37 -41 -101 -66 -142 -43 -73 -49 -92 -45 -160 l2 -35 -26 40 c-73 115
-60 202 59 387 23 36 59 116 80 177 21 61 40 111 42 111 2 0 12 -17 22 -37z
m-364 -193 c26 -64 78 -130 103 -130 17 0 16 -6 -3 -35 -21 -33 -42 -32 -50 3
-20 96 -58 148 -89 122 -8 -6 -23 -41 -35 -78 -12 -37 -40 -98 -63 -136 -54
-91 -61 -158 -23 -228 l25 -48 -40 0 c-36 0 -42 4 -69 47 -42 66 -53 115 -47
208 5 86 34 173 70 219 l23 28 24 -39 c20 -30 31 -38 55 -38 29 0 31 3 58 88
16 49 30 87 32 85 2 -2 15 -32 29 -68z m1 -151 c7 -51 32 -89 59 -89 10 0 15
-20 18 -73 3 -51 12 -88 31 -124 l26 -52 -26 -21 c-20 -16 -41 -20 -94 -20
-58 0 -72 4 -99 26 -80 68 -81 144 0 256 15 21 34 62 40 91 7 28 15 55 17 60
10 17 22 -6 28 -54z m374 -55 c16 -61 54 -69 81 -18 7 13 17 24 21 24 4 0 18
-21 30 -47 34 -69 39 -185 10 -241 l-21 -42 -115 0 -115 0 -20 40 c-32 64 -27
107 25 185 25 38 48 85 51 104 4 20 11 47 17 61 l9 25 8 -25 c4 -14 13 -44 19
-66z"/>
</g>
</svg>
