<?xml version="1.0" standalone="no"?>
<!DOCTYPE svg PUBLIC "-//W3C//DTD SVG 20010904//EN"
 "http://www.w3.org/TR/2001/REC-SVG-20010904/DTD/svg10.dtd">
<svg version="1.0" xmlns="http://www.w3.org/2000/svg"
 width="468pt" height="467pt" viewBox="0 0 468 467"
 preserveAspectRatio="xMidYMid meet">
<metadata>
Created by potrace 1.8, written by Peter Selinger 2001-2007
</metadata>
<g transform="translate(0,467) scale(0.157576,-0.157576)"
fill="#000000" stroke="none">
<path d="M135 2948 c-11 -6 -23 -16 -27 -22 -4 -6 -8 -156 -8 -333 0 -310 1
-324 20 -343 19 -19 33 -20 250 -20 l230 0 0 -35 0 -35 -155 0 c-130 0 -157
-3 -161 -15 -4 -8 -1 -21 5 -29 10 -12 -8 -14 -108 -17 -100 -3 -122 -7 -140
-23 -33 -30 -44 -89 -36 -192 6 -80 10 -95 32 -116 l25 -23 726 -3 c514 -2
735 1 754 9 40 16 53 60 53 176 0 87 -3 105 -21 129 -11 16 -32 32 -45 35 -13
4 -136 7 -273 8 -205 1 -247 3 -232 14 11 8 15 19 10 30 -5 15 -24 17 -160 17
l-154 0 0 35 0 35 229 0 c203 0 231 2 250 18 21 17 21 20 19 352 l-3 334 -25
13 c-34 17 -1025 18 -1055 1z m1035 -323 l0 -275 -510 0 -510 0 0 275 0 275
510 0 510 0 0 -275z m365 -599 c12 -18 15 -46 13 -122 -3 -94 -4 -99 -28 -111
-19 -10 -181 -13 -723 -13 l-698 0 -24 25 c-23 22 -25 32 -25 110 0 78 2 88
25 110 l24 25 710 0 711 0 15 -24z"/>
<path d="M118 2010 c-46 -27 -46 -144 -1 -180 25 -20 40 -20 677 -20 703 0
688 -1 714 54 18 36 7 111 -19 137 -18 18 -40 19 -686 19 -416 0 -674 -4 -685
-10z m1341 -44 c7 -8 11 -34 9 -58 l-3 -43 -654 -3 c-475 -1 -658 1 -667 9
-19 16 -18 74 2 93 14 14 87 16 658 16 545 0 645 -2 655 -14z"/>
<path d="M2596 2953 c-215 -2 -324 -7 -333 -14 -18 -16 -16 -53 5 -71 9 -8 77
-52 150 -97 l132 -83 0 -61 c0 -58 -1 -60 -16 -39 -24 35 -55 27 -109 -28 -28
-28 -75 -65 -105 -82 -84 -47 -90 -69 -34 -120 70 -65 92 -62 124 17 20 49 54
94 64 84 2 -2 20 -63 40 -135 l36 -131 0 -274 0 -274 -33 -15 c-35 -16 -47
-51 -27 -76 18 -21 212 -20 234 2 9 8 16 22 16 30 0 23 -38 54 -65 54 l-25 0
2 522 3 521 149 93 c147 92 166 107 166 132 0 14 -37 53 -47 50 -5 -2 -152 -4
-327 -5z m144 -97 c0 -2 -30 -23 -66 -46 l-66 -41 -69 41 c-38 23 -69 44 -69
46 0 2 61 4 135 4 74 0 135 -2 135 -4z"/>
<path d="M635 1401 c-76 -46 -95 -96 -95 -246 l0 -115 65 0 65 0 0 103 c0 77
4 108 16 125 l15 22 868 0 c661 0 870 -3 879 -12 8 -8 12 -50 12 -125 l0 -113
70 0 70 0 0 109 c0 117 -9 158 -48 210 -47 64 -2 61 -989 61 -857 0 -899 -1
-928 -19z"/>
<path d="M295 983 c-36 -10 -77 -45 -91 -79 -22 -52 -20 -344 3 -391 22 -47
66 -73 124 -73 l47 0 4 -107 c3 -85 8 -117 25 -148 37 -70 99 -115 159 -115
13 0 24 -6 24 -13 0 -21 44 -57 69 -57 22 0 71 41 71 60 0 7 264 10 845 10
695 0 845 -2 845 -13 0 -21 44 -57 69 -57 22 0 71 40 71 58 0 5 17 12 38 16
59 9 104 44 135 105 24 49 27 65 27 158 l0 103 53 0 c64 0 107 24 130 73 14
28 17 66 17 197 0 181 -8 213 -64 253 -29 21 -41 22 -198 22 -154 0 -169 -2
-195 -21 -42 -31 -62 -73 -69 -142 l-7 -62 -858 0 -859 0 0 58 c0 66 -21 116
-63 146 -26 19 -44 21 -180 23 -84 1 -161 -1 -172 -4z m285 -250 l0 -116 98 6
c53 4 501 7 995 7 l897 0 0 110 0 110 130 0 131 0 -3 -137 -3 -138 -97 -3 -98
-3 0 -150 c0 -156 -9 -199 -45 -213 -9 -3 -466 -6 -1016 -6 l-1000 0 -24 25
c-24 24 -25 28 -25 185 l0 160 -100 0 -100 0 0 140 0 140 130 0 130 0 0 -117z"/>
</g>
</svg>
