<?xml version="1.0" standalone="no"?>
<!DOCTYPE svg PUBLIC "-//W3C//DTD SVG 20010904//EN"
 "http://www.w3.org/TR/2001/REC-SVG-20010904/DTD/svg10.dtd">
<svg version="1.0" xmlns="http://www.w3.org/2000/svg"
 width="469pt" height="630pt" viewBox="0 0 469 630"
 preserveAspectRatio="xMidYMid meet">
<metadata>
Created by potrace 1.8, written by Peter Selinger 2001-2007
</metadata>
<g transform="translate(0,630) scale(0.212727,-0.212727)"
fill="#000000" stroke="none">
<path d="M1008 2951 l-866 -6 -44 -30 c-27 -19 -52 -48 -68 -80 l-25 -50 0
-1310 0 -1311 26 -49 c18 -35 39 -59 74 -80 l48 -30 936 0 c515 0 948 3 963 8
39 10 95 63 121 111 l22 41 0 1300 c0 1026 -3 1309 -13 1342 -28 94 -102 142
-228 147 -43 1 -469 0 -946 -3z m1027 -162 c19 -18 20 -35 23 -229 l3 -210
-960 0 -961 0 0 208 c0 192 2 210 19 226 10 9 30 20 45 24 14 4 427 6 918 4
872 -3 893 -4 913 -23z m25 -1583 c0 -552 -3 -1012 -6 -1021 -4 -8 -20 -23
-36 -31 -26 -13 -143 -15 -931 -15 l-902 1 -22 26 -23 25 0 1010 0 1009 960 0
960 0 0 -1004z"/>
<path d="M889 2691 c-23 -23 -29 -38 -29 -71 0 -33 6 -48 29 -71 l29 -29 212
0 212 0 29 29 c39 39 40 96 3 140 l-26 31 -215 0 -215 0 -29 -29z"/>
<path d="M1826 2699 c-33 -26 -34 -68 -3 -97 35 -33 119 -31 152 3 14 13 25
34 25 45 0 12 -11 32 -25 45 -32 33 -110 35 -149 4z"/>
<path d="M475 2590 c-14 -22 10 -30 86 -30 72 0 79 2 79 20 0 18 -7 20 -79 20
-44 0 -83 -4 -86 -10z"/>
<path d="M477 2443 c-4 -3 -7 -12 -7 -20 0 -10 21 -13 85 -13 78 0 85 2 85 20
0 18 -7 20 -78 20 -43 0 -82 -3 -85 -7z"/>
<path d="M816 2435 c-8 -22 10 -26 95 -23 58 2 74 6 74 18 0 23 -160 28 -169
5z"/>
<path d="M1167 2443 c-4 -3 -7 -12 -7 -20 0 -10 21 -13 85 -13 78 0 85 2 85
20 0 18 -7 20 -78 20 -43 0 -82 -3 -85 -7z"/>
<path d="M1506 2435 c-8 -22 10 -26 95 -23 58 2 74 6 74 18 0 23 -160 28 -169
5z"/>
<path d="M401 2063 c-19 -10 -44 -31 -55 -46 -21 -28 -21 -36 -21 -727 0 -693
0 -699 21 -727 45 -60 18 -58 739 -58 363 0 677 4 697 8 53 11 93 49 107 99 9
32 11 218 9 703 -3 728 0 696 -67 738 l-36 22 -680 3 c-633 2 -682 1 -714 -15z
m1359 -773 l0 -650 -652 2 -653 3 -2 425 c-2 234 0 525 3 648 l6 222 649 0
649 0 0 -650z"/>
</g>
</svg>
