<?xml version="1.0" standalone="no"?>
<!DOCTYPE svg PUBLIC "-//W3C//DTD SVG 20010904//EN"
 "http://www.w3.org/TR/2001/REC-SVG-20010904/DTD/svg10.dtd">
<svg version="1.0" xmlns="http://www.w3.org/2000/svg"
 width="469pt" height="630pt" viewBox="0 0 469 630"
 preserveAspectRatio="xMidYMid meet">
<metadata>
Created by potrace 1.8, written by Peter Selinger 2001-2007
</metadata>
<g transform="translate(0,630) scale(0.212727,-0.212727)"
fill="#000000" stroke="none">
<path d="M1008 2951 l-866 -6 -44 -30 c-27 -19 -52 -48 -68 -80 l-25 -50 0
-1310 0 -1311 26 -49 c18 -35 39 -59 74 -80 l48 -30 936 0 c515 0 948 3 963 8
39 10 95 63 121 111 l22 41 0 1300 c0 1026 -3 1309 -13 1342 -28 94 -102 142
-228 147 -43 1 -469 0 -946 -3z m-367 -141 l187 0 12 -30 c24 -58 35 -60 261
-60 l207 0 31 26 c17 14 31 34 31 45 0 18 12 19 323 19 316 0 324 0 343 -21
17 -19 19 -41 22 -230 l3 -209 -960 0 -961 0 0 208 c0 192 2 210 19 226 32 29
72 36 186 31 61 -3 194 -5 296 -5z m1419 -1604 c0 -552 -3 -1012 -6 -1021 -4
-8 -20 -23 -36 -31 -26 -13 -143 -15 -931 -15 l-902 1 -22 26 -23 25 0 1010 0
1009 960 0 960 0 0 -1004z"/>
<path d="M312 2693 c3 -15 16 -18 86 -21 77 -3 82 -2 82 18 0 19 -6 20 -86 20
-76 0 -85 -2 -82 -17z"/>
<path d="M847 2662 c-55 -7 -72 -113 -23 -147 17 -12 68 -15 281 -15 304 0
305 0 305 79 0 83 9 80 -280 83 -140 2 -268 2 -283 0z m521 -78 c2 -19 -2 -33
-10 -36 -7 -2 -127 -2 -265 0 l-253 4 0 27 c0 15 3 31 7 34 4 4 122 6 262 5
l256 -3 3 -31z"/>
<path d="M321 2621 c-8 -5 -11 -16 -8 -25 5 -13 22 -16 80 -16 77 0 106 12 86
37 -13 15 -135 18 -158 4z"/>
<path d="M313 2524 c-9 -24 15 -34 88 -34 66 0 92 11 82 36 -8 22 -161 20
-170 -2z"/>
<path d="M317 2443 c-4 -3 -7 -12 -7 -20 0 -10 21 -13 85 -13 78 0 85 2 85 20
0 18 -7 20 -78 20 -43 0 -82 -3 -85 -7z"/>
<path d="M615 2440 c-14 -23 13 -31 91 -28 62 2 79 6 79 18 0 12 -17 16 -82
18 -52 2 -84 -1 -88 -8z"/>
<path d="M925 2440 c-13 -22 10 -30 84 -30 82 0 93 3 84 26 -6 17 -158 20
-168 4z"/>
<path d="M1237 2443 c-4 -3 -7 -12 -7 -20 0 -10 21 -13 85 -13 78 0 85 2 85
20 0 18 -7 20 -78 20 -43 0 -82 -3 -85 -7z"/>
<path d="M1705 2440 c-14 -23 13 -31 91 -28 62 2 79 6 79 18 0 12 -17 16 -82
18 -52 2 -84 -1 -88 -8z"/>
<path d="M1034 1969 c-17 -5 -37 -16 -44 -24 -10 -12 -44 -15 -192 -15 -165 0
-182 2 -205 20 -17 13 -41 20 -68 20 -27 0 -51 -7 -68 -20 -15 -12 -40 -20
-64 -20 -42 0 -65 -14 -56 -36 3 -9 21 -14 48 -14 23 0 62 -3 86 -6 l44 -6 -4
-50 c-3 -44 -1 -49 15 -46 15 3 19 12 19 48 0 40 3 46 25 51 45 12 410 10 410
-2 0 -21 73 -41 138 -37 51 3 68 9 82 26 18 21 25 22 197 22 185 0 256 -6 247
-21 -3 -5 -16 -6 -29 -3 -26 6 -30 -1 -40 -77 -5 -32 -3 -49 5 -54 18 -11 31
8 38 56 5 37 7 40 12 19 4 -16 13 -25 25 -25 16 0 21 8 23 43 2 29 -1 42 -10
43 -29 3 71 18 120 18 50 1 53 3 50 24 -2 18 -10 23 -47 25 -26 2 -50 10 -56
19 -6 8 -33 17 -59 20 -38 5 -53 2 -76 -16 -27 -20 -41 -21 -209 -21 -146 0
-180 3 -184 14 -12 30 -109 44 -173 25z m94 -96 c-16 -2 -40 -2 -55 0 -16 2
-3 4 27 4 30 0 43 -2 28 -4z"/>
<path d="M451 1822 c-23 -82 -24 -99 -7 -105 9 -4 19 1 24 11 15 28 33 112 27
123 -13 21 -35 7 -44 -29z"/>
<path d="M564 1845 c-11 -28 9 -119 27 -123 24 -4 27 15 15 77 -11 55 -31 76
-42 46z"/>
<path d="M1694 1846 c-10 -26 19 -131 36 -131 20 0 23 30 8 89 -13 51 -33 70
-44 42z"/>
<path d="M517 1744 c-4 -4 -7 -36 -7 -71 0 -56 2 -64 18 -61 14 3 17 14 17 67
0 59 -10 82 -28 65z"/>
<path d="M1641 1736 c-7 -8 -11 -37 -9 -68 3 -45 6 -53 23 -53 17 0 20 8 23
56 3 62 -14 92 -37 65z"/>
<path d="M416 1691 c-4 -5 -9 -30 -12 -55 -6 -41 -5 -46 13 -46 15 0 22 11 30
47 6 26 9 51 7 55 -7 11 -32 10 -38 -1z"/>
<path d="M594 1644 c7 -64 25 -94 43 -72 17 22 -8 122 -31 126 -18 4 -18 -1
-12 -54z"/>
<path d="M1557 1693 c-3 -4 -8 -33 -12 -64 -6 -47 -4 -57 9 -62 20 -8 33 21
38 84 2 34 -1 44 -14 47 -9 2 -18 -1 -21 -5z"/>
<path d="M1735 1653 c9 -59 23 -80 41 -61 10 10 10 24 3 61 -9 37 -15 47 -31
47 -19 0 -20 -4 -13 -47z"/>
<path d="M514 1577 c-11 -30 0 -102 17 -105 22 -4 27 14 20 67 -6 45 -26 65
-37 38z"/>
<path d="M1634 1577 c-11 -29 0 -102 16 -102 19 0 22 106 3 112 -7 3 -16 -2
-19 -10z"/>
<path d="M394 1552 c-19 -12 -39 -121 -26 -134 18 -18 31 1 44 65 12 57 5 84
-18 69z"/>
<path d="M1772 1551 c-18 -11 4 -130 25 -138 25 -10 31 16 17 74 -14 63 -23
76 -42 64z"/>
<path d="M622 1538 c-17 -21 0 -83 23 -83 17 0 19 6 17 35 -4 44 -24 67 -40
48z"/>
<path d="M1526 1518 c-11 -44 -7 -68 13 -68 17 0 31 33 31 76 0 23 -37 16 -44
-8z"/>
<path d="M517 1423 c-4 -3 -7 -15 -7 -25 0 -10 -7 -18 -15 -18 -32 0 -115
-204 -115 -284 0 -64 92 -500 116 -553 10 -21 56 -75 103 -121 l85 -82 -63 0
c-61 0 -63 1 -48 18 28 30 20 46 -53 111 -102 91 -112 112 -165 366 -57 269
-56 281 13 436 20 45 23 62 15 85 -5 16 -15 29 -21 28 -7 -1 -21 -2 -32 -2
-15 -2 -29 -20 -51 -69 -79 -174 -82 -205 -39 -403 29 -133 29 -135 10 -149
-19 -13 -20 -26 -20 -250 0 -171 3 -240 12 -249 9 -9 215 -12 865 -12 832 0
853 0 863 19 6 12 10 107 10 240 0 212 -1 222 -21 242 -20 20 -22 33 -24 178
-2 161 -15 228 -54 296 -10 17 -21 55 -24 84 -7 62 -23 87 -43 70 -9 -7 -11
-21 -8 -36 l7 -25 -39 26 c-22 14 -54 30 -71 37 -22 7 -33 18 -33 30 0 22 -28
26 -36 5 -4 -10 -17 -12 -47 -8 -23 3 -43 9 -45 13 -2 5 -20 7 -40 4 -20 -3
-110 -9 -198 -14 -143 -8 -169 -12 -220 -35 -115 -53 -176 -126 -209 -251 -21
-81 -21 -394 0 -483 36 -154 124 -246 273 -287 44 -12 39 -13 -97 -14 -139 -1
-144 0 -128 17 28 30 20 46 -53 111 -103 91 -112 113 -165 365 -25 120 -45
233 -45 251 0 56 12 97 26 91 19 -7 29 13 30 59 0 22 7 55 15 74 14 32 13 34
-17 60 -17 14 -34 34 -37 44 -12 31 -32 13 -33 -29 0 -22 -17 -75 -38 -124
-58 -128 -57 -159 3 -443 28 -130 60 -256 72 -280 12 -23 58 -77 103 -119 l81
-78 -68 0 -67 0 16 24 c20 31 15 39 -69 116 -37 35 -77 81 -88 103 -27 51
-109 442 -108 510 1 54 27 145 28 99 1 -27 29 -41 42 -21 7 11 7 103 0 242 -1
17 -21 23 -34 10z m1060 -109 l52 -7 3 -71 c2 -58 6 -71 21 -74 15 -3 17 5 17
63 0 64 1 65 21 55 45 -24 98 -83 120 -133 23 -50 24 -59 21 -272 l-2 -220
-33 -64 c-24 -48 -44 -73 -80 -98 -74 -50 -107 -55 -336 -51 -189 3 -210 5
-256 26 -60 28 -109 73 -138 127 -20 37 -22 57 -25 258 -3 177 0 227 13 272
28 97 111 166 222 185 59 9 309 12 380 4z m-1138 -901 l76 -73 -97 0 -98 0 0
103 1 102 21 -30 c12 -16 56 -63 97 -102z m1441 17 l0 -90 -142 1 -143 0 63
18 c73 21 156 75 192 126 14 19 26 35 28 35 1 0 2 -40 2 -90z"/>
<path d="M1487 1304 c-3 -4 -9 -33 -13 -65 l-7 -59 -106 0 c-118 0 -165 -15
-213 -66 -51 -55 -61 -96 -60 -246 1 -181 22 -231 117 -281 33 -18 61 -22 170
-25 151 -4 200 5 251 50 69 61 79 94 79 263 0 146 -1 151 -28 197 -28 48 -85
90 -139 103 -30 8 -33 18 -19 75 4 19 6 41 4 48 -5 13 -25 16 -36 6z m83 -186
c71 -37 84 -74 88 -248 3 -138 2 -147 -20 -180 -13 -19 -42 -45 -66 -57 -54
-27 -179 -38 -282 -24 -67 9 -78 14 -106 44 -40 44 -54 106 -54 244 0 201 46
239 290 242 91 1 112 -2 150 -21z"/>
</g>
</svg>
