<?xml version="1.0" standalone="no"?>
<!DOCTYPE svg PUBLIC "-//W3C//DTD SVG 20010904//EN"
 "http://www.w3.org/TR/2001/REC-SVG-20010904/DTD/svg10.dtd">
<svg version="1.0" xmlns="http://www.w3.org/2000/svg"
 width="468pt" height="472pt" viewBox="0 0 468 472"
 preserveAspectRatio="xMidYMid meet">
<metadata>
Created by potrace 1.8, written by Peter Selinger 2001-2007
</metadata>
<g transform="translate(0,472) scale(0.158644,-0.158644)"
fill="#000000" stroke="none">
<path d="M206 2957 c-27 -7 -54 -19 -59 -29 -8 -12 5 -94 51 -317 l62 -301
-61 -373 c-61 -369 -62 -374 -88 -385 -49 -22 -86 -49 -99 -73 -19 -34 -1 -77
38 -90 l30 -11 0 -618 0 -619 -21 -3 c-12 -2 -31 -15 -42 -29 -24 -33 -13 -78
24 -96 35 -18 933 -18 969 0 35 18 48 61 29 95 l-15 27 -217 3 -217 2 0 620 0
619 454 3 c430 3 455 4 475 22 42 38 17 116 -37 116 -12 0 -22 6 -22 13 0 29
-26 47 -71 51 -26 2 -51 6 -56 9 -5 3 -31 8 -59 11 -27 2 -56 7 -64 10 -8 3
-35 8 -60 11 -25 2 -64 8 -87 13 -27 6 -46 5 -52 -1 -6 -6 -15 -5 -25 5 -8 8
-33 18 -57 22 -33 5 -44 3 -55 -11 -18 -24 -17 -31 6 -43 15 -8 20 -21 20 -50
l0 -40 -145 0 c-132 0 -147 2 -165 20 -18 18 -33 20 -185 20 -164 0 -165 0
-165 23 0 12 16 114 35 227 19 113 35 210 36 215 0 6 12 -42 25 -105 13 -63
31 -121 38 -129 12 -12 24 -12 73 -2 31 6 64 18 72 26 13 13 1 84 -98 572
-111 554 -119 585 -155 582 -6 0 -33 -6 -60 -12z m1147 -1430 c12 -2 -76 -5
-195 -6 l-218 -1 0 38 0 39 195 -33 c108 -18 206 -35 218 -37z m-903 -767 l0
-620 -115 0 -115 0 0 620 0 620 115 0 115 0 0 -620z"/>
<path d="M2790 2782 c-29 -23 -28 -43 5 -197 28 -132 47 -161 94 -150 30 7 61
40 61 64 0 40 -55 268 -68 284 -20 22 -64 22 -92 -1z"/>
<path d="M2785 2325 c-14 -13 -25 -28 -25 -32 0 -5 -22 -181 -49 -393 l-48
-385 18 -155 c23 -198 24 -199 61 -214 38 -16 65 -10 83 18 13 19 12 44 -5
189 l-20 167 45 357 c25 197 48 375 51 395 11 69 -61 104 -111 53z"/>
<path d="M2072 1438 c-19 -19 -15 -66 7 -78 11 -6 90 -10 184 -10 l164 0 7
-52 c3 -29 6 -90 6 -135 l0 -83 -242 -1 c-134 -1 -254 -4 -268 -8 -29 -8 -54
-53 -45 -81 15 -48 25 -50 231 -50 l194 0 -2 -287 -3 -286 -208 -76 c-138 -50
-212 -82 -219 -95 -15 -26 5 -66 33 -66 12 0 123 37 248 81 l226 82 90 -33
c328 -117 385 -135 402 -124 22 13 29 50 14 68 -7 8 -108 48 -226 91 l-215 77
0 284 0 284 173 0 c153 0 176 2 190 18 19 22 23 40 14 74 -10 39 -51 48 -208
48 l-139 0 0 135 0 135 61 0 c33 0 69 5 80 10 22 12 26 59 7 78 -17 17 -539
17 -556 0z"/>
<path d="M1851 78 c-14 -36 9 -62 57 -66 33 -3 43 1 52 19 9 16 9 28 1 45 -9
20 -18 24 -56 24 -38 0 -47 -4 -54 -22z"/>
<path d="M2799 79 c-8 -16 -8 -28 0 -46 10 -21 17 -24 52 -21 49 4 72 30 58
66 -7 18 -16 22 -53 22 -36 0 -48 -4 -57 -21z"/>
</g>
</svg>
