<?xml version="1.0" standalone="no"?>
<!DOCTYPE svg PUBLIC "-//W3C//DTD SVG 20010904//EN"
 "http://www.w3.org/TR/2001/REC-SVG-20010904/DTD/svg10.dtd">
<svg version="1.0" xmlns="http://www.w3.org/2000/svg"
 width="469pt" height="630pt" viewBox="0 0 469 630"
 preserveAspectRatio="xMidYMid meet">
<metadata>
Created by potrace 1.8, written by Peter Selinger 2001-2007
</metadata>
<g transform="translate(0,630) scale(0.212727,-0.212727)"
fill="#000000" stroke="none">
<path d="M1008 2951 l-866 -6 -44 -30 c-27 -19 -52 -48 -68 -80 l-25 -50 0
-1310 0 -1311 26 -49 c18 -35 39 -59 74 -80 l48 -30 936 0 c515 0 948 3 963 8
39 10 95 63 121 111 l22 41 0 1300 c0 1026 -3 1309 -13 1342 -28 94 -102 142
-228 147 -43 1 -469 0 -946 -3z m-395 -141 l157 0 0 -230 0 -230 -315 0 -315
0 0 208 c0 192 2 210 19 226 32 29 72 36 186 31 61 -3 181 -5 268 -5z m1423
-21 c17 -19 19 -41 22 -230 l3 -209 -575 0 -576 0 0 230 0 230 553 0 c550 0
554 0 573 -21z m24 -1583 c0 -552 -3 -1012 -6 -1021 -4 -8 -20 -23 -36 -31
-26 -13 -143 -15 -931 -15 l-902 1 -22 26 -23 25 0 1010 0 1009 960 0 960 0 0
-1004z"/>
<path d="M1027 2700 c-53 -42 -41 -148 19 -170 14 -6 115 -10 224 -10 197 0
199 0 228 25 34 29 44 63 30 111 -16 61 -29 64 -264 64 -198 0 -213 -1 -237
-20z"/>
<path d="M1826 2699 c-33 -26 -34 -68 -3 -97 35 -33 119 -31 152 3 14 13 25
34 25 45 0 12 -11 32 -25 45 -32 33 -110 35 -149 4z"/>
<path d="M1005 2440 c-14 -23 13 -31 91 -28 62 2 79 6 79 18 0 12 -17 16 -82
18 -52 2 -84 -1 -88 -8z"/>
<path d="M1215 2440 c-14 -23 13 -31 91 -28 62 2 79 6 79 18 0 12 -17 16 -82
18 -52 2 -84 -1 -88 -8z"/>
<path d="M1430 2430 c0 -19 6 -20 86 -20 76 0 85 2 82 18 -3 14 -16 17 -86 20
-77 3 -82 2 -82 -18z"/>
<path d="M1640 2430 c0 -19 6 -20 86 -20 76 0 85 2 82 18 -3 14 -16 17 -86 20
-77 3 -82 2 -82 -18z"/>
<path d="M917 2070 c-289 -73 -509 -281 -596 -563 -137 -445 128 -916 584
-1038 114 -31 289 -31 403 0 163 43 282 112 392 227 77 80 97 108 138 188 26
52 34 59 62 61 64 5 65 7 68 303 2 147 0 277 -3 289 -8 32 -33 53 -65 53 -25
0 -33 9 -68 73 -108 193 -275 330 -487 397 -102 33 -319 38 -428 10z m368
-137 c130 -32 271 -121 352 -222 56 -71 116 -189 139 -272 24 -86 24 -252 1
-339 -96 -359 -457 -583 -810 -504 -350 79 -583 403 -539 751 53 421 444 688
857 586z"/>
<path d="M1030 1829 c-163 -23 -317 -128 -405 -274 -101 -168 -105 -366 -13
-549 44 -87 163 -204 251 -245 217 -103 450 -68 626 95 196 182 240 460 110
690 -110 194 -351 314 -569 283z m166 -100 c238 -44 415 -292 376 -526 -25
-148 -126 -288 -254 -351 -236 -115 -505 -27 -621 204 -99 197 -67 394 87 543
71 67 143 107 230 126 77 17 108 18 182 4z"/>
<path d="M250 587 c-43 -22 -53 -59 -51 -188 2 -194 10 -202 200 -197 127 3
131 4 158 31 26 26 28 34 31 128 5 131 -4 185 -33 215 -23 23 -31 24 -152 24
-83 0 -137 -5 -153 -13z m271 -46 c23 -19 24 -24 23 -141 -2 -157 0 -154 -142
-158 -97 -3 -110 -2 -135 18 -27 21 -27 23 -27 139 0 118 6 142 40 154 8 3 61
6 116 6 86 1 105 -2 125 -18z"/>
</g>
</svg>
