<?xml version="1.0" standalone="no"?>
<!DOCTYPE svg PUBLIC "-//W3C//DTD SVG 20010904//EN"
 "http://www.w3.org/TR/2001/REC-SVG-20010904/DTD/svg10.dtd">
<svg version="1.0" xmlns="http://www.w3.org/2000/svg"
 width="468pt" height="465pt" viewBox="0 0 468 465"
 preserveAspectRatio="xMidYMid meet">
<metadata>
Created by potrace 1.8, written by Peter Selinger 2001-2007
</metadata>
<g transform="translate(0,465) scale(0.157576,-0.157576)"
fill="#000000" stroke="none">
<path d="M1648 2939 c-17 -9 -18 -44 -18 -504 l0 -495 -445 0 -445 0 -38 -34
-37 -34 -3 -126 c-3 -110 -6 -126 -20 -126 -14 0 -17 12 -17 74 0 65 -3 78
-24 100 l-24 26 -196 0 c-186 0 -196 -1 -218 -22 l-23 -21 0 170 c0 189 -5
203 -67 203 -65 0 -63 22 -63 -587 0 -520 1 -551 18 -566 25 -22 75 -21 95 1
14 15 17 40 17 127 l0 108 31 -7 c17 -3 416 -6 885 -6 l854 0 0 -95 c0 -106
14 -135 68 -135 71 1 72 8 72 434 l0 376 361 0 361 0 -6 -27 c-4 -16 -10 -100
-13 -188 -5 -136 -3 -162 10 -173 9 -8 50 -14 103 -15 l88 -2 7 47 c4 26 6
368 5 761 -1 586 -4 717 -15 731 -12 14 -72 16 -650 16 -413 -1 -642 -4 -653
-11z m132 -99 c13 -8 15 -51 15 -287 0 -290 -7 -349 -52 -438 -17 -34 -52 -75
-65 -75 -4 0 -8 182 -8 405 l0 405 48 0 c26 0 54 -5 62 -10z m954 -10 c-17
-11 -66 -29 -110 -41 -113 -30 -430 -38 -568 -15 -97 17 -201 49 -211 67 -4 5
172 9 457 9 l463 0 -31 -20z m186 -385 c0 -400 0 -405 -20 -393 -29 18 -66 94
-86 178 -22 93 -33 510 -15 578 l12 42 54 0 55 0 0 -405z m-973 309 c40 -13
125 -29 188 -36 l115 -12 0 -113 c0 -100 -2 -115 -20 -133 -11 -11 -20 -27
-20 -35 0 -8 9 -24 20 -35 19 -19 20 -33 20 -255 l0 -235 -99 0 -99 0 -4 66
c-3 55 -8 70 -27 85 -30 24 -52 24 -85 -2 -23 -18 -26 -27 -26 -85 0 -67 -9
-77 -40 -49 -10 9 -35 18 -56 22 -24 3 -52 17 -71 36 l-33 31 24 25 c33 34 71
120 93 206 14 57 17 116 18 313 0 211 2 241 15 236 8 -4 48 -17 87 -30z m827
-542 c19 -75 49 -137 84 -174 l25 -27 -31 -35 c-16 -19 -33 -44 -37 -55 -6
-20 -13 -21 -236 -21 l-229 0 0 235 0 234 24 24 c28 28 25 66 -6 74 -16 5 -18
17 -18 124 l0 119 33 0 c61 0 225 29 293 52 l69 23 6 -255 c5 -185 11 -272 23
-318z m146 -502 l0 -270 -65 0 -65 0 0 83 c0 191 37 360 91 422 17 19 33 35
35 35 2 0 4 -121 4 -270z m-1226 254 c23 -9 20 -24 -4 -24 -11 0 -20 7 -20 15
0 17 2 18 24 9z"/>
<path d="M2262 1078 c-7 -7 -12 -24 -12 -38 0 -21 -5 -26 -22 -26 -20 1 -29
-26 -121 -337 -70 -237 -96 -342 -89 -349 8 -8 45 -7 124 1 175 18 168 16 169
64 1 40 2 40 9 -13 5 -30 8 -55 7 -56 -1 0 -99 -11 -217 -23 -224 -23 -253
-31 -234 -68 5 -10 59 -67 121 -127 l112 -109 263 28 c163 17 271 32 285 41
41 26 303 275 303 289 0 34 -24 35 -256 10 -293 -32 -284 -32 -283 3 1 18 3
21 6 9 4 -15 12 -17 41 -13 21 3 129 15 242 27 116 12 208 26 212 32 4 7 1 18
-6 27 -127 150 -531 590 -540 587 -6 -2 -14 -19 -17 -38 l-6 -34 -2 40 c0 22
-8 51 -17 63 -17 24 -53 29 -72 10z m-5 -140 c-2 -13 -4 -5 -4 17 -1 22 1 32
4 23 2 -10 2 -28 0 -40z m110 -40 c-2 -13 -4 -5 -4 17 -1 22 1 32 4 23 2 -10
2 -28 0 -40z m312 -246 c95 -106 171 -195 169 -198 -3 -2 -88 -14 -188 -25
-126 -14 -185 -17 -190 -10 -3 6 -16 111 -29 234 -12 122 -25 239 -28 260 l-6
39 50 -54 c27 -29 127 -140 222 -246z m-412 196 c-2 -13 -4 -5 -4 17 -1 22 1
32 4 23 2 -10 2 -28 0 -40z m-4 -415 c5 -49 6 -48 -120 -59 l-81 -6 59 203
c33 112 67 229 76 259 l17 55 22 -205 c12 -113 24 -224 27 -247z m114 365 c-2
-13 -4 -3 -4 22 0 25 2 35 4 23 2 -13 2 -33 0 -45z m-100 -40 c-2 -13 -4 -5
-4 17 -1 22 1 32 4 23 2 -10 2 -28 0 -40z m110 -50 c-2 -13 -4 -5 -4 17 -1 22
1 32 4 23 2 -10 2 -28 0 -40z m-100 -50 c-2 -13 -4 -5 -4 17 -1 22 1 32 4 23
2 -10 2 -28 0 -40z m110 -40 c-2 -13 -4 -5 -4 17 -1 22 1 32 4 23 2 -10 2 -28
0 -40z m-100 -50 c-2 -13 -4 -5 -4 17 -1 22 1 32 4 23 2 -10 2 -28 0 -40z
m110 -50 c-2 -13 -4 -5 -4 17 -1 22 1 32 4 23 2 -10 2 -28 0 -40z m-100 -50
c-2 -13 -4 -3 -4 22 0 25 2 35 4 23 2 -13 2 -33 0 -45z m110 -40 c-2 -13 -4
-5 -4 17 -1 22 1 32 4 23 2 -10 2 -28 0 -40z"/>
<path d="M641 797 c-14 -17 -11 -20 55 -52 35 -17 64 -40 79 -63 26 -41 44
-112 27 -112 -6 0 -106 21 -222 46 -117 25 -223 43 -236 40 -13 -4 -30 -19
-38 -34 -15 -29 -66 -258 -66 -295 0 -41 39 -65 148 -92 118 -29 154 -31 191
-9 26 16 36 15 157 -10 167 -35 159 -32 174 -61 15 -28 58 -45 170 -70 98 -22
148 -18 171 15 19 25 56 182 66 275 8 77 -2 82 -250 136 l-212 46 -6 45 c-14
91 -65 156 -153 193 -43 18 -41 18 -55 2z m249 -292 c201 -43 369 -82 375 -87
15 -13 8 -92 -16 -182 -30 -114 -32 -116 -82 -116 -107 1 -227 41 -227 75 0
20 -18 26 -202 65 -156 33 -158 33 -179 14 -27 -24 -90 -22 -180 6 -84 25 -94
37 -85 98 15 110 33 191 48 215 l17 25 83 -18 c46 -10 247 -53 448 -95z"/>
<path d="M464 540 c-12 -5 -24 -15 -27 -23 -3 -8 -18 -18 -34 -22 -15 -3 -31
-12 -35 -18 -15 -23 -8 -67 12 -79 11 -7 20 -21 20 -30 0 -52 85 -76 105 -30
7 15 18 22 37 22 50 0 65 65 23 98 -14 11 -25 29 -25 40 0 33 -40 55 -76 42z
m34 -67 c-2 -21 3 -30 25 -41 32 -16 26 -35 -8 -26 -20 5 -27 1 -35 -20 -13
-35 -30 -33 -30 3 0 22 -6 30 -25 35 -35 9 -31 24 8 28 24 2 33 8 35 26 5 33
33 29 30 -5z"/>
<path d="M976 394 c-19 -18 -19 -20 -6 -45 15 -27 66 -26 81 3 10 18 8 24 -11
40 -27 22 -44 23 -64 2z"/>
<path d="M684 365 c-8 -21 11 -35 49 -35 20 0 27 5 27 20 0 11 -6 20 -12 20
-7 0 -23 3 -35 6 -16 4 -25 1 -29 -11z"/>
<path d="M1100 361 c-13 -25 -13 -27 6 -45 21 -22 61 -20 74 3 13 25 13 27 -6
45 -21 22 -61 20 -74 -3z"/>
<path d="M791 346 c-18 -22 18 -42 67 -37 13 1 17 27 5 34 -25 14 -62 15 -72
3z"/>
<path d="M982 288 c-21 -21 -14 -57 12 -64 41 -10 61 -1 64 29 3 21 -2 29 -23
37 -34 13 -38 13 -53 -2z"/>
<path d="M1112 258 c-26 -26 -6 -68 33 -68 43 0 62 50 26 70 -26 13 -44 13
-59 -2z"/>
</g>
</svg>
