<?xml version="1.0" standalone="no"?>
<!DOCTYPE svg PUBLIC "-//W3C//DTD SVG 20010904//EN"
 "http://www.w3.org/TR/2001/REC-SVG-20010904/DTD/svg10.dtd">
<svg version="1.0" xmlns="http://www.w3.org/2000/svg"
 width="468pt" height="536pt" viewBox="0 0 468 536"
 preserveAspectRatio="xMidYMid meet">
<metadata>
Created by potrace 1.8, written by Peter Selinger 2001-2007
</metadata>
<g transform="translate(0,536) scale(0.187952,-0.187952)"
fill="#000000" stroke="none">
<path d="M1318 2839 c-17 -9 -18 -65 -18 -941 0 -901 -1 -931 -18 -915 -22 20
-56 22 -69 4 -6 -6 -52 -221 -104 -476 l-93 -464 23 -18 c28 -23 32 -23 55 -6
14 10 39 114 111 468 l93 454 1 -457 1 -457 22 -15 c29 -20 34 -20 58 4 20 20
20 33 20 605 l0 585 495 0 495 0 0 -587 c0 -324 4 -593 8 -599 15 -24 50 -26
71 -5 21 21 21 23 21 1404 0 1235 -2 1385 -16 1405 -29 42 -84 23 -84 -30 l0
-28 -495 0 -495 0 0 23 c0 26 -28 57 -51 57 -8 0 -22 -5 -31 -11z m1072 -484
l0 -315 -124 0 -124 0 15 30 c11 23 14 56 11 131 -4 131 -12 139 -135 139 -76
0 -86 -2 -108 -25 -23 -22 -25 -31 -25 -127 0 -78 4 -109 16 -126 l15 -22
-121 0 -121 0 15 22 c12 17 16 48 16 126 l0 104 31 -26 c48 -41 72 -35 147 38
91 88 90 103 -11 203 -100 101 -115 102 -203 11 -74 -76 -79 -100 -35 -150
l29 -33 -87 3 c-75 3 -91 1 -111 -16 -22 -18 -25 -30 -28 -101 -5 -95 3 -144
24 -166 14 -13 11 -15 -30 -15 l-46 0 0 315 0 315 495 0 495 0 0 -315z m0
-730 l0 -315 -42 0 c-41 1 -42 1 -19 14 44 24 50 51 51 204 0 147 -10 192 -44
205 -9 4 -168 7 -355 8 -378 1 -387 0 -408 -61 -13 -38 -7 -277 8 -318 5 -13
24 -29 41 -37 31 -13 24 -14 -94 -15 l-128 0 0 315 0 315 495 0 495 0 0 -315z
m-67 55 c11 -16 13 -50 9 -163 -3 -88 -9 -145 -16 -149 -6 -4 -160 -8 -343 -8
-288 0 -334 2 -347 16 -13 12 -16 41 -16 147 0 73 4 137 8 143 20 31 52 33
369 34 312 0 322 -1 336 -20z"/>
<path d="M392 2614 l-22 -15 0 -1090 0 -1089 -169 0 c-164 0 -170 -1 -185 -22
-20 -29 -20 -53 0 -87 15 -25 15 -38 0 -156 -12 -89 -14 -131 -6 -139 21 -21
34 15 49 136 10 70 21 123 28 125 8 3 10 -31 6 -132 -6 -131 -5 -137 13 -133
22 4 31 59 33 191 1 44 5 77 11 77 6 0 10 -48 10 -122 0 -128 7 -155 34 -145
14 5 16 26 16 137 0 174 19 172 22 -2 3 -117 5 -133 21 -136 15 -3 17 8 17
132 0 114 2 136 15 136 13 0 15 -22 15 -136 0 -124 2 -135 17 -132 16 3 18 19
21 136 3 174 22 176 22 2 0 -111 2 -132 16 -137 27 -10 34 17 34 145 0 74 4
122 10 122 6 0 10 -52 10 -136 0 -124 2 -135 18 -132 15 3 17 19 20 136 3 174
22 176 22 2 0 -111 2 -132 16 -137 27 -10 34 17 34 145 0 74 4 122 10 122 6 0
10 -52 10 -135 0 -128 1 -135 20 -135 19 0 20 7 20 135 0 178 18 180 22 3 3
-125 4 -133 23 -133 19 0 20 8 23 133 1 77 7 132 12 132 6 0 11 -30 11 -67 3
-137 12 -197 33 -201 17 -4 18 4 14 132 -4 163 11 179 29 30 18 -144 22 -164
38 -164 25 0 26 18 9 144 -17 124 -16 125 5 152 25 32 27 61 5 92 -15 21 -21
22 -185 22 l-169 0 0 1089 0 1090 -22 15 c-12 9 -25 16 -28 16 -3 0 -16 -7
-28 -16z"/>
<path d="M1710 1111 c-79 -16 -142 -71 -159 -139 -5 -20 -15 -120 -22 -222
-12 -184 -12 -184 10 -198 19 -13 21 -24 22 -116 0 -55 4 -165 8 -244 7 -130
10 -144 31 -167 l23 -25 248 0 c248 0 248 0 276 24 l28 24 8 214 c10 262 14
299 32 292 7 -3 15 -2 18 3 3 5 -1 98 -9 208 -12 162 -18 207 -35 243 -26 53
-77 88 -148 102 -60 11 -276 12 -331 1z m381 -64 c53 -35 76 -95 84 -217 7
-99 7 -104 -10 -90 -15 13 -61 14 -284 12 -149 -2 -274 -8 -284 -14 -10 -5
-20 -8 -22 -6 -1 2 1 50 6 108 10 128 28 172 83 205 39 24 48 25 217 25 166 0
178 -1 210 -23z m5 -554 c-3 -93 -9 -219 -12 -281 l-7 -112 -202 0 -202 0 -6
122 c-4 68 -10 194 -13 281 l-7 157 228 0 228 0 -7 -167z"/>
</g>
</svg>
