<?xml version="1.0" standalone="no"?>
<!DOCTYPE svg PUBLIC "-//W3C//DTD SVG 20010904//EN"
 "http://www.w3.org/TR/2001/REC-SVG-20010904/DTD/svg10.dtd">
<svg version="1.0" xmlns="http://www.w3.org/2000/svg"
 width="468pt" height="265pt" viewBox="0 0 468 265"
 preserveAspectRatio="xMidYMid meet">
<metadata>
Created by potrace 1.8, written by Peter Selinger 2001-2007
</metadata>
<g transform="translate(0,265) scale(0.157576,-0.157576)"
fill="#000000" stroke="none">
<path d="M2276 1644 c-47 -48 -36 -137 21 -163 16 -7 124 -11 318 -11 l294 0
28 24 c24 21 28 32 28 76 0 44 -4 55 -28 76 l-28 24 -303 0 -303 0 -27 -26z"/>
<path d="M1829 1351 c-43 -43 -38 -121 10 -158 12 -9 97 -12 323 -13 l306 0
26 31 c37 44 36 101 -3 140 l-29 29 -302 0 -302 0 -29 -29z"/>
<path d="M1405 1076 c-60 -26 -73 -106 -26 -158 l29 -33 289 -3 c259 -2 292
-1 323 15 50 25 68 81 43 132 -10 20 -29 41 -43 48 -37 18 -573 17 -615 -1z"/>
<path d="M960 783 c-68 -35 -77 -118 -19 -167 l31 -26 294 0 294 0 32 29 c28
25 33 36 33 75 0 36 -6 51 -28 73 l-27 28 -288 3 c-259 2 -290 1 -322 -15z"/>
<path d="M486 474 c-41 -42 -39 -106 4 -146 l30 -28 300 0 c297 0 299 0 325
23 20 16 28 35 32 69 5 42 3 50 -25 78 l-30 30 -305 0 -304 0 -27 -26z"/>
<path d="M39 181 c-39 -39 -40 -96 -3 -140 l26 -31 308 0 308 0 26 31 c37 44
36 101 -3 140 l-29 29 -302 0 -302 0 -29 -29z"/>
</g>
</svg>
