<?xml version="1.0" standalone="no"?>
<!DOCTYPE svg PUBLIC "-//W3C//DTD SVG 20010904//EN"
 "http://www.w3.org/TR/2001/REC-SVG-20010904/DTD/svg10.dtd">
<svg version="1.0" xmlns="http://www.w3.org/2000/svg"
 width="468pt" height="472pt" viewBox="0 0 468 472"
 preserveAspectRatio="xMidYMid meet">
<metadata>
Created by potrace 1.8, written by Peter Selinger 2001-2007
</metadata>
<g transform="translate(0,472) scale(0.159184,-0.159184)"
fill="#000000" stroke="none">
<path d="M2125 2952 c-32 -11 -51 -26 -64 -49 -17 -33 -15 -1548 2 -1583 7
-14 28 -33 47 -42 31 -16 72 -18 388 -18 388 0 408 3 431 58 8 19 11 253 9
809 l-3 782 -23 23 -23 23 -372 2 c-204 1 -381 -2 -392 -5z m715 -842 l0 -750
-345 0 -345 0 0 345 0 345 29 0 c34 0 61 23 61 50 0 23 -36 50 -67 50 l-23 0
0 355 0 355 345 0 345 0 0 -750z"/>
<path d="M2417 2663 c-27 -7 -36 -41 -30 -119 4 -46 10 -73 21 -81 9 -8 46
-13 89 -13 61 0 76 3 94 21 19 19 21 30 17 96 -4 93 -15 103 -107 102 -36 -1
-74 -3 -84 -6z m143 -103 l0 -60 -65 0 -65 0 0 60 0 60 65 0 65 0 0 -60z"/>
<path d="M2399 2334 c-16 -20 -14 -161 3 -181 7 -9 39 -13 99 -13 77 0 90 2
99 19 13 25 13 131 0 165 -9 25 -12 26 -99 26 -70 0 -91 -3 -102 -16z m161
-89 l0 -65 -65 0 -65 0 0 65 0 65 65 0 65 0 0 -65z"/>
<path d="M2394 2038 c-12 -19 -5 -169 7 -185 8 -9 38 -13 95 -13 74 0 84 2 98
22 18 26 22 122 6 162 -9 25 -12 26 -104 26 -65 0 -97 -4 -102 -12z m166 -88
l0 -60 -65 0 -65 0 0 60 0 60 65 0 65 0 0 -60z"/>
<path d="M2399 1723 c-16 -19 -15 -171 2 -188 5 -5 49 -8 97 -7 110 3 115 8
110 115 -2 55 -8 81 -18 87 -8 5 -52 10 -96 10 -64 0 -85 -4 -95 -17z m161
-93 l0 -60 -65 0 -65 0 0 60 0 60 65 0 65 0 0 -60z"/>
<path d="M111 2639 c-18 -6 -45 -18 -59 -27 -53 -35 -52 -16 -52 -917 0 -572
3 -850 11 -880 6 -24 24 -55 41 -72 l29 -28 279 -3 c310 -3 324 -1 357 61 14
26 18 63 21 194 l4 161 81 6 c45 4 179 8 297 10 194 4 237 8 291 31 12 4 18
-1 22 -22 17 -84 100 -112 159 -53 30 30 30 33 24 100 -4 37 -22 135 -40 217
-18 81 -59 280 -91 441 -64 325 -69 338 -145 361 -22 6 -79 16 -127 22 -47 5
-90 12 -94 15 -5 3 -9 25 -9 48 0 42 2 44 33 49 17 2 34 1 35 -4 6 -14 39 -10
45 5 3 8 21 16 39 18 22 2 34 9 36 21 3 14 -4 17 -38 17 -27 0 -51 7 -67 20
-44 34 -108 19 -125 -30 -2 -7 -32 -17 -67 -21 -60 -9 -65 -8 -89 16 -32 33
-75 33 -107 0 -14 -13 -25 -29 -25 -35 0 -5 -9 -10 -20 -10 -19 0 -20 7 -20
98 0 78 -4 103 -20 129 -40 66 -47 68 -325 70 -144 1 -264 -2 -284 -8z m510
-99 c19 -10 19 -31 19 -859 0 -707 -2 -850 -14 -860 -9 -8 -88 -11 -267 -9
l-254 3 -3 852 c-2 764 0 853 14 867 13 14 50 16 250 16 143 0 243 -4 255 -10z
m536 -136 c-3 -3 -12 -4 -19 -1 -8 3 -5 6 6 6 11 1 17 -2 13 -5z m-282 -34 c4
-6 -6 -10 -22 -10 -22 0 -25 2 -13 10 19 12 27 12 35 0z m189 -71 c4 -23 5
-43 4 -45 -8 -8 -158 -34 -194 -34 -45 0 -54 10 -54 60 0 16 7 30 16 34 26 10
59 7 73 -6 10 -11 15 -10 25 4 11 15 39 23 97 27 24 1 27 -4 33 -40z m-284
-39 c0 -43 -3 -50 -20 -50 -17 0 -20 7 -20 44 0 34 4 46 18 49 9 3 18 5 20 6
1 0 2 -21 2 -49z m548 -85 c23 -9 47 -25 51 -34 13 -24 181 -870 188 -947 3
-35 4 -64 2 -64 -2 0 -19 -4 -37 -9 -30 -9 -33 -7 -47 19 -18 34 -56 250 -85
470 -26 210 -29 220 -51 220 -11 0 -21 -9 -25 -24 -4 -19 38 -390 63 -548 5
-36 4 -39 -31 -53 -20 -8 -76 -18 -124 -21 l-89 -7 -6 88 c-3 49 -4 92 -1 97
3 4 22 8 42 8 57 0 82 23 82 74 0 60 -102 547 -130 621 -14 36 -55 82 -92 101
-57 30 -33 37 110 32 99 -4 149 -10 180 -23z m-341 -33 c32 -17 66 -39 76 -50
18 -19 17 -19 -42 -6 -33 8 -110 15 -171 17 l-110 2 0 27 c0 22 6 29 33 37 55
17 149 5 214 -27z m51 -102 c20 -5 43 -14 51 -19 17 -11 130 -509 131 -577 0
-22 -23 -34 -66 -34 -24 0 -20 -17 -63 278 -10 68 -21 126 -24 129 -4 3 -13 3
-22 0 -17 -7 -19 -32 -5 -108 21 -120 61 -502 53 -510 -4 -4 -86 -11 -181 -15
l-172 -7 0 444 0 444 131 -7 c72 -4 147 -12 167 -18z"/>
<path d="M2449 1213 c-285 -3 -318 -5 -332 -21 -20 -23 -87 -197 -87 -228 0
-13 9 -33 20 -44 19 -19 35 -20 318 -22 338 -2 357 -1 393 13 22 9 34 30 69
124 43 116 45 147 12 164 -29 15 -69 16 -393 14z m92 -43 c258 0 279 -1 279
-17 0 -33 -63 -194 -79 -202 -9 -5 -162 -6 -341 -2 -375 7 -339 -9 -288 129
27 73 34 83 62 92 17 5 44 7 60 4 16 -2 154 -4 307 -4z"/>
<path d="M2175 1110 c-3 -5 3 -10 14 -10 12 0 21 -7 21 -15 0 -8 -9 -15 -19
-15 -11 0 -23 -4 -26 -10 -3 -5 1 -10 9 -10 9 0 16 -4 16 -10 0 -5 -11 -10
-24 -10 -14 0 -28 -4 -31 -10 -4 -6 8 -10 29 -10 32 0 37 4 56 46 11 26 20 50
20 55 0 12 -57 11 -65 -1z"/>
<path d="M2263 1108 c-15 -19 -44 -98 -36 -98 3 0 15 7 25 17 17 15 18 15 18
0 0 -30 16 -18 43 32 29 53 32 61 18 61 -5 0 -14 -14 -22 -32 -7 -17 -15 -26
-17 -19 -3 9 -10 7 -24 -6 -21 -18 -21 -18 -4 15 18 34 17 53 -1 30z"/>
<path d="M2358 1100 c-26 -20 -51 -73 -41 -84 18 -17 55 -4 73 27 36 57 15 94
-32 57z m32 -10 c0 -21 -24 -60 -37 -60 -15 0 -10 34 9 58 12 14 28 16 28 2z"/>
<path d="M2440 1110 c-12 -8 -11 -10 8 -10 13 0 22 -6 22 -16 0 -29 -21 -54
-45 -54 -25 0 -46 -19 -23 -21 40 -4 74 19 89 60 15 39 -16 64 -51 41z"/>
<path d="M2525 1110 c-3 -5 3 -10 14 -10 26 0 26 -1 1 -50 -16 -32 -17 -40 -6
-40 12 0 21 17 53 98 6 15 -53 17 -62 2z"/>
<path d="M2610 1110 c0 -5 9 -10 20 -10 13 0 18 -5 14 -15 -4 -8 -14 -15 -24
-15 -11 0 -22 -4 -25 -10 -3 -5 1 -10 9 -10 9 0 16 -4 16 -10 0 -5 -9 -10 -19
-10 -11 0 -23 -4 -26 -10 -4 -6 6 -10 24 -10 26 0 34 7 51 40 28 55 26 70 -10
70 -16 0 -30 -4 -30 -10z"/>
<path d="M2676 1071 c-28 -52 -31 -61 -18 -61 5 0 16 15 25 33 10 21 16 26 16
14 1 -30 18 -10 19 22 1 48 -13 45 -42 -8z"/>
<path d="M2741 1107 c-7 -9 -14 -26 -16 -39 -1 -13 -6 -31 -10 -40 -4 -10 -3
-18 3 -18 11 0 45 85 40 101 -2 7 -8 5 -17 -4z"/>
<path d="M824 639 c-70 -9 -138 -39 -154 -68 -5 -11 -10 -31 -10 -45 0 -25 3
-26 58 -26 43 -1 53 -3 40 -11 -53 -31 -41 -97 24 -130 21 -11 81 -26 133 -34
52 -8 103 -19 114 -24 11 -6 33 -11 50 -11 39 0 52 24 58 105 7 76 -4 86 -91
89 -78 3 -101 16 -28 16 l52 0 0 55 c0 43 -5 60 -22 77 l-21 21 -18 -21 c-11
-15 -28 -22 -50 -22 -18 0 -29 3 -26 7 10 10 -13 33 -32 32 -9 -1 -44 -5 -77
-10z m66 -54 c0 -12 14 -15 70 -15 56 0 70 -3 70 -15 0 -13 -24 -15 -160 -15
-88 0 -160 4 -160 9 0 5 15 16 33 24 64 30 147 37 147 12z m54 -131 c15 -6 17
-14 12 -48 -4 -22 -8 -41 -9 -43 -10 -9 -145 30 -162 48 l-20 20 25 21 c21 17
34 19 81 14 31 -3 64 -8 73 -12z m156 -31 c0 -10 -5 -35 -10 -55 l-11 -37 -43
15 c-39 13 -43 18 -39 42 8 49 11 52 58 52 36 0 45 -3 45 -17z"/>
<path d="M601 405 c-28 -30 -62 -32 -79 -5 -24 38 -71 26 -142 -35 -56 -49
-125 -90 -183 -109 -24 -8 -41 -54 -26 -72 6 -8 18 -14 25 -14 31 0 10 -18
-58 -51 -70 -33 -73 -35 -73 -69 l0 -35 87 -3 c99 -3 140 11 193 68 28 31 92
66 101 57 3 -2 7 -27 11 -55 6 -51 23 -72 41 -49 5 7 17 50 26 97 10 47 20 95
23 107 8 35 -21 39 -58 9 -17 -14 -35 -26 -41 -26 -16 0 22 40 54 56 46 24 56
18 63 -37 4 -29 13 -53 21 -56 8 -3 17 -4 19 -2 8 9 52 225 48 236 -8 20 -26
15 -52 -12z m-95 -78 c-17 -5 -45 -22 -62 -38 -24 -23 -37 -29 -56 -24 -27 7
-75 -12 -97 -39 -8 -9 -28 -16 -45 -16 -28 0 -26 3 29 30 33 16 90 54 128 84
l67 55 34 -22 33 -22 -31 -8z m-102 -131 l28 -23 -33 -7 c-20 -3 -59 -27 -92
-56 -66 -56 -83 -63 -153 -58 l-49 3 65 31 c36 18 92 55 125 83 33 28 65 50
70 50 6 0 23 -10 39 -23z"/>
</g>
</svg>
