<?xml version="1.0" standalone="no"?>
<!DOCTYPE svg PUBLIC "-//W3C//DTD SVG 20010904//EN"
 "http://www.w3.org/TR/2001/REC-SVG-20010904/DTD/svg10.dtd">
<svg version="1.0" xmlns="http://www.w3.org/2000/svg"
 width="468pt" height="472pt" viewBox="0 0 468 472"
 preserveAspectRatio="xMidYMid meet">
<metadata>
Created by potrace 1.8, written by Peter Selinger 2001-2007
</metadata>
<g transform="translate(0,472) scale(0.158644,-0.158644)"
fill="#000000" stroke="none">
<path d="M84 2959 c-16 -5 -41 -20 -55 -35 l-24 -26 -3 -1401 c-2 -1320 -1
-1404 15 -1437 14 -26 28 -38 58 -47 52 -15 2681 -18 2736 -3 19 6 46 22 60
36 l24 26 0 468 c0 457 0 468 20 476 30 14 43 60 24 92 l-15 27 -615 3 -616 2
-6 479 c-6 438 -8 483 -27 542 -10 35 -33 81 -50 101 -49 59 -507 400 -565
420 -39 14 -85 17 -216 18 l-167 0 -93 125 c-65 87 -102 127 -122 135 -36 12
-320 12 -363 -1z m404 -253 c51 -68 100 -128 110 -132 9 -5 107 -11 217 -14
l200 -5 242 -183 c212 -160 246 -189 265 -230 23 -47 23 -51 28 -584 l5 -537
45 -46 44 -45 558 0 558 0 0 -395 0 -395 -1310 0 -1310 0 0 1345 0 1345 128 0
128 0 92 -124z"/>
<path d="M641 2391 c-27 -27 -34 -74 -29 -185 3 -66 9 -101 21 -120 17 -26 19
-26 137 -26 68 0 130 5 144 11 38 18 49 66 44 190 -6 151 -4 149 -170 149
-113 0 -130 -2 -147 -19z m258 -27 c12 -10 19 -100 14 -167 -5 -60 -10 -80
-24 -87 -10 -6 -60 -10 -112 -10 -75 0 -97 3 -108 16 -17 21 -17 217 1 238 6
8 28 16 48 18 38 4 174 -2 181 -8z"/>
<path d="M1013 2200 c-38 -15 -45 -45 -44 -173 2 -172 -3 -167 166 -167 l134
0 21 27 c20 26 21 37 18 154 -4 171 -2 169 -157 168 -64 0 -126 -4 -138 -9z
m247 -56 c13 -34 13 -200 0 -225 -10 -17 -22 -19 -120 -19 -132 0 -130 -3
-130 139 0 128 3 131 142 131 96 0 99 -1 108 -26z"/>
<path d="M612 1890 c-12 -5 -27 -21 -32 -35 -16 -41 -12 -230 4 -270 l15 -35
135 0 c184 0 179 -6 174 182 -4 175 2 168 -157 167 -64 0 -126 -4 -139 -9z
m248 -49 c14 -28 13 -224 -2 -239 -8 -8 -49 -12 -120 -12 -94 0 -110 2 -116
18 -4 9 -7 63 -7 120 0 131 1 132 137 132 86 0 98 -2 108 -19z"/>
<path d="M334 1246 c-20 -9 -35 -25 -43 -46 -7 -23 -11 -163 -11 -441 l0 -408
23 -24 c12 -14 36 -29 52 -34 17 -5 231 -8 505 -6 526 4 510 2 530 70 8 26 10
164 8 433 -3 424 -5 436 -55 459 -38 17 -968 14 -1009 -3z m966 -256 l0 -170
-24 0 c-31 0 -36 -15 -36 -113 0 -88 9 -113 34 -104 12 5 16 26 19 94 1 48 4
-3 5 -114 l2 -203 -76 0 c-69 0 -75 2 -69 18 28 62 44 123 45 160 0 77 -29
177 -70 242 -48 73 -68 77 -103 18 l-24 -41 -7 38 c-9 46 -38 106 -60 125 -14
11 -20 10 -36 -5 -11 -10 -20 -24 -20 -31 0 -7 -4 -15 -10 -19 -5 -3 -21 33
-36 79 -32 104 -46 125 -70 110 -30 -18 -53 -56 -66 -109 -17 -70 -23 -73 -47
-27 -29 58 -40 61 -74 21 -43 -50 -85 -145 -97 -219 -5 -36 -17 -87 -25 -114
-20 -66 -19 -136 4 -196 l19 -50 -49 0 -49 0 0 390 0 390 460 0 460 0 0 -170z
m-511 -27 c6 -27 24 -73 37 -104 l26 -56 -25 -50 c-47 -92 -71 -89 -110 11
-28 74 -50 90 -77 58 -11 -13 -25 -42 -31 -65 l-11 -41 -20 27 c-11 15 -26 27
-35 27 -10 0 -12 6 -7 23 10 33 52 115 63 121 5 3 21 -10 36 -30 21 -27 33
-34 53 -32 24 3 29 11 50 81 13 42 26 77 30 77 5 0 14 -21 21 -47z m160 -140
c28 -106 49 -118 99 -57 l30 36 17 -25 c62 -95 76 -237 32 -324 -31 -60 -52
-79 -35 -33 14 43 5 110 -23 166 -30 60 -55 77 -74 50 -13 -18 -14 -17 -20 7
-8 32 -40 61 -58 54 -8 -3 -22 -27 -31 -53 -9 -26 -28 -68 -43 -93 -16 -25
-33 -62 -39 -81 l-11 -35 -11 40 c-22 74 -12 113 58 221 34 51 49 84 76 172 7
23 21 4 33 -45z m-271 -72 c9 -26 8 -29 -9 -28 -21 1 -21 2 -13 35 8 29 10 28
22 -7z m-68 -96 c17 10 11 -7 -26 -83 -36 -73 -42 -124 -20 -174 13 -29 -19
-22 -43 8 -48 62 -51 166 -6 255 l25 48 30 -30 c16 -17 34 -28 40 -24z m100
-82 c13 -4 19 -17 22 -57 2 -28 11 -66 20 -83 21 -43 6 -55 -63 -51 -42 2 -56
8 -71 29 -28 37 -25 83 10 152 17 34 34 71 38 82 5 16 9 11 16 -24 6 -28 16
-45 28 -48z m40 60 c0 -20 -24 -11 -28 10 -2 12 1 15 12 11 9 -3 16 -13 16
-21z m226 -73 c13 0 27 8 32 17 8 14 12 12 27 -16 20 -39 24 -127 7 -158 -12
-21 -20 -23 -92 -23 -68 0 -81 3 -90 19 -19 37 -11 84 25 141 19 30 35 63 36
75 1 14 6 9 16 -17 12 -29 22 -38 39 -38z"/>
</g>
</svg>
