<?xml version="1.0" standalone="no"?>
<!DOCTYPE svg PUBLIC "-//W3C//DTD SVG 20010904//EN"
 "http://www.w3.org/TR/2001/REC-SVG-20010904/DTD/svg10.dtd">
<svg version="1.0" xmlns="http://www.w3.org/2000/svg"
 width="468pt" height="419pt" viewBox="0 0 468 419"
 preserveAspectRatio="xMidYMid meet">
<metadata>
Created by potrace 1.8, written by Peter Selinger 2001-2007
</metadata>
<g transform="translate(0,419) scale(0.158108,-0.158108)"
fill="#000000" stroke="none">
<path d="M215 2643 c-71 -19 -95 -69 -95 -202 0 -119 14 -161 62 -191 30 -18
50 -20 234 -20 192 0 203 1 235 23 24 16 38 36 48 70 l15 47 621 0 c590 0 623
1 638 18 17 19 22 68 9 88 -21 33 -50 34 -661 34 l-610 0 -11 38 c-11 43 -41
75 -83 91 -28 11 -362 14 -402 4z m355 -208 l0 -75 -155 0 -155 0 0 75 0 75
155 0 155 0 0 -75z"/>
<path d="M540 2050 c-202 -54 -371 -191 -460 -375 -71 -148 -73 -156 -77 -585
-5 -412 0 -489 42 -612 35 -104 81 -173 176 -270 73 -73 101 -93 180 -131 153
-74 180 -77 637 -77 422 0 472 4 582 47 211 83 361 247 432 473 23 74 23 81
23 515 0 433 0 441 -23 515 -75 239 -229 403 -460 487 l-77 27 -450 3 c-421 2
-455 1 -525 -17z m965 -130 c203 -52 367 -214 420 -416 22 -86 22 -852 0 -938
-40 -153 -151 -291 -291 -363 -130 -67 -140 -68 -599 -68 -396 0 -412 1 -480
22 -196 62 -350 223 -400 418 -12 48 -15 134 -15 457 0 255 4 416 11 450 36
170 168 333 329 405 104 47 149 51 561 52 354 1 392 -1 464 -19z"/>
<path d="M809 1640 c-126 -20 -228 -73 -292 -153 -87 -107 -102 -175 -100
-456 1 -124 7 -250 14 -280 18 -88 62 -172 122 -228 111 -105 181 -123 502
-123 177 0 245 4 290 16 141 36 243 134 297 286 21 59 23 78 23 318 0 219 -3
263 -18 315 -42 135 -140 238 -275 287 -50 18 -84 21 -282 24 -124 1 -250 -1
-281 -6z m562 -121 c73 -35 125 -87 163 -168 l31 -66 0 -265 c0 -254 -1 -267
-23 -314 -38 -84 -85 -132 -169 -173 l-77 -38 -205 -1 c-114 0 -236 3 -273 7
-127 14 -215 78 -271 197 l-32 67 0 250 c1 297 8 332 81 414 26 29 65 62 88
73 87 45 108 48 376 45 252 -2 256 -2 311 -28z"/>
<path d="M2177 2032 c-15 -16 -17 -52 -17 -304 0 -334 -5 -318 103 -318 l67 0
0 -684 0 -685 27 -21 c19 -15 35 -19 53 -15 58 14 55 -24 58 720 l2 685 58 0
c48 0 62 4 80 23 22 23 22 27 20 308 l-3 284 -28 13 c-30 14 -58 9 -82 -14
-12 -13 -15 -54 -15 -250 0 -201 -2 -234 -15 -234 -13 0 -15 32 -15 224 0 211
-1 225 -21 250 -25 32 -70 35 -99 6 -19 -19 -20 -33 -20 -250 0 -223 -1 -230
-20 -230 -19 0 -20 7 -20 239 0 237 0 240 -22 255 -30 21 -71 20 -91 -2z"/>
<path d="M2747 2029 c-44 -25 -47 -58 -47 -446 0 -426 1 -430 78 -447 l42 -10
0 -537 c0 -507 1 -538 18 -560 26 -31 78 -31 104 0 17 22 18 65 18 988 l0 965
-29 29 c-27 26 -35 29 -98 29 -37 0 -76 -5 -86 -11z"/>
</g>
</svg>
