<?xml version="1.0" standalone="no"?>
<!DOCTYPE svg PUBLIC "-//W3C//DTD SVG 20010904//EN"
 "http://www.w3.org/TR/2001/REC-SVG-20010904/DTD/svg10.dtd">
<svg version="1.0" xmlns="http://www.w3.org/2000/svg"
 width="469pt" height="426pt" viewBox="0 0 469 426"
 preserveAspectRatio="xMidYMid meet">
<metadata>
Created by potrace 1.8, written by Peter Selinger 2001-2007
</metadata>
<g transform="translate(0,426) scale(0.163636,-0.163636)"
fill="#000000" stroke="none">
<path d="M810 2585 c-20 -11 -69 -14 -247 -15 -188 0 -224 -2 -237 -16 -9 -8
-16 -22 -16 -30 0 -11 -15 -14 -60 -14 -98 0 -140 -33 -140 -111 0 -24 -4 -29
-24 -29 -13 0 -35 -9 -50 -21 l-26 -20 0 -303 c0 -335 1 -340 64 -352 l34 -6
4 -70 c3 -62 7 -73 31 -94 23 -20 39 -24 93 -24 49 0 64 -3 64 -14 0 -27 42
-46 102 -46 l58 0 0 -681 c0 -450 4 -687 10 -700 9 -16 22 -19 95 -19 73 0 86
3 95 19 6 13 10 202 10 546 l0 526 151 183 151 184 100 4 c127 4 138 14 138
124 l0 74 29 0 c16 0 39 9 52 19 24 19 24 22 27 243 3 216 2 225 -18 251 -16
20 -30 27 -56 27 l-34 0 0 73 c0 43 -5 78 -12 85 -7 7 -39 12 -75 12 l-63 0 0
79 c0 115 -10 125 -132 129 -68 2 -100 -2 -118 -13z m-410 -565 c0 -17 -7 -20
-50 -20 -43 0 -50 3 -50 20 0 17 7 20 50 20 43 0 50 -3 50 -20z m390 -544 c0
-4 -83 -108 -112 -140 -4 -6 -8 24 -8 67 l0 77 60 0 c33 0 60 -2 60 -4z"/>
<path d="M2646 2369 c-87 -11 -97 -16 -131 -69 -13 -19 -38 -53 -57 -74 l-34
-39 -87 21 c-47 12 -96 22 -108 22 -21 0 -184 -97 -214 -127 -21 -20 -19 -76
3 -96 30 -27 62 -20 145 33 l78 50 106 -24 c73 -17 113 -22 129 -16 12 5 53
47 91 94 l68 85 75 7 c41 3 89 12 107 20 42 17 53 56 26 92 -23 31 -66 36
-197 21z"/>
<path d="M1009 1081 c-20 -16 -24 -30 -27 -95 -4 -64 -7 -76 -22 -76 -24 0
-50 -32 -50 -61 0 -33 27 -69 51 -69 18 0 19 -9 19 -224 l0 -223 -29 -6 c-60
-12 -62 -107 -2 -128 28 -10 29 -13 33 -86 4 -84 17 -103 73 -103 50 0 65 25
65 108 l0 72 35 0 35 0 0 -72 c0 -40 4 -78 8 -85 20 -32 94 -32 114 0 4 7 8
45 8 85 l0 72 35 0 35 0 0 -73 c0 -90 17 -113 82 -108 36 2 48 29 48 107 l0
74 35 0 35 0 0 -73 c0 -84 17 -110 71 -110 48 0 63 23 67 108 l4 75 29 0 29 0
0 -68 c0 -87 16 -112 70 -112 54 0 70 25 70 112 l0 68 30 0 30 0 0 -69 c0 -84
19 -114 70 -114 51 0 70 30 70 114 l0 69 29 0 29 0 4 -75 c4 -85 19 -108 67
-108 54 0 71 26 71 110 l0 73 29 0 29 0 4 -75 c4 -85 17 -106 67 -107 54 -2
71 24 71 109 l0 73 35 0 35 0 0 -73 c0 -84 15 -107 67 -107 48 0 63 26 63 107
l0 70 42 6 c105 14 103 137 -2 137 l-40 0 0 225 0 225 38 0 c52 0 77 28 73 82
-2 29 -31 48 -72 48 l-39 0 0 79 c0 71 -2 82 -22 95 -28 20 -58 20 -86 0 -20
-13 -22 -24 -22 -95 l0 -79 -35 0 -35 0 0 73 c0 43 -5 80 -12 90 -21 27 -70
32 -98 9 -21 -17 -25 -30 -28 -96 l-4 -76 -29 0 -29 0 0 73 c0 78 -4 88 -37
106 -33 17 -51 14 -78 -14 -22 -21 -25 -33 -25 -95 l0 -70 -30 0 -30 0 0 70
c0 62 -3 74 -25 95 -13 14 -34 25 -45 25 -11 0 -32 -11 -45 -25 -22 -21 -25
-33 -25 -95 l0 -70 -30 0 -30 0 0 70 c0 62 -3 74 -25 95 -29 30 -68 32 -95 5
-16 -16 -20 -33 -20 -95 l0 -75 -29 0 -29 0 -4 76 c-3 66 -7 79 -28 96 -28 23
-77 18 -97 -9 -8 -10 -13 -47 -13 -90 l0 -73 -35 0 -35 0 0 79 c0 71 -2 82
-22 95 -31 22 -64 20 -88 -4 -16 -16 -20 -33 -20 -95 l0 -75 -35 0 -35 0 0 79
c0 71 -2 82 -22 95 -12 9 -32 16 -43 16 -11 0 -31 -7 -43 -16 -20 -13 -22 -24
-22 -95 l0 -79 -35 0 -35 0 0 75 c0 62 -4 79 -20 95 -25 25 -61 26 -91 1z
m181 -526 l0 -225 -35 0 -35 0 0 225 0 225 35 0 35 0 0 -225z m200 0 l0 -225
-35 0 -35 0 0 225 0 225 35 0 35 0 0 -225z m200 0 l0 -225 -35 0 -35 0 0 225
0 225 35 0 35 0 0 -225z m200 0 l0 -225 -30 0 -30 0 0 225 0 225 30 0 30 0 0
-225z m200 0 l0 -225 -30 0 -30 0 0 225 0 225 30 0 30 0 0 -225z m200 0 l0
-225 -30 0 -30 0 0 225 0 225 30 0 30 0 0 -225z m200 0 l0 -225 -30 0 -30 0 0
225 0 225 30 0 30 0 0 -225z m210 0 l0 -225 -35 0 -35 0 0 225 0 225 35 0 35
0 0 -225z"/>
</g>
</svg>
