<?xml version="1.0" standalone="no"?>
<!DOCTYPE svg PUBLIC "-//W3C//DTD SVG 20010904//EN"
 "http://www.w3.org/TR/2001/REC-SVG-20010904/DTD/svg10.dtd">
<svg version="1.0" xmlns="http://www.w3.org/2000/svg"
 width="468pt" height="410pt" viewBox="0 0 468 410"
 preserveAspectRatio="xMidYMid meet">
<metadata>
Created by potrace 1.8, written by Peter Selinger 2001-2007
</metadata>
<g transform="translate(0,410) scale(0.157576,-0.157576)"
fill="#000000" stroke="none">
<path d="M834 2567 c-89 -43 -154 -146 -154 -243 0 -62 38 -140 90 -187 107
-96 253 -93 357 8 52 51 83 120 83 185 0 86 -57 180 -137 227 -66 39 -169 43
-239 10z"/>
<path d="M700 1997 c-55 -17 -133 -102 -150 -162 -10 -37 -50 -98 -152 -235
-117 -156 -138 -190 -138 -220 0 -20 7 -46 16 -58 8 -12 71 -67 140 -123 l124
-100 0 -118 c0 -113 2 -122 30 -176 17 -32 29 -59 27 -61 -2 -2 -90 55 -195
127 -117 79 -206 132 -226 136 -42 7 -118 -26 -141 -60 -44 -68 -38 -142 18
-196 42 -40 450 -319 495 -338 46 -19 83 -10 166 43 38 24 73 44 77 44 5 0 21
-42 37 -92 l28 -93 -205 -5 c-228 -6 -249 -11 -288 -69 -34 -50 -39 -95 -17
-149 11 -25 32 -54 47 -66 28 -21 36 -21 375 -18 383 4 394 6 432 67 11 18 20
46 20 63 0 17 -34 139 -76 272 -55 172 -73 245 -66 252 8 8 26 6 64 -5 29 -9
171 -46 316 -83 l262 -67 0 -44 c0 -142 144 -181 219 -60 20 33 25 35 84 39
34 2 64 3 66 1 2 -2 18 -79 36 -173 35 -186 49 -215 109 -225 39 -6 588 -45
639 -45 70 0 107 67 77 144 -19 50 -39 55 -330 76 -151 11 -277 24 -280 28 -8
9 -80 398 -80 431 0 73 -59 165 -129 200 -60 31 -858 234 -921 234 -50 1 -81
-9 -162 -51 -5 -2 -8 164 -8 369 0 262 -4 384 -12 413 -16 55 -99 138 -154
154 -50 14 -126 14 -174 -1z m-165 -625 c-3 -3 -13 2 -22 11 -16 15 -15 18 3
38 l19 21 3 -32 c2 -17 1 -35 -3 -38z"/>
<path d="M2449 1096 c-96 -34 -159 -125 -159 -228 0 -97 47 -175 132 -219 180
-93 389 69 348 268 -30 141 -185 228 -321 179z"/>
</g>
</svg>
