<?xml version="1.0" standalone="no"?>
<!DOCTYPE svg PUBLIC "-//W3C//DTD SVG 20010904//EN"
 "http://www.w3.org/TR/2001/REC-SVG-20010904/DTD/svg10.dtd">
<svg version="1.0" xmlns="http://www.w3.org/2000/svg"
 width="468pt" height="514pt" viewBox="0 0 468 514"
 preserveAspectRatio="xMidYMid meet">
<metadata>
Created by potrace 1.8, written by Peter Selinger 2001-2007
</metadata>
<g transform="translate(0,514) scale(0.180695,-0.180695)"
fill="#000000" stroke="none">
<path d="M32 2824 c-31 -22 -31 -88 0 -107 13 -8 206 -70 430 -138 l408 -124
14 -40 c8 -22 41 -118 74 -212 l61 -173 -133 0 c-119 0 -134 -2 -154 -20 -12
-12 -22 -32 -22 -46 0 -16 117 -229 295 -537 l295 -511 0 -336 0 -336 -277
-52 c-177 -34 -284 -59 -295 -69 -22 -20 -23 -61 -2 -91 l15 -22 634 0 634 0
15 22 c21 30 20 71 -2 91 -11 10 -119 35 -300 69 l-282 53 0 327 0 327 300
520 c175 302 300 530 300 544 0 16 -11 35 -30 51 l-31 25 60 120 60 120 216
-102 c187 -87 219 -99 243 -91 16 6 28 18 30 31 2 14 -52 101 -169 270 -94
136 -177 254 -185 262 -21 22 -630 -35 -656 -61 -10 -10 -18 -24 -18 -31 0
-28 13 -35 378 -203 l72 -34 -72 -145 -73 -145 -351 0 -351 0 -83 238 c-94
270 -103 289 -133 302 -32 14 -867 270 -881 270 -6 0 -22 -7 -34 -16z m1948
-314 c-59 -44 -62 -44 -140 -5 l-45 23 90 7 c50 3 95 8 100 10 44 15 42 0 -5
-35z m190 -75 l0 -85 -71 36 c-41 20 -68 39 -63 44 17 17 119 89 127 90 4 0 7
-38 7 -85z m164 -96 c31 -44 56 -82 56 -84 0 -2 -27 8 -60 22 l-60 26 0 59 c0
32 2 58 4 58 3 0 30 -36 60 -81z m-1246 -506 c11 -32 68 -194 126 -361 58
-167 106 -306 106 -310 0 -3 -94 158 -210 358 -116 200 -210 365 -210 367 0 1
38 3 84 3 l84 0 20 -57z m748 30 c-14 -29 -376 -656 -380 -660 -1 -2 -42 111
-91 250 -48 138 -103 294 -121 345 l-33 92 320 0 320 0 -15 -27z"/>
</g>
</svg>
