<?xml version="1.0" standalone="no"?>
<!DOCTYPE svg PUBLIC "-//W3C//DTD SVG 20010904//EN"
 "http://www.w3.org/TR/2001/REC-SVG-20010904/DTD/svg10.dtd">
<svg version="1.0" xmlns="http://www.w3.org/2000/svg"
 width="468pt" height="407pt" viewBox="0 0 468 407"
 preserveAspectRatio="xMidYMid meet">
<metadata>
Created by potrace 1.8, written by Peter Selinger 2001-2007
</metadata>
<g transform="translate(0,407) scale(0.157576,-0.157576)"
fill="#000000" stroke="none">
<path d="M2641 2566 c-115 -13 -101 -4 -189 -124 l-44 -59 -76 19 c-140 34
-127 36 -235 -32 -54 -34 -104 -72 -112 -84 -32 -48 25 -118 77 -96 13 5 54
29 91 53 l69 44 101 -24 c55 -13 112 -21 127 -18 17 4 46 32 85 82 33 42 65
82 72 88 7 7 50 16 97 20 101 8 129 24 129 75 0 22 -7 39 -22 52 -26 20 -25
20 -170 4z"/>
<path d="M746 2165 c-23 -12 -68 -15 -243 -15 -220 0 -253 -5 -253 -39 0 -16
-10 -19 -74 -23 -95 -4 -126 -28 -126 -96 0 -29 -7 -53 -20 -69 -19 -24 -20
-41 -20 -323 0 -282 1 -299 20 -323 16 -20 20 -40 20 -100 0 -70 2 -77 26 -96
21 -16 41 -21 90 -21 36 0 64 -4 64 -10 0 -5 9 -19 20 -30 16 -16 33 -20 80
-20 l60 0 0 -259 0 -259 -70 -42 c-80 -47 -121 -96 -140 -167 -6 -26 -14 -54
-16 -62 -3 -10 -12 -6 -31 13 -36 36 -91 69 -103 61 -17 -11 -11 -26 24 -65
34 -38 40 -58 49 -180 1 -24 7 -36 20 -38 13 -3 17 4 18 30 l1 33 9 -33 c7
-23 15 -32 27 -30 14 3 18 20 24 103 9 121 22 181 50 221 12 17 17 21 13 9
-19 -57 -25 -121 -23 -220 2 -90 6 -110 18 -110 12 0 16 23 21 120 7 132 14
175 36 220 17 34 52 75 65 75 14 0 9 -107 -6 -119 -24 -20 -54 -103 -69 -191
-16 -88 -14 -110 9 -110 15 0 17 9 34 108 20 113 28 113 26 2 l-1 -105 100 -3
c126 -4 125 -5 125 140 0 59 4 108 9 108 18 0 31 -65 31 -152 0 -71 3 -90 15
-95 25 -9 30 3 35 85 l5 77 16 -80 c13 -67 18 -80 34 -80 18 0 21 9 26 90 7
103 20 157 49 200 24 36 24 34 5 -30 -9 -27 -18 -96 -22 -152 -5 -92 -4 -103
12 -109 10 -4 20 -1 25 6 7 11 12 11 23 2 16 -14 31 -2 40 33 4 16 5 15 6 -6
1 -31 8 -39 27 -32 10 4 14 23 14 67 0 80 12 119 50 162 24 28 29 39 19 50
-13 16 -28 10 -85 -40 -41 -35 -59 -78 -78 -186 -3 -14 -3 21 -2 77 4 133 29
189 117 257 49 39 58 50 49 61 -10 13 -26 8 -101 -31 -104 -54 -143 -95 -166
-174 l-16 -55 -54 52 c-30 29 -61 53 -69 53 -12 0 -14 34 -14 193 l0 192 153
186 c141 172 155 185 172 173 13 -10 53 -14 137 -14 l118 0 0 -465 c0 -339 3
-471 12 -490 7 -15 30 -36 52 -48 41 -22 44 -22 756 -24 654 -2 719 -1 764 15
29 10 58 29 70 45 20 28 21 40 24 498 l3 469 23 0 c13 0 35 9 50 21 34 27 36
82 4 103 -13 8 -303 150 -646 316 -453 219 -629 300 -646 296 -12 -3 -104 -75
-204 -161 -100 -85 -184 -155 -187 -155 -3 0 -5 70 -5 155 0 142 -2 157 -20
175 -11 11 -33 20 -50 20 l-30 0 0 63 c0 89 -15 107 -90 107 l-58 0 -4 80 c-5
111 -18 124 -136 128 -64 2 -95 -1 -116 -13z m-416 -570 c0 -16 -6 -25 -15
-25 -9 0 -15 9 -15 25 0 16 6 25 15 25 9 0 15 -9 15 -25z m372 -572 c-17 -21
-46 -56 -66 -78 l-35 -40 -1 78 0 77 66 0 66 0 -30 -37z m2058 -448 c0 -439
-1 -455 -19 -465 -13 -6 -183 -10 -485 -10 l-466 0 0 405 0 406 -26 25 -25 26
-165 -3 c-160 -4 -166 -5 -185 -28 -18 -22 -19 -44 -19 -427 l0 -404 -26 0
c-14 0 -34 5 -45 10 -18 10 -19 26 -19 465 l0 455 740 0 740 0 0 -455z m-1022
318 c5 -10 7 -87 4 -170 l-5 -153 -34 0 c-22 0 -36 -6 -40 -16 -8 -21 15 -35
50 -31 l27 4 0 -214 0 -213 -160 0 -160 0 2 343 c1 188 3 311 5 272 3 -51 8
-73 20 -82 21 -16 235 -18 264 -3 17 10 19 22 19 128 0 79 -4 122 -12 130 -18
18 -262 17 -277 -1 -6 -8 -15 -31 -20 -53 l-9 -39 -1 38 c-2 76 1 77 169 77
132 0 150 -2 158 -17z m-178 -73 l0 -40 -45 0 -45 0 0 40 0 40 45 0 45 0 0
-40z m130 0 l0 -40 -45 0 -45 0 0 40 0 40 45 0 45 0 0 -40z m-130 -120 c0 -43
-3 -45 -59 -34 -27 6 -31 10 -31 40 0 34 1 34 45 34 l45 0 0 -40z m128 3 c-3
-37 -4 -38 -45 -41 l-43 -3 0 40 0 41 46 0 45 0 -3 -37z"/>
<path d="M2141 969 c-18 -4 -38 -12 -44 -18 -17 -17 -22 -324 -7 -361 6 -16
21 -31 33 -34 12 -3 124 -6 248 -6 202 0 229 2 248 18 19 16 21 28 22 190 2
159 0 175 -17 192 -17 16 -42 19 -234 22 -118 2 -230 1 -249 -3z m199 -114 l0
-75 -105 0 -105 0 0 69 c0 81 -5 78 123 80 l87 1 0 -75z m258 -2 l3 -73 -106
0 -105 0 0 75 0 76 103 -3 102 -3 3 -72z m-258 -183 l0 -70 -105 0 -105 0 0
70 0 70 105 0 105 0 0 -70z m260 1 c0 -63 -2 -69 -22 -75 -30 -8 -103 -7 -150
0 l-38 7 0 68 0 69 105 0 105 0 0 -69z"/>
</g>
</svg>
