<?xml version="1.0" standalone="no"?>
<!DOCTYPE svg PUBLIC "-//W3C//DTD SVG 20010904//EN"
 "http://www.w3.org/TR/2001/REC-SVG-20010904/DTD/svg10.dtd">
<svg version="1.0" xmlns="http://www.w3.org/2000/svg"
 width="468pt" height="366pt" viewBox="0 0 468 366"
 preserveAspectRatio="xMidYMid meet">
<metadata>
Created by potrace 1.8, written by Peter Selinger 2001-2007
</metadata>
<g transform="translate(0,366) scale(0.157576,-0.157576)"
fill="#000000" stroke="none">
<path d="M62 2308 c-17 -17 -15 -64 8 -152 26 -101 69 -182 142 -261 150 -163
353 -246 648 -264 160 -10 221 -25 323 -79 144 -75 234 -190 261 -334 l7 -37
-643 -3 c-709 -3 -680 -1 -744 -67 -17 -17 -36 -50 -43 -71 -15 -52 -16 -816
0 -873 14 -54 80 -122 137 -143 39 -15 93 -18 334 -22 172 -2 313 0 353 7 90
14 153 46 190 98 l30 42 425 0 425 1 20 -36 c26 -48 101 -90 187 -104 97 -17
639 -8 693 11 22 8 58 32 81 54 71 68 74 89 74 530 0 418 -4 457 -57 507 -67
64 -46 63 -738 68 l-630 5 -7 50 c-21 149 -129 299 -281 389 -109 64 -230 96
-402 106 -223 13 -361 58 -500 163 -108 81 -189 217 -201 336 -4 34 -13 69
-21 77 -18 17 -55 18 -71 2z m2748 -1290 c19 -21 20 -33 20 -413 0 -433 1
-423 -66 -451 -42 -17 -596 -20 -657 -3 -39 10 -77 56 -77 91 0 9 -10 24 -22
32 -20 14 -86 16 -524 16 -560 0 -510 7 -549 -74 -36 -74 -45 -76 -407 -76
-314 0 -317 0 -343 23 -14 12 -30 40 -35 62 -5 22 -10 199 -10 393 0 292 3
358 15 382 8 15 20 30 27 33 7 3 597 6 1310 6 l1297 1 21 -22z"/>
<path d="M555 903 c-56 -15 -95 -66 -95 -126 0 -34 -1 -35 -48 -41 -83 -11
-122 -56 -122 -143 0 -89 58 -153 137 -153 31 0 33 -2 33 -32 0 -78 63 -138
143 -138 82 0 141 48 152 124 7 43 7 43 61 55 161 36 149 265 -14 287 l-52 7
0 42 c0 89 -91 144 -195 118z m84 -102 c9 -6 16 -33 19 -73 2 -35 9 -69 14
-75 6 -8 35 -13 72 -13 68 0 86 -10 86 -50 0 -39 -18 -50 -85 -50 -34 0 -66
-5 -73 -12 -7 -7 -12 -36 -12 -66 0 -68 -13 -92 -48 -92 -41 0 -52 17 -52 79
0 73 -17 91 -86 91 -72 0 -84 6 -84 44 0 45 16 56 79 56 73 0 91 17 91 86 0
29 3 59 6 68 7 17 50 21 73 7z"/>
<path d="M2062 833 c-27 -5 -62 -57 -62 -91 0 -28 17 -62 39 -79 9 -7 46 -13
83 -13 60 0 69 3 87 26 30 38 28 103 -2 133 -24 22 -97 35 -145 24z"/>
<path d="M2424 826 c-36 -16 -60 -71 -49 -108 16 -52 44 -68 115 -68 69 0 96
15 114 64 9 27 -12 94 -35 106 -34 18 -111 22 -145 6z"/>
<path d="M1236 565 c-21 -22 -20 -41 4 -65 29 -29 159 -29 185 0 15 16 17 26
9 48 -9 26 -12 27 -96 30 -68 2 -89 -1 -102 -13z"/>
<path d="M1542 568 c-17 -17 -15 -54 4 -72 11 -12 36 -16 90 -16 61 0 78 4 94
20 24 24 24 29 4 58 -14 20 -24 22 -98 22 -50 0 -87 -5 -94 -12z"/>
<path d="M2105 505 c-19 -18 -25 -35 -25 -68 0 -62 31 -89 108 -95 50 -4 62
-1 86 19 19 17 29 37 33 66 5 37 2 45 -25 73 -27 27 -37 30 -92 30 -51 0 -65
-4 -85 -25z"/>
<path d="M2492 523 c-19 -7 -42 -58 -42 -92 0 -17 10 -42 23 -57 20 -23 34
-28 85 -32 58 -4 63 -3 92 26 40 40 42 101 5 137 -21 22 -33 25 -87 24 -35 0
-69 -3 -76 -6z"/>
</g>
</svg>
