<?xml version="1.0" standalone="no"?>
<!DOCTYPE svg PUBLIC "-//W3C//DTD SVG 20010904//EN"
 "http://www.w3.org/TR/2001/REC-SVG-20010904/DTD/svg10.dtd">
<svg version="1.0" xmlns="http://www.w3.org/2000/svg"
 width="468pt" height="421pt" viewBox="0 0 468 421"
 preserveAspectRatio="xMidYMid meet">
<metadata>
Created by potrace 1.8, written by Peter Selinger 2001-2007
</metadata>
<g transform="translate(0,421) scale(0.158108,-0.158108)"
fill="#000000" stroke="none">
<path d="M861 2644 c-27 -19 -61 -94 -61 -133 0 -35 28 -61 67 -61 36 0 52 18
81 87 24 57 19 93 -17 112 -27 15 -43 14 -70 -5z"/>
<path d="M1073 2548 c-123 -122 -134 -145 -90 -186 42 -40 62 -30 180 86 88
88 110 114 110 137 0 31 -42 75 -70 75 -9 0 -67 -50 -130 -112z"/>
<path d="M384 2406 c-27 -13 -67 -43 -87 -67 -55 -63 -67 -117 -67 -289 0
-190 13 -236 83 -305 71 -69 98 -75 318 -75 206 0 236 8 301 72 66 67 73 92
76 295 3 169 2 185 -19 233 -26 61 -100 131 -157 148 -24 7 -109 12 -218 12
-167 0 -182 -2 -230 -24z m427 -129 c62 -41 70 -72 67 -242 -3 -166 -10 -187
-71 -219 -27 -15 -56 -17 -200 -14 l-169 3 -34 37 -34 38 0 168 c0 184 3 196
64 233 27 16 51 19 187 19 146 0 158 -2 190 -23z"/>
<path d="M1175 2338 c-38 -16 -78 -37 -87 -46 -38 -33 -8 -112 43 -112 33 0
189 71 199 91 25 46 -7 100 -57 98 -16 0 -59 -14 -98 -31z"/>
<path d="M1102 2104 c-16 -11 -22 -25 -22 -54 0 -68 7 -70 303 -70 l258 0 24
25 c14 13 25 34 25 45 0 12 -11 32 -25 45 l-24 25 -258 0 c-218 0 -262 -2
-281 -16z"/>
<path d="M90 1889 c-60 -27 -80 -47 -80 -79 0 -29 36 -70 62 -70 23 0 109 38
131 57 38 35 6 114 -45 112 -13 0 -43 -9 -68 -20z"/>
<path d="M1115 1890 c-48 -18 -63 -77 -29 -110 11 -10 56 -32 101 -51 70 -28
86 -31 108 -21 34 16 49 56 33 90 -12 24 -43 40 -173 92 -11 4 -29 4 -40 0z"/>
<path d="M2263 1749 c-18 -11 -35 -28 -38 -37 -3 -10 -24 -24 -47 -32 -65 -24
-83 -56 -83 -154 0 -135 36 -166 194 -166 73 0 97 -4 123 -20 30 -18 51 -20
239 -20 198 0 207 1 240 23 49 32 69 79 69 160 0 127 -41 177 -146 177 -46 0
-64 4 -64 13 0 7 -14 26 -31 43 l-30 29 -197 3 c-185 2 -199 1 -229 -19z"/>
<path d="M127 1621 c-96 -94 -110 -113 -110 -141 0 -37 31 -70 67 -70 14 0 60
39 134 113 86 87 112 118 112 139 0 30 -41 68 -73 68 -12 0 -63 -42 -130 -109z"/>
<path d="M972 1713 c-12 -10 -24 -31 -28 -46 -6 -26 7 -42 177 -214 101 -101
194 -189 207 -194 41 -16 92 22 92 69 0 25 -380 402 -406 402 -12 0 -31 -8
-42 -17z"/>
<path d="M394 1598 c-20 -22 -84 -165 -84 -188 0 -20 49 -60 73 -60 34 0 60
34 98 127 l33 83 -21 27 c-27 37 -71 42 -99 11z"/>
<path d="M791 1594 c-12 -15 -21 -30 -21 -35 0 -22 64 -167 83 -186 34 -37 89
-25 107 23 8 20 3 41 -22 102 -17 42 -40 87 -51 100 -28 31 -70 29 -96 -4z"/>
<path d="M590 1590 c-19 -19 -20 -33 -20 -285 0 -252 1 -266 20 -285 27 -27
66 -25 95 5 l25 24 0 254 c0 242 -1 256 -21 281 -25 32 -70 35 -99 6z"/>
<path d="M1570 1182 c-45 -24 -80 -90 -80 -153 0 -45 -1 -48 -32 -54 -45 -10
-75 -30 -98 -68 -17 -26 -20 -51 -20 -138 0 -94 3 -110 23 -140 40 -61 71 -69
254 -69 145 0 166 -2 196 -20 33 -20 47 -20 303 -16 148 2 313 8 368 13 l98 9
39 42 39 41 0 111 c0 126 -11 159 -63 190 -21 13 -50 20 -84 20 -50 0 -53 1
-53 25 0 42 -29 85 -65 101 -22 9 -72 14 -142 14 l-108 0 -15 32 c-8 18 -28
41 -43 52 -26 20 -44 21 -255 24 -205 2 -230 1 -262 -16z"/>
<path d="M930 564 c-69 -7 -135 -16 -148 -19 -13 -3 -59 -52 -112 -119 l-90
-113 -117 28 c-65 16 -131 28 -146 29 -26 0 -241 -126 -294 -173 -43 -39 -16
-117 40 -117 12 0 77 34 145 76 l122 76 137 -32 c97 -23 144 -30 161 -24 13 5
65 61 116 124 l91 115 138 15 c154 17 171 26 171 86 0 42 -23 65 -63 63 -14
-1 -82 -8 -151 -15z"/>
<path d="M1523 315 c-15 -7 -54 -36 -86 -65 l-57 -52 -84 36 c-54 23 -90 34
-102 29 -23 -8 -184 -131 -201 -153 -31 -39 2 -100 55 -100 19 0 53 19 101 54
l73 55 81 -35 c48 -21 90 -33 103 -30 12 3 46 27 75 53 30 26 62 53 71 61 15
13 29 12 108 -8 84 -21 92 -21 115 -6 54 36 42 108 -22 125 -149 40 -201 48
-230 36z"/>
</g>
</svg>
