<?xml version="1.0" standalone="no"?>
<!DOCTYPE svg PUBLIC "-//W3C//DTD SVG 20010904//EN"
 "http://www.w3.org/TR/2001/REC-SVG-20010904/DTD/svg10.dtd">
<svg version="1.0" xmlns="http://www.w3.org/2000/svg"
 width="468pt" height="376pt" viewBox="0 0 468 376"
 preserveAspectRatio="xMidYMid meet">
<metadata>
Created by potrace 1.8, written by Peter Selinger 2001-2007
</metadata>
<g transform="translate(0,376) scale(0.158644,-0.158644)"
fill="#000000" stroke="none">
<path d="M362 2348 c-15 -15 -16 -50 0 -66 7 -7 38 -12 70 -12 l58 0 0 -155
c0 -142 -1 -155 -18 -155 -10 0 -72 7 -137 16 -157 21 -208 16 -247 -23 -28
-28 -31 -39 -54 -204 -31 -224 -31 -259 0 -296 14 -16 43 -35 65 -41 41 -13
57 -39 34 -57 -35 -28 10 -37 443 -95 271 -36 443 -55 449 -49 6 6 6 16 -1 27
-16 25 -6 42 24 42 83 0 137 41 149 113 l6 39 51 -5 c63 -6 113 12 121 45 13
51 31 212 27 235 -6 34 -48 63 -91 63 -50 0 -81 10 -81 25 0 26 -68 73 -112
79 -308 40 -514 66 -520 66 -5 0 -8 74 -8 165 l0 165 54 0 c61 0 79 14 74 57
l-3 28 -170 3 c-124 2 -174 -1 -183 -10z m38 -474 c52 -8 235 -34 405 -57 171
-23 316 -46 323 -50 6 -5 12 -23 12 -41 0 -65 -42 -331 -53 -339 -7 -4 -34 -6
-62 -4 -85 8 -898 118 -907 123 -13 8 -10 70 12 229 11 81 20 149 20 151 0 10
165 2 250 -12z m907 -181 c-4 -21 -11 -80 -18 -130 -11 -84 -14 -93 -33 -93
-47 0 -49 9 -32 131 9 62 16 117 16 121 0 4 16 8 36 8 l37 0 -6 -37z m43 -107
c-7 -53 -17 -99 -22 -102 -5 -3 -6 5 -4 18 5 21 26 172 26 185 0 4 3 4 6 1 3
-4 0 -50 -6 -102z m-751 -244 c172 -24 195 -29 201 -47 8 -20 5 -20 -219 9
-124 16 -227 30 -229 31 -1 1 0 10 4 19 8 20 8 20 243 -12z"/>
<path d="M194 1849 c-15 -25 31 -37 231 -63 116 -14 216 -26 223 -26 6 0 12 9
12 19 0 14 -9 21 -37 25 -31 5 -413 56 -420 56 -1 0 -5 -5 -9 -11z"/>
<path d="M186 1782 c-14 -22 27 -33 229 -60 175 -24 223 -27 233 -18 25 24
-10 33 -214 60 -218 28 -240 30 -248 18z"/>
<path d="M180 1711 c0 -11 8 -22 18 -25 49 -14 434 -58 442 -50 24 24 -15 35
-191 59 -101 13 -203 27 -226 30 -38 6 -43 4 -43 -14z"/>
<path d="M2711 2347 c-13 -6 -34 -25 -45 -40 -21 -28 -21 -30 -24 -1100 -2
-715 0 -1084 7 -1108 19 -63 51 -83 139 -87 68 -3 80 -1 106 19 59 46 56 -6
56 1159 0 1182 4 1110 -63 1150 -37 23 -138 27 -176 7z m134 -1163 l0 -1069
-27 -9 c-18 -7 -35 -6 -53 2 l-25 12 0 1059 c0 835 3 1061 13 1069 17 14 49
19 72 12 20 -7 20 -16 20 -1076z"/>
<path d="M1908 1866 c-197 -86 -348 -157 -348 -164 0 -7 6 -15 14 -18 7 -3
168 62 357 144 322 140 377 170 337 184 -7 3 -169 -63 -360 -146z"/>
<path d="M1544 1449 c-8 -14 -24 1 296 -274 146 -125 275 -237 288 -248 20
-19 24 -19 38 -5 14 14 -13 40 -287 277 -166 143 -308 261 -315 261 -7 0 -16
-5 -20 -11z"/>
</g>
</svg>
