<?xml version="1.0" standalone="no"?>
<!DOCTYPE svg PUBLIC "-//W3C//DTD SVG 20010904//EN"
 "http://www.w3.org/TR/2001/REC-SVG-20010904/DTD/svg10.dtd">
<svg version="1.0" xmlns="http://www.w3.org/2000/svg"
 width="468pt" height="348pt" viewBox="0 0 468 348"
 preserveAspectRatio="xMidYMid meet">
<metadata>
Created by potrace 1.8, written by Peter Selinger 2001-2007
</metadata>
<g transform="translate(0,348) scale(0.158108,-0.158108)"
fill="#000000" stroke="none">
<path d="M130 2174 c-45 -20 -77 -50 -101 -96 -18 -36 -19 -73 -19 -981 l0
-944 23 -44 c16 -29 40 -54 72 -74 l48 -30 1321 0 1321 0 48 24 c55 26 92 75
104 136 5 22 6 457 3 967 l-5 926 -30 43 c-16 23 -48 52 -70 63 -40 21 -43 21
-1360 23 -1162 2 -1324 1 -1355 -13z m1437 -124 l1213 0 17 -27 c14 -21 19
-53 21 -150 l4 -123 -436 0 c-284 0 -436 3 -436 10 0 6 -35 10 -85 10 -50 0
-85 -4 -85 -10 0 -6 -41 -10 -104 -10 -59 0 -108 4 -111 10 -3 6 -42 10 -85
10 -43 0 -82 -4 -85 -10 -3 -6 -50 -10 -106 -10 -59 0 -99 4 -99 10 0 6 -35
10 -85 10 -50 0 -85 -4 -85 -10 0 -7 -153 -10 -440 -10 l-440 0 0 120 c0 69 5
130 12 145 15 33 57 46 138 40 36 -3 611 -5 1277 -5z m1251 -1111 l-3 -761
-24 -19 c-23 -18 -58 -19 -1306 -19 -706 0 -1291 3 -1300 6 -45 18 -45 19 -45
809 l0 745 1340 0 1340 0 -2 -761z"/>
<path d="M1053 2010 c-35 -14 -46 -46 -38 -114 3 -33 11 -66 17 -73 8 -10 108
-13 447 -13 240 0 442 4 450 9 17 11 33 96 25 138 -12 64 -5 63 -464 62 -228
0 -425 -4 -437 -9z m855 -97 l-3 -58 -420 0 -420 0 -3 58 -3 57 426 0 426 0
-3 -57z"/>
<path d="M755 1990 c-14 -23 13 -31 91 -28 62 2 79 6 79 18 0 12 -17 16 -82
18 -52 2 -84 -1 -88 -8z"/>
<path d="M2055 1990 c-14 -22 10 -30 86 -30 72 0 79 2 79 20 0 18 -7 20 -79
20 -44 0 -83 -4 -86 -10z"/>
<path d="M755 1920 c-13 -22 10 -30 85 -30 58 0 79 4 83 14 3 8 3 17 0 20 -11
10 -161 7 -168 -4z"/>
<path d="M2052 1913 c3 -15 16 -18 82 -21 55 -2 82 1 87 10 14 23 -2 28 -87
28 -76 0 -85 -2 -82 -17z"/>
<path d="M761 1861 c-8 -5 -11 -16 -8 -25 5 -13 22 -16 80 -16 77 0 106 12 86
37 -13 15 -135 18 -158 4z"/>
<path d="M2061 1861 c-8 -5 -11 -16 -8 -25 5 -13 22 -16 80 -16 77 0 106 12
86 37 -13 15 -135 18 -158 4z"/>
<path d="M644 1585 c-17 -26 -13 -67 8 -92 8 -10 183 -13 824 -13 710 0 814 2
828 15 23 24 28 52 14 82 l-13 28 -822 3 -822 2 -17 -25z"/>
<path d="M535 1395 c-5 -2 -23 -6 -38 -9 -56 -13 -57 -25 -57 -575 0 -294 4
-510 10 -525 22 -58 -20 -56 1040 -56 l971 0 24 24 c16 16 25 40 30 77 3 30 5
270 3 535 -3 529 0 505 -67 524 -33 9 -1889 14 -1916 5z m1923 -57 c9 -9 12
-139 12 -523 0 -280 -4 -515 -8 -522 -6 -9 -228 -13 -972 -13 -531 -1 -973 2
-982 5 -17 7 -18 41 -18 524 0 389 3 520 12 529 17 17 1939 17 1956 0z"/>
<path d="M1440 1290 c-8 -16 -4 -31 20 -76 48 -91 42 -159 -26 -260 -40 -61
-66 -154 -58 -204 9 -57 34 -118 51 -124 9 -4 27 1 40 10 21 13 24 21 19 47
-23 119 -22 124 68 280 53 90 46 223 -15 307 -23 31 -36 40 -59 40 -19 0 -33
-7 -40 -20z"/>
<path d="M1186 1224 c-21 -20 -21 -19 11 -73 42 -71 38 -130 -14 -217 -56 -92
-70 -149 -54 -220 16 -68 39 -99 69 -90 34 11 45 41 31 83 -17 52 -6 102 39
179 49 83 66 142 57 197 -21 119 -90 190 -139 141z"/>
<path d="M1692 1228 c-17 -17 -15 -31 13 -84 40 -75 35 -123 -22 -219 -46 -76
-48 -83 -48 -155 0 -118 31 -168 82 -134 23 14 24 20 17 62 -11 66 -7 100 15
141 79 148 81 154 81 206 0 97 -50 195 -99 195 -15 0 -32 -5 -39 -12z"/>
<path d="M783 585 c-54 -23 -53 -74 4 -188 40 -80 10 -77 695 -77 706 0 655
-7 701 103 35 85 37 121 8 150 l-22 22 -677 2 c-565 2 -682 0 -709 -12z m1312
-122 c-9 -21 -21 -41 -28 -46 -7 -4 -45 -6 -86 -3 -41 3 -305 6 -587 6 l-514
0 -15 36 c-8 20 -15 38 -15 40 0 2 284 4 630 4 l630 0 -15 -37z"/>
</g>
</svg>
