<?xml version="1.0" standalone="no"?>
<!DOCTYPE svg PUBLIC "-//W3C//DTD SVG 20010904//EN"
 "http://www.w3.org/TR/2001/REC-SVG-20010904/DTD/svg10.dtd">
<svg version="1.0" xmlns="http://www.w3.org/2000/svg"
 width="468pt" height="351pt" viewBox="0 0 468 351"
 preserveAspectRatio="xMidYMid meet">
<metadata>
Created by potrace 1.8, written by Peter Selinger 2001-2007
</metadata>
<g transform="translate(0,351) scale(0.158644,-0.158644)"
fill="#000000" stroke="none">
<path d="M1890 2203 c-40 -14 -40 -12 -40 -718 0 -756 -3 -719 65 -719 68 0
65 -32 65 671 l0 633 210 0 210 0 0 -70 0 -70 -84 0 c-69 0 -88 -4 -110 -21
l-26 -20 0 -683 c0 -672 0 -683 20 -701 25 -23 76 -24 98 -1 16 15 17 69 20
651 l2 635 210 0 210 0 0 -109 c0 -102 2 -111 22 -125 12 -9 32 -16 43 -16 11
0 31 7 43 16 21 15 22 21 22 175 0 210 10 199 -185 199 l-145 0 0 119 c0 172
24 161 -344 160 -160 0 -298 -3 -306 -6z"/>
<path d="M20 1280 c-29 -29 -26 -74 7 -99 26 -21 27 -21 865 -19 818 3 840 4
854 22 8 11 14 34 14 52 0 67 47 64 -882 64 -825 0 -838 0 -858 -20z"/>
<path d="M466 999 c-66 -16 -126 -34 -133 -41 -23 -19 -12 -78 18 -101 27 -19
27 -19 146 8 l120 28 97 -33 98 -32 28 20 c28 21 28 21 45 1 23 -25 44 -24
168 5 l104 25 93 -30 c109 -34 117 -35 142 -12 17 15 19 15 38 -2 12 -11 33
-18 53 -17 56 3 269 59 278 73 15 24 10 75 -9 92 -10 10 -31 17 -46 17 -45 0
-260 -52 -277 -67 -14 -11 -18 -11 -28 1 -7 8 -63 31 -125 50 l-113 36 -134
-31 c-74 -17 -141 -37 -150 -45 -15 -13 -17 -13 -22 0 -6 16 -213 87 -249 85
-13 -1 -77 -14 -142 -30z"/>
<path d="M152 718 c-104 -25 -125 -34 -134 -53 -14 -32 -3 -71 27 -91 23 -15
32 -14 142 11 l119 27 98 -30 c99 -31 127 -31 147 1 4 5 16 0 28 -12 27 -27
38 -26 168 4 l108 25 89 -30 c106 -35 117 -36 141 -10 l18 20 20 -21 c23 -24
53 -23 189 6 l87 19 90 -27 c108 -32 118 -33 146 -7 20 18 23 19 35 5 7 -8 26
-15 42 -15 49 0 262 51 281 68 40 35 8 115 -46 115 -49 0 -263 -56 -282 -74
-19 -17 -23 -17 -36 -4 -9 9 -63 31 -121 49 l-106 33 -129 -29 c-70 -16 -138
-36 -150 -43 -18 -12 -23 -12 -33 0 -6 8 -60 30 -120 50 l-109 36 -138 -31
c-76 -17 -144 -36 -151 -42 -9 -8 -17 -7 -30 4 -21 19 -211 78 -244 77 -12 -1
-78 -15 -146 -31z"/>
<path d="M515 459 c-148 -35 -161 -40 -169 -75 -10 -37 21 -78 60 -82 17 -2
76 8 133 21 l104 25 85 -29 c103 -35 119 -36 149 -7 13 12 23 16 23 10 0 -6
11 -19 24 -27 21 -14 33 -13 143 11 l119 26 99 -31 c98 -30 100 -30 125 -12
25 18 26 18 53 -2 l27 -21 122 27 123 28 89 -31 c50 -16 96 -30 103 -30 8 0
25 11 38 24 23 23 24 23 41 5 22 -24 33 -24 160 6 l106 25 101 -31 c79 -24
105 -29 123 -20 28 12 40 54 28 90 -8 22 -25 31 -124 64 l-115 38 -120 -26
c-153 -34 -152 -34 -170 -51 -12 -13 -17 -13 -37 -1 -13 8 -67 29 -121 47
l-98 32 -137 -31 c-75 -18 -143 -38 -151 -46 -12 -12 -16 -11 -30 5 -9 10 -65
33 -124 51 l-108 33 -127 -28 c-70 -16 -136 -34 -148 -41 -17 -11 -24 -11 -35
0 -12 11 -226 87 -239 84 -3 -1 -59 -14 -125 -30z"/>
<path d="M17 122 c-22 -25 -21 -75 1 -95 17 -16 133 -17 1460 -17 l1441 0 15
22 c20 28 20 58 0 86 l-15 22 -1443 0 c-1385 0 -1444 -1 -1459 -18z"/>
</g>
</svg>
