<?xml version="1.0" standalone="no"?>
<svg version="1.0" xmlns="http://www.w3.org/2000/svg"
 width="221" height="296" viewBox="0 0 221 296"
 preserveAspectRatio="xMidYMid meet">

  <!-- Original Grid Symbol -->
  <g transform="translate(0,296) scale(0.1,-0.1)" fill="#000000" stroke="none">
    <path d="M1051 2936 c-6 -7 -48 -139 -93 -292 -44 -154 -81 -280 -82 -281 -1
-1 -163 -47 -360 -102 -197 -55 -367 -108 -377 -117 -33 -29 -15 -100 27 -110
14 -4 150 30 341 83 175 50 319 89 320 88 2 -1 -3 -24 -11 -51 -8 -27 -22
-140 -32 -251 -14 -166 -20 -204 -33 -207 -9 -3 -169 -48 -357 -100 -187 -52
-347 -98 -356 -101 -21 -8 -39 -51 -31 -72 11 -32 36 -53 61 -53 13 0 171 41
349 91 179 50 326 89 329 86 2 -2 -27 -325 -66 -718 -38 -393 -70 -733 -70
-756 0 -32 5 -46 22 -57 31 -22 52 -20 83 6 21 19 27 35 32 90 l6 68 51 19
c28 11 105 40 171 65 66 25 125 46 130 46 14 0 338 -122 353 -133 6 -5 12 -31
12 -58 0 -62 15 -95 53 -110 39 -16 81 4 85 42 2 14 -27 353 -63 753 -37 400
-64 730 -61 733 3 4 145 -33 315 -80 169 -48 319 -87 333 -87 25 0 50 21 61
53 8 21 -10 64 -31 72 -9 3 -169 49 -356 101 -188 53 -342 96 -342 97 -1 1 -9
94 -18 207 -10 113 -24 225 -32 249 -8 25 -12 46 -10 49 3 2 142 -35 311 -82
169 -47 315 -86 325 -86 22 0 60 45 60 70 0 47 -25 58 -395 161 -197 55 -360
101 -361 102 0 1 -42 129 -93 284 -67 206 -97 285 -111 293 -27 14 -76 12 -89
-4z m148 -565 c50 -154 91 -288 91 -299 0 -15 -19 -27 -92 -54 l-91 -34 -83
30 c-75 28 -84 34 -84 56 0 14 32 133 70 265 39 132 75 257 81 278 5 20 11 37
13 37 2 0 45 -126 95 -279z m-245 -442 c-9 -15 -34 -10 -28 5 3 8 12 12 20 9
8 -3 11 -9 8 -14z m350 5 c9 -24 3 -26 -30 -13 -27 10 -27 12 -9 19 29 12 32
12 39 -6z m-93 -93 l104 -39 7 -53 c3 -30 6 -74 7 -99 l1 -46 -113 -42 c-107
-41 -114 -42 -147 -29 -19 8 -68 27 -108 42 -56 21 -72 31 -68 44 2 9 7 55 11
102 l7 86 91 36 c51 19 95 36 98 36 4 1 53 -17 110 -38z m-283 -357 l37 -15
-34 -15 c-46 -20 -51 -18 -51 16 0 35 -1 35 48 14z m420 -22 c4 -37 1 -37 -72
-7 l-31 13 35 15 c50 22 64 17 68 -21z m-53 -116 c69 -26 69 -26 80 -185 l7
-96 -132 -49 c-73 -27 -138 -49 -144 -49 -6 0 -69 21 -139 48 l-128 48 7 56
c3 31 9 90 12 131 l7 74 120 47 120 46 65 -24 c36 -14 92 -35 125 -47z m-387
-411 c28 -11 52 -21 52 -25 0 -8 -130 -53 -136 -47 -10 10 8 98 20 94 6 -2 35
-12 64 -22z m486 9 c3 -9 6 -33 6 -54 l0 -39 -67 25 c-37 14 -71 28 -77 31 -8
6 96 51 120 52 7 1 15 -6 18 -15z m-130 -144 c166 -62 154 -48 158 -189 l3
-73 -155 -59 c-85 -32 -159 -59 -164 -59 -5 0 -79 26 -163 58 l-154 57 6 65
c3 36 8 84 11 107 l6 41 147 56 c80 30 149 54 152 53 4 -1 72 -27 153 -57z
m-375 -405 c83 -31 84 -30 -38 -75 l-81 -29 0 37 c0 20 3 54 6 74 5 30 10 36
23 29 9 -4 49 -21 90 -36z m560 -57 c0 -27 -1 -48 -4 -48 -13 0 -195 73 -191
77 2 3 44 20 93 38 l88 33 6 -26 c4 -15 7 -48 8 -74z"/>
    <path d="M98 1979 c-25 -14 -24 -65 1 -79 11 -5 38 -10 61 -10 57 0 80 14 80
50 0 19 -7 33 -19 40 -25 13 -101 13 -123 -1z"/>
    <path d="M1978 1979 c-25 -14 -24 -65 1 -79 11 -5 38 -10 61 -10 57 0 80 14
80 50 0 19 -7 33 -19 40 -25 13 -101 13 -123 -1z"/>
    <path d="M102 1854 c-24 -17 -29 -53 -10 -72 7 -7 37 -12 68 -12 60 0 80 11
80 46 0 30 -36 54 -80 54 -20 0 -46 -7 -58 -16z"/>
    <path d="M1982 1854 c-24 -17 -29 -53 -10 -72 7 -7 37 -12 68 -12 60 0 80 11
80 46 0 30 -36 54 -80 54 -20 0 -46 -7 -58 -16z"/>
    <path d="M22 1314 c-26 -18 -28 -46 -6 -68 23 -23 116 -22 137 2 22 24 21 38
-3 62 -25 25 -95 27 -128 4z"/>
    <path d="M2062 1314 c-26 -18 -28 -46 -6 -68 23 -23 116 -22 137 2 22 24 21
38 -3 62 -25 25 -95 27 -128 4z"/>
    <path d="M8 1174 c-20 -43 -1 -59 75 -62 59 -3 67 -1 77 19 9 16 9 28 1 45
-10 22 -17 24 -76 24 -61 0 -66 -2 -77 -26z"/>
    <path d="M2048 1174 c-20 -43 -1 -59 75 -62 59 -3 67 -1 77 19 9 16 9 28 1 45
-10 22 -17 24 -76 24 -61 0 -66 -2 -77 -26z"/>
  </g>

  <!-- Diagonal strike-through line -->
  <line x1="15" y1="15" x2="206" y2="281"
        stroke="#CC0000" stroke-width="18" stroke-linecap="round"/>

</svg>
