<?xml version="1.0" standalone="no"?>
<!DOCTYPE svg PUBLIC "-//W3C//DTD SVG 20010904//EN"
 "http://www.w3.org/TR/2001/REC-SVG-20010904/DTD/svg10.dtd">
<svg version="1.0" xmlns="http://www.w3.org/2000/svg"
 width="468pt" height="348pt" viewBox="0 0 468 348"
 preserveAspectRatio="xMidYMid meet">
<metadata>
Created by potrace 1.8, written by Peter Selinger 2001-2007
</metadata>
<g transform="translate(0,348) scale(0.158108,-0.158108)"
fill="#000000" stroke="none">
<path d="M130 2174 c-45 -20 -77 -50 -101 -96 -18 -36 -19 -73 -19 -981 l0
-944 23 -44 c16 -29 40 -54 72 -74 l48 -30 1321 0 1321 0 48 24 c55 26 92 75
104 136 5 22 6 457 3 967 l-5 926 -30 43 c-16 23 -48 52 -70 63 -40 21 -43 21
-1360 23 -1162 2 -1324 1 -1355 -13z m1123 -124 l897 0 0 -955 0 -955 -974 0
c-536 0 -982 3 -991 6 -45 18 -45 8 -45 953 0 657 3 897 12 916 15 33 57 46
138 40 36 -3 469 -5 963 -5z m1549 -40 c17 -32 18 -93 18 -817 l0 -783 -265 0
-265 0 0 820 0 820 248 -2 247 -3 17 -35z m16 -1782 c-9 -88 -10 -88 -289 -88
l-239 0 0 70 0 70 266 0 267 0 -5 -52z"/>
<path d="M368 1781 l-33 -29 -3 -650 -2 -650 25 -31 c15 -17 43 -35 63 -41 49
-13 1393 -14 1443 0 19 5 48 24 65 41 l29 30 3 617 c2 419 0 629 -8 654 -6 20
-24 48 -41 62 l-31 26 -739 0 -739 0 -32 -29z m1452 -686 l0 -585 -680 0 -680
0 0 585 0 585 680 0 680 0 0 -585z"/>
<path d="M640 1491 c-91 -30 -110 -42 -110 -67 0 -23 24 -54 41 -54 5 0 38 9
72 21 49 17 79 20 147 17 100 -5 148 -24 288 -116 121 -80 185 -104 293 -110
97 -5 164 10 259 58 112 56 145 104 100 145 -18 17 -20 16 -52 -3 -128 -81
-233 -117 -315 -109 -66 7 -161 50 -270 123 -123 83 -189 107 -303 111 -73 2
-108 -1 -150 -16z"/>
<path d="M668 1245 c-90 -23 -138 -51 -138 -80 0 -14 9 -30 23 -39 20 -13 30
-12 97 11 134 45 240 22 415 -92 111 -72 179 -102 273 -118 111 -18 246 20
368 104 39 27 45 35 42 61 -5 48 -31 58 -76 30 -20 -12 -71 -39 -112 -60 -71
-35 -80 -37 -170 -37 -88 0 -100 3 -157 33 -34 17 -103 59 -152 91 -146 96
-286 128 -413 96z"/>
<path d="M640 991 c-90 -30 -110 -42 -110 -67 0 -23 24 -54 41 -54 5 0 38 9
72 21 49 17 79 20 147 17 99 -5 154 -26 276 -109 117 -78 201 -111 304 -117
102 -5 171 11 270 65 109 59 135 98 90 138 -19 17 -22 16 -97 -29 -204 -122
-304 -112 -559 52 -50 32 -121 68 -158 80 -83 28 -197 29 -276 3z"/>
<path d="M2380 1658 c-24 -13 -25 -18 -28 -119 -2 -78 1 -109 11 -117 20 -17
352 -19 372 -2 23 19 22 212 -2 231 -23 20 -318 25 -353 7z m328 -126 l3 -83
-158 3 -158 3 -3 83 -3 83 158 -3 158 -3 3 -83z"/>
<path d="M2347 1253 c-4 -3 -7 -12 -7 -20 0 -10 21 -13 85 -13 78 0 85 2 85
20 0 18 -7 20 -78 20 -43 0 -82 -3 -85 -7z"/>
<path d="M2577 1253 c-4 -3 -7 -12 -7 -20 0 -10 21 -13 85 -13 78 0 85 2 85
20 0 18 -7 20 -78 20 -43 0 -82 -3 -85 -7z"/>
<path d="M2344 1155 c-11 -28 10 -36 87 -33 66 3 74 5 74 23 0 18 -8 20 -78
23 -64 2 -78 0 -83 -13z"/>
<path d="M2574 1155 c-11 -28 10 -36 87 -33 66 3 74 5 74 23 0 18 -8 20 -78
23 -64 2 -78 0 -83 -13z"/>
<path d="M2343 964 c-10 -25 16 -34 92 -32 62 3 70 5 70 23 0 18 -8 20 -78 23
-64 2 -78 0 -84 -14z"/>
<path d="M2347 713 c-4 -3 -7 -12 -7 -20 0 -10 21 -13 85 -13 78 0 85 2 85 20
0 18 -7 20 -78 20 -43 0 -82 -3 -85 -7z"/>
<path d="M2577 713 c-4 -3 -7 -12 -7 -20 0 -10 21 -13 85 -13 78 0 85 2 85 20
0 18 -7 20 -78 20 -43 0 -82 -3 -85 -7z"/>
</g>
</svg>
