<?xml version="1.0" standalone="no"?>
<!DOCTYPE svg PUBLIC "-//W3C//DTD SVG 20010904//EN"
 "http://www.w3.org/TR/2001/REC-SVG-20010904/DTD/svg10.dtd">
<svg version="1.0" xmlns="http://www.w3.org/2000/svg"
 width="468pt" height="468pt" viewBox="0 0 468 468"
 preserveAspectRatio="xMidYMid meet">
<metadata>
Created by potrace 1.8, written by Peter Selinger 2001-2007
</metadata>
<g transform="translate(0,468) scale(0.157576,-0.157576)"
fill="#000000" stroke="none">
<path d="M2607 2942 c-9 -9 -27 -61 -41 -114 -14 -52 -46 -149 -73 -214 -43
-107 -47 -127 -48 -199 0 -88 24 -157 71 -206 l26 -27 -119 -46 c-65 -25 -123
-46 -128 -46 -6 0 -30 43 -54 96 -54 115 -74 134 -147 134 -46 0 -59 5 -89 32
-58 51 -76 96 -90 237 -13 132 -46 280 -71 319 -25 38 -96 24 -114 -22 -6 -17
-1 -52 16 -117 14 -52 29 -145 35 -208 6 -63 18 -136 29 -164 43 -111 117
-182 220 -208 l65 -17 32 -63 c18 -35 32 -67 32 -70 1 -4 -21 -16 -49 -27 -57
-24 -79 -57 -64 -99 17 -50 39 -52 145 -17 12 4 23 -23 57 -143 45 -160 119
-481 127 -553 4 -37 -7 -82 -63 -255 -50 -154 -72 -209 -83 -207 -8 2 -232 78
-499 168 l-485 165 -58 64 c-75 83 -184 156 -289 191 -75 26 -96 29 -218 29
-116 0 -145 -3 -205 -24 -112 -37 -193 -88 -276 -170 -171 -171 -238 -434
-165 -646 32 -93 68 -160 130 -240 l45 -57 -20 -31 c-23 -38 -24 -78 -4 -117
33 -65 -72 -60 1370 -60 1227 0 1312 1 1345 18 56 28 65 57 65 222 0 162 -4
186 -40 228 -20 24 -53 40 -164 77 l-138 46 -12 77 c-7 42 -28 165 -47 272
-20 107 -33 211 -31 230 2 19 27 116 55 215 113 405 167 748 131 827 -5 13
-31 34 -55 48 -98 51 -109 154 -36 320 42 91 92 264 92 313 0 50 -78 78 -113
39z m-32 -987 c-16 -103 -75 -378 -99 -455 l-14 -45 -6 45 c-7 56 -36 483 -33
486 5 5 162 71 164 69 2 -1 -4 -46 -12 -100z m-1724 -714 c98 -31 183 -87 264
-174 l73 -78 349 -119 c191 -65 373 -127 403 -138 l55 -20 -65 4 c-210 13
-723 33 -731 29 -4 -3 -11 7 -15 22 -30 136 -58 189 -144 276 -80 79 -160 121
-280 144 -72 15 -87 15 -158 1 -107 -21 -185 -61 -258 -133 -161 -157 -199
-391 -97 -593 33 -65 119 -156 184 -194 165 -97 367 -96 521 3 61 40 142 128
174 190 l24 49 68 0 c37 0 285 -9 552 -20 473 -20 486 -20 510 -2 14 11 33 39
42 63 9 24 20 43 25 42 69 -17 491 -167 504 -179 15 -14 19 -32 19 -91 l0 -73
-54 0 c-95 0 -152 -36 -162 -102 l-7 -38 -1083 0 -1084 0 0 30 c0 19 -11 42
-29 62 -24 26 -38 33 -82 38 -51 5 -55 7 -110 73 -220 262 -207 579 34 804
149 139 358 185 558 124z m20 -128 c98 -46 171 -119 222 -221 38 -77 42 -93
42 -158 0 -40 -2 -74 -5 -76 -3 -3 -178 2 -389 10 l-384 16 -19 -24 c-14 -17
-18 -33 -14 -54 12 -59 11 -59 333 -72 164 -7 333 -13 376 -13 l77 -1 -21 -42
c-51 -99 -186 -199 -307 -228 -242 -57 -491 111 -542 365 -44 215 88 435 308
512 57 20 82 23 163 20 81 -3 106 -9 160 -34z m1535 -430 c-3 -3 -12 -3 -20 0
-13 5 -13 12 2 54 l17 48 3 -49 c2 -26 1 -50 -2 -53z m-2031 -546 c14 -11 15
-16 5 -22 -17 -10 -69 -15 -92 -9 -33 9 -20 33 20 37 20 2 40 4 43 5 3 1 13
-4 24 -11z m2483 -4 c-4 -23 -108 -33 -108 -10 0 22 11 27 62 27 42 0 49 -3
46 -17z"/>
</g>
</svg>
