<?xml version="1.0" standalone="no"?>
<!DOCTYPE svg PUBLIC "-//W3C//DTD SVG 20010904//EN"
 "http://www.w3.org/TR/2001/REC-SVG-20010904/DTD/svg10.dtd">
<svg version="1.0" xmlns="http://www.w3.org/2000/svg"
 width="468pt" height="470pt" viewBox="0 0 468 470"
 preserveAspectRatio="xMidYMid meet">
<metadata>
Created by potrace 1.8, written by Peter Selinger 2001-2007
</metadata>
<g transform="translate(0,470) scale(0.158644,-0.158644)"
fill="#000000" stroke="none">
<path d="M680 2954 c-135 -17 -304 -56 -482 -111 l-117 -36 -20 -46 c-44 -103
-56 -201 -56 -456 0 -275 12 -357 75 -546 72 -217 169 -385 297 -514 299 -302
648 -241 916 162 104 155 173 324 219 536 20 91 22 130 22 362 0 233 -2 269
-21 345 -35 139 -45 156 -100 174 -278 91 -595 147 -733 130z m340 -163 c58
-13 108 -26 112 -30 4 -3 -204 -218 -462 -476 -532 -532 -472 -492 -506 -335
-16 71 -19 128 -19 350 0 320 10 385 61 406 42 18 283 80 382 98 109 21 299
15 432 -13z m382 -353 c4 -185 -3 -351 -18 -442 -56 -334 -255 -666 -461 -768
-132 -65 -251 -49 -386 53 -59 44 -170 169 -185 208 -5 12 1023 1051 1040
1051 5 0 9 -46 10 -102z"/>
<path d="M2155 2948 c-28 -16 -35 -28 -35 -62 0 -22 13 -42 53 -83 45 -44 60
-53 90 -53 26 0 40 6 51 22 28 39 19 66 -36 124 -56 56 -90 71 -123 52z"/>
<path d="M2384 2771 c-12 -5 -31 -22 -43 -37 -19 -25 -21 -38 -21 -186 l0
-160 34 -34 34 -34 162 0 162 0 35 35 34 34 -3 165 -3 166 -28 27 c-27 28 -27
28 -185 30 -86 1 -167 -2 -178 -6z m266 -221 l0 -100 -100 0 -100 0 0 100 0
100 100 0 100 0 0 -100z"/>
<path d="M1780 2600 c-27 -27 -25 -66 5 -96 l25 -25 201 3 c185 3 202 5 215
22 22 31 18 82 -8 100 -19 13 -57 16 -220 16 -185 0 -199 -1 -218 -20z"/>
<path d="M2104 2199 c-126 -125 -144 -147 -144 -175 0 -34 37 -74 68 -74 25 0
312 291 312 316 0 30 -29 62 -63 70 -26 6 -40 -5 -173 -137z"/>
<path d="M2777 2320 c-43 -34 -37 -73 22 -131 58 -59 97 -65 131 -22 28 36 20
67 -33 120 -53 53 -84 61 -120 33z"/>
<path d="M2499 2231 c-21 -17 -24 -29 -28 -102 -4 -105 10 -156 47 -166 34 -9
52 -5 75 14 14 14 17 34 17 129 0 105 -1 114 -22 128 -30 21 -61 20 -89 -3z"/>
<path d="M2328 1811 l-33 -29 -3 -636 -2 -636 -24 -15 c-41 -27 -46 -56 -46
-245 l0 -180 29 -32 29 -33 216 0 216 0 27 28 28 27 3 183 c3 157 1 186 -14
214 -9 18 -25 35 -35 38 -16 5 -19 17 -19 63 l0 57 104 -3 c95 -3 107 -1 125
17 28 28 26 67 -4 97 -25 25 -30 26 -125 22 l-100 -3 0 108 0 107 109 0 c102
0 111 2 125 22 20 28 20 58 0 86 -14 20 -23 22 -125 22 l-109 0 0 103 0 102
104 -3 c95 -3 107 -1 125 17 26 26 27 62 2 92 -18 23 -26 24 -125 24 l-106 0
0 95 0 95 100 -3 c95 -4 100 -3 125 22 14 14 25 35 25 46 0 12 -11 32 -25 46
-25 25 -30 26 -126 22 -97 -3 -100 -2 -106 20 -3 12 -19 33 -35 47 -28 24 -35
25 -164 25 -134 0 -134 0 -166 -29z m232 -221 l0 -120 -70 0 -70 0 0 120 0
120 70 0 70 0 0 -120z"/>
</g>
</svg>
