<?xml version="1.0" standalone="no"?>
<!DOCTYPE svg PUBLIC "-//W3C//DTD SVG 20010904//EN"
 "http://www.w3.org/TR/2001/REC-SVG-20010904/DTD/svg10.dtd">
<svg version="1.0" xmlns="http://www.w3.org/2000/svg"
 width="449pt" height="648pt" viewBox="0 0 449 648"
 preserveAspectRatio="xMidYMid meet">
<metadata>
Created by potrace 1.8, written by Peter Selinger 2001-2007
</metadata>
<g transform="translate(0,648) scale(0.219661,-0.219661)"
fill="#000000" stroke="none">
<path d="M1177 2935 c-59 -7 -138 -22 -175 -34 -66 -20 -71 -24 -244 -199
-162 -162 -178 -181 -178 -213 0 -62 63 -118 119 -104 15 4 89 69 182 162 151
150 158 155 215 169 32 8 104 17 159 20 l100 6 242 -244 243 -243 -10 -110
c-17 -191 -13 -182 -199 -370 l-164 -164 -683 -3 c-672 -3 -683 -3 -710 -24
-15 -11 -37 -33 -48 -48 -21 -27 -21 -36 -21 -730 0 -782 -4 -732 68 -776 31
-19 57 -20 880 -20 932 0 892 -3 938 61 l24 34 3 680 c2 447 0 692 -7 715 -14
49 -59 89 -116 104 l-47 12 101 93 c148 137 172 195 187 462 5 81 3 127 -6
155 -10 31 -71 98 -284 312 -149 151 -284 280 -299 288 -41 22 -145 25 -270 9z
m603 -2130 l0 -665 -820 0 -820 0 0 100 0 100 439 0 440 0 20 26 c27 35 26 59
-4 89 l-24 25 -436 0 -435 0 0 110 0 110 435 0 436 0 24 25 c32 31 32 59 0 90
l-24 25 -436 0 -435 0 0 110 0 110 435 0 436 0 24 25 c32 31 32 59 0 90 l-24
25 -436 0 -435 0 0 135 0 135 820 0 820 0 0 -665z"/>
</g>
</svg>
