<?xml version="1.0" standalone="no"?>
<!DOCTYPE svg PUBLIC "-//W3C//DTD SVG 20010904//EN"
 "http://www.w3.org/TR/2001/REC-SVG-20010904/DTD/svg10.dtd">
<svg version="1.0" xmlns="http://www.w3.org/2000/svg"
 width="468pt" height="636pt" viewBox="0 0 468 636"
 preserveAspectRatio="xMidYMid meet">
<metadata>
Created by potrace 1.8, written by Peter Selinger 2001-2007
</metadata>
<g transform="translate(0,636) scale(0.214679,-0.214679)"
fill="#000000" stroke="none">
<path d="M557 2924 c-34 -33 -40 -68 -35 -194 3 -101 3 -102 36 -131 l33 -30
515 3 516 3 24 28 c23 27 24 35 24 158 l0 131 -29 29 -29 29 -515 0 -514 0
-26 -26z m983 -164 l0 -60 -440 0 -440 0 0 60 0 60 440 0 440 0 0 -60z"/>
<path d="M360 2613 c-60 -22 -67 -80 -14 -129 332 -314 837 -387 1249 -182 84
42 181 108 243 165 57 54 68 95 34 125 -44 39 -63 33 -165 -55 -212 -180 -530
-255 -819 -193 -140 31 -310 116 -415 210 -42 38 -85 68 -95 65 -2 0 -10 -3
-18 -6z"/>
<path d="M25 2445 c-47 -46 -28 -81 103 -186 208 -168 444 -276 707 -325 146
-28 413 -25 549 5 273 59 531 190 724 366 52 48 72 73 72 91 0 30 -41 74 -70
74 -11 0 -57 -32 -102 -71 -211 -182 -448 -293 -713 -334 -130 -21 -367 -16
-480 9 -238 53 -460 166 -645 329 -83 73 -107 80 -145 42z"/>
<path d="M885 1627 c-27 -27 -43 -65 -93 -220 -74 -229 -101 -285 -193 -407
-121 -159 -156 -262 -146 -415 11 -154 70 -282 182 -396 121 -123 269 -184
440 -183 158 1 266 52 386 182 124 134 181 291 182 502 1 198 -37 352 -130
531 -48 91 -141 205 -180 220 -41 15 -70 -8 -119 -99 -25 -46 -49 -80 -53 -75
-4 4 -15 41 -24 81 -33 144 -139 312 -196 312 -13 0 -38 -15 -56 -33z m130
-345 c23 -113 33 -139 66 -167 63 -52 132 -25 200 79 41 63 44 65 62 48 30
-27 114 -209 137 -297 30 -112 38 -316 16 -409 -18 -75 -63 -176 -97 -216
l-21 -25 7 25 c43 172 -22 433 -137 553 -56 59 -95 64 -130 17 l-22 -31 -13
37 c-21 59 -71 131 -102 143 -36 16 -76 1 -94 -36 -8 -15 -29 -73 -47 -128
-40 -122 -57 -156 -119 -243 -51 -70 -80 -140 -82 -195 l-1 -32 -19 41 c-28
61 -40 168 -28 243 12 80 39 132 129 250 86 114 118 180 176 359 24 75 47 144
50 152 9 23 51 -79 69 -168z m5 -604 c38 -31 87 -23 131 20 l38 38 25 -55 c36
-82 47 -133 48 -219 0 -93 -12 -142 -51 -204 -60 -94 -156 -128 -262 -93 -101
34 -180 143 -179 249 1 41 29 102 78 168 47 62 72 112 97 188 l18 54 18 -64
c10 -38 26 -72 39 -82z"/>
</g>
</svg>
