<?xml version="1.0" standalone="no"?>
<!DOCTYPE svg PUBLIC "-//W3C//DTD SVG 20010904//EN"
 "http://www.w3.org/TR/2001/REC-SVG-20010904/DTD/svg10.dtd">
<svg version="1.0" xmlns="http://www.w3.org/2000/svg"
 width="468pt" height="467pt" viewBox="0 0 468 467"
 preserveAspectRatio="xMidYMid meet">
<metadata>
Created by potrace 1.8, written by Peter Selinger 2001-2007
</metadata>
<g transform="translate(0,467) scale(0.157576,-0.157576)"
fill="#000000" stroke="none">
<path d="M655 2949 c-134 -18 -521 -117 -565 -144 -15 -9 -57 -153 -70 -243
-19 -130 -8 -522 19 -640 45 -200 116 -372 215 -522 176 -264 396 -389 606
-346 41 9 102 29 135 45 246 122 468 485 535 876 23 134 28 466 9 600 -13 97
-45 201 -68 224 -20 20 -269 92 -439 127 -137 28 -280 36 -377 23z m316 -148
c57 -10 124 -24 148 -31 l44 -12 -474 -474 c-261 -261 -477 -474 -480 -474
-10 0 -48 180 -60 285 -16 132 -6 425 16 523 20 88 16 85 221 137 268 69 401
79 585 46z m448 -496 c1 -82 -4 -190 -10 -240 -57 -463 -353 -885 -623 -885
-134 0 -263 82 -386 243 l-43 58 524 525 524 524 7 -37 c4 -21 7 -105 7 -188z"/>
<path d="M2488 2939 c-11 -6 -18 -22 -18 -40 0 -29 0 -30 -30 -14 -41 21 -77
19 -90 -5 -18 -34 -2 -57 61 -92 l59 -33 0 -98 0 -98 -22 12 c-13 6 -53 30
-90 52 l-68 39 0 67 c0 74 -10 91 -52 91 -31 0 -48 -24 -48 -69 0 -29 -2 -30
-24 -20 -53 25 -93 -35 -51 -77 l23 -23 -34 -21 c-40 -25 -45 -57 -13 -86 20
-18 22 -18 85 16 l65 35 65 -35 c120 -65 119 -60 23 -115 l-83 -48 -61 32
c-33 17 -65 31 -71 31 -16 0 -44 -34 -44 -53 0 -15 38 -51 62 -59 6 -2 -1 -16
-15 -31 -24 -23 -26 -29 -16 -51 14 -31 32 -38 64 -26 23 9 25 7 25 -18 0 -37
26 -72 54 -72 35 0 45 19 48 95 l3 69 83 48 c46 26 86 48 88 48 2 0 4 -45 4
-99 l0 -100 -55 -31 c-68 -39 -83 -62 -60 -96 18 -27 39 -30 75 -9 34 20 40
19 40 -8 0 -29 18 -47 45 -47 27 0 45 18 45 47 0 27 6 28 40 8 36 -21 57 -18
75 9 23 34 8 57 -60 96 l-55 31 0 100 c0 55 3 98 8 96 4 -2 44 -26 90 -52 l82
-47 0 -67 c0 -74 10 -91 52 -91 31 0 48 24 48 68 0 29 1 30 29 19 23 -8 33 -8
45 2 24 20 20 68 -6 82 -21 11 -21 12 -2 26 62 45 70 72 29 99 -24 15 -27 15
-86 -18 l-62 -35 -78 45 c-44 24 -81 48 -84 52 -3 4 32 29 77 55 l82 48 62
-33 c67 -37 87 -35 106 6 11 24 10 29 -14 49 -15 13 -33 25 -40 28 -9 3 -7 10
10 22 45 33 10 105 -43 85 -20 -8 -23 -5 -28 27 -7 44 -23 63 -52 63 -34 0
-44 -19 -47 -95 l-3 -69 -83 -48 c-46 -26 -86 -48 -88 -48 -2 0 -4 44 -4 98
l0 98 60 34 c65 37 74 49 60 84 -12 32 -37 36 -82 14 l-38 -18 0 29 c0 42 -36
62 -72 40z"/>
<path d="M2348 1811 l-33 -29 -3 -636 -2 -636 -24 -15 c-41 -27 -46 -56 -46
-245 l0 -180 29 -32 29 -33 216 0 216 0 27 28 28 27 3 183 c3 157 1 186 -14
214 -9 18 -25 35 -35 38 -16 5 -19 17 -19 63 l0 57 104 -3 c95 -3 107 -1 125
17 28 28 26 67 -4 97 -25 25 -30 26 -125 22 l-100 -3 0 108 0 107 109 0 c102
0 111 2 125 22 20 28 20 58 0 86 -14 20 -23 22 -125 22 l-109 0 0 103 0 102
104 -3 c95 -3 107 -1 125 17 26 26 27 62 2 92 -18 23 -26 24 -125 24 l-106 0
0 95 0 95 100 -3 c95 -4 100 -3 125 22 14 14 25 35 25 46 0 12 -11 32 -25 46
-25 25 -30 26 -126 22 -97 -3 -100 -2 -106 20 -3 12 -19 33 -35 47 -28 24 -35
25 -164 25 -134 0 -134 0 -166 -29z m232 -541 l0 -440 -70 0 -70 0 0 440 0
440 70 0 70 0 0 -440z"/>
</g>
</svg>
