<?xml version="1.0" standalone="no"?>
<!DOCTYPE svg PUBLIC "-//W3C//DTD SVG 20010904//EN"
 "http://www.w3.org/TR/2001/REC-SVG-20010904/DTD/svg10.dtd">
<svg version="1.0" xmlns="http://www.w3.org/2000/svg"
 width="468pt" height="444pt" viewBox="0 0 468 444"
 preserveAspectRatio="xMidYMid meet">
<metadata>
Created by potrace 1.8, written by Peter Selinger 2001-2007
</metadata>
<g transform="translate(0,444) scale(0.166548,-0.166548)"
fill="#000000" stroke="none">
<path d="M1610 2612 c-46 -45 -41 -15 -80 -477 -17 -192 -33 -369 -36 -392
l-5 -43 -62 0 c-81 0 -125 -23 -154 -80 l-23 -44 0 -723 c0 -784 -1 -761 55
-813 l27 -25 694 -3 694 -2 43 39 42 40 3 748 c2 697 1 750 -15 782 -29 57
-64 75 -149 79 -40 2 -74 5 -74 6 -1 0 -18 190 -39 421 -40 435 -44 457 -91
500 -21 19 -38 20 -407 23 l-385 3 -38 -39z m751 -104 c0 -7 12 -148 27 -313
l27 -300 -384 -3 c-211 -1 -385 -1 -386 0 -1 2 10 140 26 308 15 168 28 308
29 313 0 4 149 7 330 7 257 0 330 -3 331 -12z m69 -778 l0 -30 -400 0 -400 0
0 30 0 30 400 0 400 0 0 -30z m245 -875 l0 -710 -642 -3 -643 -2 0 715 0 715
643 -2 642 -3 0 -710z"/>
<path d="M1482 1218 c-19 -19 -15 -66 7 -78 13 -6 199 -10 536 -10 337 0 523
4 536 10 22 12 26 59 7 78 -17 17 -1069 17 -1086 0z"/>
<path d="M1482 1028 c-7 -7 -12 -21 -12 -33 0 -45 -4 -45 555 -45 559 0 555 0
555 45 0 12 -5 26 -12 33 -17 17 -1069 17 -1086 0z"/>
<path d="M1482 858 c-17 -17 -15 -54 4 -72 14 -14 76 -16 539 -16 463 0 525 2
539 16 19 18 21 55 4 72 -17 17 -1069 17 -1086 0z"/>
<path d="M1488 689 c-21 -12 -24 -59 -6 -77 17 -17 1069 -17 1086 0 19 19 15
66 -7 78 -27 14 -1049 13 -1073 -1z"/>
<path d="M1482 498 c-14 -14 -15 -47 -2 -68 8 -13 80 -15 545 -15 465 0 537 2
545 15 13 21 12 54 -2 68 -17 17 -1069 17 -1086 0z"/>
<path d="M1488 329 c-25 -14 -24 -65 1 -79 27 -14 1045 -14 1072 0 12 7 19 21
19 40 0 19 -7 33 -19 40 -27 14 -1049 13 -1073 -1z"/>
<path d="M368 1928 c-162 -172 -285 -416 -340 -671 -28 -135 -31 -379 -5 -510
50 -250 182 -511 345 -685 64 -69 94 -78 130 -39 35 38 28 65 -39 142 -207
239 -311 517 -311 830 0 313 104 591 311 830 68 78 76 108 38 143 -39 37 -65
28 -129 -40z"/>
<path d="M633 1787 c-32 -18 -136 -147 -182 -226 -92 -157 -140 -322 -148
-513 -7 -155 7 -259 53 -398 42 -126 96 -229 171 -328 65 -85 106 -122 137
-122 28 0 66 39 66 68 0 12 -32 61 -71 109 -81 101 -168 270 -194 377 -78 324
2 651 221 897 53 60 58 97 18 128 -30 24 -40 25 -71 8z"/>
<path d="M820 1564 c-73 -62 -165 -220 -202 -351 -30 -103 -32 -322 -5 -423
40 -145 170 -356 234 -381 31 -11 68 9 85 46 12 27 3 46 -63 125 -50 61 -106
175 -125 258 -21 88 -21 239 1 322 24 93 75 194 140 275 61 76 65 102 23 138
-28 24 -51 21 -88 -9z"/>
</g>
</svg>
