<?xml version="1.0" standalone="no"?>
<!DOCTYPE svg PUBLIC "-//W3C//DTD SVG 20010904//EN"
 "http://www.w3.org/TR/2001/REC-SVG-20010904/DTD/svg10.dtd">
<svg version="1.0" xmlns="http://www.w3.org/2000/svg"
 width="468pt" height="467pt" viewBox="0 0 468 467"
 preserveAspectRatio="xMidYMid meet">
<metadata>
Created by potrace 1.8, written by Peter Selinger 2001-2007
</metadata>
<g transform="translate(0,467) scale(0.170182,-0.170182)"
fill="#000000" stroke="none">
<path d="M10 2355 l0 -385 385 0 385 0 -2 383 -3 382 -382 3 -383 2 0 -385z
m650 -5 l0 -270 -270 0 -270 0 0 270 0 270 270 0 270 0 0 -270z"/>
<path d="M227 2514 c-4 -4 -7 -79 -7 -166 l0 -158 170 0 170 0 -2 163 -3 162
-161 3 c-88 1 -163 -1 -167 -4z"/>
<path d="M990 2575 l0 -165 -55 0 -55 0 0 -60 0 -61 53 3 52 3 3 -52 3 -53
-55 0 -56 0 0 -165 0 -166 58 3 57 3 0 150 c0 83 4 156 8 163 6 9 61 12 218
12 l209 0 0 -55 0 -55 -54 0 -55 0 -3 -52 -3 -53 -52 -3 -53 -3 0 55 0 56 -55
0 -56 0 3 -57 3 -56 50 -1 50 -1 3 -52 3 -53 -55 0 -56 0 0 -55 0 -55 110 0
110 0 0 110 0 110 55 0 55 0 0 -110 0 -110 55 0 55 0 0 110 0 110 55 0 55 0 0
-165 0 -165 -220 0 -220 0 0 -110 0 -110 -55 0 -55 0 0 -50 0 -50 -55 0 -55 0
0 50 0 50 -55 0 -55 0 0 -50 0 -50 -50 0 -50 0 0 50 0 50 -60 0 -60 0 0 -49 0
-50 -52 -3 -53 -3 -3 -52 -3 -52 -107 -3 -107 -3 0 -110 0 -110 52 -3 52 -3 3
-52 3 -52 55 0 55 0 0 55 0 55 -52 3 -53 3 0 50 0 49 160 0 160 0 0 -50 0 -50
-55 0 -56 0 3 -57 3 -58 55 0 55 0 0 50 0 50 53 3 52 3 0 -112 0 -112 41 6
c68 9 69 7 69 -109 l0 -104 55 0 55 0 0 -110 0 -110 56 0 55 0 -3 -52 -3 -53
-107 -3 -108 -3 0 56 0 55 -55 0 -55 0 0 -110 0 -110 55 0 55 0 0 -55 0 -55
55 0 55 0 0 55 0 55 54 0 55 0 3 53 3 52 53 3 52 3 0 -55 0 -55 53 -3 52 -3 3
-52 3 -53 55 0 54 0 0 54 0 55 -52 3 -53 3 0 50 0 50 108 3 107 3 0 109 0 110
105 0 105 0 0 -110 0 -110 -55 0 -55 0 0 -110 0 -110 60 0 60 0 0 55 0 55 50
0 50 0 0 -55 0 -55 60 0 60 0 0 54 0 55 -52 3 -53 3 -3 163 -2 162 215 0 215
0 0 -55 0 -55 -55 0 -55 0 0 -165 0 -165 60 0 60 0 0 110 0 110 160 0 160 0 0
54 0 55 -52 3 -53 3 -3 53 -3 52 55 0 56 0 0 55 0 55 -109 0 -110 0 -3 -52 -3
-53 -47 -3 -47 -3 -3 108 -3 108 -52 3 -53 3 0 104 0 104 53 3 52 3 0 110 0
110 -55 0 -55 0 -3 -53 -3 -53 -102 3 -102 3 -3 213 -2 212 165 0 165 0 0 109
c0 78 -4 111 -12 114 -7 2 -45 2 -84 -1 -40 -2 -84 -2 -98 2 -26 6 -26 7 -26
111 l0 105 -116 0 -117 0 6 -41 c8 -61 2 -69 -54 -69 l-49 0 0 275 0 275 -55
0 -55 0 0 55 0 55 -55 0 -55 0 0 -110 0 -110 -110 0 -110 0 0 54 0 55 -52 3
-53 3 -3 107 -3 107 -107 3 -107 3 -3 108 -3 107 -54 0 -55 0 0 -165z m758
-497 l3 -108 -51 0 -50 0 0 104 c0 115 1 116 70 112 25 -1 25 -2 28 -108z
m-208 -53 l0 -55 -55 0 -55 0 0 48 c0 27 3 52 7 55 3 4 28 7 55 7 l48 0 0 -55z
m0 -550 l0 -55 -55 0 c-59 0 -59 0 -56 -62 l3 -38 -56 0 -56 0 0 50 0 50 55 0
55 0 0 55 0 55 55 0 55 0 0 -55z m210 -105 l0 -50 -50 0 -50 0 0 50 0 50 50 0
50 0 0 -50z m220 0 l0 -50 -50 0 -50 0 0 50 0 50 50 0 50 0 0 -50z m-1200
-110 l0 -50 -50 0 -50 0 0 50 0 50 50 0 50 0 0 -50z m220 -5 l0 -55 55 0 55 0
0 -50 0 -50 -110 0 -110 0 0 105 0 105 55 0 55 0 0 -55z m660 -110 l0 -55 49
0 49 0 7 -40 c4 -21 4 -44 0 -50 -4 -6 -66 -10 -166 -10 l-159 0 0 -60 0 -60
110 0 110 0 0 -50 0 -50 -110 0 -110 0 0 -55 0 -55 -55 0 -55 0 0 55 0 55 -55
0 -55 0 0 50 0 50 55 0 55 0 0 115 0 115 -55 0 -55 0 0 43 c0 24 3 47 7 50 3
4 102 7 220 7 l213 0 0 -55z m210 5 l0 -50 -50 0 -50 0 0 50 0 50 50 0 50 0 0
-50z m-650 -110 l0 -50 -55 0 -55 0 0 50 0 50 55 0 55 0 0 -50z m980 -330 l0
-160 -160 0 -160 0 0 160 0 160 160 0 160 0 0 -160z m-442 3 l3 -53 -50 0 -51
0 0 49 c0 46 2 50 28 54 62 10 67 6 70 -50z m-538 -8 l0 -55 56 0 55 0 -3 -47
-3 -48 -107 -3 -108 -3 0 106 0 105 55 0 55 0 0 -55z m440 -210 l0 -55 -55 0
-55 0 0 -55 0 -55 -55 0 -55 0 0 -55 0 -55 -55 0 -55 0 0 55 0 55 -56 0 -55 0
3 53 3 52 53 3 52 3 0 48 c0 26 3 51 7 54 3 4 78 7 165 7 l158 0 0 -55z"/>
<path d="M1974 756 c-3 -7 -4 -33 -2 -57 l3 -44 55 0 55 0 3 58 3 57 -56 0
c-38 0 -57 -4 -61 -14z"/>
<path d="M1210 2680 l0 -60 55 0 55 0 0 60 0 60 -55 0 -55 0 0 -60z"/>
<path d="M1430 2680 l0 -60 110 0 110 0 0 -56 0 -55 53 3 52 3 0 110 0 110
-162 3 -163 2 0 -60z"/>
<path d="M1977 2733 c-4 -3 -7 -177 -7 -385 l0 -378 385 0 385 0 0 385 0 385
-378 0 c-208 0 -382 -3 -385 -7z m653 -383 l0 -270 -270 0 -270 0 0 270 0 270
270 0 270 0 0 -270z"/>
<path d="M2190 2355 l0 -165 165 0 165 0 0 165 0 165 -165 0 -165 0 0 -165z"/>
<path d="M1430 2460 l0 -60 55 0 55 0 0 60 0 60 -55 0 -55 0 0 -60z"/>
<path d="M110 1805 l0 -55 -50 0 -50 0 0 -55 0 -55 50 0 50 0 0 -55 0 -55 -50
0 -50 0 0 -110 0 -110 49 0 49 0 7 -40 c4 -21 4 -44 0 -50 -3 -5 -28 -10 -56
-10 l-49 0 0 -60 0 -60 110 0 110 0 0 110 0 110 55 0 56 0 -3 113 -3 112 -50
0 -50 0 -3 53 -3 52 110 0 111 0 0 54 0 55 -52 3 -53 3 -3 53 -3 52 -115 0
-114 0 0 -55z m110 -435 l0 -50 -50 0 -50 0 0 50 0 50 50 0 50 0 0 -50z"/>
<path d="M658 1808 l-3 -53 -52 -3 -53 -3 0 -110 0 -109 170 0 169 0 -2 53 -2
52 53 3 52 3 0 -55 0 -56 55 0 56 0 -3 57 -3 56 -50 1 -50 1 -3 53 -3 52 -105
0 -104 0 0 55 0 55 -59 0 -60 0 -3 -52z m110 -110 l-3 -53 -47 -3 -48 -4 0 56
0 56 51 0 50 0 -3 -52z"/>
<path d="M2300 1805 l0 -55 60 0 60 0 0 55 0 55 -60 0 -60 0 0 -55z"/>
<path d="M2520 1696 l0 -55 53 -3 52 -3 3 -52 3 -53 -55 0 -56 0 0 -54 0 -55
53 -3 52 -3 3 -267 2 -268 -55 0 -55 0 0 -61 0 -62 41 6 c62 8 69 2 69 -59 l0
-54 55 0 55 0 0 59 0 60 -52 3 -53 3 -3 48 -3 47 55 0 56 0 0 281 0 281 -35
-6 c-61 -12 -75 -2 -75 55 l0 49 55 0 55 0 0 110 0 110 -110 0 -110 0 0 -54z"/>
<path d="M2197 1314 c-4 -4 -7 -32 -7 -61 l0 -54 58 3 57 3 0 55 0 55 -50 3
c-28 2 -54 0 -58 -4z"/>
<path d="M10 930 l0 -61 108 3 107 3 3 58 3 57 -111 0 -110 0 0 -60z"/>
<path d="M10 385 l0 -385 385 0 385 0 -2 383 -3 382 -382 3 -383 2 0 -385z
m650 -5 l0 -270 -270 0 -270 0 0 270 0 270 270 0 270 0 0 -270z"/>
<path d="M220 385 l0 -165 170 0 170 0 0 165 0 165 -170 0 -170 0 0 -165z"/>
<path d="M2630 55 l0 -55 55 0 55 0 0 55 0 55 -55 0 -55 0 0 -55z"/>
</g>
</svg>
