<?xml version="1.0" standalone="no"?>
<!DOCTYPE svg PUBLIC "-//W3C//DTD SVG 20010904//EN"
 "http://www.w3.org/TR/2001/REC-SVG-20010904/DTD/svg10.dtd">
<svg version="1.0" xmlns="http://www.w3.org/2000/svg"
 width="468pt" height="603pt" viewBox="0 0 468 603"
 preserveAspectRatio="xMidYMid meet">
<metadata>
Created by potrace 1.8, written by Peter Selinger 2001-2007
</metadata>
<g transform="translate(0,603) scale(0.243750,-0.243750)"
fill="#000000" stroke="none">
<path d="M525 2451 c-63 -28 -228 -219 -287 -331 -22 -43 -23 -56 -26 -276
l-3 -231 -56 -6 c-60 -6 -93 -25 -127 -71 -21 -27 -21 -36 -21 -730 0 -782 -4
-732 68 -776 31 -19 57 -20 880 -20 932 0 892 -3 938 61 l24 34 0 702 c0 693
0 702 -21 729 -38 51 -68 66 -144 72 l-71 5 3 226 c3 213 2 229 -18 271 -47
100 -232 311 -299 341 -36 17 -74 19 -420 19 -346 0 -384 -2 -420 -19z m832
-263 c33 -40 74 -95 92 -122 l31 -50 0 -203 0 -203 -535 0 -535 0 0 203 0 202
44 65 c24 36 67 91 96 123 l52 57 347 0 347 0 61 -72z m423 -1383 l0 -665
-820 0 -820 0 0 100 0 100 439 0 440 0 20 26 c27 35 26 59 -4 89 l-24 25 -436
0 -435 0 0 110 0 110 435 0 436 0 24 25 c32 31 32 59 0 90 l-24 25 -436 0
-435 0 0 110 0 110 435 0 436 0 24 25 c32 31 32 59 0 90 l-24 25 -436 0 -435
0 0 135 0 135 820 0 820 0 0 -665z"/>
</g>
</svg>
