<?xml version="1.0" standalone="no"?>
<!DOCTYPE svg PUBLIC "-//W3C//DTD SVG 20010904//EN"
 "http://www.w3.org/TR/2001/REC-SVG-20010904/DTD/svg10.dtd">
<svg version="1.0" xmlns="http://www.w3.org/2000/svg"
 width="468pt" height="464pt" viewBox="0 0 468 464"
 preserveAspectRatio="xMidYMid meet">
<metadata>
Created by potrace 1.8, written by Peter Selinger 2001-2007
</metadata>
<g transform="translate(0,464) scale(0.157047,-0.157047)"
fill="#000000" stroke="none">
<path d="M746 2400 c-456 -346 -731 -561 -736 -576 -12 -30 2 -69 29 -83 11
-6 65 -11 120 -11 l101 0 0 -800 c0 -670 2 -805 14 -828 20 -38 65 -77 105
-91 25 -8 335 -11 1118 -11 957 0 1088 2 1121 16 51 21 90 61 102 103 6 22 10
336 10 824 l0 787 96 0 c52 0 104 5 115 11 27 14 41 53 29 83 -10 27 -1440
1117 -1475 1123 -15 4 -205 -135 -749 -547z m1844 -1460 c0 -770 0 -790 -19
-800 -13 -7 -367 -10 -1076 -10 -709 0 -1063 3 -1076 10 -19 10 -19 30 -19
800 l0 790 1095 0 1095 0 0 -790z"/>
<path d="M1346 1514 c-21 -21 -20 -37 3 -58 15 -14 24 -15 39 -7 28 15 33 35
16 60 -18 25 -37 27 -58 5z"/>
<path d="M893 1387 c-151 -111 -242 -293 -243 -483 0 -79 31 -200 72 -276 138
-259 464 -373 743 -262 74 30 100 54 90 83 -11 36 -41 44 -91 25 -62 -23 -130
-13 -229 34 -177 86 -295 212 -334 359 -52 193 -22 386 73 458 43 33 50 52 31
81 -22 34 -45 30 -112 -19z m-78 -564 c13 -44 42 -106 63 -139 45 -68 155
-177 227 -224 l50 -32 -35 6 c-156 28 -322 193 -359 357 -14 61 -13 181 1 237
l13 47 7 -86 c4 -47 19 -122 33 -166z"/>
<path d="M1230 1225 c-15 -18 -5 -35 21 -35 12 0 19 7 19 19 0 24 -25 34 -40
16z"/>
<path d="M1490 1219 c-14 -25 -8 -44 19 -58 15 -8 24 -7 42 8 21 16 22 22 11
45 -15 33 -56 36 -72 5z"/>
<path d="M1621 1164 c-13 -9 -29 -32 -37 -50 l-14 -34 -71 0 c-43 0 -81 -6
-99 -15 -35 -18 -60 -62 -60 -103 0 -23 -6 -31 -23 -36 -12 -3 -36 -19 -52
-36 -29 -30 -30 -35 -30 -121 l0 -91 37 -34 38 -34 141 0 c136 0 142 -1 171
-25 30 -25 30 -25 247 -25 216 0 219 0 255 25 28 19 50 25 90 25 62 0 100 24
122 76 21 50 18 200 -4 244 -20 41 -71 70 -124 70 l-38 0 0 45 c0 52 -19 96
-52 119 -34 24 -463 23 -497 0z"/>
</g>
</svg>
