<?xml version="1.0" standalone="no"?>
<!DOCTYPE svg PUBLIC "-//W3C//DTD SVG 20010904//EN"
 "http://www.w3.org/TR/2001/REC-SVG-20010904/DTD/svg10.dtd">
<svg version="1.0" xmlns="http://www.w3.org/2000/svg"
 width="468pt" height="464pt" viewBox="0 0 468 464"
 preserveAspectRatio="xMidYMid meet">
<metadata>
Created by potrace 1.8, written by Peter Selinger 2001-2007
</metadata>
<g transform="translate(0,464) scale(0.157047,-0.157047)"
fill="#000000" stroke="none">
<path d="M746 2400 c-456 -346 -731 -561 -736 -576 -12 -30 2 -69 29 -83 11
-6 65 -11 120 -11 l101 0 0 -800 c0 -670 2 -805 14 -828 20 -38 65 -77 105
-91 25 -8 335 -11 1118 -11 957 0 1088 2 1121 16 51 21 90 61 102 103 6 22 10
336 10 824 l0 787 96 0 c52 0 104 5 115 11 27 14 41 53 29 83 -10 27 -1440
1117 -1475 1123 -15 4 -205 -135 -749 -547z m1844 -1460 c0 -770 0 -790 -19
-800 -13 -7 -367 -10 -1076 -10 -709 0 -1063 3 -1076 10 -19 10 -19 30 -19
800 l0 790 1095 0 1095 0 0 -790z"/>
<path d="M464 1506 c-11 -18 -13 -30 -6 -42 5 -9 72 -56 148 -104 l139 -87 3
-487 2 -486 -28 0 c-33 0 -52 -16 -52 -45 0 -38 19 -45 127 -45 99 0 104 1
114 24 15 32 -4 66 -36 66 l-25 0 0 263 c0 210 3 274 16 318 8 30 24 84 35
122 12 41 24 65 30 61 6 -3 24 -35 40 -70 25 -57 31 -64 57 -64 19 0 39 12 66
39 52 53 46 76 -32 118 -32 18 -77 53 -101 78 -43 46 -75 57 -99 33 -9 -9 -12
-2 -12 35 0 46 2 49 46 75 143 85 229 148 232 170 8 51 4 52 -334 52 l-314 0
-16 -24z m411 -97 c-77 -52 -80 -52 -135 -18 -27 17 -50 33 -50 35 0 2 48 4
108 4 l107 0 -30 -21z"/>
<path d="M1498 1365 c-14 -8 -37 -32 -50 -52 -21 -34 -23 -52 -26 -175 l-4
-138 71 0 71 0 0 125 0 125 280 0 280 0 0 -125 0 -125 71 0 71 0 -4 138 c-3
120 -6 141 -25 172 -43 70 -45 70 -395 70 -253 -1 -318 -4 -340 -15z"/>
<path d="M1232 944 c-43 -30 -52 -65 -52 -194 0 -129 9 -164 52 -194 12 -9 34
-16 49 -16 25 0 26 -2 31 -67 8 -104 46 -165 117 -188 13 -4 35 -20 49 -36 13
-16 34 -29 46 -29 27 0 66 27 66 46 0 12 38 14 246 14 l246 0 28 -30 c35 -37
64 -38 98 -2 15 15 41 34 58 41 39 15 79 56 93 94 6 16 11 57 11 93 l0 64 33
0 c18 0 43 7 55 16 43 30 52 65 52 196 0 105 -3 128 -20 156 -28 45 -53 52
-192 52 l-120 0 -34 -34 c-22 -22 -35 -47 -40 -73 l-6 -40 -136 -6 c-74 -4
-188 -7 -254 -7 l-118 0 0 25 c0 39 -25 89 -55 113 -25 20 -40 22 -154 22 -99
0 -131 -3 -149 -16z m218 -194 l0 -80 393 2 392 3 3 78 3 77 69 0 70 0 0 -80
0 -80 -70 0 -70 0 0 -118 c0 -78 -4 -122 -12 -130 -9 -9 -109 -12 -389 -12
-334 0 -378 2 -383 16 -3 9 -6 67 -6 130 l0 114 -70 0 -70 0 0 80 0 80 70 0
70 0 0 -80z"/>
</g>
</svg>
