<?xml version="1.0" standalone="no"?>
<!DOCTYPE svg PUBLIC "-//W3C//DTD SVG 20010904//EN"
 "http://www.w3.org/TR/2001/REC-SVG-20010904/DTD/svg10.dtd">
<svg version="1.0" xmlns="http://www.w3.org/2000/svg"
 width="468pt" height="464pt" viewBox="0 0 468 464"
 preserveAspectRatio="xMidYMid meet">
<metadata>
Created by potrace 1.8, written by Peter Selinger 2001-2007
</metadata>
<g transform="translate(0,464) scale(0.157047,-0.157047)"
fill="#000000" stroke="none">
<path d="M746 2400 c-456 -346 -731 -561 -736 -576 -12 -30 2 -69 29 -83 11
-6 65 -11 120 -11 l101 0 0 -800 c0 -670 2 -805 14 -828 20 -38 65 -77 105
-91 25 -8 335 -11 1118 -11 957 0 1088 2 1121 16 51 21 90 61 102 103 6 22 10
336 10 824 l0 787 96 0 c52 0 104 5 115 11 27 14 41 53 29 83 -10 27 -1440
1117 -1475 1123 -15 4 -205 -135 -749 -547z m1844 -1460 c0 -770 0 -790 -19
-800 -13 -7 -367 -10 -1076 -10 -709 0 -1063 3 -1076 10 -19 10 -19 30 -19
800 l0 790 1095 0 1095 0 0 -790z"/>
<path d="M1428 1634 c-56 -30 -79 -126 -44 -179 87 -133 294 -29 233 118 -29
67 -122 98 -189 61z"/>
<path d="M1377 1342 c-15 -17 -17 -69 -17 -546 0 -344 4 -534 10 -547 12 -22
68 -27 88 -7 9 9 12 78 12 250 l0 238 25 0 25 0 0 -233 c0 -214 2 -235 18
-250 22 -20 63 -22 80 -5 9 9 12 145 12 548 0 507 -1 538 -18 553 -28 26 -212
24 -235 -1z"/>
<path d="M1275 1317 c-3 -7 -4 -123 -3 -257 l3 -245 23 -3 c50 -7 52 2 52 257
0 171 -3 240 -12 249 -16 16 -57 15 -63 -1z"/>
<path d="M1650 1311 c-6 -12 -10 -108 -10 -241 0 -133 4 -229 10 -241 6 -11
21 -19 35 -19 14 0 29 8 35 19 6 12 10 108 10 241 0 133 -4 229 -10 241 -6 11
-21 19 -35 19 -14 0 -29 -8 -35 -19z"/>
</g>
</svg>
