<?xml version="1.0" standalone="no"?>
<!DOCTYPE svg PUBLIC "-//W3C//DTD SVG 20010904//EN"
 "http://www.w3.org/TR/2001/REC-SVG-20010904/DTD/svg10.dtd">
<svg version="1.0" xmlns="http://www.w3.org/2000/svg"
 width="468pt" height="594pt" viewBox="0 0 468 594"
 preserveAspectRatio="xMidYMid meet">
<metadata>
Created by potrace 1.8, written by Peter Selinger 2001-2007
</metadata>
<g transform="translate(0,594) scale(0.200000,-0.200000)"
fill="#000000" stroke="none">
<path d="M49 2956 c-13 -6 -29 -23 -35 -36 -7 -17 -9 -448 -6 -1418 l4 -1393
29 -34 c59 -66 56 -66 634 -63 504 3 521 4 555 24 19 11 45 35 57 54 l23 33 0
813 0 814 105 0 c92 0 108 3 125 20 26 26 25 63 -2 94 -27 29 -1425 1089
-1449 1098 -9 4 -27 1 -40 -6z m1131 -2001 l0 -795 -26 -10 c-14 -6 -89 -10
-167 -10 l-142 0 3 447 c4 490 0 532 -47 577 -41 39 -79 46 -266 46 -157 0
-174 -2 -215 -22 -82 -42 -80 -26 -80 -570 l0 -478 -24 0 c-14 0 -36 4 -50 10
l-26 10 0 795 0 795 520 0 520 0 0 -795z m-470 -345 l0 -460 -170 0 -170 0 0
460 0 460 170 0 170 0 0 -460z"/>
<path d="M2091 1413 c-43 -22 -76 -89 -65 -136 15 -68 62 -107 130 -107 83 0
150 87 125 163 -27 80 -116 118 -190 80z"/>
<path d="M2047 1118 c-54 -87 -117 -209 -117 -224 0 -11 22 -36 51 -59 l51
-40 -7 -225 c-6 -216 -8 -230 -41 -345 -19 -66 -34 -129 -34 -141 0 -37 53
-64 83 -41 27 19 97 267 98 347 1 61 15 146 18 108 0 -9 12 -113 26 -230 22
-186 28 -215 46 -230 27 -23 41 -23 70 1 l23 18 -32 274 c-18 151 -32 287 -32
302 0 26 1 27 16 13 20 -21 37 -20 58 3 17 18 15 24 -28 124 -46 104 -46 105
-46 219 0 144 -3 148 -113 148 -69 0 -78 -2 -90 -22z"/>
</g>
</svg>
