<?xml version="1.0" standalone="no"?>
<!DOCTYPE svg PUBLIC "-//W3C//DTD SVG 20010904//EN"
 "http://www.w3.org/TR/2001/REC-SVG-20010904/DTD/svg10.dtd">
<svg version="1.0" xmlns="http://www.w3.org/2000/svg"
 width="468pt" height="464pt" viewBox="0 0 468 464"
 preserveAspectRatio="xMidYMid meet">
<metadata>
Created by potrace 1.8, written by Peter Selinger 2001-2007
</metadata>
<g transform="translate(0,464) scale(0.157047,-0.157047)"
fill="#000000" stroke="none">
<path d="M746 2400 c-456 -346 -731 -561 -736 -576 -12 -30 2 -69 29 -83 11
-6 65 -11 120 -11 l101 0 0 -800 c0 -670 2 -805 14 -828 20 -38 65 -77 105
-91 25 -8 335 -11 1118 -11 957 0 1088 2 1121 16 51 21 90 61 102 103 6 22 10
336 10 824 l0 787 96 0 c52 0 104 5 115 11 27 14 41 53 29 83 -10 27 -1440
1117 -1475 1123 -15 4 -205 -135 -749 -547z m1844 -1460 c0 -770 0 -790 -19
-800 -13 -7 -367 -10 -1076 -10 -709 0 -1063 3 -1076 10 -19 10 -19 30 -19
800 l0 790 1095 0 1095 0 0 -790z"/>
<path d="M1888 1645 c-30 -30 -38 -62 -38 -159 -1 -66 -2 -69 -15 -45 -22 41
-50 48 -184 42 -175 -8 -162 25 -159 -391 l3 -335 28 -21 c23 -17 46 -21 130
-24 123 -5 172 10 190 58 l11 29 11 -32 c15 -46 45 -57 163 -57 119 0 167 15
182 56 7 17 10 176 8 441 l-3 415 -28 24 c-26 23 -36 24 -151 24 -118 0 -124
-1 -148 -25z m232 -455 l0 -380 -85 0 -85 0 0 380 0 380 85 0 85 0 0 -380z
m-370 -90 l0 -290 -85 0 -85 0 0 290 0 290 85 0 85 0 0 -290z"/>
<path d="M1170 1322 c-40 -19 -59 -61 -59 -131 l-1 -44 -26 24 c-24 23 -32 24
-154 24 -122 0 -130 -1 -154 -24 -34 -32 -37 -56 -28 -256 l7 -170 35 -18 c29
-15 55 -17 152 -15 107 3 118 5 142 27 14 14 26 32 26 40 0 9 9 2 20 -16 24
-40 67 -53 178 -53 90 0 144 16 161 48 7 13 11 110 11 269 0 286 0 285 -80
302 -79 17 -189 14 -230 -7z m210 -297 l0 -215 -85 0 -85 0 0 215 0 215 85 0
85 0 0 -215z m-370 -70 l0 -145 -85 0 -85 0 0 145 0 145 85 0 85 0 0 -145z
m107 -118 c-2 -23 -3 -1 -3 48 0 50 1 68 3 42 2 -26 2 -67 0 -90z"/>
<path d="M2002 620 c-18 -4 -45 -18 -59 -31 -46 -43 -57 -78 -57 -169 0 -59 5
-94 16 -115 55 -103 184 -122 257 -40 39 44 46 71 46 165 -1 59 -6 84 -24 116
-36 64 -105 93 -179 74z m83 -85 c23 -22 25 -32 25 -115 0 -83 -2 -93 -25
-115 -31 -31 -49 -31 -80 0 -23 22 -25 32 -25 115 0 83 2 93 25 115 13 14 31
25 40 25 9 0 27 -11 40 -25z"/>
<path d="M840 435 c-33 -102 -60 -192 -60 -200 0 -11 12 -15 44 -15 43 0 43 0
52 43 l9 42 61 3 61 3 12 -46 11 -45 46 0 46 0 -6 34 c-8 40 -68 235 -98 314
l-19 52 -49 0 -49 0 -61 -185z m134 20 c9 -32 16 -63 16 -67 0 -4 -18 -8 -40
-8 -29 0 -40 4 -40 15 0 31 34 135 41 128 4 -4 15 -35 23 -68z"/>
<path d="M1160 470 c0 -173 9 -209 62 -236 43 -23 142 -23 184 -1 54 28 64 66
64 236 l0 151 -45 0 -45 0 0 -150 c0 -137 -2 -152 -20 -170 -11 -11 -31 -20
-45 -20 -14 0 -34 9 -45 20 -18 18 -20 33 -20 170 l0 150 -45 0 -45 0 0 -150z"/>
<path d="M1514 606 c-15 -38 0 -51 58 -54 l58 -3 2 -162 3 -162 45 0 45 0 3
162 2 162 58 3 c56 3 57 4 57 33 l0 30 -163 3 c-135 2 -163 0 -168 -12z"/>
</g>
</svg>
