<?xml version="1.0" standalone="no"?>
<!DOCTYPE svg PUBLIC "-//W3C//DTD SVG 20010904//EN"
 "http://www.w3.org/TR/2001/REC-SVG-20010904/DTD/svg10.dtd">
<svg version="1.0" xmlns="http://www.w3.org/2000/svg"
 width="468pt" height="464pt" viewBox="0 0 468 464"
 preserveAspectRatio="xMidYMid meet">
<metadata>
Created by potrace 1.8, written by Peter Selinger 2001-2007
</metadata>
<g transform="translate(0,464) scale(0.157047,-0.157047)"
fill="#000000" stroke="none">
<path d="M746 2400 c-456 -346 -731 -561 -736 -576 -12 -30 2 -69 29 -83 11
-6 65 -11 120 -11 l101 0 0 -800 c0 -670 2 -805 14 -828 20 -38 65 -77 105
-91 25 -8 335 -11 1118 -11 957 0 1088 2 1121 16 51 21 90 61 102 103 6 22 10
336 10 824 l0 787 96 0 c52 0 104 5 115 11 27 14 41 53 29 83 -10 27 -1440
1117 -1475 1123 -15 4 -205 -135 -749 -547z m1844 -1460 c0 -770 0 -790 -19
-800 -13 -7 -367 -10 -1076 -10 -709 0 -1063 3 -1076 10 -19 10 -19 30 -19
800 l0 790 1095 0 1095 0 0 -790z"/>
<path d="M1464 1496 c-18 -14 -19 -31 -22 -348 -2 -356 0 -380 46 -386 52 -8
52 -7 52 374 0 339 -1 354 -19 364 -26 13 -33 13 -57 -4z"/>
<path d="M1106 1405 c-54 -19 -113 -79 -131 -136 -14 -40 -16 -101 -13 -401 3
-343 4 -354 25 -395 29 -53 84 -98 139 -112 26 -7 166 -11 367 -11 378 0 400
4 465 74 23 25 45 61 50 83 6 21 13 187 16 369 5 282 4 339 -10 383 -32 109
-126 161 -293 161 -98 0 -121 -10 -121 -50 0 -41 23 -50 130 -50 107 0 151
-15 180 -62 19 -31 20 -50 20 -368 0 -376 -2 -389 -70 -422 -31 -16 -71 -18
-376 -18 -331 0 -342 1 -368 21 -55 43 -56 49 -56 419 0 377 1 384 63 417 25
14 55 18 133 18 105 0 134 10 134 45 0 9 -8 24 -18 33 -24 22 -207 23 -266 2z"/>
</g>
</svg>
