<?xml version="1.0" standalone="no"?>
<!DOCTYPE svg PUBLIC "-//W3C//DTD SVG 20010904//EN"
 "http://www.w3.org/TR/2001/REC-SVG-20010904/DTD/svg10.dtd">
<svg version="1.0" xmlns="http://www.w3.org/2000/svg"
 width="468pt" height="577pt" viewBox="0 0 468 577"
 preserveAspectRatio="xMidYMid meet">
<metadata>
Created by potrace 1.8, written by Peter Selinger 2001-2007
</metadata>
<g transform="translate(0,577) scale(0.194191,-0.194191)"
fill="#000000" stroke="none">
<path d="M49 2956 c-13 -6 -29 -23 -35 -36 -7 -17 -9 -448 -6 -1418 l4 -1393
29 -34 c59 -66 56 -66 634 -63 504 3 521 4 555 24 19 11 45 35 57 54 l23 33 0
813 0 814 105 0 c92 0 108 3 125 20 26 26 25 63 -2 94 -27 29 -1425 1089
-1449 1098 -9 4 -27 1 -40 -6z m1131 -2001 l0 -795 -26 -10 c-14 -6 -89 -10
-167 -10 l-142 0 3 447 c4 490 0 532 -47 577 -41 39 -79 46 -266 46 -157 0
-174 -2 -215 -22 -82 -42 -80 -26 -80 -570 l0 -478 -24 0 c-14 0 -36 4 -50 10
l-26 10 0 795 0 795 520 0 520 0 0 -795z m-470 -345 l0 -460 -170 0 -170 0 0
460 0 460 170 0 170 0 0 -460z"/>
<path d="M2125 1440 c-91 -37 -99 -178 -12 -230 117 -72 251 68 174 181 -12
18 -34 39 -47 46 -28 14 -85 16 -115 3z"/>
<path d="M2060 1140 c-19 -19 -20 -33 -20 -549 0 -587 -2 -566 64 -559 51 5
56 27 56 276 0 215 1 222 20 222 19 0 20 -7 20 -228 0 -251 5 -272 58 -272 60
0 57 -28 60 537 1 285 0 528 -3 540 -11 46 -30 53 -136 53 -86 0 -102 -3 -119
-20z"/>
<path d="M1961 1116 c-8 -9 -11 -84 -9 -251 3 -214 5 -239 21 -249 12 -8 22
-8 35 0 15 10 17 35 20 249 2 245 0 265 -38 265 -10 0 -23 -6 -29 -14z"/>
<path d="M2341 1116 c-8 -9 -11 -86 -9 -257 l3 -244 23 -3 c50 -7 52 2 52 257
0 171 -3 240 -12 249 -16 16 -43 15 -57 -2z"/>
</g>
</svg>
