<?xml version="1.0" standalone="no"?>
<!DOCTYPE svg PUBLIC "-//W3C//DTD SVG 20010904//EN"
 "http://www.w3.org/TR/2001/REC-SVG-20010904/DTD/svg10.dtd">
<svg version="1.0" xmlns="http://www.w3.org/2000/svg"
 width="468pt" height="464pt" viewBox="0 0 468 464"
 preserveAspectRatio="xMidYMid meet">
<metadata>
Created by potrace 1.8, written by Peter Selinger 2001-2007
</metadata>
<g transform="translate(0,464) scale(0.157047,-0.157047)"
fill="#000000" stroke="none">
<path d="M746 2400 c-456 -346 -731 -561 -736 -576 -12 -30 2 -69 29 -83 11
-6 65 -11 120 -11 l101 0 0 -800 c0 -670 2 -805 14 -828 20 -38 65 -77 105
-91 25 -8 335 -11 1118 -11 957 0 1088 2 1121 16 51 21 90 61 102 103 6 22 10
336 10 824 l0 787 96 0 c52 0 104 5 115 11 27 14 41 53 29 83 -10 27 -1440
1117 -1475 1123 -15 4 -205 -135 -749 -547z m1844 -1460 c0 -770 0 -790 -19
-800 -13 -7 -367 -10 -1076 -10 -709 0 -1063 3 -1076 10 -19 10 -19 30 -19
800 l0 790 1095 0 1095 0 0 -790z"/>
<path d="M1033 1600 c-47 -19 -48 -27 -51 -510 -2 -360 -5 -457 -16 -465 -28
-22 -36 -57 -36 -165 0 -126 14 -176 53 -185 14 -4 89 -5 167 -3 185 4 180 -2
180 183 0 128 -1 135 -25 163 l-25 30 0 455 c0 497 3 475 -57 498 -30 11 -161
11 -190 -1z m147 -450 l0 -360 -50 0 -50 0 0 360 0 360 50 0 50 0 0 -360z"/>
<path d="M1320 1520 c-48 -48 -14 -80 84 -80 77 0 96 9 96 46 0 40 -26 54 -96
54 -51 0 -68 -4 -84 -20z"/>
<path d="M1310 1281 c-14 -28 -13 -38 10 -61 15 -15 33 -20 78 -20 66 0 102
19 102 54 0 37 -19 46 -102 46 -66 0 -79 -3 -88 -19z"/>
<path d="M1309 1039 c-15 -29 3 -67 36 -75 40 -10 136 1 146 17 12 20 11 53
-3 67 -7 7 -43 12 -90 12 -69 0 -79 -2 -89 -21z"/>
<path d="M1847 936 c-8 -8 -20 -14 -28 -14 -40 2 -50 -3 -55 -32 -6 -25 -9
-28 -26 -19 -25 13 -55 3 -63 -22 -4 -10 -13 -19 -20 -19 -21 0 -48 -46 -40
-69 3 -10 1 -22 -5 -26 -17 -10 -11 -53 9 -67 20 -14 20 -14 0 -26 -20 -13
-26 -56 -9 -67 6 -4 8 -16 5 -26 -8 -23 19 -69 40 -69 7 0 17 -9 20 -20 3 -11
17 -23 31 -26 36 -9 64 20 64 65 0 30 5 40 30 54 l30 18 0 -38 c-1 -32 -6 -41
-33 -58 -52 -33 -46 -95 10 -95 13 0 35 -7 48 -16 23 -15 27 -15 50 0 13 9 35
16 48 16 27 0 47 17 47 42 0 11 5 15 15 12 25 -10 63 5 70 26 3 11 13 20 20
20 21 0 45 41 39 66 -3 12 -1 25 5 28 18 11 12 54 -8 68 -19 14 -19 14 1 27
15 10 19 19 13 39 -3 15 -8 43 -10 62 -2 19 -12 40 -21 45 -9 6 -30 22 -46 38
-33 31 -32 31 -59 17 -16 -9 -19 -7 -19 9 0 23 -43 56 -60 46 -5 -3 -17 1 -26
9 -19 20 -48 20 -67 2z m-17 -162 l0 -35 -29 15 c-23 12 -30 23 -33 54 l-3 38
32 -19 c27 -16 33 -25 33 -53z m160 31 c0 -28 -5 -37 -30 -50 l-30 -16 0 35
c0 24 7 38 23 49 32 23 37 21 37 -18z m-239 -134 l31 -19 -30 -16 c-29 -15
-34 -15 -66 1 l-35 16 32 18 c18 10 33 18 34 18 2 1 17 -8 34 -18z m348 -17
c2 -2 -12 -11 -31 -20 -33 -15 -37 -15 -62 1 l-27 18 28 17 c25 16 31 16 58 2
17 -8 32 -16 34 -18z m-131 -110 c16 -11 22 -25 22 -50 l0 -35 -30 18 c-24 14
-30 24 -30 50 0 37 6 40 38 17z"/>
<path d="M1317 792 c-42 -46 -6 -82 82 -82 78 0 101 11 101 50 0 39 -23 50
-103 50 -49 0 -68 -4 -80 -18z"/>
</g>
</svg>
