<?xml version="1.0" standalone="no"?>
<!DOCTYPE svg PUBLIC "-//W3C//DTD SVG 20010904//EN"
 "http://www.w3.org/TR/2001/REC-SVG-20010904/DTD/svg10.dtd">
<svg version="1.0" xmlns="http://www.w3.org/2000/svg"
 width="468pt" height="464pt" viewBox="0 0 468 464"
 preserveAspectRatio="xMidYMid meet">
<metadata>
Created by potrace 1.8, written by Peter Selinger 2001-2007
</metadata>
<g transform="translate(0,464) scale(0.157047,-0.157047)"
fill="#000000" stroke="none">
<path d="M746 2400 c-456 -346 -731 -561 -736 -576 -12 -30 2 -69 29 -83 11
-6 65 -11 120 -11 l101 0 0 -800 c0 -670 2 -805 14 -828 20 -38 65 -77 105
-91 25 -8 335 -11 1118 -11 957 0 1088 2 1121 16 51 21 90 61 102 103 6 22 10
336 10 824 l0 787 96 0 c52 0 104 5 115 11 27 14 41 53 29 83 -10 27 -1440
1117 -1475 1123 -15 4 -205 -135 -749 -547z m1844 -1460 c0 -770 0 -790 -19
-800 -13 -7 -367 -10 -1076 -10 -709 0 -1063 3 -1076 10 -19 10 -19 30 -19
800 l0 790 1095 0 1095 0 0 -790z"/>
<path d="M1214 1387 c-28 -30 -64 -76 -80 -103 -26 -45 -29 -59 -33 -161 l-3
-112 -28 -6 c-15 -3 -36 -15 -46 -27 -18 -19 -19 -46 -22 -378 l-3 -358 25
-29 24 -28 437 -3 c488 -3 475 -5 495 65 8 26 10 150 8 374 -3 379 -2 373 -80
385 l-38 7 0 106 c0 119 -7 141 -76 232 -68 88 -70 89 -315 89 l-213 0 -52
-53z m488 -142 c38 -49 38 -51 38 -142 l0 -93 -250 0 -250 0 0 98 0 97 38 47
37 47 175 -2 174 -2 38 -50z m188 -650 l0 -315 -395 0 -395 0 0 35 0 35 220 0
c213 0 220 1 231 21 8 16 8 28 0 45 l-11 24 -220 0 -220 0 0 45 0 45 220 0
220 0 11 24 c8 17 8 29 0 45 -11 20 -18 21 -231 21 l-220 0 0 45 0 45 220 0
c210 0 220 1 230 20 15 28 3 59 -27 71 -13 5 -114 9 -224 9 l-199 0 0 50 0 50
395 0 395 0 0 -315z"/>
</g>
</svg>
