<?xml version="1.0" standalone="no"?>
<!DOCTYPE svg PUBLIC "-//W3C//DTD SVG 20010904//EN"
 "http://www.w3.org/TR/2001/REC-SVG-20010904/DTD/svg10.dtd">
<svg version="1.0" xmlns="http://www.w3.org/2000/svg"
 width="468pt" height="506pt" viewBox="0 0 468 506"
 preserveAspectRatio="xMidYMid meet">
<metadata>
Created by potrace 1.8, written by Peter Selinger 2001-2007
</metadata>
<g transform="translate(0,506) scale(0.171429,-0.171429)"
fill="#000000" stroke="none">
<path d="M202 2930 c-32 -15 -47 -30 -62 -62 -19 -42 -20 -74 -20 -1075 l0
-1031 -37 -19 c-21 -10 -47 -34 -58 -53 -19 -33 -20 -52 -20 -310 0 -403 -25
-380 410 -380 330 0 345 2 389 63 20 27 21 41 21 317 0 277 -1 290 -21 317
-11 15 -37 37 -57 48 l-37 20 0 1035 c0 966 -1 1037 -18 1069 -36 71 -51 76
-260 79 -168 2 -191 0 -230 -18z m378 -835 l0 -715 -160 0 -160 0 0 715 0 715
160 0 160 0 0 -715z"/>
<path d="M766 2778 c-9 -12 -16 -32 -16 -43 0 -11 7 -31 16 -43 14 -21 21 -22
168 -22 170 0 186 6 186 67 0 56 -19 63 -188 63 -145 0 -152 -1 -166 -22z"/>
<path d="M1406 2341 c-67 -23 -85 -36 -69 -52 7 -7 27 -5 68 7 95 27 176 16
326 -44 251 -101 278 -102 476 -22 70 29 148 58 173 66 61 19 142 18 207 -3
43 -13 56 -14 66 -4 19 19 -14 38 -100 57 -100 22 -135 16 -313 -55 -227 -91
-277 -94 -432 -26 -203 91 -301 109 -402 76z"/>
<path d="M766 2248 c-21 -30 -20 -61 3 -89 19 -23 24 -24 164 -24 128 0 147 2
166 19 25 23 27 63 5 94 -15 21 -21 22 -169 22 -148 0 -154 -1 -169 -22z"/>
<path d="M1405 2249 c-97 -22 -145 -40 -145 -54 0 -25 16 -25 116 1 127 33
177 29 319 -26 204 -78 220 -83 290 -87 76 -5 86 -2 302 86 137 56 197 61 327
26 79 -20 101 -23 107 -13 13 21 -11 35 -103 57 -152 37 -202 30 -428 -62
-108 -44 -134 -51 -195 -51 -62 0 -85 6 -195 51 -69 28 -149 58 -179 67 -59
17 -152 19 -216 5z"/>
<path d="M1388 2148 c-52 -18 -72 -38 -50 -51 4 -3 43 4 87 15 98 25 147 18
305 -46 251 -103 275 -104 485 -19 225 90 258 95 379 56 41 -13 50 -13 57 -2
13 21 -9 36 -81 55 -103 26 -161 16 -340 -57 -148 -60 -159 -63 -240 -63 -80
-1 -92 2 -205 51 -208 89 -284 101 -397 61z"/>
<path d="M776 1709 c-32 -25 -35 -70 -6 -99 18 -18 33 -20 165 -20 132 0 147
2 165 20 29 29 26 74 -6 99 -24 19 -40 21 -159 21 -119 0 -135 -2 -159 -21z"/>
<path d="M1755 1434 c-203 -91 -395 -171 -425 -179 -55 -14 -80 -35 -80 -64 1
-36 70 -285 83 -298 19 -19 41 -19 122 0 39 10 243 35 455 57 l385 39 147 153
147 153 1 -632 0 -632 22 -15 c30 -21 61 -20 89 3 l24 19 0 685 c0 659 -1 686
-19 706 -11 12 -30 21 -43 21 -13 0 -137 34 -276 75 -138 41 -253 75 -257 74
-3 -1 -171 -75 -375 -165z m382 -161 c23 -87 41 -158 40 -159 -1 -1 -24 -4
-51 -5 l-50 -4 -33 130 c-18 72 -33 138 -33 147 0 16 46 45 75 47 6 1 29 -70
52 -156z m-259 -73 l30 -120 -32 0 c-17 0 -47 -3 -66 -6 l-36 -6 -24 101 c-13
55 -21 103 -19 105 8 8 93 45 105 45 6 1 25 -53 42 -119z m-298 -37 c5 -21 13
-55 16 -75 6 -37 5 -38 -22 -38 -16 0 -38 -3 -50 -6 -19 -5 -23 1 -37 56 l-15
62 41 19 c23 10 45 19 49 19 4 0 12 -17 18 -37z"/>
<path d="M766 1128 c-9 -12 -16 -32 -16 -43 0 -11 7 -31 16 -43 14 -21 21 -22
168 -22 170 0 186 6 186 67 0 56 -19 63 -188 63 -145 0 -152 -1 -166 -22z"/>
</g>
</svg>
