<?xml version="1.0" standalone="no"?>
<!DOCTYPE svg PUBLIC "-//W3C//DTD SVG 20010904//EN"
 "http://www.w3.org/TR/2001/REC-SVG-20010904/DTD/svg10.dtd">
<svg version="1.0" xmlns="http://www.w3.org/2000/svg"
 width="468pt" height="508pt" viewBox="0 0 468 508"
 preserveAspectRatio="xMidYMid meet">
<metadata>
Created by potrace 1.8, written by Peter Selinger 2001-2007
</metadata>
<g transform="translate(0,508) scale(0.172059,-0.172059)"
fill="#000000" stroke="none">
<path d="M230 2939 c-19 -6 -46 -20 -59 -32 -53 -49 -51 -8 -51 -1122 0 -941
-1 -1035 -16 -1035 -29 0 -71 -39 -88 -80 -13 -34 -16 -83 -16 -293 0 -284 7
-317 72 -357 31 -19 50 -20 343 -20 436 0 409 -24 413 359 3 227 1 271 -13
308 -18 46 -56 83 -86 83 -18 0 -19 36 -21 1049 -3 1042 -3 1050 -24 1077 -49
66 -59 69 -247 71 -96 1 -188 -3 -207 -8z m340 -259 l0 -130 -155 0 -155 0 0
130 0 130 155 0 155 0 0 -130z"/>
<path d="M770 2780 c-29 -29 -26 -74 6 -99 24 -19 40 -21 161 -21 129 0 135 1
158 25 30 29 32 68 5 95 -18 18 -33 20 -165 20 -132 0 -147 -2 -165 -20z"/>
<path d="M1190 2523 c-25 -32 -20 -69 12 -95 19 -17 69 -18 743 -18 716 0 723
0 749 21 32 25 35 70 6 99 -20 20 -33 20 -754 20 l-735 0 -21 -27z"/>
<path d="M770 2250 c-11 -11 -20 -33 -20 -50 0 -17 9 -39 20 -50 18 -18 33
-20 159 -20 125 0 141 2 165 21 32 25 35 70 6 99 -18 18 -33 20 -165 20 -132
0 -147 -2 -165 -20z"/>
<path d="M1296 2118 c-7 -42 -24 -253 -28 -343 l-3 -70 46 -3 46 -3 7 38 c3
21 6 79 6 128 0 50 4 96 8 103 5 8 24 -28 53 -98 l44 -110 36 0 36 0 49 117
c55 130 50 134 62 -57 l7 -115 49 -3 49 -3 -7 113 c-8 136 -26 320 -33 331 -2
4 -24 7 -47 7 l-43 0 -41 -87 c-22 -49 -48 -107 -57 -131 -20 -48 -24 -46 -49
17 -9 24 -33 80 -53 123 l-36 78 -48 0 c-46 0 -48 -1 -53 -32z"/>
<path d="M1955 2093 c-30 -66 -145 -370 -145 -384 0 -5 22 -9 49 -9 l49 0 17
50 17 50 87 0 87 0 15 -47 15 -48 53 -3 53 -3 -7 28 c-10 43 -88 248 -128 338
l-36 80 -49 3 -50 3 -27 -58z m109 -140 l26 -73 -61 0 c-45 0 -60 3 -57 13 3
6 16 42 29 79 13 37 27 64 30 60 4 -4 19 -40 33 -79z"/>
<path d="M2311 2128 c7 -13 39 -62 71 -111 l59 -87 -40 -53 c-21 -29 -55 -79
-75 -110 -41 -64 -38 -70 35 -65 38 3 46 7 64 39 11 20 32 51 46 70 l26 33 29
-41 c16 -23 37 -55 46 -72 16 -29 21 -31 73 -31 30 0 55 4 55 8 0 11 -105 180
-126 203 -8 8 -14 19 -14 23 0 4 27 47 60 97 83 123 83 119 19 119 l-54 0 -39
-60 c-21 -33 -42 -60 -46 -60 -4 0 -24 27 -44 60 l-37 60 -60 0 c-59 0 -60 0
-48 -22z"/>
<path d="M767 1702 c-22 -25 -21 -75 1 -95 16 -14 43 -17 170 -17 145 0 152 1
166 22 9 12 16 32 16 43 0 11 -7 31 -16 43 -14 21 -21 22 -168 22 -135 0 -155
-2 -169 -18z"/>
<path d="M766 1128 c-22 -31 -20 -71 5 -94 19 -17 38 -19 166 -19 140 0 145 1
164 24 25 30 24 66 -1 91 -18 18 -33 20 -169 20 -144 0 -151 -1 -165 -22z"/>
</g>
</svg>
