<?xml version="1.0" standalone="no"?>
<!DOCTYPE svg PUBLIC "-//W3C//DTD SVG 20010904//EN"
 "http://www.w3.org/TR/2001/REC-SVG-20010904/DTD/svg10.dtd">
<svg version="1.0" xmlns="http://www.w3.org/2000/svg"
 width="468pt" height="468pt" viewBox="0 0 468 468"
 preserveAspectRatio="xMidYMid meet">
<metadata>
Created by potrace 1.8, written by Peter Selinger 2001-2007
</metadata>
<g transform="translate(0,468) scale(0.158108,-0.158108)"
fill="#000000" stroke="none">
<path d="M31 2941 l-21 -21 0 -1402 c0 -1360 1 -1404 19 -1434 11 -18 40 -42
68 -55 l48 -24 515 0 515 0 48 24 c94 46 87 -25 87 898 l0 811 104 4 c85 2
108 6 125 22 26 23 27 67 4 94 -39 44 -1439 1096 -1465 1100 -17 3 -33 -3 -47
-17z m1149 -1995 c0 -715 -2 -794 -16 -800 -9 -3 -83 -6 -164 -6 l-149 0 -3
483 -3 482 -23 33 c-42 58 -60 62 -280 62 -190 0 -201 -1 -233 -23 -70 -46
-69 -38 -69 -564 l0 -473 -34 0 c-72 0 -66 -74 -66 806 l0 794 520 0 520 0 0
-794z m-470 -336 l0 -460 -165 0 -165 0 0 460 0 460 165 0 165 0 0 -460z"/>
<path d="M2173 2190 c-17 -6 -43 -24 -57 -41 l-26 -31 0 -758 0 -759 -30 -17
c-54 -32 -60 -61 -60 -279 0 -162 3 -203 16 -231 29 -60 46 -64 301 -64 245 0
260 3 297 53 19 26 21 44 24 220 4 220 -4 260 -55 292 l-32 20 -1 748 c0 824
2 799 -62 834 -26 13 -60 18 -158 20 -69 1 -139 -2 -157 -7z m237 -595 l0
-465 -95 0 -95 0 0 465 0 465 95 0 95 0 0 -465z"/>
<path d="M2670 2060 c-20 -20 -26 -65 -12 -86 16 -25 56 -34 150 -34 116 0
145 14 145 68 0 61 -22 72 -150 72 -100 0 -115 -2 -133 -20z"/>
<path d="M2666 1668 c-22 -31 -20 -71 5 -94 18 -16 37 -19 135 -19 93 0 116 3
130 17 23 22 22 73 -1 98 -16 18 -31 20 -136 20 -110 0 -119 -1 -133 -22z"/>
<path d="M2667 1272 c-21 -23 -22 -61 -1 -90 14 -21 23 -22 134 -22 117 0 119
0 140 27 15 19 19 35 15 53 -12 47 -20 50 -150 50 -105 0 -124 -2 -138 -18z"/>
<path d="M2690 873 c-42 -15 -54 -79 -20 -113 18 -18 33 -20 129 -20 127 0
154 12 154 70 0 57 -28 70 -147 69 -55 0 -108 -3 -116 -6z"/>
</g>
</svg>
