<?xml version="1.0" standalone="no"?>
<!DOCTYPE svg PUBLIC "-//W3C//DTD SVG 20010904//EN"
 "http://www.w3.org/TR/2001/REC-SVG-20010904/DTD/svg10.dtd">
<svg version="1.0" xmlns="http://www.w3.org/2000/svg"
 width="468pt" height="465pt" viewBox="0 0 468 465"
 preserveAspectRatio="xMidYMid meet">
<metadata>
Created by potrace 1.8, written by Peter Selinger 2001-2007
</metadata>
<g transform="translate(0,465) scale(0.157576,-0.157576)"
fill="#000000" stroke="none">
<path d="M1630 2940 c-625 -76 -1123 -370 -1453 -859 -76 -113 -167 -294 -160
-320 7 -26 49 -61 74 -61 10 0 35 16 56 36 209 199 472 361 723 444 668 221
1359 77 1905 -399 71 -61 101 -81 123 -81 63 0 61 -13 62 514 1 345 -2 481
-10 491 -15 17 -178 81 -327 128 -124 40 -251 69 -400 92 -116 19 -484 28
-593 15z m505 -141 c183 -19 427 -78 613 -149 l82 -32 0 -350 0 -350 -65 51
c-226 178 -506 315 -787 386 -517 132 -1076 51 -1530 -219 l-107 -63 32 45
c49 70 223 241 312 309 407 307 886 430 1450 372z"/>
<path d="M1153 1891 c-17 -11 -37 -29 -42 -40 -8 -13 -11 -231 -11 -674 l0
-654 -25 -13 c-46 -25 -55 -63 -55 -244 0 -267 -1 -266 284 -266 107 0 206 4
220 10 14 5 35 24 46 42 18 30 20 51 20 211 0 189 -7 224 -50 247 -20 11 -20
22 -20 651 0 684 0 679 -50 724 -19 17 -39 20 -154 23 -116 2 -135 1 -163 -17z
m227 -511 l0 -390 -75 0 -75 0 0 390 0 390 75 0 75 0 0 -390z"/>
<path d="M1605 1790 c-26 -29 -24 -79 4 -102 19 -15 41 -18 118 -18 86 0 96 2
118 25 30 30 31 54 4 89 -20 25 -24 26 -123 26 -90 0 -105 -2 -121 -20z"/>
<path d="M22 1578 c-17 -17 -17 -349 0 -366 17 -17 239 -17 256 0 17 17 17
349 0 366 -8 8 -51 12 -128 12 -77 0 -120 -4 -128 -12z m178 -188 l0 -100 -50
0 -50 0 0 100 0 100 50 0 50 0 0 -100z"/>
<path d="M2282 1568 c-8 -8 -12 -65 -12 -190 0 -178 0 -178 24 -189 17 -8 29
-8 45 0 20 11 21 18 21 189 0 187 -3 202 -45 202 -12 0 -26 -5 -33 -12z"/>
<path d="M2396 1564 c-13 -13 -16 -43 -16 -175 0 -92 4 -169 10 -180 10 -17
22 -19 135 -19 113 0 125 2 135 19 5 11 10 86 10 173 0 205 5 198 -145 198
-90 0 -117 -3 -129 -16z m174 -184 l0 -100 -45 0 -45 0 0 100 0 100 45 0 45 0
0 -100z"/>
<path d="M2696 1558 c-13 -18 -16 -53 -16 -173 0 -202 -5 -195 149 -195 78 0
121 4 129 12 8 8 12 64 12 185 0 160 -1 173 -19 183 -11 5 -69 10 -130 10
-102 0 -111 -2 -125 -22z m174 -178 l0 -100 -45 0 -45 0 0 100 0 100 45 0 45
0 0 -100z"/>
<path d="M1602 1458 c-27 -34 -21 -88 12 -110 6 -4 56 -8 112 -8 117 0 138 9
138 63 0 61 -12 67 -139 67 -78 0 -116 -4 -123 -12z"/>
<path d="M1605 1110 c-26 -29 -24 -79 4 -102 19 -15 41 -18 118 -18 86 0 96 2
118 25 30 30 31 54 4 89 -20 25 -24 26 -123 26 -90 0 -105 -2 -121 -20z"/>
<path d="M1609 752 c-15 -13 -22 -30 -22 -52 0 -56 28 -70 140 -70 86 0 96 2
118 25 32 31 32 59 0 90 -22 23 -32 25 -118 25 -77 0 -99 -3 -118 -18z"/>
</g>
</svg>
