<?xml version="1.0" standalone="no"?>
<!DOCTYPE svg PUBLIC "-//W3C//DTD SVG 20010904//EN"
 "http://www.w3.org/TR/2001/REC-SVG-20010904/DTD/svg10.dtd">
<svg version="1.0" xmlns="http://www.w3.org/2000/svg"
 width="468pt" height="472pt" viewBox="0 0 468 472"
 preserveAspectRatio="xMidYMid meet">
<metadata>
Created by potrace 1.8, written by Peter Selinger 2001-2007
</metadata>
<g transform="translate(0,472) scale(0.159184,-0.159184)"
fill="#000000" stroke="none">
<path d="M731 2404 l-721 -556 0 -38 c0 -54 23 -70 98 -70 l62 0 0 -811 c0
-903 -4 -856 69 -901 l36 -23 1190 0 c1179 0 1190 0 1225 20 19 12 43 36 55
55 20 34 20 51 23 847 l3 813 58 0 c42 0 65 5 81 18 26 21 29 62 9 92 -8 10
-205 166 -439 346 -234 180 -552 426 -708 546 -156 120 -292 218 -302 218 -10
0 -342 -250 -739 -556z m1340 -64 l590 -455 -596 -3 c-327 -1 -863 -1 -1190 0
l-594 3 592 457 c326 252 596 456 600 455 4 -1 273 -207 598 -457z m559 -1400
l0 -800 -175 0 -175 0 0 468 c0 465 0 468 -22 512 -38 74 -60 80 -288 80 -218
0 -239 -6 -280 -72 -19 -32 -20 -52 -20 -510 l0 -478 -685 0 -685 0 0 800 0
800 1165 0 1165 0 0 -800z m-490 -330 l0 -460 -170 0 -170 0 0 453 c0 250 3
457 7 460 3 4 80 7 170 7 l163 0 0 -460z"/>
<path d="M674 1680 c-12 -4 -31 -21 -43 -36 -21 -26 -21 -31 -21 -524 0 -425
-2 -499 -14 -503 -8 -3 -22 -20 -31 -37 -14 -26 -16 -58 -13 -182 l3 -150 28
-24 c27 -23 33 -24 197 -24 l170 0 32 29 33 29 0 156 0 155 -27 28 -28 29 0
488 c0 541 1 534 -65 562 -38 15 -186 18 -221 4z m146 -415 l0 -285 -40 0 -40
0 0 285 0 285 40 0 40 0 0 -285z"/>
<path d="M1000 1590 c-29 -29 -26 -74 8 -100 24 -19 37 -21 105 -18 68 3 82 6
98 27 24 30 24 52 -2 85 -19 24 -26 26 -105 26 -71 0 -87 -3 -104 -20z"/>
<path d="M1030 1354 c-32 -14 -50 -38 -50 -69 0 -52 24 -65 123 -65 74 0 90 3
107 20 25 25 26 61 2 90 -16 19 -30 23 -93 26 -41 2 -81 1 -89 -2z"/>
<path d="M1002 1074 c-29 -20 -30 -74 -1 -100 17 -16 37 -19 106 -19 77 0 87
2 104 24 25 30 24 62 -1 89 -18 19 -31 22 -103 22 -59 0 -89 -5 -105 -16z"/>
<path d="M1008 800 c-34 -26 -37 -71 -8 -100 17 -17 33 -20 104 -20 79 0 86 2
105 26 26 33 26 55 2 85 -16 21 -30 24 -98 27 -68 3 -81 1 -105 -18z"/>
</g>
</svg>
