<?xml version="1.0" standalone="no"?>
<!DOCTYPE svg PUBLIC "-//W3C//DTD SVG 20010904//EN"
 "http://www.w3.org/TR/2001/REC-SVG-20010904/DTD/svg10.dtd">
<svg version="1.0" xmlns="http://www.w3.org/2000/svg"
 width="468pt" height="548pt" viewBox="0 0 468 548"
 preserveAspectRatio="xMidYMid meet">
<metadata>
Created by potrace 1.8, written by Peter Selinger 2001-2007
</metadata>
<g transform="translate(0,548) scale(0.185714,-0.185714)"
fill="#000000" stroke="none">
<path d="M202 2934 c-18 -9 -43 -31 -55 -48 l-22 -31 -3 -1047 -2 -1048 -25
-6 c-38 -9 -83 -67 -90 -116 -4 -24 -5 -153 -3 -288 3 -233 4 -247 25 -281 12
-19 34 -41 48 -47 18 -8 121 -12 341 -12 357 0 362 1 395 73 17 38 19 68 19
300 0 276 -4 301 -51 343 -13 12 -34 25 -47 29 l-22 6 0 1035 c0 1137 3 1079
-61 1125 -33 23 -42 24 -224 27 -160 2 -195 0 -223 -14z m368 -969 l0 -855
-155 0 -155 0 0 855 0 855 155 0 155 0 0 -855z"/>
<path d="M770 2780 c-29 -29 -26 -74 6 -99 24 -19 40 -21 161 -21 129 0 135 1
158 25 30 29 32 68 5 95 -18 18 -33 20 -165 20 -132 0 -147 -2 -165 -20z"/>
<path d="M770 2250 c-11 -11 -20 -33 -20 -50 0 -17 9 -39 20 -50 18 -18 33
-20 159 -20 125 0 141 2 165 21 32 25 35 70 6 99 -18 18 -33 20 -165 20 -132
0 -147 -2 -165 -20z"/>
<path d="M767 1702 c-22 -25 -21 -75 1 -95 16 -14 43 -17 170 -17 145 0 152 1
166 22 9 12 16 32 16 43 0 11 -7 31 -16 43 -14 21 -21 22 -168 22 -135 0 -155
-2 -169 -18z"/>
<path d="M1877 1452 c-10 -10 -17 -33 -17 -50 l0 -32 -50 28 c-46 25 -51 26
-77 12 -33 -19 -52 -63 -37 -88 10 -17 71 -59 133 -94 l31 -17 0 -126 0 -126
-22 12 c-13 7 -65 36 -115 66 l-93 54 0 85 c0 77 -2 87 -25 109 -13 14 -33 25
-45 25 -37 0 -70 -44 -70 -94 l0 -44 -31 15 c-24 12 -36 13 -55 4 -52 -23 -56
-99 -8 -124 l27 -14 -44 -29 c-35 -24 -45 -36 -47 -63 -4 -41 21 -71 59 -71
15 0 59 18 98 41 l71 41 110 -63 c60 -35 106 -67 102 -71 -5 -5 -54 -35 -109
-67 l-101 -58 -82 45 c-71 39 -85 43 -106 33 -59 -26 -56 -97 5 -132 l40 -22
-30 -28 c-34 -32 -37 -57 -8 -93 21 -27 56 -34 88 -16 17 8 19 4 23 -40 6 -63
21 -80 69 -80 56 0 69 24 69 130 l0 85 58 32 c31 18 81 46 110 63 l53 31 -3
-132 -3 -132 -70 -42 c-83 -49 -101 -79 -68 -123 25 -34 65 -39 106 -13 l32
20 10 -37 c23 -82 135 -75 135 9 0 35 0 35 44 8 45 -26 83 -22 109 13 34 45
16 75 -76 126 l-77 44 0 130 c0 71 3 127 8 125 4 -2 55 -32 115 -66 l107 -63
0 -88 c0 -84 1 -90 26 -109 35 -27 59 -26 89 4 19 18 25 35 25 69 l0 44 29
-14 c38 -19 74 -5 90 34 14 35 5 61 -32 88 -14 10 -18 18 -10 21 70 27 99 81
68 129 -23 36 -66 31 -148 -17 l-68 -41 -110 63 c-60 34 -109 65 -109 68 1 3
49 34 108 67 l107 62 40 -23 c104 -60 121 -66 149 -55 61 23 59 96 -5 132
l-41 23 28 22 c53 42 24 130 -41 120 -16 -2 -38 -7 -47 -12 -16 -6 -18 -1 -18
43 0 67 -23 90 -80 82 -39 -5 -49 -30 -52 -124 l-3 -91 -105 -62 c-58 -34
-109 -62 -113 -62 -4 -1 -6 56 -5 126 l3 127 73 44 c86 52 101 75 78 120 -22
42 -54 49 -104 23 -52 -27 -52 -27 -52 7 0 16 -8 36 -18 45 -25 22 -75 21 -95
-1z"/>
<path d="M766 1128 c-22 -31 -20 -71 5 -94 19 -17 38 -19 166 -19 140 0 145 1
164 24 25 30 24 66 -1 91 -18 18 -33 20 -169 20 -144 0 -151 -1 -165 -22z"/>
</g>
</svg>
