<?xml version="1.0" standalone="no"?>
<!DOCTYPE svg PUBLIC "-//W3C//DTD SVG 20010904//EN"
 "http://www.w3.org/TR/2001/REC-SVG-20010904/DTD/svg10.dtd">
<svg version="1.0" xmlns="http://www.w3.org/2000/svg"
 width="468pt" height="147pt" viewBox="0 0 468 147"
 preserveAspectRatio="xMidYMid meet">
<metadata>
Created by potrace 1.8, written by Peter Selinger 2001-2007
</metadata>
<g transform="translate(0,147) scale(0.160825,-0.160825)"
fill="#000000" stroke="none">
<path d="M75 898 c-12 -38 -57 -583 -67 -823 l-3 -70 100 0 100 0 6 150 c11
263 21 436 26 432 2 -3 48 -108 102 -233 l99 -229 74 -3 74 -3 100 235 c114
269 107 269 118 16 4 -80 9 -196 12 -257 l6 -113 99 0 99 0 0 27 c0 116 -48
730 -67 846 l-6 37 -93 0 -94 0 -44 -87 c-38 -76 -160 -350 -188 -423 -8 -22
-16 -8 -77 130 -37 85 -91 206 -121 268 l-53 112 -99 0 c-70 0 -100 -4 -103
-12z"/>
<path d="M1462 458 l3 -453 100 0 100 0 3 453 2 452 -105 0 -105 0 2 -452z"/>
<path d="M2132 458 l3 -453 100 0 100 0 5 290 5 290 66 -85 c91 -117 163 -223
254 -373 l77 -127 84 0 84 0 0 455 0 455 -105 0 -105 0 -2 -256 -3 -256 -72
105 c-83 120 -207 281 -275 355 l-46 52 -86 0 -86 0 2 -452z"/>
</g>
</svg>
