<?xml version="1.0" standalone="no"?>
<!DOCTYPE svg PUBLIC "-//W3C//DTD SVG 20010904//EN"
 "http://www.w3.org/TR/2001/REC-SVG-20010904/DTD/svg10.dtd">
<svg version="1.0" xmlns="http://www.w3.org/2000/svg"
 width="468pt" height="144pt" viewBox="0 0 468 144"
 preserveAspectRatio="xMidYMid meet">
<metadata>
Created by potrace 1.8, written by Peter Selinger 2001-2007
</metadata>
<g transform="translate(0,144) scale(0.158108,-0.158108)"
fill="#000000" stroke="none">
<path d="M75 898 c-12 -38 -57 -583 -67 -823 l-3 -70 100 0 100 0 6 150 c11
263 21 436 26 432 2 -3 48 -108 102 -233 l99 -229 74 -3 74 -3 100 235 c114
269 107 269 118 16 4 -80 9 -196 12 -257 l6 -113 99 0 99 0 0 27 c0 116 -48
730 -67 846 l-6 37 -93 0 -94 0 -44 -87 c-38 -76 -160 -350 -188 -423 -8 -22
-16 -8 -77 130 -37 85 -91 206 -121 268 l-53 112 -99 0 c-70 0 -100 -4 -103
-12z"/>
<path d="M1410 788 c-91 -207 -254 -630 -295 -766 l-7 -23 108 3 107 3 32 95
32 95 174 3 174 2 35 -97 35 -98 108 -3 c72 -2 107 1 107 8 0 35 -181 506
-283 738 l-72 162 -100 0 -101 0 -54 -122z m219 -268 c28 -74 51 -138 51 -142
0 -5 -54 -8 -120 -8 -66 0 -120 2 -120 4 0 4 86 231 110 291 11 27 13 28 20
10 4 -11 31 -81 59 -155z"/>
<path d="M2116 898 c4 -7 70 -106 146 -220 76 -114 138 -210 138 -213 0 -3
-42 -64 -92 -135 -94 -131 -192 -281 -204 -313 -6 -16 3 -17 109 -17 l115 0
42 72 c51 87 139 208 150 208 18 0 89 -93 139 -184 l53 -96 119 0 c65 0 119 4
119 8 0 23 -172 293 -258 405 l-44 58 146 220 146 219 -119 0 -118 0 -83 -125
c-46 -69 -86 -125 -90 -125 -4 0 -44 56 -90 125 l-83 125 -124 0 c-97 0 -123
-3 -117 -12z"/>
</g>
</svg>
