<?xml version="1.0" standalone="no"?>
<!DOCTYPE svg PUBLIC "-//W3C//DTD SVG 20010904//EN"
 "http://www.w3.org/TR/2001/REC-SVG-20010904/DTD/svg10.dtd">
<svg version="1.0" xmlns="http://www.w3.org/2000/svg"
 width="468pt" height="470pt" viewBox="0 0 468 470"
 preserveAspectRatio="xMidYMid meet">
<metadata>
Created by potrace 1.8, written by Peter Selinger 2001-2007
</metadata>
<g transform="translate(0,470) scale(0.158108,-0.158108)"
fill="#000000" stroke="none">
<path d="M1294 2950 c-117 -38 -197 -138 -241 -300 -26 -93 -25 -393 0 -502
26 -109 68 -188 132 -247 73 -66 132 -86 255 -86 85 1 102 4 162 32 l67 32
-21 59 -22 59 -50 -26 c-42 -22 -63 -26 -132 -26 -75 0 -86 3 -126 30 -90 64
-128 192 -128 435 0 265 46 381 166 420 51 17 150 7 203 -19 24 -13 47 -19 51
-14 12 13 40 105 35 114 -3 4 -31 17 -63 29 -83 32 -208 36 -288 10z"/>
<path d="M2043 2952 c-161 -57 -247 -199 -274 -449 -28 -263 42 -523 167 -618
136 -104 334 -97 456 14 107 97 147 216 155 451 8 245 -33 403 -133 510 -67
71 -137 103 -238 107 -60 3 -94 -1 -133 -15z m190 -125 c52 -22 103 -88 128
-164 18 -56 23 -98 27 -236 4 -185 -6 -269 -42 -350 -54 -121 -166 -168 -273
-116 -100 48 -152 195 -153 430 0 219 55 380 148 429 44 23 119 26 165 7z"/>
<path d="M377 2943 c-4 -3 -7 -253 -7 -555 l0 -548 265 0 265 0 0 60 0 60
-190 0 -190 0 0 200 0 200 160 0 160 0 0 60 0 60 -160 0 -160 0 0 170 0 170
175 0 175 0 0 65 0 65 -243 0 c-134 0 -247 -3 -250 -7z"/>
<path d="M1795 1524 c-577 -34 -1014 -206 -1204 -473 -47 -67 -75 -168 -67
-246 l6 -63 -86 -52 c-239 -145 -387 -314 -429 -491 -30 -127 -12 -189 53
-189 48 0 62 19 72 98 5 40 18 92 28 115 48 105 163 225 312 324 120 80 111
78 159 34 131 -121 383 -185 721 -185 523 1 969 151 1341 452 304 245 329 415
77 532 -117 54 -342 109 -528 129 -110 12 -367 20 -455 15z m327 -145 c249
-17 482 -65 595 -123 l46 -23 -150 -7 c-323 -14 -661 -54 -958 -112 -296 -58
-662 -167 -885 -263 -52 -22 -98 -41 -102 -41 -17 0 -7 92 13 133 31 60 133
154 229 211 306 181 726 259 1212 225z m551 -368 c-163 -159 -388 -291 -628
-370 -229 -76 -428 -105 -710 -105 -168 0 -217 4 -303 22 -123 27 -192 51
-257 93 -57 36 -63 30 94 94 499 200 1090 314 1816 348 33 2 65 4 70 5 6 1
-31 -39 -82 -87z"/>
</g>
</svg>
