<?xml version="1.0" standalone="no"?>
<!DOCTYPE svg PUBLIC "-//W3C//DTD SVG 20010904//EN"
 "http://www.w3.org/TR/2001/REC-SVG-20010904/DTD/svg10.dtd">
<svg version="1.0" xmlns="http://www.w3.org/2000/svg"
 width="468pt" height="445pt" viewBox="0 0 468 445"
 preserveAspectRatio="xMidYMid meet">
<metadata>
Created by potrace 1.8, written by Peter Selinger 2001-2007
</metadata>
<g transform="translate(0,445) scale(0.158108,-0.158108)"
fill="#000000" stroke="none">
<path d="M627 2800 c-49 -9 -86 -37 -114 -86 -19 -33 -23 -54 -23 -136 l0 -97
-197 -3 c-186 -3 -200 -4 -229 -25 -68 -49 -64 29 -64 -1215 0 -1253 -5 -1166
69 -1215 l34 -23 1371 0 c1350 0 1371 0 1404 20 18 11 41 34 52 52 20 32 20
53 20 1161 0 1239 3 1172 -61 1218 -33 23 -41 24 -236 27 l-203 3 0 94 c0 101
-9 137 -43 173 -43 47 -75 57 -182 57 -119 0 -163 -17 -203 -78 -25 -37 -27
-49 -27 -144 l0 -103 -522 0 -523 0 0 93 c0 103 -19 159 -64 195 -47 36 -163
51 -259 32z m183 -149 c5 -11 10 -45 10 -76 0 -89 -7 -95 -100 -95 -93 0 -100
6 -100 95 0 89 7 95 100 95 68 0 81 -3 90 -19z m1498 7 c18 -18 16 -152 -2
-167 -9 -8 -43 -11 -93 -9 l-78 3 -3 79 c-2 44 -1 85 2 93 7 17 157 18 174 1z
m512 -1418 l0 -560 -249 0 c-246 0 -250 0 -276 -23 l-27 -23 -6 -252 -5 -252
-1061 2 -1061 3 -3 833 -2 832 1345 0 1345 0 0 -560z m-4 -1097 c-4 -10 -44
-13 -168 -13 l-163 0 165 165 165 165 3 -152 c1 -84 0 -158 -2 -165z"/>
<path d="M1010 1463 c-40 -14 -40 -18 -40 -569 l0 -533 22 -15 c28 -20 58 -20
86 0 l22 15 0 538 c0 420 -3 541 -13 549 -16 14 -58 22 -77 15z"/>
<path d="M1472 1458 c-12 -6 -25 -21 -28 -33 -3 -12 -4 -144 -2 -294 l3 -273
28 -24 c27 -23 32 -24 208 -24 l179 0 0 -220 c0 -207 1 -221 20 -240 25 -25
61 -26 91 -1 l24 19 0 525 c0 502 -1 526 -19 546 -23 25 -63 27 -94 5 -22 -15
-22 -18 -22 -255 l0 -239 -139 0 -140 0 -3 241 c-3 239 -3 241 -27 260 -26 21
-45 23 -79 7z"/>
</g>
</svg>
