<?xml version="1.0" standalone="no"?>
<!DOCTYPE svg PUBLIC "-//W3C//DTD SVG 20010904//EN"
 "http://www.w3.org/TR/2001/REC-SVG-20010904/DTD/svg10.dtd">
<svg version="1.0" xmlns="http://www.w3.org/2000/svg"
 width="468pt" height="435pt" viewBox="0 0 468 435"
 preserveAspectRatio="xMidYMid meet">
<metadata>
Created by potrace 1.8, written by Peter Selinger 2001-2007
</metadata>
<g transform="translate(0,435) scale(0.158644,-0.158644)"
fill="#000000" stroke="none">
<path d="M845 2730 c-28 -11 -72 -60 -84 -93 -8 -19 -11 -415 -11 -1265 0
-1185 1 -1239 19 -1278 10 -23 34 -52 52 -65 33 -23 41 -24 244 -27 132 -2
224 0 247 7 45 14 94 68 108 120 7 27 9 428 8 1268 -3 1218 -3 1228 -24 1263
-11 19 -35 45 -54 57 -32 22 -41 23 -259 22 -124 0 -235 -4 -246 -9z m440
-1355 l0 -1230 -194 -3 c-149 -2 -196 1 -203 10 -4 7 -8 558 -8 1224 0 939 3
1213 12 1222 9 9 63 12 203 10 l190 -3 0 -1230z"/>
<path d="M106 2220 c-40 -12 -73 -46 -91 -94 -14 -36 -15 -155 -13 -1026 3
-970 3 -986 23 -1020 12 -19 36 -43 55 -55 33 -19 52 -20 267 -20 219 0 233 1
260 21 15 11 38 36 51 54 l22 33 0 1001 c0 1134 6 1049 -80 1094 -42 21 -55
22 -255 21 -115 0 -223 -5 -239 -9z m439 -1105 l0 -970 -202 -3 -203 -2 0 975
0 975 203 -2 202 -3 0 -970z"/>
<path d="M2360 1939 c-46 -18 -79 -59 -90 -113 -8 -35 -10 -304 -8 -881 3
-814 3 -831 23 -865 12 -19 36 -43 55 -55 32 -19 52 -20 265 -20 213 0 233 1
265 20 19 12 43 36 55 55 20 34 20 51 23 865 2 579 0 845 -8 881 -12 55 -45
95 -93 113 -36 14 -453 13 -487 0z m450 -964 l0 -835 -205 0 -205 0 0 835 0
835 205 0 205 0 0 -835z"/>
<path d="M1572 1333 c-64 -31 -62 -12 -62 -660 0 -649 -3 -614 63 -651 28 -15
63 -17 272 -17 223 0 242 1 275 20 72 42 70 24 70 655 0 518 -1 568 -18 600
-32 65 -56 70 -327 70 -201 0 -245 -3 -273 -17z m478 -653 l0 -540 -205 0
-205 0 0 540 0 540 205 0 205 0 0 -540z"/>
</g>
</svg>
