<?xml version="1.0" standalone="no"?>
<!DOCTYPE svg PUBLIC "-//W3C//DTD SVG 20010904//EN"
 "http://www.w3.org/TR/2001/REC-SVG-20010904/DTD/svg10.dtd">
<svg version="1.0" xmlns="http://www.w3.org/2000/svg"
 width="468pt" height="468pt" viewBox="0 0 468 468"
 preserveAspectRatio="xMidYMid meet">
<metadata>
Created by potrace 1.8, written by Peter Selinger 2001-2007
</metadata>
<g transform="translate(0,468) scale(0.159184,-0.159184)"
fill="#000000" stroke="none">
<path d="M95 2926 c-37 -16 -70 -52 -84 -89 -15 -40 -15 -2694 0 -2734 18 -48
58 -81 113 -93 36 -8 442 -10 1376 -8 1477 3 1363 -2 1409 71 l21 34 0 1362
c0 1500 5 1395 -62 1443 l-33 23 -1355 2 c-1115 2 -1360 0 -1385 -11z m1305
-265 c0 -114 3 -143 16 -155 24 -25 68 -24 97 1 15 14 17 35 17 155 l0 138
635 0 635 0 0 -630 0 -630 -143 0 c-124 0 -146 -2 -160 -17 -25 -29 -26 -73
-1 -97 13 -13 42 -16 160 -16 l144 0 0 -635 0 -635 -635 0 -635 0 0 142 c0
158 -7 178 -63 178 -61 0 -67 -17 -67 -177 l0 -143 -630 0 -630 0 0 635 0 635
137 0 c152 0 173 8 173 63 0 60 -17 67 -172 67 l-138 0 0 630 0 630 630 0 630
0 0 -139z"/>
<path d="M1424 2356 c-18 -14 -19 -32 -22 -462 l-3 -447 198 -199 c109 -109
208 -201 220 -204 52 -13 103 40 84 88 -5 13 -89 102 -185 198 l-176 175 0
412 c0 400 -1 414 -20 433 -23 23 -68 26 -96 6z"/>
</g>
</svg>
