<?xml version="1.0" standalone="no"?>
<!DOCTYPE svg PUBLIC "-//W3C//DTD SVG 20010904//EN"
 "http://www.w3.org/TR/2001/REC-SVG-20010904/DTD/svg10.dtd">
<svg version="1.0" xmlns="http://www.w3.org/2000/svg"
 width="468pt" height="633pt" viewBox="0 0 468 633"
 preserveAspectRatio="xMidYMid meet">
<metadata>
Created by potrace 1.8, written by Peter Selinger 2001-2007
</metadata>
<g transform="translate(0,633) scale(0.213699,-0.213699)"
fill="#000000" stroke="none">
<path d="M1122 2949 c-42 -13 -107 -80 -124 -127 -7 -20 -12 -69 -12 -109 l1
-71 -121 -4 c-133 -4 -169 -16 -205 -67 -48 -68 -51 -104 -52 -741 l0 -595
-58 167 c-75 219 -110 258 -234 258 -112 0 -232 -49 -283 -116 -53 -68 -52
-72 125 -815 89 -372 161 -678 161 -682 0 -16 35 -37 64 -37 39 0 66 26 66 62
0 14 -72 327 -160 696 -88 369 -157 678 -154 687 9 21 47 40 123 60 63 16 91
14 109 -8 6 -7 65 -181 132 -387 70 -216 128 -380 137 -387 22 -17 65 -16 89
1 18 14 19 38 24 874 4 708 7 862 19 875 11 14 33 17 117 17 l104 0 0 -670 c0
-657 0 -670 20 -690 29 -29 74 -26 99 6 21 27 21 32 21 839 0 680 2 814 14
824 18 15 182 16 219 2 18 -7 27 -18 27 -33 0 -13 0 -362 0 -776 l0 -753 24
-24 c31 -30 55 -32 90 -4 l26 20 0 670 0 669 88 0 c90 -1 109 -7 130 -47 9
-16 12 -212 12 -737 l0 -715 22 -15 c28 -20 58 -20 86 0 l22 15 0 560 0 559
69 0 c66 0 69 -1 81 -29 9 -22 12 -289 13 -1081 2 -1028 2 -1052 21 -1066 28
-20 80 -18 99 4 16 17 17 105 17 1060 0 705 -3 1057 -11 1091 -12 57 -41 104
-82 135 -22 16 -47 22 -113 25 l-84 3 0 76 c0 110 -24 187 -75 238 -49 49
-100 64 -214 64 l-81 0 0 38 c0 85 -44 155 -115 182 -40 16 -251 22 -293 9z"/>
</g>
</svg>
