<?xml version="1.0" standalone="no"?>
<!DOCTYPE svg PUBLIC "-//W3C//DTD SVG 20010904//EN"
 "http://www.w3.org/TR/2001/REC-SVG-20010904/DTD/svg10.dtd">
<svg version="1.0" xmlns="http://www.w3.org/2000/svg"
 width="468pt" height="468pt" viewBox="0 0 468 468"
 preserveAspectRatio="xMidYMid meet">
<metadata>
Created by potrace 1.8, written by Peter Selinger 2001-2007
</metadata>
<g transform="translate(0,468) scale(0.158108,-0.158108)"
fill="#000000" stroke="none">
<path d="M16 2928 c-14 -20 -16 -174 -16 -1453 l0 -1432 23 -21 23 -22 1430 0
c1584 0 1474 -5 1474 64 0 18 -6 41 -14 52 -14 19 -42 19 -1405 22 l-1391 2 0
521 0 521 401 409 c221 225 404 409 408 409 3 -1 92 -112 196 -248 105 -135
205 -263 224 -284 58 -66 72 -57 204 115 58 75 77 94 81 80 3 -10 28 -146 56
-303 31 -176 56 -290 65 -299 20 -20 73 -18 95 5 38 39 894 1360 898 1386 10
62 -76 92 -120 40 -12 -15 -194 -290 -403 -610 -280 -429 -382 -577 -387 -564
-4 9 -28 136 -53 282 -25 146 -50 275 -55 287 -11 27 -46 38 -80 25 -13 -5
-70 -69 -130 -148 -58 -76 -110 -139 -116 -138 -5 0 -98 115 -207 255 -109
139 -207 264 -217 277 -46 53 -46 53 -465 -378 l-390 -401 -5 771 c-5 749 -6
772 -24 786 -31 22 -82 18 -100 -8z"/>
</g>
</svg>
