<?xml version="1.0" standalone="no"?>
<!DOCTYPE svg PUBLIC "-//W3C//DTD SVG 20010904//EN"
 "http://www.w3.org/TR/2001/REC-SVG-20010904/DTD/svg10.dtd">
<svg version="1.0" xmlns="http://www.w3.org/2000/svg"
 width="468pt" height="468pt" viewBox="0 0 468 468"
 preserveAspectRatio="xMidYMid meet">
<metadata>
Created by potrace 1.8, written by Peter Selinger 2001-2007
</metadata>
<g transform="translate(0,468) scale(0.157576,-0.157576)"
fill="#000000" stroke="none">
<path d="M2339 2933 c-61 -52 -59 -14 -59 -920 0 -769 1 -830 18 -862 9 -19
30 -44 45 -55 27 -20 44 -21 268 -24 266 -3 293 2 330 62 18 30 19 67 19 881
0 825 -1 851 -20 882 -36 60 -53 63 -324 63 l-244 0 -33 -27z m491 -913 l0
-810 -205 0 -205 0 0 810 0 810 205 0 205 0 0 -810z"/>
<path d="M1615 2576 c-45 -19 -83 -70 -90 -119 -3 -23 -5 -321 -3 -662 3 -602
4 -621 23 -655 38 -65 61 -70 323 -70 257 0 271 3 314 62 l23 33 3 649 c3 640
2 649 -18 692 -16 31 -33 48 -64 63 -39 19 -60 21 -262 21 -159 -1 -227 -4
-249 -14z m455 -751 l0 -625 -205 0 -205 0 0 625 0 625 205 0 205 0 0 -625z"/>
<path d="M843 2265 c-18 -8 -42 -29 -53 -47 -19 -32 -20 -49 -20 -543 0 -488
1 -511 20 -542 37 -61 53 -64 330 -61 l248 3 28 25 c54 50 54 49 54 577 0 544
1 533 -69 580 -33 22 -41 23 -270 23 -180 -1 -244 -4 -268 -15z m467 -590 l0
-475 -205 0 -205 0 0 475 0 475 205 0 205 0 0 -475z"/>
<path d="M66 1971 c-55 -37 -55 -35 -56 -444 l0 -377 34 -38 34 -37 259 -3
c257 -3 259 -3 293 20 61 41 60 36 58 451 l-3 379 -37 34 -38 34 -257 0 c-238
0 -260 -2 -287 -19z m494 -441 l0 -330 -210 0 -210 0 0 330 0 330 210 0 210 0
0 -330z"/>
<path d="M2531 830 c-149 -31 -227 -132 -254 -327 -22 -164 20 -331 103 -414
62 -62 129 -83 244 -77 182 9 280 122 301 348 15 158 -27 313 -105 390 -68 69
-186 101 -289 80z m137 -156 c12 -8 32 -34 44 -57 20 -38 23 -57 23 -187 0
-213 -32 -280 -134 -280 -56 0 -84 18 -114 73 -20 38 -22 56 -22 192 0 168 9
210 56 250 36 30 111 35 147 9z"/>
<path d="M236 598 c-80 -230 -176 -537 -176 -564 0 -12 16 -14 92 -12 l93 3
21 90 21 90 119 0 119 0 21 -90 21 -90 96 -3 c71 -2 97 1 97 9 0 26 -102 364
-172 569 l-73 215 -101 3 -101 3 -77 -223z m204 -42 c26 -91 49 -185 50 -203
0 -10 -24 -13 -86 -13 -77 0 -85 2 -80 18 3 9 9 35 14 57 21 94 66 235 72 228
4 -4 17 -44 30 -87z"/>
<path d="M832 508 c3 -292 4 -316 24 -358 48 -103 140 -145 308 -138 117 4
179 29 227 88 51 63 59 124 59 437 l0 284 -92 -3 -93 -3 -5 -300 c-6 -364 -6
-365 -124 -365 -73 0 -105 26 -117 96 -4 27 -8 167 -8 312 l-1 262 -91 0 -90
0 3 -312z"/>
<path d="M1540 750 l0 -70 120 0 120 0 0 -330 0 -330 90 0 90 0 0 330 0 329
118 3 117 3 3 68 3 67 -331 0 -330 0 0 -70z"/>
</g>
</svg>
