<?xml version="1.0" standalone="no"?>
<!DOCTYPE svg PUBLIC "-//W3C//DTD SVG 20010904//EN"
 "http://www.w3.org/TR/2001/REC-SVG-20010904/DTD/svg10.dtd">
<svg version="1.0" xmlns="http://www.w3.org/2000/svg"
 width="468pt" height="467pt" viewBox="0 0 468 467"
 preserveAspectRatio="xMidYMid meet">
<metadata>
Created by potrace 1.8, written by Peter Selinger 2001-2007
</metadata>
<g transform="translate(0,467) scale(0.158108,-0.158108)"
fill="#000000" stroke="none">
<path d="M740 2939 c-29 -12 -67 -45 -83 -74 -9 -14 -13 -161 -17 -492 l-5
-471 -99 264 c-96 254 -116 292 -159 307 -14 5 -16 11 -7 26 18 34 11 75 -30
186 -56 148 -64 162 -104 175 -30 10 -44 7 -115 -20 -129 -50 -135 -73 -65
-255 48 -128 73 -165 111 -165 23 0 23 -1 9 -22 -9 -12 -16 -36 -16 -52 0 -16
108 -316 240 -665 l240 -636 0 -460 c0 -513 -1 -506 69 -552 l34 -23 1057 0
1057 0 34 23 c19 12 42 38 52 57 16 33 17 116 15 1397 -3 1358 -3 1362 -24
1389 -11 15 -33 37 -48 48 -27 21 -34 21 -1074 23 -684 1 -1056 -2 -1072 -8z
m2085 -1464 l0 -1330 -1023 -3 c-820 -2 -1024 0 -1027 11 -3 7 -4 127 -3 267
l3 255 24 -60 c31 -77 56 -105 94 -105 l30 0 -21 -23 c-12 -13 -22 -34 -22
-46 0 -29 154 -229 186 -241 29 -11 69 2 82 27 6 11 6 68 0 148 -10 133 -22
173 -58 182 -16 4 -16 6 1 40 22 43 22 43 -40 204 -43 114 -50 125 -83 142
-35 17 -36 19 -22 45 8 15 14 33 14 40 0 7 -43 127 -95 266 l-95 252 0 625 c0
344 3 629 7 632 3 4 466 6 1027 5 l1021 -3 0 -1330z"/>
<path d="M971 2504 c-27 -35 -26 -59 4 -89 l24 -25 781 0 781 0 24 25 c30 30
31 54 4 89 l-20 26 -789 0 -789 0 -20 -26z"/>
<path d="M976 2154 c-38 -37 -27 -96 20 -114 15 -6 328 -10 784 -10 456 0 769
4 784 10 47 18 58 77 20 114 -14 14 -101 16 -804 16 -703 0 -790 -2 -804 -16z"/>
<path d="M975 1796 c-25 -18 -26 -80 -2 -104 17 -16 71 -17 808 -17 l791 0 20
25 c23 28 18 77 -9 98 -26 19 -1582 18 -1608 -2z"/>
<path d="M975 1405 c-30 -30 -31 -54 -4 -89 l20 -26 789 0 789 0 20 26 c27 35
26 59 -4 89 l-24 25 -781 0 -781 0 -24 -25z"/>
<path d="M1132 1054 c-16 -11 -22 -25 -22 -54 0 -74 -41 -70 740 -70 781 0
740 -4 740 70 0 74 41 70 -740 70 -613 0 -698 -2 -718 -16z"/>
<path d="M1333 690 c-46 -19 -54 -98 -13 -120 12 -6 244 -10 628 -10 577 0
610 1 625 18 21 23 22 71 3 98 -14 18 -33 19 -618 21 -336 1 -613 -2 -625 -7z"/>
</g>
</svg>
