<?xml version="1.0" standalone="no"?>
<!DOCTYPE svg PUBLIC "-//W3C//DTD SVG 20010904//EN"
 "http://www.w3.org/TR/2001/REC-SVG-20010904/DTD/svg10.dtd">
<svg version="1.0" xmlns="http://www.w3.org/2000/svg"
 width="468pt" height="472pt" viewBox="0 0 468 472"
 preserveAspectRatio="xMidYMid meet">
<metadata>
Created by potrace 1.8, written by Peter Selinger 2001-2007
</metadata>
<g transform="translate(0,472) scale(0.158644,-0.158644)"
fill="#000000" stroke="none">
<path d="M50 2947 c-51 -26 -50 -14 -47 -734 l2 -672 23 -23 23 -23 675 -3
c457 -2 681 1 694 8 11 6 27 25 36 43 16 29 17 92 15 692 -2 716 -1 694 -57
715 -41 16 -1333 13 -1364 -3z m640 -150 c0 -67 10 -87 45 -87 35 0 45 20 45
87 l0 63 295 0 295 0 0 -290 0 -290 -56 0 c-70 0 -94 -12 -94 -48 0 -42 17
-52 87 -52 l63 0 0 -295 0 -295 -295 0 -295 0 0 70 c0 60 -3 71 -21 81 -16 8
-28 8 -45 0 -22 -10 -24 -17 -24 -81 l0 -70 -295 0 -295 0 0 295 0 295 63 0
c70 0 87 10 87 52 0 36 -24 48 -94 48 l-56 0 0 290 0 290 295 0 295 0 0 -63z"/>
<path d="M702 2668 c-9 -9 -12 -75 -12 -238 l0 -225 103 -103 c109 -109 134
-121 162 -78 21 32 15 42 -84 141 l-81 80 0 198 c0 118 -4 206 -10 218 -12 22
-59 26 -78 7z"/>
<path d="M2105 2187 c-75 -25 -122 -56 -177 -116 -214 -231 -85 -597 230 -652
103 -18 234 20 316 91 213 188 165 533 -92 653 -55 26 -81 32 -152 34 -52 2
-101 -2 -125 -10z"/>
<path d="M1936 1338 c-50 -14 -108 -72 -124 -124 -16 -53 -17 -1010 -2 -1066
14 -50 55 -97 105 -119 35 -17 69 -19 303 -19 241 0 266 2 301 20 48 24 87 70
101 118 8 25 10 204 8 554 l-3 516 -30 43 c-56 80 -74 84 -365 86 -154 1 -270
-3 -294 -9z"/>
<path d="M1534 1271 c-17 -10 -36 -34 -43 -52 -8 -22 -11 -198 -11 -578 0
-523 1 -547 20 -578 33 -54 93 -71 159 -44 62 26 61 13 61 635 l0 566 -28 31
c-37 41 -110 51 -158 20z"/>
<path d="M2775 1281 c-11 -5 -29 -19 -40 -31 -19 -21 -20 -38 -23 -595 l-2
-573 25 -31 c48 -57 135 -59 186 -5 l24 26 3 566 c2 553 2 568 -18 600 -29 47
-98 66 -155 43z"/>
</g>
</svg>
