<svg viewBox="0 0 295 296" preserveAspectRatio="xMidYMid meet">
<metadata>
Created by potrace 1.14, written by Peter Selinger 2001-2017
</metadata>
<g transform="translate(0.000000,296.000000) scale(0.100000,-0.100000)"
fill="#000000" stroke="none">
<path d="M247 2949 c-62 -15 -112 -45 -160 -99 -82 -92 -82 -88 -82 -630 0
-556 -2 -545 94 -641 96 -96 84 -94 651 -94 l485 0 56 26 c69 33 124 88 158
159 l26 55 3 470 c3 409 1 478 -13 531 -24 88 -75 151 -159 194 l-69 35 -476
2 c-262 1 -493 -3 -514 -8z m965 -139 c21 -6 51 -22 68 -37 61 -51 60 -38 60
-547 0 -304 -4 -474 -11 -493 -17 -45 -60 -82 -113 -98 -40 -12 -129 -15 -475
-15 -281 0 -440 4 -466 11 -57 16 -95 46 -116 93 -17 38 -19 74 -19 494 0 385
2 458 15 489 21 50 42 72 90 94 37 17 75 19 485 19 276 0 459 -4 482 -10z"/>
<path d="M303 2305 c-13 -9 -28 -33 -34 -54 -9 -32 -8 -44 5 -73 9 -19 28 -40
42 -47 32 -14 810 -16 848 -1 60 22 72 128 19 170 -25 19 -38 20 -442 20 -358
0 -420 -2 -438 -15z"/>
<path d="M2105 2187 c-75 -25 -122 -56 -177 -116 -214 -231 -85 -597 230 -652
103 -18 234 20 316 91 213 188 165 533 -92 653 -55 26 -81 32 -152 34 -52 2
-101 -2 -125 -10z"/>
<path d="M1936 1338 c-50 -14 -108 -72 -124 -124 -16 -53 -17 -1010 -2 -1066
14 -50 55 -97 105 -119 35 -17 69 -19 303 -19 241 0 266 2 301 20 48 24 87 70
101 118 8 25 10 204 8 554 l-3 516 -30 43 c-56 80 -74 84 -365 86 -154 1 -270
-3 -294 -9z"/>
<path d="M1534 1271 c-17 -10 -36 -34 -43 -52 -8 -22 -11 -198 -11 -578 0
-523 1 -547 20 -578 33 -54 93 -71 159 -44 62 26 61 13 61 635 l0 566 -28 31
c-37 41 -110 51 -158 20z"/>
<path d="M2775 1281 c-11 -5 -29 -19 -40 -31 -19 -21 -20 -38 -23 -595 l-2
-573 25 -31 c48 -57 135 -59 186 -5 l24 26 3 566 c2 553 2 568 -18 600 -29 47
-98 66 -155 43z"/>
</g>
</svg>
