<?xml version="1.0" standalone="no"?>
<!DOCTYPE svg PUBLIC "-//W3C//DTD SVG 20010904//EN"
 "http://www.w3.org/TR/2001/REC-SVG-20010904/DTD/svg10.dtd">
<svg version="1.0" xmlns="http://www.w3.org/2000/svg"
 width="468pt" height="470pt" viewBox="0 0 468 470"
 preserveAspectRatio="xMidYMid meet">
<metadata>
Created by potrace 1.8, written by Peter Selinger 2001-2007
</metadata>
<g transform="translate(0,470) scale(0.158644,-0.158644)"
fill="#000000" stroke="none">
<path d="M980 2736 c-283 -122 -552 -237 -598 -256 l-82 -34 -105 103 c-95 94
-107 103 -132 96 -62 -15 -63 -20 -39 -327 17 -223 29 -238 156 -187 39 16 77
29 85 29 7 0 107 40 221 89 l208 89 29 -24 c16 -13 40 -24 54 -24 35 0 353
139 381 167 14 14 22 34 22 55 l0 33 230 99 c193 82 235 104 264 137 43 47 52
79 36 120 -21 50 -85 72 -144 49 -16 -6 -27 -6 -31 0 -4 6 -14 10 -23 9 -9 0
-249 -101 -532 -223z m548 186 c2 -7 -17 -21 -43 -32 -56 -24 -51 -24 -59 -5
-4 12 6 21 37 35 45 20 59 20 65 2z m-193 -101 c3 -6 -3 -15 -14 -20 -26 -14
-31 -14 -31 3 0 21 34 34 45 17z m-85 -41 c0 -16 -38 -32 -46 -19 -7 12 12 29
34 29 6 0 12 -4 12 -10z m-90 -50 c-20 -13 -37 -12 -45 0 -9 14 37 31 50 19 6
-7 5 -13 -5 -19z m-80 -25 c0 -8 -4 -15 -9 -15 -5 0 -16 -3 -25 -6 -10 -4 -16
-1 -16 9 0 15 14 25 38 26 6 1 12 -6 12 -14z m-90 -35 c0 -16 -38 -32 -46 -19
-7 12 12 29 34 29 6 0 12 -4 12 -10z m-90 -50 c-22 -14 -40 -12 -40 4 0 17 31
26 45 14 6 -6 5 -12 -5 -18z"/>
<path d="M2105 2187 c-75 -25 -122 -56 -177 -116 -214 -231 -85 -597 230 -652
103 -18 234 20 316 91 213 188 165 533 -92 653 -55 26 -81 32 -152 34 -52 2
-101 -2 -125 -10z"/>
<path d="M1936 1338 c-50 -14 -108 -72 -124 -124 -16 -53 -17 -1010 -2 -1066
14 -50 55 -97 105 -119 35 -17 69 -19 303 -19 241 0 266 2 301 20 48 24 87 70
101 118 8 25 10 204 8 554 l-3 516 -30 43 c-56 80 -74 84 -365 86 -154 1 -270
-3 -294 -9z"/>
<path d="M1534 1271 c-17 -10 -36 -34 -43 -52 -8 -22 -11 -198 -11 -578 0
-523 1 -547 20 -578 33 -54 93 -71 159 -44 62 26 61 13 61 635 l0 566 -28 31
c-37 41 -110 51 -158 20z"/>
<path d="M2775 1281 c-11 -5 -29 -19 -40 -31 -19 -21 -20 -38 -23 -595 l-2
-573 25 -31 c48 -57 135 -59 186 -5 l24 26 3 566 c2 553 2 568 -18 600 -29 47
-98 66 -155 43z"/>
</g>
</svg>
