<?xml version="1.0" standalone="no"?>
<!DOCTYPE svg PUBLIC "-//W3C//DTD SVG 20010904//EN"
 "http://www.w3.org/TR/2001/REC-SVG-20010904/DTD/svg10.dtd">
<svg version="1.0" xmlns="http://www.w3.org/2000/svg"
 width="468pt" height="470pt" viewBox="0 0 468 470"
 preserveAspectRatio="xMidYMid meet">
<metadata>
Created by potrace 1.8, written by Peter Selinger 2001-2007
</metadata>
<g transform="translate(0,470) scale(0.158108,-0.158108)"
fill="#000000" stroke="none">
<path d="M508 2815 c-517 -264 -503 -255 -506 -291 -7 -69 61 -98 131 -56 17
11 193 101 389 201 234 119 359 189 363 201 10 31 -6 70 -36 85 -15 8 -30 15
-33 15 -3 0 -142 -70 -308 -155z"/>
<path d="M1724 2958 c-22 -10 -44 -47 -44 -72 0 -25 43 -51 318 -192 l277
-142 2 -123 c3 -140 6 -161 29 -183 22 -22 70 -20 94 4 17 17 20 33 20 124 l0
104 224 -114 c236 -120 249 -124 285 -80 17 21 17 64 0 81 -16 16 -1134 590
-1164 598 -11 3 -30 1 -41 -5z"/>
<path d="M1067 2106 c-85 -25 -103 -37 -94 -60 5 -13 13 -13 64 5 165 57 241
47 522 -65 347 -139 349 -139 694 -5 295 116 360 126 511 79 77 -25 98 -25 94
-3 -4 24 -134 63 -233 70 -95 6 -153 -10 -401 -112 -87 -36 -193 -72 -237 -81
-103 -21 -153 -11 -352 68 -251 101 -311 119 -405 124 -69 3 -99 0 -163 -20z"/>
<path d="M1071 1974 c-98 -21 -199 -53 -207 -65 -17 -29 19 -28 134 1 233 59
275 54 575 -66 218 -88 313 -109 404 -93 32 6 149 47 261 90 310 122 358 128
589 68 80 -20 120 -26 127 -19 19 19 -16 37 -129 66 -87 23 -132 29 -215 29
-118 0 -177 -16 -390 -108 -193 -83 -306 -103 -415 -73 -27 7 -124 43 -215 80
-90 37 -196 76 -234 87 -82 22 -191 24 -285 3z"/>
<path d="M1125 1854 c-63 -16 -151 -48 -157 -58 -4 -6 -3 -15 3 -22 6 -8 23
-6 63 7 29 10 85 24 124 30 95 16 165 -1 401 -96 320 -128 360 -131 581 -45
308 119 390 144 470 144 50 0 101 -8 153 -24 55 -16 81 -20 89 -12 17 17 2 28
-79 53 -61 19 -99 24 -178 23 -109 0 -117 -3 -422 -129 -62 -25 -147 -53 -189
-62 -100 -20 -152 -10 -349 69 -253 102 -311 119 -405 123 -47 2 -94 2 -105
-1z"/>
<path d="M2304 1565 l-24 -24 2 -747 c3 -725 4 -746 22 -760 11 -8 34 -14 52
-14 67 0 64 -37 64 787 0 730 0 743 -20 763 -27 27 -66 25 -96 -5z"/>
<path d="M1587 1314 c-162 -125 -225 -179 -220 -189 5 -7 109 -90 232 -184
241 -183 251 -188 251 -110 l0 39 46 0 c88 0 84 -12 84 265 0 277 4 265 -84
265 -44 0 -46 1 -46 29 0 38 -9 61 -24 60 -6 0 -113 -79 -239 -175z m209 -461
c-6 -7 -361 268 -361 279 0 5 81 72 180 147 l180 138 3 -280 c1 -154 0 -282
-2 -284z m146 449 c1 -27 2 -124 0 -215 l-3 -167 -44 0 -45 0 0 215 0 215 44
0 44 0 4 -48z"/>
<path d="M334 1470 c-11 -4 -33 -22 -47 -40 -32 -37 -35 -85 -10 -138 10 -20
112 -130 234 -250 l217 -213 4 -102 c4 -131 30 -189 98 -227 39 -21 59 -25
150 -26 l104 -2 219 -222 c121 -122 230 -226 244 -231 97 -37 193 35 180 134
-5 37 -26 61 -230 266 l-225 226 -5 110 c-5 121 -18 164 -64 206 -41 39 -92
51 -203 50 l-99 0 -208 214 c-239 247 -282 277 -359 245z m301 -320 l241 -240
112 0 c172 0 182 -10 182 -183 l0 -111 236 -237 c135 -135 234 -243 232 -251
-3 -7 -15 -15 -28 -16 -19 -3 -67 40 -257 230 l-233 233 -126 3 -125 4 -20 31
c-16 27 -19 51 -19 142 l0 109 -235 236 c-129 129 -235 242 -235 251 0 14 18
39 29 39 3 0 113 -108 246 -240z"/>
<path d="M140 681 l0 -51 -58 0 c-32 0 -63 -5 -70 -12 -17 -17 -17 -479 0
-496 7 -7 38 -12 70 -12 l58 0 0 -44 c0 -25 4 -47 9 -50 11 -7 471 343 471
358 -1 13 -436 347 -462 354 -16 4 -18 -2 -18 -47z m235 -165 c94 -71 174
-132 178 -136 7 -6 -353 -290 -367 -290 -3 0 -6 129 -6 286 0 225 3 284 13
278 6 -4 89 -66 182 -138z m-245 -146 l0 -220 -45 0 -45 0 0 220 0 220 45 0
45 0 0 -220z"/>
</g>
</svg>
