<?xml version="1.0" standalone="no"?>
<!DOCTYPE svg PUBLIC "-//W3C//DTD SVG 20010904//EN"
 "http://www.w3.org/TR/2001/REC-SVG-20010904/DTD/svg10.dtd">
<svg version="1.0" xmlns="http://www.w3.org/2000/svg"
 width="468pt" height="453pt" viewBox="0 0 468 453"
 preserveAspectRatio="xMidYMid meet">
<metadata>
Created by potrace 1.8, written by Peter Selinger 2001-2007
</metadata>
<g transform="translate(0,453) scale(0.158644,-0.158644)"
fill="#000000" stroke="none">
<path d="M1887 2836 c-8 -19 -6 -20 87 -41 87 -19 144 -45 208 -91 35 -26 52
-34 60 -26 18 18 3 37 -62 81 -97 64 -280 112 -293 77z"/>
<path d="M2375 2710 c-11 -4 -194 -183 -407 -397 l-388 -389 0 -54 0 -54 228
-227 c147 -148 237 -230 255 -235 76 -18 77 -18 479 384 208 207 384 390 393
408 8 18 15 47 15 65 0 30 -23 56 -238 271 -232 232 -238 238 -277 237 -22 0
-49 -4 -60 -9z m250 -320 l190 -190 -358 -358 -357 -357 -192 193 -193 192
355 355 c195 195 357 355 360 355 3 0 91 -86 195 -190z"/>
<path d="M2082 2217 c-211 -211 -322 -329 -322 -342 0 -24 317 -345 340 -345
18 0 658 638 666 664 5 14 -30 55 -157 182 -104 104 -171 164 -184 164 -13 0
-132 -112 -343 -323z"/>
<path d="M1867 2693 c-19 -18 -3 -32 46 -38 63 -9 110 -27 153 -60 38 -29 64
-32 64 -7 0 50 -227 142 -263 105z"/>
<path d="M190 2573 c-29 -26 -38 -53 -111 -328 -57 -213 -79 -310 -75 -334 6
-39 36 -75 74 -90 63 -24 1006 -271 1038 -271 41 0 89 23 103 48 21 41 169
619 164 643 -3 15 -19 41 -36 57 -29 28 -77 43 -538 166 -278 75 -524 136
-547 136 -31 0 -49 -7 -72 -27z m584 -238 c259 -69 471 -127 472 -128 2 -2
-136 -520 -139 -524 -4 -3 -958 255 -964 261 -5 4 123 499 134 518 2 4 9 5 16
3 7 -2 223 -61 481 -130z"/>
<path d="M297 2428 c-16 -13 -127 -402 -127 -446 0 -11 6 -24 13 -30 20 -16
879 -243 898 -237 10 4 20 14 23 23 47 159 115 434 110 446 -3 9 -35 24 -73
35 -70 21 -817 221 -823 221 -2 0 -12 -6 -21 -12z"/>
<path d="M1367 1822 c-14 -16 -107 -334 -107 -368 0 -23 38 -54 67 -54 15 0
98 18 183 41 163 43 200 64 200 112 0 14 -45 66 -133 154 -112 113 -138 133
-163 133 -17 0 -38 -8 -47 -18z m131 -237 c-3 -3 -20 -10 -37 -15 l-32 -9 6
32 c11 49 15 51 43 23 14 -14 23 -28 20 -31z"/>
<path d="M79 1754 c-9 -12 -13 -45 -13 -113 0 -77 6 -112 28 -178 22 -69 31
-83 48 -83 23 0 23 0 -12 115 -17 55 -20 91 -18 169 3 102 -5 124 -33 90z"/>
<path d="M224 1694 c-13 -49 2 -177 25 -221 21 -42 45 -55 54 -30 2 6 -5 30
-17 52 -15 30 -21 61 -22 122 -1 45 -5 86 -8 92 -12 19 -25 12 -32 -15z"/>
<path d="M1266 1310 c-310 -85 -327 -93 -347 -159 -9 -32 5 -91 126 -546 75
-280 144 -523 154 -540 9 -16 34 -38 55 -49 l37 -18 292 77 c161 43 306 84
324 92 33 15 63 65 63 105 0 34 -266 1021 -285 1057 -18 36 -62 61 -102 60
-15 0 -158 -36 -317 -79z m439 -540 c70 -264 125 -483 122 -486 -11 -12 -512
-143 -518 -136 -7 9 -247 908 -251 941 -3 24 5 26 242 91 135 37 252 68 261
69 12 1 42 -99 144 -479z"/>
<path d="M1325 1175 c-235 -64 -245 -68 -245 -96 0 -39 230 -884 245 -898 12
-13 43 -7 233 43 121 32 225 62 232 66 7 4 12 18 12 31 0 36 -222 861 -238
887 -8 12 -20 22 -27 21 -6 0 -102 -25 -212 -54z"/>
<path d="M2166 663 c-32 -51 -52 -68 -119 -98 -54 -25 -70 -46 -47 -60 15 -9
110 37 153 75 39 34 67 78 67 105 0 28 -29 16 -54 -22z"/>
<path d="M2245 531 c-59 -60 -95 -88 -152 -116 -75 -36 -91 -62 -38 -58 52 4
137 57 212 131 67 68 87 102 64 116 -5 3 -44 -30 -86 -73z"/>
</g>
</svg>
