<?xml version="1.0" standalone="no"?>
<!DOCTYPE svg PUBLIC "-//W3C//DTD SVG 20010904//EN"
 "http://www.w3.org/TR/2001/REC-SVG-20010904/DTD/svg10.dtd">
<svg version="1.0" xmlns="http://www.w3.org/2000/svg"
 width="468pt" height="468pt" viewBox="0 0 468 468"
 preserveAspectRatio="xMidYMid meet">
<metadata>
Created by potrace 1.8, written by Peter Selinger 2001-2007
</metadata>
<g transform="translate(0,468) scale(0.158108,-0.158108)"
fill="#000000" stroke="none">
<path d="M1675 2949 c-11 -6 -140 -131 -288 -278 -173 -172 -271 -277 -277
-297 -7 -22 -7 -40 0 -60 6 -16 82 -100 168 -186 162 -163 187 -180 244 -163
27 8 543 518 564 557 8 15 14 42 14 59 0 29 -20 53 -167 201 -141 141 -174
169 -203 173 -19 3 -44 0 -55 -6z m48 -611 l-233 -233 -120 120 -120 120 232
232 233 233 120 -120 120 -120 -232 -232z"/>
<path d="M184 2868 c-17 -4 -38 -16 -48 -27 -20 -22 -126 -408 -126 -458 0
-22 9 -43 27 -62 26 -28 60 -39 385 -126 196 -52 368 -95 383 -95 39 0 81 25
93 57 20 51 112 408 112 435 0 16 -12 41 -27 58 -26 29 -55 38 -363 121 -411
110 -398 107 -436 97z m376 -219 c168 -45 306 -83 308 -84 3 -3 -78 -317 -84
-324 -4 -5 -617 160 -627 169 -12 10 73 320 87 320 6 0 148 -37 316 -81z"/>
<path d="M1000 2267 c-19 -9 -30 -29 -44 -79 -32 -110 1 -144 112 -117 110 26
122 77 38 158 -59 55 -67 58 -106 38z"/>
<path d="M899 1971 c-114 -31 -214 -63 -223 -70 -9 -7 -21 -30 -26 -50 -10
-32 0 -76 88 -404 103 -383 113 -408 168 -421 23 -6 425 94 466 115 21 11 48
60 48 88 0 32 -191 733 -206 756 -17 26 -56 45 -87 44 -12 0 -115 -26 -228
-58z m215 -98 c22 -73 165 -618 162 -621 -6 -5 -296 -82 -311 -82 -8 0 -17 10
-20 23 -4 13 -41 153 -84 312 -43 160 -77 292 -75 294 3 3 295 86 316 90 4 0
9 -7 12 -16z"/>
<path d="M2685 1502 c-33 -4 -65 -11 -72 -15 -20 -13 -33 -77 -34 -172 -1 -49
-4 -80 -6 -68 -2 13 -16 32 -30 43 -23 18 -40 20 -158 20 -128 0 -132 -1 -156
-26 l-24 -26 0 -339 0 -339 28 -27 c27 -28 29 -28 156 -28 122 0 131 1 155 24
14 13 27 33 28 45 3 18 7 15 20 -16 9 -20 25 -41 36 -47 31 -16 236 -14 277 3
55 23 57 41 53 501 -3 424 -5 444 -45 459 -27 11 -162 15 -228 8z m175 -487
l0 -395 -90 0 -90 0 0 395 0 395 90 0 90 0 0 -395z m-380 -95 l0 -300 -90 0
-90 0 0 300 0 300 90 0 90 0 0 -300z"/>
<path d="M1874 1150 c-41 -17 -54 -49 -55 -140 -1 -47 -4 -75 -6 -64 -2 12
-15 32 -29 45 -22 21 -37 24 -131 27 -123 5 -175 -7 -201 -45 -15 -24 -17 -50
-14 -208 2 -99 5 -188 8 -198 11 -35 57 -47 179 -47 120 0 166 12 179 45 3 9
7 71 8 138 l2 122 5 -126 c4 -85 10 -131 20 -142 23 -28 82 -39 193 -35 96 3
109 5 132 27 l26 24 0 267 0 267 -26 24 c-24 22 -34 24 -147 26 -67 2 -132 -2
-143 -7z m226 -310 l0 -220 -90 0 -90 0 0 220 0 220 90 0 90 0 0 -220z m-390
-70 l0 -150 -85 0 -85 0 0 150 0 150 85 0 85 0 0 -150z"/>
<path d="M2714 416 c-69 -30 -104 -99 -104 -203 0 -108 46 -182 125 -202 93
-23 173 22 200 113 57 192 -68 358 -221 292z m91 -62 c28 -11 45 -60 45 -133
0 -71 -12 -120 -33 -133 -7 -4 -26 -8 -44 -8 -50 0 -63 28 -63 138 0 85 2 95
25 117 25 26 41 30 70 19z"/>
<path d="M1597 413 c-8 -15 -127 -381 -127 -393 0 -7 16 -10 47 -8 47 3 47 3
58 48 l11 45 61 3 61 3 7 -33 c14 -69 13 -68 66 -68 59 0 61 -21 -20 230 l-57
175 -51 3 c-28 2 -53 -1 -56 -5z m78 -162 c9 -35 14 -65 12 -68 -3 -2 -23 -3
-44 -1 l-40 3 20 73 c11 41 23 70 27 65 5 -4 16 -37 25 -72z"/>
<path d="M1862 263 c4 -177 12 -205 67 -237 44 -26 142 -27 189 -2 53 27 62
63 62 241 l0 155 -45 0 -45 0 0 -144 c0 -182 -5 -196 -64 -196 -35 0 -48 5
-56 19 -5 11 -10 86 -10 170 l0 151 -51 0 -51 0 4 -157z"/>
<path d="M2230 385 l0 -35 60 0 60 0 2 -167 3 -168 48 -3 47 -3 0 170 0 171
60 0 60 0 0 35 0 35 -170 0 -170 0 0 -35z"/>
</g>
</svg>
