<?xml version="1.0" standalone="no"?>
<!DOCTYPE svg PUBLIC "-//W3C//DTD SVG 20010904//EN"
 "http://www.w3.org/TR/2001/REC-SVG-20010904/DTD/svg10.dtd">
<svg version="1.0" xmlns="http://www.w3.org/2000/svg"
 width="468pt" height="468pt" viewBox="0 0 468 468"
 preserveAspectRatio="xMidYMid meet">
<metadata>
Created by potrace 1.8, written by Peter Selinger 2001-2007
</metadata>
<g transform="translate(0,468) scale(0.157576,-0.157576)"
fill="#000000" stroke="none">
<path d="M518 2815 c-517 -264 -503 -255 -506 -291 -7 -69 61 -98 131 -56 17
11 193 101 389 201 234 119 359 189 363 201 10 31 -6 70 -36 85 -15 8 -30 15
-33 15 -3 0 -142 -70 -308 -155z"/>
<path d="M1734 2958 c-22 -10 -44 -47 -44 -72 0 -25 43 -51 318 -192 l277
-142 2 -123 c3 -140 6 -161 29 -183 22 -22 70 -20 94 4 17 17 20 33 20 124 l0
104 224 -114 c236 -120 249 -124 285 -80 17 21 17 64 0 81 -16 16 -1134 590
-1164 598 -11 3 -30 1 -41 -5z"/>
<path d="M1077 2106 c-85 -25 -103 -37 -94 -60 5 -13 13 -13 64 5 165 57 241
47 522 -65 347 -139 349 -139 694 -5 295 116 360 126 511 79 77 -25 98 -25 94
-3 -4 24 -134 63 -233 70 -95 6 -153 -10 -401 -112 -87 -36 -193 -72 -237 -81
-103 -21 -153 -11 -352 68 -251 101 -311 119 -405 124 -69 3 -99 0 -163 -20z"/>
<path d="M1081 1974 c-98 -21 -199 -53 -207 -65 -17 -29 19 -28 134 1 233 59
275 54 575 -66 218 -88 313 -109 404 -93 32 6 149 47 261 90 310 122 358 128
589 68 80 -20 120 -26 127 -19 19 19 -16 37 -129 66 -87 23 -132 29 -215 29
-118 0 -177 -16 -390 -108 -193 -83 -306 -103 -415 -73 -27 7 -124 43 -215 80
-90 37 -196 76 -234 87 -82 22 -191 24 -285 3z"/>
<path d="M1135 1854 c-63 -16 -151 -48 -157 -58 -4 -6 -3 -15 3 -22 6 -8 23
-6 63 7 29 10 85 24 124 30 95 16 165 -1 401 -96 320 -128 360 -131 581 -45
308 119 390 144 470 144 50 0 101 -8 153 -24 55 -16 81 -20 89 -12 17 17 2 28
-79 53 -61 19 -99 24 -178 23 -109 0 -117 -3 -422 -129 -62 -25 -147 -53 -189
-62 -100 -20 -152 -10 -349 69 -253 102 -311 119 -405 123 -47 2 -94 2 -105
-1z"/>
<path d="M2314 1565 l-24 -24 2 -747 c3 -725 4 -746 22 -760 11 -8 34 -14 52
-14 67 0 64 -37 64 787 0 730 0 743 -20 763 -27 27 -66 25 -96 -5z"/>
<path d="M301 1454 c-16 -21 -21 -41 -21 -89 l0 -62 -46 -7 c-26 -3 -75 -6
-109 -6 -53 0 -65 -3 -86 -26 l-24 -26 -3 -476 c-2 -347 1 -484 9 -505 18 -44
55 -57 164 -57 l95 0 0 -75 c0 -67 3 -79 25 -100 13 -14 34 -25 45 -25 30 0
936 694 943 722 4 12 1 33 -6 46 -7 13 -214 179 -462 368 -331 252 -457 344
-477 344 -17 0 -34 -9 -47 -26z m477 -454 c183 -140 331 -257 330 -261 -2 -4
-151 -121 -333 -259 -181 -139 -336 -257 -342 -262 -10 -8 -13 97 -13 522 0
424 3 530 13 523 6 -5 162 -124 345 -263z m-498 -255 l0 -405 -65 0 -65 0 0
405 0 405 65 0 65 0 0 -405z"/>
</g>
</svg>
