<?xml version="1.0" standalone="no"?>
<!DOCTYPE svg PUBLIC "-//W3C//DTD SVG 20010904//EN"
 "http://www.w3.org/TR/2001/REC-SVG-20010904/DTD/svg10.dtd">
<svg version="1.0" xmlns="http://www.w3.org/2000/svg"
 width="468pt" height="467pt" viewBox="0 0 468 467"
 preserveAspectRatio="xMidYMid meet">
<metadata>
Created by potrace 1.8, written by Peter Selinger 2001-2007
</metadata>
<g transform="translate(0,467) scale(0.157576,-0.157576)"
fill="#000000" stroke="none">
<path d="M1625 2943 c-91 -11 -232 -37 -320 -59 -499 -126 -932 -450 -1192
-892 -111 -189 -125 -250 -61 -277 41 -17 51 -12 124 57 240 230 591 409 940
478 153 31 462 39 626 16 383 -54 758 -233 1045 -498 81 -76 108 -84 148 -43
l25 24 0 471 c0 447 -1 471 -19 489 -22 22 -193 90 -330 130 -273 81 -484 112
-759 110 -108 -1 -210 -4 -227 -6z m440 -134 c213 -18 539 -96 710 -169 l45
-19 0 -346 c0 -190 -2 -345 -5 -345 -3 0 -31 21 -63 47 -205 168 -535 326
-817 391 -271 63 -591 69 -855 16 -236 -48 -473 -142 -673 -265 -91 -57 -89
-51 36 92 137 157 338 309 542 409 226 111 430 165 725 193 79 8 242 6 355 -4z"/>
<path d="M10 1571 c-6 -11 -10 -88 -10 -180 0 -132 3 -162 16 -175 12 -13 39
-16 129 -16 150 0 145 -7 145 198 0 87 -5 162 -10 173 -10 17 -22 19 -135 19
-113 0 -125 -2 -135 -19z m180 -171 l0 -100 -45 0 -45 0 0 100 0 100 45 0 45
0 0 -100z"/>
<path d="M2282 1574 c-21 -15 -22 -21 -22 -188 0 -120 4 -176 12 -184 19 -19
66 -15 78 7 6 11 10 89 10 180 0 148 -2 163 -20 181 -24 24 -29 24 -58 4z"/>
<path d="M2390 1570 c-12 -7 -16 -40 -18 -170 -5 -217 -10 -210 146 -210 78 0
122 4 130 12 17 17 17 349 0 366 -15 15 -235 16 -258 2z m170 -180 l0 -100
-45 0 -45 0 0 100 0 100 45 0 45 0 0 -100z"/>
<path d="M2692 1568 c-18 -18 -17 -351 2 -367 9 -8 53 -11 132 -9 148 4 144
-3 144 193 0 196 5 189 -145 193 -85 2 -124 -1 -133 -10z m178 -178 l0 -100
-45 0 -45 0 0 100 0 100 45 0 45 0 0 -100z"/>
<path d="M1533 1297 c-284 -283 -277 -249 -90 -434 72 -72 142 -134 154 -137
43 -13 91 24 296 231 206 209 207 209 207 253 0 43 -3 47 -133 177 -186 186
-151 193 -434 -90z m342 -7 l80 -80 -168 -168 -167 -167 -82 83 -83 82 165
165 c91 91 167 165 170 165 3 0 41 -36 85 -80z"/>
<path d="M589 1445 c-14 -8 -31 -27 -37 -42 -16 -40 -92 -325 -92 -345 0 -10
12 -31 28 -48 24 -27 55 -37 307 -105 153 -41 288 -75 298 -75 25 0 77 28 78
43 0 6 5 -3 10 -21 14 -47 45 -58 114 -43 97 22 112 77 40 149 -40 40 -48 44
-77 38 -18 -3 -39 -14 -47 -24 -12 -16 -13 -16 -7 3 61 217 66 245 52 279 -8
19 -24 40 -37 46 -25 14 -566 160 -589 160 -8 -1 -27 -7 -41 -15z m313 -192
c164 -44 218 -62 217 -73 0 -8 -13 -58 -28 -110 -23 -82 -30 -95 -46 -92 -35
7 -430 114 -435 118 -2 3 4 35 14 72 9 37 22 84 27 105 5 20 15 37 22 37 7 0
110 -25 229 -57z"/>
<path d="M1170 766 c-85 -24 -163 -47 -173 -51 -19 -8 -47 -55 -47 -79 0 -32
149 -568 165 -592 31 -48 55 -49 225 -4 85 23 168 46 183 52 28 11 57 53 57
84 0 9 -34 143 -75 298 -81 299 -91 321 -150 330 -18 3 -91 -12 -185 -38z
m204 -323 c32 -120 59 -222 60 -227 1 -9 -171 -64 -205 -65 -11 -1 -22 26 -42
102 -15 56 -42 159 -61 228 l-34 127 92 25 c145 39 124 59 190 -190z"/>
</g>
</svg>
