<?xml version="1.0" standalone="no"?>
<!DOCTYPE svg PUBLIC "-//W3C//DTD SVG 20010904//EN"
 "http://www.w3.org/TR/2001/REC-SVG-20010904/DTD/svg10.dtd">
<svg version="1.0" xmlns="http://www.w3.org/2000/svg"
 width="468pt" height="485pt" viewBox="0 0 468 485"
 preserveAspectRatio="xMidYMid meet">
<metadata>
Created by potrace 1.8, written by Peter Selinger 2001-2007
</metadata>
<g transform="translate(0,485) scale(0.162500,-0.162500)"
fill="#000000" stroke="none">
<path d="M1675 2969 c-11 -6 -140 -131 -288 -278 -173 -172 -271 -277 -277
-297 -7 -22 -7 -40 0 -60 6 -16 82 -100 168 -186 162 -163 187 -180 244 -163
27 8 543 518 564 557 8 15 14 42 14 59 0 29 -20 53 -167 201 -141 141 -174
169 -203 173 -19 3 -44 0 -55 -6z m48 -611 l-233 -233 -120 120 -120 120 232
232 233 233 120 -120 120 -120 -232 -232z"/>
<path d="M184 2888 c-17 -4 -38 -16 -48 -27 -20 -22 -126 -408 -126 -458 0
-22 9 -43 27 -62 26 -28 60 -39 385 -126 196 -52 368 -95 383 -95 39 0 81 25
93 57 20 51 112 408 112 435 0 16 -12 41 -27 58 -26 29 -55 38 -363 121 -411
110 -398 107 -436 97z m376 -219 c168 -45 306 -83 308 -84 3 -3 -78 -317 -84
-324 -4 -5 -617 160 -627 169 -12 10 73 320 87 320 6 0 148 -37 316 -81z"/>
<path d="M1000 2287 c-19 -9 -30 -29 -44 -79 -32 -110 1 -144 112 -117 110 26
122 77 38 158 -59 55 -67 58 -106 38z"/>
<path d="M899 1991 c-114 -31 -214 -63 -223 -70 -9 -7 -21 -30 -26 -50 -10
-32 0 -76 88 -404 103 -383 113 -408 168 -421 23 -6 425 94 466 115 21 11 48
60 48 88 0 32 -191 733 -206 756 -17 26 -56 45 -87 44 -12 0 -115 -26 -228
-58z m215 -98 c22 -73 165 -618 162 -621 -6 -5 -296 -82 -311 -82 -8 0 -17 10
-20 23 -4 13 -41 153 -84 312 -43 160 -77 292 -75 294 3 3 295 86 316 90 4 0
9 -7 12 -16z"/>
<path d="M2271 1667 c-47 -18 -73 -56 -79 -116 l-5 -51 -58 0 c-75 0 -104 -12
-126 -52 -16 -29 -19 -70 -23 -348 l-5 -315 -17 56 c-23 73 -54 101 -117 107
-89 8 -185 -46 -196 -111 -7 -46 174 -806 196 -820 20 -13 65 -2 72 18 4 8
-34 186 -84 396 -69 294 -87 384 -78 395 16 19 88 40 97 28 5 -5 37 -99 72
-209 34 -110 67 -208 72 -217 10 -21 58 -24 76 -6 9 9 12 129 12 481 0 304 4
475 10 488 7 12 21 19 40 19 64 0 60 24 60 -380 0 -356 1 -367 20 -385 16 -15
26 -17 48 -9 l27 9 3 468 2 468 63 -3 62 -3 3 -434 c1 -300 6 -438 13 -448 14
-16 51 -17 67 -1 9 9 12 108 12 385 l0 373 39 0 c74 0 71 17 71 -435 0 -389 1
-405 19 -415 28 -14 38 -13 61 10 19 19 20 33 20 325 0 287 1 305 18 305 42 0
42 1 42 -605 0 -565 1 -582 20 -600 25 -23 68 -13 75 18 3 12 4 288 3 612 -3
550 -4 593 -21 618 -20 31 -43 43 -98 52 -36 5 -37 7 -43 58 -13 99 -57 144
-150 154 -45 5 -56 9 -56 24 0 30 -21 68 -48 85 -33 22 -146 28 -191 11z"/>
</g>
</svg>
