<?xml version="1.0" standalone="no"?>
<!DOCTYPE svg PUBLIC "-//W3C//DTD SVG 20010904//EN"
 "http://www.w3.org/TR/2001/REC-SVG-20010904/DTD/svg10.dtd">
<svg version="1.0" xmlns="http://www.w3.org/2000/svg"
 width="468pt" height="561pt" viewBox="0 0 468 561"
 preserveAspectRatio="xMidYMid meet">
<metadata>
Created by potrace 1.8, written by Peter Selinger 2001-2007
</metadata>
<g transform="translate(0,561) scale(0.188710,-0.188710)"
fill="#000000" stroke="none">
<path d="M55 2960 c-43 -17 -63 -72 -37 -102 6 -7 141 -80 301 -162 l291 -149
0 -142 c0 -158 7 -175 67 -175 52 0 63 24 63 138 0 62 4 102 10 102 6 0 108
-50 228 -111 201 -103 219 -110 243 -99 26 12 49 47 49 74 0 7 -10 22 -22 33
-20 17 -1157 604 -1169 602 -2 0 -13 -4 -24 -9z"/>
<path d="M587 2106 c-85 -25 -103 -37 -94 -60 5 -13 13 -13 64 5 165 57 241
47 522 -65 347 -139 349 -139 694 -5 295 116 360 126 511 79 77 -25 98 -25 94
-3 -4 24 -134 63 -233 70 -95 6 -153 -10 -401 -112 -87 -36 -193 -72 -237 -81
-103 -21 -153 -11 -352 68 -251 101 -311 119 -405 124 -69 3 -99 0 -163 -20z"/>
<path d="M591 1974 c-98 -21 -199 -53 -207 -65 -17 -29 19 -28 134 1 233 59
275 54 575 -66 218 -88 313 -109 404 -93 32 6 149 47 261 90 310 122 358 128
589 68 80 -20 120 -26 127 -19 19 19 -16 37 -129 66 -87 23 -132 29 -215 29
-118 0 -177 -16 -390 -108 -193 -83 -306 -103 -415 -73 -27 7 -124 43 -215 80
-90 37 -196 76 -234 87 -82 22 -191 24 -285 3z"/>
<path d="M645 1854 c-63 -16 -151 -48 -157 -58 -4 -6 -3 -15 3 -22 6 -8 23 -6
63 7 29 10 85 24 124 30 95 16 165 -1 401 -96 320 -128 360 -131 581 -45 308
119 390 144 470 144 50 0 101 -8 153 -24 55 -16 81 -20 89 -12 17 17 2 28 -79
53 -61 19 -99 24 -178 23 -109 0 -117 -3 -422 -129 -62 -25 -147 -53 -189 -62
-100 -20 -152 -10 -349 69 -253 102 -311 119 -405 123 -47 2 -94 2 -105 -1z"/>
<path d="M632 1574 l-22 -15 0 -753 c0 -717 1 -754 18 -769 25 -22 75 -21 95
1 16 17 17 85 17 770 l0 751 -22 15 c-12 9 -32 16 -43 16 -11 0 -31 -7 -43
-16z"/>
<path d="M1651 1134 c-257 -197 -457 -357 -464 -371 -9 -19 -8 -30 3 -50 21
-35 910 -713 936 -713 12 0 32 9 45 19 21 17 24 30 27 100 l4 81 105 0 c96 0
106 2 128 24 13 13 26 39 30 57 3 19 5 243 3 497 l-3 464 -28 24 c-26 22 -37
24 -133 24 l-104 0 0 69 c0 81 -23 121 -69 121 -20 0 -141 -88 -480 -346z
m407 -659 l-3 -264 -340 260 c-187 143 -341 263 -343 268 -1 4 152 126 340
270 l343 262 3 -265 c1 -147 1 -385 0 -531z m272 270 l0 -405 -65 0 -65 0 0
405 0 405 65 0 65 0 0 -405z"/>
</g>
</svg>
