<svg version="1.0" xmlns="http://www.w3.org/2000/svg"
 width="270pt" height="295pt" viewBox="0 0 270 295" preserveAspectRatio="xMidYMid meet">
<metadata>
Created by potrace 1.14, written by Peter Selinger 2001-2017
</metadata>
<g transform="translate(0,295) scale(0.1,-0.1)"
fill="#000000" stroke="none">
<path d="M1589 2928 c-311 -140 -1457 -640 -1489 -648 -51 -14 -90 -50 -90
-85 0 -51 103 -438 121 -456 29 -29 66 -33 148 -15 42 9 424 52 849 97 425 44
779 82 785 85 7 3 154 155 327 339 l315 335 5 -1271 5 -1271 24 -19 c13 -10
30 -19 38 -19 18 0 56 19 65 34 4 6 8 593 8 1304 0 1279 0 1292 -20 1312 -26
26 -60 25 -94 -1 -20 -16 -26 -17 -26 -6 0 8 -6 19 -13 25 -10 9 -473 151
-863 265 -48 14 -54 14 -95 -5z m105 -523 c53 -198 96 -365 96 -371 0 -10
-247 -41 -254 -33 -2 4 -167 655 -170 673 -1 11 217 107 225 98 4 -4 50 -169
103 -367z m-560 -132 c38 -153 71 -285 73 -294 4 -14 -14 -18 -122 -29 -69 -6
-128 -10 -129 -9 -6 8 -127 502 -123 505 4 4 220 102 227 103 3 1 36 -124 74
-276z m-595 0 c36 -138 91 -366 89 -368 -4 -4 -211 -26 -213 -23 -5 7 -85 341
-82 344 5 5 182 84 189 84 4 0 12 -17 17 -37z"/>
<path d="M765 918 c-51 -18 -82 -46 -107 -96 -23 -46 -23 -53 -23 -342 l0
-295 73 -3 72 -3 0 196 0 195 90 0 90 0 0 60 0 60 -90 0 c-89 0 -90 0 -90 25
0 69 52 104 131 86 24 -5 44 -9 45 -8 3 5 24 97 24 106 0 27 -154 40 -215 19z"/>
<path d="M75 854 c-16 -3 -40 -7 -53 -9 l-22 -5 2 -322 3 -322 30 -8 c17 -4
86 -9 155 -9 151 -2 222 15 279 66 82 74 79 221 -5 279 l-34 23 25 23 c30 29
49 90 40 133 -12 57 -43 95 -101 123 -49 24 -69 27 -172 30 -64 1 -130 0 -147
-2z m239 -136 c30 -13 40 -39 32 -74 -9 -34 -60 -54 -136 -54 l-60 0 0 70 0
70 70 0 c38 0 80 -5 94 -12z m35 -272 c17 -15 21 -29 19 -59 -5 -61 -38 -81
-136 -82 l-77 0 -3 84 -3 83 90 -3 c71 -3 93 -8 110 -23z"/>
<path d="M1095 826 l-60 -11 0 -245 c0 -273 8 -320 65 -360 46 -33 129 -46
197 -32 31 6 61 16 65 20 5 5 5 31 1 58 l-9 49 -56 -3 c-106 -7 -118 10 -118
163 l0 105 85 0 85 0 0 60 0 60 -85 0 -85 0 0 75 c0 54 -4 75 -12 74 -7 -1
-40 -6 -73 -13z"/>
</g>
</svg>
