<?xml version="1.0" standalone="no"?>
<!DOCTYPE svg PUBLIC "-//W3C//DTD SVG 20010904//EN"
 "http://www.w3.org/TR/2001/REC-SVG-20010904/DTD/svg10.dtd">
<svg version="1.0" xmlns="http://www.w3.org/2000/svg"
 width="468pt" height="467pt" viewBox="0 0 468 467"
 preserveAspectRatio="xMidYMid meet">
<metadata>
Created by potrace 1.8, written by Peter Selinger 2001-2007
</metadata>
<g transform="translate(0,467) scale(0.157576,-0.157576)"
fill="#000000" stroke="none">
<path d="M970 2951 c-178 -6 -211 -15 -244 -65 -16 -25 -21 -26 -114 -26 -111
0 -160 -11 -199 -44 -21 -17 -44 -25 -91 -28 -103 -7 -152 -62 -152 -170 0
-57 -1 -58 -27 -58 -38 0 -89 -33 -114 -72 -17 -29 -19 -47 -17 -150 l3 -118
38 -37 c36 -37 39 -38 121 -41 l84 -4 6 -57 c8 -70 35 -116 81 -138 27 -13 31
-19 21 -27 -23 -18 -226 -379 -226 -401 0 -50 57 -61 88 -17 45 64 212 364
212 380 0 10 -5 23 -12 30 -9 9 10 12 85 12 l98 0 -27 -47 c-15 -27 -31 -52
-36 -58 -13 -14 -9 -51 6 -64 8 -7 27 -11 42 -9 22 2 35 18 77 91 44 78 52 87
78 87 25 0 29 -4 29 -29 0 -38 38 -92 80 -113 26 -13 59 -18 128 -18 53 0 92
-4 92 -10 0 -14 30 -220 36 -250 4 -20 -3 -15 -41 28 -26 28 -55 52 -64 52
-20 0 -51 -30 -51 -48 0 -20 120 -526 130 -549 7 -17 18 -23 39 -23 55 0 57
23 16 198 -20 86 -39 164 -41 172 -3 8 15 -5 39 -29 49 -47 82 -50 93 -7 3 13
-8 114 -25 225 -17 110 -31 210 -31 221 0 19 7 20 110 20 106 0 110 -1 115
-22 34 -151 55 -253 55 -264 0 -9 -26 3 -69 32 -50 33 -75 44 -90 39 -46 -14
-44 -33 29 -251 39 -115 70 -212 70 -217 0 -5 -18 -6 -40 -2 -46 8 -70 -5 -70
-39 0 -11 25 -139 57 -284 61 -284 67 -297 119 -273 18 8 24 19 24 41 0 24
-40 219 -85 418 -5 22 -4 23 37 17 24 -3 48 -2 53 2 37 29 36 35 -30 232 -63
190 -64 192 -37 175 120 -79 144 -85 157 -43 3 10 -15 113 -40 229 -26 117
-45 212 -43 213 1 1 19 10 39 21 22 10 45 33 55 55 11 20 20 38 22 40 1 3 12
-5 25 -16 38 -35 63 -43 136 -43 39 0 71 -3 71 -6 0 -3 -18 -36 -40 -73 -45
-76 -49 -103 -19 -125 35 -24 56 -6 117 99 l57 100 57 3 58 3 -6 -30 c-8 -39
9 -61 47 -61 23 0 33 8 55 45 20 34 32 45 51 45 40 0 93 30 116 66 l22 34 133
0 c153 0 189 10 224 64 22 34 26 36 81 36 68 0 107 17 139 62 22 31 23 41 23
205 0 158 -2 174 -21 199 -35 47 -70 67 -127 72 l-55 4 -6 40 c-9 53 -58 102
-117 118 -52 15 -195 8 -230 -10 -13 -7 -33 -21 -45 -31 -20 -19 -21 -19 -43
5 -13 14 -36 28 -52 31 -26 6 -29 11 -29 43 0 61 -18 106 -55 142 -36 35 -37
35 -143 38 -120 4 -172 -7 -200 -43 -27 -34 -57 -31 -93 10 -17 19 -47 39 -67
45 -38 10 -413 11 -712 1z"/>
<path d="M2267 1728 c-156 -268 -178 -309 -172 -329 8 -25 44 -40 67 -28 14 8
216 346 234 392 9 23 -22 57 -52 57 -18 0 -34 -19 -77 -92z"/>
<path d="M692 1723 c-10 -10 -68 -102 -127 -206 -106 -185 -107 -188 -90 -213
12 -18 23 -24 43 -22 23 3 41 29 139 198 62 107 113 203 113 212 0 15 -35 48
-51 48 -4 0 -16 -8 -27 -17z"/>
<path d="M301 1437 c-61 -107 -111 -203 -111 -213 0 -43 54 -60 82 -26 29 34
218 371 218 389 0 27 -20 43 -51 43 -24 0 -37 -18 -138 -193z"/>
<path d="M1972 1608 c-27 -34 -222 -382 -222 -398 0 -25 24 -42 55 -38 23 3
42 29 134 189 59 103 110 193 114 202 14 38 -55 76 -81 45z"/>
<path d="M2134 1161 c-183 -80 -339 -153 -348 -160 -9 -7 -16 -22 -16 -33 0
-37 51 -223 66 -238 12 -12 61 -9 391 24 l378 38 107 110 107 110 3 -487 3
-487 25 -20 c28 -23 77 -18 98 9 9 13 12 144 12 573 0 527 -1 558 -18 573 -10
10 -29 17 -41 17 -12 0 -112 27 -221 60 -109 33 -202 60 -207 59 -4 0 -157
-67 -339 -148z m330 -127 c15 -58 25 -108 23 -111 -3 -2 -17 -5 -33 -6 -27 -2
-28 0 -52 97 -24 96 -24 99 -7 113 11 7 24 13 30 13 6 0 24 -48 39 -106z
m-204 -16 c6 -24 15 -59 20 -78 11 -41 2 -50 -56 -50 l-40 0 -16 66 -16 66 42
19 c22 10 44 19 48 19 4 0 12 -19 18 -42z m-222 -100 c6 -23 10 -43 9 -44 -9
-6 -78 -11 -81 -6 -2 4 -7 21 -10 37 -6 27 -3 32 21 42 45 18 50 15 61 -29z"/>
</g>
</svg>
