<?xml version="1.0" standalone="no"?>
<!DOCTYPE svg PUBLIC "-//W3C//DTD SVG 20010904//EN"
 "http://www.w3.org/TR/2001/REC-SVG-20010904/DTD/svg10.dtd">
<svg version="1.0" xmlns="http://www.w3.org/2000/svg"
 width="468pt" height="467pt" viewBox="0 0 468 467"
 preserveAspectRatio="xMidYMid meet">
<metadata>
Created by potrace 1.8, written by Peter Selinger 2001-2007
</metadata>
<g transform="translate(0,467) scale(0.158108,-0.158108)"
fill="#000000" stroke="none">
<path d="M1144 2619 c-412 -181 -768 -334 -791 -340 -51 -13 -84 -47 -85 -85
0 -16 23 -121 51 -234 67 -265 69 -267 217 -235 38 8 420 51 849 95 l780 81
85 87 c47 48 194 203 328 344 l242 257 0 -1272 c0 -700 4 -1277 8 -1283 10
-15 47 -34 67 -34 9 0 27 11 40 25 l25 24 0 1286 0 1286 -25 24 c-28 29 -68
32 -92 7 -17 -16 -19 -16 -38 6 -16 18 -112 50 -455 153 -239 71 -440 131
-446 133 -6 3 -348 -144 -760 -325z m710 144 c26 -89 196 -736 194 -738 -7 -6
-250 -26 -255 -21 -11 11 -172 671 -165 678 8 8 202 96 214 97 4 1 9 -7 12
-16z m-459 -510 c36 -144 65 -269 65 -276 0 -11 -31 -17 -121 -27 -66 -7 -123
-10 -126 -7 -3 3 -33 118 -67 255 l-63 249 116 50 c101 44 117 49 123 34 4 -9
37 -134 73 -278z m-559 -147 l51 -203 -105 -12 c-58 -6 -107 -9 -110 -7 -8 9
-83 319 -80 333 3 13 157 90 183 92 6 1 33 -91 61 -203z"/>
<path d="M632 1151 c-7 -4 -152 -190 -322 -412 -225 -294 -309 -411 -310 -431
0 -44 41 -68 116 -68 l64 0 0 -85 c0 -94 11 -128 47 -144 34 -15 862 -15 896
0 36 16 47 50 47 144 l0 85 59 0 c69 0 111 25 111 67 0 17 -92 145 -306 426
-169 221 -314 408 -322 415 -18 14 -61 16 -80 3z m270 -469 l226 -297 -229 -3
c-126 -1 -332 -1 -459 0 l-229 3 227 297 c125 164 229 298 232 298 3 0 107
-134 232 -298z m128 -497 l0 -55 -355 0 -355 0 0 55 0 55 355 0 355 0 0 -55z"/>
</g>
</svg>
