<?xml version="1.0" standalone="no"?>
<!DOCTYPE svg PUBLIC "-//W3C//DTD SVG 20010904//EN"
 "http://www.w3.org/TR/2001/REC-SVG-20010904/DTD/svg10.dtd">
<svg version="1.0" xmlns="http://www.w3.org/2000/svg"
 width="468pt" height="470pt" viewBox="0 0 468 470"
 preserveAspectRatio="xMidYMid meet">
<metadata>
Created by potrace 1.8, written by Peter Selinger 2001-2007
</metadata>
<g transform="translate(0,470) scale(0.159184,-0.159184)"
fill="#000000" stroke="none">
<path d="M773 2931 c-50 -23 -89 -78 -99 -138 l-7 -43 -154 0 c-171 0 -199 -7
-249 -61 -40 -43 -54 -86 -54 -164 l0 -62 -56 -12 c-67 -15 -127 -69 -143
-128 -6 -21 -11 -88 -11 -148 0 -129 18 -177 83 -229 l39 -31 249 -3 c137 -2
249 -5 249 -7 0 -2 -38 -70 -85 -151 -47 -82 -88 -158 -91 -169 -3 -13 3 -32
17 -48 17 -23 28 -28 58 -25 35 3 38 6 127 161 l92 157 7 -75 c6 -72 8 -76 48
-110 22 -19 55 -40 72 -46 l32 -12 -47 -81 c-63 -108 -66 -118 -37 -151 25
-30 66 -36 92 -15 8 7 45 66 83 131 64 113 68 119 100 119 37 0 36 3 16 -45
-14 -34 -14 -39 1 -61 9 -14 28 -29 42 -35 37 -14 65 8 105 81 30 55 36 60 67
60 42 0 46 10 -79 -206 -55 -95 -100 -182 -100 -193 0 -35 36 -63 78 -59 36 3
37 4 154 207 65 113 121 215 124 228 6 21 12 23 61 23 l55 0 -32 -52 c-17 -29
-43 -77 -57 -105 l-27 -53 20 -27 c15 -20 31 -29 57 -31 42 -4 33 -16 167 218
95 164 96 165 134 168 l37 3 -31 -53 c-17 -29 -43 -77 -58 -105 l-26 -53 20
-27 c15 -20 31 -29 57 -31 41 -4 39 -7 132 157 l61 106 134 5 c120 4 139 7
167 28 18 13 39 33 48 44 8 12 17 19 20 16 4 -3 -44 -93 -105 -199 -111 -194
-118 -213 -86 -246 18 -20 69 -26 88 -11 25 20 248 412 248 437 0 20 5 21 105
21 122 0 156 11 202 63 45 52 53 91 53 272 0 181 -8 220 -53 272 -50 57 -75
63 -266 63 l-169 0 -4 128 c-3 120 -5 131 -30 169 -49 74 -64 78 -391 81
l-288 3 -32 36 c-56 63 -55 63 -494 63 -369 0 -401 -2 -440 -19z"/>
<path d="M2088 1613 c-32 -39 -238 -410 -238 -430 0 -51 79 -83 113 -45 23 25
247 414 247 428 0 6 -9 23 -21 38 -25 31 -78 36 -101 9z"/>
<path d="M643 1538 c-11 -13 -71 -112 -133 -220 -107 -188 -112 -199 -100
-227 15 -37 57 -54 90 -38 26 13 260 410 260 440 0 26 -45 67 -73 67 -13 0
-33 -10 -44 -22z"/>
<path d="M364 1430 c-21 -8 -248 -389 -260 -435 -12 -49 67 -95 108 -62 23 18
248 413 248 435 0 43 -55 79 -96 62z"/>
<path d="M997 1348 c-27 -21 -247 -411 -247 -439 0 -14 8 -33 18 -42 22 -20
75 -22 94 -4 31 31 241 410 241 435 0 48 -66 79 -106 50z"/>
<path d="M1698 1333 c-36 -42 -238 -405 -238 -428 0 -54 78 -87 112 -47 8 9
65 104 127 209 115 199 127 235 93 266 -24 22 -75 22 -94 0z"/>
<path d="M2142 1258 c-32 -39 -242 -417 -242 -435 0 -46 67 -80 107 -55 15 9
253 422 253 438 0 6 -9 23 -21 38 -22 29 -78 36 -97 14z"/>
<path d="M687 1218 c-59 -81 -227 -388 -227 -417 0 -53 78 -83 112 -43 34 39
238 407 238 428 0 33 -34 64 -69 64 -22 0 -36 -9 -54 -32z"/>
<path d="M1422 1237 c-33 -18 -264 -424 -256 -451 13 -47 71 -71 106 -43 27
21 248 412 248 439 0 45 -57 77 -98 55z"/>
<path d="M1062 1053 c-10 -10 -63 -94 -116 -186 -141 -245 -139 -240 -125
-270 14 -30 59 -52 88 -42 25 8 261 413 261 449 0 27 -41 66 -70 66 -10 0 -27
-8 -38 -17z"/>
<path d="M1757 1028 c-13 -18 -73 -118 -132 -222 -105 -182 -108 -190 -94
-215 8 -14 27 -32 42 -39 24 -12 32 -11 51 2 28 18 256 413 256 443 0 26 -44
63 -76 63 -14 0 -32 -12 -47 -32z"/>
<path d="M327 998 c-27 -25 -257 -380 -264 -408 -12 -46 52 -89 98 -67 26 14
279 401 279 428 0 24 -31 57 -61 64 -19 5 -33 0 -52 -17z"/>
<path d="M663 768 c-25 -28 -243 -409 -243 -424 0 -6 9 -23 21 -38 23 -29 78
-36 98 -12 31 37 241 413 241 431 0 29 -40 65 -71 65 -14 0 -35 -10 -46 -22z"/>
<path d="M1352 738 c-24 -31 -242 -418 -242 -431 0 -8 9 -26 21 -41 22 -28 64
-35 91 -14 19 16 236 391 244 422 8 34 -30 76 -71 76 -18 0 -37 -6 -43 -12z"/>
<path d="M398 703 c-16 -4 -238 -348 -269 -415 -10 -23 -9 -31 5 -52 19 -29
58 -43 87 -30 28 13 269 402 269 435 0 40 -49 73 -92 62z"/>
<path d="M1806 658 c-22 -20 -181 -284 -199 -331 -17 -45 38 -95 89 -83 28 7
214 326 214 366 0 29 -22 54 -57 64 -14 5 -29 0 -47 -16z"/>
<path d="M1063 645 c-12 -8 -74 -105 -138 -216 -126 -216 -132 -236 -83 -272
54 -40 70 -24 199 199 64 111 120 211 124 223 5 16 -1 29 -24 51 -33 34 -47
37 -78 15z"/>
<path d="M732 503 c-33 -29 -242 -402 -242 -433 0 -29 22 -54 57 -64 14 -5 29
0 47 16 35 32 246 401 246 432 0 27 -41 66 -70 66 -10 0 -27 -8 -38 -17z"/>
<path d="M1427 458 c-13 -18 -65 -106 -116 -195 -101 -176 -107 -200 -59 -236
52 -39 69 -22 189 186 60 104 109 199 109 212 0 28 -43 65 -76 65 -14 0 -32
-12 -47 -32z"/>
</g>
</svg>
