<?xml version="1.0" standalone="no"?>
<!DOCTYPE svg PUBLIC "-//W3C//DTD SVG 20010904//EN"
 "http://www.w3.org/TR/2001/REC-SVG-20010904/DTD/svg10.dtd">
<svg version="1.0" xmlns="http://www.w3.org/2000/svg"
 width="468pt" height="467pt" viewBox="0 0 468 467"
 preserveAspectRatio="xMidYMid meet">
<metadata>
Created by potrace 1.8, written by Peter Selinger 2001-2007
</metadata>
<g transform="translate(0,467) scale(0.157576,-0.157576)"
fill="#000000" stroke="none">
<path d="M1949 2948 c-28 -5 -54 -18 -73 -38 -27 -26 -31 -38 -34 -97 -5 -99
54 -743 71 -785 8 -19 27 -45 43 -57 l29 -23 36 -913 c33 -831 38 -916 55
-951 34 -69 56 -74 319 -74 199 0 235 2 265 18 73 36 68 -7 115 1006 l41 911
36 35 c46 46 51 71 83 447 30 360 31 407 7 453 -35 70 -27 69 -514 72 -240 2
-456 0 -479 -4z m877 -195 c-7 -77 -43 -480 -52 -591 -6 -71 -7 -73 -39 -87
-19 -7 -38 -22 -43 -32 -5 -10 -24 -337 -41 -728 -18 -390 -34 -728 -37 -750
l-4 -40 -83 3 c-87 3 -114 -6 -103 -33 5 -14 19 -16 96 -13 l90 3 0 -60 c0
-33 -3 -76 -6 -95 l-6 -35 -81 3 c-87 3 -114 -6 -103 -33 5 -14 19 -16 96 -13
l90 3 0 -37 0 -38 -90 0 c-71 0 -92 -3 -96 -15 -5 -12 -27 -15 -115 -15 l-109
0 0 57 c0 173 -72 1812 -80 1831 -6 13 -25 29 -44 37 l-33 14 -12 153 c-7 84
-21 245 -31 357 -11 113 -17 208 -14 213 3 4 197 8 431 8 l425 0 -6 -67z"/>
<path d="M2311 2127 c-24 -30 11 -38 155 -35 131 3 139 4 139 23 0 19 -8 20
-141 23 -111 2 -144 0 -153 -11z"/>
<path d="M2425 2010 c-14 -22 11 -30 96 -30 82 0 89 1 89 20 0 19 -7 20 -89
20 -50 0 -93 -4 -96 -10z"/>
<path d="M2433 1899 c-6 -6 -9 -18 -6 -25 4 -11 28 -14 95 -14 87 0 89 1 86
23 -3 20 -9 22 -83 25 -51 2 -84 -1 -92 -9z"/>
<path d="M2427 1776 c-10 -25 16 -36 84 -36 80 0 99 6 99 31 0 17 -8 19 -89
19 -66 0 -90 -4 -94 -14z"/>
<path d="M2425 1660 c-14 -22 11 -30 96 -30 82 0 89 1 89 20 0 19 -7 20 -89
20 -50 0 -93 -4 -96 -10z"/>
<path d="M2300 1540 c0 -19 7 -20 150 -20 143 0 150 1 150 20 0 19 -7 20 -150
20 -143 0 -150 -1 -150 -20z"/>
<path d="M2417 1434 c-3 -3 -3 -12 0 -20 4 -11 27 -14 94 -14 82 0 89 1 89 20
0 18 -7 20 -88 20 -49 0 -91 -3 -95 -6z"/>
<path d="M2417 1316 c-10 -26 16 -36 93 -36 77 0 103 10 93 36 -7 20 -179 20
-186 0z"/>
<path d="M2415 1200 c-14 -22 11 -30 96 -30 82 0 89 1 89 20 0 19 -7 20 -89
20 -50 0 -93 -4 -96 -10z"/>
<path d="M2422 1088 c-24 -24 7 -38 87 -38 81 0 110 12 90 37 -15 17 -160 18
-177 1z"/>
<path d="M2305 980 c-4 -6 -1 -17 5 -25 10 -12 41 -15 144 -15 135 0 163 7
153 34 -5 14 -28 16 -151 16 -90 0 -147 -4 -151 -10z"/>
<path d="M2425 860 c-14 -22 11 -30 96 -30 82 0 89 1 89 20 0 19 -7 20 -89 20
-50 0 -93 -4 -96 -10z"/>
<path d="M2423 744 c-10 -26 17 -34 102 -32 72 3 80 5 80 23 0 18 -8 20 -88
23 -73 2 -88 0 -94 -14z"/>
<path d="M2425 630 c-14 -22 11 -30 96 -30 82 0 89 1 89 20 0 19 -7 20 -89 20
-50 0 -93 -4 -96 -10z"/>
<path d="M2295 400 c-15 -25 13 -30 156 -30 142 0 149 1 149 20 0 19 -7 20
-149 20 -89 0 -152 -4 -156 -10z"/>
<path d="M275 2931 c-41 -25 -65 -53 -74 -87 -6 -24 -14 -30 -45 -35 -42 -7
-80 -32 -110 -73 -22 -29 -37 -162 -40 -356 -1 -83 2 -100 22 -132 14 -22 41
-45 67 -58 43 -21 45 -24 45 -66 0 -52 19 -103 50 -134 l21 -21 -78 -137 c-43
-75 -81 -144 -85 -153 -9 -24 19 -59 47 -59 28 0 37 11 141 193 77 133 79 137
112 137 29 0 33 -3 27 -17 -19 -45 -17 -61 9 -78 35 -23 50 -15 87 45 29 47
33 50 73 50 30 0 48 -6 61 -20 23 -25 47 -25 70 0 18 20 75 28 75 11 0 -6 -25
-52 -55 -104 -30 -51 -55 -101 -55 -109 0 -19 32 -48 52 -48 22 0 38 22 113
153 65 114 68 117 101 117 39 0 67 12 103 44 19 18 17 10 -14 -46 -39 -71 -38
-99 4 -113 32 -10 45 3 101 100 51 90 56 95 87 95 36 0 38 -2 22 -31 -16 -31
14 -71 49 -67 21 2 35 18 71 79 40 70 48 78 81 83 49 8 99 43 121 86 16 29 19
58 19 173 0 95 -4 148 -14 171 -15 37 -67 80 -107 90 -26 6 -27 9 -30 85 -4
85 -18 114 -73 155 -24 19 -44 21 -184 24 -148 3 -158 5 -182 26 -48 45 -56
46 -362 46 -268 0 -296 -2 -323 -19z"/>
<path d="M517 1843 c-17 -20 -179 -297 -190 -326 -16 -43 37 -79 72 -49 21 18
201 324 201 341 0 16 -38 51 -53 51 -8 0 -21 -8 -30 -17z"/>
<path d="M1122 1833 c-35 -30 -200 -332 -195 -354 8 -30 51 -44 73 -24 24 22
200 328 200 348 0 15 -35 47 -51 47 -4 0 -16 -8 -27 -17z"/>
<path d="M278 1753 c-30 -35 -188 -320 -188 -339 0 -43 53 -60 82 -26 31 36
188 320 188 340 0 38 -56 55 -82 25z"/>
<path d="M872 1733 c-46 -68 -182 -313 -182 -330 0 -27 19 -43 51 -43 24 0 36
17 123 167 53 91 96 176 96 189 0 23 -25 44 -54 44 -8 0 -23 -12 -34 -27z"/>
<path d="M568 1603 c-30 -35 -188 -320 -188 -339 0 -43 53 -60 82 -26 31 36
188 320 188 340 0 38 -56 55 -82 25z"/>
</g>
</svg>
