<?xml version="1.0" standalone="no"?>
<!DOCTYPE svg PUBLIC "-//W3C//DTD SVG 20010904//EN"
 "http://www.w3.org/TR/2001/REC-SVG-20010904/DTD/svg10.dtd">
<svg version="1.0" xmlns="http://www.w3.org/2000/svg"
 width="468pt" height="468pt" viewBox="0 0 468 468"
 preserveAspectRatio="xMidYMid meet">
<metadata>
Created by potrace 1.8, written by Peter Selinger 2001-2007
</metadata>
<g transform="translate(0,468) scale(0.157576,-0.157576)"
fill="#000000" stroke="none">
<path d="M2089 2956 c-24 -11 -816 -1039 -822 -1066 -5 -21 19 -66 38 -74 9
-3 57 -6 106 -6 l89 0 0 -130 c0 -124 1 -132 24 -155 14 -14 41 -26 67 -30 24
-3 279 -5 566 -3 512 3 522 3 550 24 l28 21 3 137 3 136 90 0 c82 0 92 2 114
25 29 29 31 42 8 75 -35 51 -757 996 -781 1022 -30 32 -53 39 -83 24z m356
-601 l306 -400 -315 -3 c-173 -1 -459 -1 -635 0 l-321 3 316 413 c264 346 319
412 330 400 7 -7 151 -193 319 -413z m165 -640 l0 -85 -485 0 -485 0 0 85 0
85 485 0 485 0 0 -85z"/>
<path d="M348 2286 c-178 -202 -297 -466 -333 -743 -18 -134 -19 -198 -5 -313
69 -577 469 -1041 1021 -1184 466 -120 943 4 1295 337 104 98 113 119 68 164
-29 29 -48 28 -139 -10 -223 -94 -594 -85 -918 23 -204 68 -421 200 -537 327
-150 164 -260 393 -326 679 -37 162 -45 421 -19 576 22 126 22 138 -6 161 -33
27 -67 21 -101 -17z m-24 -664 c129 -732 539 -1137 1286 -1268 99 -18 369 -24
425 -11 29 7 29 7 10 -9 -37 -30 -196 -105 -283 -134 -243 -81 -532 -81 -776
1 -306 102 -563 324 -711 614 -84 164 -124 321 -132 515 -8 202 30 389 115
569 l36 76 7 -130 c4 -71 14 -172 23 -223z"/>
</g>
</svg>
