<?xml version="1.0" standalone="no"?>
<!DOCTYPE svg PUBLIC "-//W3C//DTD SVG 20010904//EN"
 "http://www.w3.org/TR/2001/REC-SVG-20010904/DTD/svg10.dtd">
<svg version="1.0" xmlns="http://www.w3.org/2000/svg"
 width="468pt" height="590pt" viewBox="0 0 468 590"
 preserveAspectRatio="xMidYMid meet">
<metadata>
Created by potrace 1.8, written by Peter Selinger 2001-2007
</metadata>
<g transform="translate(0,590) scale(0.200000,-0.200000)"
fill="#000000" stroke="none">
<path d="M105 2938 c-16 -6 -41 -20 -53 -32 -55 -49 -52 33 -52 -1434 l0
-1359 23 -33 c12 -18 35 -43 50 -54 28 -20 40 -21 438 -24 389 -3 412 -2 454
17 27 12 52 33 65 53 20 33 20 45 20 1396 0 1519 5 1408 -69 1454 -36 23 -39
23 -441 25 -267 1 -415 -2 -435 -9z m815 -1463 l0 -1335 -390 0 -390 0 0 1335
0 1335 390 0 390 0 0 -1335z"/>
<path d="M458 2050 c-46 -49 -120 -199 -184 -375 -40 -107 -48 -142 -48 -200
-3 -270 330 -399 513 -199 97 106 103 197 26 409 -90 250 -184 405 -245 405
-14 0 -38 -16 -62 -40z"/>
<path d="M1904 2572 c-72 -46 -140 -165 -235 -417 -51 -135 -53 -144 -54 -240
0 -121 18 -167 95 -249 225 -238 623 -79 622 249 0 56 -8 93 -41 187 -83 237
-152 376 -223 444 -46 46 -114 57 -164 26z m99 -154 c71 -94 197 -420 197
-508 0 -86 -65 -179 -147 -211 -46 -18 -135 -13 -179 9 -90 46 -129 108 -128
207 0 59 8 90 48 195 79 206 149 340 176 340 5 0 20 -15 33 -32z"/>
<path d="M1504 1241 c-68 -41 -139 -167 -232 -411 -54 -140 -56 -148 -56 -245
-1 -90 2 -106 27 -156 75 -154 262 -240 423 -195 68 20 152 73 187 119 66 87
97 200 78 288 -19 91 -89 278 -152 405 -74 152 -133 214 -201 214 -24 0 -56
-8 -74 -19z m100 -154 c66 -86 187 -395 194 -492 3 -51 0 -68 -25 -115 -43
-81 -94 -114 -187 -118 -59 -3 -81 0 -113 17 -87 44 -144 151 -128 239 18 99
142 397 197 475 25 35 32 34 62 -6z"/>
</g>
</svg>
