<?xml version="1.0" standalone="no"?>
<!DOCTYPE svg PUBLIC "-//W3C//DTD SVG 20010904//EN"
 "http://www.w3.org/TR/2001/REC-SVG-20010904/DTD/svg10.dtd">
<svg version="1.0" xmlns="http://www.w3.org/2000/svg"
 width="468pt" height="453pt" viewBox="0 0 468 453"
 preserveAspectRatio="xMidYMid meet">
<metadata>
Created by potrace 1.8, written by Peter Selinger 2001-2007
</metadata>
<g transform="translate(0,453) scale(0.158108,-0.158108)"
fill="#000000" stroke="none">
<path d="M20 2840 c-15 -15 -17 -25 -11 -42 11 -30 60 -37 78 -12 17 24 17 30
-7 54 -25 25 -35 25 -60 0z"/>
<path d="M348 2839 c-27 -15 -23 -57 7 -71 30 -13 55 3 55 36 0 39 -28 55 -62
35z"/>
<path d="M2611 2738 c-51 -27 -47 -108 5 -128 51 -20 104 14 104 65 0 53 -60
88 -109 63z"/>
<path d="M1357 2702 c-22 -24 -21 -35 3 -57 17 -15 24 -16 45 -7 31 14 34 56
6 72 -27 14 -35 13 -54 -8z"/>
<path d="M566 2634 c-19 -19 -20 -25 -3 -48 19 -26 61 -18 65 12 7 44 -32 67
-62 36z"/>
<path d="M2151 2486 c-7 -8 -11 -25 -9 -38 2 -19 9 -23 38 -23 33 0 35 2 35
35 0 30 -4 35 -26 38 -14 2 -31 -4 -38 -12z"/>
<path d="M1255 2235 c-14 -13 -25 -31 -25 -40 0 -9 11 -27 25 -40 13 -14 31
-25 40 -25 23 0 65 45 65 70 0 11 -9 29 -20 40 -27 27 -56 25 -85 -5z"/>
<path d="M746 2224 c-21 -21 -20 -37 3 -58 25 -23 59 -13 67 20 12 46 -37 72
-70 38z"/>
<path d="M1830 2079 c-438 -40 -813 -358 -927 -785 -22 -84 -26 -121 -27 -239
-1 -147 8 -206 52 -335 112 -337 389 -596 740 -692 63 -18 105 -21 237 -21
141 0 172 3 257 26 378 101 659 379 761 752 18 68 21 106 21 250 0 182 -11
248 -68 393 -117 297 -371 526 -683 617 -72 21 -108 27 -243 39 -19 2 -73 -1
-120 -5z m35 -53 c-51 -23 -149 -100 -197 -157 -172 -203 -250 -462 -250 -829
1 -412 131 -760 351 -935 73 -59 66 -64 -52 -40 -352 71 -644 332 -750 670
-39 124 -50 219 -44 362 10 244 99 450 275 635 176 184 426 299 667 306 l30 1
-30 -13z m243 -142 c445 -98 751 -541 682 -984 -31 -196 -124 -367 -278 -511
-133 -125 -303 -206 -484 -229 l-87 -12 -44 31 c-98 67 -202 210 -259 357 -93
240 -111 621 -43 892 52 203 159 367 294 454 40 25 51 27 100 22 31 -3 84 -12
119 -20z"/>
<path d="M283 1924 c-3 -8 -1 -20 5 -26 16 -16 42 -2 42 22 0 24 -38 28 -47 4z"/>
<path d="M912 1728 c-27 -27 -6 -68 35 -68 29 0 48 33 33 60 -12 22 -49 27
-68 8z"/>
<path d="M325 778 c-55 -47 -26 -128 45 -130 46 -2 84 42 76 86 -8 39 -23 54
-62 62 -24 4 -37 0 -59 -18z"/>
<path d="M542 348 c-15 -18 1 -41 24 -36 23 4 26 41 3 46 -9 1 -21 -3 -27 -10z"/>
</g>
</svg>
