<?xml version="1.0" standalone="no"?>
<!DOCTYPE svg PUBLIC "-//W3C//DTD SVG 20010904//EN"
 "http://www.w3.org/TR/2001/REC-SVG-20010904/DTD/svg10.dtd">
<svg version="1.0" xmlns="http://www.w3.org/2000/svg"
 width="468pt" height="389pt" viewBox="0 0 468 389"
 preserveAspectRatio="xMidYMid meet">
<metadata>
Created by potrace 1.8, written by Peter Selinger 2001-2007
</metadata>
<g transform="translate(0,389) scale(0.159184,-0.159184)"
fill="#000000" stroke="none">
<path d="M773 2421 c-50 -23 -89 -78 -99 -138 l-7 -43 -154 0 c-171 0 -199 -7
-249 -61 -40 -43 -54 -86 -54 -164 l0 -62 -56 -12 c-67 -15 -127 -69 -143
-128 -6 -21 -11 -88 -11 -148 0 -129 18 -177 83 -229 l39 -31 285 -3 285 -3
23 -26 c18 -22 24 -44 29 -112 7 -95 18 -114 93 -157 24 -15 44 -35 47 -49 4
-14 19 -31 36 -40 38 -19 74 -6 95 35 l16 30 319 0 c176 0 320 -3 320 -6 0 -4
-36 -69 -81 -146 -88 -152 -93 -177 -47 -211 52 -39 70 -22 184 173 57 96 103
184 104 194 0 11 -9 29 -20 41 -17 18 -18 25 -7 48 l12 27 173 0 174 0 -20
-32 c-76 -123 -87 -162 -56 -192 21 -22 58 -30 81 -18 10 6 49 65 88 131 38
67 75 121 82 121 7 0 31 18 54 40 l42 40 179 0 c201 0 224 5 275 63 45 52 53
91 53 272 0 181 -8 220 -53 272 -50 57 -75 63 -266 63 l-169 0 -4 128 c-3 120
-5 131 -30 169 -49 74 -64 78 -391 81 l-288 3 -32 36 c-56 63 -55 63 -494 63
-369 0 -401 -2 -440 -19z"/>
<path d="M1253 969 c-20 -7 -100 -133 -197 -310 -32 -58 -35 -70 -25 -92 14
-30 59 -52 88 -42 19 6 216 328 227 372 6 22 -28 68 -54 75 -10 3 -27 1 -39
-3z"/>
<path d="M729 806 c-13 -6 -57 -69 -102 -146 -126 -214 -130 -223 -116 -253 6
-14 25 -31 41 -38 25 -10 33 -9 55 7 25 19 223 347 223 370 0 18 -38 61 -59
67 -11 2 -30 0 -42 -7z"/>
<path d="M1897 743 c-32 -36 -207 -348 -207 -370 0 -26 44 -63 75 -63 12 0 31
10 42 23 37 41 203 338 203 363 0 53 -78 86 -113 47z"/>
<path d="M1338 493 c-25 -30 -208 -350 -208 -366 0 -8 9 -26 21 -41 22 -28 64
-35 91 -13 27 22 208 345 208 371 0 55 -77 88 -112 49z"/>
<path d="M857 312 c-31 -34 -137 -227 -137 -249 0 -53 78 -84 113 -45 31 34
137 227 137 249 0 53 -78 84 -113 45z"/>
</g>
</svg>
