<?xml version="1.0" standalone="no"?>
<!DOCTYPE svg PUBLIC "-//W3C//DTD SVG 20010904//EN"
 "http://www.w3.org/TR/2001/REC-SVG-20010904/DTD/svg10.dtd">
<svg version="1.0" xmlns="http://www.w3.org/2000/svg"
 width="468pt" height="467pt" viewBox="0 0 468 467"
 preserveAspectRatio="xMidYMid meet">
<metadata>
Created by potrace 1.8, written by Peter Selinger 2001-2007
</metadata>
<g transform="translate(0,467) scale(0.158108,-0.158108)"
fill="#000000" stroke="none">
<path d="M1144 2619 c-412 -181 -768 -334 -791 -340 -51 -13 -84 -47 -85 -85
0 -16 23 -121 51 -234 67 -265 69 -267 217 -235 38 8 420 51 849 95 l780 81
85 87 c47 48 194 203 328 344 l242 257 0 -1272 c0 -700 4 -1277 8 -1283 10
-15 47 -34 67 -34 9 0 27 11 40 25 l25 24 0 1286 0 1286 -25 24 c-28 29 -68
32 -92 7 -17 -16 -19 -16 -38 6 -16 18 -112 50 -455 153 -239 71 -440 131
-446 133 -6 3 -348 -144 -760 -325z m710 144 c26 -89 196 -736 194 -738 -7 -6
-250 -26 -255 -21 -11 11 -172 671 -165 678 8 8 202 96 214 97 4 1 9 -7 12
-16z m-459 -510 c36 -144 65 -269 65 -276 0 -11 -31 -17 -121 -27 -66 -7 -123
-10 -126 -7 -3 3 -33 118 -67 255 l-63 249 116 50 c101 44 117 49 123 34 4 -9
37 -134 73 -278z m-559 -147 l51 -203 -105 -12 c-58 -6 -107 -9 -110 -7 -8 9
-83 319 -80 333 3 13 157 90 183 92 6 1 33 -91 61 -203z"/>
<path d="M393 1098 l-74 -73 -45 48 c-38 41 -50 48 -76 45 -60 -6 -61 -11
-133 -550 -37 -274 -65 -505 -63 -514 2 -9 14 -25 28 -35 24 -18 36 -17 534
50 503 68 510 69 533 95 13 15 23 34 23 42 0 8 -23 40 -52 70 l-52 55 66 67
c111 112 122 91 -229 444 -268 269 -335 328 -373 328 -7 0 -46 -33 -87 -72z
m355 -341 l252 -253 -38 -37 -37 -37 -255 255 -254 255 34 35 c19 19 36 35 40
35 3 0 119 -114 258 -253z m144 -505 c-19 -6 -737 -100 -741 -97 -4 4 87 700
96 729 4 15 71 -47 329 -305 178 -178 320 -325 316 -327z"/>
</g>
</svg>
