<?xml version="1.0" standalone="no"?>
<!DOCTYPE svg PUBLIC "-//W3C//DTD SVG 20010904//EN"
 "http://www.w3.org/TR/2001/REC-SVG-20010904/DTD/svg10.dtd">
<svg version="1.0" xmlns="http://www.w3.org/2000/svg"
 width="468pt" height="468pt" viewBox="0 0 468 468"
 preserveAspectRatio="xMidYMid meet">
<metadata>
Created by potrace 1.8, written by Peter Selinger 2001-2007
</metadata>
<g transform="translate(0,468) scale(0.158108,-0.158108)"
fill="#000000" stroke="none">
<path d="M1964 2942 c-19 -12 -35 -52 -29 -71 9 -29 141 -151 163 -151 34 0
65 33 65 69 0 46 -113 161 -158 161 -16 0 -35 -4 -41 -8z"/>
<path d="M2265 2721 c-11 -5 -31 -21 -45 -36 -25 -26 -25 -29 -28 -220 -5
-292 -7 -290 273 -290 280 0 278 -2 273 290 l-3 195 -33 32 -32 33 -193 2
c-105 1 -201 -2 -212 -6z m345 -271 l0 -140 -145 0 -145 0 0 140 0 140 145 0
145 0 0 -140z"/>
<path d="M1497 2502 c-22 -25 -21 -75 1 -95 16 -15 50 -17 270 -17 267 0 271
1 287 50 6 20 -9 59 -29 72 -6 4 -124 8 -262 8 -230 0 -252 -1 -267 -18z"/>
<path d="M1907 1982 c-141 -141 -177 -183 -177 -204 0 -30 41 -68 74 -68 28 0
376 348 376 376 0 33 -38 74 -68 74 -22 0 -63 -36 -205 -178z"/>
<path d="M2760 2140 c-36 -36 -26 -70 38 -133 63 -62 104 -74 135 -39 33 36
22 73 -41 135 -63 63 -97 72 -132 37z"/>
<path d="M2406 2028 c-13 -19 -16 -62 -16 -269 0 -234 1 -247 20 -264 29 -26
79 -24 102 5 18 22 19 41 16 273 -3 233 -4 250 -22 263 -31 22 -82 18 -100 -8z"/>
<path d="M123 1809 c-75 -22 -123 -113 -123 -236 0 -97 56 -517 84 -625 28
-112 76 -236 152 -395 86 -178 180 -260 329 -286 l65 -11 0 -43 0 -43 -145 0
c-143 0 -145 0 -161 -25 -15 -23 -15 -27 0 -50 15 -23 23 -25 85 -25 65 0 69
-1 75 -25 4 -15 18 -30 32 -35 14 -6 113 -10 220 -10 194 0 195 0 219 25 14
13 25 29 25 35 0 6 25 10 61 10 75 0 99 12 99 48 0 48 -13 52 -167 52 l-143 0
0 44 0 44 53 7 c139 17 257 118 337 288 58 124 122 282 143 357 37 129 87 506
90 670 1 101 -23 164 -81 208 l-35 27 -591 2 c-342 1 -604 -3 -623 -8z m1201
-108 c37 -35 40 -82 17 -309 -32 -309 -62 -444 -142 -643 -82 -206 -134 -289
-217 -346 l-54 -38 -197 0 c-182 0 -199 2 -236 22 -84 45 -141 126 -221 319
-87 210 -124 361 -154 636 -23 215 -25 296 -8 334 25 54 26 54 630 51 l556 -2
26 -24z"/>
<path d="M632 1551 l-354 -6 -28 -32 c-45 -50 -45 -90 -2 -351 30 -174 44
-238 58 -254 41 -45 63 -48 421 -48 310 0 341 2 380 19 23 11 47 29 53 41 6
11 29 136 51 277 46 293 46 302 -25 334 -55 24 -138 27 -554 20z m522 -51 c52
-19 53 -42 17 -278 -18 -120 -37 -233 -42 -252 -16 -64 -18 -65 -381 -68 -179
-2 -341 1 -359 6 -51 13 -65 48 -94 242 -45 297 -45 327 -3 348 30 14 826 16
862 2z"/>
<path d="M946 1401 c-11 -17 -19 -378 -10 -384 27 -16 33 15 41 191 4 100 7
187 5 192 -4 12 -29 13 -36 1z"/>
<path d="M1016 1378 c-3 -18 -8 -106 -11 -194 -5 -142 -4 -162 10 -168 26 -10
32 28 36 214 4 158 2 175 -13 178 -12 2 -18 -6 -22 -30z"/>
<path d="M1095 1398 c-12 -32 -21 -364 -11 -375 28 -31 35 4 42 195 7 176 6
192 -10 192 -9 0 -19 -6 -21 -12z"/>
<path d="M324 1387 c-9 -24 12 -367 23 -378 6 -6 16 -8 23 -4 14 8 2 364 -13
383 -12 16 -26 15 -33 -1z"/>
<path d="M400 1312 c0 -166 12 -303 27 -309 8 -3 16 -3 20 0 6 7 3 201 -6 312
-5 65 -9 80 -23 83 -16 3 -18 -6 -18 -86z"/>
<path d="M476 1391 c-4 -5 -3 -89 1 -185 6 -174 15 -218 42 -202 13 9 5 334
-10 374 -9 23 -24 29 -33 13z"/>
<path d="M632 1208 c3 -185 4 -193 23 -193 19 0 20 7 20 190 0 190 0 190 -23
193 l-22 3 2 -193z"/>
<path d="M710 1205 c0 -188 1 -195 20 -195 19 0 20 7 20 195 0 188 -1 195 -20
195 -19 0 -20 -7 -20 -195z"/>
<path d="M780 1210 c0 -166 2 -191 16 -197 9 -3 20 0 25 8 10 16 12 338 3 363
-3 9 -15 16 -25 16 -18 0 -19 -10 -19 -190z"/>
</g>
</svg>
