<?xml version="1.0" standalone="no"?>
<!DOCTYPE svg PUBLIC "-//W3C//DTD SVG 20010904//EN"
 "http://www.w3.org/TR/2001/REC-SVG-20010904/DTD/svg10.dtd">
<svg version="1.0" xmlns="http://www.w3.org/2000/svg"
 width="468pt" height="478pt" viewBox="0 0 468 478"
 preserveAspectRatio="xMidYMid meet">
<metadata>
Created by potrace 1.8, written by Peter Selinger 2001-2007
</metadata>
<g transform="translate(0,478) scale(0.161379,-0.161379)"
fill="#000000" stroke="none">
<path d="M1904 2942 c-19 -12 -35 -52 -29 -71 9 -29 141 -151 163 -151 34 0
65 33 65 69 0 46 -113 161 -158 161 -16 0 -35 -4 -41 -8z"/>
<path d="M2205 2721 c-11 -5 -31 -21 -45 -36 -25 -26 -25 -29 -28 -220 -5
-292 -7 -290 273 -290 280 0 278 -2 273 290 l-3 195 -33 32 -32 33 -193 2
c-105 1 -201 -2 -212 -6z m345 -271 l0 -140 -145 0 -145 0 0 140 0 140 145 0
145 0 0 -140z"/>
<path d="M1437 2502 c-22 -25 -21 -75 1 -95 16 -15 50 -17 270 -17 267 0 271
1 287 50 6 20 -9 59 -29 72 -6 4 -124 8 -262 8 -230 0 -252 -1 -267 -18z"/>
<path d="M1847 1982 c-141 -141 -177 -183 -177 -204 0 -30 41 -68 74 -68 28 0
376 348 376 376 0 33 -38 74 -68 74 -22 0 -63 -36 -205 -178z"/>
<path d="M2700 2140 c-36 -36 -26 -70 38 -133 63 -62 104 -74 135 -39 33 36
22 73 -41 135 -63 63 -97 72 -132 37z"/>
<path d="M538 2108 c-15 -13 -503 -712 -526 -754 -6 -11 -8 -31 -5 -43 5 -20
49 -51 73 -51 6 0 155 67 332 150 177 82 322 149 323 147 2 -1 64 -135 138
-297 l136 -295 30 -460 30 -460 26 -22 c31 -27 52 -29 83 -7 29 20 29 42 -7
569 l-29 421 -141 304 c-77 167 -138 307 -133 311 7 6 476 225 590 276 73 32
87 76 39 122 -20 18 -67 24 -455 60 -485 46 -482 46 -504 29z m472 -163 c80
-8 154 -15 165 -16 11 0 -25 -22 -80 -48 l-100 -48 -75 55 c-41 30 -79 59 -84
63 -13 12 1 11 174 -6z m-256 -105 l100 -73 -114 -54 c-62 -29 -115 -53 -116
-53 -6 0 -4 162 2 218 5 36 10 49 18 43 6 -4 56 -41 110 -81z m-274 -148 l0
-98 -47 -23 c-27 -13 -72 -35 -102 -48 -52 -23 -54 -23 -40 -4 8 11 52 77 99
146 47 68 86 124 88 125 1 0 2 -44 2 -98z"/>
<path d="M2346 2028 c-13 -19 -16 -62 -16 -269 0 -234 1 -247 20 -264 29 -26
79 -24 102 5 18 22 19 41 16 273 -3 233 -4 250 -22 263 -31 22 -82 18 -100 -8z"/>
<path d="M1599 1231 c-13 -10 -37 -45 -53 -78 -28 -59 -29 -60 -97 -82 -106
-34 -118 -66 -75 -201 17 -52 33 -82 53 -100 28 -23 37 -51 119 -375 92 -363
104 -395 152 -395 51 0 59 19 157 404 76 297 99 376 122 407 15 21 38 53 51
70 35 50 29 85 -21 134 -24 23 -66 56 -94 74 -28 18 -55 43 -61 55 -11 25
-169 106 -206 106 -13 0 -34 -8 -47 -19z m110 -172 c-11 -21 -26 -24 -48 -10
-10 7 -11 13 -2 29 10 18 15 20 36 10 20 -9 22 -14 14 -29z m-160 -121 c9 -25
-2 -38 -30 -38 -23 0 -31 38 -11 50 25 14 32 12 41 -12z m333 8 c16 -12 16
-15 2 -35 -15 -21 -17 -21 -35 -5 -14 13 -16 21 -8 35 11 22 18 23 41 5z m-82
-203 c0 -9 -89 -354 -97 -373 -4 -12 -103 343 -103 373 0 4 45 7 100 7 55 0
100 -3 100 -7z"/>
</g>
</svg>
