<?xml version="1.0" standalone="no"?>
<!DOCTYPE svg PUBLIC "-//W3C//DTD SVG 20010904//EN"
 "http://www.w3.org/TR/2001/REC-SVG-20010904/DTD/svg10.dtd">
<svg version="1.0" xmlns="http://www.w3.org/2000/svg"
 width="468pt" height="467pt" viewBox="0 0 468 467"
 preserveAspectRatio="xMidYMid meet">
<metadata>
Created by potrace 1.8, written by Peter Selinger 2001-2007
</metadata>
<g transform="translate(0,467) scale(0.158108,-0.158108)"
fill="#000000" stroke="none">
<path d="M679 2927 c-18 -12 -44 -38 -57 -57 -21 -31 -23 -44 -20 -115 2 -63
8 -87 25 -111 41 -58 70 -64 282 -64 183 0 193 -1 222 -22 25 -19 47 -24 115
-27 110 -4 147 4 188 39 79 70 70 237 -16 290 -17 10 -50 22 -72 25 -23 4 -50
15 -61 25 -39 36 -72 40 -324 40 -241 0 -249 -1 -282 -23z"/>
<path d="M1910 2798 c-49 -26 -80 -74 -80 -124 l0 -32 -104 -4 c-113 -3 -136
-13 -180 -72 -18 -24 -21 -42 -21 -141 0 -99 3 -117 21 -141 45 -60 66 -69
187 -72 101 -3 114 -6 137 -27 45 -43 67 -45 407 -45 361 0 375 2 416 65 20
31 25 33 95 37 78 5 107 20 146 72 18 24 21 42 21 141 0 100 -3 117 -21 142
-39 53 -81 73 -149 73 l-63 0 -6 35 c-8 43 -56 91 -104 105 -22 6 -165 10
-347 10 -303 0 -312 -1 -355 -22z"/>
<path d="M191 2572 c-89 -45 -95 -199 -9 -252 30 -18 50 -20 208 -20 158 0
178 2 208 20 82 50 82 200 0 250 -30 18 -50 20 -203 20 -142 0 -176 -3 -204
-18z"/>
<path d="M792 1644 l-22 -15 0 -355 c0 -341 1 -355 20 -374 25 -25 61 -26 91
-1 l24 19 0 350 c0 330 -1 351 -19 371 -23 25 -63 27 -94 5z"/>
<path d="M1775 1310 c-11 -4 -127 -116 -257 -247 -210 -211 -238 -243 -238
-271 0 -38 33 -72 69 -72 38 0 521 484 521 522 0 48 -52 86 -95 68z"/>
<path d="M462 1180 c-12 -5 -27 -21 -34 -35 -10 -21 -6 -39 28 -121 57 -143
67 -156 111 -152 25 2 42 11 56 30 l20 27 -48 115 c-26 64 -53 120 -59 125
-19 15 -50 20 -74 11z"/>
<path d="M1160 1177 c-19 -9 -38 -43 -74 -130 l-49 -118 20 -27 c23 -31 82
-42 101 -19 7 8 32 62 57 121 50 120 51 147 4 171 -33 18 -28 18 -59 2z"/>
<path d="M35 1080 c-39 -43 -26 -64 127 -217 155 -153 170 -162 213 -118 44
43 35 58 -117 212 -123 124 -146 143 -174 143 -18 0 -38 -8 -49 -20z"/>
<path d="M593 740 c-102 -21 -195 -96 -239 -193 -27 -59 -29 -70 -32 -234 l-4
-173 -134 0 c-121 0 -136 -2 -154 -20 -25 -25 -26 -61 -1 -91 l19 -24 1425 -3
1424 -2 27 21 c32 25 35 70 6 99 -20 20 -33 20 -809 20 l-789 0 -4 183 c-3
169 -5 185 -28 232 -34 70 -108 139 -177 166 -53 21 -77 23 -273 25 -118 2
-234 -1 -257 -6z m498 -153 c24 -13 58 -43 74 -66 l30 -43 3 -169 4 -169 -56
0 -56 0 0 86 c0 146 -28 205 -109 233 -42 14 -243 14 -293 1 -46 -13 -94 -67
-109 -122 -7 -26 -9 -74 -5 -120 l5 -78 -59 0 -60 0 0 160 c0 174 8 207 62
257 50 47 79 52 309 53 207 0 218 -1 260 -23z m-137 -168 c21 -6 49 -21 62
-34 22 -22 24 -32 24 -135 l0 -110 -211 0 -211 0 4 110 c3 103 5 111 29 136
15 14 42 30 60 34 51 12 199 11 243 -1z"/>
<path d="M1570 665 c-58 -25 -111 -53 -117 -62 -30 -40 1 -103 50 -103 35 0
219 78 240 102 9 11 17 30 17 42 0 27 -39 66 -66 66 -10 0 -66 -21 -124 -45z"/>
<path d="M37 640 c-30 -23 -36 -64 -15 -93 7 -9 46 -30 86 -46 81 -34 114 -31
133 13 22 47 4 74 -67 107 -94 42 -106 43 -137 19z"/>
<path d="M30 310 c-26 -26 -26 -72 1 -96 27 -24 121 -27 143 -4 27 27 29 64 6
93 -19 23 -29 27 -76 27 -41 0 -59 -5 -74 -20z"/>
<path d="M1470 303 c-15 -19 -19 -35 -15 -53 14 -56 6 -55 390 -55 320 0 356
2 371 17 23 22 22 73 -1 98 -17 19 -30 20 -371 20 l-353 0 -21 -27z"/>
</g>
</svg>
