<?xml version="1.0" standalone="no"?>
<!DOCTYPE svg PUBLIC "-//W3C//DTD SVG 20010904//EN"
 "http://www.w3.org/TR/2001/REC-SVG-20010904/DTD/svg10.dtd">
<svg version="1.0" xmlns="http://www.w3.org/2000/svg"
 width="468pt" height="370pt" viewBox="0 0 468 370"
 preserveAspectRatio="xMidYMid meet">
<metadata>
Created by potrace 1.8, written by Peter Selinger 2001-2007
</metadata>
<g transform="translate(0,370) scale(0.158108,-0.158108)"
fill="#000000" stroke="none">
<path d="M1623 2330 c-24 -10 -43 -39 -43 -66 0 -17 209 -237 242 -255 42 -23
108 33 93 80 -8 25 -239 251 -256 250 -8 0 -24 -4 -36 -9z"/>
<path d="M1945 2315 c-14 -13 -25 -31 -25 -39 0 -25 49 -130 67 -143 40 -30
103 2 103 52 0 13 -11 49 -24 79 -35 78 -77 96 -121 51z"/>
<path d="M2113 2041 c-49 -13 -120 -58 -146 -94 -47 -63 -52 -91 -52 -277 0
-171 1 -176 27 -227 28 -52 63 -84 128 -119 31 -17 59 -19 220 -19 182 0 186
0 236 27 114 60 144 132 144 343 0 211 -31 284 -144 342 -49 26 -59 27 -216
30 -91 1 -179 -2 -197 -6z m356 -145 c55 -29 61 -50 61 -221 0 -229 -6 -235
-240 -235 -232 0 -240 8 -240 235 0 227 7 234 238 235 115 0 160 -4 181 -14z"/>
<path d="M1549 2016 c-31 -15 -46 -58 -32 -89 8 -17 36 -35 95 -59 121 -51
121 -51 152 -27 22 17 27 28 24 58 -3 34 -7 38 -68 68 -104 52 -144 63 -171
49z"/>
<path d="M1147 1722 c-22 -25 -21 -75 1 -95 16 -15 53 -17 314 -17 327 0 322
-1 322 65 0 66 6 65 -324 65 -275 0 -298 -1 -313 -18z"/>
<path d="M2766 1499 c-27 -21 -34 -56 -16 -88 8 -17 125 -71 151 -71 19 0 59
49 59 73 0 31 -32 58 -99 85 -65 27 -62 27 -95 1z"/>
<path d="M1623 1459 c-73 -33 -94 -46 -103 -70 l-12 -29 -345 0 c-299 0 -350
-2 -380 -16 -50 -24 -85 -76 -91 -133 l-4 -49 -172 -4 c-182 -4 -207 -10 -252
-60 -37 -40 -47 -69 -52 -160 l-5 -88 -34 0 c-70 0 -139 -50 -162 -119 -14
-42 -15 -224 -1 -270 11 -39 51 -86 92 -107 21 -11 86 -14 310 -14 l283 0 33
-40 c28 -34 32 -46 32 -97 0 -72 26 -132 71 -164 l34 -24 405 -3 c223 -2 419
0 436 3 34 6 91 57 105 92 l9 23 252 0 c278 0 310 6 355 64 l21 26 178 0 c99
0 195 5 214 10 41 11 94 61 109 103 17 44 14 390 -3 430 -16 39 -61 82 -99 96
-16 6 -104 11 -203 11 l-174 0 0 68 0 67 18 -35 c9 -19 29 -41 44 -50 25 -13
29 -13 54 6 44 32 45 51 7 144 -50 121 -80 148 -134 119 -17 -9 -25 -6 -47 16
-15 15 -37 31 -50 36 -13 5 -115 9 -228 9 -170 0 -204 2 -204 14 0 8 -12 24
-27 36 -34 26 -66 20 -108 -21 -38 -36 -51 -36 -69 -1 -8 16 -22 34 -30 42
-14 11 -10 16 33 35 49 23 71 48 71 80 0 22 -45 65 -67 64 -10 0 -59 -18 -110
-40z"/>
<path d="M2646 1299 c-18 -14 -26 -30 -26 -52 0 -26 18 -49 118 -149 92 -92
124 -118 145 -118 36 0 67 33 67 71 0 27 -16 49 -102 136 -94 95 -141 133
-166 133 -5 0 -21 -9 -36 -21z"/>
</g>
</svg>
