<?xml version="1.0" standalone="no"?>
<!DOCTYPE svg PUBLIC "-//W3C//DTD SVG 20010904//EN"
 "http://www.w3.org/TR/2001/REC-SVG-20010904/DTD/svg10.dtd">
<svg version="1.0" xmlns="http://www.w3.org/2000/svg"
 width="468pt" height="397pt" viewBox="0 0 468 397"
 preserveAspectRatio="xMidYMid meet">
<metadata>
Created by potrace 1.8, written by Peter Selinger 2001-2007
</metadata>
<g transform="translate(0,397) scale(0.158644,-0.158644)"
fill="#000000" stroke="none">
<path d="M790 2484 c-19 -8 -43 -23 -53 -32 -28 -25 -57 -87 -57 -122 l0 -30
-157 0 c-187 0 -226 -12 -274 -88 -26 -40 -29 -55 -29 -123 l0 -77 -52 -11
c-63 -14 -112 -49 -138 -101 -28 -55 -29 -275 -1 -335 36 -79 91 -105 221
-105 l90 0 0 -60 c0 -36 8 -81 20 -112 11 -29 20 -63 20 -75 0 -16 14 -30 50
-50 l50 -28 0 -78 c0 -43 -3 -77 -8 -75 -4 2 -35 19 -70 38 l-62 35 0 63 c0
57 -2 63 -26 74 -33 15 -56 2 -69 -41 -6 -21 -14 -30 -24 -26 -40 16 -81 -56
-47 -84 11 -10 9 -17 -16 -41 -24 -24 -27 -33 -18 -49 21 -40 42 -42 99 -10
l54 29 56 -32 c90 -50 90 -47 14 -91 l-68 -39 -46 26 c-26 14 -56 26 -66 26
-46 0 -58 -57 -18 -88 21 -17 23 -21 10 -32 -35 -29 1 -99 44 -85 16 5 21 2
21 -12 0 -29 29 -63 54 -63 35 0 46 20 46 82 0 56 1 59 38 81 20 13 52 32 70
41 l32 17 0 -83 0 -83 -50 -27 c-42 -24 -50 -33 -50 -57 0 -48 26 -59 82 -36
11 4 18 0 23 -14 10 -34 42 -45 71 -26 13 8 24 24 24 35 0 18 1 18 30 2 31
-18 53 -12 73 20 16 24 1 46 -53 80 l-50 31 0 79 c0 44 3 78 8 76 4 -2 35 -19
69 -38 l63 -35 0 -47 c0 -70 14 -98 48 -98 36 0 52 16 52 52 0 25 3 28 25 22
18 -4 32 -1 45 11 24 22 25 43 4 66 -15 17 -14 20 11 42 23 19 27 29 21 50
-10 40 -45 44 -104 11 l-49 -27 -71 39 -72 40 71 41 72 42 53 -30 c42 -24 57
-28 73 -20 39 22 38 69 -3 91 -23 12 -23 13 -5 31 37 37 12 85 -39 77 -29 -4
-32 -2 -32 23 l0 28 35 -15 c51 -21 833 -21 874 0 30 16 91 80 91 96 0 6 96
10 250 10 230 0 254 2 290 20 21 11 45 28 52 39 13 18 29 20 198 23 210 3 239
11 294 81 l31 39 3 205 c3 193 2 207 -19 249 -13 28 -37 56 -62 72 -40 26 -45
27 -219 30 l-178 3 0 110 c0 117 -12 163 -53 207 -51 55 -59 57 -374 60 l-293
3 -21 31 c-12 17 -40 39 -63 49 -38 17 -72 19 -436 18 -329 0 -401 -2 -430
-15z m-68 -1374 c-3 -55 -6 -61 -35 -78 -18 -10 -49 -29 -69 -41 l-38 -23 0
81 c0 81 0 81 33 101 18 11 50 20 72 20 l40 0 -3 -60z"/>
<path d="M1492 818 c-7 -7 -12 -23 -12 -36 0 -21 -3 -23 -29 -17 -22 5 -35 1
-50 -14 -12 -12 -21 -25 -21 -29 0 -22 32 -47 81 -61 l53 -17 22 -77 22 -78
-30 7 c-17 3 -53 13 -81 23 -49 15 -51 18 -63 65 -17 65 -35 83 -71 70 -25 -9
-28 -15 -27 -52 1 -33 -2 -42 -13 -37 -21 7 -50 -11 -56 -36 -4 -14 2 -29 19
-46 l25 -25 -20 -22 c-12 -12 -21 -28 -21 -34 0 -15 36 -52 50 -52 6 0 32 20
58 44 l47 43 78 -21 78 -21 -59 -58 c-59 -59 -59 -59 -98 -48 -60 17 -92 14
-104 -9 -16 -29 -3 -60 30 -71 26 -10 27 -12 16 -40 -10 -28 -8 -33 13 -50 13
-11 30 -17 38 -14 7 3 19 8 27 11 9 3 16 -4 20 -20 9 -37 41 -51 72 -31 27 18
28 25 12 95 l-12 51 54 54 c30 30 57 52 61 47 3 -4 14 -38 23 -75 l17 -69 -41
-44 c-46 -50 -50 -77 -14 -100 24 -16 26 -16 54 5 29 21 29 21 40 1 7 -13 21
-20 38 -20 34 0 52 16 52 46 0 20 4 22 34 17 29 -4 37 -1 51 20 23 36 6 63
-48 77 -23 6 -49 13 -58 16 -10 3 -21 30 -32 77 -10 39 -17 75 -17 78 0 3 34
-3 75 -14 l75 -20 18 -61 c16 -54 21 -61 46 -64 41 -5 59 15 53 58 -4 34 -3
36 18 32 31 -6 61 38 46 66 -6 11 -18 22 -26 26 -14 5 -13 10 6 36 19 25 21
33 11 55 -18 39 -58 33 -107 -15 -38 -37 -43 -39 -75 -30 -19 5 -55 14 -79 20
l-44 12 58 58 57 58 52 -14 c68 -18 73 -18 91 10 20 31 6 63 -31 72 -18 5 -23
11 -18 23 15 37 14 48 -6 66 -17 15 -26 17 -48 9 -24 -9 -28 -7 -42 20 -17 36
-59 46 -80 21 -11 -14 -12 -27 -1 -77 l12 -61 -52 -53 c-29 -30 -56 -51 -60
-46 -3 4 -14 38 -23 76 l-17 69 40 41 c42 42 51 72 29 94 -17 17 -63 15 -78
-3 -16 -19 -30 -19 -30 -1 0 25 -56 36 -78 14z"/>
</g>
</svg>
