<?xml version="1.0" standalone="no"?>
<!DOCTYPE svg PUBLIC "-//W3C//DTD SVG 20010904//EN"
 "http://www.w3.org/TR/2001/REC-SVG-20010904/DTD/svg10.dtd">
<svg version="1.0" xmlns="http://www.w3.org/2000/svg"
 width="468pt" height="467pt" viewBox="0 0 468 467"
 preserveAspectRatio="xMidYMid meet">
<metadata>
Created by potrace 1.8, written by Peter Selinger 2001-2007
</metadata>
<g transform="translate(0,467) scale(0.158108,-0.158108)"
fill="#000000" stroke="none">
<path d="M1144 2619 c-412 -181 -768 -334 -791 -340 -51 -13 -84 -47 -85 -85
0 -16 23 -121 51 -234 67 -265 69 -267 217 -235 38 8 420 51 849 95 l780 81
85 87 c47 48 194 203 328 344 l242 257 0 -1272 c0 -700 4 -1277 8 -1283 10
-15 47 -34 67 -34 9 0 27 11 40 25 l25 24 0 1286 0 1286 -25 24 c-28 29 -68
32 -92 7 -17 -16 -19 -16 -38 6 -16 18 -112 50 -455 153 -239 71 -440 131
-446 133 -6 3 -348 -144 -760 -325z m710 144 c26 -89 196 -736 194 -738 -7 -6
-250 -26 -255 -21 -11 11 -172 671 -165 678 8 8 202 96 214 97 4 1 9 -7 12
-16z m-459 -510 c36 -144 65 -269 65 -276 0 -11 -31 -17 -121 -27 -66 -7 -123
-10 -126 -7 -3 3 -33 118 -67 255 l-63 249 116 50 c101 44 117 49 123 34 4 -9
37 -134 73 -278z m-559 -147 l51 -203 -105 -12 c-58 -6 -107 -9 -110 -7 -8 9
-83 319 -80 333 3 13 157 90 183 92 6 1 33 -91 61 -203z"/>
<path d="M250 1160 c-58 -14 -70 -39 -70 -146 l0 -94 -68 0 c-59 0 -72 -3 -90
-23 -12 -13 -22 -33 -22 -45 0 -19 545 -747 618 -825 33 -35 71 -35 104 1 73
78 618 807 618 826 0 12 -9 32 -20 44 -17 18 -32 22 -85 22 l-65 0 0 94 c0
109 -11 132 -75 146 -49 12 -796 11 -845 0z m780 -180 l0 -50 -355 0 -355 0 0
50 0 50 355 0 355 0 0 -50z m53 -262 c-27 -35 -116 -151 -198 -258 -81 -107
-164 -214 -182 -238 l-34 -42 -136 177 c-75 98 -178 233 -230 301 l-94 122
461 0 462 0 -49 -62z"/>
</g>
</svg>
