<?xml version="1.0" standalone="no"?>
<!DOCTYPE svg PUBLIC "-//W3C//DTD SVG 20010904//EN"
 "http://www.w3.org/TR/2001/REC-SVG-20010904/DTD/svg10.dtd">
<svg version="1.0" xmlns="http://www.w3.org/2000/svg"
 width="468pt" height="467pt" viewBox="0 0 468 467"
 preserveAspectRatio="xMidYMid meet">
<metadata>
Created by potrace 1.8, written by Peter Selinger 2001-2007
</metadata>
<g transform="translate(0,467) scale(0.157576,-0.157576)"
fill="#000000" stroke="none">
<path d="M385 2943 c-16 -8 -39 -23 -49 -32 -25 -21 -56 -89 -56 -123 0 -27
-2 -28 -49 -28 -61 0 -97 -13 -134 -48 -63 -59 -66 -79 -83 -510 -5 -122 -3
-137 17 -178 24 -51 77 -92 130 -100 l36 -6 5 -92 c5 -98 18 -135 65 -177 45
-42 67 -49 152 -49 45 0 81 -2 81 -5 0 -3 -23 -45 -51 -95 -33 -59 -49 -95
-45 -108 17 -52 86 -72 116 -34 9 11 45 70 80 131 61 106 66 111 97 111 38 0
38 -1 17 -42 -21 -40 -11 -74 28 -94 44 -23 70 -7 115 71 34 60 40 65 71 65
23 0 33 -4 29 -12 -3 -7 -50 -92 -106 -188 -58 -100 -101 -186 -101 -201 0
-14 8 -33 18 -42 22 -20 75 -22 94 -4 24 24 239 405 241 427 1 18 8 20 74 20
40 0 73 -3 73 -6 0 -4 -23 -46 -51 -95 -57 -100 -60 -130 -17 -162 53 -40 70
-23 192 190 108 188 112 193 144 193 17 0 32 -3 32 -6 0 -4 -22 -46 -50 -94
-27 -48 -50 -99 -50 -113 0 -45 57 -80 97 -59 10 6 52 69 93 141 73 128 76
131 109 131 45 0 115 34 135 65 14 21 24 25 66 25 81 0 140 35 178 105 21 39
30 333 12 413 -20 90 -91 152 -175 152 l-35 0 0 103 c0 56 -5 120 -11 142 -14
51 -73 110 -124 124 -23 6 -126 11 -245 11 l-205 0 -27 33 c-53 67 -51 67
-500 67 -348 -1 -407 -3 -433 -17z"/>
<path d="M2630 2945 c-43 -20 -79 -53 -91 -82 -4 -12 -9 -634 -9 -1382 -2
-1315 -1 -1362 17 -1393 35 -59 73 -73 205 -73 130 0 154 9 193 76 20 34 20
52 20 1394 l0 1360 -23 36 c-32 52 -79 71 -187 76 -67 3 -99 0 -125 -12z m220
-105 c18 -18 20 -33 20 -160 l0 -140 -125 0 -125 0 0 40 0 40 64 0 c45 0 65 4
69 14 9 24 -15 36 -75 36 l-58 0 0 35 0 35 51 0 c58 0 91 14 83 35 -5 11 -23
15 -69 15 -60 0 -63 1 -58 23 9 38 32 47 120 47 70 0 86 -3 103 -20z m20 -631
c0 -261 -2 -291 -16 -285 -9 3 -65 6 -125 6 l-109 0 0 35 0 34 58 3 c50 3 57
6 60 26 3 21 0 22 -57 22 l-61 0 0 40 0 40 60 0 c53 0 60 2 60 20 0 18 -7 20
-60 20 l-60 0 0 40 0 40 54 0 c32 0 58 5 65 13 18 22 -8 37 -66 37 l-53 0 0
40 0 40 60 0 c53 0 60 2 60 20 0 18 -7 20 -60 20 l-60 0 0 40 0 40 125 0 125
0 0 -291z m0 -609 l0 -290 -125 0 -125 0 0 40 0 39 63 3 c54 3 62 5 62 23 0
18 -8 20 -62 23 l-63 3 0 39 0 40 65 0 c58 0 65 2 65 20 0 18 -7 20 -65 20
l-65 0 0 40 0 39 63 3 c54 3 62 5 62 23 0 18 -8 20 -62 23 l-63 3 0 39 0 40
66 0 c57 0 65 2 62 18 -3 14 -16 18 -66 20 l-62 3 0 34 0 34 123 4 c67 1 123
4 125 5 1 1 2 -128 2 -288z m0 -617 l0 -288 -125 3 -125 3 0 40 0 39 60 0 c53
0 60 2 60 20 0 18 -7 20 -60 20 l-60 0 0 40 0 39 58 3 c49 3 57 6 57 23 0 17
-8 20 -57 23 l-58 3 0 34 c0 35 0 35 48 35 55 0 77 11 69 34 -5 12 -20 16 -62
16 l-55 0 0 40 0 40 60 0 c53 0 60 2 60 20 0 18 -7 20 -60 20 l-60 0 0 40 0
40 125 0 125 0 0 -287z m0 -581 c0 -314 7 -298 -129 -294 -75 2 -88 5 -105 24
l-18 23 61 3 c53 3 61 6 61 22 0 18 -7 20 -60 20 l-60 0 0 40 0 39 58 3 c50 3
57 6 60 26 3 21 0 22 -57 22 l-61 0 0 40 0 40 60 0 c53 0 60 2 60 20 0 18 -7
20 -60 20 l-60 0 0 40 0 40 61 0 c57 0 60 1 57 23 -3 19 -10 22 -60 25 l-58 3
0 34 0 34 118 4 c64 1 120 4 125 5 4 1 7 -114 7 -256z"/>
<path d="M258 1558 c-21 -17 -248 -413 -248 -433 0 -44 54 -80 96 -64 21 7
248 387 260 434 12 49 -67 95 -108 63z"/>
<path d="M598 1353 c-9 -10 -66 -105 -127 -211 -114 -199 -127 -235 -93 -265
24 -22 75 -22 94 1 36 41 238 403 238 426 0 55 -77 88 -112 49z"/>
<path d="M1347 1338 c-31 -28 -247 -404 -247 -430 0 -25 44 -68 70 -68 34 0
59 34 178 242 90 157 112 201 106 222 -13 52 -68 69 -107 34z"/>
<path d="M303 1241 c-24 -29 -243 -412 -243 -426 0 -7 9 -24 21 -39 29 -37 81
-36 107 2 52 76 232 401 232 420 0 53 -82 83 -117 43z"/>
<path d="M1053 1232 c-33 -32 -243 -409 -243 -434 0 -41 52 -74 93 -59 28 11
260 410 260 448 0 52 -74 82 -110 45z"/>
<path d="M668 1058 c-30 -30 -248 -410 -248 -432 0 -23 45 -66 69 -66 11 0 31
10 45 23 29 26 246 403 246 428 0 25 -31 57 -62 65 -21 4 -33 0 -50 -18z"/>
</g>
</svg>
