<?xml version="1.0" standalone="no"?>
<!DOCTYPE svg PUBLIC "-//W3C//DTD SVG 20010904//EN"
 "http://www.w3.org/TR/2001/REC-SVG-20010904/DTD/svg10.dtd">
<svg version="1.0" xmlns="http://www.w3.org/2000/svg"
 width="468pt" height="468pt" viewBox="0 0 468 468"
 preserveAspectRatio="xMidYMid meet">
<metadata>
Created by potrace 1.8, written by Peter Selinger 2001-2007
</metadata>
<g transform="translate(0,468) scale(0.158108,-0.158108)"
fill="#000000" stroke="none">
<path d="M1964 2942 c-19 -12 -35 -52 -29 -71 9 -29 141 -151 163 -151 34 0
65 33 65 69 0 46 -113 161 -158 161 -16 0 -35 -4 -41 -8z"/>
<path d="M2265 2721 c-11 -5 -31 -21 -45 -36 -25 -26 -25 -29 -28 -220 -5
-292 -7 -290 273 -290 280 0 278 -2 273 290 l-3 195 -33 32 -32 33 -193 2
c-105 1 -201 -2 -212 -6z m345 -271 l0 -140 -145 0 -145 0 0 140 0 140 145 0
145 0 0 -140z"/>
<path d="M1497 2502 c-22 -25 -21 -75 1 -95 16 -15 50 -17 270 -17 267 0 271
1 287 50 6 20 -9 59 -29 72 -6 4 -124 8 -262 8 -230 0 -252 -1 -267 -18z"/>
<path d="M1907 1982 c-141 -141 -177 -183 -177 -204 0 -30 41 -68 74 -68 28 0
376 348 376 376 0 33 -38 74 -68 74 -22 0 -63 -36 -205 -178z"/>
<path d="M2760 2140 c-36 -36 -26 -70 38 -133 63 -62 104 -74 135 -39 33 36
22 73 -41 135 -63 63 -97 72 -132 37z"/>
<path d="M2406 2028 c-13 -19 -16 -62 -16 -269 0 -234 1 -247 20 -264 29 -26
79 -24 102 5 18 22 19 41 16 273 -3 233 -4 250 -22 263 -31 22 -82 18 -100 -8z"/>
<path d="M210 1490 c0 -5 -19 -14 -42 -21 -94 -24 -130 -79 -132 -196 -1 -40
-5 -63 -12 -63 -22 0 -24 -30 -4 -42 16 -10 20 -24 20 -63 0 -27 5 -66 10 -85
12 -45 65 -97 111 -110 20 -6 203 -10 436 -10 l403 0 0 -400 0 -400 -24 0
c-50 0 -73 -52 -38 -83 15 -14 40 -17 121 -17 116 0 141 8 141 48 0 34 -16 52
-47 52 l-23 0 0 399 0 400 413 3 c410 3 412 3 460 27 62 30 87 77 87 162 0 47
4 65 17 74 15 11 15 17 6 36 -7 13 -16 53 -22 89 -18 128 -55 173 -153 186
-27 4 -48 10 -48 15 0 12 -97 11 -105 -1 -4 -7 -260 -10 -735 -10 -475 0 -731
3 -735 10 -8 13 -105 13 -105 0z m470 -254 c0 -79 -3 -164 -6 -190 l-7 -46
-241 0 c-291 0 -286 -2 -286 96 l0 64 208 0 c114 0 213 4 221 9 8 5 11 16 8
25 -6 14 -33 16 -222 16 l-215 0 0 69 c0 104 -8 101 292 101 l248 0 0 -144z
m242 54 l151 -91 151 91 c84 49 162 90 174 90 22 0 22 -1 22 -190 l0 -190
-350 0 -350 0 0 190 0 190 26 0 c15 0 89 -38 176 -90z m343 77 c-11 -8 -59
-37 -107 -65 l-86 -52 -109 65 -108 65 215 0 c182 0 211 -2 195 -13z m707 -4
c21 -24 31 -74 22 -117 l-6 -36 -214 0 c-188 0 -215 -2 -221 -16 -3 -9 0 -20
8 -25 8 -5 107 -9 222 -9 l207 0 0 -64 c0 -98 5 -96 -282 -96 l-238 0 0 190 0
190 243 0 c220 0 245 -2 259 -17z"/>
<path d="M764 1329 c-10 -16 7 -29 165 -123 l143 -86 42 25 c22 14 92 55 154
92 75 46 112 73 112 85 0 10 -7 18 -14 18 -8 0 -78 -38 -154 -84 l-140 -84
-140 84 c-77 46 -145 84 -151 84 -5 0 -13 -5 -17 -11z"/>
<path d="M767 1257 c-3 -9 2 -22 11 -29 21 -18 261 -164 283 -173 20 -8 319
170 319 190 0 32 -27 22 -164 -60 l-145 -87 -134 81 c-157 94 -163 97 -170 78z"/>
<path d="M767 1183 c-4 -3 -7 -10 -7 -14 0 -14 188 -121 199 -114 24 14 7 33
-77 83 -88 52 -103 58 -115 45z"/>
<path d="M1270 1144 c-94 -57 -102 -65 -90 -84 8 -13 15 -12 52 9 94 53 148
91 148 106 0 25 -32 16 -110 -31z"/>
<path d="M777 1113 c-15 -14 -6 -33 23 -48 53 -27 72 8 21 38 -33 19 -35 20
-44 10z"/>
<path d="M1318 1099 c-16 -12 -25 -26 -21 -34 7 -21 26 -19 57 6 21 17 24 24
15 35 -15 18 -19 17 -51 -7z"/>
</g>
</svg>
