<?xml version="1.0" standalone="no"?>
<!DOCTYPE svg PUBLIC "-//W3C//DTD SVG 20010904//EN"
 "http://www.w3.org/TR/2001/REC-SVG-20010904/DTD/svg10.dtd">
<svg version="1.0" xmlns="http://www.w3.org/2000/svg"
 width="468pt" height="340pt" viewBox="0 0 468 340"
 preserveAspectRatio="xMidYMid meet">
<metadata>
Created by potrace 1.8, written by Peter Selinger 2001-2007
</metadata>
<g transform="translate(0,340) scale(0.158108,-0.158108)"
fill="#000000" stroke="none">
<path d="M367 2143 c-4 -3 -7 -12 -7 -20 0 -11 123 -13 698 -13 384 0 701 3
705 6 3 3 3 12 0 20 -4 12 -113 14 -697 14 -381 0 -696 -3 -699 -7z"/>
<path d="M151 2071 c-8 -5 -11 -16 -8 -25 6 -15 97 -16 981 -16 818 0 975 2
979 14 3 7 0 19 -6 25 -14 14 -1924 16 -1946 2z"/>
<path d="M1986 1818 c-21 -29 -23 -299 -3 -338 14 -28 51 -38 73 -20 19 16 21
349 2 368 -19 19 -55 14 -72 -10z"/>
<path d="M43 1794 c-3 -9 0 -20 8 -25 18 -11 900 -11 918 0 8 5 11 16 8 25 -6
14 -54 16 -467 16 -413 0 -461 -2 -467 -16z"/>
<path d="M364 1715 c-3 -8 -3 -19 1 -25 10 -16 689 -14 704 3 27 34 -6 37
-356 37 -291 0 -344 -2 -349 -15z"/>
<path d="M1632 1704 c-12 -8 -22 -22 -22 -30 0 -18 77 -203 91 -221 25 -29 79
-9 79 30 0 32 -82 217 -101 227 -22 13 -21 13 -47 -6z"/>
<path d="M2346 1707 c-10 -7 -37 -60 -61 -118 -37 -90 -42 -107 -30 -124 15
-24 57 -31 72 -13 15 17 93 207 93 224 0 12 -37 44 -50 44 -4 0 -14 -6 -24
-13z"/>
<path d="M2633 1528 c-74 -73 -137 -144 -140 -157 -4 -18 0 -29 17 -43 12 -10
27 -18 33 -18 6 0 73 62 149 137 95 95 138 144 138 159 0 21 -33 54 -54 54 -5
0 -70 -60 -143 -132z"/>
<path d="M1196 1608 c-9 -12 -16 -27 -16 -33 0 -20 275 -285 296 -285 26 0 44
18 44 45 0 25 -267 295 -292 295 -9 0 -24 -10 -32 -22z"/>
<path d="M1900 1290 c-143 -10 -191 -29 -266 -104 -83 -83 -99 -131 -98 -288
0 -77 5 -122 13 -132 20 -24 68 -30 95 -12 23 14 24 22 28 138 4 153 22 194
104 234 51 25 52 25 287 22 271 -3 279 -6 304 -90 10 -36 20 -48 44 -59 106
-43 120 123 19 215 -78 70 -260 97 -530 76z"/>
<path d="M1137 1192 c-40 -44 -17 -66 118 -120 86 -35 103 -39 120 -28 24 16
31 58 13 73 -15 12 -212 93 -226 93 -5 0 -16 -8 -25 -18z"/>
<path d="M2775 1146 c-108 -44 -123 -53 -130 -77 -7 -22 18 -59 40 -59 17 0
205 77 221 91 17 14 18 51 2 67 -18 18 -46 14 -133 -22z"/>
<path d="M92 1103 c3 -17 35 -18 472 -21 468 -2 498 0 480 30 -3 4 -219 8
-480 8 -447 0 -475 -1 -472 -17z"/>
<path d="M5 1040 c-3 -5 -3 -14 0 -20 4 -6 154 -10 416 -10 386 0 410 1 407
18 -3 16 -32 17 -410 20 -266 1 -409 -1 -413 -8z"/>
<path d="M2185 960 c-16 -27 16 -30 296 -30 282 0 289 0 289 20 0 20 -7 20
-289 20 -183 0 -292 -4 -296 -10z"/>
<path d="M2237 896 c-13 -33 14 -36 323 -36 168 0 311 4 319 9 8 5 11 16 8 25
-6 14 -42 16 -326 16 -262 0 -320 -2 -324 -14z"/>
<path d="M929 841 c-20 -16 -22 -23 -14 -47 l10 -29 217 -3 c187 -2 218 0 232
14 21 21 20 40 -4 64 -19 19 -33 20 -219 20 -180 0 -201 -2 -222 -19z"/>
<path d="M2410 822 c-21 -17 -23 -27 -24 -138 -1 -106 -4 -124 -26 -164 -19
-34 -38 -52 -79 -72 -55 -28 -55 -28 -271 -28 -208 0 -219 1 -261 23 -34 19
-47 33 -60 67 -26 70 -78 91 -120 49 -18 -18 -20 -29 -15 -66 12 -93 80 -158
197 -194 62 -19 89 -20 292 -17 l224 3 69 35 c82 42 146 114 169 192 10 34 15
92 15 170 0 105 -2 120 -20 138 -25 25 -61 26 -90 2z"/>
<path d="M2666 809 c-8 -12 -12 -29 -9 -38 12 -33 36 -41 128 -41 100 0 135
14 135 54 0 40 -18 46 -131 46 -98 0 -109 -2 -123 -21z"/>
<path d="M685 689 c-4 -6 -3 -15 2 -20 5 -5 257 -8 619 -7 533 3 609 5 609 18
0 13 -76 15 -612 18 -435 1 -614 -1 -618 -9z"/>
<path d="M1568 643 c-110 -3 -118 -5 -118 -24 0 -19 6 -19 168 -17 159 3 167
4 167 23 0 23 -11 24 -217 18z"/>
<path d="M445 629 c-4 -6 -3 -15 2 -20 5 -5 156 -8 364 -7 307 3 354 5 354 18
0 13 -47 15 -357 18 -251 1 -359 -1 -363 -9z"/>
<path d="M1250 548 c-52 -22 -103 -47 -112 -55 -25 -22 -22 -50 6 -68 23 -15
30 -14 135 31 93 38 112 50 118 72 4 19 1 30 -17 44 -12 10 -25 18 -29 17 -3
0 -49 -19 -101 -41z"/>
<path d="M2656 544 c-38 -38 -13 -65 108 -114 55 -22 107 -40 116 -40 43 0 55
60 16 85 -30 20 -191 85 -210 85 -8 0 -22 -7 -30 -16z"/>
<path d="M1395 220 l-80 -80 -626 0 c-594 0 -628 -1 -650 -18 -15 -13 -22 -30
-22 -52 0 -22 7 -39 22 -52 22 -17 78 -18 1448 -18 l1424 0 24 25 c30 30 31
54 4 89 -20 26 -23 26 -142 26 l-123 0 -69 70 c-72 72 -100 84 -129 54 -24
-23 -20 -40 20 -84 l36 -40 -94 0 c-60 0 -98 4 -106 12 -9 9 -20 9 -45 0 -45
-16 -501 -16 -527 0 -14 9 -25 9 -45 0 -15 -7 -73 -12 -142 -12 l-116 0 47 50
c25 27 46 53 46 57 0 5 -7 19 -16 31 -27 39 -54 27 -139 -58z"/>
</g>
</svg>
