<?xml version="1.0" standalone="no"?>
<!DOCTYPE svg PUBLIC "-//W3C//DTD SVG 20010904//EN"
 "http://www.w3.org/TR/2001/REC-SVG-20010904/DTD/svg10.dtd">
<svg version="1.0" xmlns="http://www.w3.org/2000/svg"
 width="468pt" height="467pt" viewBox="0 0 468 467"
 preserveAspectRatio="xMidYMid meet">
<metadata>
Created by potrace 1.8, written by Peter Selinger 2001-2007
</metadata>
<g transform="translate(0,467) scale(0.158108,-0.158108)"
fill="#000000" stroke="none">
<path d="M1144 2619 c-412 -181 -768 -334 -791 -340 -51 -13 -84 -47 -85 -85
0 -16 23 -121 51 -234 67 -265 69 -267 217 -235 38 8 420 51 849 95 l780 81
85 87 c47 48 194 203 328 344 l242 257 0 -1272 c0 -700 4 -1277 8 -1283 10
-15 47 -34 67 -34 9 0 27 11 40 25 l25 24 0 1286 0 1286 -25 24 c-28 29 -68
32 -92 7 -17 -16 -19 -16 -38 6 -16 18 -112 50 -455 153 -239 71 -440 131
-446 133 -6 3 -348 -144 -760 -325z m710 144 c26 -89 196 -736 194 -738 -7 -6
-250 -26 -255 -21 -11 11 -172 671 -165 678 8 8 202 96 214 97 4 1 9 -7 12
-16z m-459 -510 c36 -144 65 -269 65 -276 0 -11 -31 -17 -121 -27 -66 -7 -123
-10 -126 -7 -3 3 -33 118 -67 255 l-63 249 116 50 c101 44 117 49 123 34 4 -9
37 -134 73 -278z m-559 -147 l51 -203 -105 -12 c-58 -6 -107 -9 -110 -7 -8 9
-83 319 -80 333 3 13 157 90 183 92 6 1 33 -91 61 -203z"/>
<path d="M635 1156 c-16 -8 -164 -148 -328 -313 -358 -359 -345 -336 -242
-443 l68 -70 -46 -49 c-31 -33 -47 -59 -47 -76 0 -29 30 -62 62 -69 13 -3 230
-33 483 -66 253 -34 474 -63 492 -66 43 -8 87 33 79 74 -3 15 -8 47 -11 72 -3
25 -32 245 -65 490 -54 406 -61 446 -80 462 -36 29 -67 22 -118 -27 l-47 -44
-65 63 c-73 72 -92 81 -135 62z m-150 -476 l-255 -255 -37 38 -38 37 255 255
255 255 37 -37 38 -37 -255 -256z m474 -161 c27 -200 48 -365 47 -366 -1 -1
-565 72 -705 92 l-44 7 324 324 c178 178 325 320 327 316 1 -5 25 -173 51
-373z"/>
</g>
</svg>
