<?xml version="1.0" standalone="no"?>
<!DOCTYPE svg PUBLIC "-//W3C//DTD SVG 20010904//EN"
 "http://www.w3.org/TR/2001/REC-SVG-20010904/DTD/svg10.dtd">
<svg version="1.0" xmlns="http://www.w3.org/2000/svg"
 width="468pt" height="470pt" viewBox="0 0 468 470"
 preserveAspectRatio="xMidYMid meet">
<metadata>
Created by potrace 1.8, written by Peter Selinger 2001-2007
</metadata>
<g transform="translate(0,470) scale(0.158644,-0.158644)"
fill="#000000" stroke="none">
<path d="M1952 2944 c-27 -18 -29 -55 -4 -77 24 -22 45 -21 65 1 23 26 21 58
-5 76 -12 9 -25 16 -28 16 -3 0 -16 -7 -28 -16z"/>
<path d="M2440 2900 c-23 -23 -25 -39 -7 -64 27 -36 97 -14 97 31 0 18 -37 53
-55 53 -8 0 -24 -9 -35 -20z"/>
<path d="M2857 2822 c-34 -37 -15 -82 33 -82 32 0 50 17 50 46 0 48 -52 70
-83 36z"/>
<path d="M1597 2792 c-34 -37 -15 -82 33 -82 32 0 50 17 50 46 0 48 -52 70
-83 36z"/>
<path d="M2178 2748 c-28 -22 -31 -55 -9 -77 26 -26 46 -26 71 -1 11 11 20 27
20 35 0 18 -35 55 -53 55 -7 0 -20 -6 -29 -12z"/>
<path d="M1102 2674 c-28 -19 -28 -55 -1 -80 19 -17 23 -17 47 -3 36 20 41 61
10 83 -28 20 -28 20 -56 0z"/>
<path d="M1747 2672 c-22 -24 -21 -45 1 -65 27 -24 59 -21 78 8 15 23 15 27 0
50 -20 30 -56 33 -79 7z"/>
<path d="M968 2669 c-21 -12 -24 -59 -6 -77 7 -7 24 -12 38 -12 49 0 68 51 32
83 -21 19 -39 21 -64 6z"/>
<path d="M1210 2651 c-15 -28 -12 -46 8 -64 37 -34 82 -15 82 33 0 14 -5 31
-12 38 -19 19 -66 15 -78 -7z"/>
<path d="M2726 2654 c-20 -19 -20 -34 0 -62 21 -30 59 -29 80 3 15 23 15 27 0
50 -19 29 -56 33 -80 9z"/>
<path d="M842 2628 c-20 -20 -15 -66 9 -78 47 -26 100 25 72 69 -13 20 -64 26
-81 9z"/>
<path d="M1334 2605 c-15 -23 -15 -27 0 -50 10 -15 26 -25 41 -25 15 0 31 10
41 25 15 23 15 27 0 50 -10 15 -26 25 -41 25 -15 0 -31 -10 -41 -25z"/>
<path d="M732 2568 c-28 -28 -2 -88 38 -88 40 0 66 60 38 88 -7 7 -24 12 -38
12 -14 0 -31 -5 -38 -12z"/>
<path d="M2240 2560 c-11 -11 -20 -27 -20 -35 0 -8 9 -24 20 -35 11 -11 27
-20 35 -20 8 0 24 9 35 20 11 11 20 27 20 35 0 8 -9 24 -20 35 -11 11 -27 20
-35 20 -8 0 -24 -9 -35 -20z"/>
<path d="M1458 2559 c-22 -12 -24 -62 -4 -78 46 -38 111 25 71 69 -20 22 -41
25 -67 9z"/>
<path d="M2502 2544 c-30 -21 -29 -59 3 -80 23 -15 27 -15 50 0 32 21 33 59 3
80 -12 9 -25 16 -28 16 -3 0 -16 -7 -28 -16z"/>
<path d="M1988 2539 c-21 -12 -24 -59 -6 -77 7 -7 24 -12 38 -12 32 0 50 17
50 46 0 44 -43 66 -82 43z"/>
<path d="M1067 2522 c-12 -13 -17 -37 -17 -75 0 -46 4 -58 22 -71 36 -25 104
-21 133 9 32 31 34 91 4 129 -17 22 -28 26 -73 26 -39 0 -57 -5 -69 -18z"/>
<path d="M893 2498 c-32 -15 -48 -71 -34 -118 17 -56 80 -77 141 -45 32 17 46
57 36 111 -11 54 -84 81 -143 52z"/>
<path d="M635 2480 c-15 -16 -17 -26 -9 -48 8 -22 16 -27 43 -27 44 0 66 29
48 65 -16 33 -57 38 -82 10z"/>
<path d="M1300 2483 c-37 -14 -50 -36 -50 -83 0 -70 24 -95 90 -95 42 0 55 4
71 24 25 30 25 101 1 131 -18 22 -82 35 -112 23z"/>
<path d="M1546 2468 c-20 -28 -20 -43 0 -62 24 -24 61 -20 80 9 15 23 15 27 0
50 -21 32 -59 33 -80 3z"/>
<path d="M568 2399 c-22 -12 -24 -62 -4 -78 46 -38 111 25 71 69 -20 22 -41
25 -67 9z"/>
<path d="M1616 2374 c-19 -18 -21 -55 -4 -72 7 -7 24 -12 38 -12 34 0 50 17
50 52 0 43 -53 64 -84 32z"/>
<path d="M707 2352 c-12 -13 -17 -37 -17 -75 0 -46 4 -58 22 -71 36 -25 104
-21 133 9 32 31 34 91 4 129 -17 22 -28 26 -73 26 -39 0 -57 -5 -69 -18z"/>
<path d="M1444 2312 c-40 -27 -46 -111 -9 -147 32 -33 105 -35 135 -5 27 27
28 119 2 143 -19 18 -107 24 -128 9z"/>
<path d="M505 2280 c-27 -29 -10 -74 28 -78 37 -4 57 13 57 49 0 47 -53 65
-85 29z"/>
<path d="M1671 2266 c-21 -26 -10 -69 22 -80 23 -8 31 -6 49 12 18 18 20 26
12 49 -7 21 -17 29 -40 31 -18 2 -36 -3 -43 -12z"/>
<path d="M940 2250 c-14 -14 -20 -33 -20 -67 0 -27 4 -53 8 -59 13 -20 50 -34
87 -34 53 0 85 36 85 95 0 62 -24 85 -90 85 -37 0 -55 -5 -70 -20z"/>
<path d="M1146 2249 c-22 -17 -26 -28 -26 -70 0 -67 23 -89 90 -89 68 0 90 22
90 90 0 37 -5 55 -20 70 -28 28 -98 27 -134 -1z"/>
<path d="M480 2170 c-23 -23 -25 -40 -7 -62 22 -28 47 -29 72 -3 26 25 25 50
-3 73 -22 17 -39 15 -62 -8z"/>
<path d="M621 2154 c-27 -35 -27 -93 0 -128 17 -21 29 -26 68 -26 72 0 91 19
91 90 0 71 -19 90 -91 90 -39 0 -51 -5 -68 -26z"/>
<path d="M1702 2148 c-33 -33 6 -96 52 -84 29 7 45 49 29 75 -13 20 -64 26
-81 9z"/>
<path d="M1495 2105 c-30 -29 -34 -97 -9 -133 13 -18 25 -22 74 -22 71 0 90
19 90 91 0 39 -5 51 -26 68 -38 30 -98 28 -129 -4z"/>
<path d="M845 2075 c-30 -29 -34 -97 -9 -133 13 -18 25 -22 73 -22 74 0 91 17
91 88 0 43 -4 54 -26 71 -38 30 -98 28 -129 -4z"/>
<path d="M1253 2073 c-33 -6 -53 -41 -53 -89 0 -57 24 -85 80 -91 36 -4 51 -1
73 17 23 19 27 29 27 74 0 39 -5 57 -19 70 -20 18 -71 27 -108 19z"/>
<path d="M470 2050 c-26 -26 -25 -47 4 -73 21 -18 22 -23 9 -32 -21 -16 -19
-66 3 -82 25 -18 41 -16 64 7 26 26 25 47 -3 72 -23 21 -23 22 -5 40 10 10 18
25 18 33 0 19 -36 55 -55 55 -8 0 -24 -9 -35 -20z"/>
<path d="M1723 2029 c-39 -15 -40 -69 -1 -90 40 -22 88 23 67 63 -14 25 -41
37 -66 27z"/>
<path d="M641 1954 c-30 -38 -28 -98 4 -129 29 -30 97 -34 133 -9 18 13 22 25
22 73 0 74 -17 91 -88 91 -43 0 -54 -4 -71 -26z"/>
<path d="M1450 1910 c-15 -15 -20 -33 -20 -74 0 -67 20 -86 91 -86 39 0 51 5
68 26 30 38 28 98 -4 129 -32 33 -105 35 -135 5z"/>
<path d="M1070 1900 c-15 -15 -20 -33 -20 -70 0 -68 22 -90 90 -90 37 0 55 5
70 20 15 15 20 33 20 70 0 68 -22 90 -90 90 -37 0 -55 -5 -70 -20z"/>
<path d="M1686 1894 c-19 -18 -21 -55 -4 -72 7 -7 24 -12 38 -12 34 0 50 17
50 52 0 43 -53 64 -84 32z"/>
<path d="M859 1850 c-53 -28 -117 -103 -154 -183 -80 -171 -154 -489 -201
-865 l-6 -54 -36 54 c-82 124 -241 250 -370 295 l-54 18 -19 -24 c-11 -13 -17
-31 -14 -38 3 -8 77 -108 165 -223 l159 -207 72 -288 c48 -192 78 -294 91
-307 36 -36 118 -9 118 40 0 15 421 566 473 619 12 12 173 105 357 206 303
166 335 186 338 211 7 60 -39 68 -223 41 -401 -60 -740 -276 -906 -579 -16
-28 -29 -46 -29 -41 0 6 5 62 10 125 30 345 90 664 161 860 47 128 121 230
168 230 44 0 69 81 35 114 -21 22 -90 20 -135 -4z m626 -819 c-6 -5 -100 -57
-210 -117 -110 -59 -210 -113 -222 -120 -12 -8 -101 -116 -199 -241 -97 -126
-184 -235 -192 -243 -44 -46 40 169 103 265 136 205 356 356 640 440 94 28 92
28 80 16z m-1159 -209 c90 -106 155 -247 153 -335 -1 -50 -2 -47 -30 62 -29
110 -33 119 -102 209 -40 51 -81 105 -92 120 l-20 27 29 -23 c17 -13 44 -40
62 -60z"/>
<path d="M516 1837 c-19 -14 -25 -62 -10 -77 22 -20 53 -21 73 -1 26 26 26 46
1 71 -23 23 -39 25 -64 7z"/>
<path d="M1642 1774 c-30 -21 -29 -59 3 -80 23 -15 27 -15 50 0 32 21 33 59 3
80 -12 9 -25 16 -28 16 -3 0 -16 -7 -28 -16z"/>
<path d="M1310 1740 c-15 -15 -20 -33 -20 -70 0 -67 22 -90 88 -90 65 0 92 27
92 93 0 64 -23 87 -90 87 -37 0 -55 -5 -70 -20z"/>
<path d="M562 1728 c-17 -17 -15 -63 2 -77 46 -38 111 25 71 69 -20 22 -55 26
-73 8z"/>
<path d="M911 1674 c-30 -38 -28 -98 4 -129 18 -19 35 -25 70 -25 64 0 85 24
85 94 0 67 -20 86 -91 86 -39 0 -51 -5 -68 -26z"/>
<path d="M1110 1662 c-33 -27 -39 -99 -10 -134 19 -24 29 -28 74 -28 70 0 86
18 86 93 0 46 -4 58 -22 71 -31 22 -100 20 -128 -2z"/>
<path d="M1572 1664 c-30 -21 -29 -59 3 -80 23 -15 27 -15 50 0 30 20 33 56 7
79 -23 21 -32 21 -60 1z"/>
<path d="M1480 1570 c-23 -23 -25 -39 -7 -64 27 -36 97 -14 97 31 0 18 -37 53
-55 53 -8 0 -24 -9 -35 -20z"/>
<path d="M1382 1508 c-33 -33 6 -96 52 -84 29 7 45 49 29 75 -13 20 -64 26
-81 9z"/>
<path d="M922 1464 c-30 -21 -29 -59 3 -80 23 -15 27 -15 50 0 30 20 33 56 7
79 -23 21 -32 21 -60 1z"/>
<path d="M1276 1464 c-19 -18 -21 -55 -4 -72 7 -7 24 -12 38 -12 14 0 31 5 38
12 28 28 2 88 -38 88 -10 0 -26 -7 -34 -16z"/>
<path d="M1042 1444 c-30 -21 -29 -59 3 -80 23 -15 27 -15 50 0 30 20 33 56 7
79 -23 21 -32 21 -60 1z"/>
<path d="M1162 1444 c-12 -8 -22 -26 -22 -39 0 -23 32 -55 57 -55 19 0 43 30
43 55 0 20 -32 55 -50 55 -3 0 -16 -7 -28 -16z"/>
</g>
</svg>
