<?xml version="1.0" standalone="no"?>
<!DOCTYPE svg PUBLIC "-//W3C//DTD SVG 20010904//EN"
 "http://www.w3.org/TR/2001/REC-SVG-20010904/DTD/svg10.dtd">
<svg version="1.0" xmlns="http://www.w3.org/2000/svg"
 width="468pt" height="468pt" viewBox="0 0 468 468"
 preserveAspectRatio="xMidYMid meet">
<metadata>
Created by potrace 1.8, written by Peter Selinger 2001-2007
</metadata>
<g transform="translate(0,468) scale(0.158108,-0.158108)"
fill="#000000" stroke="none">
<path d="M2195 2941 c-37 -22 -60 -55 -69 -99 l-8 -32 -112 0 c-96 0 -118 -3
-156 -22 -56 -29 -80 -74 -80 -150 0 -57 0 -58 -29 -58 -38 0 -92 -38 -113
-80 -13 -26 -18 -60 -18 -130 0 -117 16 -155 80 -187 42 -22 56 -23 246 -23
191 0 202 -1 220 -21 43 -47 55 -49 379 -49 341 0 356 3 395 65 19 31 20 49
20 370 0 471 34 435 -417 435 -282 0 -311 -2 -338 -19z"/>
<path d="M685 2914 c-214 -56 -229 -62 -259 -93 -43 -45 -45 -101 -7 -244 17
-64 31 -120 31 -126 0 -5 -24 -17 -53 -25 -68 -20 -102 -47 -117 -92 -31 -93
40 -175 143 -165 16 2 17 -12 17 -176 1 -131 4 -184 14 -203 13 -23 12 -26
-12 -41 -26 -15 -28 -14 -58 9 l-31 25 23 129 c25 142 22 172 -21 188 -63 24
-82 5 -101 -100 -8 -47 -17 -91 -19 -98 -3 -9 -25 4 -65 39 -69 60 -110 69
-142 30 -34 -43 -24 -65 66 -143 91 -79 91 -85 3 -87 -72 -2 -115 -83 -67
-126 18 -16 27 -16 157 -2 199 21 183 51 184 -332 0 -168 4 -315 8 -326 7 -16
1 -23 -30 -37 -21 -9 -48 -32 -59 -50 -20 -32 -20 -46 -18 -410 l3 -377 30
-31 c16 -16 46 -35 67 -41 24 -6 218 -9 531 -7 547 3 524 0 567 71 19 30 20
53 20 395 0 308 -2 368 -15 393 -18 33 -69 69 -100 69 -20 0 -20 6 -17 372 2
360 1 374 -18 406 -27 43 -74 62 -156 62 -59 0 -65 2 -58 18 4 9 9 59 12 110
l4 94 46 -6 c92 -12 170 -10 186 3 22 18 20 77 -2 99 -10 10 -66 36 -124 58
l-106 39 -4 65 c-3 36 -8 72 -12 81 -5 12 4 18 42 28 32 8 61 24 83 47 29 30
34 42 34 82 0 63 -23 96 -81 118 -43 16 -51 17 -105 3 l-59 -16 -9 36 c-69
269 -71 273 -134 302 -54 24 -58 24 -212 -17z m193 -226 c17 -68 29 -124 27
-127 -5 -5 -296 -81 -311 -81 -13 0 -79 238 -69 248 9 9 274 80 301 81 19 1
25 -12 52 -121z m122 -633 l0 -215 -212 2 -213 3 0 179 0 180 120 32 c92 25
141 33 213 33 l92 1 0 -215z m230 -740 l0 -325 -360 0 -360 0 0 241 0 241 58
-50 c195 -168 239 -205 259 -214 51 -24 117 29 95 76 -6 13 -96 97 -201 186
-105 89 -191 164 -191 166 0 2 158 4 350 4 l350 0 0 -325z m130 -845 l0 -330
-480 0 -480 0 0 330 0 330 480 0 480 0 0 -330z"/>
<path d="M810 2211 c-28 -54 1 -111 57 -111 39 0 63 27 63 71 0 46 -15 59 -67
59 -32 0 -45 -5 -53 -19z"/>
<path d="M2322 1964 c-12 -8 -22 -26 -22 -40 0 -28 -5 -29 -40 -9 -54 31 -110
3 -110 -54 0 -32 26 -57 108 -101 l42 -24 0 -103 c0 -57 -2 -103 -5 -103 -3 0
-46 23 -95 51 l-90 51 0 70 c0 98 -18 128 -77 128 -38 0 -63 -30 -63 -76 0
-31 -1 -32 -38 -27 -34 4 -42 1 -60 -22 -28 -35 -28 -60 1 -89 l23 -23 -33
-21 c-40 -27 -51 -63 -29 -97 27 -41 58 -41 130 -1 35 20 69 36 75 36 12 0
169 -89 176 -100 2 -3 -37 -30 -86 -58 l-89 -53 -62 36 c-72 43 -111 44 -141
3 -18 -24 -18 -30 -7 -57 7 -17 16 -31 19 -31 4 0 15 -6 26 -13 17 -13 17 -15
-5 -45 -21 -28 -22 -34 -10 -62 16 -38 50 -53 85 -40 24 9 25 8 25 -26 0 -40
36 -84 70 -84 12 0 32 11 45 25 22 21 25 33 25 103 l0 78 33 17 c17 9 60 32
95 52 l62 36 0 -109 0 -110 -57 -32 c-78 -44 -93 -58 -93 -92 0 -56 69 -88
116 -53 27 20 34 19 34 -8 0 -32 30 -57 67 -57 34 0 63 26 63 58 0 26 8 27 34
7 47 -35 116 -3 116 53 0 34 -15 48 -92 92 l-58 32 0 105 c0 122 -9 118 113
46 l77 -45 0 -74 c0 -66 3 -78 25 -99 47 -48 115 -19 115 49 0 34 1 35 34 29
28 -4 39 -1 60 20 32 33 33 61 2 92 l-24 24 34 20 c43 26 54 63 27 99 -30 40
-65 39 -136 -3 -69 -41 -61 -42 -180 27 -38 22 -65 44 -60 48 4 4 45 29 90 55
l82 47 65 -36 c35 -20 75 -36 89 -36 40 0 64 37 59 92 -1 9 -17 26 -36 38
l-34 21 25 25 c29 29 26 68 -9 97 -23 20 -41 21 -69 7 -17 -10 -19 -7 -19 23
0 69 -65 110 -116 73 -15 -12 -20 -30 -24 -101 l-5 -88 -85 -48 c-47 -27 -88
-49 -92 -49 -5 0 -8 46 -8 103 l0 102 58 34 c76 45 92 60 92 86 0 58 -69 94
-114 60 -28 -21 -36 -19 -36 9 0 28 -33 56 -65 56 -11 0 -31 -7 -43 -16z"/>
</g>
</svg>
