<svg version="1.0" xmlns="http://www.w3.org/2000/svg"
 width="270" height="295" viewBox="0 0 270 295" preserveAspectRatio="xMidYMid meet">
<metadata>
Created by potrace 1.14, written by Peter Selinger 2001-2017
</metadata>
<g transform="translate(0,295) scale(0.1,-0.1)"
fill="#000000" stroke="none">
<path d="M1589 2928 c-311 -140 -1457 -640 -1489 -648 -51 -14 -90 -50 -90
-85 0 -51 103 -438 121 -456 29 -29 66 -33 148 -15 42 9 424 52 849 97 425 44
779 82 785 85 7 3 154 155 327 339 l315 335 5 -1271 5 -1271 24 -19 c13 -10
30 -19 38 -19 18 0 56 19 65 34 4 6 8 593 8 1304 0 1279 0 1292 -20 1312 -26
26 -60 25 -94 -1 -20 -16 -26 -17 -26 -6 0 8 -6 19 -13 25 -10 9 -473 151
-863 265 -48 14 -54 14 -95 -5z m105 -523 c53 -198 96 -365 96 -371 0 -10
-247 -41 -254 -33 -2 4 -167 655 -170 673 -1 11 217 107 225 98 4 -4 50 -169
103 -367z m-560 -132 c38 -153 71 -285 73 -294 4 -14 -14 -18 -122 -29 -69 -6
-128 -10 -129 -9 -6 8 -127 502 -123 505 4 4 220 102 227 103 3 1 36 -124 74
-276z m-595 0 c36 -138 91 -366 89 -368 -4 -4 -211 -26 -213 -23 -5 7 -85 341
-82 344 5 5 182 84 189 84 4 0 12 -17 17 -37z"/>
<path d="M960 633 c-56 -164 -129 -374 -161 -466 l-59 -168 76 3 77 3 153 445
c85 245 157 453 160 463 5 15 -3 17 -68 17 l-74 0 -104 -297z"/>
<path d="M145 694 c-16 -3 -54 -9 -83 -15 l-52 -10 0 -245 0 -244 70 0 70 0 0
195 0 195 43 0 c80 0 87 -17 87 -224 l0 -166 76 0 75 0 -2 186 c-2 203 -2 204
57 204 19 0 38 -8 50 -21 17 -19 19 -41 22 -195 l3 -174 75 0 74 0 0 154 c0
169 -11 248 -39 286 -49 68 -135 92 -229 65 -31 -9 -62 -21 -68 -26 -8 -6 -24
-3 -46 11 -35 20 -126 32 -183 24z"/>
<path d="M1355 695 c-5 -2 -22 -6 -37 -9 -41 -9 -96 -63 -107 -104 -13 -47 0
-106 31 -139 12 -14 60 -43 104 -63 86 -40 97 -49 88 -73 -9 -24 -67 -29 -145
-12 -40 8 -73 14 -74 12 -4 -5 -23 -112 -21 -115 2 -1 36 -10 77 -18 85 -18
161 -13 223 15 67 30 81 53 81 131 0 84 -19 109 -115 152 -103 46 -110 50
-110 69 0 37 80 49 166 24 18 -6 22 0 32 46 7 29 9 56 4 61 -17 17 -163 35
-197 23z"/>
</g>
</svg>
