<?xml version="1.0" standalone="no"?>
<!DOCTYPE svg PUBLIC "-//W3C//DTD SVG 20010904//EN"
 "http://www.w3.org/TR/2001/REC-SVG-20010904/DTD/svg10.dtd">
<svg version="1.0" xmlns="http://www.w3.org/2000/svg"
 width="468pt" height="463pt" viewBox="0 0 468 463"
 preserveAspectRatio="xMidYMid meet">
<metadata>
Created by potrace 1.8, written by Peter Selinger 2001-2007
</metadata>
<g transform="translate(0,463) scale(0.176604,-0.176604)"
fill="#000000" stroke="none">
<path d="M715 2608 c-28 -15 -45 -38 -45 -62 0 -12 63 -83 167 -188 179 -180
199 -192 243 -148 43 43 31 63 -142 236 -90 89 -172 165 -183 168 -11 3 -29 0
-40 -6z"/>
<path d="M1207 2609 c-38 -22 -39 -55 -5 -136 35 -86 57 -113 91 -113 31 0 67
35 67 65 0 36 -49 147 -77 173 -26 24 -48 27 -76 11z"/>
<path d="M1373 2236 c-103 -33 -194 -114 -241 -214 l-27 -57 0 -295 0 -295 33
-67 c39 -81 121 -158 202 -190 51 -21 73 -23 328 -26 229 -3 282 -1 330 13
125 36 226 134 263 255 19 63 20 88 17 337 l-3 269 -32 65 c-39 80 -111 150
-191 187 l-57 27 -290 2 c-220 2 -300 -1 -332 -11z m633 -143 c57 -30 111 -97
129 -157 21 -71 21 -461 0 -532 -19 -63 -72 -126 -133 -156 -46 -22 -54 -23
-312 -23 -258 0 -266 1 -312 23 -27 13 -64 42 -83 65 -60 70 -67 114 -63 385
3 261 5 270 72 340 71 76 98 81 406 79 242 -2 257 -3 296 -24z"/>
<path d="M585 2130 c-23 -25 -22 -67 1 -90 31 -30 264 -119 288 -111 33 12 52
54 41 87 -9 24 -29 36 -135 81 -135 58 -168 63 -195 33z"/>
<path d="M20 1720 c-27 -27 -25 -66 5 -96 l25 -25 416 3 c398 3 416 4 430 22
20 28 17 73 -6 96 -19 19 -33 20 -435 20 -402 0 -416 -1 -435 -20z"/>
<path d="M2400 1380 c-25 -25 -26 -64 -2 -88 18 -18 159 -82 180 -82 24 0 62
43 62 71 0 37 -21 54 -105 90 -79 34 -108 36 -135 9z"/>
<path d="M725 1325 c-128 -54 -155 -72 -155 -106 0 -27 39 -69 65 -69 37 0
248 91 273 118 35 37 18 91 -33 106 -12 3 -70 -15 -150 -49z"/>
<path d="M733 817 c-260 -260 -293 -296 -293 -324 0 -35 38 -73 73 -73 14 0
119 97 314 292 262 262 293 296 293 325 0 35 -38 73 -74 73 -14 0 -116 -95
-313 -293z"/>
<path d="M2225 1085 c-14 -13 -25 -34 -25 -46 0 -16 51 -74 167 -191 145 -146
171 -168 199 -168 37 0 67 29 67 66 0 22 -35 61 -170 195 -118 118 -176 169
-192 169 -12 0 -33 -11 -46 -25z"/>
<path d="M1970 932 c-28 -9 -50 -35 -50 -59 0 -32 88 -243 114 -271 27 -31 72
-26 99 10 l20 27 -49 122 c-63 156 -86 186 -134 171z"/>
<path d="M1288 913 c-16 -17 -118 -254 -118 -271 0 -5 9 -21 21 -36 25 -32 70
-35 97 -6 22 23 113 246 112 276 0 48 -80 73 -112 37z"/>
<path d="M1620 902 l-25 -20 0 -415 c0 -394 1 -416 19 -436 24 -26 77 -28 99
-3 15 17 17 61 17 433 0 317 -3 419 -12 432 -21 27 -70 32 -98 9z"/>
</g>
</svg>
