<?xml version="1.0" standalone="no"?>
<!DOCTYPE svg PUBLIC "-//W3C//DTD SVG 20010904//EN"
 "http://www.w3.org/TR/2001/REC-SVG-20010904/DTD/svg10.dtd">
<svg version="1.0" xmlns="http://www.w3.org/2000/svg"
 width="468pt" height="402pt" viewBox="0 0 468 402"
 preserveAspectRatio="xMidYMid meet">
<metadata>
Created by potrace 1.8, written by Peter Selinger 2001-2007
</metadata>
<g transform="translate(0,402) scale(0.158108,-0.158108)"
fill="#000000" stroke="none">
<path d="M1623 2530 c-24 -10 -43 -39 -43 -66 0 -17 209 -237 242 -255 42 -23
108 33 93 80 -8 25 -239 251 -256 250 -8 0 -24 -4 -36 -9z"/>
<path d="M1945 2515 c-14 -13 -25 -31 -25 -39 0 -25 49 -130 67 -143 40 -30
103 2 103 52 0 13 -11 49 -24 79 -35 78 -77 96 -121 51z"/>
<path d="M2113 2241 c-45 -12 -118 -56 -143 -88 -42 -53 -53 -94 -58 -215 l-4
-118 -69 0 -68 0 10 29 c8 22 7 37 -3 58 l-13 28 -299 3 c-333 3 -336 2 -336
-63 0 -64 6 -65 309 -65 l273 0 -44 -33 c-62 -48 -71 -50 -194 -56 -101 -5
-114 -8 -146 -33 -20 -15 -42 -41 -49 -57 l-13 -30 -236 -3 -237 -3 -35 -27
c-46 -35 -68 -83 -68 -151 l0 -55 -172 -4 c-184 -4 -209 -10 -254 -60 -37 -40
-47 -69 -52 -160 l-5 -88 -34 0 c-70 0 -139 -50 -162 -119 -14 -42 -15 -224
-1 -270 11 -39 51 -86 92 -107 16 -8 57 -14 103 -14 l75 0 0 -142 c0 -165 14
-210 78 -250 34 -21 50 -23 215 -26 150 -3 177 -6 177 -19 0 -25 63 -80 105
-92 52 -14 437 -14 490 0 72 20 115 77 115 154 l0 45 93 0 92 0 22 -34 c43
-66 47 -67 487 -64 381 3 396 4 422 24 64 47 69 62 72 224 l3 148 92 4 c105 5
142 20 184 75 l28 36 3 203 c3 187 2 206 -17 242 -22 44 -62 77 -104 87 -22 6
-27 13 -27 37 l0 29 26 -20 c52 -41 114 -13 114 50 0 25 -14 45 -70 103 -62
64 -70 77 -70 110 0 49 -26 92 -66 111 -25 12 -33 23 -38 56 -4 23 -13 54 -21
70 -11 21 -15 65 -15 172 0 213 -30 285 -144 344 -49 26 -59 27 -216 30 -91 1
-179 -2 -197 -6z m356 -145 c51 -27 61 -54 61 -173 l0 -108 -240 3 -240 3 0
100 c0 112 12 149 58 173 39 21 321 22 361 2z"/>
<path d="M1549 2216 c-31 -15 -46 -58 -32 -89 8 -17 36 -35 95 -59 121 -51
121 -51 152 -27 22 17 27 28 24 58 -3 34 -7 38 -68 68 -104 52 -144 63 -171
49z"/>
<path d="M2766 1699 c-27 -21 -34 -56 -16 -88 8 -17 125 -71 151 -71 19 0 59
49 59 73 0 31 -32 58 -99 85 -65 27 -62 27 -95 1z"/>
</g>
</svg>
