<?xml version="1.0" standalone="no"?>
<!DOCTYPE svg PUBLIC "-//W3C//DTD SVG 20010904//EN"
 "http://www.w3.org/TR/2001/REC-SVG-20010904/DTD/svg10.dtd">
<svg version="1.0" xmlns="http://www.w3.org/2000/svg"
 width="468pt" height="501pt" viewBox="0 0 468 501"
 preserveAspectRatio="xMidYMid meet">
<metadata>
Created by potrace 1.8, written by Peter Selinger 2001-2007
</metadata>
<g transform="translate(0,501) scale(0.203478,-0.203478)"
fill="#000000" stroke="none">
<path d="M1124 2450 c-34 -14 -39 -28 -44 -142 l-5 -107 -120 69 c-66 39 -129
70 -140 70 -36 0 -65 -28 -65 -63 0 -18 4 -37 8 -44 4 -6 77 -52 162 -101
l155 -90 3 -342 2 -342 -32 19 c-18 10 -153 88 -300 173 l-268 155 0 183 c0
181 0 183 -25 207 -29 30 -68 32 -95 5 -18 -18 -20 -33 -20 -165 0 -80 -2
-145 -4 -145 -3 0 -43 22 -91 50 -48 27 -95 50 -106 50 -11 0 -31 -11 -44 -25
-49 -48 -31 -79 85 -146 49 -28 90 -53 90 -54 0 -1 -57 -35 -126 -75 -137 -79
-155 -99 -129 -149 14 -28 33 -41 59 -41 7 0 83 41 170 90 86 50 162 90 167
90 14 0 589 -333 589 -341 0 -9 -573 -339 -589 -339 -6 0 -82 41 -168 90 -164
94 -180 99 -215 58 -21 -24 -23 -58 -5 -80 6 -9 57 -42 112 -74 155 -88 150
-74 45 -134 -97 -55 -117 -80 -100 -124 10 -26 38 -46 65 -46 8 0 55 22 103
50 l87 50 5 -144 c6 -163 15 -186 75 -186 61 0 65 15 65 226 l0 189 252 145
c138 80 273 157 300 173 l48 27 0 -349 0 -350 -151 -87 c-82 -48 -157 -93
-165 -101 -34 -34 2 -113 52 -113 10 0 73 32 139 70 l120 70 5 -109 c6 -125
14 -141 71 -141 58 0 69 23 69 147 0 57 2 103 5 103 3 0 60 -31 127 -70 67
-38 129 -70 138 -70 47 0 83 65 57 104 -8 11 -85 61 -171 111 l-156 89 0 343
c0 189 2 343 4 343 2 0 137 -77 300 -171 l295 -170 3 -190 c3 -189 3 -191 28
-211 17 -14 33 -18 55 -14 50 10 55 26 55 183 0 79 3 143 6 143 4 0 46 -22 94
-50 48 -27 95 -50 104 -50 25 0 66 46 66 73 0 30 -20 48 -121 107 l-81 47 114
64 c122 69 158 97 158 127 0 30 -38 72 -65 72 -13 0 -94 -41 -180 -91 -102
-59 -162 -88 -173 -84 -40 15 -581 331 -579 337 1 5 134 84 295 177 l294 169
153 -89 c160 -93 198 -104 228 -71 22 24 22 75 0 94 -10 8 -69 45 -131 80
l-113 66 93 53 c108 63 126 90 91 137 -31 42 -61 39 -160 -17 l-88 -51 -5 149
c-6 168 -11 181 -71 181 -64 0 -69 -15 -69 -230 l0 -185 -252 -145 c-138 -80
-273 -157 -300 -173 l-48 -28 2 347 3 346 155 90 c85 50 158 95 162 102 4 6 8
25 8 43 0 35 -29 63 -65 63 -11 0 -74 -31 -140 -70 l-120 -69 -3 109 c-3 104
-4 110 -29 130 -28 22 -37 23 -69 10z"/>
</g>
</svg>
