<?xml version="1.0" standalone="no"?>
<!DOCTYPE svg PUBLIC "-//W3C//DTD SVG 20010904//EN"
 "http://www.w3.org/TR/2001/REC-SVG-20010904/DTD/svg10.dtd">
<svg version="1.0" xmlns="http://www.w3.org/2000/svg"
 width="468pt" height="468pt" viewBox="0 0 468 468"
 preserveAspectRatio="xMidYMid meet">
<metadata>
Created by potrace 1.8, written by Peter Selinger 2001-2007
</metadata>
<g transform="translate(0,468) scale(0.157576,-0.157576)"
fill="#000000" stroke="none">
<path d="M1566 2960 c-68 -13 -76 -33 -76 -181 l0 -129 -90 0 c-85 0 -92 -2
-115 -26 -30 -32 -30 -40 -6 -79 46 -72 779 -1020 803 -1038 23 -17 31 -18 55
-8 19 8 151 173 418 523 215 281 396 521 403 534 9 17 10 29 2 44 -21 40 -50
50 -142 50 l-88 0 0 124 c0 68 -3 132 -6 141 -4 8 -21 23 -38 33 -28 15 -81
17 -556 19 -289 0 -543 -2 -564 -7z m1024 -220 l0 -90 -485 0 -485 0 0 90 0
90 485 0 485 0 0 -90z m160 -234 c0 -8 -629 -827 -635 -827 -5 0 -609 786
-629 819 -6 9 123 12 628 12 350 0 636 -2 636 -4z"/>
<path d="M348 2286 c-178 -202 -297 -466 -333 -743 -18 -134 -19 -198 -5 -313
69 -577 469 -1041 1021 -1184 466 -120 943 4 1295 337 104 98 113 119 68 164
-29 29 -48 28 -139 -10 -223 -94 -594 -85 -918 23 -204 68 -421 200 -537 327
-150 164 -260 393 -326 679 -37 162 -45 421 -19 576 22 126 22 138 -6 161 -33
27 -67 21 -101 -17z m-24 -664 c129 -732 539 -1137 1286 -1268 99 -18 369 -24
425 -11 29 7 29 7 10 -9 -37 -30 -196 -105 -283 -134 -243 -81 -532 -81 -776
1 -306 102 -563 324 -711 614 -84 164 -124 321 -132 515 -8 202 30 389 115
569 l36 76 7 -130 c4 -71 14 -172 23 -223z"/>
</g>
</svg>
