<?xml version="1.0" standalone="no"?>
<!DOCTYPE svg PUBLIC "-//W3C//DTD SVG 20010904//EN"
 "http://www.w3.org/TR/2001/REC-SVG-20010904/DTD/svg10.dtd">
<svg version="1.0" xmlns="http://www.w3.org/2000/svg"
 width="468pt" height="390pt" viewBox="0 0 468 390"
 preserveAspectRatio="xMidYMid meet">
<metadata>
Created by potrace 1.8, written by Peter Selinger 2001-2007
</metadata>
<g transform="translate(0,390) scale(0.157576,-0.157576)"
fill="#000000" stroke="none">
<path d="M1623 2460 c-24 -10 -43 -39 -43 -66 0 -17 209 -237 242 -255 42 -23
108 33 93 80 -8 25 -239 251 -256 250 -8 0 -24 -4 -36 -9z"/>
<path d="M1945 2445 c-14 -13 -25 -31 -25 -39 0 -25 49 -130 67 -143 40 -30
103 2 103 52 0 13 -11 49 -24 79 -35 78 -77 96 -121 51z"/>
<path d="M2113 2171 c-49 -13 -120 -58 -146 -94 -47 -63 -52 -91 -52 -277 0
-171 1 -176 27 -227 28 -52 63 -84 128 -119 31 -17 59 -19 220 -19 182 0 186
0 236 27 114 60 144 132 144 343 0 211 -31 284 -144 342 -49 26 -59 27 -216
30 -91 1 -179 -2 -197 -6z m356 -145 c55 -29 61 -50 61 -221 0 -229 -6 -235
-240 -235 -232 0 -240 8 -240 235 0 227 7 234 238 235 115 0 160 -4 181 -14z"/>
<path d="M1549 2146 c-31 -15 -46 -58 -32 -89 8 -17 36 -35 95 -59 121 -51
121 -51 152 -27 22 17 27 28 24 58 -3 34 -7 38 -68 68 -104 52 -144 63 -171
49z"/>
<path d="M1147 1852 c-22 -25 -21 -75 1 -95 16 -15 53 -17 314 -17 327 0 322
-1 322 65 0 66 6 65 -324 65 -275 0 -298 -1 -313 -18z"/>
<path d="M2766 1629 c-27 -21 -34 -56 -16 -88 8 -17 125 -71 151 -71 19 0 59
49 59 73 0 31 -32 58 -99 85 -65 27 -62 27 -95 1z"/>
<path d="M1623 1589 c-74 -33 -94 -46 -104 -70 -10 -26 -9 -34 8 -57 28 -38
53 -38 146 -1 88 36 127 66 127 99 0 26 -43 70 -67 69 -10 0 -59 -18 -110 -40z"/>
<path d="M1835 1440 c-34 -14 -403 -393 -410 -420 -9 -38 27 -80 68 -80 28 0
56 25 234 203 178 178 203 206 203 234 0 22 -8 38 -26 52 -29 23 -38 24 -69
11z"/>
<path d="M2646 1429 c-18 -14 -26 -30 -26 -52 0 -26 18 -49 118 -149 92 -92
124 -118 145 -118 36 0 67 33 67 71 0 27 -16 49 -102 136 -94 95 -141 133
-166 133 -5 0 -21 -9 -36 -21z"/>
<path d="M2012 1313 c-12 -10 -38 -58 -58 -108 -30 -75 -35 -95 -26 -117 l10
-26 -133 -4 c-116 -3 -137 -6 -161 -24 -54 -40 -68 -70 -72 -149 l-4 -73 -44
-7 c-51 -7 -105 -48 -123 -94 -9 -19 -11 -85 -9 -205 l3 -177 41 -39 c31 -28
54 -40 88 -45 40 -6 49 -12 60 -39 7 -17 26 -42 40 -56 27 -25 30 -25 227 -28
197 -3 200 -4 209 -26 12 -33 75 -84 112 -91 18 -3 137 -5 265 -3 217 3 233 4
260 24 51 38 73 81 73 145 0 54 2 59 23 60 72 2 148 64 166 134 14 55 14 337
1 387 -14 48 -55 97 -97 114 -23 10 -83 14 -211 14 l-179 0 -7 38 c-8 53 -44
103 -89 125 l-37 19 0 102 c0 115 -10 136 -67 136 -52 0 -63 -24 -63 -138 l0
-102 -84 0 -85 0 40 94 c21 52 39 103 39 114 0 23 -44 62 -70 62 -10 0 -27 -8
-38 -17z"/>
<path d="M2457 1319 c-39 -23 -39 -54 -1 -147 34 -84 70 -132 99 -132 22 0 66
43 67 65 2 28 -60 175 -85 203 -22 24 -51 28 -80 11z"/>
<path d="M285 916 c-37 -17 -80 -62 -94 -99 -6 -16 -11 -68 -11 -116 l0 -88
-40 -12 c-50 -15 -99 -56 -116 -98 -19 -45 -19 -262 0 -306 16 -39 61 -82 99
-96 16 -6 72 -11 126 -11 65 0 111 -5 134 -15 29 -12 89 -15 304 -15 156 0
284 4 306 11 59 16 104 68 118 138 11 51 17 61 38 66 40 10 80 44 101 85 29
57 29 273 0 330 -31 61 -72 84 -156 88 -69 4 -72 5 -77 32 -8 37 -49 84 -91
104 -29 14 -77 16 -323 16 -218 -1 -295 -4 -318 -14z"/>
</g>
</svg>
