<?xml version="1.0" standalone="no"?>
<!DOCTYPE svg PUBLIC "-//W3C//DTD SVG 20010904//EN"
 "http://www.w3.org/TR/2001/REC-SVG-20010904/DTD/svg10.dtd">
<svg version="1.0" xmlns="http://www.w3.org/2000/svg"
 width="468pt" height="472pt" viewBox="0 0 468 472"
 preserveAspectRatio="xMidYMid meet">
<metadata>
Created by potrace 1.8, written by Peter Selinger 2001-2007
</metadata>
<g transform="translate(0,472) scale(0.159184,-0.159184)"
fill="#000000" stroke="none">
<path d="M1310 2734 l0 -225 48 3 47 3 3 144 3 144 44 -58 c25 -32 70 -97 101
-146 55 -87 57 -89 95 -89 l39 0 0 225 0 225 -50 0 -49 0 -3 -125 -3 -125 -56
77 c-31 43 -76 99 -99 126 -36 41 -47 47 -81 47 l-39 0 0 -226z"/>
<path d="M1462 2353 c-5 -10 -31 -112 -57 -228 -71 -318 -58 -285 -111 -285
-58 0 -111 -25 -129 -61 -9 -16 -15 -56 -15 -92 l0 -64 -192 -42 c-106 -24
-200 -47 -209 -52 -9 -5 -19 -18 -22 -29 -11 -42 19 -56 225 -102 l198 -43 0
-61 c0 -117 31 -153 135 -156 30 -1 55 -3 55 -4 0 -14 112 -475 120 -491 14
-32 67 -32 80 0 6 12 33 121 60 242 28 121 53 227 56 236 3 13 21 18 70 21 54
3 69 8 92 31 24 24 27 36 30 105 l4 77 200 45 c168 37 203 48 215 67 11 16 12
27 4 42 -13 23 -20 26 -248 76 l-173 38 0 59 c0 112 -42 158 -144 158 -53 0
-41 -31 -112 285 -25 116 -51 218 -56 228 -5 10 -20 17 -38 17 -18 0 -33 -7
-38 -17z m288 -696 c0 -51 5 -89 13 -99 7 -9 55 -26 112 -38 55 -13 103 -26
108 -30 4 -3 -39 -16 -95 -28 -56 -13 -110 -30 -120 -39 -15 -13 -18 -32 -18
-99 0 -95 0 -96 -95 -93 -44 2 -61 -2 -70 -14 -6 -9 -27 -84 -46 -167 -19 -82
-37 -150 -40 -150 -3 0 -21 68 -40 151 -19 84 -39 158 -45 167 -8 11 -27 15
-69 13 -95 -3 -95 -2 -95 93 0 67 -3 86 -18 99 -10 9 -64 26 -120 39 -56 12
-99 25 -95 28 5 4 53 17 108 30 57 12 105 29 113 38 7 10 12 48 12 99 l0 83
250 0 250 0 0 -83z"/>
<path d="M2658 1710 c-115 -35 -178 -155 -149 -286 11 -48 22 -68 60 -105 56
-57 121 -75 201 -58 104 22 159 91 168 209 4 57 1 76 -21 122 -14 31 -39 66
-58 81 -55 41 -137 57 -201 37z m136 -112 c52 -52 57 -167 11 -218 -47 -52
-140 -45 -176 14 -26 43 -26 139 1 184 38 61 113 71 164 20z"/>
<path d="M6 1673 c9 -51 67 -284 88 -355 l17 -58 44 0 c24 0 47 6 52 13 4 6
24 66 45 132 20 66 37 118 38 115 0 -3 19 -61 43 -130 l42 -125 44 0 c42 0 45
2 58 40 16 44 103 379 103 396 0 6 -21 9 -52 7 l-52 -3 -18 -95 c-32 -172 -40
-202 -47 -194 -5 5 -23 62 -42 126 l-34 118 -42 0 c-38 0 -42 -3 -51 -32 -6
-18 -22 -74 -38 -125 -15 -51 -30 -90 -34 -88 -4 2 -20 70 -35 150 l-28 145
-54 0 -54 0 7 -37z"/>
<path d="M1446 452 c-57 -20 -86 -53 -92 -108 -7 -58 23 -99 94 -130 96 -42
107 -49 110 -72 6 -42 -16 -55 -83 -49 -33 3 -70 8 -81 12 -18 5 -23 1 -33
-26 -16 -46 -16 -47 41 -64 174 -51 315 48 253 179 -15 32 -31 43 -106 79 -80
37 -89 44 -89 69 0 33 29 44 88 35 20 -4 45 -8 56 -9 13 -2 22 7 32 34 13 37
13 37 -19 47 -65 20 -121 21 -171 3z"/>
</g>
</svg>
