<?xml version="1.0" standalone="no"?>
<!DOCTYPE svg PUBLIC "-//W3C//DTD SVG 20010904//EN"
 "http://www.w3.org/TR/2001/REC-SVG-20010904/DTD/svg10.dtd">
<svg version="1.0" xmlns="http://www.w3.org/2000/svg"
 width="292.000000pt" height="287.000000pt" viewBox="0 0 292.000000 287.000000"
 preserveAspectRatio="xMidYMid meet">
<metadata>
Created by potrace 1.14, written by Peter Selinger 2001-2017
</metadata>
<g transform="translate(0.000000,287.000000) scale(0.100000,-0.100000)"
fill="#000000" stroke="none">
<path d="M30 2850 c-15 -15 -17 -25 -11 -42 11 -30 60 -37 78 -12 17 24 17 30
-7 54 -25 25 -35 25 -60 0z"/>
<path d="M320 2830 c-15 -28 4 -60 34 -60 32 0 50 24 42 55 -5 20 -13 25 -36
25 -19 0 -33 -7 -40 -20z"/>
<path d="M2840 2725 c-16 -19 -5 -61 17 -67 25 -7 42 1 53 23 23 43 -39 82
-70 44z"/>
<path d="M1367 2712 c-22 -24 -21 -35 3 -57 17 -15 24 -16 45 -7 31 14 34 56
6 72 -27 14 -35 13 -54 -8z"/>
<path d="M576 2644 c-19 -19 -20 -25 -3 -48 19 -26 61 -18 65 12 7 44 -32 67
-62 36z"/>
<path d="M1700 2546 c-6 -8 -10 -25 -8 -38 2 -19 9 -23 38 -23 31 0 35 3 38
29 5 42 -41 64 -68 32z"/>
<path d="M2302 2518 c-33 -42 -6 -108 44 -108 53 0 84 69 46 103 -22 20 -75
22 -90 5z"/>
<path d="M2060 2350 c-28 -28 -11 -63 28 -58 21 2 28 9 30 30 5 39 -30 56 -58
28z"/>
<path d="M2737 2262 c-37 -40 -9 -102 46 -102 33 0 57 24 57 59 0 54 -68 82
-103 43z"/>
<path d="M1265 2245 c-14 -13 -25 -31 -25 -40 0 -9 11 -27 25 -40 13 -14 31
-25 40 -25 23 0 65 45 65 70 0 11 -9 29 -20 40 -27 27 -56 25 -85 -5z"/>
<path d="M2232 2248 c-27 -27 -6 -68 35 -68 29 0 48 33 33 60 -12 22 -49 27
-68 8z"/>
<path d="M756 2234 c-21 -21 -20 -37 3 -58 25 -23 59 -13 67 20 12 46 -37 72
-70 38z"/>
<path d="M2422 2238 c-17 -17 -15 -53 3 -68 20 -17 62 -5 70 20 14 44 -41 80
-73 48z"/>
<path d="M1781 1960 c-19 -11 -9 -45 14 -45 13 0 21 8 23 21 3 23 -17 37 -37
24z"/>
<path d="M293 1934 c-3 -8 -1 -20 5 -26 16 -16 42 -2 42 22 0 24 -38 28 -47 4z"/>
<path d="M1012 1738 c-27 -27 -6 -68 35 -68 29 0 48 33 33 60 -12 22 -49 27
-68 8z"/>
<path d="M2706 1664 c-9 -8 -16 -22 -16 -29 0 -18 27 -45 45 -45 17 0 45 27
45 44 0 15 -32 46 -48 46 -6 0 -18 -7 -26 -16z"/>
<path d="M2038 1658 c-8 -21 2 -38 22 -38 19 0 34 25 24 41 -8 13 -41 11 -46
-3z"/>
<path d="M1750 1641 c-16 -31 4 -63 37 -59 34 4 52 32 37 56 -16 26 -60 28
-74 3z"/>
<path d="M2200 1555 c-15 -18 -6 -61 16 -69 19 -7 50 8 58 29 16 42 -45 75
-74 40z"/>
<path d="M233 1453 c-32 -29 -78 -93 -117 -164 -72 -131 -106 -268 -106 -424
0 -485 374 -858 860 -858 238 0 433 78 605 242 63 60 71 93 31 130 -29 27 -48
25 -141 -11 -54 -20 -76 -23 -215 -22 -140 0 -164 3 -245 28 -146 44 -257 108
-351 201 -68 68 -89 97 -133 185 -73 149 -93 234 -95 400 0 74 3 167 8 206 8
68 8 72 -15 88 -30 21 -62 20 -86 -1z m7 -615 c84 -249 223 -414 445 -522 113
-56 241 -93 370 -109 l100 -11 -75 -24 c-149 -46 -328 -39 -480 19 -315 121
-504 459 -446 798 9 51 19 99 23 105 4 6 13 -29 20 -76 6 -48 26 -129 43 -180z"/>
<path d="M1645 1290 c-37 -41 24 -97 63 -58 18 18 14 56 -7 68 -27 14 -35 13
-56 -10z"/>
<path d="M2732 1298 c-34 -34 6 -90 48 -68 35 19 20 80 -20 80 -9 0 -21 -5
-28 -12z"/>
<path d="M2117 1282 c-23 -25 -21 -58 4 -83 27 -27 66 -21 92 12 17 24 18 30
6 55 -18 37 -75 46 -102 16z"/>
<path d="M1844 976 c-3 -8 -4 -25 -2 -38 2 -18 10 -24 35 -26 28 -3 33 1 39
23 4 15 1 31 -6 40 -16 19 -59 19 -66 1z"/>
<path d="M2680 910 c-11 -11 -20 -24 -20 -29 0 -16 30 -41 49 -41 40 0 57 61
22 80 -26 13 -28 13 -51 -10z"/>
<path d="M1884 816 c-12 -31 1 -51 32 -54 34 -3 49 16 39 49 -8 23 -63 26 -71
5z"/>
<path d="M2136 754 c-29 -29 -13 -74 25 -74 19 0 49 25 49 41 0 12 -37 49 -49
49 -5 0 -17 -7 -25 -16z"/>
</g>
</svg>
