<?xml version="1.0" standalone="no"?>
<!DOCTYPE svg PUBLIC "-//W3C//DTD SVG 20010904//EN"
 "http://www.w3.org/TR/2001/REC-SVG-20010904/DTD/svg10.dtd">
<svg version="1.0" xmlns="http://www.w3.org/2000/svg"
 width="468pt" height="384pt" viewBox="0 0 468 384"
 preserveAspectRatio="xMidYMid meet">
<metadata>
Created by potrace 1.8, written by Peter Selinger 2001-2007
</metadata>
<g transform="translate(0,384) scale(0.159184,-0.159184)"
fill="#000000" stroke="none">
<path d="M773 2391 c-50 -23 -89 -78 -99 -138 l-7 -43 -154 0 c-171 0 -199 -7
-249 -61 -40 -43 -54 -86 -54 -164 l0 -62 -56 -12 c-67 -15 -127 -69 -143
-128 -6 -21 -11 -88 -11 -148 0 -129 18 -177 83 -229 l39 -31 285 -3 285 -3
23 -26 c18 -22 24 -43 29 -112 6 -85 6 -86 47 -123 22 -21 56 -43 74 -49 l32
-12 -47 -81 c-63 -108 -66 -118 -37 -151 25 -30 66 -36 92 -15 8 7 45 66 83
131 64 113 68 119 100 119 37 0 36 3 16 -45 -14 -34 -14 -39 1 -61 9 -14 28
-29 42 -35 37 -14 65 8 105 81 30 55 36 60 67 60 42 0 46 10 -79 -206 -55 -95
-100 -182 -100 -193 0 -35 36 -63 78 -59 36 3 37 4 154 207 65 113 121 215
124 228 6 21 11 23 75 23 38 0 69 -4 69 -10 0 -5 -22 -47 -50 -94 -27 -47 -50
-96 -50 -110 0 -27 41 -66 70 -66 33 0 58 34 161 213 56 99 108 181 115 184 7
2 24 3 37 1 25 -3 25 -3 -29 -93 -61 -103 -66 -136 -22 -168 50 -37 73 -19
158 128 l76 130 115 5 c108 5 118 7 153 34 21 15 40 34 43 42 4 11 41 14 189
14 207 0 230 5 281 63 45 52 53 91 53 272 0 181 -8 220 -53 272 -50 57 -75 63
-266 63 l-169 0 -4 128 c-3 120 -5 131 -30 169 -49 74 -64 78 -391 81 l-288 3
-32 36 c-56 63 -55 63 -494 63 -369 0 -401 -2 -440 -19z"/>
<path d="M2132 1073 c-17 -15 -174 -280 -234 -394 -22 -43 -12 -80 29 -98 53
-24 65 -11 193 210 66 114 120 219 120 233 0 27 -41 66 -70 66 -10 0 -27 -8
-38 -17z"/>
<path d="M643 998 c-11 -13 -71 -112 -133 -220 -107 -188 -112 -199 -100 -227
15 -37 57 -54 90 -38 26 13 260 410 260 440 0 26 -45 67 -73 67 -13 0 -33 -10
-44 -22z"/>
<path d="M997 808 c-27 -21 -247 -411 -247 -439 0 -14 8 -33 18 -42 22 -20 75
-22 94 -4 31 31 241 410 241 435 0 48 -66 79 -106 50z"/>
<path d="M1738 788 c-29 -29 -248 -410 -248 -430 0 -24 32 -56 61 -63 19 -5
33 0 52 17 30 27 247 404 247 429 0 25 -31 57 -62 65 -21 4 -33 0 -50 -18z"/>
<path d="M687 678 c-59 -81 -227 -388 -227 -417 0 -53 78 -83 112 -43 34 39
238 407 238 428 0 33 -34 64 -69 64 -22 0 -36 -9 -54 -32z"/>
<path d="M1448 688 c-20 -17 -248 -413 -248 -432 0 -28 13 -47 41 -61 53 -28
67 -12 193 205 64 111 119 212 122 225 12 49 -67 95 -108 63z"/>
<path d="M1062 513 c-10 -10 -63 -94 -116 -186 -141 -245 -139 -240 -125 -270
14 -30 59 -52 88 -42 25 8 261 413 261 449 0 27 -41 66 -70 66 -10 0 -27 -8
-38 -17z"/>
<path d="M1798 493 c-31 -37 -238 -409 -238 -429 0 -28 40 -64 72 -64 14 0 32
8 41 18 23 25 247 414 247 428 0 6 -9 23 -21 38 -25 31 -78 36 -101 9z"/>
</g>
</svg>
