<?xml version="1.0" standalone="no"?>
<!DOCTYPE svg PUBLIC "-//W3C//DTD SVG 20010904//EN"
 "http://www.w3.org/TR/2001/REC-SVG-20010904/DTD/svg10.dtd">
<svg version="1.0" xmlns="http://www.w3.org/2000/svg"
 width="468pt" height="468pt" viewBox="0 0 468 468"
 preserveAspectRatio="xMidYMid meet">
<metadata>
Created by potrace 1.8, written by Peter Selinger 2001-2007
</metadata>
<g transform="translate(0,468) scale(0.158644,-0.158644)"
fill="#000000" stroke="none">
<path d="M790 2934 c-19 -8 -43 -23 -53 -32 -28 -25 -57 -87 -57 -122 l0 -30
-157 0 c-187 0 -226 -12 -274 -88 -26 -40 -29 -55 -29 -123 l0 -77 -52 -11
c-63 -14 -112 -49 -138 -101 -28 -55 -29 -275 -1 -335 36 -79 91 -105 221
-105 l90 0 0 -59 c0 -67 21 -135 53 -170 26 -28 92 -60 125 -61 28 0 28 -7 -3
-32 -40 -31 -28 -88 18 -88 11 0 40 11 66 26 l47 25 67 -38 c37 -21 67 -40 67
-43 0 -4 -103 -65 -132 -78 -3 -2 -25 8 -47 22 -44 28 -80 33 -99 14 -20 -20
-14 -56 13 -74 23 -15 24 -18 10 -34 -34 -38 1 -96 52 -84 20 5 23 2 23 -23 0
-35 16 -53 46 -53 32 0 43 19 46 85 l3 60 65 37 c36 21 68 38 72 38 5 0 8 -36
8 -79 l0 -79 -55 -31 c-61 -35 -71 -63 -35 -96 19 -17 23 -18 55 -2 l34 16 3
-27 c5 -48 88 -39 88 9 0 18 2 19 30 4 37 -19 45 -19 64 1 32 31 20 61 -39 96
l-55 33 0 77 c0 43 3 78 6 78 3 0 37 -18 75 -40 l69 -41 0 -57 c0 -62 11 -82
45 -82 29 0 45 19 45 52 0 25 3 28 25 22 49 -12 84 45 49 81 -15 14 -14 17 10
36 41 32 30 89 -17 89 -10 0 -40 -12 -67 -27 l-47 -27 -66 39 c-36 21 -64 42
-61 46 3 5 32 24 66 43 l61 34 55 -29 c49 -26 58 -28 76 -15 25 16 32 51 16
72 -11 12 17 14 209 14 174 0 228 3 250 14 30 16 91 80 91 96 0 6 96 10 250
10 230 0 254 2 290 20 21 11 45 28 52 39 13 18 29 20 198 23 210 3 239 11 294
81 l31 39 3 205 c3 193 2 207 -19 249 -13 28 -37 56 -62 72 -40 26 -45 27
-219 30 l-178 3 0 110 c0 117 -12 163 -53 207 -51 55 -59 57 -374 60 l-293 3
-21 31 c-12 17 -40 39 -63 49 -38 17 -72 19 -436 18 -329 0 -401 -2 -430 -15z
m48 -1346 c4 -35 -1 -35 -63 2 l-50 30 55 -2 c52 -3 55 -5 58 -30z m136 -13
c-25 -19 -44 -19 -44 0 0 10 10 15 32 15 30 0 31 -1 12 -15z"/>
<path d="M2028 1418 c-28 -24 -29 -47 0 -81 58 -68 56 -61 36 -137 -10 -39
-21 -70 -24 -70 -3 0 -30 25 -60 55 l-54 54 16 57 c19 66 15 82 -18 90 -35 9
-54 -2 -66 -36 -10 -29 -11 -30 -28 -15 -36 32 -93 -12 -70 -54 14 -27 14 -28
-20 -40 -36 -12 -46 -34 -32 -67 13 -27 42 -31 106 -13 l39 11 59 -59 59 -59
-81 -19 -81 -18 -42 41 c-47 46 -66 51 -90 24 -22 -25 -21 -45 3 -67 l21 -19
-28 -22 c-24 -19 -26 -25 -18 -50 8 -21 18 -30 37 -32 25 -3 27 -7 25 -39 -2
-30 3 -39 25 -52 24 -14 28 -14 45 2 11 9 25 39 32 67 12 47 15 50 54 60 23 6
57 15 76 20 19 5 37 8 39 6 2 -2 -7 -37 -18 -78 l-22 -74 -62 -20 c-57 -18
-61 -21 -64 -51 -4 -37 23 -57 63 -47 22 5 25 3 25 -18 0 -32 18 -48 52 -48
17 0 31 7 39 21 l11 21 22 -21 c27 -25 49 -27 70 -5 25 25 19 51 -24 98 l-40
43 23 76 23 77 57 -58 58 -59 -17 -61 c-20 -71 -11 -92 37 -92 23 0 32 7 41
28 7 15 13 28 14 30 1 1 13 -3 28 -9 22 -10 29 -9 46 6 22 20 27 60 8 71 -7 5
0 12 22 19 43 14 55 46 31 77 -18 22 -21 22 -82 9 l-63 -13 -52 59 -52 58 36
12 c20 6 56 14 79 18 40 7 44 5 81 -34 45 -47 74 -52 98 -15 16 24 16 26 -5
54 -20 28 -20 30 -2 39 10 6 22 18 25 27 10 25 -20 64 -49 64 -22 0 -23 3 -15
31 7 24 5 34 -11 50 -37 37 -73 17 -89 -51 -7 -27 -17 -53 -22 -56 -11 -7
-151 -44 -154 -41 -1 1 9 36 22 79 l24 76 52 12 c29 7 59 17 66 23 35 28 -8
90 -57 81 -26 -5 -29 -4 -25 13 7 25 -28 56 -57 51 -13 -2 -29 -13 -35 -25
l-11 -23 -23 25 c-26 28 -39 31 -62 13z"/>
<path d="M885 810 c-9 -10 -15 -26 -11 -35 4 -12 -1 -15 -28 -13 -40 2 -66
-16 -66 -47 0 -29 15 -41 73 -55 26 -7 50 -17 53 -22 4 -6 15 -42 25 -80 l17
-70 -26 7 c-122 28 -131 33 -142 78 -20 80 -43 100 -85 73 -23 -15 -26 -22
-20 -52 5 -31 4 -34 -18 -34 -47 0 -65 -56 -26 -84 l22 -15 -22 -27 c-26 -33
-26 -39 -1 -64 29 -29 45 -25 95 21 l44 41 76 -18 c41 -10 75 -20 75 -24 0 -3
-25 -30 -55 -60 l-54 -54 -51 12 c-70 16 -77 15 -95 -12 -21 -32 -6 -62 35
-71 28 -6 29 -7 14 -30 -29 -45 27 -96 66 -60 17 15 18 15 25 -14 8 -39 39
-57 71 -42 27 12 30 37 13 107 l-12 46 53 53 c30 30 57 52 61 49 4 -2 15 -38
25 -79 l17 -74 -41 -45 c-47 -51 -48 -53 -26 -84 19 -27 45 -28 69 -2 22 24
35 26 35 5 0 -9 11 -20 24 -26 34 -16 66 3 66 40 0 28 1 29 40 24 35 -5 40 -3
52 22 17 37 2 57 -61 75 -28 9 -55 20 -59 25 -12 14 -44 136 -38 143 3 3 38
-4 78 -15 l72 -19 16 -53 c17 -61 43 -84 78 -70 21 8 26 21 23 65 -2 16 5 23
28 27 45 9 54 53 17 82 l-27 21 21 19 c35 32 21 85 -24 85 -11 0 -39 -19 -63
-42 l-42 -41 -68 18 c-37 10 -71 21 -75 24 -5 4 17 31 47 61 l54 53 55 -13
c65 -15 83 -10 92 26 6 21 2 31 -16 46 -12 10 -28 18 -35 18 -11 0 -11 6 -2
29 9 25 8 33 -8 50 -19 22 -50 28 -60 11 -9 -15 -25 -12 -25 4 0 8 -8 24 -18
36 -14 18 -25 21 -45 16 -35 -8 -41 -34 -24 -99 l15 -55 -57 -56 -58 -57 -22
82 -22 83 41 41 c41 41 50 71 28 93 -18 18 -49 14 -75 -10 -13 -12 -23 -17
-23 -10 0 17 -29 42 -49 42 -10 0 -26 -9 -36 -20z"/>
</g>
</svg>
