<?xml version="1.0" standalone="no"?>
<!DOCTYPE svg PUBLIC "-//W3C//DTD SVG 20010904//EN"
 "http://www.w3.org/TR/2001/REC-SVG-20010904/DTD/svg10.dtd">
<svg version="1.0" xmlns="http://www.w3.org/2000/svg"
 width="468pt" height="465pt" viewBox="0 0 468 465"
 preserveAspectRatio="xMidYMid meet">
<metadata>
Created by potrace 1.8, written by Peter Selinger 2001-2007
</metadata>
<g transform="translate(0,465) scale(0.157576,-0.157576)"
fill="#000000" stroke="none">
<path d="M1154 2619 c-412 -181 -768 -334 -791 -340 -51 -13 -84 -47 -85 -85
0 -16 23 -121 51 -234 67 -265 69 -267 217 -235 38 8 420 51 849 95 l780 81
85 87 c47 48 194 203 328 344 l242 257 0 -1272 c0 -700 4 -1277 8 -1283 10
-15 47 -34 67 -34 9 0 27 11 40 25 l25 24 0 1286 0 1286 -25 24 c-28 29 -68
32 -92 7 -17 -16 -19 -16 -38 6 -16 18 -112 50 -455 153 -239 71 -440 131
-446 133 -6 3 -348 -144 -760 -325z m710 144 c26 -89 196 -736 194 -738 -7 -6
-250 -26 -255 -21 -11 11 -172 671 -165 678 8 8 202 96 214 97 4 1 9 -7 12
-16z m-459 -510 c36 -144 65 -269 65 -276 0 -11 -31 -17 -121 -27 -66 -7 -123
-10 -126 -7 -3 3 -33 118 -67 255 l-63 249 116 50 c101 44 117 49 123 34 4 -9
37 -134 73 -278z m-559 -147 l51 -203 -105 -12 c-58 -6 -107 -9 -110 -7 -8 9
-83 319 -80 333 3 13 157 90 183 92 6 1 33 -91 61 -203z"/>
<path d="M563 1138 c-461 -352 -525 -402 -546 -429 -17 -24 -18 -30 -6 -55 14
-29 799 -636 839 -649 15 -5 28 2 50 24 27 26 30 36 30 90 l0 61 95 0 c102 0
127 11 140 62 3 13 4 215 3 450 l-3 427 -23 23 c-20 20 -35 23 -117 26 l-95 4
0 53 c0 30 -5 65 -11 78 -10 22 -46 47 -69 47 -4 0 -134 -95 -287 -212z m223
-915 c-5 -6 -596 446 -595 455 0 4 134 109 297 233 l297 226 3 -455 c1 -250 0
-457 -2 -459z m254 447 l0 -360 -55 0 -55 0 0 360 0 360 55 0 55 0 0 -360z"/>
</g>
</svg>
