<?xml version="1.0" standalone="no"?>
<!DOCTYPE svg PUBLIC "-//W3C//DTD SVG 20010904//EN"
 "http://www.w3.org/TR/2001/REC-SVG-20010904/DTD/svg10.dtd">
<svg version="1.0" xmlns="http://www.w3.org/2000/svg"
 width="468pt" height="472pt" viewBox="0 0 468 472"
 preserveAspectRatio="xMidYMid meet">
<metadata>
Created by potrace 1.8, written by Peter Selinger 2001-2007
</metadata>
<g transform="translate(0,472) scale(0.158644,-0.158644)"
fill="#000000" stroke="none">
<path d="M62 2955 c-66 -29 -62 60 -61 -1467 1 -761 4 -1394 8 -1407 3 -13 19
-34 34 -45 27 -20 43 -21 275 -24 160 -2 260 1 284 8 73 21 68 -89 68 1473 0
1400 0 1404 -20 1430 -12 15 -38 31 -58 37 -59 16 -490 12 -530 -5z m503 -35
c22 -5 45 -17 52 -26 10 -14 13 -296 13 -1409 l0 -1392 -21 -19 c-19 -17 -42
-19 -264 -22 -241 -3 -243 -3 -269 20 -22 19 -27 32 -29 78 -1 30 -1 656 1
1391 2 1134 4 1338 16 1355 13 17 31 19 203 24 103 3 204 7 223 8 19 1 53 -3
75 -8z"/>
<path d="M132 1804 c-16 -11 -22 -25 -22 -54 0 -65 15 -70 228 -70 181 0 183
0 207 25 30 29 32 68 5 95 -19 19 -33 20 -208 20 -154 0 -192 -3 -210 -16z"/>
<path d="M150 1623 c-41 -15 -55 -87 -22 -116 16 -15 46 -17 210 -17 179 0
193 1 212 20 27 27 25 66 -5 95 -24 25 -26 25 -202 24 -98 0 -185 -3 -193 -6z"/>
<path d="M127 1413 c-19 -23 -23 -41 -14 -75 11 -42 56 -50 250 -46 163 3 169
4 188 27 23 28 24 59 3 89 -15 21 -20 22 -213 22 -176 0 -200 -2 -214 -17z"/>
<path d="M132 1224 c-16 -11 -22 -25 -22 -54 0 -65 15 -70 228 -70 181 0 183
0 207 25 14 13 25 34 25 45 0 11 -11 32 -25 45 -24 25 -26 25 -207 25 -150 0
-188 -3 -206 -16z"/>
<path d="M150 1039 c-31 -13 -40 -26 -40 -65 0 -60 15 -64 228 -64 179 0 193
1 212 20 25 25 26 61 1 91 -19 23 -23 24 -198 26 -103 1 -188 -2 -203 -8z"/>
<path d="M126 831 c-12 -13 -16 -32 -14 -57 5 -59 23 -64 231 -64 176 0 178 0
202 25 30 29 32 68 5 95 -19 19 -33 20 -213 20 -178 0 -195 -2 -211 -19z"/>
<path d="M132 644 c-16 -11 -22 -25 -22 -54 0 -66 15 -70 232 -70 175 0 189 1
208 20 27 27 25 66 -5 95 -24 25 -26 25 -207 25 -150 0 -188 -3 -206 -16z"/>
<path d="M125 440 c-22 -25 -22 -65 0 -90 17 -19 32 -20 216 -20 193 0 198 1
213 22 9 12 16 32 16 43 0 11 -7 31 -16 43 -15 21 -20 22 -213 22 -184 0 -199
-1 -216 -20z"/>
<path d="M132 254 c-16 -11 -22 -25 -22 -54 0 -65 15 -70 228 -70 181 0 183 0
207 25 30 29 32 68 5 95 -19 19 -33 20 -208 20 -154 0 -192 -3 -210 -16z"/>
<path d="M1950 2947 c-40 -20 -47 -57 -21 -119 31 -71 48 -88 87 -88 42 0 69
36 61 79 -11 53 -47 118 -73 130 -30 13 -24 13 -54 -2z"/>
<path d="M1590 2930 c-40 -40 -28 -65 92 -187 62 -63 123 -116 136 -120 57
-14 105 44 78 95 -8 15 -61 73 -119 130 -87 86 -109 102 -136 102 -18 0 -39
-8 -51 -20z"/>
<path d="M2039 2632 c-59 -30 -111 -95 -129 -160 -5 -20 -10 -103 -10 -184 0
-171 14 -226 77 -290 62 -64 117 -78 302 -78 179 0 224 10 289 66 72 61 86
106 90 280 5 187 -8 243 -71 311 -70 76 -93 83 -308 83 -185 0 -187 0 -240
-28z m415 -117 c58 -28 66 -54 66 -230 l0 -157 -34 -34 -34 -34 -172 0 -172 0
-34 34 -34 34 0 156 c0 239 6 245 233 246 113 0 157 -4 181 -15z"/>
<path d="M1520 2620 c-25 -25 -26 -72 -2 -93 9 -8 59 -32 109 -53 l93 -38 27
21 c36 26 43 75 14 100 -27 22 -170 82 -198 83 -13 0 -32 -9 -43 -20z"/>
<path d="M1137 2342 c-21 -23 -22 -71 -3 -98 14 -18 29 -19 310 -19 265 0 297
2 312 17 23 22 22 73 -1 98 -17 19 -30 20 -310 20 -270 0 -293 -1 -308 -18z"/>
<path d="M2747 2112 c-10 -10 -17 -33 -17 -50 0 -38 27 -61 104 -87 63 -22 80
-17 106 28 22 40 2 72 -66 102 -67 30 -105 32 -127 7z"/>
<path d="M1630 2084 c-81 -33 -130 -70 -130 -98 0 -27 41 -66 68 -66 42 1 185
65 205 92 24 33 14 74 -24 93 -15 8 -29 15 -31 15 -2 -1 -41 -17 -88 -36z"/>
<path d="M1617 1722 c-114 -114 -207 -215 -207 -224 0 -29 44 -70 75 -70 23 0
62 34 231 204 218 218 228 234 184 278 -45 45 -61 35 -283 -188z"/>
<path d="M2627 1912 c-10 -10 -17 -32 -17 -48 0 -24 21 -50 118 -147 126 -126
151 -138 192 -97 41 41 29 67 -98 193 -99 99 -122 117 -148 117 -17 0 -38 -8
-47 -18z"/>
<path d="M2011 1807 c-17 -8 -36 -39 -62 -102 -46 -107 -47 -127 -13 -154 56
-44 89 -20 138 101 41 100 42 108 19 136 -24 27 -53 34 -82 19z"/>
<path d="M2454 1808 c-12 -5 -27 -22 -33 -36 -10 -22 -6 -38 30 -124 24 -57
50 -103 61 -109 40 -21 98 12 98 56 0 36 -70 194 -93 210 -25 17 -34 18 -63 3z"/>
<path d="M2233 1795 c-17 -7 -33 -23 -36 -36 -11 -41 -8 -535 4 -566 13 -34
25 -43 65 -43 63 0 64 5 64 327 0 264 -2 291 -17 305 -28 24 -47 27 -80 13z"/>
<path d="M2222 757 l-63 -10 3 -318 c3 -303 4 -319 24 -346 24 -33 73 -59 131
-67 40 -6 42 -5 47 24 18 94 19 87 -14 98 -18 7 -34 22 -40 37 -6 15 -10 146
-10 311 0 156 -3 283 -7 283 -5 -1 -36 -6 -71 -12z"/>
<path d="M2496 433 c37 -54 77 -110 87 -125 l20 -27 -35 -43 c-42 -51 -138
-197 -138 -209 0 -5 31 -9 69 -9 l70 0 35 58 c19 32 45 67 56 77 22 20 22 20
42 -5 11 -14 34 -49 50 -77 l30 -53 74 0 c41 0 74 4 74 8 0 12 -74 126 -126
194 -24 31 -44 59 -44 63 0 3 36 57 80 119 44 62 80 116 80 120 0 3 -31 6 -69
6 l-70 0 -49 -71 -50 -70 -49 70 -48 70 -78 1 -78 0 67 -97z"/>
</g>
</svg>
