<?xml version="1.0" standalone="no"?>
<!DOCTYPE svg PUBLIC "-//W3C//DTD SVG 20010904//EN"
 "http://www.w3.org/TR/2001/REC-SVG-20010904/DTD/svg10.dtd">
<svg version="1.0" xmlns="http://www.w3.org/2000/svg"
 width="468pt" height="514pt" viewBox="0 0 468 514"
 preserveAspectRatio="xMidYMid meet">
<metadata>
Created by potrace 1.8, written by Peter Selinger 2001-2007
</metadata>
<g transform="translate(0,514) scale(0.173978,-0.173978)"
fill="#000000" stroke="none">
<path d="M1579 2928 c-311 -140 -1457 -640 -1489 -648 -51 -14 -90 -50 -90
-85 0 -51 103 -438 121 -456 29 -29 66 -33 148 -15 42 9 424 52 849 97 425 44
779 82 785 85 7 3 154 155 327 339 l315 335 5 -1271 5 -1271 24 -19 c13 -10
30 -19 38 -19 18 0 56 19 65 34 4 6 8 593 8 1304 0 1279 0 1292 -20 1312 -26
26 -60 25 -94 -1 -20 -16 -26 -17 -26 -6 0 8 -6 19 -13 25 -10 9 -473 151
-863 265 -48 14 -54 14 -95 -5z m105 -523 c53 -198 96 -365 96 -371 0 -10
-247 -41 -254 -33 -2 4 -167 655 -170 673 -1 11 217 107 225 98 4 -4 50 -169
103 -367z m-560 -132 c38 -153 71 -285 73 -294 4 -14 -14 -18 -122 -29 -69 -6
-128 -10 -129 -9 -6 8 -127 502 -123 505 4 4 220 102 227 103 3 1 36 -124 74
-276z m-595 0 c36 -138 91 -366 89 -368 -4 -4 -211 -26 -213 -23 -5 7 -85 341
-82 344 5 5 182 84 189 84 4 0 12 -17 17 -37z"/>
</g>
</svg>
