<?xml version="1.0" standalone="no"?>
<!DOCTYPE svg PUBLIC "-//W3C//DTD SVG 20010904//EN"
 "http://www.w3.org/TR/2001/REC-SVG-20010904/DTD/svg10.dtd">
<svg version="1.0" xmlns="http://www.w3.org/2000/svg"
 width="468pt" height="468pt" viewBox="0 0 468 468"
 preserveAspectRatio="xMidYMid meet">
<metadata>
Created by potrace 1.8, written by Peter Selinger 2001-2007
</metadata>
<g transform="translate(0,468) scale(0.158644,-0.158644)"
fill="#000000" stroke="none">
<path d="M790 2934 c-19 -8 -43 -23 -53 -32 -28 -25 -57 -87 -57 -122 l0 -30
-157 0 c-187 0 -226 -12 -274 -88 -26 -40 -29 -55 -29 -123 l0 -77 -52 -11
c-63 -14 -112 -49 -138 -101 -28 -55 -29 -275 -1 -335 36 -79 91 -105 221
-105 l90 0 0 -60 c0 -36 8 -81 20 -112 11 -29 20 -63 20 -75 0 -16 14 -30 50
-50 l50 -28 0 -78 c0 -43 -3 -77 -8 -75 -4 2 -35 19 -70 38 l-62 35 0 63 c0
57 -2 63 -26 74 -33 15 -56 2 -69 -41 -6 -21 -14 -30 -24 -26 -40 16 -81 -56
-47 -84 11 -10 9 -17 -16 -41 -24 -24 -27 -33 -18 -49 21 -40 42 -42 99 -10
l54 29 56 -32 c90 -50 90 -47 14 -91 l-68 -39 -46 26 c-26 14 -56 26 -66 26
-46 0 -58 -57 -18 -88 21 -17 23 -21 10 -32 -35 -29 1 -99 44 -85 16 5 21 2
21 -12 0 -29 29 -63 54 -63 35 0 46 20 46 82 0 56 1 59 38 81 20 13 52 32 70
41 l32 17 0 -83 0 -83 -50 -27 c-42 -24 -50 -33 -50 -57 0 -48 26 -59 82 -36
11 4 18 0 23 -14 10 -34 42 -45 71 -26 13 8 24 24 24 35 0 18 1 18 30 2 31
-18 53 -12 73 20 16 24 1 46 -53 80 l-50 31 0 79 c0 44 3 78 8 76 4 -1 35 -19
69 -38 l63 -35 0 -47 c0 -70 14 -98 48 -98 36 0 52 16 52 52 0 25 3 28 25 22
18 -4 32 -1 45 11 24 22 25 43 4 66 -15 17 -14 20 11 42 23 19 27 29 21 50
-10 40 -45 44 -104 11 l-49 -27 -71 39 -72 40 71 41 72 42 53 -30 c42 -24 57
-28 73 -20 39 22 38 69 -3 91 -23 12 -23 13 -5 31 37 37 12 85 -39 77 -29 -4
-32 -2 -32 23 l0 28 35 -15 c25 -10 79 -14 202 -14 92 0 175 -4 183 -10 17
-11 21 -7 -58 -54 l-62 -38 -44 26 c-57 33 -93 34 -107 2 -14 -29 1 -62 32
-71 l21 -7 -21 -19 c-22 -21 -24 -28 -15 -53 10 -26 41 -38 64 -26 18 10 20 8
20 -19 0 -53 50 -80 84 -45 11 10 16 34 16 74 l0 58 64 36 c35 20 67 36 70 36
3 0 6 -36 6 -79 l0 -80 -50 -28 c-52 -29 -65 -48 -54 -77 11 -30 41 -38 74
-21 28 15 30 14 30 -3 0 -45 70 -60 91 -19 16 31 15 30 39 17 27 -15 59 -4 69
23 12 31 -1 51 -54 81 l-45 27 0 80 0 80 33 -17 c17 -9 49 -28 70 -41 36 -22
37 -25 37 -81 0 -65 11 -82 52 -82 29 0 48 23 48 60 0 17 4 20 20 15 31 -10
60 12 60 46 0 17 -6 32 -15 35 -21 8 -19 21 5 29 33 10 44 42 25 71 -20 31
-43 30 -102 -2 l-48 -27 -67 40 c-90 52 -79 63 64 63 76 0 118 4 137 14 30 16
91 80 91 96 0 6 48 10 115 10 l115 0 0 -30 c0 -28 -2 -29 -26 -20 -30 12 -60
-1 -69 -30 -10 -33 10 -53 71 -70 l58 -16 19 -73 c11 -39 17 -74 14 -77 -6 -7
-127 26 -144 38 -6 5 -17 32 -23 59 -14 58 -42 79 -80 59 -18 -10 -21 -19 -18
-51 3 -37 2 -39 -24 -39 -36 0 -56 -36 -39 -69 7 -11 18 -21 26 -21 21 0 19
-14 -5 -35 -25 -23 -26 -47 -2 -68 28 -25 42 -21 89 25 l43 42 75 -19 c41 -10
75 -21 75 -25 0 -3 -24 -29 -54 -59 l-53 -52 -63 13 c-58 12 -63 11 -76 -7
-21 -29 -13 -58 21 -75 27 -14 29 -18 21 -42 -16 -46 39 -89 72 -56 6 6 13 10
14 7 2 -2 10 -17 18 -34 19 -36 50 -43 74 -16 17 19 18 24 4 80 l-15 59 58 58
57 57 12 -44 c6 -24 16 -59 21 -77 10 -31 8 -36 -30 -77 -44 -48 -51 -74 -25
-99 21 -22 43 -20 70 5 22 21 22 21 33 1 15 -29 40 -35 68 -16 18 11 24 22 21
39 -4 21 -2 22 32 18 43 -6 63 12 58 54 -3 25 -9 30 -63 44 l-60 16 -21 76
c-12 42 -19 77 -15 77 3 0 39 -7 79 -17 72 -17 72 -17 82 -57 19 -74 27 -86
59 -86 37 0 55 22 47 60 -5 26 -3 30 17 30 31 0 47 18 47 52 0 17 -7 31 -20
38 -20 11 -20 11 1 40 21 28 21 30 5 54 -24 37 -54 32 -102 -15 l-41 -40 -69
17 c-38 9 -72 20 -76 23 -5 4 17 31 47 61 l54 54 51 -12 c70 -16 77 -15 95 12
20 31 6 63 -30 72 -28 7 -29 8 -15 35 21 39 -28 82 -69 60 -16 -9 -21 -6 -29
18 -12 34 -42 47 -72 31 -23 -12 -26 -44 -9 -104 11 -38 10 -39 -42 -92 -29
-29 -56 -51 -60 -49 -4 3 -15 37 -24 76 l-18 71 43 43 c35 36 41 48 36 69 -6
24 -4 26 29 26 41 0 107 31 127 59 13 18 29 20 198 23 210 3 239 11 294 81
l31 39 3 205 c3 193 2 207 -19 249 -13 28 -37 56 -62 72 -40 26 -45 27 -219
30 l-178 3 0 110 c0 117 -12 163 -53 207 -51 55 -59 57 -374 60 l-293 3 -21
31 c-12 17 -40 39 -63 49 -38 17 -72 19 -436 18 -329 0 -401 -2 -430 -15z
m1375 -1234 c-3 -5 -10 -10 -16 -10 -5 0 -9 5 -9 10 0 6 7 10 16 10 8 0 12 -4
9 -10z m-1443 -140 c-3 -55 -6 -61 -35 -78 -18 -10 -49 -29 -69 -41 l-38 -23
0 81 c0 81 0 81 33 101 18 11 50 20 72 20 l40 0 -3 -60z"/>
<path d="M1372 1047 c-15 -7 -22 -19 -22 -38 0 -26 -2 -27 -40 -22 -35 5 -40
3 -52 -22 -16 -36 -2 -57 53 -73 24 -7 50 -17 58 -21 12 -6 50 -115 51 -147 0
-7 -27 -4 -77 10 l-77 22 -14 49 c-17 61 -28 75 -57 75 -30 0 -50 -25 -47 -61
2 -22 -2 -29 -16 -29 -22 0 -52 -30 -52 -53 0 -8 11 -24 25 -35 24 -19 24 -20
5 -37 -22 -20 -26 -55 -8 -73 22 -22 58 -13 101 27 l43 40 73 -19 c40 -10 75
-20 77 -22 2 -2 -22 -30 -54 -61 l-57 -56 -55 14 c-30 8 -58 15 -62 15 -15 0
-38 -33 -38 -56 0 -19 8 -29 36 -40 27 -11 34 -18 25 -27 -15 -15 -14 -50 1
-65 15 -15 50 -16 65 -1 9 9 16 2 27 -25 12 -30 20 -36 45 -36 45 0 55 27 37
97 l-16 58 55 55 c30 30 57 52 60 48 3 -3 15 -38 26 -78 l20 -73 -41 -42 c-22
-22 -40 -50 -40 -61 0 -45 53 -59 85 -24 l19 21 13 -26 c24 -45 102 -21 89 28
-4 17 -1 18 25 13 42 -8 69 8 69 43 0 36 -12 45 -77 61 l-51 13 -20 80 -20 79
26 -7 c119 -29 131 -35 142 -73 5 -20 10 -42 10 -48 0 -15 34 -44 52 -44 29 0
50 36 43 71 -6 26 -4 31 8 26 22 -8 57 21 57 48 0 13 -10 31 -21 39 l-22 15
22 27 c26 33 26 39 1 64 -29 29 -45 25 -96 -22 l-45 -42 -75 19 c-41 10 -74
21 -74 25 0 3 24 29 54 59 l53 52 58 -15 c66 -17 83 -13 91 20 9 35 -2 54 -36
65 -28 10 -29 12 -14 34 15 23 14 26 -11 50 -24 25 -28 26 -48 12 -21 -14 -23
-13 -37 17 -12 24 -23 32 -47 34 -46 5 -56 -20 -37 -93 l15 -58 -52 -53 c-29
-29 -56 -51 -60 -48 -4 2 -15 38 -25 79 l-18 75 44 45 c39 40 42 47 32 69 -16
35 -49 43 -76 17 -27 -26 -32 -26 -39 -3 -6 24 -35 32 -65 19z"/>
<path d="M582 834 c-12 -8 -22 -22 -22 -30 0 -16 -16 -19 -25 -4 -12 19 -54
11 -70 -14 -22 -33 -9 -56 49 -87 l46 -24 0 -77 c0 -43 -3 -78 -6 -78 -3 0
-35 16 -70 36 l-64 36 0 57 c0 60 -18 91 -52 91 -23 0 -48 -33 -48 -64 0 -24
-2 -25 -20 -16 -17 9 -25 6 -45 -15 -21 -20 -24 -29 -15 -44 5 -11 14 -23 20
-26 5 -3 -5 -18 -22 -33 -23 -22 -29 -33 -24 -50 14 -43 41 -46 103 -13 l55
30 70 -40 70 -41 -68 -40 -69 -40 -50 26 c-61 32 -79 32 -99 4 -21 -30 -20
-35 11 -64 20 -19 24 -27 15 -36 -35 -35 3 -97 48 -83 16 5 20 2 20 -15 0 -37
19 -60 48 -60 41 0 52 17 52 84 l0 61 70 38 70 38 0 -83 0 -83 -46 -24 c-58
-31 -71 -54 -49 -87 16 -25 58 -33 70 -14 9 15 25 12 25 -5 0 -8 11 -22 25
-31 23 -15 27 -15 50 0 14 9 25 24 25 32 0 12 5 14 18 9 37 -17 66 -11 81 18
15 27 15 29 -10 50 -15 12 -40 30 -58 39 -31 17 -31 18 -31 98 0 45 3 79 8 77
4 -2 35 -21 70 -41 l62 -37 0 -53 c0 -53 12 -79 41 -89 26 -9 59 20 59 52 0
25 3 27 29 23 38 -5 69 35 51 67 -6 12 -16 21 -22 21 -7 0 3 13 22 29 32 26
34 30 22 55 -18 40 -39 43 -99 10 l-54 -29 -52 29 c-95 53 -94 48 -23 89 34
20 69 37 77 37 8 0 32 -11 54 -25 49 -30 59 -31 85 -5 27 27 25 37 -11 71 -17
16 -26 29 -20 29 5 0 15 9 21 21 18 32 -13 72 -51 67 -26 -4 -29 -2 -29 24 0
18 -8 33 -25 44 -23 15 -27 15 -50 0 -22 -14 -25 -24 -25 -75 0 -65 11 -53
-105 -122 l-35 -21 0 84 0 83 46 24 c58 31 71 54 49 88 -17 25 -33 27 -77 8
-13 -5 -18 -3 -18 7 0 16 -31 48 -46 48 -5 0 -20 -7 -32 -16z"/>
</g>
</svg>
