<?xml version="1.0" encoding="UTF-8" standalone="no"?>
<svg
   xmlns:dc="http://purl.org/dc/elements/1.1/"
   xmlns:cc="http://creativecommons.org/ns#"
   xmlns:rdf="http://www.w3.org/1999/02/22-rdf-syntax-ns#"
   xmlns:svg="http://www.w3.org/2000/svg"
   xmlns="http://www.w3.org/2000/svg"
   xmlns:sodipodi="http://sodipodi.sourceforge.net/DTD/sodipodi-0.dtd"
   xmlns:inkscape="http://www.inkscape.org/namespaces/inkscape"
   width="32.000114mm"
   height="32.000114mm"
   viewBox="0 0 32.000115 32.000114"
   version="1.1"
   id="svg1442"
   inkscape:version="1.0.1 (3bc2e813f5, 2020-09-07)"
   sodipodi:docname="xbox.svg">
  <defs
     id="defs1436" />
  <sodipodi:namedview
     id="base"
     pagecolor="#ffffff"
     bordercolor="#666666"
     borderopacity="1.0"
     inkscape:pageopacity="0.0"
     inkscape:pageshadow="2"
     inkscape:zoom="6.8378255"
     inkscape:cx="60.472211"
     inkscape:cy="54.185687"
     inkscape:document-units="mm"
     inkscape:current-layer="layer2"
     inkscape:document-rotation="0"
     showgrid="false"
     fit-margin-top="0"
     fit-margin-left="0"
     fit-margin-right="0"
     fit-margin-bottom="0"
     inkscape:window-width="1920"
     inkscape:window-height="1017"
     inkscape:window-x="-8"
     inkscape:window-y="-8"
     inkscape:window-maximized="1" />
  <metadata
     id="metadata1439">
    <rdf:RDF>
      <cc:Work
         rdf:about="">
        <dc:format>image/svg+xml</dc:format>
        <dc:type
           rdf:resource="http://purl.org/dc/dcmitype/StillImage" />
        <dc:title></dc:title>
      </cc:Work>
    </rdf:RDF>
  </metadata>
  <g
     inkscape:groupmode="layer"
     id="layer2"
     inkscape:label="Ebene 2"
     transform="translate(-0.2490804,-0.51728107)">
    <path
       id="path2019"
       style="display:inline;fill:#000000;fill-opacity:1;stroke:none;stroke-width:17.8169;stroke-linecap:round;stroke-linejoin:round;paint-order:markers fill stroke"
       d="M 61.414062,1.9550781 A 60.47244,60.47244 0 0 0 30.115234,10.685547 c 2.311244,-0.144156 6.051901,-0.312258 8.347657,-0.0098 3.013991,0.397128 5.925011,1.424099 8.773437,2.486328 4.740609,1.767859 9.594596,3.690869 13.748047,6.580079 0.06735,0.04685 0.130136,0.09936 0.197266,0.146484 0.126847,-0.09202 0.261795,-0.203126 0.386718,-0.291016 2.765133,-1.945397 5.939746,-3.544642 9.06836,-4.826172 2.925244,-1.198226 5.860337,-2.130945 8.919922,-2.925781 2.629538,-0.683117 5.486005,-0.774556 8.191406,-1.023437 1.426719,-0.131251 3.391778,-0.150614 4.9375,-0.150391 A 60.47244,60.47244 0 0 0 61.414062,1.9550781 Z M 19.78125,18.568359 A 60.47244,60.47244 0 0 0 0.94140625,62.427734 60.47244,60.47244 0 0 0 13.111328,98.810547 c -0.03521,-2.050168 -0.05777,-4.519454 0.05078,-5.798828 0.308002,-3.630066 1.181911,-7.221589 2.339844,-10.675781 1.705499,-5.087619 1.315485,-5.411545 6.726563,-14.625 2.520158,-4.29108 8.044922,-12.576172 8.044922,-12.576172 L 38.46289,43.142578 c 0,0 2.877942,-3.488466 6.792968,-7.851562 -0.0711,-0.06364 -0.141769,-0.127783 -0.21289,-0.191407 -2.754781,-2.464381 -5.417007,-5.044938 -8.335938,-7.3125 -4.153758,-3.226834 -7.742235,-7.08377 -12.722656,-8.77539 -1.049684,-0.356531 -2.88453,-0.431539 -4.203124,-0.44336 z m 80.98242,0.44336 c -1.024857,0.0061 -2.38123,0.152911 -3.365232,0.439453 -2.264092,0.659305 -3.891172,1.903282 -5.84961,3.216797 -2.567255,1.721845 -4.986251,3.665186 -7.310547,5.703125 -2.419245,2.121189 -4.834091,4.263474 -7.226562,6.423828 1.103535,1.262968 2.197221,2.535151 3.277343,3.814453 3.681631,4.360539 7.345597,9.742193 10.529297,14.478516 2.753311,4.096036 4.872766,7.701977 7.3125,11.992187 2.823581,4.965192 5.453091,10.064629 7.605471,15.355469 1.31288,3.227236 2.6462,6.506336 3.21679,9.943359 0.35561,2.142037 0.27436,6.719014 0.20118,9.167969 A 60.47244,60.47244 0 0 0 121.88672,62.427734 60.47244,60.47244 0 0 0 103.5918,19.095703 c -0.91375,-0.04316 -2.02532,-0.08875 -2.82813,-0.08398 z M 60.890625,49.550781 c -0.554342,0.495679 -1.104052,0.995635 -1.662109,1.488281 -4.088202,3.609018 -8.243534,7.150178 -12.136719,10.96875 -4.727214,4.636619 -9.444713,9.324355 -13.601563,14.478516 -3.344576,4.147007 -6.421716,8.537234 -9.066406,13.16211 -1.548177,2.707357 -2.953751,5.526801 -3.949219,8.482421 -0.366236,1.087382 -0.625702,2.220851 -0.732421,3.363281 -0.09736,1.04218 -0.123786,2.98566 -0.134766,4.62695 a 60.47244,60.47244 0 0 0 41.80664,16.7793 60.47244,60.47244 0 0 0 41.171878,-16.18164 c -0.0788,-1.95929 -0.23142,-5.35729 -0.50586,-7.125 -0.17267,-1.112122 -0.41565,-2.339554 -0.87891,-3.365234 C 99.563113,92.601787 97.305863,89.276419 95.058594,85.992188 91.330702,80.544119 87.357275,75.233109 82.921875,70.34375 76.388077,63.141225 68.84146,56.925103 61.714844,50.308594 c -0.273521,-0.253943 -0.5505,-0.504081 -0.824219,-0.757813 z"
       transform="scale(0.26458333)" />
  </g>
</svg>
